<!DOCTYPE svg PUBLIC "-//W3C//DTD SVG 1.1//EN" "http://www.w3.org/Graphics/SVG/1.1/DTD/svg11.dtd">
<svg xmlns="http://www.w3.org/2000/svg" width="297mm" height="210mm" viewBox="0 0 297 210">
    <defs id="_tag_40_"/>
    <g id="Ebene_x0020_1">
        <circle cx="124.508" cy="165.327" r="6.50" fill="none" stroke="black" stroke-width="0.1" id="center_00"/>
        <circle cx="124.508" cy="165.327" r="4.50" fill="none" stroke="black" stroke-width="0.1" id="_tag_41_"/>
        <polygon points="131.739,148.359 131.741,148.3589 131.6958998046875,149.97269785156251 131.7428984375,151.59137656250002 131.88353222656252,153.21082636718748 132.1193375,154.8269375 132.4518505859375,156.43560019531253 132.8826078125,158.03270468749997 133.41314550781252,159.61414121093753 134.04500000000002,161.1758 129.6048,158.3915 121.11630000000001,158.34470000000002 115.2069,160.6699 115.69543652343751,159.43128027343752 116.1224296875,158.17187968750002 116.48796738281251,156.8940361328125 116.7921375,155.6000875 117.0350279296875,154.2923716796875 117.2167265625,152.9732265625 117.3373212890625,151.64499003906252 117.3969,150.31 117.39750000000001,150.3099 117.39720000000001,150.293 117.40148574218752,150.029255859375 117.40324843750001,149.76535937500003 117.40249628906251,149.50132695312502 117.3992375,149.237175 117.3934802734375,148.97291992187502 117.38523281250002,148.70857812499997 117.37450332031251,148.444166015625 117.36130000000001,148.1797 117.28860000000002,143.9014 118.32525292968752,143.35593984375 119.31579843750002,142.6746125 120.26081660156252,141.85382265625 121.16088750000002,140.889975 122.01659121093752,139.77947421874998 122.8285078125,138.518725 123.59721738281252,137.10413203124997 124.32330000000002,135.53209999999999 124.32330000000002,135.53209999999999 124.33424062500002,135.50642089843748 124.34446875,135.48216093749997 124.35406875000001,135.45917363281248 124.36312500000003,135.43731249999996 124.37172187500002,135.41643105468748 124.37994375000001,135.39638281249998 124.38787500000002,135.3770212890625 124.39560000000002,135.35819999999998 124.39560000000002,135.35819999999998 124.41200488281251,135.32309082031247 124.42778281250001,135.29752656249997 124.44284121093752,135.27998964843746 124.45708750000001,135.2689625 124.47042910156252,135.2629275390625 124.48277343750001,135.26036718749998 124.4940279296875,135.25976386718747 124.50410000000002,135.25959999999998 124.50410000000002,135.25959999999998 124.5137498046875,135.26072187499997 124.52381093750003,135.26504999999997 124.53418847656252,135.272565625 124.54478750000001,135.28324999999998 124.55551308593752,135.29708437499997 124.56627031250001,135.31404999999998 124.57696425781253,135.33412812499998 124.58750000000002,135.35729999999998 124.58750000000002,135.35729999999998 124.59387343750002,135.373083203125 124.60014375000003,135.38979687499997 124.60638593750002,135.40738710937498 124.61267500000002,135.42579999999998 124.61908593750003,135.44498164062497 124.62569375000002,135.46487812499998 124.63257343750001,135.485435546875 124.63980000000002,135.5066 124.63980000000002,135.5066 125.19170078125002,136.9273287109375 125.83865000000003,138.25716093749998 126.58638046875002,139.4878783203125 127.44062500000003,140.6112625 128.40711640625003,141.6190951171875 129.49158750000004,142.50315781249998 130.69977109375003,143.2552322265625 132.03740000000002,143.8671 131.73900000000003,148.35899999999998" fill="none" stroke="black" stroke-width="0.1" id="_new_23_1"/>
        <polyline points="130.97,152.045 129.95898007812502,150.9801884765625 128.433865625,150.22787031249996 126.56812460937498,149.7764076171875 124.535225,149.61416249999996 122.50863476562499,149.7294970703125 120.661821875,150.11077343749997 119.168254296875,150.7463537109375 118.2014,151.6246" fill="none" stroke="black" stroke-width="0.1" id="_new_25_1"/>
        <polygon points="124.346,140.573 124.3902896484375,140.51644238281253 124.4435734375,140.47757656250002 124.5030236328125,140.4558505859375 124.56581249999999,140.4507125 124.62911230468751,140.4616103515625 124.6900953125,140.4879921875 124.74593378906249,140.5293060546875 124.7938,140.585 124.7938,140.585 125.18654335937501,141.15323105468752 125.59402187500001,141.7302171875 126.015708203125,142.3117853515625 126.451075,142.89376249999998 126.899594921875,143.4719755859375 127.360740625,144.04225156249998 127.833984765625,144.6004173828125 128.3188,145.1423 128.3188,145.1423 128.351096875,145.19871367187503 128.36020000000002,145.26645937499998 128.349203125,145.339769140625 128.32120000000003,145.412875 128.279284375,145.48000898437502 128.22655,145.53540312500002 128.16609062500004,145.573289453125 128.101,145.58790000000002 128.101,145.58790000000002 127.17050312500001,145.60171640625003 126.26449375,145.6135875 125.37686874999999,145.62470859375003 124.501525,145.636275 123.632359375,145.64948203125002 122.76326875000001,145.66552500000003 121.88815,145.68559921875 121.0009,145.7109 121.0009,145.7109 120.930199609375,145.7015015625 120.867540625,145.67165625 120.815461328125,145.62586406250003 120.7765,145.568625 120.75319492187501,145.5044390625 120.74808437499999,145.43780625000002 120.76370664062499,145.3732265625 120.8026,145.3152 120.8026,145.3152 121.2796951171875,144.80086328124997 121.75409843749999,144.25203125 122.2222744140625,143.67474609375 122.6806875,143.07504999999998 123.1258021484375,142.45898515625 123.55408281249998,141.83259375 123.9619939453125,141.20191796875 124.346,140.573" fill="none" stroke="black" stroke-width="0.1" id="_new_26_1"/>
        <polygon points="119.325,156.309 121.24742734375,155.4479025390625 123.24205624999999,155.0006703125 125.25173203125,154.9518685546875 127.21929999999999,155.2860625 129.08760546875,155.9878173828125 130.79949375,157.04169843750003 132.29781015625002,158.43227089843754 133.5254,160.1441 133.5254,160.1441 134.38649765624996,162.06652304687498 134.83373124999997,164.06114062500004 134.88253671874998,166.070800390625 134.54834999999997,168.03835 133.84660703125,169.906637109375 132.79274375,171.618509375 131.40219609374998,173.11681445312502 129.69039999999998,174.3444 129.69039999999998,174.3444 128.81273437499996,174.7955685546875 127.91296249999999,175.1561359375 126.99678437499998,175.42765722656253 126.06989999999999,175.6116875 125.138009375,175.70978183593752 124.20681249999998,175.72349531250003 123.28200937499997,175.65438300781253 122.36929999999998,175.50400000000002 122.36929999999998,175.50400000000002 122.25874238281249,175.47675136718752 122.16428281249998,175.4441671875 122.08309121093748,175.4045025390625 122.01233749999997,175.35601250000002 121.94919160156248,175.29695214843753 121.89082343749999,175.2255765625 121.83440292968749,175.1401408203125 121.77709999999998,175.0389 121.77709999999998,175.0389 121.72827890624998,174.92241914062504 121.70304999999998,174.802809375 121.70011484374996,174.68191992187502 121.71817499999997,174.5616 121.75593203124997,174.44369882812504 121.81208749999996,174.330065625 121.88534296874997,174.22254960937502 121.97439999999997,174.12300000000002 127.60849999999998,168.5807 128.106893359375,168.01919218749998 128.49959062499997,167.39139375000002 128.782455078125,166.7125671875 128.95135,165.997975 129.00213867187497,165.2628796875 128.930684375,164.52254375 128.73285039062498,163.79222968750003 128.40449999999998,163.0872 128.40449999999998,163.0872 127.87401601562499,162.3474990234375 127.22655312499998,161.7466171875 126.48680742187499,161.2912236328125 125.679475,160.98798749999997 124.82925195312498,160.8435779296875 123.96083437499998,160.8646640625 123.09891835937498,161.05791503906252 122.26819999999998,161.43 122.26819999999998,161.43 122.13097441406248,161.512104296875 121.99772031249998,161.598284375 121.86847167968747,161.688416015625 121.74326249999999,161.782375 121.62212675781248,161.880037109375 121.50509843749998,161.98127812500002 121.39221152343748,162.08597382812502 121.28349999999998,162.19400000000002 115.62779999999998,167.75750000000002 115.54379824218748,167.84066464843752 115.46149218749997,167.91930468750002 115.37825566406248,167.9900392578125 115.29146249999998,168.04948750000003 115.19848652343748,168.09426855468752 115.09670156249999,168.1210015625 114.98348144531248,168.1263056640625 114.85619999999997,168.10680000000002 114.85619999999997,168.10680000000002 114.73091484374999,168.0608654296875 114.62411249999997,167.98997343750003 114.53381015624997,167.89549160156253 114.45802499999996,167.77878750000002 114.39477421874997,167.64122871093753 114.34207499999997,167.48418281250002 114.29794453124998,167.3090173828125 114.26039999999998,167.11710000000002 114.26039999999998,167.11710000000002 114.10832109374996,165.5426630859375 114.19533749999997,163.97726718750005 114.51406640624998,162.44830957031252 115.05712499999997,160.98318750000004 115.81713046874997,159.60929824218755 116.78669999999997,158.35403906250002 117.95845078124998,157.24480722656253 119.32499999999997,156.30900000000003" fill="none" stroke="black" stroke-width="0.1" id="_new_29_1"/>
    </g>
</svg>
