<!DOCTYPE svg PUBLIC "-//W3C//DTD SVG 1.1//EN" "http://www.w3.org/Graphics/SVG/1.1/DTD/svg11.dtd">
<svg xmlns="http://www.w3.org/2000/svg" width="297mm" height="210mm" viewBox="0 0 297 210">
    <defs id="_tag_33_"/>
    <g id="Ebene_x0020_1">
        <circle cx="184.034" cy="66.704" r="2.5" fill="none" stroke="black" stroke-width="0.1" id="center_00"/>
        <circle cx="199.634" cy="76.704" r="1.0" fill="none" stroke="black" stroke-width="0.1" id="_tag_35_"/>
        <rect x="195.994" y="69.354" width="3.64" height="14.7" fill="none" stroke="black" stroke-width="0.1" id="_tag_36_"/>
        <polygon points="199.034,66.704 169.034,66.704 169.034,75.35069999999999 168.97907539062498,77.8352166015625 168.83254062499998,80.17358281249999 168.621754296875,82.46452324218748 168.374075,84.80676249999999 168.116861328125,87.2990251953125 167.87747187499997,90.0400359375 167.683265234375,93.12851933593748 167.5616,96.66319999999999 167.534,96.66389999999998 167.534,98.09079999999999 167.534,99.44259999999998 167.534,122.70399999999998 168.834,122.70399999999998 168.8804046875,119.62508398437498 169.0325125,117.18852187499999 169.30966406250002,115.31861757812499 169.7312,113.93967499999997 170.31646093749998,112.97599804687499 171.0847875,112.35189062499998 172.0555203125,111.99165664062498 173.248,111.81959999999998 173.248,111.81959999999998 173.40731796875,111.80764492187498 173.56468124999998,111.79702812499998 173.72014140624998,111.78770976562498 173.87374999999997,111.77964999999998 174.02555859374996,111.77280898437499 174.17561874999998,111.76714687499998 174.32398203124998,111.76262382812499 174.4707,111.75919999999998 174.4707,111.75919999999998 176.1239724609375,111.86566621093749 177.5692734375,112.09427343749996 178.8451658203125,112.41672207031249 179.99021249999998,112.80471249999997 181.0429763671875,113.22994511718747 182.0420203125,113.66412031249997 183.02590722656248,114.07893847656247 184.0332,114.44609999999997 184.0332,114.44609999999997 184.3721787109375,114.55888984374997 184.71980468750002,114.66100624999997 185.0776376953125,114.75120703124998 185.4472375,114.82824999999997 185.8301638671875,114.89089296874997 186.2279765625,114.93789374999997 186.6422353515625,114.96801015624997 187.0745,114.97999999999998 187.0745,114.97999999999998 187.09024550781248,114.98002460937498 187.1059828125,114.97995312499998 187.1217130859375,114.97979257812499 187.1374375,114.97954999999997 187.15315722656248,114.97923242187498 187.1688734375,114.97884687499999 187.1845873046875,114.97840039062497 187.2003,114.97789999999998 187.2003,114.97789999999998 187.2170462890625,114.97821171874998 187.23377031249998,114.97853749999999 187.2504873046875,114.97886328124999 187.2672125,114.97917499999998 187.2839611328125,114.97945859374998 187.30074843749998,114.97969999999998 187.3175896484375,114.97988515624999 187.3345,114.97999999999998 187.3345,114.97999999999998 188.5178658203125,114.80468730468748 189.6844328125,114.32725468749997 190.8527177734375,113.63936035156247 192.0412375,112.83266249999998 193.26850878906248,111.99881933593747 194.5530484375,111.22948906249997 195.9133732421875,110.61632988281248 197.368,110.25099999999998 197.368,110.25099999999998 197.7325615234375,110.40915156249997 198.0774296875,110.66574999999997 198.3936923828125,111.01936093749997 198.6724375,111.46854999999996 198.9047529296875,112.01188281249998 199.0817265625,112.64792499999999 199.1944462890625,113.37524218749998 199.234,114.19239999999998 200.53400000000002,114.19239999999998 200.53400000000002,99.44259999999997 200.53400000000002,95.84249999999997 200.48720000000003,95.84369999999997 200.35209042968756,92.50354921874997 200.15336093750003,89.56743749999997 199.91617285156252,86.94456328124998 199.66568750000005,84.54412499999998 199.4270662109375,82.27532109374998 199.22547031250002,80.04734999999997 199.08606113281252,77.76941015624998 199.03400000000002,75.35069999999997 199.03400000000002,66.70399999999998" fill="none" stroke="black" stroke-width="0.1" id="_new_21_1"/>
        <polyline points="200.534,114.192 200.47709921875,113.2563376953125 200.31631875,112.44073281249999 200.06654140625,111.7474083984375 199.74265,111.17858749999999 199.35952734375002,110.7364931640625 198.93205625000002,110.4233484375 198.47511953125,110.2413763671875 198.0036,110.19279999999999 198.0036,110.19279999999999 196.42960683593753,110.44922324218749 194.9673859375,111.01671718749999 193.59538769531252,111.78859316406249 192.29206250000001,112.65816249999999 191.03586074218748,113.5187365234375 189.8052328125,114.2636265625 188.5786291015625,114.78614394531249 187.3345,114.97959999999999 187.3345,114.97959999999999 185.473403125,114.81114902343748 183.86445625,114.38975468749999 182.3794375,113.8095173828125 180.89012499999998,113.1645375 179.26829687499998,112.5489154296875 177.38573125,112.0567515625 175.11420625,111.7821462890625 172.32549999999998,111.8192 172.32549999999998,111.8192 171.03104003906245,111.991256640625 169.97728906249998,112.351490625 169.14325292968746,112.975598046875 168.50793749999997,113.93927499999998 168.05034863281247,115.318217578125 167.74949218749995,117.18812187500001 167.58437402343748,119.624683984375 167.53399999999996,122.7036" fill="none" stroke="black" stroke-width="0.1" id="_new_22_1"/>
        <rect x="170.034" y="61.704" width="28" height="5" fill="none" stroke="black" stroke-width="0.1" id="_tag_37_"/>
    </g>
</svg>
