<!DOCTYPE svg PUBLIC "-//W3C//DTD SVG 1.1//EN" "http://www.w3.org/Graphics/SVG/1.1/DTD/svg11.dtd">
<svg xmlns="http://www.w3.org/2000/svg" width="297mm" height="210mm" viewBox="0 0 297 210">
    <defs id="_tag_14_"/>
    <g id="_tag_15_">
        <g id="_tag_16_">
            <polygon id="_208184584" cx="172.99" cy="92.413" points="176.29163,92.413 176.27354332540477,92.75811431017839 176.21948146301077,93.09944747575463 176.13003672589556,93.43325977913815 176.00618908931654,93.75589390287836 175.84929545389681,94.06381499999999 175.66107477913818,94.35364942252639 175.44358925014095,94.6222216838726 175.1992216838726,94.86658925014092 174.93064942252641,95.08407477913815 174.640815,95.27229545389682 174.33289390287837,95.42918908931654 174.01025977913815,95.55303672589557 173.67644747575466,95.64248146301075 173.3351143101784,95.69654332540475 172.99,95.71463 172.64488568982162,95.69654332540475 172.30355252424536,95.64248146301075 171.96974022086187,95.55303672589557 171.64710609712165,95.42918908931654 171.33918500000001,95.27229545389682 171.0493505774736,95.08407477913815 170.78077831612742,94.86658925014093 170.53641074985907,94.6222216838726 170.31892522086184,94.35364942252639 170.1307045461032,94.06381499999999 169.97381091068348,93.75589390287836 169.84996327410445,93.43325977913815 169.76051853698925,93.09944747575463 169.70645667459524,92.75811431017839 169.68837000000002,92.413 169.70645667459524,92.06788568982162 169.76051853698925,91.72655252424536 169.84996327410445,91.39274022086184 169.97381091068345,91.07010609712164 170.1307045461032,90.762185 170.31892522086184,90.4723505774736 170.53641074985907,90.2037783161274 170.78077831612742,89.95941074985907 171.0493505774736,89.74192522086184 171.33918500000001,89.55370454610318 171.64710609712165,89.39681091068346 171.96974022086184,89.27296327410443 172.30355252424536,89.18351853698924 172.64488568982162,89.12945667459525 172.99,89.11137 173.3351143101784,89.12945667459525 173.67644747575466,89.18351853698924 174.01025977913815,89.27296327410443 174.33289390287837,89.39681091068346 174.640815,89.55370454610318 174.93064942252641,89.74192522086184 175.1992216838726,89.95941074985906 175.44358925014095,90.2037783161274 175.66107477913818,90.47235057747359 175.84929545389681,90.76218499999999 176.00618908931654,91.07010609712164 176.13003672589556,91.39274022086184 176.21948146301077,91.72655252424535 176.27354332540477,92.06788568982161" fill="none" stroke="black" stroke-width="0.1"/>
            <polygon id="_206469752_1" class="fil1 str0" points="97.1965,89.4289 90.7275,82.6211 85.3155,87.76389999999999 94.2564,97.1733 94.2978,97.1912 96.10112363281249,98.8164650390625 98.0539890625,100.2658890625 100.14382558593749,101.52687792968749 102.35806249999999,102.5868375 104.68412910156249,103.4331736328125 107.1094546875,104.05329218749999 109.6214685546875,104.4345990234375 112.2076,104.5645 112.2076,104.5645 112.624687109375,104.5611177734375 113.040121875,104.5510171875 113.45386445312501,104.53426738281249 113.865875,104.51093750000001 114.27611367187501,104.4810966796875 114.68454062500001,104.4448140625 115.091116015625,104.40215878906251 115.4958,104.3532 115.4966,104.35340000000001 115.5171,104.35050000000001 115.57972617187501,104.34227851562501 115.642284375,104.33389062500001 115.704781640625,104.32533867187502 115.767225,104.31662500000002 115.829621484375,104.30775195312502 115.89197812500001,104.29872187500001 115.954301953125,104.28953710937502 116.0166,104.28020000000001 177.56,95.61510000000001 177.5662,95.61030000000001 179.998391015625,95.2141314453125 182.384346875,94.68770781250001 184.720254296875,94.0348271484375 187.00230000000002,93.25928750000001 189.22667070312502,92.36488691406251 191.38955312500002,91.35542343750001 193.48713398437502,90.23469511718751 195.5156,89.00650000000002 195.5184,89.00740000000002 197.6971,87.58510000000001 212.15120000000002,78.14840000000001 224.20350000000002,70.27980000000001 226.3873,69.0888 230.1348,67.85730000000001 232.9092,67.50770000000001 253.3207,65.53580000000001 253.3207,54.82840000000001 219.8055,54.82840000000001 222.87099999999998,63.28660000000001 216.34069999999997,66.4959 208.42899999999997,71.6619 206.12899999999996,73.16380000000001 206.12549999999996,73.165 198.21389999999997,78.331 189.92489999999998,83.7435 188.63959121093748,84.44675625 187.32394843749998,85.09983749999999 185.97925957031248,85.70145 184.6068125,86.2503 183.20789511718746,86.74509375 181.7837953125,87.18453749999999 180.33580097656247,87.5673375 178.8652,87.8922 113.98119999999999,97.02770000000001 113.76195683593748,97.04785234375001 113.5420046875,97.06539375 113.3213470703125,97.08030078125 113.0999875,97.09255 112.87792949218749,97.10211796875001 112.65517656249999,97.10898125 112.43173222656249,97.11311640625001 112.20759999999999,97.1145 112.20759999999999,97.1145 110.38490585937498,97.02324199218751 108.61425937499999,96.7553484375 106.90445195312498,96.3196400390625 105.26427499999998,95.72493750000001 103.70251992187498,94.98006152343751 102.22797812499999,94.09383281250001 100.84944101562498,93.0750720703125 99.57569999999998,91.93260000000001 97.19649999999999,89.42890000000001" fill="none" stroke="black" stroke-width="0.1"/>
            <polygon id="_206469896" points="264.202,59.8774 250.535,59.8774 250.535,62.9496 252.0,66.2862 253.101,67.6305 253.547,68.0222 254.062,68.0765 261.305,68.0765 262.111,67.9239 262.718,67.4285 263.687,66.2862 264.202,64.9569" fill="none" stroke="black" stroke-width="0.1"/>
            <polygon id="_206469848" points="47.2171,65.148 78.5705,56.1461 74.5395,83.4784 59.4627,80.0081 56.4734,78.4943 54.9183,77.5637 53.2061,75.935 51.2727,73.3375" fill="none" stroke="black" stroke-width="0.1"/>
            <polygon id="_206469824" points="21.8804,52.8768 21.2769,52.0293 20.9876,50.6847 21.4961,48.8742 22.8738,47.0923 24.7358,44.7434 26.7981,43.6289 28.838,43.4223 33.4703,43.3845 44.2599,44.1554 56.106,45.5279 68.511,47.2783 82.3071,48.7364 102.71,49.9858 122.535,50.453 135.29,49.9999 163.821,48.2096 187.609,46.5328 205.668,45.631 223.629,44.6172 234.741,45.0201 243.787,46.0002 249.982,47.0929 254.648,48.3634 259.649,50.3452 263.538,52.1762 268.901,55.814 270.217,57.8942 270.988,60.8213 270.235,62.0085 268.83,62.2064 266.639,62.0509 262.859,61.7509 248.08,62.3122 239.565,62.999 230.269,63.8457 220.358,65.0884 206.245,67.4421 192.643,70.1539 181.017,72.8053 175.358,74.2614 165.507,77.5766 157.02,81.0999 147.281,85.1198 134.868,88.7403 122.107,91.4943 110.63,92.254 102.607,92.1686 95.85,91.2626 89.3934,89.7066 83.1869,87.8751 79.9893,86.6192 76.4401,84.9741 72.2504,82.8583 69.0728,80.6278 65.1338,78.0697 59.6768,74.1271 53.8697,69.4652 47.2171,65.148 39.3475,60.6584 31.0583,56.4529 22.7675,53.5108" fill="none" stroke="black" stroke-width="0.1"/>
        </g>
        <polygon id="center_00" cx="128.912" cy="50.2265" points="139.3363,50.2265 139.2791945938875,51.316136059641 139.10850403432943,52.39383383859157 138.82609844281558,53.447785854462765 138.43507191410376,54.46644478841507 137.93970861667015,55.43865 137.34543585446278,56.35374980547243 136.65876460422402,57.201718179866646 135.88721817986666,57.973264604224 135.03924980547242,58.659935854462766 134.12415000000001,59.25420861667013 133.15194478841508,59.74957191410377 132.13328585446277,60.14059844281557 131.07933383859157,60.42300403432941 130.00163605964102,60.59369459388749 128.912,60.650800000000004 127.82236394035901,60.59369459388749 126.74466616140845,60.42300403432941 125.69071414553724,60.14059844281557 124.67205521158495,59.74957191410377 123.69985000000001,59.25420861667013 122.78475019452758,58.659935854462766 121.93678182013336,57.973264604224006 121.16523539577601,57.201718179866646 120.47856414553723,56.35374980547243 119.88429138332988,55.43865 119.38892808589624,54.46644478841507 118.99790155718443,53.447785854462765 118.7154959656706,52.393833838591576 118.54480540611252,51.316136059641 118.4877,50.2265 118.54480540611252,49.13686394035901 118.7154959656706,48.059166161408434 118.99790155718443,47.00521414553724 119.38892808589624,45.98655521158494 119.88429138332988,45.01435000000001 120.47856414553723,44.09925019452758 121.16523539577601,43.25128182013336 121.93678182013336,42.479735395776004 122.78475019452758,41.79306414553724 123.69985,41.198791383329876 124.67205521158493,40.70342808589624 125.69071414553724,40.31240155718443 126.74466616140843,40.029995965670594 127.822363940359,39.85930540611251 128.912,39.8022 130.00163605964102,39.85930540611251 131.07933383859157,40.02999596567059 132.13328585446277,40.31240155718443 133.15194478841508,40.703428085896235 134.12415,41.198791383329876 135.03924980547242,41.79306414553724 135.88721817986664,42.479735395776 136.658764604224,43.25128182013335 137.34543585446278,44.09925019452757 137.93970861667012,45.01434999999999 138.43507191410376,45.98655521158493 138.82609844281558,47.00521414553724 139.10850403432943,48.05916616140843 139.2791945938875,49.13686394035899" fill="none" stroke="black" stroke-width="0.1"/>
        <g id="_tag_17_">
            <polygon id="path159" points="130.805,114.91 130.007,114.25 129.177,113.63 128.315,113.046 127.424,112.502 127.158,112.205 127.066,111.842 127.127,111.445 127.425,111.15 130.12,109.546 132.961,108.299 135.91,107.413 138.934,106.888 142.0,106.729 145.074,106.934 148.124,107.504 151.113,108.442 151.439,108.686 151.604,109.032 151.581,109.452 151.4,109.79 150.658,110.52 149.95,111.279 149.278,112.07 148.646,112.891 148.055,113.743 147.509,114.626 147.01,115.542 146.558,116.486 133.65,117.957 132.991,117.133 132.298,116.351 131.569,115.611" fill="none" stroke="black" stroke-width="0.1"/>
            <polygon id="path1045" points="136.197,89.1739 136.999,89.0208 137.624,88.8831 138.089,88.6826 137.92,88.3109 137.383,88.1964 137.011,88.147 136.589,88.0985 136.156,88.0591 135.747,88.036 135.149,88.0702 134.626,88.2409 133.959,88.5415 133.342,88.8599 132.965,89.0847 132.676,89.3591 133.665,89.5609 134.436,89.4602 135.312,89.3258" fill="none" stroke="black" stroke-width="0.1"/>
            <polygon id="path1073" points="118.912,101.516 118.08,101.713 117.645,101.86 118.568,109.634 118.786,109.969 119.174,110.057 124.82,109.249 125.797,108.558 126.578,108.026 127.379,107.521 128.197,107.039 129.03,106.586 129.879,106.159 130.74,105.76 131.613,105.39 131.52,104.743 131.423,104.063 131.306,103.256 131.182,102.406 131.063,101.601 130.958,100.922 130.882,100.455 130.614,99.9722 130.107,99.7893 129.444,99.8071 128.713,99.9226 125.042,100.473 122.269,100.911 120.267,101.254" fill="none" stroke="black" stroke-width="0.1"/>
            <polygon id="path1085" points="156.712,96.4974 156.502,96.1613 145.199,97.6733 144.742,97.6919 144.355,97.7579 143.776,98.0214 143.465,98.4558 143.416,99.0503 143.489,99.494 143.587,100.14 143.701,100.908 143.818,101.717 143.927,102.487 144.019,103.136 144.083,103.585 145.055,103.853 145.994,103.987 146.92,104.153 147.836,104.35 148.743,104.579 149.638,104.84 150.525,105.129 151.402,105.449 157.384,104.629 157.723,104.436 157.815,104.07" fill="none" stroke="black" stroke-width="0.1"/>
            <polygon id="path1033" points="123.774,92.2113 129.757,90.0409 130.142,89.871 130.472,89.6478 130.736,89.3644 130.926,89.0128 131.075,88.5798 131.162,88.2121 131.431,87.9284 138.837,86.8367 139.224,86.9144 139.464,87.2447 139.666,87.5704 139.911,87.8799 140.235,88.1138 140.598,88.2762 140.988,88.3724 147.33,88.7552 154.73,88.3111 155.154,88.4823 155.656,91.7943 155.558,92.1984 155.207,92.6559 154.451,92.9912 153.75,93.1131 152.713,93.2862 151.459,93.485 150.105,93.6843 148.772,93.8603 147.579,93.9878 146.645,94.0401 146.089,93.993 145.535,93.6894 145.076,93.3106 144.542,92.9168 144.193,92.7353 143.763,92.5733 143.303,92.4701 142.777,92.4412 142.196,92.4782 141.569,92.5754 140.905,92.7244 140.215,92.9168 139.509,93.1462 138.797,93.405 138.163,93.6384 137.67,93.8052 137.285,93.9191 136.736,94.0369 136.287,94.0971 135.681,94.1889 135.239,94.2598 134.685,94.2998 134.288,94.2981 133.772,94.2729 133.104,94.2218 132.339,94.1719 131.592,94.1481 130.874,94.1538 130.194,94.1965 129.561,94.2807 128.986,94.4099 128.48,94.5924 128.051,94.8289 127.696,95.1124 127.423,95.3885 127.03,95.9084 126.692,96.3943 126.236,96.8405 125.71,97.0452 124.794,97.2638 123.608,97.483 122.275,97.6941 120.916,97.8836 119.652,98.0429 118.604,98.1595 117.894,98.2229 117.435,98.2256 116.811,97.9919 116.495,97.6223 116.319,96.8147 116.266,96.3329 116.223,95.8625 116.186,95.4278 116.158,95.0488 116.125,94.5559 116.546,93.8758 116.121,94.486 116.206,94.1158" fill="none" stroke="black" stroke-width="0.1"/>
        </g>
    </g>
</svg>
