<!DOCTYPE svg PUBLIC "-//W3C//DTD SVG 1.1//EN" "http://www.w3.org/Graphics/SVG/1.1/DTD/svg11.dtd">
<svg xmlns="http://www.w3.org/2000/svg" width="297mm" height="210mm" viewBox="0 0 297 210">
    <defs id="_tag_22_"/>
    <polygon points="42.375,140.679 42.3284,140.71880000000002 42.306073437500004,140.73783593750002 42.28379375,140.75691875 42.26156093749999,140.7760484375 42.239374999999995,140.79522500000002 42.21723593750001,140.81444843750003 42.19514375000001,140.83371875000003 42.1730984375,140.85303593750004 42.1511,140.87240000000003 42.0888,140.92770000000002 42.063103125,140.9507537109375 42.0374625,140.97386718750002 42.011878124999996,140.99704394531253 41.98635,141.02028750000002 41.960878125,141.0436013671875 41.9354625,141.0669890625 41.910103125,141.09045410156253 41.8848,141.114 41.8521,141.1444 41.837034570312504,141.15854726562497 41.8219890625,141.17271562499997 41.8069646484375,141.186907421875 41.7919625,141.201125 41.7769837890625,141.215370703125 41.762029687500004,141.229646875 41.7471013671875,141.24395585937498 41.7322,141.2583 41.7322,141.2583 41.716642578125,141.2733140625 41.701096875,141.28835625 41.685565234375,141.30342656249996 41.67005,141.318525 41.654553515625,141.3336515625 41.639078125,141.34880625 41.623626171874996,141.36398906249997 41.6082,141.3792 41.604099999999995,141.3833 41.5914345703125,141.3958630859375 41.57878906249999,141.4084296875 41.56616464843749,141.42100332031248 41.5535625,141.4335875 41.540983789062494,141.44618574218748 41.528429687499994,141.45880156249999 41.515901367187496,141.4714384765625 41.50339999999999,141.48409999999998 41.41989999999999,141.56959999999998 41.40098124999999,141.58915624999997 41.382099999999994,141.60875 41.36325624999999,141.62838125 41.34444999999999,141.64804999999998 41.325681249999995,141.66775625 41.30694999999999,141.6875 41.28825624999999,141.70728125 41.26959999999999,141.72709999999998 41.21219999999999,141.78869999999998 41.19223574218749,141.8103234375 41.172317187499985,141.83199374999998 41.15244316406249,141.85371093749998 41.13261249999999,141.875475 41.11282402343749,141.8972859375 41.09307656249999,141.91914375 41.073368945312495,141.94104843749994 41.05369999999999,141.96299999999997 40.979099999999995,142.04709999999997 40.9652435546875,142.06285957031247 40.9514234375,142.07863906249997 40.9376384765625,142.09443964843746 40.9238875,142.11026249999998 40.910169335937496,142.12610878906247 40.8964828125,142.14197968749997 40.882826757812495,142.15787636718747 40.86919999999999,142.17379999999997 40.86919999999999,142.17379999999997 40.85590117187499,142.18937187499998 40.84262812499999,142.2049625 40.829378515624995,142.22057187499996 40.81614999999999,142.2362 40.80294023437499,142.25184687499996 40.78974687499999,142.26751249999998 40.776567578125,142.283196875 40.76339999999999,142.29889999999997 40.68389999999999,142.39489999999998 40.66824374999999,142.41407246093746 40.652624999999986,142.43326718749998 40.63704374999999,142.45248769531247 40.62149999999999,142.47173749999996 40.60599374999998,142.49102011718747 40.590524999999985,142.51033906249998 40.575093749999986,142.5296978515625 40.559699999999985,142.54909999999998 40.480299999999986,142.6503 40.467826367187484,142.66639687499998 40.455379687499985,142.6825125 40.44295878906249,142.69864687499998 40.430562499999986,142.71479999999997 40.41818964843748,142.730971875 40.405839062499986,142.7471625 40.39350957031249,142.763371875 40.381199999999986,142.7796 40.381199999999986,142.7796 40.36920957031249,142.795471875 40.357239062499985,142.8113625 40.345289648437486,142.82727187499998 40.333362499999986,142.84319999999997 40.32145878906248,142.859146875 40.30957968749998,142.8751125 40.29772636718749,142.891096875 40.285899999999984,142.90709999999999 40.285899999999984,142.90709999999999 40.27538066406248,142.92135488281247 40.26489531249998,142.93562031249996 40.254440429687484,142.94989746093748 40.24401249999998,142.96418749999998 40.23360800781249,142.97849160156247 40.22322343749999,142.99281093749997 40.212855273437484,143.00714667968748 40.202499999999986,143.02149999999997 40.202499999999986,143.02149999999997 40.189726562499985,143.03924687499998 40.17698124999998,143.05701249999998 40.16426406249998,143.07479687499998 40.15157499999999,143.09259999999995 40.13891406249999,143.110421875 40.126281249999984,143.12826249999998 40.11367656249998,143.14612187499998 40.10109999999999,143.164 40.01139999999999,143.2934 39.95349999999999,143.3783 39.93785742187499,143.40161484375 39.92227812499999,143.42498124999997 39.90675976562499,143.44839453125002 39.891299999999994,143.47185 39.87589648437499,143.49534296874998 39.860546875,143.51886875 39.84524882812499,143.54242265624998 39.82999999999999,143.566 39.77469999999999,143.65200000000002 39.75979863281249,143.67542734375002 39.74494531249999,143.69890625000002 39.73014121093749,143.72243203125004 39.71538749999999,143.746 39.70068535156249,143.76960546875003 39.68603593749999,143.79324375000004 39.671440429687486,143.81691015625 39.656899999999986,143.84060000000002 39.60409999999999,143.92780000000002 39.589790039062486,143.95162246093753 39.57551406249999,143.9754671875 39.56127792968749,143.9993376953125 39.54708749999999,144.02323750000002 39.53294863281249,144.0471701171875 39.51886718749999,144.0711390625 39.50484902343749,144.0951478515625 39.49089999999999,144.1192 39.43759999999999,144.21290000000002 39.427414062499984,144.23087187500002 39.41725624999999,144.24886250000003 39.40712656249999,144.26687187500002 39.39702499999999,144.2849 39.38695156249999,144.302946875 39.37690624999999,144.32101250000002 39.366889062499986,144.33909687500002 39.35689999999999,144.3572 39.29059999999999,144.47910000000002 39.27945214843749,144.49988437500002 39.26835468749999,144.5206875 39.25730175781249,144.541509375 39.246287499999994,144.56234999999998 39.23530605468749,144.583209375 39.22435156249999,144.60408750000002 39.213418164062496,144.624984375 39.20249999999999,144.6459 39.162699999999994,144.7227 39.14912890625,144.74938125 39.135637499999994,144.77609999999999 39.12222109374999,144.80285625 39.108875,144.82965000000002 39.09559453124999,144.85648125 39.08237499999999,144.88335 39.06921171874999,144.91025625 39.056099999999994,144.9372 39.018899999999995,145.0142 39.0060701171875,145.04109726562498 38.993304687499986,145.068015625 38.980602539062495,145.09495742187497 38.9679625,145.12192499999998 38.95538339843749,145.148920703125 38.94286406249999,145.17594687499997 38.93040332031249,145.203005859375 38.91799999999999,145.2301 38.88069999999999,145.31279999999998 38.868836523437494,145.33935546875 38.85702343749999,145.36592499999998 38.84526425781249,145.39251328124996 38.833562499999985,145.41912499999995 38.82192167968749,145.44576484374997 38.81034531249999,145.47243749999996 38.79883691406249,145.49914765624996 38.78739999999999,145.52589999999998 38.74919999999999,145.61729999999997 38.74013945312499,145.63909687499998 38.73110937499999,145.66091249999997 38.72211210937498,145.68274687499996 38.71314999999999,145.70459999999997 38.704225390624984,145.72647187499996 38.69534062499999,145.74836249999998 38.68649804687499,145.77027187499996 38.67769999999999,145.79219999999998 38.63449999999999,145.90149999999997 38.624782031249985,145.92652617187497 38.615124999999985,145.95157812499997 38.60552421874999,145.97665351562495 38.59597499999998,146.00174999999996 38.58647265624999,146.02686523437495 38.57701249999998,146.051996875 38.567589843749985,146.07714257812495 38.558199999999985,146.10229999999996 38.53459999999998,146.16589999999997 38.52343378906249,146.19660683593744 38.512357812499985,146.22737343749998 38.50136855468749,146.25819394531246 38.490462499999985,146.28906249999994 38.47963613281249,146.31997324218747 38.468885937499984,146.35092031249997 38.45820839843748,146.38189785156248 38.44759999999998,146.41289999999998 38.42739999999998,146.47209999999998 38.41705878906248,146.50297246093749 38.40680781249997,146.5338671875 38.39664355468748,146.56478769531248 38.386562499999975,146.59573749999998 38.376561132812476,146.6267201171875 38.36663593749998,146.6577390625 38.356783398437486,146.68879785156247 38.34699999999998,146.7199 38.32639999999998,146.7866 38.316529296874975,146.8187603515625 38.30672187499998,146.8509640625 38.29698476562498,146.88320761718748 38.28732499999998,146.91548749999998 38.27774960937498,146.94780019531248 38.26826562499998,146.9801421875 38.25888007812498,147.01250996093748 38.24959999999998,147.04489999999998 38.240299999999976,147.07809999999998 38.23077539062498,147.1120232421875 38.22132812499998,147.14599218749998 38.21196054687498,147.18000566406246 38.20267499999998,147.21406249999995 38.19347382812498,147.2481615234375 38.18435937499998,147.28230156249998 38.17533398437497,147.3164814453125 38.166399999999975,147.3507 38.162799999999976,147.3644 38.16249999999997,147.3652 38.15859999999997,147.38109999999998 38.14998398437497,147.4150142578125 38.14145937499997,147.44895781249994 38.13302382812497,147.48293183593748 38.12467499999997,147.51693749999998 38.116410546874974,147.55097597656246 38.10822812499997,147.58504843749998 38.10012539062497,147.61915605468747 38.092099999999974,147.65329999999997 38.083599999999976,147.68939999999998 38.07592597656247,147.72305195312498 38.06835156249997,147.75673437499998 38.060873242187476,147.79044960937497 38.053487499999974,147.82419999999996 38.046190820312475,147.85798789062497 38.038979687499975,147.89181562499996 38.03185058593748,147.92568554687497 38.02479999999998,147.95959999999997 38.012299999999975,148.02009999999996 38.005629492187474,148.05331054687497 37.999042187499974,148.08656562499996 37.99253691406248,148.11986289062497 37.986112499999976,148.15319999999997 37.97976777343747,148.186574609375 37.973501562499976,148.21998437499997 37.96731269531248,148.25342695312494 37.96119999999998,148.28689999999995 37.95139999999998,148.34189999999995 37.94544238281247,148.37592226562495 37.93957031249998,148.40996562499996 37.93378496093748,148.44403242187497 37.928087499999975,148.47812499999992 37.92247910156248,148.51224570312496 37.91696093749998,148.54639687499994 37.91153417968748,148.58058085937495 37.90619999999998,148.61479999999995 37.89879999999998,148.66499999999994 37.89354648437499,148.70030156249993 37.888365624999985,148.73563124999993 37.88326445312498,148.77098906249995 37.87824999999998,148.80637499999992 37.87332929687498,148.84178906249994 37.86850937499998,148.87723124999994 37.86379726562498,148.91270156249993 37.85919999999998,148.94819999999993 37.85819999999998,148.95569999999992 37.85809999999998,148.95609999999994 37.85719999999998,148.96429999999992 37.85271816406248,149.0000978515624 37.84834531249998,149.03593906249995 37.84407792968748,149.07182011718743 37.839912499999976,149.10773749999993 37.83584550781248,149.14368769531242 37.83187343749997,149.17966718749992 37.82799277343747,149.2156724609374 37.824199999999976,149.25169999999991 37.81909999999998,149.29989999999992 37.815705468749975,149.33415136718742 37.81241874999998,149.36842968749994 37.809235156249976,149.4027337890624 37.80614999999998,149.4370624999999 37.80315859374997,149.47141464843742 37.800256249999975,149.50578906249993 37.797438281249974,149.54018457031242 37.79469999999998,149.57459999999992 37.789499999999975,149.64229999999992 37.78702988281247,149.67622265624993 37.784645312499975,149.7101874999999 37.78234746093747,149.7441898437499 37.780137499999974,149.77822499999994 37.77801660156248,149.81228828124992 37.775985937499975,149.8463749999999 37.77404667968748,149.8804804687499 37.77219999999998,149.91459999999992 37.76909999999997,149.9775999999999 37.76742207031247,150.0130558593749 37.76583906249997,150.04854687499991 37.76435214843747,150.0840707031249 37.76296249999997,150.1196249999999 37.76167128906247,150.15520742187493 37.76047968749997,150.1908156249999 37.75938886718747,150.22644726562493 37.75839999999997,150.26209999999992 37.757599999999975,150.29829999999993 37.75670605468748,150.3371222656249 37.75590468749998,150.37596562499994 37.75520410156248,150.4148324218749 37.75461249999997,150.4537249999999 37.75413808593747,150.49264570312494 37.753789062499976,150.53159687499993 37.753573632812476,150.57058085937493 37.753499999999974,150.60959999999992 37.753499999999974,150.60959999999992 37.753518554687474,150.6293158203124 37.75357343749997,150.64901406249993 37.75366347656247,150.66869589843742 37.75378749999997,150.68836249999993 37.753944335937476,150.70801503906242 37.754132812499975,150.7276546874999 37.75435175781248,150.7472826171874 37.754599999999975,150.7668999999999 37.75469999999998,150.7772999999999 37.75479999999998,150.7839999999999 37.75507656249998,150.8033451171874 37.755381249999985,150.82267968749994 37.755714062499976,150.84200253906243 37.75607499999998,150.86131249999988 37.75646406249999,150.8806083984374 37.756881249999985,150.89988906249994 37.75732656249998,150.91915332031243 37.75779999999998,150.93839999999992 37.75819999999998,150.95399999999992 37.75875917968748,150.97338730468744 37.75931718749998,150.99277343749992 37.75988222656248,151.0121572265624 37.760462499999974,151.03153749999993 37.76106621093748,151.05091308593742 37.76170156249998,151.0702828124999 37.76237675781248,151.08964550781243 37.76309999999998,151.10899999999992 37.76329999999998,151.11249999999993 37.76405527343748,151.13152109374994 37.764823437499984,151.1505562499999 37.76560800781248,151.16960078124993 37.76641249999998,151.18864999999994 37.767240429687476,151.20769921874992 37.76809531249998,151.2267437499999 37.768980664062475,151.2457789062499 37.76989999999998,151.26479999999992 37.77159999999998,151.29639999999992 37.77352187499998,151.33201093749994 37.77553749999998,151.3675937499999 37.777646874999974,151.4031484374999 37.77984999999998,151.43867499999993 37.78214687499998,151.47417343749993 37.78453749999998,151.50964374999992 37.78702187499998,151.54508593749992 37.78959999999998,151.58049999999992 37.79329999999998,151.62949999999992 37.80519999999998,151.7720999999999 37.80519999999998,151.7725999999999 37.80819999999998,151.8052999999999 37.81909999999998,151.9193999999999 37.82239999999998,151.95219999999992 37.82856406249998,152.01066210937492 37.83498124999998,152.06904687499994 37.841651562499976,152.12735195312493 37.84857499999998,152.18557499999991 37.855751562499975,152.24371367187493 37.863181249999975,152.30176562499992 37.870864062499976,152.3597285156249 37.87879999999998,152.4175999999999 37.879799999999975,152.42469999999992 37.882397265624974,152.4431541015624 37.88501562499997,152.46161406249993 37.88765742187498,152.4800763671874 37.890324999999976,152.49853749999994 37.89302070312498,152.51699394531244 37.89574687499997,152.53544218749994 37.89850585937498,152.55387871093743 37.90129999999998,152.57229999999993 37.90739999999998,152.61219999999992 37.92469999999998,152.72029999999992 37.92899999999998,152.74709999999993 37.93039999999998,152.75509999999994 37.95359999999998,152.89039999999994 37.96129999999998,152.93319999999994 37.96700429687498,152.96457343749992 37.97279062499997,152.99591874999993 37.978656640624976,153.02723593749994 37.98459999999998,153.05852499999997 37.990618359374984,153.08978593749995 37.99670937499998,153.12101874999993 38.00287070312498,153.15222343749994 38.00909999999998,153.18339999999995 38.02399999999998,153.25689999999994 38.04769999999998,153.36839999999995 38.05099999999998,153.38359999999994 38.05249999999998,153.39029999999994 38.05614277343748,153.40694960937495 38.059798437499985,153.42359687499993 38.06347050781249,153.44023945312495 38.06716249999998,153.4568749999999 38.070877929687484,153.47350117187494 38.07462031249998,153.49011562499993 38.078393164062476,153.50671601562493 38.08219999999998,153.52329999999995 38.09159999999998,153.56369999999995 38.09199999999998,153.56549999999996 38.10359999999998,153.61449999999996 38.12349999999998,153.69769999999997 38.12709999999998,153.71249999999998 38.13160527343747,153.73086582031246 38.136123437499975,153.74921406249996 38.140658007812476,153.7675458984375 38.14521249999998,153.78586249999998 38.14979042968747,153.8041650390625 38.15439531249997,153.82245468749997 38.15903066406248,153.84073261718748 38.16369999999998,153.85899999999998 39.920699999999975,161.14649999999997 39.920699999999975,161.14649999999997 40.00680351562497,161.51998476562497 40.08199687499997,161.89752187499997 40.14610429687498,162.27893554687498 40.198949999999975,162.66404999999997 40.24035820312497,163.05268945312497 40.27015312499998,163.444678125 40.288158984374974,163.839840234375 40.294199999999975,164.23799999999997 40.294199999999975,164.23799999999997 40.25183300781247,165.29006699218746 40.126920312499976,166.31881718749997 39.92274433593747,167.32098691406247 39.642587499999976,168.29331249999996 39.28973222656248,169.23253027343748 38.86746093749997,170.13537656249997 38.379056054687474,170.99858769531247 37.827799999999975,171.81889999999999 37.689099999999975,172.01209999999998 37.39829999999998,172.45609999999996 37.171999999999976,172.85459999999998 36.96051328124997,173.28181503906248 36.77413749999998,173.72292031249998 36.613824218749976,174.17699355468747 36.48052499999997,174.64311249999997 36.375191406249975,175.12035488281248 36.29877499999998,175.60779843749995 36.25222734374997,176.10452089843747 36.23649999999998,176.60959999999997 36.23649999999998,176.60959999999997 36.30766992187498,177.68110117187496 36.51506562499998,178.709540625 36.84951601562498,179.68574726562497 37.30184999999998,180.60054999999997 37.86289648437498,181.44477773437495 38.52348437499998,182.20925937499996 39.274442578124976,182.88482382812495 40.10659999999998,183.46229999999997 37.87679999999998,187.71599999999998 39.92589160156248,188.00761289062498 41.79107031249998,187.94717812499997 43.50039199218748,187.55513554687496 45.08191249999999,186.85192499999997 46.56368769531248,185.85798632812498 47.97377343749998,184.593759375 49.34022558593748,183.07968398437498 50.69109999999998,181.3362 50.690199999999976,181.3363 51.03562675781247,180.8254716796875 51.341745312499974,180.2876609375 51.606475585937474,179.7249291015625 51.82773749999998,179.1393375 52.003450976562476,178.5329474609375 52.131535937499976,177.9078203125 52.20991230468748,177.2660173828125 52.23649999999998,176.6096 52.23649999999998,176.6096 52.23604804687498,176.52595 52.234703124999974,176.44254375000003 52.232481640624975,176.359371875 52.22939999999998,176.27642500000002 52.225474609374984,176.19369375 52.22072187499998,176.11116875 52.21515820312497,176.02884062500002 52.208799999999975,175.9467 52.20949999999998,175.9468 52.208399999999976,175.9427 52.17135371093748,175.59022363281252 52.11923593749997,175.2424453125 52.05237832031248,174.8997037109375 51.971112499999975,174.5623375 51.87577011718747,174.2306853515625 51.76668281249997,173.9050859375 51.64418222656247,173.5858779296875 51.50859999999997,173.2734 45.89999999999997,151.88060000000002 45.86248789062497,151.72749589843752 45.82966562499997,151.57258593750004 45.801629296874964,151.41594863281253 45.77847499999997,151.2576625 45.76029882812497,151.0978060546875 45.747196874999965,150.9364578125 45.73926523437497,150.7736962890625 45.73659999999997,150.60960000000003 45.73659999999997,150.60960000000003 45.83820351562496,149.602108984375 46.12959687499997,148.66365312500002 46.590654296874966,147.81435820312504 47.20124999999997,147.07435000000004 47.94125820312497,146.46375429687504 48.79055312499997,146.00269687500003 49.729008984374964,145.71130351562505 50.736499999999964,145.60970000000003 50.736499999999964,145.60970000000003 51.587824804687465,145.68193535156252 52.39255468749996,145.89065781250002 53.13873535156247,146.22389199218753 53.81441249999996,146.66966250000002 54.40763183593746,147.21599394531253 54.90643906249996,147.85091093750003 55.298879882812464,148.56243808593754 55.572999999999965,149.33860000000004 55.57329999999997,149.33850000000004 56.52449999999997,152.96650000000005 56.52609999999997,152.97260000000006 56.52649999999997,152.97300000000007 56.86465390624997,153.84354843750006 57.302843749999965,154.65845625000009 57.83346171874997,155.41012968750007 58.448899999999966,156.09097500000007 59.14155078124997,156.69339843750006 59.903806249999974,157.20980625000004 60.72805859374997,157.63260468750008 61.60669999999997,157.95420000000007 61.607499999999966,157.95500000000007 61.609199999999966,157.95500000000007 61.93399999999997,157.95500000000007 71.95479999999996,157.95500000000007 77.62299999999996,157.95500000000007 77.82399394531247,157.87140683593756 78.00158906249996,157.71857343750005 78.15693027343747,157.50043144531259 78.29116249999996,157.22091250000005 78.40543066406246,156.88394824218759 78.50087968749997,156.49347031250008 78.57865449218747,156.05341035156255 78.63989999999997,155.56770000000006 78.64009999999998,155.56780000000006 78.70308105468749,154.89076484375008 78.79707343749999,154.22392500000007 78.92128847656248,153.56809140625006 79.07493749999998,152.92407500000007 79.25723183593747,152.29268671875008 79.46738281249996,151.67473750000008 79.70460175781248,151.07103828125005 79.96809999999998,150.48240000000007 79.96809999999998,150.48240000000007 80.86006113281248,149.1961892578126 81.94262656249998,148.0307953125001 83.19754433593748,147.00183808593758 84.60656249999998,146.12493750000007 86.15142910156247,145.4157134765626 87.81389218749997,144.88978593750008 89.57569980468747,144.5627748046876 91.41859999999998,144.45030000000008 94.26399999999998,144.45030000000008 94.26399999999998,143.01000000000008 91.41859999999998,143.01000000000008 80.26989999999998,143.01000000000008 76.53519999999997,143.01000000000008 71.34019999999998,143.00020000000006 71.33349999999999,143.00030000000007 70.26196582031248,142.89223906250007 69.26385781249999,142.58232500000008 68.36058027343748,142.09196093750006 67.57353749999999,141.44255000000004 66.92413378906248,140.65549531250005 66.43377343749998,139.75220000000007 66.12386074218749,138.75406718750006 66.01579999999998,137.68250000000006 66.01579999999998,137.68250000000006 66.02506406249998,137.36629121093753 66.05250624999998,137.05497968750007 66.09760156249999,136.74907519531257 66.15982499999998,136.44908750000005 66.23865156249998,136.15552636718758 66.33355624999999,135.86890156250007 66.44401406249999,135.58972285156256 66.56949999999999,135.31850000000006 66.56609999999999,135.31720000000007 66.86959999999999,134.69460000000007 66.86949999999999,134.69460000000007 69.08809999999998,130.14600000000007 69.14169960937498,129.94779433593757 69.11714687499997,129.75812343750005 69.03161445312499,129.57904394531258 68.90227499999999,129.41261250000008 68.74630117187498,129.26088574218758 68.58086562499999,129.12592031250006 68.42314101562499,129.00977285156256 68.29029999999999,128.91450000000006 68.29029999999999,128.91450000000006 68.14940820312498,128.81311660156254 68.03477812499999,128.73371406250007 67.93339023437498,128.66488886718756 67.832225,128.59523750000008 67.71826289062498,128.51335644531258 67.57848437499999,128.40784218750008 67.39986992187498,128.26729121093754 67.16939999999998,128.08030000000005 67.16939999999998,128.08030000000005 66.68748007812499,127.66808925781255 66.21931562499998,127.23357656250005 65.76576210937498,126.77709121093756 65.32767499999999,126.29896250000004 64.90590976562498,125.79951972656255 64.50132187499997,125.27909218750004 64.11476679687497,124.73800917968755 63.74709999999998,124.17660000000005 63.74709999999998,124.17660000000005 63.09241835937498,122.62158476562506 62.61259687499998,120.96102812500006 62.31569570312498,119.21820117187505 62.20977499999998,117.41637500000006 62.30289492187498,115.57882070312506 62.60311562499999,113.72880937500005 63.11849726562498,111.88961210937504 63.85709999999998,110.08450000000005 64.39699999999998,108.95740000000005 63.102399999999975,108.32620000000004 63.100899999999974,108.32940000000005 63.102399999999975,108.32610000000005 53.460299999999975,128.03540000000004 52.628402148437466,129.77625468750003 51.67782968749998,131.45198125000002 50.612701757812474,133.05457343750004 49.43713749999998,134.57602500000002 48.15525605468747,136.00832968750004 46.771176562499974,137.34348125000002 45.289018164062476,138.5734734375 43.712899999999976,139.69030000000004 43.712899999999976,139.69030000000004 43.53866191406247,139.80464667968755 43.36637031249998,139.9216921875 43.19605917968748,140.04140722656254 43.02776249999998,140.16376250000002 42.86151425781247,140.28872871093753 42.697348437499976,140.41627656250006 42.53529902343748,140.54637675781254 42.37539999999998,140.67900000000003 42.37499999999998,140.67900000000003" fill="none" stroke="black" stroke-width="0.1" id="_new_1_1"/>
    <polyline points="41.85209999999998,141.14440000000002 41.837034570312476,141.15854726562503 41.82198906249998,141.17271562500002 41.80696464843748,141.18690742187502 41.79196249999998,141.201125 41.77698378906248,141.21537070312502 41.762029687499975,141.22964687500004 41.747101367187476,141.24395585937503 41.73219999999998,141.25830000000002" fill="none" stroke="black" stroke-width="0.1" id="_new_1_2"/>
    <line x1="91.4186" y1="143.01" x2="94.264" y2="143.01" fill="none" stroke="black" stroke-width="0.1" id="_tag_23_"/>
    <polyline points="48.3844,161.356 46.5933130859375,160.80084726562498 44.9473734375,159.962815625 43.475450195312504,158.870744921875 42.2064125,157.55347500000002 41.169129492187494,156.039845703125 40.3924703125,154.358696875 39.90530410156249,152.538868359375 39.7365,150.6092 39.7365,150.6092 39.9600232421875,148.39261269531247 40.6010796875,146.3279390625 41.615399414062495,144.4594490234375 42.9587125,142.8314125 44.5867490234375,141.48809941406248 46.4552390625,140.47377968749998 48.519912695312506,139.83272324218748 50.7365,139.6092 50.7365,139.6092 52.95308730468749,139.83272324218748 55.0177609375,140.47377968749998 56.8862509765625,141.48809941406248 58.5142875,142.8314125 59.857600585937504,144.4594490234375 60.8719203125,146.3279390625 61.512976757812496,148.39261269531247 61.7365,150.6092 61.7365,150.6092 61.7007666015625,151.5017966796875 61.5954015625,152.37476093749999 61.4231576171875,153.22535410156246 61.186787499999994,154.0508375 60.8890439453125,154.8484724609375 60.53267968749999,155.6155203125 60.1204474609375,156.34924238281252 59.6551,157.0469" fill="none" stroke="black" stroke-width="0.1" id="_new_3_1"/>
    <circle cx="50.7365" cy="150.61" r="5.00" fill="none" stroke="black" stroke-width="0.1" id="_tag_24_"/>
    <polyline points="69.3868,157.955 70.01996757812499,157.576391015625 70.51164062499998,156.84980312500002 70.878912109375,155.87193242187502 71.138875,154.73947500000003 71.30862226562499,153.549126953125 71.40524687499999,152.397584375 71.44584179687499,151.381543359375 71.44749999999999,150.5977 71.44749999999999,150.5977 71.43194765625,149.9563802734375 71.40183124999999,149.3017421875 71.34562421875,148.6312298828125 71.25179999999999,147.9422875 71.10883203124999,147.2323591796875 70.90519375,146.49888906249998 70.62935859375,145.7393212890625 70.26979999999999,144.9511 70.26979999999999,144.9511 69.8674251953125,144.27181386718752 69.44598281249999,143.75359843750002 69.00522089843749,143.3390681640625 68.54488749999999,142.97083750000002 68.0647306640625,142.5915208984375 67.56449843749999,142.1437328125 67.04393886718749,141.57008769531248 66.5028,140.8132 66.5028,140.8132 66.0447615234375,139.98358242187498 65.7422484375,139.21991562499997 65.5481267578125,138.507066015625 65.4152625,137.8299 65.29652167968749,137.173283984375 65.14477031249999,136.52208437500002 64.9128744140625,135.861167578125 64.55369999999999,135.1754 64.55369999999999,135.1754 64.20158398437499,134.65310449218748 63.787215624999995,134.1199609375 63.31371445312499,133.58713378906248 62.784199999999984,133.0657875 62.20179179687499,132.5670865234375 61.569609375,132.10219531250002 60.89077226562499,131.6822783203125 60.16839999999999,131.3185 60.16839999999999,131.3185 59.16140429687499,130.8995953125 58.13763437499999,130.54992499999997 57.10187851562499,130.29389218749998 56.05892499999999,130.1559 55.01356210937499,130.1603515625 53.970578124999996,130.33165000000002 52.93476132812499,130.6941984375 51.91089999999999,131.2724" fill="none" stroke="black" stroke-width="0.1" id="_new_5_1"/>
    <polyline points="79.6439,151.216 80.4968650390625,149.4777712890625 81.5694640625,147.8977703125 82.8402904296875,146.4986623046875 84.2879375,145.3031125 85.8909986328125,144.3337861328125 87.6280671875,143.6133484375 89.4777365234375,143.16446464843753 91.4186,143.0098 94.264,143.0098" fill="none" stroke="black" stroke-width="0.1" id="_new_6_1"/>
    <polyline points="64.5938,125.402 64.379276953125,125.113165625 64.170128125,124.818275 63.966496484375,124.517384375 63.768525,124.21055 63.576356640625,123.897828125 63.390134375,123.579275 63.210001171875,123.254946875 63.036100000000005,122.92490000000001 63.036100000000005,122.92490000000001 62.274597265625005,121.21238496093751 61.72236562500001,119.47058593750002 61.37513242187501,117.71824707031251 61.22862500000001,115.97411250000002 61.278570703125,114.2569263671875 61.520696875000006,112.58543281250002 61.95073085937501,110.97837597656252 62.564400000000006,109.45450000000001 63.1024,108.32660000000001" fill="none" stroke="black" stroke-width="0.1" id="_new_7_1"/>
    <circle cx="44.2365" cy="176.61" r="8" fill="none" stroke="black" stroke-width="0.1" id="_tag_25_"/>
    <circle cx="44.2365" cy="176.61" r="4.5" fill="none" stroke="black" stroke-width="0.1" id="_tag_26_"/>
    <circle cx="50.7365" cy="150.61" r="5.00" fill="none" stroke="black" stroke-width="0.1" id="center_00"/>
</svg>
