<!DOCTYPE svg PUBLIC "-//W3C//DTD SVG 1.1//EN" "http://www.w3.org/Graphics/SVG/1.1/DTD/svg11.dtd">
<svg xmlns="http://www.w3.org/2000/svg" width="297mm" height="210mm" viewBox="0 0 297 210">
    <defs id="_tag_74_"/>
    <g id="_12">
        <polygon points="129.227,162.915 131.4436,162.915 131.4436,177.715 117.2861,178.17090000000002 115.9372537109375,178.0535873046875 114.6156171875,177.6479546875 113.3477439453125,177.0041853515625 112.1601875,176.17246250000002 111.0795013671875,175.20296933593752 110.1322390625,174.14588906250003 109.34495410156251,173.0514048828125 108.7442,171.96970000000002 106.98740000000001,168.23080000000002 106.6435580078125,167.59087363281253 106.21531406250001,167.00968281250002 105.71085371093751,166.49542246093753 105.13836250000001,166.05628750000005 104.50602597656251,165.70047285156252 103.82202968750002,165.43617343750003 103.09455917968752,165.27158417968752 102.33180000000002,165.21490000000003 102.33180000000002,165.21490000000003 101.30413066406251,165.31853652343753 100.34688281250001,165.61576093750003 99.48058417968753,166.0860455078125 98.72576250000002,166.7088625 98.1029455078125,167.46368417968753 97.63266093750002,168.32998281250002 97.33543652343752,169.28723066406252 97.23180000000002,170.31490000000002 97.23180000000002,170.31490000000002 97.24035488281251,170.61241894531253 97.26570156250003,170.90542031250004 97.30736308593752,171.19344589843752 97.36486250000003,171.47603750000002 97.43772285156253,171.75273691406252 97.52546718750001,172.0230859375 97.62761855468752,172.28662636718752 97.74370000000002,172.54290000000003 99.57290000000002,176.43590000000003 100.21815195312502,178.12012832031255 100.77759687500001,180.20210156250002 101.24630585937501,182.63563964843755 101.61935000000003,185.37456250000002 101.89180039062501,188.37269003906252 102.05872812500002,191.5838421875 102.11520429687502,194.96183886718754 102.05630000000002,198.46050000000002 102.05620000000002,198.46050000000002 102.05283144531252,198.69102578125003 102.04278906250002,198.91986875000003 102.02616777343752,199.14693984375 102.00306250000003,199.37215000000003 101.97356816406251,199.59541015625004 101.93777968750001,199.81663125000003 101.89579199218751,200.03572421875003 101.84770000000002,200.25260000000003 101.84740000000002,200.25510000000003 101.84460000000003,200.26510000000002 101.82327597656253,200.35227753906253 101.80100156250003,200.4390578125 101.77777324218754,200.52543730468753 101.75358750000002,200.61141250000003 101.72844082031253,200.6969798828125 101.70232968750003,200.78213593750004 101.67525058593752,200.8668771484375 101.64720000000003,200.95120000000003 101.64720000000003,200.95120000000003 100.94515703125003,202.87250878906252 100.04879375000002,204.5894203125 98.92865859375003,206.07479980468753 97.55530000000002,207.30151250000006 95.89926640625002,208.24242363281255 93.93110625000003,208.87039843750003 91.62136796875002,209.15830214843754 88.94060000000003,209.07900000000004 90.81070000000003,205.37820000000005 89.90331582031253,204.83793750000007 89.08126406250003,204.18303750000007 88.35553339843752,203.42446875000007 87.73711250000002,202.57320000000007 87.23699003906252,201.64020000000005 86.86615468750003,200.63643750000006 86.63559511718752,199.57288125000005 86.55630000000002,198.46050000000005 86.55630000000002,198.46050000000005 86.59659238281252,197.66572460937505 86.71483906250002,196.89397187500006 86.90709433593753,196.14917695312505 87.16941250000002,195.43527500000005 87.49784785156251,194.75620117187506 87.88845468750002,194.11589062500005 88.33728730468752,193.51827851562507 88.84040000000002,192.96730000000005 88.84020000000001,192.96710000000004 89.63695566406251,192.05153007812504 90.34367031250001,191.06117812500005 90.95535292968752,190.00291835937506 91.46701250000001,188.88362500000005 91.87365800781251,187.71017226562506 92.17029843750001,186.48943437500006 92.35194277343751,185.22828554687504 92.41360000000002,183.93360000000004 92.41360000000002,183.93360000000004 92.38694140625002,183.04014687500003 92.30694375000002,182.16518125000002 92.17357421875002,181.30993125000003 91.98680000000002,180.47562500000004 91.74658828125001,179.66349062500004 91.45290625000001,178.87475625000005 91.10572109375,178.11065000000002 90.70500000000001,177.37240000000003 90.70540000000001,177.37240000000003 90.26114453125001,176.58435156250002 89.86886875000002,175.76496250000002 89.53080859375001,174.91645468750002 89.2492,174.04105000000004 89.02627890625001,173.14097031250003 88.86428125000002,172.21843750000005 88.76544296875002,171.27567343750002 88.73200000000001,170.31490000000002 88.73200000000001,170.31490000000002 88.81940234375001,168.76525820312503 89.07525000000001,167.26666562500003 89.49000390625002,165.82862148437502 90.054125,164.46062500000005 90.75807421875001,163.17217539062503 91.5923125,161.97277187500003 92.54730078125002,160.87191367187503 93.61350000000002,159.87910000000002 93.61270000000002,159.87840000000003 95.51684140625002,158.15944531250003 97.37838750000002,156.175675 99.17753359375001,153.96094218750002 100.89447500000001,151.5491 102.50940703125002,148.97400156250004 104.00252500000002,146.26950000000002 105.35402421875001,143.46944843750003 106.54410000000001,140.60770000000002 120.15030000000002,146.10510000000002 119.21580000000002,148.41790000000003 118.49303593750003,151.17493496093752 118.51655000000001,153.81891093750002 119.19522656250001,156.2713720703125 120.43795000000001,158.4538625 122.1536046875,160.2879263671875 124.25107500000001,161.69510781250003 126.63924531250001,162.5969509765625 129.227,162.91500000000002" fill="none" stroke="black" stroke-width="0.1" id="_new_44_1"/>
        <polygon points="108.868,140.448 113.053,130.089 122.881,134.06 118.696,144.419" fill="none" stroke="black" stroke-width="0.1" id="_tag_76_"/>
        <rect x="131.171" y="165.215" width="12.9208" height="10.2" fill="none" stroke="black" stroke-width="0.1" id="_tag_77_"/>
        <polyline points="112.562,174.233 116.832,176.769 118.302,178.138" fill="none" stroke="black" stroke-width="0.1" id="_tag_78_"/>
        <line x1="107.864" y1="170.095" x2="112.969" y2="173.128" fill="none" stroke="black" stroke-width="0.1" id="_tag_79_"/>
        <polyline points="99.0279,175.275 98.6646884765625,175.59901601562498 98.3159203125,175.955921875 97.9954576171875,176.336391796875 97.71716250000001,176.73110000000003 97.4948970703125,177.130720703125 97.3425234375,177.525928125 97.2739037109375,177.90739648437503 97.30290000000001,178.2658 97.30290000000001,178.2658 97.63191464843752,179.7218337890625 97.93437343750003,181.22687656250002 98.21074863281251,182.77079042968754 98.4615125,184.34343750000002 98.68713730468751,185.93467988281253 98.88809531250001,187.5343796875 99.06485878906251,189.13239902343753 99.21790000000001,190.7186 99.21790000000001,190.7186 99.31936230468752,191.1114685546875 99.53756093750002,191.4886234375 99.85121347656252,191.85287597656253 100.23903750000002,192.2070375 100.67975058593751,192.5539193359375 101.15207031250002,192.89633281250002 101.63471425781252,193.23708925781253 102.10640000000001,193.579" fill="none" stroke="black" stroke-width="0.1" id="_new_49_1"/>
        <polyline points="97.7514,180.318 96.3880951171875,179.57128359375 95.1504796875,178.64608125 94.0558400390625,177.55967578125 93.1214625,176.32935000000003 92.3646333984375,174.97238671875004 91.8026390625,173.50606875 91.45276582031251,171.94767890625 91.3323,170.3145 91.3323,170.3145 91.555823046875,168.0979787109375 92.196878125,166.03335468750004 93.211194140625,164.1649001953125 94.5545,162.5368875 96.182524609375,161.19358886718751 98.050996875,160.17927656250004 100.115645703125,159.53822285156252 102.3322,159.31470000000002 102.3322,159.31470000000002 104.54882031250001,159.53822285156252 106.61351875000001,160.17927656250004 108.48202656250001,161.19358886718751 110.110075,162.5368875 111.4533953125,164.1649001953125 112.46771875,166.03335468750004 113.1087765625,168.09797871093753 113.3323,170.3145 113.3323,170.3145 113.3205271484375,170.82772382812502 113.28555468750001,171.334903125 113.2279017578125,171.835524609375 113.1480875,172.32907500000005 113.04663105468751,172.815041015625 112.92405156250001,173.29290937500002 112.78086816406251,173.76216679687502 112.61760000000001,174.22230000000002" fill="none" stroke="black" stroke-width="0.1" id="_new_50_1"/>
        <polygon points="122.447,176.57 123.3789083984375,176.48101835937499 124.28154218750001,176.209071875 125.1256267578125,175.74665820312498 125.8818875,175.086275 126.52104980468751,174.22041992187502 127.0138390625,173.141590625 127.33098066406251,171.84228476562498 127.4432,170.315 127.4432,170.315 127.33098066406251,168.787723828125 127.01383906250001,167.488440625 126.52104980468751,166.409643359375 125.8818875,165.543825 125.1256267578125,164.883478515625 124.28154218750001,164.421096875 123.37890839843752,164.149173046875 122.447,164.0602 118.32300000000001,164.1297 134.7593,163.8531 134.7593,176.77720000000002 118.323,176.50060000000002 122.44699999999999,176.57000000000002" fill="none" stroke="black" stroke-width="0.1" id="_new_51_1"/>
        <polygon points="115.761,153.99 116.02505546875,153.101104296875 116.1102125,152.17120937500002 115.99871953125,151.22441601562502 115.67282499999999,150.284825 115.11477734374999,149.376537109375 114.30682499999999,148.523653125 113.23121640625001,147.75027382812502 111.8702,147.0805 111.8702,147.0805 110.42591171874999,146.6168544921875 109.11496875,146.4260109375 107.94134140625,146.4782962890625 106.90899999999999,146.7440375 106.02191484374998,147.1935615234375 105.28405624999999,147.79719531249998 104.69939453125001,148.52526582031248 104.2719,149.3481 102.9062,152.96499999999997 108.5103,138.0604 120.54560000000001,142.92319999999998 114.1846,157.52179999999998 115.76100000000001,153.98999999999998" fill="none" stroke="black" stroke-width="0.1" id="_new_52_1"/>
        <circle cx="94.3067" cy="198.461" r="7.75" fill="none" stroke="black" stroke-width="0.1" id="_tag_80_"/>
        <circle cx="102.332" cy="170.315" r="5.1" fill="none" stroke="black" stroke-width="0.1" id="_tag_81_"/>
        <circle cx="102.332" cy="170.315" r="5.1" fill="none" stroke="black" stroke-width="0.1" id="center_00"/>
        <circle cx="94.3067" cy="198.461" r="4.5" fill="none" stroke="black" stroke-width="0.1" id="_tag_82_"/>
        <polygon points="119.259,158.893 117.045,158.893 117.045,158.8902 117.0297681640625,158.8902513671875 117.0252015625,158.8904046875 117.0271810546875,158.8906587890625 117.0315875,158.8910125 117.0343017578125,158.89146464843748 117.03120468750001,158.8920140625 117.0181771484375,158.8926595703125 116.9911,158.89339999999999 116.9911,158.89339999999999 116.80590566406251,158.90495175781248 116.6265953125,158.93067031249998 116.4538404296875,158.9703130859375 116.2883125,159.0236375 116.1306830078125,159.09040097656248 115.9816234375,159.1703609375 115.84180527343749,159.26327480468748 115.7119,159.3689 115.7119,159.3689 115.58742363281252,159.4923421875 115.4764578125,159.62743749999998 115.3797349609375,159.7739140625 115.2979875,159.9315 115.23194785156251,160.0999234375 115.18234843750001,160.2789125 115.1499216796875,160.4681953125 115.1354,160.6675 115.1354,160.6675 115.1352923828125,160.67318749999998 115.1351953125,160.67930624999997 115.1351099609375,160.685865625 115.13503750000001,160.692875 115.13497910156251,160.70034375 115.1349359375,160.70828125 115.13490917968751,160.716696875 115.1349,160.7256 115.1349,160.7256 115.136722265625,160.8057017578125 115.141790625,160.88399531249996 115.150182421875,160.96068808593748 115.16197500000001,161.03598749999998 115.17724570312501,161.11010097656248 115.196071875,161.1832359375 115.21853085937501,161.25559980468745 115.24470000000001,161.32739999999998 115.24470000000001,161.32739999999998 115.27226953125,161.39355976562499 115.30282500000001,161.45882187499998 115.33643671875001,161.52338554687498 115.373175,161.58745 115.41311015625,161.65121445312496 115.45631250000001,161.71487812499998 115.50285234375,161.77864023437496 115.5528,161.84269999999998 115.8092,162.1616 115.8291046875,162.1914953125 115.84425625,162.2251125 115.85463593749999,162.2613734375 115.860225,162.29919999999998 115.8610046875,162.3375140625 115.85695625,162.3752375 115.8480609375,162.4112921875 115.8343,162.44459999999998 115.039,163.99579999999997 114.2437,162.44459999999998 114.22993886718751,162.41129218749995 114.2210421875,162.37523749999997 114.21699003906251,162.33751406249996 114.2177625,162.29919999999998 114.2233396484375,162.26137343749997 114.23370156250002,162.2251125 114.24882832031251,162.19149531249997 114.26870000000001,162.1616 114.52510000000001,161.84269999999998 114.5750806640625,161.77864023437496 114.62164531250001,161.71487812499998 114.66486542968752,161.65121445312496 114.70481250000002,161.58745 114.74155800781251,161.52338554687498 114.7751734375,161.45882187499998 114.80573027343752,161.39355976562499 114.83330000000001,161.32739999999998 114.83330000000001,161.32739999999998 114.859440234375,161.25559980468745 114.88188437500001,161.1832359375 114.900705078125,161.11010097656248 114.915975,161.03598749999998 114.92776679687502,160.96068808593748 114.936153125,160.88399531249996 114.94120664062501,160.8057017578125 114.94300000000001,160.7256 114.94300000000001,160.7256 114.943023828125,160.716696875 114.943021875,160.70828124999997 114.94299648437502,160.70034374999997 114.94295000000001,160.692875 114.94288476562501,160.685865625 114.94280312500001,160.67930624999997 114.94270742187501,160.67318749999998 114.94260000000001,160.6675 114.94260000000001,160.6675 114.92807832031252,160.4681953125 114.8956515625,160.2789125 114.84605214843751,160.0999234375 114.78001250000001,159.9315 114.69826503906252,159.7739140625 114.6015421875,159.62743749999998 114.49057636718751,159.4923421875 114.36610000000002,159.3689 114.36610000000002,159.3689 114.23619472656253,159.2632748046875 114.09637656250001,159.1703609375 113.94731699218752,159.0904009765625 113.78968750000001,159.0236375 113.62415957031253,158.9703130859375 113.45140468750002,158.93067031249998 113.27209433593751,158.9049517578125 113.08690000000001,158.89339999999999 113.08690000000001,158.89339999999999 113.05981875,158.8926595703125 113.04678125000001,158.89201406249998 113.043671875,158.89146464843748 113.04637500000001,158.8910125 113.05077500000002,158.89065878906248 113.05275625000002,158.8904046875 113.04820312500001,158.8902513671875 113.03300000000002,158.8902 113.03300000000002,158.893 110.81900000000002,158.893 111.54740000000001,160.3262 113.03300000000002,160.3262 113.03300000000002,160.329 113.05574843750003,160.328835546875 113.06335625000001,160.32841562500002 113.06060468750002,160.327850390625 113.05227500000001,160.32725000000002 113.04314843750002,160.32672460937502 113.03800625000002,160.326384375 113.04162968750002,160.32633945312503 113.05880000000002,160.32670000000002 113.05880000000002,160.32670000000002 113.11478437500001,160.32966718750004 113.16771250000002,160.33583125 113.21739687500002,160.3451359375 113.26365000000001,160.357525 113.30628437500002,160.37294218750003 113.34511250000001,160.39133125 113.37994687500002,160.41263593750003 113.41060000000002,160.4368 113.41060000000002,160.4368 113.43167792968751,160.45835332031248 113.45050468750001,160.4832453125 113.46695722656253,160.51144902343748 113.48091250000002,160.5429375 113.49224746093752,160.5776837890625 113.5008390625,160.6156609375 113.50656425781251,160.6568419921875 113.50930000000001,160.7012 113.50930000000001,160.7012 113.50940761718752,160.70575937499999 113.5095046875,160.70990625 113.50959003906252,160.71363125 113.50966250000002,160.716925 113.50972089843751,160.719778125 113.50976406250001,160.72218125 113.5097908203125,160.724125 113.50980000000001,160.72560000000001 113.50980000000001,160.72560000000001 113.50955488281252,160.73622578125003 113.5088890625,160.74659375000002 113.5077943359375,160.75672734375001 113.5062625,160.76665000000003 113.50428535156252,160.77638515625 113.50185468750001,160.78595625000003 113.49896230468751,160.79538671875002 113.49560000000001,160.80470000000003 113.49560000000001,160.80470000000003 113.48936816406251,160.81925683593752 113.48176406250002,160.83452968750004 113.4727748046875,160.85055957031253 113.46238750000002,160.86738750000004 113.45058925781251,160.88505449218752 113.4373671875,160.90360156250003 113.4227083984375,160.92306972656252 113.40660000000001,160.94350000000003 112.95360000000001,161.50690000000003 112.89763496093751,161.57998066406253 112.84787968750001,161.65253281250003 112.8042439453125,161.72502167968753 112.7666375,161.79791250000005 112.73497011718752,161.87167050781255 112.70915156250001,161.94676093750004 112.68909160156251,162.0236490234375 112.67470000000002,162.10280000000003 112.67470000000002,162.10280000000003 112.66562578125003,162.19015175781254 112.66390625000003,162.27541406250003 112.66943359375001,162.35912246093753 112.68210000000002,162.44181250000003 112.70179765625001,162.52401972656253 112.72841875000002,162.6062796875 112.76185546875003,162.68912792968752 112.80200000000002,162.77310000000003 115.03900000000002,167.13620000000003 117.27600000000001,162.77310000000003 117.31614453125,162.68912792968752 117.34958125000001,162.6062796875 117.37620234375001,162.52401972656253 117.39590000000001,162.44181250000003 117.40856640625002,162.35912246093753 117.41409375,162.27541406250003 117.41237421875,162.19015175781254 117.40330000000002,162.10280000000003 117.40330000000002,162.10280000000003 117.38890839843752,162.0236490234375 117.3688484375,161.94676093750004 117.3430298828125,161.87167050781255 117.3113625,161.79791250000005 117.27375605468752,161.72502167968753 117.23012031250002,161.65253281250003 117.18036503906252,161.57998066406253 117.12440000000002,161.50690000000003 116.67140000000002,160.94350000000003 116.65529160156252,160.92306972656252 116.64063281250003,160.90360156250003 116.62741074218752,160.88505449218752 116.61561250000001,160.86738750000004 116.60522519531253,160.85055957031253 116.59623593750001,160.83452968750004 116.58863183593752,160.81925683593752 116.58240000000002,160.80470000000003 116.58240000000002,160.80470000000003 116.57900488281253,160.79538671875002 116.57608906250002,160.78595625000003 116.57364433593753,160.77638515625003 116.57166250000003,160.76665000000003 116.57013535156253,160.75672734375001 116.56905468750003,160.74659375000002 116.56841230468751,160.73622578125003 116.56820000000002,160.72560000000001 116.56820000000002,160.72560000000001 116.56820507812502,160.72412500000002 116.56822187500002,160.72218125000003 116.56825273437502,160.71977812500003 116.56830000000002,160.716925 116.56836601562502,160.71363125000002 116.56845312500002,160.70990625 116.56856367187503,160.70575937499999 116.56870000000002,160.7012 116.56870000000002,160.7012 116.57140703125002,160.6568419921875 116.57711875000003,160.6156609375 116.58570859375003,160.5776837890625 116.59705000000002,160.5429375 116.61101640625,160.51144902343748 116.62748125000002,160.4832453125 116.64631796875003,160.45835332031248 116.66740000000001,160.4368 116.66740000000001,160.4368 116.69805312500002,160.41263593750003 116.73288750000002,160.39133125 116.77171562500001,160.3729421875 116.81435000000002,160.357525 116.86060312500001,160.3451359375 116.91028750000001,160.33583125 116.96321562500002,160.3296671875 117.01920000000001,160.32670000000002 117.01920000000001,160.32670000000002 117.03636621093752,160.32633945312503 117.03997968750002,160.326384375 117.03482519531251,160.32672460937502 117.02568750000002,160.32725000000002 117.01735136718752,160.327850390625 117.01460156250002,160.32841562500002 117.02222285156252,160.328835546875 117.04500000000002,160.329 117.04500000000002,160.3262 118.53050000000002,160.3262 119.25900000000001,158.893" fill="none" stroke="black" stroke-width="0.1" id="_new_56_1"/>
    </g>
</svg>
