<?xml version="1.0" encoding="UTF-8"?>
<!DOCTYPE svg PUBLIC "-//W3C//DTD SVG 1.1//EN" "http://www.w3.org/Graphics/SVG/1.1/DTD/svg11.dtd">
<!-- Creator: CorelDRAW -->
<svg xmlns="http://www.w3.org/2000/svg" xml:space="preserve" width="297mm" height="210mm" style="shape-rendering:geometricPrecision; text-rendering:geometricPrecision; image-rendering:optimizeQuality; fill-rule:evenodd; clip-rule:evenodd"
viewBox="0 0 297 210">
 <defs>
  <style type="text/css">
   <![CDATA[
    .str0 {stroke:#1F1A17;stroke-width:0.0762}
    .fil1 {fill:none}
    .fil2 {fill:#00923F}
    .fil0 {fill:#FFF500}
   ]]>
  </style>
 </defs>
 <g id="Ebene_x0020_1">
  <metadata id="CorelCorpID_0Corel-Layer"/>
  <polygon class="fil0 str0" points="108.27,71.585 107.795,93.8926 107.861,98.1536 108.04,101.526 108.631,106.297 106.617,106.489 103.191,103.168 96.227,103.13 92.7287,106.6 91.6068,105.896 92.2981,102.902 92.653,99.6386 92.5525,94.6358 92.2503,85.8438 97.8519,84.6763 101.796,83.1964 103.819,81.5599 105.045,80.0848 106.432,77.1997 107.582,71.3805 "/>
  <polyline class="fil1 str0" points="92.9457,94.2747 94.3075,92.3661 97.1804,91.5321 102.733,91.5954 106.042,92.7598 107.28,94.3663 "/>
  <polygon class="fil2 str0" points="99.381,100.379 101.936,100.554 103.912,101.186 105.487,102.072 106.868,103.235 108.11,104.786 108.962,106.439 109.494,108.312 109.641,110 109.445,111.864 108.949,113.702 108.189,115.177 107.191,116.545 106.018,117.666 103.744,118.887 102.461,118.698 101.883,117.323 104.185,111.661 104.465,110.575 104.408,109.091 103.955,107.848 103.17,106.804 102.319,106.142 100.76,105.563 99.1172,105.587 97.6222,106.177 96.6883,106.952 96.0648,107.814 93.5252,112.91 93.1448,113.673 91.7536,113.909 90.707,112.574 90.4877,110.964 90.3631,109.726 90.5347,108.16 90.8782,106.872 91.4128,105.422 93.368,103.004 95.1892,101.644 96.9531,100.851 "/>
  <circle class="fil1 str0" cx="100" cy="110" r="4.5"/>
  <circle class="fil1 str0" cx="100" cy="110" r="4.5" id="center_00"/>
 </g>
</svg>
