<?xml version="1.0" encoding="UTF-8"?>
<!DOCTYPE svg PUBLIC "-//W3C//DTD SVG 1.1//EN" "http://www.w3.org/Graphics/SVG/1.1/DTD/svg11.dtd">
<svg width="210mm" height="297mm" viewBox="0 0 210 297" xmlns="http://www.w3.org/2000/svg">
    <defs id="_tag_1_">
        <style type="text/css">
                   
                    .str0 {stroke:#1F1A17;stroke-width:0.0762}
                    .str1 {stroke:black;stroke-width:0.1}
                    .fil1 {fill:none}
                    .fil2 {fill:#727577}
                    .fil0 {fill:#7F7E7C}
                   
                  </style>
    </defs>
    <circle cx="78.6584" cy="110.641" r="15.2322" fill="none" stroke="black" stroke-width="0.1" id="center_00"/>
    <polygon points="105.948,231.494 106.701,231.203 107.179,231.007 107.668,230.793 108.111,230.579 108.679,230.076 108.551,229.223 108.482,228.453 108.537,227.963 108.697,227.44 108.997,226.911 109.469,226.404 109.989,225.983 110.473,225.636 110.933,225.365 111.383,225.174 111.837,225.065 112.308,225.041 112.81,225.104 113.356,225.258 113.875,224.795 114.097,224.393 114.354,223.923 114.614,223.439 114.847,222.994 115.098,222.304 114.718,221.688 114.227,221.094 113.983,220.68 113.793,220.201 113.696,219.666 113.73,219.085 113.85,218.519 113.993,218.011 114.176,217.55 114.414,217.122 114.723,216.716 115.12,216.319 115.621,215.919 116.241,215.502 116.622,215.045 116.587,214.551 116.573,213.729 116.562,213.289 116.545,212.88 116.381,212.169 115.814,211.775 115.355,211.687 114.75,211.464 114.396,211.254 114.031,210.955 113.673,210.549 113.34,210.018 113.054,209.463 112.831,208.936 112.676,208.428 112.594,207.933 112.591,207.44 112.672,206.943 112.842,206.434 113.107,205.904 113.223,205.239 112.963,204.741 112.514,204.056 112.249,203.687 111.98,203.343 111.496,202.851 110.644,202.869 110.056,202.964 109.354,202.987 108.608,202.861 107.076,202.186 107.652,201.237 102.629,198.477 100.197,199.132 99.4501,199.213 98.7432,199.18 98.227,198.976 97.8573,198.779 97.4592,198.508 97.0673,198.156 96.7162,197.714 96.4402,197.174 95.8143,196.821 95.2932,196.895 94.4898,197.053 94.0709,197.146 93.3758,197.325 92.8341,197.943 92.8095,198.584 92.7027,199.341 92.4675,199.81 91.9742,200.398 91.6009,200.712 91.1502,201.013 90.7127,201.239 90.3028,201.401 89.6237,201.574 88.9061,201.625 88.3311,201.58 87.7399,201.454 87.1755,201.238 86.5575,201.049 85.7273,201.434 85.4346,201.711 85.1101,202.024 84.7886,202.345 84.505,202.643 84.1418,203.156 84.4284,204.136 84.5973,205.162 84.5323,206.096 84.0998,206.926 80.0193,213.814 80.1847,219.929 83.97,228.551 91.9897,234.811 101.26,234.281 104.248,231.418" fill="none" stroke="black" stroke-width="0.1" id="_128939664"/>
    <ellipse cx="97.9584" cy="215.018" rx="13.91417384" ry="12.70957576" fill="none" stroke="black" stroke-width="0.1" id="_154592512"/>
    <polygon points="144.542,128.171 140.92940000000002,130.0172 133.54840000000002,125.4422 134.5234,120.8435 135.5847,120.8575 136.0246875,120.9047869140625 136.46467499999997,120.9521265625 138.2237,121.2862 139.8793,121.838 141.6227,122.7105 143.35170000000002,123.9773 144.9643,125.7107 145.183,126.27210000000001 145.263,127.03090000000002 145.17180000000002,127.43940000000002 144.9439,127.82910000000003 144.542,128.17100000000002" fill="none" stroke="black" stroke-width="0.1" id="_tag_2_"/>
    <polyline points="130.8065,148.16840000000002 129.2784,138.6792 133.9228,146.41910000000001 133.9518,146.95630000000003 133.8836,147.37650000000002 133.7928,147.80800000000002 133.6593,148.30390000000003 133.4795,148.80200000000002 133.2497,149.23980000000003 132.9662,149.55480000000003 132.04629999999997,149.68280000000001 131.60469999999998,149.5334 131.28159999999997,149.282 130.91749999999996,148.6559 130.80649999999997,148.16840000000002" fill="none" stroke="black" stroke-width="0.1" id="_tag_3_"/>
    <polygon points="138.47349999999997,145.4839 138.01699999999997,139.2738 141.29229999999995,135.14 143.72509999999994,134.4579 145.13479999999993,132.8333 145.43619999999993,132.5541 145.79869999999994,132.3162 146.39649999999995,132.0533 146.80829999999995,131.97560000000001 147.24149999999995,131.95790000000002 147.67979999999994,132.01130000000003 148.10689999999994,132.14760000000004 148.50589999999994,132.37810000000005 148.86069999999995,132.71440000000004 149.15499999999994,133.16780000000003 149.37189999999995,133.74990000000003 149.53229999999996,134.74380000000002 149.64179999999996,136.3711 149.57039999999995,138.46790000000001 149.18859999999995,140.8702 148.36609999999996,143.4145 146.97309999999996,145.9356 144.88009999999997,148.27089999999998 141.95629999999997,150.2559 141.44129999999998,150.32729999999998 140.7457,150.23579999999998 140.3717,150.06949999999998 140.0156,149.78799999999998 139.7029,149.3652 139.4134,148.79209999999998 139.1611,148.15909999999997 138.94740000000002,147.50789999999998 138.77200000000002,146.88119999999998 138.6355,146.32049999999998 138.53810000000001,145.8679" fill="none" stroke="black" stroke-width="0.1" id="_tag_4_"/>
    <polygon points="127.61900000000003,150.29349999999997 127.99710000000003,150.51309999999998 128.41760000000005,150.87869999999998 128.64190000000005,151.2319 128.74470000000005,151.8197 128.69440000000003,152.6036 128.63830000000004,153.022 128.56130000000005,153.4521 128.46320000000006,153.8895 128.34380000000004,154.3294 128.20280000000005,154.76749999999998 127.88050000000005,155.70209999999997 127.21000000000005,157.45439999999996 126.26940000000005,159.83569999999997 125.13690000000005,162.65739999999997 123.89060000000005,165.73109999999997 122.60870000000006,168.86809999999997 121.36950000000006,171.87969999999996 120.25100000000006,174.57749999999996 119.32330000000006,176.75539999999995 118.52320000000006,178.45629999999994 117.81150000000007,179.77619999999993 117.14840000000007,180.81039999999993 116.49470000000007,181.65479999999994 115.81080000000007,182.40479999999994 115.05720000000007,183.15639999999993 114.19430000000007,184.00489999999994 112.75780000000007,185.37489999999994 110.51460000000007,187.44529999999995 107.77230000000007,189.94419999999994 104.83860000000007,192.59899999999993 102.02130000000007,195.13789999999995 99.62790000000007,197.28829999999994 98.91080000000007,197.93139999999994 97.96630000000006,198.77829999999994 96.87813613281256,199.76083730468744 95.72516406250007,200.66629218749995 94.50463808593756,201.49097910156246 93.21381250000006,202.23121249999994 91.84994160156255,202.88330683593745 90.41027968750006,203.44357656249994 88.89208105468757,203.90833613281245 87.29260000000006,204.27389999999994 86.67227539062506,204.38451660156244 86.04000937500007,204.48051406249994 85.39566367187506,204.56170136718745 84.73910000000006,204.62788749999996 84.07018007812506,204.67888144531247 83.38876562500006,204.71449218749996 82.69471835937507,204.73452871093744 81.98790000000007,204.73879999999994 81.19790000000008,204.69019999999995 80.72260000000007,204.64109999999994 79.78240000000007,204.50219999999993 78.63120000000006,204.32429999999994 77.37300000000006,204.12519999999995 76.11130000000006,203.92229999999995 74.94960000000006,203.73369999999994 73.99140000000006,203.57699999999994 73.34060000000005,203.46989999999994 72.72320000000005,203.37099999999992 72.32500000000005,203.31059999999994 71.85250000000005,203.24119999999994 71.35530000000004,203.17179999999993 70.88200000000005,203.11129999999994 70.48210000000005,203.06849999999994 69.96780000000004,203.06659999999997 69.44330000000005,203.253 69.04720000000005,203.60029999999998 68.60250000000003,204.0907 68.21570000000003,204.6065 67.87180000000002,205.1654 67.69240000000002,205.64600000000002 67.51600000000002,206.5271 67.36340000000001,207.2533 67.19030000000001,208.06539999999998 67.01370000000001,208.88459999999998 66.85040000000001,209.6324 66.7172,210.2301 66.60740000000001,210.7981 66.80330000000002,211.33190000000002 67.06330000000003,211.64090000000002 67.41470000000002,211.8848 68.27730000000003,212.4685 69.50630000000002,213.302 70.93080000000002,214.271 72.38060000000002,215.26129999999998 73.68440000000001,216.15899999999996 74.67200000000001,216.84969999999996 75.1727,217.21939999999995 75.5776,217.61789999999993 75.9542,218.18089999999992 76.24520000000001,218.81549999999993 76.39350000000002,219.42839999999993 76.46250000000002,220.0118999999999 76.70020000000002,221.16869999999992 77.15260000000002,222.77869999999993 77.86600000000001,224.72249999999994 78.88700000000001,226.88039999999995 80.26150000000001,229.13229999999996 82.03610000000002,231.35899999999995 84.25690000000002,233.44009999999994 86.71390000000001,235.20369999999994 89.2283,236.57489999999993 91.7228,237.58359999999993 94.1196,238.25949999999995 96.34110000000001,238.63179999999994 98.30950000000001,238.73019999999994 99.94760000000001,238.58449999999993 101.1773,238.22399999999993 102.1267,237.74409999999995 102.9751,237.16339999999994 103.7217,236.48119999999994 104.3653,235.69639999999995 104.90520000000001,234.80819999999994 105.3404,233.81569999999994 105.67020000000001,232.71809999999994 105.9231,231.24179999999993 105.9299,230.04039999999992 105.00450000000001,211.73459999999992 104.79440000000001,209.4338999999999 105.51370000000001,207.1680999999999 106.41050000000001,205.45279999999988 107.55980000000001,204.00249999999988 108.60810000000001,202.86099999999988 109.2843,202.29859999999988 111.1204,200.76529999999988 113.8272,198.49189999999987 117.116,195.70879999999988 120.6972,192.6465999999999 124.28179999999999,189.5364999999999 127.58099999999999,186.6085999999999 130.3054,184.0939999999999 132.4701,181.9398999999999 134.335,179.8906999999999 135.97830000000002,177.8718999999999 137.4789,175.8095999999999 138.91490000000002,173.6294999999999 140.3649,171.2573999999999 141.9075,168.6191999999999 143.6209,165.6400999999999 145.29510000000002,162.7428999999999 145.6687,162.89909999999992 146.1321,163.11009999999993 146.54210000000003,163.33199999999994 146.91730000000004,163.64269999999993 147.22640000000004,163.92239999999993 147.69810000000004,164.00209999999993 148.11510000000004,164.06489999999994 148.53220000000005,164.05609999999993 149.14690000000004,163.48719999999992 149.62120000000004,162.67669999999993 150.22760000000005,161.58769999999993 150.89270000000005,160.35579999999993 151.54360000000005,159.11679999999993 152.10720000000006,158.00659999999993 152.51010000000005,157.16099999999994 152.67960000000005,156.71549999999993 152.75000000000003,156.13989999999995 152.60360000000003,155.70889999999994 152.24110000000002,155.52939999999995 151.7739,155.45629999999994 151.35680000000002,155.01969999999997 150.94380000000004,154.45069999999998 150.55960000000005,153.9104 150.51830000000004,153.44670000000002 150.87380000000005,152.82780000000002 151.41300000000004,151.88920000000002 152.09220000000005,150.7065 152.86750000000004,149.35580000000002 153.69550000000004,147.91330000000002 154.53260000000003,146.45460000000003 155.33480000000003,145.05570000000003 156.02070000000003,143.34340000000003 156.48990000000003,141.05100000000004 156.66960000000003,138.32700000000006 156.48650000000004,135.31940000000006 155.86740000000003,132.17680000000007 154.73960000000002,129.04710000000006 153.02920000000003,126.07870000000005 150.66400000000004,123.41990000000006 147.92490000000004,121.22120000000005 145.15150000000003,119.51450000000006 142.35890000000003,118.27050000000006 139.56210000000004,117.45940000000006 136.77680000000004,117.05180000000006 134.01770000000005,117.01840000000006 131.29980000000006,117.32950000000005 128.63860000000005,117.95580000000005 117.34310000000005,125.69480000000006 117.47120000000005,143.31620000000007 127.61900000000006,150.29350000000005" fill="none" stroke="black" stroke-width="0.1" id="_tag_5_"/>
    <polygon points="98.66710000000006,222.64740000000006 98.96190000000006,223.03210000000007 99.13820000000005,223.61780000000007 99.65440000000005,229.68660000000008 99.60190000000006,230.3942000000001 99.24660000000006,231.0507000000001 98.72270000000006,231.6594000000001 98.02020000000006,232.04880000000009 97.27210000000007,232.25070000000008 96.77990000000007,232.2261000000001 95.16100000000007,231.95450000000008 93.41450000000007,231.46220000000008 91.59660000000008,230.72720000000007 89.76430000000008,229.72800000000007 87.97370000000008,228.44270000000006 86.35540000000007,226.92620000000005 85.06220000000008,225.30360000000005 84.06060000000008,223.66250000000005 83.31650000000008,222.09000000000006 82.79660000000007,220.67310000000006 82.46700000000007,219.50020000000006 82.29380000000008,218.65710000000007 82.24350000000008,218.23200000000008 82.33130000000008,217.4548000000001 82.92290000000008,217.06060000000008 83.53690000000009,217.05690000000007 90.73370000000008,218.10070000000007 91.17110000000008,218.25270000000006 91.64910000000008,218.60880000000006 92.40486621093758,219.63482207031257 92.98904218750008,220.27622656250006 93.63163144531256,220.83535839843756 94.33053750000008,221.30796250000006 95.08366386718758,221.68978378906255 95.88891406250008,221.97656718750008 96.74419160156256,222.16405761718758 97.64740000000008,222.24800000000008 98.32200000000007,222.40850000000006 98.66710000000008,222.64740000000006" fill="none" stroke="black" stroke-width="0.1" id="_tag_6_"/>
    <polygon points="133.10480000000007,155.23240000000004 132.48550000000006,155.57070000000004 131.95600000000005,156.17030000000005 131.71350000000004,156.56170000000006 131.48060000000004,157.01070000000007 131.25110000000004,157.51550000000006 131.02210000000002,158.07250000000005 130.49150000000003,159.39880000000005 129.51940000000002,161.93940000000006 128.25750000000002,165.28680000000006 126.85550000000002,169.03510000000006 125.46420000000002,172.77480000000006 124.23320000000002,176.09890000000004 123.31340000000003,178.60200000000003 122.85560000000002,179.87600000000003 122.71510000000002,180.35580000000004 122.64330000000002,180.75850000000005 122.68540000000002,181.38020000000006 122.93320000000001,181.83450000000008 123.34290000000001,182.21740000000008 123.83930000000001,182.5012000000001 124.4277,182.60770000000008 125.1737,182.39280000000008 125.6268,182.11900000000009 126.14280000000001,181.70960000000008 126.7659,181.1655000000001 127.5501,180.46730000000008 128.4393,179.65530000000007 129.3742,178.77010000000007 130.29670000000002,177.85350000000008 131.14960000000002,176.94600000000008 131.87460000000002,176.0893000000001 132.41250000000002,175.3232000000001 133.0894,174.0683000000001 134.21710000000002,171.8681000000001 135.64030000000002,169.0409000000001 137.2016,165.9061000000001 138.747,162.7830000000001 140.11710000000002,159.9910000000001 141.15830000000003,157.8479000000001 141.71280000000002,156.67370000000008 141.94520000000003,156.12560000000008 142.07390000000004,155.65030000000007 142.11740000000003,155.24090000000007 142.00830000000002,154.6002000000001 141.7433,154.1637000000001 141.44109999999998,153.87810000000007 140.96439999999998,153.67340000000007 140.29,153.59180000000006 139.8906,153.61450000000005 139.4555,153.68870000000004 138.99,153.82180000000005 138.42530000000002,154.01820000000006 137.71470000000002,154.21990000000005 136.9079,154.41860000000005 136.05180000000001,154.61250000000007 135.1962,154.79540000000006 134.3869,154.96310000000005 133.6739,155.11050000000006 133.1048,155.23240000000007" fill="none" stroke="black" stroke-width="0.1" id="_130405648"/>
    <polyline points="68.9595,210.918 70.38170000000001,211.08480000000003 71.94760000000001,211.25720000000004 73.8944,211.45700000000005 76.0811,211.66030000000006 78.3662,211.84300000000007 80.6079,211.98140000000006 82.6653,212.05120000000005 84.5717,212.00910000000005 86.5082,211.75920000000005 88.4706,211.28850000000006 90.4547,210.58330000000007 92.4561,209.63060000000007 94.4709,208.41720000000007 96.4947,206.92970000000005 98.5235,205.15500000000006 100.6005,203.21650000000005 102.7795,201.21690000000007 104.9883,199.20350000000008 107.1549,197.22320000000008 109.20739999999999,195.32300000000006 111.07319999999999,193.55030000000008 112.68079999999999,191.95190000000008 113.95759999999999,190.57480000000007 114.97099999999999,189.35980000000006 115.86049999999999,188.17170000000007 116.66259999999998,186.94480000000007 117.41309999999999,185.61290000000008 118.14879999999998,184.11000000000007 118.90609999999998,182.37030000000007 119.72119999999998,180.32760000000007 120.63049999999998,177.91600000000008 121.72739999999999,175.0568000000001 122.9707,171.7940000000001 124.2834,168.3278000000001 125.5888,164.8583000000001 126.8101,161.5858000000001 127.8704,158.7102000000001 128.6934,156.4319000000001 129.2017,154.9506000000001 129.4468,153.9335000000001 129.55259999999998,152.9382000000001 129.552,151.9995000000001 129.4777,151.1526000000001 129.3628,150.4327000000001 129.23999999999998,149.8749000000001 129.1024,149.3866000000001" fill="none" stroke="black" stroke-width="0.1" id="_131543200"/>
    <polyline points="128.83,163.588 129.2846,162.87939999999998 129.64620000000002,162.45439999999996 130.11800000000002,162.01359999999997 130.70290000000003,161.60429999999997 131.40400000000002,161.27389999999997 132.22460000000004,161.06939999999997 133.03820000000005,160.96389999999997 133.72800000000004,160.89419999999996 134.31200000000004,160.85429999999997 134.80760000000004,160.83809999999997 135.23250000000004,160.83949999999996 135.94030000000006,160.86989999999994 136.61070000000007,160.93099999999993 137.01020000000005,161.08989999999991 137.41290000000006,161.36139999999992 137.77520000000007,161.74279999999993 138.05290000000008,162.23169999999993 138.2023000000001,162.82579999999993 138.1793000000001,163.52239999999992 137.9402000000001,164.3191999999999" fill="none" stroke="black" stroke-width="0.1" id="_157887240"/>
    <polyline points="123.939,176.852 123.75919999999999,177.4995 123.7396,177.91910000000001 123.8149,178.3881 124.03059999999999,178.8749 124.4314,179.3479 125.0625,179.7761 125.8487,180.0302 126.66369999999999,179.9916 127.48089999999999,179.7277 128.2739,179.3059 129.0163,178.79340000000002 129.6817,178.25770000000003 130.2434,177.76610000000002 130.67530000000002,177.38580000000002" fill="none" stroke="black" stroke-width="0.1" id="_153836928"/>
    <polyline points="133.637,155.208 134.162,155.6322 134.9206,155.8253 135.4536,155.81889999999999 136.1007,155.70639999999997 136.7644,155.53359999999998 137.3941,155.3644 137.9848,155.2002 138.5308,155.0436 139.0272,154.8965 139.46869999999998,154.7606 139.8499,154.6381 140.39339999999999,154.4633 140.81179999999998,154.2448 141.0495,153.8051" fill="none" stroke="black" stroke-width="0.1" id="_131493216"/>
    <polyline points="98.724,199.173 99.4836,198.491 100.203,197.845 102.535,195.746 105.279,193.266 108.136,190.671 110.806,188.224 112.988,186.19 114.384,184.835 115.223,184.01 115.959,183.269 116.632,182.521 117.282,181.672 117.949,180.629 118.671,179.299 119.488,177.59 120.441,175.408 121.535,172.733 122.757,169.734 124.029,166.602 125.271,163.529 126.407,160.708 127.359,158.33 128.048,156.588 128.396,155.674 128.554,155.194 128.672,154.693 128.756,154.184 128.811,153.682 128.841,153.198 128.853,152.746 128.851,152.34" fill="none" stroke="black" stroke-width="0.1" id="_153836904"/>
    <line x1="150.429" y1="153.692" x2="145.325" y2="162.76" fill="none" stroke="black" stroke-width="0.1" id="_131845312"/>
    <polyline points="146.924,163.445 146.87940000000003,162.8389 147.01150000000004,162.27149999999997 147.43220000000002,161.43989999999997 147.89050000000003,160.78009999999998 148.47040000000004,160.00769999999997 149.11460000000005,159.18809999999996 149.76610000000005,158.38609999999997 150.36740000000006,157.66729999999998 150.86190000000005,157.09679999999997 151.19210000000004,156.73979999999997 151.67160000000004,156.33989999999997 152.05840000000003,156.05429999999996 152.41070000000002,155.82589999999996" fill="none" stroke="black" stroke-width="0.1" id="_155017384"/>
    <polyline points="128.801,152.994 128.78549999999998,153.7272 128.702,154.501 128.5309,155.2869 128.032,156.7668 127.07780000000001,159.38709999999998 125.8165,162.7667 124.3961,166.5247 122.965,170.2793 121.67110000000001,173.6497 120.66250000000001,176.25459999999998 120.08760000000001,177.7129 119.7527,178.4966 119.3566,179.3313 118.8857,180.2156 118.3267,181.1487 117.6661,182.1291 116.8906,183.1559 115.98660000000001,184.2281 114.94080000000001,185.34410000000003 113.37400000000001,186.83510000000004 111.15320000000001,188.92320000000004 108.5443,191.36310000000003 105.81330000000001,193.90960000000004 103.22610000000002,196.31740000000005 101.04900000000002,198.34100000000004 99.54750000000001,199.73510000000005 98.98790000000001,200.25430000000006 96.831216015625,201.99539785156256 94.685071875,203.48551406250007 92.52495429687501,204.71804511718756 90.32635,205.68638750000005 88.064745703125,206.38393769531257 85.715628125,206.80409218750006 83.254483984375,206.94024746093754 80.6568,206.78580000000005 75.4471,206.19760000000005 69.738,205.10870000000006" fill="none" stroke="black" stroke-width="0.1" id="_158856784"/>
    <circle cx="97.9584" cy="215.018" r="4.98354892" fill="none" stroke="black" stroke-width="0.1" id="_189337584"/>
    <circle cx="97.9584" cy="215.018" r="3.35626764" fill="none" stroke="black" stroke-width="0.1" id="_188088304"/>
    <polyline points="70.5955,176.269 67.5705,177.191 69.0134,184.611 69.6014,185.111 70.1359,185.214 70.7238,185.183 71.5478,184.867 71.9075,184.535 72.0765,184.16 70.5955,176.269" fill="none" stroke="black" stroke-width="0.1" id="_132565680"/>
    <polygon points="70.939,175.912 70.9109,176.44 70.5552,176.92 69.9457,177.307 69.5688,177.451 69.156,177.554 68.7336,177.607 68.3285,177.611 67.6141,177.482 66.9458,176.996 66.8425,176.48 67.0433,175.939 67.535,175.486 68.244,175.16 68.6571,175.057 69.0766,175.004 69.8423,175.046 70.4544,175.273 70.8463,175.663" fill="none" stroke="black" stroke-width="0.1" id="_129450384"/>
    <polygon points="67.1659,172.025 68.1583,176.342 68.9422,176.626 69.6548,176.127 68.5954,171.089 67.4147,171.166" fill="none" stroke="black" stroke-width="0.1" id="_132565520"/>
    <polygon points="125.132,116.889 124.47010000000002,116.8925 123.76590000000002,116.901 122.92250000000001,116.9176 122.02200000000002,116.9447 121.14640000000001,116.9854 120.37810000000002,117.0421 119.79920000000001,117.1175 119.40330000000002,117.2416 118.93320000000001,117.5365 118.79090000000002,118.0279 118.96370000000002,118.6038 119.15270000000001,118.9679 118.50290000000001,119.1754 118.14140000000002,118.5965 117.87460000000002,118.2416 117.54340000000002,117.8652 117.15350000000002,117.5033 116.70990000000002,117.1914 116.21810000000002,116.9652 115.58960000000002,116.8014 114.77810000000002,116.6546 113.85080000000002,116.5274 112.87440000000002,116.4226 111.91590000000002,116.3426 111.04230000000003,116.2904 110.32040000000002,116.2686 109.81750000000002,116.2797 109.02160000000003,116.47010000000002 108.56320000000004,116.65460000000002 108.08340000000004,116.88900000000001 107.59660000000004,117.1662 107.11690000000004,117.4792 106.65880000000004,117.8207 106.23640000000005,118.1837 105.64720000000004,118.7096 104.75350000000005,119.5307 103.66520000000004,120.5429 102.49210000000004,121.6416 101.34410000000004,122.7225 100.33100000000005,123.6809 99.56270000000005,124.4125 99.14880000000005,124.8128 98.53830000000005,125.232 98.11120000000005,125.4452 97.63490000000006,125.6513 97.13360000000006,125.8433 96.63120000000006,126.0136 96.15200000000006,126.1554 95.72000000000006,126.2614 94.91300000000005,126.4434 94.46920000000006,126.5385 94.00560000000006,126.6328 93.52780000000006,126.7232 93.04110000000006,126.80760000000001 92.55110000000006,126.88300000000001 92.06280000000007,126.94680000000001 91.55230000000007,127.08820000000001 91.00700000000008,127.32080000000002 90.44910000000007,127.61400000000002 89.90080000000007,127.93770000000002 89.38490000000007,128.2614 88.92340000000007,128.55460000000002 88.53860000000007,128.7872 88.03460000000008,129.0225 87.53650000000007,129.1106 87.07020000000007,129.113 86.60640000000006,129.0838 85.74840000000007,129.09290000000001 85.09080000000007,129.09050000000002 84.33320000000008,129.07720000000003 83.51470000000008,129.04870000000003 82.67480000000008,129.00080000000003 81.85260000000008,128.92860000000002 81.03740000000008,128.8452 80.24630000000008,128.8219 79.47500000000008,128.8542 78.71890000000008,128.9375 77.97350000000007,129.0672 77.23430000000008,129.239 76.49690000000008,129.4481 75.75660000000008,129.6902 75.02640000000008,130.00650000000002 74.33010000000009,130.37820000000002 73.68030000000009,130.7965 73.08960000000009,131.25220000000002 72.57040000000009,131.7366 72.1352000000001,132.2405 71.7963000000001,132.7551 71.5663000000001,133.2713 71.2037000000001,132.9857 70.9224000000001,132.6929 70.8359000000001,132.2384 71.1271000000001,131.92030000000003 71.5468000000001,131.46120000000002 72.0415000000001,130.91910000000001 72.5577000000001,130.3519 73.0416000000001,129.8178 73.4398000000001,129.37470000000002 73.82610000000011,128.8752 73.79400000000011,128.4608 73.4406000000001,128.1433 73.14490000000009,127.8344 72.54550000000009,127.3237 72.18500000000009,127.0326 71.82820000000008,126.745 71.50790000000008,126.48150000000001 71.10930000000008,126.10910000000001 70.91140000000009,125.72980000000003 70.94780000000009,125.26170000000003 71.18540000000009,124.88900000000004 71.53060000000009,124.50220000000004 71.8899000000001,124.13700000000004 72.27790000000009,123.78580000000004 72.70870000000009,123.44190000000005 73.2837000000001,123.06320000000005 73.6476000000001,122.88730000000005 74.0517000000001,122.75580000000005 74.4881000000001,122.69600000000005 74.9484000000001,122.73440000000005 75.4247000000001,122.89800000000005 75.9090000000001,123.21340000000005 76.3998000000001,123.56160000000006 76.8505000000001,123.85730000000005 77.2710000000001,124.09030000000006 77.6709000000001,124.25120000000005 78.44850000000011,124.31650000000005 78.84570000000011,124.20150000000005 79.2616000000001,123.97500000000005 79.6101000000001,123.65010000000005 79.8649000000001,123.26080000000005 80.03930000000011,122.82850000000005 80.14690000000012,122.37490000000005 80.20100000000012,121.92130000000006 80.21480000000012,121.48900000000006 80.17550000000013,120.77470000000007 80.10650000000012,120.17140000000006 80.30900000000011,119.48930000000007 80.59680000000012,119.11200000000007 81.05440000000011,118.70700000000006 81.71550000000012,118.27160000000006 82.61420000000012,117.80290000000007 83.61630000000012,117.15600000000006 84.50150000000012,116.36990000000006 85.25990000000012,115.46220000000005 85.88150000000012,114.45090000000005 86.35680000000012,113.35390000000005 86.67540000000012,112.18890000000005 86.82800000000013,110.97390000000004 86.80460000000014,109.72680000000004 86.46810000000013,108.07770000000004 85.82610000000014,106.57950000000004 84.91640000000014,105.26190000000004 83.77630000000013,104.15410000000004 82.44330000000014,103.28550000000004 80.95500000000014,102.68600000000004 79.34870000000014,102.38450000000003 77.66220000000014,102.41070000000003 76.22240000000014,102.68140000000004 74.88980000000014,103.19050000000004 73.68600000000013,103.91220000000004 72.63210000000014,104.82050000000004 71.74980000000014,105.88960000000004 71.06040000000013,107.09360000000004 70.58550000000012,108.40680000000003 70.34620000000012,109.80300000000003 70.22960000000013,110.34520000000002 69.86650000000013,111.06360000000002 69.54300000000013,111.44160000000002 69.09970000000014,111.79270000000002 68.51830000000014,112.08780000000003 67.91100000000014,112.30330000000004 67.34770000000015,112.43830000000004 66.82890000000015,112.49810000000004 66.35590000000015,112.48820000000003 65.92930000000015,112.41390000000004 65.55010000000016,112.28080000000004 64.93720000000016,111.85930000000003 64.62510000000016,111.59410000000004 64.25680000000015,111.27970000000003 63.82610000000015,110.95300000000003 63.32670000000015,110.65030000000003 62.75240000000015,110.40830000000003 62.09680000000015,110.26340000000002 61.35380000000015,110.25260000000002 60.516800000000146,110.41220000000001 59.70670000000015,110.73070000000001 59.03790000000015,111.20390000000002 58.49410000000015,111.79300000000002 58.05920000000015,112.45990000000002 57.71730000000015,113.16590000000002 57.452200000000154,113.87290000000002 57.247800000000154,114.54230000000001 57.08800000000016,115.13580000000002 56.912400000000154,115.79930000000002 56.68220000000015,116.69940000000001 56.41460000000015,117.74400000000001 56.126400000000146,118.84120000000001 55.83470000000015,119.89900000000002 55.556400000000146,120.82560000000001 55.30840000000015,121.52900000000001 55.10780000000015,121.91720000000001 54.77970000000014,122.36540000000001 54.43060000000014,122.75630000000001 54.07020000000014,123.1098 53.42950000000014,123.47050000000002 53.04980000000014,123.68000000000002 52.64140000000014,123.90710000000001 52.24000000000014,124.13330000000002 51.88150000000014,124.34000000000002 51.39820000000014,124.62450000000001 51.10630000000014,125.09860000000002 51.19430000000014,125.64400000000002 51.32850000000014,126.02320000000002 51.52520000000014,126.48990000000002 51.85340000000014,127.07110000000002 52.291200000000146,127.79800000000002 52.791400000000145,128.60170000000002 53.306800000000145,129.41340000000002 53.789900000000145,130.16440000000003 54.193600000000146,130.78600000000003 54.470300000000144,131.20930000000004 55.03170000000014,133.11890000000002 54.300000000000146,133.5046 53.812200000000146,133.7665 53.25270000000015,134.0713 52.65210000000015,134.4049 52.04080000000015,134.7526 51.44900000000015,135.1007 50.892000000000145,135.44549999999998 50.376800000000145,135.8457 49.924100000000145,136.29229999999998 49.55440000000014,136.7764 49.28830000000014,137.2892 49.14640000000014,137.8218 49.14880000000014,138.36509999999998 49.31650000000015,138.91019999999997 49.648600000000144,139.51709999999997 50.24490000000014,140.50889999999998 51.01990000000014,141.75609999999998 51.887700000000144,143.12929999999997 52.762700000000144,144.49869999999999 53.55900000000015,145.7352 54.19110000000015,146.70919999999998 54.57320000000015,147.29099999999997 55.18210000000015,147.79049999999998 55.57710000000015,147.91459999999998 56.01200000000015,147.9681 56.47200000000015,147.9608 56.94160000000015,147.9023 57.40590000000015,147.8028 57.84960000000015,147.6718 58.35820000000015,147.48069999999998 58.98720000000015,147.21359999999999 59.67870000000015,146.902 60.37450000000015,146.57709999999997 61.01690000000015,146.26989999999998 61.54740000000015,146.01179999999997 61.90840000000015,145.83409999999998 62.35880000000015,146.11719999999997 62.79640000000015,146.55239999999998 63.273400000000144,146.94129999999998 63.73570000000015,147.12479999999996 64.28690000000016,147.13889999999998 64.79570000000015,147.0708 66.23190000000015,148.2065 66.04970000000016,148.6502 65.56050000000016,149.85660000000001 64.84970000000015,151.638 64.00330000000015,153.8068 63.10670000000015,156.1757 62.24580000000015,158.5569 61.50630000000015,160.76330000000002 60.97380000000015,162.60700000000003 60.56840000000016,162.5885 60.13600000000016,162.5309 59.69150000000016,162.6393 59.279200000000166,162.8843 58.989600000000166,163.1633 58.56490000000017,163.59730000000002 58.24440000000017,163.9642 58.00190000000017,164.36030000000002 57.88420000000017,164.8232 57.97360000000017,165.379 58.24890000000017,165.9775 58.68890000000017,166.569 58.32640000000016,167.12189999999998 57.980800000000166,167.6626 57.62110000000017,168.24599999999998 57.366500000000165,168.9388 57.366900000000165,169.36829999999998 57.469000000000165,169.84619999999998 57.685400000000165,170.36679999999998 58.02880000000017,170.92489999999998 58.51150000000017,171.515 59.14590000000017,172.1318 59.814700000000165,172.6209 60.44090000000016,172.9143 61.01000000000016,173.0521 61.50760000000016,173.07479999999998 61.91970000000016,173.02239999999998 62.42930000000016,172.8535 63.48860000000016,172.2079 64.12360000000017,172.4047 64.51750000000017,172.5222 64.93990000000016,172.643 65.35350000000017,172.7542 66.00340000000017,172.89339999999999 66.43540000000016,172.91359999999997 66.87090000000015,172.83979999999997 67.37430000000015,171.90329999999994 68.44210000000015,171.52249999999995 71.18540000000016,168.77919999999995 70.80310000000016,165.65499999999994 71.87090000000016,164.51259999999994 71.79470000000016,162.68319999999994 71.98390000000016,162.24149999999995 72.19230000000016,161.77099999999996 72.45160000000016,161.20669999999996 72.74310000000015,160.60339999999997 73.04790000000015,160.01509999999996 73.34720000000016,159.49649999999997 73.62260000000016,159.10209999999998 74.02950000000016,158.7198 74.67450000000015,158.1856 75.46770000000015,157.56199999999998 76.31890000000016,156.9117 77.13790000000016,156.2971 77.83450000000016,155.7807 78.31860000000016,155.42499999999998 78.81650000000016,155.42929999999998 79.71870000000017,155.64469999999997 80.36710000000016,155.69039999999998 81.13530000000016,155.64589999999998 82.01420000000016,155.47469999999998 82.99500000000016,155.1402 83.92770000000016,154.6546 84.72740000000016,154.0861 85.39650000000016,153.4803 85.93800000000016,152.8826 86.35450000000016,152.3385 86.64860000000016,151.89350000000002 86.88080000000015,151.48290000000003 87.32890000000015,151.29240000000001 87.81390000000015,151.0968 88.25250000000014,150.9292 88.69720000000014,150.86589999999998 89.51990000000013,150.7626 90.08100000000013,150.49169999999998 90.50530000000013,150.7942 91.02500000000013,150.9843 92.06020000000014,150.9373 92.59760000000014,150.6452 93.02830000000014,150.9842 93.48550000000014,151.1804 94.32100000000014,151.17329999999998 94.87870000000014,151.4288 95.26340000000013,151.6089 95.64800000000014,151.79240000000001 96.02540000000013,151.9778 96.38870000000013,152.1632 97.04360000000013,152.5268 97.81400000000012,153.0588 98.49460000000012,153.5335 99.36450000000012,154.0847 100.42560000000012,154.6728 101.67960000000012,155.2571 103.12840000000013,155.7979 104.77360000000013,156.2545 106.61720000000012,156.58710000000002 107.01500000000013,156.64140000000003 107.55750000000013,156.69410000000002 108.21080000000013,156.7504 108.94080000000014,156.81560000000002 109.71370000000014,156.8949 110.49560000000014,156.9941 111.25220000000014,157.1181 111.95000000000014,157.2725 112.55100000000014,157.4079 113.05640000000014,157.52450000000002 113.49210000000014,157.6177 114.25780000000015,157.7165 115.05550000000015,157.6687 115.53110000000015,157.5787 115.96930000000016,157.72740000000002 116.66630000000016,157.85010000000003 117.10670000000016,157.86780000000002 117.59540000000015,157.83380000000002 118.12210000000016,157.73100000000002 118.59790000000017,157.54370000000003 118.99890000000016,157.33500000000004 119.58960000000016,156.91090000000005 119.92280000000017,156.57270000000005 120.64320000000016,156.31700000000006 121.31750000000017,156.18170000000006 122.15160000000017,156.00640000000007 123.08220000000017,155.79880000000006 124.04590000000017,155.56730000000005 124.97920000000018,155.31960000000004 125.81890000000017,155.06380000000004 126.57840000000017,154.75520000000003 127.29600000000018,154.35190000000003 127.94400000000017,153.86640000000003 128.49480000000017,153.3112 128.92070000000018,152.6987 129.19390000000018,152.0416 129.2867000000002,151.3524 129.2600515625002,150.9213421875 129.29890000000017,150.45779999999996 129.6760000000002,150.01509999999996 130.2962000000002,149.48669999999996 130.6949000000002,149.24409999999995 131.15170000000018,149.04409999999996 131.9629000000002,148.72149999999993 132.6309000000002,148.47089999999994 133.2473000000002,148.24489999999994 133.6924000000002,148.07589999999993 134.07790000000017,147.91949999999994 134.91930000000016,147.65519999999992 135.50430000000017,147.47299999999993 136.15010000000018,147.27289999999994 136.8199000000002,147.06669999999994 137.4770000000002,146.86569999999995 138.0851000000002,146.68199999999996 138.7132000000002,146.46299999999997 139.4226000000002,146.21439999999996 140.1658000000002,145.94969999999995 140.8956000000002,145.68249999999995 141.5646000000002,145.42579999999995 142.12560000000022,145.19339999999994 142.5311000000002,144.99829999999994 142.85840000000022,144.69419999999994 143.26810000000023,144.18899999999994 143.73140000000024,143.62709999999996 144.05530000000022,143.23669999999996 144.5618000000002,142.56779999999998 144.8441000000002,142.17729999999997 145.1446000000002,141.76399999999998 145.5050000000002,141.27229999999997 145.8905000000002,140.75199999999998 146.2660000000002,140.2531 146.5968000000002,139.82569999999998 147.0770000000002,139.23639999999997 147.3935000000002,138.79479999999998 147.75630000000018,138.2086 148.12460000000019,137.4911 148.4572000000002,136.6557 148.7131000000002,135.7157 148.8509000000002,134.6848 148.8299000000002,133.5762 148.63840000000022,132.4224 148.29770000000022,131.2605 147.81590000000023,130.11100000000002 147.20100000000022,128.99470000000002 146.46110000000022,127.93190000000003 145.60420000000022,126.94320000000003 144.63840000000022,126.04910000000004 143.57170000000022,125.27010000000004 142.34520000000023,124.54010000000004 140.96060000000023,123.80020000000003 139.51720000000023,123.08330000000004 138.11390000000023,122.42270000000003 136.84970000000024,121.85150000000003 135.82410000000024,121.40250000000003 135.13610000000025,121.10880000000003 133.93470000000028,120.46130000000004 132.6970000000003,119.83580000000003 131.2770000000003,119.17290000000004 129.7803000000003,118.51790000000004 128.3119000000003,117.91660000000005 126.97740000000029,117.41430000000004 125.88220000000028,117.05670000000003 125.13160000000028,116.88930000000003" fill="none" stroke="black" stroke-width="0.1" id="_tag_7_"/>
    <polyline points="87.2627,151.025 87.6257,150.717 88.0057,150.387 88.4526,149.987 88.9175,149.556 89.3512,149.129 89.7044,148.744 90.2141,147.975 90.7542,147.164 91.503,146.088 92.4153,144.835 93.4454,143.488 94.5478,142.135 95.677,140.86 96.7874,139.749 97.8779,138.8 98.9417,137.962 100.009,137.243 101.111,136.653 102.277,136.203 103.537,135.902 104.923,135.76 106.464,135.787 107.949,135.88 109.223,135.99 110.32,136.12 111.274,136.272 112.117,136.45 112.882,136.654 113.603,136.889 114.312,137.158 115.017,137.467 115.696,137.857 116.335,138.299 116.922,138.758 117.445,139.202 117.891,139.601 118.248,139.92 118.743,140.312 119.465,140.688 119.951,140.843 120.523,140.953 121.182,140.997 121.931,140.957 122.771,140.815 123.559,140.569 124.221,140.286 124.775,139.969 125.237,139.615 125.624,139.226 125.953,138.801 126.241,138.34 126.504,137.843 126.658,137.306 126.681,136.735 126.599,136.144 126.437,135.548 126.222,134.963 125.979,134.404 125.735,133.886 125.514,133.424 125.185,132.813 124.828,132.289 124.442,131.85 124.027,131.49 123.584,131.206 123.113,130.992 122.613,130.843 122.084,130.757 121.639,130.727 121.172,130.742 120.694,130.791 120.218,130.862 119.755,130.944 119.32,131.025 118.923,131.093 118.101,131.088 117.399,130.953 116.542,130.756 115.598,130.519 114.636,130.264 113.725,130.013 112.934,129.789 112.33,129.615 111.762,129.438 111.066,129.2 110.303,128.913 109.531,128.586 108.808,128.23 108.195,127.857 107.749,127.477 107.531,127.1 107.55,126.399 107.855,125.604 108.123,125.143 108.474,124.624 108.91,124.036 109.436,123.366 109.95,122.666 110.407,122.054 110.807,121.531 111.15,121.099 111.436,120.76 111.95,120.318 112.834,120.183 113.655,120.037 114.626,119.861 115.673,119.671 116.718,119.483 117.687,119.312 118.503,119.176" fill="none" stroke="black" stroke-width="0.1" id="_tag_8_"/>
    <polygon points="119.646,155.674 119.361,156.454 118.896,156.83 118.274,157.121 117.6,157.335 116.746,157.371 116.385,157.195 116.366,156.486 116.736,156.102 117.312,155.75 118.006,155.473 118.653,155.334 119.193,155.348 119.555,155.524" fill="none" stroke="black" stroke-width="0.1" id="_tag_9_"/>
    <polyline points="97.0332,151.246 97.9405,151.8309 98.3504,152.0702 98.7773,152.3022 99.2221,152.5272 99.6858,152.7448 100.1691,152.9555 100.6731,153.159 102.3467,153.7849 103.7338,154.1928 104.8692,154.4077 105.78750000000001,154.4549 106.52390000000001,154.359 107.11270000000002,154.1451 107.58900000000001,153.8383 107.98770000000002,153.4636 108.34610000000002,153.1602 108.72690000000001,152.97820000000002 109.5022,152.8924 110.2059,153.0353 110.73100000000001,153.2352 111.20230000000001,153.5232 111.87360000000001,153.8827 112.31120000000001,154.067 112.83080000000001,154.2426 113.44340000000001,154.40030000000002 114.1598,154.53140000000002 114.92920000000001,154.59160000000003 115.6851,154.55620000000002 116.4141,154.44400000000002 117.1031,154.27370000000002 117.7383,154.06410000000002 118.3068,153.83390000000003 118.7949,153.60220000000004 119.1895,153.38750000000005 119.58019999999999,153.10950000000005 120.00229999999999,152.74940000000007 120.44399999999999,152.33200000000008 120.89379999999998,151.88250000000008 121.34009999999998,151.42590000000007 121.77129999999998,150.98720000000006 122.17569999999998,150.59130000000005 122.54209999999998,150.26330000000004 122.93019999999997,149.95780000000005 123.44789999999998,149.63260000000005 124.06739999999998,149.31820000000005 124.76109999999998,149.04480000000004 125.50109999999998,148.84280000000004 126.25979999999998,148.74260000000004 127.00949999999999,148.77440000000004 127.72259999999999,148.96860000000004 128.24779999999998,149.24060000000003 128.63619999999997,149.53140000000002 129.0852,150.10160000000002 129.217190625,150.52291250000002" fill="none" stroke="black" stroke-width="0.1" id="_tag_10_"/>
    <polygon points="86.0426,109.879 86.0577,111.395 85.7781,112.835 85.2307,114.167 84.4423,115.356 83.4395,116.37 82.2493,117.176 80.8983,117.741 79.4135,118.032 77.9226,118.047 76.5003,117.767 75.18,117.22 73.9945,116.431 72.9767,115.429 72.1599,114.238 71.5771,112.887 71.2612,111.403 71.2707,109.912 71.5677,108.489 72.1255,107.169 72.9176,105.984 73.9168,104.966 75.0965,104.149 76.43,103.566 77.8903,103.25 79.4062,103.235 80.8463,103.514 82.1774,104.061 83.3664,104.85 84.3806,105.852 85.1867,107.043 85.7516,108.394" fill="none" stroke="black" stroke-width="0.1" id="_tag_11_"/>
    <polygon points="84.0624,110.032 84.0622,111.131 83.8467,112.183 83.4366,113.162 82.8523,114.041 82.1145,114.796 81.2437,115.4 80.2603,115.827 79.185,116.052 78.0638,116.051 77.0015,115.836 76.0213,115.426 75.1463,114.842 74.4001,114.104 73.8058,113.233 73.3864,112.249 73.1652,111.174 73.1623,110.053 73.3701,108.991 73.7709,108.01 74.3467,107.136 75.0796,106.389 75.9518,105.795 76.9454,105.375 78.0426,105.154 79.1419,105.13 80.1939,105.327 81.1725,105.727 82.052,106.307 82.8068,107.049 83.4106,107.93 83.8377,108.932" fill="none" stroke="black" stroke-width="0.1" id="_tag_12_"/>
    <polygon points="66.2315,125.728 66.2314,126.85 66.0158,127.913 65.6058,128.896 65.0215,129.776 64.2836,130.531 63.4128,131.139 62.4294,131.577 61.3542,131.823 60.2334,131.823 59.1714,131.607 58.1915,131.194 57.3169,130.605 56.5708,129.858 55.9764,128.973 55.5571,127.971 55.3359,126.871 55.3106,125.771 55.5079,124.719 55.907,123.741 56.4875,122.861 57.2288,122.106 58.1103,121.502 59.1115,121.075 60.2117,120.851 61.3112,120.851 62.3633,121.067 63.3421,121.477 64.2218,122.061 64.9765,122.799 65.5803,123.67 66.0073,124.653" fill="none" stroke="black" stroke-width="0.1" id="_tag_13_"/>
    <polygon points="65.7746,125.805 65.7813,126.818 65.5863,127.787 65.209,128.689 64.6693,129.499 63.9866,130.195 63.1808,130.754 62.2713,131.152 61.278,131.366 60.2643,131.373 59.2952,131.178 58.3938,130.801 57.5834,130.261 56.8873,129.579 56.3286,128.773 55.9307,127.864 55.7167,126.871 55.7099,125.835 55.9048,124.855 56.2818,123.952 56.8212,123.147 57.5036,122.459 58.3092,121.909 59.2184,121.519 60.2117,121.308 61.2478,121.302 62.2276,121.496 63.1305,121.874 63.9362,122.413 64.6241,123.096 65.1733,123.902 65.5637,124.811" fill="none" stroke="black" stroke-width="0.1" id="_tag_14_"/>
    <polygon points="63.412,126.033 63.4137,126.592 63.3109,127.119 63.1135,127.603 62.8311,128.033 62.4737,128.399 62.0512,128.691 61.5732,128.896 61.0495,129.005 60.4908,129.006 59.9642,128.904 59.4804,128.706 59.0501,128.423 58.6839,128.066 58.3927,127.644 58.1871,127.166 58.0777,126.642 58.0762,126.083 58.1791,125.556 58.3767,125.072 58.6591,124.642 59.0166,124.276 59.4392,123.985 59.917,123.78 60.4402,123.671 60.9994,123.669 61.5264,123.772 62.0104,123.969 62.4408,124.252 62.8069,124.609 63.0978,125.031 63.3031,125.509" fill="none" stroke="black" stroke-width="0.1" id="_tag_15_"/>
    <polygon points="62.8027,126.109 62.7898,126.529 62.6992,126.926 62.317,127.614 61.7203,128.101 60.9734,128.318 60.5536,128.33 60.1571,128.258 59.4692,127.899 58.9813,127.311 58.7647,126.566 58.7525,126.146 58.8242,125.749 59.1836,125.061 59.7714,124.573 60.5164,124.356 60.9368,124.344 61.3348,124.416 62.0314,124.775 62.5421,125.364" fill="none" stroke="black" stroke-width="0.1" id="_tag_16_"/>
    <polygon points="81.6237,110.26 81.6434,110.879 81.5379,111.47 81.3185,112.017 80.9952,112.508 80.5791,112.927 80.0808,113.26 79.511,113.494 78.8804,113.613 78.2642,113.607 77.6811,113.484 77.1428,113.254 76.6609,112.927 76.2467,112.514 75.9122,112.026 75.6687,111.475 75.5278,110.869 75.5331,110.25 75.6563,109.66 75.8866,109.112 76.2134,108.621 76.6259,108.203 77.1134,107.869 77.6655,107.636 78.2711,107.517 78.89,107.522 79.4804,107.646 80.028,107.876 80.5186,108.203 80.9378,108.615 81.2712,109.103 81.5046,109.655" fill="none" stroke="black" stroke-width="0.1" id="_tag_17_"/>
    <polyline points="66.3077,148.207 67.16369999999999,149.1916 68.07189999999999,150.2282 69.15569999999998,151.45499999999998 70.30749999999998,152.7422 71.41899999999998,153.96099999999998 72.38219999999998,154.98119999999997 73.08909999999999,155.67379999999997 73.59449999999998,156.13579999999996 74.03009999999998,156.49969999999996 74.40479999999998,156.77439999999996 75.00789999999998,157.09149999999994 75.47509999999998,157.15869999999995 75.88619999999999,157.00349999999995 76.31599999999999,156.36859999999993 76.52729999999998,155.94039999999993 76.72809999999998,155.49809999999994 76.91179999999999,155.08599999999993 77.20329999999998,154.53139999999993" fill="none" stroke="black" stroke-width="0.1" id="_tag_18_"/>
    <polyline points="78.6519,155.369 78.1654,155.07170000000002 77.5316,154.5877 77.2047,154.2759 76.9084,153.9248 76.6702,153.5396 76.3279,152.5436 76.231,151.6715 76.318,150.9265 76.5273,150.311 76.7974,149.82750000000001 77.06649999999999,149.479 77.35559999999998,149.19690000000003 76.89869999999998,147.29130000000004 77.02329999999998,146.86560000000003 77.41589999999998,146.33180000000002 77.76689999999998,146.0703 78.24809999999998,145.84810000000002 78.88039999999998,145.6919 79.61269999999998,145.5821 80.36639999999997,145.4706 81.11999999999998,145.34109999999998 81.85219999999998,145.1777 82.54139999999998,144.96409999999997 83.16659999999999,144.68449999999999 83.70609999999999,144.3227 84.1385,143.8626 84.6104,143.19959999999998 85.2432,142.24369999999996 85.9759,141.08769999999996 86.7478,139.82449999999994 87.49849999999999,138.54709999999994 88.1669,137.34819999999993 88.69239999999999,136.32089999999994 89.0144,135.55789999999993 89.11399999999999,135.03439999999992 89.08339999999998,134.60029999999992 88.70969999999998,133.95719999999992 88.05049999999997,133.54289999999992 87.66279999999998,133.39479999999992 87.26269999999998,133.27159999999992" fill="none" stroke="black" stroke-width="0.1" id="_tag_19_"/>
    <polyline points="77.8141,154.683 77.45219999999999,154.1484 77.26119999999999,153.77790000000002 77.09169999999999,153.33960000000002 76.97739999999999,152.85030000000003 76.95259999999999,152.32720000000003 77.05099999999999,151.78740000000002 77.26969999999999,151.26420000000002 77.54099999999998,150.7751 77.88889999999998,150.3109 78.33769999999998,149.8629 78.91149999999999,149.4223 79.63419999999999,148.9798 80.5303,148.5268 81.6237,148.054 82.7989,147.6029 83.8668,147.21890000000002 84.8277,146.89740000000003 85.6814,146.63420000000002 86.428,146.42440000000002 87.0673,146.2639 87.5993,146.148 88.0243,146.0722 88.6538,146.2663 89.06190000000001,146.8246 89.25600000000001,147.5402 89.24290000000002,148.2063 88.82140000000003,149.0395 88.45250000000003,149.57760000000002 88.04260000000004,150.13010000000003 87.63980000000004,150.6468 87.29240000000004,151.0779 86.95650000000005,151.4827" fill="none" stroke="black" stroke-width="0.1" id="_tag_20_"/>
    <polyline points="91.6816,130.757 91.794,130.36 91.9641,129.868 92.1772,129.438 92.5539,129.153 93.137,128.924 94.0464,128.926 94.8794,129.046 95.3513,128.784 95.6905,128.418 96.0724,128.103 96.725,127.8 97.3394,127.557 98.1536,127.327 98.7574,127.693 98.6153,128.166" fill="none" stroke="black" stroke-width="0.1" id="_tag_21_"/>
    <polyline points="96.4051,129.386 96.9317,129.5146 97.5924,129.6835 98.1923,129.8526 98.65090000000001,130.05489999999998 98.84380000000003,130.90929999999992" fill="none" stroke="black" stroke-width="0.1" id="_tag_22_"/>
    <polyline points="94.3487,130.147 93.9641,130.45 93.565,130.766 93.1007,131.138 92.6258,131.524 92.1947,131.884 91.8618,132.175 91.581,132.494 91.3929,133.219 91.7577,133.728" fill="none" stroke="black" stroke-width="0.1" id="_tag_23_"/>
    <polyline points="85.2048,132.434 85.6228,132.2232 86.0849,131.9796 86.66210000000001,131.6622 87.31450000000001,131.2838 88.0014,130.85840000000002 88.68310000000001,130.39900000000003 89.31900000000002,129.91920000000002 89.84270000000002,129.407 90.27790000000002,128.9103 90.63620000000002,128.44410000000002 90.92920000000002,128.0233 91.16870000000003,127.66340000000001 91.53320000000004,127.18630000000002" fill="none" stroke="black" stroke-width="0.1" id="_tag_24_"/>
    <polyline points="87.5673,129.386 87.25770000000001,129.67759999999998 86.92420000000001,130.0006 86.51930000000002,130.4049 86.07880000000002,130.8628 85.63820000000001,131.3466 85.23340000000002,131.8288 84.90020000000001,132.2817" fill="none" stroke="black" stroke-width="0.1" id="_tag_25_"/>
    <polyline points="79.642,153.159 79.60629999999999,152.7389 79.81349999999999,152.3118 80.22099999999999,151.92730000000003 80.7859,151.63580000000002 81.4476,151.49060000000003 82.02359999999999,151.50250000000003 82.45679999999999,151.65720000000005" fill="none" stroke="black" stroke-width="0.1" id="_tag_26_"/>
    <polygon points="83.0708,152.626 83.0624,153.046 82.8327,153.473 82.4175,153.857 81.8522,154.149 81.2225,154.305 80.3955,154.256 80.0379,154.023 79.8959,153.638 79.991,153.208 80.3181,152.796 80.8421,152.452 81.4798,152.228 82.3472,152.188 82.7946,152.342" fill="none" stroke="black" stroke-width="0.1" id="_tag_27_"/>
    <polyline points="79.8705,153.54 79.54370000000002,153.24679999999998 79.2749,152.94749999999996 79.2399,152.45349999999996 79.4898,151.96909999999994 79.9687,151.52769999999995 80.6336,151.17899999999995 81.3643,150.99129999999994 82.0236,150.99699999999993 82.54010000000001,151.18889999999993 82.84230000000001,151.55979999999994 82.872,151.9836999999999 82.68999999999998,152.47369999999992" fill="none" stroke="black" stroke-width="0.1" id="_tag_28_"/>
    <line x1="83.0708" y1="152.626" x2="82.69" y2="151.94" fill="none" stroke="black" stroke-width="0.1" id="_tag_29_"/>
    <line x1="79.9466" y1="153.844" x2="79.642" y2="153.159" fill="none" stroke="black" stroke-width="0.1" id="_tag_30_"/>
    <polyline points="87.7196,137.614 87.0927,138.0242 86.70979999999999,138.2621 86.30549999999998,138.5 85.91899999999998,138.7077 85.35709999999999,138.9102 84.81179999999999,138.53279999999998 84.37939999999999,138.17739999999998 83.90929999999999,137.77669999999998 83.4536,137.37929999999997 83.06389999999999,137.03469999999996 82.68999999999998,136.69999999999996" fill="none" stroke="black" stroke-width="0.1" id="_tag_31_"/>
    <polyline points="72.9368,134.49 73.2929,134.17100000000002 73.7205,133.83130000000003 74.2991,133.42370000000003 75.017,132.98760000000001 75.8626,132.56220000000002 76.8242,132.18670000000003 77.89030000000001,131.90050000000002 79.00600000000001,131.7538 80.10120000000002,131.70110000000003 81.14110000000002,131.72180000000003 82.09070000000003,131.79520000000002 82.91540000000003,131.90080000000003 83.58010000000003,132.01810000000003 84.05020000000003,132.12640000000005 84.43980000000003,132.28390000000005 84.90960000000003,132.44320000000005 85.35710000000003,132.50980000000004 85.79490000000003,132.55000000000004 86.20570000000004,132.63620000000003 86.62020000000003,132.78670000000002" fill="none" stroke="black" stroke-width="0.1" id="_tag_32_"/>
    <polyline points="68.5179,150.187 68.80699999999999,150.46450000000002 69.26169999999999,150.75670000000002 69.8591,150.90900000000005 70.708,150.68750000000006 71.45009999999999,150.43570000000005 72.33309999999999,150.14280000000005 73.27049999999998,149.83480000000006 74.17569999999998,149.53730000000004 74.96219999999998,149.27650000000006 75.54329999999999,149.07840000000004 75.95469999999999,148.91450000000003 76.06089999999999,148.51140000000004 75.96569999999998,147.84590000000003 75.86799999999998,147.38500000000002 75.75619999999998,146.9018 75.64439999999998,146.4435 75.47779999999997,145.7913 76.13609999999997,145.5468 76.86199999999997,145.3946 77.72789999999996,145.2158 78.64749999999997,145.0296 79.53409999999997,144.8558 80.30119999999997,144.71419999999998 80.86209999999997,144.62419999999997 81.26299999999996,144.54909999999998 81.91839999999996,144.4595 82.42019999999997,144.4449 82.81869999999998,144.49819999999997" fill="none" stroke="black" stroke-width="0.1" id="_tag_33_"/>
    <polyline points="72.9368,148.207 72.76010000000001,147.6 72.4757,146.8739 72.2941,146.4385 72.0912,145.9657 71.8705,145.4637 71.50580000000001,144.6164 70.9671,143.1736 70.3156,141.32569999999998 69.6132,139.2625 68.92150000000001,137.1743 68.302,135.2515 67.8164,133.6841 67.5263,132.6625 67.3353,132.06289999999998 67.212,131.56799999999998 67.1461,131.1606 67.14240000000001,130.54059999999998 67.23880000000001,130.06719999999999 67.43960000000001,129.42849999999999 67.57530000000001,128.9836 67.69850000000001,128.50639999999999 67.80300000000001,127.99529999999999 67.88270000000001,127.44849999999998 67.93100000000001,126.86429999999999 67.94160000000001,126.24089999999998 67.9086,125.57639999999998 67.5991,124.17289999999998 67.0352,122.89449999999998 66.24810000000001,121.76619999999998 65.26910000000001,120.81319999999998 64.12960000000001,120.06009999999998 62.86060000000001,119.53229999999998 61.49350000000001,119.25459999999998 60.05940000000001,119.25199999999998 58.62830000000001,119.56109999999998 57.32480000000001,120.12449999999998 56.17670000000001,120.91129999999998 55.21160000000001,121.89009999999999 54.457200000000014,123.02949999999998 53.94110000000001,124.29849999999999 53.69110000000001,125.66559999999998 53.735000000000014,127.09969999999998 53.810400000000016,127.53909999999999 53.967100000000016,128.2866 54.186200000000014,129.2575 54.44920000000001,130.36669999999998 54.73730000000001,131.52939999999998 55.03160000000001,132.6608 55.31350000000001,133.676 55.56440000000001,134.4904 55.77490000000002,135.18019999999999 56.005800000000015,135.8216 56.25650000000002,136.4168 56.52580000000002,136.9671 56.81310000000002,137.47469999999998 57.11730000000002,137.94119999999998 57.437600000000025,138.36849999999998 57.77310000000003,138.7584 58.33500000000003,139.3996 59.29400000000003,140.47369999999998 60.50500000000003,141.82119999999998 61.82190000000003,143.28209999999999 63.09960000000003,144.69639999999998 64.19250000000002,145.9046 64.95490000000002,146.74679999999998 65.24140000000003,147.063" fill="none" stroke="black" stroke-width="0.1" id="_tag_34_"/>
    <polyline points="72.8606,147.596 72.6083,146.2817 72.3465,144.9282 72.04190000000001,143.3675 71.73010000000001,141.79250000000002 71.44690000000001,140.39610000000002 71.22790000000002,139.37120000000002 71.10890000000002,138.9105 70.88600000000002,137.9163 70.68940000000002,137.05540000000002 70.47020000000002,136.10070000000002 70.25480000000002,135.16360000000003 70.06870000000002,134.35610000000003 69.93810000000002,133.7898" fill="none" stroke="black" stroke-width="0.1" id="_tag_35_"/>
    <polyline points="68.6702,129.69 68.40549999999998,130.08490000000003 68.65569999999997,130.5387 69.15639999999998,131.0761 69.46029999999998,131.3949 69.76069999999997,131.7101 70.23289999999997,132.2188 70.63139999999997,132.41429999999997" fill="none" stroke="black" stroke-width="0.1" id="_tag_36_"/>
    <polyline points="76.1371,148.816 75.867,149.3587 75.6644,149.7639 75.461,150.2442 75.2898,150.7889 75.1838,151.387 75.1759,152.0283 75.2993,152.7017 75.5168,153.35899999999998 75.711,153.91529999999997 75.8802,154.39109999999997 76.0228,154.80699999999996 76.2204,155.54149999999996 76.2894,156.28279999999995" fill="none" stroke="black" stroke-width="0.1" id="_tag_37_"/>
    <polyline points="82.5376,138.454 82.1113,137.847 81.6402,137.389 81.1367,137.063 80.6138,136.853 80.0837,136.743 79.559,136.717 79.052,136.759 78.5757,136.853 77.9852,137.006 77.2822,137.22 76.5258,137.469 75.7747,137.729 75.088,137.975 74.5246,138.182 74.1432,138.324 73.527,138.749 73.2318,139.181 73.1652,139.748 73.3307,140.23 73.6891,140.462 74.2048,140.509 74.8423,140.434 75.2575,140.357 75.7934,140.247 76.4132,140.114 77.0802,139.967 77.7582,139.817 78.41,139.673 78.9995,139.546 79.4897,139.444 80.0159,139.366 80.5745,139.359 81.2421,139.453 81.9526,139.708 82.6397,140.183 83.2376,140.939 83.6801,142.035 84.1385,143.863" fill="none" stroke="black" stroke-width="0.1" id="_tag_38_"/>
    <polyline points="71.0327,137.233 71.6592,137.07639999999998 72.44579999999999,136.86479999999997 72.832,136.75099999999998 73.3937,136.54749999999999 73.63289999999999,136.2094 73.70779999999999,135.6709 73.68279999999999,135.1325" fill="none" stroke="black" stroke-width="0.1" id="_tag_39_"/>
    <line x1="70.7266" y1="133.424" x2="73.3937" y2="136.548" fill="none" stroke="black" stroke-width="0.1" id="_tag_40_"/>
    <polyline points="71.642,133.272 72.7844,134.719 73.546,134.567 74.0676,134.384 74.631,134.189 75.3177,133.958 76.0688,133.712 76.8252,133.474 77.5282,133.269 78.1188,133.12 78.5951,133.004 79.102,132.951 79.6268,132.973 80.1568,133.082 80.6798,133.291 81.1832,133.612 81.6543,134.059 82.0807,134.643 82.2817,135.042 82.433,135.434 82.6138,136.168 82.7328,136.72 82.8548,137.293 82.9946,137.958 83.1344,138.638" fill="none" stroke="black" stroke-width="0.1" id="_tag_41_"/>
    <polygon points="81.0906,111.631 79.0327,113.156 76.3655,112.088 76.1371,109.575 78.3472,108.05 80.7859,109.116" fill="none" stroke="black" stroke-width="0.1" id="_tag_42_"/>
    <polyline points="49.3923,139.063 49.723099999999995,139.5259 50.38249999999999,139.9675 50.83989999999999,140.11090000000002 51.38499999999999,140.16610000000003 52.01939999999999,140.10530000000003 52.74489999999999,139.90070000000003 53.50879999999999,139.56850000000003 54.243299999999984,139.21390000000002 54.92629999999998,138.85730000000004 55.53499999999998,138.51960000000003 56.047499999999985,138.22110000000004 56.44119999999999,137.98240000000004 56.78299999999999,137.76670000000004" fill="none" stroke="black" stroke-width="0.1" id="_tag_43_"/>
    <polyline points="49.4684,137.081 49.345800000000004,137.61669999999998 49.516,138.33839999999998 49.7489,138.6752 50.1003,138.9458 50.585699999999996,139.1129 51.220099999999995,139.1388 51.92099999999999,139.0155 52.72539999999999,138.73760000000001 53.572599999999994,138.3579 54.401999999999994,137.9289 55.152699999999996,137.5038 55.7641,137.1347 56.1753,136.87470000000002" fill="none" stroke="black" stroke-width="0.1" id="_tag_44_"/>
    <polygon points="55.4121,135.101 55.537,135.632 55.269,136.262 55.0078,136.593 54.6724,136.922 54.2709,137.24 53.8112,137.538 53.324,137.82 52.8422,138.036 52.3783,138.184 51.9444,138.263 51.218,138.203 50.6476,137.594 50.7271,137.005 51.1674,136.351 51.5029,136.022 51.9044,135.704 52.3641,135.406 52.8512,135.148 53.333,134.95 53.797,134.813 54.2308,134.738 54.9572,134.783" fill="none" stroke="black" stroke-width="0.1" id="_tag_45_"/>
    <polygon points="54.8774,135.863 54.9685,136.253 54.8019,136.7 54.4064,137.148 53.8112,137.538 53.1792,137.852 52.3181,138.002 51.8952,137.888 51.7364,137.176 52.0348,136.735 52.5222,136.297 53.1406,135.912 53.7796,135.684 54.5775,135.663" fill="none" stroke="black" stroke-width="0.1" id="_tag_46_"/>
    <polygon points="60.2879,115.212 59.7929,114.612 59.6239,114.238 59.5263,113.841 59.5394,113.418 59.6311,113.013 59.7941,112.636 60.0215,112.298 60.3062,112.011 60.6408,111.784 61.0184,111.628 61.4318,111.555 61.8864,111.554 62.3267,111.66 62.7385,111.866 63.1074,112.164 66.46,114.908 66.7611,115.175 66.9835,115.508 67.1348,115.883 67.2216,116.28 67.2337,116.725 67.161,117.141 67.0114,117.522 66.7931,117.86 66.5142,118.148 66.1828,118.379 65.8065,118.546 65.3937,118.641 64.952,118.612 64.5456,118.527 63.869,118.184" fill="none" stroke="black" stroke-width="0.1" id="_tag_47_"/>
    <polyline points="71.0327,125.118 71.3953,124.7093 71.8909,124.1908 72.4885,123.5953 73.1564,122.95599999999999 73.86380000000001,122.30619999999999 74.57910000000001,121.67869999999999 75.2711,121.1065 75.9086,120.6229 76.53080000000001,120.249 77.24230000000001,119.916 78.02510000000001,119.60799999999999 78.86130000000001,119.30899999999998 79.73340000000002,119.00269999999999 80.62330000000001,118.67299999999999 81.51310000000001,118.30409999999999 82.38530000000002,117.8796" fill="none" stroke="black" stroke-width="0.1" id="_tag_48_"/>
    <polyline points="67.2978,149.654 66.94789999999999,150.5375 66.5829,151.4624 66.1554,152.5497 65.7136,153.6799 65.3057,154.7332 64.9799,155.5901 64.7845,156.1308 64.6708,156.8594 64.7021,157.2665 64.7934,157.6738 64.94550000000001,158.0597 65.15920000000001,158.40269999999998 65.7746,158.8741 66.48270000000001,158.8967 67.04100000000001,158.54070000000002 67.49960000000002,157.856 67.70710000000001,157.4059 67.9086,156.8924 68.13690000000001,156.3025 68.40710000000001,155.59980000000002 68.69720000000001,154.8437 68.9843,154.0927 69.2466,153.4061 69.4615,152.8426 69.6068,152.4614" fill="none" stroke="black" stroke-width="0.1" id="_tag_49_"/>
    <polyline points="68.2894,150.72 68.0012,151.45469999999997 67.7025,152.21899999999997 67.3557,153.11119999999997 67.0017,154.02809999999997 66.6816,154.86739999999998 66.43650000000001,155.5262 66.26520000000001,156.08919999999998 66.2728,156.52059999999997 66.4163,156.9448 66.7097,157.262 67.1066,157.40359999999998 67.5741,157.21639999999996 67.82799999999999,156.83509999999998 68.06089999999999,156.28279999999998 68.30009999999999,155.5686 68.45059999999998,155.1524 68.60349999999998,154.7398 68.74589999999998,154.363 68.94499999999998,153.8447" fill="none" stroke="black" stroke-width="0.1" id="_tag_50_"/>
    <polyline points="88.4051,136.7 87.7178,136.75629999999998 86.94999999999999,136.78179999999998 86.44289999999998,136.71469999999997 86.827,136.26559999999995 87.1588,136.02009999999996 87.5379,135.75729999999996 87.93499999999999,135.49819999999997 88.32039999999999,135.26299999999998 88.9382,134.9468" fill="none" stroke="black" stroke-width="0.1" id="_tag_51_"/>
    <polyline points="73.8507,140.358 74.4799,139.8212 74.9925,139.5158 75.623,139.2058 76.3605,138.90650000000002 77.1945,138.633 78.114,138.40050000000002 79.1089,138.22400000000002 80.09710000000001,138.1664 81.09970000000001,138.2194 82.08800000000001,138.37980000000002 83.03330000000001,138.64360000000002 83.90720000000002,139.00750000000002 84.68100000000001,139.4677 85.32610000000001,140.0206 85.81410000000001,140.6627" fill="none" stroke="black" stroke-width="0.1" id="_tag_52_"/>
    <polyline points="83.0381,140.687 83.6758,140.888 84.1905,141.227 84.5906,141.613 84.8764,142.038" fill="none" stroke="black" stroke-width="0.1" id="_tag_53_"/>
    <polyline points="98.7676,127.709 98.8697,127.293 99.5473,127.036 100.153,126.837 100.911,126.605 101.786,126.358 102.745,126.117 103.757,125.9 104.787,125.729 105.092,126.186 105.092,126.871" fill="none" stroke="black" stroke-width="0.1" id="_tag_54_"/>
    <polyline points="102.806,126.947 102.85,127.433 102.866,127.875 102.878,128.51 102.875,129.347 102.73,129.843" fill="none" stroke="black" stroke-width="0.1" id="_tag_55_"/>
    <polyline points="86.0426,146.377 86.5259,146.0378 86.99539999999999,145.66310000000001 87.35059999999999,145.35950000000003 87.8226,144.81540000000004 88.7139,143.69520000000003 90.01039999999999,142.08030000000002 91.55799999999999,140.17690000000002 93.202,138.1913 94.788,136.33 96.16149999999999,134.7988 97.16819999999998,133.8043 97.97859999999999,133.14020000000002 98.88089999999998,132.53320000000002 99.89599999999999,132.00450000000004 101.04409999999999,131.57580000000004 102.34579999999998,131.26860000000005 103.82179999999998,131.10410000000005 105.49249999999998,131.10390000000004 107.37839999999998,131.28950000000003 109.42889999999998,131.60400000000004 111.52309999999999,131.96030000000005 113.57609999999998,132.33620000000005 115.50329999999998,132.70930000000004 117.21959999999999,133.05730000000005 118.64029999999998,133.35800000000006 119.68069999999999,133.58910000000006 120.25569999999999,133.72810000000007 120.75549999999998,133.77160000000006 121.51159999999999,133.81860000000006 122.43759999999999,133.91560000000007 123.44639999999998,134.10910000000007 124.45189999999998,134.44540000000006 125.36709999999998,134.97110000000006 126.10539999999997,135.73260000000008 126.58009999999997,136.77610000000007" fill="none" stroke="black" stroke-width="0.1" id="_tag_56_"/>
    <polyline points="88.9382,146.225 89.25049999999999,145.84799999999998 90.09299999999999,144.8379 91.32499999999999,143.3759 92.80509999999998,141.6436 94.39239999999998,139.8218 95.94579999999998,138.09199999999998 97.32429999999998,136.63569999999999 98.38679999999998,135.634 99.26019999999998,134.93849999999998 100.12999999999998,134.34309999999996 101.02819999999998,133.85499999999996 101.98709999999998,133.48109999999997 103.03899999999999,133.22869999999998 104.21589999999999,133.10479999999998 105.55009999999999,133.11669999999998 107.07369999999999,133.27149999999997 108.64479999999999,133.515 110.18549999999999,133.7772 111.65129999999999,134.0413 112.99759999999999,134.2902 114.1796,134.5068 115.15259999999999,134.6745 115.8723,134.77609999999999 116.29379999999999,134.79469999999998 117.13419999999999,134.61859999999996 117.7054,134.46799999999996 118.33189999999999,134.29959999999997 118.97989999999999,134.13129999999998 119.61519999999999,133.98069999999998 120.20419999999999,133.86579999999998 120.71269999999998,133.80459999999997" fill="none" stroke="black" stroke-width="0.1" id="_tag_57_"/>
    <polyline points="85.2048,132.434 85.6228,132.2232 86.0849,131.9796 86.66210000000001,131.6622 87.31450000000001,131.2838 88.0014,130.85840000000002 88.68310000000001,130.39900000000003 89.31900000000002,129.91920000000002 89.84270000000002,129.407 90.27790000000002,128.9103 90.63620000000002,128.44410000000002 90.92920000000002,128.0233 91.16870000000003,127.66340000000001 91.53320000000004,127.18630000000002" fill="none" stroke="black" stroke-width="0.1" id="_tag_58_"/>
    <polyline points="104.178,125.042 104.5492,124.7468 104.9171,124.43149999999999 105.3204,124.05189999999999 105.5978,123.71149999999999 106.0537,123.18529999999998 106.6383,122.53049999999999 107.3015,121.80439999999999 107.99340000000001,121.06389999999999 108.66390000000001,120.3663 109.263,119.7687 109.74080000000001,119.3284 110.10910000000001,119.0199 110.47390000000001,118.77770000000001 110.83870000000002,118.59630000000001 111.58270000000002,118.39420000000003 112.37,118.37100000000002 112.78880000000001,118.41290000000002 113.2805,118.50250000000003 113.866,118.64400000000002 114.4962,118.81760000000001 115.1219,119.00390000000002 115.6942,119.18310000000001 116.1638,119.33520000000001 116.5984,119.48070000000001" fill="none" stroke="black" stroke-width="0.1" id="_tag_59_"/>
    <polygon points="112.637,145.616 112.706,144.217 112.638,142.899 112.442,141.691 112.131,140.625 111.717,139.73 111.211,139.037 110.624,138.576 109.969,138.377 109.321,138.482 108.673,138.758 109.079,139.252 109.436,139.869 109.735,140.594 109.969,141.415 110.132,142.318 110.217,143.291 110.216,144.318 110.122,145.387 109.969,146.478 109.744,147.512 109.453,148.477 109.102,149.359 108.698,150.144 108.246,150.82 107.753,151.372 107.226,151.788 107.807,152.169 108.445,152.321 109.153,152.233 109.839,151.873 110.487,151.271 111.083,150.454 111.611,149.452 112.056,148.292 112.403,147.004" fill="none" stroke="black" stroke-width="0.1" id="_tag_60_"/>
    <polygon points="110.122,145.387 110.217,143.989 110.167,142.672 109.985,141.467 109.683,140.406 109.274,139.52 108.771,138.84 108.186,138.397 107.531,138.223 106.883,138.329 106.236,138.606 106.639,139.078 106.987,139.684 107.276,140.408 107.502,141.234 107.66,142.146 107.746,143.127 107.755,144.162 107.683,145.235 107.531,146.322 107.306,147.348 107.015,148.3 106.664,149.168 106.26,149.94 105.808,150.603 105.315,151.147 104.787,151.559 105.368,151.978 106.006,152.169 106.714,152.059 107.399,151.688 108.045,151.081 108.636,150.264 109.155,149.261 109.586,148.097 109.914,146.797" fill="none" stroke="black" stroke-width="0.1" id="_tag_61_"/>
    <line x1="113.931" y1="142.111" x2="117.436" y2="150.949" fill="none" stroke="black" stroke-width="0.1" id="_tag_62_"/>
    <line x1="112.483" y1="146.834" x2="114.464" y2="151.788" fill="none" stroke="black" stroke-width="0.1" id="_tag_63_"/>
    <polyline points="112.069,148.245 112.53620000000001,148.3442 113.1127,148.409" fill="none" stroke="black" stroke-width="0.1" id="_tag_64_"/>
    <polyline points="116.1217,147.5745 116.70660000000001,146.9814 116.99980000000001,146.4735 117.13770000000001,145.9532 117.16040000000001,145.4533 117.10830000000001,145.00680000000003 116.81650000000002,144.1244 116.19970000000002,143.3408 115.49900000000002,142.7733 114.77950000000003,142.3872 114.10650000000003,142.1474 113.54490000000003,142.01930000000002 112.48730000000002,141.20780000000002 112.17830000000002,140.51000000000002 112.63680000000002,139.97690000000003 113.15080000000002,139.95190000000002 113.72920000000002,139.98910000000004 114.46480000000003,140.11990000000003 115.31470000000003,140.39000000000004 116.23600000000003,140.84510000000003 117.18600000000004,141.53040000000004 118.12190000000004,142.49170000000004 118.71020000000004,143.45880000000002 119.01270000000004,144.49920000000003 119.06510000000004,145.56450000000004 118.90310000000004,146.60660000000004 118.56260000000003,147.57700000000006 118.07920000000003,148.42790000000005 117.48880000000003,149.11090000000004 116.82710000000003,149.57780000000005" fill="none" stroke="black" stroke-width="0.1" id="_tag_65_"/>
    <polyline points="111.34,150.111 111.8344,150.22339999999997 112.557,150.33419999999995 112.9799,150.36809999999994 113.4187,150.37349999999995 113.8548,150.33949999999996" fill="none" stroke="black" stroke-width="0.1" id="_tag_66_"/>
    <polyline points="97.0332,151.246 96.2528,151.408 95.6148,151.255 95.0342,150.873 94.5015,151.144" fill="none" stroke="black" stroke-width="0.1" id="_tag_67_"/>
    <polygon points="112.637,145.616 112.706,144.217 112.638,142.899 112.442,141.691 112.131,140.625 111.717,139.73 111.211,139.037 110.624,138.576 109.969,138.377 109.321,138.482 108.673,138.758 109.079,139.252 109.436,139.869 109.735,140.594 109.969,141.415 110.132,142.318 110.217,143.291 110.216,144.318 110.122,145.387 109.969,146.478 109.744,147.512 109.453,148.477 109.102,149.359 108.698,150.144 108.246,150.82 107.753,151.372 107.226,151.788 107.807,152.169 108.445,152.321 109.153,152.233 109.839,151.873 110.487,151.271 111.083,150.454 111.611,149.452 112.056,148.292 112.403,147.004" fill="none" stroke="black" stroke-width="0.1" id="_tag_68_"/>
    <polygon points="110.122,145.387 110.217,143.989 110.167,142.672 109.985,141.467 109.683,140.406 109.274,139.52 108.771,138.84 108.186,138.397 107.531,138.223 106.883,138.329 106.236,138.606 106.639,139.078 106.987,139.684 107.276,140.408 107.502,141.234 107.66,142.146 107.746,143.127 107.755,144.162 107.683,145.235 107.531,146.322 107.306,147.348 107.015,148.3 106.664,149.168 106.26,149.94 105.808,150.603 105.315,151.147 104.787,151.559 105.368,151.978 106.006,152.169 106.714,152.059 107.399,151.688 108.045,151.081 108.636,150.264 109.155,149.261 109.586,148.097 109.914,146.797" fill="none" stroke="black" stroke-width="0.1" id="_tag_69_"/>
    <polygon points="107.683,145.235 107.778,143.814 107.727,142.486 107.542,141.28 107.235,140.224 106.818,139.346 106.301,138.676 105.696,138.241 105.016,138.071 104.563,138.078 103.943,138.346 104.2,138.923 104.548,139.521 104.838,140.236 105.063,141.054 105.222,141.96 105.307,142.943 105.317,143.988 105.244,145.083 105.092,146.17 104.867,147.196 104.576,148.148 104.226,149.016 103.821,149.787 103.369,150.451 102.876,150.994 102.349,151.407 102.93,151.788 103.569,151.94 104.277,151.852 104.961,151.492 105.607,150.89 106.197,150.073 106.716,149.071 107.147,147.911 107.475,146.623" fill="none" stroke="black" stroke-width="0.1" id="_tag_70_"/>
    <polygon points="105.244,145.083 105.339,143.64 105.288,142.301 105.104,141.09 104.797,140.034 104.379,139.155 103.862,138.481 103.258,138.035 102.577,137.843 102.125,137.903 101.505,138.142 101.761,138.696 102.11,139.303 102.399,140.027 102.625,140.853 102.784,141.765 102.869,142.746 102.878,143.782 102.806,144.854 102.65,145.944 102.418,146.977 102.118,147.939 101.758,148.815 101.349,149.592 100.899,150.254 100.417,150.788 99.9115,151.179 100.492,151.626 101.13,151.788 101.838,151.678 102.523,151.308 103.169,150.704 103.759,149.892 104.278,148.898 104.709,147.748 105.036,146.468" fill="none" stroke="black" stroke-width="0.1" id="_tag_71_"/>
    <polygon points="102.806,144.854 102.901,143.433 102.85,142.106 102.666,140.899 102.359,139.843 101.941,138.965 101.424,138.295 100.82,137.861 100.14,137.69 99.6864,137.697 99.066,137.964 99.3231,138.541 99.6716,139.14 99.9613,139.855 100.187,140.673 100.346,141.579 100.432,142.562 100.441,143.608 100.369,144.702 100.213,145.789 99.9804,146.814 99.6799,147.767 99.3205,148.634 98.9112,149.406 98.4608,150.069 97.9784,150.613 97.4729,151.025 98.0535,151.407 98.6914,151.559 99.3778,151.471 100.052,151.112 100.697,150.509 101.292,149.692 101.819,148.69 102.259,147.53 102.595,146.242" fill="none" stroke="black" stroke-width="0.1" id="_tag_72_"/>
    <polyline points="97.3967,139.444 97.737,140.476 97.9489,141.701 98.0179,143.055 97.9298,144.472 97.7741,145.563 97.5417,146.598 97.2412,147.562 96.8818,148.444 96.4726,149.23 96.0221,149.905 95.5397,150.457 95.0342,150.873" fill="none" stroke="black" stroke-width="0.1" id="_tag_73_"/>
    <polyline points="97.0332,151.246 97.6141,150.928 98.2585,150.324 98.8538,149.512 99.3813,148.518 99.822,147.368 100.157,146.087 100.369,144.702 100.441,143.633 100.433,142.606 100.35,141.633 100.197,140.73 99.9799,139.909 99.7038,139.183 99.3741,138.566 98.9961,138.072" fill="none" stroke="black" stroke-width="0.1" id="_tag_74_"/>
    <polyline points="95.4911,141.195 95.5339,141.952 95.5483,142.729 95.5339,143.521 95.4911,144.319 95.3355,145.407 95.1032,146.433 94.8029,147.385 94.4438,148.253 94.0345,149.024 93.5841,149.688 93.1015,150.231 92.5955,150.644" fill="none" stroke="black" stroke-width="0.1" id="_tag_75_"/>
    <polyline points="90.0806,150.492 90.8863,149.786 91.491,148.968 92.0241,147.965 92.4717,146.802 92.8193,145.502 93.0525,144.091" fill="none" stroke="black" stroke-width="0.1" id="_tag_76_"/>
    <polyline points="118.198,149.578 118.30299999999998,148.9495 118.55219999999998,148.3564 119.03729999999999,147.7486 119.36299999999999,147.4208 119.70019999999998,147.0679 120.03199999999998,146.6936 120.34149999999998,146.3014 120.61189999999998,145.8948 120.82589999999998,145.4775 120.96679999999998,145.0528 121.01749999999998,144.62449999999998 120.97929999999998,144.16439999999997 120.92579999999998,143.61499999999998 120.86349999999999,143.0228 120.79849999999999,142.4341 120.73709999999998,141.8953 120.68549999999999,141.453 120.63669999999999,141.04340000000002" fill="none" stroke="black" stroke-width="0.1" id="_tag_77_"/>
    <polygon points="124.065,137.538 123.884,138.319 123.455,138.696 122.847,138.987 122.227,139.175 121.665,139.177 121.217,139.008 120.941,138.682 121.179,137.891 121.594,137.492 122.16,137.157 122.79,137.013 123.617,137.103 123.974,137.356" fill="none" stroke="black" stroke-width="0.1" id="_tag_78_"/>
    <polyline points="121.246,139.063 120.88589999999999,138.79379999999998 120.58939999999998,138.29479999999998 120.70909999999998,137.8071 121.07849999999998,137.33759999999998 121.65519999999997,136.93619999999999 122.37789999999997,136.6366 123.08239999999996,136.5317 123.67949999999998,136.6301 124.09799999999998,136.8963 124.25589999999997,137.3765 124.15949999999997,137.8758" fill="none" stroke="black" stroke-width="0.1" id="_tag_79_"/>
    <polyline points="119.265,148.283 119.8339,147.66339999999997 120.2691,147.23229999999998 120.7884,146.75849999999997 121.3791,146.27039999999997 122.0289,145.79679999999996 122.72519999999999,145.36589999999995 123.45539999999998,145.00659999999996 124.36709999999998,144.64999999999998 125.49029999999998,144.18469999999996 126.72229999999998,143.65869999999995 127.96049999999998,143.12019999999995 129.10229999999999,142.61769999999996 130.04489999999998,142.19899999999996 130.68589999999998,141.91249999999997" fill="none" stroke="black" stroke-width="0.1" id="_tag_80_"/>
    <polyline points="131.914,148.74 131.3671,148.917 130.82659999999998,149.0993 130.3131,149.2782 129.8468,149.4445 129.4485,149.5894 128.9376,149.7792 128.37160000000003,149.22789999999998 128.05600000000004,148.8541 127.70840000000004,148.4374 127.35450000000004,148.0063 127.02050000000004,147.5894 126.73200000000004,147.2153 126.26050000000005,146.5834 125.95500000000006,146.2928 125.58880000000005,146.0444 125.15120000000005,145.8564 124.63140000000004,145.74790000000002 124.01910000000004,145.73770000000002 123.30320000000003,145.8444 122.61650000000003,146.025 121.98260000000003,146.2751 121.39700000000003,146.58620000000002 120.85520000000004,146.9489 120.35270000000004,147.3546 119.88510000000004,147.79420000000002 119.44790000000003,148.25900000000001 119.03660000000004,148.74 118.67180000000003,149.21710000000002 118.36340000000003,149.67210000000003 118.08900000000003,150.09660000000002 117.82630000000003,150.48300000000003 117.55290000000004,150.82290000000003 117.24650000000004,151.10830000000004 116.88490000000004,151.33120000000005 116.44560000000004,151.48330000000004 115.86420000000004,151.59410000000005 115.12480000000004,151.69750000000005 114.27660000000003,151.79390000000004 113.36860000000003,151.88320000000004 112.44990000000003,151.96530000000004 111.56980000000003,152.04020000000006 110.77710000000003,152.10820000000007 110.12120000000003,152.16880000000006 109.56660000000004,152.26810000000006 109.10050000000004,152.43540000000007 108.71830000000004,152.64540000000008 108.18820000000005,153.09400000000008 107.94030000000005,153.41420000000008" fill="none" stroke="black" stroke-width="0.1" id="_tag_81_"/>
    <polyline points="131.151,141.424 130.534,141.38 130.087,141.162 129.583,140.566 129.242,139.889 128.865,139.036 128.485,138.11 128.133,137.213 127.842,136.446 127.643,135.911 127.286,135.302" fill="none" stroke="black" stroke-width="0.1" id="_tag_82_"/>
    <polyline points="131.075,141.578 131.364,141.964 131.887,142.812 132.242,143.211 132.714,143.625 133.299,144.008 133.998,144.31 134.806,144.481 135.724,144.472 136.783,144.364 137.968,144.218 139.205,144.047 140.42,143.863 141.538,143.679 142.485,143.508 143.188,143.362 143.884,143.13" fill="none" stroke="black" stroke-width="0.1" id="_tag_83_"/>
    <polyline points="119.189,130.909 119.831,130.782 120.337,130.683 120.894,130.576 121.448,130.473 121.943,130.384 122.67,130.349 123.1,130.661 123.591,131.081 123.936,131.393 124.31,131.731 125.001,131.647 126.126,131.43 127.684,131.139 129.465,130.814 131.257,130.496 132.848,130.226 134.026,130.045 135.025,129.963 135.619,129.967 136.284,130.156 136.942,130.681 137.416,131.258 137.89,131.901 138.314,132.603 138.637,133.357 138.811,134.158 138.785,134.999 138.509,135.874 137.932,136.777 137.18,137.68 136.426,138.548 135.696,139.359 135.019,140.092 134.419,140.724 133.926,141.235 133.564,141.603 133.035,142.023 132.58,142.111 132.097,142.085 131.684,141.958" fill="none" stroke="black" stroke-width="0.1" id="_tag_84_"/>
    <polyline points="135.648,130.604 135.06199999999998,130.99290000000002 134.13439999999997,131.68630000000002 132.99419999999998,132.57430000000002 131.77119999999996,133.54730000000004 130.59469999999996,134.49520000000004 129.59389999999996,135.30830000000003 128.89859999999996,135.87680000000003 128.57959999999994,136.1347 128.34759999999994,136.50830000000002" fill="none" stroke="black" stroke-width="0.1" id="_tag_85_"/>
    <polyline points="114.693,130.071 114.6097,129.5514 114.6406,129.0283 114.7788,128.5121 115.0168,128.0139 115.3478,127.5441 115.7646,127.1136 116.26010000000001,126.7333 116.82700000000001,126.4137 117.40360000000001,126.2026 117.98270000000001,126.0817 118.5532,126.0483 119.1032,126.0996 119.6209,126.2329 120.09500000000001,126.4459 120.51360000000001,126.7354 120.86510000000001,127.0992" fill="none" stroke="black" stroke-width="0.1" id="_tag_86_"/>
    <polyline points="121.398,127.633 121.853,128.003 122.727,128.392 124.133,128.596 125.055,128.547 126.315,128.352 128.058,128.076 130.148,127.749 132.447,127.405 134.817,127.074 137.121,126.791 139.221,126.585 140.981,126.491 142.048,126.475 143,126.424 143.398,126.383 144.105,126.186" fill="none" stroke="black" stroke-width="0.1" id="_tag_87_"/>
    <polyline points="136.409,129.69 137.937,129.534 140.685,129.3 142.194,129.209 143.62,129.165 144.668,129.179 145.706,129.309 146.842,129.714 147.658,130.319 148.202,131.066" fill="none" stroke="black" stroke-width="0.1" id="_tag_88_"/>
    <polyline points="112.387,127.507 112.306,127.001 112.328,126.499 112.404,126.072 112.626,125.509 112.959,124.978 113.394,124.496 113.924,124.08 114.541,123.747 115.202,123.496 115.862,123.369 116.504,123.359 117.112,123.461 117.67,123.671 118.162,123.983 118.572,124.39 118.883,124.889 119.018,125.502 119.283,125.983" fill="none" stroke="black" stroke-width="0.1" id="_tag_89_"/>
    <polyline points="110.25,123.385 110.227,124.222 110.468,124.982 110.707,125.443 111.004,125.89 112.057,127.391 112.522,127.966 112.929,128.355 113.322,128.623 113.725,128.844 114.276,129.196 114.593,129.712" fill="none" stroke="black" stroke-width="0.1" id="_tag_90_"/>
    <polyline points="113.948,120.282 113.102,120.537 112.671,120.69 112.155,120.948 111.601,121.335 111.06,121.876 110.581,122.598 110.214,123.524" fill="none" stroke="black" stroke-width="0.1" id="_tag_91_"/>
    <polyline points="114.769,121.689 115.3833,121.526 116.10300000000001,121.3476 117.0549,121.1272 118.2069,120.882 119.5269,120.62870000000001 120.9825,120.38430000000001 122.542,120.16570000000002 124.1302,119.94460000000001 125.7336,119.75370000000001 127.3244,119.6165 128.8751,119.55590000000001 130.3581,119.59530000000001 131.74550000000002,119.75810000000001 133.0097,120.06750000000001 134.12310000000002,120.54660000000001" fill="none" stroke="black" stroke-width="0.1" id="_tag_92_"/>
    <polyline points="119.494,126.109 119.4463,125.57509999999999 119.59039999999999,125.1437 120.02709999999999,124.8127 120.55479999999999,124.65750000000001 121.37699999999998,124.48550000000002 122.38159999999998,124.30810000000001 123.45589999999997,124.13690000000001 124.48729999999998,123.9835 125.36329999999998,123.85950000000001 125.97149999999998,123.77660000000002 126.70399999999997,123.19890000000002 127.34039999999996,122.65350000000002 128.23749999999995,122.05110000000002 129.39879999999997,121.48430000000002 130.82799999999997,121.04620000000001 132.52839999999998,120.82950000000001 134.5039,120.927" fill="none" stroke="black" stroke-width="0.1" id="_tag_93_"/>
    <polyline points="119.494,126.109 119.4463,125.57509999999999 119.59039999999999,125.1437 120.02709999999999,124.8127 120.55479999999999,124.65750000000001 121.37699999999998,124.48550000000002 122.38159999999998,124.30810000000001 123.45589999999997,124.13690000000001 124.48729999999998,123.9835 125.36329999999998,123.85950000000001 125.97149999999998,123.77660000000002 126.70399999999997,123.19890000000002 127.34039999999996,122.65350000000002 128.23749999999995,122.05110000000002 129.39879999999997,121.48430000000002 130.82799999999997,121.04620000000001 132.52839999999998,120.82950000000001 134.5039,120.927" fill="none" stroke="black" stroke-width="0.1" id="_tag_94_"/>
    <polyline points="126.047,123.899 125.665,124.5581 125.44640000000001,125.0612 125.23150000000001,125.6999 125.04960000000001,126.4706 124.93030000000002,127.3699 124.90310000000002,128.394" fill="none" stroke="black" stroke-width="0.1" id="_tag_95_"/>
    <polyline points="125.208,128.166 125.9261,127.45649999999999 126.77940000000001,126.71969999999999 127.92300000000002,125.86139999999999 129.32710000000003,124.98169999999999 130.96260000000004,124.1805 132.79960000000003,123.55799999999999 134.80890000000002,123.214 137.09890000000001,123.1755 139.0112,123.4058 140.5678,123.8236 141.7912,124.3476 142.7038,124.8967 143.328,125.3895 143.6861,125.7447" fill="none" stroke="black" stroke-width="0.1" id="_tag_96_"/>
    <polyline points="81.5902,62.8803 78.53059999999999,66.49249999999999 75.3279,70.24829999999999 72.0502,74.06049999999999 68.7663,77.8414 65.5444,81.50389999999999 62.452999999999996,84.96039999999999 59.560599999999994,88.1237 56.93529999999999,90.9061 52.85499999999999,95.8309 49.71079999999999,101.0868 47.51659999999999,106.6267 46.28669999999999,112.4032 46.03569999999999,118.369 46.77739999999999,124.4768 48.526199999999996,130.6792 51.296299999999995,136.9288 51.727999999999994,137.5166 52.23069999999999,137.80470000000003 52.818599999999996,137.80710000000002 53.506499999999996,137.53810000000001 53.8683,137.32090000000002 54.201699999999995,137.07170000000002 54.4922,136.79370000000003 54.8876,136.16660000000005 54.9397,135.46810000000005 52.245400000000004,129.37240000000006 50.626400000000004,123.74850000000005 49.930600000000005,118.25490000000005 50.144600000000004,112.91750000000005 51.255,107.76230000000005 53.2485,102.81530000000005 56.1115,98.10250000000005 59.8309,93.64950000000005 62.9545,90.33170000000004 66.4303,86.51240000000004 70.1479,82.33210000000004 73.9962,77.93150000000004 77.8645,73.45140000000004 81.64200000000001,69.03220000000003 85.21790000000001,64.81470000000003 88.48130000000002,60.93970000000003" fill="none" stroke="black" stroke-width="0.1" id="_tag_97_"/>
    <polyline points="58.6885,166.645 59.0407,166.24519999999998 59.3633,165.874 59.6786,165.5026 60.225,165.2027 60.665800000000004,165.1171 61.193000000000005,165.1028 61.78830000000001,165.1814 62.43240000000001,165.374 63.10690000000001,165.7026 63.79280000000001,166.1881 64.4775,166.84349999999998 64.998,167.48719999999997 65.3683,168.10779999999997 65.60300000000001,168.69329999999997 65.71620000000001,169.23269999999997 65.72220000000002,169.71389999999997 65.63530000000002,170.12559999999996 65.25130000000001,170.73699999999997 64.7532,171.24869999999999 64.287,171.6461 63.94520000000001,171.9032" fill="none" stroke="black" stroke-width="0.1" id="_tag_98_"/>
    <polygon points="60.821,169.922 61.1671,170.306 61.4585,170.705 61.6911,171.105 61.86,171.494 61.99,172.183 61.8126,172.665 61.2964,172.885 60.6023,172.77 60.2128,172.597 59.8084,172.354 59.3985,172.046 58.9932,171.675 58.6221,171.269 58.3127,170.86 58.0696,170.455 57.897,170.065 57.7814,169.371 58.0015,168.856 58.5178,168.679 59.2119,168.817 59.6014,168.995 60.0058,169.241 60.4157,169.551" fill="none" stroke="black" stroke-width="0.1" id="_tag_99_"/>
    <polygon points="60.821,169.922 61.3039,170.512 61.5935,171.094 61.6687,171.605 61.508,171.98 61.1322,172.129 60.6213,172.027 60.0392,171.712 59.4501,171.218 58.967,170.629 58.6695,170.046 58.5718,169.535 59.0646,169.001 59.5834,169.084 60.188,169.396" fill="none" stroke="black" stroke-width="0.1" id="_tag_100_"/>
    <polyline points="58.0777,165.503 58.0969,164.9604 58.292500000000004,164.57119999999998 58.688500000000005,164.13209999999998 59.29430000000001,163.6969 60.05010000000001,163.45489999999998 60.468700000000005,163.4218 60.906200000000005,163.45579999999998 61.356300000000005,163.563 61.8126,163.7498 62.271100000000004,163.9885 62.72430000000001,164.2421 63.15950000000001,164.50469999999999 63.56450000000001,164.76969999999997 63.92670000000001,165.03129999999996 64.47310000000002,165.51839999999996 64.73970000000003,165.92169999999996 64.92260000000003,166.37059999999997 65.08060000000002,166.80869999999996 65.31760000000003,167.18009999999998 65.75550000000003,167.3895 66.07920000000003,167.7132 66.28740000000003,168.3869 66.43930000000003,168.9909 66.60290000000003,169.67510000000001 66.76270000000004,170.3665 66.90390000000004,170.9918 67.01110000000004,171.4778 67.09440000000004,171.88680000000002 67.14420000000004,172.31900000000002" fill="none" stroke="black" stroke-width="0.1" id="_tag_101_"/>
    <polyline points="58.0777,165.046 58.269600000000004,164.572 58.623900000000006,164.0891 59.06730000000001,163.55599999999998 59.57880000000001,163.07989999999998 60.26580000000001,162.76809999999998 60.65940000000001,162.68349999999998 61.07800000000001,162.65609999999998 61.51550000000001,162.6931 61.96560000000001,162.8013 62.42190000000001,162.9882 62.88380000000001,163.2264 63.345600000000005,163.47990000000001 63.7933,163.74230000000003 64.2125,164.00750000000002 64.58890000000001,164.2692 64.90800000000002,164.52100000000002 65.31760000000001,164.96990000000002 65.5199,165.37810000000002 65.6794,165.83630000000002 65.8102,166.223 66.14349999999999,166.50030000000004 66.5264,166.70100000000005 66.8478,167.1708 66.97290000000001,167.61280000000002 67.1247,168.20470000000003 67.2883,168.87530000000004 67.44810000000001,169.55280000000005 67.58930000000001,170.16590000000005 67.6966,170.64330000000004 67.7547,171.03920000000002" fill="none" stroke="black" stroke-width="0.1" id="_tag_102_"/>
    <polyline points="66.7647,166.95 66.8408,166.4168 67.2978,165.7314 65.0129,164.3605" fill="none" stroke="black" stroke-width="0.1" id="_tag_103_"/>
    <polyline points="68.6702,170.685 68.57149999999999,170.2146 68.46529999999998,169.72459999999998 68.33689999999999,169.15139999999997 68.19789999999999,168.56059999999997 68.05969999999999,168.01689999999996 67.934,167.58589999999995 67.90859999999999,166.79769999999996 68.594,165.88379999999995 68.594,165.46349999999995" fill="none" stroke="black" stroke-width="0.1" id="_tag_104_"/>
    <polyline points="61.0495,162.607 61.583400000000005,162.2358 62.2075,162.06080000000003 63.031200000000005,162.1501 63.607000000000006,162.3805 64.3669,162.75130000000001 65.2305,163.20950000000002 66.1173,163.70270000000002 66.947,164.17800000000003 67.6391,164.58250000000004 68.1135,164.86400000000003" fill="none" stroke="black" stroke-width="0.1" id="_tag_105_"/>
    <polygon points="67.3739,165.808 67.0466,164.313 66.5905,162.565 65.8979,160.255 64.9374,157.462 63.6777,154.267 62.0874,150.749 60.011,146.747 58.6723,147.347 60.7671,151.435 61.1793,152.358 62.3382,154.953 63.5845,158.148 64.536,160.941 65.2233,163.251 65.6768,164.999 65.9266,166.106 66.494,166.681 67.1168,166.29" fill="none" stroke="black" stroke-width="0.1" id="_tag_106_"/>
</svg>

