<!DOCTYPE svg PUBLIC "-//W3C//DTD SVG 1.1//EN" "http://www.w3.org/Graphics/SVG/1.1/DTD/svg11.dtd">
<svg xmlns="http://www.w3.org/2000/svg" width="297mm" height="210mm" viewBox="0 0 297 210">
    <defs id="_tag_80_"/>
    <g id="_tag_81_">
        <polygon id="simplify_44" points="69.7012,139.826 69.4188,139.665 69.1364,139.504 68.8944,139.302 68.6523,139.1 68.491,138.858 68.2892,138.616 68.1279,138.334 68.0069,138.051 66.6352,134.38 66.0705,133.331 65.2636,132.404 64.2551,131.677 63.1255,131.234 61.8749,131.072 60.6647,131.234 59.5351,131.677 58.5266,132.363 57.7198,133.291 57.1146,134.38 56.8322,135.55 56.8322,136.76 57.1146,137.971 59.4141,144.062 59.4544,144.183 59.4544,144.304 59.4141,144.425 59.3334,144.506 59.2527,144.587 57.7562,145.042 56.3947,144.873 54.8095,144.269 53.252,143.501 51.8035,142.635 50.4254,141.607 49.145,140.439 47.963,139.202 46.9122,137.87 45.9694,136.412 45.1719,134.949 44.5215,133.333 44.0036,131.718 43.6406,130.023 43.3985,128.329 43.3178,126.635 43.3582,125.384 43.3582,124.94 43.3985,124.537 43.4389,124.053 43.4792,123.649 43.5195,123.246 43.5195,122.802 43.5599,122.358 43.5599,121.995 43.5599,121.552 43.4792,121.189 43.3582,120.785 43.2371,120.422 42.9951,120.099 42.7934,119.777 42.5513,119.454 42.39,119.292 42.1479,119.091 41.9462,118.97 41.7445,118.808 41.5428,118.687 41.3007,118.566 41.0184,118.445 40.7763,118.405 39.6064,117.881 38.5979,117.154 37.7507,116.227 37.1456,115.097 36.8228,113.887 36.7825,112.596 37.0649,111.386 37.5893,110.256 38.3558,109.207 39.324,108.441 40.4536,107.876 41.7042,107.593 43.1565,107.392 44.0843,106.948 44.8911,106.262 45.4963,105.375 45.7787,104.366 45.819,103.317 45.5366,102.309 45.0122,101.381 44.2457,100.695 43.6809,100.171 42.8337,99.2427 42.2689,98.0728 41.9866,96.8222 41.9866,95.5716 42.2689,94.2807 42.8337,93.1511 43.6809,92.1829 44.6894,91.4164 45.8593,90.892 47.1503,90.6903 48.4009,90.771 49.1674,90.9323 49.8128,91.1341 50.4583,91.1744 51.1037,91.0937 51.7492,90.892 52.314,90.6096 52.8788,90.2062 53.3225,89.7624 53.6856,89.1977 55.1379,86.6965 56.6709,84.276 58.2442,81.9362 59.9385,79.5964 61.7136,77.3372 63.5693,75.1588 65.4653,73.0207 67.4421,70.9633 67.5689,70.8537 67.8455,70.7385 68.0069,70.7212 68.1279,70.7212 68.2892,70.7616 68.5313,70.9633 77.1644,78.5475 77.3258,78.7492 77.3661,78.8702 77.4064,79.0316 77.4064,79.193 77.3661,79.3543 77.2451,79.5964 76.7206,80.2015 76.1962,80.8066 75.7121,81.3714 75.2683,81.9765 74.7439,82.622 74.3001,83.2674 73.816,83.8726 73.3319,84.4777 72.3637,86.2124 71.6779,88.0681 71.3149,90.0448 71.2745,92.0216 71.5973,93.958 72.2024,95.8137 73.2109,97.5887 74.4615,99.0813 76.5996,101.26 78.8184,103.357 81.0372,105.455 83.377,107.432 85.7168,109.409 88.0969,111.265 90.5578,113.08 93.0186,114.855 97.3352,117.598 101.813,120.099 106.452,122.237 111.253,124.053 116.094,125.586 121.096,126.796 126.099,127.643 131.182,128.127 136.265,128.289 162.85,128.289 163.011,128.329 163.173,128.369 163.253,128.45 163.415,128.531 163.495,128.652 163.536,128.773 163.616,128.934 163.616,129.095 163.616,143.417 163.616,143.578 163.536,143.699 163.495,143.861 163.415,143.982 163.253,144.062 163.173,144.143 163.011,144.183 162.85,144.183 79.3428,144.183" fill="none" stroke="black" stroke-width="0.1"/>
        <polygon class="fil0 str0" id="simplify_45_1" points="71.3552,140.552 70.2256,140.0276 69.9432,139.86620000000002 69.7012,139.7452 69.4188,139.54350000000002 69.2171,139.30150000000003 69.0154,139.05940000000004 68.8137,138.81740000000005 68.6927,138.53500000000005 68.5716,138.25260000000006 67.07900000000001,134.25880000000006 66.43350000000001,133.08890000000005 65.58640000000001,132.12070000000006 64.49710000000002,131.35420000000005 63.246600000000015,130.87010000000004 61.95560000000002,130.70870000000005 60.66470000000002,130.87010000000004 59.41410000000002,131.35420000000005 58.32490000000002,132.08030000000005 57.43740000000002,133.04850000000005 56.832200000000014,134.21840000000006 56.50950000000002,135.50940000000006 56.50950000000002,136.84060000000005 56.832200000000014,138.09120000000004 61.47150000000001,150.35500000000005 63.48860000000001,161.12620000000004 63.51380019531251,161.37834980468753 63.53900156250001,161.63049843750005 63.56420527343751,161.88264472656255 63.58941250000001,162.13478750000004 63.61462441406252,162.38692558593755 63.63984218750001,162.63905781250003 63.66506699218751,162.89118300781254 63.690300000000015,163.14330000000004 63.528900000000014,165.24110000000005 63.085200000000015,167.29850000000005 62.27840000000001,169.23490000000004 61.18910000000001,170.96960000000004 59.81750000000001,172.58320000000003 58.16350000000001,173.87420000000003 56.388500000000015,174.92300000000003 54.452100000000016,175.64920000000004 54.290700000000015,175.68950000000004 54.16970000000001,175.64920000000004 54.04870000000001,175.60890000000003 53.96800000000001,175.52820000000003 53.88730000000001,175.44750000000002 53.80660000000001,175.3265 53.80154199218751,175.30632500000004 53.796492187500014,175.28615 53.79144941406251,175.26597500000003 53.78641250000001,175.24580000000003 53.781380273437506,175.225625 53.77635156250001,175.20545000000004 53.77132519531251,175.185275 53.76630000000001,175.16510000000002 53.80660000000001,175.08440000000002 54.37140000000001,171.77640000000002 54.41180000000001,171.2923 54.37140000000001,170.7679 54.250400000000006,170.2434 54.089000000000006,169.7997 54.053679492187506,169.7391751953125 54.018367187500004,169.67865156250002 53.9830619140625,169.61813027343752 53.9477625,169.5576125 53.912467773437506,169.4970994140625 53.877176562500004,169.4365921875 53.84188769531251,169.37609199218747 53.8066,169.3156 53.483900000000006,168.9525 53.1208,168.58939999999998 52.6771,168.307 51.6685,167.6212 50.740700000000004,166.81439999999998 50.014500000000005,165.84619999999998 49.409400000000005,164.75699999999998 49.0463,163.58709999999996 48.885000000000005,162.33649999999997 48.885000000000005,161.12619999999998 49.16740000000001,159.916 49.61110000000001,157.9393 49.97420000000001,155.9222 50.13550000000001,153.8648 50.13550000000001,151.8477 49.97420000000001,149.7903 49.65140000000001,147.7732 49.16740000000001,145.7965 48.52190000000001,143.86010000000002 44.52810000000001,133.3309 44.003600000000006,131.71720000000002 43.640600000000006,130.02290000000002 43.398500000000006,128.32860000000002 43.317800000000005,126.63420000000002 43.398500000000006,124.89950000000002 43.60020000000001,123.24550000000002 44.003600000000006,121.55120000000002 44.52810000000001,119.93750000000003 44.689400000000006,119.53410000000002 44.85080000000001,119.13070000000002 66.2722,116.14540000000002 67.4187,116.10050000000003 68.4506,116.14540000000002 69.5398,116.22610000000002 70.5887,116.54880000000001 71.5569,117.07330000000002 72.4444,117.75910000000002 73.1302,118.60620000000002 73.6547,119.57440000000001 74.0177,120.62330000000001 74.21950000000001,121.71250000000002 74.25980000000001,123.68930000000002 72.162,140.51170000000002 72.00070000000001,140.59240000000003 71.87960000000001,140.63270000000003 71.67790000000001,140.63270000000003 71.35520000000001,140.55200000000002" fill="none" stroke="black" stroke-width="0.1"/>
        <polygon id="simplify_46" points="70.387,121.874 70.2256,121.148 69.7415,120.503 69.1364,120.099 68.3296,119.938 67.5631,120.099 66.9176,120.583 66.5142,121.229 66.3932,121.995 66.5546,122.762 66.9983,123.407 67.6841,123.811 68.4506,123.932 69.1768,123.77 69.8222,123.327 70.2256,122.641" fill="none" stroke="black" stroke-width="0.1"/>
        <polygon id="simplify_47" points="52.0316,124.497 51.8702,123.73 51.4265,123.085 50.7407,122.641 49.9742,122.52 49.2077,122.681 48.6026,123.165 48.1588,123.811 48.0378,124.577 48.1992,125.344 48.6429,125.989 49.2884,126.393 50.0549,126.554 50.8617,126.352 51.4668,125.909 51.9106,125.223" fill="none" stroke="black" stroke-width="0.1"/>
        <polyline id="simplify_SVG__000030" points="72.1217,140.916 74.4212,122.681 74.4212,121.31 74.1388,119.978 73.5336,118.728 72.6461,117.598 71.5569,116.751 70.266,116.227 68.9347,115.904 66.2722,116.146 42.5513,119.454" fill="none" stroke="black" stroke-width="0.1"/>
        <polyline id="simplify_SVG__000031" points="71.0728,112.354 72.7672,112.112 73.816,111.95" fill="none" stroke="black" stroke-width="0.1"/>
        <g id="simplify_50_1">
            <polyline class="fil1 str0" id="simplify_50___0" points="53.9277,114.815 53.1612,114.815 52.3947,114.6133 51.7089,114.2906 51.1037,113.8065 50.619600000000005,113.2014 50.29690000000001,112.5156 50.175900000000006,111.70870000000001 50.21620000000001,110.9423 51.426500000000004,105.4961 53.241800000000005,100.1711 53.968,98.75909999999999 54.895900000000005,97.54889999999999 56.025400000000005,96.49999999999999 57.356700000000004,95.69309999999999 58.809000000000005,95.16869999999999 60.38230000000001,94.92669999999998 61.91530000000001,94.92669999999998 63.44830000000001,95.24939999999998 64.90060000000001,95.81419999999999 66.1915,96.66129999999998 67.321,97.71019999999999 68.2892,98.83979999999998 69.2978,99.92899999999999 70.3063,101.05859999999998 71.3552,102.14779999999999 72.4041,103.19669999999999 73.453,104.2456 74.5018,105.2541 75.6314,106.303 76.1962,107.0291 76.55930000000001,107.8763 76.6803,108.8041 76.4786,109.732 76.1155,110.5388 75.47,111.2246 74.7036,111.7087 73.81599999999999,111.95079999999999" fill="none" stroke="black" stroke-width="0.1"/>
            <polyline class="fil1 str0" id="simplify_50___1" points="71.07279999999999,112.35419999999999 67.11929999999998,112.919" fill="none" stroke="black" stroke-width="0.1"/>
        </g>
        <g id="simplify_51_1">
            <polyline class="fil1 str0" id="simplify_51___0" points="76.0752,133.936 76.19619999999999,135.348 76.761,136.3565 77.4871,137.002 78.25359999999999,137.3651 78.73769999999999,137.52640000000002 83.57869999999998,138.29290000000003 88.45999999999998,138.93840000000003 93.34129999999998,139.38210000000004 98.18229999999997,139.70490000000004 103.10399999999997,139.82590000000005 107.98529999999997,139.82590000000005 112.86669999999997,139.70490000000004 117.74799999999996,139.34180000000003 118.71619999999996,139.14010000000005 119.56339999999996,138.65600000000003 120.24919999999996,137.88950000000003 120.65259999999996,137.00200000000004 120.81389999999996,136.03380000000004 120.61219999999996,135.06560000000005 120.20879999999995,134.13770000000005 119.48269999999995,133.45190000000005 118.63549999999995,132.96780000000004 114.80309999999994,131.47520000000003 111.01089999999995,129.86150000000004 107.29949999999995,128.12690000000003 103.58809999999995,126.27110000000003 99.99769999999995,124.29440000000004 96.40729999999995,122.19660000000003 92.97829999999995,119.97790000000003 89.54919999999994,117.63800000000003 88.82309999999994,117.23460000000003 88.05659999999995,116.95220000000003 87.24979999999995,116.75050000000003 86.40259999999995,116.75050000000003 85.59579999999995,116.79090000000004 84.78889999999996,117.03290000000004 84.02239999999996,117.35570000000004 83.33659999999996,117.88010000000004 81.76329999999996,119.13070000000005 80.63379999999997,120.13920000000005" fill="none" stroke="black" stroke-width="0.1"/>
            <polyline class="fil1 str0" id="simplify_51___1" points="80.63379999999997,120.13920000000005 80.31099999999996,120.42160000000004 79.98829999999997,120.74430000000004 79.66559999999997,121.06710000000004 79.34279999999997,121.34950000000003 79.02009999999997,121.67220000000003 78.73769999999998,121.99490000000003 78.41499999999998,122.31770000000003 78.09219999999998,122.64040000000003 77.97119999999998,122.80180000000003 77.80989999999998,123.00350000000003 77.64849999999998,123.24550000000004 77.49759999999999,123.52760000000004 77.39979999999998,123.74280000000003 77.32579999999999,123.97170000000003 77.28539999999998,124.21370000000003 77.24509999999998,124.45580000000002" fill="none" stroke="black" stroke-width="0.1"/>
        </g>
        <g id="simplify_52_1">
            <polyline class="fil1 str0" id="simplify_52___0" points="40.7763,118.405 39.6064,117.8806 38.5979,117.1545 37.7507,116.2266 37.1456,115.09700000000001 36.8228,113.88680000000001 36.7825,112.59590000000001 37.0649,111.38560000000001 37.5893,110.25600000000001 38.3558,109.20720000000001 39.324000000000005,108.44070000000002 40.45360000000001,107.87590000000002 41.70420000000001,107.59350000000002 42.954800000000006,107.59350000000002 44.165000000000006,107.91620000000002 45.2946,108.48100000000002 46.3031,109.28780000000002 47.0292,110.29640000000002 47.0947830078125,110.43762050781251 47.16035781250001,110.57883281250002 47.2259255859375,110.72003808593752 47.2914875,110.86123750000002 47.3570447265625,111.00243222656252 47.4225984375,111.14362343750003 47.4881498046875,111.28481230468752 47.553700000000006,111.42600000000002 47.876400000000004,112.27310000000001 48.3605,112.99930000000002 48.9656,113.64470000000001 49.6514,114.20950000000002 50.4179,114.57260000000002 51.265100000000004,114.81460000000003 52.15260000000001,114.93570000000003 53.04010000000001,114.89530000000002 53.92770000000001,114.81460000000003 67.11930000000001,112.91860000000003 68.81370000000001,112.83790000000003 70.42730000000002,113.08000000000003 72.00070000000002,113.60440000000003 73.49330000000002,114.41120000000002 74.78420000000001,115.46010000000003 75.83310000000002,116.75100000000002 76.68030000000002,118.16300000000003 77.24510000000002,119.77670000000002 77.48710000000003,121.43070000000002 77.40640000000003,123.08470000000001 77.24510000000004,124.45630000000001 76.07520000000004,133.85590000000002" fill="none" stroke="black" stroke-width="0.1"/>
            <polyline class="fil1 str0" id="simplify_52___1" points="75.91380000000004,134.94510000000002 75.79280000000004,135.8326 75.63140000000004,136.6798 75.30870000000004,137.5269 75.02630000000005,138.3741 74.66320000000005,139.1809 74.25980000000004,139.94740000000002 73.81600000000005,140.71390000000002 73.29160000000005,141.44010000000003" fill="none" stroke="black" stroke-width="0.1"/>
        </g>
        <line id="simplify_53" x1="76.0752" y1="133.856" x2="75.9138" y2="134.945" stroke="black" stroke-width="0.1"/>
        <polygon id="simplify_54" points="52.9595,96.2171 52.8384,94.9262 52.3947,93.7563 51.7089,92.6267 50.7407,91.7392 49.6514,91.1341 48.4009,90.771 47.1503,90.6903 45.8593,90.892 44.6894,91.4164 43.6809,92.1829 42.8337,93.1511 42.2689,94.2807 41.9866,95.5716 41.9866,96.8222 42.2689,98.0728 42.8337,99.2427 43.6809,100.171 44.6894,100.977 45.8593,101.462 47.1503,101.703 48.4009,101.623 49.6514,101.26 50.7407,100.614 51.7089,99.7268 52.3947,98.6779 52.8384,97.4677" fill="none" stroke="black" stroke-width="0.1"/>
        <line id="simplify_55" x1="61.8749" y1="136.155" x2="61.8749" y2="133.654" stroke="black" stroke-width="0.1"/>
        <line id="simplify_56" x1="61.8749" y1="136.155" x2="59.3738" y2="136.155" stroke="black" stroke-width="0.1"/>
        <line id="simplify_57" x1="61.8749" y1="136.155" x2="61.8749" y2="138.697" stroke="black" stroke-width="0.1"/>
        <line id="simplify_58" x1="61.8749" y1="136.155" x2="64.3761" y2="136.155" stroke="black" stroke-width="0.1"/>
        <line id="simplify_59" x1="61.8749" y1="136.155" x2="61.8749" y2="133.654" stroke="black" stroke-width="0.1"/>
        <line id="simplify_60" x1="61.8749" y1="136.155" x2="59.3738" y2="136.155" stroke="black" stroke-width="0.1"/>
        <polygon id="simplify_61" points="69.7012,121.955 69.5802,121.471 69.2978,121.027 68.854,120.745 68.3699,120.664 67.8858,120.745 67.4421,121.027 67.2,121.471 67.1193,121.955 67.2,122.439 67.4421,122.883 67.8858,123.165 68.3699,123.246 68.854,123.165 69.2978,122.883 69.5802,122.439" fill="none" stroke="black" stroke-width="0.1"/>
        <polyline id="simplify_SVG__000041" points="67.4017,123.69 67.9665,123.851 68.612,123.891 69.2171,123.649 69.7415,123.246 70.0643,122.721 70.2256,122.116 70.1046,121.511 69.8626,120.987 69.4188,120.543 68.854,120.301 68.2892,120.261 67.7245,120.422 67.2807,120.745 66.958,121.229 66.8369,121.915 66.8773,122.358 66.9176,122.52 66.9983,122.641 67.079,122.762 67.2,122.923 67.2807,123.004 66.8773,122.843 66.6352,122.641 66.4335,122.439" fill="none" stroke="black" stroke-width="0.1"/>
        <polyline id="simplify_SVG__000042" points="48.0781,125.021 48.2798,125.223 48.4815,125.424 48.885,125.586 48.8043,125.505 48.7236,125.384 48.6429,125.223 48.6026,125.102 48.5622,124.94 48.5219,124.819 48.4815,124.618 48.4815,124.497 48.4815,124.335 48.6026,123.77 48.9253,123.327 49.3691,123.004 49.9338,122.883 50.4986,122.923 51.0231,123.125 51.4668,123.528 51.7492,124.053 51.8299,124.658 51.7089,125.303 51.3861,125.828 50.902,126.272 50.2566,126.473 49.5708,126.433 49.006,126.272" fill="none" stroke="black" stroke-width="0.1"/>
        <polygon id="simplify_64" points="51.3055,124.537 51.2248,124.053 50.9424,123.609 50.539,123.327 50.0145,123.246 49.5304,123.327 49.127,123.609 48.8446,124.053 48.7236,124.537 48.8446,125.021 49.127,125.465 49.5304,125.747 50.0145,125.828 50.539,125.747 50.9424,125.465 51.2248,125.021" fill="none" stroke="black" stroke-width="0.1"/>
        <polyline id="simplify_SVG__000044" points="44.5281,119.938 66.3125,116.872 68.4103,116.872 69.4188,116.993 70.3063,117.275 71.1535,117.719 71.92,118.324 72.5251,119.01 73.0092,119.898 73.3319,120.785 73.5473,122.157 73.5336,123.649 71.3552,140.552" fill="none" stroke="black" stroke-width="0.1"/>
        <line id="center_00" cx="61.8749" cy="136.155"/>
        <g id="simplify_69_1">
            <polyline class="fil1 str0" id="simplify_69___0" points="80.6338,120.14 81.23889999999999,118.8088 82.08609999999999,117.6388 83.1753,116.711 84.5469,116.0655 85.9588,115.7428 87.4515,115.7831 88.8231,116.1866 90.11399999999999,116.832" fill="none" stroke="black" stroke-width="0.1"/>
            <polyline class="fil1 str0" id="simplify_69___1" points="90.11399999999999,116.832 93.50269999999999,119.13149999999999 96.93169999999999,121.35029999999999 100.48179999999999,123.40769999999999 104.0319,125.38439999999999 107.7029,127.19979999999998 111.4144,128.93449999999999 115.2065,130.54809999999998 118.99860000000001,132.0408" fill="none" stroke="black" stroke-width="0.1"/>
            <polyline class="fil1 str0" id="simplify_69___2" points="118.99860000000001,132.0408 120.00710000000001,132.5652 120.8139,133.37210000000002 121.4191,134.38060000000002 121.7418,135.51020000000003 121.7418,136.68010000000004 121.4191,137.76930000000004 120.8139,138.77780000000004 120.00710000000001,139.54430000000005 118.9582,140.10910000000004 117.82870000000001,140.35110000000003" fill="none" stroke="black" stroke-width="0.1"/>
            <polyline class="fil1 str0" id="simplify_69___3" points="117.82870000000001,140.35110000000003 112.5036,140.67390000000003 107.13820000000001,140.87560000000002 101.77270000000001,140.83520000000001 96.44760000000001,140.63350000000003 91.08220000000001,140.18980000000002 85.75710000000001,139.58470000000003 80.47240000000001,138.81820000000002 75.22800000000001,137.85000000000002" fill="none" stroke="black" stroke-width="0.1"/>
        </g>
        <g id="simplify_70_1">
            <polyline class="fil1 str0" id="simplify_70___0" points="76.3172,105.576 77.003,106.4635 77.4871,107.5124 77.6485,108.642 77.5275,109.77149999999999 77.08370000000001,110.82039999999999 76.3979,111.74829999999999 75.47000000000001,112.47439999999999 74.42120000000001,112.8778 73.25130000000001,113.0392 72.12170000000002,112.83749999999999 71.07280000000002,112.3534" fill="none" stroke="black" stroke-width="0.1"/>
            <polyline class="fil1 str0" id="simplify_70___1" points="68.04720000000002,97.1043 69.05570000000002,98.1935 70.02390000000001,99.2827 71.07280000000002,100.372 72.08140000000002,101.4208 73.08990000000001,102.4697 74.17910000000002,103.5186 75.22800000000002,104.56750000000001 76.31720000000003,105.57600000000001" fill="none" stroke="black" stroke-width="0.1"/>
            <polyline class="fil1 str0" id="simplify_70___2" points="52.27360000000003,99.80720000000001 53.12080000000003,98.2339 54.169700000000034,96.8623 55.460600000000035,95.6923 56.953300000000034,94.8452 58.56690000000003,94.24010000000001 60.30160000000003,93.91730000000001 62.036300000000026,93.95770000000002 63.73070000000003,94.28040000000001 65.34430000000003,94.92590000000001 66.79660000000003,95.89410000000001 68.04720000000003,97.10430000000001" fill="none" stroke="black" stroke-width="0.1"/>
            <polyline class="fil1 str0" id="simplify_70___3" points="49.20770000000003,110.8204 49.36910000000003,110.01360000000001 49.490100000000034,109.20680000000002 49.691800000000036,108.39990000000002 49.85320000000004,107.63340000000002 50.337300000000035,105.65670000000003 50.90200000000004,103.68000000000004 51.58780000000004,101.70320000000004 52.27360000000004,99.80720000000004" fill="none" stroke="black" stroke-width="0.1"/>
            <polyline class="fil1 str0" id="simplify_70___4" points="50.45830000000004,114.57220000000004 50.095200000000034,114.20910000000003 49.81280000000003,113.76540000000003 49.570800000000034,113.36190000000003 49.36910000000003,112.83750000000003 49.24800000000003,112.35340000000004 49.167400000000036,111.82900000000004 49.167400000000036,111.30450000000003 49.20770000000004,110.82040000000003" fill="none" stroke="black" stroke-width="0.1"/>
        </g>
        <polygon id="simplify_71" points="50.0145,96.2171 49.8532,95.3296 49.4094,94.5631 48.7236,93.9983 47.8764,93.7159 46.9889,93.7159 46.1821,93.9983 45.5366,94.5631 45.0525,95.3296 44.9315,96.2171 45.0525,97.0643 45.5366,97.8307 46.1821,98.3955 46.9889,98.7183 47.8764,98.7183 48.7236,98.3955 49.4094,97.8307 49.8532,97.0643" fill="none" stroke="black" stroke-width="0.1"/>
        <polygon id="simplify_72" points="60.6244,161.812 60.4226,160.723 59.9789,159.674 59.2931,158.747 58.4459,158.061 57.3567,157.617 56.2675,157.415 55.1379,157.536 54.0487,157.899 53.1612,158.545 52.3543,159.392 51.8299,160.36 51.5878,161.449 51.6282,162.579 51.9509,163.668 52.5157,164.677 53.2822,165.483 54.2504,166.089 55.3799,166.411 56.5095,166.452 57.5987,166.21 58.6073,165.685 59.4544,164.959 60.0999,163.991 60.463,162.942" fill="none" stroke="black" stroke-width="0.1"/>
        <polygon id="simplify_73" points="44.8508,113.08 44.6894,112.233 44.2457,111.426 43.5599,110.861 42.7127,110.538 41.8655,110.538 41.0184,110.861 40.3729,111.426 39.9291,112.233 39.7678,113.08 39.9291,113.967 40.3729,114.734 41.0184,115.299 41.8655,115.581 42.7127,115.581 43.5599,115.299 44.2457,114.734 44.6894,113.967" fill="none" stroke="black" stroke-width="0.1"/>
        <line id="simplify_74" x1="56.1061" y1="161.934" x2="56.1061" y2="159.432" stroke="black" stroke-width="0.1"/>
        <line id="simplify_75" x1="56.1061" y1="161.934" x2="53.6049" y2="161.934" stroke="black" stroke-width="0.1"/>
        <line id="simplify_76" x1="56.1061" y1="161.934" x2="56.1061" y2="164.435" stroke="black" stroke-width="0.1"/>
        <line id="simplify_77" x1="56.1061" y1="161.934" x2="58.5669" y2="161.934" stroke="black" stroke-width="0.1"/>
    </g>
</svg>
