<?xml version="1.0" encoding="UTF-8"?>
<!DOCTYPE svg PUBLIC "-//W3C//DTD SVG 1.1//EN" "http://www.w3.org/Graphics/SVG/1.1/DTD/svg11.dtd">
<!-- Creator: CorelDRAW -->
<svg xmlns="http://www.w3.org/2000/svg" xml:space="preserve" width="420mm" height="297mm" style="shape-rendering:geometricPrecision; text-rendering:geometricPrecision; image-rendering:optimizeQuality; fill-rule:evenodd; clip-rule:evenodd"
viewBox="0 0 420 297">
 <defs>
  <style type="text/css">
   <![CDATA[
    .str1 {stroke:#1F1A17;stroke-width:0.0762}
    .str0 {stroke:black;stroke-width:0.1}
    .fil2 {fill:none}
    .fil3 {fill:#969594}
    .fil0 {fill:#AAA9A9}
    .fil1 {fill:#C2C1C1}
    .fil4 {fill:#DEDEDD}
   ]]>
  </style>
 </defs>

    <polygon points="186.227,131.836 192.661,124.552 195.274,123.367 197.595,120.793 198.226,116.561 196.668,111.091 193.888,104.056 190.481,97.6178 187.179,92.6308 183.458,87.9508 178.387,82.7198 172.555,77.9028 167.834,74.7308 163.616,74.0228 160.451,75.4348 158.516,77.5548 143.765,72.7618 143.445,69.9088 141.714,66.9068 137.885,64.9998 132.202,64.7908 124.652,65.2598 117.476,66.5118 111.712,68.1098 106.111,70.2048 99.5705,73.4098 93.1855,77.4678 88.7115,80.9778 86.7335,84.7718 87.0985,88.2178 88.5165,90.7138 79.4005,103.261 76.5885,102.683 73.1985,103.402 70.2013,106.454 68.2458,111.795 66.3594,119.121 65.3324,126.332 65.0716,132.307 65.3324,138.281 66.3594,145.493 68.2458,152.818 70.2013,158.159 73.1985,161.212 76.5885,161.93 79.4005,161.352 88.5165,173.9 87.0985,176.395 86.7335,179.841 88.7115,183.635 93.1855,187.146 99.5705,191.203 106.111,194.409 111.712,196.503 117.476,198.101 124.652,199.353 132.202,199.822 137.885,199.613 141.714,197.706 143.445,194.704 143.766,191.851 158.516,187.058 160.451,189.179 163.616,190.59 167.834,189.882 172.555,186.711 178.387,181.893 183.458,176.662 187.18,171.982 190.481,166.995 193.888,160.557 196.668,153.522 198.226,148.052 197.595,143.82 195.274,141.247 192.661,140.061 186.227,132.777 207.744,132.967 208.196,134.207 209.307,135.419 210.827,136.049 213.487,137.307 213.241,140.351 210.414,141.166 208.813,141.543 207.521,142.562 206.876,143.714 206.665,145.016 206.911,146.313 207.814,147.688 209.213,148.553 211.637,150.222 210.905,153.187 207.985,153.538 206.344,153.654 204.905,154.452 204.084,155.485 203.667,156.737 203.702,158.057 204.372,159.559 205.614,160.637 207.738,162.672 206.542,165.482 203.601,165.36 201.964,165.211 200.416,165.768 199.44,166.657 198.827,167.825 198.65,169.133 199.071,170.723 200.124,171.987 201.894,174.337 200.262,176.918 197.381,176.326 195.786,175.916 194.17,176.218 193.065,176.938 192.272,177.993 191.887,179.256 192.047,180.893 192.884,182.309 194.255,184.913 192.23,187.199 189.48,186.152 187.973,185.492 186.328,185.531 185.122,186.064 184.17,186.978 183.588,188.163 183.482,189.805 184.082,191.337 185.017,194.126 182.652,196.058 180.106,194.583 178.724,193.69 177.094,193.465 175.818,193.798 174.731,194.547 173.968,195.623 173.601,197.227 173.945,198.835 174.422,201.739 171.777,203.266 169.5,201.402 168.279,200.299 166.707,199.815 165.393,199.938 164.202,200.504 163.274,201.443 162.655,202.967 162.738,204.61 162.742,207.553 159.887,208.636 157.938,206.431 156.911,205.146 155.437,204.416 154.119,204.328 152.852,204.695 151.786,205.473 150.93,206.878 150.749,208.513 150.28,211.418 147.289,212.029 145.719,209.54 144.911,208.107 143.574,207.15 142.287,206.852 140.977,207.01 139.801,207.608 138.731,208.858 138.289,210.442 137.361,213.234 134.31,213.357 133.159,210.649 132.592,209.105 131.424,207.946 130.203,207.445 128.885,207.392 127.629,207.793 126.372,208.854 125.682,210.347 124.318,212.954 121.286,212.586 120.586,209.729 120.272,208.114 119.307,206.782 118.182,206.092 116.888,205.828 115.584,206.022 114.173,206.868 113.251,208.231 111.488,210.586 108.554,209.736 108.322,206.803 108.271,205.159 107.531,203.69 106.531,202.828 105.298,202.36 103.979,202.342 102.45,202.951 101.322,204.149 99.2035,206.19 96.4445,204.881 96.6855,201.949 96.8995,200.318 96.4055,198.749 95.5565,197.738 94.4135,197.078 93.1145,196.849 91.5085,197.205 90.2035,198.206 87.7835,199.881 85.2705,198.146 85.9785,195.29 86.4515,193.715 86.2155,192.087 85.5405,190.953 84.5175,190.118 83.2715,189.684 81.6295,189.777 80.1805,190.556 77.5245,191.821 75.3215,189.706 76.4785,187 77.1985,185.521 77.2265,183.877 76.7415,182.649 75.8665,181.661 74.7065,181.032 73.0705,180.861 71.5155,181.398 68.6903,182.221 66.8555,179.779 68.4314,177.294 69.3794,175.95 69.6704,174.331 69.3891,173.041 68.6838,171.926 67.6395,171.119 66.052,170.688 64.4311,170.968 61.5108,171.327 60.0914,168.622 62.0454,166.423 63.1968,165.248 63.7438,163.697 63.673,162.379 63.1557,161.165 62.2544,160.201 60.7566,159.521 59.1118,159.537 56.1718,159.423 55.2046,156.526 57.4861,154.668 58.8111,153.693 59.5998,152.249 59.7413,150.937 59.4255,149.656 58.6904,148.56 57.3212,147.648 55.695,147.401 52.8114,146.816 52.3215,143.801 54.8715,142.334 56.3356,141.584 57.3457,140.286 57.6959,139.013 57.5897,137.698 57.04,136.498 55.8347,135.378 54.2692,134.873 51.5168,133.834 51.5168,130.78 54.2692,129.74 55.8347,129.235 57.04,128.115 57.5897,126.916 57.6959,125.6 57.3457,124.328 56.3356,123.029 54.8715,122.28 52.3215,120.812 52.8114,117.797 55.695,117.213 57.3212,116.965 58.6904,116.053 59.4255,114.957 59.7413,113.676 59.5998,112.364 58.8111,110.92 57.4861,109.945 55.2046,108.088 56.1718,105.191 59.1118,105.076 60.7566,105.093 62.2544,104.413 63.1557,103.449 63.673,102.234 63.7438,100.917 63.1968,99.3648 62.0454,98.1908 60.0914,95.9908 61.5108,93.2858 64.4311,93.6448 66.052,93.9248 67.6395,93.4938 68.6838,92.6868 69.3891,91.5718 69.6704,90.2818 69.3794,88.6628 68.4314,87.3188 66.8555,84.8348 68.6903,82.3928 71.5155,83.2148 73.0705,83.7518 74.7065,83.5808 75.8665,82.9518 76.7415,81.9638 77.2265,80.7358 77.1985,79.0918 76.4785,77.6128 75.3215,74.9078 77.5245,72.7918 80.1805,74.0568 81.6295,74.8358 83.2715,74.9298 84.5175,74.4948 85.5405,73.6598 86.2155,72.5258 86.4515,70.8988 85.9785,69.3228 85.2705,66.4668 87.7835,64.7318 90.2035,66.4068 91.5085,67.4078 93.1145,67.7638 94.4135,67.5348 95.5565,66.8748 96.4055,65.8638 96.8995,64.2958 96.6855,62.6648 96.4445,59.7318 99.2035,58.4228 101.322,60.4638 102.45,61.6618 103.979,62.2708 105.298,62.2528 106.531,61.7848 107.531,60.9228 108.271,59.4538 108.322,57.8098 108.554,54.8768 111.488,54.027 113.251,56.3815 114.173,57.7446 115.584,58.5909 116.888,58.7851 118.182,58.5211 119.307,57.8308 120.272,56.4994 120.586,54.8844 121.286,52.0267 124.318,51.6586 125.682,54.2657 126.372,55.7588 127.629,56.8204 128.885,57.2214 130.203,57.1683 131.424,56.6674 132.592,55.5081 133.159,53.9643 134.31,51.2559 137.361,51.3789 138.289,54.171 138.731,55.7555 139.801,57.0049 140.977,57.6025 142.287,57.7615 143.574,57.4629 144.911,56.5059 145.719,55.0731 147.289,52.5843 150.28,53.1952 150.749,56.1 150.93,57.7349 151.786,59.1398 152.852,59.9188 154.119,60.2858 155.437,60.1968 156.911,59.4668 157.938,58.1823 159.887,55.9774 162.742,57.0605 162.738,60.0028 162.655,61.6458 163.274,63.1698 164.202,64.1088 165.393,64.6748 166.707,64.7988 168.279,64.3148 169.5,63.2118 171.777,61.3478 174.422,62.8748 173.945,65.7778 173.601,67.3868 173.968,68.9898 174.731,70.0658 175.818,70.8158 177.094,71.1488 178.724,70.9228 180.106,70.0298 182.652,68.5548 185.017,70.4868 184.082,73.2768 183.482,74.8088 183.588,76.4498 184.17,77.6348 185.122,78.5488 186.328,79.0828 187.973,79.1208 189.48,78.4608 192.23,77.4138 194.255,79.7008 192.884,82.3038 192.047,83.7198 191.887,85.3568 192.272,86.6198 193.065,87.6748 194.17,88.3948 195.786,88.6968 197.381,88.2868 200.262,87.6948 201.894,90.2758 200.124,92.6258 199.071,93.8898 198.65,95.4798 198.827,96.7878 199.44,97.9558 200.416,98.8448 201.964,99.4018 203.601,99.2528 206.542,99.1308 207.738,101.941 205.614,103.976 204.372,105.054 203.702,106.557 203.667,107.876 204.084,109.128 204.905,110.161 206.344,110.96 207.985,111.076 210.905,111.426 211.637,114.392 209.213,116.06 207.814,116.925 206.911,118.3 206.665,119.597 206.876,120.899 207.521,122.051 208.813,123.07 210.414,123.447 213.241,124.262 213.487,127.307 210.827,128.564 209.307,129.194 208.196,130.407 207.744,131.647" fill="none" stroke="black" stroke-width="0.1"/>
    <polygon points="236.019,132.967 236.471,134.207 237.582,135.419 239.101,136.049 241.762,137.307 241.587,140.256 238.797,141.19 237.214,141.636 235.965,142.708 235.372,143.887 235.215,145.197 235.517,146.482 236.476,147.817 237.911,148.622 240.404,150.186 239.882,153.094 237,153.692 235.375,153.946 234.011,154.864 233.28,155.964 232.971,157.246 233.118,158.558 233.912,159.998 235.243,160.967 237.533,162.814 236.67,165.64 233.738,165.893 232.095,165.953 230.631,166.703 229.775,167.709 229.315,168.946 229.307,170.265 229.927,171.789 231.132,172.909 233.188,175.014 231.997,177.718 229.055,177.622 227.416,177.488 225.874,178.06 224.905,178.957 224.304,180.131 224.138,181.44 224.574,183.027 225.637,184.281 227.429,186.614 225.928,189.158 223.018,188.715 221.406,188.389 219.808,188.774 218.741,189.55 218.004,190.645 217.685,191.925 217.929,193.552 218.838,194.923 220.34,197.452 218.548,199.801 215.713,199.017 214.15,198.502 212.517,198.695 211.366,199.34 210.504,200.339 210.036,201.574 210.086,203.218 210.827,204.687 212.021,207.376 209.963,209.496 207.238,208.382 205.749,207.686 204.104,207.684 202.884,208.188 201.911,209.079 201.299,210.249 201.155,211.888 201.717,213.434 202.583,216.246 200.29,218.107 197.717,216.679 196.32,215.812 194.687,215.616 193.416,215.972 192.344,216.741 191.599,217.831 191.262,219.441 191.636,221.043 192.165,223.937 189.666,225.514 187.28,223.792 185.995,222.765 184.398,222.377 183.094,222.581 181.938,223.218 181.07,224.212 180.543,225.771 180.726,227.406 180.909,230.342 178.242,231.613 176.077,229.621 174.922,228.449 173.38,227.875 172.062,227.923 170.839,228.419 169.858,229.303 169.153,230.789 169.141,232.433 168.975,235.371 166.176,236.317 164.262,234.083 163.254,232.783 161.791,232.031 160.476,231.922 159.202,232.27 158.125,233.032 157.249,234.424 157.041,236.056 156.529,238.953 153.638,239.562 152.001,237.117 151.154,235.707 149.791,234.786 148.498,234.523 147.193,234.718 146.033,235.348 144.998,236.626 144.599,238.222 143.748,241.038 140.804,241.3 139.469,238.679 138.795,237.179 137.549,236.104 136.296,235.689 134.977,235.728 133.751,236.216 132.572,237.363 131.988,238.901 130.809,241.597 127.856,241.509 126.84,238.748 126.348,237.179 125.238,235.964 124.043,235.404 122.729,235.287 121.453,235.627 120.146,236.626 119.385,238.084 117.896,240.621 114.974,240.185 114.291,237.323 113.988,235.706 113.03,234.369 111.909,233.672 110.618,233.4 109.311,233.586 107.896,234.424 106.967,235.782 105.188,238.125 102.338,237.347 101.998,234.424 101.889,232.783 101.096,231.341 100.065,230.517 98.8152,230.094 97.4958,230.124 95.991,230.789 94.908,232.027 92.8646,234.144 90.1267,233.033 90.1351,230.091 90.2204,228.448 89.6034,226.924 88.678,225.983 87.4865,225.415 86.1728,225.289 84.6,225.771 83.3781,226.872 81.0987,228.733 78.5113,227.306 78.8677,224.386 79.1467,222.765 78.7144,221.178 77.9067,220.134 76.7907,219.429 75.5011,219.149 73.8824,219.441 72.5388,220.39 70.0554,221.968 67.6549,220.246 68.3541,217.388 68.8229,215.811 68.5814,214.184 67.9028,213.052 66.878,212.22 65.6306,211.789 63.9886,211.888 62.5422,212.672 59.8896,213.945 57.7097,211.95 58.7421,209.195 59.394,207.685 59.3466,206.041 58.8067,204.837 57.8874,203.89 56.6997,203.314 55.0576,203.218 53.5287,203.825 50.7442,204.775 48.8154,202.537 50.1664,199.924 50.9924,198.501 51.1398,196.863 50.7461,195.603 49.9452,194.554 48.834,193.842 47.2147,193.553 45.6248,193.974 42.7474,194.589 41.0968,192.138 42.7475,189.703 43.7359,188.388 44.0761,186.779 43.8341,185.481 43.163,184.345 42.1437,183.507 40.5701,183.027 38.9414,183.258 36.0115,183.528 34.6624,180.899 36.5896,178.676 37.7266,177.487 38.2547,175.93 38.1678,174.613 37.6358,173.405 36.7228,172.452 35.2169,171.79 33.5724,171.827 30.6312,171.748 29.6024,168.978 31.779,166.998 33.0486,165.953 33.7572,164.468 33.8268,163.15 33.4413,161.888 32.6474,160.834 31.2304,159.998 29.5931,159.84 26.6818,159.414 25.9879,156.542 28.3833,154.834 29.7677,153.946 30.647,152.555 30.8719,151.255 30.6384,149.956 29.9748,148.815 28.6665,147.818 27.0594,147.467 24.219,146.7 23.8695,143.766 26.4502,142.353 27.93,141.635 28.9675,140.358 29.3446,139.094 29.2664,137.776 28.7424,136.565 27.5612,135.42 26.0068,134.882 23.2771,133.784 23.2771,130.829 26.0068,129.731 27.5612,129.193 28.7424,128.048 29.2664,126.837 29.3446,125.52 28.9675,124.255 27.93,122.978 26.4502,122.26 23.8695,120.847 24.219,117.913 27.0594,117.146 28.6665,116.795 29.9748,115.798 30.6384,114.657 30.8719,113.358 30.647,112.058 29.7677,110.668 28.3833,109.779 25.9879,108.071 26.6818,105.199 29.5931,104.773 31.2304,104.615 32.6474,103.779 33.4413,102.725 33.8268,101.463 33.7572,100.145 33.0486,98.6603 31.779,97.6145 29.6024,95.6347 30.6312,92.8651 33.5724,92.7863 35.2169,92.8229 36.7228,92.161 37.6358,91.2081 38.1678,90.0003 38.2547,88.6835 37.7266,87.1256 36.5896,85.9369 34.6624,83.7136 36.0115,81.0851 38.9414,81.3548 40.5701,81.5856 42.1437,81.1065 43.163,80.2682 43.8341,79.1319 44.0761,77.8345 43.7359,76.2251 42.7475,74.9103 41.0968,72.4747 42.7474,70.0242 45.6248,70.6385 47.2147,71.0603 48.834,70.7707 49.9452,70.0588 50.7461,69.0098 51.1398,67.7502 50.9924,66.1119 50.1664,64.6894 48.8154,62.0756 50.7442,59.8376 53.5287,60.7879 55.0576,61.3948 56.6997,61.2987 57.8874,60.7233 58.8067,59.7764 59.3466,58.5721 59.394,56.9279 58.7421,55.4177 57.7097,52.6625 59.8896,50.6682 62.5422,51.9412 63.9886,52.7247 65.6306,52.8235 66.878,52.3926 67.9028,51.561 68.5814,50.4291 68.8229,48.802 68.3541,47.2253 67.6549,44.3674 70.0554,42.6449 72.5388,44.2227 73.8824,45.1717 75.5011,45.464 76.7907,45.1837 77.9067,44.4792 78.7144,43.4355 79.1467,41.8484 78.8677,40.2273 78.5113,37.3067 81.0987,35.8803 83.3781,37.7407 84.6,38.842 86.1728,39.3237 87.4865,39.1978 88.678,38.6303 89.6034,37.6894 90.2204,36.1646 90.1351,34.5218 90.1267,31.5796 92.8646,30.4692 94.908,32.5862 95.991,33.8242 97.4958,34.4886 98.8152,34.519 100.065,34.0964 101.096,33.2716 101.889,31.8304 101.998,30.1891 102.338,27.2665 105.188,26.4878 106.967,28.8315 107.896,30.189 109.311,31.0267 110.618,31.2129 111.909,30.9411 113.03,30.2439 113.988,28.9067 114.291,27.2899 114.974,24.428 117.896,23.9917 119.385,26.5294 120.146,27.9872 121.453,28.9865 122.729,29.3259 124.043,29.2088 125.238,28.6491 126.348,27.4344 126.84,25.8648 127.856,23.1038 130.809,23.0162 131.988,25.7122 132.572,27.2499 133.751,28.3967 134.977,28.8846 136.296,28.9237 137.549,28.5093 138.795,27.4344 139.469,25.934 140.804,23.3126 143.748,23.5749 144.599,26.3913 144.998,27.9873 146.033,29.2655 147.193,29.8951 148.498,30.0899 149.791,29.8266 151.154,28.9065 152.001,27.4964 153.638,25.0514 156.529,25.66 157.041,28.5573 157.249,30.1892 158.125,31.5809 159.202,32.3432 160.476,32.691 161.791,32.5825 163.254,31.8302 164.262,30.5301 166.176,28.2958 168.975,29.2421 169.141,32.1796 169.153,33.8245 169.858,35.3102 170.839,36.1945 172.062,36.6905 173.38,36.7383 174.922,36.1643 176.077,34.9925 178.242,33.0003 180.909,34.271 180.726,37.2075 180.543,38.8423 181.07,40.4011 181.938,41.3951 183.094,42.0322 184.398,42.2357 185.995,41.848 187.28,40.821 189.666,39.0989 192.165,40.6761 191.636,43.5704 191.262,45.1722 191.599,46.7821 192.344,47.8718 193.416,48.6412 194.687,48.9974 196.32,48.8015 197.717,47.9338 200.29,46.5059 202.583,48.3675 201.717,51.179 201.155,52.7252 201.299,54.3638 201.911,55.5339 202.884,56.4247 204.104,56.9287 205.749,56.9273 207.238,56.2309 209.963,55.1173 212.021,57.2372 210.827,59.9264 210.086,61.3953 210.036,63.0395 210.504,64.2736 211.366,65.2733 212.517,65.9181 214.15,66.1113 215.713,65.596 218.548,64.8123 220.34,67.1608 218.838,69.6899 217.929,71.0609 217.685,72.6877 218.004,73.9684 218.741,75.063 219.808,75.8394 221.406,76.2245 223.018,75.8976 225.928,75.4548 227.429,77.9988 225.637,80.3323 224.574,81.5863 224.138,83.1727 224.304,84.4821 224.905,85.6562 225.874,86.5534 227.416,87.1249 229.055,86.991 231.997,86.8954 233.188,89.5992 231.132,91.7044 229.927,92.8236 229.307,94.3475 229.315,95.6672 229.775,96.9043 230.631,97.9097 232.095,98.6596 233.738,98.7205 236.67,98.9734 237.533,101.799 235.243,103.647 233.912,104.615 233.118,106.055 232.971,107.367 233.28,108.65 234.011,109.749 235.375,110.667 237,110.922 239.882,111.52 240.404,114.428 237.911,115.991 236.476,116.796 235.517,118.132 235.215,119.416 235.372,120.727 235.965,121.905 237.214,122.978 238.797,123.423 241.587,124.357 241.762,127.307 239.101,128.564 237.582,129.194 236.471,130.407 236.019,131.647 192.754,130.908 192.717,124.503 195.71,123.918 198.36,123.13 200.723,122.12 202.859,120.867 204.827,119.355 206.684,117.562 208.49,115.471 210.304,113.061 210.304,113.061 212.465,109.557 214.009,105.783 214.881,101.752 215.025,97.4747 214.385,92.9615 212.905,88.2236 210.53,83.272 207.204,78.1177 207.204,78.1177 203.324,73.3649 199.343,69.5777 195.288,66.707 191.188,64.7036 187.071,63.5186 182.964,63.1029 178.897,63.4074 174.896,64.3831 174.896,64.3831 172.045,65.3612 169.496,66.4224 167.215,67.6191 165.165,69.004 163.312,70.6297 161.619,72.5486 160.051,74.8135 158.572,77.4768 151.156,75.1561 143.792,72.7711 144.161,69.7432 144.231,66.9801 144,64.42 143.469,62.0014 142.638,59.6627 141.507,57.3421 140.076,54.9782 138.345,52.5093 138.345,52.5093 135.68,49.3709 132.569,46.736 129.004,44.661 124.981,43.2024 120.491,42.4165 115.527,42.3597 110.084,43.0883 104.154,44.6588 104.154,44.6588 98.435,46.8803 93.6029,49.4965 89.6196,52.4656 86.4474,55.7458 84.0481,59.2953 82.3838,63.0722 81.4165,67.0348 81.1081,71.1413 81.1081,71.1413 81.1572,74.1555 81.3789,76.9073 81.8121,79.4466 82.4959,81.8238 83.4692,84.0889 84.7711,86.2921 86.4405,88.4835 88.5164,90.7132 84.0179,97.0484 79.4739,103.315 76.7083,102.028 74.1018,101.109 71.5957,100.537 69.1315,100.295 66.6504,100.362 64.094,100.72 61.4036,101.351 58.5206,102.234 58.5206,102.234 54.7121,103.799 51.2448,105.944 48.17,108.693 45.5394,112.069 43.4044,116.096 41.8166,120.799 40.8275,126.201 40.4887,132.326 40.4887,132.326 40.8342,138.452 41.8291,143.856 43.422,148.561 45.5614,152.592 48.1957,155.971 51.2735,158.721 54.7432,160.865 58.5534,162.428 58.5534,162.428 61.4353,163.312 64.1209,163.952 66.6698,164.324 69.142,164.409 71.597,164.183 74.0946,163.626 76.6946,162.715 79.4567,161.43 88.5166,173.9 86.4438,176.133 84.7785,178.331 83.4814,180.542 82.5133,182.815 81.8348,185.2 81.4066,187.745 81.1896,190.502 81.1444,193.518 81.1444,193.518 81.456,197.623 82.4245,201.584 84.0884,205.358 86.4863,208.903 89.657,212.178 93.639,215.141 98.4709,217.751 104.191,219.966 104.191,219.966 110.124,221.53 115.571,222.254 120.539,222.193 125.033,221.404 129.06,219.943 132.627,217.865 135.739,215.228 138.402,212.087 138.402,212.087 140.128,209.618 141.549,207.256 142.668,204.939 143.485,202.605 144.002,200.192 144.22,197.637 144.141,194.877 143.766,191.851 158.635,187.019 160.116,189.685 161.685,191.961 163.376,193.897 165.227,195.541 167.274,196.945 169.553,198.158 172.1,199.229 174.952,200.209 174.952,200.209 178.953,201.182 183.018,201.484 187.122,201.068 191.234,199.883 195.329,197.88 199.378,195.008 203.353,191.219 207.227,186.463 207.227,186.463 210.548,181.305 212.92,176.348 214.397,171.604 215.035,167.086 214.89,162.804 214.017,158.77 212.47,154.996 210.306,151.493 210.306,151.493 208.494,149.083 206.698,146.987 204.855,145.187 202.904,143.666 200.785,142.405 198.437,141.388 195.798,140.597 192.808,140.013 192.77,133.558" fill="none" stroke="black" stroke-width="0.1"/>
    <polygon points="71.1095,87.6108 73.5243,84.3804 73.7155,83.9904 73.8738,83.5476 74.0017,83.067 74.1014,82.5639 74.1752,82.0533 74.2254,81.5504 74.2542,81.0701 74.2641,80.6277 74.2641,80.6277 74.2793,78.748 74.3171,76.8606 74.3808,74.9645 74.4742,73.0587 74.6007,71.1422 74.7638,69.214 74.9672,67.2731 75.2143,65.3186 75.2143,65.3186 75.2519,64.4052 75.1053,63.6788 74.8009,63.1442 74.3651,62.8059 73.8244,62.6689 73.2049,62.7378 72.5333,63.0174 71.8357,63.5124 71.8357,63.5124 69.9761,65.2036 68.1632,66.9445 66.3982,68.7342 64.6823,70.5715 63.0166,72.4552 61.4023,74.3841 59.8404,76.3573 58.3321,78.3735 58.3321,78.3735 56.8904,80.4378 55.5064,82.5395 54.1808,84.6773 52.9142,86.8496 51.7076,89.055 50.5614,91.2922 49.4766,93.5597 48.4537,95.8561 48.4537,95.8561 48.2024,96.6734 48.1476,97.3988 48.2764,98.0085 48.5761,98.479 49.0339,98.7868 49.637,98.9082 50.3727,98.8197 51.2282,98.4977 51.2282,98.4977 53.0066,97.6501 54.7858,96.8484 56.5657,96.0889 58.3459,95.3679 60.1264,94.6818 61.9069,94.0268 63.6874,93.3992 65.4675,92.7953 65.4675,92.7953 65.8847,92.6473 66.3317,92.4693 66.7937,92.264 67.2554,92.0339 67.7019,91.7815 68.118,91.5094 68.4887,91.2202 68.7989,90.9164" fill="none" stroke="black" stroke-width="0.1"/>
    <polygon points="71.1275,177.026 68.8015,173.731 68.4896,173.429 68.1174,173.141 67.6999,172.871 67.2522,172.621 66.7894,172.393 66.3266,172.19 65.8787,172.014 65.461,171.868 65.461,171.868 63.678,171.272 61.8946,170.653 60.1111,170.007 58.3274,169.329 56.5438,168.616 54.7604,167.865 52.9774,167.072 51.1949,166.233 51.1949,166.233 50.3378,165.915 49.6017,165.83 48.9991,165.954 48.5427,166.264 48.2453,166.736 48.1194,167.347 48.1778,168.072 48.433,168.888 48.433,168.888 49.4667,171.179 50.5623,173.442 51.719,175.673 52.9361,177.873 54.2128,180.039 55.5485,182.171 56.9425,184.266 58.3939,186.323 58.3939,186.323 59.9117,188.332 61.4828,190.298 63.1063,192.22 64.7809,194.095 66.5055,195.924 68.279,197.706 70.1003,199.438 71.9682,201.121 71.9682,201.121 72.6679,201.612 73.3408,201.888 73.9605,201.954 74.5006,201.815 74.9348,201.475 75.2366,200.938 75.3798,200.211 75.3379,199.298 75.3379,199.298 75.0814,197.345 74.8687,195.405 74.6964,193.478 74.5608,191.562 74.4584,189.656 74.3857,187.761 74.339,185.873 74.3148,183.994 74.3148,183.994 74.3029,183.551 74.2719,183.071 74.2193,182.568 74.1432,182.058 74.0411,181.555 73.9109,181.076 73.7504,180.634 73.5573,180.245" fill="none" stroke="black" stroke-width="0.1"/>
    <polygon points="156.171,204.64 152.319,205.834 151.935,206.037 151.547,206.302 151.161,206.616 150.785,206.964 150.425,207.334 150.089,207.711 149.783,208.083 149.515,208.435 149.515,208.435 148.398,209.947 147.258,211.452 146.092,212.948 144.896,214.435 143.667,215.911 142.402,217.375 141.096,218.826 139.748,220.262 139.748,220.262 139.18,220.979 138.872,221.653 138.804,222.264 138.958,222.794 139.315,223.223 139.856,223.531 140.564,223.699 141.419,223.709 141.419,223.709 143.918,223.434 146.408,223.091 148.888,222.68 151.356,222.203 153.81,221.658 156.25,221.046 158.674,220.368 161.079,219.623 161.079,219.623 163.459,218.801 165.814,217.914 168.143,216.964 170.444,215.951 172.717,214.876 174.959,213.739 177.17,212.543 179.347,211.286 179.347,211.286 180.031,210.772 180.501,210.218 180.755,209.649 180.79,209.092 180.6,208.574 180.184,208.121 179.536,207.76 178.655,207.518 178.655,207.518 176.718,207.159 174.807,206.761 172.921,206.33 171.057,205.866 169.213,205.375 167.388,204.858 165.578,204.32 163.783,203.762 163.783,203.762 163.359,203.636 162.893,203.518 162.398,203.412 161.889,203.327 161.38,203.269 160.883,203.244 160.413,203.26 159.984,203.324" fill="none" stroke="black" stroke-width="0.1"/>
    <polygon points="208.714,132.291 208.66,136.324 208.734,136.751 208.866,137.203 209.045,137.667 209.261,138.132 209.501,138.589 209.756,139.025 210.015,139.431 210.267,139.795 210.267,139.795 211.36,141.324 212.438,142.873 213.501,144.445 214.546,146.041 215.57,147.666 216.572,149.322 217.548,151.012 218.497,152.738 218.497,152.738 219.003,153.499 219.549,154.001 220.109,154.255 220.661,154.272 221.179,154.065 221.639,153.645 222.018,153.024 222.292,152.214 222.292,152.214 222.802,149.752 223.245,147.278 223.621,144.793 223.93,142.298 224.17,139.795 224.342,137.286 224.446,134.771 224.481,132.254 224.481,132.254 224.434,129.736 224.319,127.222 224.134,124.714 223.882,122.212 223.562,119.718 223.174,117.235 222.719,114.762 222.197,112.303 222.197,112.303 221.92,111.494 221.538,110.875 221.075,110.458 220.556,110.253 220.005,110.274 219.446,110.53 218.903,111.034 218.4,111.797 218.4,111.797 217.459,113.528 216.491,115.223 215.497,116.883 214.481,118.513 213.444,120.114 212.388,121.691 211.317,123.245 210.232,124.78 210.232,124.78 209.981,125.145 209.724,125.552 209.471,125.989 209.233,126.447 209.02,126.914 208.843,127.378 208.713,127.83 208.641,128.258" fill="none" stroke="black" stroke-width="0.1"/>
    <polygon points="156.142,59.9628 159.961,61.2612 160.391,61.3225 160.861,61.3362 161.357,61.3094 161.867,61.2487 162.375,61.1611 162.869,61.0534 163.335,60.9324 163.759,60.8051 163.759,60.8051 165.551,60.2387 167.358,59.6914 169.181,59.1661 171.022,58.6659 172.884,58.194 174.768,57.7533 176.677,57.347 178.612,56.978 178.612,56.978 179.492,56.7315 180.138,56.3676 180.552,55.913 180.739,55.394 180.703,54.8373 180.446,54.2695 179.972,53.7171 179.286,53.2067 179.286,53.2067 177.103,51.9607 174.887,50.7745 172.639,49.649 170.362,48.5849 168.055,47.5828 165.722,46.6435 163.363,45.7677 160.979,44.9563 160.979,44.9563 158.57,44.2231 156.144,43.5563 153.701,42.9561 151.244,42.4229 148.773,41.9567 146.291,41.558 143.8,41.227 141.3,40.9638 141.3,40.9638 140.445,40.9774 139.738,41.1494 139.198,41.4603 138.843,41.8907 138.692,42.4212 138.763,43.0324 139.074,43.7047 139.645,44.4188 139.645,44.4188 141,45.8483 142.313,47.2927 143.585,48.7507 144.821,50.221 146.024,51.7023 147.197,53.1933 148.344,54.6927 149.468,56.1991 149.468,56.1991 149.738,56.5501 150.045,56.9203 150.383,57.2961 150.745,57.6642 151.123,58.0108 151.51,58.3225 151.9,58.5857 152.285,58.7868" fill="none" stroke="black" stroke-width="0.1"/>
    <circle cx="153.43" cy="196.503" r="6.2896" fill="none" stroke="black" stroke-width="0.1"/>
    <circle cx="153.43" cy="196.503" r="2.6207" fill="none" stroke="black" stroke-width="0.1"/>
    <circle cx="77.9625" cy="171.982" r="6.2896" fill="none" stroke="black" stroke-width="0.1"/>
    <circle cx="77.9625" cy="171.982" r="2.6207" fill="none" stroke="black" stroke-width="0.1"/>
    <circle cx="153.429" cy="68.1098" r="6.2896" fill="none" stroke="black" stroke-width="0.1"/>
    <circle cx="153.429" cy="68.1098" r="2.6207" fill="none" stroke="black" stroke-width="0.1"/>
    <circle cx="77.9625" cy="92.6308" r="6.2896" fill="none" stroke="black" stroke-width="0.1"/>
    <circle cx="77.9625" cy="92.6308" r="2.6207" fill="none" stroke="black" stroke-width="0.1"/>
    <polyline points="233.881,135.742 232.638,149.951 228.054,167.059 220.568,183.112 210.40900000000002,197.62 197.88500000000002,210.144 183.377,220.303 167.324,227.789 150.216,232.373 132.5718,233.916 114.9275,232.373 97.8193,227.78799999999998 81.767,220.30299999999997 67.2584,210.14399999999998 54.734399999999994,197.61999999999998 44.575399999999995,183.111 37.09009999999999,167.059 32.50599999999999,149.951 30.96239999999999,132.30599999999998 32.50609999999999,114.66199999999998 37.09029999999999,97.55389999999997 44.575599999999994,81.50159999999997 54.7347,66.99309999999997 67.2588,54.468999999999966 81.7674,44.30999999999997 97.8197,36.824699999999964 114.9279,32.240599999999965 132.572,30.696999999999964 150.216,32.24069999999996 167.32500000000002,36.824899999999964 183.377,44.310199999999966 197.88600000000002,54.46929999999997 210.41000000000003,66.99339999999997 220.56900000000002,81.50199999999997 228.05400000000003,97.55429999999997 232.63800000000003,114.66299999999997 233.86300000000003,128.66099999999997" fill="none" stroke="black" stroke-width="0.1"/>
    <polygon points="233.88100000000003,135.74199999999996" fill="none" stroke="black" stroke-width="0.1"/>
    <circle cx="132.572" cy="132.313" r="10" fill="none" stroke="black" stroke-width="0.1"/>
    <polygon points="143.766,191.851 140.034,179.785 135.9,169.934 130.904,159.731 127.756,156.741 125.022,155.541 122.105,154.906 117.801,155.474 107.762,160.791 98.6275,166.331 88.5165,173.9 83.9585,167.626 79.4005,161.352 89.7225,154.075 97.8135,147.1 105.974,139.195 107.845,135.277 108.141,132.307 107.845,129.336 105.974,125.418 97.8135,117.513 89.7225,110.538 79.4735,103.315 88.5025,90.7328 98.6275,98.2818 107.762,103.822 117.801,109.139 122.105,109.707 125.022,109.072 127.756,107.872 130.904,104.882 135.9,94.6788 140.034,84.8278 143.765,72.7618 158.572,77.4768 154.441,89.5088 151.995,99.9078 151.995,99.9078 153.6,107.503 159.015,110.811 173.533,113.781 195.989,116.01 250.541,117.422 281.427,116.886 292.676,116.395 303.24,115.478 307.572,115.285 310.084,115.452 312.844,116.117 315.701,117.349 318.707,119.433 321.37,122.338 322.572,124.257 324.096,128.204 324.594,132.307 324.096,136.41 322.572,140.356 321.37,142.275 318.707,145.18 315.701,147.265 312.844,148.496 310.084,149.161 307.572,149.328 303.24,149.135 292.676,148.219 281.427,147.727 250.541,147.191 195.989,148.603 173.533,150.832 159.015,153.802 153.6,157.11 151.995,164.705 154.441,175.103 158.516,187.058" fill="none" stroke="black" stroke-width="0.1"/>
    <circle cx="307.572" cy="132.307" r="7.5" fill="none" stroke="black" stroke-width="0.1"/>
    <circle cx="132.572" cy="132.313" r="10" fill="none" stroke="black" stroke-width="0.1"/>
    <circle cx="132.572" cy="132.313" r="10" fill="none" stroke="black" stroke-width="0.1"/>
    <circle id="center_00" cx="132.572" cy="132.313" r="6.0323" fill="none" stroke="black" stroke-width="0.1"/>

</svg>
