<!DOCTYPE svg PUBLIC "-//W3C//DTD SVG 1.1//EN" "http://www.w3.org/Graphics/SVG/1.1/DTD/svg11.dtd">
<svg xmlns="http://www.w3.org/2000/svg" width="297mm" height="210mm" viewBox="0 0 297 210">
    <defs id="_tag_72_"/>
    <g id="Ebene_x0020_1">
        <g id="_130661360">
            <polygon points="47.17,52.476 46.9871,52.898 46.6559,53.6395 46.3068,54.3838 45.9486,55.1296 45.5755,55.8684 45.194,56.6132 44.7984,57.3556 44.3884,58.0956 43.9688,58.8327 43.5394,59.5665 43.0956,60.2981 42.6423,61.0265 42.1785,61.7473 41.7048,62.4651 41.2215,63.1799 40.7277,63.8869 40.2281,64.5857 39.7141,65.282 39.1897,65.971 38.6586,66.647 38.1223,67.3191 37.5749,67.9792 37.017,68.6317 36.4531,69.2759 35.8781,69.9081 35.3009,70.5266 34.7133,71.1376 34.1191,71.7358 33.5181,72.3211 32.9105,72.8937 32.2956,73.4488 31.6792,73.9949 31.051,74.5245 30.7334,74.7968 30.4225,75.0818 30.1265,75.3738 29.8365,75.6741 29.5622,75.9857 29.2939,76.3056 29.0411,76.6371 28.7937,76.9722 28.5611,77.3142 28.3398,77.6684 28.1282,78.0256 27.9315,78.3896 27.7452,78.7613 27.5688,79.1361 27.4028,79.5184 27.251,79.9031 27.1142,80.2947 26.987,80.6895 26.8704,81.0917 26.7681,81.4964 26.68,81.9034 26.6015,82.3135 26.5419,82.7252 26.4913,83.1356 26.4512,83.5535 26.4297,83.973 26.4173,84.3912 26.4237,84.8109 26.4391,85.2293 26.4688,85.65 26.5164,86.0679 26.5739,86.4888 26.6891,87.0995 26.8387,87.7232 27.0185,88.3329 27.2151,88.9028 30.3793,97.4651 30.5251,97.9182 30.6279,98.3922 30.6791,98.9205 30.6794,99.4475 30.6182,99.9659 30.509,100.473 30.3466,100.966 30.1354,101.444 29.8781,101.891 29.5705,102.315 29.2257,102.707 28.8325,103.056 28.4615,103.341 28.011,103.708 27.5933,104.107 27.2069,104.529 26.8527,104.978 26.5297,105.45 26.2427,105.944 25.9953,106.455 25.783,106.984 25.6052,107.525 25.4671,108.083 25.3709,108.644 25.3137,109.217 25.2993,109.798 25.3268,110.381 25.3958,110.962 25.4778,111.392 25.5871,111.82 25.7187,112.242 25.8761,112.652 26.0562,113.058 26.2572,113.452 26.4801,113.838 26.7189,114.206 26.9795,114.568 27.2605,114.911 27.5575,115.238 27.8711,115.554 28.1999,115.849 28.5393,116.124 28.8946,116.381 29.2651,116.619 27.2498,120.069 27.7074,120.126 28.171,120.163 28.641,120.182 29.1132,120.185 29.5872,120.171 30.0634,120.141 30.5369,120.094 31.012,120.028 31.7121,119.894 32.4021,119.725 33.0772,119.521 33.746,119.276 34.3954,118.997 35.0256,118.685 35.6413,118.338 36.2382,117.961 36.8114,117.551 37.3662,117.112 37.8933,116.645 38.3972,116.148 38.8694,115.626 39.3145,115.078 39.7322,114.504 40.1139,113.907 40.3204,113.546 40.5516,113.079 40.7529,112.599 40.9245,112.105 41.0613,111.597 41.1698,111.085 41.2394,110.56 41.2812,110.036 41.2854,109.508 41.2582,108.986 41.1934,108.46 39.6535,99.5845 34.0753,84.5979 34.1288,84.1178 34.2121,83.6514 34.3351,83.2018 34.4971,82.7646 34.6942,82.345 34.9265,81.9429 35.1901,81.5636 35.4806,81.2078 35.8031,80.8792 36.1524,80.5742 36.5301,80.3017 36.9262,80.0586 37.3416,79.8494 37.7815,79.678 38.2362,79.5413 38.7018,79.4444 39.2113,79.3914 39.7182,79.3806 40.2195,79.4214 40.7136,79.505 41.1961,79.632 41.667,79.8025 42.1212,80.0127 42.5501,80.2684 42.9614,80.5593 43.3425,80.892 46.3891,88.7699 46.8097,89.0316 47.2424,89.2822 47.6834,89.5268 48.1275,89.7617 48.5845,89.9898 49.049,90.2076 49.5166,90.4156 49.9919,90.6131 50.474,90.7957 50.9546,90.9693 51.4429,91.1324 51.9335,91.2813 52.422,91.4167 52.918,91.5416 53.4112,91.6485 53.8858,91.7397 54.6313,91.8483 55.0326,91.9003 55.4415,91.9419 55.8452,91.9797 56.4381,92.0153 56.9958,92.0332 72.1689,92.0994 72.1685,91.6001 79.3555,91.6362 79.4117,79.6416 72.2247,79.6053 72.2294,79.1098 67.5089,79.0852 60.3263,79.0482 59.6591,79.0106 59.0434,78.9185 58.4469,78.7725 57.8703,78.5772 57.3188,78.3362 56.7873,78.0459 56.2861,77.7137 55.8153,77.3397 55.3795,76.9232 54.9806,76.4777 54.6173,75.9942 54.3001,75.4802 54.0192,74.9328 53.7947,74.3626 53.6126,73.7672 53.4876,73.1535 53.4393,72.7312 53.421,72.2948 53.4216,71.86 53.4392,71.4457 53.4764,70.9218 53.5227,70.3966 53.5741,69.8752 53.6347,69.3523 53.6998,68.8287 53.7746,68.3082 53.8538,67.7869 53.9429,67.2688 54.0357,66.7455 54.139,66.2297 54.246,65.7087 54.359,65.196 54.4811,64.6819 54.6076,64.1671 54.7394,63.6561 54.8809,63.1481 55.0269,62.6395 55.1782,62.1346 55.3346,61.6335 55.5009,61.1355 55.667,60.6376 55.843,60.1427 56.0249,59.656 56.2112,59.1687 56.3977,58.6814 56.5945,58.2017 56.7966,57.7257 57.0039,57.2536 57.2164,56.7853 57.4342,56.3208 57.6526,55.8608 57.8808,55.4037 58.229,54.5949 57.7718,54.3945 60.5795,47.8598 51.3951,43.9134 48.5875,50.4481 48.1265,50.2529" fill="none" stroke="black" stroke-width="0.1" id="_131578024"/>
            <polyline points="28.7349,103.14 28.9486,102.99980000000001 29.1556,102.8468 29.3572,102.69 29.5486,102.5256 29.738500000000002,102.3522 29.9186,102.1756 30.0883,101.9916 30.2572,101.80300000000001 30.412000000000003,101.61200000000001 30.565300000000004,101.412 30.708000000000006,101.2044 30.846400000000006,100.9975 30.974200000000007,100.783 31.096900000000005,100.5648 31.209900000000005,100.3435 31.313000000000006,100.119 31.411000000000005,99.8908 31.502900000000004,99.6542 31.581400000000002,99.4199 31.654700000000002,99.18169999999999 31.718200000000003,98.9404 31.776500000000002,98.6953 31.8213,98.4524 31.8601,98.2012 31.8899,97.9514 31.910700000000002,97.703 31.9217,97.4516 31.923000000000002,97.1971 31.915300000000002,96.944 31.902400000000004,96.687 31.875900000000005,96.4322 31.839600000000004,96.17439999999999 31.809500000000003,96.01279999999998 31.778500000000005,95.84659999999998 31.737800000000004,95.67719999999998 31.692600000000002,95.50869999999999 31.648200000000003,95.34469999999999 31.599100000000004,95.1813 31.546300000000002,95.02319999999999 31.495,94.87409999999998 29.0422,88.23389999999998 28.9585,87.99749999999997 28.8779,87.75119999999997 28.8003,87.49529999999997 28.7266,87.23409999999997 28.6567,86.96779999999997 28.596500000000002,86.70449999999997 28.5453,86.43979999999996 28.5001,86.18329999999996 28.4243,85.61729999999996 28.377699999999997,85.06059999999995 28.3635,84.50329999999995 28.373199999999997,83.95149999999995 28.411299999999997,83.40439999999995 28.478699999999996,82.86659999999995 28.570199999999996,82.33419999999995 28.685599999999997,81.80719999999995 28.830199999999998,81.28959999999995 28.994899999999998,80.78259999999995 29.1882,80.28029999999994 29.402299999999997,79.79319999999994 29.636699999999998,79.31679999999994 29.896499999999996,78.85489999999994 30.176499999999997,78.40359999999994 30.477399999999996,77.96749999999994 30.799099999999996,77.54669999999994 31.141699999999997,77.14089999999995 31.5053,76.75039999999994 31.880699999999997,76.37639999999995 32.282399999999996,76.02149999999995 32.69649999999999,75.68769999999995 33.12709999999999,75.36989999999994 33.57549999999999,75.07679999999995 34.04099999999999,74.80429999999996 34.51829999999999,74.54829999999995 35.01419999999999,74.32189999999996 35.522699999999986,74.11649999999996 36.03929999999998,73.93289999999996 36.574499999999986,73.77879999999996 37.122799999999984,73.65029999999996 37.67939999999999,73.54369999999996 38.16869999999999,73.47999999999996 38.65189999999998,73.43589999999996 39.13859999999998,73.41429999999995 39.619199999999985,73.41209999999995 40.09879999999998,73.43329999999995 40.572999999999986,73.47839999999995 41.04479999999999,73.53779999999995 41.51119999999999,73.62109999999994 41.97139999999999,73.72399999999995 42.42929999999999,73.84109999999994 42.87709999999999,73.98279999999994 43.31879999999999,74.14399999999993 43.75369999999999,74.32029999999993 44.18229999999999,74.51589999999993 44.59959999999999,74.72729999999993 45.00629999999999,74.95879999999993 45.40529999999999,75.20089999999992 45.79429999999999,75.46759999999992 46.16669999999999,75.74619999999992 46.53229999999999,76.03969999999991 46.88649999999999,76.34889999999992 47.22479999999999,76.67449999999991 47.551599999999986,77.01579999999991 47.861899999999984,77.36899999999991 48.15629999999999,77.73849999999992 48.43849999999999,78.11919999999992 48.70409999999999,78.51179999999992 48.95389999999999,78.92069999999993 49.18699999999999,79.34169999999993 49.398999999999994,79.77509999999994 49.59369999999999,80.21599999999994 49.76449999999999,80.63749999999993 53.92229999999999,91.77979999999994" fill="none" stroke="black" stroke-width="0.1" id="_132163488_1"/>
            <line x1="57.7718" y1="54.3945" x2="47.17" y2="52.476" fill="none" stroke="black" stroke-width="0.1" id="_132175664"/>
            <line x1="72.1685" y1="91.6001" x2="67.5089" y2="79.0852" fill="none" stroke="black" stroke-width="0.1" id="_132174744"/>
            <circle cx="33.2947" cy="109.712" r="4.5" fill="none" stroke="black" stroke-width="0.1" id="_132081416"/>
            <circle cx="39.4119" cy="84.4502" r="5.0" fill="none" stroke="black" stroke-width="0.1" id="rear_axle"/>
            <circle cx="39.4119" cy="84.4502" r="5.0" fill="none" stroke="black" stroke-width="0.1" id="center_00"/>
        </g>
    </g>
</svg>
