<!DOCTYPE svg PUBLIC "-//W3C//DTD SVG 1.1//EN" "http://www.w3.org/Graphics/SVG/1.1/DTD/svg11.dtd">
<svg xmlns="http://www.w3.org/2000/svg" width="297mm" height="210mm" viewBox="0 0 297 210">
    <defs id="_tag_51_"/>
    <g id="_tag_52_">
        <g id="_tag_53_">
            <g id="_tag_54_">
                <polygon id="_86851552" points="143.08,372.758 152.903,375.13 154.898,390.576 147.678,415.921 127.0,443.789 127.0,416.585 139.038,383.777 140.374,377.758 141.289,372.199" fill="none" stroke="black" stroke-width="0.1"/>
                <polygon id="_86844752" points="89.3913,432.103 89.4282,431.922 89.5301,431.749 89.684,431.633 89.8707,431.603 126.291,431.603 128.493,430.956 130.452,429.97 132.03,428.882 133.587,427.374 135.104,425.644 136.246,423.434 136.976,421.477 149.212,388.617 149.462,386.277 149.165,384.058 148.267,382.116 146.96,380.663 143.203,376.715 142.259,375.898 141.4,373.827 141.289,372.199 141.908,369.124 142.209,368.478 142.669,368.122 143.27,368.0 153.734,368.0 154.331,368.225 154.722,368.606 161.965,378.25 162.5,379.462 162.793,381.076 162.793,387.175 162.793,388.564 162.28,390.303 130.0,476.884 130.0,476.884 129.62,678.975 121.124,681.397 93.6156,679.14 94.0,458.589 89.3913,449.445" fill="none" stroke="black" stroke-width="0.1"/>
                <line id="_86844704" x1="89.3913" y1="449.445" x2="124.606" y2="449.445" stroke="black" stroke-width="0.1"/>
                <line id="_86844728" x1="94.0" y1="458.589" x2="121.938" y2="458.589" stroke="black" stroke-width="0.1"/>
                <polyline id="simplify_SVG__000047" points="124.936,431.891 123.018,432.103 89.7029,432.103" fill="none" stroke="black" stroke-width="0.1"/>
                <polyline id="simplify_SVG__000048" points="144.623,374.349 150.27,380.441 151.625,383.004 151.975,385.334 151.785,388.41 148.219,398.17 139.618,421.642 137.493,425.719 134.389,429.265 130.592,431.78" fill="none" stroke="black" stroke-width="0.1"/>
                <polygon id="_86844176_1" class="fil3 str0" points="93.0399,428.283 132.6484,428.283 132.02980000000002,428.8824 130.40860000000004,429.99240000000003 93.03990000000005,429.99240000000003 92.86655156250005,429.97495605468754 92.70481875000004,429.92496093750003 92.55824531250005,429.84591972656256 92.43037500000005,429.74133750000004 92.32475156250004,429.6147193359376 92.24491875000004,429.4695703125001 92.19442031250004,429.30939550781255 92.17680000000004,429.13770000000005 92.17680000000004,429.13770000000005 92.19441621093755,428.96600449218755 92.24490468750004,428.8058296875 92.32472519531254,428.6606806640625 92.43033750000004,428.53406250000006 92.55820136718755,428.42948027343755 92.70477656250006,428.3504390625001 92.86652285156255,428.30044394531257 93.03990000000005,428.2830000000001" fill="none" stroke="black" stroke-width="0.1"/>
                <polygon id="_86843816" points="93.4324,428.283 112.0,428.283 130.568,428.283 130.568,427.876 127.369,426.64 112.0,426.64 96.6313,426.64 93.4324,427.876" fill="none" stroke="black" stroke-width="0.1"/>
                <polygon id="_86843936" points="112.0,429.992 130.409,429.992 128.493,430.956 126.291,431.603 112.0,431.603 90.5151,431.603 90.5151,431.401 91.988,429.992" fill="none" stroke="black" stroke-width="0.1"/>
            </g>
            <g id="_tag_55_">
                <polygon id="_86843864_1" class="fil6 str0" points="142.152,680.51 142.25493437499998,680.5070501953124 142.35633124999998,680.4983078125 142.45603124999997,680.4839333984376 142.55387499999998,680.4640875 142.64970312499997,680.4389306640625 142.74335624999998,680.4086234375 142.83467499999998,680.3733263671875 142.9235,680.3332 142.9235,680.3332 145.11147480468748,679.1663042968751 147.0989734375,677.7099531250001 148.85786972656248,675.992250390625 150.36003749999998,674.0413000000001 151.5773505859375,671.885205859375 152.4816828125,669.552071875 153.04490800781252,667.070001953125 153.2389,664.4671000000001 153.2389,664.4671000000001 153.196258984375,663.2414533203125 153.07023437499998,662.0387765625001 152.863673828125,660.8619021484375 152.57942500000001,659.7136625 152.220335546875,658.5968900390626 151.789253125,657.5144171875 151.289025390625,656.4690763671877 150.7225,655.4637 129.73069999999998,619.8697 126.08849999999998,620.3659 126.09379999999999,626.2849 125.24149999999999,632.895 121.12369999999999,639.619 121.12369999999999,681.397 122.50544082031249,681.4070333984375 123.62008906249999,681.3963421875001 124.55543339843749,681.3709017578126 125.39926249999999,681.3366875000002 126.23936503906248,681.2996748046876 127.16352968749999,681.2658390625 128.25954511718749,681.2411556640625 129.6152,681.2316000000001 129.6152,681.2316000000001 129.97154824218748,681.1956658203126 130.30347343749997,681.0926078125001 130.60385878906249,680.9295427734376 130.8655875,680.7135875 131.0815427734375,680.4518587890625 131.2446078125,680.1514734375 131.3476658203125,679.8195482421875 131.3836,679.4632 131.3836,664.4849 131.3834,664.4671000000001 131.4748439453125,663.5602982421875 131.7371015625,662.7156421875001 132.15206152343748,661.9512431640626 132.7016125,661.2852125000001 133.3676431640625,660.7356615234376 134.1320421875,660.3207015625001 134.9766982421875,660.0584439453127 135.8835,659.9670000000001 135.8835,659.9670000000001 136.7903017578125,660.0584439453127 137.6349578125,660.3207015625001 138.39935683593748,660.7356615234377 139.06538749999999,661.2852125000001 139.61493847656251,661.9512431640626 140.0298984375,662.7156421875001 140.2921560546875,663.5602982421876 140.3836,664.4671000000001 140.3836,678.7416000000001 140.4195341796875,679.0979482421875 140.5225921875,679.4298734375001 140.6856572265625,679.7302587890626 140.9016125,679.9919875000002 141.16334121093752,680.2079427734375 141.46372656250003,680.3710078125001 141.79565175781252,680.4740658203125 142.15200000000002,680.5100000000001" fill="none" stroke="black" stroke-width="0.1"/>
                <polyline id="_86844056_1" class="fil2 str1" points="131.384,674.807 131.17899707031248,674.7152160156251 130.97615156249998,674.619515625 130.7755208984375,674.519938671875 130.5771625,674.416525 130.3811337890625,674.309314453125 130.18749218749997,674.1983468750001 129.9962951171875,674.0836621093752 129.80759999999998,673.9653000000001 129.80759999999998,673.9653000000001 128.68667421875,673.1452748046876 127.67649999999998,672.1964546875001 126.78900703124998,671.1307728515626 126.03612499999998,669.9601625 125.42978359374999,668.6965568359375 124.98191249999998,667.3518890625 124.70444140624998,665.9380923828126 124.60929999999998,664.4671000000001 124.60929999999998,664.4671000000001 124.83840468749997,662.1951833984375 125.49546874999997,660.0789609375001 126.53511718749996,658.1638111328126 127.91197499999997,656.4951125000001 129.58066718749998,655.1182435546875 131.49581874999996,654.0785828125 133.61205468749998,653.4215087890625 135.884,653.1924 135.884,653.1924 138.15594531249997,653.4215046875 140.27218125,654.07856875 142.1873328125,655.1182171875 143.856025,656.495075 145.23288281249998,658.1637671875 146.27253125,660.07891875 146.9295953125,662.1951546875 147.15869999999998,664.4671000000001 147.15869999999998,664.4671000000001 147.03111660156247,666.1682539062501 146.66078281249997,667.7898187500001 146.06632324218748,669.31319921875 145.26636249999996,670.7198000000001 144.2795251953125,671.9910257812501 143.12443593749998,673.1082812500001 141.8197193359375,674.05297109375 140.384,674.8065" fill="none" stroke="black" stroke-width="0.1"/>
                <polygon id="center_00" cx="135.884" cy="664.467" points="138.7728,664.467 138.75697485133986,664.7689618246876 138.7096727889998,665.0676152924343 138.63141206427343,665.3596882933504 138.52305011803793,665.6419808145174 138.38577418645247,665.9114 138.22108829335033,666.1649940368225 138.03079677183908,666.3999844956495 137.81698449564945,666.6137967718391 137.5819940368225,666.8040882933503 137.3284,666.9687741864525 137.05898081451735,667.106050118038 136.77668829335033,667.2144120642735 136.48461529243434,667.2926727889998 136.18596182468758,667.3399748513399 135.884,667.3557999999999 135.5820381753124,667.3399748513399 135.28338470756563,667.2926727889998 134.99131170664964,667.2144120642735 134.70901918548262,667.106050118038 134.43959999999998,666.9687741864525 134.18600596317748,666.8040882933503 133.95101550435052,666.6137967718391 133.7372032281609,666.3999844956495 133.54691170664964,666.1649940368225 133.3822258135475,665.9114 133.24494988196204,665.6419808145174 133.13658793572654,665.3596882933504 133.05832721100018,665.0676152924343 133.0110251486601,664.7689618246876 132.99519999999998,664.467 133.0110251486601,664.1650381753124 133.05832721100018,663.8663847075657 133.13658793572654,663.5743117066496 133.24494988196204,663.2920191854826 133.3822258135475,663.0226 133.54691170664964,662.7690059631775 133.7372032281609,662.5340155043505 133.95101550435052,662.3202032281608 134.18600596317748,662.1299117066496 134.43959999999998,661.9652258135475 134.70901918548262,661.827949881962 134.99131170664964,661.7195879357265 135.28338470756563,661.6413272110002 135.5820381753124,661.5940251486601 135.884,661.5782 136.18596182468758,661.5940251486601 136.4846152924343,661.6413272110002 136.77668829335033,661.7195879357265 137.05898081451735,661.827949881962 137.3284,661.9652258135475 137.5819940368225,662.1299117066496 137.81698449564945,662.3202032281608 138.03079677183908,662.5340155043505 138.22108829335033,662.7690059631775 138.38577418645247,663.0226 138.52305011803793,663.2920191854826 138.63141206427343,663.5743117066496 138.7096727889998,663.8663847075657 138.75697485133986,664.1650381753124" fill="none" stroke="black" stroke-width="0.1"/>
                <polyline id="_86844368_1" class="fil2 str0" points="124.008,642.137 124.909172265625,642.650276953125 125.857859375,643.1513031249999 126.853866796875,643.6405589843749 127.89699999999999,644.1185249999999 128.98706445312502,644.585681640625 130.123865625,645.042509375 131.30720898437502,645.4894886718749 132.5369,645.9271 132.5369,645.9271 133.67769101562502,646.3659888671875 135.041553125,646.9644296875 136.554594921875,647.6868337890625 138.142925,648.4976125000001 139.732651953125,649.3611771484375 141.249884375,650.2419390625 142.62073085937502,651.1043095703126 143.7713,651.9127" fill="none" stroke="black" stroke-width="0.1"/>
                <polyline id="_86843912_1" class="fil2 str0" points="131.384,677.723 131.25969999999998,677.1635 131.0613,676.7597 130.68009999999998,676.4983 130.4430169921875,676.3921494140625 130.20843593749998,676.2814765625 129.97642128906247,676.1663248046874 129.74703749999998,676.0467375000001 129.52034902343746,675.9227580078125 129.29642031249998,675.7944296874999 129.07531582031248,675.6617958984375 128.85709999999997,675.5249 128.85709999999997,675.5249 127.56080683593748,674.5766126953125 126.39259843749998,673.4793765625001 125.36626894531247,672.2469927734376 124.49561249999996,670.8932625 123.79442324218746,669.4319869140625 123.27649531249997,667.8769671875 122.95562285156248,666.2420044921874 122.84559999999998,664.5409 122.84559999999998,664.5409 123.11054355468748,661.9135835937499 123.87039218749997,659.4663187499999 125.07267285156249,657.25158203125 126.66491249999997,655.3218499999999 128.59463808593748,653.72959921875 130.80937656249998,652.5273062499999 133.25665488281248,651.7674476562499 135.884,651.5024999999999 135.884,651.5024999999999 138.5113451171875,651.7674435546875 140.9586234375,652.5272921874999 143.1733619140625,653.7295728515625 145.1030875,655.3218124999999 146.69532714843749,657.2515380859375 147.89760781249998,659.4662765625 148.65745644531248,661.9135548828125 148.92239999999998,664.5409 148.92239999999998,664.5409 148.774859765625,666.50818046875 148.346596875,668.3834125 147.65914804687498,670.14509453125 146.73404999999997,671.7717250000001 145.59283945312498,673.2418023437499 144.257053125,674.533825 142.748227734375,675.6262914062501 141.0879,676.4977 140.70669999999998,676.7591 140.5083,677.1629 140.384,677.7224" fill="none" stroke="black" stroke-width="0.1"/>
            </g>
        </g>
    </g>
</svg>
