<!DOCTYPE svg PUBLIC "-//W3C//DTD SVG 1.1//EN" "http://www.w3.org/Graphics/SVG/1.1/DTD/svg11.dtd">
<svg xmlns="http://www.w3.org/2000/svg" width="297mm" height="210mm" viewBox="0 0 297 210">
    <defs id="_tag_8_"/>
    <g id="Ebene_x0020_1">
        <circle cx="106.792" cy="102.917" r="14.322" fill="none" stroke="black" stroke-width="0.1" id="center_00"/>
        <g id="_284269560">
            <g id="_tag_344_">
                <polygon points="105.14,89.1123 106.34463203125,89.02026894531251 107.53275,89.0311390625 108.69966171875001,89.14121777343749 109.840675,89.3468125 110.95109765625,89.6442306640625 112.0262375,90.0297796875 113.06140234375,90.4997669921875 114.0519,91.0505 154.58010000000002,112.2499 157.83956679687503,114.05542890625 160.99679687500003,116.00734374999999 164.04624726562503,118.10084921875 166.98237500000002,120.33115 169.79963710937503,122.69345078125 172.49249062500002,125.18295624999999 175.05539257812507,127.79487109375 177.48280000000003,130.52439999999999 177.91610625000004,131.0421673828125 178.35087500000003,131.57297656249997 178.78706875000003,132.11680058593748 179.22465000000003,132.6736125 179.66358125000005,133.2433853515625 180.10382500000003,133.82609218750002 180.54534375000006,134.4217060546875 180.98810000000003,135.03019999999998 183.462937890625,138.69135820312496 185.71154062500003,142.49939687499997 187.72432929687503,146.44604960937497 189.49172500000003,150.52304999999998 191.00414882812504,154.72213164062498 192.25202187500003,159.03502812499997 193.22576523437502,163.453473046875 193.91580000000002,167.96919999999997 194.47051796875002,175.30594296875 194.22753750000004,182.52431875 193.27306953125003,189.57813515625 191.63912500000004,196.42669999999998 189.35771484375005,203.02932109375 186.46085000000002,209.34530625 182.98054140625004,215.33396328125 178.94880000000003,220.9546 178.09690703125003,222.0099296875 177.22806875000003,223.04676250000003 176.34253359375003,224.0647890625 175.44055000000003,225.06369999999998 174.52236640625003,226.0431859375 173.58823125000004,227.0029375 172.63839296875003,227.94264531250002 171.67310000000003,228.862 168.05763222656256,232.0200291015625 164.22609531250004,234.9370890625 160.18912636718753,237.5996763671875 155.95736250000004,239.9942875 151.54144082031252,242.1074189453125 146.95199843750004,243.92556718749998 142.19967246093756,245.43522871093748 137.29510000000005,246.6229 131.28450000000004,247.6019 58.00100000000005,256.7065 57.568431250000046,256.71720917968753 57.00301250000005,256.4911978515625 56.73234375000005,256.0546474609375 56.63057500000005,255.55079863281253 53.584600000000044,230.8602 53.541248437500045,230.18187187499998 53.66588750000004,229.66215 54.060207812500046,229.301203125 54.82590000000005,229.0992 122.17420000000004,220.7283 127.98070000000004,219.952 131.53209648437505,219.4359255859375 134.96512812500006,218.5935109375 138.27698320312504,217.49133144531248 141.45775000000006,216.1419625 144.49751679687503,214.55797949218748 147.38637187500004,212.7519578125 150.11440351562504,210.7364728515625 152.67170000000004,208.5241 153.27753476562503,207.947638671875 153.86989062500004,207.363103125 154.44861992187504,206.770678515625 155.01357500000003,206.17055 155.56460820312503,205.562902734375 156.10157187500005,204.947921875 156.62431835937505,204.325792578125 157.13270000000006,203.6967 159.58926191406255,200.26961113281249 161.70929531250005,196.6141015625 163.47329667968756,192.7549693359375 164.86176250000005,188.7170125 165.85518925781255,184.5250291015625 166.43407343750005,180.2038171875 166.57891152343754,175.77817480468747 166.27020000000005,171.2729 165.90748789062505,168.5463958984375 165.31742187500004,165.88209843750002 164.55974492187505,163.2775923828125 163.64030000000005,160.73796249999998 162.56493007812506,158.26829355468752 161.33947812500006,155.8736703125 159.96978710937506,153.55917753906252 158.46170000000004,151.3299 158.22260664062503,151.0023810546875 157.97305312500004,150.6685234375 157.71307929687504,150.3283634765625 157.44272500000005,149.98193750000002 157.16203007812504,149.62928183593752 156.87103437500005,149.27043281250002 156.56977773437507,148.9054267578125 156.25830000000005,148.5343 154.71909433593754,146.8036576171875 153.09362343750004,145.14738593750002 151.38540644531255,143.5685306640625 149.59796250000005,142.0701375 147.73481074218756,140.6552521484375 145.79947031250003,139.3269203125 143.79546035156253,138.0881876953125 141.72630000000004,136.9421 101.15340000000003,115.7193 99.57646855468754,114.89618242187501 98.12058593750004,113.883228125 96.80391972656253,112.694684765625 95.64463750000004,111.3448 94.66090683593754,109.847821484375 93.87089531250004,108.21799687500001 93.29277050781253,106.46957382812501 92.94470000000004,104.61680000000001 92.89270976562504,101.79233652343751 93.38929062500003,99.09632343750002 94.38535742187504,96.59116425781251 95.83182500000004,94.3392625 97.67960820312504,92.4030216796875 99.87962187500005,90.8448453125 102.38278085937505,89.7271369140625 105.14000000000004,89.1123" fill="none" stroke="black" stroke-width="0.1" id="_284322704"/>
            </g>
        </g>
    </g>
</svg>
