<?xml version="1.0" encoding="UTF-8" standalone="no"?>
<!-- Created with Inkscape (http://www.inkscape.org/) -->

<svg
   xmlns:dc="http://purl.org/dc/elements/1.1/"
   xmlns:cc="http://creativecommons.org/ns#"
   xmlns:rdf="http://www.w3.org/1999/02/22-rdf-syntax-ns#"
   xmlns:svg="http://www.w3.org/2000/svg"
   xmlns="http://www.w3.org/2000/svg"
   version="1.1"
   width="297mm"
   height="210mm"
   viewBox="0 0 297 210"
   id="svg2">
  <metadata
     id="metadata67">
    <rdf:RDF>
      <cc:Work
         rdf:about="">
        <dc:format>image/svg+xml</dc:format>
        <dc:type
           rdf:resource="http://purl.org/dc/dcmitype/StillImage" />
        <dc:title></dc:title>
      </cc:Work>
    </rdf:RDF>
  </metadata>
  <defs
     id="_tag_49_" />
  <polygon
     points="-26.327,333.55 -25.256,332.418 -24.549,330.983 -24.185,329.408 -24.266,327.852 -24.69,326.357 -28.8443,316.853 -42.086,334.539 -30.752,335.125 -29.176,334.984 -27.681,334.398 "
     id="_190784808___1"
     style="fill:none;stroke:#000000;stroke-width:0.1" />
  <polygon
     points="196.909,6.3222 195.758,5.2514 194.404,4.4028 192.909,3.8977 191.353,3.6755 189.777,3.8977 188.282,4.4028 186.928,5.2514 185.777,6.3222 -95.8901,382.868 -98.1126,386.222 -100.113,389.717 -101.749,393.354 -103.022,397.132 -103.952,401.052 -104.598,404.971 -104.881,408.952 -104.8,412.952 -104.376,416.952 -103.527,420.872 -102.457,424.711 -100.961,428.408 -99.1834,432.045 -97.0418,435.48 -94.6779,438.672 -91.97,441.601 -89.061,444.39 -85.929,446.814 -82.576,449.017 -78.999,450.875 -75.302,452.431 -71.524,453.643 -67.604,454.573 -63.604,455.078 -59.624,455.28 -14.993,455.28 -14.993,441.096 -59.624,441.096 -63.119,440.894 -66.533,440.329 -69.887,439.399 -73.16,438.046 -76.151,436.328 -78.999,434.328 -81.646,431.984 -83.929,429.418 -85.99,426.57 -87.627,423.499 -88.98,420.286 -89.991,416.952 -90.556,413.457 -90.758,410.022 -90.617,407.537 -90.334,405.032 -89.849,402.547 -89.122,400.183 -88.273,397.839 -87.202,395.556 -85.99,393.414 -84.576,391.354 197.103,14.8102 197.677,13.7978 198.263,12.3027 198.404,10.7469 198.263,9.171 197.677,7.6759 "
     id="_190774008"
     style="fill:none;stroke:#000000;stroke-width:0.1" />
  <polygon
     points="75.0167,170.683 75.0167,173.108 74.9567,173.815 74.5927,175.108 73.8857,176.239 72.8757,177.169 71.6627,177.815 70.3097,178.098 68.9557,177.957 67.6827,177.533 67.1777,177.25 -174.02,177.25 -174.02,177.25 -174.02,167.188 67.977,167.188 "
     id="_190779144___0___0"
     style="fill:none;stroke:#000000;stroke-width:0.1" />
  <g
     id="_190777896___0___0_1">
    <polyline
       style="fill:none;stroke:#000000;stroke-width:0.1"
       points="64.895,171.33 65.036,172.32000000000002 65.319,173.33 65.764,174.239 66.39,175.108 67.178,175.89600000000002 68.027,176.46200000000002 68.956,176.94700000000003 69.96600000000001,177.16900000000004"
       class="fil0 str0"
       id="_190777896___0___0___0" />
    <polygon
       points="64.895,171.33 "
       id="_190777896___0___0___1"
       style="fill:none;stroke:#000000;stroke-width:0.1" />
  </g>
  <line
     style="stroke:#000000;stroke-width:0.1"
     y2="177.25"
     x2="69.097"
     y1="177.25"
     x1="67.237999"
     id="_190779144___0_0" />
  <polygon
     points="66.531,174.967 67.683,175.755 68.956,176.179 70.31,176.32 71.663,176.037 72.876,175.391 73.886,174.462 74.593,173.33 74.957,172.037 74.957,170.683 74.593,169.33 73.886,168.198 72.876,167.269 71.663,166.622 70.31,166.339 68.956,166.481 67.683,166.905 66.531,167.693 65.683,168.764 65.117,169.976 64.895,171.33 65.117,172.684 65.683,173.896 "
     id="_190779360"
     style="fill:none;stroke:#000000;stroke-width:0.1" />
  <polygon
     points="-29.257,326.498 -30.186,326.215 -31.176,326.276 -32.045,326.7 -32.671,327.428 -33.035,328.337 -33.035,329.266 -32.671,330.196 -32.045,330.903 -31.176,331.347 -30.186,331.408 -29.257,331.206 -28.469,330.62 -27.964,329.771 -27.822,328.842 -27.964,327.852 -28.469,327.064 "
     id="_190783488"
     style="fill:none;stroke:#000000;stroke-width:0.1" />
  <polygon
     points="-53.785,306.112 -55.199,306.456 -56.492,307.244 -57.482,308.314 -58.189,309.608 -58.553,311.022 -58.553,312.517 -58.128,313.951 -58.037104,314.10261 -57.946217,314.25423 -57.855337,314.40584 -57.764462,314.55746 -57.673593,314.70909 -57.582727,314.86072 -57.491863,315.01235 -57.401,315.164 -56.351,316.235 -49.7131,321.1364 -42.935,312.093 -49.562,307.183 -49.562,307.183 -50.855,306.456 -52.269,306.112 "
     id="_190784232___0___0_1"
     style="fill:none;stroke:#000000;stroke-width:0.1" />
  <polygon
     points="-49.562,307.183 -49.562,307.183 "
     id="_190784232___0___2"
     style="fill:none;stroke:#000000;stroke-width:0.1" />
  <polygon
     points="-30.752,335.125 -30.752,335.125 "
     id="_190784808___2"
     style="fill:none;stroke:#000000;stroke-width:0.1" />
  <g
     id="_190784760___0___0_1">
    <polyline
       style="fill:none;stroke:#000000;stroke-width:0.1"
       points="69.825,178.947 68.754,179.028 67.4,178.80499999999998 66.188,178.159 65.319,177.31 65.319,177.25"
       class="fil0 str0"
       id="_190784760___0___0___0" />
    <polygon
       points="69.825,178.947 "
       id="_190784760___0___0___1"
       style="fill:none;stroke:#000000;stroke-width:0.1" />
  </g>
  <g
     id="_190785720___0___0_1">
    <polyline
       style="fill:none;stroke:#000000;stroke-width:0.1"
       points="73.522,176.603 73.158,177.02800000000002 72.168,177.95700000000002 70.31,178.80500000000004 69.825,178.94700000000003"
       class="fil0 str0"
       id="_190785720___0___0___0" />
    <polygon
       points="73.522,176.603 "
       id="_190785720___0___0___1"
       style="fill:none;stroke:#000000;stroke-width:0.1" />
  </g>
  <polygon
     points="73.32,174.179 73.946,173.108 74.31,171.976 74.31,170.683 73.946,169.552 73.32,168.481 72.391,167.693 71.239,167.188 69.966,166.986 68.754,167.188 67.602,167.693 66.673,168.481 65.966,169.552 65.622,170.683 65.622,171.976 65.966,173.108 66.673,174.179 67.602,174.967 68.754,175.452 69.966,175.674 71.239,175.452 72.391,174.967 "
     id="_190779240"
     style="fill:none;stroke:#000000;stroke-width:0.1" />
  <polygon
     points="67.602,170.4 67.966,172.886 70.31,173.815 72.31,172.259 71.946,169.754 69.603,168.825 "
     id="_190778424"
     style="fill:none;stroke:#000000;stroke-width:0.1" />
  <g
     id="_190780896___0___0_1">
    <polyline
       style="fill:none;stroke:#000000;stroke-width:0.1"
       points="-174.02,161.349 -174.02,171.32999999999998 -172.44410000000002,171.32999999999998 -172.44410000000002,161.349"
       class="fil0 str0"
       id="_190780896___0___0___0" />
    <polygon
       points="-174.02,161.349 "
       id="_190780896___0___0___1"
       style="fill:none;stroke:#000000;stroke-width:0.1" />
  </g>
  <g
     id="_190780896___0___1_1">
    <polyline
       style="fill:none;stroke:#000000;stroke-width:0.1"
       points="-172.444,161.349 -174.01989999999998,161.349"
       class="fil0 str0"
       id="_190780896___0___1___0" />
    <polygon
       points="-172.444,161.349 "
       id="_190780896___0___1___1"
       style="fill:none;stroke:#000000;stroke-width:0.1" />
  </g>
  <polygon
     points="-172.444,161.349 -172.444,161.349 "
     id="_190780896___0___2"
     style="fill:none;stroke:#000000;stroke-width:0.1" />
  <g
     id="_190780224___0___0_1">
    <polygon
       points="-98.3146,185.291 -98.7591,186.16 -99.3855,186.928 -100.1734,187.574 -101.022,187.998 -101.9514,188.281 -102.9616,188.423 -120.7817,188.423 -121.7717,188.281 -122.7011,187.998 -123.5497,187.574 -124.3376,186.928 -124.9842,186.16 -125.4085,185.291 -125.6913,184.362 -125.8328,183.372 -125.8328,177.25 -97.8904,177.25 -97.8904,177.25 -97.8904,183.372 -98.0318,184.362 "
       id="_190780224___0___0___0"
       style="fill:none;stroke:#000000;stroke-width:0.1" />
  </g>
  <polygon
     points="-109.508,182.382 -109.225,183.291 -109.366,184.301 -109.791,185.15 -110.518,185.796 -111.367,186.16 -112.357,186.16 -113.225,185.796 -113.933,185.15 -114.357,184.301 -114.498,183.291 -114.215,182.382 -113.65,181.594 -112.801,181.089 -111.872,180.947 -110.942,181.089 -110.074,181.594 "
     id="_190780824"
     style="fill:none;stroke:#000000;stroke-width:0.1" />
  <polygon
     points="-117.771,182.382 -117.569,183.291 -117.63,184.301 -118.074,185.15 -118.782,185.796 -119.63,186.16 -120.64,186.16 -121.55,185.796 -122.277,185.15 -122.701,184.301 -122.762,183.291 -122.479,182.382 -121.913,181.594 -121.125,181.089 -120.135,180.947 -119.206,181.089 -118.357,181.594 "
     id="_190780680"
     style="fill:none;stroke:#000000;stroke-width:0.1" />
  <g
     id="_190781040___0___0_1">
    <polygon
       points="-101.2443,182.382 -100.9615,183.291 -101.0221,184.301 -101.4666,185.15 -102.1737,185.796 -103.1031,186.16 -104.0931,186.16 -104.9417,185.796 -105.6691,185.15 -106.0934,184.301 -106.154,183.291 -105.9519,182.382 -105.3862,181.594 -104.5174,181.089 -103.588,180.947 -102.598,181.089 -101.8101,181.594 -101.2443,182.382 -100.9615,183.291 -100.9615,183.594 -103.588,180.947 -102.598,181.089 -101.8101,181.594 "
       id="_190781040___0___0___0"
       style="fill:none;stroke:#000000;stroke-width:0.1" />
    <polygon
       points="-103.588,180.947 "
       id="_190781040___0___0___1"
       style="fill:none;stroke:#000000;stroke-width:0.1" />
  </g>
  <g
     id="_190780920___0___0_1">
    <polyline
       style="fill:none;stroke:#000000;stroke-width:0.1"
       points="-106.235,183.594 -106.1542,183.291 -105.9521,182.382 -105.3864,181.594 -104.5176,181.089 -103.5882,180.947"
       class="fil0 str0"
       id="_190780920___0___0___0" />
    <polygon
       points="-106.235,183.594 "
       id="_190780920___0___0___1"
       style="fill:none;stroke:#000000;stroke-width:0.1" />
  </g>
  <g
     id="_190781064___0___0_1">
    <polyline
       style="fill:none;stroke:#000000;stroke-width:0.1"
       points="-111.872,180.947 -110.9426,181.089 -110.0738,181.594 -109.5081,182.382 -109.2252,183.291 -109.2252,183.594"
       class="fil0 str0"
       id="_190781064___0___0___0" />
    <polygon
       points="-111.872,180.947 "
       id="_190781064___0___0___1"
       style="fill:none;stroke:#000000;stroke-width:0.1" />
  </g>
  <g
     id="_190781376___0___0_1">
    <polyline
       style="fill:none;stroke:#000000;stroke-width:0.1"
       points="-114.498,183.594 -114.498,183.291 -114.2151,182.382 -113.6494,181.594 -112.8009,181.089 -111.8715,180.947"
       class="fil0 str0"
       id="_190781376___0___0___0" />
    <polygon
       points="-114.498,183.594 "
       id="_190781376___0___0___1"
       style="fill:none;stroke:#000000;stroke-width:0.1" />
  </g>
  <g
     id="_190781640___0___0_1">
    <polyline
       style="fill:none;stroke:#000000;stroke-width:0.1"
       points="-120.135,180.947 -119.2056,181.089 -118.357,181.594 -117.7711,182.382 -117.569,183.291 -117.4882,183.594"
       class="fil0 str0"
       id="_190781640___0___0___0" />
    <polygon
       points="-120.135,180.947 "
       id="_190781640___0___0___1"
       style="fill:none;stroke:#000000;stroke-width:0.1" />
  </g>
  <g
     id="_190781856___0___0_1">
    <polyline
       style="fill:none;stroke:#000000;stroke-width:0.1"
       points="-122.762,183.594 -122.762,183.291 -122.4792,182.382 -121.91340000000001,181.594 -121.12550000000002,181.089 -120.13550000000002,180.947"
       class="fil0 str0"
       id="_190781856___0___0___0" />
    <polygon
       points="-122.762,183.594 "
       id="_190781856___0___0___1"
       style="fill:none;stroke:#000000;stroke-width:0.1" />
  </g>
  <g
     id="_190781928___0___0_1">
    <polyline
       style="fill:none;stroke:#000000;stroke-width:0.1"
       points="-97.8904,183.372 -98.0318,184.36200000000002 -98.3146,185.29100000000003 -98.7591,186.16000000000003 -99.38550000000001,186.92800000000003 -100.1734,187.574 -101.022,187.99800000000002 -101.9514,188.281 -102.9616,188.423"
       class="fil0 str0"
       id="_190781928___0___0___0" />
    <polygon
       points="-97.8904,183.372 "
       id="_190781928___0___0___1"
       style="fill:none;stroke:#000000;stroke-width:0.1" />
  </g>
  <g
     id="_190782312___0___0_1">
    <polyline
       style="fill:none;stroke:#000000;stroke-width:0.1"
       points="-120.782,188.423 -121.77199999999999,188.281 -122.70139999999999,187.99800000000002 -123.55,187.574 -124.33789999999999,186.92800000000003 -124.9845,186.16000000000003 -125.4088,185.29100000000003 -125.6916,184.36200000000002 -125.83309999999999,183.372"
       class="fil0 str0"
       id="_190782312___0___0___0" />
    <polygon
       points="-120.782,188.423 "
       id="_190782312___0___0___1"
       style="fill:none;stroke:#000000;stroke-width:0.1" />
  </g>
  <line
     style="stroke:#000000;stroke-width:0.1"
     y2="188.423"
     x2="-120.782"
     y1="188.423"
     x1="-102.962"
     id="_190782480" />
  <polygon
     points="-51.784,309.325 -52.714,309.102 -53.704,309.183 -54.552,309.608 -55.199,310.315 -55.563,311.244 -55.563,312.173 -55.199,313.103 -54.552,313.81 -53.704,314.234 -52.714,314.315 -51.784,314.012 -50.996,313.446 -50.491,312.658 -50.35,311.668 -50.491,310.739 -50.996,309.89 "
     id="_190783656"
     style="fill:none;stroke:#000000;stroke-width:0.1" />
  <circle
     cx="-30.428499"
     cy="328.81201"
     r="5"
     id="center_00" />
</svg>
