<!DOCTYPE svg PUBLIC "-//W3C//DTD SVG 1.1//EN" "http://www.w3.org/Graphics/SVG/1.1/DTD/svg11.dtd">
<svg xmlns="http://www.w3.org/2000/svg" width="297mm" height="210mm" viewBox="0 0 297 210">
    <defs id="_tag_645_"/>
    <g id="Ebene_x0020_1">
        <polygon points="151.223,277.878 152.67734941406252,278.052190234375 154.14140781250003,278.10596562499995 155.6030029296875,278.02890820312496 157.0499625,277.81059999999997 158.4701142578125,277.440623046875 159.8512859375,276.908559375 161.18130527343752,276.2039910156249 162.448,275.31649999999996 162.448,275.31649999999996 164.061876171875,273.79152792968745 165.365746875,272.06546093749995 166.353862890625,270.18101035156246 167.02047499999998,268.1808875 167.35983398437503,266.10780371093745 167.366190625,264.00447031249996 167.033795703125,261.91359863281247 166.3569,259.87789999999995 166.3569,259.87789999999995 165.8129982421875,258.4882380859375 165.01382343749998,256.29135468749996 164.0568462890625,253.46305332031244 163.0395375,250.17913749999994 162.0593677734375,246.61541074218746 161.21380781249997,242.94767656249996 160.60032832031249,239.35173847656245 160.3164,236.00339999999994 160.3164,236.00339999999994 160.3011302734375,235.41184960937494 160.27717343749998,234.87864687499993 160.23422050781247,234.40858945312493 160.1619625,234.00647499999997 160.0500904296875,233.67710117187494 159.88829531249996,233.42526562499995 159.66626816406247,233.25576601562494 159.37369999999999,233.17339999999993 159.37369999999999,233.17339999999993 159.14975371093746,233.13635019531242 158.9489109375,233.06116406249993 158.7749908203125,232.94564902343743 158.6318125,232.7876124999999 158.52319511718747,232.58486191406243 158.4529578125,232.33520468749992 158.4249197265625,232.03644824218742 158.44289999999998,231.68639999999994 158.4877,227.66619999999995 158.44643164062498,227.17023476562497 158.329678125,226.74822187499996 158.144866796875,226.39766054687496 157.89942499999998,226.11604999999994 157.60078007812498,225.90088945312496 157.256359375,225.74967812499995 156.87359023437497,225.65991523437492 156.45989999999998,225.62909999999994 151.8019,225.28899999999993 151.40042519531247,225.27958554687496 151.01528281249998,225.34109062499994 150.65578339843748,225.4712253906249 150.3312375,225.6676999999999 150.05095566406249,225.92822460937492 149.8242484375,226.25050937499995 149.66042636718748,226.63226445312492 149.56879999999998,227.07119999999992 149.4295,231.75179999999992 149.40003105468747,231.98790488281242 149.36201093749997,232.21113906249994 149.30979472656247,232.41658183593742 149.23773749999998,232.59931249999994 149.1401943359375,232.7544103515624 149.01152031249998,232.8769546874999 148.8460705078125,232.96202480468742 148.63819999999998,233.00469999999993 148.63819999999998,233.00469999999993 148.3179771484375,233.05322988281245 148.05855468749996,233.15432656249993 147.8526142578125,233.30526308593744 147.6928375,233.50331249999994 147.5719060546875,233.74574785156244 147.48250156249998,234.02984218749992 147.4173056640625,234.35286855468743 147.36899999999997,234.71209999999994 147.20309999999998,239.26769999999993 147.1922341796875,240.02414863281243 147.16998593749997,241.58218906249994 147.07549160156248,243.75821308593746 146.84788749999996,246.36861249999993 146.4263099609375,249.22977910156243 145.7498953125,252.15810468749993 144.75777988281246,254.96998105468742 143.38909999999998,257.4817999999999 143.38909999999998,257.4817999999999 142.8196181640625,258.36915683593736 142.3281140625,259.2898171874999 141.91479980468748,260.23975332031245 141.57988749999998,261.2149374999999 141.32358925781247,262.21134199218744 141.14611718749998,263.2249390624999 141.04768339843747,264.2517009765624 141.02849999999998,265.2875999999999 141.02849999999998,265.2875999999999 141.13193945312497,266.1507447265624 141.382034375,266.8068953124999 141.75032460937499,267.2676263671874 142.20835,267.5445124999999 142.72765039062497,267.6491283203124 143.27976562499998,267.5930484374999 143.83623554687497,267.3878474609374 144.3686,267.0450999999999 151.38049999999998,261.44889999999987 152.15469921874995,260.9488308593749 152.98653124999998,260.6229468749999 153.85058515625,260.4683957031249 154.72145,260.48232499999983 155.57371484374997,260.66188242187485 156.38196874999997,261.0042156249999 157.12080078125,261.5064722656249 157.76479999999998,262.1657999999999 157.76479999999998,262.1657999999999 158.27077734374998,262.9473929687499 158.60109999999997,263.78478124999987 158.75882890624996,264.6528164062499 158.74702499999998,265.52634999999987 158.56874921874996,266.38023359374984 158.2270625,267.18931874999987 157.72502578125,267.9284570312499 157.0657,268.5724999999999 149.8752,274.3111999999999 149.570330078125,274.65805878906235 149.35699062499998,275.1212015624999 149.257037109375,275.6566279296874 149.292325,276.2203374999999 149.484709765625,276.76832988281234 149.856046875,277.2566046874999 150.428191796875,277.6411615234374 151.223,277.8779999999999" fill="none" stroke="black" stroke-width="0.1" id="_new_634_1"/>
        <polygon points="151.372,273.118 150.75832109375,273.7360798828125 150.48682500000004,274.3025328125 150.50016015625002,274.8104412109375 150.74097500000002,275.2528875 151.15191796875,275.62295410156247 151.6756375,275.91372343750004 152.25478203125002,276.11827792968745 152.83200000000002,276.2297 152.83200000000002,276.2297 153.89218984375003,276.29728515625 154.9590875,276.26270624999995 156.02422265625003,276.12501171875 157.079125,275.88325 158.11532421875003,275.53646953125 159.12435000000002,275.08371875 160.09773203125005,274.52404609375 161.02700000000002,273.8565 161.02700000000002,273.8565 162.6455197265625,272.274510546875 163.8787328125,270.45770312499997 164.7195576171875,268.469131640625 165.1609125,266.37185 165.1957158203125,264.228912109375 164.81688593750002,262.103371875 164.01734121093753,260.05828320312503 162.79000000000002,258.1567 162.79000000000002,258.1567 161.21385292968753,256.545541015625 159.40143593750005,255.31785937500004 157.41601035156253,254.480998046875 155.32083750000004,254.04229999999998 153.17917871093752,254.009108203125 151.05429531250002,254.388765625 149.00944863281254,255.188615234375 147.10790000000003,256.416 147.10790000000003,256.416 146.25089316406252,257.17409023437506 145.48928281250002,257.999115625 144.82402167968755,258.88260820312496 144.25606250000004,259.8161 143.78635800781254,260.79112304687504 143.41586093750004,261.799209375 143.14552402343753,262.83189101562505 142.97630000000004,263.8807 142.97630000000004,263.8807 142.95694765625004,264.46822636718747 143.02797500000003,265.07829843749994 143.19535859375006,265.65345566406245 143.46507500000004,266.1362375 143.84310078125003,266.4691833984375 144.33541250000007,266.5948328125 144.94798671875003,266.4557251953125 145.68680000000003,265.9944 151.22490000000005,261.5745 152.00005742187503,261.073633203125 152.83441562500005,260.74570937500005 153.70204101562504,260.58829335937503 154.57700000000006,260.59894999999995 155.43335898437505,260.775244140625 156.24518437500006,261.11474062499997 156.98654257812507,261.615004296875 157.63150000000005,262.2736 157.63150000000005,262.2736 158.13651914062504,263.055925 158.46431562500004,263.89530625 158.61847304687504,264.766178125 158.60257500000006,265.642975 158.42020507812504,266.50013125 158.07494687500002,267.31208125 157.57038398437507,268.053259375 156.91010000000006,268.6981 151.37200000000007,273.118" fill="none" stroke="black" stroke-width="0.1" id="_new_635_1"/>
        <polygon points="147.066,254.771 146.8538,254.482 147.5997,253.9341 148.1012,254.6169 148.091523828125,254.66397207031247 148.078240625,254.7124890625 148.06134335937503,254.7624521484375 148.040825,254.8138625 148.01667851562502,254.8667212890625 147.98889687500002,254.92102968749998 147.957473046875,254.97678886718748 147.9224,255.034 147.9224,255.034 147.884398828125,255.09067617187497 147.844421875,255.144978125 147.80247148437502,255.196903515625 147.75855,255.24644999999998 147.712659765625,255.29361523437498 147.66480312500005,255.338396875 147.614982421875,255.380792578125 147.56320000000002,255.42079999999999 147.56320000000002,255.42079999999999 147.49574257812503,255.4676087890625 147.42784687500003,255.50933281249996 147.359515234375,255.54596855468748 147.29075,255.57751249999998 147.22155351562503,255.6039611328125 147.151928125,255.6253109375 147.08187617187505,255.6415583984375 147.01140000000004,255.65269999999998 147.01140000000004,255.65269999999998 146.94109101562503,255.65849707031248 146.87168437500003,255.6590078125 146.80317304687503,255.65422402343748 146.73555000000002,255.6441375 146.66880820312502,255.62874003906248 146.60294062500003,255.60802343749998 146.53794023437501,255.5819794921875 146.47380000000004,255.55059999999997 146.47380000000004,255.55059999999997 146.41124042968752,255.5148294921875 146.3509859375,255.47561718749995 146.29303535156254,255.43296191406247 146.23738750000004,255.38686249999995 146.18404121093752,255.33731777343746 146.13299531250004,255.28432656249998 146.08424863281255,255.22788769531246 146.03780000000003,255.16799999999998 146.03780000000003,255.16799999999998 145.99110742187503,255.1006892578125 145.94927812500003,255.03263906249998 145.91230976562503,254.96385996093747 145.8802,254.89436249999994 145.85294648437502,254.82415722656248 145.83054687500004,254.75325468749995 145.81299882812502,254.68166542968748 145.80030000000002,254.60939999999997 145.80030000000002,254.60939999999997 145.79303222656253,254.53714335937497 145.79118906250002,254.46550312499997 145.7947857421875,254.39448632812494 145.80383750000004,254.32409999999996 145.81835957031254,254.25435117187496 145.8383671875,254.18524687499996 145.86387558593754,254.116794140625 145.89490000000004,254.04899999999998 145.89490000000004,254.04899999999998 145.92261640625003,253.99774199218749 145.95483750000005,253.94731718749998 145.99155859375003,253.89772441406248 146.03277500000002,253.84896249999997 146.07848203125005,253.8010302734375 146.12867500000004,253.7539265625 146.18334921875004,253.7076501953125 146.24250000000004,253.66219999999998 146.24250000000004,253.66219999999998 146.32165253906254,253.607305859375 146.39950781250002,253.55977812499998 146.47606230468753,253.519623828125 146.55131250000002,253.48684999999998 146.62525488281253,253.46146367187498 146.69788593750002,253.443471875 146.76920214843753,253.432881640625 146.83920000000003,253.4297 146.83920000000003,253.4297 146.90782968750003,253.43332382812503 146.97481875000005,253.443071875 147.04016718750003,253.458946484375 147.10387500000004,253.48094999999998 147.16594218750004,253.509084765625 147.22636875,253.54335312499998 147.2851546875,253.583757421875 147.34230000000002,253.6303 147.0458,253.947 147.01306230468754,253.923685546875 146.9795734375,253.90347187499998 146.94533222656253,253.886366015625 146.91033750000003,253.87237499999998 146.87458808593752,253.86150585937497 146.83808281250003,253.853765625 146.80082050781255,253.849161328125 146.76280000000003,253.8477 146.76280000000003,253.8477 146.72444082031254,253.849539453125 146.68623281250004,253.85476562500003 146.64816777343754,253.863390234375 146.61023750000004,253.875425 146.57243378906253,253.89088164062503 146.5347484375,253.90977187500002 146.49717324218753,253.932107421875 146.45970000000003,253.9579 146.45970000000003,253.9579 146.40606953125004,254.000739453125 146.35865,254.045934375 146.31743671875003,254.093487109375 146.28242500000005,254.14339999999999 146.25361015625003,254.19567539062498 146.23098750000003,254.25031562499998 146.21455234375,254.307323046875 146.20430000000002,254.3667 146.20430000000002,254.3667 146.201009375,254.42794472656252 146.20508750000005,254.4904140625 146.21653437500004,254.5541232421875 146.23535,254.6190875 146.26153437500002,254.6853220703125 146.29508750000002,254.75284218750002 146.33600937500003,254.8216630859375 146.38430000000002,254.89180000000002 146.38430000000002,254.89180000000002 146.44066679687504,254.964083984375 146.49779062500005,255.02852812500004 146.55566914062504,255.08512070312503 146.61430000000004,255.13385 146.67368085937505,255.17470429687503 146.73380937500002,255.20767187500002 146.794683203125,255.23274101562504 146.85630000000003,255.24990000000003 146.85630000000003,255.24990000000003 146.917743359375,255.2598478515625 146.978321875,255.26307031250002 147.03803320312502,255.25957324218754 147.096875,255.24936250000005 147.15484492187502,255.23244394531253 147.21194062500004,255.20882343750003 147.26815976562503,255.17850683593753 147.32350000000002,255.14150000000004 147.32350000000002,255.14150000000004 147.35026679687502,255.12077597656253 147.37604687500001,255.09872656250005 147.40084726562503,255.07534824218752 147.424675,255.05063750000005 147.44753710937502,255.0245908203125 147.46944062500006,254.99720468750002 147.49039257812504,254.96847558593754 147.51040000000003,254.93840000000003 147.51040000000003,254.93840000000003 147.52917363281253,254.90784023437504 147.54657031250002,254.87737187500002 147.5625912109375,254.84701132812503 147.57723750000002,254.81677500000004 147.59051035156253,254.78667929687504 147.60241093750005,254.75674062500002 147.61294042968754,254.726975390625 147.62210000000005,254.69740000000002 147.46230000000006,254.47990000000001 147.06600000000006,254.77100000000002" fill="none" stroke="black" stroke-width="0.1" id="_new_636_1"/>
        <polygon points="148.64190000000005,254.70860000000002 148.45500000000004,254.34650000000002 148.81730000000005,254.1596 149.00420000000005,254.5217 148.64190000000005,254.70860000000002" fill="none" stroke="black" stroke-width="0.1" id="_new_636_2"/>
        <polygon points="149.36460000000005,254.35010000000003 148.59210000000004,252.36840000000004 149.23380000000003,252.11830000000003 149.32122109375,252.08476542968754 149.40108125,252.05526093750004 149.47337578125004,252.02978535156254 149.53810000000004,252.00833750000004 149.59524921875004,251.99091621093754 149.64481875000004,251.97752031250002 149.68680390625005,251.96814863281253 149.72120000000004,251.96280000000004 149.72120000000004,251.96280000000004 149.76790039062504,251.95926152343753 149.81417187500003,251.95967343750004 149.86000742187503,251.96403925781254 149.90540000000004,251.97236250000003 149.95034257812506,251.98464667968756 149.99482812500005,252.00089531250003 150.03884960937503,252.02111191406254 150.08240000000004,252.04530000000005 150.08240000000004,252.04530000000005 150.12441367187503,252.07356113281256 150.16390312500005,252.10592031250005 150.20086601562502,252.14237871093755 150.23530000000002,252.18293750000007 150.26720273437505,252.22759785156256 150.296571875,252.27636093750007 150.32340507812503,252.32922792968756 150.34770000000003,252.38620000000006 150.34770000000003,252.38620000000006 150.36405390625004,252.43133964843756 150.37763750000002,252.47547968750007 150.38844609375005,252.51861425781254 150.396475,252.56073750000004 150.40171953125002,252.60184355468755 150.40417500000004,252.64192656250006 150.40383671875003,252.68098066406256 150.40070000000003,252.71900000000005 150.40070000000003,252.71900000000005 150.39536445312504,252.75595234375007 150.38827812500003,252.79166250000006 150.37943398437505,252.82613515625007 150.36882500000002,252.85937500000006 150.35644414062506,252.89138671875003 150.34228437500005,252.92217500000004 150.32633867187505,252.95174453125003 150.30860000000004,252.98010000000005 150.30860000000004,252.98010000000005 150.28972343750002,253.00695351562504 150.27014375000005,253.03238437500005 150.24986093750005,253.05638554687505 150.22887500000004,253.07895000000005 150.20718593750004,253.10007070312506 150.18479375000004,253.11974062500008 150.16169843750004,253.13795273437506 150.13790000000003,253.15470000000005 150.13790000000003,253.15470000000005 150.10271113281252,253.17608828125003 150.0631453125,253.19817500000005 150.01920371093752,253.22095546875005 149.97088750000003,253.24442500000004 149.91819785156252,253.26857890625004 149.86113593750002,253.29341250000004 149.79970292968753,253.31892109375005 149.73390000000003,253.34510000000006 149.47320000000002,253.44670000000005 149.76460000000003,254.19410000000005 149.36460000000002,254.35010000000005" fill="none" stroke="black" stroke-width="0.1" id="_new_636_3"/>
        <polygon points="149.12290000000002,252.54790000000006 149.3419,253.10990000000007 149.56060000000002,253.02470000000008 149.61714414062502,253.0020818359376 149.668421875,252.98042343750006 149.71442617187503,252.95971894531257 149.75515000000001,252.9399625000001 149.79058632812502,252.92114824218757 149.82072812500002,252.90327031250007 149.84556835937502,252.88632285156257 149.8651,252.87030000000007 149.8651,252.87030000000007 149.881196484375,252.85444511718757 149.89580937500003,252.83792343750008 149.908936328125,252.82072441406257 149.920575,252.80283750000007 149.93072304687502,252.78425214843756 149.93937812500002,252.76495781250006 149.946537890625,252.74494394531257 149.9522,252.72420000000008 149.9522,252.72420000000008 149.956141015625,252.70314785156256 149.95843437500002,252.68198906250007 149.959073046875,252.66072011718757 149.95805000000001,252.63933750000007 149.955358203125,252.61783769531257 149.950990625,252.5962171875001 149.944940234375,252.57447246093759 149.93720000000002,252.55260000000007 149.93720000000002,252.55260000000007 149.9259314453125,252.52657050781258 149.91312656250003,252.50248281250006 149.89878652343754,252.48033808593755 149.8829125,252.46013750000006 149.8655056640625,252.44188222656257 149.84656718750003,252.42557343750008 149.82609824218753,252.4112123046876 149.8041,252.39880000000008 149.8041,252.39880000000008 149.781251171875,252.38849277343758 149.757940625,252.38022343750006 149.734184765625,252.37399550781257 149.71,252.36981250000008 149.685402734375,252.36767792968757 149.660409375,252.36759531250004 149.635036328125,252.36956816406257 149.60930000000002,252.37360000000007 149.60930000000002,252.37360000000007 149.58779296875002,252.37830507812507 149.56196875,252.38521562500006 149.53182265625,252.39432460937508 149.49735,252.40562500000007 149.45854609375002,252.41910976562508 149.41540625,252.43477187500008 149.36792578125002,252.45260429687505 149.3161,252.47260000000006 149.12290000000002,252.54790000000006" fill="none" stroke="black" stroke-width="0.1" id="_new_636_4"/>
        <polygon points="150.86370000000002,253.78740000000005 150.75620000000004,253.39440000000005 151.14940000000004,253.28670000000005 151.25690000000003,253.67980000000006 150.86370000000002,253.78740000000005" fill="none" stroke="black" stroke-width="0.1" id="_new_636_5"/>
        <polygon points="151.95680000000002,253.49750000000006 151.18320000000003,251.45230000000006 151.61870000000002,251.39650000000006 152.1227,252.80480000000006 152.32260000000002,251.30640000000005 152.8291,251.24150000000006 153.38770000000002,252.66760000000005 153.5226,251.15270000000004 153.9514,251.09770000000003 153.70940000000002,253.27290000000002 153.25750000000002,253.3309 152.6355,251.8075 152.4186,253.4384 151.9568,253.4975" fill="none" stroke="black" stroke-width="0.1" id="_new_636_6"/>
        <polygon points="154.4466,253.324 154.62099999999998,251.20430000000002 155.04899999999998,251.23950000000002 154.8747,253.35920000000002 154.4466,253.324" fill="none" stroke="black" stroke-width="0.1" id="_new_636_7"/>
        <polygon points="155.28949999999998,253.3736 155.64499999999998,251.29420000000002 156.0683,251.36640000000003 155.7731,253.09250000000003 156.8256,253.27240000000003 156.76510000000002,253.62580000000003 155.28950000000003,253.37360000000004" fill="none" stroke="black" stroke-width="0.1" id="_new_636_8"/>
        <polygon points="157.20620000000002,252.99040000000005 157.6117,253.09970000000004 157.603505078125,253.15107050781256 157.598865625,253.20003281250007 157.59777460937502,253.24658808593753 157.60022500000002,253.29073750000003 157.606209765625,253.33248222656255 157.61572187500002,253.37182343750004 157.62875429687503,253.40876230468754 157.64530000000002,253.44330000000005 157.64530000000002,253.44330000000005 157.66527460937505,253.47543652343757 157.68867812500002,253.50561718750006 157.715517578125,253.53383613281255 157.7458,253.56008750000007 157.77953242187502,253.58436542968752 157.81672187500004,253.60666406250004 157.857375390625,253.62697753906255 157.90150000000003,253.64530000000005 157.90150000000003,253.64530000000005 157.94895917968753,253.66179804687505 157.99442968750003,253.67460937500005 158.03790097656253,253.68372226562505 158.07936250000003,253.68912500000005 158.11880371093753,253.69080585937508 158.15621406250003,253.68875312500003 158.19158300781254,253.68295507812505 158.22490000000002,253.67340000000004 158.22490000000002,253.67340000000004 158.2559302734375,253.66120781250004 158.28421718750002,253.64698125000004 158.3097548828125,253.63072031250005 158.3325375,253.61242500000003 158.35255917968752,253.59209531250005 158.36981406249998,253.56973125000005 158.38429628906252,253.54533281250002 158.39600000000002,253.51890000000003 158.39600000000002,253.51890000000003 158.4019583984375,253.50129746093754 158.40633593750002,253.48388593750002 158.40913613281253,253.46665957031254 158.41036250000002,253.44961250000003 158.41001855468753,253.43273886718754 158.40810781250002,253.41603281250002 158.40463378906253,253.39948847656254 158.39960000000002,253.38310000000004 158.39960000000002,253.38310000000004 158.39305703125,253.36659531250004 158.38438125000002,253.34978125000004 158.37357734375004,253.33265781250006 158.36065000000002,253.31522500000003 158.34560390625003,253.29748281250005 158.32844375000005,253.27943125000004 158.30917421875003,253.26107031250007 158.28780000000003,253.24240000000003 158.28780000000003,253.24240000000003 158.26998085937504,253.22785859375003 158.24690937500003,253.21003125000004 158.21860195312502,253.18891328125002 158.18507500000004,253.16450000000003 158.14634492187503,253.13678671875002 158.10242812500002,253.10576875000004 158.05334101562502,253.07144140625005 157.99910000000003,253.03380000000004 157.99910000000003,253.03380000000004 157.92913437500005,252.98390761718753 157.86563750000002,252.93511093750004 157.80860937500003,252.88741816406255 157.75805000000003,252.84083750000005 157.71395937500003,252.79537714843755 157.67633750000002,252.75104531250005 157.645184375,252.70785019531255 157.62050000000002,252.66580000000005 157.62050000000002,252.66580000000005 157.59344882812502,252.60743632812503 157.572971875,252.54897187500003 157.559071484375,252.49040898437505 157.55175000000003,252.43175000000008 157.55100976562503,252.37299726562506 157.55685312500003,252.31415312500005 157.56928242187502,252.25521992187507 157.58830000000003,252.19620000000003 157.58830000000003,252.19620000000003 157.60391953125,252.15900312500003 157.62198125000003,252.12345625 157.64248984375,252.08955000000003 157.66545000000002,252.057275 157.69086640625002,252.02662187500005 157.71874375000002,251.99758125 157.74908671875002,251.97014375000003 157.78190000000004,251.94430000000003 157.78190000000004,251.94430000000003 157.81673652343756,251.9208998046875 157.85321718750004,251.90034843750004 157.89133613281254,251.88264472656252 157.93108750000005,251.86778750000002 157.97246542968753,251.85577558593752 158.01546406250003,251.84660781250003 158.06007753906255,251.84028300781253 158.10630000000003,251.83680000000004 158.10630000000003,251.83680000000004 158.15409082031255,251.83635097656253 158.20312031250006,251.83883281250004 158.25339902343754,251.84425136718755 158.30493750000002,251.85261250000002 158.35774628906253,251.86392207031253 158.41183593750003,251.87818593750006 158.46721699218753,251.8954099609375 158.52390000000003,251.91560000000004 158.52390000000003,251.91560000000004 158.61379453125002,251.95249589843752 158.69591250000002,251.99231093750004 158.77026796875003,252.03504863281253 158.83687500000002,252.08071250000006 158.89574765625002,252.12930605468756 158.94690000000003,252.18083281250006 158.99034609375002,252.23529628906257 159.0261,252.29270000000005 159.0261,252.29270000000005 159.05435468750002,252.35238867187508 159.0757375,252.41334062500007 159.09023906250002,252.47557226562506 159.09785000000002,252.53910000000005 159.0985609375,252.60394023437507 159.09236250000004,252.67010937500007 159.0792453125,252.73762382812504 159.0592,252.80650000000006 158.6508,252.67230000000006 158.657423828125,252.63249082031257 158.661171875,252.59467031250006 158.662046484375,252.55884902343757 158.66005,252.52503750000005 158.655184765625,252.49324628906257 158.647453125,252.46348593750005 158.636857421875,252.43576699218758 158.6234,252.41010000000006 158.6234,252.41010000000006 158.60686249999998,252.38579511718757 158.586875,252.36260468750004 158.5634375,252.34052753906255 158.53655,252.31956250000005 158.5062125,252.29970839843756 158.47242500000002,252.28096406250006 158.4351875,252.26332832031255 158.3945,252.24680000000006 158.3945,252.24680000000006 158.35148886718747,252.23178769531256 158.3099859375,252.21990781250005 158.2699994140625,252.21117089843756 158.23153749999997,252.2055875000001 158.1946083984375,252.20316816406256 158.1592203125,252.20392343750007 158.1253814453125,252.20786386718754 158.0931,252.21500000000006 158.0931,252.21500000000006 158.07358652343748,252.22130468750007 158.05569843749998,252.22934375000006 158.0394392578125,252.23911718750006 158.0248125,252.25062500000007 158.01182167968747,252.26386718750007 158.0004703125,252.27884375000008 157.9907619140625,252.29555468750004 157.9827,252.31400000000005 157.9827,252.31400000000005 157.977042578125,252.33172792968756 157.973496875,252.34951093750004 157.972065234375,252.36734785156253 157.97275000000002,252.38523750000007 157.97555351562502,252.40317871093757 157.98047812500002,252.42117031250004 157.987526171875,252.43921113281257 157.9967,252.45730000000006 157.9967,252.45730000000006 158.0129744140625,252.48184726562505 158.0359953125,252.5091343750001 158.06575917968752,252.53915429687507 158.10226250000002,252.57190000000006 158.1455017578125,252.60736445312503 158.19547343750003,252.64554062500002 158.2521740234375,252.68642148437505 158.31560000000002,252.73000000000005 158.31560000000002,252.73000000000005 158.37996875000002,252.77420722656257 158.4395,252.81675156250003 158.49419375000002,252.85762949218753 158.54405000000003,252.89683750000006 158.58906875000002,252.93437207031255 158.62925,252.97022968750008 158.66459375000002,253.00440683593757 158.69510000000002,253.03690000000006 158.69510000000002,253.03690000000006 158.72191757812502,253.06920800781256 158.74619687500004,253.10246406250008 158.76794023437503,253.13667871093756 158.78715000000003,253.17186250000006 158.80382851562504,253.20802597656257 158.81797812500002,253.24517968750004 158.82960117187503,253.28333417968756 158.83870000000002,253.32250000000005 158.83870000000002,253.32250000000005 158.8447609375,253.36256855468756 158.84764375000003,253.40357343750006 158.84734843750002,253.44551347656255 158.84387500000003,253.48838750000004 158.83722343750003,253.53219433593756 158.82739375,253.57693281250005 158.81438593750002,253.62260175781253 158.7982,253.66920000000005 158.7982,253.66920000000005 158.78071171874998,253.71106210937504 158.7605,253.75114062500006 158.73756953125002,253.78942382812505 158.711925,253.82590000000005 158.68357109375,253.86055742187506 158.6525125,253.89338437500007 158.61875390625,253.92436914062506 158.5823,253.95350000000005 158.5823,253.95350000000005 158.543594140625,253.98019824218756 158.503371875,254.00358593750008 158.461626171875,254.02365253906257 158.41835,254.04038750000007 158.373536328125,254.05378027343755 158.327178125,254.06382031250004 158.279268359375,254.07049707031254 158.2298,254.07380000000003 158.2298,254.07380000000003 158.178566015625,254.07397519531253 158.12551562500002,254.07083281250002 158.070651171875,254.06438339843754 158.01397500000002,254.05463750000004 157.955489453125,254.04160566406253 157.895196875,254.02529843750003 157.833099609375,254.00572636718755 157.7692,253.98290000000003 157.7692,253.98290000000003 157.67862265625,253.94555839843753 157.5955875,253.90485468750003 157.52008984375001,253.86078300781253 157.45212500000002,253.81333750000005 157.39168828125003,253.7625123046875 157.33877500000003,253.70830156250003 157.29338046875003,253.65069941406253 157.2555,253.58970000000002 157.2555,253.58970000000002 157.224900390625,253.5254638671875 157.201278125,253.4581609375 157.184635546875,253.38779941406253 157.17497500000002,253.3143875 157.172298828125,253.23793339843752 157.17660937500003,253.15844531250002 157.18790898437504,253.0759314453125 157.20620000000002,252.99040000000002" fill="none" stroke="black" stroke-width="0.1" id="_new_636_9"/>
        <polygon points="159.42450000000002,253.43340000000003 159.4676396484375,253.36639746093752 159.51163593750005,253.30376718750003 159.55649238281254,253.24551269531253 159.6022125,253.1916375 159.64879980468754,253.14214511718754 159.69625781250005,253.09703906250002 159.74459003906253,253.05632285156253 159.79380000000003,253.02000000000004 159.79380000000003,253.02000000000004 159.83101855468752,252.99598320312504 159.86909843750004,252.97366562500005 159.90803847656252,252.95305898437502 159.94783750000002,252.93417500000004 159.98849433593753,252.91702539062504 160.03000781250003,252.90162187500005 160.07237675781255,252.887976171875 160.11560000000003,252.87610000000004 160.11560000000003,252.87610000000004 160.15898710937503,252.86632324218755 160.20192187500004,252.85867343750004 160.24440195312502,252.85315878906252 160.28642500000004,252.84978750000005 160.32798867187503,252.84856777343754 160.36909062500004,252.84950781250004 160.40972851562503,252.85261582031254 160.44990000000004,252.85790000000003 160.44990000000004,252.85790000000003 160.50346171875003,252.86764394531252 160.55720625000004,252.88067031250006 160.61114765625004,252.89697089843753 160.66530000000003,252.91653750000006 160.71967734375005,252.93936191406254 160.77429375000003,252.96543593750005 160.82916328125003,252.99475136718752 160.88430000000005,253.02730000000003 160.88430000000005,253.02730000000003 160.97941855468753,253.0913513671875 161.06474843750004,253.16006093750005 161.14028847656255,253.23343691406254 161.20603750000004,253.31148750000006 161.26199433593754,253.39422089843754 161.30815781250004,253.48164531250004 161.34452675781253,253.57376894531254 161.37110000000004,253.67060000000004 161.37110000000004,253.67060000000004 161.38722519531254,253.77032988281255 161.39210156250005,253.8715140625 161.38573027343753,253.97414433593752 161.36811250000005,254.07821250000003 161.33924941406255,254.18371035156255 161.29914218750005,254.29062968750006 161.24779199218756,254.39896230468753 161.18520000000004,254.50870000000003 161.18520000000004,254.50870000000003 161.11562832031254,254.61304160156254 161.04228906250003,254.70677656250007 160.96518339843755,254.78992011718753 160.88431250000002,254.86248750000001 160.79967753906254,254.92449394531255 160.71127968750002,254.97595468750004 160.61912011718755,255.01688496093752 160.52320000000003,255.04730000000004 160.52320000000003,255.04730000000004 160.4253453125,255.06689941406253 160.32723750000002,255.07567656250004 160.22888593750002,255.0736373046875 160.13030000000003,255.06078750000003 160.03148906250001,255.03713300781254 159.93246250000004,255.00267968750003 159.83322968750002,254.95743339843753 159.73380000000003,254.90140000000002 159.73380000000003,254.90140000000002 159.63780917968754,254.83678398437502 159.55173593750004,254.76766562500003 159.47557910156254,254.694051953125 159.40933750000002,254.61595000000003 159.35300996093753,254.53336679687501 159.3065953125,254.446309375 159.27009238281255,254.35478476562506 159.24350000000004,254.25880000000004 159.24350000000004,254.25880000000004 159.22753750000004,254.15976757812504 159.22261875000004,254.05954687500005 159.22873437500004,253.95814023437504 159.24587500000004,253.85555000000005 159.27403125000004,253.75177851562506 159.31319375000004,253.64682812500004 159.36335312500006,253.54070117187504 159.42450000000005,253.43340000000003" fill="none" stroke="black" stroke-width="0.1" id="_new_636_10"/>
        <polygon points="159.80840000000006,253.65360000000004 159.76461796875006,253.72946093750002 159.72814375000007,253.80343750000003 159.69897265625005,253.87552031250004 159.67710000000005,253.94570000000004 159.66252109375006,254.01396718750004 159.65523125000007,254.08031250000005 159.65522578125007,254.14472656250004 159.66250000000005,254.20720000000003 159.66250000000005,254.20720000000003 159.67628183593757,254.26706035156252 159.69550468750003,254.32342031250002 159.72017207031254,254.37628574218752 159.75028750000007,254.42566250000002 159.78585449218755,254.47155644531256 159.82687656250005,254.51397343750003 159.87335722656255,254.55291933593753 159.92530000000005,254.58840000000004 159.92530000000005,254.58840000000004 159.98010117187505,254.61887617187503 160.03552812500004,254.64294687500004 160.09157851562506,254.66060039062504 160.14825000000005,254.671825 160.20554023437504,254.67660898437504 160.26344687500006,254.67494062500003 160.32196757812505,254.66680820312504 160.38110000000006,254.65220000000002 160.38110000000006,254.65220000000002 160.43965976562504,254.63063183593752 160.4969093750001,254.6014734375 160.55284179687507,254.5647189453125 160.60745000000006,254.52036250000003 160.66072695312505,254.4683982421875 160.71266562500006,254.4088203125 160.76325898437506,254.34162285156253 160.81250000000006,254.26680000000002 160.81250000000006,254.26680000000002 160.85684511718756,254.19021523437502 160.89388593750004,254.11593437500002 160.92363066406256,254.043955078125 160.94608750000006,253.97427500000003 160.96126464843755,253.90689179687502 160.96917031250004,253.841803125 160.96981269531256,253.77900664062503 160.96320000000006,253.7185 160.96320000000006,253.7185 160.94978554687506,253.6606990234375 160.93062187500004,253.60594843750002 160.90571601562505,253.5542517578125 160.87507500000007,253.5056125 160.83870585937507,253.4600341796875 160.79661562500007,253.4175203125 160.74881132812504,253.37807441406252 160.69530000000006,253.3417 160.69530000000006,253.3417 160.63862812500005,253.3100630859375 160.58171250000004,253.2849734375 160.52455312500007,253.2664251953125 160.46715000000006,253.2544125 160.40950312500007,253.24892949218753 160.35161250000004,253.2499703125 160.29347812500006,253.2575291015625 160.23510000000007,253.2716 160.23510000000007,253.2716 160.17734511718757,253.292812890625 160.12085468750007,253.321584375 160.06562753906258,253.35792617187502 160.01166250000009,253.40185 159.95895839843757,253.45336757812498 159.90751406250007,253.512490625 159.85732832031255,253.57923085937503 159.80840000000006,253.6536" fill="none" stroke="black" stroke-width="0.1" id="_new_636_11"/>
        <polygon points="160.94500000000005,255.5694 162.38750000000005,254.0065 162.69450000000003,254.28979999999999 162.37120000000004,255.92389999999997 163.33440000000004,254.88029999999998 163.62770000000003,255.15089999999998 162.18530000000004,256.71389999999997 161.86820000000003,256.42139999999995 162.17910000000003,254.82069999999996 161.23830000000004,255.84009999999995 160.94500000000005,255.56939999999994" fill="none" stroke="black" stroke-width="0.1" id="_new_636_12"/>
        <circle cx="154.086" cy="265.139" r="4.5" fill="none" stroke="black" stroke-width="0.1" id="_tag_646_"/>
    </g>
    <circle cx="154.086" cy="265.139" r="4" fill="none" stroke="black" stroke-width="0.1" id="center_00"/>
</svg>
