<?xml version="1.0" encoding="UTF-8"?>
<!DOCTYPE svg PUBLIC "-//W3C//DTD SVG 1.1//EN" "http://www.w3.org/Graphics/SVG/1.1/DTD/svg11.dtd">
<!-- Creator: CorelDRAW -->
<svg xmlns="http://www.w3.org/2000/svg" xml:space="preserve" width="210mm" height="297mm" style="shape-rendering:geometricPrecision; text-rendering:geometricPrecision; image-rendering:optimizeQuality; fill-rule:evenodd; clip-rule:evenodd"
viewBox="0 0 210 297">
 <defs>
  <style type="text/css">
   <![CDATA[
    .str0 {stroke:#DA251D;stroke-width:0.0762}
    .fil0 {fill:#DEDEDD}
   ]]>
  </style>
 </defs>
 <g id="Ebene_x0020_1">
  <metadata id="CorelCorpID_0Corel-Layer"/>
  <polygon class="fil0 str0" points="147.312,198.395 147.312,199.689 146.327,199.886 145.57,200.003 144.623,200.12 143.709,200.189 142.705,200.21 141.701,200.189 140.787,200.12 139.841,200.003 139.083,199.886 138.099,199.689 138.099,198.395 "/>
  <circle id="center_00" class="fil0 str0" cx="206.705" cy="199.689" r="2.5925"/>
  <polygon class="fil0 str0" points="211.312,198.395 211.312,199.689 210.327,199.886 209.57,200.003 208.623,200.12 207.709,200.189 206.705,200.21 205.701,200.189 204.787,200.12 203.841,200.003 203.083,199.886 202.099,199.689 202.099,198.395 "/>
  <rect class="fil0 str0" x="133.705" y="190.395" width="18" height="8.0005"/>
  <rect class="fil0 str0" x="197.705" y="190.395" width="18" height="8.0005"/>
  <polygon class="fil0 str0" points="143.666,108.796 141.357,132.775 141.268,134.331 141.276,134.55 141.312,134.773 141.408,135.042 141.595,135.333 141.794,135.53 142.054,135.697 142.339,135.802 142.615,135.842 143.491,135.832 229.186,127.677 230.025,127.662 231.098,127.83 231.927,128.121 232.477,128.407 233.079,128.832 233.654,129.393 233.897,129.699 234.189,130.185 234.202,130.184 234.241,130.27 234.282,130.338 234.277,130.351 234.467,130.777 234.644,131.448 234.705,132.153 234.705,134.357 234.705,187.395 234.654,187.395 234.671,187.85 234.457,188.591 234.138,189.15 233.506,189.795 232.948,190.126 232.11,190.368 231.705,190.395 99.321,190.395 98.668,190.368 98.135,190.308 97.463,190.13 96.929,189.878 86.136,185.082 85.544,184.733 84.992,184.19 84.563,183.443 84.354,182.34 84.451,181.581 84.697,180.947 85.189,180.264 86.092,179.618 86.962,179.366 87.802,179.374 88.572,179.599 99.365,184.395 99.366,184.395 227.781,184.395 228.123,184.295 228.352,184.149 228.516,183.972 228.593,183.846 228.648,183.72 228.705,183.343 228.705,136.94 228.705,135.381 228.64,134.98 228.461,134.6 228.246,134.339 227.952,134.119 227.516,133.952 227.109,133.908 141.931,142.007 140.486,142.145 140.374,142.112 140.384,142.151 139.43,142.142 138.726,142.017 137.928,141.741 137.126,141.293 136.388,140.673 135.883,140.072 135.463,139.369 135.196,138.71 134.976,137.643 134.953,136.679 135.063,135.538 137.714,108.002 138.121,106.842 138.758,106.099 139.523,105.63 140.689,105.395 141.999,105.696 142.93,106.401 143.524,107.412 "/>
 </g>
</svg>
