<!DOCTYPE svg PUBLIC "-//W3C//DTD SVG 1.1//EN" "http://www.w3.org/Graphics/SVG/1.1/DTD/svg11.dtd">
<svg xmlns="http://www.w3.org/2000/svg" width="297mm" height="210mm" viewBox="0 0 297 210">
    <defs id="_tag_12_"/>
    <polygon id="polygon4" points="-22.1388,30.4881 -22.144,0.8535 22.8557,0.8437 23.6593,3.0965 24.1529,3.8755 24.1556,21.6536 23.6164,22.399 22.934,22.6383 21.8057,22.6382 22.8479,37.0065 -15.4096,80.6711" fill="none" stroke="black" stroke-width="0.1"/>
    <polygon id="polygon6" points="14.7742,-0.0002 -14.7743,0.0001 -15.0432,0.8491 15.2565,0.8483" fill="none" stroke="black" stroke-width="0.1"/>
    <polygon id="center_00" cx="0" cy="0" points="3.4363999,0.0 3.417574941791345,0.35920160072011803 3.36130631734689,0.7144677135349791 3.268210517491014,1.0619059685683698 3.139307519288488,1.3977097595920154 2.9760096109623047,1.7181999499999998 2.78010591856837,2.0198651821993296 2.5537428039560353,2.2994003487785193 2.2994003487785197,2.553742803956035 2.0198651821993296,2.78010591856837 1.7181999500000005,2.9760096109623047 1.397709759592016,3.139307519288488 1.06190596856837,3.268210517491014 0.7144677135349795,3.3613063173468896 0.3592016007201188,3.417574941791345 2.104118575907291e-16,3.4363999 -0.3592016007201176,3.417574941791345 -0.7144677135349784,3.36130631734689 -1.0619059685683696,3.2682105174910143 -1.397709759592015,3.1393075192884883 -1.7181999499999994,2.9760096109623047 -2.019865182199329,2.78010591856837 -2.299400348778519,2.5537428039560357 -2.5537428039560344,2.29940034877852 -2.7801059185683696,2.01986518219933 -2.976009610962304,1.7181999500000011 -3.1393075192884874,1.3977097595920163 -3.268210517491014,1.0619059685683703 -3.3613063173468896,0.7144677135349805 -3.417574941791345,0.359201600720119 -3.4363999,4.208237151814582e-16 -3.417574941791345,-0.35920160072011664 -3.36130631734689,-0.7144677135349782 -3.2682105174910143,-1.0619059685683694 -3.1393075192884887,-1.3977097595920143 -2.976009610962305,-1.7181999499999991 -2.7801059185683705,-2.019865182199329 -2.553742803956036,-2.299400348778519 -2.2994003487785206,-2.5537428039560344 -2.01986518219933,-2.7801059185683696 -1.7181999500000016,-2.9760096109623038 -1.3977097595920178,-3.139307519288487 -1.0619059685683705,-3.268210517491014 -0.7144677135349806,-3.3613063173468896 -0.3592016007201207,-3.417574941791345 -6.312355727721873e-16,-3.4363999 0.3592016007201164,-3.417574941791345 0.7144677135349765,-3.3613063173468904 1.0619059685683692,-3.2682105174910143 1.397709759592014,-3.1393075192884887 1.7181999499999978,-2.976009610962306 2.0198651821993288,-2.7801059185683705 2.2994003487785184,-2.553742803956036 2.553742803956033,-2.299400348778522 2.7801059185683696,-2.01986518219933 2.9760096109623038,-1.7181999500000016 3.139307519288487,-1.397709759592018 3.268210517491014,-1.0619059685683705 3.3613063173468896,-0.714467713534981 3.417574941791345,-0.3592016007201209" fill="none" stroke="black" stroke-width="0.1"/>
    <polyline id="path2996_1" style="fill:none;stroke:#000000;stroke-width:1px;stroke-linecap:butt;stroke-linejoin:miter;stroke-opacity:1" points="21.804687,22.631715 21.53125,18.95984 21.53125,6.674684299999999" fill="none" stroke="black" stroke-width="0.1"/>
</svg>
