<?xml version="1.0" encoding="UTF-8"?>
<!DOCTYPE svg PUBLIC "-//W3C//DTD SVG 1.1//EN" "http://www.w3.org/Graphics/SVG/1.1/DTD/svg11.dtd">
<!-- Creator: CorelDRAW -->
<svg xmlns="http://www.w3.org/2000/svg" xml:space="preserve" width="210mm" height="297mm" style="shape-rendering:geometricPrecision; text-rendering:geometricPrecision; image-rendering:optimizeQuality; fill-rule:evenodd; clip-rule:evenodd"
viewBox="0 0 210 297"
 version="1.0">
 <defs>
  <style type="text/css">
   <![CDATA[
    .str0 {stroke:black;stroke-width:0.0265}
    .str1 {stroke:#1F1A17;stroke-width:0.0762}
    .fil3 {fill:none}
    .fil2 {fill:#4D4948}
    .fil0 {fill:#969594}
    .fil1 {fill:#DEDEDD}
   ]]>
  </style>
 </defs>
 <g id="Ebene_x0020_1">
  <metadata id="CorelCorpID_0Corel-Layer"/>
  <polygon class="fil0 str0" points="146.56,163.212 144.379,176.026 134.567,174.286 121.472,174.187 92.7272,180.39 67.9088,179.126 60.7852,176.403 90.3786,176.403 91.8326,176.306 93.2424,176.023 94.5927,175.562 95.867,174.933 97.0494,174.144 98.1235,173.205 99.074,172.126 99.8516,170.964 100.528,169.608 100.988,168.244 101.263,166.845 101.355,165.426 101.263,164.008 100.988,162.608 100.528,161.246 99.8849,159.938 99.074,158.727 98.1235,157.647 97.0494,156.709 95.867,155.92 94.5927,155.291 93.1874,154.818 91.8326,154.546 90.3786,154.45 60.2051,154.45 67.0772,151.423 73.656,147.876 79.9137,143.833 85.8238,139.314 91.3585,134.344 96.4915,128.943 101.195,123.135 105.442,116.942 110.898,104.194 120.99,108.513 116.082,119.981 114.047,126.507 113.779,131.214 114.318,135.856 115.754,140.576 117.805,144.983 120.42,149.03 123.552,152.664 127.15,155.838 131.165,158.5 135.549,160.602 140.251,162.093 "/>
  <polygon class="fil1 str0" points="90.3786,170.416 91.0396,170.372 91.6803,170.243 92.2943,170.034 92.8732,169.747 93.4106,169.389 93.899,168.962 94.3313,168.471 94.6994,167.921 94.6994,167.921 94.992,167.327 95.201,166.708 95.3262,166.071 95.368,165.426 95.3262,164.782 95.201,164.146 94.992,163.526 94.6994,162.932 94.6994,162.932 94.3313,162.381 93.899,161.891 93.4106,161.464 92.8732,161.105 92.2943,160.819 91.6803,160.61 91.0396,160.481 90.3786,160.437 60.442,160.437 54.4546,154.45 54.4546,154.45 90.3786,154.45 91.8326,154.546 93.2424,154.829 94.5927,155.291 95.867,155.92 97.0494,156.709 98.1235,157.647 99.074,158.727 99.8849,159.938 99.8849,159.938 100.528,161.246 100.988,162.608 101.263,164.008 101.355,165.426 101.263,166.845 100.988,168.244 100.528,169.608 99.8849,170.915 99.8849,170.915 99.074,172.126 98.1235,173.205 97.0494,174.144 95.867,174.933 94.5927,175.562 93.2424,176.023 91.8326,176.306 90.3786,176.403 54.4546,176.403 60.442,170.416 90.3786,170.416 "/>
  <polygon class="fil1 str0" points="101.356,170.915 105.846,170.915 105.846,159.938 101.356,159.938 "/>
  <polygon class="fil2 str0" points="115.956,154.596 115.903,154.525 114.178,152.228 112.569,149.754 111.134,147.182 109.878,144.523 108.803,141.785 107.915,138.978 107.216,136.11 106.711,133.192 106.651,132.909 106.552,132.641 106.417,132.392 106.249,132.166 106.051,131.965 105.826,131.795 105.576,131.656 105.305,131.553 105.305,131.553 105.021,131.491 104.736,131.47 104.454,131.489 104.179,131.549 103.914,131.646 103.665,131.78 103.435,131.95 103.229,132.154 101.348,134.257 99.4115,136.309 97.4224,138.307 95.3817,140.252 93.29,142.142 91.1484,143.976 88.9583,145.754 86.7206,147.473 86.4815,147.683 86.2828,147.924 86.1252,148.19 86.0113,148.475 85.9422,148.774 85.9197,149.082 85.9456,149.393 86.0217,149.702 86.0217,149.702 86.1455,149.994 86.311,150.259 86.5132,150.492 86.7478,150.69 87.0099,150.85 87.295,150.969 87.5983,151.042 87.9155,151.068 88.5094,151.068 90.6306,151.068 91.779,151.094 93.0241,151.167 94.3317,151.283 95.6691,151.436 97.0026,151.621 98.2988,151.831 99.5251,152.061 100.648,152.307 100.648,152.307 101.729,152.588 102.677,152.881 103.516,153.187 104.279,153.507 104.992,153.844 105.685,154.196 106.386,154.565 107.124,154.953 107.561,155.178 108.036,155.424 108.568,155.706 109.176,156.04 109.878,156.44 110.694,156.923 111.64,157.502 112.737,158.194 113.135,158.389 113.551,158.506 113.976,158.549 114.398,158.518 114.809,158.415 115.199,158.241 115.557,157.999 115.874,157.689 115.874,157.689 116.131,157.328 116.315,156.937 116.426,156.525 116.464,156.103 116.43,155.681 116.322,155.268 116.142,154.875 "/>
  <polyline class="fil1 str0" points="109.973,149.938 109.783,149.426 109.521,148.957 109.196,148.537 108.814,148.17 108.383,147.864 107.908,147.624 107.398,147.456 106.86,147.364 106.86,147.364 106.313,147.356 105.781,147.428 105.271,147.578 104.791,147.8 104.349,148.09 103.952,148.445 103.609,148.858 103.328,149.326 103.328,149.326 103.121,149.832 102.995,150.354 102.948,150.884 102.98,151.412 103.09,151.929 103.275,152.427 103.535,152.897 103.868,153.33 102.677,152.881 101.729,152.588 100.648,152.307 99.5251,152.061 98.2988,151.831 97.0026,151.621 95.3639,151.401 96.0175,151.209 96.5237,151.004 96.9849,150.729 97.3956,150.391 97.7506,149.999 98.0439,149.559 98.2703,149.078 98.4242,148.563 98.4999,148.022 98.4999,148.022 98.4924,147.476 98.4045,146.946 98.2401,146.44 98.004,145.967 97.7012,145.533 97.3357,145.148 96.9126,144.817 96.4363,144.549 96.4363,144.549 95.9248,144.357 95.399,144.246 94.8683,144.215 94.3418,144.262 93.8274,144.386 93.3349,144.586 92.8728,144.859 92.4498,145.206 92.4794,144.431 92.6512,143.695 92.9516,143.015 93.3692,142.406 93.8904,141.883 94.5029,141.462 95.1934,141.157 95.9501,140.984 95.9501,140.984 96.7254,140.958 97.4715,141.076 98.1711,141.328 98.8085,141.701 99.3674,142.183 99.8317,142.764 100.185,143.431 100.412,144.173 100.658,142.722 102.348,138.011 104.746,133.035 105.519,131.622 105.475,133.232 105.042,138.739 104.131,143.66 103.613,145.037 104.183,144.51 104.824,144.112 105.518,143.844 106.244,143.708 106.982,143.707 107.713,143.842 108.417,144.115 109.075,144.527 109.075,144.527 109.641,145.058 110.085,145.669 110.402,146.342 110.589,147.056 110.643,147.792 110.56,148.531 110.338,149.253 109.973,149.938 "/>
  <path class="fil3 str0" d="M96.0175 151.209l-0.6536 0.1916m0.6536 -0.1916z"/>
  <path class="fil3 str0" d="M93.877 165.426l13.7108 0m-13.7108 0z"/>
  <circle class="fil3 str1" cx="79.5907" cy="165.426" r="4.98921"/>
  <path class="fil3 str0" d="M79.5907 175.847l0 -20.8421m0 20.8421z"/>
  <path class="fil3 str0" d="M90.0118 165.426l-20.8421 0m20.8421 0z"/>
  <circle id="center_00" class="fil0 str1" cx="79.5907" cy="165.426" r="2.5"/>
 </g>
</svg>
