<svg version="1.0" xmlns="http://www.w3.org/2000/svg">
    <polygon points="91.4536,141.717 89.2603,141.7847 87.7705,141.8313 85.0864,141.7454 84.6013,141.5172 84.3727,141.0317 84.3727,140.8349 84.3727,132.5522 84.431,132.2945 84.6573,132.0841 85.0864,132.0671 86.0858,132.0095 86.4854,131.8956 86.7995,131.5816 86.9138,131.182 86.9425,130.0683 86.8854,129.7542 86.7851,129.5972 86.5997,129.4117 86.3999,129.2975 86.1146,129.2119 85.6007,129.1832 85.1152,129.1548 85.0864,129.1548 84.7723,129.0689 84.487,128.8407 84.3727,128.555 84.3727,126.2997 84.3871,125.9856 84.6297,125.5001 85.1152,125.2719 87.7989,125.186 91.482,125.3003 91.9671,125.5288 92.1385,126.014 92.1385,127.4989 92.1385,135.7214 92.1385,141.0033 91.9387,141.4884 91.4536,141.717 91.4536,141.717" fill="none" stroke="black" stroke-width="0.1"/>
    <polyline points="89.2603,141.7847 91.4536,141.717" fill="none" stroke="black" stroke-width="0.1"/>
    <polygon points="84.4019,151.224 84.6297,151.709 85.0864,151.966 88.3128,152.052 92.1385,151.268 92.1385,141.003 84.3727,140.554 84.3739,150.875 84.4019,151.224" fill="none" stroke="black" stroke-width="0.1"/>
    <polygon points="90.1876,150.244 86.9521,132.524 87.3823,131.775 88.3516,131.626 88.9156,132.147 92.0776,149.855 90.1876,150.244" fill="none" stroke="black" stroke-width="0.1"/>
    <polygon points="111.896,147.941 109.522,147.593 109.398,139.437 111.925,139.775 112.781,140.546 113.41,141.488 113.809,142.545 113.923,143.687 113.837,144.714 113.494,145.685 112.981,146.57 112.295,147.37 112.238,147.427 112.096,147.57 112.039,147.655 111.953,147.798 111.925,147.855 111.896,147.941" fill="none" stroke="black" stroke-width="0.1"/>
    <polyline points="108.07,156.077 109.2695,153.9072 109.8122,152.9365 110.8967,150.7096 111.0398,150.3671 111.182,149.9959 111.3531,149.5963 111.4961,149.1679 111.7534,148.4542 111.4961,149.1679 112.01,147.4265 112.01,147.2834 111.982,147.1124 111.8957,146.941 111.7814,146.7695 111.5661,146.5924 108.0828,146.1826 100.7091,146.4146 100.7764,154.4574" fill="none" stroke="black" stroke-width="0.1"/>
    <polyline points="112.01,147.4265 111.7534,148.4542" fill="none" stroke="black" stroke-width="0.1"/>
    <polyline points="110.252,141.269 110.2709,138.3037 111.0679,138.7192 111.3823,138.9474" fill="none" stroke="black" stroke-width="0.1"/>
    <polyline points="111.3823,138.9474 111.4962,139.0617 111.6105,139.1759 111.6956,139.3186 111.925,139.7754 111.953,140.318 111.8107,140.8319 111.4962,141.2031 111.4103,141.2886 111.0679,141.5456 110.1101,142.1495 110.252,141.269" fill="none" stroke="black" stroke-width="0.1"/>
    <polygon points="103.702,136.777 103.588,136.092 103.53,135.293 103.588,134.465 103.674,134.008 103.816,133.494 103.939,133.154 104.187,132.523 104.387,131.867 104.473,131.296 104.502,130.868 104.53,128.438 104.503,128.074 104.479,127.873 104.433,127.723 104.38,127.645 104.355,127.52 104.405,127.352 104.53,127.127 104.244,127.641 103.959,128.127 103.731,128.44 103.617,128.583 103.33,128.926 103.102,129.183 101.762,130.493 102.198,138.738 103.3,137.69 103.808,137.66 105.264,138.184 103.702,136.777" fill="none" stroke="black" stroke-width="0.1"/>
    <polyline points="102.531,139.547 103.045,139.09 103.387,138.519 103.488,137.862 103.473,130.296 103.359,129.582 102.96,128.954 102.388,128.555 101.361,128.484 101.281,139.689 102.531,139.547" fill="none" stroke="black" stroke-width="0.1"/>
    <polygon points="103.53,138.947 103.53,140.69 107.903,142.4469 110.6968,144.6747 110.6968,144.0007 110.6968,142.9442 110.6968,142.0307 110.7248,141.06 110.7486,140.634 110.8111,140.0607 110.8111,140.0298423828125 110.8111,139.9723328125 110.8111,139.8921662109375 110.8111,139.7933375 110.8111,139.67984160156252 110.8111,139.5556734375 110.8111,139.42482792968752 110.8111,139.2913 110.8111,137.2914 110.8111,136.8631 110.8111,136.0493748046875 110.8111,135.2356296875 110.8111,134.42187285156248 110.8111,133.6081125 110.8111,132.7943568359375 110.8111,131.9806140625 110.8111,131.16689238281248 110.8111,130.3532 110.8111,128.4695 110.7539,128.1838 110.6389,127.9556 110.3252,127.5844 109.9248,127.3274 109.6395,127.2127 107.4988,126.6705 105.3002,126.3564 105.0429,126.4135 104.8719,126.4991 104.6921,126.6345 104.6153,126.8415 104.5294,127.1272 104.5294,135.4924 104.4776,135.8107 104.3008,136.0635 103.9868,136.3492 103.8146,136.5085 103.6734,136.7772 103.5872,137.0629 103.5523,137.3266 103.53,137.6608 103.53,138.3476 103.53,138.947 103.53,138.947" fill="none" stroke="black" stroke-width="0.1"/>
    <polygon points="114.864,195.538 115.3548,195.3382 116.0613,194.8882 116.6161,194.2402 117.1194,192.8083 117.4004,191.7504 117.5592,191.1956 117.9153,190.004 118.2186,189.0067 118.2729123046875,188.84716386718748 118.32739218749998,188.6905234375 118.3827041015625,188.5360931640625 118.4395125,188.3831875 118.4984818359375,188.2311208984375 118.5602765625,188.07920781250002 118.62556113281249,187.9267626953125 118.695,187.7731 118.9198,187.3707 119.2017,186.9754 119.8282,186.3658 120.4778,186.0187 120.4778,186.0187 130.3151,186.0887 130.939,185.9393 131.5465,185.7016 132.0824,185.3397 132.5735,184.885 132.9627,184.3311 133.2377,183.7625 133.4039,183.1506 133.4579,182.5097 133.4889,180.9446 133.4877,179.8504 133.3793,178.9151 133.2434,178.4078 132.9595,177.7088 132.3908,176.7713 131.6618,175.9564 130.8255,175.3008 129.9149,174.7791 128.9248,174.4202 127.8603,174.1955 127.55454921875,174.16876015625002 127.2484375,174.14309375000002 126.94213828125,174.11764296875 126.635825,174.09154999999998 126.32967109375,174.06395703125 126.02385000000001,174.03400625 125.71853515625,174.00083984375001 125.4139,173.9636 125.2182404296875,173.9541869140625 125.0222984375,173.94180781250003 124.82616660156249,173.9271904296875 124.62993750000001,173.91106249999999 124.43370371093751,173.8941517578125 124.2375578125,173.8771859375 124.0415923828125,173.86089277343748 123.8459,173.846 123.560897265625,173.82555664062502 123.275896875,173.804384375 122.990910546875,173.782532421875 122.70595,173.76004999999998 122.421026953125,173.736986328125 122.136153125,173.71339062500002 121.85134023437499,173.689312109375 121.5666,173.6648 121.199861328125,173.6340044921875 120.83296562499999,173.6047921875 120.46598085937501,173.57652441406253 120.098975,173.5485625 119.732016015625,173.5202677734375 119.365171875,173.4910015625 118.998510546875,173.46012519531251 118.6321,173.427 113.8989,173.0706 108.5836,172.3217 107.7589,172.2435 107.1074,172.1588 106.3099,172.1085 105.2947,172.1535 104.6564,172.1854 103.7178,172.3224 103.012,172.4321 102.671,172.5221 95.1987,172.7406 85.0021,172.9982 83.659,173.1402 82.3469,173.4878 81.4596,173.8906 81.6443,173.7994 81.4596,173.8906 81.0923,174.1008 80.6994,174.4252 80.5995,174.5271 80.1692,174.9607 79.7408,175.5961 79.453,176.4798 79.366,176.9291 79.36,177.4179 79.3933,177.8252 79.4933,178.3855 79.5539755859375,178.6299880859375 79.6115984375,178.8753421875 79.6673251953125,179.1212095703125 79.72231250000002,179.3672375 79.77771699218751,179.6130732421875 79.8346953125,179.85836406250002 79.8944041015625,180.1027572265625 79.958,180.3459 80.0553,180.7043 80.2885,181.5695 80.3439,181.8068 80.4029,182.016 80.5177,182.4629 81.0265,183.4216 82.5176,184.7958 83.6381,185.2587 84.8233,185.441 85.943,185.4817 86.0554,185.486 86.944,185.5161 89.6744,185.5541 89.96182148437501,185.55505781249997 90.249634375,185.55878124999998 90.537686328125,185.5639578125 90.825825,185.569275 91.113898046875,185.57342031249996 91.401753125,185.57508124999998 91.689237890625,185.5729453125 91.9762,185.5657 92.21317597656251,185.5747732421875 92.45004531250001,185.5812296875 92.6868326171875,185.5858744140625 92.9235625,185.5895125 93.1602595703125,185.5929490234375 93.3969484375,185.5969890625 93.6336537109375,185.6024376953125 93.8704,185.6101 94.8574,185.7675 95.6742,186.1325 96.2107,186.4323 96.6626,186.7223 96.9801,186.9361 98.0321,187.706 99.1118,188.4795 105.3264,193.2899 106.7281,194.3365 107.7133,194.9535 108.3637,195.2689 109.1905,195.5493 110.2631,195.717 112.0153,195.7438 113.8987,195.6548 114.864,195.538 114.864,195.538" fill="none" stroke="black" stroke-width="0.1"/>
    <polyline points="82.7342,175.458 92.1872,175.265 94.359,175.628 96.5594,176.675 98.628,178.264" fill="none" stroke="black" stroke-width="0.1"/>
    <polyline points="128.654,177.941 127.334,176.664 125.584,176 112.833,175.181" fill="none" stroke="black" stroke-width="0.1"/>
    <polygon points="110.097,191.565 108.9266,191.8224 106.9811,191.9011 105.1001,191.8515 102.2025,190.8233 101.3314,190.1384 100.6745,189.3104 100.1901,188.4533 99.5903,186.1405 97.6199,178.9461 93.79,164.482 93.0809,162.8506 92.3384,161.5303 92.3123,161.4963 92.2287,161.4823 91.0537,160.274 89.526,158.9753 88.3125,157.2191 87.9129,155.9343 87.7702,154.3072 87.956,152.9937 88.4268,151.8089 89.011,150.8398 89.7402,149.8245 90.5341,148.7112 91.2191,147.599 91.8344,146.4494 92.4818,145.142 92.9931,143.908 93.4797,142.5725 93.4797,127.1022 93.5592,114.9249 93.6799,111.5668 93.5826,107.4523 93.6231,103.7723 93.709,98.6334 103.9406,104.6892 105.186,107.4837 103.4876,109.0114 102.8731,109.6823 102.4447,110.5674 102.3024,111.5241 102.2737,112.1662 102.3304,112.7089 102.2737,113.3367 102.3304,116.6202 102.3596,121.6879 102.3304,122.5302 102.5454,152.123 102.8878,153.9503 103.2015,156.3771 103.6163,158.4183 104.2441,160.6452 104.5794,161.7074 105.049,162.616 105.7857,163.6718 106.8703,164.8422 107.7841,165.613 109.4389,166.8981 110.8595,168.0235 111.7529,169.2106 112.0095,169.6102 112.2097,170.0386 112.3807,170.4666 112.6093,171.4088 115.4928,182.0869 115.693,183.2857 115.7501,184.4849 115.5787,185.6841 115.2362,186.8265 114.7216,187.9398 114.0651,188.9388 113.2371,189.824 112.2948,190.566 111.2383,191.1378 110.097,191.565 110.097,191.565" fill="none" stroke="black" stroke-width="0.1"/>
    <polyline points="110.097,191.565 108.9266,191.8224" fill="none" stroke="black" stroke-width="0.1"/>
    <polyline points="110.8962,183.2573 107.8984,172.0086" fill="none" stroke="black" stroke-width="0.1"/>
    <polyline points="110.8962,183.2573 111.0101,184.0853 110.925,184.942 110.6389,185.7129 110.1821,186.4269 109.5544,186.9976 108.8407,187.3972 108.0127,187.6254 107.1844,187.6254 106.3564,187.4543 105.5856,187.0827 104.9578,186.5412 104.4723,185.8552 104.1578,185.0563 101.132,173.8072 101.0181,172.9792 101.1032,172.1513 101.3886,171.3517 101.8461,170.638 102.4739,170.067 103.2155,169.6674 104.0155,169.4388 104.8719,169.4388 105.6718,169.6102 106.4427,169.9814 107.0705,170.5525 107.584,171.209 107.8984,172.0086" fill="none" stroke="black" stroke-width="0.1"/>
    <polyline points="96.6837,8.9397 97.9477,39.6377 98.2717,72.4399 98.2737,79.3049 101.8467,79.4149 101.8387,72.7769 101.4667,39.4389 100.4187,11.994" fill="none" stroke="black" stroke-width="0.1"/>
    <polyline points="102.038,87.6164 101.919,87.5697 101.336,87.4914 100.908,87.4599 99.9129,87.4329 99.2423,87.4448 98.7527,87.4703 98.2628,87.5154 97.8108,87.5903 97.5468,87.7318" fill="none" stroke="black" stroke-width="0.1"/>
    <polygon points="93.7069,93.7478 93.7069,89.3898 97.5468,87.7318 95.0298,83.8078 96.6008,77.1178 96.7725,76.9918 97.203,76.8869 98.1381,76.7765 99.4246,76.7167 100.3152,76.7145 101.1323,76.7389 101.9582,76.7956 102.6333,76.8803 103.1806,77.0254 103.3028,77.1228 104.8878,83.8468 102.2338,87.6938 106.2028,89.3898 106.2068,93.7478 105.9034,93.9057 105.4288,94.0391 104.9792,94.1247 104.4028,94.2072 103.0741,94.2844 103.0769,93.7498 102.5185,93.6146 101.893,93.478 100.0527,93.4267 98.1299,93.4814 97.2614,93.6112 96.8332,93.8095 96.8332,94.294 95.5703,94.2137 94.5933,94.0608 94.0286,93.91 93.7069,93.7478 93.7069,93.7478" fill="none" stroke="black" stroke-width="0.1"/>
    <polygon points="96.8332,93.8095 97.2614,93.6112 98.1299,93.4814 100.0527,93.4267 101.893,93.478 102.5185,93.6146 103.0769,93.7498 103.0599,96.9948 96.8332,97.0144 96.8332,93.8095 96.8332,93.8095" fill="none" stroke="black" stroke-width="0.1"/>
    <polygon points="106.897,89.7988 106.655,89.6542 106.357,89.5597 105.816,89.4405 105.115,89.3318 104.808,89.294 104.355,89.2458 103.663,89.1864 102.855,89.1344 102.158,89.102 101.31,89.076 99.815,89.0657 98.4982,89.0841 96.7319,89.1673 95.3735,89.2877 94.0873,89.4844 93.4512,89.6624 93.1989,89.7988 91.9819,90.7078 91.9979,92.1058 93.1349,92.9338 93.7024,92.9338 93.8394,92.704 94.1886,92.5475 94.9201,92.3819 95.5803,92.2859 96.2236,92.2001 97.0109,92.1536 98.0959,92.093 99.0073,92.0683 99.9056,92.059 101.251,92.0718 102.408,92.11 103.735,92.2108 104.829,92.3384 105.738,92.5196 106.12,92.6642 106.206,92.9338 106.943,92.9338 108.192,91.8418 108.182,90.6988 106.897,89.7988" fill="none" stroke="black" stroke-width="0.1"/>
    <polyline points="108.143,92.0057 107.97855292968751,91.8050345703125 107.5069234375,91.6181328125 106.7606791015625,91.4489990234375 105.7723875,91.3016375 104.5746162109375,91.1800525390625 103.19993281250001,91.0882484375 101.68090488281251,91.03022949218752 100.0501,91.01 98.41932812499999,91.03022949218752 96.900325,91.0882484375 95.525659375,91.1800525390625 94.3279,91.3016375 93.33961562500001,91.4489990234375 92.59337500000001,91.6181328125 92.121746875,91.8050345703125 91.9573,92.0057" fill="none" stroke="black" stroke-width="0.1"/>
    <polyline points="108.168,90.7078 108.00355292968752,90.5071345703125 107.5319234375,90.3202328125 106.78567910156251,90.1510990234375 105.7973875,90.0037375 104.59961621093751,89.8821525390625 103.22493281250001,89.7903484375 101.70590488281249,89.73232949218752 100.0751,89.7121 98.444328125,89.73232949218752 96.925325,89.7903484375 95.55065937500001,89.8821525390625 94.35289999999999,90.0037375 93.364615625,90.1510990234375 92.618375,90.3202328125 92.14674687499999,90.5071345703125 91.9823,90.7078" fill="none" stroke="black" stroke-width="0.1"/>
    <polyline points="106.213,93.666 106.0859388671875,93.51098007812499 105.7215296875,93.366584375 105.14493378906249,93.235908984375 104.3813125,93.12205 103.45582714843749,93.02810351562499 102.3936390625,92.95716562499999 101.2199095703125,92.91233242187499 99.9598,92.8967 98.699719140625,92.91233242187499 97.526003125,92.95716562499999 96.463816796875,93.02810351562499 95.53832499999999,93.12205 94.774692578125,93.235908984375 94.198084375,93.366584375 93.83366523437499,93.51098007812499 93.7066,93.666" fill="none" stroke="black" stroke-width="0.1"/>
    <polyline points="106.203,89.3898 105.451,89.1312 104.183,88.9396 102.866,88.8282 101.632,88.7695 99.8898,88.7428 98.0414,88.7803 96.4028,88.8799 95.1385,89.0221 94.1397,89.227 93.7712,89.3868" fill="none" stroke="black" stroke-width="0.1"/>
    <polyline points="102.133,87.6404 101.86,87.5464 101.399,87.4767 100.92,87.4362 100.471,87.4148 99.8372,87.4051 99.165,87.4188 98.569,87.455 98.1092,87.5067 97.746,87.5812 97.612,87.6393" fill="none" stroke="black" stroke-width="0.1"/>
    <polyline points="104.778,83.7578 104.196,83.5579 103.216,83.4097 102.198,83.3236 101.244,83.2782 99.8966,83.2576 98.4675,83.2866 97.2006,83.3636 96.2231,83.4735 95.4509,83.6319 95.166,83.7555" fill="none" stroke="black" stroke-width="0.1"/>
    <polygon points="94.9941,97.0346 97.2486,96.5313 98.8202,96.3557 101.109,96.3784 102.593,96.5336 104.815,97.0346 105.33,97.2348 105.829,97.62 106.071,98.0771 106.156,98.4624 105.679,106.497 105.586,106.856 105.271,107.37 104.844,107.656 104.559,107.741 104.158,107.57 103.674,107.513 102.217,107.399 100.39,107.342 99.4192,107.342 98.4774,107.37 96.821,107.456 95.6052,107.59 95.2794,107.741 94.9941,107.656 94.5373,107.37 94.2512,106.914 94.1089,106.513 93.7093,98.6338 93.7513,98.2482 93.9663,97.7487 94.4514,97.2632 94.9941,97.0346" fill="none" stroke="black" stroke-width="0.1"/>
    <polygon points="96.8332,107.874 96.9488,107.77 97.4041,107.669 98.3149,107.599 99.2064,107.55 100.072,107.538 101.003,107.559 101.794,107.576 102.527,107.703 102.866,107.783 103.062,107.874 103.062,110.198 96.8332,110.198 96.8332,107.874" fill="none" stroke="black" stroke-width="0.1"/>
	<polygon points="103.0618,110.198 102.99849238671875,110.2930258984375 102.81693909375001,110.3815509375 102.52969444140625,110.46167363281249 102.14931275,110.53149250000001 101.68834833984376,110.5891060546875 101.15935553125,110.63261281250001 100.57488864453126,110.6601112890625 99.947502,110.6697 99.32011670507812,110.6601112890625 98.735650265625,110.63261281250001 98.20665722460937,110.5891060546875 97.745692125,110.53149250000001 97.36530950976562,110.46167363281249 97.078063921875,110.3815509375 96.89650990429686,110.2930258984375 96.833202,110.198 96.89650990429686,110.10297410156248 97.078063921875,110.0144490625 97.36530950976562,109.9343263671875 97.745692125,109.8645075 98.20665722460937,109.8068939453125 98.735650265625,109.7633871875 99.32011670507812,109.7358887109375 99.947502,109.7263 100.57488864453126,109.7358887109375 101.15935553125,109.7633871875 101.68834833984376,109.8068939453125 102.14931275,109.8645075 102.52969444140625,109.9343263671875 102.81693909375001,110.0144490625 102.99849238671875,110.10297410156248 103.0618,110.198" fill="none" stroke="black" stroke-width="0.1"/>
    <polygon points="100.187,110.152 100.05,110.11 99.6421,110.11 99.5191,110.152 99.5191,157.716 100.187,157.716 100.187,110.152" fill="none" stroke="black" stroke-width="0.1"/>
    <circle cx="106.163" cy="179.205" r="6.49999" fill="none" stroke="black" stroke-width="0.1"/>
    <polyline points="112.153,170.553 111.8956,169.9532 111.5823,169.4393 111.1539,168.9254 110.6393,168.497 108.6125,167.1552 106.1566,165.5852 104.5869,164.6713 103.0449,163.9005 101.4749,163.2723 98.7908,162.6729 97.6203,162.4731 95.5648,162.1019" fill="none" stroke="black" stroke-width="0.1"/>
    <polyline points="93.7374,162.3304 95.5648,162.1019" fill="none" stroke="black" stroke-width="0.1"/>
    <polyline points="110.782,143.972 111.097,142.802 111.467,141.574 111.467,141.545 111.467,141.517" fill="none" stroke="black" stroke-width="0.1"/>
    <polygon points="110.639,152.509 110.639,152.3663 110.639,150.8567025390625 110.639,149.3469890625 110.639,147.83709042968752 110.639,146.32693749999999 110.639,144.8164611328125 110.639,143.3055921875 110.639,141.7942615234375 110.639,140.2824 110.4396,140.0894 110.1542,139.9468 110.04,139.9184 110.0112,139.9184 108.8688,139.747 108.1838,139.6898 107.4989,139.6043 106.8132,139.5472 106.1283,139.49 105.4146,139.4329 104.2442,139.3757 103.9589,139.4329 103.7303,139.6043 103.5873,139.8041 103.5301,140.0894 103.5301,152.632 103.7303,153.2514 104.2442,153.48 107.2707,153.2802 110.0112,152.909 110.3537,152.7659 110.639,152.509 110.639,152.509" fill="none" stroke="black" stroke-width="0.1"/>
    <polygon points="111.614,144.608 110.626,142.603 110.652,150.365 111.625,148.318 111.614,144.608" fill="none" stroke="black" stroke-width="0.1"/>
    <polygon points="94.7922,142.6 103.53,142.6 103.53,150.034 94.7922,150.034 93.818,147.32 93.7798,145.218 94.7922,142.6" fill="none" stroke="black" stroke-width="0.1"/>
    <circle cx="99.171501" cy="146.29601" r="2.92925" fill="none" stroke="black" stroke-width="0.1"/>
    <circle cx="99.171501" cy="146.29601" r="1.93" fill="none" stroke="black" stroke-width="0.1"/>
    <polygon points="92.3243,140.732 93.466,140.732 93.466,127.441 92.3243,127.441 92.3243,140.732" fill="none" stroke="black" stroke-width="0.1"/>
    <polygon points="92.3243,129.754 93.452,129.754 93.452,128.84 92.3243,128.84 92.3243,129.754" fill="none" stroke="black" stroke-width="0.1"/>
    <circle cx="92.138496" cy="154.73801" r="1.97267" fill="none" stroke="black" stroke-width="0.1"/>
    <circle cx="106.163" cy="179.205" r="3.90" fill="none" stroke="black" stroke-width="0.1"/>
    <polygon points="85.7687,129.374 86.4744,129.912 89.2046,144.862 88.9976,145.802 87.8425,146.035 87.2709,145.234 84.5788,130.351 84.9417,129.607 85.7687,129.374" fill="none" stroke="black" stroke-width="0.1"/>
    <rect x="82.631302" y="140.289" width="1.74146" height="9.7358303" fill="none" stroke="black" stroke-width="0.1"/>
    <rect x="82.916603" y="126.813" width="1.45614" height="14.5606" fill="none" stroke="black" stroke-width="0.1"/>
    <rect x="82.631302" y="147.341" width="1.74146" height="2.6837101" fill="none" stroke="black" stroke-width="0.1"/>
    <polygon points="82.6313,150.025 82.4315,149.825 82.4315,140.84 82.6313,140.84 82.6313,150.025" fill="none" stroke="black" stroke-width="0.1"/>
    <polygon points="82.4315,149.311 82.2317,149.511 82.2317,146.799 82.4315,146.428 82.4315,149.311" fill="none" stroke="black" stroke-width="0.1"/>
    <polygon points="77.749,149.511 77.5492,149.306 77.5492,146.428 77.749,146.804 77.749,149.511" fill="none" stroke="black" stroke-width="0.1"/>
    <polygon points="77.5492,140.646 82.4315,140.619 82.4315,146.428 82.2317,146.799 82.2317,149.357 82.2317,149.511 77.749,149.511 77.749,146.799 77.5492,146.428 77.5492,140.646" fill="none" stroke="black" stroke-width="0.1"/>
    <line x1="77.748901" y1="146.804" x2="82.231598" y2="146.799" fill="none" stroke="black" stroke-width="0.1"/>
    <polygon points="78.2916,127.156 82.7455,127.156 82.7455,141.031 78.2916,141.032 78.2916,127.156" fill="none" stroke="black" stroke-width="0.1"/>
    <polygon points="82.7455,139.518 78.2916,139.52 78.2916,141.032 82.7455,141.031 82.7455,139.518" fill="none" stroke="black" stroke-width="0.1"/>
    <circle cx="80.4841" cy="132.526" r="1.59577" fill="none" stroke="black" stroke-width="0.1"/>
    <polygon points="82.9166,127.242 82.7455,127.155 82.7455,139.518 82.9166,139.605 82.9166,127.242" fill="none" stroke="black" stroke-width="0.1"/>
    <polygon points="82.9166,139.591 82.7455,139.518 82.7455,141.03 82.9166,140.946 82.9166,139.591" fill="none" stroke="black" stroke-width="0.1"/>
    <polygon points="78.0918,127.243 78.2916,127.156 78.2916,139.52 78.0918,139.604 78.0918,127.243" fill="none" stroke="black" stroke-width="0.1"/>
    <polygon points="78.0918,139.604 78.2916,139.52 78.2916,141.032 78.0918,140.959 78.0918,139.604" fill="none" stroke="black" stroke-width="0.1"/>
    <rect x="76.164902" y="127.213" width="1.92659" height="13.733" fill="none" stroke="black" stroke-width="0.1"/>
    <rect x="74.238297" y="127.213" width="1.92659" height="13.733" fill="none" stroke="black" stroke-width="0.1"/>
    <rect x="74.238297" y="127.213" width="1.92659" height="0.142662" fill="none" stroke="black" stroke-width="0.1"/>
    <rect x="74.238297" y="127.927" width="1.92659" height="0.97063202" fill="none" stroke="black" stroke-width="0.1"/>
    <rect x="74.238297" y="130.145" width="1.92659" height="0.97063202" fill="none" stroke="black" stroke-width="0.1"/>
    <rect x="74.238297" y="131.724" width="1.92697" height="0.97063202" fill="none" stroke="black" stroke-width="0.1"/>
    <rect x="74.238297" y="133.408" width="1.92697" height="1.59918" fill="none" stroke="black" stroke-width="0.1"/>
    <rect x="74.238297" y="139.51801" width="1.92659" height="0.97063202" fill="none" stroke="black" stroke-width="0.1"/>
    <rect x="74.238297" y="137.299" width="1.92659" height="0.97063202" fill="none" stroke="black" stroke-width="0.1"/>
    <rect x="74.2379" y="135.72099" width="1.92697" height="0.97063202" fill="none" stroke="black" stroke-width="0.1"/>
    <rect x="76.164902" y="127.213" width="1.92659" height="0.142662" fill="none" stroke="black" stroke-width="0.1"/>
    <rect x="76.164902" y="127.927" width="1.92659" height="0.97063202" fill="none" stroke="black" stroke-width="0.1"/>
    <rect x="76.164902" y="130.145" width="1.92659" height="0.97063202" fill="none" stroke="black" stroke-width="0.1"/>
    <rect x="76.164902" y="131.724" width="1.92697" height="0.97063202" fill="none" stroke="black" stroke-width="0.1"/>
    <rect x="76.164902" y="133.408" width="1.92697" height="1.59918" fill="none" stroke="black" stroke-width="0.1"/>
    <rect x="76.164902" y="139.51801" width="1.92659" height="0.97063202" fill="none" stroke="black" stroke-width="0.1"/>
    <rect x="76.164902" y="137.299" width="1.92659" height="0.97063202" fill="none" stroke="black" stroke-width="0.1"/>
    <rect x="76.164497" y="135.72099" width="1.92697" height="0.97063202" fill="none" stroke="black" stroke-width="0.1"/>
    <line x1="74.238197" y1="134.205" x2="71.981003" y2="134.205" fill="none" stroke="black" stroke-width="0.1"/>
    <polygon points="102.778,177.251 106.163,175.297 109.548,177.251 109.548,181.16 106.163,183.114 102.778,181.16 102.778,177.251" fill="none" stroke="black" stroke-width="0.1"/>
    <polygon points="97.5179,145.342 99.1714,144.387 100.825,145.342 100.825,147.251 99.1717,148.206 97.518,147.251 97.5179,145.342" fill="none" stroke="black" stroke-width="0.1"/>
    <circle id="center_00" cx="74.208801" cy="134.205" r="14.9999" fill="none" stroke="black" stroke-width="0.1"/>
</svg>

