<svg version="1.0" xmlns="http://www.w3.org/2000/svg">
    <polygon points="65.7813,216.014 65.8962,216.019 65.9864,216.025 66.1471,216.043 66.4309,216.096 66.9213,216.251 67.4394,216.521 67.8992,216.882 68.2853,217.32 68.5845,217.82 68.7868,218.368 68.8855,218.942 69.4363,225.899 69.4194,226.563 69.2643,227.212 68.9788,227.812 68.5727,228.34 68.0646,228.772 67.4799,229.089 66.8388,229.277 66.1745,229.329 56.089,229.254 46.0072,229.543 40.0157,229.895 37.0239,230.117 34.0345,230.369 23.0963,231.559 15.5327,232.646 8.0014,233.938 7.3368,233.991 6.6738,233.905 6.0463,233.684 5.4769,233.338 4.9927,232.879 4.6167,232.333 4.3616,231.717 4.2406,231.063 3.6899,224.106 3.6891,224.095 3.6884,224.086 3.6873,224.07 3.6855,224.042 3.6829,223.992 3.6802,223.902 3.6818,223.741 3.7049,223.453 3.8107,222.951 4.0275,222.409 4.3399,221.916 4.7373,221.488 5.2066,221.14 5.7318,220.883 6.2951,220.726 14.0987,219.406 21.9352,218.297 32.8737,217.108 35.8631,216.856 38.8549,216.634 44.8464,216.281 55.3115,215.96" fill="none" stroke="black" stroke-width="0.1"/>
    <polygon points="8.5592,233.527 11.2755,233.048 15.7995,232.298 23.07,231.258 34.0093,230.068 36.998,229.816 39.9893,229.594 45.9814,229.242 55.7725,228.955 65.5674,229.011 66.1883,228.959 66.787,228.779 67.3345,228.484 67.8105,228.081 68.1871,227.585 68.4526,227.023 68.5992,226.417 68.6173,225.795 68.1894,220.39 68.1798,220.029 67.9851,218.973 67.7633,218.476 67.4515,218.015 67.0473,217.614 66.5558,217.296 65.9963,217.086 65.3993,217.005 55.1641,216.963 44.9335,217.279 38.9414,217.63 35.9502,217.853 32.9614,218.105 22.0228,219.295 14.4128,220.369 6.8338,221.644 6.2521,221.821 5.7361,222.115 5.3012,222.506 4.9649,222.968 4.7312,223.47 4.5902,223.999 4.5365,224.532 4.5659,225.068 4.6135,225.426 5.0413,230.831 5.1569,231.441 5.3972,232.017 5.7479,232.531 6.1979,232.961 6.7312,233.284 7.3184,233.49 7.9378,233.572" fill="none" stroke="black" stroke-width="0.1"/>
    <line x1="30.6072" y1="225.624" x2="30.5917" y2="225.447" fill="none" stroke="black" stroke-width="0.1"/>
    <polygon points="17.6431,223.233 17.8668,223.201 18.5958,223.298 19.2204,223.685 19.6302,224.294 19.7152,224.572 19.7536,224.887 19.6662,225.487 19.3784,226.021 18.9248,226.425 18.3602,226.649 17.7528,226.668 17.1756,226.478 16.6985,226.103 16.3789,225.588 16.2554,224.995 16.2559,224.875 16.342,224.397 16.6285,223.863 17.0803,223.459" fill="none" stroke="black" stroke-width="0.1"/>
    <polyline points="16.2559,224.875 16.2924,225.0153 16.3408,225.1526 16.7081,225.7187 17.2636,226.1048 17.9242,226.2508 18.591099999999997,226.1362 19.164599999999997,225.7769 19.558899999999998,225.22840000000002 19.7152,224.5723" fill="none" stroke="black" stroke-width="0.1"/>
    <polygon points="16.2559,224.875" fill="none" stroke="black" stroke-width="0.1"/>
    <polyline points="17.8668,223.201 17.7544,223.2128 17.6431,223.2326" fill="none" stroke="black" stroke-width="0.1"/>
    <polygon points="17.8668,223.201" fill="none" stroke="black" stroke-width="0.1"/>
    <line x1="68.8856" y1="218.942" x2="68.8647" y2="218.94" fill="none" stroke="black" stroke-width="0.1"/>
    <polygon points="54.9771,220.276 54.7512,220.279 54.123,220.45 53.6007,220.838 53.2569,221.39 53.139,222.029 53.2634,222.666 53.5829,223.181 54.0601,223.556 54.6372,223.747 55.2446,223.728 55.8093,223.503 56.2629,223.099 56.5507,222.565 56.6381,221.965 56.5996,221.651 56.5146,221.372 56.1579,220.817 55.6197,220.432" fill="none" stroke="black" stroke-width="0.1"/>
    <polyline points="56.5996,221.651 56.443400000000004,222.30710000000002 56.04900000000001,222.85660000000001 55.47560000000001,223.21490000000003 54.808600000000006,223.32950000000002 54.14810000000001,223.18350000000004 53.592600000000004,222.79840000000004 53.225300000000004,222.23130000000003 53.17700000000001,222.09400000000002 53.1403,221.95360000000002" fill="none" stroke="black" stroke-width="0.1"/>
    <polygon points="56.5996,221.651" fill="none" stroke="black" stroke-width="0.1"/>
    <polyline points="54.9771,220.276 54.8641,220.27380000000002 54.7512,220.27970000000002" fill="none" stroke="black" stroke-width="0.1"/>
    <polygon points="54.9771,220.276" fill="none" stroke="black" stroke-width="0.1"/>
    <polyline points="68.1894,220.39 61.584,220.2582 54.751200000000004,220.2798 49.986000000000004,220.3905 45.223200000000006,220.5793 39.231100000000005,220.93189999999998 36.2398,221.15349999999998 33.2511,221.40589999999997 22.3118,222.59589999999997 20.0877,222.88979999999998 17.6431,223.23319999999998 11.1156,224.255 4.6135,225.4261" fill="none" stroke="black" stroke-width="0.1"/>
    <polygon points="68.18939999999999,220.39" fill="none" stroke="black" stroke-width="0.1"/>
    <polyline points="33.7681,227.461 33.7722,227.4908 33.779599999999995,227.5192" fill="none" stroke="black" stroke-width="0.1"/>
    <polygon points="33.7681,227.461" fill="none" stroke="black" stroke-width="0.1"/>
    <polygon points="26.5859,104.952 25.2712,87 18.2898,87.5112 19.6046,105.463" fill="none" stroke="black" stroke-width="0.1"/>
    <polygon points="21.1006,105.354 25.0898,105.062 27.6273,139.709 23.6419,139.984" fill="none" stroke="black" stroke-width="0.1"/>
    <polygon points="29.2338,139.724 29.786099999999998,140.00359999999998 30.350599999999996,140.37449999999998 30.350599999999996,140.37449999999998 30.649199999999997,140.6768 30.854799999999997,140.71189999999999 31.001199999999997,140.74579999999997 31.091299999999997,140.77849999999998 31.144999999999996,140.8353 31.144999999999996,149.3353 20.867099999999994,149.3353 20.868999999999993,140.8106 20.898299999999992,140.77849999999998 20.98839999999999,140.74579999999997 21.13479999999999,140.71189999999999 21.340399999999992,140.6768 21.638999999999992,140.37449999999998 21.638999999999992,140.37449999999998 22.20349999999999,140.00359999999998 22.75579999999999,139.724 23.029173632812487,139.61292382812496 23.302839062499988,139.505365625 23.57757558593749,139.40289335937499 23.854162499999987,139.307075 24.13337910156249,139.21947851562498 24.416004687499992,139.141671875 24.70281855468749,139.07522304687498 24.99459999999999,139.02169999999998 24.992699999999992,141.97199999999998 26.99309999999999,141.97199999999998 26.99499999999999,139.02169999999998 27.28675683593749,139.0752271484375 27.57356718749999,139.14168593749997 27.85620332031249,139.21950488281246 28.135437499999988,139.30711249999996 28.41204199218749,139.40293730468747 28.68678906249999,139.50540781249998 28.96045097656249,139.61295253906246 29.23379999999999,139.724" fill="none" stroke="black" stroke-width="0.1"/>
    <polygon points="22.5195,265.456 22.5195,257.950310546875 22.5195,247.71862187500003 22.5195,235.669603515625 22.5195,222.711925 22.5195,209.754255859375 22.5195,197.70526562500004 22.5195,187.47362382812503 22.5195,179.96800000000002 26.538600000000002,179.86550000000003 26.225500000000004,228.88060000000002 32.242000000000004,241.03250000000003 36.51950000000001,241.03250000000003 38.01950000000001,241.03250000000003 38.01950000000001,265.456 22.519500000000008,265.456" fill="none" stroke="black" stroke-width="0.1"/>
    <polyline points="31.0988,245.838 31.647000000000002,245.8082" fill="none" stroke="black" stroke-width="0.1"/>
    <polyline points="31.647000000000002,245.8082 31.9358,245.9097 32.0681,246.18529999999998" fill="none" stroke="black" stroke-width="0.1"/>
    <polyline points="32.0681,246.18529999999998 32.0681,246.26819999999998" fill="none" stroke="black" stroke-width="0.1"/>
    <polygon points="30.5311,201.436 30.519599999999997,152.0961 30.519599999999997,151.5876 30.489499999999996,151.4006 30.445299999999996,151.2842 30.392399999999995,151.1963 30.326999999999995,151.11880000000002 30.269499999999994,151.06750000000002 30.208299999999994,151.02450000000002 30.161199999999994,150.9977 30.112699999999993,150.9755 30.039099999999994,150.9472 28.899699999999996,150.61970000000002 28.735199999999995,150.54410000000001 28.607099999999996,150.4437 28.499199999999995,150.3176 28.408799999999996,150.1716 28.342099999999995,150.01510000000002 28.300199999999997,149.84720000000002 28.284599999999998,149.6706 28.284499999999998,140.5876 28.2641185546875,140.38537734375 28.2056921875,140.19704374999998 28.1132978515625,140.02662578125 27.991012499999997,139.87815 27.842913085937496,139.75564296875 27.673076562499997,139.66313125 27.485579882812498,139.60464140625 27.284499999999998,139.5842 24.563899999999997,139.5833 24.563899999999997,152.0146 22.519499999999997,152.0146 22.519499999999997,153.2434064453125 22.519499999999997,154.4395140625 22.519499999999997,155.6138177734375 22.519499999999997,156.7772125 22.519499999999997,157.9405931640625 22.519499999999997,159.1148546875 22.519499999999997,160.31089199218752 22.519499999999997,161.5396 22.519499999999997,167.66330000000002 22.519499999999997,173.81350000000003 22.519499999999997,180.18070000000003 22.5555,180.32080000000002 22.598499999999998,180.4336 22.8541,180.88240000000002 22.9137,181.12240000000003 22.962799999999998,181.36110000000002 23.0034,181.59290000000001 23.1971,182.3152 23.3264,183.0867 23.4159,183.9058 23.4773,184.8543 23.5199,186.1015 23.5195,243.17059999999998 28.2999,241.03249999999997 38.0195,241.03249999999997 38.0195,243.17059999999998 40.5195,243.17059999999998 41.5777,243.05749999999998 42.588,242.72329999999997 43.5046,242.18319999999997 44.285900000000005,241.46169999999998 44.89660000000001,240.5914 45.30890000000001,239.6118 45.46660000000001,238.90269999999998 45.51950000000001,238.17819999999998 45.51950000000001,211.21939999999998 45.51950000000001,210.97089999999997 45.46660000000001,210.24639999999997 45.30890000000001,209.53729999999996 44.89660000000001,208.55769999999995 44.285900000000005,207.68739999999997 43.5046,206.96589999999998 42.588,206.42579999999998 41.5777,206.09159999999997 40.5195,205.97849999999997 35.5195,205.97849999999997 34.4432,205.86149999999998 33.4175,205.5159 32.4843,204.9603 32.3116,204.8225 32.1461,204.6789 31.987699999999997,204.5294 31.837299999999995,204.3751 31.693399999999997,204.2143 31.559699999999996,204.0526 31.342399999999994,203.75560000000002 31.103999999999996,203.3659 30.905999999999995,202.96390000000002 30.730099999999997,202.49070000000003 30.613299999999995,202.03670000000002 30.586599999999994,201.89460000000003 30.573099999999993,201.81110000000004 30.573099999999993,201.81100000000004 30.573099999999993,201.81100000000004 30.573099999999993,201.81100000000004 30.572999999999993,201.81100000000004 30.572999999999993,201.81090000000003 30.572999999999993,201.81070000000003 30.572899999999994,201.8103 30.572799999999994,201.8095 30.572599999999994,201.80800000000002 30.572099999999995,201.80490000000003 30.571199999999994,201.79870000000003 30.569299999999995,201.7863 30.565799999999996,201.76180000000002 30.559099999999997,201.71310000000003 30.547599999999996,201.61800000000002 30.531099999999995,201.43600000000004" fill="none" stroke="black" stroke-width="0.1"/>
    <polygon points="43.5195,234.461 43.5195,213.244 43.3941,212.133 43.0243,211.078 42.4286,210.131 41.6369,209.341 40.6889,208.746 39.6321,208.376 38.5195,208.251 35.5195,208.251 34.376,208.259 33.2931,208.28 32.3283,208.315 31.5326,208.361 30.9482,208.416 30.6278,208.47 30.5195,208.528 30.5198,208.997 30.3724,209.007 30.0196,209.015 30.0195,239.399 38.4782,239.399 39.2905,239.367 39.6321,239.329 40.6889,238.959 41.6369,238.365 42.4286,237.574 43.0243,236.627 43.3941,235.572" fill="none" stroke="black" stroke-width="0.1"/>
    <polygon points="33.5195,233.089 33.5195,214.3113 33.621700000000004,213.536 33.6591625,213.4457 33.696625,213.35539999999997 33.7340875,213.2651 33.771550000000005,213.1748 33.80901250000001,213.08450000000002 33.84647500000001,212.99420000000003 33.88393750000001,212.90390000000002 33.921400000000006,212.8136 34.3982,212.19320000000002 35.0195,211.71720000000002 35.743,211.418 36.5195,211.3159 37.2959,211.418 38.0195,211.71720000000002 38.6408,212.19320000000002 39.117599999999996,212.8136 39.4173,213.536 39.5195,214.3113 39.5195,233.089 39.5195,233.2823 39.3984,234.1246 39.045100000000005,234.8989 38.4879,235.5428 37.7719,236.0042 36.9548,236.246 36.102599999999995,236.2487 35.28399999999999,236.01190000000003 34.56519999999999,235.55490000000003 34.00399999999999,234.91460000000004 33.645799999999994,234.14240000000004 33.551199999999994,233.71700000000004 33.519499999999994,233.08900000000006" fill="none" stroke="black" stroke-width="0.1"/>
    <polygon points="36.5195,240.09 36.5195,241.033 36.5195,252.561 24.5195,252.561 24.338,252.524 24.1779,252.43 23.8882,252.101 23.69,251.719 23.5197,250.908 23.5195,241.191 23.6535,240.722 24.0195,240.378 24.5195,240.252 30.0195,240.252 30.0195,240.456 30.0195,239.399 35.0195,239.399 35.0195,240.035 35.0341,240.037 35.1452,240.057 35.1452,240.057 35.5378,240.077 35.9761,240.087" fill="none" stroke="black" stroke-width="0.1"/>
    <line x1="24.5195" y1="249.223" x2="36.5195" y2="249.223" fill="none" stroke="black" stroke-width="0.1"/>
    <polygon points="35.5903,246.938 35.5912,246.936 35.9088,246.133 36.0195,245.241 35.9825,244.699 35.8721,244.202 35.5027,243.378 34.934,242.676 34.2042,242.143 33.3619,241.814 32.4633,241.712 31.5685,241.843 30.7372,242.198 30.0249,242.755 29.4791,243.475 29.1364,244.31 29.0322,245.109 29.0195,245.206 29.0198,245.31 29.1652,246.254 29.1803,246.304 29.1889,246.336 29.245,246.505 29.3153,246.668 29.3411,246.721 29.3681,246.773 29.4193,246.881 29.4747,246.986 29.5659,247.138 29.6657,247.286 29.7725,247.428 29.8861,247.565 30.0066,247.695 30.1337,247.82 30.267,247.938 30.406,248.048 30.5505,248.152 30.7001,248.249 30.8544,248.337 31.013,248.418 31.1755,248.49 31.3415,248.554 31.5105,248.609 31.6821,248.656 31.8559,248.696 32.0314,248.724 32.1189,248.733 32.2071,248.741 32.295,248.749 32.3388,248.751 32.4265,248.755 32.4704,248.755 32.5582,248.756 32.6021,248.755 32.6559,248.753 32.7096,248.751 32.7973,248.745 32.8847,248.737 32.9283,248.732 33.0154,248.721 33.0588,248.714 33.1021,248.707 33.2062,248.688 33.304,248.668 33.4009,248.645 33.5718,248.597 33.7401,248.539 33.9052,248.472 34.0667,248.398 34.2242,248.315 34.3773,248.225 34.5256,248.127 34.6687,248.021 34.8062,247.908 34.9379,247.789 35.0635,247.663 35.1822,247.531 35.2935,247.392 35.399,247.249 35.4987,247.101 35.586,246.947 35.5882,246.942" fill="none" stroke="black" stroke-width="0.1"/>
    <polygon points="32.1244,247.302 32.6214,247.334 33.123,247.248 33.7077,246.95 34.1645,246.48 34.4442,245.887 34.5165,245.236 34.3738,244.596 34.0314,244.037 33.5262,243.618 32.9125,243.386 32.4108,243.365 31.914,243.441 31.33,243.739 30.8738,244.209 30.5947,244.802 30.5224,245.452 30.665,246.092 31.0069,246.65 31.5115,247.069" fill="none" stroke="black" stroke-width="0.1"/>
    <polygon points="31.8312,241.835 31.831,241.8351 31.9677,244.3451 31.9703,244.3912 31.9703,244.4741 31.8687,244.76239999999999 31.5927,244.8946 31.0445,244.9243 31.0988,245.9213 31.647000000000002,245.8916 31.9358,245.99300000000002 32.0642,246.26050000000004 32.0681,246.26870000000002 32.207300000000004,248.74140000000003 32.295,248.74880000000002 32.3388,248.75140000000002 32.4265,248.75480000000002 32.4704,248.75570000000002 32.5582,248.75580000000002 32.6021,248.75500000000002 32.6559,248.75340000000003 32.7096,248.75080000000003 32.7973,248.74500000000003 32.8847,248.73690000000002 32.9283,248.73210000000003 33.0154,248.72070000000002 33.0588,248.71420000000003 33.1021,248.70720000000003 33.2062,248.68830000000003 33.2044,248.67500000000004 33.2044,248.67500000000004 33.1846935546875,248.36762187500003 33.1662046875,248.06013125000004 33.1486791015625,247.75255625000003 33.1318625,247.44492500000004 33.115500585937504,247.13726562500005 33.09933906250001,246.82960625000004 33.0831236328125,246.52197500000003 33.0666,246.21440000000004 33.1683,245.92610000000005 33.444300000000005,245.79390000000004 33.992200000000004,245.76410000000004 33.940200000000004,244.76700000000005 33.39000000000001,244.79690000000005 33.13830000000001,244.72490000000005 32.98510000000001,244.51280000000006 32.96890000000001,244.41980000000007 32.95106816406251,244.09574453125006 32.93302656250002,243.77165625000006 32.91496855468751,243.44753984375006 32.89708750000001,243.12340000000006 32.87957675781251,242.79924140625005 32.86262968750001,242.47506875000008 32.84643964843751,242.15088671875006 32.83120000000001,241.82670000000007 32.82950000000001,241.78040000000007 32.74200000000001,241.77370000000008 32.65430000000001,241.76930000000007 32.61040000000001,241.76780000000008 32.52260000000001,241.76670000000007 32.47870000000001,241.76690000000008 32.43480000000001,241.76770000000008 32.32930000000001,241.77190000000007 32.28550000000001,241.77450000000007 32.241700000000016,241.77770000000007 32.15430000000001,241.78580000000008 32.110700000000016,241.79060000000007 32.023600000000016,241.80200000000008 31.980200000000018,241.80850000000007 31.905500000000018,241.82090000000008 31.831200000000017,241.8350000000001" fill="none" stroke="black" stroke-width="0.1"/>
    <polyline points="31.0988,245.838 31.647000000000002,245.8082" fill="none" stroke="black" stroke-width="0.1"/>
    <polyline points="31.647000000000002,245.8082 31.9358,245.9097 32.0681,246.18529999999998" fill="none" stroke="black" stroke-width="0.1"/>
    <polyline points="32.0681,246.18529999999998 32.0681,246.26819999999998" fill="none" stroke="black" stroke-width="0.1"/>
    <polyline points="33.0661,246.11 33.175599999999996,245.83530000000002 33.4443,245.71120000000002" fill="none" stroke="black" stroke-width="0.1"/>
    <polyline points="33.989999999999995,245.68150000000003 33.4443,245.71120000000002" fill="none" stroke="black" stroke-width="0.1"/>
    <polyline points="33.0661,246.1928 33.0661,246.11" fill="none" stroke="black" stroke-width="0.1"/>
    <polyline points="30.5195,208.528 30.531100000000002,201.4363" fill="none" stroke="black" stroke-width="0.1"/>
    <polyline points="30.0195,180.707 30.0195,195.7738 30.0196,209.015" fill="none" stroke="black" stroke-width="0.1"/>
    <polyline points="23.0195,152.015 23.0195,154.22 23.0195,160.752 23.0195,167.335 23.0195,173.947 23.0195,180.56 23.3244,180.858 23.5377,181.169 23.700100000000003,181.47400000000002 23.847800000000003,181.81600000000003 24.068500000000004,182.48100000000002 24.232700000000005,183.16500000000002" fill="none" stroke="black" stroke-width="0.1"/>
    <polygon points="23.019500000000004,152.01500000000001" fill="none" stroke="black" stroke-width="0.1"/>
    <polyline points="28.1939,151.404 27.604499999999998,151.1363 27.1222,150.6853 26.8055,150.09380000000002 26.6939,149.42210000000003 26.6939,148.42050390625002 26.6939,147.41889375000005 26.6939,146.41727421875004 26.6939,145.41565000000003 26.6939,144.41402578125002 26.6939,143.41240625 26.6939,142.41079609375004 26.6939,141.40920000000003" fill="none" stroke="black" stroke-width="0.1"/>
    <polygon points="44.0194,243.632 44.0194,264.2319 43.9990228515625,264.43300859374995 43.9406078125,264.62051875 43.84822949218749,264.79035703125 43.725962499999994,264.93845 43.5778814453125,265.06072421875 43.4080609375,265.15310625 43.220575585937496,265.21152265625 43.0195,265.2319 38.0195,265.23199999999997 38.0195,242.63199999999998 43.0195,242.63199999999998 43.220575585937496,242.65234453124998 43.4080609375,242.7107375 43.5778814453125,242.80310546874998 43.725962499999994,242.92537499999997 43.84822949218749,243.07347265624995 43.9406078125,243.24332499999997 43.9990228515625,243.43085859374997 44.0194,243.63199999999998" fill="none" stroke="black" stroke-width="0.1"/>
    <polyline points="43.0195,246.594 43.0195,246.098733203125 43.0195,245.603459375 43.0195,245.10818085937498 43.0195,244.6129 43.0195,244.117619140625 43.0195,243.622340625 43.0195,243.127066796875 43.0195,242.6318" fill="none" stroke="black" stroke-width="0.1"/>
    <polyline points="43.0195,265.232 43.0195,265.11800000000005 43.0195,264.78000000000003 43.0195,264.225 43.0195,263.46200000000005 43.0195,262.50900000000007 43.0195,261.3830000000001" fill="none" stroke="black" stroke-width="0.1"/>
    <polygon points="43.0195,265.2320000000001" fill="none" stroke="black" stroke-width="0.1"/>
    <polygon points="19.0195,263.403 19.0212439453125,263.405022265625 19.023045312500003,263.40712187500003 19.0248208984375,263.409198046875 19.0264875,263.41115 19.0279619140625,263.412876953125 19.0291609375,263.414278125 19.0300013671875,263.41525273437503 19.0304,263.4157 19.0304,263.4157 19.392250000000004,263.78765859375 19.779056250000004,264.12831875 20.188953125,264.43641953125 20.620075,264.71070000000003 21.070556250000003,264.94989921875 21.538531250000002,265.15275625 22.022134375000004,265.31801015625007 22.5195,265.44440000000003 22.5195,265.44440000000003 22.5195,262.56704960937503 22.5195,259.689678125 22.5195,256.812292578125 22.5195,253.93490000000003 22.5195,251.05750742187502 22.5195,248.18012187500003 22.5195,245.30275039062502 22.5195,242.42540000000002 22.5195,242.42540000000002 22.0209833984375,242.5619255859375 21.5348734375,242.73779218750002 21.0638923828125,242.95118457031253 20.6107625,243.20028750000003 20.1782060546875,243.48328574218752 19.7689453125,243.7983640625 19.3857025390625,244.14370722656253 19.031200000000002,244.5175 19.031200000000002,244.5175 19.030574218750004,244.5182119140625 19.029231250000002,244.5197828125 19.027410156250003,244.5219279296875 19.025350000000003,244.5243625 19.023289843750003,244.5268017578125 19.021468750000004,244.52896093750002 19.02012578125,244.5305552734375 19.0195,244.53130000000002 19.0195,244.53130000000002 19.0195,246.89024609375002 19.0195,249.24920625000001 19.0195,251.60817578125003 19.0195,253.96715 19.0195,256.32612421875 19.0195,258.68509375 19.0195,261.04405390625004 19.0195,263.403" fill="none" stroke="black" stroke-width="0.1"/>
    <polygon points="19.0195,248.008 19.015026953125002,248.0088640625 19.005934375,248.0107125 18.993762109375,248.0132171875 18.98005,248.01605 18.966337890625,248.0188828125 18.954165625,248.0213875 18.945073046875,248.0232359375 18.9406,248.0241 18.9406,248.0241 18.345704296875,248.159564453125 17.770559374999998,248.359278125 17.220253515625,248.619446484375 16.699875,248.93627500000002 16.214512109375,249.305969140625 15.769253124999999,249.72473437500003 15.369186328125,250.18877617187496 15.019400000000001,250.6943 15.019400000000001,250.6943 15.019404296875,251.509344140625 15.019415625,252.321596875 15.019431640625001,253.131988671875 15.01945,253.94145 15.019468359375,254.750911328125 15.019484375000001,255.56130312499997 15.019495703125001,256.373555859375 15.0195,257.1886 15.0195,257.1886 15.021357617187501,257.19147285156254 15.024535937500001,257.19628281250004 15.0285931640625,257.2023794921875 15.0330875,257.20911250000006 15.037577148437501,257.2158314453125 15.041620312500001,257.22188593749996 15.0447751953125,257.22662558593754 15.046600000000002,257.2294 15.046600000000002,257.2294 15.402586132812502,257.73093847656247 15.808045312500003,258.19091406250004 16.2583287109375,258.60544199218754 16.7487875,258.9706375 17.274772851562503,259.28261582031246 17.8316359375,259.5374921875 18.414727929687498,259.7313818359375 19.0194,259.86039999999997 19.0195,248.00799999999998" fill="none" stroke="black" stroke-width="0.1"/>
    <polygon points="30.5214,225.256 30.5352,224.111 30.7662,222.989 31.2061,221.932 31.8389,220.977 32.6416,220.159 33.5851,219.508 34.6352,219.047 35.7536,218.794 36.8998,218.757 38.0791,218.951 39.1968,219.373 40.209,220.007 41.0758,220.828 41.763,221.804 42.2435,222.897 42.4984,224.063 42.5176,225.256 42.4518,226.001 31.233,226.085" fill="none" stroke="black" stroke-width="0.1"/>
    <polygon points="30.7738,226.829 31.0891,227.65 31.5216,228.416 31.9794,229.017 32.9192,229.892 34.0241,230.547 35.2436,230.952 36.0772,231.052 36.8594,231.086 37.7055,230.971 38.9247,230.587 40.0347,229.955 40.9851,229.102 41.4956,228.448 42.11,227.278 42.4518,226.001 42.5176,225.256 42.5044,224.681 42.2652,223.381 41.8497,222.358 41.2528,221.428 40.4947,220.623 39.6012,219.971 38.6028,219.493 37.5334,219.207 36.4295,219.122 35.3286,219.24 34.2683,219.558 33.2847,220.065 32.4112,220.744 31.6777,221.571 31.109,222.518 30.7246,223.554 30.5375,224.642 30.5214,225.256 30.5541,225.746" fill="none" stroke="black" stroke-width="0.1"/>
    <polygon points="32.9955,226.999 33.3198,227.755 33.8044,228.419 34.4253,228.96 35.1511,229.349 35.9456,229.567 36.7688,229.604 37.5796,229.457 38.3372,229.133 39.0036,228.65 39.5455,228.031 39.9356,227.307 40.1544,226.514 40.191,225.693 40.0435,224.885 39.7192,224.129 39.2345,223.464 38.6137,222.924 37.8879,222.535 37.0934,222.317 36.2701,222.28 35.4594,222.427 34.7018,222.75 34.0354,223.234 33.4935,223.853 33.1034,224.577 32.8846,225.369 32.848,226.19" fill="none" stroke="black" stroke-width="0.1"/>
    <polygon points="36.6476,222.545 39.4341,224.181 39.5067,224.254 39.5327,224.354 39.5061,227.579 39.4784,227.678 39.4046,227.751 36.5914,229.34 36.4912,229.366 36.3914,229.338 33.6048,227.703 33.5489,227.654 33.5147,227.589 33.5063,227.529 33.5329,224.305 33.5605,224.205 33.6343,224.133 36.4476,222.544 36.5478,222.518" fill="none" stroke="black" stroke-width="0.1"/>
    <line x1="30.5195" y1="225.105" x2="30.5195" y2="224.927" fill="none" stroke="black" stroke-width="0.1"/>
    <line x1="39.5061" y1="227.258" x2="39.5061" y2="227.579" fill="none" stroke="black" stroke-width="0.1"/>
    <line x1="36.5914" y1="228.489" x2="36.5914" y2="229.34" fill="none" stroke="black" stroke-width="0.1"/>
    <polyline points="33.5147,226.739 33.526799999999994,226.7698 33.56029999999999,226.8179 33.56588300781249,226.82221250000003 33.57145781249999,226.826525 33.577025585937484,226.8308375 33.58258749999999,226.83515 33.58814472656249,226.83946250000002 33.59369843749999,226.843775 33.599249804687496,226.8480875 33.60479999999999,226.85240000000002 34.18209999999999,227.1793 34.787699999999994,227.5299 35.466699999999996,227.9297 35.809099999999994,228.134 36.14919999999999,228.33939999999998 36.39139999999999,228.4876 36.42539999999999,228.50429999999997 36.47949999999999,228.51609999999997 36.538299999999985,228.51099999999997 36.591399999999986,228.48929999999996 37.174199999999985,228.14819999999995 37.78559999999999,227.79799999999994 38.471099999999986,227.41209999999995 38.816799999999986,227.22029999999995 39.160099999999986,227.03219999999996 39.40459999999999,226.90009999999995 39.43539999999999,226.87939999999995 39.47219999999999,226.83889999999994 39.49749999999999,226.78539999999992 39.50609999999999,226.72809999999993" fill="none" stroke="black" stroke-width="0.1"/>
    <polyline points="33.5083,227.21 33.5098,227.24 33.5147,227.269" fill="none" stroke="black" stroke-width="0.1"/>
    <polygon points="33.5083,227.21" fill="none" stroke="black" stroke-width="0.1"/>
    <polygon points="22.5639,150.964 22.5679779296875,151.00420449218748 22.5796671875,151.04169843749997 22.5981509765625,151.0756650390625 22.622612500000002,151.1052875 22.6522349609375,151.12974902343748 22.686201562500003,151.1482328125 22.7236955078125,151.1599220703125 22.7639,151.164 24.5639,151.164 24.5639,151.057 24.5639,149.561158203125 24.5639,148.065309375 24.5639,146.56945585937498 24.5639,145.0736 24.5639,143.577744140625 24.5639,142.081890625 24.5639,140.58604179687498 24.5639,139.09019999999998 22.7639,139.09019999999998 22.7236955078125,139.09427792968748 22.686201562500003,139.10596718749997 22.6522349609375,139.12445097656249 22.622612500000002,139.14891249999997 22.5981509765625,139.17853496093747 22.5796671875,139.2125015625 22.5679779296875,139.24999550781249 22.5639,139.29019999999997 22.5639,141.20629999999997 22.5639,150.96399999999997" fill="none" stroke="black" stroke-width="0.1"/>
    <polygon points="31.0375,150.059 30.1922,150.12709999999998 30.151966796875,150.12302617187498 30.114459375000003,150.11134687499998 30.080491015625,150.092875390625 30.050875,150.068425 30.026424609375,150.03880898437498 30.007953125,150.00484062499999 29.996273828125,149.967333203125 29.9922,149.9271 29.9922,140.3271 29.996273828125,140.28686679687502 30.007953125,140.249359375 30.026424609375,140.21539101562502 30.050875,140.18577500000004 30.080491015625,140.16132460937501 30.114459375000003,140.14285312500002 30.151966796875,140.13117382812501 30.1922,140.1271 30.8838,140.1271 30.9093638671875,140.12875546875003 30.9342609375,140.1336125 30.958199414062502,140.14150703125 30.9808875,140.15227500000003 31.0020333984375,140.16575234375 31.0213453125,140.18177500000002 31.0385314453125,140.20017890625002 31.0533,140.22080000000003 31.1084,140.30160000000004 31.2661337890625,140.56222246093753 31.418876562499996,140.83657343750005 31.564965429687497,141.12174082031254 31.702737499999998,141.41481250000004 31.8305298828125,141.71287636718753 31.9466796875,142.01302031250003 32.0495240234375,142.31233222656252 32.1374,142.60790000000003 32.1374,142.60790000000003 32.2137708984375,142.90679160156253 32.2826546875,143.21607656250004 32.3432205078125,143.53284511718752 32.3946375,143.85418750000002 32.43607480468749,144.17719394531255 32.4667015625,144.49895468750003 32.4856869140625,144.81655996093752 32.4922,145.12710000000004 32.4922,145.12710000000004 32.4675302734375,145.77852050781252 32.3946296875,146.42661406250005 32.2751611328125,147.06805371093753 32.1107875,147.69951250000005 31.9031716796875,148.31766347656256 31.6539765625,148.91917968750005 31.364865039062497,149.50073417968756 31.037499999999998,150.05900000000005" fill="none" stroke="black" stroke-width="0.1"/>
    <polygon points="31.051799999999997,150.03570000000005 30.883799999999997,150.12710000000004 30.908835937499997,150.12547773437504 30.933337499999997,150.12072187500002 30.9569953125,150.11299882812503 30.979499999999994,150.10247500000003 31.000542187499995,150.08931679687504 31.019812499999997,150.07369062500004 31.037001562499995,150.05576289062503 31.051799999999997,150.03570000000005" fill="none" stroke="black" stroke-width="0.1"/>
    <polyline points="30.192199999999996,150.12710000000004 30.883799999999997,150.12710000000004" fill="none" stroke="black" stroke-width="0.1"/>
    <polygon points="30.192199999999996,150.12710000000004 30.192199999999996,150.12710000000004 30.192199999999996,150.12710000000004" fill="none" stroke="black" stroke-width="0.1"/>
    <polyline points="30.8838,142.533 30.8838,142.232274609375 30.8838,141.931528125 30.8838,141.630767578125 30.8838,141.32999999999998 30.8838,141.029232421875 30.8838,140.728471875 30.8838,140.427725390625 30.8838,140.12699999999998" fill="none" stroke="black" stroke-width="0.1"/>
    <polyline points="30.8838,150.127 30.8838,149.82451640625004 30.8838,149.52201875 30.8838,149.21951171875 30.8838,148.917 30.8838,148.61448828125 30.8838,148.31198125000003 30.8838,148.00948359375 30.8838,147.70700000000002" fill="none" stroke="black" stroke-width="0.1"/>
    <polygon points="28.3422,141.627 28.3422,142.59110234375 28.3422,143.47883125000004 28.3422,144.31564453125003 28.3422,145.127 28.3422,145.93835546875 28.3422,146.77516874999998 28.3422,147.66289765625 28.3422,148.627 29.992199999999997,148.627 29.992199999999997,147.752057421875 29.992199999999997,146.877065625 29.992199999999997,146.002041015625 29.992199999999997,145.127 29.992199999999997,144.25195898437502 29.992199999999997,143.37693437500002 29.992199999999997,142.501942578125 29.992199999999997,141.627 28.3422,141.627" fill="none" stroke="black" stroke-width="0.1"/>
    <polygon points="25.2665,146.335 25.2769,146.189 25.4134,145.495 25.6558,144.861 26.0767,144.329 26.6376,143.946 27.2876,143.748 27.9671,143.753 28.6142,143.961 29.17,144.351 29.5837,144.89 29.8175,145.527 29.8502,146.205 29.8113,146.448 29.6225,147.205 29.5765,147.321 29.5238,147.435 29.4558,147.56 29.3796,147.681 29.296,147.797 29.2054,147.907 29.1079,148.011 29.004,148.109 28.8941,148.2 28.7786,148.284 28.6581,148.36 28.5329,148.428 28.4037,148.489 28.2709,148.541 28.1351,148.584 27.9967,148.619 27.8564,148.646 27.7148,148.663 27.5724,148.671 27.4297,148.67 27.2874,148.66 27.146,148.641 27.006,148.613 26.8682,148.577 26.7329,148.531 26.6008,148.477 26.4723,148.415 26.348,148.345 26.2285,148.268 26.1141,148.182 26.0053,148.09 25.9027,147.991 25.8065,147.886 25.7171,147.775 25.635,147.658 25.5605,147.537 25.4938,147.411 25.4352,147.281 25.3849,147.147 25.3432,147.011 25.3101,146.872 25.2862,146.732 25.2731,146.607 25.2675,146.482" fill="none" stroke="black" stroke-width="0.1"/>
    <polyline points="26.1815,145.191 26.8383,144.939 27.5413,144.90099999999998 28.2214,145.08299999999997 28.8122,145.46499999999997 29.1357,145.86399999999998" fill="none" stroke="black" stroke-width="0.1"/>
    <polygon points="26.1815,145.19099999999997" fill="none" stroke="black" stroke-width="0.1"/>
    <polygon points="18.5397,139.944 18.5837,139.939 21.4553,139.939 21.4997,139.944 22.5106,140.162 22.5394,140.177 22.5639,140.205 22.5639,150.006 22.27,150.077 18.0075,150.156 12.0194,148.604 12.0194,141.649" fill="none" stroke="black" stroke-width="0.1"/>
    <polygon points="18.4328,144.772 18.40978125,144.72527011718748 18.386818750000003,144.6785109375 18.363978125,144.6316931640625 18.341325,144.5847875 18.318925,144.53776464843747 18.29684375,144.4905953125 18.275146875,144.44325019531252 18.2539,144.3957 18.2435,144.3707 17.8869,143.2981 17.7921,142.1833 17.9951,141.073 18.4328,140.0225 18.462,139.9872 18.4983,139.9608 18.5397,139.9447 18.5837,139.93980000000002 21.4553,139.9396 21.4997,139.9447 21.5411,139.9608 21.5774,139.9872 21.6066,140.0225 22.0443,141.073 22.2473,142.1833 22.1525,143.2981 21.7959,144.3707 21.7855,144.3957 21.764253124999996,144.44325019531252 21.74255625,144.49059531250003 21.720475,144.53776464843747 21.698075,144.5847875 21.675421875,144.63169316406254 21.652581249999997,144.6785109375 21.62961875,144.72527011718748 21.6066,144.772 21.8747,145.39659999999998 22.0726,146.00519999999997 22.2524,147.31319999999997 22.207700000000003,147.95849999999996 22.074,148.60769999999997 21.6066,149.83479999999997 21.5773,149.87149999999997 21.5409,149.89969999999997 21.4996,149.91779999999997 21.4555,149.92469999999997 21.7974,149.96289999999996 22.043,149.99909999999997 22.2131,150.03889999999998 22.27,150.07789999999997 22.2137,150.11649999999997 22.0446,150.15609999999998 21.455299999999998,150.23069999999998 18.583699999999997,150.23069999999998 18.2491,150.1925 18.0075,150.1561 17.787,150.0779 17.842399999999998,150.0389 18.008799999999997,149.9991 18.2613,149.9613 18.5837,149.9247 18.5398,149.9178 18.4985,149.8997 18.4621,149.8715 18.4328,149.8348 17.9654,148.6077 17.831699999999998,147.9585 17.787,147.3132 17.9668,146.0052 18.1647,145.3966 18.4328,144.77200000000002" fill="none" stroke="black" stroke-width="0.1"/>
    <line x1="21.4553" y1="150.231" x2="18.5837" y2="150.231" fill="none" stroke="black" stroke-width="0.1"/>
    <polyline points="18.5836,150.231 18.5806078125,150.2309640625 18.577512499999997,150.2308625 18.574360937500003,150.23070468749998 18.5712,150.2305 18.5680765625,150.2302578125 18.565037500000003,150.2299875 18.562129687500004,150.22969843750002 18.5594,150.2294" fill="none" stroke="black" stroke-width="0.1"/>
    <line x1="18.4328" y1="144.753" x2="21.6066" y2="144.753" fill="none" stroke="black" stroke-width="0.1"/>
    <polyline points="21.5102,150.221 21.4993,150.226 21.4993,150.226 21.4553,150.23" fill="none" stroke="black" stroke-width="0.1"/>
    <polygon points="21.5102,150.221" fill="none" stroke="black" stroke-width="0.1"/>
    <line x1="18.5837" y1="149.924" x2="21.4553" y2="149.924" fill="none" stroke="black" stroke-width="0.1"/>
    <polyline points="18.5837,150.23 18.5837,150.231 18.5837,150.231" fill="none" stroke="black" stroke-width="0.1"/>
    <polygon points="18.5837,150.23" fill="none" stroke="black" stroke-width="0.1"/>
    <polyline points="18.5837,150.23 18.5398,150.226 18.5287,150.221" fill="none" stroke="black" stroke-width="0.1"/>
    <polygon points="18.5837,150.23" fill="none" stroke="black" stroke-width="0.1"/>
    <polyline points="16.1309,149.256 16.1308,149.263 16.1308,149.262" fill="none" stroke="black" stroke-width="0.1"/>
    <polygon points="16.1309,149.256" fill="none" stroke="black" stroke-width="0.1"/>
    <rect x="45.0194" y="246.432" width="2" height="15" fill="none" stroke="black" stroke-width="0.1"/>
    <polygon points="47.0194,246.432 63.1156,244.422 63.1156,263.441 47.0194,261.432" fill="none" stroke="black" stroke-width="0.1"/>
    <rect x="44.0194" y="249.932" width="1" height="8" fill="none" stroke="black" stroke-width="0.1"/>
    <polyline points="19.1811,87.446 18.787715625,82.06777128906249 18.442556250000003,76.98657656249999 18.161175,72.1873279296875 17.959125,67.6549375 17.851959375,63.37431738281249 17.855231250000003,59.3303796875 17.984493750000002,55.5080365234375 18.255300000000002,51.892199999999995" fill="none" stroke="black" stroke-width="0.1"/>
    <polyline points="24.2551,87.0745 23.861715625,81.6962712890625 23.51655625,76.6150765625 23.235174999999998,71.8158279296875 23.033125,67.2834375 22.925959374999998,63.002817382812495 22.92923125,58.9588796875 23.05849375,55.1365365234375 23.3293,51.5207" fill="none" stroke="black" stroke-width="0.1"/>
    <polyline points="39.5111,218.745 38.7357,218.33100000000002 38.7357,218.33100000000002 37.8099,218.03400000000002 36.8014,217.89400000000003 35.932500000000005,217.91700000000003 35.055400000000006,218.07700000000003 33.518100000000004,218.73200000000003" fill="none" stroke="black" stroke-width="0.1"/>
    <polygon points="39.511100000000006,218.74500000000003" fill="none" stroke="black" stroke-width="0.1"/>
    <polyline points="33.4853,217.083 36.4747,216.8305 39.466499999999996,216.6089" fill="none" stroke="black" stroke-width="0.1"/>
    <polygon points="33.485299999999995,217.083" fill="none" stroke="black" stroke-width="0.1"/>
    <polyline points="33.573,218.08 36.5618,217.82760000000002 39.553,217.60500000000002" fill="none" stroke="black" stroke-width="0.1"/>
    <polygon points="33.57299999999999,218.08" fill="none" stroke="black" stroke-width="0.1"/>
    <polyline points="33.5195,219.354 34.6657,218.846 35.8924,218.58700000000002 37.146300000000004,218.58700000000002 38.373000000000005,218.846 39.519200000000005,219.354" fill="none" stroke="black" stroke-width="0.1"/>
    <polygon points="33.51950000000001,219.354" fill="none" stroke="black" stroke-width="0.1"/>
    <circle id="center_00" cx="36.5001" cy="223.5" r="12.5" fill="none" stroke="black" stroke-width="0.1"/>
</svg>
