<!DOCTYPE svg PUBLIC "-//W3C//DTD SVG 1.1//EN" "http://www.w3.org/Graphics/SVG/1.1/DTD/svg11.dtd">
<svg xmlns="http://www.w3.org/2000/svg" width="297mm" height="210mm" viewBox="0 0 297 210">
    <defs id="_tag_73_"/>
    <polygon points="37.8768,187.716 39.925891601562505,188.007612890625 41.791070312500004,187.947178125 43.5003919921875,187.555135546875 45.0819125,186.85192500000002 46.56368769531251,185.857986328125 47.9737734375,184.593759375 49.34022558593751,183.079683984375 50.691100000000006,181.33620000000002 50.690200000000004,181.33630000000002 51.0356267578125,180.82547167968752 51.3417453125,180.28766093750005 51.6064755859375,179.72492910156254 51.827737500000005,179.13933750000004 52.003450976562505,178.53294746093752 52.131535937500004,177.9078203125 52.209912304687506,177.26601738281252 52.23650000000001,176.60960000000003 52.23650000000001,176.60960000000003 52.236048046875005,176.52595000000002 52.234703125,176.44254375000003 52.232481640625004,176.35937187500005 52.229400000000005,176.27642500000002 52.22547460937501,176.19369375000002 52.22072187500001,176.11116875000002 52.215158203125,176.02884062500004 52.208800000000004,175.94670000000002 52.209500000000006,175.94680000000002 52.208400000000005,175.94270000000003 52.17135371093751,175.59022363281252 52.1192359375,175.24244531250002 52.052378320312506,174.89970371093753 51.971112500000004,174.56233750000004 51.8757701171875,174.23068535156253 51.7666828125,173.90508593750002 51.6441822265625,173.58587792968754 51.5086,173.27340000000004 45.9,151.88060000000004 45.862487890625,151.72749589843755 45.829665625,151.57258593750004 45.80162929687499,151.41594863281253 45.778475,151.25766250000004 45.760298828124995,151.09780605468754 45.74719687499999,150.93645781250007 45.739265234375,150.77369628906257 45.736599999999996,150.60960000000006 45.736599999999996,150.60960000000006 45.83820351562499,149.60210898437506 46.129596875,148.66365312500005 46.590654296874995,147.81435820312507 47.20125,147.07435000000004 47.941258203124995,146.46375429687507 48.790553124999995,146.00269687500008 49.72900898437499,145.71130351562508 50.73649999999999,145.60970000000006 50.73649999999999,145.60970000000006 51.58782480468749,145.68193535156257 52.39255468749999,145.89065781250005 53.138735351562495,146.22389199218756 53.81441249999999,146.66966250000007 54.40763183593749,147.21599394531256 54.90643906249999,147.85091093750003 55.29887988281249,148.56243808593757 55.57299999999999,149.33860000000007 55.573299999999996,149.33850000000007 56.524499999999996,152.96650000000005 56.5261,152.97260000000006 56.5265,152.97300000000007 56.86465390625,153.84354843750006 57.302843749999994,154.65845625000009 57.83346171875,155.41012968750007 58.448899999999995,156.09097500000007 59.14155078125,156.69339843750006 59.90380625,157.20980625000004 60.72805859375,157.63260468750008 61.6067,157.95420000000007 61.607499999999995,157.95500000000007 61.609199999999994,157.95500000000007 61.934,157.95500000000007 71.95479999999999,157.95500000000007 77.62299999999999,157.95500000000007 77.8239939453125,157.87140683593756 78.00158906249999,157.71857343750005 78.1569302734375,157.50043144531259 78.29116249999998,157.22091250000005 78.4054306640625,156.88394824218759 78.5008796875,156.49347031250008 78.5786544921875,156.05341035156255 78.6399,155.56770000000006 78.6401,155.56780000000006 78.70308105468752,154.89076484375008 78.79707343750002,154.22392500000007 78.92128847656251,153.56809140625006 79.0749375,152.92407500000007 79.2572318359375,152.29268671875008 79.46738281249999,151.67473750000008 79.70460175781251,151.07103828125005 79.9681,150.48240000000007 79.9681,150.48240000000007 80.8600611328125,149.1961892578126 81.94262656250001,148.0307953125001 83.19754433593751,147.00183808593758 84.60656250000001,146.12493750000007 86.1514291015625,145.4157134765626 87.8138921875,144.88978593750008 89.5756998046875,144.5627748046876 91.41860000000001,144.45030000000008 94.26400000000001,144.45030000000008 94.26400000000001,143.01000000000008 91.41860000000001,143.01000000000008 80.2699,143.01000000000008 71.9684,143.01000000000008 70.3888609375,142.85071738281258 68.917575,142.39390156250005 67.58608906250001,141.67110058593758 66.42595,140.71386250000006 65.4687046875,139.55373535156258 64.7459,138.22226718750008 64.2890828125,136.75100605468756 64.1298,135.17150000000007 64.1298,135.17150000000007 64.1361783203125,134.85336015625006 64.1551390625,134.53846875000008 64.1864208984375,134.22705546875005 64.2297625,133.91935000000007 64.2849025390625,133.61558203125009 64.3515796875,133.31598125000005 64.4295326171875,133.02077734375004 64.5185,132.73020000000005 64.5153,132.72960000000006 64.5152,132.72960000000006 66.0791,127.91650000000006 66.10460839843749,127.71275546875006 66.0539109375,127.52833750000005 65.94429863281249,127.36289453125005 65.79306249999999,127.21607500000005 65.6174935546875,127.08752734375005 65.43488281249999,126.97690000000006 65.2625212890625,126.88384140625006 65.1177,126.80800000000005 65.1177,126.80800000000005 64.9640724609375,126.72721523437505 64.83951093750001,126.66454062500006 64.72953457031251,126.61049570312505 64.6196625,126.55560000000006 64.4954138671875,126.49037304687505 64.3423078125,126.40533437500005 64.1458634765625,126.29100351562505 63.8916,126.13790000000004 63.8916,126.13790000000004 63.35700839843749,125.79676894531255 62.8329296875,125.43163906250004 62.3202580078125,125.04271777343754 61.81988749999999,124.63021250000004 61.3327123046875,124.19433066406255 60.8596265625,123.73527968750005 60.4015244140625,123.25326699218755 59.9593,122.74850000000005 59.9593,122.74850000000005 59.094591992187496,121.29973164062505 58.3883484375,119.72211562500006 57.8517900390625,118.03757304687505 57.4961375,116.26802500000005 57.3326115234375,114.43539257812506 57.3724328125,112.56159687500005 57.6268220703125,110.66855898437507 58.107,108.77820000000006 58.4848,107.58700000000006 57.115,107.14210000000006 57.1139,107.14540000000005 57.115,107.14200000000005 50.0127,129.00080000000005 49.985600000000005,128.99490000000006 49.38303496093751,130.67780332031256 48.67206093750001,132.30592031250006 47.85705957031251,133.87487402343757 46.9424125,135.38028750000007 45.932501367187506,136.81778378906256 44.83170781250001,138.18298593750006 43.644413476562505,139.47151699218756 42.37500000000001,140.67900000000006 42.37500000000001,140.67900000000006 41.365106250000004,141.62614042968755 40.46075625000001,142.67524218750003 39.67092187500001,143.81735097656255 39.004575,145.04351250000008 38.470687500000004,146.34477246093755 38.07823125000001,147.71217656250008 37.83617812500001,149.13677050781257 37.75350000000001,150.60960000000006 37.75350000000001,150.60960000000006 37.76014179687501,151.02876875000007 37.77993437500001,151.44463750000006 37.81267851562501,151.85700000000008 37.858175,152.26565000000005 37.91622460937501,152.67038125000008 37.98662812500002,153.07098750000006 38.069186328125014,153.4672625000001 38.16370000000001,153.85900000000007 39.92070000000001,161.14650000000006 39.92070000000001,161.14650000000006 40.006803515625016,161.51998476562505 40.08199687500001,161.89752187500005 40.14610429687501,162.27893554687506 40.19895000000001,162.66405000000006 40.24035820312501,163.05268945312505 40.27015312500001,163.44467812500005 40.28815898437501,163.8398402343751 40.29420000000001,164.23800000000006 40.29420000000001,164.23800000000006 40.25243515625001,165.28261562500006 40.129281250000005,166.30428125000006 39.92794921875001,167.29980000000006 39.65165000000001,168.26597500000008 39.30359453125001,169.19960937500008 38.886993750000016,170.09750625000004 38.40505859375001,170.95646875000006 37.86100000000001,171.77330000000006 37.627800000000015,172.10060000000007 37.44710000000001,172.37690000000006 37.295200000000015,172.63040000000007 37.17200000000002,172.85460000000006 36.960513281250016,173.28181503906256 36.77413750000002,173.72292031250007 36.61382421875002,174.17699355468756 36.480525000000014,174.64311250000006 36.37519140625002,175.12035488281256 36.29877500000002,175.60779843750007 36.252227343750015,176.10452089843756 36.23650000000002,176.60960000000006 36.23650000000002,176.60960000000006 36.307669921875025,177.68110117187504 36.51506562500002,178.70954062500005 36.84951601562502,179.68574726562505 37.30185000000002,180.60055000000006 37.86289648437502,181.44477773437507 38.523484375000024,182.20925937500007 39.27444257812502,182.88482382812504 40.10660000000002,183.46230000000006 37.876800000000024,187.71600000000007" fill="none" stroke="black" stroke-width="0.1" id="_new_54_1"/>
    <polyline points="91.41860000000003,143.01000000000005 94.26400000000002,143.01000000000005" fill="none" stroke="black" stroke-width="0.1" id="_new_54_2"/>
    <polyline points="48.3844,161.356 46.5933130859375,160.80084726562498 44.9473734375,159.962815625 43.475450195312504,158.870744921875 42.2064125,157.55347500000002 41.169129492187494,156.039845703125 40.3924703125,154.358696875 39.90530410156249,152.538868359375 39.7365,150.6092 39.7365,150.6092 39.9600232421875,148.39261269531247 40.6010796875,146.3279390625 41.615399414062495,144.4594490234375 42.9587125,142.8314125 44.5867490234375,141.48809941406248 46.4552390625,140.47377968749998 48.519912695312506,139.83272324218748 50.7365,139.6092 50.7365,139.6092 52.95308730468749,139.83272324218748 55.0177609375,140.47377968749998 56.8862509765625,141.48809941406248 58.5142875,142.8314125 59.857600585937504,144.4594490234375 60.8719203125,146.3279390625 61.512976757812496,148.39261269531247 61.7365,150.6092 61.7365,150.6092 61.7007666015625,151.5017966796875 61.5954015625,152.37476093749999 61.4231576171875,153.22535410156246 61.186787499999994,154.0508375 60.8890439453125,154.8484724609375 60.53267968749999,155.6155203125 60.1204474609375,156.34924238281252 59.6551,157.0469" fill="none" stroke="black" stroke-width="0.1" id="_new_55_1"/>
    <circle cx="50.7365" cy="150.61" r="5.00" fill="none" stroke="black" stroke-width="0.1" id="_tag_74_"/>
    <polyline points="49.2259,131.423 50.159325,130.707919140625 51.1346,130.20473437500002 52.1435875,129.889944921875 53.17815,129.74005 54.23015,129.731548828125 55.291450000000005,129.840940625 56.35391250000001,130.044724609375 57.409400000000005,130.3194 57.409400000000005,130.3194 58.175356640625004,130.579107421875 58.906009375000004,130.900471875 59.59671992187501,131.272869140625 60.242850000000004,131.685675 60.83976132812501,132.12826523437502 61.382815625000006,132.590015625 61.867374609375005,133.06030195312502 62.28880000000001,133.5285 62.28880000000001,133.5285 62.77153398437501,134.1910623046875 63.17495312500001,134.90211093750003 63.528370703125006,135.6530009765625 63.86110000000001,136.4350875 64.202454296875,137.2397255859375 64.58174687500001,138.0582703125 65.028291015625,138.8820767578125 65.57140000000001,139.70250000000001 65.57140000000001,139.70250000000001 66.2039197265625,140.48559726562502 66.85408906250001,141.175003125 67.50662324218752,141.79942617187498 68.14623750000001,142.38757500000003 68.75764707031252,142.96815820312503 69.32556718750001,143.56988437500002 69.83471308593752,144.221462109375 70.26980000000002,144.9516 70.26980000000002,144.9516 70.62938730468753,145.73985 70.90523593750002,146.49943125000001 71.10887597656252,147.232903125 71.25183750000001,147.94282500000003 71.34565058593752,148.63175625000002 71.40184531250001,149.30225625000003 71.43195175781251,149.95688437500002 71.44750000000002,150.59820000000002 71.44750000000002,150.59820000000002 71.44584179687502,151.38204335937502 71.40524687500002,152.39808437500005 71.30862226562502,153.54962695312503 71.13887500000001,154.73997500000002 70.87891210937502,155.87243242187503 70.51164062500001,156.85030312500004 70.01996757812502,157.57689101562505 69.38680000000002,157.95550000000003" fill="none" stroke="black" stroke-width="0.1" id="_new_57_1"/>
    <polyline points="60.9683,123.844 60.715644921875,123.587829296875 60.467478125,123.324915625 60.223947265625,123.055294140625 59.9852,122.779 59.751383984374996,122.49606835937499 59.52264687499999,122.20653437499999 59.299136328125,121.910433203125 59.080999999999996,121.6078 59.080999999999996,121.6078 58.0885689453125,120.01794101562501 57.29929531249999,118.369959375 56.7115583984375,116.683010546875 56.3237375,114.97625 56.1342119140625,113.268833203125 56.1413609375,111.579915625 56.3435638671875,109.92865273437499 56.7392,108.3342 57.114999999999995,107.1424" fill="none" stroke="black" stroke-width="0.1" id="_new_58_1"/>
    <polyline points="79.6439,151.216 80.4968650390625,149.4777712890625 81.5694640625,147.8977703125 82.8402904296875,146.4986623046875 84.2879375,145.3031125 85.8909986328125,144.3337861328125 87.6280671875,143.6133484375 89.4777365234375,143.16446464843753 91.4186,143.0098 94.264,143.0098" fill="none" stroke="black" stroke-width="0.1" id="_new_59_1"/>
    <circle cx="44.2365" cy="176.61" r="8" fill="none" stroke="black" stroke-width="0.1" id="_tag_75_"/>
    <circle cx="44.2365" cy="176.61" r="4.5" fill="none" stroke="black" stroke-width="0.1" id="_tag_76_"/>
    <circle cx="50.7365" cy="150.61" r="5.00" fill="none" stroke="black" stroke-width="0.1" id="center_00"/>
</svg>
