<?xml version="1.0" encoding="UTF-8"?>
<!DOCTYPE svg PUBLIC "-//W3C//DTD SVG 1.1//EN" "http://www.w3.org/Graphics/SVG/1.1/DTD/svg11.dtd">
<!-- Creator: CorelDRAW -->
<svg xmlns="http://www.w3.org/2000/svg" xml:space="preserve" width="420mm" height="297mm" style="shape-rendering:geometricPrecision; text-rendering:geometricPrecision; image-rendering:optimizeQuality; fill-rule:evenodd; clip-rule:evenodd"
viewBox="0 0 420 297">
 <defs>
  <style type="text/css">
   <![CDATA[
    .str0 {stroke:black;stroke-width:0.1}
    .fil3 {fill:none}
    .fil0 {fill:#4D4948}
    .fil1 {fill:#605D5C}
    .fil2 {fill:#72706F}
    .fil4 {fill:#838281}
    .fil5 {fill:#AAA9A9}
    .fil7 {fill:#C2C1C1}
    .fil6 {fill:#DEDEDD}
   ]]>
  </style>
 </defs>
 <g id="CRANKIMBUS">
  <metadata id="CorelCorpID_0Corel-Layer"/>
    <polygon points="157.811,130.916 155.301,132.577 153.854,133.435 152.905,134.825 152.628,136.147 152.676,136.478 144.707,136.478 144.645,136.138 144.58,135.798 144.511,135.459 144.439,135.121 144.363,134.784 144.284,134.446 144.201,134.11 144.115,133.774 144.115,133.774 144.01,133.405 143.889,133.041 143.754,132.683 143.603,132.331 143.437,131.987 143.256,131.649 143.061,131.319 142.852,130.997 140.559,129.381 137.022,134.914 137.073,136.478 115.256,136.478 115.256,116.182 116.692,116.134 123.975,111.568 121.964,110.455 121.655,110.27 121.339,110.097 121.017,109.937 120.689,109.79 120.355,109.656 120.016,109.536 119.672,109.429 119.323,109.337 119.323,109.337 117.255,108.898 115.169,108.59 113.072,108.411 110.971,108.363 108.87,108.445 106.776,108.656 104.696,108.998 102.634,109.469 102.634,109.469 102.265,109.574 101.901,109.695 101.543,109.831 101.192,109.982 100.847,110.148 100.509,110.328 100.179,110.523 99.8573,110.732 98.2412,113.025 103.775,116.563 106.905,116.459 106.905,136.478 84.7345,136.478 80.4281,129.61 79.3157,131.62 79.1299,131.929 78.9569,132.245 78.7969,132.567 78.65,132.896 78.5164,133.229 78.3962,133.569 78.2897,133.913 78.197,134.261 78.197,134.261 77.7584,136.33 77.45,138.415 77.2716,140.512 77.2233,142.614 77.305,144.715 77.5166,146.809 77.8582,148.889 78.3296,150.95 78.3296,150.95 78.4346,151.319 78.5552,151.683 78.6911,152.041 78.8421,152.393 79.0079,152.738 79.1885,153.075 79.3834,153.405 79.5926,153.727 81.8857,155.343 85.4232,149.81 85.3687,148.169 106.905,148.169 106.905,168.552 105.752,168.59 98.4698,173.156 100.48,174.269 100.789,174.455 101.105,174.628 101.427,174.787 101.756,174.934 102.09,175.068 102.429,175.188 102.773,175.295 103.121,175.387 103.121,175.387 105.19,175.826 107.275,176.134 109.372,176.313 111.474,176.361 113.575,176.279 115.669,176.068 117.749,175.726 119.81,175.255 119.81,175.255 120.18,175.15 120.543,175.029 120.901,174.893 121.253,174.742 121.598,174.577 121.936,174.396 122.265,174.201 122.587,173.992 124.204,171.699 118.67,168.161 115.256,168.274 115.256,148.169 137.662,148.169 142.017,155.115 143.129,153.104 143.315,152.795 143.488,152.479 143.648,152.157 143.795,151.829 143.928,151.495 144.048,151.156 144.155,150.812 144.248,150.463 144.248,150.463 144.316,150.178 144.382,149.892 144.446,149.606 144.507,149.319 144.565,149.032 144.622,148.745 144.675,148.457 144.726,148.169 152.803,148.169 152.628,149.386 152.905,150.708 153.854,152.098 155.301,152.957 157.811,154.617 156.839,157.926 153.83,157.966 152.148,157.906 150.598,158.563 149.652,159.525 149.09,160.753 148.984,162.099 149.502,163.7 150.649,164.931 152.59,167.233 150.725,170.134 147.826,169.324 146.23,168.793 144.558,168.986 143.378,169.642 142.493,170.663 142.012,171.924 142.058,173.606 142.812,175.111 144.026,177.865 141.419,180.124 138.866,178.53 137.483,177.571 135.825,177.285 134.508,177.582 133.372,178.312 132.554,179.387 132.125,181.014 132.424,182.67 132.813,185.655 129.676,187.087 127.674,184.839 126.619,183.529 125.108,182.787 123.76,182.702 122.465,183.082 121.378,183.883 120.507,185.323 120.328,186.996 119.86,189.97 116.446,190.46 115.159,187.739 114.515,186.185 113.275,185.048 112.006,184.586 110.656,184.586 109.387,185.048 108.146,186.185 107.502,187.739 106.215,190.461 102.802,189.97 102.334,186.996 102.154,185.323 101.284,183.883 100.197,183.082 98.9011,182.702 97.5537,182.787 96.043,183.529 94.9873,184.839 92.9858,187.088 89.8489,185.655 90.2373,182.67 90.5363,181.014 90.107,179.387 89.2896,178.312 88.1538,177.582 86.8367,177.285 85.1781,177.571 83.7957,178.53 81.2423,180.124 78.6359,177.866 79.8497,175.111 80.6029,173.606 80.6497,171.924 80.168,170.662 79.2838,169.642 78.1042,168.986 76.4321,168.792 74.8355,169.324 71.9365,170.133 70.0717,167.232 72.0125,164.932 73.1593,163.7 73.6779,162.099 73.5711,160.753 73.0102,159.525 72.0632,158.563 70.5136,157.906 68.8317,157.967 65.8219,157.927 64.8503,154.617 67.3605,152.956 68.8078,152.098 69.7569,150.708 70.0332,149.386 69.8411,148.05 69.2036,146.86 67.9014,145.793 66.2708,145.378 63.3944,144.491 63.3943,141.042 66.2709,140.156 67.9017,139.74 69.2036,138.673 69.8411,137.483 70.0333,136.147 69.7566,134.826 68.8079,133.435 67.3606,132.577 64.8502,130.916 65.8221,127.607 68.8318,127.567 70.5135,127.627 72.0633,126.971 73.0102,126.008 73.5711,124.78 73.678,123.434 73.1592,121.834 72.0125,120.602 70.0718,118.301 71.9364,115.4 74.8353,116.209 76.4321,116.741 78.104,116.547 79.2839,115.891 80.1681,114.87 80.6497,113.609 80.6032,111.927 79.8497,110.422 78.636,107.668 81.2423,105.409 83.7961,107.003 85.1783,107.963 86.8367,108.249 88.1536,107.951 89.2894,107.221 90.1072,106.147 90.5362,104.519 90.2375,102.863 89.8486,99.8785 92.9857,98.4458 94.9871,100.694 96.0431,102.004 97.5537,102.746 98.9012,102.831 100.197,102.451 101.284,101.65 102.154,100.21 102.334,98.5369 102.802,95.5636 106.216,95.0728 107.502,97.7938 108.146,99.3486 109.387,100.486 110.656,100.947 112.006,100.947 113.275,100.486 114.515,99.3485 115.159,97.7937 116.446,95.0726 119.86,95.5635 120.328,98.537 120.508,100.21 121.378,101.651 122.465,102.451 123.76,102.832 125.108,102.746 126.619,102.005 127.674,100.694 129.676,98.4457 132.813,99.8784 132.424,102.863 132.125,104.519 132.555,106.147 133.372,107.221 134.508,107.951 135.825,108.248 137.483,107.963 138.866,107.003 141.419,105.41 144.026,107.668 142.812,110.423 142.059,111.927 142.012,113.61 142.494,114.871 143.378,115.891 144.557,116.548 146.23,116.741 147.826,116.209 150.725,115.4 152.59,118.301 150.649,120.602 149.502,121.833 148.984,123.435 149.09,124.78 149.651,126.008 150.598,126.97 152.148,127.627 153.83,127.567 156.84,127.607" fill="none" stroke="black" stroke-width="0.1"/>
    <polygon points="183.003,130.988 180.412,132.52 178.923,133.305 178.86,133.389 165.483,133.389 165.192,131.78 164.852,130.179 164.465,128.585 164.029,127.002 163.545,125.429 163.013,123.867 162.433,122.318 161.805,120.783 161.805,120.783 161.578,120.321 161.308,119.887 160.997,119.486 160.647,119.119 160.262,118.789 159.845,118.499 159.398,118.252 158.924,118.051 158.924,118.051 158.433,117.899 157.932,117.799 157.426,117.751 156.919,117.755 156.415,117.809 155.918,117.915 155.432,118.072 154.961,118.279 147.791,120.573 136.188,133.389 116.17,133.389 116.17,118.015 117.463,117.998 131.547,106.633 132.836,100.424 133.715,99.5014 134.111,99.0306 134.443,98.5208 134.709,97.9782 134.907,97.4096 135.036,96.8212 135.092,96.2197 135.075,95.6115 134.983,95.0031 134.983,95.0031 134.818,94.4105 134.583,93.8491 134.284,93.3238 133.926,92.84 133.512,92.4027 133.047,92.0172 132.535,91.6885 131.98,91.4219 131.98,91.4219 126.812,89.6117 121.528,88.3322 116.17,87.5829 110.776,87.3637 105.387,87.674 100.042,88.5136 94.7808,89.8822 89.6435,91.7795 89.6435,91.7795 89.1812,92.0057 88.7478,92.2759 88.3463,92.5872 87.9793,92.9368 87.6495,93.3218 87.3598,93.7392 87.1129,94.1862 86.9114,94.6598 86.9114,94.6598 86.7596,95.1516 86.6598,95.6525 86.6118,96.1583 86.6152,96.6652 86.67,97.1691 86.7758,97.6661 86.9324,98.1521 87.1396,98.6233 89.4335,105.793 103.119,118.183 106.022,118.146 106.022,133.389 84.6538,133.389 75.4934,122.037 69.2848,120.748 68.3619,119.869 67.8912,119.473 67.3813,119.141 66.8388,118.875 66.2701,118.677 65.6818,118.549 65.0802,118.492 64.472,118.509 63.8636,118.601 63.8636,118.601 63.271,118.767 62.7096,119.001 62.1843,119.3 61.7005,119.658 61.2632,120.072 60.8777,120.537 60.5491,121.049 60.2825,121.604 60.2825,121.604 58.4723,126.772 57.1927,132.056 56.4435,137.414 56.2242,142.808 56.5345,148.197 57.3742,153.542 58.7428,158.803 60.64,163.941 60.64,163.941 60.8662,164.403 61.1364,164.836 61.4477,165.238 61.7973,165.605 62.1823,165.935 62.5997,166.224 63.0467,166.471 63.5203,166.673 63.5203,166.673 64.0121,166.825 64.513,166.924 65.0188,166.972 65.5257,166.969 66.0296,166.914 66.5266,166.808 67.0126,166.652 67.4838,166.445 74.6536,164.151 85.5278,152.14 106.022,152.14 106.022,166.712 104.982,166.726 90.8979,178.091 89.6086,184.299 88.7294,185.222 88.3332,185.693 88.0012,186.203 87.7354,186.745 87.5374,187.314 87.4092,187.902 87.3525,188.504 87.3693,189.112 87.4612,189.721 87.4612,189.721 87.6271,190.313 87.8616,190.875 88.1602,191.4 88.5186,191.884 88.9326,192.321 89.3978,192.706 89.9098,193.035 90.4644,193.302 90.4644,193.302 95.633,195.112 100.916,196.391 106.275,197.141 111.669,197.36 117.058,197.05 122.403,196.21 127.664,194.841 132.801,192.944 132.801,192.944 133.263,192.718 133.697,192.448 134.098,192.136 134.465,191.787 134.795,191.402 135.085,190.984 135.332,190.537 135.533,190.064 135.533,190.064 135.685,189.572 135.785,189.071 135.833,188.565 135.829,188.058 135.775,187.555 135.669,187.058 135.512,186.572 135.305,186.1 133.011,178.93 119.326,166.54 116.17,166.581 116.17,152.14 138.441,152.14 146.951,162.686 153.16,163.976 154.083,164.855 154.553,165.251 155.063,165.583 155.606,165.849 156.174,166.047 156.763,166.175 157.364,166.232 157.973,166.215 158.581,166.123 158.581,166.123 159.174,165.957 159.735,165.723 160.26,165.424 160.744,165.065 161.181,164.652 161.567,164.186 161.896,163.674 162.162,163.12 162.162,163.12 162.689,161.777 163.178,160.424 163.631,159.062 164.048,157.692 164.428,156.314 164.772,154.929 165.079,153.537 165.349,152.14 178.856,152.14 178.923,152.228 180.412,153.013 183.003,154.545 182.418,157.674 179.449,158.167 177.777,158.361 176.344,159.243 175.553,160.337 175.183,161.636 175.28,162.982 176.034,164.487 177.353,165.532 179.618,167.514 178.468,170.483 175.459,170.422 173.78,170.305 172.209,170.909 171.231,171.839 170.629,173.047 170.477,174.389 170.941,176.007 172.046,177.276 173.908,179.641 172.232,182.347 169.286,181.734 167.657,181.311 166.001,181.616 164.868,182.35 164.055,183.428 163.659,184.719 163.818,186.394 164.671,187.845 166.067,190.511 163.922,192.864 161.138,191.72 159.615,191.005 157.932,191 156.683,191.514 155.686,192.424 155.059,193.619 154.908,195.295 155.48,196.879 156.362,199.756 153.822,201.674 151.295,200.039 149.929,199.056 148.276,198.742 146.954,199.018 145.806,199.728 144.97,200.789 144.514,202.408 144.785,204.069 145.123,207.06 142.274,208.479 140.091,206.407 138.929,205.189 137.361,204.577 136.011,204.606 134.752,205.093 133.736,205.982 132.99,207.49 132.951,209.173 132.734,212.175 129.672,213.046 127.907,210.608 126.989,209.198 125.56,208.308 124.228,208.088 122.901,208.336 121.739,209.023 120.728,210.368 120.381,212.015 119.616,214.926 116.446,215.22 115.159,212.498 114.515,210.944 113.274,209.807 112.006,209.345 110.656,209.345 109.387,209.807 108.146,210.944 107.502,212.498 106.215,215.22 103.046,214.926 102.281,212.015 101.934,210.368 100.923,209.023 99.7605,208.335 98.4331,208.088 97.1014,208.308 95.6729,209.198 94.754,210.608 92.9893,213.046 89.9275,212.175 89.7106,209.173 89.6716,207.49 88.9253,205.982 87.909,205.093 86.6504,204.605 85.3003,204.577 83.7326,205.19 82.5706,206.407 80.3877,208.479 77.5379,207.06 77.8767,204.069 78.1476,202.408 77.6911,200.788 76.8554,199.728 75.7077,199.017 74.3856,198.742 72.7324,199.055 71.3665,200.038 68.8399,201.675 66.2995,199.756 67.1816,196.878 67.7533,195.295 67.6023,193.619 66.9758,192.423 65.9781,191.514 64.7295,191 63.0465,191.005 61.523,191.72 58.7392,192.864 56.5943,190.511 57.9906,187.845 58.8432,186.394 59.0026,184.718 58.6064,183.427 57.7929,182.35 56.6597,181.616 55.0047,181.311 53.3761,181.734 50.4293,182.347 48.7533,179.64 50.6156,177.276 51.7204,176.006 52.1848,174.389 52.033,173.047 51.4309,171.839 50.452,170.909 48.8812,170.305 47.2024,170.422 44.1932,170.483 43.0432,167.514 45.3083,165.532 46.6277,164.487 47.3814,162.982 47.4783,161.636 47.109,160.337 46.3176,159.243 44.8846,158.361 43.2127,158.167 40.2434,157.674 39.6583,154.545 42.2493,153.012 43.7381,152.228 44.7555,150.887 45.0986,149.582 44.974,148.237 44.3968,147.016 43.1504,145.886 41.5428,145.388 38.7144,144.358 38.7146,141.174 41.5428,140.144 43.1505,139.647 44.397,138.516 44.974,137.295 45.0983,135.951 44.7556,134.645 43.7383,133.304 42.2493,132.52 39.6586,130.988 40.2436,127.858 43.2127,127.365 44.8844,127.171 46.3175,126.289 47.1089,125.196 47.4786,123.897 47.3814,122.55 46.6276,121.046 45.3084,120.001 43.0433,118.019 44.1934,115.05 47.2027,115.111 48.8813,115.228 50.4521,114.624 51.4311,113.694 52.0328,112.485 52.185,111.144 51.7206,109.526 50.6158,108.257 48.7533,105.892 50.4294,103.185 53.3761,103.798 55.005,104.221 56.6602,103.917 57.7931,103.182 58.6067,102.105 59.0028,100.814 58.8433,99.1387 57.9904,97.6878 56.5947,95.0212 58.7392,92.6684 61.5235,93.8127 63.0468,94.5278 64.7293,94.5323 65.9784,94.0189 66.9759,93.109 67.6025,91.9132 67.7537,90.2372 67.1821,88.6541 66.2996,85.7766 68.8401,83.8582 71.3666,85.4941 72.7325,86.477 74.386,86.7906 75.708,86.5151 76.8556,85.8045 77.6912,84.7439 78.1477,83.1243 77.8769,81.4633 77.5384,78.4723 80.388,77.0534 82.5707,79.1259 83.733,80.3432 85.3007,80.9551 86.6502,80.9271 87.9094,80.4396 88.9256,79.5506 89.6721,78.0423 89.7107,76.36 89.9276,73.3576 92.9895,72.4864 94.7544,74.925 95.6729,76.3348 97.1017,77.2245 98.4335,77.4451 99.7607,77.1971 100.923,76.5101 101.934,75.1645 102.281,73.5181 103.046,70.6066 106.216,70.3129 107.503,73.0343 108.146,74.5888 109.387,75.7258 110.656,76.1876 112.006,76.1875 113.275,75.7259 114.516,74.5888 115.159,73.0342 116.446,70.3129 119.616,70.6066 120.381,73.5181 120.728,75.1646 121.739,76.5101 122.901,77.1973 124.229,77.445 125.56,77.2246 126.989,76.335 127.908,74.9249 129.672,72.4866 132.734,73.3578 132.951,76.36 132.99,78.0425 133.736,79.5507 134.753,80.4397 136.011,80.9273 137.361,80.9552 138.929,80.3431 140.091,79.126 142.274,77.0537 145.124,78.4726 144.785,81.4633 144.514,83.1245 144.971,84.7442 145.806,85.8045 146.954,86.5155 148.276,86.7907 149.929,86.4772 151.295,85.4943 153.822,83.8579 156.362,85.7766 155.48,88.6543 154.908,90.2372 155.059,91.9132 155.686,93.1094 156.683,94.0188 157.932,94.5326 159.615,94.5281 161.139,93.813 163.923,92.6689 166.067,95.0214 164.671,97.6881 163.818,99.139 163.659,100.814 164.055,102.105 164.869,103.182 166.002,103.917 167.657,104.222 169.286,103.799 172.232,103.186 173.908,105.892 172.046,108.257 170.941,109.526 170.477,111.144 170.629,112.486 171.231,113.694 172.21,114.624 173.78,115.228 175.459,115.111 178.468,115.05 179.618,118.019 177.353,120.001 176.034,121.046 175.28,122.551 175.183,123.897 175.553,125.196 176.344,126.29 177.777,127.172 179.449,127.366 182.418,127.859" fill="none" stroke="black" stroke-width="0.1"/>
    <polygon points="203.838,130.746 201.215,132.224 199.71,132.977 199.357,133.422 187.964,133.422 187.812,132.17 187.64,130.92 187.447,129.672 187.233,128.426 186.999,127.184 186.744,125.944 186.469,124.708 186.173,123.475 186.173,123.475 185.495,121.351 184.558,119.36 183.382,117.52 181.986,115.852 180.388,114.376 178.608,113.111 176.665,112.078 174.577,111.298 174.577,111.298 172.405,110.796 170.215,110.584 168.032,110.655 165.885,111.003 163.8,111.623 161.803,112.507 159.923,113.65 158.185,115.046 150.419,122.169 150.381,122.218 148.594,119.094 146.567,116.137 144.313,113.36 141.844,110.775 139.175,108.398 136.318,106.24 133.287,104.315 130.096,102.637 130.313,102.462 137.199,96.1475 138.802,94.462 140.143,92.6007 141.212,90.5934 142.002,88.4701 142.503,86.2608 142.705,83.9954 142.601,81.7039 142.181,79.4161 142.181,79.4161 141.454,77.2067 140.447,75.1453 139.184,73.2538 137.687,71.5543 135.976,70.0688 134.076,68.8192 132.007,67.8276 129.793,67.116 129.793,67.116 125.19,66.1248 120.548,65.4176 115.881,64.9942 111.2,64.8546 106.52,64.999 101.853,65.4272 97.2123,66.1393 92.6105,67.1352 92.6105,67.1352 90.4871,67.8133 88.4956,68.7499 86.6558,69.9258 84.9879,71.3222 83.5117,72.92 82.2472,74.7001 81.2144,76.6435 80.4334,78.7313 80.4334,78.7313 79.9317,80.9031 79.7195,83.0936 79.7907,85.2759 80.1391,87.4231 80.7586,89.5084 81.6431,91.5047 82.7863,93.3852 84.1821,95.1231 91.3044,102.89 91.5076,103.046 88.3567,104.789 85.3699,106.776 82.5604,108.991 79.9416,111.424 77.527,114.059 75.3298,116.884 73.3635,119.885 71.6414,123.049 71.5982,122.995 65.2833,116.109 63.5979,114.506 61.7365,113.166 59.7293,112.096 57.606,111.306 55.3967,110.806 53.1313,110.603 50.8397,110.707 48.5519,111.127 48.5519,111.127 46.3425,111.854 44.2811,112.861 42.3897,114.124 40.6901,115.622 39.2046,117.332 37.955,119.232 36.9635,121.301 36.2519,123.516 36.2519,123.516 35.2607,128.118 34.5534,132.76 34.13,137.427 33.9905,142.108 34.1349,146.788 34.5631,151.455 35.2752,156.096 36.2711,160.698 36.2711,160.698 36.9492,162.821 37.8858,164.813 39.0617,166.652 40.4581,168.32 42.0558,169.797 43.8359,171.061 45.7794,172.094 47.8671,172.875 47.8671,172.875 50.0389,173.376 52.2294,173.589 54.4117,173.518 56.5589,173.169 58.6442,172.55 60.6405,171.665 62.521,170.522 64.2589,169.126 71.7862,162.223 73.5275,165.368 75.5111,168.349 77.7234,171.153 80.1514,173.767 82.7816,176.178 85.6008,178.372 88.5957,180.336 91.753,182.057 85.2452,188.025 83.6422,189.71 82.3014,191.572 81.2318,193.579 80.4422,195.702 79.9416,197.911 79.7388,200.177 79.8429,202.469 80.2627,204.756 80.2627,204.756 80.9902,206.966 81.9966,209.027 83.2598,210.918 84.7576,212.618 86.4678,214.104 88.3683,215.353 90.4368,216.345 92.6513,217.056 92.6513,217.056 97.2541,218.048 101.896,218.755 106.563,219.178 111.244,219.318 115.924,219.173 120.591,218.745 125.232,218.033 129.834,217.037 129.834,217.037 131.957,216.359 133.949,215.422 135.788,214.247 137.456,212.85 138.932,211.252 140.197,209.472 141.23,207.529 142.011,205.441 142.011,205.441 142.512,203.269 142.725,201.079 142.653,198.897 142.305,196.749 141.685,194.664 140.801,192.668 139.658,190.787 138.262,189.049 131.482,181.656 134.603,179.873 137.558,177.849 140.333,175.598 142.916,173.134 145.293,170.469 147.451,167.617 149.376,164.592 151.056,161.406 157.161,168.063 158.846,169.666 160.707,171.007 162.715,172.076 164.838,172.866 167.047,173.367 169.313,173.569 171.604,173.465 173.892,173.046 173.892,173.046 176.101,172.318 178.163,171.312 180.054,170.048 181.754,168.551 183.239,166.84 184.489,164.94 185.481,162.871 186.192,160.657 186.192,160.657 186.522,159.27 186.826,157.879 187.103,156.483 187.355,155.084 187.581,153.681 187.781,152.276 187.955,150.868 188.103,149.458 198.315,149.458 198.665,150.686 199.71,152.005 201.215,152.758 203.837,154.235 203.399,157.284 200.467,157.963 198.81,158.262 197.436,159.232 196.715,160.374 196.428,161.693 196.61,163.031 197.457,164.485 198.839,165.445 201.225,167.281 200.357,170.237 197.357,170.491 195.675,170.551 194.177,171.316 193.301,172.344 192.829,173.609 192.818,174.959 193.45,176.518 194.681,177.665 196.782,179.822 195.502,182.624 192.497,182.449 190.824,182.269 189.231,182.813 188.218,183.705 187.571,184.89 187.368,186.225 187.771,187.859 188.827,189.169 190.599,191.603 188.933,194.194 185.984,193.593 184.354,193.177 182.7,193.489 181.57,194.228 180.761,195.309 180.37,196.601 180.537,198.276 181.396,199.723 182.803,202.384 180.786,204.712 177.951,203.698 176.397,203.053 174.715,203.127 173.492,203.698 172.537,204.652 171.967,205.876 171.893,207.557 172.537,209.112 173.551,211.946 171.224,213.963 168.563,212.555 167.116,211.697 165.441,211.53 164.149,211.921 163.068,212.73 162.329,213.86 162.017,215.514 162.433,217.144 163.034,220.094 160.442,221.759 158.009,219.987 156.699,218.932 155.065,218.528 153.73,218.731 152.545,219.378 151.653,220.392 151.109,221.984 151.289,223.657 151.464,226.662 148.662,227.942 146.505,225.842 145.358,224.61 143.798,223.979 142.448,223.989 141.183,224.461 140.156,225.337 139.391,226.836 139.331,228.517 139.076,231.517 136.121,232.385 134.285,229.999 133.325,228.617 131.871,227.77 130.533,227.588 129.214,227.875 128.072,228.596 127.102,229.971 126.803,231.627 126.124,234.559 123.075,234.998 121.597,232.375 120.844,230.87 119.525,229.825 118.227,229.455 116.88,229.551 115.648,230.102 114.491,231.325 113.96,232.921 112.871,235.728 109.79,235.728 108.701,232.921 108.169,231.325 107.013,230.102 105.781,229.551 104.434,229.455 103.135,229.825 101.817,230.87 101.063,232.375 99.5859,234.998 96.5372,234.559 95.8584,231.627 95.5593,229.971 94.5887,228.596 93.4471,227.875 92.1279,227.588 90.79,227.77 89.3361,228.617 88.3762,229.999 86.5403,232.385 83.5847,231.517 83.3303,228.518 83.2702,226.836 82.5051,225.337 81.4775,224.461 80.2126,223.989 78.8625,223.978 77.3028,224.61 76.1561,225.842 73.9995,227.942 71.1974,226.662 71.3725,223.657 71.5521,221.984 71.0083,220.391 70.116,219.378 68.9308,218.731 67.5959,218.528 65.962,218.932 64.6518,219.987 62.2185,221.759 59.6273,220.094 60.2281,217.144 60.6442,215.514 60.332,213.86 59.5934,212.73 58.5125,211.921 57.2201,211.531 55.5452,211.697 54.0984,212.556 51.4373,213.963 49.1094,211.946 50.1236,209.112 50.768,207.557 50.6942,205.876 50.1236,204.652 49.1692,203.697 47.9453,203.127 46.2642,203.053 44.7093,203.697 41.8756,204.712 39.8585,202.384 41.2657,199.723 42.1243,198.276 42.291,196.601 41.9001,195.309 41.0912,194.228 39.9611,193.489 38.3076,193.177 36.677,193.593 33.7273,194.194 32.0619,191.603 33.8339,189.169 34.8896,187.859 35.2929,186.225 35.0901,184.89 34.4433,183.705 33.4297,182.813 31.8375,182.269 30.1639,182.449 27.1591,182.624 25.8794,179.822 27.9794,177.665 29.2112,176.518 29.8427,174.959 29.8321,173.608 29.3603,172.344 28.4844,171.316 26.9853,170.551 25.3037,170.491 22.3043,170.236 21.4366,167.281 23.822,165.445 25.2043,164.485 26.0516,163.031 26.2331,161.693 25.9461,160.374 25.2252,159.232 23.8507,158.262 22.1945,157.963 19.2618,157.284 18.8235,154.235 21.4461,152.757 22.9511,152.004 23.9964,150.686 24.3664,149.387 24.2701,148.041 23.719,146.808 22.4966,145.651 20.8999,145.12 18.0936,144.031 18.0936,140.951 20.8998,139.862 22.4966,139.33 23.7191,138.173 24.2702,136.941 24.3664,135.594 23.9965,134.296 22.9509,132.977 21.4459,132.224 18.8236,130.746 19.2619,127.697 22.1945,127.019 23.8505,126.72 25.2254,125.749 25.9462,124.607 26.2332,123.288 26.0515,121.95 25.2044,120.496 23.822,119.536 21.4364,117.701 22.3043,114.745 25.3036,114.491 26.9856,114.43 28.4842,113.665 29.3605,112.638 29.832,111.373 29.8429,110.023 29.2111,108.463 27.9797,107.316 25.8794,105.16 27.1591,102.358 30.1642,102.533 31.8374,102.712 33.4298,102.168 34.4432,101.276 35.09,100.091 35.293,98.7561 34.8896,97.1222 33.8339,95.812 32.0622,93.3787 33.7276,90.7875 36.6768,91.3883 38.3075,91.8044 39.961,91.4922 41.0914,90.7535 41.9002,89.6727 42.2907,88.3803 42.1245,86.7054 41.2654,85.2586 39.8582,82.5975 41.8754,80.2696 44.7096,81.2838 46.264,81.9282 47.9455,81.8544 49.1692,81.2838 50.124,80.3294 50.6941,79.1055 50.7678,77.4244 50.124,75.8695 49.1096,73.0358 51.4374,71.0187 54.0981,72.4259 55.5453,73.2845 57.2198,73.4512 58.5123,73.0603 59.5933,72.2514 60.3324,71.1213 60.644,69.4678 60.2281,67.8372 59.6271,64.8875 62.2186,63.2221 64.6521,64.9941 65.9623,66.0498 67.5961,66.4532 68.931,66.2503 70.1159,65.6035 71.0083,64.5899 71.5523,62.9977 71.3725,61.3241 71.1974,58.3193 73.9993,57.0396 76.1561,59.1396 77.3029,60.3714 78.8626,61.0029 80.213,60.9923 81.4776,60.5205 82.505,59.6446 83.2701,58.1455 83.3304,56.4639 83.5851,53.4645 86.5404,52.5968 88.3761,54.9822 89.3358,56.3645 90.79,57.2118 92.128,57.3933 93.4472,57.1063 94.5888,56.3854 95.5593,55.0109 95.8584,53.3547 96.5371,50.422 99.5861,49.9837 101.064,52.6063 101.817,54.1113 103.135,55.1566 104.434,55.5266 105.781,55.4303 107.013,54.8792 108.17,53.6568 108.701,52.0601 109.79,49.2538 112.87,49.2538 113.96,52.06 114.492,53.6568 115.648,54.8793 116.88,55.4304 118.227,55.5266 119.525,55.1567 120.844,54.1111 121.598,52.6061 123.075,49.9838 126.124,50.4221 126.803,53.3547 127.102,55.0107 128.072,56.3856 129.214,57.1064 130.533,57.3934 131.871,57.2117 133.325,56.3646 134.285,54.9822 136.121,52.5966 139.076,53.4645 139.331,56.4638 139.391,58.1458 140.156,59.6444 141.183,60.5207 142.448,60.9922 143.799,61.0031 145.358,60.3713 146.505,59.1399 148.661,57.0396 151.464,58.3193 151.289,61.3244 151.109,62.9976 151.653,64.59 152.545,65.6034 153.73,66.2502 155.065,66.4532 156.699,66.0498 158.009,64.9941 160.443,63.2224 163.034,64.8878 162.433,67.837 162.017,69.4677 162.329,71.1212 163.068,72.2516 164.149,73.0604 165.441,73.4509 167.116,73.2847 168.563,72.4256 171.224,71.0184 173.552,73.0356 172.537,75.8698 171.893,77.4242 171.967,79.1057 172.537,80.3294 173.492,81.2842 174.716,81.8543 176.397,81.928 177.952,81.2842 180.785,80.2698 182.803,82.5976 181.395,85.2583 180.537,86.7055 180.37,88.38 180.761,89.6725 181.57,90.7535 182.7,91.4926 184.353,91.8042 185.984,91.3883 188.934,90.7873 190.599,93.3788 188.827,95.8123 187.771,97.1225 187.368,98.7563 187.571,100.091 188.218,101.276 189.231,102.168 190.824,102.713 192.497,102.533 195.502,102.358 196.782,105.16 194.682,107.316 193.45,108.463 192.818,110.023 192.829,111.373 193.301,112.638 194.177,113.665 195.676,114.43 197.357,114.491 200.357,114.745 201.224,117.701 198.839,119.536 197.457,120.496 196.609,121.95 196.428,123.288 196.715,124.607 197.436,125.749 198.81,126.72 200.467,127.019 203.399,127.697" fill="none" stroke="black" stroke-width="0.1"/>
    <polygon points="43.6415,183.203 46.3197,187.31 49.2385,191.233 52.3878,194.961 55.7578,198.485 59.3385,201.794 63.1198,204.88 67.0918,207.731 71.2445,210.339 71.2445,210.339 71.5024,210.466 71.7717,210.554 72.0481,210.602 72.3273,210.612 72.6051,210.582 72.8772,210.514 73.1395,210.407 73.3876,210.262 73.3876,210.262 73.6124,210.082 73.8063,209.876 73.9677,209.646 74.0949,209.397 74.1863,209.133 74.2401,208.858 74.2548,208.575 74.2286,208.289 71.8516,193.833 71.8273,193.703 71.7974,193.575 71.762,193.448 71.7211,193.323 71.6749,193.201 71.6235,193.08 71.5668,192.963 71.5051,192.847 71.5051,192.847 71.4536,192.759 71.3992,192.673 71.3418,192.589 71.2815,192.507 71.2183,192.426 71.1524,192.348 71.0836,192.272 71.0122,192.198 61.19,182.381 60.9987,182.205 60.7948,182.048 60.5802,181.91 60.357,181.791 60.1271,181.692 59.8925,181.614 59.6551,181.557 59.4169,181.523 45.5438,180.172 45.2627,180.165 44.9874,180.196 44.7214,180.264 44.4683,180.368 44.2316,180.505 44.015,180.674 43.822,180.873 43.6562,181.1 43.6562,181.1 43.5237,181.348 43.4286,181.608 43.3707,181.876 43.3501,182.149 43.3669,182.422 43.421,182.691 43.5126,182.953" fill="none" stroke="black" stroke-width="0.1"/>
    <polygon points="152.339,209.667 156.446,206.988 160.369,204.07 164.097,200.92 167.621,197.55 170.93,193.97 174.016,190.188 176.867,186.216 179.475,182.064 179.475,182.064 179.602,181.806 179.69,181.536 179.738,181.26 179.748,180.981 179.718,180.703 179.65,180.431 179.543,180.169 179.398,179.921 179.398,179.921 179.218,179.696 179.012,179.502 178.782,179.34 178.533,179.213 178.269,179.122 177.994,179.068 177.711,179.053 177.424,179.08 162.969,181.457 162.839,181.481 162.711,181.511 162.584,181.546 162.459,181.587 162.337,181.633 162.216,181.685 162.098,181.741 161.983,181.803 161.983,181.803 161.895,181.855 161.809,181.909 161.725,181.966 161.642,182.027 161.562,182.09 161.484,182.156 161.408,182.225 161.334,182.296 151.517,192.118 151.341,192.31 151.184,192.513 151.045,192.728 150.926,192.951 150.827,193.181 150.75,193.416 150.693,193.653 150.659,193.891 149.308,207.764 149.301,208.046 149.332,208.321 149.4,208.587 149.504,208.84 149.641,209.077 149.81,209.293 150.008,209.486 150.236,209.652 150.236,209.652 150.483,209.785 150.744,209.88 151.012,209.938 151.285,209.958 151.558,209.941 151.827,209.887 152.089,209.796" fill="none" stroke="black" stroke-width="0.1"/>
    <polygon points="178.803,100.97 176.124,96.8621 173.206,92.9393 170.056,89.2111 166.686,85.6874 163.106,82.378 159.324,79.2926 155.352,76.4411 151.2,73.8333 151.2,73.8333 150.942,73.7061 150.672,73.6184 150.396,73.5699 150.117,73.5605 149.839,73.5901 149.567,73.6584 149.304,73.7654 149.056,73.9108 149.056,73.9108 148.832,74.0902 148.638,74.2967 148.476,74.5262 148.349,74.775 148.258,75.039 148.204,75.3144 148.189,75.5973 148.215,75.8837 150.592,90.3394 150.617,90.4693 150.647,90.5976 150.682,90.7242 150.723,90.8489 150.769,90.9715 150.821,91.0919 150.877,91.2098 150.939,91.3252 150.939,91.3252 150.991,91.413 151.045,91.4991 151.102,91.5834 151.163,91.6658 151.226,91.7461 151.292,91.8245 151.36,91.9006 151.432,91.9746 161.254,101.792 161.445,101.967 161.649,102.124 161.864,102.263 162.087,102.382 162.317,102.481 162.552,102.559 162.789,102.615 163.027,102.649 176.9,104 177.181,104.008 177.457,103.976 177.723,103.908 177.976,103.805 178.212,103.667 178.429,103.499 178.622,103.3 178.788,103.073 178.788,103.073 178.92,102.825 179.015,102.564 179.073,102.296 179.094,102.023 179.077,101.75 179.023,101.481 178.932,101.22" fill="none" stroke="black" stroke-width="0.1"/>
    <polygon points="131.482,181.657 134.603,179.873 137.558,177.85 140.333,175.599 142.916,173.134 145.293,170.47 147.451,167.618 149.376,164.592 151.056,161.406 150.846,161.177 150.644,160.927 150.187,160.387 149.714,159.862 149.227,159.349 148.731,158.846 148.226,158.35 147.716,157.86 147.203,157.373 146.69,156.885 146.69,156.885 146.434,156.641 146.18,156.395 145.926,156.149 145.675,155.9 145.425,155.649 145.179,155.396 144.935,155.139 144.694,154.88 144.694,154.88 144.458,154.616 144.225,154.348 143.997,154.076 143.775,153.799 143.559,153.518 143.349,153.233 143.147,152.944 142.953,152.651 142.953,152.651 142.767,152.353 142.59,152.052 142.421,151.746 142.262,151.436 142.112,151.121 141.971,150.803 141.839,150.479 141.717,150.151 141.717,150.151 141.687,150.066 141.658,149.98 141.63,149.894 141.602,149.807 141.575,149.72 141.548,149.633 141.523,149.546 141.498,149.458 81.262,149.458 81.2265,149.624 81.1888,149.789 81.1489,149.953 81.1067,150.117 81.0621,150.281 81.0151,150.445 80.9656,150.607 80.9135,150.77 80.9135,150.77 80.7974,151.105 80.6714,151.435 80.5358,151.761 80.3908,152.082 80.2369,152.398 80.0743,152.709 79.9033,153.015 79.7243,153.315 79.7243,153.315 79.3429,153.902 78.933,154.471 78.4984,155.024 78.043,155.564 77.5706,156.091 77.0851,156.607 76.5902,157.116 76.0898,157.618 76.0898,157.618 75.594,158.11 75.0985,158.602 74.6056,159.097 74.118,159.596 73.638,160.103 73.1681,160.619 72.7109,161.147 72.2687,161.689 72.2687,161.689 72.2627,161.697 72.2567,161.705 72.2507,161.712 72.2448,161.72 72.2388,161.727 72.2329,161.735 72.227,161.742 72.2211,161.75 72.0253,162.004 71.786,162.224 73.5273,165.368 75.5108,168.349 77.7232,171.154 80.1511,173.768 82.7813,176.178 85.6005,178.372 88.5954,180.336 91.7527,182.057 92.1311,181.71 92.381,181.509 92.9213,181.052 93.4467,180.578 93.9597,180.092 94.4627,179.596 94.9581,179.091 95.4484,178.581 95.9359,178.068 96.4232,177.555 96.4232,177.555 96.6676,177.299 96.913,177.044 97.1599,176.791 97.4085,176.539 97.6594,176.29 97.9128,176.043 98.1692,175.8 98.4289,175.559 98.4289,175.559 98.6926,175.322 98.9605,175.09 99.2328,174.862 99.5093,174.64 99.7901,174.423 100.075,174.214 100.364,174.012 100.658,173.817 100.658,173.817 100.955,173.632 101.257,173.454 101.563,173.286 101.873,173.127 102.187,172.976 102.506,172.836 102.829,172.704 103.157,172.582 103.157,172.582 103.49,172.47 103.827,172.368 104.168,172.276 104.512,172.193 104.858,172.118 105.206,172.052 105.556,171.992 105.905,171.939 105.905,171.939 106.254,171.892 106.605,171.851 106.955,171.813 107.306,171.779 107.657,171.748 108.009,171.72 108.361,171.693 108.713,171.667 108.713,171.667 108.889,171.654 109.065,171.641 109.24,171.626 109.416,171.611 109.591,171.594 109.767,171.576 109.942,171.556 110.117,171.534 110.117,171.534 110.222,171.521 110.328,171.508 110.433,171.497 110.539,171.487 110.645,171.477 110.751,171.469 110.857,171.462 110.963,171.455 110.963,171.455 111.033,171.451 111.103,171.448 111.174,171.445 111.244,171.442 111.314,171.44 111.384,171.438 111.455,171.437 111.525,171.436 111.525,171.436 111.701,171.435 111.878,171.437 112.054,171.441 112.23,171.449 112.406,171.458 112.582,171.47 112.758,171.485 112.934,171.503 112.934,171.503 113.11,171.521 113.285,171.537 113.461,171.552 113.637,171.565 113.813,171.576 113.99,171.587 114.166,171.596 114.342,171.606 114.342,171.606 114.695,171.623 115.048,171.643 115.4,171.663 115.752,171.687 116.104,171.713 116.455,171.743 116.805,171.777 117.155,171.816 117.155,171.816 117.503,171.861 117.851,171.912 118.197,171.97 118.542,172.036 118.885,172.111 119.227,172.195 119.567,172.29 119.905,172.395 119.905,172.395 120.24,172.511 120.571,172.637 120.896,172.773 121.217,172.918 121.533,173.072 121.844,173.234 122.15,173.405 122.451,173.584 122.451,173.584 123.037,173.965 123.606,174.375 124.159,174.81 124.699,175.265 125.226,175.738 125.743,176.223 126.251,176.718 126.753,177.219 126.753,177.219 127.245,177.714 127.737,178.21 128.232,178.703 128.731,179.19 129.238,179.67 129.754,180.14 130.282,180.598 130.825,181.04 130.825,181.04 130.832,181.046 130.84,181.052 130.847,181.058 130.855,181.064 130.863,181.07 130.87,181.076 130.878,181.081 130.885,181.087 131.14,181.283" fill="none" stroke="black" stroke-width="0.1"/>
    <polygon points="150.381,122.218 148.594,119.095 146.567,116.137 144.312,113.36 141.844,110.776 139.174,108.398 136.318,106.24 133.287,104.316 130.096,102.637 130.063,102.664 129.522,103.122 128.997,103.595 128.484,104.081 127.981,104.578 127.486,105.082 126.995,105.592 126.508,106.105 126.02,106.618 126.02,106.618 125.776,106.874 125.531,107.129 125.284,107.382 125.035,107.634 124.784,107.883 124.531,108.13 124.274,108.374 124.015,108.614 124.015,108.614 123.751,108.851 123.483,109.083 123.211,109.311 122.934,109.533 122.654,109.75 122.369,109.959 122.079,110.161 121.786,110.356 121.786,110.356 121.489,110.542 121.187,110.719 120.881,110.887 120.571,111.046 120.257,111.197 119.938,111.338 119.614,111.469 119.286,111.591 119.286,111.591 118.954,111.703 118.617,111.805 118.275,111.897 117.932,111.98 117.585,112.055 117.237,112.122 116.888,112.181 116.539,112.234 116.539,112.234 116.189,112.281 115.839,112.323 115.489,112.36 115.138,112.394 114.786,112.425 114.435,112.454 114.083,112.48 113.731,112.506 113.731,112.506 113.555,112.519 113.379,112.533 113.203,112.547 113.028,112.563 112.852,112.579 112.677,112.598 112.502,112.618 112.327,112.639 112.327,112.639 112.221,112.653 112.116,112.665 112.01,112.676 111.905,112.686 111.799,112.696 111.693,112.704 111.587,112.712 111.481,112.718 111.481,112.718 111.411,112.722 111.34,112.725 111.27,112.728 111.2,112.731 111.129,112.733 111.059,112.735 110.989,112.736 110.919,112.737 110.919,112.737 110.742,112.738 110.566,112.736 110.39,112.732 110.214,112.725 110.037,112.715 109.861,112.703 109.686,112.688 109.51,112.67 109.51,112.67 109.334,112.652 109.158,112.636 108.982,112.622 108.806,112.609 108.63,112.597 108.454,112.586 108.277,112.577 108.101,112.568 108.101,112.568 107.748,112.55 107.396,112.531 107.043,112.51 106.691,112.487 106.34,112.46 105.989,112.43 105.638,112.396 105.289,112.357 105.289,112.357 104.941,112.312 104.593,112.261 104.247,112.203 103.902,112.137 103.559,112.062 103.217,111.978 102.877,111.884 102.539,111.778 102.539,111.778 102.203,111.662 101.873,111.536 101.547,111.4 101.226,111.256 100.91,111.102 100.599,110.939 100.293,110.768 99.9929,110.589 99.9929,110.589 99.4063,110.208 98.8373,109.798 98.2842,109.363 97.7449,108.908 97.2178,108.435 96.7009,107.95 96.1924,107.455 95.6904,106.955 95.6904,106.955 95.1985,106.459 94.7064,105.963 94.2117,105.47 93.7122,104.983 93.2055,104.503 92.6893,104.033 92.1612,103.576 91.619,103.133 91.619,103.133 91.6114,103.127 91.6039,103.122 91.5963,103.116 91.5887,103.11 91.5811,103.104 91.5736,103.098 91.566,103.092 91.5585,103.086 91.5074,103.046 88.3565,104.79 85.3697,106.776 82.5602,108.992 79.9414,111.424 77.5268,114.059 75.3296,116.884 73.3633,119.885 71.6412,123.049 71.7994,123.246 72.2569,123.786 72.73,124.312 73.2162,124.825 73.7129,125.328 74.2175,125.823 74.7275,126.313 75.2404,126.801 75.7535,127.288 75.7535,127.288 76.0093,127.532 76.2641,127.778 76.5175,128.025 76.769,128.273 77.0183,128.524 77.265,128.778 77.5088,129.034 77.7492,129.294 77.7492,129.294 77.986,129.557 78.2186,129.825 78.4464,130.098 78.6687,130.374 78.885,130.655 79.0946,130.94 79.2968,131.229 79.4911,131.522 79.4911,131.522 79.635,131.751 79.7738,131.982 79.9074,132.216 80.0357,132.452 80.1588,132.691 80.2764,132.932 80.3886,133.176 80.4952,133.423 141.524,133.423 141.53,133.403 141.646,133.068 141.772,132.738 141.908,132.412 142.053,132.091 142.207,131.775 142.369,131.464 142.54,131.158 142.719,130.858 142.719,130.858 143.101,130.271 143.511,129.702 143.945,129.149 144.401,128.61 144.873,128.083 145.358,127.566 145.853,127.057 146.354,126.555 146.354,126.555 146.85,126.063 147.345,125.571 147.838,125.077 148.326,124.577 148.806,124.07 149.276,123.554 149.733,123.026 150.175,122.484 150.175,122.484 150.181,122.476 150.187,122.469 150.193,122.461 150.199,122.453 150.205,122.446 150.211,122.438 150.217,122.431 150.223,122.423" fill="none" stroke="black" stroke-width="0.1"/>
    <polygon points="99.9542,165.742 101.412,166.012 102.866,166.268 104.317,166.51 105.764,166.739 107.208,166.955 108.649,167.158 110.086,167.35 111.52,167.529 111.52,167.529 112.951,167.697 114.38,167.854 115.807,168 117.232,168.135 118.655,168.26 120.078,168.375 121.5,168.481 122.923,168.577 122.923,168.577 124.346,168.665 125.769,168.743 127.195,168.813 128.621,168.874 130.05,168.928 131.48,168.973 132.912,169.01 134.347,169.04 134.347,169.04 135.784,169.063 137.222,169.078 138.661,169.087 140.102,169.089 141.544,169.084 142.986,169.073 144.43,169.056 145.875,169.033 145.875,169.033 148.766,168.971 151.661,168.888 154.559,168.787 157.459,168.669 160.362,168.536 163.266,168.39 166.173,168.233 169.081,168.066 169.081,168.066 171.99,167.893 174.902,167.715 177.815,167.533 180.73,167.347 183.648,167.159 186.567,166.968 189.489,166.776 192.414,166.583 192.414,166.583 195.34,166.39 198.268,166.197 201.197,166.005 204.128,165.813 207.059,165.622 209.992,165.433 212.925,165.246 215.859,165.062 215.859,165.062 215.951,165.056 216.043,165.05 216.134,165.045 216.226,165.039 216.318,165.033 216.41,165.028 216.501,165.022 216.593,165.016 216.593,165.016 219.437,164.842 222.281,164.67 225.127,164.503 227.974,164.34 230.822,164.181 233.67,164.028 236.52,163.88 239.37,163.737 239.37,163.737 245.258,163.464 251.149,163.222 257.043,163.014 262.94,162.844 268.838,162.715 274.737,162.631 280.637,162.596 286.537,162.613 286.537,162.613 286.564,162.614 286.591,162.613 286.617,162.612 286.644,162.609 286.671,162.606 286.697,162.602 286.724,162.597 286.75,162.592 286.753,162.591 288.721,162.127 290.665,161.58 292.582,160.952 294.47,160.243 296.326,159.453 298.148,158.585 299.934,157.639 301.681,156.616 301.681,156.616 303.514,153.287 304.822,149.785 305.608,146.167 305.87,142.491 305.608,138.815 304.822,135.197 303.514,131.695 301.681,128.367 301.681,128.367 299.934,127.343 298.147,126.397 296.321,125.528 294.456,124.738 292.555,124.028 290.619,123.397 288.649,122.848 286.645,122.38 286.645,122.38 280.709,122.394 274.783,122.356 268.864,122.27 262.954,122.14 257.049,121.969 251.151,121.76 245.259,121.518 239.371,121.245 239.371,121.245 236.428,121.098 233.487,120.945 230.546,120.786 227.607,120.622 224.668,120.453 221.731,120.279 218.795,120.101 215.86,119.92 215.86,119.92 212.925,119.736 209.992,119.549 207.059,119.36 204.128,119.17 201.198,118.978 198.268,118.785 195.341,118.592 192.414,118.399 192.414,118.399 189.489,118.206 186.567,118.014 183.648,117.823 180.73,117.635 177.815,117.449 174.902,117.267 171.991,117.089 169.081,116.916 169.081,116.916 166.173,116.749 163.266,116.592 160.362,116.446 157.459,116.313 154.559,116.195 151.661,116.093 148.766,116.011 145.875,115.949 145.875,115.949 144.43,115.926 142.986,115.909 141.544,115.898 140.102,115.893 138.661,115.895 137.222,115.903 135.784,115.919 134.347,115.941 134.347,115.941 132.913,115.971 131.48,116.009 130.05,116.054 128.622,116.107 127.195,116.169 125.769,116.239 124.346,116.317 122.923,116.404 122.923,116.404 121.5,116.501 120.078,116.606 118.655,116.721 117.232,116.846 115.807,116.982 114.38,117.128 112.951,117.284 111.52,117.452 111.52,117.452 110.086,117.632 108.649,117.823 107.208,118.027 105.764,118.243 104.317,118.472 102.866,118.714 101.412,118.97 99.9542,119.239 99.9542,119.239 99.7729,119.274 99.5917,119.309 99.4105,119.344 99.2293,119.379 99.0482,119.414 98.8671,119.45 98.686,119.485 98.505,119.521 98.505,119.521 98.4643,119.53 98.4238,119.539 98.3835,119.549 98.3434,119.56 98.3036,119.572 98.264,119.585 98.2247,119.599 98.1857,119.613 98.1857,119.613 96.0292,120.464 93.8964,121.369 91.7882,122.329 89.7058,123.343 87.6501,124.409 85.6222,125.528 83.623,126.7 81.6537,127.923 81.6537,127.923 81.1646,128.238 80.6775,128.556 80.1924,128.877 79.7095,129.201 79.2287,129.528 78.75,129.858 78.2734,130.192 77.799,130.529 77.799,130.529 77.7922,130.578 77.7854,130.627 77.7786,130.676 77.7719,130.725 77.7652,130.774 77.7585,130.822 77.7518,130.872 77.7452,130.921 77.7452,130.921 77.4054,133.804 77.1627,136.696 77.0171,139.592 76.9686,142.491 77.0171,145.389 77.1627,148.286 77.4054,151.177 77.7452,154.061 77.7452,154.061 77.749,154.089 77.7526,154.115 77.756,154.14 77.7593,154.164 77.7624,154.187 77.7653,154.209 77.7681,154.229 77.7708,154.249 77.7708,154.249 77.7733,154.267 77.7757,154.285 77.778,154.301 77.7801,154.317 77.7821,154.331 77.784,154.345 77.7857,154.357 77.7873,154.369 77.7873,154.369 77.7902,154.39 77.7927,154.407 77.7947,154.422 77.7963,154.433 77.7975,154.442 77.7984,154.448 77.7988,154.451 77.799,154.452 77.799,154.452 78.2734,154.789 78.7499,155.123 79.2286,155.453 79.7094,155.78 80.1924,156.105 80.6774,156.426 81.1645,156.744 81.6536,157.059 81.6536,157.059 83.6229,158.282 85.6221,159.453 87.65,160.572 89.7057,161.639 91.7881,162.652 93.8962,163.612 96.029,164.518 98.1855,165.368 98.1855,165.368 98.2245,165.383 98.2639,165.396 98.3034,165.409 98.3433,165.421 98.3834,165.432 98.4237,165.442 98.4642,165.452 98.5049,165.46 98.5049,165.46 98.5054,165.46 98.507,165.461 98.5095,165.461 98.513,165.462 98.5173,165.463 98.5224,165.464 98.5284,165.465 98.535,165.466 98.535,165.466 98.5422,165.468 98.5499,165.469 98.5581,165.471 98.5667,165.472 98.5757,165.474 98.585,165.476 98.5946,165.478 98.6044,165.48 98.6044,165.48 98.6246,165.484 98.6455,165.488 98.6669,165.492 98.6889,165.497 98.7112,165.501 98.7338,165.506 98.7567,165.51 98.7797,165.515 98.7797,165.515 98.8262,165.524 98.8733,165.533 98.9209,165.542 98.9689,165.552 99.0173,165.561 99.0659,165.571 99.1147,165.58 99.1635,165.59 99.1635,165.59 99.2613,165.609 99.3595,165.628 99.458,165.647 99.5568,165.666 99.6559,165.685 99.7551,165.704 99.8546,165.723" fill="none" stroke="black" stroke-width="0.1"/>
    <polygon points="70.1055,74.5057 65.9978,77.1839 62.075,80.1027 58.3469,83.2521 54.8232,86.622 51.5137,90.2027 48.4283,93.984 45.5768,97.9559 42.969,102.109 42.969,102.109 42.8418,102.367 42.7541,102.636 42.7056,102.912 42.6962,103.191 42.7258,103.469 42.7941,103.741 42.9011,104.004 43.0465,104.252 43.0465,104.252 43.226,104.477 43.4324,104.671 43.662,104.832 43.9107,104.959 44.1748,105.05 44.4501,105.104 44.733,105.119 45.0194,105.093 59.4751,102.716 59.605,102.691 59.7334,102.662 59.86,102.626 59.9847,102.585 60.1073,102.539 60.2277,102.488 60.3456,102.431 60.461,102.369 60.461,102.369 60.5488,102.318 60.6349,102.263 60.7192,102.206 60.8016,102.146 60.882,102.083 60.9603,102.017 61.0366,101.948 61.1107,101.876 70.9274,92.0541 71.1028,91.8628 71.2602,91.6589 71.3987,91.4444 71.5176,91.2212 71.6165,90.9913 71.6944,90.7567 71.7507,90.5193 71.7848,90.2811 73.1359,76.408 73.1435,76.1269 73.1123,75.8516 73.044,75.5856 72.9404,75.3325 72.8033,75.0958 72.6345,74.8792 72.4356,74.6862 72.2084,74.5204 72.2084,74.5204 71.9604,74.3879 71.7001,74.2928 71.4317,74.2349 71.159,74.2143 70.8861,74.2311 70.6168,74.2852 70.3553,74.3768" fill="none" stroke="black" stroke-width="0.1"/>
    <circle cx="148.093" cy="105.748" r="5.9995" fill="none" stroke="black" stroke-width="0.1"/>
    <ellipse cx="148.093" cy="105.748" rx="5.7568" ry="5.7569" fill="none" stroke="black" stroke-width="0.1"/>
    <circle cx="148.093" cy="105.748" r="4.9996" fill="none" stroke="black" stroke-width="0.1"/>
    <polygon points="150.515,103.979 150.836,106.961 148.414,108.731 145.67,107.519 145.348,104.536 147.771,102.766" fill="none" stroke="black" stroke-width="0.1"/>
    <circle cx="74.4785" cy="105.619" r="5.9995" fill="none" stroke="black" stroke-width="0.1"/>
    <circle cx="74.4786" cy="105.619" r="5.7569" fill="none" stroke="black" stroke-width="0.1"/>
    <circle cx="74.4786" cy="105.619" r="4.9996" fill="none" stroke="black" stroke-width="0.1"/>
    <polygon points="72.7087,103.197 75.6914,102.875 77.4615,105.297 76.2489,108.041 73.2661,108.363 71.4961,105.941" fill="none" stroke="black" stroke-width="0.1"/>
    <circle cx="147.963" cy="179.363" r="5.9995" fill="none" stroke="black" stroke-width="0.1"/>
    <circle cx="147.963" cy="179.363" r="5.7569" fill="none" stroke="black" stroke-width="0.1"/>
    <circle cx="74.3489" cy="179.233" r="5.9995" fill="none" stroke="black" stroke-width="0.1"/>
    <ellipse cx="74.3489" cy="179.233" rx="5.7568" ry="5.7569" fill="none" stroke="black" stroke-width="0.1"/>
    <polygon points="295.193,151.091 296.753,149.194 297.869,147.088 298.541,144.843 298.77,142.528 298.555,140.212 297.896,137.963 296.793,135.85 295.245,133.944 295.245,133.944 293.348,132.384 291.242,131.268 288.997,130.595 286.682,130.367 284.366,130.582 282.117,131.241 280.004,132.344 278.098,133.892 278.098,133.892 276.538,135.789 275.422,137.895 274.749,140.14 274.52,142.455 274.736,144.771 275.395,147.02 276.498,149.132 278.046,151.039 278.046,151.039 279.943,152.599 282.049,153.715 284.294,154.387 286.609,154.616 288.925,154.402 291.174,153.742 293.286,152.639 295.193,151.091" fill="none" stroke="black" stroke-width="0.1"/>
    <polygon points="291.316,147.19 292.168,146.153 292.778,145.003 293.146,143.776 293.271,142.511 293.153,141.245 292.793,140.017 292.19,138.863 291.345,137.821 291.345,137.821 290.308,136.969 289.157,136.359 287.931,135.991 286.666,135.866 285.4,135.984 284.171,136.344 283.017,136.947 281.975,137.793 281.975,137.793 281.123,138.829 280.514,139.98 280.146,141.206 280.021,142.471 280.138,143.737 280.499,144.966 281.101,146.12 281.947,147.162 281.947,147.162 282.984,148.014 284.134,148.624 285.361,148.991 286.626,149.116 287.892,148.999 289.12,148.639 290.274,148.036" fill="none" stroke="black" stroke-width="0.1"/>
    <circle cx="74.4787" cy="105.619" r="2.4993" fill="none" stroke="black" stroke-width="0.1"/>
    <circle cx="148.092" cy="105.749" r="2.4993" fill="none" stroke="black" stroke-width="0.1"/>
    <circle cx="147.963" cy="179.363" r="4.9996" fill="none" stroke="black" stroke-width="0.1"/>
    <polygon points="149.733,181.785 146.75,182.106 144.98,179.684 146.193,176.94 149.175,176.619 150.945,179.041" fill="none" stroke="black" stroke-width="0.1"/>
    <circle cx="147.963" cy="179.363" r="2.4993" fill="none" stroke="black" stroke-width="0.1"/>
    <circle cx="74.3489" cy="179.233" r="4.9996" fill="none" stroke="black" stroke-width="0.1"/>
    <polygon points="71.927,181.003 71.6052,178.02 74.0273,176.25 76.7713,177.463 77.0931,180.446 74.671,182.215" fill="none" stroke="black" stroke-width="0.1"/>
    <circle cx="74.349" cy="179.233" r="2.4993" fill="none" stroke="black" stroke-width="0.1"/>
    <circle cx="111.221" cy="142.491" r="14" fill="none" stroke="black" stroke-width="0.1"/>
    <circle cx="111.221" cy="142.491" r="13.2499" fill="none" stroke="black" stroke-width="0.1"/>
    <circle cx="111.221" cy="142.491" r="11.8" fill="none" stroke="black" stroke-width="0.1"/>
    <circle cx="111.221" cy="142.491" r="9.5" fill="none" stroke="black" stroke-width="0.1"/>
    <polyline points="77.7438,130.925 77.74589999999999,131.10160000000002 77.7635,131.27630000000002 77.79639999999999,131.4482 77.844,131.61610000000002 77.90629999999999,131.7792 77.9827,131.9366 78.0731,132.0871 78.17699999999999,132.2299" fill="none" stroke="black" stroke-width="0.1"/>
    <polygon points="77.7438,130.92499999999998" fill="none" stroke="black" stroke-width="0.1"/>
    <polyline points="78.1794,152.76 78.0755,152.90279999999998 77.9852,153.05339999999998 77.9088,153.21069999999997 77.8466,153.37389999999996 77.79899999999999,153.54189999999997 77.76629999999999,153.71369999999996 77.74869999999999,153.88839999999996 77.74669999999999,154.06499999999997" fill="none" stroke="black" stroke-width="0.1"/>
    <polygon points="78.17939999999999,152.75999999999996" fill="none" stroke="black" stroke-width="0.1"/>
    <polyline points="82.9744,153.747 82.7034,153.83110000000002 82.4337,153.91930000000002 82.16550000000001,154.01160000000002 81.8987,154.108 81.63350000000001,154.20850000000002 81.36980000000001,154.31310000000002 81.10770000000001,154.42170000000002 80.8473,154.5344 80.8473,154.5344 80.5103,154.318 80.1742,154.10000000000002 79.8392,153.8805 79.5052,153.6595 79.1722,153.4369 78.8403,153.21280000000002 78.5093,152.98710000000003 78.1794,152.76000000000002 78.1794,152.76000000000002 77.90220000000001,150.20010000000002 77.70410000000001,147.6347 77.58520000000001,145.06570000000002 77.54530000000001,142.49480000000003 77.58460000000001,139.92400000000004 77.70290000000001,137.35490000000004 77.90040000000002,134.78950000000003 78.17700000000002,132.22960000000003 78.17700000000002,132.22960000000003 78.50680000000003,132.00240000000002 78.83770000000003,131.77670000000003 79.16960000000003,131.55250000000004 79.50250000000003,131.32990000000004 79.83650000000003,131.10880000000003 80.17140000000003,130.88920000000002 80.50740000000003,130.67120000000003 80.84430000000003,130.45470000000003 80.84430000000003,130.45470000000003 81.10480000000003,130.56730000000002 81.36690000000003,130.6759 81.63060000000003,130.78040000000001 81.89590000000003,130.88080000000002 82.16270000000003,130.97710000000004 82.43090000000002,131.06930000000003 82.70060000000002,131.15740000000002 82.97160000000002,131.24140000000003" fill="none" stroke="black" stroke-width="0.1"/>
    <polygon points="82.97440000000002,153.747" fill="none" stroke="black" stroke-width="0.1"/>
    <polyline points="300.347,128.331 300.126,128.279 299.904,128.228 299.682,128.18 299.46,128.133 299.237,128.089 299.014,128.046 298.791,128.005 298.791,128.005 296.486,128.067 294.182,128.11 291.876,128.137 289.571,128.148 287.266,128.143 284.96,128.126 282.655,128.095 280.351,128.053 280.351,128.053 278.046,128.001 275.742,127.939 273.438,127.869 271.134,127.792 268.83,127.708 266.526,127.62 264.223,127.527 261.919,127.432 261.919,127.432 259.616,127.335 257.313,127.237 255.01,127.139 252.706,127.042 250.403,126.947 248.099,126.855 245.796,126.767 243.492,126.683 243.492,126.683 241.188,126.604 238.884,126.531 236.58,126.465 234.275,126.405 231.97,126.352 229.665,126.305 227.36,126.266 225.054,126.235 225.054,126.235 222.851,126.197 220.651,126.135 218.454,126.053 216.26,125.952 214.068,125.834 211.879,125.703 209.692,125.56 207.506,125.409 207.506,125.409 205.323,125.25 203.141,125.083 200.96,124.91 198.781,124.732 196.603,124.55 194.427,124.365 192.251,124.178 190.076,123.989 190.076,123.989 187.902,123.801 185.728,123.613 183.556,123.428 181.384,123.245 179.212,123.066 177.04,122.892 174.869,122.724 172.698,122.563 172.698,122.563 170.527,122.409 168.356,122.264 166.184,122.13 164.012,122.007 161.839,121.898 159.664,121.804 157.489,121.725 155.312,121.665 155.312,121.665 153.133,121.624 150.952,121.604 148.77,121.606 146.587,121.628 144.404,121.671 142.221,121.735 140.039,121.821 137.858,121.928 137.858,121.928 135.679,122.056 133.5,122.202 131.322,122.367 129.145,122.547 126.969,122.742 124.793,122.95 122.617,123.169 120.441,123.399 120.441,123.399 116.09,123.887 111.741,124.418 107.395,124.997 103.054,125.627 98.7202,126.313 94.3944,127.058 90.0786,127.868 85.7745,128.746 84.8617,129.148 84.5667,129.35 84.2869,129.571 84.0231,129.81 83.7762,130.065 83.5468,130.337 83.3359,130.623 83.1442,130.924 82.9726,131.238 82.9726,153.743 83.1442,154.057 83.3358,154.358 83.5467,154.645 83.7761,154.916 84.023,155.172 84.2868,155.41 84.5666,155.631 84.8616,155.834 85.7745,156.236 90.0785,157.113 94.3943,157.923 98.7201,158.668 103.054,159.354 107.395,159.984 111.741,160.563 116.09,161.094 120.441,161.583 120.441,161.583 122.617,161.812 124.793,162.032 126.969,162.24 129.145,162.435 131.322,162.615 133.5,162.779 135.678,162.926 137.858,163.054 137.858,163.054 140.039,163.161 142.221,163.246 144.404,163.311 146.587,163.354 148.77,163.376 150.952,163.377 153.133,163.357 155.312,163.317 155.312,163.317 157.489,163.256 159.664,163.178 161.838,163.084 164.012,162.974 166.184,162.852 168.356,162.717 170.527,162.573 172.698,162.419 172.698,162.419 174.869,162.258 177.04,162.09 179.212,161.916 181.383,161.737 183.555,161.554 185.728,161.369 187.902,161.181 190.076,160.993 190.076,160.993 192.251,160.804 194.427,160.617 196.603,160.432 198.781,160.25 200.96,160.072 203.141,159.899 205.322,159.732 207.506,159.573 207.506,159.573 209.691,159.422 211.879,159.279 214.068,159.148 216.26,159.031 218.454,158.929 220.651,158.847 222.851,158.785 225.054,158.747 225.054,158.747 227.36,158.716 229.665,158.677 231.97,158.631 234.275,158.577 236.58,158.517 238.884,158.451 241.189,158.378 243.493,158.299 243.493,158.299 245.797,158.215 248.1,158.127 250.404,158.035 252.708,157.94 255.011,157.843 257.315,157.745 259.618,157.648 261.922,157.55 261.922,157.55 266.529,157.363 271.137,157.191 275.744,157.043 280.353,156.929 284.961,156.857 289.57,156.835 294.18,156.872 298.791,156.977 298.791,156.977 299.014,156.936 299.237,156.894 299.46,156.849 299.682,156.803 299.904,156.754 300.126,156.704 300.347,156.652 300.567,156.598" fill="none" stroke="black" stroke-width="0.1"/>
    <ellipse id="center_00" cx="111.221" cy="142.491" rx="4.64" ry="4.5669" fill="none" stroke="black" stroke-width="0.1"/>  

 </g>
</svg>
