<?xml version="1.0" encoding="UTF-8"?>
<!DOCTYPE svg PUBLIC "-//W3C//DTD SVG 1.1//EN" "http://www.w3.org/Graphics/SVG/1.1/DTD/svg11.dtd">
<!-- Creator: CorelDRAW -->
<svg xmlns="http://www.w3.org/2000/svg" xml:space="preserve" width="297mm" height="210mm" style="shape-rendering:geometricPrecision; text-rendering:geometricPrecision; image-rendering:optimizeQuality; fill-rule:evenodd; clip-rule:evenodd"
viewBox="0 0 297 210">
 <defs>
  <style type="text/css">
   <![CDATA[
    .str1 {stroke:#1F1A17;stroke-width:0.0762}
    .str0 {stroke:#DA251D;stroke-width:0.0762}
    .fil1 {fill:none}
    .fil0 {fill:#DEDEDD}
   ]]>
  </style>
 </defs>
 <g id="Ebene_x0020_1">
  <metadata id="CorelCorpID_0Corel-Layer"/>
  <polygon class="fil0 str0" points="271.194,140.999 270.569,141.466 269.697,141.809 268.954,141.895 157.205,141.895 157.205,104.895 157.205,67.8948 268.954,67.895 269.697,67.9805 270.569,68.324 271.194,68.7905 271.686,69.3835 272.048,70.1469 272.205,71.1462 272.205,104.895 272.205,138.644 272.048,139.643 271.686,140.406 "/>
  <polygon class="fil0 str0" points="164.703,142.395 147.205,142.395 147.205,104.895 147.205,104.895 147.205,104.895 147.205,67.3947 164.703,67.3947 164.703,104.895 164.703,104.895 164.703,104.895 "/>
  <polygon class="fil0 str0" points="62.0258,133.122 61.6299,133.458 61.1971,133.695 60.6525,133.856 60.2202,133.895 43.6418,133.895 42.8776,133.8 42.2519,133.471 41.7476,133.025 41.4109,132.522 41.2055,131.956 39.205,122.895 39.205,104.895 39.2087,104.893 39.205,104.895 39.205,86.8944 41.2055,77.8337 41.4109,77.2675 41.7476,76.7653 42.2519,76.3186 42.8776,75.9902 43.6418,75.8945 60.2202,75.8945 60.6525,75.934 61.1971,76.0949 61.6299,76.3319 62.0258,76.6679 62.205,76.8944 63.6432,78.1315 64.8135,78.8642 66.0299,79.3945 67.4435,79.7521 68.5898,79.8733 69.705,79.8944 70.8352,79.8725 72.2414,79.7022 73.5589,79.3303 74.7558,78.7779 76.1428,77.8458 77.205,76.894 77.8183,73.8337 78.2107,72.3198 78.6702,70.9658 79.3319,69.6275 79.8788,68.907 80.4733,68.3963 81.273,68.0216 82.205,67.894 117.205,67.8944 118.269,68.027 119.462,68.5503 120.147,69.123 120.833,69.6957 122.035,71.0159 123.412,72.4916 124.521,73.4739 125.939,74.4275 127.376,75.0972 129.19,75.6139 130.777,75.8363 132.958,75.8621 135.419,75.5721 137.082,75.0789 138.651,74.3237 139.687,73.6301 140.921,72.5667 142.874,70.4602 144.512,68.854 145.814,68.1275 147.205,67.8944 147.205,104.895 147.205,141.896 145.814,141.662 144.512,140.936 142.874,139.33 140.921,137.223 139.687,136.16 138.651,135.466 137.082,134.711 135.419,134.218 132.958,133.928 130.777,133.954 129.19,134.176 127.376,134.693 125.939,135.363 124.521,136.316 123.412,137.298 122.035,138.774 120.833,140.094 120.147,140.667 119.462,141.24 118.269,141.763 117.205,141.896 82.205,141.896 81.273,141.768 80.4733,141.394 79.8788,140.883 79.3319,140.162 78.6702,138.824 78.2107,137.47 77.8183,135.956 77.205,132.896 76.1428,131.944 74.7558,131.012 73.5589,130.46 72.2414,130.088 70.8352,129.917 69.705,129.896 68.5898,129.917 67.4435,130.038 66.0299,130.396 64.8135,130.926 63.6432,131.659 62.205,132.896 "/>
  <polygon class="fil0 str0" points="190.812,154.895 190.812,156.189 189.827,156.386 189.07,156.503 188.123,156.62 187.209,156.689 186.205,156.71 185.201,156.689 184.287,156.62 183.341,156.503 182.583,156.386 181.599,156.189 181.599,154.895 "/>
  <circle id="center_00" class="fil0 str0" cx="250.205" cy="156.189" r="2.5925"/>
  <polygon class="fil0 str0" points="254.812,154.895 254.812,156.189 253.827,156.386 253.07,156.503 252.123,156.62 251.209,156.689 250.205,156.71 249.201,156.689 248.287,156.62 247.341,156.503 246.583,156.386 245.599,156.189 245.599,154.895 "/>
  <rect class="fil0 str0" x="54.2858" y="75.8945" width="5.9344" height="58.0006"/>
  <rect class="fil0 str0" x="177.205" y="146.895" width="18" height="8.0005"/>
  <rect class="fil0 str0" x="241.205" y="146.895" width="18" height="8.0005"/>
  <polygon class="fil0 str0" points="187.166,65.2956 184.857,89.2746 184.768,90.8314 184.776,91.0498 184.812,91.2728 184.908,91.5418 185.095,91.8328 185.294,92.0298 185.554,92.1968 185.839,92.3018 186.115,92.3418 186.991,92.3318 272.686,84.1765 273.525,84.1616 274.598,84.3297 275.427,84.6206 275.977,84.9074 276.579,85.3317 277.154,85.8927 277.397,86.1993 277.689,86.6849 277.702,86.6842 277.741,86.7698 277.782,86.838 277.777,86.8506 277.967,87.2769 278.144,87.9483 278.205,88.6525 278.205,90.8571 278.205,143.895 278.154,143.895 278.171,144.35 277.957,145.091 277.638,145.65 277.006,146.295 276.448,146.626 275.61,146.868 275.205,146.895 142.821,146.895 142.168,146.868 141.635,146.808 140.963,146.63 140.429,146.378 129.636,141.582 129.044,141.233 128.492,140.69 128.063,139.943 127.854,138.84 127.951,138.081 128.197,137.447 128.689,136.764 129.592,136.118 130.462,135.866 131.302,135.874 132.072,136.099 142.865,140.895 142.866,140.895 271.281,140.895 271.623,140.795 271.852,140.649 272.016,140.472 272.093,140.346 272.148,140.22 272.205,139.843 272.205,93.4398 272.205,91.8808 272.14,91.4798 271.961,91.0998 271.746,90.8395 271.452,90.6185 271.016,90.4516 270.609,90.4079 185.431,98.5066 183.986,98.6446 183.874,98.6116 183.884,98.6506 182.93,98.6416 182.226,98.5166 181.428,98.2406 180.626,97.7926 179.888,97.1726 179.383,96.5716 178.963,95.8686 178.696,95.2096 178.476,94.1426 178.453,93.1788 178.563,92.0378 181.214,64.5021 181.621,63.3423 182.258,62.5986 183.023,62.13 184.189,61.8951 185.499,62.1955 186.43,62.9008 187.024,63.9119 "/>
  <polygon class="fil0 str0" points="22.8005,95.6986 23.214,95.4766 23.705,95.3946 24.2565,95.4996 24.6483,95.7286 24.9051,95.9946 25.1244,96.4076 25.205,96.8946 25.205,104.895 25.205,112.895 25.1244,113.382 24.9051,113.795 24.6483,114.061 24.2565,114.29 23.705,114.395 23.214,114.313 22.8005,114.092 22.5012,113.79 22.3014,113.425 22.205,112.895 22.205,104.895 22.205,96.8946 22.3014,96.3646 22.5012,95.9996 "/>
  <polygon class="fil0 str0" points="37.205,86.8944 39.205,86.8944 39.205,104.895 39.204,104.893 39.205,104.895 39.205,122.895 37.205,122.895 35.505,113.395 35.505,104.895 35.505,96.3946 "/>
  <polygon class="fil0 str0" points="25.205,113.395 35.505,113.395 35.505,104.895 35.505,96.3946 25.205,96.3946 25.205,104.895 "/>
  <rect class="fil0 str0" x="53.3275" y="75.8945" width="0.9585" height="58.0006"/>
  <line class="fil1 str1" x1="77.205" y1="79.8948" x2="77.205" y2= "129.895" />
  <line class="fil1 str1" x1="121.962" y1="74.8948" x2="121.962" y2= "134.895" />
 </g>
</svg>
