<?xml version="1.0" encoding="UTF-8"?>
<!DOCTYPE svg PUBLIC "-//W3C//DTD SVG 1.1//EN" "http://www.w3.org/Graphics/SVG/1.1/DTD/svg11.dtd">
<!-- Creator: CorelDRAW -->
<svg xmlns="http://www.w3.org/2000/svg" xml:space="preserve" width="420mm" height="297mm" style="shape-rendering:geometricPrecision; text-rendering:geometricPrecision; image-rendering:optimizeQuality; fill-rule:evenodd; clip-rule:evenodd"
viewBox="0 0 420 297"
 xmlns:svg="http://www.w3.org/2000/svg">
 <defs>
  <style type="text/css">
   <![CDATA[
    .str1 {stroke:#1F1A17;stroke-width:0.0762}
    .str0 {stroke:black;stroke-width:0.1764}
    .fil3 {fill:none}
    .fil0 {fill:#838281}
    .fil2 {fill:#969594}
    .fil1 {fill:#C2C1C1}
   ]]>
  </style>
 </defs>
 <circle id="center_00" class="fil1 str0" cx="108.005" cy="124.089" r="4.5"/>
 <g id="Ebene_x0020_1">
  <metadata id="CorelCorpID_0Corel-Layer"/>
  <polygon class="fil0 str0" points="294.941,106.538 274.62,118.401 257.802,123.171 240.07,125.542 234.397,126.703 223.397,132.703 204.411,146.376 192.758,153.315 179.187,157.443 166.717,158.413 132.665,159.743 131.07,137.542 170.781,136.659 180.191,133.794 212.07,112.542 222.82,105.926 235.954,102.209 257.07,100.542 268.956,96.4547 277.783,90.6534 279.646,89.3854 344.07,45.5416 355.07,65.5416 296.632,105.386 "/>
  <polygon class="fil1 str0" points="277.07,222.542 254.07,231.542 244.07,232.542 224.07,233.542 209.07,234.542 192.07,238.542 183.07,241.542 177.07,247.542 171.07,255.542 168.07,256.542 166.07,255.542 167.07,251.542 173.07,242.542 180.07,237.542 187.07,234.542 198.07,230.542 225.07,225.542 238.07,223.542 247.07,222.542 256.07,219.542 267.336,199.765 285.886,202.6 300.973,212.653 "/>
  <polygon class="fil1 str0" points="150.703,164.128 125.07,129.542 123.206,98.9557 85.2057,102.956 87.0696,136.542 112.2,170.944 "/>
  <polygon class="fil1 str0" points="308.07,212.542 299.07,214.542 285.07,211.542 283.07,206.542 281.07,206.542 279.07,206.542 277.07,207.542 275.07,211.542 273.07,212.542 270.07,212.542 269.07,210.542 268.07,207.542 258.559,189.394 269.832,190.268 309.847,203.254 "/>
  <polygon class="fil1 str0" points="53.0696,108.542 156.07,97.5416 138.07,82.5416 138.07,82.5416 112.07,78.5416 84.0696,81.5416 58.0696,93.5416 "/>
  <polygon class="fil2 str1" points="106.786,167.817 188.15,155.535 191.469,177.516 110.104,189.799 "/>
  <polygon class="fil1 str0" points="169.07,184.542 165.07,155.542 214.07,148.542 223.07,143.542 270.07,93.5416 291.07,112.542 287.07,116.542 243.803,162.955 235.07,168.542 221.07,175.542 "/>
  <line class="fil3 str1" x1="118.782" y1="129.463" x2="96.969" y2= "132.636" />
  <polygon class="fil1 str0" points="286.07,115.542 272.07,122.542 241.07,150.542 234.07,168.542 240.871,169.298 248.07,175.542 256.07,191.542 268.07,193.542 306.07,208.542 308.07,212.542 315.07,209.542 322.07,202.542 321.07,193.542 314.07,189.542 302.07,188.542 295.07,184.542 291.07,177.542 288.07,159.542 287.07,139.542 288.07,116.542 "/>
 </g>
</svg>
