<!DOCTYPE svg PUBLIC "-//W3C//DTD SVG 1.1//EN" "http://www.w3.org/Graphics/SVG/1.1/DTD/svg11.dtd">
<svg xmlns="http://www.w3.org/2000/svg" width="297mm" height="210mm" viewBox="0 0 297 210">
    <defs id="_tag_235_"/>
    <g id="_tag_236_">
        <polygon id="simplify_211" points="98.8182,116.146 104.285,101.087 104.704,100.912 105.099,100.808 105.517,100.663 106.923,100.453 108.335,100.413 109.711,100.593 111.094,100.982 112.361,101.546 113.563,102.324 114.609,103.236 115.527,104.334 115.777,104.683 116.021,105.031 116.242,105.421 108.027,127.986 107.597,129.746 107.597,131.588 108.056,133.342 108.933,134.963 110.13,136.305 111.652,137.363 113.343,138.002 115.138,138.211 134.844,138.211 134.844,139.233 134.844,151.782 134.844,152.805 103.187,152.805 102.908,151.782 102.699,150.946 100.41,142.44 99.8407,141.139 98.9286,140.012 97.7318,139.198 96.3491,138.768 94.9025,138.739 93.4907,139.088 92.2649,139.872 91.3121,140.93 90.673,142.231 90.4232,143.637 90.6033,145.089 94.6236,160.038 94.6934,172.482 94.5249,174.736 93.9555,176.886 93.0027,178.937 91.6955,180.767 90.0746,182.353 88.2446,183.619 86.1589,184.572 84.0093,185.101 85.5256,179.605 84.0093,178.966 82.6673,178.048 81.5809,176.816 80.7733,175.37 80.3434,173.818 80.2388,172.157 80.5235,170.571 81.1916,169.06 82.1386,167.724 82.5685,167.265 83.3412,166.202 83.9803,165.046 84.4683,163.843 84.8169,162.577 85.0376,161.264 85.0667,159.927 84.9679,158.626 84.6774,157.36 82.0398,147.373 81.6506,145.409 81.5402,143.399 81.7493,141.377 82.249,139.408 83.0217,137.543 84.05,135.811 85.3165,134.225 86.798,132.854 88.7733,131.158 90.6324,129.328 92.3637,127.387 93.9555,125.307 95.4021,123.164 96.7035,120.904 97.8306,118.533" fill="none" stroke="black" stroke-width="0.1"/>
        <polygon id="simplify_212" cx="95.501" cy="143.776" points="100.501,143.776 100.47360947684137,144.2986423163383 100.39173800366903,144.8155584540888 100.25628258147577,145.32108497187474 100.06872728821301,145.809683215379 99.8311270189222,146.276 99.54608497187475,146.71492626146238 99.21672412738698,147.1216530317943 98.84665303179429,147.491724127387 98.43992626146238,147.82108497187474 98.001,148.1061270189222 97.534683215379,148.34372728821302 97.04608497187475,148.53128258147578 96.5405584540888,148.66673800366902 96.02364231633827,148.74860947684138 95.501,148.776 94.97835768366174,148.74860947684138 94.46144154591121,148.66673800366902 93.95591502812526,148.53128258147578 93.467316784621,148.34372728821302 93.001,148.1061270189222 92.56207373853763,147.82108497187474 92.15534696820572,147.491724127387 91.78527587261303,147.1216530317943 91.45591502812528,146.71492626146238 91.1708729810778,146.276 90.933272711787,145.809683215379 90.74571741852424,145.32108497187474 90.61026199633098,144.8155584540888 90.52839052315863,144.2986423163383 90.501,143.776 90.52839052315863,143.25335768366173 90.61026199633098,142.73644154591122 90.74571741852424,142.23091502812528 90.933272711787,141.742316784621 91.1708729810778,141.276 91.45591502812526,140.83707373853764 91.78527587261303,140.43034696820573 92.15534696820572,140.06027587261303 92.56207373853763,139.73091502812528 93.001,139.44587298107783 93.467316784621,139.208272711787 93.95591502812526,139.02071741852424 94.4614415459112,138.885261996331 94.97835768366173,138.80339052315864 95.501,138.776 96.02364231633827,138.80339052315864 96.5405584540888,138.88526199633097 97.04608497187473,139.02071741852424 97.534683215379,139.208272711787 98.001,139.44587298107783 98.43992626146238,139.73091502812528 98.84665303179429,140.06027587261303 99.21672412738697,140.43034696820573 99.54608497187473,140.83707373853764 99.8311270189222,141.276 100.06872728821301,141.742316784621 100.25628258147577,142.23091502812528 100.39173800366903,142.73644154591122 100.47360947684137,143.25335768366173" fill="none" stroke="black" stroke-width="0.1"/>
        <polygon id="simplify_213" points="87.4254,168.183 86.1996,168.392 85.0376,168.921 84.079,169.728 83.4109,170.821 83.0623,172.017 83.0972,173.29 83.4516,174.487 84.1487,175.55 85.1073,176.398 86.2693,176.886 87.5068,177.066 88.7733,176.886 89.8945,176.357 90.8531,175.509 91.5271,174.457 91.8756,173.22 91.8756,171.948 91.4864,170.751 90.8125,169.694 89.8248,168.88 88.6977,168.351" fill="none" stroke="black" stroke-width="0.1"/>
        <line id="simplify_214" x1="87.6055" y1="153.513" x2="85.7057" y2="146.385" stroke="black" stroke-width="0.1"/>
        <polyline id="simplify_SVG__000136" points="85.7057,146.385 85.3862,144.485 85.4153,142.551 85.8452,140.68 86.5888,138.92 87.6752,137.293 89.0579,135.951 90.6324,134.864 92.4043,134.086 94.3041,133.697 96.2387,133.627 98.1501,133.946 99.9511,134.655 101.607,135.631 103.019,136.944 104.175,138.49 105.023,140.221 105.517,142.086 105.656,144.026 105.418,145.938 104.849,147.768 103.925,149.452 102.699,150.946" fill="none" stroke="black" stroke-width="0.1"/>
        <polyline id="simplify_SVG__000137" points="82.5685,167.265 84.079,166.022 85.3862,164.587 86.4494,162.954 87.2569,161.194 87.7856,159.329 88.0238,157.388 87.9541,155.448 87.6055,153.513" fill="none" stroke="black" stroke-width="0.1"/>
        <polyline id="simplify_SVG__000138" points="115.138,139.233 113.343,139.018 111.582,138.461 109.99,137.502 108.654,136.27 107.597,134.754 106.894,133.063 106.545,131.268 106.615,129.438 107.033,127.637" fill="none" stroke="black" stroke-width="0.1"/>
        <polyline id="simplify_SVG__000139" points="99.771,116.494 98.7776,118.963 97.5808,121.363 96.2794,123.692 94.7631,125.912 93.1422,128.021 91.3818,130.036 89.4762,131.907 87.4254,133.662" fill="none" stroke="black" stroke-width="0.1"/>
        <polyline id="simplify_SVG__000140" points="87.4254,133.662 86.0601,134.934 84.8866,136.381 83.9105,138.002 83.2018,139.733 82.737,141.557 82.5685,143.399 82.6382,145.298 82.9868,147.134" fill="none" stroke="black" stroke-width="0.1"/>
        <line id="simplify_220" x1="105.517" y1="100.663" x2="99.771" y2="116.494" stroke="black" stroke-width="0.1"/>
        <line id="simplify_221" x1="107.033" y1="127.637" x2="115.527" y2="104.334" stroke="black" stroke-width="0.1"/>
        <line id="simplify_222" x1="134.844" y1="139.233" x2="115.138" y2="139.233" stroke="black" stroke-width="0.1"/>
        <line id="simplify_223" x1="102.908" y1="151.782" x2="134.844" y2="151.782" stroke="black" stroke-width="0.1"/>
        <polyline id="simplify_SVG__000145" points="85.6709,157.069 85.88,158.057 86.0195,159.05 86.0892,160.038 86.0601,161.014 85.9498,162.007 85.7755,162.954 85.4908,163.942 85.1771,164.866" fill="none" stroke="black" stroke-width="0.1"/>
        <line id="simplify_225" x1="82.9868" y1="147.134" x2="85.6709" y2="157.069" stroke="black" stroke-width="0.1"/>
        <line id="simplify_226" x1="102.699" y1="150.946" x2="102.908" y2="151.782" stroke="black" stroke-width="0.1"/>
        <line id="simplify_227" x1="103.187" y1="152.805" x2="102.908" y2="151.782" stroke="black" stroke-width="0.1"/>
        <line id="center_00" cx="95.501" cy="143.776" x2="120.01" y2="184.344" stroke="black" stroke-width="0.1"/>
        <line id="simplify_229" x1="95.501" y1="146.172" x2="95.501" y2="141.381" stroke="black" stroke-width="0.1"/>
        <line id="simplify_230" x1="97.8242" y1="143.776" x2="93.1778" y2="143.776" stroke="black" stroke-width="0.1"/>
        <line id="simplify_231" x1="87.4661" y1="175.017" x2="87.4661" y2="170.226" stroke="black" stroke-width="0.1"/>
        <line id="simplify_232" x1="89.7893" y1="172.622" x2="85.1429" y2="172.622" stroke="black" stroke-width="0.1"/>
    </g>
</svg>
