<!DOCTYPE svg PUBLIC "-//W3C//DTD SVG 1.1//EN" "http://www.w3.org/Graphics/SVG/1.1/DTD/svg11.dtd">
<svg xmlns="http://www.w3.org/2000/svg" width="297mm" height="210mm" viewBox="0 0 297 210">
    <defs id="_tag_21_"/>
    <g id="Ebene_x0020_1">
        <polygon points="42.0123,191.045 43.277537304687506,190.06171074218747 44.5419296875,188.9724546875 45.771510351562505,187.8098744140625 46.9323125,186.60661249999998 47.9903693359375,185.39531152343747 48.91171406250001,184.20861406249998 49.6623798828125,183.07916269531248 50.208400000000005,182.03959999999998 59.08630000000001,161.83979999999997 59.67950000000001,162.00499999999997 58.902039453125006,165.74395957031248 58.89564687500001,169.14628281249998 59.49159335937502,172.19227402343748 60.52115000000001,174.86223749999996 61.81558789062502,177.13647753906247 63.20617812500001,178.99529843749997 64.52419179687502,180.41900449218747 65.60090000000001,181.38789999999997 64.38700000000001,184.16059999999996 63.839488476562515,185.95237050781245 63.76390156250002,187.65673906249998 64.11699824218752,189.23467871093746 64.85553750000001,190.64716249999995 65.93627832031251,191.85516347656247 67.31597968750002,192.81965468749996 68.95140058593752,193.50160917968748 70.79930000000002,193.86199999999997 86.30450000000002,193.84609999999998 86.30900000000001,194.44619999999998 85.60288808593751,194.47698183593747 84.92152968750003,194.5063796875 84.26837832031252,194.5382970703125 83.64688750000002,194.57663749999998 83.0605107421875,194.62530449218747 82.51270156250001,194.68820156249998 82.00691347656252,194.76923222656245 81.54660000000001,194.87229999999997 81.54660000000001,194.87229999999997 79.922297265625,195.56145332031247 78.58519062500001,196.64058906249997 77.487807421875,198.04258339843747 76.58267500000002,199.70031249999997 75.82232070312502,201.54665253906248 75.15927187500002,203.51447968749997 74.546055859375,205.53667011718747 73.93520000000001,207.54609999999997 60.14490000000001,207.39939999999996 59.23093964843751,207.31201699218747 58.30934218750001,207.09112343749996 57.4098580078125,206.74471503906244 56.56223750000001,206.28078749999997 55.79623105468751,205.70733652343745 55.1415890625,205.03235781249998 54.628061914062506,204.26384707031247 54.28540000000001,203.40979999999996 53.25360000000001,199.68029999999996 53.237101562500015,199.60517089843745 53.219487500000014,199.53046718749997 53.20076718750002,199.45620175781244 53.18095000000002,199.38238749999996 53.16004531250001,199.30903730468748 53.13806250000002,199.23616406249994 53.11501093750001,199.16378066406244 53.09090000000001,199.09189999999995 53.08810000000001,199.08219999999994 53.08760000000001,199.08229999999995 52.768468945312506,198.35484746093744 52.34304531250001,197.69426093749996 51.82257089843751,197.11103457031246 51.21828750000002,196.61566249999996 50.54143691406251,196.21863886718745 49.803260937500006,195.93045781249995 49.01500136718751,195.76161347656245 48.187900000000006,195.72259999999994 48.187900000000006,195.72259999999994 47.1845412109375,195.85931562499994 46.25680468750001,196.18328749999995 45.424100195312505,196.67370312499995 44.70583750000001,197.30974999999995 44.1214263671875,198.07061562499996 43.69027656250001,198.93548749999997 43.431797851562514,199.88355312499996 43.36540000000001,200.89399999999995 43.36540000000001,200.89399999999995 43.37197226562501,201.02985078124993 43.38212812500001,201.16467499999993 43.395813671875004,201.29843046874996 43.412975,201.43107499999994 43.43355820312501,201.56256640624994 43.457509375000015,201.69286249999996 43.48477460937501,201.82192109374995 43.51530000000001,201.94969999999995 43.51520000000001,201.94969999999995 43.516000000000005,201.95249999999996 43.52319121093751,201.98044667968745 43.53051718750001,202.00833593749996 43.537981445312504,202.03616660156246 43.54558750000001,202.06393749999995 43.553338867187506,202.09164746093745 43.56123906250001,202.11929531249996 43.569291601562504,202.14687988281244 43.57750000000001,202.17439999999996 47.63660000000001,216.80289999999997 49.48120000000001,222.70819999999998 49.480900000000005,222.70809999999997 49.56553144531251,222.96447988281247 49.6408640625,223.22507031249998 49.70669277343751,223.4896849609375 49.76281250000001,223.75813749999998 49.80901816406251,224.03024160156247 49.84510468750001,224.30581093749998 49.8708669921875,224.5846591796875 49.886100000000006,224.86659999999998 49.886100000000006,224.86659999999998 49.88134707031251,225.49418476562496 49.824245312500004,226.108834375 49.716905273437504,226.70829179687496 49.561437500000004,227.29029999999995 49.35995253906251,227.85260195312497 49.1145609375,228.39294062499997 48.827373242187505,228.90905898437498 48.50050000000001,229.39869999999996 48.47810000000001,229.42969999999997 47.30276992187501,230.97615507812498 46.127690625000014,232.27986562499999 44.93390351562501,233.35079960937497 43.70245000000001,234.19892499999997 42.41437148437501,234.83420976562496 41.050709375000004,235.26662187499997 39.59250507812501,235.50612929687497 38.02080000000001,235.56269999999998 38.02080000000001,235.56269999999998 37.79548281250001,235.541316015625 37.61150000000001,235.48862187499998 37.47026718750001,235.40762929687497 37.37320000000001,235.30134999999999 37.321714062500014,235.17279570312496 37.31722500000001,235.02497812499996 37.36114843750001,234.860908984375 37.45490000000001,234.68359999999998 38.83710000000001,232.36659999999998 38.92994746093751,232.18431503906248 38.97959843750001,232.02004531249997 38.98809082031251,231.86851855468748 38.957462500000005,231.72446249999996 38.88975136718751,231.58260488281246 38.786995312500004,231.43767343749997 38.65123222656251,231.28439589843745 38.484500000000004,231.11749999999998 38.484500000000004,231.11749999999998 37.82653105468751,230.60626210937497 37.2312796875,230.024015625 36.7051666015625,229.376748828125 36.25461250000001,228.67044999999996 35.8860380859375,227.911107421875 35.605864062500004,227.10470937499997 35.4205111328125,226.257244140625 35.336400000000005,225.3747 35.336400000000005,225.3747 35.341402929687504,224.7424751953125 35.39952343750001,224.12345156249998 35.508604101562504,223.51991777343747 35.6664875,222.93416249999999 35.871016210937505,222.3684744140625 36.12003281250001,221.82514218749998 36.411379882812504,221.3064544921875 36.742900000000006,220.8147 36.74190000000001,220.815 36.755300000000005,220.7982 36.776098632812506,220.770197265625 36.79702031250001,220.742290625 36.81806621093751,220.714482421875 36.83923750000001,220.686775 36.860535351562504,220.659170703125 36.881960937500004,220.631671875 36.90351542968751,220.604280859375 36.925200000000004,220.577 36.925200000000004,220.577 37.5202703125,219.63663671875 38.035081250000005,218.54754375 38.4569578125,217.33754140624998 38.773225000000004,216.03445 38.971207812500005,214.66608984375 39.03823125,213.26028125 38.96162031250001,211.84484453124998 38.7287,210.4476 37.194700000000005,203.7387 37.19500000000001,203.7386 37.11468476562501,203.4229828125 37.043034375000005,203.10388749999998 36.980191796875005,202.7814359375 36.926300000000005,202.45575 36.88150195312501,202.1269515625 36.84594062500001,201.7951625 36.81975898437501,201.46050468749996 36.80310000000001,201.1231 36.80310000000001,201.1231 36.83258066406251,199.787963671875 37.01005156250001,198.492228125 37.32741855468751,197.244553515625 37.776587500000005,196.05360000000002 38.34946425781251,194.92802773437498 39.037954687500005,193.876496875 39.83396464843751,192.907667578125 40.729400000000005,192.03019999999998 40.729000000000006,192.03019999999998 40.73420000000001,192.02599999999998 40.88761738281251,191.89349433593748 41.042170312500005,191.7639171875 41.19819746093751,191.63721582031246 41.356037500000006,191.51333749999998 41.51602910156251,191.3922294921875 41.67851093750001,191.2738390625 41.84382167968751,191.15811347656248 42.01230000000001,191.045" fill="none" stroke="black" stroke-width="0.1" id="_new_2_1"/>
        <circle cx="42.6112" cy="225.121" r="4.49993" fill="none" stroke="black" stroke-width="0.1" id="_tag_22_"/>
        <polyline points="66.0939,192.868 67.31779492187499,194.06737226562498 68.22247812500001,195.678740625 68.810047265625,197.57745742187498 69.08260000000001,199.63887499999998 69.042233984375,201.738345703125 68.691046875,203.751221875 68.031136328125,205.552855859375 67.0646,207.0186" fill="none" stroke="black" stroke-width="0.1" id="_new_4_1"/>
        <polyline points="36.3344,221.433 36.8376984375,220.6874908203125 37.427293750000004,220.0107765625 38.0956859375,219.41090214843751 38.835375,218.8959125 39.638860937500006,218.47385253906248 40.49864375,218.1527671875 41.4072234375,217.9407013671875 42.3571,217.8457 42.3571,217.8457 43.61486777343751,217.90968281249997 44.81002343750001,218.179475 45.923858007812505,218.6376296875 46.9376625,219.2667 47.8327279296875,220.0492390625 48.590345312500006,220.96779999999998 49.1918056640625,222.00493593750002 49.6184,223.1432" fill="none" stroke="black" stroke-width="0.1" id="_new_5_1"/>
        <polyline points="49.0892,228.443 48.598813867187495,229.26038046875004 48.0085171875,230.00442500000003 47.3271775390625,230.66561328125002 46.5636625,231.23442500000002 45.726839648437505,231.70133984375002 44.8255765625,232.0568375 43.8687408203125,232.29139765625 42.8652,232.3955 42.8652,232.3955 42.1662751953125,232.3867974609375 41.4837578125,232.3133546875 40.8207708984375,232.1780814453125 40.1804375,231.98388749999998 39.565880664062504,231.73368261718747 38.9802234375,231.4303765625 38.426588867187505,231.0768791015625 37.908100000000005,230.6761" fill="none" stroke="black" stroke-width="0.1" id="_new_5_2"/>
        <polygon points="48.0081,190.575 49.4813666015625,190.6293734375 50.89638281249999,190.88760624999998 52.237873242187504,191.33542968749998 53.4905625,191.958575 54.6391751953125,192.74277343749998 55.6684359375,193.67375625 56.5630693359375,194.73725468749998 57.3078,195.91899999999998 57.308,195.91899999999998 57.3196,195.9407 57.327765429687496,195.9560138671875 57.3359109375,195.9713546875 57.3440353515625,195.9867212890625 57.3521375,196.0021125 57.3602162109375,196.01752714843747 57.3682703125,196.03296406249999 57.3762986328125,196.04842207031248 57.3843,196.0639 57.438100000000006,196.1693 57.495200000000004,196.285 57.5011,196.2971 57.531800000000004,196.361 57.5358,196.36939999999998 57.5439607421875,196.38665488281248 57.55209218750001,196.4039203125 57.560193164062504,196.42119746093746 57.5682625,196.43848749999998 57.5762990234375,196.45579160156245 57.5843015625,196.4731109375 57.592268945312505,196.4904466796875 57.6002,196.50779999999997 57.649,196.61629999999997 57.6933,196.71779999999995 57.7426,196.83509999999995 57.7864,196.94189999999995 57.79384375,196.96051367187496 57.80125,196.97915312499993 57.80861875,196.99781601562495 57.81595,197.01649999999995 57.82324375,197.03520273437496 57.8305,197.05392187499996 57.83771875,197.07265507812494 57.8449,197.09139999999994 57.8767,197.17579999999992 57.88340234375,197.19380917968743 57.89008125,197.21183593749993 57.89673203125,197.22987910156243 57.903349999999996,197.24793749999992 57.90993046875,197.26600996093742 57.91646875000001,197.28409531249994 57.92296015625,197.30219238281242 57.9294,197.32029999999992 57.9585,197.40349999999992 57.96537675781249,197.42345937499994 57.9722078125,197.44343749999993 57.9789943359375,197.4634343749999 57.9857375,197.4834499999999 57.9924384765625,197.5034843749999 57.999098437499995,197.52353749999992 58.005718554687505,197.5436093749999 58.0123,197.56369999999993 58.034800000000004,197.63319999999993 58.04224296875001,197.65661816406242 58.04964375000001,197.68007031249994 58.056997656250005,197.70355292968745 58.0643,197.72706249999993 58.07154609375,197.75059550781242 58.078731250000004,197.77414843749992 58.08585078125,197.79771777343743 58.09290000000001,197.82129999999992 58.106500000000004,197.86779999999993 58.113596679687504,197.89218867187495 58.1206359375,197.91660312499994 58.12761660156251,197.94104101562493 58.1345375,197.9654999999999 58.1413974609375,197.98997773437495 58.14819531250001,198.0144718749999 58.15492988281251,198.03898007812492 58.16160000000001,198.06349999999992 58.173100000000005,198.10669999999993 58.17945097656251,198.13077597656243 58.1857515625,198.15485781249993 58.1919982421875,198.17895136718744 58.1981875,198.20306249999993 58.20431582031251,198.22719707031243 58.21037968750001,198.25136093749992 58.216375585937506,198.27555996093744 58.222300000000004,198.29979999999992 58.2357,198.35499999999993 58.241667578125,198.38025566406242 58.247571875,198.40554531249992 58.253415234375005,198.43086542968743 58.2592,198.45621249999994 58.264928515625,198.48158300781242 58.270603125,198.50697343749994 58.27622617187501,198.53238027343744 58.281800000000004,198.55779999999993 58.28810000000001,198.58679999999993 58.29416191406251,198.61527207031241 58.300126562500004,198.6437640624999 58.30599980468751,198.67227714843742 58.31178750000001,198.70081249999993 58.31749550781251,198.7293712890624 58.323129687500014,198.7579546874999 58.32869589843751,198.78656386718743 58.33420000000001,198.81519999999992 58.33800000000001,198.83509999999993 58.34347050781251,198.86448105468742 58.34885781250001,198.89389843749993 58.35416308593751,198.92335097656243 58.35938750000001,198.95283749999993 58.36453222656251,198.98235683593742 58.3695984375,199.0119078124999 58.37458730468751,199.04148925781243 58.37950000000001,199.07109999999992 58.38110000000001,199.0810999999999 58.385853515625016,199.11062636718742 58.39051562500001,199.1401796874999 58.39508867187501,199.1697587890624 58.39957500000001,199.1993624999999 58.40397695312501,199.22898964843742 58.40829687500001,199.2586390624999 58.41253710937501,199.2883095703124 58.41670000000001,199.3179999999999 58.42050000000001,199.3456999999999 58.42432070312501,199.37428496093742 58.42805937500001,199.4028921874999 58.43171835937501,199.43152519531242 58.43530000000001,199.4601874999999 58.43880664062501,199.48888261718741 58.44224062500001,199.51761406249992 58.44560429687501,199.5463853515624 58.44890000000001,199.5751999999999 58.45110000000001,199.59519999999992 58.45428730468751,199.62456777343743 58.45739843750001,199.65394843749993 58.46043222656251,199.68334550781242 58.46338750000001,199.71276249999994 58.46626308593751,199.7422029296874 58.46905781250001,199.7716703124999 58.47177050781251,199.80116816406243 58.47440000000001,199.83069999999992 58.47680000000001,199.8593999999999 58.47919550781251,199.8883306640624 58.48150781250001,199.9172953124999 58.48373808593751,199.94629042968742 58.48588750000001,199.97531249999992 58.487957226562514,200.0043580078124 58.489948437500004,200.0334234374999 58.49186230468751,200.0625052734374 58.49370000000001,200.09159999999991 58.49540000000001,200.1185999999999 58.497194921875014,200.14936367187488 58.498903125000005,200.1801531249999 58.50052226562501,200.2109660156249 58.50205000000001,200.2417999999999 58.50348398437501,200.2726527343749 58.50482187500001,200.3035218749999 58.50606132812501,200.3344050781249 58.50720000000001,200.3652999999999 58.50720000000001,200.3652999999999 58.50870507812501,200.4115759765624 58.50999687500001,200.45778281249991 58.511077734375014,200.5039263671874 58.51195000000001,200.55001249999992 58.512616015625014,200.5960470703124 58.51307812500001,200.64203593749988 58.51333867187502,200.6879849609374 58.51340000000001,200.7338999999999 58.51340000000001,200.7422999999999 58.51270000000001,200.8324999999999 58.51280000000001,200.8341999999999 58.511600000000016,200.9117999999999 58.511400000000016,200.9254999999999 58.51100000000002,200.9400999999999 58.50910000000002,201.0181999999999 58.50760000000002,201.0667999999999 58.507500000000014,201.0676999999999 58.50500000000002,201.1389999999999 58.504100000000015,201.1605999999999 58.50120000000002,201.2212999999999 58.49740000000002,201.2951999999999 58.49730000000002,201.2983999999999 58.49607226562502,201.31999082031243 58.494790625000014,201.3415640624999 58.49345742187502,201.36312089843742 58.492075000000014,201.3846624999999 58.49064570312502,201.4061900390624 58.48917187500001,201.42770468749993 58.48765585937502,201.4492076171874 58.486100000000015,201.4706999999999 58.484600000000015,201.4908999999999 58.482077539062516,201.5237400390624 58.479457812500016,201.5565578124999 58.47673730468751,201.58934980468743 58.47391250000001,201.6221124999999 58.470979882812514,201.6548423828124 58.467935937500016,201.68753593749992 58.46477714843751,201.72018964843738 58.461500000000015,201.7527999999999 58.461100000000016,201.7574999999999 58.458700000000015,201.7793999999999 58.44730000000001,201.8844999999999 58.44001640625001,201.9466517578124 58.432343750000015,202.00868281249987 58.42428671875001,202.0705943359374 58.415850000000006,202.13238749999988 58.40703828125001,202.1940634765624 58.39785625000002,202.25562343749988 58.38830859375002,202.3170685546874 58.37840000000001,202.37839999999989 58.376100000000015,202.39189999999988 58.372747851562515,202.41202851562485 58.36936406250001,202.43214062499987 58.365945117187515,202.45223867187488 58.362487500000015,202.4723249999999 58.358987695312514,202.49240195312487 58.35544218750002,202.51247187499987 58.35184746093751,202.53253710937489 58.34820000000001,202.55259999999987 58.34500000000001,202.56959999999987 58.33072695312501,202.64554687499987 58.31588437500001,202.72128749999987 58.300474609375016,202.79682187499986 58.28450000000001,202.87214999999986 58.267962890625014,202.94727187499987 58.250865625,203.02218749999986 58.233210546875014,203.09689687499986 58.21500000000001,203.17139999999986 58.213600000000014,203.17659999999987 58.196700000000014,203.24399999999986 58.195400000000014,203.24919999999986 58.18740000000001,203.27959999999985 58.12479531250001,203.50930253906233 58.056950000000015,203.73688281249986 57.98392968750001,203.96226230468733 57.90580000000001,204.18536249999983 57.82262656250001,204.40610488281234 57.73447500000001,204.62441093749985 57.641410937500005,204.84020214843733 57.54350000000001,205.05339999999984 57.54350000000001,205.05339999999984 57.494622265625004,205.15523085937485 57.44460312500001,205.25642187499986 57.39346367187501,205.35697070312483 57.34122500000001,205.45687499999985 57.287908203125006,205.55613242187485 57.23353437500001,205.65474062499985 57.178124609375004,205.75269726562482 57.12170000000001,205.84999999999985 57.120300000000015,205.85239999999985 57.11290000000002,205.86509999999984 57.07176679687502,205.93429667968732 57.030115625000015,206.00313593749985 56.98794414062502,206.07161660156237 56.945250000000016,206.13973749999982 56.90203085937502,206.20749746093733 56.85828437500001,206.27489531249984 56.81400820312502,206.34192988281234 56.76920000000002,206.40859999999984 56.76920000000002,206.40859999999984 56.390598242187515,206.16743203124983 56.03109218750002,205.90286874999984 55.69368066406252,205.61572109374984 55.381362500000016,205.30679999999984 55.09713652343752,204.97691640624984 54.844001562500026,204.62688124999985 54.62495644531253,204.25750546874986 54.44300000000002,203.86959999999985 54.18260000000002,202.94269999999986 54.146100000000025,202.90639999999985 53.14730000000002,199.25849999999986 53.144800000000025,199.25919999999985 53.14320000000002,199.25409999999985 53.14300000000002,199.25369999999984 53.139200000000024,199.24149999999983 53.13910000000002,199.24109999999982 53.13840000000002,199.23869999999982 53.13740000000002,199.23599999999982 53.13670000000002,199.23359999999983 53.13580000000002,199.23089999999982 53.13520000000002,199.22849999999983 53.13420000000002,199.22589999999983 53.13350000000002,199.22349999999983 53.12940000000002,199.21069999999983 53.128700000000016,199.20829999999984 53.127800000000015,199.20569999999984 53.12710000000001,199.20329999999984 53.126300000000015,199.20059999999984 53.124600000000015,199.19569999999985 53.124600000000015,199.19559999999984 53.12390000000001,199.19319999999985 53.122900000000016,199.19049999999984 53.122200000000014,199.18809999999985 53.12060000000001,199.18309999999985 53.11990000000001,199.18039999999985 53.11820000000001,199.17539999999985 53.11750000000001,199.17299999999986 53.11650000000001,199.17029999999986 53.11580000000001,199.16799999999986 53.107600000000005,199.14289999999986 53.107400000000005,199.14269999999985 53.10660000000001,199.14009999999985 53.10490000000001,199.13499999999985 53.10410000000001,199.13259999999985 53.10310000000001,199.12999999999985 53.10300000000001,199.12979999999985 52.78794863281251,198.39305527343734 52.3643640625,197.72365468749985 51.84375058593751,197.13233613281233 51.237612500000004,196.62983749999984 50.55745410156251,196.22689667968737 49.814779687500014,195.93425156249984 49.02109355468751,195.76264003906235 48.187900000000006,195.72279999999984 48.187900000000006,195.72279999999984 47.1845412109375,195.85951562499983 46.25680468750001,196.18348749999984 45.424100195312505,196.67390312499984 44.70583750000001,197.30994999999984 44.1214263671875,198.07081562499985 43.69027656250001,198.93568749999986 43.431797851562514,199.88375312499986 43.36540000000001,200.89419999999984 43.36540000000001,200.89419999999984 43.37197656250001,201.03005078124983 43.38214375000001,201.16487499999982 43.39584531250001,201.29863046874985 43.413025000000005,201.43127499999983 43.43362656250001,201.56276640624984 43.45759375,201.69306249999985 43.48487031250001,201.82212109374984 43.51540000000001,201.94989999999984 43.51520000000001,201.94989999999984 43.51740000000001,201.95779999999985 43.52510175781251,201.98771660156234 43.53298281250001,202.01754531249983 43.54104433593751,202.04729199218735 43.549287500000005,202.07696249999987 43.557713476562505,202.10656269531236 43.5663234375,202.13609843749987 43.575118554687506,202.16557558593735 43.58410000000001,202.19499999999985 45.940000000000005,210.57929999999985 44.379977929687506,210.05846562499985 42.941717187500004,209.30209374999984 41.6493009765625,208.33261874999982 40.526812500000005,207.17247499999985 39.59833496093751,205.84409687499985 38.88795156250001,204.36991874999984 38.4197455078125,202.77237499999984 38.217800000000004,201.07389999999984 38.217800000000004,201.07389999999984 38.35255703125,199.02246874999986 38.8772625,197.09769374999985 39.752517968750006,195.34182812499984 40.938925000000005,193.79712499999982 42.39708515625,192.50583749999984 44.08760000000001,191.51021874999984 45.97107109375,190.85252187499987 48.008100000000006,190.57499999999985" fill="none" stroke="black" stroke-width="0.1" id="_new_6_1"/>
        <polyline points="50.2288,183.319 51.4019740234375,182.09977949218748 53.1221546875,181.52747968749998 55.1858048828125,181.5654431640625 57.3893875,182.1770125 59.5293654296875,183.3255302734375 61.4022015625,184.9743390625 62.804358789062505,187.08678144531248 63.5323,189.62619999999998" fill="none" stroke="black" stroke-width="0.1" id="_new_7_1"/>
        <circle cx="48.3624" cy="200.72" r="4.99992" fill="none" stroke="black" stroke-width="0.1" id="_tag_23_"/>
        <circle cx="48.3624" cy="200.72" r="4.99992" fill="none" stroke="black" stroke-width="0.1" id="center_00"/>
    </g>
</svg>
