<!DOCTYPE svg PUBLIC "-//W3C//DTD SVG 1.1//EN" "http://www.w3.org/Graphics/SVG/1.1/DTD/svg11.dtd">
<svg xmlns="http://www.w3.org/2000/svg" width="297mm" height="210mm" viewBox="0 0 297 210">
    <defs id="_tag_44_"/>
    <g id="Ebene_x0020_1">
        <polygon points="61.0157,185.415 62.763000000000005,179.1755 61.561927734375004,178.3659021484375 60.058603125000005,177.13948593749998 58.422851953125004,175.4922798828125 56.8245,173.4203125 55.433373046875005,170.9196123046875 54.41929687500001,167.98620781250003 53.95209726562501,164.6161275390625 54.201600000000006,160.8054 53.591300000000004,160.7243 47.611000000000004,181.963 47.218773437500005,183.0594908203125 46.639075000000005,184.27193281249998 45.9003390625,185.5641302734375 45.031000000000006,186.89988749999998 44.059492187500005,188.2430087890625 43.014250000000004,189.55729843749998 41.92370781250001,190.80656074218751 40.816300000000005,191.9546 40.73420000000001,192.0259 40.729000000000006,192.0301 40.729400000000005,192.0301 39.83396464843751,192.907567578125 39.037954687500005,193.87639687499998 38.34946425781251,194.927927734375 37.776587500000005,196.05349999999999 37.32741855468751,197.244453515625 37.01005156250001,198.492128125 36.83258066406251,199.78786367187502 36.80310000000001,201.123 36.80310000000001,201.123 36.81975898437501,201.4604046875 36.84594062500001,201.79506249999997 36.88150195312501,202.1268515625 36.926300000000005,202.45565 36.980191796875005,202.7813359375 37.043034375000005,203.10378749999998 37.11468476562501,203.4228828125 37.19500000000001,203.7385 37.194700000000005,203.7386 38.7287,210.4475 38.96162031250001,211.84474453125 39.03823125,213.26018125000002 38.971207812500005,214.66598984374997 38.773225000000004,216.03435 38.4569578125,217.33744140624998 38.035081250000005,218.54744374999996 37.5202703125,219.63653671875 36.925200000000004,220.5769 36.925200000000004,220.5769 36.90351542968751,220.604180859375 36.881960937500004,220.631571875 36.860535351562504,220.65907070312497 36.8392375,220.68667499999998 36.8180662109375,220.714382421875 36.7970203125,220.742190625 36.7760986328125,220.770097265625 36.755300000000005,220.7981 36.74190000000001,220.8149 36.742900000000006,220.81459999999998 36.411379882812504,221.3063544921875 36.12003281250001,221.8250421875 35.87101621093751,222.36837441406252 35.6664875,222.93406249999998 35.508604101562504,223.51981777343747 35.39952343750001,224.12335156249998 35.341402929687504,224.74237519531246 35.336400000000005,225.3746 35.336400000000005,225.3746 35.4205111328125,226.25714414062497 35.605864062500004,227.104609375 35.8860380859375,227.91100742187498 36.25461250000001,228.67034999999998 36.7051666015625,229.37664882812498 37.231279687500006,230.023915625 37.82653105468751,230.60616210937496 38.484500000000004,231.11739999999998 38.484500000000004,231.11739999999998 38.6512322265625,231.28429589843748 38.7869953125,231.43757343749996 38.8897513671875,231.58250488281246 38.957462500000005,231.72436249999996 38.9880908203125,231.86841855468748 38.9795984375,232.01994531249997 38.92994746093751,232.18421503906248 38.83710000000001,232.36649999999997 37.45490000000001,234.68349999999998 37.36114843750001,234.86080898437496 37.31722500000001,235.024878125 37.321714062500014,235.172695703125 37.37320000000001,235.30124999999998 37.47026718750001,235.40752929687497 37.61150000000001,235.48852187499998 37.79548281250001,235.54121601562497 38.02080000000001,235.56259999999997 38.02080000000001,235.56259999999997 39.59250507812501,235.506029296875 41.050709375000004,235.26652187499997 42.41437148437501,234.834109765625 43.70245000000001,234.19882499999997 44.93390351562501,233.35069960937497 46.127690625000014,232.27976562499998 47.30276992187501,230.97605507812497 48.47810000000001,229.42959999999997 48.50050000000001,229.39859999999996 48.82737324218751,228.90895898437498 49.11456093750001,228.39284062499996 49.35995253906251,227.85250195312497 49.56143750000001,227.29019999999997 49.716905273437504,226.70819179687496 49.824245312500004,226.10873437499995 49.88134707031251,225.49408476562496 49.886100000000006,224.86649999999997 49.886100000000006,224.86649999999997 49.8708669921875,224.5845591796875 49.84510468750001,224.30571093749995 49.80901816406251,224.03014160156246 49.76281250000001,223.75803749999997 49.70669277343751,223.48958496093746 49.6408640625,223.22497031249998 49.56553144531251,222.96437988281247 49.480900000000005,222.70799999999997 49.48120000000001,222.70809999999997 47.63660000000001,216.80279999999996 43.57750000000001,202.17429999999996 43.569291601562504,202.14677988281244 43.56123906250001,202.11919531249998 43.553338867187506,202.09154746093748 43.54558750000001,202.06383749999998 43.53798144531251,202.03606660156245 43.53051718750001,202.00823593749996 43.52319121093751,201.98034667968744 43.516000000000005,201.95239999999995 43.51520000000001,201.94959999999995 43.51530000000001,201.94959999999995 43.48477460937501,201.82182109374995 43.457509375000015,201.69276249999993 43.43355820312501,201.56246640624994 43.412975,201.43097499999993 43.395813671875004,201.29833046874995 43.38212812500001,201.16457499999996 43.37197226562501,201.02975078124996 43.36540000000001,200.89389999999995 43.36540000000001,200.89389999999995 43.431797851562514,199.88345312499996 43.69027656250001,198.93538749999993 44.1214263671875,198.07051562499996 44.70583750000001,197.30964999999998 45.424100195312505,196.67360312499994 46.25680468750001,196.18318749999995 47.1845412109375,195.85921562499996 48.187900000000006,195.72249999999994 48.187900000000006,195.72249999999994 49.01500136718751,195.76151347656244 49.803260937500006,195.93035781249995 50.5414369140625,196.21853886718745 51.2182875,196.61556249999995 51.82257089843751,197.11093457031242 52.34304531250001,197.69416093749993 52.768468945312506,198.35474746093743 53.08760000000001,199.08219999999994 53.08810000000001,199.08209999999994 53.09090000000001,199.09179999999995 53.11501093750001,199.16368066406244 53.138062500000004,199.23606406249996 53.16004531250001,199.30893730468745 53.18095000000001,199.38228749999996 53.20076718750001,199.45610175781243 53.219487500000014,199.53036718749996 53.237101562500015,199.60507089843745 53.25360000000001,199.68019999999996 54.28540000000001,203.40969999999996 54.628061914062506,204.26374707031246 55.14158906250001,205.03225781249995 55.79623105468751,205.70723652343744 56.56223750000001,206.28068749999997 57.40985800781251,206.74461503906244 58.30934218750001,207.09102343749996 59.23093964843751,207.31191699218746 60.14490000000001,207.39929999999995 73.93520000000001,207.54599999999996 74.546055859375,205.53657011718747 75.15927187500002,203.51437968749997 75.82232070312502,201.54655253906247 76.58267500000002,199.70021249999996 77.487807421875,198.04248339843747 78.58519062500001,196.64048906249997 79.922297265625,195.56135332031246 81.54660000000001,194.87219999999996 81.54660000000001,194.87219999999996 82.00691347656252,194.76913222656245 82.51270156250001,194.68810156249995 83.0605107421875,194.62520449218746 83.64688750000002,194.57653749999997 84.26837832031252,194.53819707031246 84.92152968750003,194.50627968749998 85.60288808593751,194.4768818359375 86.30900000000001,194.44609999999997 86.30450000000002,193.84599999999998 67.71180000000001,193.86369999999997 66.18513847656253,193.69268457031245 64.75268281250001,193.19967656249997 63.46585136718751,192.41923339843746 62.37606250000001,191.38591249999996 61.53473457031251,190.13427128906247 60.99328593750002,188.69886718749996 60.80313496093751,187.11425761718746 61.01570000000001,185.41499999999996" fill="none" stroke="black" stroke-width="0.1" id="_new_27_1"/>
        <polyline points="65.6267,193.727 67.00209218750001,194.745325 68.03114375,196.2159 68.7162171875,198.00762500000002 69.059675,199.9894 69.0638796875,202.030125 68.73119374999999,203.9987 68.0639796875,205.764025 67.0646,207.195" fill="none" stroke="black" stroke-width="0.1" id="_new_28_1"/>
        <polyline points="47.319,183.227 48.279230273437506,181.8292935546875 49.866135937500005,181.0364796875 51.86703925781251,180.83836660156248 54.06926250000001,181.2247625 56.2601279296875,182.1854755859375 58.226957812500004,183.7103140625 59.7570744140625,185.78908613281249 60.6378,188.4116" fill="none" stroke="black" stroke-width="0.1" id="_new_29_1"/>
        <polyline points="36.3344,221.433 36.8376984375,220.6874908203125 37.427293750000004,220.0107765625 38.0956859375,219.41090214843751 38.835375,218.8959125 39.638860937500006,218.47385253906248 40.49864375,218.1527671875 41.4072234375,217.9407013671875 42.3571,217.8457 42.3571,217.8457 43.61486777343751,217.90968281249997 44.81002343750001,218.179475 45.923858007812505,218.6376296875 46.9376625,219.2667 47.8327279296875,220.0492390625 48.590345312500006,220.96779999999998 49.1918056640625,222.00493593750002 49.6184,223.1432" fill="none" stroke="black" stroke-width="0.1" id="_new_30_1"/>
        <polyline points="49.0892,228.443 48.598813867187495,229.26038046875004 48.0085171875,230.00442500000003 47.3271775390625,230.66561328125002 46.5636625,231.23442500000002 45.726839648437505,231.70133984375002 44.8255765625,232.0568375 43.8687408203125,232.29139765625 42.8652,232.3955 42.8652,232.3955 42.1662751953125,232.3867974609375 41.4837578125,232.3133546875 40.8207708984375,232.1780814453125 40.1804375,231.98388749999998 39.565880664062504,231.73368261718747 38.9802234375,231.4303765625 38.426588867187505,231.0768791015625 37.908100000000005,230.6761" fill="none" stroke="black" stroke-width="0.1" id="_new_30_2"/>
        <polygon points="48.0081,190.575 49.4813666015625,190.6293734375 50.89638281249999,190.88760624999998 52.237873242187504,191.33542968749998 53.4905625,191.958575 54.6391751953125,192.74277343749998 55.6684359375,193.67375625 56.5630693359375,194.73725468749998 57.3078,195.91899999999998 57.308,195.91899999999998 57.3196,195.9407 57.327765429687496,195.9560138671875 57.3359109375,195.9713546875 57.3440353515625,195.9867212890625 57.3521375,196.0021125 57.3602162109375,196.01752714843747 57.3682703125,196.03296406249999 57.3762986328125,196.04842207031248 57.3843,196.0639 57.438100000000006,196.1693 57.495200000000004,196.285 57.5011,196.2971 57.531800000000004,196.361 57.5358,196.36939999999998 57.5439607421875,196.38665488281248 57.55209218750001,196.4039203125 57.560193164062504,196.42119746093746 57.5682625,196.43848749999998 57.5762990234375,196.45579160156245 57.5843015625,196.4731109375 57.592268945312505,196.4904466796875 57.6002,196.50779999999997 57.649,196.61629999999997 57.6933,196.71779999999995 57.7426,196.83509999999995 57.7864,196.94189999999995 57.79384375,196.96051367187496 57.80125,196.97915312499993 57.80861875,196.99781601562495 57.81595,197.01649999999995 57.82324375,197.03520273437496 57.8305,197.05392187499996 57.83771875,197.07265507812494 57.8449,197.09139999999994 57.8767,197.17579999999992 57.88340234375,197.19380917968743 57.89008125,197.21183593749993 57.89673203125,197.22987910156243 57.903349999999996,197.24793749999992 57.90993046875,197.26600996093742 57.91646875000001,197.28409531249994 57.92296015625,197.30219238281242 57.9294,197.32029999999992 57.9585,197.40349999999992 57.96537675781249,197.42345937499994 57.9722078125,197.44343749999993 57.9789943359375,197.4634343749999 57.9857375,197.4834499999999 57.9924384765625,197.5034843749999 57.999098437499995,197.52353749999992 58.005718554687505,197.5436093749999 58.0123,197.56369999999993 58.034800000000004,197.63319999999993 58.04224296875001,197.65661816406242 58.04964375000001,197.68007031249994 58.056997656250005,197.70355292968745 58.0643,197.72706249999993 58.07154609375,197.75059550781242 58.078731250000004,197.77414843749992 58.08585078125,197.79771777343743 58.09290000000001,197.82129999999992 58.106500000000004,197.86779999999993 58.113596679687504,197.89218867187495 58.1206359375,197.91660312499994 58.12761660156251,197.94104101562493 58.1345375,197.9654999999999 58.1413974609375,197.98997773437495 58.14819531250001,198.0144718749999 58.15492988281251,198.03898007812492 58.16160000000001,198.06349999999992 58.173100000000005,198.10669999999993 58.17945097656251,198.13077597656243 58.1857515625,198.15485781249993 58.1919982421875,198.17895136718744 58.1981875,198.20306249999993 58.20431582031251,198.22719707031243 58.21037968750001,198.25136093749992 58.216375585937506,198.27555996093744 58.222300000000004,198.29979999999992 58.2357,198.35499999999993 58.241667578125,198.38025566406242 58.247571875,198.40554531249992 58.253415234375005,198.43086542968743 58.2592,198.45621249999994 58.264928515625,198.48158300781242 58.270603125,198.50697343749994 58.27622617187501,198.53238027343744 58.281800000000004,198.55779999999993 58.28810000000001,198.58679999999993 58.29416191406251,198.61527207031241 58.300126562500004,198.6437640624999 58.30599980468751,198.67227714843742 58.31178750000001,198.70081249999993 58.31749550781251,198.7293712890624 58.323129687500014,198.7579546874999 58.32869589843751,198.78656386718743 58.33420000000001,198.81519999999992 58.33800000000001,198.83509999999993 58.34347050781251,198.86448105468742 58.34885781250001,198.89389843749993 58.35416308593751,198.92335097656243 58.35938750000001,198.95283749999993 58.36453222656251,198.98235683593742 58.3695984375,199.0119078124999 58.37458730468751,199.04148925781243 58.37950000000001,199.07109999999992 58.38110000000001,199.0810999999999 58.385853515625016,199.11062636718742 58.39051562500001,199.1401796874999 58.39508867187501,199.1697587890624 58.39957500000001,199.1993624999999 58.40397695312501,199.22898964843742 58.40829687500001,199.2586390624999 58.41253710937501,199.2883095703124 58.41670000000001,199.3179999999999 58.42050000000001,199.3456999999999 58.42432070312501,199.37428496093742 58.42805937500001,199.4028921874999 58.43171835937501,199.43152519531242 58.43530000000001,199.4601874999999 58.43880664062501,199.48888261718741 58.44224062500001,199.51761406249992 58.44560429687501,199.5463853515624 58.44890000000001,199.5751999999999 58.45110000000001,199.59519999999992 58.45428730468751,199.62456777343743 58.45739843750001,199.65394843749993 58.46043222656251,199.68334550781242 58.46338750000001,199.71276249999994 58.46626308593751,199.7422029296874 58.46905781250001,199.7716703124999 58.47177050781251,199.80116816406243 58.47440000000001,199.83069999999992 58.47680000000001,199.8593999999999 58.47919550781251,199.8883306640624 58.48150781250001,199.9172953124999 58.48373808593751,199.94629042968742 58.48588750000001,199.97531249999992 58.487957226562514,200.0043580078124 58.489948437500004,200.0334234374999 58.49186230468751,200.0625052734374 58.49370000000001,200.09159999999991 58.49540000000001,200.1185999999999 58.497194921875014,200.14936367187488 58.498903125000005,200.1801531249999 58.50052226562501,200.2109660156249 58.50205000000001,200.2417999999999 58.50348398437501,200.2726527343749 58.50482187500001,200.3035218749999 58.50606132812501,200.3344050781249 58.50720000000001,200.3652999999999 58.50720000000001,200.3652999999999 58.50870507812501,200.4115759765624 58.50999687500001,200.45778281249991 58.511077734375014,200.5039263671874 58.51195000000001,200.55001249999992 58.512616015625014,200.5960470703124 58.51307812500001,200.64203593749988 58.51333867187502,200.6879849609374 58.51340000000001,200.7338999999999 58.51340000000001,200.7422999999999 58.51270000000001,200.8324999999999 58.51280000000001,200.8341999999999 58.511600000000016,200.9117999999999 58.511400000000016,200.9254999999999 58.51100000000002,200.9400999999999 58.50910000000002,201.0181999999999 58.50760000000002,201.0667999999999 58.507500000000014,201.0676999999999 58.50500000000002,201.1389999999999 58.504100000000015,201.1605999999999 58.50120000000002,201.2212999999999 58.49740000000002,201.2951999999999 58.49730000000002,201.2983999999999 58.49607226562502,201.31999082031243 58.494790625000014,201.3415640624999 58.49345742187502,201.36312089843742 58.492075000000014,201.3846624999999 58.49064570312502,201.4061900390624 58.48917187500001,201.42770468749993 58.48765585937502,201.4492076171874 58.486100000000015,201.4706999999999 58.484600000000015,201.4908999999999 58.482077539062516,201.5237400390624 58.479457812500016,201.5565578124999 58.47673730468751,201.58934980468743 58.47391250000001,201.6221124999999 58.470979882812514,201.6548423828124 58.467935937500016,201.68753593749992 58.46477714843751,201.72018964843738 58.461500000000015,201.7527999999999 58.461100000000016,201.7574999999999 58.458700000000015,201.7793999999999 58.44730000000001,201.8844999999999 58.44001640625001,201.9466517578124 58.432343750000015,202.00868281249987 58.42428671875001,202.0705943359374 58.415850000000006,202.13238749999988 58.40703828125001,202.1940634765624 58.39785625000002,202.25562343749988 58.38830859375002,202.3170685546874 58.37840000000001,202.37839999999989 58.376100000000015,202.39189999999988 58.372747851562515,202.41202851562485 58.36936406250001,202.43214062499987 58.365945117187515,202.45223867187488 58.362487500000015,202.4723249999999 58.358987695312514,202.49240195312487 58.35544218750002,202.51247187499987 58.35184746093751,202.53253710937489 58.34820000000001,202.55259999999987 58.34500000000001,202.56959999999987 58.33072695312501,202.64554687499987 58.31588437500001,202.72128749999987 58.300474609375016,202.79682187499986 58.28450000000001,202.87214999999986 58.267962890625014,202.94727187499987 58.250865625,203.02218749999986 58.233210546875014,203.09689687499986 58.21500000000001,203.17139999999986 58.213600000000014,203.17659999999987 58.196700000000014,203.24399999999986 58.195400000000014,203.24919999999986 58.18740000000001,203.27959999999985 58.12479531250001,203.50930253906233 58.056950000000015,203.73688281249986 57.98392968750001,203.96226230468733 57.90580000000001,204.18536249999983 57.82262656250001,204.40610488281234 57.73447500000001,204.62441093749985 57.641410937500005,204.84020214843733 57.54350000000001,205.05339999999984 57.54350000000001,205.05339999999984 57.494622265625004,205.15523085937485 57.44460312500001,205.25642187499986 57.39346367187501,205.35697070312483 57.34122500000001,205.45687499999985 57.287908203125006,205.55613242187485 57.23353437500001,205.65474062499985 57.178124609375004,205.75269726562482 57.12170000000001,205.84999999999985 57.120300000000015,205.85239999999985 57.11290000000002,205.86509999999984 57.07176679687502,205.93429667968732 57.030115625000015,206.00313593749985 56.98794414062502,206.07161660156237 56.945250000000016,206.13973749999982 56.90203085937502,206.20749746093733 56.85828437500001,206.27489531249984 56.81400820312502,206.34192988281234 56.76920000000002,206.40859999999984 56.76920000000002,206.40859999999984 56.390598242187515,206.16743203124983 56.03109218750002,205.90286874999984 55.69368066406252,205.61572109374984 55.381362500000016,205.30679999999984 55.09713652343752,204.97691640624984 54.844001562500026,204.62688124999985 54.62495644531253,204.25750546874986 54.44300000000002,203.86959999999985 54.18260000000002,202.94269999999986 54.146100000000025,202.90639999999985 53.14730000000002,199.25849999999986 53.144800000000025,199.25919999999985 53.14320000000002,199.25409999999985 53.14300000000002,199.25369999999984 53.139200000000024,199.24149999999983 53.13910000000002,199.24109999999982 53.13840000000002,199.23869999999982 53.13740000000002,199.23599999999982 53.13670000000002,199.23359999999983 53.13580000000002,199.23089999999982 53.13520000000002,199.22849999999983 53.13420000000002,199.22589999999983 53.13350000000002,199.22349999999983 53.12940000000002,199.21069999999983 53.128700000000016,199.20829999999984 53.127800000000015,199.20569999999984 53.12710000000001,199.20329999999984 53.126300000000015,199.20059999999984 53.124600000000015,199.19569999999985 53.124600000000015,199.19559999999984 53.12390000000001,199.19319999999985 53.122900000000016,199.19049999999984 53.122200000000014,199.18809999999985 53.12060000000001,199.18309999999985 53.11990000000001,199.18039999999985 53.11820000000001,199.17539999999985 53.11750000000001,199.17299999999986 53.11650000000001,199.17029999999986 53.11580000000001,199.16799999999986 53.107600000000005,199.14289999999986 53.107400000000005,199.14269999999985 53.10660000000001,199.14009999999985 53.10490000000001,199.13499999999985 53.10410000000001,199.13259999999985 53.10310000000001,199.12999999999985 53.10300000000001,199.12979999999985 52.78794863281251,198.39305527343734 52.3643640625,197.72365468749985 51.84375058593751,197.13233613281233 51.237612500000004,196.62983749999984 50.55745410156251,196.22689667968737 49.814779687500014,195.93425156249984 49.02109355468751,195.76264003906235 48.187900000000006,195.72279999999984 48.187900000000006,195.72279999999984 47.1845412109375,195.85951562499983 46.25680468750001,196.18348749999984 45.424100195312505,196.67390312499984 44.70583750000001,197.30994999999984 44.1214263671875,198.07081562499985 43.69027656250001,198.93568749999986 43.431797851562514,199.88375312499986 43.36540000000001,200.89419999999984 43.36540000000001,200.89419999999984 43.37197656250001,201.03005078124983 43.38214375000001,201.16487499999982 43.39584531250001,201.29863046874985 43.413025000000005,201.43127499999983 43.43362656250001,201.56276640624984 43.45759375,201.69306249999985 43.48487031250001,201.82212109374984 43.51540000000001,201.94989999999984 43.51520000000001,201.94989999999984 43.51740000000001,201.95779999999985 43.52510175781251,201.98771660156234 43.53298281250001,202.01754531249983 43.54104433593751,202.04729199218735 43.549287500000005,202.07696249999987 43.557713476562505,202.10656269531236 43.5663234375,202.13609843749987 43.575118554687506,202.16557558593735 43.58410000000001,202.19499999999985 45.940000000000005,210.57929999999985 44.379977929687506,210.05846562499985 42.941717187500004,209.30209374999984 41.6493009765625,208.33261874999982 40.526812500000005,207.17247499999985 39.59833496093751,205.84409687499985 38.88795156250001,204.36991874999984 38.4197455078125,202.77237499999984 38.217800000000004,201.07389999999984 38.217800000000004,201.07389999999984 38.35255703125,199.02246874999986 38.8772625,197.09769374999985 39.752517968750006,195.34182812499984 40.938925000000005,193.79712499999982 42.39708515625,192.50583749999984 44.08760000000001,191.51021874999984 45.97107109375,190.85252187499987 48.008100000000006,190.57499999999985" fill="none" stroke="black" stroke-width="0.1" id="_new_31_1"/>
        <circle cx="42.6112" cy="225.121" r="4.49993" fill="none" stroke="black" stroke-width="0.1" id="_tag_45_"/>
        <circle cx="48.3624" cy="200.72" r="4.99992" fill="none" stroke="black" stroke-width="0.1" id="_tag_46_"/>
        <circle cx="48.3624" cy="200.72" r="4.99992" fill="none" stroke="black" stroke-width="0.1" id="center_00"/>
    </g>
</svg>
