<!DOCTYPE svg PUBLIC "-//W3C//DTD SVG 1.1//EN" "http://www.w3.org/Graphics/SVG/1.1/DTD/svg11.dtd">
<svg xmlns="http://www.w3.org/2000/svg" width="297mm" height="210mm" viewBox="0 0 297 210">
    <defs id="_tag_4_"/>
    <g id="_tag_5_">
        <g id="_tag_6_">
            <polygon id="_130435848" points="93.3517,73.8973 106.014,79.5943 115.529,78.843 181.797,71.4597 185.92,70.5709 189.095,68.7083 192.833,66.5237 198.276,63.5747 204.418,60.609 210.065,58.1384 215.586,56.4055 220.756,54.7894 230.269,52.0187 247.004,50.4873 246.818,54.5909 240.112,56.575 231.728,57.6869 225.164,58.8584 217.903,61.1287 209.885,64.1688 201.899,67.858 193.476,72.9286 187.052,77.9138 183.946,80.1048 179.814,81.0012 107.448,88.9145 104.412,88.9843 101.027,88.3065 97.7563,87.4481 94.5596,86.2838 90.7254,82.6743" fill="none" stroke="black" stroke-width="0.1"/>
            <polygon id="_130435744" points="252.989,48.5385 272.562,48.2687 275.129,50.1617 272.11,53.7428 262.359,55.8908 255.772,56.3619 241.137,56.9014 233.6,53.5391 229.28,50.4125" fill="none" stroke="black" stroke-width="0.1"/>
            <polygon id="_130927408" points="115.779,71.0144 114.59,72.4884 112.306,77.0835 109.673,80.6148 107.474,81.8239 105.982,82.5538 100.853,83.9311 98.0775,84.6321 93.6797,85.4556 90.3101,85.1052 88.6505,84.5397 82.6372,81.4927 76.1431,77.7309 56.8774,66.9554 46.3229,61.567 33.4038,56.0465 21.464,52.0787 10.1576,50.5874 11.1346,47.5096 13.4019,44.1012 15.4898,41.908 19.2384,39.8403 25.0415,38.7774 33.9352,38.3972 44.4535,38.7524 55.4251,39.4547 107.209,40.4839 138.96,40.3618 223.469,38.7742 245.468,38.6539 259.619,38.7086 265.374,38.8963 270.601,40.0746 275.878,42.218 280.547,45.1447 283.202,47.9959 285.158,52.1376 284.042,54.055 254.977,53.2943 226.906,53.6157 206.028,54.3796 191.251,55.4349 175.316,56.8744 159.688,59.3778 142.455,62.9405 129.337,65.9108 121.501,68.1716 117.75,69.6972" fill="none" stroke="black" stroke-width="0.1"/>
            <polygon id="center_00" cx="138.96" cy="40.3618" points="156.3775,40.3618 156.2820851125769,42.18242450896436 155.99688583578106,43.983101874818324 155.52502687257083,45.74410349952565 154.87167800849002,47.44613548077275 154.04399747041546,49.07055 153.05105349952566,50.59954963180415 151.90372499775253,52.01638233625542 150.6145823362554,53.305524997752514 149.19774963180416,54.45285349952565 147.66875000000002,55.445797470415464 146.04433548077276,56.27347800849 144.34230349952566,56.92682687257084 142.58130187481834,57.398685835781066 140.78062450896437,57.6838851125769 138.96,57.779300000000006 137.13937549103565,57.6838851125769 135.33869812518168,57.398685835781066 133.57769650047436,56.92682687257084 131.87566451922726,56.27347800849 130.25125,55.445797470415464 128.72225036819586,54.45285349952565 127.3054176637446,53.30552499775252 126.0162750022475,52.01638233625542 124.86894650047437,50.59954963180415 123.87600252958455,49.07055000000001 123.04832199151001,47.44613548077275 122.39497312742917,45.74410349952565 121.92311416421894,43.98310187481833 121.63791488742311,42.18242450896436 121.5425,40.3618 121.63791488742311,38.54117549103565 121.92311416421894,36.74049812518168 122.39497312742917,34.979496500474355 123.04832199151001,33.27746451922726 123.87600252958454,31.653050000000007 124.86894650047435,30.124050368195853 126.01627500224748,28.707217663744593 127.30541766374459,27.41807500224749 128.72225036819586,26.270746500474356 130.25125,25.277802529584548 131.87566451922726,24.45012199151001 133.57769650047436,23.796773127429166 135.33869812518168,23.324914164218942 137.13937549103565,23.039714887423102 138.96,22.944300000000002 140.78062450896437,23.0397148874231 142.5813018748183,23.32491416421894 144.34230349952566,23.796773127429162 146.04433548077276,24.450121991509995 147.66875,25.277802529584534 149.19774963180416,26.270746500474353 150.6145823362554,27.418075002247484 151.9037249977525,28.70721766374458 153.05105349952566,30.124050368195846 154.04399747041546,31.653049999999993 154.87167800849,33.27746451922724 155.52502687257083,34.979496500474355 155.99688583578106,36.74049812518167 156.2820851125769,38.54117549103563" fill="none" stroke="black" stroke-width="0.1"/>
        </g>
        <g id="_tag_7_">
            <polygon id="path159" points="129.379,102.846 128.702,101.946 127.986,101.09 127.23,100.277 126.436,99.5069 125.605,98.7779 124.738,98.0896 123.836,97.4415 122.9,96.8325 122.627,96.5075 122.538,96.1171 122.616,95.6954 122.943,95.3906 125.87,93.7595 128.939,92.5161 132.113,91.6607 135.357,91.1941 138.634,91.1166 141.909,91.4288 145.146,92.1311 148.308,93.2242 148.649,93.4942 148.814,93.8673 148.777,94.3148 148.574,94.6718 147.759,95.4271 146.979,96.216 146.239,97.039 145.539,97.8961 144.883,98.7876 144.273,99.7137 143.712,100.675 143.201,101.671" fill="none" stroke="black" stroke-width="0.1"/>
            <g id="path171_1">
                <polyline id="path171___0" class="fil0 str0" points="142.161,101.76 130.967,102.711 131.01100000000002,103.118 131.23200000000003,103.642 131.83000000000004,104.012 132.32600000000005,104.05 133.11500000000004,103.968 134.23000000000005,103.863 135.55000000000004,103.744 136.95300000000003,103.622 138.31900000000005,103.505 139.52600000000004,103.40299999999999 140.45300000000003,103.32499999999999 140.97900000000004,103.28199999999998 141.43700000000004,103.18899999999998 141.97300000000004,102.77399999999997 142.15200000000004,102.25899999999997 142.14800000000005,101.82699999999997" fill="none" stroke="black" stroke-width="0.1"/>
                <polygon id="path171___1" class="fil0 str0" points="142.16100000000006,101.75999999999998" fill="none" stroke="black" stroke-width="0.1"/>
            </g>
            <polygon id="path1045" points="129.353,72.5491 130.262,72.5387 131.088,72.4554 132.027,72.3391 132.977,72.2042 133.838,72.0652 134.509,71.9365 135.011,71.737 134.842,71.3349 134.272,71.1967 133.876,71.1323 133.428,71.0678 132.967,71.0123 132.531,70.9753 131.892,70.994 131.329,71.1598 130.608,71.4596 129.939,71.7806 129.53,72.0102 129.213,72.2942" fill="none" stroke="black" stroke-width="0.1"/>
            <polygon id="path1073" points="124.66,83.4467 120.726,83.9222 117.753,84.3061 115.606,84.6107 114.153,84.8487 113.258,85.0327 112.789,85.1755 113.537,93.5019 113.758,93.8667 114.17,93.9721 120.221,93.2814 121.285,92.5744 122.135,92.031 123.005,91.5148 123.892,91.0266 124.796,90.5673 125.714,90.1375 126.646,89.7384 127.588,89.3706 127.51,88.6781 127.427,87.9481 127.327,87.083 127.22,86.1732 127.117,85.3092 127.027,84.5814 126.959,84.0804 126.689,83.5573 126.152,83.3475 125.444,83.3458" fill="none" stroke="black" stroke-width="0.1"/>
            <polygon id="path1085" points="148.708,90.0375 155.117,89.345 155.485,89.1495 155.594,88.7616 154.649,80.647 154.435,80.2814 142.324,81.5491 141.837,81.556 141.421,81.6139 140.796,81.8778 140.45,82.3313 140.38,82.9648 140.444,83.4406 140.529,84.1332 140.627,84.9561 140.727,85.8231 140.821,86.6478 140.899,87.3437 140.953,87.8247 141.983,88.1405 142.98,88.3118 143.964,88.5174 144.936,88.7568 145.896,89.0291 146.844,89.3339 147.781,89.6702" fill="none" stroke="black" stroke-width="0.1"/>
            <polygon id="path1033" points="111.388,77.2598 111.861,76.6221 111.388,77.2598 111.49,76.8665 119.626,75.066 126.077,72.9315 126.493,72.7627 126.852,72.535 127.143,72.2402 127.356,71.8706 127.529,71.413 127.632,71.023 127.928,70.7293 135.866,69.7902 136.276,69.8848 136.523,70.2442 136.729,70.5982 136.981,70.9359 137.319,71.1961 137.701,71.3799 138.114,71.4945 144.872,72.0969 152.783,71.8486 153.231,72.0451 153.665,75.5945 153.548,76.0228 153.16,76.5008 152.342,76.8358 151.591,76.9438 150.479,77.0963 149.134,77.2703 147.683,77.4424 146.254,77.5894 144.977,77.6884 143.979,77.7159 143.387,77.6489 142.805,77.3082 142.326,76.8896 141.768,76.4539 141.402,76.2486 140.948,76.0619 140.46,75.9384 139.9,75.8917 139.278,75.9143 138.606,75.9986 137.893,76.1367 137.151,76.3213 136.39,76.5447 135.622,76.7992 134.939,77.029 134.407,77.1922 133.993,77.3016 133.403,77.4111 132.923,77.4609 132.274,77.5398 131.799,77.6017 131.206,77.6283 130.783,77.6133 130.233,77.5717 129.522,77.4972 128.707,77.4196 127.91,77.3705 127.143,77.3556 126.416,77.3804 125.738,77.4507 125.121,77.5722 124.574,77.7504 124.109,77.9911 123.723,78.2831 123.423,78.5677 122.987,79.1121 122.612,79.6186 122.112,80.0813 121.543,80.2851 120.559,80.4899 119.287,80.6879 117.858,80.8714 116.401,81.0325 115.047,81.1633 113.926,81.2562 113.166,81.3032 112.676,81.2913 112.017,81.0228 111.692,80.6184 111.527,79.7515 111.486,79.2352 111.454,78.7322 111.428,78.2664 111.41,77.8622 111.39,77.3348" fill="none" stroke="black" stroke-width="0.1"/>
        </g>
    </g>
</svg>
