<?xml version="1.0" encoding="UTF-8"?>
<!DOCTYPE svg PUBLIC "-//W3C//DTD SVG 1.1//EN" "http://www.w3.org/Graphics/SVG/1.1/DTD/svg11.dtd">
<!-- Creator: CorelDRAW -->
<svg xmlns="http://www.w3.org/2000/svg" xml:space="preserve" width="420mm" height="594mm" style="shape-rendering:geometricPrecision; text-rendering:geometricPrecision; image-rendering:optimizeQuality; fill-rule:evenodd; clip-rule:evenodd"
viewBox="0 0 420 594">
 <defs>
  <style type="text/css">
   <![CDATA[
    .str1 {stroke:#DA251D;stroke-width:0.0265}
    .str0 {stroke:#1F1A17;stroke-width:0.0762}
    .fil3 {fill:none}
    .fil4 {fill:#969594}
    .fil1 {fill:#AAA9A9}
    .fil0 {fill:#C2C1C1}
    .fil2 {fill:#DEDEDD}
   ]]>
  </style>
 </defs>
 <g id="Ebene_x0020_1">
  <metadata id="CorelCorpID_0Corel-Layer"/>
  <polygon class="fil0 str0" points="189.502,498.595 195.243,497.802 198.109,496.512 201.182,493.84 203.456,491.075 204.151,491.46 207.712,492.249 211.274,493.836 214.644,496.014 229.687,496.014 230.912,496.089 234.97,512.266 229.002,510.261 190.888,509.678 "/>
  <polygon class="fil1 str0" points="243.569,86.1078 243.517,88.2961 245.779,96.33 244.589,96.8932 245.661,98.1895 247.267,100.129 248.468,104.221 248.835,108.827 248.569,113.678 247.536,122.397 246.42,132.545 245.513,140.824 244.454,149.137 243.122,154.868 241.099,159.706 237.699,164.034 233.694,167.179 235.806,164.376 238.332,159.284 239.158,154.939 240.218,146.236 243.328,118.648 243.856,106.769 244.589,96.8932 242.866,91.9584 "/>
  <polygon class="fil2 str0" points="204.614,167.179 235.398,167.179 235.398,168.949 204.614,168.949 "/>
  <polygon class="fil2 str0" points="204.613,165.59 237.218,165.602 237.218,165.989 204.613,165.977 "/>
  <polygon class="fil2 str0" points="204.812,165.199 237.565,165.199 237.565,165.59 204.613,165.59 "/>
  <polygon class="fil2 str0" points="204.135,166.072 204.457,165.989 237.52,165.989 237.81,165.989 237.81,167.179 204.457,167.179 204.102,167.031 203.992,166.763 203.992,166.343 "/>
  <rect class="fil2 str0" x="204.415" y="168.949" width="28.4757" height="0.2097"/>
  <rect class="fil2 str0" x="198.675" y="171.141" width="30.7096" height="0.5861"/>
  <rect class="fil2 str0" x="205.014" y="170.348" width="2.5717" height="0.7895"/>
  <rect class="fil2 str0" x="220.256" y="170.342" width="3.7609" height="0.789"/>
  <polygon class="fil2 str0" points="240.543,169.161 200.163,169.161 199.812,169.258 199.664,169.553 199.664,169.752 199.664,171.131 239.726,171.131 "/>
  <polygon class="fil2 str0" points="198.675,171.727 211.346,171.727 222.137,171.132 228.768,169.94 232.328,168.158 235.497,166.276 238.071,164.096 240.84,161.025 243.214,156.273 244.601,151.522 245.489,146.275 246.788,136.084 247.657,128.332 248.373,122.141 249.169,115.257 249.582,110.819 249.666,107.542 249.306,103.714 248.645,100.845 247.183,97.9871 245.779,96.33 243.517,88.2961 243.569,86.1078 247.984,87.615 252.324,89.7083 254.551,92.8592 256.032,95.522 257.777,99.409 260.339,106.582 261.495,112.093 260.041,116.911 258.537,123.911 256.278,141.225 256.153,142.732 255.225,153.903 253.855,157.708 253.806,157.754 249.56,172.111 242.441,200.423 242.242,202.008 242.143,203.693 242.044,206.36 241.909,438.586 241.655,438.59 241.56,476.302 240.774,488.874 241.549,492.235 233.487,496.316 229.986,496.008 214.644,496.014 211.274,493.836 207.712,492.249 204.151,491.46 202.362,490.47 201.671,489.285 201.571,488.491 203.751,488.689 210.09,488.886 203.751,488.689 201.571,488.491 201.148,409.005 202.216,388.88 202.249,203.605 202.247,198.063 202.246,196.874 201.854,194.695 201.062,192.715 200.463,191.725 199.672,190.735 199.281,189.945 198.981,189.058 198.781,188.464 198.681,187.773 "/>
  <polyline class="fil3 str0" points="226.789,175.187 231.047,179.045 237.283,179.047 242.831,177.456 246.588,169.342 242.831,177.456 243.623,182.206 243.127,188.346 240.258,193.098 240.385,193.805 242.042,200.42 "/>
  <polyline class="fil3 str0" points="208.807,198.061 214.722,198.258 218.878,198.648 222.248,198.846 "/>
  <polyline class="fil3 str0" points="216.616,483.796 216.616,408.521 214.649,386.708 206.424,386.708 "/>
  <line class="fil3 str1" x1="195.014" y1="423.755" x2="180.164" y2= "425.549" />
  <line class="fil3 str1" x1="197.784" y1="422.173" x2="180.163" y2= "424.36" />
  <polygon class="fil4 str0" points="179.971,424.559 195.739,422.315 198.575,421.973 199.963,421.182 200.554,420.391 201.152,419.201 201.36,441.374 200.661,439.889 199.571,438.604 197.591,437.814 196.409,437.616 181.558,437.03 181.358,436.232 195.019,436.426 198.089,436.924 199.77,438.013 198.089,436.924 195.019,436.426 181.358,436.232 180.164,425.549 195.014,423.787 197.984,423.163 199.565,422.172 197.984,423.163 195.014,423.755 180.164,425.549 "/>
  <polygon class="fil3 str0" points="189.502,498.595 189.103,498.795 190.697,510.668 190.889,510.867 190.888,509.678 190.889,510.867 228.504,511.451 229.597,511.642 230.823,512.02 231.873,512.831 231.083,511.841 229.102,510.261 190.888,509.678 "/>
  <polygon class="fil1 str0" points="231.873,512.831 229.101,507.291 228.01,505.806 220.915,496.599 231.195,496.114 234.637,493.428 239.785,491.05 240.775,490.063 240.774,488.874 239.594,487.62 238.394,486.895 237.603,485.506 235.952,477.08 235.819,476.404 236.31,475.905 237.009,475.613 240.769,475.612 241.545,475.185 241.531,474.222 241.604,458.951 241.755,465.12 242.946,469.075 243.834,471.055 247.301,476.495 250.073,479.269 254.63,484.413 257.798,488.668 260.67,493.318 262.752,497.975 264.139,503.021 265.041,507.707 265.329,515.197 262.958,517.178 249.882,501.342 248.892,500.552 247.61,499.961 246.121,499.762 244.739,499.962 243.35,500.654 242.261,501.94 241.571,503.126 241.572,505.405 242.463,507.285 255.831,523.121 253.652,525.095 252.319,524.762 249.104,523.91 246.719,523.183 244.167,522.216 240.783,520.352 236.926,517.979 234.646,516.199 232.953,514.366 "/>
  <circle id="center_00" class="fil3 str0" cx="246.222" cy="504.413" r="4.49994"/>
  <polyline class="fil3 str0" points="231.673,510.655 233.159,513.226 235.931,516.294 239.792,518.864 242.368,520.348 243.193,519.77 248.506,515.403 245.416,515.404 241.871,514.611 239.399,513.027 237.318,510.852 235.832,507.687 235.232,504.418 235.829,500.948 237.213,498.081 239.588,495.605 241.663,494.415 244.928,493.424 248.697,493.621 252.159,495.005 254.831,497.38 256.417,500.944 257.212,504.309 256.915,508.27 263.153,503.118 "/>
  <line class="fil3 str0" x1="243.522" y1="521.01" x2="249.696" y2= "515.794" />
  <line class="fil3 str0" x1="257.015" y1="509.851" x2="263.544" y2= "504.407" />
  <polyline class="fil3 str0" points="238.302,485.313 245.125,485.902 252.551,487.58 255.805,488.941 257.25,490.888 254.323,489.644 257.207,490.847 259.088,492.627 260.815,496.079 261.961,498.966 263.052,502.427 "/>
  <rect class="fil0 str0" x="215.834" y="497.196" width="12.6647" height="1.783"/>
  <rect class="fil0 str0" x="216.626" y="499.575" width="11.285" height="7.7165"/>
  <rect class="fil0 str0" x="216.627" y="502.545" width="2.5729" height="4.7498"/>
  <rect class="fil0 str0" x="219.789" y="502.543" width="4.9522" height="4.7489"/>
  <rect class="fil0 str0" x="225.338" y="502.541" width="2.5729" height="4.7499"/>
  <polygon class="fil0 str0" points="227.512,507.491 216.923,507.495 216.626,507.291 227.911,507.291 "/>
  <polygon class="fil0 str0" points="225.54,507.883 218.609,507.883 218.609,507.494 225.54,507.494 "/>
  <polygon class="fil0 str0" points="215.834,498.979 228.499,498.979 227.908,499.57 216.626,499.575 "/>
  <polygon class="fil0 str0" points="216.824,496.599 227.707,496.599 227.708,497.191 216.824,497.191 "/>
  <polygon class="fil0 str0" points="214.644,496.014 229.687,496.014 229.687,496.2 214.838,496.2 "/>
  <polygon class="fil0 str0" points="216.425,496.206 230.086,496.2 230.877,496.599 216.824,496.599 "/>
 </g>
</svg>
