<?xml version="1.0" encoding="UTF-8"?>
<!DOCTYPE svg PUBLIC "-//W3C//DTD SVG 1.1//EN" "http://www.w3.org/Graphics/SVG/1.1/DTD/svg11.dtd">
<!-- Creator: CorelDRAW -->
<svg xmlns="http://www.w3.org/2000/svg" xml:space="preserve" width="210mm" height="297mm" style="shape-rendering:geometricPrecision; text-rendering:geometricPrecision; image-rendering:optimizeQuality; fill-rule:evenodd; clip-rule:evenodd"
viewBox="0 0 210 297">
 <defs>
  <style type="text/css">
   <![CDATA[
    .str0 {stroke:black;stroke-width:0.1}
    .fil0 {fill:none}
   ]]>
  </style>
 </defs>
 <g id="Ebene_x0020_1">
  <metadata id="CorelCorpID_0Corel-Layer"/>
  <g id="Ebene_x0020_1_0">
   <ellipse id="center_00" class="fil0 str0" cx="62.274" cy="192" rx="11.9212" ry="11.9212"/>
   <polygon id="polygon10" class="fil0 str0" points="79.1922,189.833 79.2795,188.967 79.5302,188.159 79.9271,187.428 80.4522,186.792 81.089,186.266 81.8198,185.87 82.6271,185.619 83.4938,185.531 89.639,185.531 89.639,183.073 83.4938,183.073 82.1316,183.211 80.8631,183.605 79.7147,184.228 78.7143,185.053 77.8886,186.054 77.2653,187.202 76.8716,188.471 76.7343,189.833 76.7343,193.52 76.8716,194.882 77.2653,196.151 77.8886,197.3 78.7143,198.3 79.7147,199.125 80.8631,199.749 82.1316,200.143 83.4938,200.28 93.3263,200.28 93.3263,197.822 83.4938,197.822 82.6271,197.734 81.8198,197.484 81.089,197.087 80.4522,196.562 79.9271,195.925 79.5302,195.195 79.2795,194.387 79.1922,193.52 "/>
   <polygon id="polygon12" class="fil0 str0" points="121.477,189.833 121.385,188.967 121.123,188.159 120.707,187.428 120.157,186.792 119.49,186.266 118.724,185.87 117.878,185.619 116.971,185.531 112.991,185.531 112.991,195.364 110.533,195.364 110.533,183.073 116.971,183.073 118.398,183.211 119.727,183.605 120.93,184.228 121.978,185.053 122.843,186.054 123.496,187.202 123.908,188.471 124.052,189.833 124.052,193.52 123.908,194.882 123.496,196.151 122.843,197.3 121.978,198.3 120.93,199.125 119.727,199.749 118.398,200.143 116.971,200.28 106.846,200.28 106.846,197.822 116.971,197.822 117.878,197.734 118.724,197.484 119.49,197.087 120.157,196.562 120.707,195.925 121.123,195.195 121.385,194.387 121.477,193.52 "/>
   <polygon id="polygon14" class="fil0 str0" points="95.7842,189.219 95.8715,188.352 96.1221,187.545 96.519,186.814 97.0442,186.177 97.6809,185.652 98.4117,185.255 99.219,185.004 100.086,184.917 100.953,185.004 101.76,185.255 102.491,185.652 103.127,186.177 103.653,186.814 104.049,187.545 104.3,188.352 104.388,189.219 104.388,192.906 104.388,195.364 104.388,200.28 106.846,200.28 106.846,189.219 106.708,187.856 106.314,186.588 105.691,185.44 104.866,184.439 103.865,183.613 102.717,182.99 101.448,182.596 100.086,182.459 98.7236,182.596 97.455,182.99 96.3066,183.613 95.3063,184.439 94.4805,185.44 93.8573,186.588 93.4635,187.856 93.3263,189.219 93.3263,200.28 95.7842,200.28 95.7842,197.822 101.929,197.822 101.929,195.364 95.7842,195.364 "/>
   <polygon id="polygon16" class="fil0 str0" points="24.4996,200.28 1.7623,200.28 1.7623,193.52 1.8996,192.158 2.2936,190.889 2.9169,189.741 3.7424,188.741 4.7429,187.915 5.8911,187.292 7.1599,186.898 8.522,186.761 9.8842,186.898 11.153,187.292 12.3012,187.915 13.3016,188.741 14.1272,189.741 14.7505,190.889 15.1444,192.158 15.2818,193.52 12.8237,193.52 12.7363,192.653 12.4856,191.846 12.0889,191.115 11.5636,190.479 10.9269,189.953 10.1962,189.557 9.3888,189.306 8.522,189.219 7.6552,189.306 6.8478,189.557 6.1171,189.953 5.4805,190.479 4.9551,191.115 4.5584,191.846 4.3077,192.653 4.2204,193.52 4.2204,197.822 36.7901,197.822 36.7901,189.219 33.7174,189.219 33.7174,186.761 36.7901,186.761 36.7901,183.073 39.2715,183.073 39.2715,186.761 44.1643,186.761 44.1643,183.073 46.6224,183.073 46.6224,186.761 51.5386,186.761 51.5386,184.302 53.9967,184.302 53.9967,189.833 53.9967,193.52 54.0841,194.387 54.3348,195.195 54.7314,195.925 55.2568,196.562 55.8934,197.087 56.6241,197.484 57.4315,197.734 58.2983,197.822 61.073,197.822 60.7292,197.369 60.4241,196.887 60.1595,196.378 59.9381,195.846 59.7618,195.291 59.6331,194.718 59.5542,194.126 59.5273,193.52 59.6647,192.158 60.0587,190.889 60.6819,189.741 61.5077,188.741 62.508,187.915 63.6564,187.292 64.925,186.898 66.2871,186.761 67.6493,186.898 68.9183,187.292 70.0662,187.915 71.0666,188.741 71.8923,189.741 72.5156,190.889 72.9093,192.158 73.047,193.52 73.0776,194.741 71.8482,194.741 71.234,194.741 64.4741,194.741 64.4741,192.284 70.4078,192.284 70.158,191.643 69.8133,191.057 69.3836,190.535 68.8778,190.086 68.3058,189.721 67.6772,189.448 67.0008,189.278 66.2871,189.219 65.4204,189.306 64.6131,189.557 63.8823,189.953 63.2456,190.479 62.7204,191.115 62.3235,191.846 62.0729,192.653 61.9856,193.52 62.0729,194.387 62.3235,195.195 62.7204,195.925 63.2456,196.562 63.8823,197.087 64.6131,197.484 65.4204,197.734 66.2871,197.822 73.047,197.822 73.047,200.28 68.745,200.28 66.2871,200.28 58.2983,200.28 56.9362,200.143 55.6674,199.749 54.5192,199.125 53.5187,198.3 52.6932,197.3 52.0699,196.151 51.6759,194.882 51.5386,193.52 51.5386,189.219 46.6224,189.219 46.6224,200.28 44.1643,200.28 44.1643,189.219 39.2715,189.219 39.2715,200.28 25.7239,200.277 "/>
   <polygon id="polygon18" class="fil0 str0" points="36.7901,200.28 24.4996,200.28 23.1375,200.143 21.8687,199.749 20.7205,199.125 19.72,198.3 18.8945,197.3 18.2712,196.151 17.8772,194.882 17.7398,193.52 17.8772,192.158 18.2712,190.889 18.8945,189.741 19.72,188.741 20.7205,187.915 21.8687,187.292 23.1375,186.898 24.4996,186.761 25.1056,186.787 25.6967,186.866 26.2705,186.995 26.8249,187.171 27.3574,187.393 27.8658,187.658 28.3478,187.963 28.8013,188.306 28.8013,186.761 31.2593,186.761 31.2593,193.52 31.2593,194.135 31.2593,195.364 28.8013,195.364 28.8013,194.135 28.8013,193.52 28.7139,192.653 28.4632,191.846 28.0665,191.115 27.5412,190.479 26.9045,189.953 26.1738,189.557 25.3664,189.306 24.4996,189.219 23.6328,189.306 22.8253,189.557 22.0947,189.953 21.458,190.479 20.9327,191.115 20.536,191.846 20.2853,192.653 20.1979,193.52 20.2853,194.387 20.536,195.195 20.9327,195.925 21.458,196.562 22.0947,197.087 22.8253,197.484 23.6328,197.734 24.4996,197.822 36.7901,197.822 "/>
  </g>
 </g>
</svg>
