<!DOCTYPE svg PUBLIC "-//W3C//DTD SVG 1.1//EN" "http://www.w3.org/Graphics/SVG/1.1/DTD/svg11.dtd">
<svg xmlns="http://www.w3.org/2000/svg" width="297mm" height="210mm" viewBox="0 0 297 210">
    <defs id="_tag_37_"/>
    <g id="_tag_38_">
        <polygon id="simplify_2" points="94.1884,135.939 94.1496,134.948 94.2907,133.96 94.6399,133.039 95.169,132.2 95.8392,131.459 96.647,130.891 97.5677,130.471 98.5165,130.263 99.5042,130.221 100.495,130.362 101.444,130.722 102.294,131.24 102.993,131.911 103.592,132.729 104.023,133.639 104.231,134.598 104.481,136.496 104.584,136.958 104.763,137.417 105.042,137.805 105.36,138.115 108.39,140.655 110.09,142.062 110.827,141.364 111.846,140.235 112.167,139.815 112.446,139.424 112.866,138.785 113.144,138.295 113.367,137.875 113.536,137.516 113.744,137.068 114.277,135.759 114.524,134.838 114.735,133.889 114.915,132.87 114.986,131.812 114.943,130.122 114.704,128.464 114.277,126.835 113.645,125.255 112.866,123.777 111.878,122.397 110.756,121.128 109.49,120.037 108.111,119.05 106.629,118.27 105.042,117.671 103.423,117.251 101.723,117.043 100.037,117.001 98.3754,117.18 96.7281,117.572 95.1373,118.129 93.6205,118.87 92.1708,119.819 90.7316,121.057 89.6734,122.217 89.0314,123.029 88.9962,123.092 88.9609,123.149 88.9256,123.202 88.8939,123.255 88.8233,123.353 88.7528,123.456 88.4741,123.918 87.9838,124.796 87.624,125.537 87.3136,126.316 87.0632,127.124 86.8127,127.932 86.6752,128.743 86.5341,129.593 86.4635,130.433 86.4247,131.283 86.4247,135.646 87.1584,137.988 89.49,140.704 92.4988,143.343 95.028,144.39 95.3066,144.5" fill="none" stroke="black" stroke-width="0.1"/>
        <polygon id="simplify_3" points="94.1884,135.939 94.1496,134.948 94.2907,133.96 94.6399,133.039 95.169,132.2 95.8392,131.459 96.647,130.891 97.5677,130.471 98.5165,130.263 99.5042,130.221 100.495,130.362 101.444,130.722 102.294,131.24 102.993,131.911 103.592,132.729 104.023,133.639 104.231,134.598 104.481,136.496 104.584,136.958 104.763,137.417 105.042,137.805 105.36,138.115 108.39,140.655 110.09,142.062 110.827,141.364 111.846,140.235 112.167,139.815 112.446,139.424 112.866,138.785 113.144,138.295 113.367,137.875 113.536,137.516 113.744,137.068 114.277,135.759 114.524,134.838 114.735,133.889 114.915,132.87 114.986,131.812 114.943,130.122 114.704,128.464 114.277,126.835 113.645,125.255 112.866,123.777 111.878,122.397 110.756,121.128 109.49,120.037 108.111,119.05 106.629,118.27 105.042,117.671 103.423,117.251 101.723,117.043 100.037,117.001 98.3754,117.18 96.7281,117.572 95.1373,118.129 93.6205,118.87 92.1708,119.819 90.7316,121.057 89.6734,122.217 89.0314,123.029 88.9962,123.092 88.9609,123.149 88.9256,123.202 88.8939,123.255 88.8233,123.353 88.7528,123.456 88.4741,123.918 87.9838,124.796 87.624,125.537 87.3136,126.316 87.0632,127.124 86.8127,127.932 86.6752,128.743 86.5341,129.593 86.4635,130.433 86.4247,131.283 86.4247,135.646 87.1584,137.988 89.49,140.704 92.4988,143.343 95.028,144.39 95.3066,144.5" fill="none" stroke="black" stroke-width="0.1"/>
        <line id="simplify_4" x1="99.1867" y1="135.269" x2="99.1867" y2="132.729" stroke="black" stroke-width="0.1"/>
        <line id="simplify_5" x1="99.1867" y1="135.269" x2="96.647" y2="135.269" stroke="black" stroke-width="0.1"/>
        <line id="simplify_6" x1="99.1867" y1="135.269" x2="99.1867" y2="137.805" stroke="black" stroke-width="0.1"/>
        <line id="simplify_7" x1="99.1867" y1="135.269" x2="101.723" y2="135.269" stroke="black" stroke-width="0.1"/>
        <polygon id="simplify_8" points="86.4247,135.646 86.4247,131.283 86.4635,130.433 86.5341,129.593 86.6752,128.743 86.8127,127.932 87.0632,127.124 87.3136,126.316 87.624,125.537 87.9838,124.796 90.4106,124.376 92.841,124.087 95.2784,123.946 97.7052,123.918 100.146,123.985 102.612,124.196 105.01,124.546 107.398,124.965 107.829,125.117 108.249,125.286 108.598,125.537 108.958,125.815 109.24,126.136 109.49,126.486 109.698,126.916 109.839,127.293 110.157,128.951 110.368,130.613 110.397,132.299 110.298,133.96 110.047,135.618 109.659,137.237 109.099,138.824 108.428,140.345 105.532,137.907 105.36,137.766 105.222,137.625 105.113,137.445 105.01,137.276 104.901,137.096 104.831,136.888 104.763,136.676 104.721,136.468 104.481,134.598 104.231,133.569 103.811,132.62 103.211,131.769 102.432,131.032 101.554,130.503 100.566,130.122 99.5465,129.971 98.4848,130.013 97.4654,130.221 96.5059,130.683 95.6664,131.283 94.9574,132.059 94.4283,132.941 94.0403,133.928 93.871,134.948 93.8992,135.967 94.9292,143.692 95.1373,145.202 95.3489,146.86 95.5994,148.517 95.8075,150.278 96.0579,151.935 96.0862,153.244 96.1285,154.683 96.1285,156.133 96.0862,157.611 95.9768,159.061 95.8392,160.5 95.6664,161.95 95.4583,163.396 95.169,164.807 94.7881,166.257 94.2202,167.625 93.4406,168.895 92.4918,170.024 91.3595,171.011 90.132,171.851 88.7916,172.489 87.3842,172.951 85.9062,173.191 84.4177,173.191 82.9362,173.022 81.497,172.63 83.3983,169.674 82.3365,168.863 81.4194,167.904 80.6787,166.814 80.1496,165.614 79.8004,164.348 79.6981,163.008 79.7686,161.699 80.079,160.429 80.6081,159.202 81.9485,156.454 83.1161,153.636 84.1355,150.736 84.9468,147.78 85.5852,144.782 86.0438,141.752 86.326,138.715" fill="none" stroke="black" stroke-width="0.1"/>
        <polygon id="simplify_9" points="86.4247,135.646 86.4247,131.283 86.4635,130.433 86.5341,129.593 86.6752,128.743 86.8127,127.932 87.0632,127.124 87.3136,126.316 87.624,125.537 87.9838,124.796 90.4106,124.376 92.841,124.087 95.2784,123.946 97.7052,123.918 100.146,123.985 102.612,124.196 105.01,124.546 107.398,124.965 107.829,125.117 108.249,125.286 108.598,125.537 108.958,125.815 109.24,126.136 109.49,126.486 109.698,126.916 109.839,127.293 110.157,128.951 110.368,130.613 110.397,132.299 110.298,133.96 110.047,135.618 109.659,137.237 109.099,138.824 108.428,140.345 105.532,137.907 105.36,137.766 105.222,137.625 105.113,137.445 105.01,137.276 104.901,137.096 104.831,136.888 104.763,136.676 104.721,136.468 104.481,134.598 104.231,133.569 103.811,132.62 103.211,131.769 102.432,131.032 101.554,130.503 100.566,130.122 99.5465,129.971 98.4848,130.013 97.4654,130.221 96.5059,130.683 95.6664,131.283 94.9574,132.059 94.4283,132.941 94.0403,133.928 93.871,134.948 93.8992,135.967 94.9292,143.692 95.1373,145.202 95.3489,146.86 95.5994,148.517 95.8075,150.278 96.0579,151.935 96.0862,153.244 96.1285,154.683 96.1285,156.133 96.0862,157.611 95.9768,159.061 95.8392,160.5 95.6664,161.95 95.4583,163.396 95.169,164.807 94.7881,166.257 94.2202,167.625 93.4406,168.895 92.4918,170.024 91.3595,171.011 90.132,171.851 88.7916,172.489 87.3842,172.951 85.9062,173.191 84.4177,173.191 82.9362,173.022 81.497,172.63 83.3983,169.674 82.3365,168.863 81.4194,167.904 80.6787,166.814 80.1496,165.614 79.8004,164.348 79.6981,163.008 79.7686,161.699 80.079,160.429 80.6081,159.202 81.9485,156.454 83.1161,153.636 84.1355,150.736 84.9468,147.78 85.5852,144.782 86.0438,141.752 86.326,138.715" fill="none" stroke="black" stroke-width="0.1"/>
        <polygon id="simplify_10" points="99.1867,130.253 98.9257,130.26 98.6717,130.277 98.4213,130.309 98.1744,130.355 97.931,130.411 97.6946,130.479 97.4618,130.556 97.2326,130.644 97.0103,130.747 96.7952,130.856 96.5835,130.979 96.3825,131.11 96.1849,131.248 95.9944,131.399 95.811,131.554 95.6382,131.72 95.4724,131.897 95.3137,132.076 95.1655,132.267 95.0244,132.464 94.8939,132.669 94.774,132.877 94.6646,133.092 94.5623,133.315 94.4742,133.544 94.393,133.777 94.326,134.016 94.2696,134.256 94.2272,134.503 94.1955,134.754 94.1743,135.011 94.1708,135.269 94.1743,135.526 94.1955,135.78 94.2272,136.031 94.2696,136.278 94.326,136.521 94.393,136.761 94.4742,136.994 94.5623,137.219 94.6646,137.441 94.774,137.66 94.8939,137.868 95.0244,138.073 95.1655,138.27 95.3137,138.457 95.4724,138.641 95.6382,138.814 95.811,138.983 95.9944,139.138 96.1849,139.286 96.3825,139.427 96.5835,139.558 96.7952,139.678 97.0103,139.791 97.2326,139.89 97.4618,139.981 97.6946,140.059 97.931,140.126 98.1744,140.182 98.4213,140.228 98.6717,140.26 98.9257,140.278 99.1867,140.285 99.4442,140.278 99.6982,140.26 99.9486,140.228 100.196,140.182 100.439,140.126 100.675,140.059 100.912,139.981 101.137,139.89 101.36,139.791 101.575,139.678 101.786,139.558 101.991,139.427 102.185,139.286 102.375,139.138 102.559,138.983 102.732,138.814 102.897,138.641 103.056,138.457 103.204,138.27 103.346,138.073 103.476,137.868 103.596,137.66 103.709,137.441 103.808,137.219 103.899,136.994 103.977,136.761 104.044,136.521 104.1,136.278 104.143,136.031 104.178,135.78 104.196,135.526 104.203,135.269 104.196,135.011 104.178,134.754 104.143,134.503 104.1,134.256 104.044,134.016 103.977,133.777 103.899,133.544 103.808,133.315 103.709,133.092 103.596,132.877 103.476,132.669 103.346,132.464 103.204,132.267 103.056,132.076 102.897,131.897 102.732,131.72 102.559,131.554 102.375,131.399 102.185,131.248 101.991,131.11 101.786,130.979 101.575,130.856 101.36,130.747 101.137,130.644 100.912,130.556 100.675,130.479 100.439,130.411 100.196,130.355 99.9486,130.309 99.6982,130.277 99.4442,130.26" fill="none" stroke="black" stroke-width="0.1"/>
        <line id="simplify_11" x1="99.1867" y1="135.269" x2="99.1867" y2="132.729" stroke="black" stroke-width="0.1"/>
        <line id="simplify_12" x1="99.1867" y1="135.269" x2="96.647" y2="135.269" stroke="black" stroke-width="0.1"/>
        <line id="simplify_13" x1="99.1867" y1="135.269" x2="99.1867" y2="137.805" stroke="black" stroke-width="0.1"/>
        <line id="simplify_14" x1="99.1867" y1="135.269" x2="101.723" y2="135.269" stroke="black" stroke-width="0.1"/>
        <line id="simplify_15" x1="99.1867" y1="135.269" x2="99.1867" y2="132.729" stroke="black" stroke-width="0.1"/>
        <line id="simplify_16" x1="99.1867" y1="135.269" x2="96.647" y2="135.269" stroke="black" stroke-width="0.1"/>
        <line id="simplify_17" x1="99.1867" y1="135.269" x2="99.1867" y2="137.805" stroke="black" stroke-width="0.1"/>
        <line id="simplify_18" x1="99.1867" y1="135.269" x2="101.723" y2="135.269" stroke="black" stroke-width="0.1"/>
        <line id="simplify_19" x1="99.1867" y1="135.269" x2="99.1867" y2="132.729" stroke="black" stroke-width="0.1"/>
        <line id="simplify_20" x1="99.1867" y1="135.269" x2="96.647" y2="135.269" stroke="black" stroke-width="0.1"/>
        <line id="simplify_21" x1="99.1867" y1="135.269" x2="99.1867" y2="137.805" stroke="black" stroke-width="0.1"/>
        <polyline id="simplify_SVG__000022" points="96.0862,153.244 95.4583,152.186 94.9292,151.025 94.5377,149.858 94.3295,148.627 94.259,147.36 94.3295,146.119 94.5694,144.891 94.9292,143.692" fill="none" stroke="black" stroke-width="0.1"/>
        <polygon id="simplify_28" points="92.6717,162.937 92.5588,161.918 92.2801,160.958 91.7898,160.08 91.1196,159.311 90.3013,158.673 89.423,158.253 88.4424,158.003 87.4124,157.932 86.4247,158.112 85.4759,158.461 84.6364,158.99 83.885,159.66 83.3277,160.5 82.908,161.421 82.7281,162.408 82.7281,163.428 82.908,164.415 83.3277,165.336 83.885,166.175 84.6364,166.884 85.4759,167.414 86.4247,167.763 87.4124,167.904 88.4424,167.875 89.423,167.625 90.3013,167.163 91.1196,166.535 91.7898,165.794 92.2801,164.905 92.5588,163.928" fill="none" stroke="black" stroke-width="0.1"/>
        <line id="simplify_24" x1="87.6628" y1="162.937" x2="87.6628" y2="160.401" stroke="black" stroke-width="0.1"/>
        <line id="simplify_25" x1="87.6628" y1="162.937" x2="85.1267" y2="162.937" stroke="black" stroke-width="0.1"/>
        <line id="simplify_26" x1="87.6628" y1="162.937" x2="87.6628" y2="165.477" stroke="black" stroke-width="0.1"/>
        <line id="simplify_27" x1="87.6628" y1="162.937" x2="90.2025" y2="162.937" stroke="black" stroke-width="0.1"/>
        <polygon id="simplify_29" points="93.2995,128.073 93.2008,127.505 92.9186,127.015 92.4918,126.665 91.9309,126.454 91.3595,126.454 90.8304,126.665 90.3824,127.015 90.0932,127.505 89.9909,128.073 90.0932,128.634 90.3824,129.163 90.8304,129.523 91.3595,129.731 91.9309,129.731 92.4918,129.523 92.9186,129.163 93.2008,128.634" fill="none" stroke="black" stroke-width="0.1"/>
        <polygon id="simplify_30" points="108.39,128.073 108.291,127.505 107.998,127.015 107.578,126.665 107.021,126.454 106.45,126.454 105.92,126.665 105.501,127.015 105.183,127.505 105.113,128.073 105.183,128.634 105.501,129.163 105.92,129.523 106.45,129.731 107.021,129.731 107.578,129.523 107.998,129.163 108.291,128.634" fill="none" stroke="black" stroke-width="0.1"/>
        <polyline id="simplify_SVG__000030" points="113.257,138.115 113.144,138.017 112.795,137.738 112.266,137.276 112.407,136.958 112.658,136.468 112.905,135.826 113.144,135.05 113.395,134.21 113.575,133.258 113.645,132.761 113.677,132.232 113.716,131.699 113.716,131.142 113.607,129.484 113.257,127.865 112.725,126.316 112.026,124.824 111.106,123.456 110.019,122.189 108.82,121.089 107.441,120.14 105.991,119.399 104.443,118.799 102.823,118.45 101.204,118.27 99.5465,118.309 97.9169,118.591 96.3366,119.05 94.8198,119.678 93.0209,120.778 92.2519,121.378 91.5711,122.009 90.6223,123.068 90.0614,123.805 89.9239,124.055 88.8621,123.346" fill="none" stroke="black" stroke-width="0.1"/>
        <polyline id="simplify_SVG__000031" points="89.9521,124.337 89.9521,124.225 89.9239,124.087 89.9239,124.055" fill="none" stroke="black" stroke-width="0.1"/>
        <polyline id="simplify_SVG__000032" points="110.968,137.516 111.208,137.445 111.458,137.417 111.667,137.378 111.846,137.346 112.058,137.308 112.196,137.276 112.266,137.276" fill="none" stroke="black" stroke-width="0.1"/>
        <polyline id="simplify_SVG__000033" points="87.9838,124.796 88.0826,124.655 88.333,124.584 88.7916,124.517 89.4618,124.404 91.0526,124.158 93.0914,123.946 95.169,123.805 97.2184,123.777 99.2961,123.805 101.346,123.946 103.384,124.158 105.43,124.475 107.441,124.867 107.899,125.004 108.291,125.184 108.668,125.424 109.028,125.717 109.338,126.066 109.589,126.454 109.797,126.835 109.938,127.293 110.298,128.951 110.467,130.683 110.506,132.411 110.397,134.098 110.118,135.826 109.698,137.487 109.13,139.106 108.39,140.655" fill="none" stroke="black" stroke-width="0.1"/>
        <center id="center_00" cx="99.1867" cy="135.269"/>
    </g>
</svg>
