<?xml version="1.0" encoding="UTF-8"?>
<!DOCTYPE svg PUBLIC "-//W3C//DTD SVG 1.1//EN" "http://www.w3.org/Graphics/SVG/1.1/DTD/svg11.dtd">
<!-- Creator: CorelDRAW -->
<svg xmlns="http://www.w3.org/2000/svg" xml:space="preserve" width="210mm" height="297mm" style="shape-rendering:geometricPrecision; text-rendering:geometricPrecision; image-rendering:optimizeQuality; fill-rule:evenodd; clip-rule:evenodd"
viewBox="0 0 210 297">
 <defs>
  <style type="text/css">
   <![CDATA[
    .fil0 {fill:#1F1A17;fill-rule:nonzero}
   ]]>
  </style>
 </defs>
 <g id="Ebene_x0020_1">
  <metadata id="CorelCorpID_0Corel-Layer"/>
  <path class="fil0" d="M41.8314 68.9048l0 25.3815 18.0638 0 0 5.9062 -18.0638 0 0 50.1584c0,5.0129 0.7201,8.3836 2.1606,10.1121 1.4119,1.7576 3.2556,2.6219 5.5027,2.6219 1.8727,0 3.659,-0.5762 5.4163,-1.7285 1.7288,-1.1526 3.0827,-2.8523 4.0623,-5.0995l3.2843 0c-1.9879,5.5027 -4.7536,9.6513 -8.3548,12.4458 -3.6015,2.7948 -7.3179,4.1776 -11.1496,4.1776 -2.593,0 -5.1283,-0.7203 -7.606,-2.1607 -2.4776,-1.4407 -4.2925,-3.4861 -5.4739,-6.1655 -1.1812,-2.6504 -1.7861,-6.7702 -1.7861,-12.3595l0 -52.0022 -12.2156 0 0 -2.7658c3.0826,-1.2389 6.2518,-3.3421 9.4787,-6.2806 3.2267,-2.9675 6.1364,-6.4824 8.6429,-10.5158 1.2965,-2.1318 3.1116,-6.0501 5.4163,-11.7256l2.6219 0 0 0.0002zm91.2416 73.3218c-2.0744,10.1987 -6.1653,18.0352 -12.2444,23.5092 -6.0788,5.5027 -12.7915,8.2397 -20.167,8.2397 -8.7871,0 -16.4506,-3.6878 -22.9617,-11.0632 -6.54,-7.3755 -9.7954,-17.3149 -9.7954,-29.8761 0,-12.1578 3.6301,-22.0396 10.8613,-29.6168 7.2313,-7.6057 15.9032,-11.4087 26.0156,-11.4087 7.6059,0 13.8575,2.0167 18.7552,6.0502 4.8978,4.0047 7.3467,8.1821 7.3467,12.5324 0,2.1318 -0.6914,3.8605 -2.0744,5.1858 -1.3829,1.3251 -3.3132,1.9879 -5.7909,1.9879 -3.3131,0 -5.8195,-1.066 -7.5193,-3.198 -0.9506,-1.1812 -1.5846,-3.4573 -1.8727,-6.7705 -0.3169,-3.3131 -1.4692,-5.8484 -3.4283,-7.6057 -1.9881,-1.671 -4.696,-2.5065 -8.1821,-2.5065 -5.6469,0 -10.17,2.0743 -13.5985,6.2229 -4.5518,5.5315 -6.828,12.8206 -6.828,21.8669 0,9.2192 2.2474,17.3724 6.7993,24.431 4.5233,7.0585 10.631,10.6022 18.3519,10.6022 5.5027,0 10.4581,-1.8727 14.8373,-5.6469 3.1114,-2.5928 6.1077,-7.2891 9.0464,-14.1169l2.4489 1.1812 0.0001 -0.0001zm37.6262 -90.6365l0 102.564c0,4.8402 0.3744,8.0382 1.0658,9.6226 0.6915,1.5558 1.7863,2.7659 3.2555,3.5725 1.4695,0.8067 4.1776,1.2389 8.1822,1.2389l0 3.0251 -37.8853 0 0 -3.0251c3.5437,0 5.9638,-0.3745 7.2313,-1.1236 1.2965,-0.7203 2.3337,-1.9303 3.0541,-3.63 0.7201,-1.671 1.0947,-4.8978 1.0947,-9.6804l0 -70.2391c0,-8.7293 -0.2017,-14.0881 -0.5763,-16.0759 -0.4033,-1.9878 -1.037,-3.3709 -1.9015,-4.091 -0.8931,-0.7492 -1.9879,-1.0948 -3.3419,-1.0948 -1.4693,0 -3.3132,0.4321 -5.5603,1.3541l-1.4405 -2.9674 23.0481 -9.4497 3.7742 0 -0.0001 0zm116.076 5.5602l1.2675 26.851 -3.2268 0c-0.605,-4.725 -1.4405,-8.0958 -2.5352,-10.1412 -1.7285,-3.2555 -4.0623,-5.6468 -6.9432,-7.2026 -2.9099,-1.5556 -6.7129,-2.3335 -11.4377,-2.3335l-16.1337 0 0 87.4676c0,7.0296 0.7779,11.4087 2.2761,13.1663 2.1318,2.3622 5.4452,3.5436 9.8819,3.5436l3.9757 0 0 3.1114 -48.5451 0 0 -3.1114 4.0622 0c4.8402,0 8.2684,-1.4694 10.2853,-4.4079 1.2387,-1.7863 1.8725,-5.9062 1.8725,-12.302l0 -87.4676 -13.7712 0c-5.3298,0 -9.1328,0.4032 -11.38,1.1811 -2.9387,1.0661 -5.4451,3.1405 -7.5195,6.1655 -2.0743,3.0538 -3.3132,7.145 -3.7164,12.3308l-3.1981 0 1.3542 -26.851 93.4314 0 0.0001 -0.0001zm33.823 -5.5602l0 76.9805 19.6774 -17.9775c4.1774,-3.8317 6.5976,-6.2518 7.2601,-7.2602 0.461,-0.6914 0.6628,-1.3541 0.6628,-2.0166 0,-1.1524 -0.461,-2.1032 -1.3829,-2.9388 -0.9221,-0.8067 -2.4489,-1.2677 -4.6097,-1.3828l0 -2.7082 33.5926 0 0 2.7082c-4.6096,0.1151 -8.4414,0.8067 -11.4953,2.1031 -3.0826,1.2963 -6.4533,3.6013 -10.1124,6.9432l-19.8213 18.2945 19.8213 25.0647c5.5317,6.9432 9.2481,11.3223 11.1496,13.195 2.7082,2.6219 5.0707,4.3504 7.0873,5.1283 1.4117,0.5762 3.8606,0.8643 7.3467,0.8643l0 3.0251 -37.5683 0 0 -3.0251c2.1607,-0.0575 3.6012,-0.4032 4.3503,-0.9796 0.7777,-0.605 1.1524,-1.4117 1.1524,-2.5065 0,-1.2963 -1.1236,-3.3707 -3.3708,-6.2229l-23.7396 -30.3084 0 25.6412c0,5.013 0.3745,8.3261 1.066,9.8819 0.6914,1.5844 1.6998,2.708 2.9963,3.3708 1.2966,0.6913 4.1199,1.066 8.4414,1.1235l0 3.0251 -39.3259 0 0 -3.0251c3.9472,0 6.8856,-0.4898 8.8447,-1.4404 1.1813,-0.634 2.1031,-1.5846 2.7081,-2.8812 0.8355,-1.8436 1.2677,-5.0704 1.2677,-9.6225l0 -70.3832c0,-8.96 -0.2017,-14.4339 -0.5761,-16.4218 -0.4034,-1.9878 -1.066,-3.3709 -1.9591,-4.1486 -0.8932,-0.7491 -2.0744,-1.1236 -3.5436,-1.1236 -1.1812,0 -2.9387,0.4608 -5.301,1.4405l-1.4407 -2.9675 22.9618 -9.4496 3.8605 0 -0.0003 0.0002z"/>
 </g>
</svg>
