<!DOCTYPE svg PUBLIC "-//W3C//DTD SVG 1.1//EN" "http://www.w3.org/Graphics/SVG/1.1/DTD/svg11.dtd">
<svg xmlns="http://www.w3.org/2000/svg" width="297mm" height="210mm" viewBox="0 0 297 210">
    <defs id="_tag_6_"/>
    <g id="_tag_7_">
        <polygon id="center_00" cx="850" cy="241" points="865.2933,241.0 865.2095217024356,242.5985851472912 864.9591047023023,244.17965586118325 864.5447926206567,245.7258896000744 863.9711247473656,247.22034550355113 863.2443863076966,248.64665 862.3725396000743,249.98917619888448 861.3651367594734,251.23321510222792 860.233215102228,252.36513675947344 858.9891761988845,253.3725396000744 857.64665,254.24438630769654 856.2203455035511,254.9711247473656 854.7258896000744,255.54479262065666 853.1796558611833,255.9591047023023 851.5985851472913,256.2095217024356 850.0,256.2933 848.4014148527089,256.2095217024356 846.8203441388167,255.9591047023023 845.2741103999256,255.54479262065666 843.7796544964489,254.9711247473656 842.35335,254.24438630769654 841.0108238011155,253.3725396000744 839.766784897772,252.36513675947344 838.6348632405266,251.23321510222792 837.6274603999257,249.98917619888448 836.7556136923034,248.64665 836.0288752526344,247.22034550355113 835.4552073793433,245.7258896000744 835.0408952976977,244.17965586118325 834.7904782975644,242.5985851472912 834.7067,241.0 834.7904782975644,239.4014148527088 835.0408952976977,237.82034413881678 835.4552073793433,236.27411039992563 836.0288752526344,234.77965449644887 836.7556136923034,233.35335 837.6274603999257,232.01082380111552 838.6348632405266,230.76678489777208 839.766784897772,229.63486324052656 841.0108238011155,228.6274603999256 842.35335,227.75561369230346 843.7796544964489,227.0288752526344 845.2741103999256,226.45520737934334 846.8203441388167,226.0408952976977 848.4014148527087,225.7904782975644 850.0,225.7067 851.5985851472911,225.7904782975644 853.1796558611833,226.0408952976977 854.7258896000744,226.45520737934334 856.2203455035511,227.0288752526344 857.64665,227.75561369230343 858.9891761988845,228.6274603999256 860.233215102228,229.63486324052656 861.3651367594734,230.76678489777206 862.3725396000743,232.01082380111552 863.2443863076966,233.35335 863.9711247473656,234.77965449644884 864.5447926206567,236.2741103999256 864.9591047023023,237.82034413881675 865.2095217024356,239.40141485270877" fill="none" stroke="black" stroke-width="0.1"/>
        <g id="_tag_8_">
            <g id="_tag_9_">
                <polygon id="_86905920" points="847.0,275.264 877.0,275.264 877.0,538.627 847.0,538.627" fill="none" stroke="black" stroke-width="0.1"/>
                <polygon id="_86906184" points="829.016,265.774 829.124,265.937 829.315,266.046 832.007,267.181 836.036,270.008 838.365,274.437 840.043,278.639 841.624,285.799 844.469,306.588 879.512,306.588 882.267,286.429 882.304,285.734 882.237,285.06 879.512,268.886 872.678,258.368 872.463,253.908 871.0,241.5 829.0,241.5 827.538,253.908 828.949,265.535" fill="none" stroke="black" stroke-width="0.1"/>
            </g>
            <polyline id="simplify_SVG__000004" points="827.864,254.122 829.528,254.337 834.982,256.498 839.406,259.07 842.905,262.054 844.654,265.656" fill="none" stroke="black" stroke-width="0.1"/>
            <polyline id="simplify_SVG__000005" points="878.591,268.916 844.469,268.916 842.329,281.612" fill="none" stroke="black" stroke-width="0.1"/>
            <polygon id="_86905896_1" class="fil2 str0" points="867,241 867.0,241.5 862.7500414062499,241.5 858.50006875,241.5 854.25008671875,241.5 850.0001,241.5 845.7501132812499,241.5 841.50013125,241.5 837.25015859375,241.5 833.0002,241.5 833.0002,241.0 837.25015859375,241.0 841.50013125,241.0 845.7501132812499,241.0 850.0001,241.0 854.25008671875,241.0 858.50006875,241.0 862.7500414062499,241.0 867.0,241.0" fill="none" stroke="black" stroke-width="0.1"/>
            <line id="_86875384" x1="842.995" y1="285.757" x2="881.249" y2="285.757" stroke="black" stroke-width="0.1"/>
        </g>
    </g>
</svg>
