<!DOCTYPE svg PUBLIC "-//W3C//DTD SVG 1.1//EN" "http://www.w3.org/Graphics/SVG/1.1/DTD/svg11.dtd">
<svg xmlns="http://www.w3.org/2000/svg" width="297mm" height="210mm" viewBox="0 0 297 210">
    <defs id="_tag_110_"/>
    <g id="_tag_111_">
        <g id="_tag_112_">
            <g id="_tag_113_">
                <polygon id="_200470616" points="443.081,372.758 452.903,375.13 454.898,390.576 447.678,415.922 427.0,443.79 427.0,416.585 439.038,383.777 440.374,377.758 441.289,372.199" fill="none" stroke="black" stroke-width="0.1"/>
                <polygon id="_200470040" points="389.391,432.103 389.428,431.922 389.53,431.749 389.684,431.633 389.871,431.603 426.291,431.603 428.493,430.956 430.452,429.97 432.03,428.882 433.587,427.374 435.104,425.644 436.246,423.434 436.976,421.477 449.212,388.617 449.462,386.278 449.165,384.058 448.267,382.116 446.96,380.664 443.203,376.716 442.259,375.898 441.4,373.827 441.289,372.199 441.908,369.124 442.209,368.478 442.669,368.122 443.27,368.0 453.734,368.0 454.331,368.225 454.722,368.606 461.966,378.251 462.5,379.462 462.793,381.076 462.793,387.175 462.793,388.564 462.28,390.303 430.0,476.884 430.0,476.884 430.0,757.133 425.138,757.133 394.0,755.041 394.0,458.589 389.391,449.445" fill="none" stroke="black" stroke-width="0.1"/>
                <line id="_200470496" x1="389.391" y1="449.445" x2="424.606" y2="449.445" stroke="black" stroke-width="0.1"/>
                <line id="_201215056" x1="394.0" y1="458.589" x2="421.938" y2="458.589" stroke="black" stroke-width="0.1"/>
                <polyline id="simplify_SVG__000086" points="424.937,431.892 423.018,432.103 389.703,432.103" fill="none" stroke="black" stroke-width="0.1"/>
                <polyline id="simplify_SVG__000087" points="444.623,374.349 450.27,380.441 451.625,383.004 451.975,385.334 451.785,388.41 448.219,398.17 439.618,421.642 437.493,425.719 434.389,429.266 430.592,431.78" fill="none" stroke="black" stroke-width="0.1"/>
                <polygon id="_201590536_1" class="fil3 str0" points="393.04,428.283 432.6485,428.283 432.0299,428.8824 430.4087,429.99240000000003 393.04,429.99240000000003 392.8666515625,429.97495605468754 392.70491875,429.92496093750003 392.5583453125,429.84591972656256 392.43047500000006,429.74133750000004 392.32485156250004,429.6147193359376 392.24501875000004,429.4695703125001 392.19452031250006,429.30939550781255 392.17690000000005,429.13770000000005 392.17690000000005,429.13770000000005 392.19451621093754,428.96600449218755 392.24500468750006,428.8058296875 392.32482519531254,428.6606806640625 392.43043750000004,428.53406250000006 392.55830136718754,428.42948027343755 392.70487656250003,428.3504390625001 392.8666228515625,428.30044394531257 393.04,428.2830000000001" fill="none" stroke="black" stroke-width="0.1"/>
                <polygon id="_200339776" points="393.432,428.283 412.0,428.283 430.568,428.283 430.568,427.876 427.369,426.64 412.0,426.64 396.631,426.64 393.432,427.876" fill="none" stroke="black" stroke-width="0.1"/>
                <polygon id="_200470568" points="412.0,429.992 430.409,429.992 428.493,430.956 426.291,431.603 412.0,431.603 390.515,431.603 390.515,431.401 391.988,429.992" fill="none" stroke="black" stroke-width="0.1"/>
            </g>
            <g id="_tag_114_">
                <polygon id="_200470664_1" class="fil6 str0" points="446.268,756.398 446.370934375,756.3950501953126 446.47233124999997,756.3863078125 446.57203125,756.3719333984375 446.669875,756.3520875 446.76570312499996,756.3269306640625 446.85935624999996,756.2966234375 446.950675,756.2613263671875 447.0395,756.2212000000001 447.0395,756.2212000000001 449.22747480468746,755.0543042968751 451.21497343749996,753.597953125 452.9738697265625,751.8802503906252 454.47603749999996,749.9293000000001 455.69335058593754,747.773205859375 456.59768281249995,745.4400718750001 457.1609080078125,742.9580019531251 457.3549,740.3551000000001 457.3549,740.3551000000001 457.312258984375,739.1294533203126 457.186234375,737.9267765625001 456.979673828125,736.7499021484375 456.695425,735.6016625000001 456.336335546875,734.4848900390625 455.905253125,733.4024171875001 455.40502539062504,732.3570763671877 454.8385,731.3517000000002 429.9996,689.2347000000002 428.1143,689.5655000000002 428.10740000000004,702.0075000000002 427.2551,708.6176000000002 423.13730000000004,715.3416000000002 423.13730000000004,757.1196000000002 424.60937832031254,757.1367404296877 425.96218906250004,757.1447859375002 427.23424589843756,757.1458353515627 428.46406250000007,757.1419875000001 429.6901525390625,757.1353412109378 430.95102968750007,757.1279953125002 432.28520761718755,757.1220486328127 433.73120000000006,757.1196000000002 433.73120000000006,757.1196000000002 434.08754824218755,757.0836658203127 434.4194734375,756.9806078125002 434.7198587890626,756.8175427734377 434.98158750000005,756.6015875000002 435.19754277343753,756.3398587890626 435.3606078125,756.0394734375002 435.46366582031254,755.7075482421876 435.49960000000004,755.3512000000002 435.49960000000004,740.3729000000002 435.49940000000004,740.3551000000002 435.59084394531254,739.4482982421877 435.8531015625,738.6036421875002 436.2680615234375,737.8392431640627 436.81761250000005,737.1732125000002 437.4836431640625,736.6236615234377 438.2480421875,736.2087015625002 439.09269824218757,735.9464439453128 439.9995,735.8550000000002 439.9995,735.8550000000002 440.90630175781246,735.9464439453128 441.7509578125,736.2087015625002 442.5153568359375,736.6236615234378 443.18138749999997,737.1732125000002 443.7309384765625,737.8392431640627 444.1458984375,738.6036421875002 444.4081560546875,739.4482982421878 444.4996,740.3551000000002 444.4996,754.6296000000002 444.5355341796875,754.9859482421876 444.63859218749997,755.3178734375002 444.8016572265625,755.6182587890628 445.0176124999999,755.8799875000003 445.2793412109375,756.0959427734376 445.57972656249996,756.2590078125003 445.9116517578124,756.3620658203126 446.268,756.3980000000003" fill="none" stroke="black" stroke-width="0.1"/>
                <polyline id="_57190984_1" class="fil2 str1" points="435.5,750.695 435.2949970703125,750.6032160156251 435.09215156249996,750.507515625 434.89152089843753,750.407938671875 434.69316249999997,750.304525 434.4971337890625,750.197314453125 434.3034921875,750.086346875 434.1122951171875,749.9716621093751 433.9236,749.8533000000001 433.9236,749.8533000000001 432.80267421875,749.0332748046876 431.7925,748.0844546875 430.90500703125,747.0187728515625 430.152125,745.8481625000001 429.54578359375,744.5845568359375 429.0979125,743.2398890625001 428.82044140625004,741.8260923828126 428.7253,740.3551000000001 428.7253,740.3551000000001 428.9544046875,738.0831833984377 429.61146875,735.9669609375001 430.6511171875,734.0518111328126 432.027975,732.3831125 433.6966671875,731.0062435546876 435.61181875,729.9665828125001 437.7280546875,729.3095087890625 440.0,729.0804 440.0,729.0804 442.2719453125,729.3095046875001 444.38818125,729.9665687500001 446.3033328125,731.0062171875 447.972025,732.3830750000001 449.3488828125,734.0517671875 450.38853125,735.9669187500001 451.0455953125,738.0831546875 451.2747,740.3551000000001 451.2747,740.3551000000001 451.1471166015625,742.0562539062502 450.7767828125,743.67781875 450.18232324218746,745.20119921875 449.3823625,746.6078000000001 448.3955251953125,747.8790257812501 447.24043593749997,748.9962812500002 445.93571933593745,749.94097109375 444.5,750.6945000000001" fill="none" stroke="black" stroke-width="0.1"/>
                <polygon id="center_00" cx="440" cy="740.355" points="442.8888,740.355 442.87297485133985,740.6569618246876 442.82567278899984,740.9556152924343 442.7474120642734,741.2476882933504 442.63905011803797,741.5299808145174 442.5017741864525,741.7994 442.33708829335035,742.0529940368225 442.1467967718391,742.2879844956495 441.93298449564946,742.5017967718392 441.6979940368225,742.6920882933504 441.4444,742.8567741864525 441.17498081451737,742.994050118038 440.8926882933504,743.1024120642735 440.6006152924343,743.1806727889998 440.3019618246876,743.2279748513399 440.0,743.2438 439.6980381753124,743.2279748513399 439.3993847075657,743.1806727889998 439.1073117066496,743.1024120642735 438.82501918548263,742.994050118038 438.5556,742.8567741864525 438.3020059631775,742.6920882933504 438.06701550435054,742.5017967718392 437.8532032281609,742.2879844956495 437.66291170664965,742.0529940368225 437.4982258135475,741.7994 437.36094988196203,741.5299808145174 437.2525879357266,741.2476882933504 437.17432721100016,740.9556152924343 437.12702514866015,740.6569618246876 437.1112,740.355 437.12702514866015,740.0530381753124 437.17432721100016,739.7543847075657 437.2525879357266,739.4623117066496 437.36094988196203,739.1800191854826 437.4982258135475,738.9106 437.66291170664965,738.6570059631775 437.8532032281609,738.4220155043505 438.06701550435054,738.2082032281609 438.3020059631775,738.0179117066497 438.5556,737.8532258135475 438.82501918548263,737.715949881962 439.1073117066496,737.6075879357265 439.3993847075657,737.5293272110002 439.6980381753124,737.4820251486601 440.0,737.4662000000001 440.3019618246876,737.4820251486601 440.6006152924343,737.5293272110002 440.8926882933504,737.6075879357265 441.17498081451737,737.715949881962 441.4444,737.8532258135475 441.6979940368225,738.0179117066497 441.93298449564946,738.2082032281609 442.1467967718391,738.4220155043505 442.33708829335035,738.6570059631775 442.5017741864525,738.9106 442.63905011803797,739.1800191854826 442.7474120642734,739.4623117066496 442.82567278899984,739.7543847075657 442.87297485133985,740.0530381753124" fill="none" stroke="black" stroke-width="0.1"/>
                <polyline id="_200340760_1" class="fil2 str0" points="425.613,716.334 426.6712828125,717.1020142578125 427.82251875,717.8437703124999 429.0662015625,718.5605630859374 430.40182500000003,719.2536875 431.82888281249996,719.9244384765625 433.34686874999994,720.5741109375 434.9552765625,721.2039998046874 436.6536,721.8154 436.6536,721.8154 437.794391015625,722.254317578125 439.158253125,722.852771875 440.67129492187496,723.575177734375 442.259625,724.38595 443.84935195312494,725.249503515625 445.36658437499995,726.1302531249999 446.73743085937497,726.992613671875 447.888,727.8009999999999" fill="none" stroke="black" stroke-width="0.1"/>
                <polyline id="_199781592_1" class="fil2 str0" points="435.5,753.61 435.3757,753.0505 435.1773,752.6467 434.7961,752.3853 434.55901699218754,752.2791494140625 434.3244359375001,752.1684765625 434.09242128906254,752.0533248046875 433.8630375,751.9337375 433.63634902343756,751.8097580078125 433.41242031250005,751.6814296875 433.1913158203125,751.5487958984374 432.97310000000004,751.4119000000001 432.97310000000004,751.4119000000001 431.67680683593755,750.4636126953126 430.5085984375001,749.3663765625 429.48226894531257,748.1339927734376 428.61161250000004,746.7802625 427.91042324218756,745.3189869140625 427.39249531250005,743.7639671875 427.07162285156255,742.1290044921876 426.96160000000003,740.4279 426.96160000000003,740.4279 427.2265435546875,737.80058359375 427.98639218750003,735.3533187500001 429.18867285156256,733.13858203125 430.78091250000006,731.20885 432.71063808593755,729.61659921875 434.9253765625001,728.41430625 437.3726548828125,727.65444765625 440.00000000000006,727.3895 440.00000000000006,727.3895 442.6273451171876,727.6544435546875 445.0746234375,728.4142921875 447.28936191406257,729.6165728515625 449.21908750000006,731.2088125 450.81132714843756,733.1385380859375 452.0136078125001,735.3532765625 452.7734564453126,737.8005548828124 453.0384000000001,740.4279 453.0384000000001,740.4279 452.89085976562507,742.39518046875 452.46259687500003,744.2704125 451.7751480468751,746.0320945312501 450.85005000000007,747.658725 449.7088394531251,749.1288023437501 448.37305312500007,750.4208250000001 446.86422773437505,751.5132914062501 445.2039000000001,752.3847000000001 444.8227000000001,752.6461 444.6243000000001,753.0499000000001 444.5000000000001,753.6094" fill="none" stroke="black" stroke-width="0.1"/>
            </g>
        </g>
    </g>
</svg>
