<!DOCTYPE svg PUBLIC "-//W3C//DTD SVG 1.1//EN" "http://www.w3.org/Graphics/SVG/1.1/DTD/svg11.dtd">
<svg xmlns="http://www.w3.org/2000/svg" width="297mm" height="210mm" viewBox="0 0 297 210">
    <defs id="_tag_31_"/>
    <g id="_tag_32_">
        <g id="_tag_33_">
            <g id="_tag_34_">
                <polygon id="_86852224" points="293.08,372.758 302.903,375.13 304.898,390.576 297.678,415.921 277.0,443.789 277.0,416.585 289.038,383.777 290.374,377.758 291.289,372.199" fill="none" stroke="black" stroke-width="0.1"/>
                <polygon id="_86851264" points="239.391,432.103 239.428,431.922 239.53,431.749 239.684,431.633 239.871,431.603 276.291,431.603 278.493,430.956 280.452,429.97 282.03,428.882 283.587,427.374 285.104,425.644 286.246,423.434 286.976,421.477 299.212,388.617 299.462,386.277 299.165,384.058 298.267,382.116 296.96,380.663 293.203,376.715 292.259,375.898 291.4,373.827 291.289,372.199 291.908,369.124 292.209,368.478 292.669,368.122 293.27,368.0 303.734,368.0 304.331,368.225 304.722,368.606 311.965,378.25 312.5,379.462 312.793,381.076 312.793,387.175 312.793,388.564 312.28,390.303 280.0,476.884 280.0,476.884 280.0,731.736 273.138,731.732 244.0,729.644 244.0,458.589 239.391,449.445" fill="none" stroke="black" stroke-width="0.1"/>
                <line id="_86851144" x1="239.391" y1="449.445" x2="274.606" y2="449.445" stroke="black" stroke-width="0.1"/>
                <line id="_86851216" x1="244.0" y1="458.589" x2="271.938" y2="458.589" stroke="black" stroke-width="0.1"/>
                <polyline id="simplify_SVG__000021" points="274.936,431.891 273.018,432.103 239.703,432.103" fill="none" stroke="black" stroke-width="0.1"/>
                <polyline id="simplify_SVG__000022" points="294.623,374.349 300.27,380.441 301.625,383.004 301.975,385.334 301.785,388.41 298.219,398.17 289.618,421.642 287.493,425.719 284.389,429.265 280.592,431.78" fill="none" stroke="black" stroke-width="0.1"/>
                <polygon id="_86851648_1" class="fil3 str0" points="243.04,428.283 282.6485,428.283 282.0299,428.8824 280.4087,429.99240000000003 243.04000000000002,429.99240000000003 242.8666515625,429.97495605468754 242.70491875000002,429.92496093750003 242.55834531250002,429.84591972656256 242.430475,429.74133750000004 242.32485156250002,429.6147193359376 242.24501875,429.4695703125001 242.1945203125,429.30939550781255 242.17690000000002,429.13770000000005 242.17690000000002,429.13770000000005 242.1945162109375,428.96600449218755 242.2450046875,428.8058296875 242.3248251953125,428.6606806640625 242.4304375,428.53406250000006 242.5583013671875,428.42948027343755 242.70487656250003,428.3504390625001 242.8666228515625,428.30044394531257 243.04000000000002,428.2830000000001" fill="none" stroke="black" stroke-width="0.1"/>
                <polygon id="_86851312" points="243.432,428.283 262.0,428.283 280.568,428.283 280.568,427.876 277.369,426.64 262.0,426.64 246.631,426.64 243.432,427.876" fill="none" stroke="black" stroke-width="0.1"/>
                <polygon id="_86851240" points="262.0,429.992 280.409,429.992 278.493,430.956 276.291,431.603 262.0,431.603 240.515,431.603 240.515,431.401 241.988,429.992" fill="none" stroke="black" stroke-width="0.1"/>
            </g>
            <g id="_tag_35_">
                <polygon id="_86851192_1" class="fil6 str0" points="294.453,731.01 294.555934375,731.0070501953124 294.65733124999997,730.9983078125 294.75703125,730.9839333984376 294.854875,730.9640875 294.95070312499996,730.9389306640625 295.04435624999996,730.9086234375 295.135675,730.8733263671875 295.2245,730.8332 295.2245,730.8332 297.41247480468746,729.6663042968751 299.3999734375,728.2099531250001 301.15886972656244,726.492250390625 302.6610375,724.5413000000001 303.8783505859375,722.385205859375 304.7826828125,720.052071875 305.3459080078125,717.570001953125 305.5399,714.9671000000001 305.5399,714.9671000000001 305.497258984375,713.7414533203125 305.371234375,712.5387765625001 305.164673828125,711.3619021484375 304.88042499999995,710.2136625 304.521335546875,709.0968900390626 304.090253125,708.0144171875 303.590025390625,706.9690763671877 303.0235,705.9637 280.0,666.9248 278.1147,667.2556 278.10780000000005,676.6194999999999 277.25550000000004,683.2295999999999 273.13770000000005,689.9535999999999 273.13770000000005,731.7316 274.5317728515626,731.7487404296875 275.6789328125001,731.7567859375 276.6602419921876,731.7578353515626 277.5567625000001,731.7539875 278.44955644531257,731.7473412109375 279.41968593750005,731.7399953125 280.5482130859376,731.7340486328125 281.91620000000006,731.7316 281.91620000000006,731.7316 282.2725482421876,731.6956658203123 282.6044734375001,731.5926078125 282.90485878906253,731.4295427734373 283.1665875000001,731.2135875 283.38254277343754,730.9518587890625 283.54560781250007,730.6514734374999 283.64866582031254,730.3195482421874 283.68460000000005,729.9631999999999 283.68460000000005,714.9848999999999 283.68440000000004,714.9671 283.7758439453125,714.0602982421874 284.03810156250006,713.2156421875 284.45306152343755,712.4512431640625 285.00261250000005,711.7852125 285.66864316406253,711.2356615234374 286.4330421875,710.8207015625 287.2776982421875,710.5584439453125 288.1845,710.467 288.1845,710.467 289.0913017578125,710.5584439453125 289.9359578125,710.8207015625001 290.7003568359375,711.2356615234374 291.3663875,711.7852125000001 291.9159384765625,712.4512431640625 292.33089843749997,713.2156421875 292.59315605468754,714.0602982421874 292.6846,714.9671 292.6846,729.2416 292.7205341796875,729.5979482421874 292.8235921875,729.9298734375 292.9866572265625,730.2302587890624 293.2026125,730.4919874999999 293.46434121093745,730.7079427734375 293.7647265625,730.8710078125 294.0966517578125,730.9740658203125 294.453,731.01" fill="none" stroke="black" stroke-width="0.1"/>
                <polyline id="_86851744_1" class="fil2 str1" points="283.685,725.307 283.4799970703125,725.2152160156251 283.27715156249997,725.119515625 283.0765208984375,725.019938671875 282.87816250000003,724.916525 282.6821337890625,724.809314453125 282.4884921875,724.6983468750001 282.2972951171875,724.5836621093752 282.1086,724.4653000000001 282.1086,724.4653000000001 280.98767421875,723.6452748046876 279.9775,722.6964546875001 279.09000703125,721.6307728515626 278.337125,720.4601625 277.73078359375,719.1965568359375 277.2829125,717.8518890625 277.00544140625004,716.4380923828126 276.9103,714.9671000000001 276.9103,714.9671000000001 277.1394046875,712.6951833984375 277.79646875000003,710.5789609375001 278.8361171875,708.6638111328126 280.21297500000003,706.9951125000001 281.8816671875,705.6182435546875 283.79681875,704.5785828125 285.9130546875,703.9215087890625 288.185,703.6924 288.185,703.6924 290.4569453125,703.9215046875 292.57318125,704.57856875 294.4883328125,705.6182171875 296.157025,706.995075 297.5338828125,708.6637671875 298.57353125,710.57891875 299.2305953125,712.6951546875 299.4597,714.9671000000001 299.4597,714.9671000000001 299.33211660156246,716.6682539062501 298.96178281249996,718.2898187500001 298.36732324218747,719.81319921875 297.5673625,721.2198000000001 296.5805251953125,722.4910257812501 295.42543593749997,723.6082812500001 294.12071933593745,724.55297109375 292.685,725.3065" fill="none" stroke="black" stroke-width="0.1"/>
                <polygon id="center_00" cx="288.184" cy="714.967" points="291.07280000000003,714.967 291.0569748513399,715.2689618246876 291.00967278899986,715.5676152924343 290.93141206427345,715.8596882933504 290.823050118038,716.1419808145174 290.68577418645253,716.4114 290.5210882933504,716.6649940368225 290.3307967718391,716.8999844956495 290.1169844956495,717.1137967718391 289.8819940368225,717.3040882933503 289.6284,717.4687741864525 289.3589808145174,717.606050118038 289.0766882933504,717.7144120642735 288.78461529243435,717.7926727889998 288.48596182468765,717.8399748513399 288.184,717.8557999999999 287.8820381753124,717.8399748513399 287.5833847075657,717.7926727889998 287.29131170664965,717.7144120642735 287.00901918548266,717.606050118038 286.73960000000005,717.4687741864525 286.48600596317755,717.3040882933503 286.25101550435056,717.1137967718391 286.03720322816093,716.8999844956495 285.8469117066497,716.6649940368225 285.6822258135475,716.4114 285.54494988196205,716.1419808145174 285.4365879357266,715.8596882933504 285.3583272110002,715.5676152924343 285.3110251486602,715.2689618246876 285.2952,714.967 285.3110251486602,714.6650381753124 285.3583272110002,714.3663847075657 285.4365879357266,714.0743117066496 285.54494988196205,713.7920191854826 285.6822258135475,713.5226 285.8469117066497,713.2690059631775 286.03720322816093,713.0340155043505 286.25101550435056,712.8202032281608 286.48600596317755,712.6299117066496 286.73960000000005,712.4652258135475 287.00901918548266,712.327949881962 287.29131170664965,712.2195879357265 287.5833847075657,712.1413272110002 287.8820381753124,712.0940251486601 288.184,712.0782 288.48596182468765,712.0940251486601 288.78461529243435,712.1413272110002 289.0766882933504,712.2195879357265 289.3589808145174,712.327949881962 289.6284,712.4652258135475 289.8819940368225,712.6299117066496 290.1169844956495,712.8202032281608 290.3307967718391,713.0340155043505 290.5210882933504,713.2690059631775 290.68577418645253,713.5226 290.823050118038,713.7920191854826 290.93141206427345,714.0743117066496 291.00967278899986,714.3663847075657 291.0569748513399,714.6650381753124" fill="none" stroke="black" stroke-width="0.1"/>
                <polyline id="_86851720_1" class="fil2 str0" points="275.42,692.088 276.38595859375005,692.6822890625 277.41285000000005,693.26036875 278.50039765625,693.8229328125 279.648325,694.3706749999999 280.85635546875,694.9042890625 282.1242125,695.42446875 283.45161953125,695.9319078125 284.8383,696.4273 284.8383,696.4273 285.97909101562504,696.8661888671875 287.342953125,697.4646296875 288.855994921875,698.1870337890624 290.44432500000005,698.9978125 292.03405195312496,699.8613771484374 293.55128437499997,700.7421390625 294.922130859375,701.6045095703125 296.0727,702.4128999999999" fill="none" stroke="black" stroke-width="0.1"/>
                <polyline id="_86851480_1" class="fil2 str0" points="283.685,728.223 283.5607,727.6635 283.3623,727.2597 282.9811,726.9983 282.74401699218754,726.8921494140625 282.50943593750003,726.7814765625 282.27742128906254,726.6663248046874 282.0480375000001,726.5467375000001 281.82134902343756,726.4227580078125 281.59742031250005,726.2944296874999 281.3763158203126,726.1617958984375 281.15810000000005,726.0249 281.15810000000005,726.0249 279.86180683593756,725.0766126953125 278.69359843750004,723.9793765625001 277.66726894531257,722.7469927734376 276.79661250000004,721.3932625 276.0954232421875,719.9319869140625 275.57749531250005,718.3769671875 275.2566228515625,716.7420044921874 275.14660000000003,715.0409 275.14660000000003,715.0409 275.41154355468757,712.4135835937499 276.17139218750003,709.9663187499999 277.3736728515625,707.75158203125 278.96591250000006,705.8218499999999 280.89563808593755,704.22959921875 283.11037656250005,703.0273062499999 285.5576548828125,702.2674476562499 288.18500000000006,702.0024999999999 288.18500000000006,702.0024999999999 290.8123451171876,702.2674435546875 293.25962343750007,703.0272921874999 295.47436191406257,704.2295728515625 297.40408750000006,705.8218124999999 298.9963271484376,707.7515380859375 300.1986078125001,709.9662765625 300.95845644531255,712.4135548828125 301.2234000000001,715.0409 301.2234000000001,715.0409 301.07585976562507,717.00818046875 300.6475968750001,718.8834125 299.960148046875,720.64509453125 299.03505000000007,722.2717250000001 297.89383945312505,723.7418023437499 296.5580531250001,725.033825 295.04922773437505,726.1262914062501 293.3889000000001,726.9977 293.0077000000001,727.2591 292.8093000000001,727.6629 292.6850000000001,728.2224" fill="none" stroke="black" stroke-width="0.1"/>
            </g>
        </g>
    </g>
</svg>
