<!DOCTYPE svg PUBLIC "-//W3C//DTD SVG 1.1//EN" "http://www.w3.org/Graphics/SVG/1.1/DTD/svg11.dtd">
<svg xmlns="http://www.w3.org/2000/svg" width="297mm" height="210mm" viewBox="0 0 297 210">
    <defs id="_tag_52_"/>
    <g id="Ebene_x0020_1">
        <g id="_130699072">
            <polygon points="164.417,108.525 184.301,108.525 185.32343632812498,108.61859121093751 186.27727812499998,108.8868234375 187.14164960937498,109.31088457031251 187.89567499999998,109.87196250000001 188.51847851562496,110.5512451171875 188.98918437499998,111.32992031250001 189.28691679687498,112.18917597656251 189.39079999999998,113.1102 189.39079999999998,119.77950000000001 189.28691269531248,120.70052402343751 188.9891703125,121.55977968750001 188.5184521484375,122.33845488281251 187.8956375,123.01773750000001 187.14160566406247,123.57881542968751 186.2772359375,124.0028765625 185.32340761718746,124.27110878906251 184.301,124.36470000000001 171.2455,124.36470000000001 171.2455,129.29080000000002 168.3954,129.29080000000002 164.417,129.29080000000002 164.417,108.52500000000002" fill="none" stroke="black" stroke-width="0.1" id="_130705432_1"/>
            <polygon points="181.0671,118.77680000000002 181.43751640625,118.74365820312502 181.783075,118.64867187500002 182.09621484375,118.49849960937502 182.369375,118.29980000000002 182.59499453125,118.05923164062503 182.7655125,117.78345312500002 182.87336796875,117.47912304687502 182.911,117.15290000000002 182.911,115.65140000000002 182.87336796875,115.32517695312504 182.7655125,115.02084687500003 182.59499453125,114.74506835937503 182.369375,114.50450000000002 182.09621484375,114.30580039062502 181.783075,114.15562812500002 181.43751640625,114.06064179687502 181.0671,114.02750000000002 181.0671,114.02750000000002 179.81702812500004,114.02750000000002 178.572525,114.02750000000002 177.331734375,114.02750000000002 176.0928,114.02750000000002 174.85386562500003,114.02750000000002 173.613075,114.02750000000002 172.368571875,114.02750000000002 171.1185,114.02750000000002 171.1185,118.77680000000002 172.368571875,118.77680000000002 173.613075,118.77680000000002 174.85386562500003,118.77680000000002 176.0928,118.77680000000002 177.331734375,118.77680000000002 178.572525,118.77680000000002 179.81702812500004,118.77680000000002 181.0671,118.77680000000002" fill="none" stroke="black" stroke-width="0.1" id="_130705432"/>
            <polygon points="197.95,108.525 198.72199999999998,108.525 198.72199999999998,110.7123 198.72122226562502,110.72776386718749 198.72054062499998,110.7432546875 198.719957421875,110.75877128906251 198.719475,110.77431250000001 198.719095703125,110.7898771484375 198.718821875,110.8054640625 198.718655859375,110.82107207031248 198.71859999999998,110.8367 198.71859999999998,121.49709999999999 198.76577929687497,121.96145742187498 198.90099687499998,122.39465937499999 199.114772265625,122.78722539062498 199.397625,123.12967499999999 199.74007460937497,123.41252773437499 200.13264062499996,123.62630312499999 200.56584257812497,123.76152070312499 201.03019999999998,123.80869999999999 210.36569999999998,123.80869999999999 210.83009042968746,123.76152070312499 211.26331718749998,123.62630312499999 211.65590097656246,123.41252773437499 211.99836249999998,123.12967499999999 212.28122246093747,122.78722539062498 212.49500156249997,122.39465937499999 212.63022050781248,121.96145742187498 212.67739999999998,121.49709999999999 212.67739999999998,117.3076 212.68079999999998,117.3076 212.68079999999998,108.52499999999999 213.44609999999997,108.52499999999999 218.89979999999997,108.52499999999999 218.89979999999997,113.97869999999999 218.89979999999997,119.60079999999999 218.89979999999997,123.83709999999999 218.78848769531248,124.93265195312499 218.46946406249998,125.954696875 217.96509902343746,126.880868359375 217.29776249999998,127.6888 216.48982441406247,128.35612539062498 215.56365468749996,128.860478125 214.54162324218746,129.179491796875 213.44609999999997,129.2908 197.94999999999996,129.2908 196.85444374999997,129.179491796875 195.83238749999998,128.860478125 194.90619999999996,128.35612539062498 194.09824999999995,127.6888 193.43090624999996,126.880868359375 192.92653749999997,125.954696875 192.60751249999996,124.93265195312499 192.49619999999996,123.83709999999999 192.49619999999996,119.60079999999999 192.49619999999996,113.97869999999999 192.49619999999996,108.52499999999999 197.94999999999996,108.52499999999999" fill="none" stroke="black" stroke-width="0.1" id="_130705240"/>
            <polygon points="227.479,129.291 243.20600000000002,129.291 244.24863183593752,129.2067421875 245.22131093750002,128.96525624999998 246.10275019531252,128.5834734375 246.8716625,128.078325 247.50676074218754,127.4667421875 247.98675781250003,126.76565625 248.2903666015625,125.99199843750002 248.39630000000002,125.1627 248.39630000000002,121.2997 241.86530000000002,121.2997 241.86530000000002,121.6686 241.81184511718752,122.0691181640625 241.65862968750002,122.4427078125 241.41637753906252,122.7812091796875 241.0958125,123.07646249999999 240.7076583984375,123.32030800781251 240.26263906250003,123.5045859375 239.77147832031253,123.6211365234375 239.24490000000003,123.6618 231.30400000000003,123.6618 230.77741738281253,123.6211365234375 230.28624531250003,123.5045859375 229.84120996093753,123.32030800781251 229.45303750000002,123.07646249999999 229.13245410156253,122.7812091796875 228.89018593750004,122.4427078125 228.73695917968752,122.0691181640625 228.68350000000004,121.6686 228.68350000000004,115.62819999999999 228.73695917968752,115.22768183593749 228.89018593750004,114.85409218749999 229.13245410156253,114.5155908203125 229.45303750000002,114.2203375 229.84120996093753,113.97649199218748 230.28624531250003,113.7922140625 230.77741738281253,113.67566347656249 231.30400000000003,113.63499999999999 239.24490000000003,113.63499999999999 239.77147832031255,113.67566347656249 240.26263906250003,113.7922140625 240.70765839843753,113.97649199218748 241.09581250000002,114.2203375 241.41637753906252,114.5155908203125 241.65862968750002,114.85409218749999 241.81184511718752,115.22768183593749 241.86530000000002,115.62819999999999 241.86530000000002,116.1265 248.39630000000002,116.1265 248.39630000000002,112.6535 248.2903666015625,111.8242015625 247.98675781250003,111.05054375 247.50676074218754,110.34945781249999 246.8716625,109.73787499999999 246.10275019531252,109.23272656249999 245.22131093750002,108.85094375 244.24863183593752,108.6094578125 243.20600000000002,108.5252 227.479,108.5252 226.43636816406251,108.6094578125 225.4636890625,108.85094375 224.58224980468748,109.23272656249999 223.8133375,109.73787499999999 223.17823925781252,110.34945781249999 222.6982421875,111.05054375 222.39463339843752,111.8242015625 222.2887,112.6535 222.2887,125.1627 222.39463339843752,125.99199843750002 222.6982421875,126.76565625 223.17823925781252,127.4667421875 223.8133375,128.078325 224.58224980468748,128.5834734375 225.4636890625,128.96525624999998 226.43636816406251,129.2067421875 227.479,129.291" fill="none" stroke="black" stroke-width="0.1" id="_130698400"/>
            <polygon points="271.796,108.525 278.767,108.525 278.767,129.291 271.796,129.291 271.796,122.412 258.267,122.412 258.267,129.291 251.295,129.291 251.295,108.525 258.267,108.525 258.267,116.042 271.796,116.042" fill="none" stroke="black" stroke-width="0.1" id="_130698208"/>
        </g>
        <circle cx="212.476" cy="118.908" r="11.9212" fill="none" stroke="black" stroke-width="0.1" id="center_00"/>
    </g>
</svg>
