<?xml version="1.0" encoding="UTF-8"?>
<!DOCTYPE svg PUBLIC "-//W3C//DTD SVG 1.1//EN" "http://www.w3.org/Graphics/SVG/1.1/DTD/svg11.dtd">
<!-- Creator: CorelDRAW -->
<svg xmlns="http://www.w3.org/2000/svg" xml:space="preserve" width="210mm" height="297mm" style="shape-rendering:geometricPrecision; text-rendering:geometricPrecision; image-rendering:optimizeQuality; fill-rule:evenodd; clip-rule:evenodd"
viewBox="0 0 210 297">
 <defs>
  <style type="text/css">
   <![CDATA[
    .str0 {stroke:black;stroke-width:0.0762}
    .fil0 {fill:#969594}
   ]]>
  </style>
 </defs>
 <g id="Ebene_x0020_1">
  <metadata id="CorelCorpID_0Corel-Layer"/>
  <circle class="fil0 str0" cx="80.2822" cy="239.732" r="15.5"/>
  <polygon class="fil0 str0" points="103.3,235.039 100.642,236.619 99.5304,237.832 99.079,239.072 99.079,240.392 99.5304,241.632 100.642,242.845 103.3,244.425 102.181,248.236 99.0926,248.12 97.502,248.54 96.4519,249.339 95.7384,250.449 95.4476,251.737 95.7268,253.358 97.107,256.131 94.1053,258.732 91.5713,256.959 90.0065,256.452 88.6909,256.556 87.4905,257.104 86.5499,258.03 85.9084,259.545 85.5682,262.631 81.6367,263.196 80.4658,260.327 79.4236,259.055 78.2603,258.431 76.954,258.244 75.6622,258.514 74.3036,259.441 72.347,261.86 68.7341,260.21 69.302,257.157 69.1132,255.523 68.4716,254.37 67.4742,253.506 66.2414,253.035 64.5971,253.08 61.6412,254.064 59.4939,250.723 61.6244,248.455 62.349,246.978 62.4327,245.661 62.0609,244.394 61.2784,243.332 59.8704,242.481 56.8497,241.718 56.8497,237.746 59.8704,236.983 61.2784,236.132 62.0609,235.07 62.4327,233.803 62.349,232.486 61.6244,231.009 59.4939,228.741 61.6412,225.4 64.5971,226.384 66.2414,226.429 67.4742,225.958 68.4716,225.094 69.1132,223.941 69.302,222.307 68.7341,219.254 72.347,217.604 74.3036,220.023 75.6622,220.95 76.954,221.22 78.2603,221.033 79.4236,220.409 80.4658,219.137 81.6367,216.268 85.5682,216.833 85.9084,219.919 86.5499,221.434 87.4905,222.36 88.6909,222.908 90.0065,223.012 91.5713,222.505 94.1053,220.732 97.107,223.333 95.7268,226.106 95.4476,227.727 95.7384,229.015 96.4519,230.125 97.502,230.924 99.0926,231.344 102.181,231.228 "/>
  <circle class="fil0 str0" cx="80.2822" cy="239.732" r="5"/>
  <polygon class="fil0 str0" points="148.543,179.145 145.885,180.724 144.773,181.937 144.322,183.177 144.322,184.497 144.773,185.737 145.885,186.95 148.543,188.53 147.424,192.341 144.336,192.226 142.745,192.645 141.695,193.444 140.981,194.555 140.691,195.842 140.97,197.463 142.35,200.236 139.348,202.837 136.814,201.064 135.25,200.557 133.934,200.661 132.733,201.209 131.793,202.135 131.151,203.65 130.811,206.736 126.88,207.301 125.709,204.433 124.667,203.16 123.503,202.537 122.197,202.349 120.905,202.619 119.547,203.547 117.59,205.966 113.977,204.315 114.545,201.262 114.356,199.628 113.715,198.475 112.717,197.611 111.484,197.14 109.84,197.185 106.884,198.17 104.737,194.828 106.867,192.56 107.592,191.083 107.676,189.766 107.304,188.5 106.521,187.437 105.113,186.587 102.093,185.823 102.093,181.851 105.113,181.088 106.521,180.237 107.304,179.175 107.676,177.908 107.592,176.591 106.867,175.115 104.737,172.846 106.884,169.505 109.84,170.489 111.484,170.535 112.717,170.064 113.715,169.199 114.356,168.046 114.545,166.412 113.977,163.359 117.59,161.709 119.547,164.128 120.905,165.055 122.197,165.326 123.503,165.138 124.667,164.515 125.709,163.242 126.88,160.373 130.811,160.939 131.151,164.024 131.793,165.539 132.733,166.465 133.934,167.013 135.25,167.118 136.814,166.611 139.348,164.837 142.35,167.438 140.97,170.211 140.691,171.833 140.981,173.12 141.695,174.23 142.745,175.029 144.336,175.449 147.424,175.334 "/>
  <circle class="fil0 str0" cx="125.525" cy="183.837" r="5"/>
  <polygon class="fil0 str0" points="126.909,156.998 133.844,158.63 142.571,164.606 148.773,176.265 150.3,185.182 147.659,194.096 143.111,197.609 130.546,202.515 121.941,203.258 109.225,208.229 93.393,231.462 91.6365,237.933 90.2527,246.94 81.6276,252.115 76.7186,268.931 67.8532,266.157 69.2602,247.44 67.0723,237.031 53.4806,225.983 57.9408,218.218 75.7728,225.165 84.036,222.651 84.036,222.651 106.997,196.676 114.815,181.082 114.035,168.623 119.881,158.872 "/>
  <circle id="center_00" class="fil0 str0" cx="100" cy="147" r="18.368"/>
  <polygon class="fil0 str0" points="60.8377,178.542 52.7364,173.319 53.2288,172.508 51.6779,171.63 51.3121,172.322 46.9157,169.786 45.5793,171.853 47.2912,169.008 46.7296,166.561 43.4987,164.916 40.9331,165.873 39.8235,167.718 45.2857,170.718 39.8235,167.718 37.8006,171.221 37.9486,172.894 42.1868,175.073 37.9486,172.894 38.2439,174.236 40.9759,175.721 43.7816,174.952 44.9773,172.952 44.1092,174.404 48.3261,177.151 50.8827,172.968 47.6906,178.191 49.1731,179.094 49.7782,178.125 57.8675,183.4 "/>
  <polygon class="fil0 str0" points="76.1133,176.231 78.0387,180.674 84.6922,183.379 83.1457,179.194 84.9132,183.977 87.5241,185.206 89.4583,188.685 91.7188,193.552 93.136,195.858 93.9678,198.346 98.6165,203.528 101.039,203.901 102.772,202.568 103.403,200.067 100.133,192.697 99.4876,187.89 98.12,185.542 99.4876,187.89 100.133,192.697 103.403,200.067 102.772,202.568 105.22,199.215 105.315,197.118 103.565,193.197 102.757,189.907 102.826,188.31 103.089,186.704 104.661,187.504 107.888,185.219 104.661,187.504 105.788,184.135 104.661,187.504 103.089,186.704 102.826,188.31 102.757,189.907 110.341,192.848 116.67,185.4 113.418,177.829 82.539,167.137 77.2722,168.971 "/>
  <polygon class="fil0 str0" points="118.997,167.657 123.208,169.196 126.241,170.925 128.91,173.93 137.703,186.935 139.104,189.965 138.935,193.222 137.486,196.688 133.922,200.523 131.023,201.722 127.36,202.41 112.983,198.974 106.997,196.676 105.419,195.078 106.634,193.083 107.643,186.716 108.002,184.523 111.554,185.968 117.594,190.302 127.522,195.278 117.594,190.302 111.554,185.968 108.002,184.523 109.097,183.222 109.918,182.247 111.837,182.245 113.525,183.405 117.834,186.139 124.677,174.748 123.356,172.734 120.416,170.813 117.194,169.524 117.629,168.179 "/>
  <polygon class="fil0 str0" points="95.6508,193.44 94.4434,195.318 94.2308,196.412 94.4434,195.318 94.3758,195.666 93.6927,195.87 92.6888,196.887 92.5297,197.399 93.4367,196.848 92.5297,197.399 92.2443,198.117 92.6364,199.275 99.0129,203.178 100.518,203.461 101.423,202.615 100.972,200.766 100.248,199.81 99.4254,199.178 100.248,199.81 100.972,200.766 101.423,202.615 102.556,201.036 102.273,199.398 101.399,198.384 100.8,197.899 99.1879,196.528 97.8937,195.891 98.0803,195.033 97.6543,194.073 97.0931,195.265 96.7042,196.059 97.0923,197.17 96.7042,196.059 97.6543,194.073 "/>
  <polygon class="fil0 str0" points="97.7747,206.217 100.833,202.24 100.655,201.263 99.5748,199.896 97.6416,198.529 95.4061,197.628 93.695,197.53 93.099,197.738 92.6346,198.066 91.0838,202.319 90.9853,203.113 91.5044,203.972 92.7242,205.047 94.3066,205.979 95.9361,206.436 97.431,206.533 "/>
  <_path class="fil0 str0" d="M97.7094 205.907l-0.481 -1.227 -1.46 -1.484 -2.069 -1.133 -1.4625 -0.123 -0.8322 0.301m6.3047 3.666z"/>
  <circle class="fil0 str0" cx="80.2822" cy="239.732" r="3.4999"/>
  <polygon class="fil0 str0" points="80.3338,176.442 80.7254,174.792 81.0481,173.432 82.3493,178.758 81.9073,180.92 82.3493,178.758 81.0481,173.432 80.5777,172.228 79.2906,170.901 77.9596,169.761 75.5307,168.235 83.0667,156.883 87.1422,158.463 90.8238,155.158 87.1424,158.463 83.0666,156.883 75.5307,168.235 77.9596,169.761 79.2906,170.901 80.5777,172.228 88.9684,163.171 91.8496,156.967 94.5282,156.424 96.7685,157.59 102.014,158.151 106.947,155.758 109.746,152.204 111.121,147.384 110.218,143.05 107.774,139.435 104.555,137.28 100.612,136.177 96.51,136.692 93.0213,138.693 88.1568,140.81 81.632,147 79.2112,150.58 74.6678,155.413 63.4754,168.464 54.8752,172.986 50.9889,179.393 50.6897,181.263 52.3239,182.879 55.5238,185.056 60.1502,177.242 61.8286,175.832 64.0757,176.432 77.4925,183.227 79.6416,184.218 80.6341,183.393 81.7173,181.9 81.3926,181.133 80.3338,176.442 76.9625,174.498 72.4734,171.848 69.259,170.524 66.6469,170.395 63.194,172.308 61.0892,174.174 63.194,172.308 66.6469,170.395 69.259,170.524 72.4734,171.848 76.7721,174.385 "/>
  <circle class="fil0 str0" cx="100" cy="147" r="9.4986"/>
  <polygon class="fil0 str0" points="84.4116,158.95 87.1422,158.463 90.3545,159.316 94.8649,160.302 116.378,166.858 115.178,168.112 120.879,172.179 122.652,173.999 122.935,175.26 116.67,185.4 111.837,182.245 109.126,180.984 105.788,184.135 85.4291,170.998 100.902,180.982 97.1355,184.188 95.7024,184.561 84.8256,180.205 83.4047,178.666 83.5124,176.537 84.4059,170.616 80.7803,169.788 84.4059,170.616 83.6904,175.358 81.1559,173.873 80.5778,172.228 79.2906,170.901 77.9596,169.761 77.043,169.185 79.3137,165.282 82.0401,161.308 83.2466,159.731 "/>
  <circle class="fil0 str0" cx="100" cy="147" r="7.9988"/>
  <circle class="fil0 str0" cx="100" cy="147" r="3.4994"/>
 </g>
</svg>
