<!DOCTYPE svg PUBLIC "-//W3C//DTD SVG 1.1//EN" "http://www.w3.org/Graphics/SVG/1.1/DTD/svg11.dtd">
<svg xmlns="http://www.w3.org/2000/svg" width="297mm" height="210mm" viewBox="0 0 297 210">
    <defs id="_tag_48_"/>
    <polygon points="65.6246,133.959 65.6001,133.9566 65.729,133.60760000000002 65.7289,133.60760000000002 67.62469999999999,128.91530000000003 67.66436679687499,128.71383339843754 67.62665937499999,128.52632968750004 67.52885351562499,128.35364550781253 67.38822499999999,128.19663750000004 67.22204960937499,128.05616230468752 67.047603125,127.93307656250003 66.882161328125,127.82823691406253 66.743,127.74250000000004 66.743,127.74250000000004 66.59537578125,127.65118671875004 66.47548749999999,127.57996875000003 66.36954921875,127.51837890625004 66.263775,127.45595000000003 66.14437890625,127.38221484375003 65.997575,127.28670625000004 65.80957734375001,127.15895703125003 65.5666,126.98850000000003 65.5666,126.98850000000003 65.05710234374999,126.61088671875002 64.55976874999999,126.21007500000005 64.07547578124999,125.78633203125003 63.60509999999999,125.33992500000002 63.14951796874999,124.87112109375003 62.70960624999999,124.38018750000003 62.286241406249985,123.86739140625002 61.88029999999999,123.33300000000003 61.88029999999999,123.33300000000003 61.118771874999986,121.82745644531254 60.52430624999999,120.20442656250003 60.106568749999994,118.48656152343753 59.875224999999986,116.69651250000003 59.83994062499999,114.85693066406253 60.01038124999999,112.99046718750003 60.3962125,111.11977324218752 61.007099999999994,109.26750000000003 61.46699999999999,108.10560000000002 60.13159999999999,107.56620000000002 60.13029999999999,107.56940000000003 60.13159999999999,107.56610000000003 51.72269999999999,128.30740000000003 50.98699746093749,130.1103326171875 50.12516718749998,131.84406718750003 49.14295019531249,133.50288378906254 48.046087499999985,135.08106250000003 46.84032011718749,136.57288339843754 45.53138906249998,137.9726265625 44.12503535156249,139.27457207031253 42.62699999999999,140.47300000000004 42.62699999999999,140.47300000000004 42.59531289062499,140.49842597656254 42.56370312499999,140.52393281250005 42.53217304687499,140.54952636718753 42.50072499999999,140.57521250000005 42.46936132812499,140.60099707031253 42.43808437499999,140.62688593750005 42.40689648437499,140.65288496093754 42.37579999999999,140.67900000000003 42.37499999999999,140.67890000000003 42.36443867187499,140.68780527343753 42.353903124999995,140.69674218750004 42.343391015624995,140.7057048828125 42.332899999999995,140.71468750000003 42.322427734375,140.72368417968752 42.31197187499999,140.73268906250004 42.30153007812499,140.7416962890625 42.29109999999999,140.75070000000002 42.29109999999999,140.75070000000002 42.27663437499999,140.76313046875 42.262187499999996,140.77559375 42.247759374999994,140.78808515625002 42.23334999999999,140.80060000000003 42.21895937499999,140.81313359375002 42.20458749999999,140.82568125 42.190234374999996,140.83823828125003 42.17589999999999,140.85080000000002 42.080499999999994,140.93540000000002 42.059223437499995,140.9544734375 42.03799374999999,140.97359375000002 42.01681093749999,140.9927609375 41.99567499999999,141.011975 41.97458593749999,141.0312359375 41.953543749999994,141.05054375000003 41.93254843749999,141.06989843750003 41.91159999999999,141.0893 41.843799999999995,141.1525 41.79937753906249,141.194453125 41.7551390625,141.2366125 41.711090429687495,141.27897812500004 41.66723749999999,141.32155 41.6235861328125,141.36432812500001 41.580142187499995,141.4073125 41.536911523437496,141.45050312499998 41.4939,141.4939 41.419799999999995,141.5699 41.401026757812495,141.58933925781247 41.382282812499994,141.60880781249998 41.36356933593749,141.62830683593748 41.34488749999999,141.64783749999998 41.3262384765625,141.66740097656248 41.3076234375,141.6869984375 41.289043554687495,141.70663105468748 41.2705,141.72629999999998 41.216499999999996,141.78429999999997 41.19410332031249,141.80854863281246 41.171764062499996,141.8328453125 41.149483398437496,141.8571912109375 41.1272625,141.88158749999997 41.10510253906249,141.90603535156248 41.083004687499994,141.93053593749997 41.060970117187495,141.95509042968746 41.038999999999994,141.97969999999998 40.9922,142.03239999999997 40.9712326171875,142.05626914062498 40.9503296875,142.08017812499997 40.9294900390625,142.104129296875 40.9087125,142.12812499999998 40.8879958984375,142.152167578125 40.867339062499994,142.17625937499997 40.846740820312505,142.200402734375 40.8262,142.22459999999998 40.7798,142.27939999999998 40.766805859375005,142.29486386718747 40.753846874999994,142.3103546875 40.740920703125,142.3258712890625 40.728025,142.3414125 40.715157421875,142.3569771484375 40.702315625000004,142.37256406249998 40.68949726562501,142.3881720703125 40.676700000000004,142.4038 40.676700000000004,142.4038 40.663022265625,142.42060078125 40.649365625,142.43740624999998 40.635732421875005,142.45422109374996 40.622125,142.47105 40.608545703125,142.48789765625 40.59499687500001,142.50476874999998 40.581480859375006,142.52166796875 40.568000000000005,142.5386 40.56550000000001,142.5418 40.476400000000005,142.6554 40.3954,142.761 40.3810892578125,142.7798720703125 40.3668078125,142.79876406249997 40.352556835937506,142.8176771484375 40.3383375,142.8366125 40.32415097656251,142.8555712890625 40.3099984375,142.8745546875 40.295881054687506,142.89356386718748 40.281800000000004,142.9126 40.20870000000001,143.0129 40.19446445312501,143.0326060546875 40.180259375000006,143.0523484375 40.166087109375006,143.07212597656252 40.15195000000001,143.09193750000003 40.137850390625005,143.1117818359375 40.12379062500001,143.1316578125 40.109773046875006,143.1515642578125 40.095800000000004,143.1715 40.015600000000006,143.2872 39.94420000000001,143.3923 39.93001503906251,143.41353886718753 39.91588281250001,143.43480468750002 39.90179980468751,143.4560962890625 39.88776250000001,143.4774125 39.8737673828125,143.49875214843752 39.85981093750001,143.5201140625 39.845889648437506,143.54149707031252 39.83200000000001,143.5629 39.77440000000001,143.65230000000003 39.75953203125001,143.67568554687503 39.74470625000001,143.69911562500002 39.729927343750006,143.72258789062502 39.71520000000001,143.74610000000004 39.70052890625001,143.76964960937505 39.685918750000006,143.79323437500003 39.67137421875,143.81685195312502 39.65690000000001,143.84050000000002 39.60410000000001,143.92770000000002 39.58979003906251,143.95152246093753 39.575514062500005,143.9753671875 39.561277929687506,143.99923769531253 39.54708750000001,144.02313750000002 39.53294863281251,144.0470701171875 39.518867187500014,144.0710390625 39.50484902343751,144.0950478515625 39.49090000000001,144.1191 39.43760000000001,144.21280000000002 39.42741406250001,144.23077187500002 39.41725625000001,144.24876250000003 39.40712656250002,144.26677187500002 39.397025000000006,144.28480000000002 39.3869515625,144.302846875 39.37690625000001,144.32091250000002 39.366889062500015,144.338996875 39.35690000000001,144.3571 39.29060000000001,144.479 39.279452148437514,144.49978437500002 39.268354687500015,144.5205875 39.257301757812506,144.541409375 39.246287500000015,144.56225 39.23530605468751,144.583109375 39.22435156250001,144.60398750000002 39.21341816406251,144.624884375 39.202500000000015,144.6458 39.162700000000015,144.7226 39.14912890625002,144.74928125000002 39.135637500000016,144.776 39.122221093750014,144.80275625000002 39.10887500000001,144.82954999999998 39.095594531250015,144.85638125 39.08237500000001,144.88324999999998 39.06921171875001,144.91015625 39.056100000000015,144.9371 39.018900000000016,145.01409999999998 39.00607011718752,145.04099726562498 38.993304687500014,145.06791562499998 38.98060253906252,145.094857421875 38.96796250000001,145.12182499999997 38.95538339843751,145.14882070312498 38.942864062500014,145.175846875 38.930403320312514,145.202905859375 38.91800000000001,145.23 38.88070000000001,145.31269999999998 38.868836523437515,145.33925546874997 38.85702343750001,145.36582499999997 38.84526425781251,145.39241328124996 38.83356250000001,145.41902499999998 38.821921679687506,145.44566484374997 38.81034531250001,145.47233749999998 38.79883691406251,145.49904765624996 38.78740000000001,145.52579999999998 38.74920000000001,145.61719999999997 38.74013945312501,145.63899687499998 38.73110937500001,145.66081249999996 38.72211210937501,145.68264687499996 38.71315000000001,145.70449999999994 38.70422539062501,145.72637187499996 38.695340625000014,145.74826249999998 38.68649804687501,145.77017187499996 38.67770000000001,145.79209999999998 38.63450000000001,145.90139999999997 38.62478203125001,145.926426171875 38.615125000000006,145.95147812499997 38.605524218750006,145.97655351562497 38.59597500000001,146.00164999999998 38.58647265625001,146.02676523437495 38.57701250000001,146.05189687499995 38.567589843750014,146.07704257812495 38.55820000000001,146.10219999999995 38.534600000000005,146.16579999999996 38.5234337890625,146.19650683593744 38.51235781250001,146.22727343749995 38.5013685546875,146.25809394531245 38.49046250000001,146.28896249999997 38.47963613281251,146.31987324218747 38.468885937500005,146.35082031249993 38.458208398437506,146.38179785156248 38.4476,146.41279999999998 38.4274,146.47199999999998 38.4170587890625,146.50287246093748 38.4068078125,146.5337671875 38.3966435546875,146.56468769531247 38.3865625,146.5956375 38.3765611328125,146.62662011718749 38.36663593749999,146.65763906249998 38.3567833984375,146.68869785156247 38.347,146.7198 38.3264,146.7865 38.316529296875,146.81866035156247 38.306721875,146.85086406249997 38.296984765625,146.88310761718748 38.287324999999996,146.9153875 38.277749609375,146.9477001953125 38.268265625,146.98004218749998 38.258880078125,147.01240996093748 38.2496,147.04479999999998 38.2403,147.07799999999997 38.230775390625,147.1119232421875 38.221328125,147.14589218749998 38.211960546875,147.17990566406246 38.202675,147.21396249999998 38.19347382812499,147.24806152343749 38.184359375,147.28220156249995 38.175333984374994,147.3163814453125 38.166399999999996,147.3506 38.1628,147.3643 38.162499999999994,147.36509999999998 38.15859999999999,147.38099999999997 38.149983984375,147.41491425781248 38.141459375,147.44885781249997 38.13302382812499,147.48283183593747 38.124674999999996,147.51683749999995 38.116410546874995,147.55087597656245 38.108228125,147.58494843749997 38.100125390624996,147.61905605468746 38.092099999999995,147.65319999999997 38.0836,147.68929999999997 38.075925976562495,147.72295195312498 38.0683515625,147.75663437499998 38.0608732421875,147.79034960937497 38.05348749999999,147.8241 38.046190820312496,147.85788789062497 38.038979687499996,147.89171562499996 38.03185058593749,147.92558554687497 38.0248,147.95949999999996 38.012299999999996,148.01999999999995 38.005629492187495,148.05321054687496 37.999042187499995,148.08646562499996 37.9925369140625,148.11976289062497 37.9861125,148.15309999999997 37.979767773437494,148.18647460937495 37.9735015625,148.21988437499996 37.96731269531249,148.25332695312497 37.9612,148.28679999999994 37.9514,148.34179999999995 37.945442382812494,148.37582226562495 37.939570312499995,148.40986562499995 37.9337849609375,148.44393242187493 37.928087500000004,148.47802499999995 37.9224791015625,148.51214570312496 37.916960937499994,148.54629687499994 37.9115341796875,148.58048085937494 37.9062,148.61469999999994 37.8988,148.66489999999993 37.89354648437501,148.70020156249993 37.888365625,148.73553124999992 37.883264453125,148.77088906249995 37.87825,148.80627499999994 37.873329296875,148.84168906249994 37.868509375,148.87713124999993 37.863797265625,148.91260156249996 37.8592,148.94809999999993 37.858200000000004,148.95559999999992 37.8581,148.95599999999993 37.8572,148.96419999999992 37.8527181640625,148.9999978515624 37.8483453125,149.03583906249992 37.8440779296875,149.07172011718743 37.8399125,149.10763749999995 37.8358455078125,149.14358769531242 37.83187343749999,149.1795671874999 37.827992773437494,149.21557246093744 37.8242,149.2515999999999 37.8191,149.29979999999992 37.81570546875,149.3340513671874 37.81241875,149.3683296874999 37.80923515625,149.4026337890624 37.806149999999995,149.43696249999994 37.80315859375,149.4713146484374 37.80025625,149.5056890624999 37.797438281249995,149.54008457031242 37.7947,149.57449999999992 37.7895,149.64219999999992 37.78702988281249,149.67612265624993 37.7846453125,149.71008749999993 37.782347460937494,149.74408984374992 37.780137499999995,149.7781249999999 37.7780166015625,149.8121882812499 37.77598593749999,149.84627499999993 37.7740466796875,149.88038046874993 37.7722,149.91449999999992 37.769099999999995,149.9774999999999 37.76742207031249,150.0129558593749 37.76583906249999,150.0484468749999 37.764352148437496,150.08397070312492 37.76296249999999,150.11952499999992 37.76167128906249,150.15510742187493 37.760479687499995,150.1907156249999 37.759388867187496,150.22634726562492 37.758399999999995,150.26199999999992 37.7576,150.29819999999992 37.7567060546875,150.3370222656249 37.7559046875,150.37586562499993 37.7552041015625,150.41473242187493 37.7546125,150.45362499999993 37.7541380859375,150.4925457031249 37.75378906249999,150.5314968749999 37.7535736328125,150.57048085937492 37.753499999999995,150.6094999999999 37.753499999999995,150.6094999999999 37.75353671874999,150.63693613281242 37.753643749999995,150.66434531249993 37.753816406249996,150.6917287109374 37.75404999999999,150.71908749999992 37.754339843749996,150.74642285156241 37.75468124999999,150.7737359374999 37.75506953125,150.8010279296874 37.7555,150.8282999999999 37.7556,150.8336999999999 37.75606953125,150.8602494140624 37.756581249999996,150.88679531249988 37.75713984375,150.9133341796874 37.75775,150.9398624999999 37.75841640625,150.9663767578124 37.75914375000001,150.99287343749992 37.75993671875,151.0193490234374 37.7608,151.0457999999999 37.7612,151.0553999999999 37.762090429687504,151.0811246093749 37.76303593750001,151.10684687499992 37.764035351562505,151.1325644531249 37.7650875,151.15827499999992 37.76619121093751,151.18397617187492 37.767345312500005,151.2096656249999 37.768548632812504,151.2353410156249 37.769800000000004,151.2609999999999 37.77,151.2668999999999 37.7712,151.2887999999999 37.772414648437504,151.31192851562488 37.7736609375,151.3350406249999 37.7749423828125,151.3581386718749 37.7762625,151.38122499999992 37.777624804687505,151.40430195312487 37.779032812500006,151.4273718749999 37.7804900390625,151.4504371093749 37.782000000000004,151.4734999999999 37.7837,151.4991999999999 37.7852650390625,151.5220328124999 37.786882812500004,151.5448562499999 37.7885498046875,151.5676703124999 37.790262500000004,151.5904749999999 37.79201738281251,151.6132703124999 37.793810937500005,151.63605624999988 37.79563964843751,151.6588328124999 37.79750000000001,151.6815999999999 37.80060000000001,151.71899999999988 37.80263945312501,151.74265742187487 37.80470937500001,151.76630312499987 37.80681210937501,151.78993476562488 37.80895000000001,151.81354999999988 37.81112539062501,151.8371464843749 37.81334062500001,151.86072187499988 37.81559804687501,151.8842738281249 37.81790000000001,151.90779999999987 37.81870000000001,151.91599999999985 37.81920000000001,151.92059999999987 37.82165625000001,151.94463261718735 37.82415000000001,151.96865468749988 37.82668125000001,151.99266503906236 37.829250000000016,152.01666249999985 37.83185625000001,152.04064589843736 37.834500000000006,152.06461406249986 37.83718125000001,152.08856582031237 37.83990000000001,152.11249999999987 37.84190000000001,152.13039999999987 37.84280000000001,152.13769999999985 37.84556074218751,152.16105761718734 37.84836718750001,152.18440468749984 37.851218164062516,152.20774003906234 37.854112500000014,152.23106249999984 37.85704902343751,152.25437089843737 37.8600265625,152.27766406249987 37.86304394531251,152.30094082031238 37.86610000000001,152.32419999999985 37.87050000000001,152.35759999999985 37.873752929687505,152.38177832031232 37.877060937500005,152.40593906249987 37.88042285156251,152.43008339843738 37.883837500000006,152.45421249999984 37.8873037109375,152.47832753906235 37.89082031250001,152.50242968749987 37.89438613281251,152.52652011718737 37.89800000000001,152.55059999999986 37.89920000000001,152.55869999999987 37.90297343750001,152.58348691406238 37.906793750000006,152.60827031249988 37.910660937500005,152.63304667968737 37.914575,152.65781249999986 37.9185359375,152.68256425781237 37.92254375000001,152.7072984374999 37.926598437500004,152.73201152343736 37.93070000000001,152.75669999999988 37.93230000000001,152.76709999999989 37.93290000000001,152.77049999999988 37.93290000000001,152.7706999999999 37.94136074218751,152.8205837890624 37.95001718750001,152.8704078124999 37.95886816406251,152.9201685546874 37.96791250000001,152.96986249999992 37.97714902343751,153.0194861328124 37.98657656250001,153.0690359374999 37.996193945312505,153.1185083984374 38.00600000000001,153.1678999999999 38.01590000000001,153.2168999999999 38.02011855468751,153.2375289062499 38.02437343750001,153.2581624999999 38.028663476562514,153.2787960937499 38.032987500000004,153.2994249999999 38.03734433593751,153.3200445312499 38.041732812500015,153.34064999999987 38.04615175781251,153.3612367187499 38.05060000000001,153.38179999999988 38.05310000000001,153.39339999999987 38.05850000000001,153.41759999999988 38.06313125000001,153.43852441406239 38.067800000000005,153.45944531249987 38.07250625000001,153.48035917968738 38.07725000000001,153.50126249999988 38.082031250000014,153.5221517578124 38.086850000000005,153.5430234374999 38.09170625000001,153.5638740234374 38.09660000000001,153.58469999999988 38.10410000000001,153.6165999999999 38.11132441406251,153.64696953124988 38.118601562500004,153.67732499999988 38.125937304687504,153.70766171874988 38.13333750000001,153.7379749999999 38.14080800781251,153.7682601562499 38.14835468750001,153.7985124999999 38.15598339843751,153.82872734374988 38.16370000000001,153.8588999999999 39.92070000000001,161.1463999999999 39.92070000000001,161.1463999999999 40.006803515625016,161.51988476562488 40.08199687500001,161.89742187499988 40.14610429687501,162.2788355468749 40.19895000000001,162.6639499999999 40.24035820312501,163.05258945312488 40.27015312500001,163.4445781249999 40.28815898437501,163.83974023437491 40.29420000000001,164.23789999999988 40.29420000000001,164.23789999999988 40.25183300781251,165.28996699218737 40.12692031250001,166.31871718749989 39.92274433593751,167.32088691406238 39.64258750000001,168.29321249999987 39.28973222656251,169.2324302734374 38.86746093750001,170.13527656249988 38.37905605468751,170.99848769531238 37.82780000000001,171.8187999999999 37.66260000000001,172.0499999999999 37.51560000000001,172.2690999999999 37.384200000000014,172.47929999999988 37.22980000000001,172.74619999999987 37.17200000000001,172.8544999999999 36.96051328125001,173.2817150390624 36.77413750000001,173.7228203124999 36.61382421875001,174.17689355468738 36.480525000000014,174.64301249999988 36.37519140625001,175.1202548828124 36.29877500000001,175.60769843749986 36.252227343750015,176.10442089843738 36.236500000000014,176.60949999999988 36.236500000000014,176.60949999999988 36.30766992187502,177.68100117187487 36.51506562500001,178.7094406249999 36.849516015625014,179.68564726562488 37.301850000000016,180.60044999999988 37.862896484375014,181.44467773437486 38.52348437500002,182.20915937499987 39.27444257812501,182.88472382812486 40.106600000000014,183.46219999999988 37.87680000000002,187.7158999999999 39.92589160156252,188.0075128906249 41.79107031250002,187.94707812499988 43.50039199218752,187.55503554687488 45.081912500000016,186.85182499999988 46.563687695312524,185.8578863281249 47.973773437500014,184.5936593749999 49.340225585937524,183.0795839843749 50.69110000000002,181.3360999999999 50.69020000000002,181.3361999999999 51.035626757812516,180.8253716796874 51.34174531250002,180.2875609374999 51.60647558593752,179.72482910156242 51.82773750000002,179.13923749999992 52.00345097656252,178.5328474609374 52.13153593750002,177.90772031249992 52.20991230468752,177.2659173828124 52.23650000000002,176.6094999999999 52.23650000000002,176.6094999999999 52.23604804687502,176.5258499999999 52.23470312500002,176.44244374999994 52.23248164062502,176.3592718749999 52.22940000000002,176.27632499999993 52.22547460937503,176.1935937499999 52.220721875000024,176.1110687499999 52.215158203125014,176.02874062499993 52.20880000000002,175.9465999999999 52.20950000000002,175.9466999999999 52.20840000000002,175.9425999999999 52.171353710937524,175.59012363281244 52.119235937500015,175.2423453124999 52.05237832031252,174.8996037109374 51.97111250000002,174.56223749999992 51.875770117187514,174.2305853515624 51.766682812500015,173.9049859374999 51.64418222656251,173.58577792968742 51.508600000000015,173.27329999999992 45.90000000000001,151.88049999999993 45.86248789062501,151.72739589843744 45.82966562500001,151.57248593749995 45.80162929687501,151.41584863281244 45.778475000000014,151.25756249999992 45.76029882812501,151.09770605468742 45.74719687500001,150.93635781249992 45.73926523437501,150.77359628906243 45.73660000000001,150.60949999999994 45.73660000000001,150.60949999999994 45.838203515625004,149.60200898437492 46.12959687500001,148.66355312499994 46.59065429687501,147.81425820312495 47.201250000000016,147.07424999999995 47.94125820312501,146.46365429687495 48.79055312500001,146.00259687499994 49.72900898437501,145.71120351562496 50.73650000000001,145.60959999999994 50.73650000000001,145.60959999999994 51.58782480468751,145.68183535156243 52.3925546875,145.89055781249994 53.13873535156251,146.22379199218744 53.8144125,146.66956249999993 54.4076318359375,147.21589394531244 54.906439062500006,147.85081093749994 55.29887988281251,148.56233808593745 55.57300000000001,149.33849999999995 55.57330000000001,149.33839999999995 56.52450000000001,152.96639999999996 56.526100000000014,152.97249999999997 56.52650000000001,152.97289999999998 56.86465390625001,153.84344843749997 57.30284375000001,154.65835625 57.833461718750016,155.41002968749999 58.44890000000001,156.09087499999998 59.14155078125001,156.69329843749998 59.90380625000002,157.20970624999995 60.72805859375001,157.6325046875 61.60670000000001,157.95409999999998 61.60750000000001,157.95489999999998 61.60920000000001,157.95489999999998 61.93400000000001,157.95489999999998 71.9548,157.95489999999998 77.623,157.95489999999998 77.82399394531251,157.87130683593747 78.0015890625,157.71847343749997 78.15693027343751,157.5003314453125 78.29116250000001,157.22081249999997 78.40543066406251,156.8838482421875 78.5008796875,156.4933703125 78.57865449218752,156.05331035156246 78.63990000000001,155.56759999999997 78.64010000000002,155.56769999999997 78.70308105468752,154.89066484375 78.79707343750002,154.22382499999998 78.92128847656252,153.56799140624997 79.07493750000002,152.92397499999998 79.25723183593752,152.29258671875 79.46738281250002,151.6746375 79.70460175781253,151.07093828124997 79.96810000000002,150.48229999999998 79.96810000000002,150.48229999999998 80.86006113281252,149.1960892578125 81.94262656250002,148.0306953125 83.19754433593752,147.0017380859375 84.60656250000002,146.12483749999998 86.15142910156251,145.4156134765625 87.81389218750002,144.8896859375 89.57569980468752,144.5626748046875 91.41860000000003,144.4502 94.26400000000002,144.4502 94.26400000000002,143.0099 91.41860000000003,143.0099 80.26990000000002,143.0099 76.53520000000002,143.0099 72.13390000000001,143.0099 72.13390000000001,143.00949999999997 72.0965,143.00999999999996 70.71847578124999,142.87103730468746 69.4349,142.47249843749995 68.27329296875,141.84190722656245 67.26117500000001,141.00678749999997 66.42606640625,139.99466308593747 65.79548750000001,138.83305781249996 65.39695859375,137.54949550781245 65.25800000000001,136.17149999999995 65.25800000000001,136.17149999999995 65.26401933593752,135.88256308593745 65.28191093750002,135.59670468749994 65.31142519531251,135.31415332031244 65.35231250000001,135.03513749999996 65.4043232421875,134.75988574218744 65.4672078125,134.48862656249995 65.54071660156251,134.22158847656243 65.62460000000002,133.95899999999995" fill="none" stroke="black" stroke-width="0.1" id="_new_29_1"/>
    <polyline points="40.779800000000016,142.27939999999995 40.76680585937502,142.29485976562495 40.75384687500001,142.31034062499995 40.74092070312501,142.32584492187496 40.72802500000002,142.34137499999994 40.71515742187501,142.35693320312495 40.70231562500002,142.37252187499996 40.68949726562502,142.38814335937496 40.67670000000002,142.40379999999996" fill="none" stroke="black" stroke-width="0.1" id="_new_29_2"/>
    <line x1="91.4186" y1="143.01" x2="94.264" y2="143.01" fill="none" stroke="black" stroke-width="0.1" id="_tag_49_"/>
    <polyline points="48.3844,161.356 46.5933130859375,160.80084726562498 44.9473734375,159.962815625 43.475450195312504,158.870744921875 42.2064125,157.55347500000002 41.169129492187494,156.039845703125 40.3924703125,154.358696875 39.90530410156249,152.538868359375 39.7365,150.6092 39.7365,150.6092 39.9600232421875,148.39261269531247 40.6010796875,146.3279390625 41.615399414062495,144.4594490234375 42.9587125,142.8314125 44.5867490234375,141.48809941406248 46.4552390625,140.47377968749998 48.519912695312506,139.83272324218748 50.7365,139.6092 50.7365,139.6092 52.95308730468749,139.83272324218748 55.0177609375,140.47377968749998 56.8862509765625,141.48809941406248 58.5142875,142.8314125 59.857600585937504,144.4594490234375 60.8719203125,146.3279390625 61.512976757812496,148.39261269531247 61.7365,150.6092 61.7365,150.6092 61.7007666015625,151.5017966796875 61.5954015625,152.37476093749999 61.4231576171875,153.22535410156246 61.186787499999994,154.0508375 60.8890439453125,154.8484724609375 60.53267968749999,155.6155203125 60.1204474609375,156.34924238281252 59.6551,157.0469" fill="none" stroke="black" stroke-width="0.1" id="_new_31_1"/>
    <polyline points="79.6439,151.216 80.4968650390625,149.4777712890625 81.5694640625,147.8977703125 82.8402904296875,146.4986623046875 84.2879375,145.3031125 85.8909986328125,144.3337861328125 87.6280671875,143.6133484375 89.4777365234375,143.16446464843753 91.4186,143.0098 94.264,143.0098" fill="none" stroke="black" stroke-width="0.1" id="_new_32_1"/>
    <polyline points="50.568,131.237 51.5490408203125,130.588766796875 52.557045312499994,130.15483437499998 53.5855365234375,129.911191015625 54.62803749999999,129.833825 55.678071289062494,129.89872460937497 56.7291609375,130.08187812499997 57.7748294921875,130.359273828125 58.8086,130.7069 58.8086,130.7069 59.5545767578125,131.0194083984375 60.2610390625,131.39097343749998 60.924097460937496,131.8106673828125 61.5398625,132.2675625 62.1044447265625,132.7507310546875 62.6139546875,133.2492453125 63.0645029296875,133.7521775390625 63.4522,134.24859999999998 63.4522,134.24859999999998 63.8841818359375,134.9400955078125 64.2285671875,135.66713281249997 64.5174783203125,136.42138808593748 64.7830375,137.19453749999997 65.0573669921875,137.97825722656248 65.3725890625,138.7642234375 65.76082597656249,139.54411230468747 66.2542,140.3096 66.2542,140.3096 66.8149951171875,141.0122595703125 67.3778046875,141.62688906249997 67.93321503906249,142.1800021484375 68.4718125,142.69811249999998 68.9841833984375,143.2077337890625 69.4609140625,143.73537968749997 69.8925908203125,144.3075638671875 70.2698,144.9508 70.2698,144.9508 70.6293298828125,145.7390212890625 70.9051515625,146.4985890625 71.1087880859375,147.2320591796875 71.25176250000001,147.94198749999998 71.3455978515625,148.6309298828125 71.4018171875,149.3014421875 71.4319435546875,149.9560802734375 71.4475,150.5974 71.4475,150.5974 71.44584179687502,151.381243359375 71.40524687500002,152.39728437500003 71.308622265625,153.548826953125 71.138875,154.739175 70.87891210937501,155.871632421875 70.511640625,156.849503125 70.019967578125,157.57609101562502 69.38680000000001,157.9547" fill="none" stroke="black" stroke-width="0.1" id="_new_33_1"/>
    <polyline points="62.8105,124.496 62.57633671875,124.22284843749999 62.34711875,123.94327499999999 62.122991406249994,123.65732656249999 61.9041,123.36505 61.69058984375,123.06649218749999 61.482606249999996,122.76169999999999 61.28029453124999,122.4507203125 61.0838,122.1336 61.0838,122.1336 60.204673046875,120.4783892578125 59.532271875,118.7793703125 59.063641015624995,117.0555380859375 58.795824999999994,115.3258875 58.72586835937499,113.60941347656251 58.850815624999996,111.9251109375 59.167711328124994,110.2919748046875 59.67359999999999,108.729 60.13159999999999,107.5663" fill="none" stroke="black" stroke-width="0.1" id="_new_34_1"/>
    <circle cx="44.2365" cy="176.61" r="8" fill="none" stroke="black" stroke-width="0.1" id="_tag_50_"/>
    <circle cx="44.2365" cy="176.61" r="4.5" fill="none" stroke="black" stroke-width="0.1" id="_tag_51_"/>
    <circle cx="50.7365" cy="150.61" r="5.00" fill="none" stroke="black" stroke-width="0.1" id="center_00"/>
</svg>
