<!DOCTYPE svg PUBLIC "-//W3C//DTD SVG 1.1//EN" "http://www.w3.org/Graphics/SVG/1.1/DTD/svg11.dtd">
<svg xmlns="http://www.w3.org/2000/svg" width="297mm" height="210mm" viewBox="0 0 297 210">
    <defs id="_tag_120_"/>
    <g id="_tag_121_">
        <g id="_tag_122_">
            <polygon id="_201215608" points="593.081,372.758 602.903,375.13 604.898,390.576 597.678,415.922 577.0,443.79 577.0,416.585 589.038,383.777 590.374,377.758 591.289,372.199" fill="none" stroke="black" stroke-width="0.1"/>
            <polygon id="_201215200" points="539.391,432.103 539.428,431.922 539.53,431.749 539.684,431.633 539.871,431.603 576.292,431.603 578.493,430.956 580.452,429.97 582.03,428.882 583.587,427.374 585.104,425.644 586.246,423.434 586.976,421.477 599.212,388.617 599.462,386.278 599.165,384.058 598.267,382.116 596.96,380.664 593.203,376.716 592.259,375.898 591.4,373.827 591.289,372.199 591.908,369.124 592.209,368.478 592.669,368.122 593.27,368.0 603.734,368.0 604.331,368.225 604.722,368.606 611.966,378.251 612.5,379.462 612.793,381.076 612.793,387.175 612.793,388.564 612.28,390.303 580.0,476.884 580.0,476.884 580.0,769.62 575.138,769.62 544.0,767.527 544.0,458.589 539.391,449.445" fill="none" stroke="black" stroke-width="0.1"/>
            <polygon id="_201215584_1" class="fil2 str0" points="598.269,768.898 598.3719343749999,768.8950501953126 598.4733312499999,768.8863078125 598.57303125,768.8719333984375 598.670875,768.8520875 598.7667031249999,768.8269306640625 598.86035625,768.7966234375 598.951675,768.7613263671875 599.0405,768.7212000000001 599.0405,768.7212000000001 601.2284748046875,767.5543042968751 603.2159734375,766.097953125 604.9748697265624,764.3802503906252 606.4770374999999,762.4293000000001 607.6943505859375,760.273205859375 608.5986828124999,757.9400718750001 609.1619080078124,755.4580019531251 609.3558999999999,752.8551000000001 609.3558999999999,752.8551000000001 609.313258984375,751.6294533203126 609.1872343749999,750.4267765625001 608.9806738281248,749.2499021484375 608.6964249999999,748.1016625000001 608.3373355468749,746.9848900390625 607.9062531249999,745.9024171875001 607.4060253906249,744.8570763671877 606.8394999999999,743.8517000000002 580.0004999999999,698.3434000000002 578.1169999999998,698.7758000000002 578.1082999999999,714.5075000000003 577.2559999999999,721.1176000000003 575.1382999999998,727.8416000000003 575.1382999999998,769.6196000000003 576.6103783203123,769.6367404296878 577.9631890624999,769.6447859375004 579.2352458984374,769.6458353515629 580.4650624999998,769.6419875000004 581.6911525390623,769.6353412109379 582.9520296874998,769.6279953125004 584.2862076171874,769.6220486328128 585.7321999999998,769.6196000000003 585.7321999999998,769.6196000000003 586.0885482421872,769.5836658203127 586.4204734374998,769.4806078125004 586.7208587890623,769.3175427734377 586.9825874999998,769.1015875000004 587.1985427734373,768.8398587890629 587.3616078124999,768.5394734375003 587.4646658203123,768.2075482421877 587.5005999999998,767.8512000000003 587.5005999999998,752.8729000000003 587.5003999999999,752.8551000000003 587.5918439453125,751.9482982421878 587.8541015624999,751.1036421875003 588.2690615234375,750.3392431640629 588.8186124999999,749.6732125000003 589.4846431640624,749.1236615234378 590.2490421874999,748.7087015625003 591.0936982421874,748.4464439453129 592.0004999999999,748.3550000000004 592.0004999999999,748.3550000000004 592.9073017578124,748.4464439453129 593.7519578124999,748.7087015625004 594.5163568359374,749.1236615234378 595.1823874999999,749.6732125000004 595.7319384765624,750.3392431640629 596.1468984374999,751.1036421875003 596.4091560546873,751.9482982421878 596.5005999999998,752.8551000000003 596.5005999999998,767.1296000000003 596.5365341796874,767.4859482421878 596.6395921874998,767.8178734375003 596.8026572265624,768.1182587890628 597.0186124999999,768.3799875000003 597.2803412109374,768.5959427734379 597.5807265624999,768.7590078125004 597.9126517578125,768.8620658203129 598.2689999999999,768.8980000000004" fill="none" stroke="black" stroke-width="0.1"/>
            <line id="_201214552" x1="539.391" y1="449.445" x2="574.606" y2="449.445" stroke="black" stroke-width="0.1"/>
            <line id="_201214648" x1="544.0" y1="458.589" x2="571.938" y2="458.589" stroke="black" stroke-width="0.1"/>
            <polyline id="simplify_SVG__000095" points="574.937,431.892 573.018,432.103 539.703,432.103" fill="none" stroke="black" stroke-width="0.1"/>
            <polyline id="simplify_SVG__000096" points="594.623,374.349 600.27,380.441 601.625,383.004 601.975,385.334 601.785,388.41 598.219,398.17 589.618,421.642 587.493,425.719 584.389,429.266 580.592,431.78" fill="none" stroke="black" stroke-width="0.1"/>
            <polyline id="_201214792_1" class="fil3 str1" points="587.5,763.195 587.2949970703125,763.1032160156251 587.0921515625,763.007515625 586.8915208984375,762.907938671875 586.6931625,762.804525 586.4971337890624,762.697314453125 586.3034921875,762.586346875 586.1122951171875,762.4716621093751 585.9236,762.3533000000001 585.9236,762.3533000000001 584.80267421875,761.5332748046876 583.7925,760.5844546875 582.9050070312499,759.5187728515625 582.152125,758.3481625000001 581.5457835937499,757.0845568359375 581.0979124999999,755.7398890625001 580.8204414062499,754.3260923828126 580.7253,752.8551000000001 580.7253,752.8551000000001 580.9544046875,750.5831833984377 581.61146875,748.4669609375001 582.6511171875,746.5518111328126 584.027975,744.8831125 585.6966671874999,743.5062435546876 587.6118187499999,742.4665828125001 589.7280546874999,741.8095087890625 592.0,741.5804 592.0,741.5804 594.2719453125001,741.8095046875001 596.3881812500001,742.4665687500001 598.3033328125001,743.5062171875 599.972025,744.8830750000001 601.3488828125,746.5517671875 602.38853125,748.4669187500001 603.0455953125,750.5831546875 603.2747,752.8551000000001 603.2747,752.8551000000001 603.1471166015625,754.5562539062502 602.7767828125001,756.17781875 602.1823232421875,757.70119921875 601.3823625,759.1078000000001 600.3955251953125,760.3790257812501 599.2404359375,761.4962812500002 597.9357193359376,762.44097109375 596.5,763.1945000000001" fill="none" stroke="black" stroke-width="0.1"/>
            <polygon id="center_00" cx="592" cy="752.855" points="594.8888,752.855 594.8729748513399,753.1569618246876 594.8256727889998,753.4556152924343 594.7474120642735,753.7476882933504 594.639050118038,754.0299808145174 594.5017741864525,754.2994 594.3370882933503,754.5529940368225 594.1467967718391,754.7879844956495 593.9329844956495,755.0017967718392 593.6979940368225,755.1920882933504 593.4444,755.3567741864525 593.1749808145174,755.494050118038 592.8926882933504,755.6024120642735 592.6006152924343,755.6806727889998 592.3019618246876,755.7279748513399 592.0,755.7438 591.6980381753124,755.7279748513399 591.3993847075657,755.6806727889998 591.1073117066496,755.6024120642735 590.8250191854826,755.494050118038 590.5556,755.3567741864525 590.3020059631775,755.1920882933504 590.0670155043505,755.0017967718392 589.8532032281609,754.7879844956495 589.6629117066497,754.5529940368225 589.4982258135475,754.2994 589.360949881962,754.0299808145174 589.2525879357265,753.7476882933504 589.1743272110002,753.4556152924343 589.1270251486601,753.1569618246876 589.1112,752.855 589.1270251486601,752.5530381753124 589.1743272110002,752.2543847075657 589.2525879357265,751.9623117066496 589.360949881962,751.6800191854826 589.4982258135475,751.4106 589.6629117066497,751.1570059631775 589.8532032281609,750.9220155043505 590.0670155043505,750.7082032281609 590.3020059631775,750.5179117066497 590.5556,750.3532258135475 590.8250191854826,750.215949881962 591.1073117066496,750.1075879357265 591.3993847075657,750.0293272110002 591.6980381753124,749.9820251486601 592.0,749.9662000000001 592.3019618246876,749.9820251486601 592.6006152924343,750.0293272110002 592.8926882933504,750.1075879357265 593.1749808145174,750.215949881962 593.4444,750.3532258135475 593.6979940368225,750.5179117066497 593.9329844956495,750.7082032281609 594.1467967718391,750.9220155043505 594.3370882933503,751.1570059631775 594.5017741864525,751.4106 594.639050118038,751.6800191854826 594.7474120642735,751.9623117066496 594.8256727889998,752.2543847075657 594.8729748513399,752.5530381753124" fill="none" stroke="black" stroke-width="0.1"/>
            <polyline id="_200339200_1" class="fil3 str0" points="577.613,728.834 578.6712828125001,729.6020142578125 579.82251875,730.3437703124999 581.0662015625,731.0605630859374 582.4018250000001,731.7536875 583.8288828125001,732.4244384765625 585.3468687500001,733.0741109375 586.9552765625001,733.7039998046874 588.6536000000001,734.3154 588.6536000000001,734.3154 589.7943910156251,734.754317578125 591.1582531250001,735.352771875 592.6712949218752,736.075177734375 594.2596250000001,736.88595 595.849351953125,737.749503515625 597.3665843750001,738.6302531249999 598.7374308593751,739.492613671875 599.8880000000001,740.3009999999999" fill="none" stroke="black" stroke-width="0.1"/>
            <polygon id="_200339848_1" class="fil4 str0" points="543.04,428.283 582.6485,428.283 582.0299,428.8824 580.4087,429.99240000000003 543.04,429.99240000000003 542.8666515625,429.97495605468754 542.7049187499999,429.92496093750003 542.5583453124999,429.84591972656256 542.4304749999999,429.74133750000004 542.3248515624999,429.6147193359376 542.24501875,429.4695703125001 542.1945203124999,429.30939550781255 542.1768999999999,429.13770000000005 542.1768999999999,429.13770000000005 542.1945162109374,428.96600449218755 542.2450046874999,428.8058296875 542.3248251953124,428.6606806640625 542.4304374999999,428.53406250000006 542.5583013671875,428.42948027343755 542.7048765625,428.3504390625001 542.8666228515624,428.30044394531257 543.04,428.2830000000001" fill="none" stroke="black" stroke-width="0.1"/>
            <polygon id="_57139736" points="543.432,428.283 562.0,428.283 580.568,428.283 580.568,427.876 577.369,426.64 562.0,426.64 546.631,426.64 543.432,427.876" fill="none" stroke="black" stroke-width="0.1"/>
            <polygon id="_201216448" points="562.0,429.992 580.409,429.992 578.493,430.956 576.292,431.603 562.0,431.603 540.515,431.603 540.515,431.401 541.988,429.992" fill="none" stroke="black" stroke-width="0.1"/>
            <polyline id="_200467784_1" class="fil3 str0" points="587.5,766.11 587.3757,765.5505 587.1773000000001,765.1467 586.7961,764.8853 586.5590169921875,764.7791494140625 586.3244359375001,764.6684765625 586.0924212890625,764.5533248046875 585.8630375,764.4337375 585.6363490234376,764.3097580078125 585.4124203125,764.1814296875 585.1913158203126,764.0487958984374 584.9731,763.9119000000001 584.9731,763.9119000000001 583.6768068359374,762.9636126953126 582.5085984375,761.8663765625 581.4822689453125,760.6339927734376 580.6116125000001,759.2802625 579.9104232421876,757.8189869140625 579.3924953125,756.2639671875 579.0716228515627,754.6290044921876 578.9616000000001,752.9279 578.9616000000001,752.9279 579.2265435546876,750.30058359375 579.9863921875001,747.8533187500001 581.1886728515626,745.63858203125 582.7809125000001,743.70885 584.7106380859376,742.11659921875 586.9253765625001,740.91430625 589.3726548828125,740.15444765625 592.0000000000001,739.8895 592.0000000000001,739.8895 594.6273451171877,740.1544435546875 597.0746234375001,740.9142921875 599.2893619140626,742.1165728515625 601.2190875000001,743.7088125 602.8113271484376,745.6385380859375 604.0136078125001,747.8532765625 604.7734564453126,750.3005548828124 605.0384000000001,752.9279 605.0384000000001,752.9279 604.8908597656251,754.89518046875 604.4625968750001,756.7704125 603.7751480468751,758.5320945312501 602.8500500000002,760.158725 601.7088394531252,761.6288023437501 600.3730531250001,762.9208250000001 598.8642277343752,764.0132914062501 597.2039000000001,764.8847000000001 596.8227,765.1461 596.6243000000001,765.5499000000001 596.5000000000001,766.1094" fill="none" stroke="black" stroke-width="0.1"/>
        </g>
    </g>
</svg>
