<!DOCTYPE svg PUBLIC "-//W3C//DTD SVG 1.1//EN" "http://www.w3.org/Graphics/SVG/1.1/DTD/svg11.dtd">
<svg xmlns="http://www.w3.org/2000/svg" width="297mm" height="210mm" viewBox="0 0 297 210">
    <defs id="_tag_278_"/>
    <g id="_tag_279_">
        <g id="_tag_280_">
            <ellipse id="center_00" rx="4" ry="5" cx="140" cy="70" style="fill:#eff1cb;fill-opacity:1;fill-rule:evenodd;stroke:#eff1cb;stroke-width:1px;stroke-linecap:butt;stroke-linejoin:miter;stroke-opacity:1;display:inline"/>
            <polygon id="_153806536_1" class="fil0" points="186.096,73.3784 186.096,65.1848 186.2902458984375,63.258513281249996 186.84733593750002,61.46425 187.7287986328125,59.840480468749995 188.8961625,58.425675 190.3109560546875,57.25830390625 191.9347078125,56.37683749999999 193.7289462890625,55.81974609374999 195.6552,55.625499999999995 209.31130000000002,55.625499999999995 209.31130000000002,50.16309999999999 195.6552,50.16309999999999 192.62822578125002,50.46834316406249 189.80870625,51.3437703125 187.25709609375,52.728927929687494 185.03385000000003,54.56336249999999 183.19942265625,56.78662050781249 181.81426875,59.33824843749999 180.93884296875,62.1577927734375 180.6336,65.1848 180.6336,73.3784 180.93884296875,76.40537421875 181.81426875,79.22489375 183.19942265625,81.77650390625 185.03385000000003,83.99975 187.25709609375,85.83417734375 189.80870625,87.21933125000001 192.62822578125002,88.09475703125 195.6552,88.4 217.50490000000002,88.4 217.50490000000002,82.9376 195.65520000000004,82.9376 193.72894628906255,82.7433541015625 191.93470781250005,82.1862640625 190.31095605468752,81.30480136718751 188.8961625,80.1374375 187.72879863281253,78.72264394531251 186.84733593750002,77.0988921875 186.29024589843752,75.3046537109375 186.09600000000003,73.3784" fill="none" stroke="black" stroke-width="0.1"/>
            <polygon id="_153073168_1" class="fil0" points="280.062,73.3784 280.062,65.1848 279.8585017578125,63.258513281249996 279.2748765625,61.46425 278.3514287109375,59.840480468749995 277.1284625,58.425675 275.6462822265625,57.25830390625 273.9451921875,56.37683749999999 272.0654966796875,55.81974609374999 270.0475,55.625499999999995 261.2036,55.625499999999995 261.2036,77.4752 255.7412,77.4752 255.7412,50.1631 270.0475,50.1631 273.2186509765625,50.468343164062496 276.17245781250006,51.3437703125 278.84558886718753,52.728927929687494 281.17471250000006,54.5633625 283.0964970703126,56.7866205078125 284.54761093750005,59.3382484375 285.46472246093754,62.1577927734375 285.78450000000004,65.1848 285.78450000000004,73.3784 285.46472246093754,76.40537421875 284.54761093750005,79.22489375 283.0964970703126,81.77650390625 281.17471250000006,83.99975 278.84558886718753,85.83417734375 276.17245781250006,87.21933125000001 273.2186509765625,88.09475703125 270.0475,88.4 244.8163,88.4 244.8163,82.9376 270.0475,82.9376 272.0654966796875,82.7433541015625 273.9451921875,82.1862640625 275.6462822265625,81.30480136718751 277.1284625,80.1374375 278.3514287109375,78.72264394531251 279.2748765625,77.0988921875 279.8585017578125,75.3046537109375 280.062,73.3784" fill="none" stroke="black" stroke-width="0.1"/>
            <polygon id="_153075216_1" class="fil0" points="222.967,77.4752 222.967,63.8192 223.16124609375,61.89291328125 223.71833750000002,60.09865 224.59980390625,58.47488046875 225.767175,57.060075 227.18198046875003,55.892703906250006 228.80575000000002,55.01123750000001 230.60001328125,54.454146093750005 232.52630000000002,54.2599 232.52630000000002,54.2599 234.45255371093754,54.454146093750005 236.24679218750003,55.01123750000001 237.87054394531253,55.892703906250006 239.28533750000003,57.060075 240.45270136718753,58.47488046875 241.3341640625,60.09865 241.89125410156254,61.89291328125 242.08550000000002,63.8192 242.08550000000002,72.0128 242.08550000000002,77.4752 242.08550000000002,88.4 247.54790000000003,88.4 247.54790000000003,63.81920000000001 247.24265703125002,60.79219277343751 246.36723125000003,57.97264843750001 244.98207734375003,55.421020507812514 243.14765,53.19776250000001 240.92440390625003,51.36332792968751 238.37279375000003,49.97817031250001 235.55327421875,49.10274316406251 232.52630000000002,48.797500000000014 232.52630000000002,48.797500000000014 229.4992927734375,49.10274316406251 226.67974843750002,49.97817031250001 224.1281205078125,51.36332792968751 221.9048625,53.19776250000001 220.0704279296875,55.421020507812514 218.6852703125,57.97264843750001 217.8098431640625,60.79219277343751 217.5046,63.81920000000001 217.5046,88.4 222.967,88.4 222.967,82.9376 236.62310000000002,82.9376 236.62310000000002,77.4752 222.967,77.4752" fill="none" stroke="black" stroke-width="0.1"/>
            <g id="_tag_281_">
                <polygon id="_152100832_1" class="fil0" points="67.2881,88.4 64.5569,88.4 14.029499999999999,88.4 14.029499999999999,73.3784 14.33474296875,70.351421484375 15.210168749999998,67.531890625 16.595322656249998,64.980264453125 18.42975,62.757 20.652996093749998,60.922554296875006 23.204606249999998,59.537384375 26.02412578125,58.661947265625 29.051099999999998,58.356700000000004 29.051099999999998,58.356700000000004 32.078107226562494,58.661947265625 34.8976515625,59.537384375 37.4492794921875,60.922554296875006 39.672537500000004,62.757 41.5069720703125,64.980264453125 42.8921296875,67.531890625 43.7675568359375,70.351421484375 44.0728,73.3784 38.6104,73.3784 38.416153906249995,71.4521462890625 37.85906249999999,69.6579078125 36.977596093749995,68.03415605468749 35.810225,66.6193625 34.39541953125,65.4519986328125 32.771649999999994,64.5705359375 30.977386718749997,64.0134458984375 29.051099999999998,63.819199999999995 29.051099999999998,63.819199999999995 27.124846289062496,64.0134458984375 25.3306078125,64.5705359375 23.7068560546875,65.45199863281249 22.2920625,66.6193625 21.124698632812496,68.03415605468749 20.243235937499996,69.6579078125 19.6861458984375,71.4521462890625 19.491899999999998,73.3784 19.491899999999998,82.9376 91.869,82.9376 91.869,63.8192 85.0409,63.8192 85.0409,58.356700000000004 91.869,58.356700000000004 91.869,50.1631 97.3833,50.1631 97.3833,58.356700000000004 108.2562,58.356700000000004 108.2562,50.1631 113.71860000000001,50.1631 113.71860000000001,58.356700000000004 124.6435,58.356700000000004 124.6435,52.8943 130.1059,52.8943 130.1059,65.1848 130.1059,73.3784 130.30014589843748,75.3046537109375 130.85723593749998,77.0988921875 131.7386986328125,78.72264394531251 132.90606249999996,80.1374375 134.32085605468748,81.3048013671875 135.9446078125,82.1862640625 137.7388462890625,82.7433541015625 139.6651,82.9376 145.83079999999998,82.9376 145.067259375,81.93004707031251 144.38906874999998,80.85882031250001 143.8013,79.7289927734375 143.309025,78.54563750000001 142.917315625,77.3138275390625 142.63124375,76.0386359375 142.45588125,74.72513574218752 142.3963,73.3784 142.3963,73.3784 142.70154726562498,70.351421484375 143.576984375,67.531890625 144.96215429687498,64.980264453125 146.7966,62.757 149.019864453125,60.922554296875006 151.571490625,59.537384375 154.39102148437502,58.661947265625 157.418,58.356700000000004 157.418,58.356700000000004 160.44497421875002,58.661947265625 163.26449374999999,59.537384375 165.81610390625,60.922554296875006 168.03935,62.757 169.87377734375002,64.980264453125 171.25893125000002,67.531890625 172.13435703125,70.351421484375 172.4396,73.3784 172.50760000000002,76.0924 169.77640000000002,76.0924 168.41080000000002,76.0924 153.3891,76.0924 153.3891,70.63 166.57520000000002,70.63 166.01996914062502,69.20636718749999 165.25410312500003,67.90396249999999 164.298716796875,66.7439265625 163.17492500000003,65.7474 161.90384257812502,64.9355234375 160.50658437500002,64.3294375 159.00426523437503,63.95028281249999 157.41800000000003,63.819199999999995 157.41800000000003,63.819199999999995 155.49174628906252,64.0134458984375 153.69750781250002,64.5705359375 152.07375605468752,65.45199863281249 150.65896250000003,66.6193625 149.49159863281253,68.03415605468749 148.61013593750005,69.6579078125 148.05304589843752,71.4521462890625 147.85880000000003,73.3784 147.85880000000003,73.3784 148.05304589843752,75.3046537109375 148.61013593750005,77.0988921875 149.49159863281253,78.72264394531251 150.65896250000003,80.1374375 152.07375605468752,81.3048013671875 153.69750781250002,82.1862640625 155.49174628906252,82.7433541015625 157.41800000000003,82.9376 172.43960000000004,82.9376 172.43960000000004,88.4 162.88040000000004,88.4 157.41800000000003,88.4 139.66510000000002,88.4 136.63812578125004,88.09475703125 133.81860625000002,87.21933125000001 131.26699609375,85.83417734375001 129.04375000000005,83.99975 127.20932265625001,81.77650390625 125.82416875000001,79.22489375 124.94874296875003,76.40537421875 124.64350000000002,73.3784 124.64350000000002,63.819199999999995 113.71860000000002,63.819199999999995 113.71860000000002,88.39999999999999 108.25620000000002,88.39999999999999 108.25620000000002,63.819199999999995 97.38330000000002,63.819199999999995 97.38330000000002,88.334 94.62620000000003,88.334 67.27760000000002,88.394 67.28810000000001,88.4" fill="none" stroke="black" stroke-width="0.1"/>
                <polygon id="_130496056_1" class="fil1" points="79.5785,82.9376 79.5916,88.367 64.5569,88.4 61.529921484374995,88.09475703125 58.710390624999995,87.21933125000001 56.158764453124995,85.83417734375001 53.935500000000005,83.99975 52.101054296875006,81.77650390625 50.715884375,79.22489375 49.840447265625,76.40537421875 49.5352,73.3784 49.5352,73.3784 49.840447265625,70.351421484375 50.715884375,67.531890625 52.101054296875006,64.980264453125 53.935500000000005,62.757 56.158764453125,60.922554296875006 58.710390624999995,59.537384375 61.529921484374995,58.661947265625 64.5569,58.356700000000004 64.5569,58.356700000000004 65.9036357421875,58.41628984375 67.21713593749999,58.591675 68.4923275390625,58.87777890625 69.7241375,59.269525 70.90749277343751,59.761836718750004 72.0373203125,60.3496375 73.10854707031251,61.02785078125 74.1161,61.7914 74.1161,58.356700000000004 79.5785,58.356700000000004 79.5785,73.3784 79.5785,74.744 79.5785,77.4752 74.1161,77.4752 74.1161,74.744 74.1161,73.3784 73.9218541015625,71.4521462890625 73.3647640625,69.6579078125 72.48330136718751,68.03415605468749 71.3159375,66.6193625 69.9011439453125,65.4519986328125 68.2773921875,64.5705359375 66.4831537109375,64.0134458984375 64.5569,63.819199999999995 64.5569,63.819199999999995 62.63061328125,64.0134458984375 60.83635,64.5705359375 59.21258046875,65.45199863281249 57.797775,66.6193625 56.63040390625,68.03415605468749 55.7489375,69.6579078125 55.191846093749994,71.4521462890625 54.9976,73.3784 54.9976,73.3784 55.191846093749994,75.3046537109375 55.7489375,77.0988921875 56.63040390625,78.72264394531251 57.797775,80.1374375 59.21258046875,81.3048013671875 60.83635,82.1862640625 62.63061328125,82.7433541015625 64.5569,82.9376 79.57849999999999,82.9376" fill="none" stroke="black" stroke-width="0.1"/>
                <polygon id="_130495936" points="64.5569,82.9376 91.869,82.9376 91.869,88.4 64.5569,88.4" fill="none" stroke="black" stroke-width="0.1"/>
            </g>
        </g>
    </g>
</svg>
