<?xml version="1.0" encoding="UTF-8"?>
<!DOCTYPE svg PUBLIC "-//W3C//DTD SVG 1.1//EN" "http://www.w3.org/Graphics/SVG/1.1/DTD/svg11.dtd">
<!-- Creator: CorelDRAW -->
<svg xmlns="http://www.w3.org/2000/svg" xml:space="preserve" width="210mm" height="297mm" style="shape-rendering:geometricPrecision; text-rendering:geometricPrecision; image-rendering:optimizeQuality; fill-rule:evenodd; clip-rule:evenodd"
viewBox="0 0 210 297">
 <defs>
  <style type="text/css">
   <![CDATA[
    .str0 {stroke:#1F1A17;stroke-width:0.0762}
    .str1 {stroke:#996633;stroke-width:0.0776}
    .str3 {stroke:#28166F;stroke-width:0.1764}
    .str2 {stroke:#DA251D;stroke-width:0.1764}
    .fil1 {fill:none}
    .fil0 {fill:#AAA9A9}
   ]]>
  </style>
 </defs>
 <g id="Ebene_x0020_1">
  <metadata id="CorelCorpID_0Corel-Layer"/>
  <polygon class="fil1 str3" points="51.3398,49.0624 51.0932,49.4506 50.6501,50.1311 50.1888,50.8117 49.7184,51.4922 49.2343,52.1636 48.741,52.8395 48.2341,53.5109 47.7134,54.1777 47.1836,54.84 46.6447,55.4976 46.092,56.1508 45.5303,56.7993 44.9594,57.4387 44.3793,58.0736 43.7901,58.7039 43.1918,59.325 42.589,59.937 41.9724,60.5444 41.3467,61.1428 40.7164,61.7274 40.0816,62.3074 39.4376,62.8737 38.7845,63.4309 38.1268,63.979 37.46,64.5134 36.7931,65.034 36.1172,65.5456 35.4367,66.0434 34.7516,66.5275 34.0619,66.998 33.3677,67.4501 32.6735,67.8931 31.9701,68.3179 31.6139,68.5371 31.2622,68.77 30.9242,69.0121 30.5908,69.2633 30.2711,69.5282 29.956,69.8022 29.6545,70.09 29.3577,70.3823 29.0745,70.6837 28.8005,70.9989 28.5356,71.3186 28.2844,71.6474 28.0423,71.9854 27.8094,72.3279 27.5856,72.6796 27.3755,73.0358 27.1791,73.4012 26.9918,73.7712 26.8137,74.1502 26.6493,74.5339 26.4986,74.9221 26.357,75.3149 26.2337,75.7122 26.1195,76.1096 26.0145,76.5161 25.9277,76.9271 25.85,77.3382 25.7907,77.7538 25.7404,78.1694 25.7039,78.5896 25.6856,79.0098 25.6765,79.4345 25.6811,79.7405 25.6948,80.0557 25.7176,80.3754 25.745,80.6951 25.7815,81.0102 25.8272,81.3254 25.8774,81.6268 25.9322,81.9191 27.718,90.8709 27.7409,90.9805 27.7591,91.0993 27.7774,91.218 27.7911,91.3413 27.8003,91.4646 27.8094,91.588 27.814,91.7067 27.8185,91.8255 27.814,92.0036 27.8048,92.1817 27.7865,92.3553 27.7683,92.5288 27.7363,92.7024 27.7043,92.8759 27.6632,93.0449 27.6176,93.2093 27.5628,93.3783 27.5079,93.5427 27.444,93.7026 27.3755,93.8624 27.3024,94.0223 27.2202,94.173 27.138,94.3237 27.0467,94.4745 26.9553,94.6206 26.8548,94.7622 26.7498,94.8992 26.6402,95.0362 26.5306,95.1641 26.4118,95.292 26.2885,95.4153 26.1606,95.5341 26.0327,95.6482 25.8957,95.7578 25.7587,95.8675 25.6125,95.9679 25.4664,96.0593 25.3157,96.1506 25.165,96.2374 24.9046,96.3744 24.6534,96.516 24.4022,96.6667 24.1602,96.8266 23.9272,96.9956 23.6989,97.1691 23.4796,97.3518 23.265,97.5436 23.0595,97.74 22.8585,97.9456 22.6667,98.1556 22.484,98.3749 22.3059,98.5987 22.1414,98.8316 21.9816,99.0645 21.8309,99.3066 21.6893,99.5532 21.5523,99.8044 21.429,100.06 21.3148,100.321 21.2052,100.59 21.1092,100.855 21.0225,101.129 20.9448,101.408 20.8763,101.686 20.8169,101.969 20.7713,102.257 20.7347,102.545 20.7073,102.837 20.6891,103.129 20.6845,103.422 20.6891,103.641 20.6982,103.86 20.7165,104.079 20.7393,104.299 20.7667,104.518 20.8032,104.737 20.8443,104.952 20.8946,105.166 20.9448,105.381 21.0088,105.596 21.0727,105.806 21.1458,106.016 21.2189,106.226 21.3056,106.432 21.3924,106.632 21.4838,106.833 21.5842,107.034 21.6847,107.231 21.7943,107.423 21.9085,107.614 22.0273,107.802 22.1506,107.984 22.2785,108.167 22.4109,108.345 22.5479,108.519 22.6895,108.688 22.8311,108.852 22.9818,109.012 23.1371,109.172 23.2924,109.322 23.4568,109.469 23.6212,109.615 21.091,112.707 21.3102,112.775 21.534,112.835 21.7578,112.89 21.9862,112.944 22.2145,112.995 22.4474,113.036 22.6804,113.077 22.9133,113.113 23.1462,113.145 23.3837,113.173 23.6212,113.2 23.8587,113.218 24.0962,113.232 24.3337,113.246 24.5712,113.25 24.8133,113.255 25.1695,113.25 25.5258,113.232 25.8774,113.209 26.2337,113.173 26.5854,113.127 26.9325,113.077 27.2842,113.013 27.6313,112.94 27.9738,112.858 28.3163,112.766 28.6543,112.666 28.9877,112.556 29.3211,112.437 29.65,112.31 29.9788,112.173 30.2985,112.031 30.6182,111.876 30.9288,111.716 31.2394,111.547 31.5454,111.369 31.8468,111.181 32.1391,110.99 32.4269,110.789 32.7146,110.578 32.9886,110.359 33.2627,110.136 33.5276,109.903 33.7879,109.665 34.0437,109.418 34.2903,109.163 34.5278,108.902 34.7607,108.633 34.9114,108.446 35.0211,108.309 35.1215,108.167 35.222,108.03 35.3225,107.884 35.4184,107.738 35.5097,107.592 35.5965,107.441 35.6833,107.29 35.7609,107.135 35.8432,106.98 35.9162,106.824 35.9893,106.664 36.0578,106.5 36.1218,106.34 36.1857,106.176 36.2451,106.011 36.2999,105.842 36.3501,105.673 36.3958,105.504 36.4415,105.335 36.4826,105.166 36.5191,104.993 36.5511,104.819 36.5785,104.646 36.6059,104.472 36.6287,104.299 36.647,104.125 36.6607,103.952 36.6698,103.773 36.6744,103.6 36.679,103.422 36.5465,94.4151 33.3814,78.7403 33.4454,78.5028 33.5093,78.2745 33.5824,78.0461 33.6646,77.8269 33.7559,77.6122 33.8564,77.4021 33.966,77.1966 34.0848,76.9956 34.2127,76.7992 34.3451,76.612 34.4867,76.4293 34.6374,76.2512 34.7927,76.0822 34.9571,75.9178 35.1261,75.7625 35.2997,75.6118 35.4823,75.4702 35.6696,75.3377 35.866,75.2098 36.0624,75.0911 36.2679,74.9815 36.478,74.881 36.6881,74.7897 36.9073,74.7029 37.1265,74.6298 37.3503,74.5613 37.5787,74.5065 37.8116,74.4608 38.0446,74.4243 38.2821,74.3969 38.5196,74.3832 38.7571,74.374 38.9306,74.3786 39.0996,74.3877 39.2686,74.4014 39.4376,74.4197 39.6066,74.4426 39.771,74.47 39.9354,74.5065 40.0998,74.543 40.2597,74.5887 40.4195,74.6344 40.5794,74.6892 40.7347,74.7486 40.89,74.8125 41.0407,74.8764 41.1914,74.9495 41.3421,75.0272 41.4883,75.1048 41.6298,75.1916 41.7714,75.2829 41.9084,75.3743 42.0455,75.4702 42.1779,75.5752 42.3058,75.6803 42.4291,75.7899 42.5524,75.9041 42.6712,76.0228 42.7899,76.1416 42.8995,76.2649 43.0092,76.3973 43.1142,76.5298 43.2147,76.6622 43.2786,76.7536 44.8909,84.7873 45.0735,84.9472 45.2654,85.1116 45.4572,85.2715 45.6536,85.4268 45.85,85.582 46.0509,85.7373 46.2519,85.888 46.4528,86.0388 46.6629,86.1895 46.8685,86.3356 47.0786,86.4818 47.2932,86.6234 47.5079,86.765 47.7225,86.902 47.9418,87.0344 48.161,87.1714 48.3848,87.2993 48.6086,87.4272 48.8324,87.5551 49.0562,87.6738 49.2845,87.7926 49.5129,87.9113 49.7413,88.0255 49.9742,88.1351 50.2071,88.2402 50.4355,88.3452 50.673,88.4457 50.9059,88.5462 51.1434,88.6375 51.3763,88.7289 51.6138,88.8156 51.8308,88.8933 52.1756,89.0029 52.5501,89.1171 52.9383,89.2313 53.3357,89.3363 53.7285,89.4368 54.1167,89.5236 54.3085,89.5647 54.4958,89.6012 54.6784,89.6377 54.8566,89.6697 69.8325,92.1086 69.9102,91.6154 77.0031,92.7754 78.935,80.9372 71.8421,79.7771 71.9243,79.2884 67.2657,78.5257 60.1774,77.3655 59.8303,77.2971 59.5243,77.224 59.2274,77.1372 58.9305,77.0367 58.6474,76.9226 58.3642,76.7992 58.0947,76.6622 57.8253,76.5161 57.5695,76.3608 57.3183,76.1918 57.0762,76.0091 56.8387,75.8219 56.615,75.6209 56.3957,75.4154 56.1902,75.1961 55.9892,74.9724 55.802,74.7349 55.6239,74.4928 55.4549,74.2462 55.2996,73.9904 55.1534,73.7255 55.0164,73.456 54.8931,73.1774 54.7835,72.8988 54.683,72.6111 54.5917,72.3142 54.5186,72.0173 54.4592,71.7159 54.409,71.4099 54.3724,71.0993 54.3542,70.7888 54.345,70.4736 54.3496,70.2635 54.3633,70.0489 54.3861,69.8342 54.4135,69.615 54.4455,69.3958 54.4821,69.1857 54.5232,68.9756 54.5643,68.7792 54.683,68.2676 54.8109,67.7561 54.9433,67.2492 55.0849,66.7422 55.2311,66.2352 55.3864,65.7328 55.5462,65.2304 55.7152,64.7326 55.8888,64.2302 56.0715,63.7369 56.2587,63.2391 56.4505,62.7504 56.6515,62.2617 56.857,61.773 57.0671,61.2889 57.2863,60.8093 57.5101,60.3298 57.7385,59.8548 57.9714,59.3844 58.2135,58.9185 58.4555,58.4527 58.7067,57.9914 58.9625,57.5392 59.2228,57.087 59.4832,56.6349 59.7526,56.1919 60.0267,55.7534 60.3053,55.3195 60.5884,54.8902 60.8762,54.4655 61.1639,54.0453 61.4608,53.6296 61.9312,52.8852 61.511,52.6157 65.3064,46.6007 56.8524,41.2661 53.0571,47.2812 52.6323,47.0163 "/>
  <polyline class="fil1 str1" points="25.2061,96.2191 25.439,96.1141 25.6674,95.9953 25.8911,95.872 26.1058,95.7396 26.3205,95.598 26.526,95.4518 26.7224,95.2966 26.9188,95.1367 27.1015,94.9723 27.2842,94.7987 27.4577,94.616 27.6267,94.4333 27.7865,94.2415 27.9418,94.0451 28.088,93.8442 28.225,93.6386 28.3575,93.4286 28.4853,93.2093 28.5995,92.9901 28.7091,92.7663 28.8096,92.5379 28.9055,92.305 28.9877,92.0721 29.0654,91.83 29.1339,91.588 29.1933,91.3459 29.2435,91.0993 29.2846,90.8481 29.3166,90.5969 29.344,90.3411 29.3577,90.0853 29.3622,89.825 29.3577,89.6606 29.3531,89.4916 29.3394,89.318 29.3211,89.1445 29.3029,88.9755 29.28,88.8065 29.2526,88.6421 29.2252,88.4868 27.8414,81.5446 27.7957,81.298 27.7546,81.0422 27.718,80.7773 27.6861,80.5078 27.6587,80.2338 27.6404,79.9643 27.6313,79.6949 27.6267,79.4345 27.6404,78.8636 27.6815,78.3064 27.7546,77.7538 27.8505,77.2103 27.9738,76.6759 28.1245,76.1553 28.2981,75.6437 28.4945,75.1413 28.7183,74.6526 28.9603,74.1777 29.2298,73.7118 29.5175,73.2642 29.8235,72.8303 30.1524,72.4147 30.4995,72.0128 30.8649,71.6291 31.2485,71.2638 31.6504,70.9166 32.0706,70.5878 32.4999,70.2772 32.9521,69.9895 33.4134,69.7246 33.8884,69.478 34.3771,69.2587 34.8795,69.0623 35.391,68.8842 35.9162,68.7381 36.4506,68.6148 36.9895,68.5143 37.5422,68.4458 38.1039,68.4047 38.6703,68.3864 39.1635,68.4001 39.6477,68.4321 40.1318,68.4869 40.6068,68.5599 41.0772,68.6559 41.5385,68.7746 41.9952,68.9071 42.4428,69.0623 42.8813,69.2359 43.3152,69.4232 43.7353,69.6332 44.1464,69.8616 44.5483,70.1037 44.9411,70.364 45.3202,70.638 45.6856,70.9303 46.0418,71.2318 46.3843,71.5561 46.7086,71.8895 47.0238,72.2366 47.3252,72.5974 47.6084,72.9719 47.8778,73.3601 48.129,73.7575 48.362,74.1685 48.5812,74.5887 48.7821,75.018 48.9648,75.461 49.1292,75.9132 49.2708,76.3745 49.3941,76.8404 49.4969,77.2834 51.8605,88.939 "/>
  <line class="fil1 str2" x1="61.511" y1="52.6157" x2="51.3398" y2= "49.0624" />
  <line class="fil1 str1" x1="69.9102" y1="91.6154" x2="67.2657" y2= "78.5257" />
  <_line class="fil1 str1" x1="50.0655" y1="79.4345" x2="27.275" y2= "79.4345" />
  <_line class="fil1 str1" x1="38.6703" y1="90.8252" x2="38.6703" y2= "68.0393" />
  <_line class="fil1 str1" x1="39.5243" y1="103.422" x2="17.8345" y2= "103.422" />
  <_line class="fil1 str1" x1="28.6817" y1="114.269" x2="28.6817" y2= "92.5791" />
  <circle id="rear_axle" class="fil0 str0" cx="38.6754" cy="79.4293" r="5.0"/>
  <circle id="center_00" class="fil0 str0" cx="38.6754" cy="79.4293" r="5.0"/>
  <circle class="fil1 str0" cx="28.6817" cy="103.423" r="4.500"/>
 </g>
</svg>
