<?xml version="1.0" encoding="UTF-8"?>
<!DOCTYPE svg PUBLIC "-//W3C//DTD SVG 1.1//EN" "http://www.w3.org/Graphics/SVG/1.1/DTD/svg11.dtd">
<!-- Creator: CorelDRAW -->
<svg xmlns="http://www.w3.org/2000/svg" xml:space="preserve" width="210mm" height="297mm" style="shape-rendering:geometricPrecision; text-rendering:geometricPrecision; image-rendering:optimizeQuality; fill-rule:evenodd; clip-rule:evenodd"
viewBox="0 0 210 297">
 <defs>
  <style type="text/css">
   <![CDATA[
    .str0 {stroke:#DA251D;stroke-width:0.0762}
    .str1 {stroke:#DA2725;stroke-width:0.0762}
    .fil3 {fill:none}
    .fil8 {fill:#383431}
    .fil1 {fill:#4D4948}
    .fil0 {fill:#72706F}
    .fil6 {fill:#969594}
    .fil2 {fill:#AAA9A9}
    .fil4 {fill:#C2C1C1}
    .fil5 {fill:#DEDEDD}
    .fil7 {fill:white}
   ]]>
  </style>
 </defs>
 <g id="Ebene_x0020_1">
  <metadata id="CorelCorpID_0Corel-Layer"/>
  <polygon class="fil0 str0" points="96.5256,190.102 103.748,190.102 103.748,207.564 96.5256,207.564 96.5256,192.945 103.748,192.945 96.5256,192.945 "/>
  <polygon class="fil1 str0" points="103.748,191.025 114.298,191.025 114.298,203.026 103.748,203.026 "/>
  <polygon class="fil2 str1" points="91.0472,236.977 98.7618,236.412 105.88,236.357 111.465,236.33 108.519,242.387 104.379,238.582 90.4591,238.506 104.379,238.582 109.778,243.544 112.883,236.41 117.881,236.482 119.023,239.366 137.143,240.411 139.309,241.31 137.143,240.411 119.023,239.366 118.569,236.491 128.36,236.931 139.751,238.023 141.459,238.768 142.103,240.361 141.993,240.981 141.028,246.436 140.06,247.571 138.597,247.911 131.957,247.475 130.18,248.104 129.12,249.244 127.976,251.01 125.896,250.336 120.493,250.49 125.896,250.336 127.976,251.01 127.195,252.65 126.042,255.726 124.195,256.907 119.333,257.114 117.723,256.536 116.362,255.639 107.338,248.177 105.229,247.368 102.765,247.045 92.9333,246.606 91.1611,245.991 90.1325,244.34 89.1965,239.745 89.4978,238.086 "/>
  <polyline class="fil3 str0" points="108.554,69.0587 109.818,99.7567 110.142,132.559 110.144,139.424 113.717,139.534 113.709,132.896 113.337,99.5579 112.289,72.113 "/>
  <polygon class="fil4 str0" points="115.566,157.989 115.583,154.744 105.586,154.744 118.086,154.744 118.082,150.386 114.113,148.69 109.426,148.728 114.113,148.69 116.767,144.843 107.322,144.837 116.767,144.843 115.182,138.119 108.48,138.114 106.909,144.804 109.426,148.728 105.586,150.386 105.586,154.744 108.293,154.744 108.242,158.012 "/>
  <polygon class="fil4 str0" points="102.1,214.826 98.8645,197.106 99.2947,196.357 100.264,196.208 100.828,196.729 103.99,214.437 "/>
  <polygon class="fil4 str0" points="97.6811,193.956 98.3868,194.494 101.117,209.444 100.91,210.384 99.7549,210.617 99.1833,209.816 96.4912,194.933 96.8541,194.189 "/>
  <polygon class="fil2 str0" points="105.007,202.775 104.926,176.748 106.521,158.066 106.521,158.066 106.632,156.614 117.031,156.614 117.086,158.912 115.658,164.834 107.817,164.8 106.699,159.586 107.817,164.8 115.658,164.834 117.086,158.912 116.211,162.41 115.658,164.834 114.697,164.83 113.227,167.469 112.26,182.34 112.383,190.273 113.024,199.322 113.024,199.322 113.694,215.806 114.238,222.862 114.724,225.614 115.656,227.591 120.52,230.904 121.56,232.272 125.215,246.639 124.902,249.521 122.762,253.947 120.07,255.228 114.213,255.308 111.676,254.326 110.493,252.294 104.314,226.892 102.959,224.688 99.0623,222.324 97.8784,219.403 98.2577,216.418 101.825,211.941 104.743,206.295 "/>
  <circle class="fil0 str0" cx="103.318" cy="218.36" r="1.6194"/>
  <polygon class="fil5 str0" points="114.076,233.684 111.523,234.452 110.585,236.423 110.64,236.837 116.798,236.906 110.64,236.837 114.247,250.271 116.088,251.327 119.224,250.277 119.834,248.438 116.242,234.792 "/>
  <polygon class="fil0 str0" points="118.776,150.795 105.078,150.795 103.861,151.704 103.877,153.102 105.014,153.93 118.822,153.93 120.071,152.838 120.061,151.695 "/>
  <polygon class="fil3 str0" points="84.9555,190.971 87.6281,190.971 87.6281,202.998 84.9555,202.998 "/>
  <polygon class="fil6 str0" points="125.213,201.995 123.807,199.933 123.736,207.752 125.225,205.705 "/>
  <polygon class="fil7 str0" points="116.333,190.611 121.201,191 122.285,193.181 124.075,198.194 124.284,199.99 123.793,201.436 122.847,200.634 120.677,200.052 122.847,200.634 123.793,201.436 123.793,201.436 124.374,202.421 124.374,202.853 123.859,203.978 123.756,205.532 123.9,206.633 124.48,206.728 122.94,211.225 121.832,216.338 120.252,216.206 120.236,209.057 120.864,206.762 122.268,207.776 122.674,209.451 122.268,207.776 120.864,206.762 121.486,204.487 123.224,203.226 121.486,204.487 120.236,209.057 120.312,208.139 120.935,194.334 121.259,192.79 122.808,196.413 121.434,196.193 122.808,196.413 121.259,192.79 120.935,194.334 120.935,194.334 120.935,194.334 120.312,208.139 114.607,208.509 114.607,207.583 115.061,200.513 115.726,200.06 "/>
  <polyline class="fil3 str0" points="111.251,183.496 111.33,201.636 112.342,218.503 "/>
  <polyline class="fil3 str0" points="111.831,194.2 112.54,200.092 112.537,203 112.084,211.805 "/>
  <polygon class="fil0 str0" points="106.848,209.285 114.607,209.285 114.607,215.249 106.848,215.249 105.983,213.072 105.949,211.385 "/>
  <circle class="fil2 str0" cx="110.278" cy="212.267" r="2.5803"/>
  <polygon class="fil6 str0" points="121.81,210.563 120.88,208.558 120.904,216.32 121.821,214.273 "/>
  <polygon class="fil4 str0" points="114.607,207.583 120.466,207.77 120.962,208.32 120.962,216.749 120,217 114.607,217.31 "/>
  <polygon class="fil6 str0" points="115.193,194.548 114.263,191.863 114.288,202.257 115.205,199.516 "/>
  <polygon class="fil8 str0" points="87.6281,190.971 96.5256,190.971 96.5256,203.004 87.6281,203.004 87.6281,192.299 96.5256,192.299 87.6281,192.299 "/>
  <polygon class="fil6 str0" points="115.193,194.548 114.263,191.863 114.288,202.257 115.205,199.516 "/>
  <circle class="fil2 str0" cx="115" cy="242" r="6.5"/>
  <circle class="fil2 str0" cx="115" cy="242" r="4"/>
  <circle class="fil7 str0" cx="115.022" cy="242" r="1.49996"/>
  <circle class="fil3 str0" cx="85" cy="197" r="14.9999"  id="center_00"/>
 </g>
</svg>
