<?xml version="1.0" encoding="UTF-8"?>
<!DOCTYPE svg PUBLIC "-//W3C//DTD SVG 1.1//EN" "http://www.w3.org/Graphics/SVG/1.1/DTD/svg11.dtd">
<svg width="210mm" height="297mm" viewBox="0 0 210 297">
    <defs id="_tag_8341_">
        <style type="text/css">
                   
                    .str0 {stroke:#1F1A17;stroke-width:0.0762}
                    .str1 {stroke:black;stroke-width:0.1}
                    .fil1 {fill:none}
                    .fil2 {fill:#727577}
                    .fil0 {fill:#7F7E7C}
                   
                  </style>
    </defs>
    <g id="Ebene_x0020_1">
        <g id="_tag_25_">
            <polygon points="63.9282,279.4 64.6918,279.138 65.1771,278.961 65.6742,278.766 66.1249,278.569 66.7122,278.089 66.6175,277.232 66.5783,276.459 66.6523,275.972 66.8327,275.456 67.1531,274.939 67.6443,274.45 68.1803,274.05 68.6775,273.722 69.1477,273.469 69.6046,273.295 70.0627,273.205 70.5341,273.198 71.0332,273.281 71.5729,273.456 72.1094,273.013 72.347,272.621 72.6221,272.161 72.9005,271.687 73.1506,271.251 73.4284,270.572 73.0726,269.942 72.6052,269.33 72.3773,268.906 72.2062,268.42 72.1299,267.881 72.1865,267.302 72.3284,266.741 72.491,266.239 72.6919,265.786 72.9464,265.368 73.2709,264.974 73.683,264.592 74.1992,264.212 74.835,263.82 75.2335,263.378 75.2175,262.882 75.2357,262.061 75.2418,261.621 75.2406,261.211 75.1044,260.495 74.5531,260.079 74.098,259.973 73.502,259.727 73.1566,259.504 72.8035,259.19 72.4614,258.77 72.1493,258.227 71.8852,257.662 71.6827,257.126 71.5476,256.612 71.4849,256.115 71.5011,255.622 71.6015,255.129 71.7909,254.626 72.0763,254.107 72.2181,253.447 71.9778,252.94 71.5557,252.237 71.3053,251.859 71.0498,251.504 70.5853,250.994 69.7333,250.979 69.1421,251.051 68.4396,251.046 67.699,250.891 66.1944,250.157 66.807,249.232 61.8951,246.278 59.4394,246.838 58.6899,246.89 57.9849,246.83 57.4768,246.605 57.1152,246.395 56.7278,246.108 56.35,245.741 56.0163,245.286 55.7616,244.736 55.1499,244.359 54.6263,244.413 53.8172,244.539 53.3952,244.616 52.6937,244.768 52.1283,245.364 52.0787,246.004 51.9427,246.756 51.6893,247.215 51.1737,247.784 50.7884,248.083 50.3263,248.366 49.8804,248.575 49.4645,248.721 48.7793,248.868 48.0601,248.89 47.4873,248.823 46.9014,248.674 46.3459,248.437 45.7358,248.224 44.8911,248.576 44.5879,248.841 44.2514,249.141 43.9178,249.45 43.6229,249.737 43.2398,250.235 43.4881,251.225 43.6171,252.258 43.5158,253.188 43.0514,254.001 38.7062,260.725 38.6338,266.842 42.0811,275.604 49.8515,282.172 59.1353,282.002 62.2324,279.258" fill="none" stroke="black" stroke-width="0.1" id="_128939664"/>
            <circle cx="56.5849" cy="262.625" r="13.5" fill="none" stroke="black" stroke-width="0.1" id="_154592512"/>
            <polygon points="88.7395,199.103 89.1081,199.337 89.5147,199.719 89.725,200.08 89.8045,200.672 89.7242,201.453 89.6513,201.869 89.5583,202.296 89.4433,202.729 89.306,203.164 89.1485,203.596 88.7901,204.517 88.0525,206.243 87.0192,208.586 85.7788,211.361 84.4139,214.384 83.0101,217.468 81.6553,220.429 80.433,223.082 79.4208,225.222 78.5554,226.891 77.7931,228.182 77.0903,229.189 76.4043,230.008 75.6915,230.731 74.9093,231.453 74.0144,232.267 72.5259,233.58 70.2035,235.562 67.3662,237.952 64.3315,240.491 61.4175,242.918 58.9425,244.974 58.2009,245.589 57.2243,246.399 56.0986,247.338 54.9114,248.198 53.6595,248.974 52.3411,249.664 50.9529,250.263 49.4925,250.766 47.9573,251.171 46.3448,251.474 45.7208,251.561 45.0852,251.632 44.4383,251.689 43.7797,251.73 43.1091,251.754 42.4268,251.763 41.7325,251.756 41.026,251.733 40.2387,251.654 39.7656,251.586 38.8315,251.411 37.6879,251.188 36.4386,250.941 35.1857,250.689 34.0322,250.455 33.0809,250.261 32.4347,250.129 31.8216,250.006 31.426,249.93 30.9567,249.843 30.4625,249.754 29.9919,249.675 29.5938,249.616 29.0803,249.595 28.5488,249.761 28.1395,250.093 27.6762,250.566 27.2694,251.065 26.9042,251.611 26.7062,252.084 26.4958,252.958 26.3149,253.677 26.1105,254.482 25.9021,255.294 25.7098,256.035 25.5536,256.627 25.4218,257.19 25.5967,257.731 25.8446,258.05 26.1862,258.307 27.0256,258.924 28.2212,259.805 29.607,260.829 31.0171,261.874 32.285,262.822 33.2449,263.55 33.7311,263.94 34.12,264.353 34.4744,264.93 34.7407,265.576 34.8649,266.194 34.9112,266.78 35.1039,267.945 35.4933,269.571 36.1304,271.541 37.0668,273.737 38.3528,276.041 40.0395,278.335 42.1777,280.5 44.5644,282.359 47.0234,283.826 49.4769,284.931 51.8456,285.7 54.051,286.158 56.0141,286.333 57.6567,286.251 58.8994,285.939 59.8666,285.496 60.7372,284.949 61.5096,284.296 62.1832,283.537 62.7572,282.67 63.2308,281.696 63.6029,280.612 63.9131,279.147 63.9666,277.947 63.7533,259.618 63.6327,257.311 64.4398,255.075 65.4024,253.395 66.6073,251.991 67.6991,250.891 68.3966,250.355 70.291,248.895 73.0841,246.728 76.4792,244.075 80.1765,241.154 83.8793,238.187 87.2891,235.389 90.1096,232.982 92.3563,230.914 94.2994,228.938 96.0203,226.985 97.5992,224.982 99.1196,222.86 100.66,220.546 102.305,217.97 104.132,215.059 105.918,212.23 106.285,212.4 106.74,212.629 107.142,212.867 107.504,213.192 107.801,213.483 108.27,213.581 108.684,213.661 109.102,213.668 109.738,213.123 110.243,212.332 110.892,211.267 111.604,210.062 112.302,208.849 112.909,207.762 113.345,206.932 113.531,206.494 113.624,205.922 113.494,205.486 113.138,205.292 112.676,205.2 112.275,204.748 111.886,204.163 111.522,203.609 111.499,203.144 111.878,202.539 112.453,201.622 113.177,200.467 114.005,199.147 114.888,197.738 115.783,196.313 116.638,194.946 117.39,193.262 117.948,190.989 118.234,188.275 118.167,185.262 117.671,182.098 116.665,178.926 115.072,175.894 112.812,173.145 110.159,170.842 107.455,169.028 104.712,167.677 101.949,166.758 99.1824,166.242 96.4261,166.101 93.6987,166.307 91.0143,166.829 79.4271,174.123 78.87,191.736" fill="none" stroke="black" stroke-width="0.1" id="_tag_1_5_"/>
            <polygon points="106.509,177.654 102.827,179.359 95.6299,174.501 96.7826,169.943 97.8426,169.998 98.2803,170.063 98.7183,170.128 100.463,170.53 102.096,171.146 103.804,172.085 105.483,173.417 107.027,175.212 107.224,175.782 107.274,176.543 107.166,176.948 106.924,177.329" fill="none" stroke="black" stroke-width="0.1" id="_tag_1_2_"/>
            <polygon points="92.007,197.103 90.8484,187.561 95.1887,195.476 95.1966,196.014 95.1125,196.431 95.0045,196.859 94.8525,197.349 94.6532,197.84 94.4069,198.269 94.111,198.572 93.1869,198.664 92.7511,198.499 92.4385,198.234 92.099,197.594" fill="none" stroke="black" stroke-width="0.1" id="_tag_1_3_"/>
            <polygon points="99.7722,194.719 99.5574,188.495 102.991,184.492 105.449,183.905 106.92,182.337 107.233,182.069 107.604,181.846 108.211,181.606 108.626,181.544 109.059,181.544 109.495,181.614 109.917,181.767 110.307,182.012 110.647,182.363 110.924,182.827 111.119,183.417 111.241,184.416 111.287,186.047 111.134,188.139 110.659,190.525 109.737,193.035 108.248,195.501 106.066,197.752 103.067,199.622 102.549,199.674 101.858,199.555 101.491,199.375 101.146,199.079 100.85,198.645 100.583,198.061 100.355,197.419 100.168,196.76 100.016,196.126 99.9015,195.561 99.8216,195.105" fill="none" stroke="black" stroke-width="0.1" id="_tag_1_4_"/>
            <polygon points="56.9966,270.277 57.2763,270.673 57.4295,271.264 57.7094,277.348 57.6294,278.053 57.249,278.696 56.702,279.284 55.9848,279.646 55.2292,279.818 54.7385,279.774 53.1314,279.44 51.4053,278.88 49.6173,278.075 47.8253,277.006 46.086,275.652 44.5278,274.073 43.2988,272.402 42.3617,270.723 41.6792,269.123 41.2149,267.687 40.9312,266.502 40.7907,265.653 40.757,265.226 40.8751,264.453 41.4814,264.082 42.0951,264.102 49.246,265.425 49.6772,265.594 50.1408,265.968 50.8563,267.023 51.4149,267.686 52.0354,268.27 52.7154,268.77 53.4532,269.181 54.2466,269.498 55.0939,269.719 55.9931,269.837 56.661,270.024" fill="none" stroke="black" stroke-width="0.1" id="_tag_1_6_"/>
            <polygon points="94.0292,204.251 93.3964,204.565 92.8448,205.143 92.5866,205.526 92.3368,205.964 92.088,206.46 91.8374,207.008 91.2552,208.313 90.1851,210.814 88.7942,214.11 87.2476,217.801 85.7124,221.484 84.3529,224.757 83.3366,227.223 82.8296,228.478 82.6702,228.951 82.5829,229.352 82.601,229.974 82.8303,230.437 83.2259,230.836 83.7101,231.139 84.2937,231.269 85.0481,231.083 85.511,230.826 86.043,230.437 86.6862,229.918 87.4968,229.251 88.4177,228.474 89.3863,227.625 90.3439,226.746 91.2306,225.872 91.9886,225.044 92.5565,224.3 93.2813,223.072 94.494,220.917 96.026,218.148 97.7076,215.076 99.3734,212.015 100.851,209.278 101.974,207.177 102.574,206.026 102.828,205.487 102.975,205.017 103.034,204.609 102.95,203.965 102.702,203.519 102.411,203.222 101.943,202.999 101.272,202.891 100.434,202.956 99.9638,203.07 99.3922,203.244 98.6749,203.418 97.861,203.586 96.9978,203.746 96.136,203.896 95.3202,204.032 94.6025,204.152" fill="none" stroke="black" stroke-width="0.1" id="_130405648"/>
            <polyline points="27.7674,257.401 29.182,257.6229 30.740099999999998,257.856 32.6776,258.1314 34.8548,258.41949999999997 37.131,258.6909 39.365700000000004,258.9163 41.418800000000005,259.0661 43.3254,259.0981 45.2701,258.9237 47.2493,258.5296 49.259299999999996,257.90200000000004 51.2962,257.02790000000005 53.3567,255.89370000000005 55.4368,254.48610000000005 57.533,252.79150000000004 59.6838,250.93520000000004 61.9389,249.02180000000004 64.2243,247.09580000000005 66.4663,245.20130000000006 68.59100000000001,243.38220000000007 70.52430000000001,241.68340000000006 72.1928,240.14870000000008 73.52220000000001,238.82230000000007 74.58210000000001,237.64760000000007 75.51710000000001,236.49490000000006 76.36630000000001,235.30010000000007 77.168,233.99850000000006 77.9615,232.52520000000007 78.7859,230.81640000000007 79.6798,228.80680000000007 80.6821,226.43240000000006 81.88940000000001,223.61810000000006 83.25850000000001,220.40610000000007 84.70490000000001,216.99350000000007 86.14420000000001,213.57740000000007 87.49180000000001,210.35480000000007 88.66300000000001,207.52260000000007 89.57400000000001,205.27810000000008 90.13950000000001,203.81760000000008 90.42390000000002,202.81080000000009 90.56840000000001,201.8203000000001 90.6042,200.8823000000001 90.563,200.0332000000001 90.4761,199.3094000000001 90.3751,198.7472000000001 90.2566,198.2539000000001" fill="none" stroke="black" stroke-width="0.1" id="_131543200_1_1_1"/>
            <polyline points="89.4319,212.434 89.9137,211.7437 90.2915,211.333 90.7802,210.9109 91.3805,210.5246 92.0938,210.2217 92.9218,210.04919999999998 93.7389,209.97549999999998 94.4309,209.93259999999998 95.01599999999999,209.91549999999998 95.5119,209.91849999999997 95.9363,209.93649999999997 96.64240000000001,209.99439999999996 97.31,210.08149999999995 97.703,210.25579999999994 98.0948,210.54279999999994 98.44200000000001,210.93789999999996 98.7005,211.43719999999996 98.8266,212.03669999999997 98.7767,212.73189999999997 98.50670000000001,213.51879999999997" fill="none" stroke="black" stroke-width="0.1" id="_157887240_1_1_1"/>
            <polyline points="84.03,225.498 83.8252,226.13809999999998 83.7892,226.55649999999997 83.8463,227.02819999999997 84.0429,227.52299999999997 84.425,228.01119999999997 85.0389,228.46359999999999 85.8147,228.7481 86.6306,228.7412 87.4574,228.5092 88.26620000000001,228.1186 89.02790000000002,227.63539999999998 89.71370000000002,227.12589999999997 90.29410000000001,226.65649999999997 90.74040000000001,226.29329999999996" fill="none" stroke="black" stroke-width="0.1" id="_153836928_1_1_1"/>
            <polyline points="94.5618,204.247 95.0699,204.6913 95.8204,204.9137 96.3533,204.9281 97.0043,204.8408 97.6742,204.6939 98.31,204.54930000000002 98.9067,204.40820000000002 99.4583,204.27300000000002 99.9601,204.14520000000002 100.4065,204.02660000000003 100.7922,203.91900000000004 101.34209999999999,203.76550000000003 101.76859999999999,203.56340000000003 102.02329999999999,203.13330000000002" fill="none" stroke="black" stroke-width="0.1" id="_131493216_1_1_1"/>
            <polyline points="57.9658,246.822 58.751400000000004,246.17000000000002 59.4953,245.5526 61.9072,243.5458 64.7454,241.17430000000002 67.7012,238.69230000000002 70.4643,236.35090000000002 72.7237,234.40330000000003 74.17129999999999,233.10360000000003 75.0418,232.31190000000004 75.806,231.60000000000002 76.5076,230.8787 77.19,230.0557 77.8971,229.0394 78.6703,227.7384 79.5531,226.0625 80.5902,223.9192 81.7873,221.28869999999998 83.1249,218.3396 84.51769999999999,215.2593 85.87819999999999,212.2369 87.12299999999999,209.4622 88.1668,207.123 88.9229,205.4091 89.3062,204.5094 89.48270000000001,204.0359 89.62010000000001,203.53979999999999 89.72390000000001,203.03449999999998 89.79830000000001,202.5349 89.84710000000001,202.05249999999998 89.87670000000001,201.60129999999998 89.89050000000002,201.19559999999998" fill="none" stroke="black" stroke-width="0.1" id="_153836904_1_1_1"/>
            <line x1="111.4" y1="203.385" x2="105.947" y2="212.248" fill="none" stroke="black" stroke-width="0.1" id="_131845312"/>
            <polyline points="107.518,212.994 107.497,212.3865 107.6511,211.8248 108.1037,211.0102 108.5873,210.3686 109.1969,209.61939999999998 109.8724,208.82539999999997 110.5546,208.04939999999996 111.18339999999999,207.35449999999997 111.69959999999999,206.80359999999996 112.0435,206.45969999999997 112.53819999999999,206.07879999999997 112.93579999999999,205.80839999999998 113.29669999999999,205.59399999999997" fill="none" stroke="black" stroke-width="0.1" id="_155017384_1_1_1"/>
            <polyline points="89.8148,201.847 89.77080000000001,202.5791 89.6573,203.34900000000002 89.45570000000001,204.1277 88.89980000000001,205.58700000000002 87.84440000000001,208.1682 86.45270000000001,211.49630000000002 84.88730000000001,215.19620000000003 83.3114,218.89240000000004 81.8874,222.20990000000003 80.7783,224.77360000000004 80.1472,226.20850000000004 79.782,226.97860000000006 79.35379999999999,227.79730000000006 78.84889999999999,228.66250000000005 78.25399999999999,229.57320000000004 77.55579999999999,230.52720000000005 76.74109999999999,231.52310000000006 75.7961,232.55940000000007 74.70769999999999,233.63380000000006 73.08409999999999,235.06280000000007 70.7837,237.06300000000007 68.082,239.39960000000008 65.2541,241.83800000000008 62.57529999999999,244.14350000000007 60.321099999999994,246.08090000000007 58.76649999999999,247.41560000000007 58.18729999999999,247.91260000000008 55.964499999999994,249.5686000000001 53.7621,250.97420000000008 51.555699999999995,252.1218000000001 49.321,253.0040000000001 47.034,253.6130000000001 44.6704,253.9416000000001 42.2058,253.9820000000001 39.6161,253.7267000000001 34.4332,252.9364000000001 28.770699999999998,251.6264000000001" fill="none" stroke="black" stroke-width="0.1" id="_158856784_1_1_1"/>
            <circle cx="56.5849" cy="262.625" r="4.0784" fill="none" stroke="black" stroke-width="0.1" id="_189337584"/>
            <circle cx="56.5849" cy="262.625" r="2.7466" fill="none" stroke="black" stroke-width="0.1" id="_188088304"/>
        </g>
        <g id="_156278256">
            <g id="_tag_8342_">
                <polygon points="12.3485,194.431 9.2663,193.723 6.8195,200.874 7.0798,201.602 7.492,201.957 8.0172,202.223 8.889,202.36 9.3663,202.251 9.6997,202.011" fill="none" stroke="black" stroke-width="0.1" id="_132565680"/>
                <polygon points="12.8242,194.293 12.5367,194.737 11.9891,194.975 11.2678,195.007 10.8693,194.944 10.46,194.828 10.0674,194.663 9.7142,194.465 9.1592,193.997 8.8221,193.242 8.9897,192.744 9.4334,192.375 10.0854,192.227 10.8626,192.298 11.2721,192.414 11.6622,192.577 12.305,192.996 12.7226,193.497 12.868,194.031" fill="none" stroke="black" stroke-width="0.1" id="_129450384"/>
                <polygon points="11.4905,189.042 10.1992,193.28 10.7373,193.916 11.6037,193.839 13.1962,188.943 12.1343,188.421" fill="none" stroke="black" stroke-width="0.1" id="_132565520"/>
                <polygon points="34.9208,174.957 23.4906,181.1223 23.0553,181.3273 22.537499999999998,181.62730000000002 21.979899999999997,181.98530000000002 21.426499999999997,182.3633 20.920599999999997,182.72230000000002 20.5053,183.02730000000003 20.1211,183.3163 19.275399999999998,184.9403 17.780399999999997,185.3983 16.554799999999997,188.2973 12.809099999999997,189.3083 11.693799999999998,189.1053 10.790499999999998,189.6673 10.376199999999997,189.51430000000002 10.011799999999997,189.28130000000002 9.517699999999998,188.83630000000002 9.214499999999997,188.53430000000003 8.908499999999998,188.21930000000003 8.625499999999999,187.92130000000003 8.1733,187.43330000000003 6.9331,187.46530000000004 6.4071,187.35730000000004 6.0236,187.19830000000005 5.6035,186.93030000000005 5.1789000000000005,186.52730000000005 4.7822000000000005,185.96030000000005 4.4462,185.20330000000004 4.2035,184.35330000000005 4.0793,183.60030000000006 4.0596,182.94530000000006 4.1316,182.38530000000006 4.2812,181.92030000000005 4.495,181.54830000000004 5.0609,181.07430000000005 5.6635,180.74830000000006 6.2326,180.45130000000006 6.822299999999999,180.15330000000006 6.735799999999999,179.42030000000005 6.795299999999999,178.76430000000005 6.9948,178.23830000000004 7.3275,177.89530000000005 7.7351,177.67330000000004 8.1958,177.51530000000005 8.7805,177.35030000000006 9.1705,177.25330000000005 9.6501,177.24630000000005 10.0894,177.37330000000006 10.435599999999999,177.63930000000005 10.777999999999999,177.85630000000006 12.158399999999999,176.52430000000007 13.899199999999999,174.97930000000008 31.554699999999997,162.7339000000001 30.8757,161.0339000000001 14.355699999999999,156.3650000000001 13.767199999999999,156.3240000000001 13.057099999999998,156.2710000000001 12.291899999999998,156.2060000000001 11.537299999999998,156.1310000000001 10.858799999999999,156.04900000000012 10.322599999999998,155.96100000000013 9.872599999999998,155.85400000000013 9.420599999999999,155.70800000000014 8.9843,155.52500000000015 8.5817,155.30200000000013 8.2315,155.03900000000013 7.950900000000001,154.73400000000012 7.671800000000001,153.99800000000013 7.630600000000001,153.30400000000014 7.586659570312501,152.47800488281266 7.552226562500001,151.8018703125001 7.524883398437501,151.22560996093765 7.5022125000000015,150.69923750000015 7.481796289062501,150.17276660156264 7.461217187500001,149.59621093750016 7.438057617187502,148.91958417968766 7.409900000000001,148.09290000000016 7.3873000000000015,146.93590000000015 7.401700000000002,146.24490000000014 7.527900000000002,145.68890000000013 7.796800000000002,145.21590000000012 8.185300000000002,144.82490000000013 8.671500000000002,144.51290000000012 9.233200000000002,144.2779000000001 9.848400000000002,144.1159000000001 10.494400000000002,144.0259000000001 11.149200000000002,144.0049000000001 11.835600000000003,143.9979000000001 12.539000000000003,144.0009000000001 13.226000000000003,144.01090000000008 13.862900000000003,144.02590000000006 14.416200000000003,144.04190000000006 29.364200000000004,144.07190000000006 29.829200000000004,142.13690000000005 29.800300000000004,141.63190000000006 29.760100000000005,140.89190000000005 29.715600000000006,139.99990000000005 29.673300000000005,139.03890000000004 29.640100000000004,138.09390000000005 29.622900000000005,137.24490000000006 29.628100000000003,136.57690000000005 29.690100000000005,136.07490000000004 29.762800000000006,135.67890000000006 29.958300000000005,135.16190000000006 30.447500000000005,134.89790000000005 31.008400000000005,134.89090000000004 31.422400000000007,134.88990000000004 31.883100000000006,134.89390000000003 32.35020000000001,134.90190000000004 32.78390000000001,134.90890000000005 33.51900000000001,134.91590000000005 34.007700000000014,134.78890000000004 34.505200000000016,134.62290000000004 35.012900000000016,134.39890000000005 35.38030000000002,134.16190000000006 35.94590000000002,133.67590000000007 36.64880000000002,133.01190000000008 37.42920000000002,132.2389000000001 38.22580000000002,131.4319000000001 38.97830000000002,130.6599000000001 39.62650000000002,129.9939000000001 40.10960000000002,129.5059000000001 40.54390000000002,129.0709000000001 41.054700000000025,128.5929000000001 41.63680000000002,128.1129000000001 42.285000000000025,127.67090000000012 42.99450000000002,127.30890000000012 43.75960000000002,127.06990000000012 44.57510000000002,126.99290000000012 45.43630000000002,127.11990000000011 46.24140000000002,127.39890000000011 46.88030000000002,127.77790000000012 47.37630000000002,128.2309000000001 47.753500000000024,128.72690000000011 48.035600000000024,129.23890000000011 48.246300000000026,129.7369000000001 48.40900000000003,130.19190000000012 48.54730000000003,130.5779000000001 48.86860000000003,131.2489000000001 49.13090000000003,131.5529000000001 49.463800000000035,131.8299000000001 49.86890000000003,132.0749000000001 50.348400000000034,132.2819000000001 50.90420000000003,132.4449000000001 51.53820000000003,132.5599000000001 52.189200000000035,132.5949000000001 52.74860000000003,132.5109000000001 53.21740000000003,132.3439000000001 53.89010000000003,131.9029000000001 54.26140000000003,131.4909000000001 55.16490000000003,130.3999000000001 56.23110000000003,129.4979000000001 57.42880000000003,128.7979000000001 58.72650000000003,128.31090000000012 60.09290000000003,128.0479000000001 61.49620000000003,128.0229000000001 62.90520000000003,128.24490000000011 64.28840000000002,128.72790000000012 65.76350000000002,129.54590000000013 67.00590000000003,130.60790000000014 67.99740000000003,131.86990000000014 68.72010000000003,133.28690000000014 69.15650000000004,134.81490000000014 69.28840000000004,136.41090000000014 69.09840000000004,138.02990000000014 68.56810000000004,139.62790000000015 67.96700000000004,140.71990000000017 67.22910000000005,141.69790000000017 66.37230000000004,142.54790000000017 65.41330000000004,143.26290000000017 64.37060000000004,143.82990000000018 63.26060000000004,144.23890000000017 62.10150000000004,144.47890000000018 60.91020000000004,144.5409000000002 59.897500000000036,144.4989000000002 59.10750000000004,144.5469000000002 58.50870000000004,144.6709000000002 58.07120000000004,144.85390000000018 57.55570000000004,145.3449000000002 57.31500000000004,145.9009000000002 56.99300000000004,146.53990000000022 56.76570000000004,146.9079000000002 56.49240000000004,147.2749000000002 56.17310000000004,147.6149000000002 55.80650000000004,147.9019000000002 55.39170000000004,148.11290000000022 54.927500000000045,148.22090000000023 54.45410000000005,148.20990000000023 54.052300000000045,148.11190000000022 53.410800000000044,147.66790000000023 53.14450000000004,147.32790000000023 52.89590000000004,146.91690000000023 52.65250000000004,146.43690000000024 52.40050000000004,145.88990000000024 52.13790000000004,145.37490000000025 51.806500000000035,144.99590000000026 51.42650000000003,144.73290000000026 51.01850000000003,144.56690000000026 50.602500000000035,144.47990000000027 50.199500000000036,144.45090000000027 49.51210000000004,144.49290000000028 48.96730000000004,144.57590000000027 48.45580000000004,144.68790000000027 47.96240000000004,144.82490000000027 47.47030000000004,144.98790000000028 47.07870000000004,145.1929000000003 46.81390000000004,145.5799000000003 46.79640000000004,146.0079000000003 46.95630000000004,146.52890000000028 47.10270000000004,146.91690000000028 47.26860000000004,147.34490000000028 47.43600000000004,147.77690000000027 47.701300000000046,148.51790000000028 47.803600000000046,148.93290000000027 47.95180000000005,149.38390000000027 47.773000000000046,149.75990000000027 47.189100000000046,150.00090000000029 46.62310000000004,150.1869000000003 45.93750000000004,150.4079000000003 45.207300000000046,150.6419000000003 44.508200000000045,150.8659000000003 43.915500000000044,151.0549000000003 43.50440000000005,151.1859000000003 43.353000000000044,151.6229000000003 43.45090000000005,152.0169000000003 43.62300000000005,152.4449000000003 44.079700000000045,152.1119000000003 44.62990000000004,151.83490000000032 45.25850000000004,151.6139000000003 45.94990000000004,151.45390000000032 46.68910000000004,151.35290000000032 47.46090000000004,151.31390000000033 48.249800000000036,151.33890000000034 49.04060000000003,151.42790000000034 49.803100000000036,151.58790000000033 50.54670000000004,151.77290000000033 51.27300000000004,151.99290000000033 51.98390000000004,152.25190000000032 52.680900000000044,152.55690000000033 53.36560000000004,152.91390000000033 54.04000000000004,153.3279000000003 54.705100000000044,153.80590000000032 55.38180000000004,154.27890000000033 56.08600000000004,154.73890000000034 56.781500000000044,155.17190000000033 57.431800000000045,155.56090000000034 58.00060000000005,155.89090000000036 58.74910000000005,156.30990000000037 59.13650000000005,156.56690000000037 59.54200000000005,156.79690000000036 60.017700000000055,156.96890000000036 60.57200000000005,157.01590000000036 61.02160000000005,157.00590000000037 61.56780000000005,156.98190000000037 62.17620000000005,156.95890000000037 62.81310000000005,156.95090000000036 63.44270000000005,156.97490000000036 64.03150000000005,157.04490000000035 64.54460000000005,157.17690000000036 64.99960000000004,157.36490000000035 65.46190000000004,157.54390000000035 65.92630000000004,157.71390000000034 66.38490000000004,157.87290000000033 66.83470000000004,158.02290000000033 67.26630000000004,158.16090000000034 68.05640000000004,158.40490000000034 68.48440000000004,158.52890000000033 68.96980000000003,158.64490000000035 69.49020000000003,158.74690000000035 70.02110000000003,158.83090000000036 70.53660000000004,158.88890000000035 71.01280000000004,158.91690000000034 71.75110000000004,158.85790000000034 72.30930000000004,158.71790000000036 73.34080000000003,158.46590000000035 74.69670000000004,158.14090000000036 76.23070000000004,157.77590000000035 77.79500000000004,157.40790000000035 79.24270000000004,157.07290000000035 80.42680000000004,156.80590000000035 81.19960000000005,156.64390000000034 81.74710000000005,156.53990000000033 82.31410000000004,156.47090000000034 82.88660000000004,156.43990000000034 83.44620000000005,156.44190000000035 83.97910000000005,156.47790000000035 84.46850000000005,156.54590000000036 85.25330000000005,156.77790000000036 85.69470000000005,157.01890000000037 86.31000000000006,157.39790000000036 87.04130000000006,157.87790000000035 87.83270000000006,158.42490000000035 88.62620000000005,159.00290000000035 89.36750000000005,159.57590000000036 89.99740000000006,160.10690000000037 90.46110000000006,160.56190000000038 90.77420000000006,161.00290000000038 91.00340000000007,161.49490000000037 91.16090000000007,162.00290000000038 91.26050000000006,162.49490000000037 91.31480000000006,162.93490000000037 91.33980000000007,163.61690000000036 92.00660000000006,163.76090000000036 92.02420000000006,163.35090000000037 92.16130000000007,162.76590000000036 92.52970000000006,162.41090000000037 93.08460000000007,162.38890000000038 93.48970000000007,162.47990000000038 94.02890000000006,162.7019000000004 94.72380000000007,163.0359000000004 95.50260000000007,163.4369000000004 96.29700000000007,163.86190000000042 97.03660000000006,164.26790000000042 97.65120000000006,164.61190000000042 98.22640000000006,164.93890000000042 98.79330000000006,165.45790000000042 99.56530000000006,166.31390000000042 100.47160000000007,167.41490000000042 101.44480000000007,168.6679000000004 102.41610000000007,169.9809000000004 103.31640000000007,171.26390000000038 104.07750000000007,172.42290000000037 104.79710000000007,173.58290000000036 105.24690000000007,174.18090000000038 105.91200000000006,175.07990000000038 106.72310000000006,176.20590000000038 107.61070000000007,177.47790000000037 108.50440000000006,178.81890000000038 109.33670000000006,180.15090000000038 110.03550000000007,181.39490000000038 110.57250000000008,182.60090000000037 110.96450000000007,183.85790000000037 111.21450000000007,185.14290000000037 111.32550000000008,186.43290000000036 111.30350000000007,187.70690000000036 111.14850000000007,188.94390000000035 110.86450000000006,190.11990000000034 110.45550000000006,191.21690000000035 109.92100000000006,192.18790000000035 109.28740000000006,193.01390000000035 108.59710000000007,193.69990000000035 107.89180000000007,194.25890000000035 107.21510000000008,194.69690000000034 106.60860000000008,195.02490000000034 106.11460000000008,195.24990000000034 105.40430000000008,195.52190000000033 104.90470000000008,195.72690000000034 104.32990000000008,195.97290000000035 103.73660000000008,196.23090000000036 103.17910000000008,196.47790000000037 102.71270000000008,196.68590000000037 102.27340000000008,196.88490000000039 101.50060000000008,197.21190000000038 101.02510000000008,197.38890000000038 100.34390000000008,197.64590000000038 99.73700000000008,197.8799000000004 99.30150000000008,197.97890000000038 98.85300000000008,197.9459000000004 98.25070000000008,197.8689000000004 97.54220000000008,197.7579000000004 96.77710000000008,197.6259000000004 96.00080000000007,197.4849000000004 95.26160000000007,197.3469000000004 94.60750000000007,197.2239000000004 93.98900000000008,197.0799000000004 93.31930000000007,196.92690000000042 92.63560000000007,196.77190000000041 91.97610000000007,196.6229000000004 91.37890000000007,196.48890000000043 90.51750000000007,196.29890000000043 90.10540000000007,196.24290000000042 89.63530000000007,196.16690000000042 88.98740000000006,196.05590000000043 88.28410000000007,195.93990000000042 87.41970000000006,195.81590000000043 86.92390000000006,195.76090000000042 86.45770000000006,195.77290000000042 85.65600000000006,195.92190000000042 85.10950000000007,196.11790000000042 84.84450000000007,196.49990000000042 84.65240000000007,196.88690000000042 84.22840000000006,197.43890000000042 83.66390000000007,197.8719000000004 82.98940000000007,198.1909000000004 82.23590000000007,198.3979000000004 81.43190000000007,198.4959000000004 80.60850000000006,198.4879000000004 79.79640000000006,198.3769000000004 78.94080000000007,198.1799000000004 78.00820000000007,197.9299000000004 77.05710000000008,197.6499000000004 76.14700000000008,197.3659000000004 75.33700000000007,197.1019000000004 74.68480000000008,196.8829000000004 73.93320000000008,196.7459000000004 73.47480000000009,196.8729000000004 72.75150000000009,196.94690000000043 72.29980000000009,196.92790000000042 71.79430000000009,196.8539000000004 71.2868000000001,196.6789000000004 70.8462000000001,196.4649000000004 70.47320000000009,196.22990000000038 69.9297000000001,195.77690000000038 69.62430000000009,195.42990000000037 69.16670000000009,195.27090000000038 68.45130000000009,194.9149000000004 67.83730000000008,194.4469000000004 67.50600000000009,194.1489000000004 67.12580000000008,193.7959000000004 66.67140000000008,193.3799000000004 66.14400000000008,192.8979000000004 65.54940000000008,192.41290000000038 64.92080000000007,191.93790000000038 64.29020000000007,191.48390000000038 63.69090000000007,191.06290000000038 63.15240000000007,190.6889000000004 62.70820000000007,190.37290000000039 62.39010000000007,190.12690000000038 60.957900000000066,188.9209000000004 59.759200000000064,187.70490000000038 58.77260000000006,186.51290000000037 57.97640000000006,185.38190000000037 57.34950000000006,184.34390000000036 56.870100000000065,183.43190000000035 56.516500000000065,182.68190000000035 56.11380000000006,181.83690000000036 55.72740000000006,181.19490000000036 55.50490000000006,180.85190000000037 55.27000000000006,180.50390000000036 55.02800000000006,180.15290000000036 54.784100000000066,179.80590000000035 54.428100000000065,179.30590000000035 53.70030000000006,178.89490000000035 53.401800000000065,178.49690000000035 53.19730000000006,177.98890000000034 52.58570000000006,177.97490000000033 51.66470000000006,177.49890000000033 51.30900000000006,177.07490000000033 51.09190000000006,176.6019000000003 50.47040000000006,176.55690000000033 49.705700000000064,176.23690000000033 49.28870000000006,176.06890000000033 48.82480000000006,175.99690000000032 48.30700000000006,175.92390000000032 47.82350000000006,175.86590000000032 47.41760000000006,176.10590000000033 46.94080000000006,176.34490000000034 46.30850000000006,176.60990000000032 45.54110000000006,176.8579000000003 44.65910000000006,177.04990000000032 43.68260000000006,177.14390000000031 42.63190000000006,177.0999000000003 41.614900000000056,176.9019000000003 40.767500000000055,176.6119000000003 40.07940000000006,176.2679000000003 39.540200000000056,175.9039000000003 38.752700000000054,175.1339000000003 38.47910000000005,174.6337000000003 38.080400000000054,173.5920000000003 37.91420000000005,173.6861000000003 37.38520000000005,174.0217000000003 36.229300000000045,174.8367000000003 35.540300000000045,175.17290000000028 35.10660000000004,175.10250000000028 34.92080000000004,174.95700000000028" fill="none" stroke="black" stroke-width="0.1" id="_tag_1_7_"/>
                <polyline points="7.3945,146.59 7.4506,147.1561 7.8022,147.8676 8.1272,148.21990000000002 8.5723,148.53940000000003 9.1526,148.80290000000002 9.8835,148.98710000000003 10.7114,149.07980000000003 11.524899999999999,149.13840000000005 12.833759960937499,149.19660410156254 14.5322296875,149.27926406250003 16.5490814453125,149.38176386718754 18.813087499999998,149.49948750000004 21.253020117187496,149.62781894531255 23.797651562499997,149.76214218750005 26.3757541015625,149.89784121093754 28.9161,150.03030000000004" fill="none" stroke="black" stroke-width="0.1" id="_tag_1_43__1_1"/>
                <polyline points="8.4484,144.909 8.0752,145.313 7.863,146.023 7.897,146.431 8.0668,146.841 8.4044,147.227 8.9415,147.566 9.6106,147.809 10.4465,147.969 11.3701,148.062 12.3031,148.103 28.6676,148.854" fill="none" stroke="black" stroke-width="0.1" id="_tag_1_44__1_1"/>
                <polygon points="14.5881,146.155 14.4317,146.678 13.8853,147.09 13.494,147.247 13.0391,147.365 12.5326,147.441 11.9855,147.47 11.4226,147.472 10.8973,147.419 10.4214,147.316 10.0057,147.168 9.4059,146.754 9.215,145.942 9.5775,145.471 10.285,145.124 10.74,145.005 11.2466,144.929 11.7936,144.9 12.3444,144.919 12.8608,144.988 13.3312,145.101 13.7447,145.252 14.3523,145.652" fill="none" stroke="black" stroke-width="0.1" id="_tag_1_45_"/>
                <polygon points="13.7446,146.55 13.2621,147.237 12.696,147.428 11.9855,147.47 11.2812,147.427 10.4597,147.129 10.1499,146.819 10.3672,146.122 10.8456,145.889 11.4866,145.752 12.2145,145.726 12.8822,145.847 13.5844,146.226" fill="none" stroke="black" stroke-width="0.1" id="_tag_1_46_"/>
                <polygon points="29.0328,170.368 29.7842,169.843 30.2498,169.506 30.7535,168.967 30.9567,168.613 31.1104,168.225 31.2017,167.82 31.2178,167.416 30.9741,166.681 30.4014,166.264 29.7395,166.244 28.9752,166.552 28.5505,166.808 28.0951,167.119 21.7865,171.449 21.0355,171.973 20.5698,172.312 20.0658,172.849 19.8627,173.203 19.7093,173.592 19.6177,173.997 19.6016,174.4 19.8454,175.136 20.418,175.553 21.0797,175.573 21.8448,175.264 22.2688,175.009 22.7245,174.698 23.2448,174.339 23.8638,173.909 24.5288,173.447 25.1887,172.988 25.7916,172.568 26.2862,172.223" fill="none" stroke="black" stroke-width="0.1" id="_tag_1_49__1_1"/>
                <polyline points="28.8972,168.213 25.8595,170.2536 25.1826,170.7176 24.3941,171.2602 23.585600000000003,171.8193 22.848900000000004,172.3331 22.275700000000004,172.74 21.817400000000003,173.1091 21.581100000000003,173.4701 21.461000000000002,173.9015 21.5253,174.3288 21.7737,174.66910000000001 22.265600000000003,174.77730000000003 22.69,174.6048 23.1932,174.2793 23.7927,173.8232 24.1512,173.56380000000001 24.5097,173.30870000000002 24.839499999999997,173.07710000000003 25.295499999999997,172.76070000000004" fill="none" stroke="black" stroke-width="0.1" id="_tag_1_50__1_1_1"/>
                <polyline points="62.8578,84.4172 59.071299999999994,87.2581 55.11299999999999,90.207 51.06929999999999,93.1942 47.02639999999999,96.1497 43.07029999999999,99.0034 39.28719999999999,101.6853 35.76339999999999,104.1258 32.58479999999999,106.2541 27.51099999999999,110.14739999999999 23.37669999999999,113.9541 19.418199999999988,118.4079 16.28479999999999,123.41409999999999 14.58059999999999,126.8213 12.17959999999999,132.4861 10.60459999999999,138.73489999999998 9.89139999999999,145.53359999999998 9.972599999999991,146.2583 10.26489999999999,146.7586 10.77339999999999,147.0537 11.50389999999999,147.1633 11.92579999999999,147.15529999999998 12.33899999999999,147.10539999999997 12.72939999999999,147.00919999999996 13.38469999999999,146.66259999999997 13.77799999999999,146.08299999999997 14.480299999999989,139.45549999999997 15.87949999999999,133.77299999999997 18.014199999999988,128.66349999999997 19.73329999999999,125.21819999999997 22.541799999999988,120.75479999999996 26.10869999999999,116.78949999999996 30.180399999999988,113.08679999999995 34.79739999999999,109.57299999999995 38.58099999999999,107.03349999999995 42.81949999999999,104.08349999999994 47.37399999999999,100.83529999999995 52.10519999999999,97.40129999999995 56.87339999999999,93.89429999999994 61.53949999999999,90.42649999999995 65.96439999999998,87.11039999999994 70.00799999999998,84.05869999999994" fill="none" stroke="black" stroke-width="0.1" id="_tag_1_97__1_1_1"/>
                <polyline points="6.8223,180.153 7.3269,179.982 7.7915,179.8209 8.2501,179.65609999999998 8.8732,179.6683 9.298,179.8138 9.7621,180.0642 10.2391,180.429 10.701500000000001,180.917 11.1225,181.53810000000001 11.475200000000001,182.3008 11.7421,183.21030000000002 11.8726,184.0277 11.8843,184.7503 11.796,185.37480000000002 11.6253,185.89900000000003 11.390699999999999,186.31910000000002 11.1101,186.63270000000003 10.4725,186.97140000000002 9.7856,187.16670000000002 9.1834,187.27900000000002 8.759,187.33150000000003" fill="none" stroke="black" stroke-width="0.1" id="_tag_1_98__1_1_1"/>
                <polygon points="7.0378,184.057 7.1464,184.562 7.2002,185.054 7.2024,185.517 7.155,185.938 6.9244,186.6 6.5304,186.929 5.9733,186.862 5.4287,186.417 5.1772,186.073 4.9478,185.661 4.7459,185.19 4.5794,184.666 4.4601,184.129 4.3957,183.62 4.3869,183.147 4.4316,182.723 4.6772,182.064 5.1246,181.728 5.6604,181.832 6.1935,182.297 6.4425,182.645 6.6703,183.061 6.8712,183.534" fill="none" stroke="black" stroke-width="0.1" id="_tag_1_99_"/>
                <polygon points="7.0378,184.057 7.1623,184.81 7.1234,185.458 6.9339,185.938 6.6076,186.184 6.2076,186.125 5.8156,185.782 5.4678,185.219 5.2033,184.497 5.078,183.746 5.1107,183.092 5.2807,182.6 5.9739,182.384 6.3826,182.713 6.7511,183.285" fill="none" stroke="black" stroke-width="0.1" id="_tag_1_100_"/>
                <polyline points="6.862,178.858 7.149,178.3972 7.5125,178.1572 8.0747,177.974 8.8168,177.8986 9.5927,178.0655 9.972000000000001,178.2453 10.3344,178.4929 10.671100000000001,178.81019999999998 10.973700000000001,179.19949999999997 11.2522,179.63499999999996 11.5187,180.08069999999995 11.7652,180.52529999999996 11.9842,180.95679999999996 12.1678,181.36409999999995 12.3987,182.05869999999996 12.4289,182.54129999999995 12.3637,183.02159999999995 12.282399999999999,183.48009999999994 12.3027,183.92029999999994 12.578,184.32009999999994 12.697199999999999,184.76199999999994 12.5421,185.44989999999996 12.3727,186.04919999999996 12.1735,186.72389999999996 11.967500000000001,187.40289999999996 11.778200000000002,188.01539999999997 11.629000000000001,188.49019999999996 11.4974,188.88629999999995 11.3252,189.28579999999994" fill="none" stroke="black" stroke-width="0.1" id="_tag_1_101__1_1_1"/>
                <polyline points="7.0895,178.463 7.4921,178.1477 8.0399,177.9057 8.69,177.6645 9.3707,177.5066 10.121699999999999,177.5787 10.505099999999999,177.70159999999998 10.881699999999999,177.88639999999998 11.242499999999998,178.13649999999998 11.578799999999998,178.45469999999997 11.881299999999998,178.84409999999997 12.162999999999998,179.28079999999997 12.436999999999998,179.73079999999996 12.694399999999998,180.18129999999996 12.925699999999997,180.62019999999995 13.121499999999997,181.03469999999996 13.272599999999997,181.41199999999995 13.404099999999998,182.00529999999995 13.375999999999998,182.45999999999995 13.285899999999998,182.93669999999995 13.206599999999998,183.33719999999994 13.357299999999999,183.74369999999993 13.589299999999998,184.10859999999994 13.633699999999997,184.67609999999993 13.521899999999997,185.12159999999994 13.358499999999998,185.71039999999994 13.166199999999998,186.37329999999994 12.966999999999999,187.04029999999995 12.7839,187.64219999999995 12.639,188.10959999999994 12.492099999999999,188.48179999999994" fill="none" stroke="black" stroke-width="0.1" id="_tag_1_102__1_1_1"/>
                <polyline points="13.6717,184.443 14.003499999999999,184.01860000000002 14.7412,183.65220000000002 13.4436,181.32500000000002" fill="none" stroke="black" stroke-width="0.1" id="_tag_1_103__1_1_1"/>
                <polyline points="13.4624,188.63 13.6113,188.173 13.7634,187.6952 13.9379,187.1343 14.1118,186.5528 14.263,186.0126 14.3687,185.5763 14.739600000000001,184.8803 15.7893,184.4296 15.998700000000001,184.0652" fill="none" stroke="black" stroke-width="0.1" id="_tag_1_104__1_1_1"/>
                <polyline points="10.8815,177.829 11.5294,177.7733 12.1577,177.9326 12.827300000000001,178.4206 13.2117,178.90730000000002 13.6856,179.60750000000002 14.206000000000001,180.4351 14.729000000000001,181.3047 15.211400000000001,182.1302 15.609900000000001,182.8259 15.8808,183.3064" fill="none" stroke="black" stroke-width="0.1" id="_tag_1_105__1_1_1"/>
                <polygon points="14.5838,183.481 14.2162,173.534 13.435,156.296 11.9147,156.168 12.6971,173.666 13.1235,183.578 13.4376,184.322 14.1609,184.19" fill="none" stroke="black" stroke-width="0.1" id="_tag_1_106_"/>
                <polygon points="23.023,147.357 23.5511,147.357 24.2976,147.262 24.7108,147.029 25.028,146.683 25.1554,146.255 25.0222,145.869 24.2532,145.535 23.6507,145.513 19.2433,145.48 18.7155,145.48 17.9688,145.575 17.5557,145.808 17.2383,146.154 17.1112,146.582 17.2443,146.968 18.0136,147.302 18.6158,147.324 19.4139,147.327 19.8804,147.328 20.3435,147.328 20.7668,147.328" fill="none" stroke="black" stroke-width="0.1" id="_tag_1_49__1_1_0"/>
                <polyline points="23.6692,146.294 21.5615,146.2572 21.0888,146.2534 20.537499999999998,146.2499 19.9713,146.2476 19.4539,146.2476 19.0489,146.251 18.7108,146.2744 18.4802,146.36710000000002 18.2813,146.53140000000002 18.170900000000003,146.75440000000003 18.1761,146.99710000000005 18.3728,147.21030000000005 18.630200000000002,147.26860000000005 18.9753,147.28060000000005 19.4088,147.26270000000005 19.6636,147.25830000000005 19.917099999999998,147.25590000000005 20.149199999999997,147.25510000000006 20.468899999999998,147.25590000000005" fill="none" stroke="black" stroke-width="0.1" id="_tag_1_50__1_1_1_1"/>
            </g>
            <circle cx="61.0501" cy="136.36" r="15" fill="none" stroke="black" stroke-width="0.1" id="center_00"/>
            <polyline points="48.3828,175.659 48.851000000000006,175.5729 49.34490000000001,175.4762 49.931700000000006,175.3521 50.549600000000005,175.21020000000001 51.138400000000004,175.05610000000001 51.636500000000005,174.8984 52.461600000000004,174.4858 53.33410000000001,174.05180000000001 54.519600000000004,173.49220000000003 55.934900000000006,172.86060000000003 57.499300000000005,172.20620000000002 59.129400000000004,171.5826 60.74380000000001,171.04000000000002 62.26010000000001,170.63020000000003 63.67850000000001,170.35100000000003 65.01840000000001,170.15470000000002 66.30210000000001,170.06330000000003 67.5515,170.10100000000003 68.78670000000001,170.29200000000003 70.02900000000001,170.65900000000002 71.30140000000002,171.22660000000002 72.62400000000001,172.01800000000003 73.86500000000001,172.83880000000002 74.91470000000001,173.56910000000002 75.80090000000001,174.22850000000003 76.55220000000001,174.83580000000003 77.19440000000002,175.41030000000003 77.75590000000001,175.96840000000003 78.2639,176.53150000000002 78.7445,177.11800000000002 79.2017,177.73730000000003 79.596,178.41370000000003 79.92960000000001,179.11550000000003 80.2098,179.80590000000004 80.44200000000001,180.45150000000004 80.62970000000001,181.01970000000003 80.78030000000001,181.47420000000002 81.01400000000001,182.06080000000003 81.45250000000001,182.74660000000003 81.79660000000001,183.12320000000003 82.23770000000002,183.50360000000003 82.78710000000002,183.87010000000004 83.45640000000003,184.20870000000005 84.25540000000004,184.50430000000006 85.06120000000004,184.68380000000005 85.77620000000005,184.76830000000004 86.41450000000005,184.76960000000003 86.99140000000004,184.693 87.52070000000005,184.54870000000003 88.01780000000005,184.34420000000003 88.49730000000005,184.08800000000002 88.97300000000006,183.78820000000002 89.37410000000006,183.3994 89.67870000000005,182.91580000000002 89.90210000000005,182.36260000000001 90.05870000000004,181.76520000000002 90.16380000000004,181.15080000000003 90.23180000000004,180.54510000000002 90.27840000000003,179.97440000000003 90.31700000000004,179.46380000000002 90.33630000000004,178.77 90.28800000000004,178.1378 90.17220000000005,177.5649 89.99180000000004,177.046 89.74930000000003,176.57899999999998 89.44760000000004,176.15869999999998 89.08840000000004,175.78029999999998 88.67260000000003,175.44209999999998 88.30180000000003,175.19429999999997 87.88940000000002,174.97459999999998 87.45060000000002,174.7788 87.00250000000003,174.6032 86.56030000000003,174.4435 86.14280000000002,174.2969 85.76470000000002,174.158 85.05450000000002,173.744 84.51320000000001,173.277 83.86840000000001,172.67919999999998 83.16820000000001,172.00329999999997 82.46120000000002,171.30269999999996 81.79650000000002,170.63099999999997 81.22240000000002,170.04269999999997 80.78550000000003,169.59069999999997 80.38130000000002,169.15419999999997 79.89650000000002,168.60099999999997 79.37810000000002,167.97189999999998 78.87170000000002,167.30369999999996 78.42240000000002,166.63479999999996 78.07680000000002,166.00589999999997 77.87950000000002,165.45409999999998 77.87840000000003,165.0186 78.24430000000002,164.4203 78.90500000000003,163.88309999999998 79.36700000000003,163.6171 79.93000000000004,163.3421 80.60100000000004,163.0496 81.39100000000005,162.7309 82.18550000000005,162.3802 82.88660000000004,162.0773 83.49410000000005,161.82330000000002 84.00680000000004,161.61970000000002 84.42360000000004,161.46830000000003 85.08950000000003,161.34130000000002 85.92320000000002,161.66490000000002 86.70770000000002,161.94750000000002 87.63730000000001,162.27880000000002 88.6397,162.63590000000002 89.63940000000001,162.99380000000002 90.56470000000002,163.32840000000002 91.33980000000001,163.61720000000003" fill="none" stroke="black" stroke-width="0.1" id="_tag_1_8__1_1_1"/>
            <polygon points="74.1404,195.829 73.5047,196.363 72.9143,196.457 72.2303,196.4 71.5392,196.25 70.7806,195.855 70.556,195.523 70.8925,194.898 71.4042,194.75 72.0793,194.732 72.8188,194.838 73.4494,195.039 73.9101,195.321 74.1367,195.654" fill="none" stroke="black" stroke-width="0.1" id="_tag_1_9_"/>
            <polyline points="56.7433,180.72 57.2384,181.6793 57.4745,182.091 57.728899999999996,182.505 58.002399999999994,182.92159999999998 58.29599999999999,183.3414 58.60999999999999,183.765 58.945499999999996,184.1926 60.0845,185.5693 61.0838,186.6142 61.960899999999995,187.3664 62.73349999999999,187.865 63.419799999999995,188.14880000000002 64.03689999999999,188.25690000000003 64.60269999999998,188.22830000000002 65.13509999999998,188.1022 65.59699999999998,188.01770000000002 66.01779999999998,188.04980000000003 66.73279999999998,188.36170000000004 67.27169999999998,188.83630000000005 67.62719999999999,189.27140000000006 67.89229999999999,189.75590000000005 68.29509999999999,190.40210000000005 68.58259999999999,190.78000000000006 68.94559999999998,191.19130000000007 69.39809999999999,191.63330000000008 69.95379999999999,192.10390000000007 70.59079999999999,192.53960000000006 71.26379999999999,192.88570000000007 71.95169999999999,193.15180000000007 72.63399999999999,193.34740000000008 73.28909999999999,193.48240000000007 73.89679999999998,193.56610000000006 74.43529999999998,193.60850000000005 74.88439999999999,193.61900000000006 75.36169999999998,193.57270000000005 75.90709999999999,193.47090000000006 76.49809999999998,193.32920000000007 77.11209999999998,193.16360000000006 77.72659999999999,192.99020000000007 78.31899999999999,192.82480000000007 78.86689999999999,192.68310000000008 79.34809999999999,192.58130000000008 79.83679999999998,192.50990000000007 80.44769999999998,192.48600000000008 81.14149999999998,192.52220000000008 81.87909999999998,192.63090000000008 82.62139999999998,192.8246000000001 83.32909999999998,193.1158000000001 83.96319999999999,193.51700000000008 84.48459999999999,194.04080000000008 84.80429999999998,194.53840000000008 84.99619999999999,194.98410000000007 85.10119999999999,195.70220000000006 85.00569999999999,196.13320000000007" fill="none" stroke="black" stroke-width="0.1" id="_tag_1_10__1_1_1"/>
            <polygon points="67.8316,139.38 67.0891,140.702 66.129,141.811 64.9906,142.693 63.7146,143.331 62.3398,143.71 60.9063,143.816 59.4534,143.632 58.0212,143.144 56.7212,142.414 55.6278,141.462 54.7556,140.33 54.1211,139.056 53.738,137.68 53.6235,136.24 53.7915,134.778 54.2574,133.334 55.0087,132.046 55.9753,130.961 57.1168,130.094 58.3942,129.462 59.7678,129.077 61.1977,128.957 62.6443,129.116 64.0678,129.57 65.3896,130.312 66.499,131.272 67.3805,132.409 68.0178,133.687 68.3977,135.061 68.5031,136.494 68.3193,137.948" fill="none" stroke="black" stroke-width="0.1" id="_tag_1_11_"/>
            <polygon points="66.0388,138.525 65.4909,139.478 64.7796,140.283 63.9361,140.927 62.9916,141.398 61.9755,141.685 60.9198,141.774 59.8543,141.654 58.8098,141.314 57.8384,140.754 57.0247,140.038 56.3792,139.194 55.9117,138.251 55.6325,137.24 55.5514,136.188 55.6783,135.126 56.0222,134.084 56.5784,133.111 57.2877,132.294 58.1242,131.643 59.0591,131.172 60.0666,130.89 61.119,130.81 62.1896,130.941 63.2509,131.296 64.2159,131.823 65.0297,132.519 65.6787,133.353 66.1522,134.294 66.4368,135.314 66.5211,136.379 66.3921,137.46" fill="none" stroke="black" stroke-width="0.1" id="_tag_1_12_"/>
            <polygon points="42.7573,143.247 42.198,144.219 41.4814,145.033 40.6361,145.681 39.6908,146.153 38.675,146.439 37.6169,146.533 36.5463,146.422 35.4913,146.1 34.5198,145.541 33.7066,144.825 33.0629,143.978 32.5983,143.031 32.3238,142.012 32.2495,140.948 32.3854,139.871 32.7418,138.807 33.268,137.841 33.9634,137.027 34.7969,136.378 35.7386,135.905 36.7576,135.619 37.823,135.535 38.9038,135.664 39.9692,136.018 40.9225,136.566 41.727,137.277 42.3711,138.121 42.8427,139.066 43.1291,140.082 43.2186,141.137 43.0989,142.202" fill="none" stroke="black" stroke-width="0.1" id="_tag_1_13_"/>
            <polygon points="42.3229,143.086 41.824,143.967 41.1719,144.71 40.3952,145.304 39.5235,145.738 38.585,146 37.6077,146.084 36.6209,145.975 35.6531,145.665 34.7707,145.166 34.0278,144.514 33.4342,143.738 33.0007,142.866 32.7373,141.928 32.6546,140.951 32.7625,139.965 33.0719,138.997 33.5823,138.095 34.2397,137.343 35.0167,136.748 35.8855,136.319 36.8199,136.063 37.7925,135.987 38.7752,136.102 39.7415,136.414 40.6425,136.926 41.3953,137.583 41.9897,138.36 42.4196,139.229 42.6756,140.164 42.7501,141.136 42.6354,142.119" fill="none" stroke="black" stroke-width="0.1" id="_tag_1_14_"/>
            <polygon points="40.161,142.106 39.8839,142.591 39.5322,142.996 39.1198,143.318 38.6607,143.55 38.1683,143.689 37.6565,143.732 37.1399,143.672 36.6317,143.505 36.1467,143.228 35.7411,142.876 35.4204,142.463 35.1884,142.004 35.0488,141.512 35.0065,141.001 35.0665,140.484 35.233,139.975 35.5103,139.49 35.8621,139.084 36.2747,138.763 36.7337,138.531 37.2262,138.391 37.7376,138.35 38.2539,138.411 38.7618,138.577 39.2475,138.854 39.6532,139.206 39.9747,139.618 40.2068,140.077 40.3462,140.569 40.388,141.081 40.3276,141.598" fill="none" stroke="black" stroke-width="0.1" id="_tag_1_15_"/>
            <polygon points="39.595,141.868 39.3745,142.225 39.0979,142.525 38.4237,142.931 37.6637,143.056 36.9081,142.871 36.5381,142.673 36.2303,142.412 35.8128,141.759 35.6828,141.006 35.8664,140.252 36.0652,139.881 36.3252,139.573 36.9795,139.156 37.7324,139.026 38.4865,139.209 38.8569,139.408 39.1662,139.668 39.5911,140.327 39.7404,141.092" fill="none" stroke="black" stroke-width="0.1" id="_tag_1_16_"/>
            <polygon points="63.8107,137.508 63.5195,138.054 63.1335,138.514 62.6705,138.879 62.1455,139.143 61.5759,139.3 60.9781,139.339 60.3673,139.259 59.7615,139.047 59.2302,138.735 58.7859,138.338 58.4338,137.871 58.1791,137.346 58.0259,136.782 57.9791,136.192 58.0427,135.593 58.2225,134.997 58.5354,134.464 58.9362,134.014 59.4092,133.653 59.9372,133.39 60.503,133.234 61.0922,133.187 61.6871,133.26 62.2713,133.459 62.8055,133.771 63.2554,134.173 63.6155,134.646 63.8781,135.173 64.0361,135.74 64.0818,136.329 64.009,136.924" fill="none" stroke="black" stroke-width="0.1" id="_tag_1_17_"/>
            <polyline points="31.6202,162.773 31.8717,164.053 32.1424,165.404 32.4706,167.008 32.8276,168.698 33.1838,170.309 33.5104,171.673 33.7781,172.626 33.986,173.278 34.1823,173.811 34.3702,174.236 34.9208,174.957" fill="none" stroke="black" stroke-width="0.1" id="_tag_1_18__1_1"/>
            <polyline points="38.0428,173.465 37.9609,173.013 37.9464,172.56 38.1461,171.526 38.4967,170.721 38.9434,170.119 39.4316,169.69 39.9068,169.405 40.3138,169.237 40.7049,169.137 41.2586,167.257 41.5788,166.95 42.1852,166.683 42.6198,166.631 43.1478,166.678 43.7737,166.858 44.4633,167.128 45.1723,167.407 45.8902,167.67 46.6064,167.893 47.3104,168.052 47.9917,168.121 48.6398,168.076 49.2439,167.893 49.9835,167.553 51.0086,167.04 52.2199,166.403 53.5187,165.692 54.8061,164.959 55.9831,164.253 56.9506,163.624 57.6101,163.123 57.9573,162.719 58.1472,162.327 58.1437,161.583 57.7787,160.896 57.5164,160.574 57.231,160.268" fill="none" stroke="black" stroke-width="0.1" id="_tag_1_19__1_1"/>
            <polyline points="38.3683,174.121 38.320899999999995,173.4772 38.339999999999996,173.0608 38.4115,172.5964 38.55629999999999,172.1152 38.79549999999999,171.64939999999999 39.14989999999999,171.23039999999997 39.60019999999999,170.88579999999996 40.07909999999999,170.59699999999995 40.61209999999999,170.36789999999996 41.22439999999999,170.20319999999995 41.94159999999999,170.10719999999995 42.78859999999999,170.08379999999994 43.791299999999985,170.13769999999994 44.97479999999999,170.27269999999993 46.218499999999985,170.46729999999994 47.33569999999998,170.66659999999993 48.32899999999998,170.86689999999993 49.20029999999998,171.06409999999994 49.95209999999998,171.25429999999994 50.58629999999998,171.43379999999993 51.10529999999998,171.59839999999994 51.51159999999998,171.74459999999993 51.96059999999998,172.22649999999993 52.036099999999976,172.91399999999993 51.84779999999998,173.63109999999992 51.504399999999976,174.20209999999992 50.72369999999997,174.71429999999992 50.135799999999975,174.99699999999993 49.504999999999974,175.27159999999992 48.89829999999998,175.51889999999992 48.38229999999998,175.71949999999993 47.88929999999998,175.90309999999994" fill="none" stroke="black" stroke-width="0.1" id="_tag_1_20__1_1_1"/>
            <polyline points="62.3152,160.29 62.610499999999995,160.00189999999998 63.00319999999999,159.66009999999997 63.40219999999999,159.39349999999996 63.87089999999999,159.33419999999995 64.4905,159.42629999999994 65.2779,159.88119999999995 65.94030000000001,160.40039999999996 66.48,160.40849999999998 66.9565,160.26019999999997 67.4445,160.17739999999998 68.16130000000001,160.24009999999998 68.81510000000002,160.3355 69.63560000000001,160.5419 69.9766,161.1602 69.6177,161.4994" fill="none" stroke="black" stroke-width="0.1" id="_tag_1_21__1_1_1"/>
            <polyline points="67.0938,161.456 67.4863,161.82999999999998 67.9749,162.30569999999997 68.4107,162.7513 68.70750000000001,163.15519999999998 68.4488,163.9921" fill="none" stroke="black" stroke-width="0.1" id="_tag_1_22__1_1_1"/>
            <polyline points="64.931,161.09 64.4465,161.161 63.943,161.236 63.3551,161.3271 62.751,161.425 62.1978,161.5223 61.7642,161.6087 61.3617,161.7453 60.8374,162.27999999999997 60.900000000000006,162.90319999999997" fill="none" stroke="black" stroke-width="0.1" id="_tag_1_23__1_1_1"/>
            <polyline points="55.8642,158.516 56.331599999999995,158.5416 56.853699999999996,158.5608 57.51219999999999,158.5732 58.26649999999999,158.5703 59.073899999999995,158.5439 59.893899999999995,158.4853 60.68429999999999,158.3863 61.39359999999999,158.2032 62.01839999999999,157.98950000000002 62.561499999999995,157.764 63.0252,157.54510000000002 63.4122,157.35250000000002 63.966,157.12050000000002" fill="none" stroke="black" stroke-width="0.1" id="_tag_1_24__1_1_1"/>
            <polyline points="59.4316,157.051 59.0178,157.1495 58.5677,157.2633 58.0152,157.41209999999998 57.4051,157.5895 56.782,157.7893 56.1907,158.0056 55.6762,158.23219999999998" fill="none" stroke="black" stroke-width="0.1" id="_tag_1_25__1_1_1"/>
            <polyline points="40.7123,173.712 40.8908,173.32999999999998 41.2833,173.063 41.828199999999995,172.93269999999998 42.46319999999999,172.96159999999998 43.109199999999994,173.16539999999998 43.60269999999999,173.4629 43.90109999999999,173.81289999999998" fill="none" stroke="black" stroke-width="0.1" id="_tag_1_26__1_1_1"/>
            <polygon points="43.9507,174.958 43.7341,175.318 43.3221,175.574 42.7707,175.7 42.1352,175.671 41.5116,175.492 40.819,175.038 40.625,174.658 40.6939,174.253 40.9906,173.928 41.4795,173.734 42.1052,173.696 42.7697,173.821 43.5418,174.218 43.8528,174.575" fill="none" stroke="black" stroke-width="0.1" id="_tag_1_27_"/>
            <polyline points="40.7206,174.156 40.5834,173.7389 40.4996,173.3455 40.7155,172.8998 41.1735,172.6044 41.8086,172.4604 42.5589,172.4894 43.2859,172.6909 43.8547,173.02439999999999 44.2068,173.4483 44.2839,173.9204 44.098400000000005,174.3027 43.696400000000004,174.6368" fill="none" stroke="black" stroke-width="0.1" id="_tag_1_28__1_1_1"/>
            <line x1="43.9507" y1="174.958" x2="43.9624" y2="174.174" fill="none" stroke="black" stroke-width="0.1" id="_tag_1_29_"/>
            <line x1="40.6352" y1="174.457" x2="40.7123" y2="173.712" fill="none" stroke="black" stroke-width="0.1" id="_tag_1_30_"/>
            <polyline points="55.4627,164.261 54.7148,164.3041 54.264199999999995,164.3195 53.795199999999994,164.32420000000002 53.3565,164.31160000000003 52.768499999999996,164.20730000000003 52.483799999999995,163.60820000000004 52.2861,163.08460000000005 52.0783,162.50300000000004 51.8812,161.93130000000005 51.7152,161.43830000000005 51.5578,160.96180000000007" fill="none" stroke="black" stroke-width="0.1" id="_tag_1_31__1_1_1"/>
            <polyline points="44.2037,154.185 44.6714,154.0859 45.2114,154.0045 45.916199999999996,153.9395 46.7559,153.91920000000002 47.7011,153.9719 48.7219,154.12550000000002 49.7887,154.4088 50.8291,154.8377 51.8048,155.33780000000002 52.6961,155.87400000000002 53.482800000000005,156.41090000000003 54.145100000000006,156.91350000000003 54.66290000000001,157.34650000000002 55.01650000000001,157.67470000000003 55.27570000000001,158.00540000000004 55.60370000000001,158.37760000000003 55.95850000000001,158.65840000000003 56.31790000000001,158.91140000000001 56.63110000000001,159.19090000000003 56.91550000000001,159.52790000000002" fill="none" stroke="black" stroke-width="0.1" id="_tag_1_32__1_1_1"/>
            <polyline points="32.5496,165.59 32.662,165.9747 32.9105,166.4546 33.3525,166.8844 34.1989,167.1155 34.967800000000004,167.267 35.879200000000004,167.4532 36.8455,167.6533 37.7785,167.8465 38.5904,168.0125 39.1929,168.13039999999998 39.6312,168.1932 39.9241,167.89669999999998 40.173300000000005,167.27229999999997 40.31830000000001,166.82409999999996 40.46220000000001,166.34939999999995 40.59370000000001,165.89629999999994 40.77430000000001,165.24789999999993 41.46690000000001,165.36399999999992 42.17210000000001,165.5938999999999 43.01180000000001,165.8703999999999 43.901900000000005,166.1672999999999 44.757200000000005,166.4584999999999 45.4928,166.7179999999999 46.024,166.9194999999999 46.4089,167.05429999999993 47.021800000000006,167.30319999999992 47.46410000000001,167.54059999999993 47.78300000000001,167.78539999999992" fill="none" stroke="black" stroke-width="0.1" id="_tag_1_33__1_1_1"/>
            <polyline points="37.3675,166.076 37.516799999999996,165.4617 37.632099999999994,164.69050000000001 37.6917,164.22240000000002 37.7514,163.71150000000003 37.810199999999995,163.16620000000003 37.916399999999996,162.24990000000003 38.1684,160.73060000000004 38.524499999999996,158.80380000000002 38.9439,156.66510000000002 39.3849,154.51000000000002 39.806200000000004,152.53430000000003 40.16630000000001,150.93340000000003 40.42400000000001,149.90320000000003 40.55720000000001,149.28810000000001 40.69690000000001,148.79760000000002 40.84290000000001,148.41150000000002 41.14860000000001,147.87220000000002 41.46820000000001,147.5098 41.960600000000014,147.05610000000001 42.30000000000001,146.7381 42.64460000000001,146.3858 42.98990000000001,145.9948 43.33150000000001,145.5605 43.66450000000001,145.07809999999998 43.98450000000001,144.54289999999997 44.28710000000001,143.95029999999997 44.71820000000001,142.57929999999996 44.86640000000001,141.18989999999997 44.746400000000015,139.81949999999998 44.37260000000001,138.50539999999998 43.760100000000016,137.28459999999998 42.923000000000016,136.19449999999998 41.876100000000015,135.27249999999998 40.63410000000002,134.5554 39.23940000000002,134.1102 37.82850000000002,133.94899999999998 36.44110000000002,134.0589 35.11650000000002,134.4265 33.89470000000002,135.03820000000002 32.81470000000002,135.8812 31.916600000000024,136.9418 31.240000000000023,138.207 31.086300000000023,138.6255 30.849700000000023,139.3517 30.555700000000023,140.30259999999998 30.230900000000023,141.3953 29.901200000000024,142.5469 29.592500000000022,143.6745 29.33100000000002,144.6951 29.14260000000002,145.52609999999999 28.98130000000002,146.2291 28.86180000000002,146.9003 28.78250000000002,147.54119999999998 28.74170000000002,148.15249999999997 28.737800000000018,148.73579999999998 28.769000000000016,149.2918 28.833700000000015,149.8219 28.930200000000013,150.3271 29.097900000000013,151.163 29.394000000000013,152.5722 29.772200000000012,154.34390000000002 30.18590000000001,156.26680000000002 30.58860000000001,158.1297 30.93400000000001,159.7219 31.17520000000001,160.832 31.266100000000012,161.2489" fill="none" stroke="black" stroke-width="0.1" id="_tag_1_34__1_1_1"/>
            <polyline points="37.6058,165.509 38.042100000000005,164.2438 38.4898,162.94 39.0034,161.435 39.5181,159.9142 39.968599999999995,158.5624 40.2895,157.5648 40.41589999999999,157.1061 40.718199999999996,156.13309999999998 40.9768,155.28869999999998 41.2626,154.35179999999997 41.542899999999996,153.43199999999996 41.784,152.63919999999996 41.952999999999996,152.08309999999997" fill="none" stroke="black" stroke-width="0.1" id="_tag_1_35__1_1_1"/>
            <polyline points="42.8972,147.896 42.4708,148.10639999999998 42.461499999999994,148.6246 42.62779999999999,149.33999999999997 42.73239999999999,149.76789999999997 42.83569999999999,150.19079999999997 42.99159999999999,150.86719999999997 43.23969999999999,151.23529999999997" fill="none" stroke="black" stroke-width="0.1" id="_tag_1_36__1_1_1"/>
            <polyline points="39.8383,168.2 39.33369999999999,168.5358 38.95609999999999,168.7862 38.54039999999999,169.1012 38.12039999999999,169.4881 37.73049999999999,169.9537 37.40409999999999,170.5058 37.17539999999999,171.15109999999999 37.036399999999986,171.8293 36.92749999999999,172.4084 36.837099999999985,172.9052 36.753399999999985,173.3369 36.558599999999984,174.0722 36.24899999999998,174.7492" fill="none" stroke="black" stroke-width="0.1" id="_tag_1_37__1_1_1"/>
            <polyline points="50.5516,162.406 50.4845,161.6673 50.304399999999994,161.0354 50.0303,160.5019 49.6817,160.0592 49.277,159.6996 48.835,159.4156 48.3745,159.19930000000002 47.914699999999996,159.04340000000002 47.326499999999996,158.88180000000003 46.6104,158.717 45.8305,158.5559 45.0498,158.4069 44.3318,158.27790000000002 43.7403,158.1766 43.3388,158.1096 42.5928,158.1709 42.1215,158.39839999999998 41.7812,158.8567 41.6845,159.3571 41.8795,159.7369 42.3033,160.0347 42.8933,160.2873 43.2916,160.42759999999998 43.8111,160.5992 44.4147,160.7928 45.0662,160.9978 45.7288,161.2057 46.3656,161.4057 46.94,161.58939999999998 47.4158,161.7453 47.910799999999995,161.9399 48.398599999999995,162.2123 48.9306,162.6265 49.419399999999996,163.20159999999998 49.778299999999994,163.95589999999999 49.919999999999995,164.90929999999997 49.7574,166.07999999999998 49.2437,167.89329999999998" fill="none" stroke="black" stroke-width="0.1" id="_tag_1_38__1_1_1"/>
            <polyline points="41.1859,155.614 41.806999999999995,155.7906 42.5945,155.9991 42.986,156.0929 43.5744,156.1965 43.9503,156.02249999999998 44.2836,155.593 44.5302,155.1138" fill="none" stroke="black" stroke-width="0.1" id="_tag_1_39__1_1_1"/>
            <line x1="42.8189" y1="152.158" x2="43.574" y2="156.197" fill="none" stroke="black" stroke-width="0.1" id="_tag_1_40_"/>
            <polyline points="43.6884,152.483 43.9576,154.3068 44.693599999999996,154.5547 45.236999999999995,154.656 45.8227,154.76770000000002 46.5332,154.90970000000002 47.3069,155.07070000000002 48.0813,155.24140000000003 48.792899999999996,155.41400000000002 49.3792,155.57920000000001 49.8499,155.716 50.315799999999996,155.92270000000002 50.7598,156.2033 51.164899999999996,156.562 51.514199999999995,157.0038 51.790699999999994,157.53300000000002 51.976299999999995,158.15540000000001 52.054899999999996,158.8742 52.0303,159.3202 51.9661,159.7355 51.757,160.4619 51.5851,160.99980000000002 51.4053,161.55740000000003 51.1951,162.20360000000002 50.977399999999996,162.86280000000002" fill="none" stroke="black" stroke-width="0.1" id="_tag_1_41__1_1_1"/>
            <polygon points="62.6654,138.431 60.1212,138.727 58.3411,136.472 59.3957,134.179 62.0717,133.959 63.6546,136.099" fill="none" stroke="black" stroke-width="0.1" id="_tag_1_42_"/>
            <polygon points="42.8457,131.167 42.7155,130.401 42.7554,129.992 42.8686,129.599 43.0908,129.239 43.3722,128.933 43.7013,128.688 44.0669,128.509 44.4569,128.401 44.8601,128.371 45.2651,128.425 45.66,128.567 46.0546,128.793 46.3835,129.104 46.6379,129.487 46.8092,129.93 48.3481,133.979 48.4761,134.361 48.5029,134.761 48.4471,135.162 48.3245,135.549 48.1132,135.941 47.8428,136.265 47.5233,136.521 47.1657,136.705 46.7802,136.816 46.3779,136.851 45.9684,136.808 45.5631,136.685 45.1947,136.44 44.8847,136.163 44.4691,135.529" fill="none" stroke="black" stroke-width="0.1" id="_tag_1_47_"/>
            <polyline points="47.2238,145.111 47.7418,144.9374 48.429899999999996,144.7349 49.2448,144.5165 50.1425,144.29510000000002 51.0796,144.0843 52.0124,143.8968 52.8975,143.74560000000002 53.6913,143.64400000000003 54.417,143.63000000000002 55.1998,143.69590000000002 56.032000000000004,143.81900000000002 56.906000000000006,143.97660000000002 57.81470000000001,144.1457 58.75050000000001,144.3034 59.70580000000001,144.42700000000002 60.67350000000001,144.49370000000002" fill="none" stroke="black" stroke-width="0.1" id="_tag_1_48__1_1_1"/>
            <polyline points="56.5125,163.81 55.888600000000004,163.5162 55.210300000000004,163.1557 54.804,162.8448 55.3609,162.6469 55.7709,162.59939999999997 56.2305,162.56049999999996 56.7039,162.53369999999995 57.1553,162.52189999999996 57.848499999999994,162.55569999999997" fill="none" stroke="black" stroke-width="0.1" id="_tag_1_51__1_1_1"/>
            <polyline points="42.0715,159.727 42.8845,159.5752 43.481100000000005,159.566 44.1822,159.6114 44.970800000000004,159.7195 45.830200000000005,159.8981 46.7432,160.1547 47.6937,160.49759999999998 48.5792,160.94009999999997 49.422,161.48579999999998 50.1988,162.11739999999998 50.8869,162.81719999999999 51.4631,163.5683 51.904599999999995,164.3529 52.1883,165.15380000000002 52.291399999999996,165.95370000000003" fill="none" stroke="black" stroke-width="0.1" id="_tag_1_52__1_1_1"/>
            <polyline points="49.8726,164.591 50.325199999999995,165.0832 50.60249999999999,165.6336 50.75699999999999,166.1676 50.79299999999999,166.67849999999999" fill="none" stroke="black" stroke-width="0.1" id="_tag_1_53__1_1_1"/>
            <polyline points="69.9776,161.179 70.2734,160.8693 70.98899999999999,160.98420000000002 71.61319999999999,161.11360000000002 72.3861,161.29010000000002 73.2677,161.51210000000003 74.2193,161.78110000000004 75.2048,162.09740000000005 76.183,162.46250000000006 76.21960000000001,163.01070000000007 75.87830000000001,163.60450000000006" fill="none" stroke="black" stroke-width="0.1" id="_tag_1_54__1_1_1"/>
            <polyline points="73.8586,162.532 73.6546,162.9753 73.4481,163.3665 73.142,163.923 72.72229999999999,164.6472 72.34939999999999,165.0049" fill="none" stroke="black" stroke-width="0.1" id="_tag_1_55__1_1_1"/>
            <polyline points="49.6416,171.021 50.2296,170.96779999999998 50.823499999999996,170.87699999999998 51.2827,170.7908 51.9631,170.55429999999998 53.2941,170.02739999999997 55.2229,169.27349999999998 57.5133,168.3946 59.9281,167.4926 62.2307,166.6694 64.1846,166.0264 65.553,165.666 66.5866,165.4941 67.6714,165.4176 68.81490000000001,165.4651 70.02400000000002,165.6656 71.30560000000001,166.0481 72.66720000000001,166.6411 74.1157,167.4736 75.65820000000001,168.5744 77.2792,169.8689 78.9171,171.2216 80.50970000000001,172.5707 81.99450000000002,173.85459999999998 83.30900000000001,175.0117 84.39080000000001,175.9804 85.17760000000001,176.6993 85.60690000000001,177.1064 86.01850000000002,177.3933 86.65060000000001,177.8108 87.40500000000002,178.3564 88.18320000000001,179.02700000000002 88.88730000000001,179.8196 89.41870000000002,180.7315 89.67930000000001,181.7597 89.57070000000002,182.9008" fill="none" stroke="black" stroke-width="0.1" id="_tag_1_56__1_1_1"/>
            <polyline points="52.2275,172.333 52.6862,172.1619 53.92,171.7061 55.7167,171.05259999999998 57.8633,170.2884 60.1473,169.5001 62.3562,168.7747 64.2771,168.1991 65.6974,167.8602 66.8013,167.6926 67.8521,167.6099 68.8741,167.6344 69.8917,167.7881 70.9295,168.09359999999998 72.0115,168.57269999999997 73.1623,169.24789999999996 74.406,170.14149999999995 75.6468,171.13559999999995 76.8518,172.13079999999997 77.9909,173.09029999999996 79.0341,173.97709999999995 79.9508,174.75389999999996 80.7108,175.38419999999996 81.28410000000001,175.83099999999996 81.64030000000001,176.05719999999997 82.45670000000001,176.32349999999997 83.02690000000001,176.47749999999996 83.65400000000001,176.64379999999997 84.29960000000001,176.82069999999996 84.92550000000001,177.00689999999997 85.49330000000002,177.2008 85.96470000000002,177.4012" fill="none" stroke="black" stroke-width="0.1" id="_tag_1_57__1_1_1"/>
            <polyline points="55.8642,158.516 56.331599999999995,158.5416 56.853699999999996,158.5608 57.51219999999999,158.5732 58.26649999999999,158.5703 59.073899999999995,158.5439 59.893899999999995,158.4853 60.68429999999999,158.3863 61.39359999999999,158.2032 62.01839999999999,157.98950000000002 62.561499999999995,157.764 63.0252,157.54510000000002 63.4122,157.35250000000002 63.966,157.12050000000002" fill="none" stroke="black" stroke-width="0.1" id="_tag_1_58__1_1_1"/>
            <polyline points="75.9971,161.564 76.46600000000001,161.493 76.94210000000001,161.403 77.4809,161.2749 77.89110000000001,161.1181 78.5485,160.88909999999998 79.38170000000001,160.6127 80.3186,160.31369999999998 81.2874,160.0167 82.21640000000001,159.74609999999998 83.0336,159.52649999999997 83.6674,159.38289999999998 84.1404,159.29899999999998 84.5774,159.27089999999998 84.984,159.29539999999997 85.7298,159.49099999999999 86.4238,159.86329999999998 86.7661,160.10829999999999 87.1477,160.4311 87.5848,160.8455 88.0446,161.31019999999998 88.4942,161.78349999999998 88.90100000000001,162.22409999999996 89.23230000000001,162.58999999999997 89.5366,162.93269999999998" fill="none" stroke="black" stroke-width="0.1" id="_tag_1_59__1_1_1"/>
            <polygon points="73.0768,183.616 73.8338,182.438 74.432,181.261 74.8637,180.116 75.1255,179.037 75.2125,178.055 75.12,177.202 74.8407,176.509 74.3716,176.011 73.7575,175.779 73.0581,175.695 73.1639,176.326 73.1662,177.039 73.0639,177.816 72.858,178.645 72.5492,179.509 72.1379,180.394 71.6247,181.284 71.011,182.165 70.3343,183.034 69.624,183.818 68.8906,184.509 68.1472,185.099 67.4052,185.579 66.6767,185.94 65.9735,186.173 65.3102,186.271 65.6232,186.89 66.1007,187.34 66.7587,187.617 67.5326,187.646 68.3945,187.447 69.3185,187.036 70.2752,186.431 71.2392,185.646 72.1822,184.703" fill="none" stroke="black" stroke-width="0.1" id="_tag_1_60_"/>
            <polygon points="71.011,182.165 71.7895,180.999 72.4029,179.833 72.8456,178.698 73.1126,177.627 73.1993,176.655 73.1026,175.815 72.8162,175.14 72.335,174.662 71.7207,174.431 71.0208,174.349 71.1358,174.959 71.1353,175.657 71.0249,176.43 70.8088,177.258 70.4916,178.128 70.0772,179.021 69.5695,179.923 68.972,180.817 68.2979,181.684 67.5924,182.461 66.8657,183.142 66.1284,183.719 65.3931,184.187 64.6715,184.537 63.973,184.762 63.3096,184.856 63.6046,185.509 64.0617,185.993 64.7304,186.25 65.5098,186.27 66.3718,186.065 67.2914,185.652 68.241,185.041 69.1952,184.246 70.1275,183.283" fill="none" stroke="black" stroke-width="0.1" id="_tag_1_61_"/>
            <line x1="75.9455" y1="181.222" x2="74.5794" y2="190.631" fill="none" stroke="black" stroke-width="0.1" id="_tag_1_62_"/>
            <line x1="72.336" y1="184.595" x2="71.5843" y2="189.878" fill="none" stroke="black" stroke-width="0.1" id="_tag_1_63_"/>
            <polyline points="71.2739,185.612 71.6295,185.9308 72.097,186.2743" fill="none" stroke="black" stroke-width="0.1" id="_tag_1_64__1_1_1"/>
            <polyline points="75.1224,187.051 75.9251,186.82829999999998 76.4324,186.5341 76.8112,186.1517 77.0801,185.7296 77.2574,185.3166 77.44420000000001,184.40619999999998 77.30000000000001,183.41949999999997 76.97540000000001,182.57819999999998 76.54400000000001,181.8849 76.08010000000002,181.3416 75.65710000000001,180.9507 75.14460000000001,179.72 75.2245,178.9611 75.88770000000001,178.7274 76.34580000000001,178.96189999999999 76.82870000000001,179.2824 77.40120000000002,179.76239999999999 78.00340000000001,180.4201 78.57540000000002,181.2739 79.05740000000002,182.3415 79.38970000000002,183.6413 79.41770000000002,184.773 79.16140000000003,185.8256 78.67600000000003,186.77530000000002 78.01610000000004,187.598 77.23730000000003,188.2697 76.39410000000004,188.7664 75.54190000000004,189.0643 74.73560000000005,189.1393" fill="none" stroke="black" stroke-width="0.1" id="_tag_1_65__1_1_1"/>
            <polyline points="69.7119,186.867 70.0846,187.21079999999998 70.6558,187.66699999999997 71.0055,187.90719999999996 71.3832,188.13049999999996 71.7783,188.31839999999997" fill="none" stroke="black" stroke-width="0.1" id="_tag_1_66__1_1_1"/>
            <polyline points="56.7433,180.72 55.9859,180.4715 55.509100000000004,180.02089999999998 55.1961,179.4003 54.5992,179.3698" fill="none" stroke="black" stroke-width="0.1" id="_tag_1_67__1_1_1"/>
            <polygon points="73.0768,183.616 73.8338,182.438 74.432,181.261 74.8637,180.116 75.1255,179.037 75.2125,178.055 75.12,177.202 74.8407,176.509 74.3716,176.011 73.7575,175.779 73.0581,175.695 73.1639,176.326 73.1662,177.039 73.0639,177.816 72.858,178.645 72.5492,179.509 72.1379,180.394 71.6247,181.284 71.011,182.165 70.3343,183.034 69.624,183.818 68.8906,184.509 68.1472,185.099 67.4052,185.579 66.6767,185.94 65.9735,186.173 65.3102,186.271 65.6232,186.89 66.1007,187.34 66.7587,187.617 67.5326,187.646 68.3945,187.447 69.3185,187.036 70.2752,186.431 71.2392,185.646 72.1822,184.703" fill="none" stroke="black" stroke-width="0.1" id="_tag_1_68_"/>
            <polygon points="71.011,182.165 71.7895,180.999 72.4029,179.833 72.8456,178.698 73.1126,177.627 73.1993,176.655 73.1026,175.815 72.8162,175.14 72.335,174.662 71.7207,174.431 71.0208,174.349 71.1358,174.959 71.1353,175.657 71.0249,176.43 70.8088,177.258 70.4916,178.128 70.0772,179.021 69.5695,179.923 68.972,180.817 68.2979,181.684 67.5924,182.461 66.8657,183.142 66.1284,183.719 65.3931,184.187 64.6715,184.537 63.973,184.762 63.3096,184.856 63.6046,185.509 64.0617,185.993 64.7304,186.25 65.5098,186.27 66.3718,186.065 67.2914,185.652 68.241,185.041 69.1952,184.246 70.1275,183.283" fill="none" stroke="black" stroke-width="0.1" id="_tag_1_69_"/>
            <polygon points="68.972,180.817 69.7624,179.632 70.3802,178.456 70.8205,177.317 71.0808,176.25 71.1575,175.28 71.0431,174.442 70.7347,173.764 70.23,173.277 69.8337,173.058 69.1625,172.98 69.0985,173.609 69.1016,174.301 68.9971,175.065 68.7838,175.886 68.4707,176.751 68.0541,177.646 67.5422,178.556 66.933,179.47 66.2599,180.336 65.5534,181.114 64.8267,181.794 64.0902,182.372 63.3553,182.839 62.6325,183.189 61.9342,183.414 61.2716,183.509 61.5856,184.129 62.0638,184.58 62.7209,184.856 63.4941,184.885 64.354,184.685 65.2727,184.271 66.2222,183.661 67.1733,182.87 68.1002,181.916" fill="none" stroke="black" stroke-width="0.1" id="_tag_1_70_"/>
            <polygon points="66.933,179.47 67.7351,178.266 68.3581,177.08 68.8025,175.938 69.0618,174.87 69.1378,173.899 69.0253,173.057 68.7242,172.369 68.229,171.864 67.8076,171.691 67.1514,171.589 67.0963,172.197 67.0965,172.897 66.9862,173.669 66.771,174.498 66.4538,175.367 66.0386,176.26 65.5305,177.163 64.9334,178.056 64.255,178.923 63.5396,179.704 62.7996,180.388 62.0514,180.967 61.3096,181.438 60.5889,181.787 59.9054,182.01 59.2719,182.097 59.5526,182.774 60.0249,183.232 60.6936,183.49 61.4717,183.51 62.3331,183.309 63.2489,182.898 64.1947,182.295 65.1405,181.514 66.0629,180.566" fill="none" stroke="black" stroke-width="0.1" id="_tag_1_71_"/>
            <polygon points="64.9334,178.056 65.7246,176.872 66.3412,175.696 66.7837,174.557 67.0439,173.489 67.1187,172.52 67.0044,171.681 66.6968,171.003 66.1932,170.516 65.7961,170.296 65.1249,170.219 65.0609,170.847 65.0638,171.54 64.9593,172.305 64.747,173.126 64.4329,173.991 64.0182,174.886 63.5041,175.797 62.8972,176.71 62.2194,177.574 61.5068,178.347 60.7718,179.023 60.028,179.596 59.2884,180.061 58.5676,180.411 57.8781,180.643 57.2346,180.748 57.5476,181.368 58.0249,181.818 58.6638,182.084 59.4271,182.109 60.2873,181.907 61.2094,181.496 62.1663,180.89 63.1257,180.103 64.0587,179.154" fill="none" stroke="black" stroke-width="0.1" id="_tag_1_72_"/>
            <polyline points="62.9399,170.67 62.720600000000005,171.7343 62.2937,172.90189999999998 61.6788,174.1102 60.896100000000004,175.2947 60.217400000000005,176.1629 59.5001,176.9444 58.7592,177.6304 58.008,178.2159 57.261500000000005,178.6934 56.53450000000001,179.0541 55.84120000000001,179.2923 55.195600000000006,179.4009" fill="none" stroke="black" stroke-width="0.1" id="_tag_1_73__1_1_1"/>
            <polyline points="56.7433,180.72 57.4053,180.7339 58.26499999999999,180.53130000000002 59.18579999999999,180.12410000000003 60.1386,179.52530000000002 61.0937,178.74790000000002 62.0227,177.8043 62.8967,176.7092 63.4919,175.81830000000002 63.9968,174.92400000000004 64.4097,174.03910000000005 64.7272,173.17990000000006 64.9482,172.36000000000007 65.0706,171.59300000000007 65.0923,170.89380000000008 65.01079999999999,170.27700000000007" fill="none" stroke="black" stroke-width="0.1" id="_tag_1_74__1_1_1"/>
            <polyline points="60.4156,171.238 60.075399999999995,171.9156 59.700599999999994,172.59640000000002 59.29339999999999,173.2758 58.85859999999999,173.9464 58.18139999999999,174.81210000000002 57.46869999999999,175.5857 56.73389999999999,176.2615 55.989999999999995,176.835 55.250899999999994,177.29940000000002 54.52949999999999,177.65060000000003 53.84039999999999,177.88080000000002 53.19599999999999,177.9867" fill="none" stroke="black" stroke-width="0.1" id="_tag_1_75__1_1_1"/>
            <polyline points="51.0914,176.602 52.1418,176.3915 53.0737,175.9836 54.0358,175.37969999999999 55.0035,174.59449999999998 55.9528,173.64079999999998 56.8581,172.53369999999998" fill="none" stroke="black" stroke-width="0.1" id="_tag_1_76__1_1_1"/>
            <polyline points="75.9229,189.823 76.3272,189.3305 76.8388,188.94050000000001 77.56240000000001,188.6553 78.00810000000001,188.5334 78.47630000000001,188.3956 78.9505,188.2364 79.41430000000001,188.0507 79.85130000000001,187.8329 80.24490000000002,187.5777 80.57860000000001,187.2798 80.83600000000001,186.9337 81.0323,186.51579999999998 81.25970000000001,186.0128 81.50090000000002,185.4684 81.73790000000001,184.9256 81.95320000000001,184.4279 82.12890000000002,184.0188 82.29070000000002,183.6393" fill="none" stroke="black" stroke-width="0.1" id="_tag_1_77__1_1_1"/>
            <polygon points="87.0109,182.308 86.4644,182.896 85.9044,183.009 85.2321,182.958 84.6007,182.812 84.1127,182.534 83.8085,182.164 83.7319,181.744 84.3323,181.177 84.8912,181.037 85.5487,181.029 86.1668,181.218 86.8393,181.708 87.0218,182.106" fill="none" stroke="black" stroke-width="0.1" id="_tag_1_78_"/>
            <polyline points="83.8061,182.226 83.628,181.8132 83.6198,181.2328 83.9666,180.8696 84.5208,180.64669999999998 85.2208,180.5861 85.9967,180.6865 86.6598,180.9467 87.12830000000001,181.3296 87.3585,181.7689 87.2561,182.2639 86.9237,182.6488" fill="none" stroke="black" stroke-width="0.1" id="_tag_1_79__1_1_1"/>
            <polyline points="77.4937,189.232 78.29570000000001,188.9784 78.88780000000001,188.8215 79.57420000000002,188.66959999999997 80.32960000000001,188.54079999999996 81.12900000000002,188.45409999999995 81.94730000000001,188.42759999999996 82.75950000000002,188.47999999999996 83.72760000000002,188.62529999999995 84.93330000000002,188.78159999999994 86.26360000000001,188.93959999999993 87.60530000000001,189.08979999999994 88.84560000000002,189.22329999999994 89.87160000000002,189.32999999999993 90.57000000000002,189.40119999999993" fill="none" stroke="black" stroke-width="0.1" id="_tag_1_80__1_1_1"/>
            <polyline points="88.2326,195.933 87.67020000000001,195.8139 87.11090000000002,195.7025 86.57650000000001,195.6017 86.08940000000001,195.5135 85.67180000000002,195.4406 85.13430000000002,195.35049999999998 84.91840000000002,194.5905 84.83100000000002,194.10909999999998 84.73730000000002,193.57459999999998 84.64550000000001,193.0245 84.56370000000001,192.4966 84.50000000000001,192.0285 84.40610000000001,191.2457 84.2861,190.8415 84.0924,190.4436 83.80669999999999,190.0626 83.41019999999999,189.70940000000002 82.88439999999999,189.39540000000002 82.21059999999999,189.13120000000004 81.52519999999998,188.94540000000003 80.85109999999999,188.84630000000004 80.18829999999998,188.82420000000005 79.53779999999999,188.86860000000004 78.89999999999999,188.96990000000005 78.2755,189.11800000000005 77.6648,189.30300000000005 77.0685,189.51510000000005 76.5145,189.74680000000004 76.0204,189.98760000000004 75.5709,190.21890000000005 75.1506,190.42300000000006 74.7441,190.58140000000006 74.33630000000001,190.67600000000007 73.91170000000001,190.68910000000008 73.45500000000001,190.6020000000001 72.89570000000002,190.40830000000008 72.20320000000002,190.1295000000001 71.41980000000002,189.7903000000001 70.58810000000003,189.41520000000008 69.75070000000002,189.0285000000001 68.95030000000003,188.65480000000008 68.22930000000002,188.3187000000001 67.63040000000002,188.04440000000008 67.10010000000003,187.85400000000007 66.61270000000003,187.76670000000007 66.17660000000004,187.75830000000008 65.49350000000004,187.88300000000007 65.11900000000004,188.03710000000007" fill="none" stroke="black" stroke-width="0.1" id="_tag_1_81__1_1_1"/>
            <polyline points="91.217,189.209 90.704,188.8634 90.4251,188.4516 90.2852,187.68370000000002 90.327,186.92680000000001 90.4253,185.9994 90.55739999999999,185.00730000000001 90.69919999999999,184.0542 90.82919999999999,183.2441 90.92339999999999,182.68110000000001 90.91739999999999,181.9753" fill="none" stroke="black" stroke-width="0.1" id="_tag_1_82__1_1_1"/>
            <polyline points="91.0742,189.305 91.1324,189.7837 91.1632,190.7795 91.27210000000001,191.3023 91.4749,191.8965 91.7913,192.5201 92.2467,193.1303 92.86200000000001,193.68120000000002 93.6624,194.13100000000003 94.63430000000001,194.56510000000003 95.73440000000001,195.02920000000003 96.89210000000001,195.49740000000003 98.03710000000001,195.94340000000003 99.09800000000001,196.3411 100.00430000000001,196.66490000000002 100.68660000000001,196.88860000000003 101.40550000000002,197.03440000000003" fill="none" stroke="black" stroke-width="0.1" id="_tag_1_83__1_1_1"/>
            <polyline points="86.0868,174.131 86.7066,174.3409 87.1947,174.5072 87.73089999999999,174.692 88.26259999999999,174.8788 88.73599999999999,175.04850000000002 89.38369999999999,175.3804 89.60099999999998,175.86520000000002 89.81739999999998,176.47400000000002 89.96099999999998,176.9164 90.11679999999998,177.3959 90.75769999999999,177.66750000000002 91.84109999999998,178.04000000000002 93.33689999999999,178.56420000000003 95.04299999999999,179.17000000000002 96.755,179.78750000000002 98.2689,180.3463 99.38040000000001,180.77650000000003 100.2873,181.20340000000002 100.80030000000001,181.5028 101.2826,181.9981 101.5915,182.78119999999998 101.7148,183.5177 101.8053,184.3113 101.82300000000001,185.13129999999998 101.72730000000001,185.9459 101.47890000000001,186.727 101.03720000000001,187.4432 100.36190000000002,188.0643 99.41160000000002,188.5595 98.30950000000001,188.9677 97.22320000000002,189.3444 96.18620000000001,189.6836 95.23400000000001,189.98170000000002 94.39880000000001,190.2306 93.7167,190.42790000000002 93.2195,190.56650000000002 92.55149999999999,190.66700000000003 92.11319999999999,190.51650000000004 91.70739999999999,190.25330000000002 91.41269999999999,189.93730000000002" fill="none" stroke="black" stroke-width="0.1" id="_tag_1_84__1_1_1"/>
            <polyline points="100.508,182.07 99.8061,182.11509999999998 98.6564,182.2539 97.22540000000001,182.4555 95.68010000000001,182.6896 94.1876,182.925 92.9149,183.1311 92.0287,183.2774 91.6236,183.342 91.2363,183.55030000000002" fill="none" stroke="black" stroke-width="0.1" id="_tag_1_85__1_1_1"/>
            <polyline points="82.6063,171.164 82.793,170.672 83.0806,170.2339 83.4577,169.8552 83.9123,169.542 84.4334,169.2996 85.00930000000001,169.1341 85.62840000000001,169.0514 86.27910000000001,169.0569 86.88430000000001,169.1612 87.4466,169.345 87.9578,169.6003 88.40910000000001,169.9189 88.79150000000001,170.29250000000002 89.09630000000001,170.7135 89.31500000000001,171.1731 89.43830000000001,171.6637" fill="none" stroke="black" stroke-width="0.1" id="_tag_1_86__1_1_1"/>
            <polyline points="89.6353,172.392 89.8453,172.9395 90.4091,173.7123 91.5264,174.5899 92.3501,175.0069 93.5397,175.4658 95.1884,176.0953 97.1633,176.85340000000002 99.32780000000001,177.70090000000002 101.54750000000001,178.5952 103.686,179.4982 105.6093,180.3661 107.1819,181.1618 108.115,181.6797 108.9657,182.10999999999999 109.3312,182.2728 110.0423,182.4543" fill="none" stroke="black" stroke-width="0.1" id="_tag_1_87__1_1_1"/>
            <polyline points="101.623,181.657 103.0254,182.2834 105.5244,183.45 106.8781,184.1232 108.1362,184.7957 109.0378,185.33030000000002 109.8729,185.96030000000002 110.6559,186.87760000000003 111.06190000000001,187.80870000000002 111.16120000000001,188.72740000000002" fill="none" stroke="black" stroke-width="0.1" id="_tag_1_88__1_1_1"/>
            <polyline points="81.8859,167.792 82.0678,167.313 82.3371,166.8887 82.61580000000001,166.5564 83.0888,166.1789 83.6422,165.8846 84.2595,165.6835 84.9264,165.58700000000002 85.6272,165.60580000000002 86.3254,165.7177 86.9608,165.9365 87.5224,166.2477 87.9987,166.63920000000002 88.3778,167.09930000000003 88.6488,167.61510000000004 88.8014,168.17220000000003 88.8223,168.75990000000004 88.6339,169.35860000000005 88.62389999999999,169.90770000000006" fill="none" stroke="black" stroke-width="0.1" id="_tag_1_89__1_1_1"/>
            <polyline points="82.0868,163.154 81.6497,163.8682 81.4798,164.6472 81.4573,165.166 81.492,165.7015 81.6568,167.5276 81.7733,168.2579 81.93230000000001,168.798 82.13950000000001,169.2261 82.37870000000001,169.61860000000001 82.68100000000001,170.19840000000002 82.69860000000001,170.80370000000002" fill="none" stroke="black" stroke-width="0.1" id="_tag_1_90__1_1_1"/>
            <polyline points="86.8396,162.306 85.9792,162.1054 85.5292,162.0232 84.9533,161.9897 84.2802,162.0492 83.5415,162.2486 82.7664,162.63580000000002 81.9867,163.25560000000002" fill="none" stroke="black" stroke-width="0.1" id="_tag_1_91__1_1_1"/>
            <polyline points="86.8507,163.935 87.4645,164.09980000000002 88.1774,164.30380000000002 89.11240000000001,164.58720000000002 90.2334,164.94870000000003 91.504,165.38710000000003 92.8878,165.90060000000003 94.3487,166.48830000000004 95.83579999999999,167.08810000000003 97.321,167.72180000000003 98.7685,168.39570000000003 100.1431,169.11600000000004 101.4092,169.88930000000005 102.5309,170.72180000000006 103.4727,171.62010000000006 104.1992,172.59040000000007" fill="none" stroke="black" stroke-width="0.1" id="_tag_1_92__1_1_1"/>
            <polyline points="88.7438,170.123 88.96849999999999,169.63639999999998 89.3085,169.33419999999998 89.8521,169.26489999999998 90.3869,169.39339999999999 91.18549999999999,169.654 92.14479999999999,170.0009 93.16149999999999,170.3879 94.1321,170.769 94.95339999999999,171.098 95.52199999999999,171.32930000000002 96.445,171.19350000000003 97.26849999999999,171.03780000000003 98.34639999999999,170.96260000000004 99.63569999999999,171.05010000000004 101.09309999999999,171.38260000000005 102.67519999999999,172.04210000000006 104.3393,173.11120000000005" fill="none" stroke="black" stroke-width="0.1" id="_tag_1_93__1_1_1"/>
            <polyline points="88.7438,170.123 88.96849999999999,169.63639999999998 89.3085,169.33419999999998 89.8521,169.26489999999998 90.3869,169.39339999999999 91.18549999999999,169.654 92.14479999999999,170.0009 93.16149999999999,170.3879 94.1321,170.769 94.95339999999999,171.098 95.52199999999999,171.32930000000002 96.445,171.19350000000003 97.26849999999999,171.03780000000003 98.34639999999999,170.96260000000004 99.63569999999999,171.05010000000004 101.09309999999999,171.38260000000005 102.67519999999999,172.04210000000006 104.3393,173.11120000000005" fill="none" stroke="black" stroke-width="0.1" id="_tag_1_94__1_1_1"/>
            <polyline points="95.5262,171.472 94.86670000000001,171.853 94.42630000000001,172.1802 93.92170000000002,172.6268 93.37990000000002,173.2043 92.82830000000003,173.9245 92.29430000000002,174.7988" fill="none" stroke="black" stroke-width="0.1" id="_tag_1_95__1_1_1"/>
            <polyline points="92.6721,174.753 93.6482,174.49579999999997 94.7553,174.28229999999996 96.1744,174.10819999999995 97.8302,174.04529999999994 99.6474,174.16579999999993 101.5502,174.54169999999993 103.4636,175.24489999999994 105.46809999999999,176.35269999999994 107.01129999999999,177.50549999999996 108.15259999999999,178.64349999999996 108.952,179.70759999999996 109.4695,180.63839999999996 109.76509999999999,181.37669999999997 109.89849999999998,181.86319999999998" fill="none" stroke="black" stroke-width="0.1" id="_tag_1_96__1_1_1"/>
            <polyline points="17.2452,181.224 18.1152,180.054 19.3435,178.978 32.0012,171.242" fill="none" stroke="black" stroke-width="0.1" id="_152333272"/>
        </g>
        <polyline points="43.2321,264.624 43.8054880859375,266.98625507812505 44.7735109375,269.165878125 46.095381445312505,271.122080859375 47.7303125,272.814075 49.6375169921875,274.20107226562504 51.776207812500004,275.24228437500005 54.10559785156251,275.89692304687503 56.584900000000005,276.12420000000003 56.584900000000005,276.12420000000003 56.715779101562504,276.1235775390625 56.8463640625,276.1217140625 56.97665136718751,276.11861542968757 57.106637500000005,276.11428750000005 57.236318945312505,276.10873613281257 57.36569218750001,276.1019671875 57.49475371093751,276.09398652343754 57.62350000000001,276.08480000000003" fill="none" stroke="black" stroke-width="0.1" id="_154592512_2"/>
    </g>
</svg>

