<!DOCTYPE svg PUBLIC "-//W3C//DTD SVG 1.1//EN" "http://www.w3.org/Graphics/SVG/1.1/DTD/svg11.dtd">
<svg xmlns="http://www.w3.org/2000/svg" width="297mm" height="210mm" viewBox="0 0 297 210">
    <defs id="_tag_127_"/>
    <g id="Ebene_x0020_1">
        <polygon points="78.4245,71.479 79.8993158203125,70.4929154296875 81.2380453125,69.26937968749999 82.42202402343749,67.83140722656249 83.43258749999998,66.20201250000001 84.2510712890625,64.40420996093751 84.8588109375,62.4610140625 85.23714199218749,60.3954392578125 85.36739999999999,58.2305 85.36739999999999,56.1063 86.58089999999999,56.1063 86.58089999999999,81.6374 86.60920527343748,83.35848203125 86.68657343749999,85.07784375 86.80168300781247,86.79588359375 86.94321249999999,88.513 87.09984042968749,90.22959140625 87.26024531249998,91.94605625 87.41310566406248,93.66279296875 87.54709999999999,95.3802 82.49449999999999,93.5454 73.80079999999998,93.7806 69.28349999999998,95.3802 69.43091835937497,93.6629365234375 69.58849687499998,91.9465484375 69.74704570312498,90.2305142578125 69.89737499999998,88.5143125 70.03029492187497,86.7974216796875 70.13661562499998,85.0793203125 70.20714726562498,83.3594869140625 70.23269999999998,81.6374 70.23269999999998,73.8086 70.32052050781247,73.5761380859375 70.56236406249998,73.3818171875 70.92580371093747,73.2217595703125 71.37841249999998,73.09208749999999 71.88776347656248,72.9889232421875 72.42142968749998,72.90838906249999 72.94698417968748,72.8466072265625 73.43199999999997,72.7997 73.43199999999997,72.7997 73.53946757812497,72.7887654296875 73.64580312499996,72.7756921875 73.75135585937497,72.7610509765625 73.85647499999997,72.7454125 73.96150976562498,72.7293474609375 74.06680937499999,72.7134265625 74.17272304687498,72.69822050781251 74.27959999999997,72.68430000000001 74.27959999999997,72.68430000000001 74.82411015624997,72.60653867187501 75.36179999999997,72.50705312500001 75.89230859374997,72.386291015625 76.41527499999998,72.24470000000001 76.93033828124997,72.082727734375 77.43713749999996,71.900821875 77.93531171874997,71.699430078125 78.42449999999997,71.47900000000001" fill="none" stroke="black" stroke-width="0.1" id="_new_114_1"/>
        <polyline points="86.5809,58.2305 86.42767167968749,60.3954392578125 85.98267343750001,62.4610140625 85.2679353515625,64.40420996093751 84.3054875,66.20201250000001 83.1173599609375,67.83140722656249 81.72558281250001,69.26937968749999 80.1521861328125,70.4929154296875 78.4192,71.479" fill="none" stroke="black" stroke-width="0.1" id="_new_115_1"/>
        <polyline points="86.9033,88.0531 86.6726677734375,86.405426953125 86.4477671875,84.912715625 86.1685923828125,83.58847773437499 85.7751375,82.446225 85.20739667968749,81.499469140625 84.40536406250001,80.761721875 83.30903378906251,80.246494921875 81.8584,79.9673 81.8584,79.9673 80.9866791015625,79.88302929687501 80.11496406250001,79.823946875 79.2432513671875,79.789497265625 78.3715375,79.779125 77.4998189453125,79.792274609375 76.62809218750002,79.828390625 75.7563537109375,79.886917578125 74.8846,79.9673 74.8846,79.9673 73.4252849609375,80.3775685546875 72.32154843750001,81.02543593749999 71.5156908203125,81.87788222656249 70.95001250000001,82.9018875 70.5668138671875,84.0644318359375 70.30839531250001,85.3324953125 70.11705722656251,86.6730580078125 69.9351,88.0531" fill="none" stroke="black" stroke-width="0.1" id="_new_116_1"/>
        <polygon points="88.4186,99.4416 88.3006728515625,100.98164257812499 87.95861406249999,102.44770937499999 87.41000761718749,103.82223398437499 86.6724375,105.08765 85.7634876953125,106.226391015625 84.7007421875,107.22089062500001 83.50178496093751,108.05358242187499 82.1842,108.70689999999999 82.1842,108.70689999999999 82.1068009765625,108.7420830078125 82.02717656250002,108.77305781249999 81.9454732421875,108.79967558593749 81.86183750000001,108.82178749999999 81.77641582031251,108.83924472656248 81.68935468750001,108.85189843749998 81.60080058593752,108.85959980468749 81.5109,108.86219999999999 81.5109,108.86219999999999 81.2013365234375,108.83098496093749 80.91299218750001,108.74146093749998 80.65204863281251,108.59980957031249 80.42468750000002,108.4122125 80.23709042968751,108.18485136718749 80.0954390625,107.92390781249999 80.00591503906251,107.6355634765625 79.97470000000001,107.326 79.97470000000001,107.326 79.97717519531251,107.238315234375 79.98450781250001,107.15190312499999 79.99655839843751,107.06690195312498 80.01318750000002,106.98345 80.03425566406251,106.901685546875 80.05962343750002,106.821746875 80.08915136718751,106.74377226562498 80.12270000000001,106.66789999999999 80.11980000000001,106.66709999999999 82.56090000000002,101.44389999999999 82.66477597656252,101.21348457031247 82.75615156250001,100.97656406249997 82.83461074218752,100.73355214843748 82.89973750000001,100.48486249999999 82.95111582031252,100.23090878906248 82.98832968750001,99.97210468749998 83.01096308593753,99.70886386718749 83.01860000000002,99.44159999999998 83.01860000000002,99.44159999999998 82.92512753906252,98.51465722656248 82.65705156250002,97.65124531249998 82.23288417968752,96.86987636718747 81.67113750000003,96.18906249999999 80.99032363281253,95.62731582031249 80.20895468750003,95.20314843749998 79.34554277343751,94.93507246093749 78.41860000000003,94.84159999999999 78.41860000000003,94.84159999999999 77.74023593750003,94.89131093749998 77.09270625000002,95.03571874999999 76.48307968750002,95.26773593749999 75.91842500000004,95.58027499999999 75.40581093750002,95.96624843749998 74.95230625000002,96.41856874999999 74.56497968750003,96.93014843749998 74.25090000000003,97.49389999999998 74.25080000000003,97.49379999999998 71.79690000000002,102.74519999999998 71.69441621093753,102.94141484374998 71.56574218750004,103.11975624999998 71.41343144531253,103.27766953124998 71.24003750000003,103.41259999999998 71.04811386718752,103.52199296874997 70.84021406250002,103.60329374999998 70.61889160156251,103.65394765624997 70.38670000000002,103.67139999999998 70.38670000000002,103.67139999999998 70.11932363281252,103.64818808593748 69.86701406250002,103.58117968749997 69.63370058593752,103.47431582031248 69.42331250000001,103.33153749999997 69.23977910156252,103.15678574218748 69.0870296875,102.95400156249997 68.96899355468751,102.72712597656246 68.88960000000002,102.48009999999998 68.88960000000002,102.48009999999998 68.78159238281252,102.11789140624997 68.68703906250002,101.75009999999997 68.6062318359375,101.37700234374998 68.53946250000001,100.99887499999997 68.48702285156251,100.61599453124998 68.44920468750001,100.22863749999998 68.4262998046875,99.83708046874999 68.41860000000001,99.44159999999998 68.41860000000001,99.44159999999998 68.62180332031252,97.42652324218749 69.2045828125,95.54954843749998 70.12669277343751,93.85092128906248 71.34788750000001,92.37088749999998 72.82792128906252,91.14969277343748 74.52654843750001,90.22758281249997 76.40352324218752,89.64480332031249 78.41860000000001,89.44159999999998 78.41860000000001,89.44159999999998 80.4336767578125,89.64480332031249 82.31065156250001,90.22758281249997 84.00927871093751,91.14969277343748 85.48931250000001,92.37088749999998 86.71050722656251,93.85092128906248 87.63261718750002,95.54954843749998 88.2153966796875,97.42652324218749 88.41860000000001,99.44159999999998" fill="none" stroke="black" stroke-width="0.1" id="_new_117_1"/>
        <circle cx="78.4186" cy="99.4416" r="4.500" fill="none" stroke="black" stroke-width="0.1" id="_tag_128_"/>
        <circle cx="78.4186" cy="99.4416" r="4.600" fill="none" stroke="black" stroke-width="0.1" id="center_00"/>
    </g>
</svg>
