<!DOCTYPE svg PUBLIC "-//W3C//DTD SVG 1.1//EN" "http://www.w3.org/Graphics/SVG/1.1/DTD/svg11.dtd">
<svg xmlns="http://www.w3.org/2000/svg" width="297mm" height="210mm" viewBox="0 0 297 210">
    <defs id="_tag_4_"/>
    <g id="_tag_5_">
        <polygon id="_new_355_1" points="-7.1951,174.478 -3.4897,176.071 0.4448,177.538 4.5795,178.9 8.881,180.175 13.316,181.381 17.8512,182.534 22.4529,183.652 27.088,184.753 28.5486,185.098 30.0089,185.445 31.4686,185.792 32.9275,186.143 34.3851,186.495 35.8414,186.852 37.2958,187.214 38.748,187.58 38.4899,188.604 37.0656,188.245 35.6288,187.888 34.1812,187.533 32.7249,187.181 31.2613,186.83 29.7924,186.48 28.3199,186.13 26.8457,185.781 22.192,184.677 17.5709,183.553 13.0151,182.394 8.5577,181.182 4.231,179.898 0.0681,178.524 -3.8986,177.044 -7.6362,175.439" fill="none" stroke="black" stroke-width="0.1"/>

        <polyline id="_new_210_1___0" class="fil0 str0" points="-76.1065,143.169 -74.6415,144.95170000000002 -73.0942,146.66740000000001 -71.455,148.32010000000002 -69.714,149.91410000000002 -67.8612,151.45370000000003 -65.887,152.94290000000004 -63.7815,154.38610000000003 -61.5347,155.78750000000002 -61.5347,155.78750000000002 -57.6115,157.9618 -53.2607,160.06310000000002 -48.4434,162.1081 -43.1213,164.1131 -37.255399999999995,166.0948 -30.807499999999994,168.0695 -23.738599999999995,170.0539 -16.010099999999994,172.06459999999998 -17.349299999999992,177.38959999999997 -25.281699999999994,175.32459999999998 -32.54579999999999,173.28139999999996 -39.18159999999999,171.24289999999996 -45.22939999999999,169.19199999999995 -50.72899999999999,167.11139999999995 -55.720699999999994,164.98379999999995 -60.244299999999996,162.79219999999995 -64.3402,160.51919999999996 -64.3402,160.51919999999996 -66.1071,159.43239999999994 -67.7943,158.32429999999994 -69.4055,157.19299999999993 -70.9445,156.03699999999992 -72.4152,154.85459999999992 -73.8212,153.64439999999993 -75.1666,152.40439999999992 -76.455,151.13319999999993" fill="none" stroke="black" stroke-width="0.1"/>

        <polygon id="path10_1" points="90.1431,179.567 90.0972,180.182 90.0234,180.821 89.9305,181.46 89.8186,182.099 89.6867,182.738 89.5355,183.376 89.3642,184.013 89.1727,184.649 87.6355,184.511 86.0886,185.07 85.1138,185.959 84.5019,187.129 84.3267,188.437 84.7489,190.027 85.7698,191.249 85.3755,191.757 84.9663,192.254 84.5423,192.74 84.1038,193.213 83.651,193.673 83.1843,194.121 82.7039,194.556 82.2099,194.977 80.9302,193.983 79.3265,193.617 78.0255,193.838 76.8785,194.491 76.024,195.497 75.5198,197.062 75.7234,198.685 75.4331,198.788 75.1407,198.887 74.8462,198.983 74.5495,199.075 74.2507,199.162 73.9498,199.246 73.6467,199.326 73.3416,199.402 73.3416,199.402 73.0125,199.478 72.6835,199.549 72.3545,199.615 72.0256,199.675 71.6968,199.731 71.3682,199.781 71.0399,199.827 70.7118,199.867 70.1684,198.326 69.0171,197.151 67.803,196.634 66.4852,196.563 65.2226,196.947 63.9519,197.992 63.2552,199.447 62.625,199.291 62.0008,199.117 61.3831,198.925 60.772,198.714 60.1682,198.487 59.5718,198.242 58.9832,197.98 58.4029,197.701 58.767,196.161 58.4335,194.551 57.6919,193.459 56.6215,192.687 55.3517,192.327 53.718,192.519 52.4158,193.323 51.9742,192.855 51.5458,192.373 51.131,191.878 50.7301,191.37 50.3436,190.849 49.9717,190.315 49.6149,189.769 49.2736,189.21 50.3457,188.176 50.9361,186.641 50.9023,185.322 50.4193,184.093 49.5454,183.105 48.0673,182.383 46.6528,182.357 46.5312,181.705 46.4297,181.053 46.3481,180.402 46.2862,179.752 46.2438,179.104 46.2208,178.458 46.2169,177.815 46.2319,177.174 47.5782,176.906 48.905,175.934 49.5899,174.805 49.8476,173.511 49.647,172.207 48.794,170.8 47.7079,170.074 47.9545,169.467 48.2189,168.868 48.5007,168.277 48.7998,167.695 49.1158,167.122 49.4485,166.559 49.7977,166.006 50.1632,165.464 51.3434,165.928 52.9852,165.828 54.1712,165.249 55.0878,164.299 55.6243,163.094 55.667,161.449 55.1719,160.311 55.6994,159.934 56.2395,159.573 56.7918,159.226 57.3562,158.895 57.9324,158.581 58.5201,158.282 59.119,158.0 59.729,157.735 60.4456,158.729 61.8813,159.532 63.192,159.687 64.4764,159.383 65.5796,158.659 66.5045,157.299 66.7011,156.087 67.3649,156.051 68.0265,156.035 68.6855,156.039 69.3416,156.062 69.9943,156.106 70.6433,156.168 71.2882,156.25 71.9287,156.35 71.9951,157.594 72.7688,159.046 73.788,159.884 75.0324,160.323 76.3522,160.31 77.8656,159.666 78.7202,158.715 79.2895,159.036 79.8489,159.374 80.3982,159.729 80.9368,160.099 81.4645,160.485 81.9807,160.887 82.4852,161.305 82.9776,161.738 82.3249,162.883 82.191,164.523 82.5952,165.779 83.4046,166.821 84.5216,167.524 86.1433,167.8 87.479,167.434 87.779,168.0 88.0634,168.577 88.3318,169.165 88.5838,169.762 88.8193,170.371 89.0377,170.989 89.2387,171.617 89.422,172.255 88.1555,172.917 87.1565,174.224 86.8172,175.499 86.9346,176.814 87.4945,178.009 88.7092,179.118" fill="none" stroke="black" stroke-width="0.1"/>
        <polygon id="center_00_1" points="72.636,177.428 72.4642,176.533 72.1279,175.715 71.6466,174.991 71.04,174.376 70.3278,173.888 69.5295,173.543 68.6649,173.357 67.7536,173.346 67.7536,173.346 66.8585,173.518 66.0405,173.854 65.3161,174.336 64.7016,174.942 64.2134,175.654 63.8681,176.453 63.682,177.317 63.6716,178.229 63.6716,178.229 63.8434,179.124 64.1797,179.941 64.661,180.666 65.2676,181.28 65.9799,181.769 66.7781,182.114 67.6427,182.3 68.5541,182.31 68.5541,182.31 69.4492,182.139 70.2671,181.802 70.9916,181.321 71.606,180.714 72.0942,180.002 72.4395,179.204 72.6256,178.339" fill="none" stroke="black" stroke-width="0.1"/>
        <polygon id="center_00_0" points="85.6815,176.303 85.7491,178.142 85.624,179.979 85.3076,181.792 84.8033,183.563 84.1168,185.271 83.2555,186.898 82.2288,188.426 81.0481,189.838 79.7262,191.12 78.2776,192.256 76.7182,193.234 75.065,194.044 73.3363,194.677 71.5509,195.125 69.7284,195.385 67.8887,195.452 66.0521,195.327 64.2386,195.011 62.4681,194.506 60.76,193.82 59.1331,192.959 57.6051,191.932 56.1927,190.751 54.9116,189.429 53.7756,187.981 52.7973,186.421 51.9873,184.768 51.3545,183.039 50.906,181.254 50.6465,179.431 50.5789,177.592 50.704,175.755 51.0204,173.942 51.5247,172.171 52.2112,170.463 53.0725,168.836 54.0992,167.308 55.2799,165.896 56.6018,164.614 58.0504,163.479 59.6098,162.5 61.263,161.69 62.9917,161.058 64.7771,160.609 66.5996,160.349 68.4393,160.282 70.2759,160.407 72.0894,160.723 73.8599,161.228 75.568,161.914 77.1949,162.775 78.7229,163.802 80.1353,164.983 81.4164,166.305 82.5524,167.753 83.5307,169.313 84.3407,170.966 84.9735,172.695 85.422,174.48" fill="none" stroke="black" stroke-width="0.1"/>
        <polygon id="center_00_1a" points="80.0621,176.804 80.108,178.054 80.0231,179.301 79.8081,180.533 79.4657,181.736 78.9994,182.896 78.4143,184.001 77.717,185.039 76.915,185.998 76.0172,186.868 75.0333,187.64 73.9741,188.304 72.8513,188.855 71.6771,189.284 70.4644,189.589 69.2266,189.765 67.977,189.811 66.7296,189.726 65.4978,189.511 64.2953,189.169 63.1351,188.702 62.0301,188.117 60.9922,187.42 60.033,186.618 59.1628,185.72 58.3912,184.736 57.7267,183.677 57.1765,182.554 56.7468,181.38 56.4421,180.167 56.2659,178.93 56.22,177.68 56.3049,176.433 56.5199,175.201 56.8623,173.998 57.3286,172.838 57.9137,171.733 58.611,170.695 59.413,169.736 60.3108,168.866 61.2947,168.094 62.3539,167.43 63.4767,166.88 64.6509,166.45 65.8636,166.145 67.1014,165.969 68.351,165.923 69.5984,166.008 70.8302,166.223 72.0327,166.565 73.1929,167.032 74.2979,167.617 75.3358,168.314 76.295,169.116 77.1652,170.014 77.9368,170.998 78.6013,172.057 79.1515,173.18 79.5812,174.354 79.8859,175.567" fill="none" stroke="black" stroke-width="0.1"/>
        <polygon id="path15_1" points="62.857,222.547 61.5906,223.209 60.5916,224.516 60.2522,225.791 60.3696,227.106 60.9295,228.301 62.1443,229.41 63.5782,229.859 63.0395,225.612 63.1436,228.074 63.1779,230.017 63.1513,231.526 63.0722,232.688 62.9495,233.588 62.7918,234.31 62.6077,234.94 61.0706,234.803 59.5237,235.362 58.5488,236.251 57.9369,237.421 57.7618,238.729 58.184,240.319 59.2048,241.54 58.8106,242.049 58.4013,242.546 57.9773,243.031 57.5388,243.505 57.0861,243.965 56.6194,244.413 56.1389,244.848 55.6449,245.269 54.3653,244.275 52.7616,243.909 51.4605,244.13 50.3136,244.783 49.4591,245.789 48.9548,247.354 49.1584,248.977 48.8681,249.08 48.5757,249.179 48.2812,249.275 47.9845,249.367 47.6857,249.454 47.3848,249.538 47.0817,249.618 46.7766,249.694 46.7766,249.694 46.4475,249.77 46.1185,249.841 45.7895,249.907 45.4606,249.967 45.1319,250.023 44.8033,250.073 44.475,250.119 44.1469,250.159 43.6035,248.618 42.4522,247.443 41.2381,246.926 39.9203,246.855 38.6577,247.239 37.3869,248.284 36.6902,249.739 36.06,249.583 35.4359,249.409 34.8181,249.217 34.2071,249.006 33.6032,248.779 33.0068,248.534 32.4183,248.272 31.838,247.993 32.202,246.453 31.8686,244.843 31.1269,243.751 30.0566,242.979 28.7868,242.619 27.1531,242.811 25.8509,243.615 25.4093,243.147 24.9808,242.665 24.566,242.17 24.1651,241.662 23.7786,241.141 23.4068,240.607 23.05,240.061 22.7086,239.502 23.7808,238.468 24.3711,236.933 24.3373,235.614 23.8544,234.385 22.9805,233.397 21.5024,232.675 20.0879,232.649 19.9663,231.997 19.8648,231.345 19.7832,230.694 19.7213,230.044 19.6789,229.396 19.6558,228.75 19.6519,228.106 19.6669,227.466 21.0133,227.198 22.34,226.226 23.0249,225.097 23.2826,223.803 23.0821,222.499 22.229,221.092 21.1429,220.366 21.3896,219.759 21.6539,219.16 21.9358,218.569 22.2348,217.987 22.5508,217.414 22.8836,216.851 23.2328,216.298 23.5983,215.756 24.7784,216.22 26.4202,216.12 27.6063,215.541 28.5228,214.591 29.0593,213.386 29.1021,211.741 28.6069,210.603 29.1344,210.226 29.6745,209.865 30.2268,209.518 30.7912,209.187 31.3674,208.872 31.9551,208.574 32.5541,208.292 33.1641,208.027 33.8806,209.021 35.3164,209.824 36.6271,209.979 37.9115,209.675 39.0147,208.951 39.9396,207.591 40.1362,206.379 40.8,206.343 41.4616,206.327 42.1206,206.331 42.7766,206.354 43.4293,206.398 44.0783,206.46 44.7232,206.542 45.3637,206.642 45.4302,207.886 46.2038,209.338 47.2231,210.176 48.4675,210.615 49.7872,210.603 51.3007,209.958 52.1552,209.007 52.7245,209.329 53.284,209.666 53.8332,210.021 54.3719,210.391 54.8995,210.777 55.4158,211.18 55.9203,211.597 56.4127,212.03 55.76,213.175 55.6261,214.815 56.0302,216.071 56.8397,217.113 57.9567,217.816 59.5783,218.092 60.9141,217.726 61.2141,218.292 61.4984,218.869 61.7668,219.457 62.0189,220.055 62.2543,220.663 62.4727,221.281 62.6737,221.909" fill="none" stroke="black" stroke-width="0.1"/>
        <polygon id="center_00_2_1" points="46.0707,227.72 45.8989,226.825 45.5626,226.007 45.0813,225.283 44.4747,224.668 43.7624,224.18 42.9642,223.835 42.0996,223.649 41.1882,223.638 41.1882,223.638 40.2931,223.81 39.4752,224.146 38.7507,224.628 38.1362,225.234 37.6481,225.946 37.3028,226.745 37.1167,227.609 37.1063,228.521 37.1063,228.521 37.2781,229.416 37.6144,230.234 38.0957,230.958 38.7023,231.572 39.4145,232.061 40.2128,232.406 41.0774,232.592 41.9887,232.603 41.9887,232.603 42.8838,232.431 43.7017,232.094 44.4262,231.613 45.0407,231.007 45.5288,230.294 45.8741,229.496 46.0602,228.631" fill="none" stroke="black" stroke-width="0.1"/>
        <polygon id="center_00_3" points="59.1163,226.596 59.1839,228.435 59.0588,230.272 58.7424,232.085 58.2381,233.856 57.5516,235.564 56.6903,237.191 55.6636,238.719 54.4829,240.131 53.161,241.413 51.7124,242.548 50.153,243.527 48.4998,244.337 46.7711,244.97 44.9857,245.418 43.1632,245.678 41.3235,245.745 39.4869,245.62 37.6734,245.304 35.9029,244.799 34.1948,244.113 32.5679,243.252 31.0399,242.225 29.6275,241.044 28.3464,239.722 27.2104,238.274 26.2321,236.714 25.4221,235.061 24.7893,233.332 24.3408,231.547 24.0813,229.724 24.0137,227.885 24.1388,226.048 24.4552,224.235 24.9595,222.464 25.646,220.756 26.5073,219.129 27.534,217.601 28.7147,216.189 30.0366,214.908 31.4852,213.772 33.0446,212.793 34.6978,211.983 36.4265,211.351 38.2119,210.902 40.0344,210.642 41.8741,210.575 43.7107,210.7 45.5242,211.016 47.2947,211.521 49.0028,212.207 50.6297,213.069 52.1577,214.095 53.5701,215.276 54.8512,216.598 55.9872,218.046 56.9655,219.606 57.7755,221.259 58.4083,222.988 58.8568,224.773" fill="none" stroke="black" stroke-width="0.1"/>
        <polygon id="center_00_4" points="53.4969,227.097 53.5428,228.347 53.4579,229.594 53.2429,230.826 52.9005,232.029 52.4342,233.189 51.8491,234.294 51.1518,235.332 50.3498,236.291 49.452,237.161 48.4681,237.933 47.4089,238.597 46.2861,239.148 45.1119,239.577 43.8992,239.882 42.6614,240.058 41.4118,240.104 40.1644,240.019 38.9326,239.804 37.7301,239.462 36.5699,238.995 35.4649,238.41 34.427,237.713 33.4678,236.911 32.5976,236.013 31.826,235.029 31.1615,233.97 30.6113,232.847 30.1816,231.673 29.8769,230.46 29.7007,229.223 29.6548,227.973 29.7397,226.726 29.9547,225.494 30.2971,224.291 30.7634,223.131 31.3485,222.026 32.0458,220.988 32.8478,220.029 33.7456,219.159 34.7295,218.387 35.7887,217.723 36.9115,217.173 38.0857,216.743 39.2984,216.438 40.5362,216.262 41.7858,216.216 43.0332,216.301 44.265,216.516 45.4675,216.858 46.6277,217.325 47.7327,217.91 48.7706,218.607 49.7298,219.409 50.6,220.307 51.3716,221.291 52.0361,222.35 52.5863,223.473 53.016,224.647 53.3207,225.86" fill="none" stroke="black" stroke-width="0.1"/>
        <polygon id="polygon20" points="21.8376,216.805 37.7977,220.309 51.0804,223.106 52.735,223.207 54.1882,222.874 55.375,222.201 56.52,221.151 65.592,208.09 67.328,205.154 67.753,203.858 67.778,202.582 67.291,201.221 66.949,200.605 64.471,196.355 58.757,186.364 54.6704,179.074 54.4205,175.586 55.0914,173.849 69.587,156.261 74.87,156.94 78.642,158.599 81.628,160.662 83.535,162.778 85.184,165.447 86.264,168.769 86.644,171.274 86.629,173.65 85.493,184.295 84.469,191.444 82.668,201.207 82.17,203.364 81.202,205.885 79.658,208.854 77.434,211.951 70.757,221.559 65.028,229.043 56.717,239.164 48.5211,248.418 47.2179,249.347 45.2307,250.45 42.9415,251.18 40.8295,251.422 39.339,251.261 27.7792,248.046 25.5979,247.121 23.5231,245.665 22.0556,244.255 20.6516,242.428 19.6096,240.226 17.5512,235.141 15.7873,230.725 13.4157,224.906 12.6675,223.387 11.4167,221.949 10.1191,221.005 7.9873,220.045 5.0061,218.884 4.7427,218.427 4.7562,217.764 6.3169,214.251 7.2915,213.876 12.9112,214.888" fill="none" stroke="black" stroke-width="0.1"/>
        <polygon id="polygon22" points="30.5512,224.436 31.6086,225.243 32.3355,226.124 35.9732,231.773 36.8932,232.81 38.2774,233.886 39.2686,234.395 40.4636,234.665 43.008,235.2 48.449,236.381 49.3002,236.851 49.8212,237.873 49.3353,238.847 44.0164,244.463 43.4017,245.14 41.9656,245.454 40.3224,245.497 29.6288,242.314 27.9726,241.486 26.5084,240.213 25.3337,238.617 19.2969,224.224 19.4451,222.901 20.1844,222.216 21.3593,222.071 29.1841,223.848" fill="none" stroke="black" stroke-width="0.1"/>

		<polyline id="simplify_SVG__000007___0" class="fil0 str0" points="6.8711,215.624 37.173,222.171 51.1556,225.218 53.2925,225.289 55.203599999999994,224.60199999999998 57.06099999999999,223.38699999999997 57.858999999999995,222.35399999999998 63.05199999999999,215.42 67.31099999999999,209.01 69.09899999999999,206.18599999999998 69.868,203.89799999999997 69.59299999999999,201.43499999999997 68.716,199.69599999999997 62.477999999999994,188.53099999999998" fill="none" stroke="black" stroke-width="0.1"/>
		<polyline id="simplify_SVG__000008___0" class="fil0 str0" points="72.727,158.89 77.456,160.637 80.08800000000001,162.622 82.55300000000001,165.62300000000002 84.07800000000002,170.228 84.17600000000002,173.35000000000002 80.28300000000002,200.58 79.85700000000001,202.418 78.64600000000002,205.332 77.35400000000001,207.32 68.77900000000001,220.047 60.61100000000001,230.801 46.46940000000001,246.64 44.72100000000001,248.005 43.08930000000001,248.533 41.47350000000001,248.85399999999998 39.75410000000001,248.79 33.10940000000001,246.963 27.96590000000001,245.289 26.286700000000007,244.38799999999998 24.272700000000007,242.944 23.023300000000006,241.136 21.891300000000005,238.983 15.731400000000004,224.06900000000002 14.383400000000004,221.287 11.857500000000003,218.669 8.853300000000004,217.351 6.397700000000004,216.427" fill="none" stroke="black" stroke-width="0.1"/>
		<polyline id="simplify_SVG__000009___0" class="fil0 str0" points="72.626,189.26 77.62400000000001,199.209 78.489,202.442 78.254,204.978 77.072,207.27200000000002 74.801,210.39600000000002 51.2498,237.74400000000003" fill="none" stroke="black" stroke-width="0.1"/>

        <polygon id="center_00_5_1" points="46.0707,227.72 45.8989,226.825 45.5626,226.007 45.0813,225.283 44.4747,224.668 43.7624,224.18 42.9642,223.835 42.0996,223.649 41.1882,223.638 41.1882,223.638 40.2931,223.81 39.4752,224.146 38.7507,224.628 38.1362,225.234 37.6481,225.946 37.3028,226.745 37.1167,227.609 37.1063,228.521 37.1063,228.521 37.2781,229.416 37.6144,230.234 38.0957,230.958 38.7023,231.572 39.4145,232.061 40.2128,232.406 41.0774,232.592 41.9887,232.603 41.9887,232.603 42.8838,232.431 43.7017,232.094 44.4262,231.613 45.0407,231.007 45.5288,230.294 45.8741,229.496 46.0602,228.631" fill="none" stroke="black" stroke-width="0.1"/>
        <polygon id="center_00_6" points="45.1847,227.84 45.1986,228.216 45.173,228.592 45.1082,228.964 45.005,229.326 44.8644,229.676 44.6881,230.009 44.478,230.321 44.2363,230.61 43.9657,230.873 43.6692,231.105 43.35,231.305 43.0116,231.471 42.6577,231.601 42.2923,231.693 41.9192,231.746 41.5427,231.76 41.1667,231.734 40.7955,231.669 40.4331,231.566 40.0835,231.425 39.7504,231.249 39.4376,231.039 39.1486,230.797 38.8863,230.527 38.6538,230.23 38.4535,229.911 38.2877,229.573 38.1582,229.219 38.0664,228.853 38.0133,228.48 37.9994,228.104 38.025,227.728 38.0898,227.356 38.193,226.994 38.3336,226.644 38.5099,226.311 38.72,225.999 38.9617,225.71 39.2323,225.447 39.5288,225.215 39.848,225.015 40.1864,224.849 40.5403,224.719 40.9057,224.627 41.2788,224.574 41.6553,224.56 42.0313,224.586 42.4025,224.651 42.7649,224.754 43.1145,224.895 43.4476,225.071 43.7604,225.281 44.0494,225.523 44.3117,225.793 44.5442,226.09 44.7445,226.409 44.9103,226.747 45.0398,227.101 45.1316,227.467" fill="none" stroke="black" stroke-width="0.1"/>
        <polygon id="polygon32" points="42.5807,227.179 42.9002,228.509 41.908,229.451 40.5963,229.062 40.2767,227.732 41.2689,226.79" fill="none" stroke="black" stroke-width="0.1"/>

		<polyline id="path34___0___0" class="fil0 str2" points="23.0819,222.499 23.0564,222.457" fill="none" stroke="black" stroke-width="0.1"/>
		<polyline id="path34___1___0" class="fil0 str2" points="24.3542,236.282 24.3371,235.6141 23.8542,234.38590000000002 23.292199999999998,233.74990000000003" fill="none" stroke="black" stroke-width="0.1"/>
		<polyline id="path34___2___0" class="fil0 str2" points="23.2922,233.75 20.5803,227.2845" fill="none" stroke="black" stroke-width="0.1"/>
		<polyline id="path34___3___0" class="fil0 str2" points="20.5803,227.284 21.0131,227.19799999999998 22.3398,226.2256 23.0247,225.0975 23.2824,223.8031 23.081899999999997,222.4987" fill="none" stroke="black" stroke-width="0.1"/>

		<polyline id="center_00_7_1___0" class="fil0 str3" points="24.8263,222.858 24.5898,223.6733 24.3922,224.50320000000002 24.2346,225.34650000000002 24.118100000000002,226.20200000000003 24.043400000000002,227.06860000000003 24.0118,227.94520000000003 24.0241,228.83060000000003 24.081300000000002,229.72360000000003 24.081300000000002,229.72360000000003 24.397700000000004,231.83250000000004 24.951700000000002,233.84440000000004 25.727300000000003,235.74590000000003 26.708400000000005,237.52360000000004 27.878900000000005,239.16410000000005 29.222700000000007,240.65400000000005 30.723900000000008,241.97980000000004 32.366400000000006,243.12820000000005" fill="none" stroke="black" stroke-width="0.1"/>
		<polyline id="center_00_8_1___0" class="fil0 str3" points="30.285,224.321 30.1043,224.9004 29.9529,225.4911 29.8313,226.0922 29.740499999999997,226.7029 29.681199999999997,227.322 29.654299999999996,227.9488 29.660499999999995,228.5824 29.700599999999994,229.2218 29.700599999999994,229.2218 30.156499999999994,231.5978 31.049399999999995,233.7692 32.327,235.6922 33.9373,237.32340000000002 35.828,238.61920000000003 37.947,239.53580000000002 40.242200000000004,240.02970000000002 42.6614,240.05740000000003 42.6614,240.05740000000003 43.629,239.93160000000003 44.5682,239.73150000000004 45.4764,239.46040000000005 46.350899999999996,239.12160000000006 47.18879999999999,238.71850000000006 47.987399999999994,238.25440000000006 48.744099999999996,237.73250000000007 49.455999999999996,237.15620000000007" fill="none" stroke="black" stroke-width="0.1"/>

        <polygon id="polygon40" points="65.671,161.409 66.761,157.957 66.502,157.368 66.866,155.802 67.546,155.864 67.926,155.77 68.232,155.561 68.76,153.204 67.911,151.392 68.418,149.127 69.215,148.47 69.532,147.979 70.843,147.472 72.46,147.313 74.393,147.608 76.463,148.099 78.149,149.547 79.509,152.081 80.296,154.795 80.943,157.995 81.51,161.055 81.676,163.589 81.769,166.338 81.859,168.978 81.931,171.795 81.992,174.153 81.91,176.497 81.591,178.589 81.091,180.319 80.173,182.772 79.004,184.527 78.143,185.5 76.779,186.732 75.256,187.806 73.251,188.865 71.001,189.654 68.326,190.071 65.735,189.869 63.941,189.331 61.056,187.721 59.284,186.095 57.545,183.578 56.604,181.049 56.3196,178.808 56.544,176.511 65.217,168.622" fill="none" stroke="black" stroke-width="0.1"/>

		<polyline id="simplify_SVG__000013___0" class="fil0 str0" points="71.954,158.849 73.71199999999999,159.59699999999998 74.853,160.27499999999998 76.246,161.54599999999996 77.687,163.52699999999996 78.965,166.03399999999996 79.549,168.18899999999996 79.929,170.13799999999998 80.205,172.80899999999997 80.155,175.09999999999997 79.844,177.57999999999996 79.08099999999999,180.78699999999995 77.73199999999999,183.84699999999995 76.33399999999999,185.73599999999996 74.722,187.33999999999997 72.21799999999999,188.70899999999997" fill="none" stroke="black" stroke-width="0.1"/>

        <polygon id="rect44" points="0.1192,172.952 -15.564,169.584 -17.7293,179.665 -2.0461,183.034" fill="none" stroke="black" stroke-width="0.1"/>
        <polygon id="polygon46" points="-17.731,180.854 -17.3943,181.587 -16.9372,182.112 -16.3479,182.392 -8.1167,184.967 -7.4028,185.122 -6.6368,185.247 -2.7329,184.204 -2.3228,184.027 -2.1053,183.47 -1.4376,180.201 -1.5692,179.69 -2.1809,179.007 -2.9997,178.486 -4.0421,177.883 -4.8588,177.673 -15.5905,175.162 -16.3132,175.317 -16.9747,176.123 -17.8048,180.019" fill="none" stroke="black" stroke-width="0.1"/>
        <polygon id="polygon48" points="-15.0774,168.499 -14.4696,167.969 -13.8369,167.677 -13.1849,167.665 -4.6223,168.697 -3.9074,168.848 -3.1577,169.048 -0.0266,171.603 0.2748,171.933 0.2442,172.53 -0.4893,175.785 -0.819,176.197 -1.6571,176.568 -2.6175,176.707 -3.8156,176.828 -4.6464,176.685 -15.463,174.568 -16.0583,174.13 -16.3307,173.124 -15.4877,169.23" fill="none" stroke="black" stroke-width="0.1"/>

		<polyline id="simplify_SVG__000017___0" class="fil0 str0" points="8.2806,172.079 6.295999999999999,173.75400000000002 4.693199999999999,175.49200000000002 3.5471999999999992,177.418 0.23529999999999918,183.95000000000002" fill="none" stroke="black" stroke-width="0.1"/>

        <polygon id="polygon52" points="-4.6674,176.301 -3.1357,176.314 -1.5595,176.1 -0.6633,175.472 0.0446,172.176 -3.1813,169.382 -4.2545,169.082 -13.2563,167.914 -13.7462,167.958 -14.3097,168.24 -14.8904,168.724 -15.2012,169.333 -15.8331,172.288 -15.8681,173.127 -15.5419,173.863 -14.7592,174.34" fill="none" stroke="black" stroke-width="0.1"/>
        <polygon id="polygon54" points="8.9086,176.804 7.5498,183.13 1.9485,181.927 2.5806,175.445" fill="none" stroke="black" stroke-width="0.1"/>
        <polygon id="polygon56" points="-5.0354,178.015 -3.6336,178.632 -2.2841,179.474 -1.7249,180.415 -2.4329,183.711 -6.5215,184.934 -7.623,184.766 -16.3105,182.135 -16.7394,181.894 -17.1374,181.405 -17.4679,180.725 -17.5012,180.042 -16.8643,177.089 -16.5515,176.309 -15.952,175.772 -15.0423,175.659" fill="none" stroke="black" stroke-width="0.1"/>
        <polygon id="polygon58" points="-16.0256,169.484 -17.026,174.142 -17.1083,174.525 -18.1909,179.566 -17.7293,179.665 -16.6467,174.624 -16.5644,174.241 -15.564,169.583" fill="none" stroke="black" stroke-width="0.1"/>
        <polygon id="polygon60" points="-16.3015,170.769 -17.1083,174.525 -17.2168,175.03 -17.915,178.281 -18.2445,178.21 -17.5463,174.96 -17.4377,174.454 -16.631,170.698" fill="none" stroke="black" stroke-width="0.1"/>
        <polygon id="polygon62" points="0.2733,172.234 -0.8694,177.555 -0.9634,177.993 -2.2001,183.751 -1.7955,183.838 -0.5588,178.079 -0.4647,177.642 0.678,172.321" fill="none" stroke="black" stroke-width="0.1"/>

		<polyline id="simplify_SVG__000024___0" class="fil0 str0" points="-15.2012,169.333 -5.108700000000001,170.867 -4.579400000000001,170.981 0.044599999999999085,172.176" fill="none" stroke="black" stroke-width="0.1"/>
		<polyline id="simplify_SVG__000025___0" class="fil0 str0" points="-17.5012,180.042 -7.6691,182.788 -7.1398,182.90200000000002 -2.4329,183.711" fill="none" stroke="black" stroke-width="0.1"/>

        <line id="line68" x1="-16.8644" y1="177.089" x2="-1.7249" y2="180.415" stroke="black" stroke-width="0.1"/>
        <line id="line70" x1="-15.8331" y1="172.288" x2="-0.6633" y2="175.472" stroke="black" stroke-width="0.1"/>
        <polygon id="polygon72" points="59.424,173.274 58.862,170.772 58.948,170.062 60.013,167.525 63.87,166.444 70.92,168.923 71.65,170.172 72.407,171.074 72.733,171.763 72.499,173.47 71.187,177.728 70.453,179.155 69.59,179.915" fill="none" stroke="black" stroke-width="0.1"/>

		<polyline id="simplify_SVG__000029___0" class="fil0 str0" points="59.469,170.571 62.793,170.059 65.778,170.667 70.62100000000001,173.26500000000001 71.50600000000001,173.621 72.01200000000001,173.166 71.00200000000001,175.965" fill="none" stroke="black" stroke-width="0.1"/>
		<polyline id="simplify_SVG__000030___0" class="fil0 str0" points="66.549,170.468 71.04,172.891 71.65,170.172 69.795,169.243" fill="none" stroke="black" stroke-width="0.1"/>

        <line id="line78" x1="65.825" y1="169.982" x2="66.254" y2="167.994" stroke="black" stroke-width="0.1"/>
        <polygon id="polygon80" points="21.5751,178.329 22.0833,179.12 23.1544,180.282 24.4375,180.869 25.9548,181.296 27.8747,181.598 50.6939,180.278 52.003,180.183 53.7124,180.307 57.824,182.37 59.197,182.664 61.07,182.944 67.287,181.663 68.646,181.072 69.432,180.268 69.748,179.563 69.933,178.909 70.533,176.716 70.637,175.893 70.522,174.946 70.083,174.15 69.401,173.332 68.329,172.516 67.574,172.119 66.514,171.775 65.32,171.669 60.405,172.25 59.816,172.319 57.971,173.882 57.543,174.09 56.746,174.163 54.5921,173.699 34.3382,173.332 32.3228,173.257 31.3041,172.965 30.6787,172.297 30.4556,171.689 29.3745,170.858 22.1353,173.308 21.3983,176.519 21.3472,177.516" fill="none" stroke="black" stroke-width="0.1"/>
        <g id="_tag_7_">
                <polyline id="path82___0___0" class="fil0 str4" points="22.0686,175.274 22.738,174.78470000000002 23.2526,174.59230000000002 24.4719,174.37130000000002 26.0652,174.30060000000003 26.9022,174.16590000000002 27.904600000000002,174.25010000000003 30.0085,174.65000000000003 31.5498,174.81480000000005" fill="none" stroke="black" stroke-width="0.1"/>
                <polyline id="path82___1___0" class="fil0 str4" points="30.4577,176.747 33.6135,177.104 46.102500000000006,177.0171 47.5964,176.8023 49.925900000000006,176.5577 50.79370000000001,176.6455 51.819300000000005,176.9058 54.72970000000001,177.8247 55.90910000000001,178.0728 57.24300000000001,178.1533 58.16030000000001,178.0524 59.577600000000004,177.4751" fill="none" stroke="black" stroke-width="0.1"/>
                <polyline id="path82___2___0" class="fil0 str4" points="60.9053,174.838 63.3692,174.5889 65.2907,174.4715 66.663,174.8015 67.8945,175.42170000000002 68.9644,176.31 69.5836,177.136" fill="none" stroke="black" stroke-width="0.1"/>
        </g>
        <polygon id="ellipse84" points="68.2329,179.839 68.1558,180.091 68.0359,180.332 67.8744,180.557 67.6731,180.765 67.4342,180.953 67.1603,181.12 66.8545,181.264 66.52,181.382 66.1606,181.475 65.7802,181.54 65.3829,181.577 64.9731,181.585 64.5553,181.565 64.134,181.517 63.714,181.44 63.2997,181.337 62.8958,181.209 62.5066,181.055 62.1364,180.879 61.7893,180.683 61.4691,180.467 61.1792,180.235 60.9229,179.99 60.703,179.734 60.5218,179.469 60.3814,179.199 60.2833,178.927 60.2285,178.655 60.2178,178.387 60.2511,178.125 60.3282,177.873 60.4481,177.632 60.6096,177.407 60.8109,177.199 61.0498,177.011 61.3237,176.844 61.6295,176.7 61.964,176.582 62.3234,176.489 62.7038,176.424 63.1011,176.387 63.5109,176.379 63.9287,176.399 64.35,176.447 64.77,176.524 65.1843,176.627 65.5882,176.756 65.9774,176.909 66.3476,177.085 66.6947,177.281 67.0149,177.497 67.3048,177.729 67.5611,177.974 67.781,178.23 67.9622,178.495 68.1026,178.765 68.2007,179.037 68.2555,179.309 68.2662,179.577" fill="none" stroke="black" stroke-width="0.1"/>
        <polygon id="ellipse86" points="30.4896,179.686 30.4155,179.926 30.2991,180.153 30.1415,180.367 29.9445,180.563 29.7103,180.741 29.4413,180.898 29.1407,181.032 28.8117,181.142 28.4578,181.227 28.0829,181.286 27.6912,181.318 27.287,181.323 26.8747,181.301 26.4587,181.252 26.0437,181.176 25.6342,181.075 25.2346,180.949 24.8495,180.8 24.4829,180.629 24.1389,180.439 23.8213,180.232 23.5335,180.009 23.2788,179.773 23.0598,179.527 22.879,179.274 22.7384,179.016 22.6395,178.756 22.5834,178.496 22.5707,178.241 22.6016,177.992 22.6757,177.752 22.7921,177.525 22.9497,177.311 23.1467,177.115 23.3809,176.937 23.6499,176.78 23.9505,176.646 24.2795,176.536 24.6334,176.451 25.0083,176.392 25.4,176.36 25.8042,176.355 26.2165,176.377 26.6325,176.426 27.0475,176.502 27.457,176.603 27.8566,176.729 28.2417,176.878 28.6083,177.049 28.9523,177.239 29.2699,177.446 29.5577,177.669 29.8124,177.905 30.0314,178.151 30.2122,178.404 30.3528,178.662 30.4517,178.923 30.5078,179.182 30.5205,179.437" fill="none" stroke="black" stroke-width="0.1"/>

		<polygon id="ellipse88" points="63.6722,168.585 63.7112,168.674 63.7313,168.773 63.7322,168.881 63.7139,168.996 63.6766,169.117 63.6207,169.243 63.5468,169.373 63.4558,169.504 63.3486,169.636 63.2264,169.768 63.0906,169.897 62.9425,170.022 62.784,170.142 62.6166,170.256 62.4422,170.362 62.2628,170.46 62.0803,170.548 61.8967,170.624 61.714,170.69 61.5342,170.742 61.3593,170.782 61.1912,170.809 61.0318,170.821 60.8827,170.82 60.7457,170.805 60.6221,170.777 60.5135,170.735 60.4209,170.68 60.3454,170.613 60.2878,170.535 60.2488,170.446 60.2287,170.347 60.2278,170.239 60.2461,170.124 60.2834,170.003 60.3393,169.877 60.4132,169.748 60.5042,169.616 60.6114,169.484 60.7336,169.352 60.8694,169.223 61.0175,169.098 61.176,168.978 61.3434,168.864 61.5178,168.758 61.6972,168.66 61.8797,168.572 62.0633,168.496 62.246,168.43 62.4258,168.378 62.6007,168.338 62.7688,168.311 62.9282,168.299 63.0773,168.3 63.2143,168.315 63.3379,168.343 63.4465,168.385 63.5391,168.44 63.6146,168.507" fill="none" stroke="black" stroke-width="0.1"/>
		<polygon id="ellipse90" points="63.3952,168.068 63.4342,168.157 63.4543,168.256 63.4552,168.364 63.4369,168.479 63.3996,168.6 63.3437,168.726 63.2698,168.856 63.1788,168.987 63.0716,169.119 62.9494,169.251 62.8136,169.38 62.6655,169.505 62.507,169.625 62.3396,169.739 62.1652,169.845 61.9858,169.943 61.8033,170.031 61.6197,170.107 61.437,170.173 61.2572,170.225 61.0823,170.265 60.9142,170.292 60.7548,170.304 60.6057,170.303 60.4687,170.288 60.3451,170.26 60.2365,170.218 60.1439,170.163 60.0684,170.096 60.0108,170.018 59.9718,169.929 59.9517,169.83 59.9508,169.722 59.9691,169.607 60.0064,169.486 60.0623,169.36 60.1362,169.231 60.2272,169.099 60.3344,168.967 60.4566,168.835 60.5924,168.706 60.7405,168.581 60.899,168.461 61.0664,168.347 61.2408,168.241 61.4202,168.143 61.6027,168.055 61.7863,167.979 61.969,167.914 62.1488,167.861 62.3237,167.821 62.4918,167.794 62.6512,167.782 62.8003,167.783 62.9373,167.798 63.0609,167.826 63.1695,167.868 63.2621,167.923 63.3376,167.99" fill="none" stroke="black" stroke-width="0.1"/>
		<polygon id="ellipse92" points="63.1182,167.55 63.1572,167.639 63.1773,167.738 63.1782,167.846 63.1599,167.961 63.1226,168.082 63.0667,168.208 62.9928,168.338 62.9018,168.469 62.7946,168.601 62.6724,168.733 62.5366,168.862 62.3885,168.987 62.23,169.107 62.0626,169.221 61.8882,169.327 61.7088,169.425 61.5263,169.513 61.3427,169.589 61.16,169.655 60.9802,169.707 60.8053,169.747 60.6372,169.774 60.4778,169.786 60.3287,169.785 60.1917,169.77 60.0681,169.742 59.9595,169.7 59.8669,169.645 59.7914,169.578 59.7338,169.5 59.6948,169.411 59.6747,169.312 59.6738,169.204 59.6921,169.089 59.7294,168.968 59.7853,168.842 59.8592,168.713 59.9502,168.581 60.0574,168.449 60.1796,168.317 60.3154,168.188 60.4635,168.063 60.622,167.943 60.7894,167.829 60.9638,167.723 61.1432,167.625 61.3257,167.537 61.5093,167.461 61.692,167.396 61.8718,167.343 62.0467,167.303 62.2148,167.276 62.3742,167.264 62.5233,167.265 62.6603,167.28 62.7839,167.308 62.8925,167.35 62.9851,167.405 63.0606,167.472" fill="none" stroke="black" stroke-width="0.1"/>
		<polygon id="ellipse94" points="62.8462,167.044 62.8852,167.133 62.9053,167.232 62.9062,167.34 62.8879,167.455 62.8506,167.576 62.7947,167.702 62.7208,167.832 62.6298,167.963 62.5226,168.095 62.4004,168.227 62.2646,168.356 62.1165,168.481 61.958,168.601 61.7906,168.715 61.6162,168.821 61.4368,168.919 61.2543,169.007 61.0707,169.083 60.888,169.149 60.7082,169.201 60.5333,169.241 60.3652,169.268 60.2058,169.28 60.0567,169.279 59.9197,169.264 59.7961,169.236 59.6875,169.194 59.5949,169.139 59.5194,169.072 59.4618,168.994 59.4228,168.905 59.4027,168.806 59.4018,168.698 59.4201,168.583 59.4574,168.462 59.5133,168.336 59.5872,168.207 59.6782,168.075 59.7854,167.943 59.9076,167.811 60.0434,167.682 60.1915,167.557 60.35,167.437 60.5174,167.323 60.6918,167.217 60.8712,167.119 61.0537,167.031 61.2373,166.955 61.42,166.89 61.5998,166.837 61.7747,166.797 61.9428,166.77 62.1022,166.758 62.2513,166.759 62.3883,166.774 62.5119,166.802 62.6205,166.844 62.7131,166.899 62.7886,166.966" fill="none" stroke="black" stroke-width="0.1"/>
		<polygon id="ellipse96" points="62.5612,166.531 62.6002,166.62 62.6203,166.719 62.6212,166.827 62.6029,166.942 62.5656,167.063 62.5097,167.189 62.4358,167.319 62.3448,167.45 62.2376,167.582 62.1154,167.714 61.9796,167.843 61.8315,167.968 61.673,168.088 61.5056,168.202 61.3312,168.308 61.1518,168.406 60.9693,168.494 60.7857,168.57 60.603,168.636 60.4232,168.688 60.2483,168.728 60.0802,168.755 59.9208,168.767 59.7717,168.766 59.6347,168.751 59.5111,168.723 59.4025,168.681 59.3099,168.626 59.2344,168.559 59.1768,168.481 59.1378,168.392 59.1177,168.293 59.1168,168.185 59.1351,168.07 59.1724,167.949 59.2283,167.823 59.3022,167.694 59.3932,167.562 59.5004,167.43 59.6226,167.298 59.7584,167.169 59.9065,167.044 60.065,166.924 60.2324,166.81 60.4068,166.704 60.5862,166.606 60.7687,166.518 60.9523,166.442 61.135,166.376 61.3148,166.324 61.4897,166.284 61.6578,166.257 61.8172,166.245 61.9663,166.246 62.1033,166.261 62.2269,166.289 62.3355,166.331 62.4281,166.386 62.5036,166.453" fill="none" stroke="black" stroke-width="0.1"/>
		<polygon id="ellipse98" points="62.2852,166.013 62.3242,166.102 62.3443,166.201 62.3452,166.309 62.3269,166.424 62.2896,166.545 62.2337,166.671 62.1598,166.801 62.0688,166.932 61.9616,167.064 61.8394,167.196 61.7036,167.325 61.5555,167.45 61.397,167.57 61.2296,167.684 61.0552,167.79 60.8758,167.888 60.6933,167.976 60.5097,168.052 60.327,168.118 60.1472,168.17 59.9723,168.21 59.8042,168.237 59.6448,168.249 59.4957,168.248 59.3587,168.233 59.2351,168.205 59.1265,168.163 59.0339,168.108 58.9584,168.041 58.9008,167.963 58.8618,167.874 58.8417,167.775 58.8408,167.667 58.8591,167.552 58.8964,167.431 58.9523,167.305 59.0262,167.176 59.1172,167.044 59.2244,166.912 59.3466,166.78 59.4824,166.651 59.6305,166.526 59.789,166.406 59.9564,166.292 60.1308,166.186 60.3102,166.088 60.4927,166.0 60.6763,165.924 60.859,165.858 61.0388,165.806 61.2137,165.766 61.3818,165.739 61.5412,165.727 61.6903,165.728 61.8273,165.743 61.9509,165.771 62.0595,165.813 62.1521,165.868 62.2276,165.935" fill="none" stroke="black" stroke-width="0.1"/>
		<polygon id="ellipse100" points="62.0232,165.488 62.0622,165.577 62.0823,165.676 62.0832,165.784 62.0649,165.899 62.0276,166.02 61.9717,166.146 61.8978,166.275 61.8068,166.407 61.6996,166.539 61.5774,166.671 61.4416,166.8 61.2935,166.925 61.135,167.045 60.9676,167.159 60.7932,167.265 60.6138,167.363 60.4313,167.451 60.2477,167.527 60.065,167.593 59.8852,167.645 59.7103,167.685 59.5422,167.712 59.3828,167.724 59.2337,167.723 59.0967,167.708 58.9731,167.68 58.8645,167.638 58.7719,167.583 58.6964,167.516 58.6388,167.438 58.5998,167.349 58.5797,167.25 58.5788,167.142 58.5971,167.027 58.6344,166.906 58.6903,166.78 58.7642,166.65 58.8552,166.519 58.9624,166.387 59.0846,166.255 59.2204,166.126 59.3685,166.001 59.527,165.881 59.6944,165.767 59.8688,165.661 60.0482,165.563 60.2307,165.475 60.4143,165.399 60.597,165.334 60.7768,165.281 60.9517,165.241 61.1198,165.214 61.2792,165.202 61.4283,165.203 61.5653,165.218 61.6889,165.246 61.7975,165.288 61.8901,165.343 61.9656,165.41" fill="none" stroke="black" stroke-width="0.1"/>
		<polygon id="ellipse102" points="61.7462,164.971 61.7852,165.06 61.8053,165.159 61.8062,165.267 61.7879,165.382 61.7506,165.503 61.6947,165.629 61.6208,165.759 61.5298,165.89 61.4226,166.022 61.3004,166.154 61.1646,166.283 61.0165,166.408 60.858,166.528 60.6906,166.642 60.5162,166.748 60.3368,166.846 60.1543,166.934 59.9707,167.01 59.788,167.076 59.6082,167.128 59.4333,167.168 59.2652,167.195 59.1058,167.207 58.9567,167.206 58.8197,167.191 58.6961,167.163 58.5875,167.121 58.4949,167.066 58.4194,166.999 58.3618,166.921 58.3228,166.832 58.3027,166.733 58.3018,166.625 58.3201,166.51 58.3574,166.389 58.4133,166.263 58.4872,166.134 58.5782,166.002 58.6854,165.87 58.8076,165.738 58.9434,165.609 59.0915,165.484 59.25,165.364 59.4174,165.25 59.5918,165.144 59.7712,165.046 59.9537,164.958 60.1373,164.882 60.32,164.816 60.4998,164.764 60.6747,164.724 60.8428,164.697 61.0022,164.685 61.1513,164.686 61.2883,164.701 61.4119,164.729 61.5205,164.771 61.6131,164.826 61.6886,164.893" fill="none" stroke="black" stroke-width="0.1"/>
		<polygon id="ellipse104" points="61.4612,164.457 61.5002,164.546 61.5203,164.645 61.5212,164.753 61.5029,164.868 61.4656,164.989 61.4097,165.115 61.3358,165.245 61.2448,165.376 61.1376,165.508 61.0154,165.64 60.8796,165.769 60.7315,165.894 60.573,166.014 60.4056,166.128 60.2312,166.234 60.0518,166.332 59.8693,166.42 59.6857,166.496 59.503,166.562 59.3232,166.614 59.1483,166.654 58.9802,166.681 58.8208,166.693 58.6717,166.692 58.5347,166.677 58.4111,166.649 58.3025,166.607 58.2099,166.552 58.1344,166.485 58.0768,166.407 58.0378,166.318 58.0177,166.219 58.0168,166.111 58.0351,165.996 58.0724,165.875 58.1283,165.749 58.2022,165.62 58.2932,165.488 58.4004,165.356 58.5226,165.224 58.6584,165.095 58.8065,164.97 58.965,164.85 59.1324,164.736 59.3068,164.63 59.4862,164.532 59.6687,164.444 59.8523,164.368 60.035,164.303 60.2148,164.25 60.3897,164.21 60.5578,164.183 60.7172,164.171 60.8663,164.172 61.0033,164.187 61.1269,164.215 61.2355,164.257 61.3281,164.312 61.4036,164.379" fill="none" stroke="black" stroke-width="0.1"/>

        <polygon id="ellipse106" points="61.1842,163.94 61.2232,164.029 61.2433,164.128 61.2442,164.236 61.2259,164.351 61.1886,164.472 61.1327,164.598 61.0588,164.727 60.9678,164.859 60.8606,164.991 60.7384,165.123 60.6026,165.252 60.4545,165.377 60.296,165.497 60.1286,165.611 59.9542,165.717 59.7748,165.815 59.5923,165.903 59.4087,165.979 59.226,166.045 59.0462,166.097 58.8713,166.137 58.7032,166.164 58.5438,166.176 58.3947,166.175 58.2577,166.16 58.1341,166.132 58.0255,166.09 57.9329,166.035 57.8574,165.968 57.7998,165.89 57.7608,165.801 57.7407,165.702 57.7398,165.594 57.7581,165.479 57.7954,165.358 57.8513,165.232 57.9252,165.102 58.0162,164.971 58.1234,164.839 58.2456,164.707 58.3814,164.578 58.5295,164.453 58.688,164.333 58.8554,164.219 59.0298,164.113 59.2092,164.015 59.3917,163.927 59.5753,163.851 59.758,163.786 59.9378,163.733 60.1127,163.693 60.2808,163.666 60.4402,163.654 60.5893,163.655 60.7263,163.67 60.8499,163.698 60.9585,163.74 61.0511,163.795 61.1266,163.862" fill="none" stroke="black" stroke-width="0.1"/>
        <polygon id="polygon108" points="57.278,172.086 57.702,170.036 57.453,168.485 57.186,168.249 56.713,168.129 54.7564,167.934 52.5737,171.807 50.6147,175.827 53.0722,175.776 53.4319,175.543 53.8217,173.685 54.4792,173.287 54.6443,172.42 57.004,172.529" fill="none" stroke="black" stroke-width="0.1"/>

		<polyline id="simplify_SVG__000046___0" class="fil0 str0" points="56.947,172.141 56.791000000000004,171.053 56.55500000000001,170.585 55.96820000000001,170.357 54.62470000000001,170.261" fill="none" stroke="black" stroke-width="0.1"/>
		<polyline id="simplify_SVG__000047___0" class="fil0 str0" points="66.761,157.957 67.36999999999999,157.285 67.99099999999999,156.299 68.23099999999998,155.56900000000002 69.34199999999998,150.60500000000002 69.34499999999998,150.157 68.98899999999999,149.82000000000002 68.57999999999998,149.73000000000002 68.34199999999998,149.805" fill="none" stroke="black" stroke-width="0.1"/>

        <polygon id="path114_1" points="48.9252,131.707 47.6428,132.423 46.3878,133.134 45.1587,133.843 43.954,134.552 42.7722,135.264 41.6119,135.981 40.4715,136.706 39.3495,137.441 39.3495,137.441 38.6968,137.88 38.0497,138.324 37.4078,138.774 36.771,139.229 36.1388,139.691 35.5109,140.161 34.8872,140.637 34.2672,141.123 34.2672,141.123 33.621,141.635 32.9707,142.152 32.3151,142.677 31.6532,143.208 30.9837,143.75 30.3055,144.301 29.6174,144.863 28.9184,145.439 28.9184,145.439 28.4332,145.84 27.9419,146.249 27.4441,146.664 26.9396,147.088 26.4279,147.52 25.9087,147.96 25.3817,148.409 24.8464,148.867 24.8464,148.867 24.1433,149.472 23.4251,150.095 22.691,150.735 21.9401,151.394 21.1718,152.072 20.3851,152.771 19.5794,153.49 18.7538,154.232 18.7538,154.232 17.3997,155.47 16.0104,156.771 14.5816,158.135 13.1087,159.562 11.5872,161.051 10.0125,162.602 8.3801,164.215 6.6855,165.888 6.6855,165.888 5.8257,166.737 5.0618,167.554 4.3626,168.34 3.697,169.095 3.0339,169.82 2.3423,170.515 1.5911,171.181 0.7491,171.818 -1.7334,183.72 0.0515,184.371 5.7084,184.177 7.6097,176.059 8.1373,175.231 8.7323,174.871 9.4462,174.631 11.0874,174.251 13.6054,173.882 17.5402,173.435 18.3644,173.579 28.2689,173.481 28.8332,173.379 29.1378,173.006 29.535,171.646 30.8865,171.708 32.2004,171.767 33.426,171.555 34.785,171.016 35.2985,170.622 35.7699,169.766 36.243,168.45 35.5047,166.529 34.2255,164.368 33.6137,163.414 32.6557,162.733 30.7152,162.496 29.8255,162.617 28.5668,162.83 27.0207,163.181 29.3154,151.948 30.1211,151.056 31.3799,150.392 35.5736,149.234 36.7104,148.972 41.9233,147.923 45.1498,147.263 46.0709,146.992 46.5973,147.546 47.1673,148.06 47.7787,148.53 48.4297,148.953 49.1182,149.326 49.8423,149.645 50.5999,149.908 51.389,150.112 51.389,150.112 53.3675,150.333 55.2917,150.16 57.1144,149.624 58.7888,148.756 60.2679,147.586 61.5046,146.144 62.4521,144.46 63.0633,142.566 63.0633,142.566 63.284,140.587 63.1113,138.663 62.5758,136.84 61.7077,135.166 60.5374,133.687 59.0953,132.45 57.4118,131.503 55.5171,130.891 55.5171,130.891 54.646,130.744 53.7803,130.676 52.924,130.684 52.081,130.766 51.2552,130.919 50.4507,131.141 49.6713,131.428 48.9211,131.779" fill="none" stroke="black" stroke-width="0.1"/>

		<polyline id="simplify_SVG__000048___0" class="fil0 str0" points="7.6548,175.554 8.2886,173.093 8.6081,172.07999999999998 9.2287,171.202 9.9604,170.699 11.2547,170.39000000000001 17.5077,168.935 29.153399999999998,166.262 30.8846,166.282 32.8953,166.64700000000002 34.3689,167.282 35.2748,168.095 35.7253,168.946" fill="none" stroke="black" stroke-width="0.1"/>
		<polyline id="simplify_SVG__000049___0" class="fil0 str0" points="47.781,132.345 45.6336,133.998 42.9904,136.7655 41.6629,138.1763 39.5046,140.8991 37.1392,143.6805 35.284400000000005,145.5935 32.5309,147.7835 29.4704,149.7115 28.1304,150.2525 26.626900000000003,151.5885 25.325300000000002,153.47650000000002 24.352400000000003,155.7675 22.794300000000003,163.2305" fill="none" stroke="black" stroke-width="0.1"/>
		<polyline id="simplify_SVG__000050___0" class="fil0 str0" points="31.7873,150.128 29.2229,149.81199999999998 31.3672,148.517 35.0546,147.68 37.7715,147.84 39.443400000000004,148.37800000000001" fill="none" stroke="black" stroke-width="0.1"/>
		<polyline id="simplify_SVG__000051___0" class="fil0 str0" points="28.1304,150.253 24.9676,151.201 22.5852,152.31199999999998 20.2524,153.748 17.3109,156.09099999999998" fill="none" stroke="black" stroke-width="0.1"/>
		<polyline id="simplify_SVG__000052___0" class="fil0 str0" points="11.1963,167.155 11.3323,166.689 11.6154,166.279 12.3209,165.727 19.8535,158.858 21.5324,157.177 22.6248,156.529 24.2662,156.182" fill="none" stroke="black" stroke-width="0.1"/>
		<polyline id="simplify_SVG__000053___0" class="fil0 str0" points="28.1304,150.253 25.8807,162.81799999999998 19.132800000000003,164.52599999999998 13.572100000000002,166.39299999999997 8.427200000000003,168.26699999999997 4.582800000000002,170.80799999999996 2.3039000000000023,172.67899999999997 0.10220000000000207,174.94999999999996" fill="none" stroke="black" stroke-width="0.1"/>
		<polyline id="simplify_SVG__000054___0" class="fil0 str0" points="8.2806,172.079 6.295999999999999,173.75400000000002 4.693199999999999,175.49200000000002 3.5471999999999992,177.418 0.23529999999999918,183.95000000000002" fill="none" stroke="black" stroke-width="0.1"/>

        <polygon id="circle130" points="56.4508,141.145 56.3671,141.455 56.2515,141.755 56.1052,142.04 55.9298,142.309 55.7273,142.558 55.4999,142.785 55.25,142.986 54.9805,143.16 54.6943,143.305 54.3944,143.42 54.0842,143.502 53.7671,143.552 53.4466,143.568 53.1261,143.55 52.8093,143.499 52.4994,143.416 52.2001,143.3 51.9144,143.154 51.6456,142.978 51.3966,142.776 51.1702,142.548 50.9688,142.298 50.7945,142.029 50.6494,141.743 50.5351,141.443 50.4527,141.133 50.4031,140.816 50.387,140.495 50.4045,140.175 50.4554,139.858 50.5391,139.548 50.6547,139.249 50.801,138.963 50.9764,138.694 51.1789,138.445 51.4063,138.219 51.6562,138.017 51.9257,137.843 52.2119,137.698 52.5118,137.584 52.822,137.501 53.1391,137.452 53.4596,137.435 53.7801,137.453 54.0969,137.504 54.4068,137.588 54.7061,137.703 54.9918,137.85 55.2606,138.025 55.5096,138.227 55.736,138.455 55.9374,138.705 56.1117,138.974 56.2568,139.26 56.3711,139.56 56.4535,139.87 56.5031,140.188 56.5192,140.508 56.5017,140.829" fill="none" stroke="black" stroke-width="0.1"/>
        <polygon id="circle132" points="62.5142,142.448 62.2611,143.384 61.9116,144.289 61.4693,145.153 60.9393,145.965 60.3272,146.718 59.6398,147.402 58.8846,148.011 58.0699,148.537 57.2047,148.976 56.2983,149.322 55.3607,149.571 54.4023,149.721 53.4334,149.769 52.4648,149.717 51.507,149.563 50.5705,149.31 49.6656,148.96 48.8022,148.518 47.9898,147.988 47.2372,147.376 46.5527,146.688 45.9438,145.933 45.4172,145.118 44.9787,144.253 44.6329,143.347 44.3838,142.409 44.2341,141.451 44.1854,140.482 44.2382,139.513 44.392,138.555 44.6451,137.619 44.9946,136.714 45.4369,135.851 45.9669,135.038 46.579,134.286 47.2664,133.601 48.0216,132.992 48.8363,132.466 49.7015,132.027 50.6079,131.681 51.5455,131.432 52.5039,131.283 53.4728,131.234 54.4414,131.287 55.3992,131.44 56.3357,131.694 57.2406,132.043 58.104,132.485 58.9164,133.015 59.669,133.628 60.3535,134.315 60.9624,135.07 61.489,135.885 61.9275,136.75 62.2733,137.656 62.5224,138.594 62.6721,139.552 62.7208,140.521 62.668,141.49" fill="none" stroke="black" stroke-width="0.1"/>
        <polygon id="circle134" points="59.2472,141.746 59.0854,142.345 58.8618,142.923 58.579,143.476 58.2401,143.995 57.8487,144.476 57.4092,144.914 56.9263,145.303 56.4053,145.64 55.852,145.921 55.2724,146.142 54.6729,146.301 54.0601,146.397 53.4405,146.428 52.8211,146.394 52.2087,146.296 51.6099,146.134 51.0312,145.91 50.4791,145.628 49.9596,145.289 49.4784,144.897 49.0407,144.458 48.6513,143.975 48.3146,143.454 48.0342,142.9 47.8131,142.321 47.6538,141.721 47.5581,141.109 47.5269,140.489 47.5607,139.87 47.659,139.257 47.8208,138.658 48.0444,138.08 48.3272,137.528 48.6661,137.008 49.0575,136.527 49.497,136.089 49.9799,135.7 50.5009,135.363 51.0542,135.083 51.6338,134.862 52.2333,134.702 52.8461,134.607 53.4657,134.575 54.0851,134.609 54.6975,134.708 55.2963,134.869 55.875,135.093 56.4271,135.376 56.9466,135.715 57.4278,136.106 57.8655,136.546 58.2549,137.028 58.5916,137.549 58.872,138.103 59.0931,138.682 59.2524,139.282 59.3481,139.895 59.3793,140.514 59.3455,141.134" fill="none" stroke="black" stroke-width="0.1"/>
        <polygon id="circle136" points="58.712,141.631 58.5651,142.175 58.3622,142.7 58.1056,143.201 57.7979,143.672 57.4427,144.109 57.0437,144.506 56.6054,144.86 56.1326,145.166 55.6304,145.42 55.1044,145.621 54.5603,145.765 54.004,145.852 53.4417,145.88 52.8795,145.85 52.3236,145.761 51.7801,145.614 51.2549,145.411 50.7538,145.154 50.2823,144.846 49.8455,144.491 49.4483,144.092 49.0949,143.654 48.7892,143.181 48.5347,142.679 48.334,142.153 48.1895,141.609 48.1026,141.053 48.0743,140.49 48.105,139.928 48.1942,139.372 48.3411,138.829 48.544,138.303 48.8006,137.802 49.1083,137.331 49.4635,136.894 49.8625,136.497 50.3008,136.143 50.7736,135.838 51.2758,135.583 51.8018,135.382 52.3459,135.238 52.9022,135.151 53.4645,135.123 54.0267,135.154 54.5826,135.243 55.1261,135.39 55.6513,135.593 56.1524,135.849 56.6239,136.157 57.0607,136.512 57.4579,136.911 57.8113,137.349 58.117,137.822 58.3715,138.324 58.5722,138.85 58.7167,139.394 58.8036,139.951 58.8319,140.513 58.8012,141.075" fill="none" stroke="black" stroke-width="0.1"/>
        <polygon id="circle138" points="57.6416,141.401 57.5246,141.834 57.363,142.252 57.1586,142.652 56.9136,143.027 56.6306,143.375 56.3129,143.691 55.9638,143.973 55.5872,144.216 55.1873,144.419 54.7683,144.579 54.3349,144.694 53.8919,144.763 53.444,144.786 52.9963,144.761 52.5535,144.69 52.1206,144.573 51.7023,144.411 51.3032,144.207 50.9277,143.962 50.5798,143.679 50.2634,143.361 49.9819,143.012 49.7385,142.636 49.5358,142.236 49.376,141.817 49.2608,141.383 49.1916,140.94 49.1691,140.493 49.1935,140.045 49.2646,139.602 49.3816,139.169 49.5432,138.751 49.7476,138.352 49.9926,137.976 50.2756,137.628 50.5933,137.312 50.9424,137.03 51.319,136.787 51.7189,136.584 52.1379,136.424 52.5713,136.309 53.0143,136.24 53.4622,136.218 53.9099,136.242 54.3527,136.313 54.7856,136.43 55.2039,136.592 55.603,136.796 55.9785,137.041 56.3264,137.324 56.6428,137.642 56.9243,137.991 57.1677,138.368 57.3704,138.767 57.5302,139.186 57.6454,139.62 57.7146,140.063 57.7371,140.511 57.7127,140.958" fill="none" stroke="black" stroke-width="0.1"/>
        <polygon id="circle140" points="55.9429,141.036 55.8734,141.294 55.7773,141.542 55.6558,141.78 55.5102,142.003 55.342,142.21 55.1531,142.398 54.9456,142.565 54.7217,142.71 54.484,142.83 54.2349,142.925 53.9773,142.994 53.7139,143.035 53.4477,143.048 53.1815,143.034 52.9184,142.991 52.661,142.922 52.4124,142.826 52.1751,142.704 51.9519,142.559 51.7451,142.391 51.557,142.202 51.3897,141.994 51.245,141.77 51.1245,141.533 51.0295,141.283 50.961,141.026 50.9199,140.762 50.9065,140.496 50.921,140.23 50.9633,139.967 51.0328,139.709 51.1289,139.461 51.2504,139.224 51.396,139.0 51.5642,138.794 51.7531,138.606 51.9606,138.438 52.1845,138.293 52.4222,138.173 52.6713,138.078 52.9289,138.01 53.1923,137.968 53.4585,137.955 53.7247,137.97 53.9878,138.012 54.2452,138.081 54.4938,138.177 54.7311,138.299 54.9543,138.445 55.1611,138.613 55.3492,138.802 55.5165,139.009 55.6612,139.233 55.7817,139.471 55.8767,139.72 55.9452,139.977 55.9863,140.241 55.9997,140.507 55.9852,140.773" fill="none" stroke="black" stroke-width="0.1"/>
        <polygon id="polygon142" points="55.8767,139.72 55.3419,142.21 52.9183,142.991 51.0295,141.283 51.5642,138.794 53.9878,138.012" fill="none" stroke="black" stroke-width="0.1"/>
        <polygon id="polygon144" points="54.3185,154.278 53.8079,153.942 53.02,153.694 51.3781,153.352 52.1143,153.07 53.1203,153.125 54.0124,153.388 54.656,153.877 55.1164,154.441 54.7285,154.881" fill="none" stroke="black" stroke-width="0.1"/>
        <polygon id="polygon146" points="29.3154,151.948 30.1211,151.056 31.3799,150.392 35.5736,149.234 36.7104,148.972 38.6863,148.517 41.9233,147.923 45.1498,147.263 48.1037,146.392 52.2334,145.064 54.8644,144.265 56.907,143.716 59.181,143.218 61.754,143.105 67.398,143.477 72.787,144.364 74.897,144.844 76.684,145.444 78.127,146.363 79.017,147.397 79.26,148.216 79.307,148.721 78.895,150.638 78.839,150.832 78.149,149.547 76.463,148.099 72.46,147.313 70.843,147.472 69.532,147.979 69.215,148.47 68.418,149.127 68.192,150.098 66.502,157.368 66.844,158.145 67.929,158.578 69.347,158.782 71.931,159.244 73.419,159.943 75.257,161.37 76.239,163.26 75.586,166.301 74.882,167.555 73.711,168.397 73.093,168.345 72.298,168.637 70.923,168.876 69.539,168.924 68.877,169.146 67.652,168.884 66.254,167.994 65.047,167.436 63.753,167.48 57.336,167.558 56.0524,167.972 55.4566,168.473 55.5644,168.879 55.4501,169.532 51.7359,171.556 47.3528,174.111 47.0563,175.903 46.6046,178.015 45.8472,180.504 45.5258,182.459 44.9811,184.101 44.2182,185.696 42.8401,187.227 41.2544,188.31 39.376,188.982 37.1355,189.321 34.776,189.261 34.2834,188.776 33.8774,188.095 37.1221,172.577 37.0081,170.892 36.4252,168.924 35.5047,166.529 34.2255,164.368 33.6137,163.414 32.6557,162.733 30.7152,162.496 28.5668,162.83 27.0207,163.181" fill="none" stroke="black" stroke-width="0.1"/>
        <g id="simplify_SVG__000064_1">
            <polyline id="simplify_SVG__000064___0" class="fil0 str0" points="69.962,146.395 69.138,147.15300000000002 68.66900000000001,147.854 68.52700000000002,148.655 68.19200000000002,150.098" fill="none" stroke="black" stroke-width="0.1"/>
            <polygon id="simplify_SVG__000064___1" class="fil0 str0" points="69.96200000000002,146.395" fill="none" stroke="black" stroke-width="0.1"/>
        </g>

		<polyline id="simplify_SVG__000065___0" class="fil0 str0" points="66.844,158.145 60.15599999999999,158.197 59.916999999999994,159.867 59.40899999999999,160.908 58.343999999999994,161.73999999999998 57.24399999999999,162.36899999999997 55.297999999999995,162.43899999999996 54.06849999999999,161.90099999999995 53.48499999999999,161.12499999999994 53.10419999999999,159.89799999999994 53.34339999999999,158.21499999999995 48.71819999999999,158.39299999999994 44.67459999999999,158.95999999999995 42.70589999999999,158.94399999999996 41.098099999999995,157.74999999999997 39.72729999999999,155.75999999999996 39.25849999999999,154.96799999999996 39.40119999999999,154.26199999999997 40.55989999999999,153.76299999999998 43.055899999999994,152.65299999999996 48.3441,150.57299999999995 53.330799999999996,149.22099999999995 57.19799999999999,148.27799999999993 69.13799999999999,147.15299999999993" fill="none" stroke="black" stroke-width="0.1"/>
		<polyline id="simplify_SVG__000066___0" class="fil0 str0" points="42.2184,159.134 39.1987,159.569 33.7368,160.83999999999997 28.7179,162.33199999999997" fill="none" stroke="black" stroke-width="0.1"/>
		<polyline id="simplify_SVG__000067___0" class="fil0 str0" points="73.318,164.311 72.45,163.61 70.661,162.997 68.681,162.65300000000002 60.653999999999996,163.395 52.371399999999994,164.495 47.37779999999999,165.76500000000001 45.378299999999996,166.38400000000001 43.2238,167.55900000000003 41.6804,168.78400000000002 40.4753,170.336 34.8125,188.473" fill="none" stroke="black" stroke-width="0.1"/>
		<polyline id="simplify_SVG__000068___0" class="fil0 str0" points="66.172,165.748 55.1018,166.756 49.494299999999996,167.082 47.889599999999994,167.141 46.182199999999995,167.456 44.312,168.298 43.235299999999995,169.693 42.9248,171.151 42.9219,172.87400000000002 43.2718,175.57100000000003 44.314499999999995,178.09600000000003 45.124399999999994,179.75800000000004 45.847199999999994,180.50400000000005" fill="none" stroke="black" stroke-width="0.1"/>
		<polyline id="simplify_SVG__000069___0" class="fil0 str0" points="27.0207,163.181 26.3018,163.328 25.8807,162.818" fill="none" stroke="black" stroke-width="0.1"/>

        <polygon id="polygon160" points="52.2294,157.631 57.151,152.046 57.506,151.46 57.367,150.704 56.705,150.413 55.9546,150.364 52.9661,150.898 51.0084,151.473 48.5542,152.218 46.2659,153.182 44.2264,154.208 43.7336,154.666 43.4348,155.272 43.4449,155.995 44.8763,158.125 45.3888,158.511 45.9895,158.497 51.3011,158.028" fill="none" stroke="black" stroke-width="0.1"/>
        <polygon id="polygon162" points="52.2293,157.631 57.212,151.945 56.577,151.914 53.6718,152.611 51.7235,153.217 49.2814,154.002 47.0088,155.002 44.9859,156.06 44.7246,156.408 44.6226,157.009 45.0683,157.838 45.4097,158.268 45.9895,158.497 51.3011,158.028" fill="none" stroke="black" stroke-width="0.1"/>
        <polygon id="path164_1" points="44.7116,169.743 44.8062,169.302 44.9512,169.113 45.3617,168.593 45.9224,168.185 46.6123,167.89 47.4108,167.707 48.297,167.638 49.2501,167.683 50.2494,167.844 50.2494,167.844 51.2266,168.107 52.1156,168.451 52.8988,168.861 53.5587,169.324 54.0776,169.825 54.4382,170.348 54.6227,170.881 54.6136,171.409 54.519,171.849 54.4735,172.011 54.4084,172.166 54.3245,172.313 54.2225,172.453 54.103,172.585 53.9668,172.709 53.8146,172.825 53.647,172.933 53.647,172.933 53.0353,172.316 52.0696,171.735 50.8596,171.224 49.5148,170.819 48.145,170.556 46.8598,170.469 45.7687,170.595 44.9815,170.969 44.9815,170.969 44.8934,170.816 44.8201,170.662 44.7618,170.508 44.719,170.354 44.6922,170.2 44.6817,170.047 44.6881,169.894" fill="none" stroke="black" stroke-width="0.1"/>
        <polygon id="ellipse166" points="52.104,174.786 52.0425,174.987 51.9466,175.178 51.8174,175.358 51.6563,175.523 51.4651,175.673 51.2458,175.806 51.0009,175.921 50.7331,176.015 50.4452,176.088 50.1405,176.139 49.8222,176.168 49.4939,176.175 49.1592,176.158 48.8217,176.12 48.4851,176.058 48.1531,175.976 47.8294,175.873 47.5174,175.75 47.2207,175.61 46.9424,175.452 46.6857,175.28 46.4532,175.096 46.2477,174.9 46.0713,174.695 45.9259,174.484 45.8132,174.268 45.7343,174.051 45.6902,173.834 45.6814,173.621 45.7078,173.412 45.7693,173.211 45.8652,173.02 45.9944,172.84 46.1555,172.675 46.3467,172.524 46.566,172.392 46.8109,172.278 47.0787,172.183 47.3666,172.11 47.6713,172.059 47.9896,172.03 48.3179,172.023 48.6526,172.04 48.9901,172.078 49.3267,172.14 49.6587,172.222 49.9824,172.325 50.2944,172.448 50.5911,172.588 50.8694,172.745 51.1261,172.917 51.3586,173.102 51.5641,173.298 51.7405,173.503 51.8859,173.714 51.9986,173.929 52.0775,174.147 52.1216,174.363 52.1304,174.577" fill="none" stroke="black" stroke-width="0.1"/>
        <g id="_tag_9_">
            <polyline id="path168___0___0" class="fil1 str5" points="53.6439,173.559 53.6445,173.5591" fill="none" stroke="black" stroke-width="0.1"/>
            <polygon id="path168___1" points="50.0562,168.743 50.9652,168.991 51.7907,169.322 52.5164,169.72 53.1262,170.172 53.6039,170.663 53.9332,171.18 54.098,171.709 54.082,172.235 53.9271,172.957 53.9071,173.038 53.8826,173.118 53.8535,173.196 53.8201,173.272 53.7823,173.346 53.7404,173.419 53.6943,173.49 53.6442,173.559 51.8604,175.306 51.8603,175.306 51.6137,175.561 51.3006,175.777 50.9293,175.949 50.508,176.074 50.0447,176.151 49.5477,176.176 49.0251,176.146 48.4851,176.059 48.4851,176.059 47.957,175.917 47.4685,175.73 47.0258,175.503 46.6351,175.243 46.3027,174.955 46.0348,174.646 45.8376,174.322 45.7175,173.988 45.717,173.988 44.8149,171.693 44.8156,171.693 44.7957,171.605 44.7806,171.518 44.7704,171.43 44.7653,171.343 44.7653,171.256 44.7705,171.169 44.7809,171.082 44.7967,170.996 44.9516,170.274 45.1531,169.788 45.5204,169.374 46.033,169.037 46.6703,168.785 47.4118,168.624 48.237,168.559 49.1253,168.596" fill="none" stroke="black" stroke-width="0.1"/>
            <polyline id="path170_1___0" class="fil0 str5" points="44.7967,170.996 44.998200000000004,170.5097 45.365500000000004,170.0953 45.8781,169.75900000000001 46.51540000000001,169.5069 47.25690000000001,169.3453 48.08210000000001,169.2802 48.97040000000001,169.3178 49.90130000000001,169.4643 49.90130000000001,169.4643 50.81030000000001,169.71290000000002 51.63580000000001,170.04340000000002 52.361500000000014,170.44160000000002 52.971300000000014,170.89350000000002 53.448900000000016,171.38510000000002 53.778300000000016,171.90220000000002 53.94300000000002,172.4309 53.92710000000002,172.95700000000002" fill="none" stroke="black" stroke-width="0.1"/>
        </g>
        <polygon id="ellipse172" points="52.104,174.786 52.0425,174.987 51.9466,175.178 51.8174,175.358 51.6563,175.523 51.4651,175.673 51.2458,175.806 51.0009,175.921 50.7331,176.015 50.4452,176.088 50.1405,176.139 49.8222,176.168 49.4939,176.175 49.1592,176.158 48.8217,176.12 48.4851,176.058 48.1531,175.976 47.8294,175.873 47.5174,175.75 47.2207,175.61 46.9424,175.452 46.6857,175.28 46.4532,175.096 46.2477,174.9 46.0713,174.695 45.9259,174.484 45.8132,174.268 45.7343,174.051 45.6902,173.834 45.6814,173.621 45.7078,173.412 45.7693,173.211 45.8652,173.02 45.9944,172.84 46.1555,172.675 46.3467,172.524 46.566,172.392 46.8109,172.278 47.0787,172.183 47.3666,172.11 47.6713,172.059 47.9896,172.03 48.3179,172.023 48.6526,172.04 48.9901,172.078 49.3267,172.14 49.6587,172.222 49.9824,172.325 50.2944,172.448 50.5911,172.588 50.8694,172.745 51.1261,172.917 51.3586,173.102 51.5641,173.298 51.7405,173.503 51.8859,173.714 51.9986,173.929 52.0775,174.147 52.1216,174.363 52.1304,174.577" fill="none" stroke="black" stroke-width="0.1"/>
        <g id="simplify_SVG__000074_1">
            <polyline id="simplify_SVG__000074___0" class="fil0 str0" points="45.7451,174.09 44.3894,171.476 44.0891,170.518 44.2991,169.485 44.8065,168.608 45.4205,168.111 46.2628,167.65099999999998 47.8896,167.141 49.7119,167.06099999999998 50.8468,167.20899999999997 51.6314,167.33299999999997 52.449,167.63799999999998 53.6076,168.35599999999997 54.3315,169.20299999999997 55.2067,169.38199999999998" fill="none" stroke="black" stroke-width="0.1"/>
            <polyline id="path176_1___0" class="fil0 str5" points="44.7116,169.743 44.919999999999995,169.2582 45.306999999999995,168.84799999999998 45.85079999999999,168.51839999999999 46.52949999999999,168.27519999999998 47.321099999999994,168.12429999999998 48.203799999999994,168.0716 49.15559999999999,168.12279999999998 50.15469999999999,168.284 50.15469999999999,168.284 51.131899999999995,168.54729999999998 52.020999999999994,168.89139999999998 52.804199999999994,169.3019 53.464099999999995,169.7646 53.983,170.26500000000001 54.343599999999995,170.7889 54.528099999999995,171.32180000000002 54.519,171.84940000000003" fill="none" stroke="black" stroke-width="0.1"/>
        </g>
        <polygon id="ellipse178" points="51.5511,174.917 51.4977,175.094 51.4153,175.262 51.3049,175.421 51.1677,175.567 51.0051,175.7 50.8189,175.818 50.6112,175.92 50.3843,176.004 50.1406,176.071 49.8828,176.118 49.6138,176.146 49.3364,176.154 49.0538,176.142 48.769,176.11 48.4851,176.059 48.2053,175.989 47.9326,175.901 47.67,175.796 47.4203,175.674 47.1864,175.539 46.9708,175.39 46.7758,175.229 46.6036,175.059 46.456,174.881 46.3347,174.697 46.2411,174.509 46.1761,174.319 46.1404,174.129 46.1344,173.942 46.1583,173.759 46.2117,173.582 46.2941,173.414 46.4045,173.256 46.5417,173.109 46.7043,172.976 46.8905,172.858 47.0982,172.756 47.3251,172.672 47.5688,172.605 47.8266,172.558 48.0956,172.53 48.373,172.523 48.6556,172.534 48.9404,172.566 49.2243,172.617 49.5041,172.687 49.7768,172.775 50.0394,172.88 50.2891,173.001 50.523,173.137 50.7386,173.286 50.9336,173.447 51.1058,173.617 51.2534,173.795 51.3747,173.979 51.4683,174.167 51.5333,174.357 51.569,174.547 51.575,174.734" fill="none" stroke="black" stroke-width="0.1"/>
        <polygon id="polygon180" points="51.0419,174.111 50.7398,175.518 48.557,175.785 46.6763,174.646 46.9785,173.239 49.1613,172.972" fill="none" stroke="black" stroke-width="0.1"/>
        <line id="line182" x1="48.557" y1="175.785" x2="49.1613" y2="172.972" stroke="black" stroke-width="0.1"/>
        <polygon id="ellipse184" points="34.9558,169.801 34.8893,170.015 34.7838,170.217 34.6405,170.406 34.4611,170.581 34.2474,170.738 34.0019,170.876 33.7271,170.995 33.4262,171.091 33.1024,171.165 32.7592,171.216 32.4005,171.242 32.0301,171.244 31.6521,171.222 31.2707,171.176 30.89,171.106 30.5141,171.013 30.1474,170.899 29.7936,170.764 29.4567,170.61 29.1405,170.438 28.8483,170.251 28.5834,170.051 28.3487,169.839 28.1467,169.619 27.9796,169.392 27.8494,169.161 27.7573,168.928 27.7045,168.697 27.6915,168.469 27.7184,168.247 27.7849,168.033 27.8904,167.831 28.0337,167.642 28.2131,167.467 28.4268,167.31 28.6723,167.172 28.9471,167.053 29.248,166.957 29.5718,166.883 29.915,166.832 30.2737,166.806 30.6441,166.804 31.0221,166.826 31.4035,166.872 31.7842,166.942 32.1601,167.035 32.5268,167.149 32.8806,167.284 33.2175,167.438 33.5337,167.61 33.8259,167.797 34.0908,167.997 34.3255,168.209 34.5275,168.429 34.6946,168.656 34.8248,168.887 34.9169,169.12 34.9697,169.351 34.9827,169.579" fill="none" stroke="black" stroke-width="0.1"/>
        <polygon id="ellipse186" points="30.2191,179.361 30.1526,179.575 30.0471,179.777 29.9038,179.967 29.7244,180.141 29.5107,180.298 29.2652,180.437 28.9904,180.555 28.6895,180.651 28.3657,180.725 28.0225,180.776 27.6638,180.802 27.2934,180.804 26.9154,180.782 26.534,180.736 26.1533,180.666 25.7774,180.573 25.4107,180.459 25.0569,180.324 24.72,180.17 24.4038,179.998 24.1116,179.812 23.8467,179.611 23.612,179.399 23.41,179.179 23.2429,178.952 23.1127,178.721 23.0206,178.488 22.9678,178.257 22.9548,178.029 22.9817,177.807 23.0482,177.593 23.1537,177.391 23.297,177.202 23.4764,177.027 23.6901,176.87 23.9356,176.732 24.2104,176.613 24.5113,176.517 24.8351,176.443 25.1783,176.392 25.537,176.366 25.9074,176.364 26.2854,176.386 26.6668,176.432 27.0475,176.502 27.4234,176.595 27.7901,176.709 28.1439,176.844 28.4808,176.998 28.797,177.17 29.0892,177.357 29.3541,177.557 29.5888,177.769 29.7908,177.989 29.9579,178.216 30.0881,178.447 30.1802,178.68 30.233,178.911 30.246,179.139" fill="none" stroke="black" stroke-width="0.1"/>
        <polygon id="ellipse188" points="67.8987,179.373 67.8322,179.587 67.7267,179.789 67.5834,179.979 67.404,180.153 67.1903,180.31 66.9448,180.449 66.67,180.567 66.3691,180.663 66.0453,180.737 65.7021,180.788 65.3434,180.814 64.973,180.816 64.595,180.794 64.2136,180.748 63.8329,180.678 63.457,180.585 63.0903,180.471 62.7365,180.336 62.3996,180.182 62.0834,180.01 61.7912,179.824 61.5263,179.623 61.2916,179.411 61.0896,179.191 60.9225,178.964 60.7923,178.733 60.7002,178.5 60.6474,178.269 60.6344,178.041 60.6613,177.819 60.7278,177.605 60.8333,177.403 60.9766,177.214 61.156,177.039 61.3697,176.882 61.6152,176.744 61.89,176.625 62.1909,176.529 62.5147,176.455 62.8579,176.404 63.2166,176.378 63.587,176.376 63.965,176.398 64.3464,176.444 64.7271,176.514 65.103,176.607 65.4697,176.721 65.8235,176.856 66.1604,177.01 66.4766,177.182 66.7688,177.369 67.0337,177.569 67.2684,177.78 67.4704,178.001 67.6375,178.228 67.7677,178.459 67.8598,178.692 67.9126,178.923 67.9256,179.151" fill="none" stroke="black" stroke-width="0.1"/>
        <polygon id="ellipse190" points="73.9357,166.645 73.8692,166.859 73.7637,167.061 73.6204,167.25 73.441,167.425 73.2273,167.582 72.9818,167.721 72.707,167.839 72.4061,167.935 72.0823,168.009 71.7391,168.06 71.3804,168.086 71.01,168.088 70.632,168.066 70.2506,168.02 69.8699,167.95 69.494,167.857 69.1273,167.743 68.7735,167.608 68.4366,167.454 68.1204,167.282 67.8282,167.096 67.5633,166.895 67.3286,166.684 67.1266,166.463 66.9595,166.236 66.8293,166.005 66.7372,165.772 66.6844,165.541 66.6714,165.313 66.6983,165.091 66.7648,164.877 66.8703,164.675 67.0136,164.486 67.193,164.311 67.4067,164.154 67.6522,164.016 67.927,163.897 68.2279,163.801 68.5517,163.727 68.8949,163.676 69.2536,163.65 69.624,163.648 70.002,163.67 70.3834,163.716 70.7641,163.786 71.14,163.879 71.5067,163.993 71.8605,164.128 72.1974,164.282 72.5136,164.454 72.8058,164.641 73.0707,164.841 73.3054,165.053 73.5074,165.273 73.6745,165.5 73.8047,165.731 73.8968,165.964 73.9496,166.195 73.9626,166.423" fill="none" stroke="black" stroke-width="0.1"/>

        <polyline id="path192_1___0" class="fil0 str5" points="29.6796,159.612 33.9456,156.6325 35.8058,155.452 39.4137,153.503 42.298,152.15779999999998 44.3958,151.27469999999997 46.8801,150.35819999999995 50.5041,149.17109999999997 56.3337,147.60369999999998 56.0354,146.88929999999996 56.0266,146.28349999999998 56.1287,145.78029999999998 56.4152,145.23379999999997 56.7112,144.77459999999996 57.205,144.34599999999998 58.0714,143.82719999999998 58.856899999999996,143.52649999999997 58.856899999999996,143.52649999999997 59.8099,143.31869999999998 60.7407,143.29569999999998 61.585499999999996,143.45289999999997 62.280899999999995,143.78609999999998 62.7632,144.29089999999997 62.9689,144.96289999999996 62.834399999999995,145.79759999999996 62.296099999999996,146.79079999999996 66.47569999999999,146.33899999999997 69.2687,146.36649999999997 72.0298,146.47999999999996 74.27959999999999,147.06979999999996 75.84669999999998,147.70059999999995 77.07999999999998,148.49669999999995 78.14909999999999,149.54689999999994 78.89509999999999,150.63729999999993" fill="none" stroke="black" stroke-width="0.1"/>

        <polygon id="ellipse194" points="62.5253,144.979 62.5321,145.212 62.5063,145.452 62.4481,145.697 62.3582,145.943 62.2376,146.189 62.0876,146.432 61.9099,146.668 61.7064,146.896 61.4793,147.113 61.2311,147.316 60.9646,147.503 60.6826,147.673 60.3882,147.822 60.0847,147.951 59.7755,148.056 59.4638,148.138 59.1531,148.195 58.8468,148.227 58.5483,148.233 58.2608,148.213 57.9874,148.167 57.7313,148.097 57.4951,148.002 57.2815,147.883 57.0928,147.743 56.9311,147.582 56.7982,147.403 56.6954,147.207 56.624,146.996 56.5847,146.773 56.5779,146.54 56.6037,146.3 56.6619,146.055 56.7518,145.809 56.8724,145.563 57.0224,145.32 57.2001,145.084 57.4036,144.856 57.6307,144.639 57.8789,144.436 58.1454,144.249 58.4274,144.08 58.7218,143.93 59.0253,143.801 59.3345,143.696 59.6462,143.614 59.9569,143.557 60.2632,143.525 60.5617,143.519 60.8492,143.539 61.1226,143.585 61.3787,143.655 61.6149,143.75 61.8285,143.869 62.0172,144.009 62.1789,144.17 62.3118,144.349 62.4146,144.545 62.486,144.756" fill="none" stroke="black" stroke-width="0.1"/>
        <g id="_tag_10_">

			<polyline id="simplify_SVG__000083___0" class="fil0 str0" points="56.989,145.498 58.156,145.01899999999998 58.723,144.48899999999998 60.176,144.30199999999996 60.566,144.96899999999997 62.595,145.12999999999997" fill="none" stroke="black" stroke-width="0.1"/>
			<polyline id="simplify_SVG__000084___0" class="fil0 str0" points="56.587,146.424 58.031000000000006,146.017 58.306000000000004,146.67 59.900000000000006,146.55399999999997 60.665000000000006,145.77999999999997 62.37400000000001,145.90599999999998" fill="none" stroke="black" stroke-width="0.1"/>
			<polyline id="simplify_SVG__000085___0" class="fil0 str0" points="58.723,144.489 59.663,146.053 59.102999999999994,146.612" fill="none" stroke="black" stroke-width="0.1"/>
			<polyline id="simplify_SVG__000086___0" class="fil0 str0" points="58.156,145.019 58.858,145.939 58.413,146.507" fill="none" stroke="black" stroke-width="0.1"/>

            <line id="line204" x1="60.566" y1="144.969" x2="60.927" y2="145.8" stroke="black" stroke-width="0.1"/>
            <line id="line206" x1="59.663" y1="146.053" x2="60.477" y2="145.971" stroke="black" stroke-width="0.1"/>
            <line id="line208" x1="58.031" y1="146.017" x2="58.413" y2="146.507" stroke="black" stroke-width="0.1"/>
        </g>
        <g id="path228_1_1">
            <polyline id="path228_1___0" class="fil0 str5" points="73.966,166.489 73.8219,166.9818 73.5283,167.4213 73.1027,167.7994 72.5626,168.108 71.9256,168.3392 71.20920000000001,168.4849 70.43090000000001,168.5371 69.60830000000001,168.48760000000001 69.60830000000001,168.48760000000001 69.05730000000001,168.3965 68.53450000000001,168.264 68.04450000000001,168.0936 67.59190000000001,167.88920000000002 67.18140000000001,167.6542 66.81730000000002,167.3924 66.50450000000002,167.1074 66.24730000000002,166.80280000000002 66.67610000000002,165.23470000000003" fill="none" stroke="black" stroke-width="0.1"/>
            <polyline id="simplify_SVG__000099___0" class="fil0 str0" points="66.247,166.802 65.118,166.908 64.889,166.505 64.131,166.17499999999998" fill="none" stroke="black" stroke-width="0.1"/>
            <polyline id="simplify_SVG__000100___0" class="fil0 str0" points="79.166,152.631 79.657,155.075 79.89399999999999,157.393 79.96799999999999,160.454 79.84199999999998,162.985 79.48899999999999,165.08 80.35999999999999,167.70000000000002 80.88199999999999,170.10600000000002 81.127,172.937 81.06099999999999,176.072" fill="none" stroke="black" stroke-width="0.1"/>
            <polyline id="simplify_SVG__000101___0" class="fil0 str0" points="69.159,151.271 69.15700000000001,150.963 68.95700000000001,150.779 68.64000000000001,150.793 68.25000000000001,151.029 68.09400000000001,151.645" fill="none" stroke="black" stroke-width="0.1"/>
        </g>
        <g id="_tag_11_">
            <polygon id="ellipse210" points="59.6653,158.27 59.6721,158.503 59.6463,158.743 59.5881,158.988 59.4982,159.234 59.3776,159.48 59.2276,159.723 59.0499,159.959 58.8464,160.187 58.6193,160.404 58.3711,160.607 58.1046,160.794 57.8226,160.964 57.5282,161.113 57.2247,161.242 56.9155,161.347 56.6038,161.429 56.2931,161.486 55.9868,161.518 55.6883,161.524 55.4008,161.504 55.1274,161.458 54.8713,161.388 54.6351,161.293 54.4215,161.174 54.2328,161.034 54.0711,160.873 53.9382,160.694 53.8354,160.498 53.764,160.287 53.7247,160.064 53.7179,159.831 53.7437,159.591 53.8019,159.346 53.8918,159.1 54.0124,158.854 54.1624,158.611 54.3401,158.375 54.5436,158.147 54.7707,157.93 55.0189,157.727 55.2854,157.54 55.5674,157.37 55.8618,157.221 56.1653,157.092 56.4745,156.987 56.7862,156.905 57.0969,156.848 57.4032,156.816 57.7017,156.81 57.9892,156.83 58.2626,156.876 58.5187,156.946 58.7549,157.041 58.9685,157.16 59.1572,157.3 59.3189,157.461 59.4518,157.64 59.5546,157.836 59.626,158.047" fill="none" stroke="black" stroke-width="0.1"/>
            <polygon id="ellipse226" points="59.8563,158.7 59.8631,158.933 59.8373,159.173 59.7791,159.418 59.6892,159.664 59.5686,159.91 59.4186,160.153 59.2409,160.389 59.0374,160.617 58.8103,160.834 58.5621,161.037 58.2956,161.224 58.0136,161.393 57.7192,161.543 57.4157,161.672 57.1065,161.777 56.7948,161.859 56.4841,161.916 56.1778,161.948 55.8793,161.954 55.5918,161.934 55.3184,161.888 55.0623,161.818 54.8261,161.723 54.6125,161.604 54.4238,161.464 54.2621,161.303 54.1292,161.124 54.0264,160.928 53.955,160.717 53.9157,160.494 53.9089,160.261 53.9347,160.021 53.9929,159.776 54.0828,159.53 54.2034,159.284 54.3534,159.041 54.5311,158.805 54.7346,158.577 54.9617,158.36 55.2099,158.157 55.4764,157.97 55.7584,157.801 56.0528,157.651 56.3563,157.522 56.6655,157.417 56.9772,157.335 57.2879,157.278 57.5942,157.246 57.8927,157.24 58.1802,157.26 58.4536,157.306 58.7097,157.376 58.9459,157.471 59.1595,157.59 59.3482,157.73 59.5099,157.891 59.6428,158.07 59.7456,158.266 59.817,158.477" fill="none" stroke="black" stroke-width="0.1"/>
            <polyline id="simplify_SVG__000091___0" class="fil0 str0" points="54.1292,158.789 55.296099999999996,158.30999999999997 55.8636,157.77999999999997 57.315999999999995,157.59399999999997 57.706999999999994,158.25999999999996 59.73499999999999,158.42099999999996" fill="none" stroke="black" stroke-width="0.1"/>
            <polyline id="simplify_SVG__000092___0" class="fil0 str0" points="53.7269,159.715 55.171,159.308 55.4459,159.96099999999998 57.04,159.84499999999997 57.805,159.07099999999997 59.515,159.19699999999997" fill="none" stroke="black" stroke-width="0.1"/>
            <polyline id="simplify_SVG__000093___0" class="fil0 str0" points="55.8636,157.78 56.803999999999995,159.344 56.243199999999995,159.903" fill="none" stroke="black" stroke-width="0.1"/>
            <polyline id="simplify_SVG__000094___0" class="fil0 str0" points="55.2961,158.31 55.998000000000005,159.23 55.5534,159.798" fill="none" stroke="black" stroke-width="0.1"/>
            <line id="line220" x1="57.707" y1="158.26" x2="58.067" y2="159.091" stroke="black" stroke-width="0.1"/>
            <line id="line222" x1="56.804" y1="159.344" x2="57.617" y2="159.262" stroke="black" stroke-width="0.1"/>
            <line id="line224" x1="55.171" y1="159.308" x2="55.5534" y2="159.798" stroke="black" stroke-width="0.1"/>
        </g>
        <circle id="center_00" cx="53.453" cy="140.498" r="5"/>
    </g>
</svg>
