<!DOCTYPE svg PUBLIC "-//W3C//DTD SVG 1.1//EN" "http://www.w3.org/Graphics/SVG/1.1/DTD/svg11.dtd">
<svg xmlns="http://www.w3.org/2000/svg" width="297mm" height="210mm" viewBox="0 0 297 210">
    <defs id="_tag_5_"/>
    <g id="Ebene_x0020_1">
        <g id="_129881328">
            <circle cx="123.585" cy="85.0302" r="5.0" fill="none" stroke="black" stroke-width="0.1"/>
            <polygon points="114.424,76.2915 117.283403125,73.38269335937501 119.82325,70.54031562499999 122.074421875,67.734430078125 124.0678,64.9351 125.83426562500001,62.112388671874996 127.40470000000002,59.236359375 128.809984375,56.277075390625 130.08100000000002,53.2046 134.38320000000002,41.8642 145.59720000000002,46.5104 140.66180000000003,58.422399999999996 136.41470000000004,69.65899999999999 136.09138261718755,70.76316367187498 135.98559218750006,71.88107812499999 136.08755878906254,72.984503515625 136.38751250000004,74.0452 136.87568339843753,75.03492773437499 137.54230156250003,75.92544687499999 138.37759707031256,76.688517578125 139.37180000000004,77.29589999999999 139.37180000000004,77.29589999999999 139.66897304687504,77.43062050781249 139.96954687500005,77.5479703125 140.27292851562504,77.64815683593748 140.578525,77.73138749999998 140.88574335937503,77.79786972656248 141.19399062500005,77.84781093749999 141.50267382812504,77.88141855468749 141.81120000000004,77.89889999999998 153.01780000000005,78.48399999999998 164.26220000000006,78.25659999999998 167.24110000000007,78.19639999999998 167.16880000000006,91.77949999999998 164.11170000000007,91.76319999999998 134.34380000000007,91.60469999999998 133.58854335937508,91.55073476562498 132.89292812500005,91.40304062499997 132.26194882812507,91.17043242187498 131.70060000000007,90.86172499999998 131.21387617187506,90.48573320312498 130.80677187500007,90.05127187499997 130.48428164062508,89.56715585937499 130.25140000000007,89.04219999999998 128.30700000000007,83.38409999999998 127.95617832031256,82.60496523437499 127.48717656250005,81.90759687499998 126.91433964843758,81.30314882812498 126.25201250000006,80.80277499999997 125.51454003906258,80.41762929687498 124.71626718750008,80.15886562499998 123.87153886718758,80.03763789062498 122.99470000000008,80.06509999999997 122.99470000000008,80.06509999999997 122.00620957031256,80.28488320312498 121.10867656250008,80.68497812499997 120.31970839843758,81.24302773437498 119.65691250000008,81.93667499999998 119.13789628906258,82.74356289062497 118.78026718750007,83.64133437499997 118.60163261718758,84.60763242187498 118.61960000000008,85.62009999999998 118.61960000000008,85.62009999999998 118.63385312500007,85.72983769531248 118.65045000000008,85.83886406249998 118.66940937500007,85.94731152343749 118.69075000000008,86.05531249999999 118.71449062500008,86.16299941406248 118.74065000000007,86.27050468749998 118.76924687500008,86.37796074218747 118.80030000000008,86.48549999999997 125.45060000000008,108.31669999999997 125.50802050781257,108.51416542968747 125.56213281250007,108.71324218749997 125.61290058593758,108.91390097656247 125.66028750000008,109.11611249999997 125.70425722656258,109.31984746093747 125.74477343750009,109.52507656249996 125.78179980468758,109.73177050781246 125.81530000000008,109.93989999999997 125.81530000000008,109.93989999999997 125.93443476562508,112.30774570312498 125.58999687500007,114.58249062499996 124.82148554687507,116.71048398437497 123.66840000000008,118.63807499999996 122.17023945312508,120.31161289062497 120.36650312500007,121.67744687499997 118.29669023437509,122.68192617187496 116.00030000000008,123.27139999999997 116.00030000000008,123.27139999999997 115.86345390625007,123.29138867187497 115.72678125000009,123.30973437499998 115.5903429687501,123.32644414062497 115.45420000000007,123.34152499999996 115.31841328125007,123.35498398437498 115.18304375000008,123.36682812499997 115.04815234375008,123.37706445312497 114.91380000000008,123.38569999999997 114.14630000000008,122.41679999999997 114.93360000000008,118.27979999999997 113.92279238281257,118.00743046874996 112.97790156250008,117.58376249999996 112.11476308593758,117.02126953124997 111.34921250000008,116.33242499999997 110.69708535156258,115.52970234374997 110.17421718750008,114.62557499999997 109.79644355468758,113.63251640624996 109.57960000000008,112.56299999999996 109.57960000000008,112.56299999999996 109.53522500000008,111.95485839843747 109.54603125000008,111.35597343749996 109.60977812500009,110.76921738281246 109.72422500000009,110.19746249999996 109.88713125000008,109.64358105468746 110.09625625000008,109.11044531249996 110.34935937500009,108.60092753906245 110.64420000000008,108.11789999999996 110.64420000000008,108.11789999999996 111.42692968750008,106.96312148437495 112.10138750000009,105.73695937499997 112.66145156250009,104.44721132812496 113.1010000000001,103.10167499999997 113.41391093750008,101.70814804687497 113.59406250000009,100.27442812499997 113.6353328125001,98.80831289062496 113.53160000000008,97.31759999999997 113.53160000000008,97.31759999999997 113.5037521484376,97.09654765624997 113.47321718750008,96.87688749999998 113.44042050781258,96.65887734374998 113.40578750000009,96.44277499999997 113.36974355468759,96.22883828124996 113.33271406250009,96.01732499999997 113.2951244140626,95.80849296874996 113.25740000000009,95.60259999999997 111.21700000000008,87.74129999999997 111.1846742187501,87.58778808593746 111.15435000000008,87.43506718749998 111.12599453125009,87.28293457031248 111.0995750000001,87.13118749999997 111.07505859375009,86.97962324218747 111.05241250000009,86.82803906249998 111.03160390625008,86.67623222656248 111.01260000000008,86.52399999999997 111.01260000000008,86.52399999999997 110.92331699218758,85.10769765624997 110.98964843750008,83.71883124999998 111.20425253906257,82.36672421874998 111.55978750000008,81.06069999999997 112.04891152343758,79.81008203124996 112.66428281250009,78.62419374999998 113.39855957031257,77.51235859374998 114.24440000000007,76.48389999999998 114.24440000000007,76.48389999999998 114.26663261718757,76.45963261718748 114.28892968750007,76.43542968749998 114.31129003906257,76.41129003906246 114.33371250000008,76.38721249999998 114.35619589843756,76.36319589843748 114.37873906250007,76.33923906249998 114.40134082031256,76.31534082031247 114.42400000000006,76.29149999999997" fill="none" stroke="black" stroke-width="0.1" id="_129970264"/>
            <circle cx="116.139" cy="111.784" r="5.0" fill="none" stroke="black" stroke-width="0.1" id="_130573080"/>
            <!--
            <polyline points="130.255,52.8615 130.87909726562498,51.8500048828125 131.668121875,51.0087515625 132.59051054687498,50.348663085937496 133.61469999999997,49.8806625 134.70912695312498,49.6156728515625 135.842228125,49.5646171875 136.982440234375,49.7384185546875 138.0982,50.147999999999996 138.0982,50.147999999999996 139.109723828125,50.77209726562499 139.95099062499997,51.561121875 140.611080859375,52.483510546874996 141.079075,53.5077 141.34405351562498,54.602126953124994 141.395096875,55.73522812499999 141.221285546875,56.875440234375 140.8117,57.9912" fill="none" stroke="black" stroke-width="0.1" id="_130562648"/>
            <polyline points="156.084,78.4266 157.2927265625,78.54823730468749 158.43561250000002,78.8806984375 159.4894171875,79.4056822265625 160.4309,80.10488749999999 161.2368203125,80.9600130859375 161.8839375,81.9527578125 162.3490109375,83.0648205078125 162.6088,84.27789999999999 162.6088,84.27789999999999 162.6326666015625,85.62118007812498 162.39568906250003,86.90319687499999 161.9212263671875,88.09429023437498 161.2326375,89.16479999999999 160.35328144531252,90.08506601562499 159.3065171875,90.825428125 158.1157037109375,91.356226171875 156.8042,91.64779999999999 156.8042,91.64779999999999 156.67646953124998,91.66174374999999 156.54904375,91.67321249999998 156.42194609375002,91.68222499999999 156.29520000000002,91.68879999999999 156.16882890625,91.69295624999998 156.04285625,91.6947125 155.91730546875002,91.6940875 155.7922,91.69109999999999" fill="none" stroke="black" stroke-width="0.1" id="_130573144"/>
            -->
            <circle cx="123.585" cy="85.0302" r="5.0" fill="none" stroke="black" stroke-width="0.1" id="center_00"/>
        </g>
    </g>
</svg>
