<!DOCTYPE svg PUBLIC "-//W3C//DTD SVG 1.1//EN" "http://www.w3.org/Graphics/SVG/1.1/DTD/svg11.dtd">
<svg xmlns="http://www.w3.org/2000/svg" width="297mm" height="210mm" viewBox="0 0 297 210">
    <defs id="_tag_5_"/>
    <g id="Ebene_x0020_1">
        <g id="Ebene_x0020_1_0">
            <polygon points="-21.7026,122.66 -21.8783,121.142 -21.8721,119.801 -21.6976,118.594 -21.3689,117.481 -20.8998,116.419 -20.3041,115.368 -19.5957,114.286 -18.7884,113.131 -17.4409,111.402 -15.7823,109.491 -13.8259,107.28 -11.5854,104.651 -9.0741,101.485 -6.3056,97.6632 -3.2936,93.0674 -0.0512,87.579 3.2936,86.2409 9.327,77.7946 15.9505,80.2993 14.2238,90.374 16.5077,93.8408 15.5554,98.9443 15.5736,103.409 16.587,107.218 18.6209,110.357 21.7002,112.81 25.8499,114.559 31.0949,115.59 37.4602,115.887 39.8289,118.601 49.7956,121.501 49.6222,128.58 39.5265,130.99 37.0273,133.585 6.502,133.875 5.8467,122.412 -11.3144,118.831" fill="none" stroke="black" stroke-width="0.1" id="_new_6_1"/>
            <polygon points="-3.7241,110.434 -4.7083,111.557 -5.7853,112.621 -6.9493,113.616 -8.1944,114.529 -9.5149,115.352 -10.905,116.072 -12.3591,116.679 -13.8712,117.162 -14.3763,117.292 -14.8816,117.407 -15.3867,117.509 -15.8914,117.597 -16.3952,117.671 -16.8977,117.731 -17.3987,117.778 -17.8978,117.812 -18.3266,117.856 -18.7651,117.949 -19.5052,118.226 -20.1591,118.627 -20.7167,119.135 -21.1677,119.733 -21.5021,120.402 -21.7094,121.124 -21.7797,121.883 -21.7026,122.66 -15.9754,151.124 -16.4315,151.829 -16.8086,152.579 -17.1026,153.367 -17.3096,154.187 -17.4256,155.03 -17.4464,155.892 -17.3682,156.763 -17.1868,157.638 -16.9507,158.372 -16.649,159.066 -16.286,159.717 -15.8663,160.323 -15.3942,160.882 -14.8743,161.39 -14.311,161.845 -13.7088,162.244 -13.5098,162.709 -14.3806,166.627 -13.9681,166.775 -13.3249,166.936 -12.6018,167.017 -11.7819,166.984 -11.3306,166.915 -10.8489,166.806 -8.201,165.816 -5.8783,164.357 -3.9201,162.5 -2.3659,160.315 -1.2548,157.873 -0.6263,155.243 -0.5197,152.496 -0.9744,149.703 -1.0839,149.316 -1.2409,148.828 -2.1383,146.229 -2.9959,143.742 -3.8542,141.252 -4.713,138.761 -5.5721,136.269 -6.4317,133.775 -7.2914,131.28 -8.1513,128.785 -8.4164,127.451 -8.3778,126.469 -8.1524,125.529 -7.7541,124.656 -7.1974,123.875 -6.4962,123.21 -5.6652,122.685 -4.7183,122.326 -3.7603,122.166 -2.8175,122.192 -1.9117,122.39 -1.0643,122.748 -0.2973,123.255 0.3678,123.896 0.9093,124.66 1.3054,125.534 2.872,130.079 3.1872,130.804 3.5875,131.468 4.0645,132.067 4.6097,132.595 5.2146,133.048 5.8707,133.421 6.5698,133.709 7.3033,133.907 11.261,118.312 11.3874,117.773 11.4793,117.224 11.536,116.668 11.5564,116.106 11.5398,115.538 11.4853,114.968 11.3919,114.396 11.2588,113.823 10.6358,112.18 9.7258,110.737 8.5712,109.521 7.2151,108.554 5.7001,107.863 4.069,107.471 2.3648,107.405 0.63,107.687 -0.0193,107.887 -0.6433,108.13 -1.2397,108.417 -1.806,108.744 -2.34,109.111 -2.8393,109.516 -3.3014,109.958" fill="none" stroke="black" stroke-width="0.1" id="_new_2_1"/>
            <circle cx="2.87612" cy="116.069" r="6.048" fill="none" stroke="black" stroke-width="0.1" id="_tag_18_"/>
            <circle cx="2.87612" cy="116.069" r="3.672" fill="none" stroke="black" stroke-width="0.1" id="_tag_17_"/>
            <circle cx="-9.76278" cy="155.649" r="4.5" fill="none" stroke="black" stroke-width="0.1" id="_tag_16_"/>
            <circle cx="-3.42416" cy="127.156" r="5.0" fill="none" stroke="black" stroke-width="0.1"/>
            <circle cx="-3.42416" cy="127.156" r="4.5" fill="none" stroke="black" stroke-width="0.1" id="center_00"/>
        </g>
    </g>
</svg>
