<?xml version="1.0" encoding="UTF-8"?>
<!DOCTYPE svg PUBLIC "-//W3C//DTD SVG 1.1//EN" "http://www.w3.org/Graphics/SVG/1.1/DTD/svg11.dtd">
<!-- Creator: CorelDRAW -->
<svg xmlns="http://www.w3.org/2000/svg" xml:space="preserve" width="210mm" height="297mm" style="shape-rendering:geometricPrecision; text-rendering:geometricPrecision; image-rendering:optimizeQuality; fill-rule:evenodd; clip-rule:evenodd"
viewBox="0 0 210 297">
 <defs>
  <style type="text/css">
   <![CDATA[
    .str1 {stroke:#1F1A17;stroke-width:0.0762}
    .str0 {stroke:#DA251D;stroke-width:0.3528}
    .fil1 {fill:none}
    .fil0 {fill:#DA251D}
   ]]>
  </style>
 </defs>
 <g id="Ebene_x0020_1">
  <metadata id="CorelCorpID_0Corel-Layer"/>
    <polygon points="72.6351,149.355 73.12859785156249,151.193122265625 74.34352656249999,153.123046875 76.23647636718749,155.044585546875 78.7640375,156.85754999999997 81.8828001953125,158.461751953125 85.5493546875,159.75700312499998 89.72029121093749,160.643115234375 94.3522,161.01989999999998 94.3522,161.01989999999998 97.00504648437501,160.9427125 99.49371562500001,160.63111249999997 101.84018945312499,160.11556874999997 104.06645,159.42655 106.194479296875,158.594525 108.246259375,157.6499625 110.24377226562501,156.62333124999998 112.209,155.5451 112.209,155.5451 113.9361587890625,154.6569998046875 115.6267703125,153.9481296875 117.3342873046875,153.39401035156249 119.11216250000001,152.9701625 121.0138486328125,152.6521068359375 123.09279843750001,152.4153640625 125.40246464843752,152.2354548828125 127.9963,152.0879 128.3099,148.5823 136.7105,148.312 136.9443,140.29840000000002 128.3197,140.08520000000001 127.88080000000001,136.64280000000002 122.56787441406252,136.39983808593755 117.7542203125,135.66467343750003 113.53005917968751,134.34835019531255 109.9856125,132.36191250000002 107.21110175781251,129.6164044921875 105.2967484375,126.02287031250003 104.33277402343751,121.49235410156251 104.4094,115.93590000000002 102.69330000000001,114.68780000000002 104.1256,110.15430000000002 104.17188144531251,110.01046757812502 104.2119578125,109.86702187500003 104.2458396484375,109.72370273437502 104.2735375,109.58025000000004 104.29506191406252,109.43640351562502 104.31042343750002,109.29190312500002 104.31963261718751,109.14648867187502 104.32270000000001,108.99990000000003 104.32270000000001,108.99990000000003 104.25222929687502,108.30106992187503 104.050121875,107.65013437500002 103.73033476562502,107.06105039062501 103.306825,106.54777500000003 102.79354960937502,106.12426523437502 102.20446562500001,105.80447812500003 101.55353007812501,105.60237070312502 100.85470000000001,105.53190000000002 100.85470000000001,105.53190000000002 100.28902207031251,105.57794648437502 99.75237031250002,105.71170312500001 99.25180527343751,105.92659570312503 98.7943875,106.21605000000002 98.3871775390625,106.57349179687502 98.03723593750001,106.99234687500002 97.75162324218749,107.46604101562502 97.5374,107.98800000000003 95.37620000000001,112.66350000000003 93.05170000000001,112.46790000000003 90.97200859375002,117.19028105468753 88.9913125,121.03103593750004 87.08276640625,124.11141972656253 85.219525,126.55268750000003 83.37474296875001,128.47609433593755 81.52157500000001,130.00289531250002 79.63317578125,131.2543455078125 77.68270000000001,132.35170000000002 77.68270000000001,132.35170000000002 76.44903652343751,133.10403750000003 75.39997968750001,133.93028750000002 74.5229423828125,134.81089375000005 73.80533750000001,135.7263 73.2345779296875,136.65695000000002 72.79807656250001,137.5832875 72.48324628906252,138.48575625 72.27750000000002,139.34480000000002 97.67040000000001,139.34480000000002 98.67584199218751,139.44695078125 99.61381093750002,139.73971875 100.46378378906252,140.20257734375002 101.20523750000001,140.81500000000003 101.81764902343751,141.55646015625004 102.28049531250002,142.40643125000003 102.57325332031252,143.34438671875 102.67540000000001,144.34980000000002 102.67540000000001,144.35020000000003 102.57325742187501,145.35557597656253 102.28050937500001,146.2934953125 101.81767539062501,147.14343261718753 101.20527500000001,147.88486250000003 100.46382773437502,148.49725957031254 99.61385312500002,148.96009843750005 98.67587070312501,149.25285371093753 97.67040000000001,149.35500000000002 72.63510000000002,149.35500000000002" fill="none" stroke="black" stroke-width="0.1"/>
    <polyline points="72.2775,139.345 72.6216158203125,138.17910625000002 73.3308890625,136.98716875 74.3323458984375,135.825128125 75.5530125,134.74892499999999 76.9199150390625,133.8145 78.3600796875,133.07779375 79.8005326171875,132.594746875 81.1683,132.4213 83.3955,132.4213 100.2851,132.4213 102.76445078125,132.67320703125 105.07745625,133.39518125 107.17349609374999,134.53660234375002 109.00195,136.04685 110.51219765625,137.87530390625 111.65361874999999,139.97134375000002 112.37559296875,142.28434921875 112.6275,144.7637 112.6275,144.7637 112.37558886718749,147.24305078125 111.65360468749999,149.55605624999998 110.5121712890625,151.65209609375 109.0019125,153.48055 107.17345214843749,154.99079765624998 105.0774140625,156.13221875 102.7644220703125,156.85419296875 100.2851,157.1061 82.6531,157.1061 81.15585136718751,156.9777091796875 79.5901734375,156.5966984375 78.02528066406249,155.96931035156248 76.53038749999999,155.1017875 75.1747083984375,154.00037246093748 74.02745781249999,152.6713078125 73.1578501953125,151.12083613281249 72.6351,149.3552" fill="none" stroke="black" stroke-width="0.1"/>
    <circle id="rear_axle" class="fil1 str1" cx="86.5637" cy="144.345" r="5"/>
    <circle id="center_00" class="fil1 str1" cx="86.5637" cy="144.345" r="5"/>
    <line class="fil1 str1" x1="86.5637" y1="135.321" x2="86.5637" y2= "153.369" />
    <line class="fil1 str1" x1="78.5723" y1="144.345" x2="94.5551" y2= "144.345" />
 </g>
</svg>
