<svg version="1.0" xmlns="http://www.w3.org/2000/svg">
    <polygon points="58.5564,171.993 59.0396220703125,170.4525521484375 59.6270390625,169.1659546875 60.31115214843749,168.0915017578125 61.084462499999994,167.1874875 61.939471289062496,166.4122060546875 62.8686796875,165.7239515625 63.864588867187486,165.0810181640625 64.91969999999999,164.4417 64.91969999999999,164.4417 65.73541269531249,163.980272265625 66.7263078125,163.436421875 67.8510333984375,162.780873046875 69.06823749999998,161.98435 70.3365681640625,161.017576953125 71.6146734375,159.851278125 72.86120136718749,158.45617773437502 74.03479999999999,156.803 74.03479999999999,156.803 75.04839902343748,155.0930900390625 75.91574218749999,153.4573140625 76.6794236328125,151.8678904296875 77.3820375,150.2970375 78.06617792968748,148.71697363281248 78.7744390625,147.0999171875 79.5494150390625,145.4180865234375 80.43369999999999,143.6437 81.01829999999998,143.5153 82.61279999999998,144.1815 84.58799999999998,139.0529 84.87509960937498,138.5103859375 85.28875937499997,138.02315625 85.80957070312498,137.6083296875 86.41812499999997,137.283025 87.09501367187498,137.0643609375 87.82082812499999,136.96945625 88.57615976562498,137.01542968750002 89.34159999999999,137.2194 89.34159999999999,137.2194 90.26954453124998,137.67632363281248 90.96720624999999,138.2307203125 91.46140234374998,138.8505287109375 91.77894999999998,139.5036875 91.94666640624999,140.1581353515625 91.99136874999999,140.7818109375 91.93987421874998,141.3426529296875 91.81899999999999,141.8086 89.9737,146.9412 91.3433,147.64000000000001 91.5368865234375,147.7558240234375 91.7088859375,147.8941046875 91.85590800781249,148.05222988281253 91.97456249999999,148.22758750000003 92.0614591796875,148.4175654296875 92.11320781250001,148.61955156250002 92.1264181640625,148.8309337890625 92.0977,149.0491 92.0977,149.0491 91.75584101562501,151.39365976562502 91.798809375,153.78198437499998 92.237210546875,156.162316796875 93.08165000000001,158.48290000000003 94.342733203125,160.69197695312502 96.031065625,162.73779062500003 98.157252734375,164.56858398437504 100.7319,166.13260000000002 100.7319,166.13260000000002 102.2906486328125,166.77131171875 104.03619531250001,167.2464625 105.91442871093749,167.58638828125004 107.87123749999999,167.81942500000002 109.8525103515625,167.97390859375002 111.8041359375,168.07817500000004 113.6720029296875,168.16056015625003 115.402,168.24940000000004 115.402,168.24940000000004 115.5031009765625,168.25801308593753 115.6130765625,168.27352968750003 115.7268982421875,168.29801582031254 115.8395375,168.33353750000003 115.9459658203125,168.38216074218752 116.0411546875,168.44595156250006 116.1200755859375,168.52697597656254 116.1777,168.62730000000005 116.1777,171.83990000000006 123.7929,171.95130000000006 125.0725,172.84200000000007 124.8148,180.05530000000007 124.0266,181.03320000000008 116.1777,180.8383000000001 116.1777,183.9538000000001 116.1777,184.6619000000001 116.09488671875,184.66717324218757 116.01235,184.6724921875001 115.93009453125,184.6778556640626 115.84812500000001,184.6832625000001 115.76644609375,184.6887115234376 115.68506250000002,184.69420156250007 115.60397890625,184.69973144531258 115.5232,184.70530000000008 115.5232,184.70530000000008 110.9846197265625,185.13007656250008 107.3996703125,185.68856875000006 104.5732638671875,186.36272031250007 102.31031250000001,187.13447500000007 100.4157283203125,187.9857765625001 98.6944234375,188.8985687500001 96.9513099609375,189.85479531250007 94.9913,190.83640000000008 94.9913,190.83640000000008 89.5654005859375,192.76112734375008 83.99861718749999,193.68045625000008 78.4857095703125,193.6642070312501 73.2214375,192.7822000000001 68.4005607421875,191.1042554687501 64.21783906249999,188.7001937500001 60.86803222656249,185.63983515625006 58.545899999999996,181.99300000000008 85.5111,181.99310000000008 85.5111,181.99300000000008 86.518652734375,181.89140039062508 87.45714687499999,181.60001562500008 88.306461328125,181.13896679687508 89.04647499999999,180.5283750000001 89.657066796875,179.78836132812506 90.118115625,178.9390468750001 90.409500390625,178.00055273437508 90.5111,176.99300000000008 90.5111,176.99300000000008 90.409500390625,175.98544726562508 90.118115625,175.04695312500007 89.657066796875,174.1976386718751 89.04647499999999,173.45762500000006 88.306461328125,172.84703320312508 87.45714687499999,172.38598437500008 86.518652734375,172.09459960937508 85.5111,171.99300000000008 85.5025,171.99310000000008 58.5564,171.99300000000008" fill="none" stroke="black" stroke-width="0.1"/>
    <polygon points="58.5395,182.001 59.3633607421875,183.65739570312502 60.404017187499996,185.164440625 61.63986816406249,186.500096484375 63.04931249999999,187.64232500000003 64.6107490234375,188.569087890625 66.30257656250001,189.258346875 68.10319394531248,189.688063671875 69.991,189.83620000000002 88.0613,189.83620000000002 90.56009726562499,189.57506308593753 92.891271875,188.82663593750004 95.00379804687499,187.6433939453125 96.84665000000001,186.07781250000002 98.368801953125,184.18236699218753 99.519228125,182.00953281250003 100.246902734375,179.61178535156253 100.5008,177.04160000000002 100.5008,177.04160000000002 100.24691093749999,174.4714146484375 99.51925625,172.0736671875 98.3688546875,169.9008330078125 96.84672499999999,168.0053875 95.0038859375,166.43980605468752 92.89135625,165.2565640625 90.5601546875,164.5081369140625 88.0613,164.247 69.991,164.247 68.1034853515625,164.3933 66.3037265625,164.81775625000003 64.6133013671875,165.49870312500002 63.0537875,166.41447500000004 61.6467626953125,167.54340625000003 60.413804687500004,168.86383125000003 59.3764912109375,170.354084375 58.5564,171.9925 87.8451,171.9925 88.852652734375,172.094099609375 89.791146875,172.385484375 90.640461328125,172.846533203125 91.38047499999999,173.45712500000002 91.991066796875,174.197138671875 92.452115625,175.04645312500003 92.743500390625,175.984947265625 92.8451,176.9925 92.8451,176.9925 92.743500390625,178.000052734375 92.452115625,178.938546875 91.991066796875,179.78786132812502 91.38047499999999,180.527875 90.640461328125,181.138466796875 89.791146875,181.599515625 88.852652734375,181.890900390625 87.8451,181.9925 58.539500000000004,182.001" fill="none" stroke="black" stroke-width="0.1"/>
    <circle cx="74.4071" cy="176.993" r="5" fill="none" stroke="black" stroke-width="0.1"/>
    <line x1="74.4071" y1="168.941" x2="74.4071" y2="185.045" fill="none" stroke="black" stroke-width="0.1"/>
    <circle cx="69.4065" cy="167.522" r="1.7894" fill="none" stroke="black" stroke-width="0.1"/>
    <circle cx="89.3233" cy="186.077" r="1.7894" fill="none" stroke="black" stroke-width="0.1"/>
    <circle cx="89.3233" cy="167.522" r="1.7894" fill="none" stroke="black" stroke-width="0.1"/>
    <circle cx="69.4065" cy="186.077" r="1.7894" fill="none" stroke="black" stroke-width="0.1"/>
    <line x1="56.2029" y1="176.993" x2="96.5594" y2="176.993" fill="none" stroke="black" stroke-width="0.1"/>
    <circle id="center_00" cx="74.4071" cy="176.993" r="5" fill="none" stroke="black" stroke-width="0.1"/>
</svg>