<?xml version="1.0" encoding="UTF-8"?>
<!DOCTYPE svg PUBLIC "-//W3C//DTD SVG 1.1//EN" "http://www.w3.org/Graphics/SVG/1.1/DTD/svg11.dtd">
<!-- Creator: CorelDRAW -->
<svg xmlns="http://www.w3.org/2000/svg" xml:space="preserve" width="420mm" height="594mm" style="shape-rendering:geometricPrecision; text-rendering:geometricPrecision; image-rendering:optimizeQuality; fill-rule:evenodd; clip-rule:evenodd"
viewBox="0 0 420 594">
 <defs>
  <style type="text/css">
   <![CDATA[
    .str1 {stroke:#DA251D;stroke-width:0.0265}
    .str0 {stroke:#1F1A17;stroke-width:0.0762}
    .fil3 {fill:none}
    .fil4 {fill:#969594}
    .fil0 {fill:#AAA9A9}
    .fil1 {fill:#C2C1C1}
    .fil2 {fill:#DEDEDD}
   ]]>
  </style>
 </defs>
 <g id="Ebene_x0020_1">
  <metadata id="CorelCorpID_0Corel-Layer"/>
  <polygon class="fil0 str0" points="243.569,108.054 243.517,110.242 245.779,118.276 244.589,118.839 245.661,120.136 247.267,122.076 248.468,126.167 248.835,130.773 248.569,135.624 247.536,144.344 246.42,154.491 245.513,162.77 244.454,171.083 243.122,176.814 241.099,181.652 237.699,185.98 233.694,189.125 235.806,186.322 238.332,181.23 239.158,176.885 240.218,168.183 243.328,140.595 243.856,128.715 244.589,118.839 242.866,113.905 "/>
  <polygon class="fil1 str0" points="189.502,493.515 195.243,492.722 198.109,491.432 201.182,488.76 203.456,480.513 204.151,480.897 207.712,481.686 211.274,483.273 214.644,485.452 229.687,485.452 233.397,483.173 234.97,507.186 229.002,505.181 212.576,503.779 190.888,504.597 "/>
  <polygon class="fil2 str0" points="204.614,189.125 235.398,189.125 235.398,190.896 204.614,190.896 "/>
  <polygon class="fil2 str0" points="204.613,187.537 237.218,187.549 237.218,187.936 204.613,187.923 "/>
  <polygon class="fil2 str0" points="204.812,187.145 237.565,187.145 237.565,187.537 204.613,187.537 "/>
  <polygon class="fil2 str0" points="204.135,188.018 204.457,187.936 237.52,187.936 237.81,187.936 237.81,189.125 204.457,189.125 204.102,188.977 203.992,188.71 203.992,188.29 "/>
  <rect class="fil2 str0" x="204.415" y="190.896" width="28.4757" height="0.2097"/>
  <rect class="fil2 str0" x="198.675" y="193.088" width="30.7096" height="0.5861"/>
  <rect class="fil2 str0" x="205.014" y="192.295" width="2.5717" height="0.7895"/>
  <rect class="fil2 str0" x="220.256" y="192.289" width="3.7609" height="0.789"/>
  <polygon class="fil2 str0" points="240.543,191.107 200.163,191.107 199.812,191.204 199.664,191.499 199.664,191.698 199.664,193.078 239.726,193.078 "/>
  <polygon class="fil2 str0" points="242.005,254.123 241.909,438.586 241.655,438.59 241.531,470.82 240.745,483.391 241.52,486.753 233.458,490.833 229.957,490.526 214.615,490.532 211.245,488.353 207.683,486.766 204.122,485.977 202.333,484.988 201.642,483.802 201.542,483.008 203.722,483.207 210.061,483.404 203.722,483.207 201.542,483.008 201.148,409.005 202.216,388.88 202.236,277.688 202.249,225.551 202.247,220.01 202.246,218.82 201.854,216.641 201.062,214.661 200.463,213.671 199.672,212.682 199.281,211.891 198.981,211.005 198.781,210.41 198.681,209.719 198.675,193.674 211.346,193.674 222.137,193.078 228.768,191.886 232.328,190.104 235.497,188.223 238.071,186.042 240.84,182.971 243.214,178.219 244.601,173.468 245.489,168.222 246.265,162.137 246.788,158.03 247.657,150.278 248.373,144.088 249.169,137.203 249.582,132.766 249.666,129.488 249.306,125.66 248.645,122.791 247.183,119.933 245.779,118.276 243.517,110.242 243.569,108.054 248.839,109.974 252.324,111.655 255.292,116.137 257.777,121.355 260.339,128.528 261.495,134.039 260.041,138.858 258.537,145.857 256.278,163.171 256.153,164.678 255.225,175.849 253.855,179.654 253.806,179.7 249.56,194.058 242.441,222.37 242.242,223.954 242.143,225.639 242.044,228.306 "/>
  <polyline class="fil3 str0" points="226.789,197.133 231.047,200.992 237.283,200.993 242.831,199.402 246.588,191.288 242.831,199.402 243.623,204.153 243.127,210.293 240.258,215.045 240.525,216.308 242.042,222.366 "/>
  <polyline class="fil3 str0" points="208.807,220.007 214.722,220.205 218.878,220.594 222.248,220.792 "/>
  <polyline class="fil3 str0" points="216.616,483.796 216.616,408.521 214.649,386.708 206.424,386.708 "/>
  <line class="fil3 str1" x1="195.014" y1="423.755" x2="180.164" y2= "425.549" />
  <line class="fil3 str1" x1="197.784" y1="422.173" x2="180.163" y2= "424.36" />
  <polygon class="fil4 str0" points="179.971,419.479 195.739,417.235 198.575,416.893 199.963,416.102 200.554,415.311 201.152,414.121 201.36,436.294 200.661,434.809 199.571,433.524 197.591,432.734 196.409,432.536 181.558,431.95 181.358,431.152 195.019,431.346 198.089,431.844 199.77,432.933 198.089,431.844 195.019,431.346 181.358,431.152 180.164,420.469 195.014,418.707 197.984,418.083 199.565,417.092 197.984,418.083 195.014,418.675 180.164,420.469 "/>
  <polygon class="fil3 str0" points="189.502,493.515 189.103,493.715 190.697,505.587 190.889,505.787 190.888,504.597 190.889,505.787 210.64,505.159 228.504,506.371 229.597,506.562 230.823,506.94 231.873,507.751 231.083,506.761 229.102,505.181 212.576,503.779 190.888,504.597 "/>
  <polygon class="fil0 str0" points="226.873,512.831 224.101,507.291 222.627,503.431 214.838,490.718 227.269,490.527 229.687,490.532 235.151,487.175 239.843,485.416 240.833,484.429 240.832,483.239 240.259,481.892 239.48,480.84 238.689,479.451 235.959,474.341 235.826,473.665 236.317,473.166 237.016,472.874 240.776,472.873 241.552,472.446 241.538,471.484 241.611,456.212 241.762,462.381 242.137,469.91 243.039,475.447 244.131,478.751 245.928,481.833 248.611,484.413 252.798,488.668 255.67,493.318 257.752,497.975 258.646,501.228 258.34,506.42 257.145,509.385 253.703,512.025 244.882,501.342 243.892,500.552 242.61,499.961 241.121,499.762 239.739,499.962 238.35,500.654 237.261,501.94 236.571,503.126 236.572,505.405 237.463,507.285 246.613,518.125 243.171,521.025 238.522,521.01 235.783,520.352 231.926,517.979 229.646,516.199 227.953,514.366 "/>
  <circle class="fil3 str0" cx="241.222" cy="504.413" r="4.49994"/>
  <polyline class="fil3 str0" points="226.673,510.655 228.159,513.226 230.931,516.294 234.792,518.864 237.368,520.348 238.193,519.77 243.506,515.403 240.416,515.404 236.871,514.611 234.399,513.027 232.318,510.852 230.832,507.687 230.232,504.418 230.829,500.948 232.213,498.081 234.588,495.605 236.663,494.415 239.928,493.424 243.697,493.621 247.159,495.005 249.831,497.38 251.417,500.944 252.213,504.309 251.915,508.27 258.153,503.118 "/>
  <line class="fil3 str0" x1="238.522" y1="521.01" x2="244.696" y2= "515.794" />
  <line class="fil3 str0" x1="252.015" y1="509.851" x2="258.544" y2= "504.407" />
  <polyline class="fil3 str0" points="240.125,485.902 247.551,487.58 250.805,488.941 252.25,490.888 249.323,489.644 252.207,490.847 254.088,492.627 255.815,496.079 256.961,498.966 258.052,502.427 "/>
  <rect class="fil1 str0" x="215.834" y="491.714" width="12.6647" height="1.783"/>
  <rect class="fil1 str0" x="216.626" y="494.092" width="11.285" height="7.7165"/>
  <rect class="fil1 str0" x="216.627" y="497.063" width="2.5729" height="4.7498"/>
  <rect class="fil1 str0" x="219.789" y="497.061" width="4.9522" height="4.7489"/>
  <rect class="fil1 str0" x="225.338" y="497.059" width="2.5729" height="4.7499"/>
  <polygon class="fil1 str0" points="227.512,502.009 216.923,502.013 216.626,501.809 227.911,501.809 "/>
  <polygon class="fil1 str0" points="225.54,502.401 218.609,502.401 218.609,502.012 225.54,502.012 "/>
  <polygon class="fil1 str0" points="215.834,493.497 228.499,493.497 227.908,494.088 216.626,494.092 "/>
  <polygon class="fil1 str0" points="216.824,491.116 227.707,491.116 227.708,491.709 216.824,491.709 "/>
  <polygon class="fil1 str0" points="214.644,490.532 229.687,490.532 229.687,490.718 214.838,490.718 "/>
  <polygon class="fil1 str0" points="216.425,490.723 229.059,490.718 228.402,491.116 216.824,491.116 "/>
 </g>
</svg>
