<!DOCTYPE svg PUBLIC "-//W3C//DTD SVG 1.1//EN" "http://www.w3.org/Graphics/SVG/1.1/DTD/svg11.dtd">
<svg xmlns="http://www.w3.org/2000/svg" width="297mm" height="210mm" viewBox="0 0 297 210">
    <defs id="_tag_342_"/>
    <g id="Ebene_x0020_1">
        <circle cx="106.792" cy="102.917" r="14.322" fill="none" stroke="black" stroke-width="0.1" id="center_00"/>
        <g id="_284269560">
            <g id="_tag_344_">
                <g id="_tag_345_">
                    <polyline points="163.984,21.9862 158.70850000000002,18.506928515625 153.4554625,15.948134375000002 148.22438125000002,14.289523046874999 143.01475000000002,13.5108 137.8260625,13.591670703125 132.65781250000003,14.511840625000001 127.50949375000002,16.251015234375 122.38060000000002,18.7889 122.38060000000002,18.7889 122.29933359375002,18.8355314453125 122.21806250000002,18.882351562500002 122.13679140625001,18.9293615234375 122.05552500000002,18.9765625 121.97426796875001,19.023955664062502 121.89302500000002,19.0715421875 121.81180078125001,19.1193232421875 121.73060000000001,19.1673" fill="none" stroke="black" stroke-width="0.1" id="_132614360"/>
                    <polyline points="79.3158,62.2183 80.25399999999999,60.6788 82.6839677734375,56.770703125000004 85.11901093750001,53.00259375 87.5591892578125,49.37654375 90.00456249999999,45.894625000000005 92.45519042968749,42.558909375000006 94.91113281249999,39.37146875 97.37244941406249,36.334375 99.83919999999999,33.44970000000001 99.83919999999999,33.44970000000001 102.32871328125,30.701326953125005 104.82314374999999,28.112996875000007 107.32255234374999,25.686830859375007 109.82699999999998,23.42495000000001 112.33654765624999,21.329475390625007 114.85125624999999,19.402528125000003 117.37118671875,17.646229296875006 119.8964,16.062700000000007 119.8964,16.062700000000007 125.6035240234375,13.131759570312507 131.3304984375,11.100182812500005 137.07785175781248,9.991249023437506 142.8461125,9.828237500000006 148.6358091796875,10.634427539062507 154.4474703125,12.433098437500005 160.2816244140625,15.247529492187503 166.1388,19.101000000000006 166.1388,19.101000000000006 168.2153046875,20.717685937500004 170.29433125,22.470356250000005 172.37589843749998,24.360079687500008 174.46002499999997,26.387925000000006 176.5467296875,28.554960937500006 178.63603125,30.862256250000005 180.7279484375,33.310879687500005 182.8225,35.901900000000005" fill="none" stroke="black" stroke-width="0.1" id="_133200128_1"/>
                    <polyline points="212.46589999999998,87.80350000000001 213.19509999999997,89.44930000000001 209.90359999999995,90.9077 209.17449999999997,89.262 205.75105664062497,81.79449453125001 202.33924062499995,74.7414625 198.93892304687498,68.09826796875 195.54997499999996,61.860275 192.17226757812494,56.02284765624999 188.80567187499997,50.58135 185.45005898437498,45.531146093749996 182.10529999999997,40.8676 182.10529999999997,40.8676 181.87333144531246,40.557756640625 181.64138281249998,40.249753125000005 181.40946464843748,39.943591796875005 181.17758749999996,39.639275000000005 180.94576191406247,39.336805078125 180.71399843749995,39.036184375000005 180.48230761718747,38.73741523437501 180.25069999999997,38.4405" fill="none" stroke="black" stroke-width="0.1" id="_133200128"/>
                    <polyline points="90.4202,43.7926 91.50569999999999,42.3562 95.12747460937499,37.869912109375 98.896903125,33.809659375 102.80094257812499,30.172720703125005 106.82655,26.956375 110.96068242187499,24.157901171875004 115.19029687499999,21.774578125 119.502350390625,19.803684765625 123.8838,18.2425 123.8838,18.2425 127.06463984374999,17.372911328125 130.268125,16.712715625 133.48947890624999,16.260893359375 136.723925,16.016424999999998 139.96668671875,15.978291015625 143.2129875,16.145471875 146.45805078125,16.516948046875 149.6971,17.0917 149.6971,17.0917 152.913051953125,17.8653134765625 156.112534375,18.8383203125 159.290787109375,20.009695117187498 162.44305000000003,21.3784125 165.564562890625,22.943447070312498 168.650565625,24.7037734375 171.696298046875,26.658366210937498 174.697,28.806199999999997 174.697,28.806199999999997 180.4964595703125,33.634195117187495 186.0656703125,39.2133984375 191.3670302734375,45.5356619140625 196.36293750000002,52.592837499999995 201.01579003906252,60.3767771484375 205.2879859375,68.8793328125 209.14192324218752,78.0923564453125 212.54000000000002,88.0077 213.06500000000003,89.7276 209.62530000000004,90.77759999999999 209.10030000000003,89.05779999999999 205.80173183593752,79.42515234375 202.0670234375,70.48013749999998 197.93235644531254,62.23041015624999 193.43391250000002,54.683624999999985 188.60787324218754,47.84743671874999 183.49042031250002,41.72949999999999 178.11773535156254,36.33746953124999 172.52600000000004,31.678999999999988 172.52600000000004,31.678999999999988 169.68873085937506,29.647368554687485 166.81180312500004,27.79916718749999 163.89968632812503,26.13536035156249 160.95685000000003,24.65691249999999 157.98776367187503,23.364788085937487 154.99689687500003,22.259951562499985 151.98871914062502,21.343367382812488 148.96770000000004,20.615999999999985 148.96770000000004,20.615999999999985 145.94976328125006,20.080367578124985 142.926825,19.733953124999985 139.90334296875005,19.577705859374987 136.88377500000004,19.612574999999985 133.87257890625003,19.839509765624985 130.87421250000003,20.259459374999985 127.89313359375004,20.873373046874985 124.93380000000003,21.682199999999984" fill="none" stroke="black" stroke-width="0.1" id="_133240528"/>
                </g>
                <polygon points="208.318,89.7444 213.459,87.2528 216.079,92.6574 210.938,95.149" fill="none" stroke="black" stroke-width="0.1" id="_284284696"/>
                <polygon points="105.14,89.1123 106.34463203125,89.02026894531251 107.53275,89.0311390625 108.69966171875001,89.14121777343749 109.840675,89.3468125 110.95109765625,89.6442306640625 112.0262375,90.0297796875 113.06140234375,90.4997669921875 114.0519,91.0505 154.58010000000002,112.2499 157.83956679687503,114.05542890625 160.99679687500003,116.00734374999999 164.04624726562503,118.10084921875 166.98237500000002,120.33115 169.79963710937503,122.69345078125 172.49249062500002,125.18295624999999 175.05539257812507,127.79487109375 177.48280000000003,130.52439999999999 177.48280000000003,130.52439999999999 177.91610625000004,131.0421673828125 178.35087500000003,131.57297656249997 178.78706875000003,132.11680058593748 179.22465000000003,132.6736125 179.66358125000005,133.2433853515625 180.10382500000003,133.82609218750002 180.54534375000006,134.4217060546875 180.98810000000003,135.03019999999998 180.98810000000003,135.03019999999998 183.462937890625,138.69135820312496 185.71154062500003,142.49939687499997 187.72432929687503,146.44604960937497 189.49172500000003,150.52304999999998 191.00414882812504,154.72213164062498 192.25202187500003,159.03502812499997 193.22576523437502,163.453473046875 193.91580000000002,167.96919999999997 193.96990000000002,167.96269999999998 193.97000000000003,167.9637 194.47051796875002,175.30594296875 194.22753750000004,182.52431875 193.27306953125003,189.57813515625 191.63912500000004,196.42669999999998 189.35771484375005,203.02932109375 186.46085000000002,209.34530625 182.98054140625004,215.33396328125 178.94880000000003,220.9546 178.94880000000003,220.9546 178.09690703125003,222.0099296875 177.22806875000003,223.04676250000003 176.34253359375003,224.0647890625 175.44055000000003,225.06369999999998 174.52236640625003,226.0431859375 173.58823125000004,227.0029375 172.63839296875003,227.94264531250002 171.67310000000003,228.862 171.67310000000003,228.862 168.05763222656256,232.0200291015625 164.22609531250004,234.9370890625 160.18912636718753,237.5996763671875 155.95736250000004,239.9942875 151.54144082031252,242.1074189453125 146.95199843750004,243.92556718749998 142.19967246093756,245.43522871093748 137.29510000000005,246.6229 131.28450000000004,247.6019 131.29050000000004,247.6518 131.28990000000005,247.6519 131.28390000000005,247.602 131.11680000000004,247.6188 58.00100000000005,256.7065 57.568431250000046,256.71720917968753 57.241012500000046,256.6394734375 57.00301250000005,256.4911978515625 56.838700000000046,256.2902875 56.73234375000005,256.0546474609375 56.66821250000005,255.8021828125 56.63057500000005,255.55079863281253 56.603700000000046,255.3184 53.584600000000044,230.8602 53.54828105468754,230.50122070312497 53.541248437500045,230.18187187499998 53.57621347656254,229.902174609375 53.66588750000004,229.66215 53.82298183593755,229.46181914062498 54.060207812500046,229.301203125 54.39027675781254,229.180323046875 54.82590000000005,229.0992 122.17420000000004,220.7283 122.24600000000004,220.6371 127.98070000000004,219.952 127.98130000000005,219.9519 127.98780000000005,220.006 131.53209648437505,219.4359255859375 134.96512812500006,218.5935109375 138.27698320312504,217.49133144531248 141.45775000000006,216.1419625 144.49751679687503,214.55797949218748 147.38637187500004,212.7519578125 150.11440351562504,210.7364728515625 152.67170000000004,208.5241 152.67170000000004,208.5241 153.27753476562503,207.947638671875 153.86989062500004,207.363103125 154.44861992187504,206.770678515625 155.01357500000003,206.17055 155.56460820312503,205.562902734375 156.10157187500005,204.947921875 156.62431835937505,204.325792578125 157.13270000000006,203.6967 157.13270000000006,203.6967 159.58926191406255,200.26961113281249 161.70929531250005,196.6141015625 163.47329667968756,192.7549693359375 164.86176250000005,188.7170125 165.85518925781255,184.5250291015625 166.43407343750005,180.2038171875 166.57891152343754,175.77817480468747 166.27020000000005,171.2729 166.27010000000004,171.2719 166.32410000000004,171.2654 165.90748789062505,168.5463958984375 165.31742187500004,165.88209843750002 164.55974492187505,163.2775923828125 163.64030000000005,160.73796249999998 162.56493007812506,158.26829355468752 161.33947812500006,155.8736703125 159.96978710937506,153.55917753906252 158.46170000000004,151.3299 158.46170000000004,151.3299 158.22260664062503,151.0023810546875 157.97305312500004,150.6685234375 157.71307929687504,150.3283634765625 157.44272500000005,149.98193750000002 157.16203007812504,149.62928183593752 156.87103437500005,149.27043281250002 156.56977773437507,148.9054267578125 156.25830000000005,148.5343 156.25830000000005,148.5343 154.71909433593754,146.8036576171875 153.09362343750004,145.14738593750002 151.38540644531255,143.5685306640625 149.59796250000005,142.0701375 147.73481074218756,140.6552521484375 145.79947031250003,139.3269203125 143.79546035156253,138.0881876953125 141.72630000000004,136.9421 101.15340000000003,115.7193 99.57646855468754,114.89618242187501 98.12058593750004,113.883228125 96.80391972656253,112.694684765625 95.64463750000004,111.3448 94.66090683593754,109.847821484375 93.87089531250004,108.21799687500001 93.29277050781253,106.46957382812501 92.94470000000004,104.61680000000001 92.94470000000004,104.61680000000001 92.89270976562504,101.79233652343751 93.38929062500003,99.09632343750002 94.38535742187504,96.59116425781251 95.83182500000004,94.3392625 97.67960820312504,92.4030216796875 99.87962187500005,90.8448453125 102.38278085937505,89.7271369140625 105.14000000000004,89.1123" fill="none" stroke="black" stroke-width="0.1" id="_284322704"/>
                <polygon points="204.934,125.049 227.74869999999999,110.23700000000001 245.93679999999998,143.5274 249.64189824218747,150.84475078124999 252.54469218749998,157.7032375 254.7297806640625,164.16467421875 256.28176249999996,170.290875 257.28523652343745,176.14365390625 257.8248015625,181.78482499999998 257.98505644531247,187.27620234375 257.8506,192.6796 257.8506,192.6796 257.66871875,195.70499941406248 257.449975,198.58532656249997 257.24326874999997,201.39183730468747 257.0975,204.1957875 257.06156875,207.06843300781247 257.184375,210.08102968749998 257.51481874999996,213.3048333984375 258.10179999999997,216.81109999999998 258.10179999999997,216.81109999999998 258.508341015625,218.46334433593748 259.03417187499997,219.9725484375 259.67787929687495,221.3830314453125 260.43805,222.73911249999998 261.313270703125,224.08511074218745 262.30212812499997,225.46534531249998 263.40320898437494,226.92413535156248 264.6151,228.5058 264.6151,228.5058 264.87253144531246,229.0058630859375 265.0034953125,229.6424296875 265.0125958984375,230.3851283203125 264.9044375,231.2035875 264.6836244140625,232.0674357421875 264.3547609375,232.94630156250003 263.92245136718753,233.8098134765625 263.3913,234.6276 263.3913,234.6276 263.0165849609375,234.7616306640625 262.4431796875,234.5254578125 261.72881894531247,234.0032091796875 260.93123749999995,233.27901250000002 260.1081701171875,232.4369955078125 259.3173515625,231.5612859375 258.6165166015625,230.7360115234375 258.0634,230.0453 258.0634,230.0453 256.13532011718746,227.319748046875 254.5170171875,224.558409375 253.1927212890625,221.776159765625 252.1466625,218.98787499999997 251.36307089843748,216.20843085937497 250.8261765625,213.45270312499997 250.5202095703125,210.735567578125 250.4294,208.0719 250.4294,208.0719 250.52742890624998,202.8077177734375 250.68928749999998,197.7589296875 250.78739609375,192.8156361328125 250.694175,187.86793749999998 250.28204453125,182.8059341796875 249.42342499999998,177.5197265625 247.99073671875,171.89941503906252 245.85639999999998,165.8351 245.85639999999998,165.8351 243.38759921874998,160.00553203125003 240.73928124999998,154.87731250000002 237.69422265624996,150.59438046875002 234.03519999999997,147.300675 229.54498984375,145.14013515625 224.00636874999998,144.25670000000002 217.20211328124995,144.79430859375 208.91499999999996,146.89690000000002 204.93399999999997,125.04900000000002" fill="none" stroke="black" stroke-width="0.1" id="_284246840"/>
                <polygon points="169.416,126.147 169.370503515625,125.70205039062502 169.416678125,125.319053125 169.55075742187498,124.99546054687501 169.768975,124.728725 170.067564453125,124.516298828125 170.442759375,124.35563437500001 170.89079335937498,124.244183984375 171.40789999999998,124.1794 171.40789999999998,124.1794 172.08856152343748,124.19139628906251 172.77936093749997,124.3079953125 173.47593300781247,124.4936248046875 174.17391249999997,124.7127125 174.86893417968747,124.92968613281249 175.5566328125,125.1089734375 176.2326431640625,125.21500214843749 176.8926,125.2122 176.8926,125.2122 183.58405234375,124.244990234375 189.7241,122.74520312499999 195.16854140624997,120.612064453125 199.77317499999998,117.7448 203.39379921875,114.042635546875 205.8862125,109.404796875 207.10621328124998,103.73050976562499 206.90959999999998,96.919 206.90959999999998,96.919 206.85934609375,96.4034822265625 206.8395,95.8164015625 206.86564765625,95.18992949218749 206.953375,94.5562375 207.11826796875,93.9474970703125 207.3759125,93.3958796875 207.74189453125,92.9335568359375 208.2318,92.5927 208.2318,92.5927 208.99942734375,92.27085625 209.7177375,91.95300624999999 210.40578515625,91.645309375 211.082625,91.353925 211.76731171875,91.08501249999999 212.47889999999998,90.84473125 213.23644453125,90.639240625 214.059,90.4747 214.059,90.4747 214.56929609374998,90.39593476562499 215.13819999999998,90.338171875 215.75216015625,90.333523046875 216.397625,90.41409999999999 217.06104296874997,90.612014453125 217.7288625,90.959378125 218.38753203125,91.488302734375 219.02349999999998,92.2309 219.02349999999998,92.2309 220.2594953125,93.870327734375 221.23058124999997,95.37844687500001 222.03755781249998,96.800948828125 222.78122499999998,98.18352500000002 223.56238281249998,99.57186679687501 224.48183124999997,101.011665625 225.64037031249998,102.54861289062501 227.13879999999997,104.22840000000001 227.13879999999997,104.22840000000001 227.42932109375,104.587151171875 227.70547499999998,105.052184375 227.94219765625,105.607681640625 228.11442499999998,106.237825 228.19709296874998,106.92679648437502 228.16513749999996,107.658778125 227.99349453124995,108.41795195312501 227.65709999999999,109.1885 227.65709999999999,109.1885 226.5361076171875,111.36503632812502 225.58216718749998,113.521746875 224.7657462890625,115.67535898437501 224.05731249999997,117.8426 223.4273333984375,120.04019726562501 222.8462765625,122.284878125 222.28460957031248,124.59336992187501 221.7128,126.98240000000001 221.7128,126.98240000000001 221.41058144531252,128.600830078125 221.1920453125,130.271153125 221.04188339843748,131.945305859375 220.94478750000002,133.575225 220.8854494140625,135.11284726562502 220.8485609375,136.510109375 220.8188138671875,137.71894804687503 220.78089999999997,138.6913 220.78089999999997,138.6913 220.72729589843746,139.39481347656252 220.66393593749999,139.86204531250002 220.59569863281249,140.14229511718753 220.52746249999998,140.28486250000003 220.46410605468748,140.33904707031252 220.41050781249996,140.35414843750002 220.37154628906248,140.3794662109375 220.35209999999998,140.4643 220.35209999999998,140.4643 220.05835644531248,141.9693181640625 219.77048281249998,143.3838453125 219.4498271484375,144.71875292968753 219.05773749999997,145.9849125 218.55556191406248,147.1931955078125 217.9046484375,148.35447343750002 217.0663451171875,149.4796177734375 216.00199999999998,150.5795 216.00199999999998,150.5795 215.16818066406248,151.27149179687498 214.18516406249998,151.979090625 213.08893730468748,152.70443164062502 211.91548749999998,153.44965 210.70080175781248,154.216880859375 209.4808671875,155.00825937500002 208.2916708984375,155.82592070312498 207.1692,156.672 207.1692,156.672 205.8470865234375,157.78944765625 204.58826718749998,158.969525 203.38309863281248,160.20800859374998 202.22193749999997,161.50067499999997 201.0951404296875,162.84330078125 199.9930640625,164.2316625 198.90606503906247,165.66153671875 197.8245,167.1287 197.8245,167.1287 197.58448027343752,167.48269375 197.3643859375,167.83228125000002 197.15557675781253,168.17728437500003 196.9494125,168.51752500000003 196.7372529296875,168.85282500000002 196.5104578125,169.18300625 196.2603869140625,169.507890625 195.9784,169.8273 195.9784,169.8273 195.88186425781248,169.91324902343752 195.74337656249998,170.0158046875 195.5756412109375,170.1270298828125 195.39136249999999,170.2389875 195.2032447265625,170.3437404296875 195.0239921875,170.4333515625 194.8663091796875,170.4998837890625 194.7429,170.5354 194.7429,170.5354 194.60376015625002,170.5468525390625 194.45301874999998,170.5376765625 194.29694296875,170.5093966796875 194.1418,170.4635375 193.99385703125,170.40162363281252 193.85938124999998,170.32517968750003 193.74463984375,170.2357302734375 193.6559,170.1348 193.6559,170.1348 189.0920224609375,164.28753222656252 184.96421718750003,158.6525390625 181.2735751953125,153.17351074218752 178.0211875,147.7941375 175.2081451171875,142.4581095703125 172.8355390625,137.1091171875 170.90446035156248,131.6908505859375 169.416,126.14700000000002" fill="none" stroke="black" stroke-width="0.1" id="_280343960"/>
            </g>
            <circle cx="228.244" cy="129.144" r="4.9631" fill="none" stroke="black" stroke-width="0.1" id="_281357216"/>
        </g>
    </g>
</svg>
