<svg version="1.0" xmlns="http://www.w3.org/2000/svg">
    <polygon points="120.491,124.221 126.331,124.221 126.28,127.035 126.219,127.349 126.05,127.642 125.781,127.908 125.425,128.139 124.991,128.33 124.496,128.475 123.947,128.565 123.36,128.597 123.36,128.597 122.771,128.565 122.222,128.475 121.727,128.33 121.295,128.139 120.938,127.908 120.668,127.642 120.499,127.349 120.44,127.035" fill="none" stroke="black" stroke-width="0.1"/>
    <polygon points="123.412,122.659 124,122.691 124.549,122.781 125.044,122.926 125.476,123.117 125.834,123.348 126.103,123.612 126.272,123.907 126.333,124.221 126.333,124.221 126.272,124.535 126.103,124.828 125.834,125.094 125.476,125.325 125.044,125.516 124.549,125.661 124,125.751 123.412,125.783 123.412,125.783 122.823,125.751 122.275,125.661 121.78,125.516 121.348,125.325 120.991,125.094 120.722,124.828 120.552,124.535 120.493,124.221 120.493,124.221 120.552,123.907 120.722,123.612 120.991,123.348 121.348,123.117 121.78,122.926 122.275,122.781 122.823,122.691" fill="none" stroke="black" stroke-width="0.1"/>
    <polygon points="101.514,164.751 101.529,169.746 101.514,164.751 98.0472,164.751 98.0533,168.157 97.3524,168.165 97.3116,172.284 112.307,171.325 123.265,163.106 124.281,161.216 124.181,156.749 125.073,156.677 125.027,149.009 121.695,149.024 120.481,149.675 107.544,149.733 107.612,151.588 107.614,151.9 109.221,151.861 107.614,151.9 106.911,151.894 106.905,156.789 107.647,156.787 109.102,156.78 107.647,156.787 107.673,160.956 108.92,162.766 101.514,162.767" fill="none" stroke="black" stroke-width="0.1"/>
    <polygon points="122.227,163.384 118.805,162.576 110.91,166.328 80.6486,182.024 59.7576,192.086 42.4284,204.42 44.5734,206.136 46.9571,208.255 48.5975,209.234 51.7924,208.871 53.6927,208.397 56.0099,206.074 58.1216,206.433 60.6775,205.566 63.2923,203.812 68.9765,200.278 74.9598,197.353 82.0081,194.612 89.5156,192.784 97.1666,191.664 106.759,190.831 115.476,190.26 125.737,189.923 131.916,189.631 137.308,188.645 143.721,186.71 147.927,183.243 151.14,175.027 150.711,172.923 149.006,171.897 140.507,171.378 140.808,169.752 141.012,169.082 135.712,167.346 135.172,167.893 134.284,169.337 131.819,167.885 125.703,165.273" fill="none" stroke="black" stroke-width="0.1"/>
    <polygon points="67.1653,194.618 73.3707,191.787 73.6834,191.681 74.0006,191.639 74.3148,191.66 74.6169,191.738 74.8994,191.873 75.1517,192.059 75.3662,192.296 75.5338,192.578 75.5338,192.578 75.6426,192.889 75.6849,193.207 75.6638,193.522 75.5852,193.825 75.4508,194.107 75.2635,194.361 75.0263,194.575 74.7423,194.741 68.5369,197.572 68.2258,197.678 67.9085,197.719 67.5943,197.699 67.2907,197.62 67.0098,197.486 66.756,197.299 66.5415,197.063 66.3738,196.781 66.3738,196.781 66.2666,196.47 66.2243,196.152 66.2439,195.837 66.3224,195.533 66.4584,195.25 66.6457,194.998 66.8829,194.784" fill="none" stroke="black" stroke-width="0.1"/>
    <polygon points="117.402,125.363 128.473,125.36 128.932,126.034 129.882,126.031 130.496,125.358 132.867,125.358 134.051,125.62 134.864,126.099 135.554,127.022 135.784,128.067 135.784,152.866 135.378,153.749 134.112,154.131 129.068,154.131 125.987,153.511 119.28,152.455 116.21,139.898 115.568,137.275" fill="none" stroke="black" stroke-width="0.1"/>
    <polyline points="103.997,181.245 107.0937,181.52 117.2884,182.20420000000001 124.6146,181.887 129.4922,181.1136 132.17499999999998,179.48829999999998 137.9982,173.77829999999997" fill="none" stroke="black" stroke-width="0.1"/>
    <polygon points="103.997,181.24499999999998" fill="none" stroke="black" stroke-width="0.1"/>
    <polyline points="58.4978,198.139 53.861799999999995,201.18730000000002 57.011399999999995,204.1511 63.91609999999999,201.1602" fill="none" stroke="black" stroke-width="0.1"/>
    <polygon points="58.49779999999999,198.139" fill="none" stroke="black" stroke-width="0.1"/>
    <polygon points="107.801,125.629 106.346,125.617 105.26,126.275 105.127,127.313 105.086,138.342 105.932,139.946 106.913,141.059 112.038,143.66 111.994,140.872 108.428,139.029 107.801,138.018 107.801,133.677 107.801,138.018 108.428,139.029 111.994,140.872 111.766,125.762" fill="none" stroke="black" stroke-width="0.1"/>
    <polygon points="110.179,111.812 108.469,112.171 108.201,123.446 111.099,123.712" fill="none" stroke="black" stroke-width="0.1"/>
    <polygon points="138.057,143.323 144.618,141.864 144.618,134.878 138.06,133.777" fill="none" stroke="black" stroke-width="0.1"/>
    <polygon points="138.06,131.559 138.056,146.118 136.636,146.159 135.147,143.322 134.69,138.471 135.204,134.079 136.566,131.502" fill="none" stroke="black" stroke-width="0.1"/>
    <line x1="46.4329" y1="205.628" x2="43.5009" y2="205.276" fill="none" stroke="black" stroke-width="0.1"/>
    <polygon points="108.201,123.446 104.414,122.969 102.695,122.547 101.957,121.784 101.6,120.658 101.37,118.149 101.428,116.049 101.899,114.209 102.765,112.884 104.789,112.49 108.469,112.171 109.182,114.979 109.225,118.277 108.958,121.574" fill="none" stroke="black" stroke-width="0.1"/>
    <polyline points="103.185,113.197 103.685,114.259 103.83460000000001,115.336 103.96900000000001,117.2076 103.96900000000001,118.6336 103.70160000000001,120.3707 103.4056,121.2 102.7787,121.9689" fill="none" stroke="black" stroke-width="0.1"/>
    <polygon points="103.185,113.197" fill="none" stroke="black" stroke-width="0.1"/>
    <circle cx="50.9223" cy="205.272" r="3.06795" fill="none" stroke="black" stroke-width="0.1"/>
    <polygon points="120.491,132.201 126.331,132.201 126.28,135.014 126.219,135.33 126.05,135.623 125.781,135.888 125.425,136.12 124.991,136.31 124.496,136.453 123.947,136.544 123.36,136.576 123.36,136.576 122.771,136.544 122.222,136.453 121.727,136.31 121.295,136.12 120.938,135.888 120.668,135.623 120.499,135.33 120.44,135.014" fill="none" stroke="black" stroke-width="0.1"/>
    <polygon points="123.412,130.639 124,130.671 124.549,130.762 125.044,130.905 125.476,131.097 125.834,131.328 126.103,131.592 126.272,131.886 126.333,132.201 126.333,132.201 126.272,132.515 126.103,132.808 125.834,133.074 125.476,133.305 125.044,133.496 124.549,133.639 124,133.731 123.412,133.763 123.412,133.763 122.823,133.731 122.275,133.639 121.78,133.496 121.348,133.305 120.991,133.074 120.722,132.808 120.552,132.515 120.493,132.201 120.493,132.201 120.552,131.886 120.722,131.592 120.991,131.328 121.348,131.097 121.78,130.905 122.275,130.762 122.823,130.671" fill="none" stroke="black" stroke-width="0.1"/>
    <polyline points="131.005,151.713 129.505,150.8187 128.9763,149.3369 128.9763,141.59220000000002 128.6108,140.55 127.84490000000001,140.0847 125.5126,140.056" fill="none" stroke="black" stroke-width="0.1"/>
    <polygon points="131.005,151.71300000000002" fill="none" stroke="black" stroke-width="0.1"/>
    <polyline points="125.509,139.467 126.648,139.467 127.5543,139.28570000000002 128.5044,138.56070000000003 128.97570000000002,137.37030000000001 128.97570000000002,128.14530000000002 128.43040000000002,127.08040000000003 127.64190000000002,126.55170000000003" fill="none" stroke="black" stroke-width="0.1"/>
    <polygon points="125.50900000000001,139.467" fill="none" stroke="black" stroke-width="0.1"/>
    <polyline points="119.733,136.437 120.0774,137.4974 120.59859999999999,138.1893 121.51249999999999,138.45510000000002 124.66799999999999,138.45510000000002 125.57279999999999,138.27380000000002 126.52449999999999,137.55030000000002 126.79639999999999,136.23760000000001" fill="none" stroke="black" stroke-width="0.1"/>
    <polygon points="119.73299999999999,136.437" fill="none" stroke="black" stroke-width="0.1"/>
    <rect x="107.801" y="125.629" width="2.19031" height="10.1933" fill="none" stroke="black" stroke-width="0.1"/>
    <polygon points="108.645,133.845 108.596,125.244 110.014,121.287 110.671,117.23 110.062,111.813 114.311,111.774 116.478,113.798 116.827,116.825 117.387,123.254 119.317,125.426 119.405,133.858 118.595,135.811 119.28,142.194 120.682,146.221 122.302,150.509 122.28,158.958 109.605,158.964 109.627,150.511 110.037,144.24 109.888,137.75" fill="none" stroke="black" stroke-width="0.1"/>
    <polyline points="109.845,126.577 118.1848,126.429 118.40679999999999,125.0347 117.38719999999999,123.9682 110.6395,125.1238" fill="none" stroke="black" stroke-width="0.1"/>
    <polygon points="109.845,126.577" fill="none" stroke="black" stroke-width="0.1"/>
    <polygon points="108.408,150.511 109.605,150.511 109.605,161.698 108.408,159.53" fill="none" stroke="black" stroke-width="0.1"/>
    <polygon points="122.302,150.511 123.499,150.511 123.499,159.53 122.302,161.604" fill="none" stroke="black" stroke-width="0.1"/>
    <polygon points="109.605,159.53 122.301,159.53 123.002,162.755 124.406,163.988 133.311,168.44 133.814,168.5 134.387,168.372 134.991,168.077 135.712,167.347 141.012,169.082 140.808,169.754 140.876,170.172 140.995,170.485 141.832,170.826 142.239,171.186 142.428,172.074 142.11,173.444 139.236,177.917 137.343,179.19 134.764,179.236 125.789,177.825 107.809,178.624 91.4098,181.752 73.9342,188.238 56.2757,197.47 45.3317,204.542 44.5719,206.136 43.8831,206.962 42.5704,206.409 40.7094,204.006 40.9058,202.077 45.3483,198.772 58.1186,190.223 73.4024,181.846 89.715,174.023 103.913,168.704 106.441,167.204 108.224,165.624 109.025,163.776" fill="none" stroke="black" stroke-width="0.1"/>
    <polyline points="109.893,162.201 110.8009,164.4049 109.9399,166.83089999999999 107.1695,169.2025 102.3931,170.7447 100.42790000000001,170.95319999999998" fill="none" stroke="black" stroke-width="0.1"/>
    <polygon points="109.893,162.201" fill="none" stroke="black" stroke-width="0.1"/>
    <circle id="center_00" cx="135.784" cy="138.372" r="8.8262" fill="none" stroke="black" stroke-width="0.1"/>
    <polygon points="92.3615,185.547 93.0699,185.16 93.7754,185.116 94.2391,185.258 99.4264,187.467 100.074,187.856 100.292,188.035 100.325,188.547 100.056,188.873 99.5094,189.13 87.9325,190.752 86.9099,190.778 86.4401,190.364 86.4416,189.815 86.9929,189.403" fill="none" stroke="black" stroke-width="0.1"/>
    <polygon points="124.189,169.452 125.307,170.056 129.752,172.447 130.358,173.873 129.317,175.06 128.052,175.284 123.914,174.856 123.213,174.636 122.731,173.971 122.686,170.545 122.976,169.767" fill="none" stroke="black" stroke-width="0.1"/>
    <polyline points="122.786,148.993 122.6032,148.4416 121.1682,144.9024 120.2633,142.7332 120.2633,141.73930000000001 120.6304,140.69850000000002 121.3962,140.23170000000002 121.94909999999999,140.1758" fill="none" stroke="black" stroke-width="0.1"/>
    <polygon points="122.78599999999999,148.993" fill="none" stroke="black" stroke-width="0.1"/>
    <polyline points="119.733,136.437 120.0774,137.4974 120.59859999999999,138.1893 121.51249999999999,138.45510000000002 124.66799999999999,138.45510000000002 125.57279999999999,138.27380000000002 126.52449999999999,137.55030000000002 126.79639999999999,136.23760000000001" fill="none" stroke="black" stroke-width="0.1"/>
    <polygon points="119.73299999999999,136.437" fill="none" stroke="black" stroke-width="0.1"/>
    <!--rect x="40.9022" y="112.238" width="90" height="133.459" fill="none" stroke="black" stroke-width="0.1"/-->
</svg>