<!DOCTYPE svg PUBLIC "-//W3C//DTD SVG 1.1//EN" "http://www.w3.org/Graphics/SVG/1.1/DTD/svg11.dtd">
<svg xmlns="http://www.w3.org/2000/svg" width="297mm" height="210mm" viewBox="0 0 297 210">
    <defs id="_tag_68_"/>
    <g id="_tag_69_">
        <g id="_tag_70_">
            <polygon id="polygon3025" points="74.2618,99.758 77.4508,100.302 80.5748,97.346 77.4508,100.302 78.4634,101.359 81.3499,103.801 86.7395,107.906 92.6952,110.077 100.097,111.133 108.045,110.468 167.88,105.106 176.709,103.871 181.656,102.473 186.965,100.19 215.903,87.423 220.94,85.765 234.952,84.691 233.822,81.783 234.952,84.691 237.14,86.146 251.322,86.496 267.735,80.312 239.815,75.606 230.685,74.616 232.678,78.487 232.934,79.296 220.259,80.054 216.329,80.879 212.493,82.205 184.161,94.557 178.912,96.589 172.727,98.174 100.677,104.34 94.3322,103.628 89.4626,101.101 85.2742,97.974 82.7218,95.473 84.2187,91.445 50.1255,83.712" fill="none" stroke="black" stroke-width="0.1"/>
            <polygon id="polygon3027" points="112.295,63.493 146.297,63.794 204.435,62.784 231.158,62.808 252.384,63.035 271.269,65.28 283.733,70.294 288.788,74.998 290.105,78.868 288.523,83.45 286.087,85.704 281.162,85.669 251.492,80.288 231.961,79.798 206.154,80.899 176.849,81.999 151.183,84.159 125.993,88.519 103.617,95.408 88.6766,95.664 73.4772,92.543 52.3514,87.058 33.4736,82.585 20.5573,80.101 12.0449,79.285 9.8658,77.508 9.8658,73.556 10.7648,69.572 17.5202,65.277 28.5486,63.087 40.7289,61.593 58.9447,61.17 75.8482,61.68" fill="none" stroke="black" stroke-width="0.1"/>
        </g>
        <g id="_tag_71_">
            <polygon id="path159" points="114.068,121.728 113.307,121.026 112.511,120.362 111.682,119.733 110.821,119.142 110.572,118.831 110.499,118.463 110.582,118.07 110.895,117.792 113.673,116.335 116.577,115.243 119.569,114.517 122.617,114.156 125.687,114.162 128.746,114.532 131.76,115.266 134.695,116.364 135.007,116.625 135.153,116.979 135.108,117.397 134.909,117.725 134.128,118.414 133.38,119.134 132.667,119.887 131.992,120.673 131.356,121.492 130.763,122.345 130.215,123.232 129.713,124.151 116.745,124.924 116.131,124.066 115.481,123.248 114.793,122.469" fill="none" stroke="black" stroke-width="0.1"/>
            <polygon id="path1045" points="120.838,96.32 121.647,96.2104 122.279,96.1065 122.754,95.9314 122.605,95.5511 122.075,95.4078 121.706,95.3385 121.288,95.2673 120.857,95.2046 120.45,95.1596 119.851,95.1615 119.32,95.3038 118.638,95.568 118.004,95.8527 117.616,96.0569 117.312,96.3153 118.289,96.5701 119.064,96.5111 119.946,96.424" fill="none" stroke="black" stroke-width="0.1"/>
            <polygon id="path1073" points="102.914,107.713 102.072,107.865 101.63,107.988 102.133,115.801 102.332,116.147 102.715,116.256 108.396,115.753 109.409,115.116 110.218,114.627 111.045,114.165 111.887,113.728 112.744,113.321 113.614,112.94 114.496,112.588 115.387,112.266 115.329,111.615 115.269,110.93 115.196,110.118 115.118,109.263 115.042,108.452 114.974,107.769 114.923,107.298 114.682,106.802 114.185,106.592 113.522,106.574 112.786,106.65 109.091,107.002 106.298,107.29 104.281,107.525" fill="none" stroke="black" stroke-width="0.1"/>
            <polygon id="path1085" points="140.929,104.738 140.737,104.391 129.369,105.292 128.912,105.286 128.522,105.331 127.93,105.563 127.596,105.98 127.515,106.571 127.564,107.018 127.627,107.668 127.699,108.441 127.772,109.255 127.84,110.03 127.897,110.683 127.937,111.135 128.893,111.455 129.823,111.639 130.739,111.855 131.643,112.101 132.536,112.379 133.416,112.687 134.286,113.024 135.144,113.39 141.162,112.894 141.511,112.719 141.622,112.359" fill="none" stroke="black" stroke-width="0.1"/>
            <polygon id="path1033" points="108.27,98.6839 114.361,96.8389 114.754,96.69 115.096,96.4849 115.375,96.2161 115.583,95.8752 115.756,95.4509 115.862,95.0884 116.146,94.8196 123.6,94.1284 123.982,94.2268 124.204,94.5696 124.389,94.9058 124.617,95.228 124.927,95.479 125.281,95.6607 125.665,95.7778 131.978,96.5017 139.391,96.4568 139.805,96.6506 140.128,99.9848 140.008,100.383 139.633,100.821 138.86,101.115 138.153,101.199 137.109,101.316 135.846,101.447 134.483,101.573 133.142,101.677 131.944,101.74 131.009,101.742 130.456,101.665 129.919,101.332 129.481,100.929 128.969,100.507 128.631,100.307 128.21,100.122 127.756,99.9942 127.233,99.9371 126.65,99.9427 126.019,100.006 125.348,100.119 124.649,100.274 123.931,100.465 123.206,100.685 122.561,100.884 122.06,101.024 121.669,101.117 121.114,101.205 120.663,101.241 120.053,101.3 119.608,101.347 119.052,101.357 118.656,101.334 118.142,101.281 117.478,101.194 116.717,101.103 115.972,101.039 115.255,101.006 114.573,101.012 113.937,101.062 113.356,101.16 112.84,101.315 112.399,101.528 112.03,101.792 111.742,102.053 111.322,102.551 110.958,103.018 110.479,103.439 109.942,103.615 109.016,103.784 107.82,103.939 106.478,104.078 105.11,104.194 103.839,104.285 102.787,104.345 102.074,104.37 101.616,104.348 101.005,104.081 100.71,103.695 100.577,102.879 100.55,102.395 100.533,101.923 100.519,101.487 100.512,101.107 100.505,100.613 100.963,99.9567 100.505,100.543 100.61,100.178" fill="none" stroke="black" stroke-width="0.1"/>
        </g>
        <polygon id="center_00" cx="140.105" cy="63.7392" points="160.105,63.7392 159.99543790736544,65.82976926535306 159.6679520146761,67.89743381635519 159.12613032590306,69.91953988749894 158.37590915285202,71.873932861516 157.42550807568875,73.7392 156.28533988749894,75.49490504584946 154.96789650954787,77.12181212717717 153.48761212717716,78.60209650954788 151.86070504584944,79.91953988749894 150.105,81.05970807568877 148.239732861516,82.01010915285201 146.28533988749894,82.76033032590307 144.26323381635518,83.30215201467611 142.19556926535307,83.62963790736546 140.105,83.7392 138.01443073464694,83.62963790736546 135.9467661836448,83.30215201467611 133.92466011250104,82.76033032590307 131.970267138484,82.01010915285201 130.105,81.05970807568877 128.34929495415054,79.91953988749894 126.72238787282284,78.60209650954789 125.24210349045211,77.12181212717717 123.92466011250104,75.49490504584946 122.78449192431123,73.73920000000001 121.83409084714798,71.87393286151601 121.08386967409692,69.91953988749894 120.54204798532388,67.89743381635519 120.21456209263452,65.82976926535306 120.10499999999999,63.7392 120.21456209263452,61.648630734646936 120.54204798532388,59.58096618364482 121.08386967409692,57.55886011250105 121.83409084714796,55.604467138484 122.78449192431121,53.739200000000004 123.92466011250104,51.98349495415054 125.2421034904521,50.35658787282284 126.72238787282282,48.876303490452116 128.34929495415054,47.55886011250105 130.105,46.41869192431123 131.97026713848396,45.46829084714798 133.92466011250104,44.718069674096924 135.9467661836448,44.17624798532388 138.0144307346469,43.84876209263453 140.105,43.7392 142.19556926535304,43.84876209263453 144.26323381635515,44.17624798532388 146.28533988749894,44.718069674096924 148.239732861516,45.468290847147976 150.10499999999996,46.41869192431122 151.86070504584944,47.558860112501044 153.48761212717716,48.8763034904521 154.96789650954787,50.35658787282282 156.28533988749894,51.98349495415053 157.42550807568875,53.73919999999999 158.375909152852,55.604467138483976 159.12613032590306,57.558860112501044 159.6679520146761,59.5809661836448 159.99543790736544,61.64863073464691" fill="none" stroke="black" stroke-width="0.1"/>
    </g>
</svg>
