<!DOCTYPE svg PUBLIC "-//W3C//DTD SVG 1.1//EN" "http://www.w3.org/Graphics/SVG/1.1/DTD/svg11.dtd">
<svg xmlns="http://www.w3.org/2000/svg" width="297mm" height="210mm" viewBox="0 0 297 210">
    <defs id="_tag_7_"/>
    <g id="_tag_8_">
        <g id="_tag_9_">
            <polygon id="polygon3025" points="74.2618,99.758 77.4508,100.302 80.5748,97.346 77.4508,100.302 78.4634,101.359 81.3499,103.801 86.7395,107.906 92.6952,110.077 100.097,111.133 108.045,110.468 167.88,105.106 176.709,103.871 181.656,102.473 186.965,100.19 215.903,87.423 220.94,85.765 234.952,84.691 233.822,81.783 234.952,84.691 237.14,86.146 251.322,86.496 267.735,80.312 239.815,75.606 230.685,74.616 232.678,78.487 232.934,79.296 220.259,80.054 216.329,80.879 212.493,82.205 184.161,94.557 178.912,96.589 172.727,98.174 100.677,104.34 94.3322,103.628 89.4626,101.101 85.2742,97.974 82.7218,95.473 84.2187,91.445 50.1255,83.712" fill="none" stroke="black" stroke-width="0.1"/>
            <polygon id="polygon3027" points="112.295,63.493 146.297,63.794 204.435,62.784 231.158,62.808 252.384,63.035 271.269,65.28 283.733,70.294 288.788,74.998 290.105,78.868 288.523,83.45 286.087,85.704 281.162,85.669 251.492,80.288 231.961,79.798 206.154,80.899 176.849,81.999 151.183,84.159 125.993,88.519 103.617,95.408 88.6766,95.664 73.4772,92.543 52.3514,87.058 33.4736,82.585 20.5573,80.101 12.0449,79.285 9.8658,77.508 9.8658,73.556 10.7648,69.572 17.5202,65.277 28.5486,63.087 40.7289,61.593 58.9447,61.17 75.8482,61.68" fill="none" stroke="black" stroke-width="0.1"/>
        </g>
        <g id="_tag_10_">
            <polygon id="path159" points="134.068,121.728 133.307,121.026 132.511,120.362 131.682,119.733 130.821,119.142 130.572,118.831 130.499,118.463 130.582,118.07 130.895,117.792 133.673,116.335 136.577,115.243 139.569,114.517 142.617,114.156 145.687,114.162 148.746,114.532 151.76,115.266 154.695,116.364 155.007,116.625 155.153,116.979 155.108,117.397 154.909,117.725 154.128,118.414 153.38,119.134 152.667,119.887 151.992,120.673 151.356,121.492 150.763,122.345 150.215,123.232 149.713,124.151 136.744,124.924 136.131,124.066 135.481,123.248 134.793,122.469" fill="none" stroke="black" stroke-width="0.1"/>
            <polygon id="path1045" points="140.838,96.32 141.648,96.2104 142.279,96.1065 142.754,95.9314 142.605,95.5511 142.075,95.4078 141.706,95.3385 141.288,95.2673 140.857,95.2046 140.45,95.1596 139.851,95.1615 139.32,95.3038 138.638,95.568 138.004,95.8527 137.616,96.0569 137.312,96.3153 138.289,96.5701 139.064,96.5111 139.946,96.424" fill="none" stroke="black" stroke-width="0.1"/>
            <polygon id="path1073" points="122.914,107.713 122.072,107.865 121.63,107.988 122.133,115.801 122.332,116.147 122.715,116.256 128.396,115.753 129.409,115.116 130.218,114.627 131.045,114.165 131.887,113.728 132.744,113.321 133.614,112.94 134.496,112.588 135.387,112.266 135.329,111.615 135.269,110.93 135.196,110.118 135.118,109.263 135.042,108.452 134.974,107.769 134.923,107.298 134.682,106.802 134.185,106.592 133.522,106.574 132.786,106.65 129.091,107.002 126.298,107.29 124.281,107.525" fill="none" stroke="black" stroke-width="0.1"/>
            <polygon id="path1085" points="160.929,104.738 160.737,104.391 149.369,105.292 148.912,105.286 148.522,105.331 147.93,105.563 147.596,105.98 147.515,106.571 147.564,107.018 147.627,107.668 147.699,108.441 147.772,109.255 147.84,110.03 147.897,110.683 147.937,111.135 148.893,111.455 149.823,111.639 150.739,111.855 151.643,112.101 152.536,112.379 153.417,112.687 154.286,113.024 155.144,113.39 161.162,112.894 161.511,112.719 161.622,112.359" fill="none" stroke="black" stroke-width="0.1"/>
            <polygon id="path1033" points="128.27,98.6839 134.361,96.8389 134.754,96.69 135.096,96.4849 135.375,96.2161 135.583,95.8752 135.756,95.4509 135.862,95.0884 136.146,94.8196 143.6,94.1284 143.982,94.2268 144.204,94.5696 144.389,94.9058 144.617,95.228 144.927,95.479 145.28,95.6607 145.665,95.7778 151.978,96.5017 159.391,96.4568 159.805,96.6506 160.128,99.9848 160.008,100.383 159.633,100.821 158.86,101.115 158.153,101.199 157.109,101.316 155.846,101.447 154.483,101.573 153.142,101.677 151.944,101.74 151.009,101.742 150.456,101.665 149.919,101.332 149.481,100.929 148.969,100.507 148.631,100.307 148.21,100.122 147.756,99.9942 147.233,99.9371 146.65,99.9427 146.018,100.006 145.348,100.119 144.649,100.274 143.931,100.465 143.206,100.685 142.561,100.884 142.06,101.024 141.669,101.117 141.114,101.205 140.663,101.241 140.053,101.3 139.608,101.347 139.052,101.357 138.656,101.334 138.142,101.281 137.478,101.194 136.717,101.103 135.972,101.039 135.255,101.006 134.573,101.012 133.937,101.062 133.356,101.16 132.84,101.315 132.399,101.528 132.03,101.792 131.742,102.053 131.322,102.551 130.958,103.018 130.479,103.439 129.942,103.615 129.016,103.784 127.82,103.939 126.478,104.078 125.11,104.194 123.839,104.285 122.787,104.345 122.074,104.37 121.616,104.348 121.005,104.081 120.71,103.695 120.577,102.879 120.55,102.395 120.533,101.923 120.519,101.487 120.512,101.107 120.505,100.613 120.963,99.9567 120.505,100.543 120.61,100.178" fill="none" stroke="black" stroke-width="0.1"/>
        </g>
        <polygon id="center_00" cx="140.105" cy="63.7392" points="160.105,63.7392 159.99543790736544,65.82976926535306 159.6679520146761,67.89743381635519 159.12613032590306,69.91953988749894 158.37590915285202,71.873932861516 157.42550807568875,73.7392 156.28533988749894,75.49490504584946 154.96789650954787,77.12181212717717 153.48761212717716,78.60209650954788 151.86070504584944,79.91953988749894 150.105,81.05970807568877 148.239732861516,82.01010915285201 146.28533988749894,82.76033032590307 144.26323381635518,83.30215201467611 142.19556926535307,83.62963790736546 140.105,83.7392 138.01443073464694,83.62963790736546 135.9467661836448,83.30215201467611 133.92466011250104,82.76033032590307 131.970267138484,82.01010915285201 130.105,81.05970807568877 128.34929495415054,79.91953988749894 126.72238787282284,78.60209650954789 125.24210349045211,77.12181212717717 123.92466011250104,75.49490504584946 122.78449192431123,73.73920000000001 121.83409084714798,71.87393286151601 121.08386967409692,69.91953988749894 120.54204798532388,67.89743381635519 120.21456209263452,65.82976926535306 120.10499999999999,63.7392 120.21456209263452,61.648630734646936 120.54204798532388,59.58096618364482 121.08386967409692,57.55886011250105 121.83409084714796,55.604467138484 122.78449192431121,53.739200000000004 123.92466011250104,51.98349495415054 125.2421034904521,50.35658787282284 126.72238787282282,48.876303490452116 128.34929495415054,47.55886011250105 130.105,46.41869192431123 131.97026713848396,45.46829084714798 133.92466011250104,44.718069674096924 135.9467661836448,44.17624798532388 138.0144307346469,43.84876209263453 140.105,43.7392 142.19556926535304,43.84876209263453 144.26323381635515,44.17624798532388 146.28533988749894,44.718069674096924 148.239732861516,45.468290847147976 150.10499999999996,46.41869192431122 151.86070504584944,47.558860112501044 153.48761212717716,48.8763034904521 154.96789650954787,50.35658787282282 156.28533988749894,51.98349495415053 157.42550807568875,53.73919999999999 158.375909152852,55.604467138483976 159.12613032590306,57.558860112501044 159.6679520146761,59.5809661836448 159.99543790736544,61.64863073464691" fill="none" stroke="black" stroke-width="0.1"/>
    </g>
</svg>
