<!DOCTYPE svg PUBLIC "-//W3C//DTD SVG 1.1//EN" "http://www.w3.org/Graphics/SVG/1.1/DTD/svg11.dtd">
<svg xmlns="http://www.w3.org/2000/svg" width="297mm" height="210mm" viewBox="0 0 297 210">
    <defs id="_tag_43_"/>
    <g id="_tag_44_">
        <g id="_tag_45_">
            <polygon id="polygon3025" points="74.2618,99.758 77.4508,100.302 80.5748,97.346 77.4508,100.302 78.4634,101.359 81.3499,103.801 86.7395,107.906 92.6952,110.077 100.097,111.133 108.045,110.468 167.88,105.106 176.709,103.871 181.656,102.473 186.965,100.19 215.903,87.423 220.94,85.765 234.952,84.691 233.822,81.783 234.952,84.691 237.14,86.146 251.322,86.496 267.735,80.312 239.815,75.606 230.685,74.616 232.678,78.487 232.934,79.296 220.259,80.054 216.329,80.879 212.493,82.205 184.161,94.557 178.912,96.589 172.727,98.174 100.677,104.34 94.3322,103.628 89.4626,101.101 85.2742,97.974 82.7218,95.473 84.2187,91.445 50.1255,83.712" fill="none" stroke="black" stroke-width="0.1"/>
            <polygon id="polygon3027" points="112.295,63.493 146.297,63.794 204.435,62.784 231.158,62.808 252.384,63.035 271.269,65.28 283.733,70.294 288.788,74.998 290.105,78.868 288.523,83.45 286.087,85.704 281.162,85.669 251.492,80.288 231.961,79.798 206.154,80.899 176.849,81.999 151.183,84.159 125.993,88.519 103.617,95.408 88.6766,95.664 73.4772,92.543 52.3514,87.058 33.4736,82.585 20.5573,80.101 12.0449,79.285 9.8658,77.508 9.8658,73.556 10.7648,69.572 17.5202,65.277 28.5486,63.087 40.7289,61.593 58.9447,61.17 75.8482,61.68" fill="none" stroke="black" stroke-width="0.1"/>
        </g>
        <g id="_tag_46_">
            <polygon id="path159" points="124.068,121.728 123.307,121.026 122.511,120.362 121.682,119.733 120.821,119.142 120.572,118.831 120.499,118.463 120.582,118.07 120.895,117.792 123.673,116.335 126.577,115.243 129.569,114.517 132.617,114.156 135.687,114.162 138.746,114.532 141.76,115.266 144.695,116.364 145.007,116.625 145.153,116.979 145.108,117.397 144.909,117.725 144.128,118.414 143.38,119.134 142.667,119.887 141.992,120.673 141.356,121.492 140.763,122.345 140.215,123.232 139.713,124.151 126.745,124.924 126.131,124.066 125.481,123.248 124.793,122.469" fill="none" stroke="black" stroke-width="0.1"/>
            <polygon id="path1045" points="130.838,96.32 131.648,96.2104 132.279,96.1065 132.754,95.9314 132.605,95.5511 132.075,95.4078 131.706,95.3385 131.288,95.2673 130.857,95.2046 130.45,95.1596 129.851,95.1615 129.32,95.3038 128.638,95.568 128.004,95.8527 127.616,96.0569 127.312,96.3153 128.289,96.5701 129.064,96.5111 129.946,96.424" fill="none" stroke="black" stroke-width="0.1"/>
            <polygon id="path1073" points="112.914,107.713 112.072,107.865 111.63,107.988 112.133,115.801 112.332,116.147 112.715,116.256 118.396,115.753 119.409,115.116 120.218,114.627 121.045,114.165 121.887,113.728 122.744,113.321 123.614,112.94 124.496,112.588 125.387,112.266 125.329,111.615 125.269,110.93 125.196,110.118 125.118,109.263 125.042,108.452 124.974,107.769 124.923,107.298 124.682,106.802 124.185,106.592 123.522,106.574 122.786,106.65 119.091,107.002 116.298,107.29 114.281,107.525" fill="none" stroke="black" stroke-width="0.1"/>
            <polygon id="path1085" points="150.929,104.738 150.737,104.391 139.369,105.292 138.912,105.286 138.522,105.331 137.93,105.563 137.596,105.98 137.515,106.571 137.564,107.018 137.627,107.668 137.699,108.441 137.772,109.255 137.84,110.03 137.897,110.683 137.937,111.135 138.893,111.455 139.823,111.639 140.739,111.855 141.643,112.101 142.536,112.379 143.417,112.687 144.286,113.024 145.144,113.39 151.162,112.894 151.511,112.719 151.622,112.359" fill="none" stroke="black" stroke-width="0.1"/>
            <polygon id="path1033" points="118.27,98.6839 124.361,96.8389 124.754,96.69 125.096,96.4849 125.375,96.2161 125.583,95.8752 125.757,95.4509 125.862,95.0884 126.146,94.8196 133.6,94.1284 133.982,94.2268 134.204,94.5696 134.389,94.9058 134.617,95.228 134.927,95.479 135.28,95.6607 135.665,95.7778 141.978,96.5017 149.391,96.4568 149.805,96.6506 150.128,99.9848 150.008,100.383 149.633,100.821 148.86,101.115 148.153,101.199 147.109,101.316 145.846,101.447 144.483,101.573 143.142,101.677 141.944,101.74 141.009,101.742 140.456,101.665 139.919,101.332 139.481,100.929 138.969,100.507 138.631,100.307 138.21,100.122 137.756,99.9942 137.233,99.9371 136.65,99.9427 136.018,100.006 135.348,100.119 134.649,100.274 133.931,100.465 133.206,100.685 132.561,100.884 132.06,101.024 131.669,101.117 131.114,101.205 130.663,101.241 130.053,101.3 129.608,101.347 129.052,101.357 128.656,101.334 128.142,101.281 127.478,101.194 126.717,101.103 125.972,101.039 125.255,101.006 124.573,101.012 123.937,101.062 123.356,101.16 122.84,101.315 122.399,101.528 122.03,101.792 121.742,102.053 121.322,102.551 120.958,103.018 120.479,103.439 119.942,103.615 119.016,103.784 117.82,103.939 116.478,104.078 115.11,104.194 113.839,104.285 112.787,104.345 112.074,104.37 111.616,104.348 111.005,104.081 110.71,103.695 110.577,102.879 110.55,102.395 110.533,101.923 110.519,101.487 110.512,101.107 110.505,100.613 110.963,99.9567 110.505,100.543 110.61,100.178" fill="none" stroke="black" stroke-width="0.1"/>
        </g>
        <polygon id="center_00" cx="140.105" cy="63.7392" points="160.105,63.7392 159.99543790736544,65.82976926535306 159.6679520146761,67.89743381635519 159.12613032590306,69.91953988749894 158.37590915285202,71.873932861516 157.42550807568875,73.7392 156.28533988749894,75.49490504584946 154.96789650954787,77.12181212717717 153.48761212717716,78.60209650954788 151.86070504584944,79.91953988749894 150.105,81.05970807568877 148.239732861516,82.01010915285201 146.28533988749894,82.76033032590307 144.26323381635518,83.30215201467611 142.19556926535307,83.62963790736546 140.105,83.7392 138.01443073464694,83.62963790736546 135.9467661836448,83.30215201467611 133.92466011250104,82.76033032590307 131.970267138484,82.01010915285201 130.105,81.05970807568877 128.34929495415054,79.91953988749894 126.72238787282284,78.60209650954789 125.24210349045211,77.12181212717717 123.92466011250104,75.49490504584946 122.78449192431123,73.73920000000001 121.83409084714798,71.87393286151601 121.08386967409692,69.91953988749894 120.54204798532388,67.89743381635519 120.21456209263452,65.82976926535306 120.10499999999999,63.7392 120.21456209263452,61.648630734646936 120.54204798532388,59.58096618364482 121.08386967409692,57.55886011250105 121.83409084714796,55.604467138484 122.78449192431121,53.739200000000004 123.92466011250104,51.98349495415054 125.2421034904521,50.35658787282284 126.72238787282282,48.876303490452116 128.34929495415054,47.55886011250105 130.105,46.41869192431123 131.97026713848396,45.46829084714798 133.92466011250104,44.718069674096924 135.9467661836448,44.17624798532388 138.0144307346469,43.84876209263453 140.105,43.7392 142.19556926535304,43.84876209263453 144.26323381635515,44.17624798532388 146.28533988749894,44.718069674096924 148.239732861516,45.468290847147976 150.10499999999996,46.41869192431122 151.86070504584944,47.558860112501044 153.48761212717716,48.8763034904521 154.96789650954787,50.35658787282282 156.28533988749894,51.98349495415053 157.42550807568875,53.73919999999999 158.375909152852,55.604467138483976 159.12613032590306,57.558860112501044 159.6679520146761,59.5809661836448 159.99543790736544,61.64863073464691" fill="none" stroke="black" stroke-width="0.1"/>
    </g>
</svg>
