<!DOCTYPE svg PUBLIC "-//W3C//DTD SVG 1.1//EN" "http://www.w3.org/Graphics/SVG/1.1/DTD/svg11.dtd">
<svg xmlns="http://www.w3.org/2000/svg" width="297mm" height="210mm" viewBox="0 0 297 210">
    <defs id="_tag_43_"/>
    <g id="_tag_44_">
        <polygon id="simplify_34" points="43.1001,111.751 41.1643,106.881 35.0483,101.457 4.9134,96.7561 2.4842,103.52 1.8464,104.986 1.8631,107.565 2.5373,110.658 4.0714,112.561 5.2242,114.333 8.9114,114.299 13.8359,113.48 18.2508,111.718 22.5517,110.971 28.7491,112.153 31.2183,112.433 31.2002,110.804 31.2567,109.322" fill="none" stroke="black" stroke-width="0.1"/>
        <polygon id="simplify_35" points="72.7311,112.172 61.3428,104.906 61.3427,104.906 45.5087,94.8028 34.1204,87.5364 30.3551,93.4374 41.7435,100.704 57.578,110.807 57.5777,110.808 80.4215,125.383 84.6532,127.446 89.8914,128.525 94.4794,128.641 94.4795,128.641 94.9339,128.599 129.587,125.367 143.037,124.113 143.037,124.113 165.005,122.064 169.54,121.334 174.327,120.038 178.007,118.199 194.733,108.981 194.733,108.981 208.122,101.602 213.574,99.499 220.527,98.27 226.355,98.0606 214.115,92.7508 204.211,95.7643 191.354,102.851 191.354,102.851 174.752,112.001 172.349,113.246 167.843,114.562 164.462,115.084 142.698,117.113 129.247,118.368 129.247,118.368 116.138,119.59 107.28,120.417 97.0953,121.366 94.1059,121.645 93.8289,121.671 93.8289,121.671 90.1165,121.771 86.5325,120.848 83.8958,119.296" fill="none" stroke="black" stroke-width="0.1"/>
        <g id="_tag_45_">
            <polygon id="_138335528" points="142.015,113.659 131.54,114.666 129.324,113.991 127.387,112.545 126.193,112.091 119.676,112.668 118.708,113.498 117.884,114.629 116.45,115.558 114.507,116.454 104.717,117.246 103.738,117.917 103.767,121.374 104.652,122.599 105.843,123.027 113.454,122.339 114.526,121.545 115.655,120.626 117.307,120.151 130.791,118.809 132.245,119.019 133.855,120.289 135.201,120.372 142.457,119.751 143.407,119.275 143.51,118.307 143.017,114.21" fill="none" stroke="black" stroke-width="0.1"/>
            <polygon id="_135642912" points="142.294,122.347 134.279,122.933 133.409,123.242 132.577,124.594 132.546,126.033 132.786,127.661 133.311,129.265 134.658,130.343 137.506,131.344 141.798,131.198 143.267,130.693 144.02,129.477 143.955,124.73 143.201,123.124" fill="none" stroke="black" stroke-width="0.1"/>
            <polygon id="_20398280" points="105.81,125.829 113.988,125.165 115.24,125.808 115.751,126.765 115.998,128.184 116.005,129.829 115.727,131.494 114.557,132.762 111.892,134.179 107.626,134.679 106.098,134.4 105.171,133.311 104.523,128.608 105.027,126.908" fill="none" stroke="black" stroke-width="0.1"/>
            <polygon id="_138302832" points="129.818,134.727 120.677,135.557 121.245,141.817 121.776,142.288 129.831,141.557 130.374,140.855" fill="none" stroke="black" stroke-width="0.1"/>
            <polygon id="_137123800" points="131.893,131.821 129.14,131.493 126.141,131.549 123.422,131.801 120.813,132.248 118.164,133.135 115.925,134.349 116.072,135.975 134.1,134.339 133.933,132.498" fill="none" stroke="black" stroke-width="0.1"/>
        </g>
        <polygon id="simplify_36" points="273.361,103.422 272.412,102.077 265.826,96.935 210.485,95.1902 233.627,103.245 235.25,104.406 237.491,104.945 268.276,105.154 270.918,103.954" fill="none" stroke="black" stroke-width="0.1"/>
        <polygon id="simplify_37" points="249.088,82.4515 233.881,81.428 215.309,80.8922 193.367,80.5235 174.708,80.8223 147.237,82.5408 128.175,83.1933 115.598,83.0741 109.683,82.2403 98.1161,79.7753 78.2639,76.3158 67.8224,75.287 58.0056,74.9482 45.5068,75.3524 34.2678,76.5374 26.2524,77.788 15.3051,80.239 6.6595,83.7063 2.8523,85.5446 0.1137,88.2832 -2.1275,92.6738 -2.3325,95.4807 -1.9734,99.4375 -0.5235,101.843 2.4842,103.52 9.0206,100.533 16.3702,101.587 24.3702,103.598 32.9379,106.9 43.2151,112.561 50.5539,116.335 56.2079,119.187 61.9919,121.177 66.8583,122.135 72.0702,122.288 80.2415,121.817 88.5801,119.992 99.3391,116.82 110.363,112.635 123.62,107.634 134.687,104.262 145.349,101.483 157.769,98.9244 167.732,97.4987 181.57,96.2764 195.177,95.8134 207.648,95.6747 221.914,96.5978 235.27,97.6626 247.187,99.4265 259.7,102.328 267.044,104.61 270.683,105.851 272.461,106.334 274.853,105.802 277.004,103.458 277.607,99.8308 276.584,95.6059 274.528,91.8623 270.345,88.1329 264.019,85.1797 255.649,83.1987" fill="none" stroke="black" stroke-width="0.1"/>
        <polygon id="center_00" cx="128.557" cy="83.1803" points="173.557,83.1803 173.3104852915723,87.8840808470444 172.57364203302126,92.53632608679916 171.3545432332819,97.08606474687264 169.66654559391702,101.48344893841102 167.52814317029973,105.6803 164.9627647468726,109.6306363531613 161.99851714648273,113.29117728614861 158.6678772861486,116.62181714648274 155.0073363531613,119.58606474687264 151.057,122.15144317029974 146.86014893841102,124.28984559391705 142.4627647468726,125.9778432332819 137.91302608679916,127.19694203302126 133.2607808470444,127.93378529157229 128.557,128.1803 123.85321915295559,127.9337852915723 119.20097391320083,127.19694203302126 114.65123525312735,125.97784323328192 110.25385106158899,124.28984559391705 106.057,122.15144317029974 102.1066636468387,119.58606474687264 98.44612271385138,116.62181714648275 95.11548285351725,113.29117728614862 92.15123525312737,109.6306363531613 89.58585682970025,105.68030000000002 87.44745440608295,101.48344893841102 85.75945676671807,97.08606474687264 84.54035796697875,92.53632608679919 83.80351470842768,87.88408084704442 83.55699999999999,83.1803 83.80351470842768,78.47651915295562 84.54035796697873,73.82427391320084 85.75945676671807,69.27453525312737 87.44745440608294,64.87715106158902 89.58585682970025,60.68030000000002 92.15123525312734,56.72996364683871 95.11548285351722,53.069422713851395 98.44612271385135,49.73878285351727 102.10666364683868,46.774535253127375 106.05699999999996,44.20915682970028 110.25385106158895,42.070754406082976 114.65123525312735,40.382756766718096 119.2009739132008,39.163657966978754 123.85321915295555,38.426814708427706 128.557,38.1803 133.26078084704437,38.4268147084277 137.91302608679914,39.16365796697874 142.4627647468726,40.38275676671809 146.860148938411,42.070754406082955 151.05699999999996,44.20915682970025 155.00733635316126,46.77453525312736 158.66787728614858,49.73878285351724 161.9985171464827,53.06942271385135 164.9627647468726,56.7299636468387 167.5281431702997,60.68029999999998 169.66654559391702,64.87715106158896 171.3545432332819,69.27453525312735 172.57364203302123,73.82427391320081 173.3104852915723,78.47651915295556" fill="none" stroke="black" stroke-width="0.1"/>
        <polyline id="simplify_SVG__000031" points="13.0668,86.2132 34.1204,87.5364 52.3061,90.1388 66.3259,93.0245 80.6706,93.784" fill="none" stroke="black" stroke-width="0.1"/>
    </g>
</svg>
