<!DOCTYPE svg PUBLIC "-//W3C//DTD SVG 1.1//EN" "http://www.w3.org/Graphics/SVG/1.1/DTD/svg11.dtd">
<svg xmlns="http://www.w3.org/2000/svg" width="297mm" height="210mm" viewBox="0 0 297 210">
    <defs id="_tag_448_"/>
    <g id="_tag_449_">
        <line id="simplify_318" x1="31.0193" y1="135.432" x2="68.105" y2="135.432" stroke="black" stroke-width="0.1"/>
        <polygon id="simplify_319" points="65.708,127.964 66.016,129.313 66.35,130.662 66.699,131.994 67.081,133.327 67.178,133.587 67.219,133.693 67.308,133.871 67.406,134.05 67.463,134.14 67.585,134.31 67.715,134.464 67.869,134.619 67.934,134.684 68.088,134.814 68.259,134.936 68.438,135.05 68.625,135.147 68.804,135.228 69.007,135.302 69.202,135.358 69.51,135.432 69.803,135.472 70.518,135.57 70.811,135.61 71.103,135.651 71.404,135.691 71.948,135.765 72.411,135.838 72.72,135.878 72.858,135.895 74.963,136.187 75.109,136.212 75.247,136.252 75.385,136.301 75.515,136.366 75.637,136.439 75.751,136.528 75.857,136.618 75.954,136.724 76.043,136.829 76.117,136.951 76.19,137.073 76.247,137.211 76.295,137.349 76.328,137.487 76.344,137.634 76.352,137.788 76.352,137.869 76.344,137.95 76.336,138.032 76.32,138.113 76.279,138.267 76.222,138.414 76.157,138.552 76.076,138.69 75.987,138.812 75.881,138.926 75.767,139.031 75.645,139.12 75.507,139.202 75.369,139.275 75.223,139.324 75.068,139.364 74.987,139.381 74.906,139.389 74.825,139.397 74.743,139.397 65.708,139.381 65.496,139.551 65.301,139.738 65.115,139.949 64.952,140.153 64.798,140.396 64.651,140.632 64.529,140.884 64.432,141.136 64.343,141.404 64.278,141.672 64.237,141.94 64.204,142.216 64.188,142.501 64.188,170.802 64.188,171.144 64.221,171.566 64.278,171.972 64.294,172.07 64.31,172.176 64.326,172.273 64.343,172.379 64.448,172.785 64.554,173.191 64.7,173.581 64.798,173.833 64.96,174.215 65.131,174.532 65.285,174.833 69.592,182.138 69.746,182.446 69.779,182.519 69.811,182.601 69.835,182.682 69.86,182.771 69.876,182.853 69.892,182.942 69.9,183.031 69.9,183.121 69.9,187.314 69.917,187.5 69.957,187.679 70.006,187.834 70.055,187.947 70.136,188.118 70.234,188.272 70.299,188.346 70.421,188.476 70.494,188.549 70.559,188.606 70.648,188.662 75.751,188.662 75.832,188.662 75.913,188.671 75.995,188.679 76.076,188.695 76.23,188.736 76.377,188.792 76.515,188.857 76.653,188.939 76.775,189.028 76.888,189.134 76.994,189.248 77.084,189.369 77.165,189.507 77.238,189.646 77.287,189.792 77.327,189.946 77.344,190.028 77.352,190.109 77.36,190.19 77.36,190.271 77.352,190.426 77.335,190.572 77.303,190.718 77.254,190.856 77.197,190.986 77.132,191.108 77.051,191.23 76.962,191.336 76.864,191.441 76.759,191.531 76.645,191.62 76.523,191.693 76.393,191.758 76.255,191.807 76.117,191.848 75.97,191.872 71.306,192.278 71.225,192.286 71.152,192.295 70.957,192.335 70.754,192.408 70.656,192.449 70.477,192.547 70.307,192.66 70.226,192.717 70.071,192.855 69.925,193.01 69.803,193.18 69.705,193.359 69.616,193.554 69.567,193.757 69.519,193.952 69.51,194.066 69.494,194.164 29.6298,194.164 29.6136,194.066 29.6055,193.952 29.5567,193.757 29.508,193.554 29.4186,193.359 29.3211,193.18 29.1992,193.01 29.0529,192.855 28.8985,192.717 28.8173,192.66 28.6466,192.547 28.4679,192.449 28.3704,192.408 28.1672,192.335 27.9722,192.295 27.8991,192.286 27.8178,192.278 23.1537,191.872 23.0074,191.848 22.8612,191.807 22.7312,191.758 22.6012,191.693 22.4793,191.62 22.3655,191.531 22.2599,191.441 22.1624,191.336 22.073,191.23 21.9917,191.108 21.9267,190.986 21.8699,190.856 21.8211,190.718 21.7886,190.572 21.7724,190.426 21.7642,190.271 21.7642,190.19 21.7724,190.109 21.7805,190.028 21.7967,189.946 21.8374,189.792 21.8861,189.646 21.9592,189.507 22.0405,189.369 22.1299,189.248 22.2355,189.134 22.3493,189.028 22.4712,188.939 22.6093,188.857 22.7474,188.792 22.8937,188.736 23.0481,188.695 23.1293,188.679 23.2106,188.671 23.2918,188.662 23.3731,188.662 28.476,188.662 28.5654,188.606 28.6304,188.549 28.7035,188.476 28.8254,188.346 28.8904,188.272 28.9879,188.118 29.0692,187.947 29.1179,187.834 29.1667,187.679 29.2073,187.5 29.2236,187.314 29.2236,183.121 29.2236,183.031 29.2317,182.942 29.2479,182.853 29.2642,182.771 29.2886,182.682 29.3129,182.601 29.3454,182.519 29.3779,182.446 29.5323,182.138 33.8389,174.833 33.9933,174.532 34.1639,174.215 34.3264,173.833 34.424,173.581 34.5702,173.191 34.6759,172.785 34.7815,172.379 34.7977,172.273 34.814,172.176 34.8302,172.07 34.8465,171.972 34.9034,171.566 34.9359,171.144 34.9359,170.802 34.9359,142.501 34.9196,142.216 34.8871,141.94 34.8465,141.672 34.7815,141.404 34.6921,141.136 34.5946,140.884 34.4727,140.632 34.3264,140.396 34.1721,140.153 34.0095,139.949 33.8227,139.738 33.6276,139.551 33.4164,139.381 24.3807,139.397 24.2994,139.397 24.2182,139.389 24.1369,139.381 24.0557,139.364 23.9013,139.324 23.755,139.275 23.6169,139.202 23.4787,139.12 23.3569,139.031 23.2431,138.926 23.1375,138.812 23.0481,138.69 22.9668,138.552 22.9018,138.414 22.8449,138.267 22.8043,138.113 22.7881,138.032 22.7799,137.95 22.7718,137.869 22.7718,137.788 22.7799,137.634 22.7962,137.487 22.8287,137.349 22.8774,137.211 22.9343,137.073 23.0074,136.951 23.0806,136.829 23.17,136.724 23.2675,136.618 23.3731,136.528 23.4869,136.439 23.6087,136.366 23.7388,136.301 23.8769,136.252 24.015,136.212 24.1613,136.187 26.2658,135.895 26.404,135.878 26.7127,135.838 27.1759,135.765 27.7203,135.691 28.021,135.651 28.3135,135.61 28.606,135.57 29.3211,135.472 29.6136,135.432 29.9224,135.358 30.1174,135.302 30.3205,135.228 30.4993,135.147 30.6862,135.05 30.8649,134.936 31.0356,134.814 31.19,134.684 31.255,134.619 31.4093,134.464 31.5394,134.31 31.6612,134.14 31.7181,134.05 31.8156,133.871 31.905,133.693 31.9456,133.587 32.0431,133.327 32.4251,131.994 32.7745,130.662 33.1076,129.313 33.4164,127.964 34.1883,124.811 34.6271,124.064 49.562,124.064 64.497,124.064 64.936,124.811" fill="none" stroke="black" stroke-width="0.1"/>
        <polygon id="simplify_320" points="65.708,127.964 66.016,129.313 66.35,130.662 66.699,131.994 67.081,133.327 67.178,133.587 67.219,133.693 67.308,133.871 67.406,134.05 67.463,134.14 67.585,134.31 67.715,134.464 67.869,134.619 67.934,134.684 68.088,134.814 68.259,134.936 68.438,135.05 68.625,135.147 68.804,135.228 69.007,135.302 69.202,135.358 69.51,135.432 69.803,135.472 70.518,135.57 70.811,135.61 71.103,135.651 71.404,135.691 71.948,135.765 72.411,135.838 72.72,135.878 72.858,135.895 74.963,136.187 75.109,136.212 75.247,136.252 75.385,136.301 75.515,136.366 75.637,136.439 75.751,136.528 75.857,136.618 75.954,136.724 76.043,136.829 76.117,136.951 76.19,137.073 76.247,137.211 76.295,137.349 76.328,137.487 76.344,137.634 76.352,137.788 76.352,137.869 76.344,137.95 76.336,138.032 76.32,138.113 76.279,138.267 76.222,138.414 76.157,138.552 76.076,138.69 75.987,138.812 75.881,138.926 75.767,139.031 75.645,139.12 75.507,139.202 75.369,139.275 75.223,139.324 75.068,139.364 74.987,139.381 74.906,139.389 74.825,139.397 74.743,139.397 65.708,139.381 65.496,139.551 65.301,139.738 65.115,139.949 64.952,140.153 64.798,140.396 64.651,140.632 64.529,140.884 64.432,141.136 64.343,141.404 64.278,141.672 64.237,141.94 64.204,142.216 64.188,142.501 64.188,170.802 64.188,171.144 64.221,171.566 64.278,171.972 64.294,172.07 64.31,172.176 64.326,172.273 64.343,172.379 64.448,172.785 64.554,173.191 64.7,173.581 64.798,173.833 64.96,174.215 65.131,174.532 65.285,174.833 69.592,182.138 69.746,182.446 69.779,182.519 69.811,182.601 69.835,182.682 69.86,182.771 69.876,182.853 69.892,182.942 69.9,183.031 69.9,183.121 69.9,187.314 69.917,187.5 69.957,187.679 70.006,187.834 70.055,187.947 70.136,188.118 70.234,188.272 70.299,188.346 70.421,188.476 70.494,188.549 70.559,188.606 70.648,188.662 75.751,188.662 75.832,188.662 75.913,188.671 75.995,188.679 76.076,188.695 76.23,188.736 76.377,188.792 76.515,188.857 76.653,188.939 76.775,189.028 76.888,189.134 76.994,189.248 77.084,189.369 77.165,189.507 77.238,189.646 77.287,189.792 77.327,189.946 77.344,190.028 77.352,190.109 77.36,190.19 77.36,190.271 77.352,190.426 77.335,190.572 77.303,190.718 77.254,190.856 77.197,190.986 77.132,191.108 77.051,191.23 76.962,191.336 76.864,191.441 76.759,191.531 76.645,191.62 76.523,191.693 76.393,191.758 76.255,191.807 76.117,191.848 75.97,191.872 71.306,192.278 71.225,192.286 71.152,192.295 70.957,192.335 70.754,192.408 70.656,192.449 70.477,192.547 70.307,192.66 70.226,192.717 70.071,192.855 69.925,193.01 69.803,193.18 69.705,193.359 69.616,193.554 69.567,193.757 69.519,193.952 69.51,194.066 69.494,194.164 29.6298,194.164 29.6136,194.066 29.6055,193.952 29.5567,193.757 29.508,193.554 29.4186,193.359 29.3211,193.18 29.1992,193.01 29.0529,192.855 28.8985,192.717 28.8173,192.66 28.6466,192.547 28.4679,192.449 28.3704,192.408 28.1672,192.335 27.9722,192.295 27.8991,192.286 27.8178,192.278 23.1537,191.872 23.0074,191.848 22.8612,191.807 22.7312,191.758 22.6012,191.693 22.4793,191.62 22.3655,191.531 22.2599,191.441 22.1624,191.336 22.073,191.23 21.9917,191.108 21.9267,190.986 21.8699,190.856 21.8211,190.718 21.7886,190.572 21.7724,190.426 21.7642,190.271 21.7642,190.19 21.7724,190.109 21.7805,190.028 21.7967,189.946 21.8374,189.792 21.8861,189.646 21.9592,189.507 22.0405,189.369 22.1299,189.248 22.2355,189.134 22.3493,189.028 22.4712,188.939 22.6093,188.857 22.7474,188.792 22.8937,188.736 23.0481,188.695 23.1293,188.679 23.2106,188.671 23.2918,188.662 23.3731,188.662 28.476,188.662 28.5654,188.606 28.6304,188.549 28.7035,188.476 28.8254,188.346 28.8904,188.272 28.9879,188.118 29.0692,187.947 29.1179,187.834 29.1667,187.679 29.2073,187.5 29.2236,187.314 29.2236,183.121 29.2236,183.031 29.2317,182.942 29.2479,182.853 29.2642,182.771 29.2886,182.682 29.3129,182.601 29.3454,182.519 29.3779,182.446 29.5323,182.138 33.8389,174.833 33.9933,174.532 34.1639,174.215 34.3264,173.833 34.424,173.581 34.5702,173.191 34.6759,172.785 34.7815,172.379 34.7977,172.273 34.814,172.176 34.8302,172.07 34.8465,171.972 34.9034,171.566 34.9359,171.144 34.9359,170.802 34.9359,142.501 34.9196,142.216 34.8871,141.94 34.8465,141.672 34.7815,141.404 34.6921,141.136 34.5946,140.884 34.4727,140.632 34.3264,140.396 34.1721,140.153 34.0095,139.949 33.8227,139.738 33.6276,139.551 33.4164,139.381 24.3807,139.397 24.2994,139.397 24.2182,139.389 24.1369,139.381 24.0557,139.364 23.9013,139.324 23.755,139.275 23.6169,139.202 23.4787,139.12 23.3569,139.031 23.2431,138.926 23.1375,138.812 23.0481,138.69 22.9668,138.552 22.9018,138.414 22.8449,138.267 22.8043,138.113 22.7881,138.032 22.7799,137.95 22.7718,137.869 22.7718,137.788 22.7799,137.634 22.7962,137.487 22.8287,137.349 22.8774,137.211 22.9343,137.073 23.0074,136.951 23.0806,136.829 23.17,136.724 23.2675,136.618 23.3731,136.528 23.4869,136.439 23.6087,136.366 23.7388,136.301 23.8769,136.252 24.015,136.212 24.1613,136.187 26.2658,135.895 26.404,135.878 26.7127,135.838 27.1759,135.765 27.7203,135.691 28.021,135.651 28.3135,135.61 28.606,135.57 29.3211,135.472 29.6136,135.432 29.9224,135.358 30.1174,135.302 30.3205,135.228 30.4993,135.147 30.6862,135.05 30.8649,134.936 31.0356,134.814 31.19,134.684 31.255,134.619 31.4093,134.464 31.5394,134.31 31.6612,134.14 31.7181,134.05 31.8156,133.871 31.905,133.693 31.9456,133.587 32.0431,133.327 32.4251,131.994 32.7745,130.662 33.1076,129.313 33.4164,127.964 34.1883,124.811 34.6271,124.064 49.562,124.064 64.497,124.064 64.936,124.811" fill="none" stroke="black" stroke-width="0.1"/>
        <polygon id="simplify_321" points="31.8075,194.326 32.0025,194.326 31.7588,194.765 31.6531,194.919 31.4419,195.139 31.255,195.293 31.1331,195.399 31.1006,195.439 31.1006,195.464 31.0924,196.715 31.1412,196.853 32.937,196.853 32.9938,196.853 33.0832,196.886 33.1157,196.918 33.1482,196.951 33.2051,197.04 33.2214,197.137 33.2214,197.235 33.1807,197.316 33.1076,197.389 33.0263,197.43 32.937,197.446 32.937,235.416 33.2376,235.708 48.2538,235.708 49.562,235.708 65.886,235.708 66.187,235.416 66.187,197.446 66.098,197.43 66.016,197.389 65.943,197.316 65.903,197.235 65.903,197.137 65.919,197.04 65.976,196.951 66.008,196.918 66.041,196.886 66.13,196.853 66.187,196.853 67.983,196.853 68.032,196.715 68.032,195.464 68.023,195.439 67.991,195.399 67.869,195.293 67.682,195.139 67.471,194.919 67.365,194.765 67.122,194.326 67.317,194.326 67.463,194.164 66.951,194.164 66.496,194.164 64.375,194.164 62.262,194.164 60.142,194.164 58.029,194.164 55.9081,194.164 53.7955,194.164 51.6747,194.164 49.562,194.164 47.4493,194.164 45.3285,194.164 43.2159,194.164 41.0951,194.164 38.9824,194.164 36.8616,194.164 34.749,194.164 32.6282,194.164 32.1732,194.164 31.6612,194.164" fill="none" stroke="black" stroke-width="0.1"/>
        <line id="simplify_323" x1="28.476" y1="188.662" x2="70.648" y2="188.662" stroke="black" stroke-width="0.1"/>
        <line id="simplify_324" x1="58.72" y1="197.446" x2="58.72" y2="235.708" stroke="black" stroke-width="0.1"/>
        <line id="simplify_325" x1="65.691" y1="139.397" x2="33.4164" y2="139.381" stroke="black" stroke-width="0.1"/>
        <line id="simplify_326" x1="29.0204" y1="192.278" x2="70.104" y2="192.278" stroke="black" stroke-width="0.1"/>
        <line id="simplify_328" x1="52.3816" y1="235.708" x2="52.3816" y2="197.446" stroke="black" stroke-width="0.1"/>
        <line id="simplify_329" x1="53.7711" y1="235.708" x2="53.7711" y2="197.446" stroke="black" stroke-width="0.1"/>
        <line id="simplify_330" x1="51.7478" y1="235.708" x2="51.7478" y2="197.446" stroke="black" stroke-width="0.1"/>
        <line id="simplify_331" x1="49.562" y1="196.853" x2="33.2457" y2="196.853" stroke="black" stroke-width="0.1"/>
        <line id="simplify_332" x1="49.562" y1="196.853" x2="65.878" y2="196.853" stroke="black" stroke-width="0.1"/>
        <line id="simplify_333" x1="54.5674" y1="235.416" x2="54.5674" y2="197.446" stroke="black" stroke-width="0.1"/>
        <line id="simplify_334" x1="58.508" y1="235.416" x2="58.508" y2="197.446" stroke="black" stroke-width="0.1"/>
        <line id="simplify_335" x1="64.026" y1="197.446" x2="64.026" y2="235.416" stroke="black" stroke-width="0.1"/>
        <line id="simplify_336" x1="49.562" y1="197.446" x2="66.187" y2="197.446" stroke="black" stroke-width="0.1"/>
        <line id="simplify_337" x1="49.562" y1="197.446" x2="32.937" y2="197.446" stroke="black" stroke-width="0.1"/>
        <line id="simplify_338" x1="65.943" y1="197.446" x2="65.943" y2="235.416" stroke="black" stroke-width="0.1"/>
        <line id="simplify_339" x1="65.943" y1="235.416" x2="64.026" y2="235.416" stroke="black" stroke-width="0.1"/>
        <line id="simplify_344" x1="32.0025" y1="194.326" x2="67.122" y2="194.326" stroke="black" stroke-width="0.1"/>
        <line id="simplify_347" x1="31.0924" y1="195.464" x2="68.032" y2="195.464" stroke="black" stroke-width="0.1"/>
        <line id="simplify_348" x1="31.0924" y1="196.658" x2="68.032" y2="196.658" stroke="black" stroke-width="0.1"/>
        <line id="simplify_351" x1="65.943" y1="235.416" x2="65.667" y2="235.708" stroke="black" stroke-width="0.1"/>
        <line id="simplify_352" x1="63.156" y1="235.708" x2="63.156" y2="197.446" stroke="black" stroke-width="0.1"/>
        <line id="simplify_353" x1="61.8379" y1="235.703" x2="61.889" y2="197.446" stroke="black" stroke-width="0.1"/>
        <line id="simplify_354" x1="61.271" y1="235.708" x2="61.271" y2="197.446" stroke="black" stroke-width="0.1"/>
        <line id="simplify_355" x1="54.2342" y1="235.708" x2="54.2342" y2="197.446" stroke="black" stroke-width="0.1"/>
        <line id="simplify_358" x1="58.508" y1="235.416" x2="54.5674" y2="235.416" stroke="black" stroke-width="0.1"/>
        <line id="simplify_360" x1="54.5674" y1="235.416" x2="54.2342" y2="235.708" stroke="black" stroke-width="0.1"/>
        <line id="simplify_362" x1="40.4044" y1="197.446" x2="40.4044" y2="235.708" stroke="black" stroke-width="0.1"/>
        <line id="simplify_364" x1="75.636" y1="191.872" x2="23.4568" y2="191.872" stroke="black" stroke-width="0.1"/>
        <line id="simplify_365" x1="24.5091" y1="136.187" x2="74.463" y2="136.187" stroke="black" stroke-width="0.1"/>
        <line id="simplify_366" x1="46.7424" y1="235.708" x2="46.7424" y2="197.446" stroke="black" stroke-width="0.1"/>
        <line id="simplify_367" x1="45.3529" y1="235.708" x2="45.3529" y2="197.446" stroke="black" stroke-width="0.1"/>
        <line id="simplify_368" x1="47.3762" y1="235.708" x2="47.3762" y2="197.446" stroke="black" stroke-width="0.1"/>
        <line id="simplify_369" x1="44.5566" y1="235.416" x2="44.5566" y2="197.446" stroke="black" stroke-width="0.1"/>
        <line id="simplify_370" x1="40.6157" y1="235.416" x2="40.6157" y2="197.446" stroke="black" stroke-width="0.1"/>
        <line id="simplify_371" x1="35.0984" y1="197.446" x2="35.0984" y2="235.416" stroke="black" stroke-width="0.1"/>
        <line id="simplify_372" x1="33.1807" y1="197.446" x2="33.1807" y2="235.416" stroke="black" stroke-width="0.1"/>
        <line id="simplify_373" x1="33.1807" y1="235.416" x2="35.0984" y2="235.416" stroke="black" stroke-width="0.1"/>
        <line id="simplify_382" x1="33.1807" y1="235.416" x2="33.457" y2="235.708" stroke="black" stroke-width="0.1"/>
        <line id="simplify_383" x1="35.9678" y1="235.708" x2="35.9678" y2="197.446" stroke="black" stroke-width="0.1"/>
        <line id="simplify_384" x1="37.2354" y1="235.708" x2="37.2354" y2="197.446" stroke="black" stroke-width="0.1"/>
        <line id="simplify_385" x1="37.853" y1="235.708" x2="37.853" y2="197.446" stroke="black" stroke-width="0.1"/>
        <line id="simplify_386" x1="44.8898" y1="235.708" x2="44.8898" y2="197.446" stroke="black" stroke-width="0.1"/>
        <line id="simplify_387" x1="31.0924" y1="182.609" x2="68.032" y2="182.609" stroke="black" stroke-width="0.1"/>
        <line id="simplify_390" x1="40.6157" y1="235.416" x2="44.5566" y2="235.416" stroke="black" stroke-width="0.1"/>
        <line id="simplify_392" x1="44.5566" y1="235.416" x2="44.8898" y2="235.708" stroke="black" stroke-width="0.1"/>
        <line id="simplify_393" x1="63.311" y1="173.744" x2="35.8134" y2="173.744" stroke="black" stroke-width="0.1"/>
        <polygon id="center_00" cx="49.562" cy="173.744" points="61.8852,173.744 61.817692221002304,175.03212515853994 61.61590851336283,176.3061373482854 61.282059661608436,177.55207822508135 60.8198033836213,178.7562969999517 60.234204255916396,179.9056 59.53167822508135,180.9873952210506 58.719922313323025,181.98983028828147 57.80783028828148,182.901922313323 56.8053952210506,183.71367822508137 55.7236,184.4162042559164 54.5742969999517,185.0018033836213 53.37007822508135,185.46405966160845 52.12413734828541,185.79790851336284 50.850125158539946,185.9996922210023 49.562,186.0672 48.27387484146005,185.9996922210023 46.99986265171459,185.79790851336284 45.753921774918645,185.46405966160845 44.5497030000483,185.0018033836213 43.4004,184.4162042559164 42.31860477894939,183.71367822508137 41.316169711718516,182.90192231332304 40.40407768667698,181.9898302882815 39.592321774918645,180.9873952210506 38.88979574408361,179.9056 38.304196616378704,178.7562969999517 37.84194033839156,177.55207822508135 37.50809148663716,176.3061373482854 37.30630777899769,175.03212515853994 37.2388,173.744 37.30630777899769,172.45587484146006 37.50809148663716,171.1818626517146 37.84194033839156,169.93592177491865 38.3041966163787,168.7317030000483 38.8897957440836,167.5824 39.592321774918645,166.5006047789494 40.40407768667697,165.49816971171853 41.316169711718516,164.586077686677 42.31860477894939,163.77432177491866 43.40039999999999,163.0717957440836 44.54970300004829,162.4861966163787 45.753921774918645,162.02394033839155 46.99986265171458,161.69009148663716 48.27387484146004,161.4883077789977 49.562,161.42079999999999 50.85012515853994,161.4883077789977 52.1241373482854,161.69009148663716 53.37007822508135,162.02394033839155 54.57429699995169,162.4861966163787 55.72359999999999,163.0717957440836 56.8053952210506,163.77432177491863 57.80783028828147,164.58607768667696 58.71992231332302,165.4981697117185 59.53167822508135,166.5006047789494 60.23420425591639,167.5824 60.81980338362129,168.7317030000483 61.282059661608436,169.93592177491865 61.61590851336283,171.18186265171457 61.817692221002304,172.45587484146003" fill="none" stroke="black" stroke-width="0.1"/>
        <polygon id="simplify_440" points="29.768,135.432 47.4148,135.432 49.562,135.432 69.3558,135.432 69.3558,122.187 49.562,122.187 47.4148,122.187 29.768,122.187" fill="none" stroke="black" stroke-width="0.1"/>
    </g>
</svg>
