<?xml version="1.0" encoding="UTF-8"?>
<!DOCTYPE svg PUBLIC "-//W3C//DTD SVG 1.1//EN" "http://www.w3.org/Graphics/SVG/1.1/DTD/svg11.dtd">
<!-- Creator: CorelDRAW -->
<svg xmlns="http://www.w3.org/2000/svg" xml:space="preserve" width="297mm" height="210mm" style="shape-rendering:geometricPrecision; text-rendering:geometricPrecision; image-rendering:optimizeQuality; fill-rule:evenodd; clip-rule:evenodd"
viewBox="0 0 297 210">
 <defs>
  <style type="text/css">
   <![CDATA[
    .str0 {stroke:#1F1A17;stroke-width:0.0762}
    .str1 {stroke:#DA251D;stroke-width:0.0762}
    .fil0 {fill:none}
    .fil1 {fill:#969594}
    .fil2 {fill:#AAA9A9}
    .fil3 {fill:#C2C1C1}
   ]]>
  </style>
 </defs>
 <g id="Ebene_x0020_1">
  <metadata id="CorelCorpID_0Corel-Layer"/>
  <polygon class="fil0 str0" points="62.205,82.8948 63.6432,84.1319 64.8135,84.8646 66.0299,85.3949 67.4435,85.7525 68.5898,85.8737 69.705,85.8948 70.8352,85.8729 72.2414,85.7026 73.5589,85.3307 74.7558,84.7783 76.1428,83.8462 77.205,82.8944 77.8183,79.8341 78.2107,78.3202 78.6702,76.9662 79.3319,75.6279 79.8788,74.9074 80.4733,74.3967 81.273,74.022 82.205,73.8944 117.205,73.8948 118.269,74.0274 119.462,74.5507 120.147,75.1234 120.833,75.6961 122.035,77.0163 123.412,78.492 124.521,79.4743 125.939,80.4279 127.376,81.0976 129.19,81.6143 130.777,81.8367 132.958,81.8625 135.419,81.5725 137.082,81.0793 138.651,80.3241 139.687,79.6305 140.921,78.5671 142.874,76.4606 144.512,74.8544 145.814,74.1279 147.205,73.8948 147.205,110.895 147.205,147.896 145.814,147.662 144.512,146.936 142.874,145.33 140.921,143.223 139.687,142.16 138.651,141.466 137.082,140.711 135.419,140.218 132.958,139.928 130.777,139.954 129.19,140.176 127.376,140.693 125.939,141.363 124.521,142.316 123.412,143.298 122.035,144.774 120.833,146.094 120.147,146.667 119.462,147.24 118.269,147.763 117.205,147.896 82.205,147.896 81.273,147.768 80.4733,147.394 79.8788,146.883 79.3319,146.162 78.6702,144.824 78.2107,143.47 77.8183,141.956 77.205,138.896 76.1428,137.944 74.7558,137.012 73.5589,136.46 72.2414,136.088 70.8352,135.917 69.705,135.896 68.5898,135.917 67.4435,136.038 66.0299,136.396 64.8135,136.926 63.6432,137.659 62.205,138.896 62.205,110.895 "/>
  <line class="fil0 str0" x1="62.205" y1="82.8948" x2="62.205" y2= "138.895" />
  <line class="fil0 str0" x1="77.205" y1="82.8948" x2="77.205" y2= "138.895" />
  <line class="fil0 str0" x1="82.205" y1="73.8944" x2="82.205" y2= "147.896" />
  <line class="fil0 str0" x1="117.205" y1="73.8944" x2="117.205" y2= "147.897" />
  <polygon class="fil1 str1" points="271.194,146.999 270.569,147.466 269.697,147.809 268.954,147.895 157.205,147.895 157.205,110.895 157.205,73.8952 268.954,73.8954 269.697,73.9809 270.569,74.3244 271.194,74.7909 271.686,75.3839 272.048,76.1473 272.205,77.1466 272.205,110.895 272.205,144.644 272.048,145.643 271.686,146.406 "/>
  <polygon class="fil1 str1" points="164.703,148.395 147.205,148.395 147.205,110.895 147.205,110.895 147.205,110.895 147.205,73.3951 164.703,73.3951 164.703,110.895 164.703,110.895 164.703,110.895 "/>
  <polygon class="fil2 str1" points="62.205,110.895 62.201,110.893 62.205,110.895 62.205,82.8948 62.0258,82.6683 61.6299,82.3323 61.1971,82.0953 60.6525,81.9344 60.2202,81.8949 43.6418,81.8949 42.8776,81.9906 42.2519,82.319 41.7476,82.7657 41.4109,83.2679 41.2055,83.8341 39.205,92.8948 39.205,110.895 39.2087,110.893 39.205,110.895 39.205,128.895 41.2055,137.956 41.4109,138.522 41.7476,139.025 42.2519,139.471 42.8776,139.8 43.6418,139.895 60.2202,139.895 60.6525,139.856 61.1971,139.695 61.6299,139.458 62.0258,139.122 62.205,138.895 "/>
  <line class="fil0 str1" x1="156.788" y1="156.895" x2="175.622" y2= "156.895" />
  <circle class="fil0 str1" cx="166.205" cy="156.895" r="2.5925"/>
  <line class="fil0 str1" x1="175.622" y1="156.189" x2="166.205" y2= "156.194" />
  <polygon class="fil3 str1" points="166.212,161.348 166.198,161.348 166.099,161.33 165.981,161.282 165.888,161.195 165.846,161.094 165.841,161.045 165.835,160.992 165.815,160.916 165.787,160.838 165.744,160.731 165.688,160.614 165.609,160.469 165.253,159.944 164.616,159.262 163.826,158.644 162.929,158.122 161.963,157.705 160.815,157.351 159.466,157.082 158.146,156.941 156.788,156.895 156.788,156.189 175.622,156.189 175.622,156.895 174.264,156.941 172.944,157.082 171.595,157.351 170.447,157.705 169.481,158.122 168.584,158.644 167.794,159.262 167.157,159.944 166.801,160.469 166.722,160.614 166.666,160.731 166.623,160.838 166.595,160.916 166.575,160.992 166.569,161.045 166.564,161.094 166.522,161.195 166.429,161.282 166.311,161.33 "/>
  <polygon class="fil3 str1" points="170.812,154.895 170.812,156.189 169.827,156.386 169.07,156.503 168.123,156.62 167.209,156.689 166.205,156.71 165.201,156.689 164.287,156.62 163.341,156.503 162.583,156.386 161.599,156.189 161.599,154.895 "/>
  <line class="fil0 str1" x1="220.788" y1="156.895" x2="239.622" y2= "156.895" />
  <circle id="center_00" class="fil0 str1" cx="230.205" cy="156.895" r="2.5925"/>
  <line class="fil0 str1" x1="239.622" y1="156.189" x2="230.205" y2= "156.194" />
  <polygon class="fil3 str1" points="230.212,161.348 230.198,161.348 230.099,161.33 229.981,161.282 229.889,161.195 229.846,161.094 229.841,161.045 229.835,160.992 229.815,160.916 229.787,160.838 229.744,160.731 229.688,160.614 229.609,160.469 229.253,159.944 228.616,159.262 227.827,158.644 226.929,158.122 225.963,157.705 224.815,157.351 223.466,157.082 222.146,156.941 220.788,156.895 220.788,156.189 239.622,156.189 239.622,156.895 238.264,156.941 236.944,157.082 235.595,157.351 234.447,157.705 233.481,158.122 232.584,158.644 231.794,159.262 231.157,159.944 230.801,160.469 230.722,160.614 230.666,160.731 230.623,160.838 230.595,160.916 230.575,160.992 230.569,161.045 230.564,161.094 230.522,161.195 230.429,161.282 230.311,161.33 "/>
  <polygon class="fil3 str1" points="234.812,154.895 234.812,156.189 233.827,156.386 233.07,156.503 232.123,156.62 231.209,156.689 230.205,156.71 229.201,156.689 228.287,156.62 227.341,156.503 226.583,156.386 225.599,156.189 225.599,154.895 "/>
  <rect class="fil2 str1" x="54.2858" y="81.8949" width="5.9344" height="58.0006"/>
  <line class="fil0 str1" x1="82.205" y1="73.8948" x2="82.205" y2= "147.895" />
  <rect class="fil2 str1" x="157.205" y="152.895" width="18" height="2.0001"/>
  <rect class="fil2 str1" x="221.205" y="152.895" width="18" height="2.0001"/>
  <polygon class="fil2 str1" points="187.166,71.296 184.857,95.275 184.768,96.8318 184.776,97.0502 184.812,97.2732 184.908,97.5422 185.095,97.8332 185.294,98.0302 185.554,98.1972 185.839,98.3022 186.115,98.3422 186.991,98.3322 272.686,90.1769 273.525,90.162 274.598,90.3301 275.427,90.621 275.977,90.9078 276.579,91.3321 277.154,91.8931 277.397,92.1997 277.689,92.6853 277.702,92.6846 277.741,92.7702 277.782,92.8384 277.777,92.851 277.967,93.2773 278.144,93.9487 278.205,94.6529 278.205,96.8575 278.205,149.895 278.154,149.895 278.171,150.35 277.957,151.091 277.638,151.65 277.006,152.295 276.448,152.626 275.61,152.868 275.205,152.895 142.821,152.895 142.168,152.868 141.635,152.808 140.963,152.63 140.429,152.378 129.636,147.582 129.044,147.233 128.492,146.69 128.063,145.943 127.854,144.84 127.951,144.081 128.197,143.447 128.689,142.764 129.592,142.118 130.462,141.866 131.302,141.874 132.072,142.099 142.865,146.895 142.866,146.895 271.281,146.895 271.623,146.795 271.852,146.649 272.016,146.472 272.093,146.346 272.148,146.22 272.205,145.843 272.205,99.4402 272.205,97.8812 272.14,97.4802 271.961,97.1002 271.746,96.8399 271.452,96.6189 271.016,96.452 270.609,96.4083 185.431,104.507 183.986,104.645 183.874,104.612 183.884,104.651 182.93,104.642 182.226,104.517 181.428,104.241 180.626,103.793 179.888,103.173 179.383,102.572 178.963,101.869 178.696,101.21 178.476,100.143 178.453,99.1792 178.563,98.0382 181.214,70.5025 181.621,69.3427 182.258,68.599 183.023,68.1304 184.189,67.8955 185.499,68.1959 186.43,68.9012 187.024,69.9123 "/>
  <polygon class="fil2 str1" points="22.8005,101.699 23.214,101.477 23.705,101.395 24.2565,101.5 24.6483,101.729 24.9051,101.995 25.1244,102.408 25.205,102.895 25.205,110.895 25.205,118.895 25.1244,119.382 24.9051,119.795 24.6483,120.061 24.2565,120.29 23.705,120.395 23.214,120.313 22.8005,120.092 22.5012,119.79 22.3014,119.425 22.205,118.895 22.205,110.895 22.205,102.895 22.3014,102.365 22.5012,102 "/>
  <polygon class="fil2 str1" points="37.205,92.8948 39.205,92.8948 39.205,110.895 39.204,110.893 39.205,110.895 39.205,128.895 37.205,128.895 35.505,119.395 35.505,110.895 35.505,102.395 "/>
  <polygon class="fil2 str1" points="25.205,119.395 35.505,119.395 35.505,110.895 35.505,102.395 25.205,102.395 25.205,110.895 "/>
  <rect class="fil2 str1" x="53.3274" y="81.8949" width="0.9585" height="58.0006"/>
 </g>
</svg>
