<!DOCTYPE svg PUBLIC "-//W3C//DTD SVG 1.1//EN" "http://www.w3.org/Graphics/SVG/1.1/DTD/svg11.dtd">
<svg xmlns="http://www.w3.org/2000/svg" width="297mm" height="210mm" viewBox="0 0 297 210">
    <defs id="_tag_92_"/>
    <g id="_tag_93_">
        <g id="_tag_94_">
            <polygon id="polygon3025" points="74.2618,99.758 77.4508,100.302 80.5748,97.346 77.4508,100.302 78.4634,101.359 81.3499,103.801 86.7395,107.906 92.6952,110.077 100.097,111.133 108.045,110.468 167.88,105.106 176.709,103.871 181.656,102.473 186.965,100.19 215.903,87.423 220.94,85.765 234.952,84.691 233.822,81.783 234.952,84.691 237.14,86.146 251.322,86.496 267.735,80.312 239.815,75.606 230.685,74.616 232.678,78.487 232.934,79.296 220.259,80.054 216.329,80.879 212.493,82.205 184.161,94.557 178.912,96.589 172.727,98.174 100.677,104.34 94.3322,103.628 89.4626,101.101 85.2742,97.974 82.7218,95.473 84.2187,91.445 50.1255,83.712" fill="none" stroke="black" stroke-width="0.1"/>
            <polygon id="polygon3027" points="112.295,63.493 146.297,63.794 204.435,62.784 231.158,62.808 252.384,63.035 271.269,65.28 283.733,70.294 288.788,74.998 290.105,78.868 288.523,83.45 286.087,85.704 281.162,85.669 251.492,80.288 231.961,79.798 206.154,80.899 176.849,81.999 151.183,84.159 125.993,88.519 103.617,95.408 88.6766,95.664 73.4772,92.543 52.3514,87.058 33.4736,82.585 20.5573,80.101 12.0449,79.285 9.8658,77.508 9.8658,73.556 10.7648,69.572 17.5202,65.277 28.5486,63.087 40.7289,61.593 58.9447,61.17 75.8482,61.68" fill="none" stroke="black" stroke-width="0.1"/>
        </g>
        <g id="_tag_95_">
            <polygon id="path159" points="142.207,121.728 141.446,121.026 140.65,120.362 139.821,119.733 138.96,119.142 138.712,118.831 138.637,118.463 138.721,118.07 139.034,117.792 141.813,116.335 144.716,115.243 147.708,114.517 150.756,114.156 153.826,114.162 156.885,114.532 159.899,115.266 162.834,116.364 163.146,116.625 163.292,116.979 163.247,117.397 163.048,117.725 162.267,118.414 161.519,119.134 160.806,119.887 160.131,120.673 159.495,121.492 158.902,122.345 158.354,123.232 157.852,124.151 144.884,124.924 144.27,124.066 143.62,123.248 142.932,122.469" fill="none" stroke="black" stroke-width="0.1"/>
            <polygon id="path1045" points="148.977,96.32 149.786,96.2104 150.418,96.1065 150.893,95.9314 150.744,95.5511 150.214,95.4078 149.845,95.3385 149.427,95.2673 148.996,95.2046 148.589,95.1596 147.99,95.1615 147.459,95.3038 146.777,95.568 146.143,95.8527 145.755,96.0569 145.451,96.3153 146.428,96.5701 147.202,96.5111 148.085,96.424" fill="none" stroke="black" stroke-width="0.1"/>
            <polygon id="path1073" points="131.053,107.713 130.211,107.865 129.769,107.988 130.272,115.801 130.471,116.147 130.854,116.256 136.535,115.753 137.548,115.116 138.357,114.627 139.184,114.165 140.025,113.728 140.882,113.321 141.753,112.94 142.635,112.588 143.525,112.266 143.468,111.615 143.408,110.93 143.335,110.118 143.257,109.263 143.181,108.452 143.113,107.769 143.062,107.298 142.821,106.802 142.324,106.592 141.661,106.574 140.925,106.65 137.23,107.002 134.437,107.29 132.42,107.525" fill="none" stroke="black" stroke-width="0.1"/>
            <polygon id="path1085" points="169.068,104.738 168.876,104.391 157.508,105.292 157.052,105.286 156.661,105.331 156.069,105.563 155.735,105.98 155.654,106.571 155.703,107.018 155.766,107.668 155.838,108.441 155.911,109.255 155.979,110.03 156.036,110.683 156.076,111.135 157.032,111.455 157.962,111.639 158.878,111.855 159.783,112.101 160.675,112.379 161.555,112.687 162.425,113.024 163.283,113.39 169.301,112.894 169.65,112.719 169.761,112.359" fill="none" stroke="black" stroke-width="0.1"/>
            <polygon id="path1033" points="136.409,98.6839 142.5,96.8389 142.893,96.69 143.235,96.4849 143.514,96.2161 143.722,95.8752 143.896,95.4509 144.001,95.0884 144.285,94.8196 151.739,94.1284 152.121,94.2268 152.343,94.5696 152.528,94.9058 152.756,95.228 153.066,95.479 153.42,95.6607 153.804,95.7778 160.117,96.5017 167.53,96.4568 167.945,96.6506 168.267,99.9848 168.147,100.383 167.772,100.821 166.999,101.115 166.292,101.199 165.248,101.316 163.985,101.447 162.622,101.573 161.281,101.677 160.083,101.74 159.148,101.742 158.595,101.665 158.058,101.332 157.62,100.929 157.108,100.507 156.77,100.307 156.349,100.122 155.895,99.9942 155.372,99.9371 154.789,99.9427 154.158,100.006 153.487,100.119 152.788,100.274 152.07,100.465 151.345,100.685 150.7,100.884 150.199,101.024 149.808,101.117 149.253,101.205 148.802,101.241 148.192,101.3 147.747,101.347 147.191,101.357 146.795,101.334 146.281,101.281 145.617,101.194 144.856,101.103 144.111,101.039 143.393,101.006 142.712,101.012 142.076,101.062 141.495,101.16 140.979,101.315 140.538,101.528 140.169,101.792 139.881,102.053 139.461,102.551 139.097,103.018 138.618,103.439 138.081,103.615 137.155,103.784 135.959,103.939 134.617,104.078 133.249,104.194 131.978,104.285 130.926,104.345 130.213,104.37 129.755,104.348 129.144,104.081 128.849,103.695 128.715,102.879 128.689,102.395 128.672,101.923 128.658,101.487 128.651,101.107 128.644,100.613 129.102,99.9567 128.644,100.543 128.749,100.178" fill="none" stroke="black" stroke-width="0.1"/>
        </g>
        <polygon id="center_00" cx="140.105" cy="63.7392" points="160.105,63.7392 159.99543790736544,65.82976926535306 159.6679520146761,67.89743381635519 159.12613032590306,69.91953988749894 158.37590915285202,71.873932861516 157.42550807568875,73.7392 156.28533988749894,75.49490504584946 154.96789650954787,77.12181212717717 153.48761212717716,78.60209650954788 151.86070504584944,79.91953988749894 150.105,81.05970807568877 148.239732861516,82.01010915285201 146.28533988749894,82.76033032590307 144.26323381635518,83.30215201467611 142.19556926535307,83.62963790736546 140.105,83.7392 138.01443073464694,83.62963790736546 135.9467661836448,83.30215201467611 133.92466011250104,82.76033032590307 131.970267138484,82.01010915285201 130.105,81.05970807568877 128.34929495415054,79.91953988749894 126.72238787282284,78.60209650954789 125.24210349045211,77.12181212717717 123.92466011250104,75.49490504584946 122.78449192431123,73.73920000000001 121.83409084714798,71.87393286151601 121.08386967409692,69.91953988749894 120.54204798532388,67.89743381635519 120.21456209263452,65.82976926535306 120.10499999999999,63.7392 120.21456209263452,61.648630734646936 120.54204798532388,59.58096618364482 121.08386967409692,57.55886011250105 121.83409084714796,55.604467138484 122.78449192431121,53.739200000000004 123.92466011250104,51.98349495415054 125.2421034904521,50.35658787282284 126.72238787282282,48.876303490452116 128.34929495415054,47.55886011250105 130.105,46.41869192431123 131.97026713848396,45.46829084714798 133.92466011250104,44.718069674096924 135.9467661836448,44.17624798532388 138.0144307346469,43.84876209263453 140.105,43.7392 142.19556926535304,43.84876209263453 144.26323381635515,44.17624798532388 146.28533988749894,44.718069674096924 148.239732861516,45.468290847147976 150.10499999999996,46.41869192431122 151.86070504584944,47.558860112501044 153.48761212717716,48.8763034904521 154.96789650954787,50.35658787282282 156.28533988749894,51.98349495415053 157.42550807568875,53.73919999999999 158.375909152852,55.604467138483976 159.12613032590306,57.558860112501044 159.6679520146761,59.5809661836448 159.99543790736544,61.64863073464691" fill="none" stroke="black" stroke-width="0.1"/>
    </g>
</svg>
