<!DOCTYPE svg PUBLIC "-//W3C//DTD SVG 1.1//EN" "http://www.w3.org/Graphics/SVG/1.1/DTD/svg11.dtd">
<svg xmlns="http://www.w3.org/2000/svg" width="297mm" height="210mm" viewBox="0 0 297 210">
    <defs id="_tag_263_"/>
    <g id="_tag_264_">
        <g id="_tag_265_">
            <polygon id="path4426_1" style="fill:#c3b15f;fill-opacity:1;fill-rule:evenodd;stroke:none;display:inline" points="118.6669,8.28125 118.72367544921877,17.017230488281257 118.46387296875002,25.719094531249993 117.67159931640623,34.37632724609375 116.13096125000004,42.978413750000016 113.62606552734377,51.51483916015627 109.94101890624995,59.97508859375 104.85992814453124,68.34864716796875 98.1669,76.625 97.4169,77.46875 98.5419,77.46875 106.7919,77.59375 101.95461126953126,88.0475365625 97.37780515625002,98.49445500000002 92.88288427734375,108.93505468749998 88.29125124999996,119.36988500000001 83.42430869140622,129.79949531250003 78.10345921875,140.22443499999997 72.15010544921876,150.64525343749995 65.38565,161.0625 64.69815,162.0625 65.88565,161.84375 76.07315,159.90625 73.13461292968748,166.47891437500004 69.76358718749998,172.44958562500005 66.00793847656252,177.7963796875 61.91553250000004,182.49741249999988 57.53423496093751,186.5308 52.91191156250005,189.874658125 48.096428007812506,192.50710281249997 43.13565,194.40625 43.13565,194.40625 43.06858263671876,175.34006714843758 45.36918734375001,156.77179218749995 49.64724931640626,138.6321267578125 55.512553749999995,120.85177249999998 62.57488583984377,103.3614310546875 70.44403078124998,86.09180406249999 78.72977376953122,68.97359316406249 87.0419,51.9375 87.0419,51.9375 87.04953203125001,51.92186679687501 87.05731874999998,51.90624062500001 87.06520859375001,51.890619140625006 87.07315,51.875 87.08109140624998,51.859380859374994 87.08898125000002,51.84375937499999 87.09676796874999,51.82813320312499 87.1044,51.8125 86.2919,51.25 73.77504708984372,66.97345894531247 62.98855796875,83.92818843750001 53.81965830078127,101.80591621093748 46.15557375000003,120.29836999999998 39.88352998046878,139.09727753906247 34.890752656250015,157.89436656249995 31.064467441406237,176.38136480468745 28.2919,194.25 28.2919,194.25 24.1068385546875,191.57623455078124 20.584294062499964,188.68213890624997 17.628708789062443,185.55538037109375 15.144524999999987,182.1836262500001 13.036184960937476,178.5545438476563 11.208130937500016,174.65580046875004 9.564805195312488,170.47506341796873 8.010649999999998,166.0 16.4794,169.5625 17.3544,169.9375 17.1669,169.0 15.490716601562497,158.61783550781252 15.158730312499983,148.8226390625 15.974904492187477,139.44415996093744 17.743202500000052,130.31214750000004 20.2675876953125,121.25635097656249 23.35202343750001,112.10651968750005 26.800473085937483,102.69240292968749 30.4169,92.84375 37.38565,97.5 38.19815,98.0625 38.166949999999986,97.09375 38.659512753906256,88.8703463085937 40.46475890624998,80.66771609375002 43.45977529296874,72.51464189453122 47.52164875,64.43990624999998 52.52746611328121,56.47229169921877 58.354314218750005,48.64058078124992 64.8792799023438,40.97355603515621 71.97944999999999,33.5 74.69819999999999,40.78125 75.07319999999999,41.75 75.60444999999999,40.84375 81.57319999999999,30.90625 81.6044,30.84375 85.33663447265627,26.166005546875 89.18987078124997,22.23717312499997 93.23226201171877,18.948144140625004 97.53196125,16.189809999999966 102.15712158203127,13.853062109375003 107.17589609375,11.828791874999979 112.65643787109377,10.007890703124986 118.6669,8.28125" fill="none" stroke="black" stroke-width="0.1"/>
            <polygon id="path7600_1" style="fill:#eff1cb;fill-opacity:1;fill-rule:evenodd;stroke:#eff1cb;stroke-width:1px;stroke-linecap:butt;stroke-linejoin:miter;stroke-opacity:1;display:inline" points="118.71678,8.2683058 112.71984428124999,9.993866479296875 107.239470125,11.817583134374999 102.21136078125,13.847002041015624 97.5712195,16.189669475000002 93.25474953124998,18.953131712109375 89.197654125,22.244935028125 85.33563653125,26.172625698828128 81.6044,30.84375 81.57315,30.90625 75.6044,40.84375 75.07315,41.75 74.69815,40.78125 71.9794,33.5 64.87922990234375,40.97355603515625 58.35426421875,48.640580781249994 52.52741611328125,56.47229169921875 47.521598749999995,64.43990624999999 43.45972529296875,72.51464189453125 40.46470890625,80.66771609375 38.65946275390625,88.87034630859375 38.1669,97.09375 38.19815,98.0625 37.38565,97.5 30.4169,92.84375 26.8004730859375,102.6924029296875 23.352023437499998,112.1065196875 20.2675876953125,121.2563509765625 17.743202499999995,130.31214749999998 15.974904492187498,139.4441599609375 15.158730312499998,148.8226390625 15.4907166015625,158.61783550781252 17.1669,169.0 17.3544,169.9375 16.4794,169.5625 8.104399999999998,166.03125 8.11501748046875,166.09501410156247 8.126469218749998,166.1578765625 8.13849541015625,166.2201076171875 8.150836249999998,166.28197749999998 8.16323193359375,166.3437564453125 8.175422656249998,166.4057146875 8.187148613281247,166.46812246093748 8.198149999999998,166.53125 8.198149999999998,166.53125 9.734030208984372,170.9075175390625 11.365816984374998,175.0006003125 13.184962548828121,178.8218873046875 15.282919125,182.3827675 17.751138935546873,185.69462988281248 20.681074203124997,188.76886343750002 24.16417715039062,191.6168571484375 28.2919,194.25 28.2919,194.25 28.471320220703127,192.89436880859373 28.656000953124998,191.53210796875 28.846140302734376,190.16376533203123 29.041936374999995,188.78988875 29.243587275390624,187.41102607421874 29.451291109375,186.02772515625 29.665245982421872,184.64053384765626 29.88565,183.25 29.88565,183.25 25.6250734375,170.849791640625 23.519485000000003,159.22130187500002 23.1686828125,148.288076171875 24.172465,137.97366 26.130629687499997,128.201598828125 28.642975,118.89543812499997 31.309299062500003,109.978723359375 33.7294,101.375 42.6044,106.5 42.76497052539062,98.49783369335938 44.088649828125,90.393647921875 46.459226123046875,82.24099403320312 49.760487624999996,74.09342337499999 53.876222548828125,66.00448729492187 58.690219109375,58.02773714062501 64.08626552148438,50.21672425976562 69.94815,42.625 74.63565,50.875 79.051667296875,42.28015559335938 83.4149415,34.920765371875 87.908147578125,28.64610333320313 92.7139605,23.305443475 98.015055234375,18.748059794921875 103.99410675000001,14.823226290625001 110.833790015625,11.380216959765626 118.71678,8.2683058" fill="none" stroke="black" stroke-width="0.1"/>
            <ellipse id="center_00" rx="4" ry="5" cx="45" cy="130" style="fill:#eff1cb;fill-opacity:1;fill-rule:evenodd;stroke:#eff1cb;stroke-width:1px;stroke-linecap:butt;stroke-linejoin:miter;stroke-opacity:1;display:inline"/>
            <g id="path2177_1">
                <polygon id="path2177___0" style="fill:#000000;fill-opacity:1;fill-rule:evenodd;stroke:none;display:inline" points="124.1044,0.0 123.57315,0.09375 116.58704033203125,1.5088446484375002 109.27399765625,3.4396559375000004 102.28099521484374,5.8670173828125005 95.72375625,8.865512500000001 89.71800400390626,12.509724804687501 84.37946171875,16.8742378125 79.82385263671874,22.0336350390625 76.1669,28.0625 72.6044,21.84375 72.2919,21.28125 71.82315,21.75 68.16129974609375,25.35107396484375 64.47289984375,29.17433671875 60.798252832031245,33.185214550781254 57.17766125,37.34913375 53.65142763671875,41.631520605468744 50.25985453125,45.99780140625 47.04324447265625,50.413402441406255 44.0419,54.84375 44.0419,54.84375 41.457673593749995,58.98295123046874 39.134763125,63.07296171875 37.106886718750005,67.08668291015624 35.407762500000004,70.99701625 34.07110859375,74.77686318359375 33.130643125,78.39912515625 32.620084218749994,81.83670361328124 32.57315,85.0625 27.5419,78.78125 27.0419,78.15625 26.69815,78.875 24.403993320312498,83.9700869140625 22.134323437499997,89.29932593749999 19.9189193359375,94.81129824218749 17.78756,100.454585 15.770024414062497,106.1777673828125 13.896091562499997,111.9294265625 12.195540429687497,117.6581437109375 10.698149999999998,123.3125 10.698149999999998,123.3125 9.494003496093747,128.5556551953125 8.527254843749999,133.6385740625 7.824440332031248,138.5201427734375 7.412096249999998,143.1592475 7.316758886718748,147.5147744140625 7.5649645312499985,151.5456096875 8.183249472656248,155.2106394921875 9.198149999999998,158.46875 0.9168999999999983,153.65625 0.22939999999999827,153.25 0.16689999999999827,154.0625 0.08618814453124823,162.36375609375 0.9373739062499982,169.64813687499998 2.606440527343749,176.05570859374998 4.979371249999998,181.7265375 7.9421493164062476,186.80068984375 11.380757968749998,191.418231875 15.18118044921875,195.71922984374999 19.2294,199.84375 10.041899999999998,202.125 8.198149999999998,202.59375 10.041899999999998,203.09375 12.004567460937498,203.63992355468747 13.926890312499996,204.2134071875 15.7941955078125,204.82464160156252 17.591809999999995,205.48406749999998 19.305060742187496,206.2021255859375 20.9192746875,206.9892565625 22.419778789062498,207.8559011328125 23.7919,208.8125 23.7919,208.8125 25.02345619140625,209.86702005859374 26.10334703125,211.02978796875 27.018522167968747,212.31478408203125 27.755931249999996,213.73598875 28.302523925781248,215.30738232421876 28.64524984375,217.04294515625 28.771058652343747,218.95665759765626 28.6669,221.0625 28.6669,221.0937 28.6669,246.5937 28.6669,246.74995 28.76065,246.87495 40.26065,263.37495 41.1669,264.6875 41.1669,263.09375 41.1669,224.21875 41.7509830859375,221.8593916015625 42.3659078125,219.6851859375 43.0177236328125,217.6900498046875 43.71248,215.8679 44.4562263671875,214.21265332031248 45.2550121875,212.7182265625 46.114886914062495,211.3785365234375 47.0419,210.1875 47.0419,210.1875 48.042047499999995,209.13582535156252 49.122503125,208.2143846875 50.291082812499994,207.4173404296875 51.5556025,206.738855 52.923878125,206.1730908203125 54.403725625,205.7142103125 56.0029609375,205.35637589843748 57.7294,205.09375 59.44815,204.875 57.88565,204.15625 51.82315,201.28125 57.298558847656246,197.45197738281252 62.77643015625,192.5989503125 68.09665732421874,186.8826474609375 73.09913375,180.4635475 77.62375283203126,173.5021291015625 81.51040796874999,166.15887093749998 84.59899255859375,158.59425167968752 86.7294,150.96875 86.9169,150.15625 86.13565,150.375 78.63565,152.40625 81.1358220703125,149.78037830078125 83.6360759375,146.62692765625 86.13188183593749,142.99385224609375 88.61871,138.92910625 91.09203066406249,134.48064384765624 93.54731406249999,129.69641921875 95.9800304296875,124.62438654296874 98.38565,119.3125 98.38565,119.3125 100.89868216796874,113.48414466796875 103.36161609375,107.53003484375 105.76638916015624,101.51475478515624 108.10493875,95.50288875 110.36920224609375,89.55902099609375 112.55111703125,83.74773578125 114.64262048828125,78.13361736328126 116.63565,72.78125 116.9169,72.03125 116.13565,72.09375 110.3544,72.5 112.88798658203125,69.43197515624999 115.13736828125,65.95036375000001 117.11596552734375,62.104824218750004 118.83719875,57.945015000000005 120.31448837890625,53.520594531250005 121.56125484374999,48.88122125 122.59091857421873,44.076553593750006 123.4169,39.15625 123.4169,39.15625 124.07610125,33.96752423828125 124.54618812499999,28.76755328125 124.84093906249998,23.613474121093752 124.9741325,18.56242375 124.959546875,13.67153916015625 124.810960625,8.99795734375 124.5421521875,4.59881529296875 124.1669,0.53125 124.1044,0.0" fill="none" stroke="black" stroke-width="0.1"/>
                <polygon id="path2177___1" style="fill:#000000;fill-opacity:1;fill-rule:evenodd;stroke:none;display:inline" points="118.6669,8.28125 118.72367544921876,17.01723048828125 118.46387296875,25.71909453125 117.67159931640624,34.37632724609375 116.13096125,42.97841375 113.62606552734374,51.51483916015626 109.94101890625001,59.97508859375 104.85992814453125,68.34864716796875 98.1669,76.625 97.4169,77.46875 98.5419,77.46875 106.7919,77.59375 101.95461126953126,88.0475365625 97.37780515624999,98.494455 92.88288427734375,108.9350546875 88.29125124999999,119.36988500000001 83.42430869140624,129.79949531250003 78.10345921875,140.22443500000003 72.15010544921874,150.6452534375 65.38565,161.0625 64.69815,162.0625 65.88565,161.84375 76.07315,159.90625 73.13461292968749,166.47891437500002 69.76358718750001,172.44958562500003 66.00793847656249,177.7963796875 61.9155325,182.4974125 57.534234960937496,186.5308 52.9119115625,189.87465812500002 48.0964280078125,192.5071028125 43.13565,194.40625 43.068582636718745,175.3400671484375 45.36918734375,156.77179218749998 49.64724931640625,138.6321267578125 55.512553749999995,120.8517725 62.574885839843745,103.36143105468749 70.44403078125,86.09180406249999 78.72977376953125,68.97359316406249 87.0419,51.9375 87.04953244140624,51.921856953125 87.05732015625,51.906229374999995 87.06521123046875,51.890612109375 87.07315375,51.875 87.08109580078124,51.859387890625 87.08898546875,51.843770625000005 87.09677083984374,51.828143046875 87.1044,51.8125 86.2919,51.25 73.77504708984375,66.9734589453125 62.98855796875,83.92818843749998 53.819658300781256,101.80591621093748 46.155573749999995,120.29836999999999 39.883529980468744,139.0972775390625 34.89075265625,157.89436656249998 31.064467441406244,176.38136480468748 28.2919,194.25 28.2919,194.25 24.1068385546875,191.57623455078124 20.5842940625,188.68213890625 17.628708789062497,185.55538037109375 15.144524999999998,182.18362625000003 13.036184960937497,178.55454384765625 11.208130937499998,174.65580046875002 9.564805195312497,170.47506341796876 8.010649999999998,166.0 16.4794,169.5625 17.3544,169.9375 17.1669,169.0 15.490716601562497,158.61783550781252 15.158730312499998,148.8226390625 15.974904492187498,139.4441599609375 17.743202499999995,130.31214749999998 20.267587695312496,121.2563509765625 23.352023437499998,112.1065196875 26.800473085937497,102.6924029296875 30.4169,92.84375 37.38565,97.5 38.19815,98.0625 38.1669,97.09375 38.65946275390625,88.87034630859375 40.46470890625,80.66771609375 43.45972529296875,72.51464189453125 47.521598749999995,64.43990624999999 52.52741611328125,56.47229169921876 58.35426421875,48.640580781249994 64.87922990234374,40.97355603515625 71.9794,33.5 74.69815,40.78125 75.07315,41.75 75.6044,40.84375 81.57315,30.90625 81.6044,30.84375 85.33663447265624,26.166005546875 89.18987078125,22.237173125 93.23226201171875,18.948144140624997 97.53196125,16.18981 102.15712158203125,13.853062109375 107.17589609375,11.828791875 112.65643787109374,10.007890703125 118.6669,8.28125" fill="none" stroke="black" stroke-width="0.1"/>
            </g>
        </g>
    </g>
</svg>
