<!DOCTYPE svg PUBLIC "-//W3C//DTD SVG 1.1//EN" "http://www.w3.org/Graphics/SVG/1.1/DTD/svg11.dtd">
<svg xmlns="http://www.w3.org/2000/svg" width="297mm" height="210mm" viewBox="0 0 297 210">
    <defs id="_tag_667_"/>
    <g id="Ebene_x0020_1">
        <polygon points="100.072,14.5947 101.182,13.7346 103.118,13.4726 104.834,14.452 106.051,16.045 106.548,17.9665 107.85,20.5697 108.753,24.7721 104.948,25.309 104.111,22.6856 103.19,22.0698 101.991,22.7975" fill="none" stroke="black" stroke-width="0.1" id="_tag_669_"/>
        <g id="_131902128">
            <rect x="108.406" y="21.2585" width="2.74668" height="1.5576" fill="none" stroke="black" stroke-width="0.1" id="_131887200"/>
            <polygon points="111.489,21.9951 111.5099115234375,21.991556054687504 111.52911093750001,21.9841484375 111.54620800781251,21.9733259765625 111.5608125,21.959537500000003 111.5725341796875,21.943231835937503 111.5809828125,21.9248578125 111.5857681640625,21.904864257812502 111.5865,21.8837 111.5865,21.8837 111.5829560546875,21.8627884765625 111.5755484375,21.8435890625 111.5647259765625,21.8264919921875 111.5509375,21.8118875 111.53463183593749,21.8001658203125 111.5162578125,21.7917171875 111.4962642578125,21.7869318359375 111.4751,21.7862 111.4751,21.7862 111.2026078125,21.806077343749998 110.93794375000002,21.82746875 110.68120156250001,21.850388281249998 110.43247500000001,21.874850000000002 110.1918578125,21.900867968750003 109.95944374999999,21.92845625 109.73532656249999,21.95762890625 109.5196,21.988400000000002 109.5196,21.988400000000002 109.31124160156249,22.020971484375 109.1113265625,22.055246875 108.9199451171875,22.091242578125 108.7371875,22.128975 108.56314394531249,22.168460546875004 108.3979046875,22.209715625000005 108.24155996093751,22.252756640625 108.0942,22.297600000000003 108.0942,22.297600000000003 108.0748111328125,22.3060763671875 108.0580015625,22.317879687500003 108.0440443359375,22.332483789062504 108.03321249999999,22.349362500000005 108.0257791015625,22.367989648437504 108.0220171875,22.387839062500003 108.0221998046875,22.4083845703125 108.0266,22.429100000000002 108.0266,22.429100000000002 108.0350763671875,22.448488867187503 108.0468796875,22.465298437500003 108.0614837890625,22.479255664062503 108.0783625,22.4900875 108.0969896484375,22.4975208984375 108.1168390625,22.5012828125 108.1373845703125,22.5011001953125 108.1581,22.4967 108.1581,22.4967 108.3008375,22.453262890625002 108.4526875,22.411515625 108.61355625,22.371441796875004 108.78335,22.333025 108.96197500000001,22.296248828125 109.1493375,22.261096875 109.34534375,22.227552734374996 109.54990000000001,22.1956 109.54990000000001,22.1956 109.7638923828125,22.1650537109375 109.98618281250002,22.136104687499998 110.21667871093752,22.1087376953125 110.45528750000001,22.0829375 110.70191660156252,22.0586888671875 110.95647343750001,22.0359765625 111.2188654296875,22.014785351562498 111.489,21.995099999999997" fill="none" stroke="black" stroke-width="0.1" id="_131560832"/>
            <polygon points="111.489,21.445 111.5099115234375,21.441488867187502 111.52911093750001,21.4341046875 111.54620800781251,21.423296289062502 111.5608125,21.4095125 111.5725341796875,21.3932021484375 111.5809828125,21.3748140625 111.5857681640625,21.3547970703125 111.5865,21.3336 111.5865,21.3336 111.5829560546875,21.312721484375 111.5755484375,21.293546875 111.5647259765625,21.276467578125 111.5509375,21.261875 111.53463183593749,21.250160546874998 111.5162578125,21.241715625 111.4962642578125,21.236931640625002 111.4751,21.2362 111.4751,21.2362 111.2026078125,21.256073242187497 110.93794375000002,21.2774546875 110.68120156250001,21.3003619140625 110.43247500000001,21.3248125 110.1918578125,21.3508240234375 109.95944374999999,21.3784140625 109.73532656249999,21.4076001953125 109.5196,21.4384 109.5196,21.4384 109.31124160156249,21.470971484375 109.1113265625,21.505246875 108.9199451171875,21.541242578125 108.7371875,21.578975 108.56314394531249,21.618460546875 108.3979046875,21.659715625 108.24155996093751,21.702756640625005 108.0942,21.747600000000002 108.0942,21.747600000000002 108.0748111328125,21.756047460937502 108.0580015625,21.767835937500003 108.0440443359375,21.782434570312503 108.03321249999999,21.799312500000003 108.0257791015625,21.8179388671875 108.0220171875,21.837782812500002 108.0221998046875,21.8583134765625 108.0266,21.879 108.0266,21.879 108.0350763671875,21.898417578125002 108.0468796875,21.915240625 108.0614837890625,21.929199609375 108.0783625,21.940025 108.0969896484375,21.947447265625 108.1168390625,21.951196875 108.1373845703125,21.951004296875 108.1581,21.9466 108.1581,21.9466 108.3008375,21.903195898437502 108.4526875,21.8614734375 108.61355625,21.821417382812502 108.78335,21.783012499999998 108.96197500000001,21.7462435546875 109.1493375,21.7110953125 109.34534375,21.6775525390625 109.54990000000001,21.6456 109.54990000000001,21.6456 109.7638923828125,21.615053515625004 109.98618281250002,21.586103125 110.21667871093752,21.558732421875003 110.45528750000001,21.532925000000002 110.70191660156252,21.508664453125 110.95647343750001,21.485934375000003 111.2188654296875,21.464718359375 111.489,21.445" fill="none" stroke="black" stroke-width="0.1" id="_131842200"/>
            <polygon points="111.489,22.5451 111.5099115234375,22.541584765625004 111.52911093750001,22.534190625 111.54620800781251,22.523369921875002 111.5608125,22.509575 111.5725341796875,22.493258203125002 111.5809828125,22.474871875000005 111.5857681640625,22.454868359375002 111.5865,22.4337 111.5865,22.4337 111.5829560546875,22.412817382812502 111.5755484375,22.3936328125 111.5647259765625,22.376541210937503 111.5509375,22.361937500000003 111.53463183593749,22.350216601562504 111.5162578125,22.341773437500002 111.4962642578125,22.337002929687504 111.4751,22.3363 111.4751,22.3363 111.2026078125,22.3561443359375 110.93794375000002,22.377510937500002 110.68120156250001,22.4004126953125 110.43247500000001,22.4248625 110.1918578125,22.4508732421875 109.95944374999999,22.478457812499997 109.73532656249999,22.5076291015625 109.5196,22.538400000000003 109.5196,22.538400000000003 109.31124160156249,22.571004492187505 109.1113265625,22.605304687500002 108.9199451171875,22.6413181640625 108.7371875,22.679062500000004 108.56314394531249,22.718555273437502 108.3979046875,22.759814062500006 108.24155996093751,22.802856445312504 108.0942,22.847700000000003 108.0942,22.847700000000003 108.0748111328125,22.856147460937507 108.0580015625,22.867935937500004 108.0440443359375,22.882534570312504 108.03321249999999,22.899412500000004 108.0257791015625,22.918038867187505 108.0220171875,22.937882812500003 108.0221998046875,22.9584134765625 108.0266,22.979100000000003 108.0266,22.979100000000003 108.0350763671875,22.998488867187504 108.0468796875,23.015298437500004 108.0614837890625,23.029255664062504 108.0783625,23.040087500000006 108.0969896484375,23.047520898437504 108.1168390625,23.051282812500002 108.1373845703125,23.051100195312504 108.1581,23.0467 108.1581,23.0467 108.3008375,23.003295703125 108.4526875,22.961571875000004 108.61355625,22.921512109375 108.78335,22.883100000000002 108.96197500000001,22.846319140625 109.1493375,22.811153125 109.34534375,22.777585546875 109.54990000000001,22.7456 109.54990000000001,22.7456 109.7638923828125,22.715053710937504 109.98618281250002,22.6861046875 110.21667871093752,22.6587376953125 110.45528750000001,22.632937499999997 110.70191660156252,22.6086888671875 110.95647343750001,22.585976562499997 111.2188654296875,22.5647853515625 111.489,22.545099999999998" fill="none" stroke="black" stroke-width="0.1" id="_131062096"/>
            <polygon points="107.784,19.5277 109.951,19.5277 109.951,20.1496 110.277,19.5278 111.775,19.5277 111.775,21.2585 107.784,21.2585" fill="none" stroke="black" stroke-width="0.1" id="_131875424"/>
        </g>
        <polygon points="105.067,40.8482 112.38,40.8418 112.386,47.8791 105.067,47.8602" fill="none" stroke="black" stroke-width="0.1" id="_tag_670_"/>
        <polyline points="101.112,92.5453 99.6937,6.7573 101.111,6.7358 102.461,88.4516" fill="none" stroke="black" stroke-width="0.1" id="_tag_671_"/>
        <g id="_21436016">
            <polygon points="116.534,22.5641 117.283,22.2499 122.773,22.2518 127.714,22.2536 127.706,47.8296 115.633,47.8254 115.641,24.8586 115.776,23.6407" fill="none" stroke="black" stroke-width="0.1" id="_131580824"/>
            <polyline points="119.571,31.9493 119.575,22.2511 124.153,22.2527 124.15,30.9615" fill="none" stroke="black" stroke-width="0.1" id="_131580456"/>
        </g>
        <polygon points="66.8801,80.0302 64.71601777343749,79.107941015625 63.5925171875,77.97793437499999 63.2460423828125,76.68052304687498 63.4130375,75.25604999999999 63.829946679687495,73.74485820312499 64.2332140625,72.18729062499999 64.35928378906249,70.62369023437499 63.9446,69.0944 63.9446,69.0944 68.3940203125,66.3176296875 72.80053125,63.76309374999999 77.17590781249999,61.439492187499994 81.531925,59.35552499999999 85.8803578125,57.51989218749999 90.23298125,55.94129374999999 94.6015703125,54.62842968749999 98.9979,53.58999999999999 98.9979,53.58999999999999 102.33092050781251,53.03119335937499 105.6738515625,52.67842812499999 108.9519474609375,52.50051132812499 112.0904625,52.46624999999999 115.0146509765625,52.54445117187499 117.6497671875,52.70392187499999 119.9210654296875,52.91346914062499 121.7538,53.14189999999999 121.7538,53.14189999999999 123.865483984375,53.65155566406249 125.786590625,54.52392656249999 127.478576953125,55.71675605468749 128.9029,57.18778749999999 130.021016796875,58.8947642578125 130.79438437500002,60.7954296875 131.184459765625,62.84752714843749 131.1527,65.0088 131.1527,65.0088 130.687944140625,67.12633671875 129.836640625,69.05018125 128.646548046875,70.74251015624999 127.16542500000003,72.16550000000001 125.44103007812501,73.28132734375 123.52112187500002,74.05216874999999 121.453458984375,74.44020078124998 119.28580000000001,74.40759999999999 119.28580000000001,74.40759999999999 116.46248496093752,74.06776679687499 112.44056093750001,73.67594687499998 107.2868470703125,73.40708476562499 101.06816250000001,73.43612499999999 93.8513263671875,73.938012109375 85.70315781250001,75.087690625 76.69047597656251,77.06010507812499 66.8801,80.0302" fill="none" stroke="black" stroke-width="0.1" id="_new_626_1"/>
        <polygon points="110.425,41.8914 113.726,41.8268 113.704,37.9106 110.3,37.212 110.724,32.4838 112.861,32.3377 113.109,33.9497 113.155,35.1424 113.66,36.439 113.155,35.1424 113.109,33.9497 112.861,32.3377 113.726,32.2265 113.726,23.8852 120.555,24.0334 121.582,24.3092 123.81,24.291 124.854,26.2875 125.104,29.3596 126.654,47.8477 120.031,48.4656 111.481,48.2678" fill="none" stroke="black" stroke-width="0.1" id="_tag_672_"/>
        <polygon points="123.473,26.9167 123.5250255859375,26.129237109374998 123.6866109375,25.315765625 123.96399394531251,24.517373828125 124.3634125,23.775149999999996 124.8911044921875,23.130182421875 125.5533078125,22.623559375 126.35626035156251,22.296369140624996 127.3062,22.1897 127.3062,22.1897 127.62332968749999,22.229009374999997 127.91339375,22.328712499999998 128.1717046875,22.478234375 128.393575,22.667 128.5743171875,22.884434374999998 128.70924374999998,23.1199625 128.79366718750003,23.363009374999997 128.8229,23.602999999999998 128.8309,46.531499999999994 128.80862578125002,46.75247636718749 128.74437500000002,46.9761046875 128.64223046875003,47.192671289062496 128.50627500000002,47.39246249999999 128.34059140625,47.565764648437494 128.14926250000002,47.70286406249999 127.93637109375001,47.79404707031249 127.70600000000002,47.82959999999999 127.70600000000002,47.82959999999999 126.83356015625003,47.806090429687494 126.03151250000002,47.6175234375 125.31398984375002,47.28832910156249 124.69512500000002,46.84293749999999 124.18905078125003,46.305778710937496 123.80990000000001,45.7012828125 123.57180546875001,45.05387988281249 123.48890000000002,44.38799999999999 123.47300000000001,26.91669999999999" fill="none" stroke="black" stroke-width="0.1" id="_new_628_1"/>
        <polyline points="125.102,46.1312 124.98995703124999,45.93940859375 124.89141875000001,45.74298124999999 124.80682109375,45.54266328125 124.73660000000001,45.3392 124.68119140625001,45.133336718749995 124.64103125,44.92581875 124.61655546875001,44.71739140625 124.60820000000001,44.5088 124.59210000000002,26.7875 124.59981230468752,26.485634960937503 124.62364843750001,26.175973437499998 124.66398222656251,25.8609658203125 124.72118750000001,25.5430625 124.79563808593751,25.224713867187504 124.88770781250001,24.908370312500004 124.9977705078125,24.596482226562504 125.12620000000001,24.291500000000003" fill="none" stroke="black" stroke-width="0.1" id="_new_629_1"/>
        <g id="_131391448">
            <polygon points="134.1,37.7044 132.6898,37.7112 131.9201,37.7149 131.83939999999998,29.9603 134.17229999999998,29.948900000000002 134.33551621093747,30.351315429687503 134.47809218749998,30.7554171875 134.5995064453125,31.161250976562503 134.69923749999998,31.5688625 134.77676386718747,31.978297460937505 134.83156406249998,32.389601562500005 134.8631166015625,32.802820507812505 134.87089999999998,33.218 134.87089999999998,33.218 134.87421035156245,33.7237517578125 134.86389531249998,34.2236828125 134.83939824218749,34.7192193359375 134.80016249999997,35.2117875 134.74563144531248,35.702813476562504 134.67524843749996,36.193723437500005 134.58845683593748,36.685943554687505 134.48469999999998,37.1809 134.14049999999997,37.7042 134.13540468749997,37.7049140625 134.13031875,37.7054125 134.12524218749996,37.705704687499995 134.12017499999996,37.705799999999996 134.11511718749998,37.7057078125 134.11006874999998,37.7054375 134.10502968749998,37.7049984375 134.09999999999997,37.7044" fill="none" stroke="black" stroke-width="0.1" id="_131394976"/>
            <line x1="132.538" y1="33.2397" x2="134.871" y2="33.2284" fill="none" stroke="black" stroke-width="0.1" id="_131394592"/>
            <line x1="132.128" y1="37.2628" x2="134.461" y2="37.2515" fill="none" stroke="black" stroke-width="0.1" id="_131394208"/>
            <polyline points="130.043,39.4362 130.0453,39.3562" fill="none" stroke="black" stroke-width="0.1" id="_131393360_1"/>
            <polyline points="130.3555,28.407600000000002 130.3555,28.407200000000003 130.628364453125,28.552167968750002 130.88997187500001,28.712843750000005 131.139705859375,28.890085156250002 131.37695000000002,29.084750000000003 131.601087890625,29.297696093750005 131.81150312500003,29.529781250000006 132.007579296875,29.78186328125 132.1887,30.054800000000004 132.17360000000002,30.357100000000003" fill="none" stroke="black" stroke-width="0.1" id="_131393360_2"/>
            <polyline points="131.8076,37.7154 131.63775312500002,37.9954564453125 131.45211875,38.2553015625 131.25134375000002,38.4957615234375 131.03607499999998,38.7176625 130.806959375,38.9218306640625 130.56464375000002,39.1090921875 130.309775,39.2802732421875 130.043,39.4362" fill="none" stroke="black" stroke-width="0.1" id="_131393360_3"/>
            <polygon points="131.8393,29.9603 131.884508203125,29.960586914062503 131.928884375,29.9758515625 131.972355859375,30.0056498046875 132.01485000000002,30.0495375 132.056294140625,30.1070705078125 132.096615625,30.177804687499997 132.135741796875,30.2612958984375 132.17360000000002,30.3571 132.17360000000002,30.3571 132.25411894531254,30.617300781249998 132.32667031250003,30.933437499999997 132.39030839843753,31.30046171875 132.44408750000002,31.713324999999998 132.4870619140625,32.16697890625 132.51828593750002,32.656375 132.53681386718753,33.17646484375 132.54170000000002,33.7222 132.54170000000002,33.7222 132.52388867187503,34.506018945312505 132.479028125,35.24063906250001 132.41007851562503,35.9099927734375 132.32,36.4980125 132.211752734375,36.9886306640625 132.08829687500003,37.365779687499995 131.952592578125,37.6133919921875 131.8076,37.7154 131.8076,37.7154 131.6857216796875,37.6793552734375 131.57094843750002,37.536767187500004 131.4649478515625,37.2965923828125 131.36938750000002,36.9677875 131.2859349609375,36.5593091796875 131.2162578125,36.0801140625 131.1620236328125,35.5391587890625 131.1249,34.9454 131.1255,34.9337 131.13221015624998,34.781596679687496 131.13815624999998,34.6281046875 131.14332421875,34.4732884765625 131.1477,34.31721250000001 131.15126953125,34.159941210937504 131.15401874999998,34.00153906250001 131.15593359374998,33.8420705078125 131.15699999999998,33.6816 131.15699999999998,33.6816 131.15724042968748,33.560876171875 131.15699218749998,33.440890625 131.1562634765625,33.321659765625 131.15506249999999,33.2032 131.15339746093747,33.085527734375006 131.15127656249996,32.968659375 131.1487080078125,32.852611328125 131.14569999999998,32.7374 131.14569999999998,32.7374 131.191294140625,32.171218554687506 131.251684375,31.650992187499998 131.32534492187497,31.1850353515625 131.41074999999998,30.781662500000003 131.506373828125,30.4491880859375 131.61069062499996,30.1959265625 131.72217460937497,30.0301923828125 131.83929999999998,29.9603" fill="none" stroke="black" stroke-width="0.1" id="_131393360"/>
            <polygon points="130.043,39.4362 130.3555,28.4072 130.6925720703125,28.5559279296875 130.9996453125,28.7441234375 131.27676777343748,28.9677541015625 131.5239875,29.2227875 131.7413525390625,29.505191210937497 131.92891093749998,29.8109328125 132.0867107421875,30.1359798828125 132.2148,30.4763 132.2148,30.4763 132.2869861328125,30.722966601562497 132.35187031249998,31.004382812499998 132.4086287109375,31.3258982421875 132.4564375,31.692862500000004 132.4944728515625,32.1106251953125 132.52191093750002,32.5845359375 132.5379279296875,33.119944335937504 132.5417,33.7222 132.5417,33.7222 132.5265552734375,34.388344335937504 132.48858593749998,35.0209296875 132.4307767578125,35.6111470703125 132.3561125,36.1501875 132.26757792968752,36.6292419921875 132.1681578125,37.03950156249999 132.06083691406252,37.3721572265625 131.9486,37.6184 131.9486,37.6184 131.77269453125,37.902595703125 131.57108749999998,38.173415625000004 131.34773046875,38.429408984375 131.10657500000002,38.669125 130.85157265625,38.891112890624996 130.586675,39.09392187500001 130.31583359374997,39.276101171875 130.043,39.4362" fill="none" stroke="black" stroke-width="0.1" id="_131392584"/>
            <polygon points="130.159,28.3363 128.44539999999998,28.3446 128.40267597656248,28.741308203125 128.34925156249997,29.116765625 128.27552324218746,29.484783984375 128.17188749999997,29.859175 128.02874082031246,30.253750390625 127.83647968749997,30.682321875 127.58550058593747,31.158701171875 127.26619999999998,31.6967 127.26619999999998,31.6967 127.28130839843749,31.930714843750003 127.29442343749999,32.169975 127.30549238281249,32.41420390625 127.31446249999999,32.663124999999994 127.32128105468749,32.91646171874999 127.32589531249998,33.173937499999994 127.32825253906249,33.43527578125 127.32829999999998,33.7002 127.32829999999998,33.7002 127.32593339843748,33.97507207031251 127.32112343749998,34.2468703125 127.31392988281249,34.5152677734375 127.30441249999998,34.7799375 127.29263105468748,35.0405525390625 127.27864531249998,35.296785937500005 127.26251503906248,35.5483107421875 127.24429999999998,35.7948 127.24429999999998,35.7948 127.554468359375,36.2957265625 127.79985312499997,36.74920625 127.98912382812499,37.1711390625 128.13094999999998,37.577425000000005 128.23400117187498,37.98396406250001 128.306946875,38.406656250000005 128.35845664062495,38.8614015625 128.39719999999997,39.3641 130.11389999999997,39.3558 130.32000664062497,39.21074003906251 130.51289687499997,38.858807812500004 130.68836367187498,38.3228373046875 130.8422,37.625662500000004 130.97019882812498,36.790117382812504 131.06815312499998,35.8390359375 131.13185585937498,34.795252148437505 131.15709999999999,33.6816 131.15709999999999,33.6816 131.140922265625,32.574722070312504 131.08569062499998,31.5501578125 130.99541992187497,30.629424023437505 130.874125,29.8340375 130.72582070312498,29.1855150390625 130.55452187499998,28.7053734375 130.36424335937497,28.4151294921875 130.159,28.3363" fill="none" stroke="black" stroke-width="0.1" id="_131391848"/>
        </g>
        <g id="_131389080">
            <polyline points="118.894,33.2989 118.365,32.7714 117.685,32.3063 116.641,32.057 115.649,32.2224 114.728,32.5856" fill="none" stroke="black" stroke-width="0.1" id="_131390720"/>
            <polyline points="115.315,45.1791 114.531,43.7148 114.356,42.3425 114.349,32.716" fill="none" stroke="black" stroke-width="0.1" id="_131390152"/>
            <polyline points="121.471,24.1099 121.896,24.697 121.896,32.4068 121.442,32.912 120.791,33.2723 119.537,33.3642 118.969,33.7197 118.949,43.7789 118.689,44.3005 117.351,45.425" fill="none" stroke="black" stroke-width="0.1" id="_131389472"/>
        </g>
        <g id="_131385376">
            <polygon points="100.072,14.3276 101.088,14.7633 102.197,16.1021 102.927,17.9272 103.319,19.9592 103.361,21.4566 103.018,22.6551 102.357,23.2592 101.813,23.3567 101.098,23.4278 100.206,23.0703 98.7478,23.3424 97.8095,22.2316 97.1117,20.7636 96.6696,18.9488 96.5647,17.3515 96.7044,16.3815 97.9723,15.399 98.5912,15.3205 99.0336,14.5435" fill="none" stroke="black" stroke-width="0.1" id="_131388696"/>
            <polyline points="100.126,15.0624 101.198,16.3558 101.903,18.1188 102.281,20.0819 102.322,21.5284 101.991,22.6862" fill="none" stroke="black" stroke-width="0.1" id="_131387888"/>
            <polyline points="98.7477,23.3424 98.8847,22.9574 99.8918,22.1522 99.5726,21.0952 99.2129,19.4085 99.1977,18.1975 98.7341,17.4741 97.9423,16.2485 97.9723,15.399 99.21,15.2419 100.054,16.5778 100.974,17.8231 100.931,19.5304 101.153,20.8491 101.43,21.8134 100.206,23.0703" fill="none" stroke="black" stroke-width="0.1" id="_131386888"/>
            <line x1="99.1977" y1="18.1975" x2="100.974" y2="17.8231" fill="none" stroke="black" stroke-width="0.1" id="_131386336"/>
            <line x1="101.43" y1="21.8134" x2="99.8918" y2="22.1522" fill="none" stroke="black" stroke-width="0.1" id="_131385768"/>
        </g>
        <polygon points="103.763,24.2198 104.915,24.2105 104.915,32.2977 103.764,32.2939" fill="none" stroke="black" stroke-width="0.1" id="_tag_673_"/>
        <polygon points="103.758,31.0659 103.7627,25.4712 103.0423,25.4464 102.910738671875,25.500179101562498 102.788109375,25.6603515625 102.677044140625,25.915720117187497 102.580175,26.255087500000002 102.500133984375,26.6672564453125 102.439553125,27.1410296875 102.40106445312499,27.6652099609375 102.3873,28.2286 102.3873,28.2286 102.4000873046875,28.79257421875 102.4376796875,29.3185 102.4974603515625,29.79505703125 102.5768125,30.210924999999996 102.67311933593749,30.55478359375 102.7837640625,30.815312499999997 102.9061298828125,30.98119140625 103.0376,31.0411 103.758,31.0659" fill="none" stroke="black" stroke-width="0.1" id="_new_631_1"/>
        <polygon points="102.419,54.3819 103.1899,54.0462 103.66229999999999,53.117 103.76379999999999,51.7833 103.76409999999998,43.2163 105.06739999999998,43.2281 103.76409999999998,43.2163 103.76379999999999,40.1836 105.06739999999999,40.183499999999995 105.06739999999999,52.320899999999995 112.38879999999999,52.320899999999995 112.38879999999999,43.227799999999995 113.72599999999998,43.2279 112.38889999999998,43.227799999999995 112.38879999999997,40.183499999999995 113.72319999999998,40.1836 113.71999999999997,53.0167 113.76067499999998,53.3854994140625 113.87678124999996,53.719401562499996 114.05921562499998,54.0148123046875 114.29887499999997,54.2681375 114.58665624999998,54.4757830078125 114.91345624999997,54.6341546875 115.27017187499997,54.7396583984375 115.64769999999997,54.7887 122.67589999999997,55.1472 122.78722050781248,55.146612890625 122.89887031249998,55.147790625 123.01083183593748,55.150754296875 123.12308749999998,55.155525 123.23561972656248,55.162123828125 123.34841093749998,55.170571875 123.46144355468748,55.180890234375 123.57469999999996,55.1931 123.57469999999996,55.1931 124.94244316406247,55.5012478515625 126.18371406249996,56.070364062500005 127.27483730468745,56.8629076171875 128.19213749999997,57.8413375 128.91193925781246,58.9681126953125 129.41056718749996,60.205692187500006 129.66434589843746,61.516534960937506 129.64959999999996,62.8631 129.64959999999996,62.8631 129.39080390624997,64.16374765625 128.94048124999995,65.35109374999999 128.31703046874995,66.40898046875 127.53884999999997,67.32124999999999 126.62433828124998,68.07174453125 125.59189374999997,68.64430625 124.45991484374997,69.02277734375 123.24679999999996,69.191 121.98089999999996,69.266 111.86037031249995,69.2448712890625 101.97311874999995,70.05442031250001 92.31151406249997,71.6657498046875 82.86792499999996,74.04996249999999 73.63472031249995,77.1781611328125 64.60426874999996,81.0214484375 55.76893906249995,85.55092714843751 47.121099999999956,90.7377 45.44949999999996,91.9971 43.69629999999996,94.1388 43.695999999999955,94.1386 43.30168515624995,94.71283906250001 42.83261874999995,95.22174375 42.297617968749954,95.6583203125 41.70549999999996,96.015575 41.06508203124996,96.2865140625 40.38518124999996,96.46414374999999 39.67461484374996,96.5414703125 38.94219999999996,96.5115 38.94219999999996,96.5115 37.98131074218745,96.3006212890625 37.108310937499965,95.9143328125 36.34036503906246,95.3743060546875 35.694637499999956,94.7022125 35.18829277343746,93.91972363281249 34.83849531249996,93.0485109375 34.66240957031246,92.1102458984375 34.67719999999996,91.1266 34.67719999999996,91.1266 34.77035957031246,90.587602734375 34.919695312499954,90.07292187499999 35.12158027343746,89.58542382812499 35.37238749999995,89.12797499999999 35.668490039062455,88.703441796875 36.00626093749995,88.314690625 36.38207324218746,87.96458789062498 36.792299999999955,87.65599999999999 36.792099999999955,87.65579999999999 40.685699999999954,83.97059999999999 46.903290624999954,79.6878146484375 53.97874999999995,74.96561718749999 61.69729687499995,70.10717050781248 69.84414999999996,65.41563749999999 78.20452812499994,61.19418105468749 86.56364999999997,57.745964062499986 94.70673437499997,55.37414941406249 102.41899999999995,54.38189999999999" fill="none" stroke="black" stroke-width="0.1" id="_new_632_1"/>
        <polygon points="71.59679999999996,68.80539999999999 79.85909999999996,65.15799999999999 80.41385703124996,64.96769316406248 80.98204374999996,64.87737656249999 81.54538359374995,64.89009355468748 82.08559999999996,65.00888749999999 82.58441640624996,65.23680175781249 83.02355624999996,65.57687968749998 83.38474296874996,66.03216464843749 83.64969999999995,66.60569999999998 83.64969999999995,66.60569999999998 83.79901328124996,67.22573671874999 83.82866874999996,67.81381874999998 83.74348984374996,68.36292890624999 83.54829999999995,68.86604999999999 83.24792265624995,69.31616484374999 82.84718124999995,69.70625625 82.35089921874996,70.02930703124999 81.76389999999995,70.27829999999999 73.11139999999995,73.1539 72.67645058593745,73.2566544921875 72.26046093749994,73.2755109375 71.86854394531245,73.21769628906249 71.50581249999995,73.09043750000001 71.17737949218744,72.9009615234375 70.88835781249995,72.6564953125 70.64386035156244,72.3642658203125 70.44899999999994,72.0315 70.44899999999994,72.0315 70.31036953124995,71.650508984375 70.23644999999995,71.22237812499999 70.23518671874994,70.76749570312498 70.31452499999995,70.30624999999999 70.48241015624994,69.859029296875 70.74678749999993,69.44622187499999 71.11560234374994,69.088216015625 71.59679999999994,68.80539999999999" fill="none" stroke="black" stroke-width="0.1" id="_new_632_2"/>
        <polygon points="89.06689999999995,61.67739999999999 98.24609999999994,59.15859999999999 98.91275410156244,59.052942578125 99.57967656249994,59.089684375 100.22550761718743,59.256696484375 100.82888749999994,59.54185 101.36845644531245,59.93301601562499 101.82285468749996,60.41806562499999 102.17072246093744,60.98486992187499 102.39069999999994,61.62129999999999 102.39069999999994,61.621399999999994 102.46554257812494,62.299551171874995 102.40055937499993,62.983503125 102.20822148437493,63.649103515624994 101.90099999999994,64.2722 101.49136601562493,64.828640234375 100.99179062499995,65.29427187499999 100.41474492187494,65.64494257812498 99.77269999999994,65.8565 90.48959999999994,67.71159999999999 89.82256855468745,67.77917812499999 89.17287968749994,67.719875 88.55647910156243,67.542596875 87.98931249999994,67.25625 87.48732558593744,66.86974062499998 87.06646406249993,66.39197499999997 86.74267363281244,65.83185937499998 86.53189999999994,65.19829999999999 86.53189999999994,65.19819999999999 86.45466816406244,64.55576582031249 86.51316406249992,63.96515781249998 86.69582480468745,63.429367773437484 86.99108749999994,62.95138749999998 87.38738925781244,62.53420878906248 87.87316718749993,62.18082343749999 88.43685839843744,61.894223242187486 89.06689999999993,61.677399999999984" fill="none" stroke="black" stroke-width="0.1" id="_new_632_3"/>
        <polygon points="121.55459999999994,64.75489999999998 118.11569999999993,65.01949999999998 117.51355878906243,64.99746835937498 116.90740156249993,64.84650937499998 116.32564042968743,64.57556445312498 115.79668749999993,64.19357499999998 115.34895488281242,63.70948242187498 115.01085468749994,63.13222812499998 114.81079902343744,62.47075351562498 114.77719999999994,61.73399999999998 114.77719999999994,61.73399999999998 114.91690312499993,61.00758164062498 115.20051249999993,60.37365937499998 115.60207812499993,59.83588242187498 116.09564999999995,59.397899999999986 116.65527812499994,59.063361328124984 117.25501249999994,58.835915624999984 117.86890312499995,58.71921210937498 118.47099999999993,58.71689999999998 121.81199999999993,59.03579999999998 122.38214335937492,59.14264550781248 122.90972187499993,59.34465781249998 123.38333320312492,59.63235058593748 123.79157499999992,59.99623749999998 124.12304492187492,60.42683222656248 124.36634062499992,60.91464843749998 124.51005976562492,61.45019980468748 124.54279999999993,62.02399999999998 124.54279999999993,62.02409999999998 124.45844746093744,62.588054101562484 124.26673593749992,63.097339062499984 123.98003457031243,63.54748886718748 123.61071249999992,63.93403749999999 123.17113886718742,64.25251894531249 122.67368281249992,64.49846718749998 122.13071347656242,64.66741621093747 121.55459999999992,64.75489999999998" fill="none" stroke="black" stroke-width="0.1" id="_new_632_4"/>
        <polygon points="103.642,46.4252 103.6467,40.8305 102.9263,40.8057 102.794738671875,40.859479101562506 102.67210937499999,41.0196515625 102.561044140625,41.2750201171875 102.46417499999998,41.6143875 102.384133984375,42.0265564453125 102.32355312499999,42.5003296875 102.28506445312499,43.0245099609375 102.2713,43.587900000000005 102.2713,43.587900000000005 102.2840873046875,44.15187421875 102.3216796875,44.677800000000005 102.3814603515625,45.15435703125001 102.46081249999999,45.57022500000001 102.5571193359375,45.91408359375001 102.6677640625,46.1746125 102.7901298828125,46.34049140625001 102.9216,46.400400000000005 103.642,46.425200000000004" fill="none" stroke="black" stroke-width="0.1" id="_new_633_1"/>
        <polygon points="103.642,49.8603 103.6467,44.265600000000006 102.9263,44.24080000000001 102.794738671875,44.29457910156251 102.67210937499999,44.45475156250001 102.561044140625,44.71012011718751 102.46417499999998,45.049487500000005 102.384133984375,45.46165644531251 102.32355312499999,45.935429687500005 102.28506445312499,46.459609960937506 102.2713,47.02300000000001 102.2713,47.02300000000001 102.2840873046875,47.58697421875001 102.3216796875,48.11290000000001 102.3814603515625,48.589457031250014 102.46081249999999,49.00532500000001 102.5571193359375,49.34918359375001 102.6677640625,49.60971250000001 102.7901298828125,49.775591406250015 102.9216,49.83550000000001 103.642,49.86030000000001" fill="none" stroke="black" stroke-width="0.1" id="_new_634_1"/>
        <rect x="112.376" y="24.6443" width="1.2641" height="7.0477" fill="none" stroke="black" stroke-width="0.1" id="_tag_674_"/>
        <g id="_131625408">
            <rect x="108.406" y="22.6354" width="2.74668" height="1.5576" fill="none" stroke="black" stroke-width="0.1" id="_131390128"/>
            <polygon points="108.07,23.3719 108.04912148437501,23.368384765625002 108.029946875,23.360990625 108.012867578125,23.350169921875 107.998275,23.336375 107.98656054687498,23.320058203125 107.97811562499999,23.301671875000004 107.973331640625,23.281668359375 107.9726,23.2605 107.9726,23.2605 107.976115234375,23.2396173828125 107.98350937500001,23.2204328125 107.99433007812499,23.203341210937502 108.008125,23.188737500000002 108.024441796875,23.177016601562503 108.042828125,23.1685734375 108.062831640625,23.163802929687503 108.084,23.1631 108.084,23.1631 108.356459375,23.1829443359375 108.6211,23.2043109375 108.87782812500001,23.2272126953125 109.12655000000001,23.2516625 109.36717187500001,23.2776732421875 109.59960000000001,23.305257812499995 109.823740625,23.3344291015625 110.0395,23.3652 110.0395,23.3652 110.24785820312502,23.397804492187504 110.44777187500002,23.4321046875 110.639149609375,23.4681181640625 110.8219,23.505862500000003 110.995931640625,23.5453552734375 111.16115312499998,23.586614062500004 111.317473046875,23.629656445312502 111.4648,23.674500000000002 111.4648,23.674500000000002 111.48421757812501,23.682947460937505 111.501040625,23.694735937500003 111.514999609375,23.709334570312503 111.525825,23.726212500000003 111.533247265625,23.744838867187504 111.536996875,23.764682812500002 111.53680429687499,23.7852134765625 111.5324,23.8059 111.5324,23.8059 111.52395253906249,23.825288867187503 111.51216406249999,23.842098437500002 111.4975654296875,23.856055664062502 111.48068749999999,23.866887500000004 111.4620611328125,23.874320898437503 111.4422171875,23.8780828125 111.42168652343749,23.877900195312503 111.401,23.8735 111.401,23.8735 111.2582625,23.830095703125 111.1064125,23.788371875000003 110.94554375,23.748312109375 110.77575,23.7099 110.59712499999999,23.673119140624998 110.4097625,23.637953125 110.21375625,23.604385546874997 110.00919999999999,23.5724 110.00919999999999,23.5724 109.79517460937498,23.541853710937502 109.572859375,23.512904687499997 109.34234570312499,23.485537695312498 109.10372499999998,23.459737499999996 108.85708867187499,23.435488867187498 108.60252812499999,23.412776562499996 108.340134765625,23.391585351562497 108.07,23.371899999999997" fill="none" stroke="black" stroke-width="0.1" id="_131763840"/>
            <polygon points="108.07,22.8219 108.04912148437501,22.818356054687502 108.029946875,22.8109484375 108.012867578125,22.800125976562498 107.998275,22.786337500000002 107.98656054687498,22.770031835937502 107.97811562499999,22.7516578125 107.973331640625,22.7316642578125 107.9726,22.7105 107.9726,22.7105 107.976115234375,22.6895884765625 107.98350937500001,22.6703890625 107.99433007812499,22.653291992187498 108.008125,22.6386875 108.024441796875,22.6269658203125 108.042828125,22.6185171875 108.062831640625,22.6137318359375 108.084,22.613 108.084,22.613 108.356459375,22.632877343749996 108.6211,22.65426875 108.87782812500001,22.677188281249997 109.12655000000001,22.70165 109.36717187500001,22.72766796875 109.59960000000001,22.75525625 109.823740625,22.78442890625 110.0395,22.8152 110.0395,22.8152 110.24785820312502,22.847771484375 110.44777187500002,22.882046875 110.639149609375,22.918042578125 110.8219,22.955775 110.995931640625,22.995260546875002 111.16115312499998,23.036515625000003 111.317473046875,23.079556640625 111.4648,23.1244 111.4648,23.1244 111.48421757812501,23.1328763671875 111.501040625,23.144679687500002 111.514999609375,23.159283789062503 111.525825,23.176162500000004 111.533247265625,23.194789648437503 111.536996875,23.2146390625 111.53680429687499,23.235184570312498 111.5324,23.2559 111.5324,23.2559 111.52395253906249,23.275288867187502 111.51216406249999,23.2920984375 111.4975654296875,23.3060556640625 111.48068749999999,23.3168875 111.4620611328125,23.3243208984375 111.4422171875,23.3280828125 111.42168652343749,23.3279001953125 111.401,23.3235 111.401,23.3235 111.2582625,23.280062890625 111.1064125,23.238315625 110.94554375,23.198241796875003 110.77575,23.159824999999998 110.59712499999999,23.123048828125 110.4097625,23.087896875 110.21375625,23.054352734374994 110.00919999999999,23.022399999999998 110.00919999999999,23.022399999999998 109.79517460937498,22.991853710937498 109.572859375,22.962904687499996 109.34234570312499,22.935537695312497 109.10372499999998,22.9097375 108.85708867187499,22.885488867187497 108.60252812499999,22.8627765625 108.340134765625,22.841585351562497 108.07,22.821899999999996" fill="none" stroke="black" stroke-width="0.1" id="_131625544"/>
            <polygon points="108.07,23.9219 108.04912148437501,23.918388867187502 108.029946875,23.9110046875 108.012867578125,23.900196289062503 107.998275,23.886412500000002 107.98656054687498,23.8701021484375 107.97811562499999,23.8517140625 107.973331640625,23.8316970703125 107.9726,23.8105 107.9726,23.8105 107.976115234375,23.7896173828125 107.98350937500001,23.770432812500005 107.99433007812499,23.7533412109375 108.008125,23.738737500000003 108.024441796875,23.727016601562504 108.042828125,23.7185734375 108.062831640625,23.713802929687503 108.084,23.7131 108.084,23.7131 108.356459375,23.732973242187498 108.6211,23.7543546875 108.87782812500001,23.7772619140625 109.12655000000001,23.8017125 109.36717187500001,23.8277240234375 109.59960000000001,23.8553140625 109.823740625,23.8845001953125 110.0395,23.915300000000002 110.0395,23.915300000000002 110.24785820312502,23.947871484375 110.44777187500002,23.982146875 110.639149609375,24.018142578125 110.8219,24.055875 110.995931640625,24.095360546875 111.16115312499998,24.136615625 111.317473046875,24.179656640625005 111.4648,24.224500000000003 111.4648,24.224500000000003 111.48421757812501,24.232947460937503 111.501040625,24.244735937500003 111.514999609375,24.259334570312504 111.525825,24.276212500000003 111.533247265625,24.2948388671875 111.536996875,24.314682812500003 111.53680429687499,24.3352134765625 111.5324,24.355900000000002 111.5324,24.355900000000002 111.52395253906249,24.375317578125003 111.51216406249999,24.392140625 111.4975654296875,24.406099609375 111.48068749999999,24.416925 111.4620611328125,24.424347265625002 111.4422171875,24.428096875 111.42168652343749,24.427904296875 111.401,24.4235 111.401,24.4235 111.2582625,24.380095898437503 111.1064125,24.3383734375 110.94554375,24.298317382812503 110.77575,24.2599125 110.59712499999999,24.2231435546875 110.4097625,24.1879953125 110.21375625,24.1544525390625 110.00919999999999,24.122500000000002 110.00919999999999,24.122500000000002 109.79517460937498,24.091953515625004 109.572859375,24.063003125 109.34234570312499,24.035632421875004 109.10372499999998,24.009825000000003 108.85708867187499,23.985564453125 108.60252812499999,23.962834375000003 108.340134765625,23.941618359375 108.07,23.9219" fill="none" stroke="black" stroke-width="0.1" id="_131654360"/>
            <polygon points="111.775,20.9045 109.607,20.9045 109.607,21.5264 109.281,20.9047 107.784,20.9045 107.784,22.6354 111.775,22.6354" fill="none" stroke="black" stroke-width="0.1" id="_131625448"/>
        </g>
        <g id="_131396792">
            <polygon points="104.909,24.1859 112.0417,23.8993 112.14298125000002,23.899638671875003 112.22318750000001,23.905665625 112.2845875,23.920622265625 112.32945000000001,23.94775 112.36004375000002,23.990290234375 112.37863750000001,24.051484375 112.38750000000002,24.134573828125 112.3889,24.2428 112.2791,32.5391 110.9209,32.966499999999996 104.909,32.605999999999995 104.909,24.185899999999997" fill="none" stroke="black" stroke-width="0.1" id="_131398976"/>
            <polygon points="105.067,43.6069 112.38,43.6005 112.389,50.6379 105.067,50.6188" fill="none" stroke="black" stroke-width="0.1" id="_131398184"/>
            <polygon points="106.543,31.1829 107.11775507812501,30.845255273437502 107.668934375,30.6040734375 108.20439648437501,30.4593580078125 108.732,30.411112499999998 109.25960351562502,30.4593404296875 109.795065625,30.6040453125 110.346244921875,30.8452306640625 110.921,31.1829 110.921,43.6374 110.34687656250001,43.905831054687496 109.79453125,44.09755468749999 109.25691406250002,44.212016601562496 108.72697500000001,44.2486625 108.1976640625,44.206938085937495 107.66193125000001,44.0862890625 107.11272656250001,43.886161132812504 106.543,43.606 106.543,31.182900000000004" fill="none" stroke="black" stroke-width="0.1" id="_131397184"/>
        </g>
        <circle cx="39.502" cy="91.6866" r="3.425" fill="none" stroke="black" stroke-width="0.1" id="_tag_675_"/>
        <line x1="40.2945" y1="88.3542" x2="39.4138" y2="95.0303" fill="none" stroke="black" stroke-width="0.1" id="_tag_676_"/>
        <line x1="39.3855" y1="88.2719" x2="38.5048" y2="94.948" fill="none" stroke="black" stroke-width="0.1" id="_tag_677_"/>
        <polyline points="40.0079,84.612 41.2331818359375,84.8071974609375 42.3988046875,85.26780468749999 43.4787095703125,85.9485439453125 44.446837499999994,86.8041375 45.2771294921875,87.78930761718749 45.943526562500004,88.8587765625 46.4199697265625,89.96726660156249 46.6804,91.06949999999999" fill="none" stroke="black" stroke-width="0.1" id="_new_639_1"/>
        <polyline points="38.34,86.1906 39.602857812500005,86.2053408203125 40.82181250000001,86.5084390625 41.957873437500005,87.06644589843751 42.97205,87.8459125 43.8253515625,88.8133900390625 44.47878750000001,89.9354296875 44.893367187500004,91.17858261718752 45.030100000000004,92.5094" fill="none" stroke="black" stroke-width="0.1" id="_new_640_1"/>
        <polyline points="121.723,55.7464 122.8703,56.077400000000004 123.6866,56.8706 125.4876046875,57.723482421875005 126.78668124999999,59.014953125000005 127.5771734375,60.60307226562501 127.852425,62.34590000000001 127.6057796875,64.101496484375 126.83058125000001,65.72792187499999 125.5201734375,67.08323632812501 123.6679,68.02550000000001 122.9021,68.1971 122.8574,68.9837" fill="none" stroke="black" stroke-width="0.1" id="_new_641_1"/>
        <line x1="113.726" y1="32.5265" x2="114.349" y2="32.716" fill="none" stroke="black" stroke-width="0.1" id="_tag_678_"/>
    </g>
    <circle cx="127.71" cy="33.661" r="5" fill="none" stroke="black" stroke-width="0.1" id="center_00"/>
</svg>
