<?xml version="1.0" encoding="UTF-8"?>
<!DOCTYPE svg PUBLIC "-//W3C//DTD SVG 1.1//EN" "http://www.w3.org/Graphics/SVG/1.1/DTD/svg11.dtd">
<!-- Creator: CorelDRAW -->
<svg xmlns="http://www.w3.org/2000/svg" xml:space="preserve" width="210mm" height="297mm" style="shape-rendering:geometricPrecision; text-rendering:geometricPrecision; image-rendering:optimizeQuality; fill-rule:evenodd; clip-rule:evenodd"
viewBox="0 0 210 297">
 <defs>
  <style type="text/css">
   <![CDATA[
    .str1 {stroke:#1F1A17;stroke-width:0.0762}
    .str0 {stroke:black;stroke-width:0.1}
    .fil0 {fill:none}
   ]]>
  </style>
 </defs>
 <g id="Ebene_x0020_1">
  <g id="_tag_10_">
   <polygon id="polygon3025" class="fil0 str0" points="24.0593,196.526 27.2483,197.07 30.3723,194.114 27.2483,197.07 28.2609,198.127 31.1474,200.569 36.537,204.674 42.4927,206.845 49.8947,207.901 57.842,207.236 117.677,201.874 126.507,200.639 131.454,199.241 136.763,196.958 165.7,184.191 170.738,182.533 184.749,181.459 183.619,178.551 184.749,181.459 186.937,182.914 201.12,183.264 217.532,177.08 189.613,172.374 180.483,171.384 182.476,175.255 182.731,176.064 170.056,176.822 166.126,177.647 162.29,178.973 133.959,191.325 128.71,193.357 122.525,194.942 50.4747,201.108 44.1297,200.396 39.2601,197.869 35.0717,194.742 32.5193,192.241 34.0162,188.213 -0.077,180.48 "/>
   <polygon id="polygon3027" class="fil0 str0" points="62.092,160.261 96.094,160.562 154.233,159.552 180.955,159.576 202.181,159.803 221.067,162.048 233.53,167.062 238.585,171.766 239.902,175.636 238.32,180.218 235.884,182.472 230.959,182.437 201.289,177.056 181.758,176.566 155.951,177.667 126.646,178.767 100.98,180.927 75.79,185.287 53.4148,192.176 38.4741,192.432 23.2747,189.311 2.1489,183.826 -16.7289,179.353 -29.6452,176.869 -38.1576,176.053 -40.3367,174.276 -40.3367,170.324 -39.4377,166.34 -32.6823,162.045 -21.6539,159.855 -9.4736,158.361 8.7422,157.938 25.6457,158.448 "/>
  </g>
  <g id="_tag_11_">
   <polygon id="path159" class="fil0 str0" points="78.3563,219.819 77.5443,219.069 76.6943,218.36 75.8093,217.689 74.8893,217.057 74.6243,216.725 74.5453,216.332 74.6343,215.913 74.9683,215.616 77.9353,214.06 81.0353,212.894 84.2303,212.119 87.4843,211.734 90.7623,211.74 94.0283,212.135 97.2463,212.919 100.38,214.091 100.714,214.37 100.869,214.748 100.821,215.194 100.609,215.545 99.7753,216.28 98.9763,217.049 98.2153,217.853 97.4943,218.692 96.8153,219.567 96.1823,220.477 95.5973,221.424 95.0613,222.406 81.2143,223.231 80.5593,222.315 79.8653,221.442 79.1303,220.61 "/>

   <polygon id="path1045" class="fil0 str0" points="85.5853,192.69 86.4493,192.573 87.1233,192.462 87.6303,192.275 87.4713,191.869 86.9053,191.716 86.5113,191.642 86.0653,191.566 85.6053,191.499 85.1703,191.451 84.5313,191.453 83.9643,191.605 83.2363,191.887 82.5593,192.191 82.1443,192.409 81.8203,192.685 82.8633,192.957 83.6903,192.894 84.6323,192.801 "/>
   <polygon id="path1073" class="fil0 str0" points="66.4473,204.855 65.5483,205.017 65.0763,205.148 65.6133,213.49 65.8253,213.86 66.2343,213.976 72.3003,213.439 73.3823,212.759 74.2453,212.237 75.1283,211.743 76.0273,211.277 76.9423,210.842 77.8713,210.435 78.8133,210.06 79.7643,209.716 79.7033,209.021 79.6393,208.289 79.5613,207.422 79.4773,206.509 79.3963,205.643 79.3243,204.914 79.2693,204.411 79.0123,203.882 78.4813,203.658 77.7733,203.638 76.9873,203.719 73.0423,204.095 70.0603,204.403 67.9063,204.654 "/>
   <polygon id="path1085" class="fil0 str0" points="107.037,201.678 106.832,201.308 94.6933,202.269 94.2063,202.263 93.7893,202.311 93.1573,202.559 92.8003,203.004 92.7143,203.635 92.7663,204.112 92.8333,204.806 92.9103,205.632 92.9883,206.501 93.0613,207.328 93.1223,208.026 93.1643,208.508 94.1853,208.85 95.1783,209.046 96.1563,209.277 97.1223,209.54 98.0753,209.837 99.0153,210.165 99.9433,210.525 100.86,210.916 107.285,210.386 107.658,210.2 107.776,209.815 "/>
   <polygon id="path1033" class="fil0 str0" points="72.1663,195.214 78.6693,193.244 79.0893,193.085 79.4543,192.866 79.7523,192.579 79.9743,192.215 80.1593,191.762 80.2723,191.375 80.5753,191.088 88.5343,190.35 88.9423,190.455 89.1793,190.821 89.3763,191.18 89.6203,191.524 89.9513,191.792 90.3283,191.986 90.7383,192.111 97.4793,192.884 105.394,192.836 105.837,193.043 106.181,196.603 106.053,197.028 105.653,197.496 104.827,197.81 104.073,197.899 102.958,198.024 101.609,198.164 100.154,198.299 98.7223,198.41 97.4433,198.477 96.4443,198.479 95.8543,198.397 95.2813,198.041 94.8133,197.611 94.2663,197.161 93.9053,196.947 93.4563,196.749 92.9713,196.613 92.4133,196.552 91.7903,196.558 91.1163,196.626 90.4003,196.746 89.6543,196.912 88.8873,197.116 88.1133,197.351 87.4243,197.563 86.8893,197.713 86.4723,197.812 85.8793,197.906 85.3983,197.944 84.7473,198.007 84.2713,198.057 83.6783,198.068 83.2553,198.043 82.7063,197.987 81.9973,197.894 81.1853,197.797 80.3893,197.728 79.6233,197.693 78.8953,197.7 78.2163,197.753 77.5963,197.858 77.0453,198.023 76.5743,198.251 76.1803,198.533 75.8733,198.811 75.4243,199.343 75.0363,199.841 74.5243,200.291 73.9513,200.479 72.9623,200.66 71.6853,200.825 70.2523,200.973 68.7913,201.097 67.4343,201.194 66.3113,201.258 65.5503,201.285 65.0613,201.262 64.4093,200.977 64.0943,200.564 63.9513,199.693 63.9233,199.176 63.9043,198.672 63.8903,198.207 63.8823,197.801 63.8753,197.274 64.3643,196.573 63.8753,197.199 63.9873,196.809 "/>
  </g>
  <circle id="center_00" class="fil0 str1" cx="90.707" cy="160.514" r="20"/>
 </g>
</svg>
