<!DOCTYPE svg PUBLIC "-//W3C//DTD SVG 1.1//EN" "http://www.w3.org/Graphics/SVG/1.1/DTD/svg11.dtd">
<svg xmlns="http://www.w3.org/2000/svg" width="297mm" height="210mm" viewBox="0 0 297 210">
    <defs id="_tag_58_"/>
    <g id="Ebene_x0020_1">
        <g id="Ebene_x0020_1_0">
            <polygon points="14.8614,305.565 18.2163,305.877 33.5833,305.948 38.9267,304.845 38.8029,294.027 33.6432,292.949 28.7342,292.926 24.3691,292.903 20.3353,291.564 18.4931,289.591 17.5266,287.001 17.1028,281.172 17.4554,276.508 18.1583,272.698 19.1871,269.03 19.4945,268.314 19.692,263.437 12.2563,260.757 9.3888,263.969 8.2039,266.726 5.537,271.681 1.0901,278.576 -4.0494,284.794 -8.0615,288.617 -10.3948,291.395 -11.8188,294.56 -12.3297,297.231 -12.2218,300.33 -11.5732,302.791 -8.416,311.296 -8.1664,312.243 -8.2045,313.986 -10.2499,317.127 -12.1308,319.101 -10.7326,320.333 -6.5953,316.64 -4.0363,307.982 -6.7589,300.874 -6.9342,294.223 0.2571,290.063 5.4439,291.878 8.9621,299.45 12.5171,304.99" fill="none" stroke="black" stroke-width="0.1" id="polygon10"/>
            <line x1="33.5833" y1="305.948" x2="28.7342" y2="292.926" fill="none" stroke="black" stroke-width="0.1" id="line12"/>
            <line x1="19.4945" y1="268.314" x2="8.3859" y2="266.303" fill="none" stroke="black" stroke-width="0.1" id="line14"/>
            <polygon points="15.132,305.609 10.9809,294.477 9.3158,291.502 7.4578,289.642 5.7861,288.551 3.2997,287.588 0.8297,287.251 -1.1105,287.382 -4.4472,288.476 -6.6372,289.97 -8.4533,292.003 -9.7867,294.589 -10.3822,297.248 -10.2958,300.025 -9.7445,302.116 -7.3034,308.699 -6.9541,310.024 -6.9321,312.053 -7.9474,314.848 -9.2994,316.221 -10.0584,316.993 -12.1308,319.101 -13.2107,321.455 -13.3996,324.818 -12.6692,327.099 -11.3741,328.985 -9.5814,330.449 -11.589,333.931 -7.783,333.887 -5.0476,333.134 -2.6967,331.912 -0.7067,330.314 1.3414,327.733 2.1804,325.798 2.4901,323.827 2.3938,322.258 0.8655,313.433 -4.7178,298.438 -3.8723,295.789 -2.0186,293.987 -0.0851,293.286 1.5867,293.27 3.0967,293.714 4.7472,294.913 7.6806,302.781 9.7099,303.884 12.5171,304.99" fill="none" stroke="black" stroke-width="0.1" id="polyline16"/>
            <polygon points="11.5423,287.564 11.2999,288.504 10.4591,289.016 9.3681,288.685 6.7269,286.827 4.4299,285.867 3.5466,284.834 3.8219,283.813 6.1829,280.499 8.8938,276.69 9.7791,276.113 10.7461,276.346 11.2665,277.193 11.0711,281.028 11.1512,284.104" fill="none" stroke="black" stroke-width="0.1" id="polygon18"/>
            <polygon points="-1.0535,322.863 -1.9263,320.844 -3.8007,319.409 -6.2021,319.122 -8.0564,319.866 -9.4846,321.487 -9.9427,324.271 -9.0545,326.315 -7.2947,327.69 -4.7942,328.012 -2.7636,327.139 -1.3338,325.267" fill="none" stroke="black" stroke-width="0.1" id="polygon22"/>
            <ellipse cx="0.654788" cy="298.387" r="5.0" fill="none" stroke="black" stroke-width="0.1" id="circle24"/>
            <ellipse cx="0.654788" cy="298.387" r="5.0" fill="none" stroke="black" stroke-width="0.1" id="center_00"/>
        </g>
    </g>
</svg>
