<?xml version="1.0" encoding="UTF-8"?>
<!DOCTYPE svg PUBLIC "-//W3C//DTD SVG 1.1//EN" "http://www.w3.org/Graphics/SVG/1.1/DTD/svg11.dtd">
<!-- Creator: CorelDRAW -->
<svg xmlns="http://www.w3.org/2000/svg" xml:space="preserve" width="210mm" height="297mm" style="shape-rendering:geometricPrecision; text-rendering:geometricPrecision; image-rendering:optimizeQuality; fill-rule:evenodd; clip-rule:evenodd"
viewBox="0 0 210 297">
 <defs>
  <style type="text/css">
   <![CDATA[
    .str0 {stroke:#1F1A17;stroke-width:0.0762}
    .fil0 {fill:none}
   ]]>
  </style>
 </defs>
 <g id="Ebene_x0020_1">
  <metadata id="CorelCorpID_0Corel-Layer"/>
  <polygon class="fil0 str0" points="123.046,238.698 120.415,219.177 118.678,213.688 116.274,210.727 114.42,208.223 113.07,205.386 114.42,208.223 116.274,210.727 118.678,213.688 117.812,212.622 117.774,211.278 119.179,211.135 117.655,199.416 116.832,199.347 115.751,201.606 115.609,204.057 115.987,207.68 115.609,204.057 115.751,201.606 116.832,199.347 117.243,199.381 117.223,197 101.171,197 115.521,197 115.521,189.602 84.8543,189.602 84.8543,197 98.8273,197 83.4968,197 83.4968,226.046 83.8158,220.854 84.508,218.083 86.4192,213.415 87.8723,208.486 86.4192,213.415 84.508,218.083 83.8158,220.854 83.4968,226.046 85.5688,242.572 88.7229,242.786 91.0567,243.049 93.7348,243.759 96.4425,245.409 98.9285,247.298 100.947,249.135 102.92,251.658 104.317,254.231 105.636,257.415 106.372,258.269 107.32,258.153 107.821,257.251 108.096,253.732 109.195,250.099 111.163,246.466 113.907,243.118 116.372,241.127 120.046,239.225 "/>
  <polygon class="fil0 str0" points="103.989,248.409 101.784,245.89 99.2516,244.01 96.2432,242.509 95.2767,241.836 94.8873,241.157 94.8318,239.833 95.2957,239.018 96.4866,238.406 104.082,237.336 111.885,236.538 113.335,236.601 114.054,237.337 114.252,238.207 114.039,239.258 113.208,240.314 110.537,242.752 108.449,245.404 107.058,248.185 106.5,249.201 106.028,249.524 105.243,249.602 104.508,249.116 "/>
  <circle class="fil0 str0" cx="100" cy="197" r="8.30166" id="center_00"/>
 </g>
</svg>
