<!DOCTYPE svg PUBLIC "-//W3C//DTD SVG 1.1//EN" "http://www.w3.org/Graphics/SVG/1.1/DTD/svg11.dtd">
<svg xmlns="http://www.w3.org/2000/svg" width="297mm" height="210mm" viewBox="0 0 297 210">
    <defs id="_tag_17_"/>
    <g id="Ebene_x0020_1">
        <polygon points="75.2296,167.699 76.777,169.25070000000002 81.2464,166.32930000000002 79.57509999999999,157.7452 81.564,153.5559 79.48809999999999,147.505 79.67307851562498,146.40589375 80.03421562499999,145.37175625 80.55565117187498,144.420221875 81.22152499999999,143.56892499999998 82.01597695312499,142.8355 82.92314687499999,142.23758125 83.92717460937499,141.792803125 85.01219999999999,141.5188 85.01219999999999,141.5188 85.8389765625,141.43830332031249 86.6650875,141.4629765625 87.47947968749999,141.5890896484375 88.27109999999999,141.81291249999998 89.0288953125,142.1307150390625 89.7418125,142.5387671875 90.39879843749999,143.03333886718752 90.9888,143.6107 93.9721,152.2751 94.67701230468751,152.65227031250004 95.3979921875,153.00899375 96.1312791015625,153.34386406250002 96.8731125,153.655475 97.6197318359375,153.94242031250002 98.36737656249998,154.20329375 99.1122861328125,154.43668906250002 99.8507,154.6412 99.8507,154.6412 100.5685248046875,154.81571308593752 101.3193296875,154.9720984375 102.09239785156251,155.1086251953125 102.87701249999999,155.2235625 103.6624568359375,155.31517949218747 104.4380140625,155.3817453125 105.19296738281251,155.4215291015625 105.9166,155.4328 125.74860000000001,155.4526 125.7484,139.4527 107.51650000000001,139.45 106.26064570312501,139.3256798828125 105.07537812500001,138.98962656249998 103.98214023437501,138.4606380859375 103.002375,137.75751249999996 102.157525390625,136.8990478515625 101.469034375,135.90404218749998 100.95834492187501,134.7912935546875 100.6469,133.5796 100.6469,133.5796 100.60963515625,133.3121064453125 100.58356875,133.03758281249998 100.56848046875,132.7586646484375 100.56415,132.47798749999998 100.57035703125001,132.19818691406252 100.58688125,131.9218984375 100.61350234375,131.65175761718749 100.65,131.3904 100.65,131.3904 100.9058822265625,129.77158496093747 101.2459953125,128.0768171875 101.66297636718751,126.3366626953125 102.1494625,124.58168749999999 102.6980908203125,122.84245761718749 103.3014984375,121.1495390625 103.95232246093751,119.53349785156249 104.64320000000001,118.0249 108.1422,110.8313 96.1756,105.752 92.2684,114.957 90.89139824218749,118.17683437499998 89.3331859375,121.29425624999999 87.6011775390625,124.30693124999999 85.7027875,127.21252499999999 83.6454302734375,130.00870312499998 81.4365203125,132.69313125 79.0834720703125,135.26347499999997 76.5937,137.7174 76.5937,137.7174 75.56211503906249,138.8751416015625 74.6818765625,140.1435890625 73.95904667968749,141.5042888671875 73.3996875,142.9387875 73.0098611328125,144.4286314453125 72.7956296875,145.95536718749997 72.7630552734375,147.5005412109375 72.9182,149.0457 72.9182,149.0457 72.9610953125,149.2938689453125 73.0097375,149.54772031250002 73.06364843749999,149.8043208984375 73.12235,150.06073750000002 73.18536406249999,150.31403691406248 73.25221249999998,150.56128593750003 73.3224171875,150.7995513671875 73.3955,151.0259 77.1695,161.9999 77.1978474609375,162.08683125 77.2249609375,162.17841249999998 77.2506845703125,162.27349999999998 77.27486250000001,162.37095 77.2973388671875,162.46961875 77.3179578125,162.5683625 77.3365634765625,162.66603749999996 77.353,162.76149999999998 77.353,162.76149999999998 77.41621679687499,163.4776541015625 77.37567812500001,164.18755156249998 77.236312890625,164.88018261718747 77.00304999999999,165.5445375 76.680818359375,166.1696064453125 76.274546875,166.7443796875 75.78916445312498,167.2578474609375 75.22959999999999,167.69899999999998" fill="none" stroke="black" stroke-width="0.1" id="_new_2_1"/>
        <polygon points="96.2487,143.491 100.0649,154.69650000000001 99.08569374999999,154.4271083984375 98.11546874999999,154.1183734375 97.156803125,153.77076738281252 96.21227499999999,153.38476250000002 95.2844625,152.9608310546875 94.37594374999999,152.49944531250003 93.48929687499998,152.00107753906252 92.6271,151.46620000000001 89.97279999999999,143.6878 89.4827796875,143.20830156250003 88.93713749999999,142.79756875 88.34505156249999,142.4586953125 87.71569999999998,142.194775 87.0582609375,142.0089015625 86.3819125,141.90416875000003 85.69583281249999,141.88367031250002 85.00919999999999,141.9505 85.00919999999999,141.9505 84.10810488281248,142.17805605468752 83.2742765625,142.54743593749998 82.52088808593749,143.0439947265625 81.86111249999999,143.6530875 81.30812285156249,144.3600693359375 80.87509218749999,145.1502953125 80.5751935546875,146.0091205078125 80.4216,146.9219 85.5548,161.9671 87.6243,172.89149999999998 87.6264271484375,172.90441054687497 87.6289046875,172.91948437499997 87.63161425781252,172.93599726562496 87.6344375,172.95322499999997 87.6372560546875,172.970443359375 87.6399515625,172.98692812499996 87.64240566406251,173.00195507812498 87.64450000000001,173.01479999999998 87.64450000000001,173.01479999999998 87.7260521484375,173.71305976562496 87.7450859375,174.416290625 87.7026923828125,175.11909492187496 87.5999625,175.81607499999996 87.4379873046875,176.501833203125 87.2178578125,177.170971875 86.9406650390625,177.81809335937498 86.6075,178.43779999999998 86.6075,178.43779999999998 85.80912910156249,179.62097832031247 84.8894890625,180.70393906249996 83.8608388671875,181.6783958984375 82.73543749999999,182.53606249999999 81.5255439453125,183.2686525390625 80.2434171875,183.86787968749996 78.90131621093751,184.32545761718748 77.5115,184.63309999999998 77.5115,184.63309999999998 77.0359984375,184.7011220703125 76.55165625000001,184.75189531249998 76.0620921875,184.7854302734375 75.57092499999999,184.8017375 75.08177343749999,184.80082753906248 74.59825624999999,184.7827109375 74.1239921875,184.74739824218747 73.6626,184.6949 75.6542,181.2043 74.9298927734375,180.70766152343748 74.26631093750001,180.13772343749997 73.6686892578125,179.5018392578125 73.1422625,178.80736249999998 72.6922654296875,178.0616466796875 72.3239328125,177.2720453125 72.04249941406249,176.44591191406252 71.8532,175.5906 71.8532,175.5906 71.75067949218752,174.4096763671875 71.82257968750001,173.2394859375 72.0607431640625,172.0997619140625 72.4570125,171.01023750000002 73.00323027343751,169.9906458984375 73.6912390625,169.0607203125 74.5128814453125,168.2401939453125 75.46000000000001,167.5488 75.46000000000001,167.5488 76.28800625000001,166.94473632812497 77.00640000000001,166.227453125 77.60801875000001,165.414249609375 78.0857,164.522425 78.43228125,163.569278515625 78.64060000000002,162.572109375 78.70349375,161.548216796875 78.61380000000001,160.5149 78.61380000000001,160.5149 78.59071484375,160.38125996093754 78.56453125000002,160.24456718750002 78.53550703125002,160.10640019531252 78.50390000000002,159.96833750000002 78.46996796875001,159.8319576171875 78.43396875000002,159.69883906249999 78.39616015625002,159.5705603515625 78.3568,159.4487 75.2485,150.4151 75.1863646484375,150.2227142578125 75.12667968750002,150.0201953125 75.06985175781251,149.8100380859375 75.0162875,149.59473749999998 74.9663935546875,149.3767884765625 74.9205765625,149.1586859375 74.87924316406252,148.9429248046875 74.84280000000001,148.732 74.84280000000001,148.732 74.70729335937502,146.50255722656252 75.010834375,144.3537078125 75.71623945312501,142.3371326171875 76.786325,140.5045125 78.183907421875,138.9075283203125 79.87180312500001,137.5978609375 81.812828515625,136.6271912109375 83.9698,136.0472 83.9698,136.0472 85.95804511718751,135.9081966796875 87.90090468750002,136.1256109375 89.75630253906252,136.6740166015625 91.48216250000002,137.52798750000002 93.03640839843752,138.6620974609375 94.37696406250001,140.0509203125 95.46175332031252,141.6690298828125 96.24870000000001,143.491" fill="none" stroke="black" stroke-width="0.1" id="_new_3_1"/>
        <polygon points="75.2488,174.303 75.3405021484375,173.3980400390625 75.60338593750001,172.5542578125 76.01911738281251,171.78998730468751 76.56936250000001,171.1235625 77.2357873046875,170.5733173828125 78.00005781250002,170.1575859375 78.8438400390625,169.89470214843752 79.7488,169.803 79.7488,169.803 80.6537599609375,169.89470214843752 81.49754218749999,170.1575859375 82.2618126953125,170.5733173828125 82.9282375,171.1235625 83.4784826171875,171.78998730468751 83.8942140625,172.5542578125 84.15709785156251,173.3980400390625 84.2488,174.303 84.2488,174.303 84.15709785156251,175.2079599609375 83.8942140625,176.0517421875 83.4784826171875,176.81601269531248 82.9282375,177.4824375 82.2618126953125,178.0326826171875 81.49754218749999,178.4484140625 80.6537599609375,178.71129785156248 79.7488,178.803 79.7488,178.803 78.8438400390625,178.71129785156248 78.00005781250002,178.4484140625 77.2357873046875,178.0326826171875 76.56936250000001,177.4824375 76.01911738281251,176.81601269531248 75.60338593750001,176.0517421875 75.3405021484375,175.2079599609375 75.2488,174.303" fill="none" stroke="black" stroke-width="0.1" id="_new_4_1"/>
        <line x1="96.2487" y1="143.491" x2="100.069" y2="154.697" fill="none" stroke="black" stroke-width="0.1" id="_tag_18_"/>
        <circle cx="85.7614" cy="146.97" r="5" fill="none" stroke="black" stroke-width="0.1" id="_tag_19_"/>
        <circle cx="85.7614" cy="146.97" r="2.5" fill="none" stroke="black" stroke-width="0.1" id="center_00"/>
    </g>
</svg>
