<?xml version="1.0" encoding="UTF-8"?>
<!DOCTYPE svg PUBLIC "-//W3C//DTD SVG 1.1//EN" "http://www.w3.org/Graphics/SVG/1.1/DTD/svg11.dtd">
<!-- Creator: CorelDRAW -->
<svg xmlns="http://www.w3.org/2000/svg" xml:space="preserve" width="297mm" height="210mm" style="shape-rendering:geometricPrecision; text-rendering:geometricPrecision; image-rendering:optimizeQuality; fill-rule:evenodd; clip-rule:evenodd"
viewBox="0 0 297 210">
 <defs>
  <style type="text/css">
   <![CDATA[
    .str1 {stroke:#1F1A17;stroke-width:0.0762}
    .str0 {stroke:#DA251D;stroke-width:0.0762}
    .fil1 {fill:none}
    .fil0 {fill:#DEDEDD}
   ]]>
  </style>
 </defs>
 <g id="Ebene_x0020_1">
  <metadata id="CorelCorpID_0Corel-Layer"/>
  <polygon class="fil0 str0" points="25.7825,140.999 26.4075,141.466 27.2795,141.809 28.0225,141.895 139.772,141.895 139.772,104.895 139.772,67.8948 28.0225,67.895 27.2795,67.9805 26.4075,68.324 25.7825,68.7905 25.2905,69.3835 24.9285,70.1469 24.7715,71.1462 24.7715,104.895 24.7715,138.644 24.9285,139.643 25.2905,140.406 "/>
  <polygon class="fil0 str0" points="132.274,142.395 149.772,142.395 149.772,104.895 149.772,104.895 149.772,104.895 149.772,67.3947 132.274,67.3947 132.274,104.895 132.274,104.895 132.274,104.895 "/>
  <polygon class="fil0 str0" points="234.951,133.122 235.347,133.458 235.779,133.695 236.324,133.856 236.756,133.895 253.335,133.895 254.099,133.8 254.725,133.471 255.229,133.025 255.566,132.522 255.771,131.956 257.772,122.895 257.772,104.895 257.768,104.893 257.772,104.895 257.772,86.8944 255.771,77.8337 255.566,77.2675 255.229,76.7653 254.725,76.3186 254.099,75.9902 253.335,75.8945 236.756,75.8945 236.324,75.934 235.779,76.0949 235.347,76.3319 234.951,76.6679 234.772,76.8944 233.333,78.1315 232.163,78.8642 230.947,79.3945 229.533,79.7521 228.387,79.8733 227.272,79.8944 226.141,79.8725 224.735,79.7022 223.418,79.3303 222.221,78.7779 220.834,77.8458 219.772,76.894 219.158,73.8337 218.766,72.3198 218.306,70.9658 217.645,69.6275 217.098,68.907 216.503,68.3963 215.704,68.0216 214.772,67.894 179.772,67.8944 178.708,68.027 177.515,68.5503 176.83,69.123 176.144,69.6957 174.941,71.0159 173.565,72.4916 172.456,73.4739 171.037,74.4275 169.601,75.0972 167.786,75.6139 166.2,75.8363 164.018,75.8621 161.558,75.5721 159.894,75.0789 158.326,74.3237 157.29,73.6301 156.055,72.5667 154.102,70.4602 152.464,68.854 151.162,68.1275 149.772,67.8944 149.772,104.895 149.772,141.896 151.162,141.662 152.464,140.936 154.102,139.33 156.055,137.223 157.29,136.16 158.326,135.466 159.894,134.711 161.558,134.218 164.018,133.928 166.2,133.954 167.786,134.176 169.601,134.693 171.037,135.363 172.456,136.316 173.565,137.298 174.941,138.774 176.144,140.094 176.83,140.667 177.515,141.24 178.708,141.763 179.772,141.896 214.772,141.896 215.704,141.768 216.503,141.394 217.098,140.883 217.645,140.162 218.306,138.824 218.766,137.47 219.158,135.956 219.772,132.896 220.834,131.944 222.221,131.012 223.418,130.46 224.735,130.088 226.141,129.917 227.272,129.896 228.387,129.917 229.533,130.038 230.947,130.396 232.163,130.926 233.333,131.659 234.772,132.896 "/>
  <polygon class="fil0 str0" points="106.165,154.895 106.165,156.189 107.149,156.386 107.906,156.503 108.854,156.62 109.768,156.689 110.772,156.71 111.775,156.689 112.69,156.62 113.636,156.503 114.393,156.386 115.378,156.189 115.378,154.895 "/>
  <circle id="center_00" class="fil0 str0" cx="46.7715" cy="156.189" r="2.5925"/>
  <polygon class="fil0 str0" points="42.1645,154.895 42.1645,156.189 43.1495,156.386 43.9065,156.503 44.8535,156.62 45.7675,156.689 46.7715,156.71 47.7755,156.689 48.6895,156.62 49.6355,156.503 50.3935,156.386 51.3775,156.189 51.3775,154.895 "/>
  <rect class="fil0 str0" x="236.756" y="75.8945" width="5.9344" height="58.0006"/>
  <rect class="fil0 str0" x="101.772" y="146.895" width="18" height="8.0005"/>
  <rect class="fil0 str0" x="37.7715" y="146.895" width="18" height="8.0005"/>
  <polygon class="fil0 str0" points="109.81,65.2956 112.119,89.2746 112.209,90.8314 112.201,91.0498 112.165,91.2728 112.069,91.5418 111.881,91.8328 111.683,92.0298 111.423,92.1968 111.137,92.3018 110.862,92.3418 109.986,92.3318 24.2905,84.1765 23.4515,84.1616 22.3785,84.3297 21.5495,84.6206 20.9995,84.9074 20.3975,85.3317 19.8225,85.8927 19.5795,86.1993 19.2875,86.6849 19.2745,86.6842 19.2355,86.7698 19.1945,86.838 19.1995,86.8506 19.0095,87.2769 18.8325,87.9483 18.7715,88.6525 18.7715,90.8571 18.7715,143.895 18.8225,143.895 18.8055,144.35 19.0195,145.091 19.3385,145.65 19.9705,146.295 20.5285,146.626 21.3665,146.868 21.7715,146.895 154.155,146.895 154.809,146.868 155.342,146.808 156.013,146.63 156.548,146.378 167.34,141.582 167.933,141.233 168.485,140.69 168.914,139.943 169.123,138.84 169.025,138.081 168.78,137.447 168.287,136.764 167.385,136.118 166.515,135.866 165.674,135.874 164.905,136.099 154.112,140.895 154.111,140.895 25.6955,140.895 25.3535,140.795 25.1245,140.649 24.9605,140.472 24.8835,140.346 24.8285,140.22 24.7715,139.843 24.7715,93.4398 24.7715,91.8808 24.8365,91.4798 25.0155,91.0998 25.2305,90.8395 25.5245,90.6185 25.9605,90.4516 26.3675,90.4079 111.546,98.5066 112.991,98.6446 113.102,98.6116 113.093,98.6506 114.047,98.6416 114.75,98.5166 115.548,98.2406 116.351,97.7926 117.089,97.1726 117.594,96.5716 118.013,95.8686 118.281,95.2096 118.501,94.1426 118.524,93.1788 118.414,92.0378 115.762,64.5021 115.356,63.3423 114.719,62.5986 113.953,62.13 112.787,61.8951 111.477,62.1955 110.546,62.9008 109.953,63.9119 "/>
  <polygon class="fil0 str0" points="274.176,95.6986 273.762,95.4766 273.272,95.3946 272.72,95.4996 272.328,95.7286 272.071,95.9946 271.852,96.4076 271.772,96.8946 271.772,104.895 271.772,112.895 271.852,113.382 272.071,113.795 272.328,114.061 272.72,114.29 273.272,114.395 273.762,114.313 274.176,114.092 274.475,113.79 274.675,113.425 274.772,112.895 274.772,104.895 274.772,96.8946 274.675,96.3646 274.475,95.9996 "/>
  <polygon class="fil0 str0" points="259.772,86.8944 257.772,86.8944 257.772,104.895 257.773,104.893 257.772,104.895 257.772,122.895 259.772,122.895 261.471,113.395 261.471,104.895 261.471,96.3946 "/>
  <polygon class="fil0 str0" points="271.772,113.395 261.471,113.395 261.471,104.895 261.471,96.3946 271.772,96.3946 271.772,104.895 "/>
  <rect class="fil0 str0" x="242.691" y="75.8945" width="0.9585" height="58.0006"/>
  <line class="fil1 str1" x1="219.772" y1="79.8948" x2="219.772" y2= "129.895" />
  <line class="fil1 str1" x1="175.015" y1="74.8948" x2="175.015" y2= "134.895" />
 </g>
</svg>
