<?xml version="1.0" encoding="UTF-8"?>
<!DOCTYPE svg PUBLIC "-//W3C//DTD SVG 1.1//EN" "http://www.w3.org/Graphics/SVG/1.1/DTD/svg11.dtd">
<!-- Creator: CorelDRAW -->
<svg xmlns="http://www.w3.org/2000/svg" xml:space="preserve" width="297mm" height="210mm" style="shape-rendering:geometricPrecision; text-rendering:geometricPrecision; image-rendering:optimizeQuality; fill-rule:evenodd; clip-rule:evenodd"
viewBox="0 0 297 210">
 <defs>
  <style type="text/css">
   <![CDATA[
    .str0 {stroke:#1F1A17;stroke-width:0.0762}
    .fil1 {fill:none}
    .fil0 {fill:#838281}
    .fil2 {fill:#DEDEDD}
   ]]>
  </style>
 </defs>
 <g id="Ebene_x0020_1">
  <metadata id="CorelCorpID_0Corel-Layer"/>
  <polygon class="fil0 str0" points="109.18995098081606,-5.0  106.53008790568173,-3.7422694614463903  105.01036052268209,-3.1127777682981694  103.8990544464352,-1.8999999999999997  103.44768151936968,-0.6598630751343351  103.44768151936968,0.6598630751343351  103.8990544464352,1.8999999999999997  105.01036052268209,3.1127777682981694  106.53008790568173,3.7422694614463903  109.18995098081606,5.0  109.01492305319975,7.9493362551820255  106.2249735226476,8.883648463731866  104.64146098161757,9.328978838602195  103.39451598373988,10.401806542685838  102.79963627343099,11.57985375819368  102.64354807689088,12.890316877325164  102.9450779342387,14.175134707537202  103.90514478755725,15.510837798624646  105.33975337135269,16.315654126541766  107.8321913439861,17.879147215317197  107.30956456957495,20.78708125450127  104.42869335936915,21.384859437676923  102.80362470528247,21.6397770319824  101.43854516020707,22.55759452255351  100.70850947379515,23.657014828109144  100.39852421684478,24.93981888648142  100.54597818623932,26.251281596059073  101.34132858250146,27.69115966643421  102.670679607277,28.66000277205542  104.96070411176511,30.507310395305378  104.09781502485986,33.333021198851384  101.1664632518441,33.58587386130699  99.52265088640976,33.646800190809834  98.05859951865821,34.39672332218154  97.20365595692252,35.402083266654  96.74412515307343,36.63922050722869  96.7354333040075,37.958918034491205  97.35490226707924,39.48275835229762  98.56033455842044,40.60202780215028  100.61579867051587,42.70721781019259  99.42476034242044,45.41103859245321  96.48407775988557,45.31541623706778  94.8445972054331,45.181496029653914  93.30212608696846,45.75299752491355  92.33427618345637,46.65018405845861  91.73165063789065,47.82428778621633  91.56693498487235,49.13369447069359  92.0018265284049,50.72010565816846  93.06641845928148,51.97408936264553  94.85846796848331,54.30760950240068  93.35599996653596,56.851584546441224  90.44726731188501,56.40882950147758  88.83513328161324,56.08194270330239  87.23589532580037,56.46699993420323  86.16872557160404,57.24341852454706  85.43146482600994,58.3380068968172  85.11303761574649,59.618741538913994  85.35724681576268,61.24545386044138  86.26605384907941,62.616548637098184  87.76953230849944,65.14564140094325  85.976725989997,67.49405887360744  83.14077549368069,66.71038644936584  81.57861881553325,66.19512183453101  79.94506381769892,66.38832944160707  78.79355493690231,67.03308087367178  77.93200851605249,68.03278826907497  77.46433976857494,69.26687216182123  77.5144384632197,70.91105014220426  78.25470294035843,72.38000882585335  79.44850480809178,75.06917129522365  77.39052724386616,77.18906456298993  74.6671694343726,76.07547580247558  73.17691936382101,75.37906655669941  71.53197885533811,75.37771232866363  70.312295508489,75.8817457056556  69.33855763559916,76.77253842374603  68.72821239497955,77.94264773443282  68.58349730839775,79.58121071890953  69.14482753877918,81.12741234962962  70.01219445344888,83.93889457817203  67.7179351373593,85.80050498642426  65.14539998865985,84.37263223481811  63.7479763700262,83.50485441736343  62.114741709879766,83.30895736460893  60.84400557758906,83.66519716276999  59.771745397934815,84.43457042642736  59.02729157345818,85.52427938524393  58.68979418824606,87.13422554128658  59.06431032588668,88.73596483749814  59.59306635730249,91.63029977756898  57.09473166106845,93.20749439687565  54.70913192758424,91.4853818576746  53.424151525283825,90.45841716690602  51.825549748007774,90.07072725464182  50.52159918008488,90.27417264809306  49.36586887616527,90.91132614318263  48.49775696766435,91.90533762501866  47.9722150073069,93.46406683764194  48.15465966658374,95.098858890682  48.33738223911208,98.0354164241831  45.670043305451486,99.30605489934239  43.504867578141535,97.31387725767956  42.35036870031085,96.1421420267211  40.808840670679835,95.56810157148867  39.48998027480349,95.61589663286381  38.26700376669349,96.11188612097222  37.28742016243887,96.99624638352277  36.581211084057315,98.48187751135802  36.56902314187774,100.12677342431026  36.403147231133154,103.06433072048476  33.60424765179553,104.01057607257931  31.68989025174754,101.77629913563642  30.68207953193859,100.47624195865545  29.219264924417512,99.72390923013403  27.904008609568177,99.61538302153944  26.63095380664408,99.963245897476  25.55364971316575,100.72554046119647  24.676687144191177,102.11721849975248  24.470037692547102,103.74912753965536  23.957891832711944,106.64644773327  21.066722022527696,107.25501675175181  19.430056331315168,104.81000487012807  18.583081222885724,103.39987570012893  17.219514748035014,102.47981180069326  15.926325829795779,102.21648779220524  14.621063630920094,102.41134082371663  13.461162036210792,103.04086874390269  12.425756608785948,104.319057584114  12.027546552997265,105.91507132523603  11.176320149306056,108.73148239177662  8.233465794887739,108.99383210162597  6.897467011199859,106.37240788260723  6.223217188079936,104.87200184209543  4.978040330231922,103.79712245208867  3.7250723463097932,103.38269713557304  2.4059257715847107,103.42180501321997  1.179709151498504,103.9097290978144  0.00039568818774382564,105.05648577018894  -0.5837849754494799,106.59419967811003  -1.7621425702002043,109.29016537985156  -4.715370244532814,109.20261296621976  -5.7319476263185205,106.44157545960832  -6.22400717458616,104.87195496046205  -7.333314861808626,103.6573490303552  -8.528472987459073,103.09764002882434  -9.842986011729367,102.98045376373015  -11.118304263746449,103.31992462812806  -12.424970787005236,104.31915118270733  -13.18692144251334,105.7769791248707  -14.675868670684983,108.31465401299042  -17.59801282193918,107.87842851984766  -18.280898283747543,105.01653663996746  -18.583860119713055,103.39973571334416  -19.541726388013807,102.06245364794691  -20.662297255127363,101.36531804888504  -21.9537238475302,101.0934826793362  -23.260241058751923,101.27973489673073  -24.675917908220523,102.11740438302004  -25.60494243861261,103.47488165071601  -27.383577744934218,105.81864233243667  -30.233617874645386,105.03986740948858  -30.573225201496015,102.11729584498877  -30.682836405082973,100.47601083182691  -31.475814911723827,99.03482513997898  -32.506068161647846,98.21004919905687  -33.7562795236679,97.78738069777135  -35.075655056369754,97.8177996953002  -36.580469232283555,98.48215306990622  -37.663526169599805,99.72022365792319  -39.7068814131873,101.8371688708602  -42.444809205299265,100.72677681092927  -42.43637105475162,97.78455206021957  -42.35109292493238,96.14182300436279  -42.96805198991042,94.61696477405974  -43.893525125358956,93.67612653755675  -45.08497102997055,93.10855824379185  -46.398683743780246,92.98271700540896  -47.971510953702776,93.46442820323279  -49.19339655263336,94.56571231439919  -51.4727875049567,96.42612478816406  -54.060168454879964,94.99970306176233  -53.70380328007107,92.0791275109065  -53.42483293485635,90.45801472739255  -53.85711180529023,88.87088962565736  -54.66481321210371,87.82719640007117  -55.78076837048775,87.12269572854629  -57.07037661859717,86.84236078939115  -58.68913781618088,87.1346676411393  -60.03269948132307,88.08370566057891  -62.51612848989823,89.66146928211442  -64.91664144070488,87.93904172352559  -64.21735182752695,85.08111385127707  -63.74860539905301,83.50437421006345  -63.99013582716882,81.87726199430335  -64.6687271480989,80.74536494471742  -65.69352599603553,79.91382154057624  -66.94092650549739,79.48292818869285  -68.5828978318965,79.58172734691128  -70.02927490259519,80.36519686114818  -72.6818800678853,81.63816328770848  -74.86182707973526,79.64390900424733  -73.82942952149561,76.88874785327735  -73.17748718211338,75.37851532267076  -73.22487861014159,73.73425708172107  -73.76483391053294,72.53004556156264  -74.68409051858393,71.5831324714337  -75.87177252058098,71.00772950495261  -77.51390429761841,70.91163404603039  -79.04279281029864,71.51853686047103  -81.82733737036524,72.46883643380403  -83.75611676571499,70.23075038415104  -82.40510386108792,67.61703237763149  -81.5791174521671,66.19450731189112  -81.43170460834149,64.55618482719623  -81.82544409937321,63.296563326544145  -82.62625411979685,62.24757313455375  -83.73754516245215,61.535737949825496  -85.3567854595755,61.246096843362025  -86.9467231708842,61.667913372839045  -89.82411822390094,62.28220597001751  -91.47465416797624,59.831705976364745  -89.82399117668591,57.39612198576663  -88.8355557368232,56.081273518602075  -88.49540797433814,54.47188524659995  -88.73740441664378,53.174536090198956  -89.40852623215054,52.0381943192278  -90.42782622520518,51.199919521884006  -92.00144445806139,50.72079869411291  -93.6301121277182,50.951607559185675  -96.55996535446845,51.221269858691194  -97.90908794063397,48.59275556938729  -95.98194655278019,46.36949585507265  -94.84493754887406,45.180781576779516  -94.31682979670175,43.622919800986466  -94.40368609069408,42.30605492716802  -94.9356986221114,41.09831332478864  -95.84869882799605,40.145366455463  -97.35460484600951,39.48349171256037  -98.99913955001603,39.52005286270254  -101.9403222335137,39.441299396957106  -102.96909273797283,36.671669390849495  -100.79252579429505,34.69194364576191  -99.52290434040587,33.6460504991136  -98.81425007376035,32.16158418398663  -98.74474694746304,30.843689488975734  -99.13018190503568,29.581502099883313  -99.92406580218086,28.527260443735848  -101.34111998584535,27.69192305624471  -102.97843606182187,27.533723253051313  -105.8896604443426,27.10765954808427  -106.5836371843055,24.235793359354815  -104.18819891359936,22.527392593342967  -102.80378771189521,21.63900262549237  -101.92453488329086,20.248770424105565  -101.69964800824441,18.948346260559376  -101.93309473005189,17.649431428947885  -102.59671792875663,16.508694227904698  -103.9050279435546,15.511620501663295  -105.51214106283548,15.160880523592922  -108.35253993553123,14.393487579878848  -108.70198099878456,11.459699914609068  -106.12129810350537,10.046606329567098  -104.64153125259135,9.328190588288006  -103.60402264439581,8.05170831332227  -103.22690893936776,6.787009785932054  -103.30509034515744,5.469601428780895  -103.82913703039193,4.258382132617849  -105.01033707156651,3.1135687971300454  -106.56468688879248,2.5752122646432944  -109.29438727772171,1.4772625969658542  -109.29438727772173,-1.4772625969657778  -106.5646868887925,-2.57521226464322  -105.01033707156652,-3.1135687971299717  -103.82913703039193,-4.258382132617777  -103.30509034515745,-5.469601428780823  -103.22690893936777,-6.787009785931982  -103.60402264439583,-8.051708313322198  -104.64153125259138,-9.328190588287935  -106.12129810350538,-10.046606329567023  -108.70198099878459,-11.459699914608992  -108.35253993553124,-14.393487579878775  -105.5121410628355,-15.160880523592851  -103.90502794355461,-15.511620501663224  -102.59671792875665,-16.508694227904627  -101.9330947300519,-17.649431428947818  -101.69964800824442,-18.94834626055931  -101.92453488329087,-20.248770424105498  -102.80378771189523,-21.6390026254923  -104.1881989135994,-22.5273925933429  -106.58363718430552,-24.235793359354744  -105.88966044434261,-27.107659548084158  -102.97843606182188,-27.5337232530512  -101.34111998584538,-27.691923056244597  -99.92406580218089,-28.527260443735734  -99.13018190503571,-29.581502099883203  -98.74474694746307,-30.843689488975624  -98.81425007376038,-32.16158418398652  -99.52290434040592,-33.64605049911349  -100.79252579429507,-34.6919436457618  -102.96909273797286,-36.67166939084938  -101.94032223351374,-39.44129939695699  -98.99913955001608,-39.52005286270242  -97.35460484600955,-39.48349171256026  -95.8486988279961,-40.14536645546289  -94.93569862211145,-41.098313324788535  -94.40368609069414,-42.30605492716791  -94.31682979670181,-43.62291980098636  -94.84493754887413,-45.1807815767794  -95.98194655278024,-46.369495855072536  -97.90908794063402,-48.59275556938718  -96.55996535446849,-51.22126985869113  -93.63011212771825,-50.95160755918562  -92.00144445806143,-50.72079869411285  -90.42782622520522,-51.19991952188395  -89.40852623215058,-52.03819431922774  -88.73740441664383,-53.174536090198906  -88.49540797433818,-54.4718852465999  -88.83555573682324,-56.08127351860202  -89.82399117668595,-57.39612198576657  -91.47465416797628,-59.83170597636469  -89.82411822390097,-62.28220597001744  -86.94672317088423,-61.66791337283898  -85.35678545957553,-61.24609684336197  -83.73754516245216,-61.535737949825446  -82.62625411979688,-62.24757313455369  -81.82544409937324,-63.29656332654409  -81.43170460834152,-64.55618482719619  -81.57911745216713,-66.19450731189106  -82.40510386108795,-67.61703237763143  -83.75611676571503,-70.23075038415098  -81.82733737036533,-72.46883643380392  -79.04279281029872,-71.51853686047092  -77.51390429761848,-70.91163404603029  -75.87177252058106,-71.00772950495251  -74.68409051858401,-71.5831324714336  -73.76483391053301,-72.53004556156255  -73.22487861014167,-73.73425708172097  -73.17748718211347,-75.37851532267067  -73.8294295214957,-76.88874785327725  -74.86182707973536,-79.64390900424723  -72.6818800678854,-81.63816328770841  -70.02927490259529,-80.3651968611481  -68.5828978318966,-79.58172734691121  -66.94092650549747,-79.48292818869278  -65.69352599603563,-79.91382154057617  -64.668727148099,-80.74536494471735  -63.99013582716891,-81.87726199430328  -63.74860539905311,-83.50437421006339  -64.21735182752705,-85.08111385127701  -64.91664144070498,-87.93904172352552  -62.51612848989837,-89.66146928211433  -60.032699481323206,-88.08370566057881  -58.68913781618102,-87.13466764113919  -57.07037661859731,-86.84236078939105  -55.780768370487884,-87.12269572854619  -54.664813212103844,-87.82719640007107  -53.85711180529037,-88.87088962565727  -53.42483293485649,-90.45801472739247  -53.70380328007121,-92.0791275109064  -54.06016845488011,-94.99970306176223  -51.472787504956806,-96.42612478816402  -49.193396552633466,-94.56571231439915  -47.97151095370288,-93.46442820323273  -46.39868374378035,-92.98271700540892  -45.08497102997066,-93.1085582437918  -43.89352512535906,-93.67612653755673  -42.96805198991053,-94.6169647740597  -42.35109292493249,-96.14182300436275  -42.436371054751724,-97.78455206021953  -42.44480920529938,-100.72677681092922  -39.70688141318737,-101.83716887086017  -37.663526169599876,-99.72022365792316  -36.580469232283626,-98.48215306990619  -35.07565505636982,-97.81779969530017  -33.75627952366796,-97.78738069777133  -32.50606816164792,-98.21004919905684  -31.475814911723894,-99.03482513997895  -30.682836405083044,-100.47601083182688  -30.573225201496086,-102.11729584498875  -30.233617874645457,-105.03986740948855  -27.38357774493436,-105.81864233243664  -25.604942438612753,-103.47488165071599  -24.67591790822066,-102.11740438302002  -23.260241058752058,-101.2797348967307  -21.953723847530338,-101.09348267933618  -20.6622972551275,-101.36531804888502  -19.541726388013945,-102.06245364794688  -18.583860119713194,-103.39973571334414  -18.280898283747685,-105.01653663996744  -17.598012821939324,-107.87842851984763  -14.675868670685082,-108.31465401299042  -13.186921442513437,-105.7769791248707  -12.42497078700533,-104.31915118270732  -11.118304263746543,-103.31992462812806  -9.842986011729462,-102.98045376373015  -8.528472987459168,-103.09764002882434  -7.33331486180872,-103.6573490303552  -6.224007174586255,-104.87195496046205  -5.731947626318618,-106.44157545960833  -4.715370244532913,-109.20261296621977  -1.7621425702003526,-109.29016537985156  -0.5837849754496247,-106.59419967811002  0.000395688187601273,-105.05648577018894  1.1797091514983629,-103.9097290978144  2.4059257715845703,-103.42180501321997  3.725072346309653,-103.38269713557304  4.978040330231781,-103.79712245208869  6.2232171880797935,-104.87200184209544  6.897467011199714,-106.37240788260723  8.23346579488759,-108.99383210162597  11.176320149305933,-108.73148239177665  12.027546552997146,-105.91507132523604  12.42575660878583,-104.31905758411402  13.461162036210677,-103.04086874390272  14.621063630919979,-102.41134082371666  15.926325829795664,-102.21648779220527  17.2195147480349,-102.47981180069328  18.58308122288561,-103.39987570012896  19.43005633131505,-104.8100048701281  21.066722022527575,-107.25501675175184  23.95789183271187,-106.64644773327002  24.47003769254703,-103.74912753965539  24.676687144191106,-102.11721849975251  25.55364971316568,-100.7255404611965  26.630953806644012,-99.96324589747603  27.90400860956811,-99.61538302153947  29.219264924417445,-99.72390923013405  30.682079531938523,-100.47624195865548  31.689890251747467,-101.77629913563645  33.60424765179546,-104.01057607257935  36.40314723113301,-103.0643307204848  36.56902314187761,-100.1267734243103  36.58121108405718,-98.48187751135806  37.28742016243874,-96.99624638352282  38.267003766693364,-96.11188612097226  39.489980274803365,-95.61589663286385  40.80884067067971,-95.56810157148871  42.350368700310725,-96.14214202672116  43.5048675781414,-97.31387725767961  45.67004330545135,-99.30605489934243  48.33738223911199,-98.03541642418313  48.15465966658364,-95.09885889068204  47.97221500730681,-93.46406683764198  48.497756967664266,-91.9053376250187  49.36586887616519,-90.91132614318268  50.52159918008479,-90.2741726480931  51.82554974800768,-90.07072725464187  53.42415152528373,-90.45841716690606  54.70913192758415,-91.48538185767464  57.09473166106836,-93.20749439687569  59.59306635730245,-91.63029977756901  59.064310325886645,-88.73596483749817  58.689794188246026,-87.13422554128661  59.02729157345814,-85.52427938524396  59.77174539793478,-84.43457042642738  60.84400557758903,-83.66519716277001  62.11474170987973,-83.30895736460896  63.747976370026166,-83.50485441736346  65.1453999886598,-84.37263223481814  67.71793513735926,-85.80050498642429  70.0121944534488,-83.9388945781721  69.1448275387791,-81.1274123496297  68.58349730839767,-79.58121071890959  68.72821239497947,-77.9426477344329  69.33855763559907,-76.7725384237461  70.31229550848892,-75.88174570565567  71.53197885533802,-75.3777123286637  73.17691936382093,-75.37906655669948  74.66716943437251,-76.07547580247565  77.39052724386607,-77.18906456299  79.44850480809173,-75.06917129522371  78.25470294035837,-72.38000882585341  77.51443846321965,-70.91105014220432  77.46433976857489,-69.26687216182127  77.93200851605243,-68.03278826907503  78.79355493690225,-67.03308087367184  79.94506381769887,-66.38832944160713  81.57861881553319,-66.19512183453107  83.14077549368064,-66.7103864493659  85.97672598999695,-67.49405887360751  87.76953230849935,-65.14564140094335  86.26605384907934,-62.61654863709828  85.35724681576261,-61.24545386044148  85.11303761574642,-59.618741538914094  85.43146482600987,-58.338006896817305  86.16872557160397,-57.24341852454716  87.2358953258003,-56.46699993420333  88.83513328161318,-56.081942703302495  90.44726731188496,-56.40882950147769  93.35599996653589,-56.85158454644134  94.85846796848327,-54.30760950240076  93.06641845928144,-51.97408936264561  92.00182652840486,-50.720105658168535  91.5669349848723,-49.13369447069366  91.73165063789061,-47.82428778621641  92.33427618345632,-46.650184058458684  93.30212608696843,-45.752997524913624  94.84459720543306,-45.18149602965399  96.48407775988554,-45.31541623706786  99.4247603424204,-45.41103859245329  100.61579867051587,-42.70721781019263  98.56033455842044,-40.602027802150324  97.35490226707924,-39.482758352297665  96.7354333040075,-37.95891803449125  96.74412515307343,-36.639220507228735  97.20365595692252,-35.40208326665404  98.05859951865821,-34.396723322181586  99.52265088640976,-33.64680019080987  101.1664632518441,-33.585873861307036  104.09781502485986,-33.33302119885143  104.9607041117651,-30.507310395305478  102.67067960727698,-28.66000277205552  101.34132858250143,-27.691159666434306  100.54597818623931,-26.25128159605917  100.39852421684476,-24.939818886481515  100.70850947379513,-23.65701482810924  101.43854516020706,-22.557594522553607  102.80362470528247,-21.639777031982497  104.42869335936913,-21.384859437677022  107.30956456957495,-20.787081254501373  107.83219134398608,-17.87914721531726  105.33975337135269,-16.315654126541833  103.90514478755725,-15.51083779862471  102.9450779342387,-14.175134707537266  102.64354807689088,-12.890316877325228  102.79963627343099,-11.579853758193744  103.39451598373988,-10.401806542685902  104.64146098161757,-9.32897883860226  106.2249735226476,-8.883648463731932  109.01492305319975,-7.949336255182092  "/>
  <polygon class="fil0 str0" points="80.9147605181788,-5.0  78.25489744304446,-3.7422694614463903  76.73517006004482,-3.1127777682981694  75.62386398379793,-1.8999999999999997  75.17249105673241,-0.6598630751343351  75.17249105673241,0.6598630751343351  75.62386398379793,1.8999999999999997  76.73517006004482,3.1127777682981694  78.25489744304446,3.7422694614463903  80.9147605181788,5.0  80.66899202504099,8.044389061830424  77.84181931148547,8.859160277448929  76.24079443017041,9.23671880243768  74.94933624053128,10.255525386042034  74.30487652176691,11.407197554062567  74.09317755962083,12.709833597295379  74.3397733732718,14.006316384066103  75.24214509249387,15.38165502990201  76.64121483623447,16.24677638701393  79.0648792164634,17.91489168820955  78.33393901192603,20.880432672482552  75.4126789481849,21.231142418661054  73.77182227200085,21.346989208015493  72.33366005770937,22.14543805156515  71.51280471544302,23.178817758534365  71.09488968307011,24.430626105454813  71.13032168126377,25.7498765309643  71.80038808992722,27.252155505842936  73.0425650229434,28.330500338196693  75.16725907391131,30.365797091954008  73.97007812532671,33.17568404490389  71.03038981258358,33.05324912343572  69.39219866754132,32.90438380616308  67.8445800745158,33.46179550401598  66.86858883093673,34.350118758332755  66.25528150815477,35.51867823030026  66.07863202074948,36.82652840149818  66.49903875083963,38.41683946908101  67.5521511430518,39.680479211947116  69.32284640488902,42.030244301435985  67.69043106997525,44.61170262694705  64.80845089138298,44.01929403798612  63.21535356763691,43.609572147608425  61.59836110451007,43.91151002958506  60.492511620162354,44.63176972557732  59.69969634447588,45.686815246083974  59.31554050040575,46.94939253051837  59.47539923844274,48.58654746950697  60.31217203206708,50.002754517304595  61.68300842759546,52.606130260982056  59.65763740605853,54.892301544401214  56.908007134408116,53.84526235922371  55.40126401582776,53.18529547748473  53.756776938027535,53.22393951104258  52.54971013367978,53.75748130091913  51.597920404282384,54.67168774517371  51.01620763812104,55.856292054379054  50.911378126759644,57.497889411811535  51.510139345977805,59.02998474590205  52.44561293262038,61.8195450794972  50.079742270039645,63.75121868545441  47.533675885052546,62.27666666897206  46.15231082695339,61.38354759144418  44.522920485985495,61.157896916412874  43.245898757827305,61.490902348072524  42.15978542875824,62.24059224937938  41.3955817955896,63.31654295399127  41.02877906410968,64.92006622060153  41.3740211078587,66.52836937660463  41.84990361110308,69.43186615276596  39.20480811490469,70.95901274952837  36.928247398564935,69.09513802442153  35.70803703035407,67.99199806607886  34.13594378017022,67.50789691641288  32.82204132017224,67.63174132409533  31.629734156145325,68.1974981078046  30.70283212865077,69.13692864974448  30.08355617512504,70.66084741521931  30.16633745581913,72.3037041861973  30.17030376880086,75.2459383635589  27.314490022931665,76.32900565644356  25.366396701970153,74.12408159904417  24.33894383123724,72.83949150535504  22.86486406123462,72.10947784654408  21.5481102529496,72.02095372514285  20.280489383222996,72.38812458773482  19.214895237035407,73.1667042094266  18.35918498336949,74.57154977821791  18.177361509321674,76.20641103675538  17.70930890661794,79.11118029560808  14.716740987006041,79.72211741063832  13.147569655149338,77.23325039583972  12.339484771550204,75.80048037546655  11.001596373473408,74.8434611778153  9.716094448876985,74.54486125557509  8.405990588126015,74.70393666457461  7.229302651900803,75.30150056278552  6.159320544180746,76.55088817259302  5.7176014478613855,78.13541187084697  4.7896522460255,80.92748421319155  1.737836089865175,81.05046819999862  0.5882274603606099,78.34211857614241  0.02043953791301556,76.79827662001343  -1.1466068814881978,75.63903817804199  -2.3675630977920603,75.1380960361015  -3.6862189477398353,75.08495602197395  -4.943525074540162,75.4860276056262  -6.200067061760148,76.54759877362899  -6.890241487780746,78.04074658012662  -8.254053891850521,80.64780879890446  -11.286077849159856,80.27965443683055  -11.98634951666974,77.42196703654403  -12.299135069019673,75.80703784038009  -13.265113620504085,74.4756038208156  -14.389902003851901,73.78529359751832  -15.682957349140874,73.52131445871643  -16.9883180982647,73.71550618446665  -18.39887618754675,74.56176677503112  -19.31963078816659,75.9248669458986  -21.08398436958253,78.27939749907011  -24.017688300195545,77.42963979271036  -24.250486337358023,74.49662721858684  -24.300168538103115,72.85243660028533  -25.04006088459246,71.38329044486443  -26.03955000667967,70.52149081239044  -27.27351539307757,70.05350946994733  -28.593122606797035,70.03579187410278  -30.121164084560807,70.64482418245356  -31.248651799273972,71.84257313926898  -33.36785072704969,73.88359092228501  -36.12725324016722,72.57423814987693  -35.88654830010296,69.6418638869456  -35.67184040634078,68.01099551986695  -36.16648372470854,66.44218734230805  -37.01478734228056,65.43121845845593  -38.15770371445187,64.7713553833216  -39.45738025908941,64.54218734230805  -41.063329653704066,64.89821775156878  -42.368349142941526,65.8995944254992  -44.7875072780116,67.57423814987693  -47.301141297991336,65.83920186045457  -46.59316751221152,62.983412861820035  -46.119630345609636,61.40810538001586  -46.35621363373428,59.78026648806073  -47.03136112868937,58.646311915884745  -48.05362755294119,57.81165721509504  -49.29971248867936,57.376974060798304  -50.941976554390784,57.47078157038331  -52.39072849887648,58.249850831572886  -55.04719091626788,59.51474810450079  -57.24995464234351,57.39896482658757  -56.09304816001832,54.693724527237556  -55.3729460844541,53.21477756701564  -55.34534195944467,51.57006813290151  -55.82984736630216,50.34249670018208  -56.704987679218206,49.35466749206351  -57.86520806075969,48.72572728985132  -59.50125302090756,48.55488233453717  -61.05621550627368,49.09146669834735  -63.881181224751465,49.91385734487656  -65.7160242334762,47.472124754000575  -64.14014832480285,44.9874974566909  -63.1921316057812,43.6432149674659  -62.901054999975656,42.024232101610224  -63.18236988319691,40.73483726364119  -63.88771841036272,39.619417805801234  -64.9320251392613,38.8125097765438  -66.51947828875267,38.3814371509324  -68.14037860341243,38.66163936419529  -71.06068249475422,39.02022389856263  -72.48008331600076,36.315781586244526  -70.52605233924436,34.11611783286086  -69.37467411181765,32.941316024984616  -68.82766375641087,31.38999053320048  -68.89850220828838,30.072166938997306  -69.41579079335287,28.858046009491133  -70.31713687387916,27.894068647296947  -71.81488400999295,27.213932905959602  -73.45974168721642,27.230495878535145  -76.3997494146015,27.11598714965628  -77.36694631267648,24.218878751206898  -75.08536864372981,22.361148677531688  -73.76044899919727,21.386254300733203  -72.97167217506295,19.94276469838404  -72.8301995169028,18.63064328681571  -73.146030657232,17.34926597996916  -73.88107169935567,16.253185792165045  -75.2503219579969,15.341602093543532  -76.87653604794798,15.094096853142148  -79.76010295555206,14.50946057694638  -80.25004603884052,11.494719678104447  -77.70001334087169,10.027037517225184  -76.23586700207844,9.277299823775088  -75.22575261463628,7.979031733331555  -74.87563291397264,6.70659575973203  -74.9818267489305,5.391149074715907  -75.53152557575983,4.191353962421557  -76.73681609446376,3.0719318454772933  -78.30226850642364,2.566768647816856  -81.05471172600778,1.5271465967623463  -81.05471172600778,-1.5271465967624342  -78.30226850642366,-2.566768647816941  -76.73681609446376,-3.0719318454773763  -75.53152557575984,-4.191353962421639  -74.9818267489305,-5.391149074715988  -74.87563291397264,-6.706595759732111  -75.22575261463628,-7.979031733331636  -76.23586700207844,-9.27729982377517  -77.70001334087169,-10.027037517225267  -80.25004603884052,-11.494719678104534  -79.76010295555206,-14.50946057694636  -76.87653604794798,-15.09409685314213  -75.2503219579969,-15.341602093543514  -73.88107169935567,-16.253185792165027  -73.146030657232,-17.349265979969147  -72.8301995169028,-18.630643286815694  -72.97167217506295,-19.942764698384025  -73.76044899919727,-21.386254300733185  -75.08536864372981,-22.36114867753167  -77.36694631267649,-24.21887875120688  -76.3997494146015,-27.115987149656263  -73.45974168721642,-27.230495878535127  -71.81488400999295,-27.213932905959584  -70.31713687387916,-27.89406864729693  -69.41579079335287,-28.858046009491115  -68.89850220828838,-30.072166938997288  -68.82766375641087,-31.38999053320046  -69.37467411181767,-32.9413160249846  -70.52605233924436,-34.116117832860844  -72.48008331600076,-36.315781586244505  -71.06068249475419,-39.02022389856267  -68.1403786034124,-38.66163936419533  -66.51947828875264,-38.38143715093244  -64.93202513926127,-38.81250977654384  -63.887718410362694,-39.61941780580127  -63.182369883196884,-40.73483726364123  -62.90105499997563,-42.02423210161026  -63.192131605781164,-43.643214967465944  -64.14014832480282,-44.98749745669094  -65.71602423347618,-47.47212475400062  -63.88118122475145,-49.91385734487657  -61.05621550627367,-49.09146669834736  -59.50125302090755,-48.554882334537176  -57.86520806075968,-48.725727289851335  -56.70498767921819,-49.35466749206352  -55.82984736630215,-50.34249670018209  -55.34534195944465,-51.57006813290151  -55.372946084454085,-53.214777567015645  -56.093048160018306,-54.693724527237556  -57.249954642343496,-57.39896482658758  -55.047190916267844,-59.514748104500825  -52.39072849887644,-58.249850831572914  -50.94197655439075,-57.47078157038334  -49.299712488679326,-57.37697406079833  -48.05362755294116,-57.81165721509506  -47.03136112868933,-58.64631191588477  -46.35621363373424,-59.78026648806076  -46.1196303456096,-61.40810538001588  -46.59316751221148,-62.98341286182006  -47.3011412979913,-65.8392018604546  -44.78750727801156,-67.57423814987696  -42.36834914294148,-65.89959442549923  -41.06332965370403,-64.89821775156881  -39.45738025908937,-64.54218734230808  -38.15770371445183,-64.77135538332163  -37.01478734228052,-65.43121845845596  -36.166483724708506,-66.44218734230807  -35.671840406340735,-68.01099551986698  -35.886548300102916,-69.64186388694561  -36.12725324016717,-72.57423814987696  -33.36785072704964,-73.88359092228502  -31.248651799273922,-71.84257313926899  -30.121164084560757,-70.64482418245358  -28.59312260679699,-70.0357918741028  -27.27351539307752,-70.05350946994734  -26.039550006679622,-70.52149081239045  -25.04006088459241,-71.38329044486443  -24.300168538103065,-72.85243660028534  -24.25048633735797,-74.49662721858685  -24.01768830019549,-77.42963979271038  -21.08398436958248,-78.27939749907014  -19.319630788166542,-75.92486694589863  -18.3988761875467,-74.56176677503115  -16.988318098264653,-73.71550618446668  -15.682957349140827,-73.52131445871646  -14.389902003851855,-73.78529359751833  -13.265113620504037,-74.47560382081564  -12.299135069019624,-75.80703784038012  -11.98634951666969,-77.42196703654406  -11.286077849159804,-80.27965443683058  -8.254053891850432,-80.64780879890449  -6.890241487780662,-78.04074658012664  -6.200067061760064,-76.547598773629  -4.943525074540079,-75.48602760562622  -3.686218947739753,-75.08495602197397  -2.367563097791978,-75.13809603610152  -1.1466068814881147,-75.639038178042  0.020439537913099937,-76.79827662001343  0.5882274603606956,-78.34211857614243  1.7378360898652647,-81.05046819999863  4.789652246025496,-80.92748421319155  5.717601447861382,-78.13541187084697  6.159320544180742,-76.55088817259302  7.229302651900801,-75.30150056278552  8.405990588126011,-74.70393666457461  9.716094448876982,-74.54486125557509  11.001596373473404,-74.8434611778153  12.3394847715502,-75.80048037546655  13.147569655149335,-77.23325039583972  14.716740987006037,-79.72211741063832  17.709308906617977,-79.11118029560808  18.177361509321706,-76.20641103675537  18.359184983369524,-74.5715497782179  19.214895237035435,-73.16670420942658  20.280489383223024,-72.38812458773481  21.54811025294963,-72.02095372514285  22.86486406123465,-72.10947784654407  24.338943831237273,-72.83949150535503  25.366396701970185,-74.12408159904416  27.3144900229317,-76.32900565644354  30.170303768800913,-75.24593836355889  30.16633745581918,-72.30370418619728  30.083556175125086,-70.6608474152193  30.70283212865082,-69.13692864974446  31.629734156145375,-68.19749810780459  32.82204132017229,-67.63174132409532  34.13594378017027,-67.50789691641286  35.70803703035412,-67.99199806607885  36.928247398564984,-69.09513802442152  39.204808114904736,-70.95901274952834  41.84990361110312,-69.43186615276592  41.37402110785874,-66.52836937660459  41.02877906410971,-64.92006622060148  41.395581795589635,-63.31654295399123  42.159785428758276,-62.24059224937934  43.245898757827334,-61.49090234807248  44.52292048598553,-61.15789691641284  46.152310826953425,-61.383547591444135  47.53367588505258,-62.27666666897202  50.07974227003968,-63.75121868545436  52.44561293262038,-61.81954507949721  51.510139345977805,-59.029984745902055  50.911378126759644,-57.49788941181154  51.01620763812104,-55.85629205437906  51.597920404282384,-54.67168774517372  52.54971013367978,-53.75748130091914  53.756776938027535,-53.22393951104259  55.40126401582776,-53.185295477484736  56.908007134408116,-53.84526235922372  59.65763740605853,-54.89230154440122  61.683008427595475,-52.606130260982056  60.312172032067096,-50.002754517304595  59.475399238442755,-48.58654746950697  59.31554050040577,-46.94939253051837  59.699696344475896,-45.686815246083974  60.49251162016237,-44.63176972557732  61.59836110451008,-43.91151002958506  63.215353567636924,-43.609572147608425  64.80845089138299,-44.01929403798612  67.69043106997526,-44.61170262694704  69.32284640488899,-42.030244301436035  67.55215114305177,-39.680479211947166  66.4990387508396,-38.41683946908106  66.07863202074945,-36.82652840149822  66.25528150815474,-35.51867823030031  66.8685888309367,-34.350118758332805  67.84458007451578,-33.46179550401603  69.39219866754131,-32.90438380616313  71.03038981258356,-33.05324912343577  73.97007812532668,-33.17568404490394  75.16725907391132,-30.36579709195398  73.04256502294344,-28.330500338196664  71.80038808992724,-27.25215550584291  71.13032168126378,-25.749876530964276  71.09488968307012,-24.430626105454785  71.51280471544304,-23.178817758534336  72.33366005770938,-22.145438051565122  73.77182227200086,-21.346989208015465  75.41267894818492,-21.231142418661026  78.33393901192605,-20.88043267248252  79.06487921646342,-17.914891688209444  76.64121483623448,-16.246776387013824  75.24214509249389,-15.381655029901905  74.33977337327181,-14.006316384066  74.09317755962084,-12.709833597295276  74.30487652176693,-11.407197554062463  74.9493362405313,-10.255525386041931  76.24079443017042,-9.236718802437574  77.84181931148547,-8.85916027744882  80.668992025041,-8.044389061830312  "/>
  <circle class="fil0 str0" cx="0" cy="0" r="10.1197" id="center_00"/>
 </g>
</svg>
