<!DOCTYPE svg PUBLIC "-//W3C//DTD SVG 1.1//EN" "http://www.w3.org/Graphics/SVG/1.1/DTD/svg11.dtd">
<svg xmlns="http://www.w3.org/2000/svg" width="297mm" height="210mm" viewBox="0 0 297 210">
    <defs id="_tag_48_"/>
    <g id="_tag_49_">
        <polygon id="center_00" cx="182.369" cy="119.234" points="209.1912,119.234 209.0442651819469,122.03768334745764 208.60507057640228,124.8106489534521 207.87842809137186,127.52251562652371 206.87229897398137,130.14357158790773 205.59770658538696,132.64509999999999 204.06861562652372,134.99969359403917 202.30177913791977,137.18155494987855 200.31655494987857,139.16677913791975 198.13469359403916,140.9336156265237 195.7801,142.46270658538697 193.27857158790772,143.73729897398135 190.65751562652372,144.74342809137187 187.94564895345212,145.47007057640226 185.17268334745765,145.9092651819469 182.369,146.0562 179.56531665254235,145.9092651819469 176.7923510465479,145.47007057640226 174.08048437347628,144.74342809137187 171.45942841209228,143.73729897398135 168.9579,142.46270658538697 166.60330640596084,140.9336156265237 164.42144505012143,139.16677913791978 162.43622086208023,137.18155494987857 160.66938437347628,134.99969359403917 159.14029341461304,132.6451 157.86570102601863,130.14357158790773 156.85957190862814,127.52251562652371 156.13292942359772,124.81064895345212 155.6937348180531,122.03768334745766 155.5468,119.234 155.6937348180531,116.43031665254234 156.13292942359772,113.6573510465479 156.85957190862814,110.94548437347629 157.86570102601863,108.32442841209227 159.14029341461304,105.8229 160.66938437347628,103.46830640596083 162.43622086208023,101.28644505012144 164.42144505012143,99.30122086208024 166.60330640596084,97.53438437347629 168.9579,96.00529341461304 171.45942841209225,94.73070102601864 174.08048437347628,93.72457190862812 176.79235104654788,92.99792942359771 179.56531665254232,92.5587348180531 182.369,92.4118 185.17268334745765,92.5587348180531 187.9456489534521,92.99792942359771 190.65751562652372,93.72457190862812 193.27857158790772,94.73070102601862 195.78009999999998,96.00529341461302 198.13469359403916,97.53438437347629 200.31655494987857,99.30122086208021 202.30177913791974,101.28644505012142 204.06861562652372,103.46830640596082 205.59770658538696,105.82289999999998 206.87229897398134,108.32442841209225 207.87842809137186,110.94548437347628 208.60507057640228,113.65735104654787 209.0442651819469,116.43031665254232" fill="none" stroke="black" stroke-width="0.1"/>
        <polygon id="_new_38" points="197.28837062,116.870998898 197.45364162059596,118.44344254911081 197.45364213093248,120.02454771308835 197.28837214541818,121.59699147088855 196.95964239659938,123.14354579964595 196.47105451639518,124.64726632649737 195.82796157586475,126.09167797467688 195.03740943584037,127.46095546790445 194.10805955100182,128.74009671542456 193.05009407316635,129.91508717805183 191.87510429350263,130.97305341439517 190.59596364591908,131.90240412497556 189.22668666302803,132.69295714892874 187.78227542999363,133.33605102189037 186.27855521854755,133.8246398728123 184.732001102,134.15337062 183.1595574508892,134.31864162059597 181.57845228691164,134.31864213093246 180.00600852911143,134.1533721454182 178.45945420035403,133.82464239659936 176.95573367350264,133.3360545163952 175.51132202532312,132.69296157586476 174.14204453209555,131.90240943584035 172.86290328457545,130.9730595510018 171.68791282194817,129.91509407316633 170.6299465856048,128.7401042935026 169.70059587502442,127.46096364591908 168.91004285107127,126.09168666302801 168.2669489781096,124.64727542999364 167.7783601271877,123.14355521854753 167.44962938,121.597001102 167.28435837940404,120.02455745088918 167.28435786906752,118.44345228691164 167.44962785458182,116.87100852911144 167.77835760340062,115.32445420035404 168.26694548360481,113.82073367350262 168.91003842413525,112.37632202532312 169.70059056415963,111.00704453209555 170.62994044899818,109.72790328457545 171.68790592683365,108.55291282194817 172.86289570649737,107.49494658560481 174.14203635408091,106.56559587502443 175.51131333697197,105.77504285107126 176.95572457000634,105.13194897810962 178.45944478145245,104.6433601271877 180.005998898,104.31462938 181.5784425491108,104.14935837940403 183.15954771308836,104.14935786906752 184.73199147088857,104.3146278545818 186.27854579964594,104.64335760340063 187.78226632649736,105.1319454836048 189.22667797467687,105.77503842413523 190.59595546790445,106.56559056415962 191.87509671542455,107.49494044899818 193.05008717805183,108.55290592683366 194.1080534143952,109.72789570649736 195.03740412497558,111.00703635408091 195.82795714892873,112.37631333697198 196.4710510218904,113.82072457000635 196.9596398728123,115.32444478145244" fill="none" stroke="black" stroke-width="0.1"/>
        <polygon class="fil1" points="180.12,104.744 181.38632910156252,104.60267089843751 182.6390515625,104.5704046875 183.87308261718752,104.64348300781249 185.0833375,104.8181875 186.26473144531252,105.0907998046875 187.41217968750001,105.4576015625 188.5205974609375,105.91487441406251 189.5849,106.4589 233.0841,127.3125 236.58623515624998,129.09564648437498 239.98598125,131.036853125 243.27732421875,133.13127070312498 246.45425,135.37405 249.51074453125,137.760341796875 252.44079375,140.285296875 255.23838359375003,142.944066015625 257.89750000000004,145.7318 257.89750000000004,145.7318 258.37327441406256,146.26159531250002 258.85107031250004,146.80508749999998 259.33084667968757,147.36224843749997 259.8125625,147.93304999999998 260.29617675781253,148.51746406249998 260.7816484375,149.1154625 261.26893652343756,149.72701718750002 261.75800000000004,150.3521 261.75800000000004,150.3521 264.50138417968753,154.1200802734375 267.0117046875,158.0511984375 269.27856347656257,162.13709550781252 271.29156250000005,166.3694125 273.04030371093756,170.73979042968753 274.5143890625,175.23987031250005 275.70342050781255,179.86129316406254 276.59700000000004,184.59570000000002 276.65380000000005,184.5869 276.6539,184.58800000000002 277.4517287109375,192.3086787109375 277.46131093750006,199.92616093750001 276.7148908203126,207.39637832031252 275.2447125,214.67526250000003 273.0830201171875,221.71874511718752 270.2620578125,228.48275781250004 266.81406972656254,234.92323222656253 262.7713,240.9961 262.7713,240.9961 261.9121978515625,242.139826953125 261.0345578125,243.26468437500003 260.1386294921875,244.37033710937501 259.2246625,245.45645000000002 258.2929064453125,246.522687890625 257.3436109375,247.568715625 256.3770255859375,248.59419804687502 255.39339999999999,249.5988 255.39339999999999,249.5988 251.6987123046875,253.06059375 247.76741718749997,256.27635000000004 243.61022910156248,259.23144375000004 239.23786249999998,261.91125 234.66103183593748,264.30114375 229.89045156249998,266.3865 224.9368361328125,268.15269375 219.81089999999998,269.5851 213.51139999999998,270.8383 213.5195,270.8906 213.5189,270.8907 213.5108,270.8384 213.3352,270.8622 136.60179999999997,283.13239999999996 136.14624472656246,283.1596375 135.79826406249998,283.08976874999996 135.54193574218746,282.94224687499997 135.3613375,282.7365249999999 135.24054707031246,282.49205624999996 135.16364218749996,282.2282937499999 135.11470058593747,281.96469062499995 135.07779999999997,281.72069999999997 130.99529999999996,256.05159999999995 130.94380546874999,255.67455703124998 130.92463124999995,255.33820624999993 130.95117890624996,255.04210234374995 131.03684999999996,254.78579999999994 131.19504609374997,254.56885390624996 131.43916875,254.39081874999994 131.78261953124996,254.25124921874993 132.23879999999997,254.14969999999994 202.91949999999997,242.84739999999994 209.02069999999998,241.87199999999993 212.73560957031248,241.14067187499992 216.3232078125,240.12636874999993 219.77351152343746,238.84271249999992 223.07653749999997,237.30332499999992 226.22230253906247,235.52182812499993 229.2008234375,233.51184374999994 232.0021169921875,231.2869937499999 234.6162,228.86089999999993 234.6162,228.86089999999993 235.2335939453125,228.23098945312495 235.8364765625,227.59306562499995 236.4246990234375,226.94732773437494 236.9981125,226.29397499999993 237.5565681640625,225.63320664062493 238.09991718749998,224.9652218749999 238.62801074218746,224.29021992187495 239.14069999999998,223.60839999999993 239.14069999999998,223.60839999999993 241.60388945312496,219.90565429687493 243.70395937499998,215.97452187499994 245.421262109375,211.84185976562495 246.73615,207.53452499999992 247.628975390625,203.07937460937495 248.080090625,198.50326562499995 248.069848046875,193.83305507812494 247.5786,189.09559999999993 247.5785,189.09459999999993 247.6352,189.08579999999992 247.0960052734375,186.2351341796874 246.3759796875,183.44851718749993 245.48147363281248,180.73109472656242 244.4188375,178.0880124999999 243.1944216796875,175.52441621093743 241.8145765625,173.04545156249992 240.28565253906248,170.65626425781244 238.614,168.3619999999999 238.614,168.3619999999999 238.349912890625,168.0256039062499 238.07457812500002,167.68289374999992 237.78803554687502,167.3339117187499 237.490325,166.9786999999999 237.181486328125,166.61730078124992 236.861559375,166.2497562499999 236.530583984375,165.8761085937499 236.1886,165.4963999999999 236.1886,165.4963999999999 234.502491796875,163.7288777343749 232.728190625,162.04291562499992 230.869519140625,160.4415957031249 228.9303,158.92799999999988 226.914355859375,157.5052105468749 224.82550937500002,156.1763093749999 222.667583203125,154.94437851562492 220.4444,153.81249999999991 176.8972,132.93589999999992 175.204723828125,132.1263509765624 173.63285937499998,131.11224531249994 172.201277734375,129.9079326171874 170.92964999999998,128.5277624999999 169.837647265625,126.98608457031241 168.944940625,125.29724843749992 168.27120117187496,123.47560371093742 167.8361,121.53549999999991 167.8361,121.53549999999991 167.67736328125,118.56026367187492 168.10156875,115.70023437499991 169.05927734375,113.02299414062492 170.50105,110.59612499999992 172.37744765624998,108.48720898437492 174.63903125,106.76382812499992 177.23636171874998,105.49356445312492 180.11999999999998,104.74399999999991" fill="none" stroke="black" stroke-width="0.1" id="_new_39_1"/>
        <g id="_tag_50_">
            <g id="_tag_51_">
                <polyline id="_132696920_1" class="fil2 str1" points="235.517,28.2064 229.77092089843748,24.82898125 224.0986171875,22.41986875 218.49845175781252,20.957715625 212.96878750000002,20.421174999999998 207.5079873046875,20.788899999999998 202.1144140625,22.03954375 196.7864306640625,24.151759374999997 191.5224,27.1042 191.5224,27.1042 191.439342578125,27.157707421875 191.35629687500003,27.211428124999998 191.273265234375,27.265359765625 191.19025,27.319499999999998 191.10725351562502,27.373846484374997 191.02427812500002,27.428396874999997 190.941326171875,27.483148828125 190.85840000000002,27.5381" fill="none" stroke="black" stroke-width="0.1"/>
                <g id="_132696624_1">
                    <polyline id="_132696624___0" class="fil2 str1" points="148.528,75.1929 149.4323,73.52019999999999 151.77898144531252,69.27152246093749 154.1386203125,65.1700171875 156.5113958984375,61.21786269531249 158.8974875,57.417237499999985 161.2970744140625,53.77032011718749 163.71033593750002,50.279289062499984 166.13745136718748,46.94632285156249 168.5786,43.77359999999999 168.5786,43.77359999999999 171.0510841796875,40.74319824218749 173.53747968750002,37.88110468749999 176.0379634765625,35.18954941406249 178.5527125,32.67076249999999 181.0819037109375,30.32697402343749 183.6257140625,28.16041406249999 186.1843205078125,26.17331269531249 188.7579,24.367899999999988 188.7579,24.367899999999988 194.6095353515625,20.970005078124988 200.5310578125,18.51832187499999 206.5242919921875,17.037340234374987 212.59106250000002,16.551549999999988 218.73319394531248,17.08544101562499 224.9525109375,18.66350312499999 231.2508380859375,21.31022617187499 237.63,25.05009999999999 237.63,25.05009999999999 239.905180078125,26.63984179687499 242.190421875,28.372690624999986 244.485802734375,30.249769140624988 246.79139999999998,32.272199999999984 249.10729101562498,34.441105859374986 251.433553125,36.75760937499999 253.770263671875,39.22283320312499 256.1175,41.83789999999999" fill="none" stroke="black" stroke-width="0.1"/>
                    <polyline id="_132696624___1" class="fil2 str1" points="290.1668,94.8911 291.02450000000005,96.58489999999999 287.63700000000006,98.30019999999999 286.77940000000007,96.60649999999998 282.76692011718757,88.92749687499997 278.7892484375001,81.68441249999998 274.8459994140626,74.87237187499998 270.93678750000004,68.48649999999998 267.06122714843764,62.521921874999975 263.2189328125001,56.97376249999998 259.4095189453126,51.83714687499999 255.63260000000008,47.107199999999985 255.63260000000008,47.107199999999985 255.37136660156258,46.793470507812486 255.1102703125001,46.48168281249998 254.84931699218757,46.17183808593749 254.5885125000001,45.86393749999999 254.32786269531258,45.55798222656249 254.06737343750007,45.25397343749999 253.8070505859376,44.95191230468749 253.54690000000008,44.65179999999999" fill="none" stroke="black" stroke-width="0.1"/>
                </g>
                <polyline id="_132696328_1" class="fil2 str1" points="159.22,55.1806 160.2851,53.6085 163.85560253906252,48.68591875 167.6048265625,44.2040375 171.51888417968752,40.1607 175.5838875,36.553749999999994 179.7859486328125,33.38103125 184.1111796875,30.6403875 188.5456927734375,28.329662499999998 193.0756,26.4467 193.0756,26.4467 196.378605859375,25.35759765625 199.716859375,24.4878 203.085276953125,23.83649609375 206.47877499999998,23.402875 209.89226992187503,23.18612578125 213.32067812500003,23.1854375 216.75891601562503,23.39999921875 220.20190000000002,23.829 220.20190000000002,23.829 223.631334765625,24.4687017578125 227.05428437500004,25.3193328125 230.46567929687504,26.3800693359375 233.86045000000004,27.6500875 237.23352695312502,29.1285634765625 240.57984062500003,30.814673437499998 243.89432148437504,32.707593554687506 247.17190000000002,34.8065 247.17190000000002,34.8065 253.54329531250005,39.575982421875 259.71308125,45.149246875 265.64120781250006,51.519756640625 271.28762500000005,58.680975000000004 276.6122828125,66.626365234375 281.57513125,75.349390625 286.1361203125,84.843514453125 290.2552,95.1022 290.9019,96.8851 287.336,98.1784 286.6893,96.3955 282.6904396484375,86.4291462890625 278.26964218750004,77.2108203125 273.4654330078125,68.7466123046875 268.3163375,61.042612500000004 262.86088105468747,54.104911132812504 257.1375890625,47.939598437499995 251.1849869140625,42.5527646484375 245.04160000000002,37.9505 245.04160000000002,37.9505 241.94249257812504,35.965101953125 238.811615625,34.17507187499999 235.65372460937502,32.581180859374996 232.47357500000004,31.184199999999997 229.275922265625,29.984900390624997 226.065521875,28.984053125 222.84712929687504,28.182429296874997 219.62550000000002,27.580799999999996 219.62550000000002,27.580799999999996 216.41756562500004,27.180950976562496 213.214675,26.980682812499996 210.02157187500003,26.980751367187494 206.84300000000002,27.181912499999996 203.68370312500002,27.584922070312494 200.548425,28.190535937499995 197.44190937500002,28.999509960937495 194.36890000000002,30.012599999999996" fill="none" stroke="black" stroke-width="0.1"/>
            </g>
            <polygon id="_132697896" points="285.904,97.1613 291.183,94.257 294.236,99.807 288.957,102.711" fill="none" stroke="black" stroke-width="0.1"/>
            <polygon id="_132697600_1" class="fil3 str2" points="284.261,134.532 307.48490000000004,117.68840000000002 328.45500000000004,151.7624 332.75596855468757,159.2679318359375 336.1868984375,166.3338359375 338.84026347656254,173.0206126953125 340.80853750000006,179.38876249999998 342.18419433593755,185.49878574218752 343.05970781250005,191.41118281250002 343.5275517578125,197.1864541015625 343.6802,202.88510000000002 343.6802,202.88510000000002 343.65333749999996,206.08166523437504 343.57975,209.12742187500004 343.51482500000003,212.094761328125 343.51395,215.05607500000002 343.6325125,218.08375429687501 343.92590000000007,221.25019062500002 344.44950000000006,224.62777539062503 345.25870000000003,228.2889 345.25870000000003,228.2889 345.77687949218756,230.0070724609375 346.41291093750004,231.5680859375 347.16772128906257,233.0186970703125 348.04223750000006,234.4056625 349.03738652343753,235.7757388671875 350.15409531250003,237.17568281249999 351.3932908203126,238.6522509765625 352.75590000000005,240.25220000000002 352.75590000000005,240.25220000000002 353.05430078125005,240.76487988281252 353.2269125000001,241.42822656250002 353.27693671875005,242.2100005859375 353.207575,243.0779625 353.02202890625,243.99987285156251 352.72350000000006,244.94349218750003 352.31518984375003,245.8765810546875 351.80030000000005,246.76690000000002 351.80030000000005,246.76690000000002 351.41288222656254,246.92846796875006 350.79604531250004,246.710925 350.01517636718756,246.19973828125003 349.1356625000001,245.48037500000004 348.22289082031256,244.63830234375 347.3422484375,243.75898750000002 346.55912246093754,242.92789765625 345.93890000000005,242.2305 345.93890000000005,242.2305 343.75965878906254,239.4647009765625 341.90475156250005,236.6443265625 340.35837792968755,233.7859107421875 339.10473750000006,230.9059875 338.12802988281254,228.0210908203125 337.41245468750003,225.1477546875 336.9422115234376,222.3025130859375 336.70150000000007,219.5019 336.70150000000007,219.5019 336.5331865234375,214.32959863281252 336.45717343750005,209.3497578125 336.3647892578126,204.4758849609375 336.14736250000004,199.6214875 335.69622167968754,194.70007285156254 334.90269531250004,189.6251484375 333.65811191406254,184.3102216796875 331.8538000000001,178.6688 331.8538000000001,178.6688 331.6557421875001,178.2323087890625 331.3968125000001,177.80858281250002 331.0952265625001,177.3927810546875 330.76920000000007,176.98006250000003 330.4369484375001,176.5655861328125 330.11668750000007,176.1445109375 329.8266328125001,175.71199589843752 329.5850000000001,175.2632 329.5850000000001,175.2632 326.66723183593757,169.2574015625 323.59854843750014,164.0001125 320.15799394531257,159.6547671875 316.12461250000007,156.38479999999998 311.2774482421876,154.35364531250002 305.3955453125001,153.7247375 298.25794785156256,154.66151093750003 289.6437000000001,157.3274 284.2610000000001,134.532" fill="none" stroke="black" stroke-width="0.1"/>
            <polygon id="_132695336_1" class="fil4 str2" points="246.91,137.622 246.8378455078125,137.15582246093751 246.8656203125,136.74991093750003 246.98921933593752,136.40178457031251 247.20453750000001,136.10896250000002 247.5074697265625,135.86896386718752 247.89391093749998,135.67930781249999 248.35975605468752,135.53751347656254 248.9009,135.4411 248.9009,135.4411 249.618475390625,135.4166744140625 250.352421875,135.50187656249997 251.096207421875,135.6594748046875 251.8433,135.8522375 252.58716757812502,136.04293300781248 253.321278125,136.1943296875 254.03909960937503,136.2691958984375 254.7341,136.2303 254.7341,136.2303 261.7294744140625,134.84720292968748 268.11505781249997,132.9331609375 273.7334779296875,130.3898853515625 278.4273625,127.11908749999999 282.0393392578125,123.0224787109375 284.41203593750004,118.00177031250001 285.38808027343754,111.95867363281249 284.81010000000003,104.7949 284.81010000000003,104.7949 284.72909003906256,104.2546125 284.67622031250005,103.6373 284.66965605468755,102.976 284.72756250000003,102.30375000000001 284.86810488281253,101.6535875 285.1094484375001,101.05855 285.46975839843753,100.55167499999999 285.96720000000005,100.166 285.96720000000005,100.166 286.7581896484375,99.78520507812499 287.4974609375001,99.41130312499999 288.2054173828125,99.049743359375 288.90246250000007,98.705975 289.6089998046875,98.385447265625 290.34543281250006,98.093609375 291.13216503906256,97.83591054687501 291.98960000000005,97.6178 291.98960000000005,97.6178 292.52279726562506,97.5070666015625 293.11886562500007,97.4152578125 293.7652824218751,97.3769357421875 294.44952500000005,97.4266625 295.15907070312505,97.5990001953125 295.88139687500006,97.92851093750001 296.60398085937504,98.4497568359375 297.31430000000006,99.1973 297.31430000000006,99.1973 298.70541640625004,100.85676406249999 299.81035625000004,102.39235624999999 300.7377804687501,103.8467140625 301.59635000000003,105.262475 302.49472578125,106.6822765625 303.54156875000007,108.14875625 304.8455398437501,109.7045515625 306.5153000000001,111.3923 306.5153000000001,111.3923 306.84083125000006,111.75432597656251 307.1570250000001,112.22908281250001 307.4366187500001,112.80127636718751 307.65235000000007,113.4556125 307.77695625000007,114.1767970703125 307.7831750000001,114.94953593750002 307.6437437500001,115.75853496093751 307.3314000000001,116.58850000000001 307.3314000000001,116.58850000000001 306.2691769531251,118.94205000000001 305.3818281250001,121.26561875000002 304.6391589843751,123.57843437500001 304.01097500000014,125.89972500000002 303.46708164062505,128.24871875000002 302.97728437500007,130.64464375000003 302.5113886718751,133.10672812500002 302.0392000000001,135.6542 302.0392000000001,135.6542 301.80897597656264,137.37535488281253 301.6697328125001,139.1466015625 301.6027263671876,140.9181505859375 301.58921250000014,142.6402125 301.61044707031266,144.26299785156252 301.6476859375001,145.7367171875 301.6821849609376,147.0115810546875 301.6952000000001,148.0378 301.6952000000001,148.0378 301.67704609375005,148.781714453125 301.63575000000014,149.27729687500002 301.5791351562501,149.576205859375 301.5150250000001,149.73010000000002 301.45124296875014,149.79063789062502 301.39561250000014,149.80947812500003 301.3559570312501,149.838279296875 301.3401000000001,149.9287 301.3401000000001,149.9287 301.11267011718763,151.5299263671875 300.8864859375001,153.0355171875 300.6214306640626,154.4590275390625 300.27738750000015,155.8140125 299.81423964843765,157.1140271484375 299.1918703125001,158.3726265625 298.3701626953126,159.6033658203125 297.30900000000014,160.8198 297.30900000000014,160.8198 296.46840410156267,161.59406367187498 295.47151406250015,162.39289687499996 294.35635136718764,163.21658789062496 293.16093750000016,164.06542499999998 291.92329394531265,164.939696484375 290.6814421875002,165.83969062499997 289.47340371093765,166.76569570312498 288.33720000000017,167.718 288.33720000000017,167.718 287.00548476562517,168.96696269531247 285.7438406250002,170.2784578125 284.5418824218752,171.64855839843747 283.3892250000002,173.07333749999998 282.2754832031252,174.5488681640625 281.1902718750002,176.0712234375 280.12320585937516,177.6364763671875 279.06390000000016,179.2407 279.06390000000016,179.2407 278.8303693359377,179.6266462890625 278.61757968750015,180.0068515625 278.41642207031265,180.38160292968752 278.21778750000016,180.75118750000001 278.01256699218766,181.1158923828125 277.7916515625002,181.4760046875 277.5459322265626,181.8318115234375 277.2663000000002,182.1836 277.2663000000002,182.1836 277.16934609375016,182.27941328125002 277.0290937500002,182.39499375000003 276.8584945312502,182.52128984375 276.6705000000002,182.64925 276.47806171875015,182.76982265625 276.2941312500002,182.87395625 276.1316601562502,182.95259921875 276.0036000000002,182.9967 276.0036000000002,182.9967 275.8576722656251,183.0163640625 275.6983968750002,183.014925 275.5324605468752,182.9936484375 275.3665500000002,182.9538 275.20735195312517,182.8966453125 275.06155312500016,182.82345000000004 274.9358402343752,182.7354796875 274.8369000000002,182.63400000000001 274.8369000000002,182.63400000000001 269.7114130859377,176.72363906250004 265.0567984375002,171.013125 260.87113769531265,165.44308593750003 257.15251250000017,159.95415000000003 253.8990044921877,154.4869453125 251.10869531250017,148.98210000000003 248.7796666015627,143.38024218750002 246.9100000000002,137.622" fill="none" stroke="black" stroke-width="0.1"/>
            <polygon id="_132695120" points="314.207706473,136.7607959357 314.26459283001174,137.30574771049123 314.2642045860338,137.85366042592025 314.2065459947484,138.39853103561873 314.09224877574746,138.93438982316528 313.9225651932806,139.45536580754788 313.69935433618593,139.9557510668604 313.4250617493237,140.43006327548946 313.10269263967484,140.87310576962113 312.73577895066484,141.28002448297713 312.3283406654521,141.64636112898063 311.88484176315137,141.96810204667722 311.4101413105443,142.24172217524395 310.90944022512724,142.46422367529357 310.38822429277036,142.63316877383014 309.8522040643,142.746706473 309.3072522895087,142.80359283001178 308.7593395740797,142.80320458603381 308.21446896438124,142.7455459947484 307.6786101768347,142.63124877574748 307.1576341924521,142.46156519328062 306.65724893313956,142.23835433618598 306.1829367245105,141.96406174932366 305.7398942303788,141.64169263967483 305.3329755170229,141.27477895066485 304.96663887101937,140.8673406654521 304.64489795332275,140.4238417631514 304.371277824756,139.94914131054435 304.1487763247064,139.44844022512726 303.97983122616984,138.92722429277035 303.866293527,138.39120406429998 303.8094071699882,137.84625228950875 303.8097954139661,137.29833957407973 303.86745400525155,136.75346896438126 303.9817512242525,136.2176101768347 304.15143480671935,135.6966341924521 304.374645663814,135.1962489331396 304.6489382506763,134.72193672451053 304.9713073603251,134.27889423037885 305.3382210493351,133.87197551702286 305.74565933454784,133.50563887101936 306.1891582368486,133.18389795332277 306.66385868945565,132.91027782475604 307.1645597748727,132.68777632470642 307.6857757072296,132.51883122616985 308.22179593569996,132.405293527 308.76674771049125,132.3484071699882 309.31466042592024,132.34879541396617 309.8595310356187,132.4064540052516 310.39538982316526,132.5207512242525 310.91636580754783,132.69043480671937 311.4167510668604,132.913645663814 311.89106327548944,133.1879382506763 312.33410576962115,133.51030736032513 312.7410244829771,133.87722104933513 313.1073611289806,134.28465933454788 313.4291020466772,134.7281582368486 313.70272217524393,135.20285868945564 313.9252236752936,135.70355977487273 314.0941687738301,136.22477570722964" fill="none" stroke="black" stroke-width="0.1"/>
        </g>
    </g>
</svg>
