<!DOCTYPE svg PUBLIC "-//W3C//DTD SVG 1.1//EN" "http://www.w3.org/Graphics/SVG/1.1/DTD/svg11.dtd">
<svg xmlns="http://www.w3.org/2000/svg" width="297mm" height="210mm" viewBox="0 0 297 210">
    <defs id="_tag_89_"/>
    <g id="_tag_90_">
        <g id="_tag_91_">
            <polygon id="_130029648" cx="85.453" cy="122.607" points="101.3471,122.607 101.26003045717287,124.2683858480224 100.99977578082319,125.91156920502655 100.5691873756468,127.51854701029485 99.97298285831727,129.07171287871108 99.21769437029025,130.55405 98.31159701029486,131.9493175784618 97.26461817062025,133.24222877052833 96.08822877052833,134.41861817062025 94.7953175784618,135.46559701029486 93.40005000000001,136.37169437029024 91.91771287871109,137.12698285831726 90.36454701029486,137.7231873756468 88.75756920502656,138.15377578082317 87.11438584802242,138.41403045717288 85.453,138.5011 83.7916141519776,138.41403045717288 82.14843079497346,138.15377578082317 80.54145298970515,137.7231873756468 78.98828712128893,137.12698285831726 77.50595000000001,136.37169437029024 76.1106824215382,135.46559701029486 74.81777122947167,134.41861817062025 73.64138182937975,133.24222877052833 72.59440298970515,131.9493175784618 71.68830562970976,130.55405000000002 70.93301714168274,129.07171287871108 70.3368126243532,127.51854701029485 69.90622421917682,125.91156920502655 69.64596954282713,124.26838584802242 69.55890000000001,122.607 69.64596954282713,120.9456141519776 69.90622421917682,119.30243079497346 70.3368126243532,117.69545298970515 70.93301714168274,116.14228712128893 71.68830562970976,114.65995000000001 72.59440298970515,113.2646824215382 73.64138182937975,111.97177122947167 74.81777122947167,110.79538182937975 76.1106824215382,109.74840298970514 77.50595,108.84230562970976 78.98828712128892,108.08701714168274 80.54145298970515,107.4908126243532 82.14843079497345,107.06022421917682 83.79161415197758,106.79996954282713 85.453,106.7129 87.11438584802241,106.79996954282713 88.75756920502654,107.06022421917682 90.36454701029486,107.4908126243532 91.91771287871107,108.08701714168274 93.40005,108.84230562970974 94.79531757846179,109.74840298970514 96.08822877052833,110.79538182937975 97.26461817062025,111.97177122947166 98.31159701029486,113.2646824215382 99.21769437029025,114.65995 99.97298285831727,116.14228712128892 100.5691873756468,117.69545298970515 100.99977578082319,119.30243079497345 101.26003045717287,120.94561415197758" fill="none" stroke="black" stroke-width="0.1"/>
            <polygon id="_129596160" points="85.453,107.95 134.53,108.043 151.81,109.834 164.458,113.91 198.215,156.933 199.549,169.474 198.543,185.531 191.807,208.125 183.089,222.228 176.89,233.476 170.203,247.144 155.004,266.138 138.972,280.595 122.276,289.739 61.7674,306.795 54.6577,279.033 113.532,262.123 129.585,252.232 140.825,241.49 149.024,227.133 157.029,210.505 168.714,194.882 169.68,182.894 170.786,172.188 166.39,164.348 146.783,138.646 140.749,137.375 85.453,137.375 81.3111,136.702 76.0566,133.896 73.1515,130.635 71.6193,127.554 70.7812,123.301 71.4015,118.318 73.9832,113.432 79.199,109.314" fill="none" stroke="black" stroke-width="0.1"/>
            <polygon id="center_00" cx="85.453" cy="122.607" points="100.141,122.607 100.06053759916921,124.14231406847529 99.82003195957815,125.66080691473125 99.42211811134322,127.14584161337923 98.87115568185453,128.58114781349735 98.17318113078584,129.951 97.33584161337923,131.24038978567185 96.36831119661197,132.4351903461989 95.28119034619891,133.52231119661195 94.08638978567186,134.48984161337924 92.79700000000001,135.32718113078585 91.42714781349736,136.02515568185453 89.99184161337924,136.57611811134322 88.50680691473126,136.97403195957813 86.9883140684753,137.2145375991692 85.453,137.295 83.91768593152472,137.2145375991692 82.39919308526876,136.97403195957813 80.91415838662077,136.57611811134322 79.47885218650265,136.02515568185453 78.10900000000001,135.32718113078585 76.81961021432816,134.48984161337924 75.6248096538011,133.52231119661198 74.53768880338804,132.4351903461989 73.57015838662078,131.24038978567185 72.73281886921417,129.951 72.03484431814549,128.58114781349735 71.48388188865678,127.14584161337923 71.08596804042186,125.66080691473125 70.8454624008308,124.1423140684753 70.765,122.607 70.8454624008308,121.07168593152471 71.08596804042186,119.55319308526876 71.48388188865678,118.06815838662078 72.03484431814547,116.63285218650265 72.73281886921417,115.263 73.57015838662078,113.97361021432816 74.53768880338804,112.77880965380109 75.6248096538011,111.69168880338803 76.81961021432815,110.72415838662077 78.109,109.88681886921417 79.47885218650264,109.18884431814548 80.91415838662077,108.63788188865678 82.39919308526875,108.23996804042186 83.9176859315247,107.9994624008308 85.453,107.919 86.98831406847529,107.9994624008308 88.50680691473124,108.23996804042186 89.99184161337922,108.63788188865678 91.42714781349736,109.18884431814547 92.797,109.88681886921415 94.08638978567184,110.72415838662077 95.28119034619891,111.69168880338803 96.36831119661196,112.77880965380108 97.33584161337923,113.97361021432815 98.17318113078584,115.26299999999999 98.87115568185452,116.63285218650263 99.42211811134322,118.06815838662077 99.82003195957815,119.55319308526875 100.06053759916921,121.0716859315247" fill="none" stroke="black" stroke-width="0.1"/>
        </g>
        <g id="_tag_92_">
            <polygon id="_294671376" points="238.293,127.585 234.576,134.828 231.051,137.878 228.725,128.501" fill="none" stroke="black" stroke-width="0.1"/>
            <polygon id="_294671592" points="235.446,179.274 238.004,175.556 240.505,173.256 243.729,171.276 246.017,170.071 248.672,168.819 250.956,167.133 252.768,165.301 253.698,162.479 254.16,159.36 254.267,155.67 253.982,151.545 253.265,146.906 252.454,144.307 251.324,141.477 250.339,140.154 248.444,138.79 246.641,137.829 244.161,136.583 236.762,133.001 247.404,127.532 251.784,132.147 260.305,147.198 261.569,162.727 257.257,172.624 256.682,181.626 256.027,190.521 255.649,196.548 254.968,198.712 253.252,200.496 251.694,201.688 247.996,203.193 245.841,203.943 242.9,204.94 240.737,205.565 238.704,205.517 237.388,205.233 236.157,204.665 235.26,203.903 234.188,202.044 233.39,198.012 233.303,194.428 233.417,190.156 233.946,185.33 234.756,181.933" fill="none" stroke="black" stroke-width="0.1"/>
            <polygon id="_294670512" points="259.803,92.4886 243.004,127.386 250.23,130.011 252.565,131.994 253.893,134.593 255.015,138.564 255.637,141.244 256.156,144.14 256.637,147.022 256.903,149.711 257.212,154.187 257.403,158.147 257.643,161.806 257.995,169.945 258.094,172.281 258.15,174.577 257.946,181.355 257.798,186.279 257.52,192.256 257.296,197.463 257.105,202.4 257.019,207.719 256.985,211.111 257.252,214.184 257.502,217.041 258.155,220.417 259.336,223.951 261.211,227.309 263.1,229.835 265.282,232.293 267.505,234.507 269.749,236.39 272.121,237.774 273.297,237.964 274.295,237.688 275.092,237.14 276.089,235.594 276.012,234.079 274.705,231.851 272.831,229.507 270.411,226.177 268.633,223.396 267.496,220.37 266.487,216.392 266.149,213.425 266.061,210.153 266.192,201.833 266.571,193.309 267.113,183.606 267.499,175.087 267.675,167.19 267.644,160.624 267.387,152.449 267.047,147.074 266.384,142.043 265.527,136.606 264.68,132.609 263.508,128.367 263.016,125.707 262.781,122.891 262.674,120.302 262.852,116.395 263.72,109.65 264.729,101.835 264.924,97.4859 264.817,95.8263 264.214,94.3714 263.057,93.3834" fill="none" stroke="black" stroke-width="0.1"/>
            <polygon id="_294670800" points="151.415,109.438 151.925,112.912 156.839,121.362 165.201,131.314 175.794,142.458 187.489,152.246 194.353,157.052 198.483,158.837 199.369,157.872 205.915,155.17 213.988,151.255 222.284,147.822 230.335,144.761 233.765,143.211 234.218,141.564 233.052,134.787 235.522,129.387 240.467,119.006 249.717,100.594 258.766,80.9121 253.065,75.2404 248.958,73.8282 243.792,73.7266 238.861,75.398 234.907,77.6486 232.333,80.5071 228.855,85.1006 226.208,90.3133 223.05,96.783 220.149,100.613 216.717,102.831 213.075,103.553 197.071,105.001 179.124,106.174 158.453,107.289 153.847,108.229" fill="none" stroke="black" stroke-width="0.1"/>
            <polygon id="_294670440" points="262.083,93.2651 261.629,97.6505 260.773,102.947 259.981,107.618 259.087,112.587 258.296,116.247 257.085,120.721 256.056,124.449 255.511,125.651 254.364,127.306 252.912,128.499 249.162,130.612 245.046,132.174 239.955,133.719 234.576,134.828 234.704,133.293 234.921,131.542 235.522,129.387 258.369,81.7762 261.511,89.3958 262.157,91.4509" fill="none" stroke="black" stroke-width="0.1"/>
            <polygon id="_293521944" points="251.724450849,122.286567015317 251.70411656702274,122.65743419853749 251.64512750163135,123.02414422127708 251.5481299493705,123.38267933178764 251.41418663572074,123.72911134437014 251.24476507165593,124.05964467739913 251.0417214752857,124.37065793850944 250.80728043474144,124.6587436013286 250.54401053512336,124.92074533904898 250.25479621654438,125.15379260580471 249.94280617160086,125.35533208697296 249.61145862851333,125.5231556738232 249.26438390030276,125.65542465601855 248.9053846103215,125.75068986691102 248.53839402991605,125.80790756091451 248.167432984683,125.82645084900001 247.7965658014625,125.80611656702277 247.42985577872292,125.74712750163137 247.07132066821234,125.65012994937051 246.72488865562985,125.51618663572077 246.39435532260086,125.34676507165597 246.08334206149055,125.14372147528572 245.7952563986714,124.90928043474148 245.53325466095103,124.64601053512337 245.30020739419527,124.35679621654438 245.09866791302704,124.04480617160087 244.93084432617678,123.71345862851334 244.79857534398144,123.36638390030278 244.703310133089,123.00738461032154 244.64609243908546,122.64039402991607 244.62754915099998,122.26943298468301 244.64788343297724,121.89856580146252 244.70687249836863,121.53185577872293 244.80387005062948,121.17332066821237 244.9378133642792,120.82688865562987 245.10723492834404,120.49635532260088 245.31027852471428,120.18534206149057 245.54471956525853,119.89725639867142 245.8079894648766,119.63525466095103 246.0972037834556,119.4022073941953 246.4091938283991,119.20066791302705 246.74054137148664,119.03284432617681 247.08761609969721,118.90057534398146 247.44661538967844,118.805310133089 247.81360597008393,118.7480924390855 248.184567015317,118.729549151 248.55543419853745,118.74988343297724 248.92214422127705,118.80887249836864 249.28067933178764,118.9058700506295 249.62711134437012,119.03981336427924 249.95764467739912,119.20923492834405 250.26865793850942,119.4122785247143 250.55674360132858,119.64671956525854 250.81874533904895,119.90998946487665 251.0517926058047,120.19920378345563 251.25333208697293,120.51119382839914 251.4211556738232,120.84254137148667 251.55342465601854,121.18961609969723 251.64868986691098,121.54861538967847 251.7059075609145,121.91560597008394" fill="none" stroke="black" stroke-width="0.1"/>
            <line id="_293524392" x1="253.065" y1="75.2404" x2="239.37" y2="107.11" stroke="black" stroke-width="0.1"/>
            <polyline id="simplify_SVG__000098" points="156.8,107.626 157.758,110.737 160.742,114.768 168.327,123.127 176.517,130.383 180.761,132.548 183.847,132.327 219.122,117.555 220.602,115.885 221.167,113.745 221.895,107.116 221.495,103.524 220.887,99.6386" fill="none" stroke="black" stroke-width="0.1"/>
            <polyline id="simplify_SVG__000099" points="204.331,155.824 201.049,152.51 229.671,139.749 230.335,144.761" fill="none" stroke="black" stroke-width="0.1"/>
            <polygon id="_293547384" points="250.38419647299997,122.283331255733 250.37154247370444,122.51412143447203 250.33483365162016,122.74232461736338 250.27447219628377,122.96544056258072 250.19111944043132,123.18102476513826 250.08568861429868,123.38671523939885 249.95933484007975,123.58025839748302 249.8134424761661,123.75953374004926 249.6496099498267,123.92257708892866 249.46963224450428,124.06760210707188 249.27548123360114,124.1930198700317 249.0692840762214,124.29745627455179 248.8532999115709,124.37976709352948 248.6298951073551,124.43905051240743 248.40151733335946,124.47465700964256 248.17066874426698,124.486196473 247.93987856552798,124.47354247370444 247.7116753826366,124.43683365162018 247.48855943741927,124.37647219628377 247.27297523486175,124.29311944043135 247.06728476060113,124.18768861429871 246.873741602517,124.06133484007977 246.69446625995073,123.9154424761661 246.53142291107133,123.75160994982672 246.3863978929281,123.5716322445043 246.2609801299683,123.37748123360116 246.15654372544822,123.17128407622144 246.0742329064705,122.95529991157092 246.01494948759256,122.73189510735511 245.97934299035742,122.50351733335947 245.967803527,122.27266874426701 245.98045752629554,122.041878565528 246.01716634837982,121.81367538263663 246.0775278037162,121.59055943741929 246.16088055956865,121.37497523486175 246.2663113857013,121.16928476060116 246.39266515992023,120.97574160251699 246.53855752383387,120.79646625995075 246.70239005017328,120.63342291107135 246.8823677554957,120.48839789292813 247.07651876639883,120.3629801299683 247.28271592377857,120.25854372544822 247.49870008842908,120.17623290647053 247.72210489264486,120.11694948759258 247.9504826666405,120.08134299035746 248.181331255733,120.069803527 248.412121434472,120.08245752629557 248.64032461736335,120.11916634837984 248.8634405625807,120.17952780371624 249.07902476513823,120.26288055956866 249.28471523939885,120.3683113857013 249.478258397483,120.49466515992025 249.65753374004925,120.6405575238339 249.82057708892864,120.8043900501733 249.96560210707187,120.98436775549571 250.0910198700317,121.17851876639885 250.19545627455176,121.38471592377857 250.27776709352946,121.6007000884291 250.33705051240742,121.8241048926449 250.37265700964255,122.05248266664054" fill="none" stroke="black" stroke-width="0.1"/>
            <g id="_293518968_1">
                <polygon id="_293518968___0" class="fil1 str1" points="189.179,129.74 189.17656835937498,129.73896503906252 189.174040625,129.73775781249998 189.171480078125,129.7364123046875 189.16895,129.7349625 189.166513671875,129.7334423828125 189.16423437499998,129.7318859375 189.162175390625,129.73032714843748 189.1604,129.7288 189.1604,129.7288 188.5706185546875,129.97232929687502 187.98079843750003,130.215996875 187.3909384765625,130.459772265625 186.8010375,130.70362500000002 186.2110943359375,130.947524609375 185.6211078125,131.191440625 185.03107675781249,131.435342578125 184.441,131.6792 184.441,131.6792 184.4393134765625,131.67410585937503 184.43744531250002,131.669159375 184.4354576171875,131.664339453125 184.4334125,131.659625 184.4313720703125,131.65499492187502 184.42939843750003,131.65042812500002 184.42755371093753,131.64590351562498 184.4259,131.6414 184.4259,131.6414 184.424033984375,131.60280195312498 184.41397187500002,131.50742187500003 184.398242578125,131.372943359375 184.379375,131.21705 184.359898046875,131.057425390625 184.34234062500002,130.911753125 184.32923164062498,130.797716796875 184.3231,130.733 184.3231,130.733 184.788095703125,130.539712890625 185.25306562500003,130.34648437500002 185.71798398437502,130.15332617187502 186.18282500000004,129.96025 186.647562890625,129.767267578125 187.11217187500003,129.574390625 187.576626171875,129.381630859375 188.04090000000002,129.189 188.04090000000002,129.189 188.00149511718752,128.8871853515625 187.97171718750002,128.66002031249997 187.9500087890625,128.4964482421875 187.93481250000002,128.3854125 187.9245708984375,128.3158564453125 187.9177265625,128.2767234375 187.9127220703125,128.2569568359375 187.90800000000002,128.2455 187.90800000000002,128.2455 187.4433662109375,128.4354236328125 186.97879218750003,128.62526406249998 186.51428144531252,128.81505058593748 186.04983750000002,129.0048125 185.5854638671875,129.19457910156248 185.1211640625,129.3843796875 184.6569416015625,129.5742435546875 184.1928,129.7642 184.1928,129.7642 184.157135546875,129.5122087890625 184.11855312499998,129.2592203125 184.081006640625,129.0055123046875 184.04845,128.7513625 184.024837109375,128.4970486328125 184.014121875,128.2428484375 184.020258203125,127.98903964843748 184.0472,127.73589999999999 184.0472,127.73589999999999 184.06143398437501,127.7101365234375 184.071465625,127.68245468749998 184.078914453125,127.65369238281248 184.0854,127.6246875 184.092541796875,127.59627792968749 184.10195937499998,127.56930156249999 184.11527226562504,127.54459628906248 184.13410000000002,127.52299999999998 184.13410000000002,127.52299999999998 184.14340800781252,127.50123691406247 184.1504015625,127.48460781249997 184.15540996093753,127.47207792968749 184.15876250000002,127.46261249999999 184.16078847656252,127.45517675781248 184.16181718750002,127.44873593749998 184.16217792968752,127.44225527343748 184.1622,127.43469999999998 184.1622,127.43469999999998 184.174109375,127.42168378906248 184.1912875,127.3993265625 184.211671875,127.37072792968748 184.2332,127.33898749999997 184.253809375,127.30720488281248 184.27143750000002,127.27847968749998 184.28402187499998,127.25591152343748 184.2895,127.24259999999998 184.2895,127.24259999999998 184.29149550781253,127.24238906249998 184.2935015625,127.24214999999998 184.2955099609375,127.24191093749998 184.29751249999998,127.24169999999998 184.2995009765625,127.24154531249998 184.3014671875,127.24147499999998 184.30340292968748,127.24151718749997 184.30530000000002,127.24169999999998 184.30530000000002,127.24169999999998 184.37732402343752,127.16175800781248 184.4512359375,127.08889531249997 184.5274330078125,127.02200683593747 184.60631250000003,126.95998749999998 184.68827167968752,126.90173222656247 184.77370781250002,126.84613593749998 184.8630181640625,126.79209355468748 184.9566,126.73849999999997 184.9566,126.73849999999997 184.95722851562502,126.73968183593749 184.95784062500002,126.74096093749998 184.95843867187503,126.74231269531248 184.959025,126.74371249999997 184.959601953125,126.74513574218747 184.96017187500001,126.74655781249997 184.960737109375,126.74795410156247 184.96130000000002,126.74929999999998 184.96130000000002,126.74929999999998 185.28355136718753,126.61640546874999 185.6057734375,126.48346874999999 185.9279931640625,126.35052265624998 186.25023750000003,126.21759999999998 186.57253339843754,126.08473359374997 186.8949078125,125.95195624999997 187.21738769531254,125.81930078124998 187.54000000000002,125.68679999999998 187.54000000000002,125.68679999999998 187.53953457031253,125.68555878906248 187.5390328125,125.68423906249998 187.5384865234375,125.68284667968749 187.5378875,125.68138749999999 187.5372275390625,125.67986738281249 187.53649843750003,125.67829218749998 187.53569199218754,125.67666777343749 187.53480000000002,125.67499999999998 187.53480000000002,125.67499999999998 187.8180376953125,125.55865664062497 188.10120156250002,125.44222187499997 188.38429277343752,125.32572617187499 188.66731250000004,125.20919999999998 188.95026191406254,125.09267382812497 189.2331421875,124.97617812499999 189.51595449218752,124.85974335937499 189.79870000000003,124.74339999999998 189.79870000000003,124.74339999999998 189.80126367187503,124.75081679687499 189.80377812500004,124.75822187499998 189.80624101562503,124.76562226562498 189.80865000000003,124.77302499999999 189.81100273437502,124.78043710937497 189.813296875,124.78786562499998 189.81553007812505,124.79531757812498 189.81770000000003,124.80279999999998 189.81770000000003,124.80279999999998 189.83092246093753,124.91460410156247 189.84424218750004,125.02637656249998 189.85762519531252,125.13813261718747 189.87103750000003,125.24988749999997 189.8844451171875,125.36165644531249 189.8978140625,125.47345468749998 189.9111103515625,125.58529746093748 189.92430000000002,125.69719999999998 189.92430000000002,125.69719999999998 189.47192539062502,125.88489218749999 189.01947812500003,126.07272499999998 188.56699804687503,126.26067031249998 188.11452500000001,126.44869999999997 187.662098828125,126.63678593749998 187.209759375,126.82489999999999 186.75754648437504,127.01301406249999 186.30550000000002,127.20109999999998 186.30550000000002,127.20109999999998 186.31867871093752,127.30213281249998 186.33187968750002,127.40330624999999 186.34508769531254,127.50458281249998 186.35828750000002,127.60592499999998 186.37146386718754,127.70729531249998 186.38460156250005,127.80865624999998 186.39768535156253,127.90997031249996 186.41070000000002,128.01119999999997 186.41070000000002,128.01119999999997 186.86247519531253,127.82639335937498 187.31434531250002,127.64158437499998 187.76630214843752,127.45678945312498 188.21833750000002,127.27202499999997 188.67044316406253,127.08730742187497 189.1226109375,126.90265312499997 189.57483261718752,126.71807851562498 190.02710000000002,126.53359999999998 190.02710000000002,126.53359999999998 190.02926015625002,126.53709999999998 190.0314625,126.54069374999999 190.03370234375,126.54437187499998 190.03597500000004,126.54812499999998 190.03827578125,126.55194374999998 190.0406,126.55581874999999 190.04294296875003,126.55974062499998 190.04530000000003,126.56369999999998 190.04530000000003,126.56369999999998 190.05138789062502,126.62782382812499 190.057909375,126.69100312499998 190.06693867187505,126.76982460937498 190.08055000000002,126.88087499999999 190.10081757812503,127.04074101562497 190.12981562500002,127.26600937499998 190.16961835937502,127.57326679687499 190.22230000000002,127.97909999999999 190.22230000000002,127.97909999999999 190.22316328125004,128.03467343749998 190.22403125,128.09018125 190.22490859375003,128.1456421875 190.2258,128.201075 190.22671015625002,128.2564984375 190.22764375,128.31193125 190.22860546875,128.36739218749997 190.2296,128.4229 190.2296,128.4229 190.22275195312503,128.4420833984375 190.212109375,128.4864046875 190.19913710937502,128.5474955078125 190.18529999999998,128.6169875 190.172062890625,128.68651230468748 190.160890625,128.74770156249997 190.153248046875,128.79218691406248 190.1506,128.8116 190.1506,128.8116 190.14001074218748,128.8225021484375 190.1296171875,128.8376171875 190.1197556640625,128.8557580078125 190.11076250000002,128.8757375 190.1029740234375,128.89636855468748 190.09672656249998,128.91646406249998 190.0923564453125,128.9348369140625 190.0902,128.9503 190.0902,128.9503 190.08788515625002,128.9502228515625 190.08578125000003,128.95015156249997 190.08383671875,128.9501013671875 190.08200000000002,128.9500875 190.08021953125,128.9501251953125 190.07844375000002,128.9502296875 190.07662109375002,128.95041621093753 190.0747,128.9507 190.0747,128.9507 190.0706525390625,128.96584257812503 190.06697656250003,128.979196875 190.0632091796875,128.991140234375 190.0588875,129.00205 190.05354863281252,129.012303515625 190.04672968750003,129.022278125 190.03796777343752,129.032351171875 190.0268,129.0429 190.0268,129.0429 190.02446035156248,129.0627150390625 190.01687656250002,129.0798265625 190.0056763671875,129.0950841796875 189.99248749999998,129.10933750000004 189.97893769531248,129.12343613281251 189.9666546875,129.1382296875 189.95726621093752,129.1545677734375 189.9524,129.1733 189.9524,129.1733 189.95033925781252,129.17307519531252 189.9482890625,129.1729828125 189.94625996093754,129.1729958984375 189.9442625,129.1730875 189.9423072265625,129.17323066406252 189.9404046875,129.1733984375 189.93856542968751,129.1735638671875 189.9368,129.17370000000003 189.9368,129.17370000000003 189.870613671875,129.2526830078125 189.79907187499998,129.32755156250005 189.72268789062502,129.39807246093753 189.641975,129.46401250000002 189.55744648437502,129.52513847656252 189.46961562500002,129.58121718750004 189.37899570312499,129.63201542968753 189.2861,129.67730000000003 189.2861,129.67730000000003 189.2866544921875,129.67914921875 189.2873859375,129.68103125000005 189.2882462890625,129.68296015625003 189.28918750000003,129.68495000000001 189.2901615234375,129.68701484375 189.2911203125,129.68916875000002 189.29201582031249,129.69142578125002 189.2928,129.69380000000004 189.2928,129.69380000000004 189.278238671875,129.69968164062502 189.26379687500003,129.70560312500004 189.249462890625,129.71152929687503 189.235225,129.71742500000005 189.221071484375,129.72325507812505 189.206990625,129.72898437500004 189.192970703125,129.73457773437502 189.179,129.74000000000004" fill="none" stroke="black" stroke-width="0.1"/>
                <polygon id="_293518968___1" class="fil1 str1" points="191.9368,128.60380000000004 191.93572148437502,128.6019095703125 191.93473437500003,128.59998281250003 191.933836328125,128.59801152343755 191.93302500000001,128.59598750000004 191.93229804687502,128.59390253906253 191.931653125,128.59174843750003 191.93108789062498,128.58951699218753 191.9306,128.58720000000002 191.9306,128.58720000000002 191.8515005859375,128.61924101562502 191.7724609375,128.65130312500003 191.6934939453125,128.68336992187503 191.6146125,128.71542500000004 191.5358294921875,128.74745195312502 191.4571578125,128.77943437500002 191.3786103515625,128.811355859375 191.3002,128.84320000000002 191.3002,128.84320000000002 191.2977046875,128.83724843750002 191.29536875000002,128.83138125000005 191.2931546875,128.8255796875 191.291025,128.81982500000004 191.2889421875,128.81409843750004 191.28686875,128.80838125000002 191.2847671875,128.80265468750002 191.2826,128.79690000000002 191.2826,128.79690000000002 191.22437226562502,128.36601503906252 191.164365625,127.93452656250003 191.103932421875,127.50257167968753 191.044425,127.07028750000002 190.987195703125,126.63781113281252 190.93359687499998,126.20527968750002 190.88498085937502,125.77283027343752 190.8427,125.34060000000002 190.8427,125.34060000000002 190.84388085937502,125.29497695312502 190.84515312500002,125.23980312500002 190.84738632812503,125.17859648437502 190.85145,125.11487500000003 190.858213671875,125.05215664062501 190.86854687500002,124.99395937500003 190.883319140625,124.94380117187502 190.9034,124.90520000000002 190.9034,124.90520000000002 190.90591640625001,124.88679726562502 190.9111,124.86610937500002 190.91832734375004,124.84327929687501 190.926975,124.81845000000003 190.93641953125,124.79176445312503 190.9460375,124.76336562500002 190.95520546875,124.73339648437502 190.9633,124.70200000000003 190.9633,124.70200000000003 190.96551464843753,124.70126171875003 190.9677421875,124.70048125000002 190.96999550781248,124.69967265625003 190.9722875,124.69885000000002 190.9746310546875,124.69802734375001 190.9770390625,124.69721875000002 190.9795244140625,124.69643828125002 190.9821,124.69570000000003 190.9821,124.69570000000003 190.98686113281252,124.68124726562503 190.99163281249997,124.66690937500003 190.9964349609375,124.65267929687502 191.0012875,124.63855000000004 191.00621035156252,124.62451445312503 191.0112234375,124.61056562500004 191.0163466796875,124.59669648437503 191.0216,124.58290000000004 191.0216,124.58290000000004 191.0232880859375,124.58295957031254 191.02505468750002,124.58300156250004 191.0269033203125,124.58304589843755 191.0288375,124.58311250000003 191.0308607421875,124.58322128906254 191.03297656249998,124.58339218750004 191.0351884765625,124.58364511718754 191.0375,124.58400000000003 191.0375,124.58400000000003 191.0388755859375,124.57749765625003 191.04036718749998,124.57098125000003 191.04195957031249,124.56447421875002 191.0436375,124.55800000000002 191.04538574218748,124.55158203125004 191.04718906249997,124.54524375000003 191.0490322265625,124.53900859375003 191.05089999999998,124.53290000000003 191.05089999999998,124.53290000000003 191.05277753906248,124.53258378906253 191.05472656249998,124.53237656250002 191.05673417968748,124.53226542968751 191.0587875,124.53223750000004 191.06087363281247,124.53227988281253 191.0629796875,124.53237968750003 191.0650927734375,124.53252402343752 191.06719999999999,124.53270000000002 191.06719999999999,124.53270000000002 191.085026171875,124.50417578125003 191.098434375,124.48250000000002 191.108069140625,124.46643046875002 191.114575,124.45472500000002 191.118596484375,124.44614140625004 191.120778125,124.43943750000003 191.121764453125,124.43337109375001 191.1222,124.42670000000003 191.1222,124.42670000000003 191.1240369140625,124.42668027343753 191.12600156250002,124.42669218750001 191.1280623046875,124.42672988281252 191.13018749999998,124.42678750000002 191.1323455078125,124.42685917968754 191.1345046875,124.42693906250003 191.13663339843748,124.42702128906254 191.1387,124.42710000000002 191.1387,124.42710000000002 191.17884648437501,124.37671347656253 191.209278125,124.33874531250001 191.231670703125,124.31130761718752 191.2477,124.29251250000002 191.259041796875,124.28047207031253 191.26737187499998,124.27329843750002 191.274366015625,124.26910371093753 191.2817,124.26600000000002 191.2817,124.26600000000002 191.2816630859375,124.26375683593753 191.2816109375,124.26147968750001 191.2815189453125,124.25920957031252 191.2813625,124.25698750000001 191.2811169921875,124.25485449218752 191.28075781249998,124.25285156250001 191.2802603515625,124.25101972656253 191.2796,124.24940000000002 191.2796,124.24940000000002 191.28331484375,124.24708359375003 191.28696875,124.24498750000001 191.29057578124997,124.24307890625002 191.29415,124.24132500000002 191.29770546875,124.23969296875002 191.30125625,124.23815000000002 191.30481640624998,124.23666328125003 191.30839999999998,124.23520000000002 191.30839999999998,124.23520000000002 191.3475783203125,124.19419941406252 191.3926078125,124.15484531250002 191.4418302734375,124.11717167968752 191.4935875,124.08121250000002 191.5462212890625,124.04700175781252 191.59807343749998,124.01457343750002 191.64748574218748,123.98396152343751 191.69279999999998,123.95520000000002 191.69279999999998,123.95520000000002 192.19601640624998,123.74812851562503 192.69918124999998,123.54107812500004 193.20231796874998,123.33406992187501 193.70544999999998,123.12712500000002 194.20860078124997,122.92026445312503 194.71179374999997,122.713509375 195.21505234375,122.50688085937502 195.71839999999997,122.30040000000002 195.71839999999997,122.30040000000002 195.74192929687499,122.29690312500003 195.77487812499996,122.29380000000002 195.81377539062495,122.29069687500001 195.85514999999998,122.28720000000003 195.89553085937496,122.28291562500003 195.93144687499995,122.27745000000003 195.95942695312496,122.27040937500003 195.97599999999997,122.26140000000002 195.97599999999997,122.26140000000002 195.97743945312496,122.26338144531252 195.97877812499996,122.26528906250003 195.98004648437495,122.26714277343751 195.98127499999998,122.26896250000001 195.98249414062496,122.27076816406252 195.98373437499995,122.27257968750003 195.98502617187498,122.27441699218753 195.98639999999997,122.27630000000002 195.98639999999997,122.27630000000002 196.0023861328125,122.27414921875001 196.01549531249998,122.27270625000003 196.02734121093746,122.27206015625002 196.03953749999997,122.27230000000002 196.05369785156248,122.27351484375002 196.07143593749998,122.27579375000002 196.09436542968749,122.27922578125002 196.12409999999997,122.28390000000002 196.12409999999997,122.28390000000002 196.12494101562496,122.28237812500002 196.125953125,122.28095000000002 196.12711992187496,122.27959687500001 196.12842499999996,122.27830000000003 196.12985195312498,122.27704062500003 196.13138437499998,122.2758 196.13300585937498,122.27455937500001 196.13469999999998,122.27330000000002 196.13469999999998,122.27330000000002 196.14739941406248,122.28118476562503 196.1594765625,122.28567812500002 196.17116230468747,122.287851171875 196.1826875,122.28877500000002 196.1942830078125,122.28952070312502 196.20617968749997,122.29115937500002 196.21860839843748,122.29476210937503 196.2318,122.30140000000002 196.2318,122.30140000000002 196.27805859375,122.31264375000002 196.32926249999997,122.32540625000001 196.38320390624997,122.340184375 196.437675,122.35747500000002 196.49046796875,122.37777500000003 196.539375,122.40158125000002 196.58218828124998,122.42939062500001 196.61669999999998,122.46170000000002 196.61669999999998,122.46170000000002 196.64637011718747,122.47031503906251 196.68150468749997,122.49338281250002 196.7199275390625,122.52684980468752 196.75946249999998,122.56666250000002 196.79793339843746,122.60876738281252 196.83316406249997,122.64911093750001 196.8629783203125,122.68363964843752 196.88519999999997,122.70830000000002 196.88519999999997,122.70830000000002 196.91008867187497,122.75109414062503 196.93352187499994,122.79452812500003 196.95571289062497,122.83852929687502 196.97687499999998,122.88302500000003 196.99722148437496,122.92794257812503 197.01696562499998,122.97320937500002 197.03632070312497,123.01875273437503 197.05549999999997,123.06450000000002 197.05549999999997,123.06450000000002 197.06621953124994,123.12037050781252 197.07669999999996,123.17981406250003 197.08963671874997,123.26147871093752 197.10772499999996,123.38401250000001 197.13366015624996,123.56606347656252 197.17013749999995,123.82627968750003 197.21985234374995,124.18330917968753 197.28549999999996,124.65580000000003 197.28549999999996,124.65580000000003 197.11241679687495,124.72630078125002 196.93930312499995,124.79680625000003 196.76617539062494,124.86732109375002 196.59304999999995,124.93785000000003 196.41994335937497,125.00839765625004 196.24687187499995,125.07896875000003 196.07385195312497,125.14956796875003 195.90089999999995,125.22020000000003 195.90089999999995,125.22020000000003 195.90395800781243,125.22745175781253 195.90638906249995,125.23283906250003 195.90842871093744,125.23655996093754 195.91031249999995,125.23881250000004 195.91227597656246,125.23979472656254 195.91455468749996,125.23970468750005 195.91738417968745,125.23874042968754 195.92099999999996,125.23710000000004 195.92099999999996,125.23710000000004 195.97524843749994,125.25817128906255 196.02826874999994,125.28351406250005 196.08051093749995,125.31167167968754 196.13242499999998,125.34118750000005 196.18446093749998,125.37060488281253 196.23706874999996,125.39846718750003 196.29069843749997,125.42331777343753 196.34579999999997,125.44370000000004 196.34579999999997,125.44370000000004 196.38124492187498,125.46942011718754 196.41964062499997,125.49134218750004 196.45999101562495,125.51075878906252 196.50129999999996,125.52896250000003 196.54257148437495,125.54724589843752 196.58280937499995,125.56690156250004 196.62101757812496,125.58922207031253 196.65619999999996,125.61550000000004 196.65619999999996,125.61550000000004 196.72109550781246,125.64059023437504 196.78363906249993,125.67081562500005 196.84462871093746,125.70442070312504 196.90486249999995,125.73965000000004 196.96513847656243,125.77474804687503 197.02625468749997,125.80795937500004 197.08900917968745,125.83752851562504 197.15419999999995,125.86170000000004 197.15419999999995,125.86170000000004 197.17589257812494,125.88140839843754 197.20069062499994,125.89649843750004 197.22746210937493,125.90852988281254 197.25507499999995,125.91906250000004 197.28239726562495,125.92965605468754 197.30829687499994,125.94187031250004 197.33164179687498,125.95726503906253 197.35129999999995,125.97740000000005 197.35129999999995,125.97740000000005 197.40286855468744,125.99655117187504 197.45357343749995,126.01902812500005 197.50356347656245,126.04400351562504 197.55298749999997,126.07065000000006 197.60199433593746,126.09814023437505 197.65073281249994,126.12564687500006 197.69935175781245,126.15234257812504 197.74799999999996,126.17740000000005 197.74799999999996,126.17740000000005 197.74823359374997,126.17877226562504 197.74855624999995,126.18012812500004 197.74896328124996,126.18148867187504 197.74944999999997,126.18287500000005 197.75001171874996,126.18430820312506 197.75064374999997,126.18580937500005 197.75134140624996,126.18739960937505 197.75209999999996,126.18910000000005 197.75209999999996,126.18910000000005 197.49325156249995,126.29556640625006 197.23456249999995,126.40203750000006 196.97600468749997,126.50850859375005 196.71754999999996,126.61497500000006 196.45917031249996,126.72143203125006 196.20083749999995,126.82787500000006 195.94252343749997,126.93429921875004 195.68419999999995,127.04070000000006 195.68419999999995,127.04070000000006 195.68490644531244,127.04265078125005 195.68572656249995,127.04466250000006 195.68662402343745,127.04671171875006 195.68756249999996,127.04877500000006 195.68850566406246,127.05082890625006 195.68941718749994,127.05285000000006 195.69026074218743,127.05481484375007 195.69099999999995,127.05670000000006 195.69099999999995,127.05670000000006 195.68938652343746,127.05730332031257 195.68789843749994,127.05790781250006 195.68650175781247,127.05850527343756 195.68516249999993,127.05908750000006 195.68384667968746,127.05964628906256 195.68252031249995,127.06017343750005 195.68114941406247,127.06066074218757 195.67969999999994,127.06110000000007 195.67969999999994,127.06110000000007 195.6794164062499,127.05930585937507 195.67889374999993,127.05734062500007 195.67817421874994,127.05526757812507 195.67729999999992,127.05315000000007 195.67631328124992,127.05105117187507 195.67525624999993,127.04903437500006 195.67417109374992,127.04716289062506 195.67309999999995,127.04550000000006 195.67309999999995,127.04550000000006 195.64445859374996,127.05344414062506 195.60902499999995,127.06152187500007 195.56907265624994,127.06995117187506 195.52687499999993,127.07895000000005 195.48470546874995,127.08873632812505 195.44483749999995,127.09952812500006 195.40954453124994,127.11154335937506 195.38109999999995,127.12500000000006 195.38109999999995,127.12500000000006 195.37132480468745,127.11914160156256 195.35521093749995,127.11497656250006 195.33468847656243,127.11214511718757 195.31168749999995,127.11028750000007 195.28813808593745,127.10904394531256 195.26597031249995,127.10805468750006 195.24711425781243,127.10695996093756 195.23349999999994,127.10540000000006 195.23349999999994,127.10540000000006 195.16483613281244,127.07796250000007 195.08838281249993,127.04870625000007 195.00708496093745,127.01734062500007 194.92388749999992,126.98357500000006 194.84173535156245,126.94711875000006 194.76357343749993,126.90768125000007 194.69234667968743,126.86497187500007 194.63099999999994,126.81870000000006 194.63099999999994,126.81870000000006 194.59091308593742,126.80411894531257 194.55225468749995,126.78573281250006 194.51457832031247,126.76490214843756 194.47743749999995,126.74298750000005 194.44038574218746,126.72134941406256 194.40297656249996,126.70134843750006 194.36476347656242,126.68434511718756 194.32529999999994,126.67170000000006 194.32529999999994,126.67170000000006 194.28366621093744,126.63939453125005 194.23809843749996,126.61166875000006 194.18980957031243,126.58712109375006 194.14001249999995,126.56435000000005 194.08992011718743,126.54195390625006 194.04074531249995,126.51853125000005 193.99370097656242,126.49268046875007 193.94999999999993,126.46300000000006 193.94999999999993,126.46300000000006 193.89373242187494,126.44381757812508 193.83872812499993,126.41787812500007 193.78457226562494,126.38736835937506 193.73084999999992,126.35447500000006 193.67714648437493,126.32138476562507 193.62304687499994,126.29028437500006 193.56813632812492,126.26336054687506 193.51199999999994,126.24280000000006 193.51199999999994,126.24280000000006 193.48816464843745,126.22417324218756 193.46252343749995,126.20787968750005 193.43558613281246,126.19322441406256 193.40786249999996,126.17951250000007 193.37986230468746,126.16604902343755 193.35209531249996,126.15213906250005 193.32507128906246,126.13708769531254 193.29929999999993,126.12020000000005 193.29929999999993,126.12020000000005 193.32766738281242,126.34504257812505 193.35861406249992,126.57038437500006 193.39100683593742,126.79609648437504 193.42371249999994,127.02205000000006 193.45559785156243,127.24811601562506 193.48552968749993,127.47416562500005 193.51237480468745,127.70006992187506 193.53499999999994,127.92570000000005 193.53499999999994,127.92570000000005 193.33566035156244,128.00799882812504 193.13634531249994,128.09027187500004 192.93706074218744,128.17252148437507 192.73781249999996,128.25475000000006 192.53860644531244,128.33695976562504 192.33944843749993,128.41915312500004 192.14034433593744,128.50133242187505 191.94129999999993,128.58350000000004 191.94129999999993,128.58350000000004 191.94196074218743,128.58514160156253 191.94266718749992,128.58695781250003 191.94341816406242,128.58889824218755 191.94421249999994,128.59091250000003 191.94504902343743,128.59295019531254 191.9459265624999,128.59496093750005 191.94684394531242,128.59689433593755 191.94779999999992,128.59870000000004 191.94779999999992,128.59870000000004 191.9463839843749,128.59945234375004 191.94492812499993,128.60020000000006 191.94345820312492,128.60092890625003 191.94199999999992,128.60162500000004 191.94057929687492,128.60227421875004 191.93922187499993,128.60286250000001 191.9379535156249,128.60337578125004 191.93679999999992,128.60380000000004" fill="none" stroke="black" stroke-width="0.1"/>
                <polygon id="_293518968___2" class="fil1 str1" points="202.4432999999999,124.27490000000003 202.4170429687499,124.08537148437503 202.3909687499999,123.89582187500002 202.3650351562499,123.70623007812503 202.3391999999999,123.51657500000003 202.31342109374992,123.32683554687503 202.2876562499999,123.13699062500004 202.2618632812499,122.94701914062503 202.2359999999999,122.75690000000003 202.2359999999999,122.75690000000003 202.01464453124987,122.84809609375002 201.7932562499999,122.93915625000002 201.5718773437499,123.03011328125002 201.35054999999988,123.12100000000004 201.1293164062499,123.21184921875002 200.90821874999992,123.30269375000003 200.6872992187499,123.39356640625002 200.46659999999991,123.48450000000003 200.46659999999991,123.48450000000003 200.46480878906243,123.49328085937503 200.46402656249992,123.50318437500002 200.46472792968743,123.51767695312503 200.46738749999992,123.54022500000004 200.47247988281242,123.57429492187502 200.4804796874999,123.62335312500002 200.49186152343742,123.69086601562503 200.50709999999992,123.78030000000003 200.50709999999992,123.78030000000003 200.51323242187493,123.84143867187503 200.51940937499992,123.90279062500002 200.52563789062492,123.96429726562504 200.53192499999994,124.02590000000004 200.5382777343749,124.08754023437503 200.54470312499993,124.14915937500002 200.5512082031249,124.21069882812503 200.55779999999993,124.27210000000002 200.55779999999993,124.27210000000002 200.56093242187492,124.32153808593752 200.56632187499991,124.39672343750001 200.57133164062492,124.48842519531252 200.57332499999993,124.58741250000001 200.56966523437492,124.68445449218753 200.55771562499993,124.77032031250002 200.53483945312493,124.83577910156251 200.49839999999992,124.87160000000003 200.49839999999992,124.87160000000003 200.48846113281243,124.88867050781253 200.48097031249992,124.90173906250003 200.47555371093742,124.91164121093752 200.47183749999994,124.91921250000003 200.46944785156242,124.92528847656251 200.4680109374999,124.93070468750003 200.46715292968742,124.93629667968753 200.4664999999999,124.94290000000002 200.4664999999999,124.94290000000002 200.46464101562492,124.94286640625003 200.4626906249999,124.94283750000002 200.46068867187492,124.94280859375002 200.45867499999991,124.94277500000003 200.4566894531249,124.94273203125002 200.4547718749999,124.94267500000002 200.4529621093749,124.94259921875002 200.45129999999992,124.94250000000002 200.45129999999992,124.94250000000002 200.45101054687493,124.94497832031252 200.4507468749999,124.94751406250003 200.4505160156249,124.95007089843752 200.45032499999994,124.95261250000003 200.4501808593749,124.95510253906252 200.45009062499992,124.95750468750003 200.45006132812492,124.95978261718753 200.4500999999999,124.96190000000003 200.4500999999999,124.96190000000003 200.4480908203124,124.96188476562502 200.44612031249991,124.96196562500002 200.44419902343742,124.96210742187502 200.4423374999999,124.96227500000003 200.4405462890624,124.96243320312504 200.4388359374999,124.96254687500004 200.43721699218742,124.96258085937502 200.4356999999999,124.96250000000003 200.4356999999999,124.96250000000003 200.43507597656242,124.96492539062503 200.4345515624999,124.96733437500004 200.4341232421874,124.96973867187504 200.43378749999994,124.97215000000004 200.4335408203124,124.97458007812503 200.43337968749992,124.97704062500003 200.43330058593742,124.97954335937503 200.43329999999992,124.98210000000003 200.43329999999992,124.98210000000003 200.43090195312493,124.98211679687502 200.42864687499994,124.98210312500002 200.42651835937488,124.98207539062503 200.4244999999999,124.98205000000004 200.42257539062493,124.98204335937504 200.42072812499993,124.98207187500005 200.41894179687492,124.98215195312504 200.41719999999992,124.98230000000004 200.41719999999992,124.98230000000004 200.37823281249993,125.02737636718753 200.3252687499999,125.07191718750005 200.26252656249991,125.11511503906253 200.1942249999999,125.15616250000004 200.12458281249994,125.19425214843754 200.0578187499999,125.22857656250004 199.9981515624999,125.25832832031254 199.94979999999993,125.28270000000003 199.94979999999993,125.28270000000003 199.75783554687493,125.36188632812502 199.56587812499993,125.44104687500004 199.37394414062493,125.52018398437504 199.18204999999995,125.59930000000004 198.99021210937494,125.67839726562504 198.79844687499994,125.75747812500003 198.60677070312494,125.83654492187503 198.4151999999999,125.91560000000004 198.4151999999999,125.91560000000004 198.36268769531242,125.52296562500004 198.3101578124999,125.13038750000004 198.2576208984374,124.73786562500004 198.20508749999993,124.34540000000004 198.15256816406242,123.95299062500004 198.10007343749993,123.56063750000004 198.04761386718744,123.16834062500004 197.99519999999993,122.77610000000004 197.99519999999993,122.77610000000004 197.99227792968742,122.71675117187505 197.98942968749992,122.65750312500003 197.98664472656242,122.59835351562505 197.98391249999992,122.53930000000003 197.98122246093743,122.48034023437503 197.9785640624999,122.42147187500004 197.97592675781246,122.36269257812503 197.97329999999994,122.30400000000004 197.97329999999994,122.30400000000004 197.99152460937495,122.27009492187504 198.00115937499996,122.21840312500004 198.00540820312494,122.15465976562504 198.00747499999994,122.08460000000005 198.01056367187493,122.01395898437504 198.01787812499995,121.94847187500005 198.03262226562495,121.89387382812504 198.05799999999994,121.85590000000005 198.05799999999994,121.85590000000005 198.07596523437496,121.80422578125005 198.09314062499993,121.75908125000005 198.10934570312494,121.71957109375005 198.12439999999992,121.68480000000005 198.13812304687494,121.65387265625004 198.15033437499994,121.62589375000005 198.16085351562492,121.59996796875005 198.16949999999994,121.57520000000005 198.16949999999994,121.57520000000005 198.17121816406245,121.57498613281255 198.17306406249995,121.57480156250004 198.17502480468744,121.57465683593755 198.17708749999994,121.57456250000004 198.17923925781244,121.57452910156255 198.18146718749995,121.57456718750005 198.18375839843745,121.57468730468754 198.18609999999995,121.57490000000006 198.18609999999995,121.57490000000006 198.18741015624997,121.56826718750006 198.18885624999996,121.56177500000005 198.19042421874994,121.55539531250005 198.19209999999993,121.54910000000004 198.19386953124996,121.54286093750007 198.19571874999994,121.53665000000005 198.19763359374994,121.53043906250005 198.19959999999995,121.52420000000005 198.19959999999995,121.52420000000005 198.20149101562495,121.52380488281256 198.20342187499995,121.52345781250004 198.20540429687495,121.52317871093756 198.20744999999994,121.52298750000006 198.20957070312494,121.52290410156255 198.21177812499997,121.52294843750006 198.21408398437495,121.52314042968754 198.21649999999994,121.52350000000006 198.21649999999994,121.52350000000006 198.21715664062492,121.51884492187506 198.21785312499995,121.51425312500005 198.21859179687496,121.50972226562506 198.21937499999996,121.50525000000005 198.22020507812493,121.50083398437505 198.22108437499992,121.49647187500005 198.22201523437494,121.49216132812506 198.22299999999993,121.48790000000005 198.22299999999993,121.48790000000005 198.22504003906243,121.48793535156256 198.22703906249995,121.48797656250005 198.22900292968743,121.48803886718756 198.23093749999992,121.48813750000005 198.23284863281245,121.48828769531255 198.23474218749993,121.48850468750005 198.2366240234374,121.48880371093756 198.23849999999993,121.48920000000005 198.23849999999993,121.48920000000005 198.23929902343744,121.48434257812505 198.24018593749994,121.47959062500004 198.24114550781243,121.47493710937505 198.24216249999995,121.47037500000005 198.24322167968742,121.46589726562506 198.24430781249993,121.46149687500005 198.24540566406245,121.45716679687504 198.24649999999994,121.45290000000006 198.24649999999994,121.45290000000006 198.24854218749994,121.45294531250005 198.25061249999993,121.45294375000006 198.25270156249994,121.45291406250007 198.25479999999993,121.45287500000006 198.25689843749996,121.45284531250005 198.25898749999993,121.45284375000006 198.26105781249993,121.45288906250006 198.26309999999995,121.45300000000006 198.26309999999995,121.45300000000006 198.29763535156243,121.40928085937506 198.32385156249995,121.37632187500006 198.34322636718744,121.35247070312506 198.35723749999994,121.33607500000005 198.36736269531244,121.32548242187505 198.37507968749995,121.31904062500006 198.38186621093746,121.31509726562506 198.38919999999996,121.31200000000005 198.38919999999996,121.31200000000005 198.38877324218745,121.30952460937506 198.38839218749996,121.30712187500006 198.38805566406245,121.30478945312507 198.38776249999995,121.30252500000006 198.38751152343747,121.30032617187506 198.38730156249994,121.29819062500005 198.38713144531246,121.29611601562506 198.38699999999997,121.29410000000006 198.38699999999997,121.29410000000006 198.43879589843746,121.25848144531255 198.48966718749998,121.22342656250005 198.54011425781246,121.18886152343757 198.59063749999996,121.15471250000006 198.6417373046875,121.12090566406256 198.69391406249997,121.08736718750005 198.74766816406247,121.05402324218755 198.80349999999999,121.02080000000005 198.80349999999999,121.02080000000005 199.465171484375,120.74925273437506 200.126821875,120.47783437500004 200.788467578125,120.20654257812507 201.45012499999999,119.93537500000005 202.11181054687498,119.66432929687505 202.77354062499998,119.39340312500005 203.43533164062498,119.12259414062507 204.0972,118.85190000000006 204.0972,118.85190000000006 204.10172246093748,118.87395390625007 204.1065296875,118.90450625000005 204.1117564453125,118.94245546875005 204.1175375,118.98670000000004 204.1240076171875,119.03613828125006 204.13130156249997,119.08966875000006 204.1395541015625,119.14618984375007 204.1489,119.20460000000006 204.1489,119.20460000000006 204.21377167968748,119.72263085937504 204.27894218749998,120.24101562500005 204.3446447265625,120.75959257812505 204.4111125,121.27820000000006 204.4785787109375,121.79667617187505 204.54727656250003,122.31485937500005 204.61743925781252,122.83258789062505 204.6893,123.34970000000006 204.6893,123.34970000000006 204.4087345703125,123.46507109375005 204.1280578125,123.58060625000005 203.8472990234375,123.69626328125005 203.5664875,123.81200000000007 203.2856525390625,123.92777421875006 203.0048234375,124.04354375000005 202.72402949218747,124.15926640625005 202.4433,124.27490000000006" fill="none" stroke="black" stroke-width="0.1"/>
                <polygon id="_293518968___3" class="fil1 str1" points="205.7014,122.91930000000006 205.6266265625,122.35736914062505 205.55186250000003,121.79545937500006 205.47711718750003,121.23358242187507 205.4024,120.67175000000006 205.3277203125,120.10997382812506 205.25308750000002,119.54826562500007 205.1785109375,118.98663710937507 205.104,118.42510000000006 205.104,118.42510000000006 205.2225134765625,118.37334199218756 205.3411828125,118.32164843750006 205.45997636718752,118.27002753906255 205.5788625,118.21848750000007 205.69780957031253,118.16703652343756 205.81678593750001,118.11568281250005 205.93575996093753,118.06443457031256 206.05470000000003,118.01330000000006 206.05470000000003,118.01330000000006 206.25332519531253,117.92873964843757 206.45206406250003,117.84430468750006 206.65089902343755,117.75995175781256 206.84981250000004,117.67563750000005 207.04878691406253,117.59131855468755 207.24780468750004,117.50695156250006 207.4468482421875,117.42249316406257 207.6459,117.33790000000006 207.6459,117.33790000000006 207.6489798828125,117.33693593750007 207.65193906250002,117.33592500000006 207.6548068359375,117.33487656250006 207.65761250000003,117.33380000000005 207.6603853515625,117.33270468750007 207.6631546875,117.33160000000007 207.66594980468753,117.33049531250006 207.6688,117.32940000000006 207.6688,117.32940000000006 208.27972109375,117.07881738281256 208.89078750000002,116.82835781250006 209.50196640625,116.57800371093755 210.113225,116.32773750000007 210.72453046875,116.07754160156257 211.33585,115.82739843750007 211.94715078125,115.57729042968755 212.5584,115.32720000000006 212.5584,115.32720000000006 212.6380048828125,115.29543769531256 212.7176015625,115.26362031250005 212.7972005859375,115.23177714843756 212.87681250000003,115.19993750000006 212.9564478515625,115.16813066406256 213.0361171875,115.13638593750007 213.1158310546875,115.10473261718755 213.1956,115.07320000000006 213.1956,115.07320000000006 213.22251582031254,115.06762773437505 213.26122656250004,115.05991562500006 213.30751464843752,115.05142070312505 213.35716250000002,115.04350000000007 213.4059525390625,115.03751054687505 213.44966718750004,115.03480937500007 213.4840888671875,115.03675351562507 213.50500000000002,115.04470000000006 213.50500000000002,115.04470000000006 213.50610078125004,115.04340019531256 213.50735625000002,115.04206406250006 213.50873359375004,115.04071152343757 213.51020000000005,115.03936250000007 213.51172265625002,115.03803691406256 213.51326875,115.03675468750006 213.51480546875004,115.03553574218756 213.51630000000003,115.03440000000006 213.51630000000003,115.03440000000006 213.51739082031253,115.03613476562506 213.51855781250003,115.03789062500005 213.51979277343753,115.03966992187506 213.52108750000002,115.04147500000006 213.52243378906252,115.04330820312506 213.52382343750003,115.04517187500005 213.52524824218753,115.04706835937506 213.52670000000003,115.04900000000006 213.52670000000003,115.04900000000006 213.55277148437503,115.04832128906256 213.57987187500004,115.04748906250006 213.60749257812503,115.04718417968755 213.63512500000002,115.04808750000005 213.66226054687502,115.05087988281257 213.68839062500004,115.05624218750006 213.71300664062503,115.06485527343757 213.73560000000003,115.07740000000007 213.73560000000003,115.07740000000007 213.73664550781254,115.07599335937508 213.73781406250004,115.07462187500008 213.73907871093755,115.07328320312507 213.74041250000005,115.07197500000007 213.74178847656253,115.07069492187507 213.7431796875,115.06944062500006 213.7445591796875,115.06820976562507 213.74590000000003,115.06700000000006 213.74590000000003,115.06700000000006 213.75379355468752,115.07088476562507 213.7615921875,115.07480937500007 213.76932285156255,115.07876679687507 213.7770125,115.08275000000006 213.78468808593755,115.08675195312506 213.79237656250004,115.09076562500006 213.80010488281255,115.09478398437507 213.80790000000005,115.09880000000007 213.80790000000005,115.09880000000007 213.85210859375007,115.09297988281257 213.89869375000006,115.10687656250008 213.94650703125004,115.13465058593756 213.99440000000004,115.17046250000007 214.04122421875005,115.20847285156258 214.08583125000004,115.24284218750007 214.12707265625005,115.26773105468756 214.16380000000004,115.27730000000007 214.16380000000004,115.27730000000007 214.23429121093753,115.35445839843757 214.29816718750004,115.43042968750007 214.35588144531255,115.50674550781257 214.40788750000004,115.58493750000005 214.45463886718753,115.66653730468755 214.49658906250002,115.75307656250007 214.53419160156253,115.84608691406257 214.56790000000004,115.94710000000006 214.56790000000004,115.94710000000006 214.62912070312504,116.33583535156257 214.69037187500004,116.72465156250006 214.75163710937503,117.11352636718757 214.81290000000004,117.50243750000007 214.87414414062502,117.89136269531257 214.935353125,118.28027968750007 214.99651054687504,118.66916621093756 215.05760000000004,119.05800000000006 215.05760000000004,119.05800000000006 214.77789453125,119.17320390625007 214.49826875000002,119.28846875000005 214.21870859375002,119.40376171875008 213.93920000000003,119.51905000000006 213.65972890625002,119.63430078125006 213.38028125000002,119.74948125000007 213.10084296875004,119.86455859375008 212.82140000000004,119.97950000000006 212.82140000000004,119.97950000000006 212.67188417968754,118.87760488281255 212.55937968750004,118.04937656250006 212.47843847656253,117.45552558593755 212.42361250000005,117.05676250000006 212.38945371093754,116.81379785156255 212.37051406250004,116.68734218750006 212.36134550781253,116.63810605468755 212.35650000000004,116.62680000000006 212.35650000000004,116.62680000000006 212.35812968750002,116.62019980468756 212.35836250000003,116.61232343750007 212.35763906250003,116.60361972656254 212.3564,116.59453750000006 212.35508593750004,116.58552558593756 212.35413750000004,116.57703281250006 212.35399531250002,116.56950800781256 212.35510000000005,116.56340000000006 212.35510000000005,116.56340000000006 212.18737929687506,116.63180078125005 212.01975937500006,116.70028125000006 211.85222851562503,116.76884609375006 211.68477500000006,116.83750000000006 211.51738710937505,116.90624765625006 211.35005312500007,116.97509375000007 211.18276132812505,117.04404296875005 211.01550000000006,117.11310000000006 211.01550000000006,117.11310000000006 211.07266699218758,117.54036679687505 211.13029218750006,117.96775312500006 211.18822441406255,118.39523789062505 211.24631250000007,118.82280000000006 211.30440527343757,119.25041835937506 211.36235156250007,119.67807187500006 211.42000019531255,120.10573945312507 211.47720000000007,120.53340000000006 211.47720000000007,120.53340000000006 211.20531503906258,120.64549472656256 210.93335156250004,120.75753906250006 210.66133417968757,120.86954824218756 210.38928750000008,120.98153750000006 210.1172361328126,121.09352207031256 209.84520468750006,121.20551718750005 209.57321777343756,121.31753808593756 209.30130000000005,121.42960000000005 209.30130000000005,121.42960000000005 209.14960468750004,120.30717636718755 209.03545625000004,119.46353593750005 208.95332343750005,118.85867441406255 208.89767500000008,118.45258750000005 208.86297968750006,118.20527089843753 208.84370625000005,118.07672031250004 208.83432343750005,118.02693144531254 208.82930000000005,118.01590000000004 208.82930000000005,118.01590000000004 208.66167441406253,118.08428320312504 208.49406406250003,118.15282812500004 208.32649355468754,118.22149023437504 208.15898750000005,118.29022500000005 207.99157050781253,118.35898789062504 207.82426718750006,118.42773437500004 207.65710214843753,118.49641992187505 207.49010000000004,118.56500000000004 207.49010000000004,118.56500000000004 207.54706835937506,118.99287109375004 207.60399687500004,119.42073750000006 207.66092070312502,119.84860390625003 207.71787500000005,120.27647500000003 207.77489492187505,120.70435546875004 207.83201562500005,121.13225000000004 207.88927226562504,121.56016328125004 207.94670000000005,121.98810000000005 207.94670000000005,121.98810000000005 207.66599238281256,122.10456972656254 207.38525781250004,122.22097031250004 207.10451621093753,122.33732636718754 206.82378750000004,122.45366250000004 206.54309160156254,122.57000332031254 206.26244843750007,122.68637343750005 205.98187792968753,122.80279746093754 205.70140000000006,122.91930000000005" fill="none" stroke="black" stroke-width="0.1"/>
                <polygon id="_293518968___4" class="fil1 str1" points="200.35650000000007,122.53110000000005 200.33820683593757,122.39982988281255 200.32012343750006,122.26858906250006 200.30220644531255,122.13736933593755 200.28441250000006,122.00616250000004 200.26669824218757,121.87496035156255 200.24902031250008,121.74375468750006 200.23133535156256,121.61253730468755 200.21360000000007,121.48130000000005 200.21360000000007,121.48130000000005 200.42559472656257,121.39308613281256 200.63767031250006,121.30486406250004 200.84981386718758,121.21666308593754 201.0620125000001,121.12851250000006 201.27425332031257,121.04044160156255 201.48652343750007,120.95247968750004 201.69880996093758,120.86465605468754 201.91110000000006,120.77700000000004 201.91110000000006,120.77700000000004 201.90975761718758,120.78362753906254 201.90971718750006,120.79139531250004 201.91054628906258,120.79990605468754 201.91181250000008,120.80876250000006 201.91308339843758,120.81756738281254 201.91392656250005,120.82592343750005 201.91390957031257,120.83343339843755 201.91260000000005,120.83970000000005 201.91260000000005,120.83970000000005 201.91643535156254,120.84640703125005 201.92100781250005,120.86365625000005 201.92806699218755,120.90333984375005 201.93936250000007,120.97735000000004 201.95664394531255,121.09757890625005 201.98166093750007,121.27591875000005 202.01616308593754,121.52426171875004 202.06190000000007,121.85450000000004 202.06190000000007,121.85450000000004 201.84978203125007,121.94212519531254 201.63763125000006,122.02965781250005 201.42545234375007,122.11710839843755 201.21325000000007,122.20448750000004 201.0010289062501,122.29180566406255 200.78879375000008,122.37907343750004 200.57654921875007,122.46630136718754 200.36430000000007,122.55350000000004 200.36430000000007,122.55350000000004 200.36316503906258,122.55070820312504 200.3620828125001,122.54794687500005 200.36104980468758,122.54519960937505 200.36006250000008,122.54245000000004 200.35911738281257,122.53968164062505 200.35821093750008,122.53687812500004 200.3573396484376,122.53402304687503 200.35650000000007,122.53110000000004" fill="none" stroke="black" stroke-width="0.1"/>
                <polygon id="_293518968___5" class="fil1 str1" points="193.22290000000007,125.48380000000003 193.19236523437507,125.24854277343753 193.16899062500008,125.06735468750003 193.15128320312508,124.92768613281254 193.13775000000007,124.81698750000004 193.12689804687506,124.72270917968754 193.1172343750001,124.63230156250003 193.10726601562507,124.53321503906254 193.09550000000007,124.41290000000004 193.09550000000007,124.41290000000004 193.30575488281258,124.32482421875004 193.51618906250008,124.23691250000005 193.72675683593758,124.14915078125003 193.93741250000005,124.06152500000005 194.14811035156256,123.97402109375003 194.35880468750005,123.88662500000004 194.5694498046876,123.79932265625004 194.7800000000001,123.71210000000004 194.7800000000001,123.71210000000004 194.8137722656251,123.95290468750002 194.8395968750001,124.13806875000003 194.8590980468751,124.28015468750004 194.87390000000008,124.39172500000004 194.88562695312507,124.48534218750004 194.8959031250001,124.57356875000005 194.9063527343751,124.66896718750003 194.91860000000008,124.78410000000004 194.91860000000008,124.78410000000004 194.70670722656257,124.87148867187504 194.49478281250006,124.95895937500005 194.28283261718758,125.04648164062505 194.0708625000001,125.13402500000004 193.85887832031258,125.22155898437504 193.6468859375001,125.30905312500003 193.43489121093756,125.39647695312503 193.2229000000001,125.48380000000003" fill="none" stroke="black" stroke-width="0.1"/>
            </g>
        </g>
    </g>
</svg>
