<!DOCTYPE svg PUBLIC "-//W3C//DTD SVG 1.1//EN" "http://www.w3.org/Graphics/SVG/1.1/DTD/svg11.dtd">
<svg xmlns="http://www.w3.org/2000/svg" width="297mm" height="210mm" viewBox="0 0 297 210">
    <defs id="_tag_102_"/>
    <g id="Ebene_x0020_1">
        <polygon points="110.054,206.488 111.413,210.952 113.099,215.603 113.455,216.735 114.079,218.693 116.34,218.693 116.855,218.323 117.138,217.891 117.138,213.534 118.472,213.534 118.472,200.225 117.138,200.213 117.11,199.479 117.138,197 82.8613,197 82.8615,217.465 83.147,218.395 83.8081,218.693 85.6305,218.726 86.2573,216.735 88.2998,210.952 89.6583,206.488 88.2998,210.952 86.2573,216.735 85.3204,219.71 84.4515,223.394 84.2318,225.813 84.2837,237.639 86.5607,239.234 88.5994,240.811 90.9506,242.664 93.1028,244.749 94.8455,246.754 96.5358,249.464 97.7196,252.191 98.2797,255.321 99.3406,256.702 100.372,256.702 101.433,255.321 101.993,252.191 103.177,249.464 104.867,246.755 106.61,244.75 108.762,242.664 111.113,240.811 113.152,239.234 115.429,237.639 115.468,225.814 115.261,223.394 114.392,219.71 113.455,216.735 113.099,215.603 111.413,210.952" fill="none" stroke="black" stroke-width="0.1" id="_tag_103_"/>
        <polygon points="97.9482,245.74 96.4599,243.447 94.3621,241.223 92.3352,239.575 90.6915,238.537 90.0011,237.688 90.1744,236.589 91.0168,236.101 91.8423,235.878 93.3232,235.748 99.7341,235.635 106.563,235.757 108.221,235.889 109.367,236.332 109.63,237.313 109.372,238.249 108.573,238.959 107.143,239.782 104.845,241.505 103.069,243.484 101.67,245.4 100.873,246.549 100.022,247.138 99.0813,246.993 98.5033,246.58" fill="none" stroke="black" stroke-width="0.1" id="_tag_104_"/>
        <polygon points="85.0396,189.684 85.0396,197 114.96,197 114.96,189.684" fill="none" stroke="black" stroke-width="0.1" id="_tag_105_"/>
        <circle cx="100" cy="197" r="8.3016" fill="none" stroke="black" stroke-width="0.1" id="center_00"/>
        <polyline points="116.771,212.689 116.3638296875,211.205733984375 116.07299375,209.72998437500002 115.89849218750001,208.261748828125 115.840325,206.80102499999998 115.89849218750001,205.347810546875 116.07299375,203.902103125 116.3638296875,202.46390039062499 116.771,201.0332" fill="none" stroke="black" stroke-width="0.1" id="_new_94_1"/>
    </g>
</svg>
