<!DOCTYPE svg PUBLIC "-//W3C//DTD SVG 1.1//EN" "http://www.w3.org/Graphics/SVG/1.1/DTD/svg11.dtd">
<svg xmlns="http://www.w3.org/2000/svg" width="297mm" height="210mm" viewBox="0 0 297 210">
    <defs id="_tag_67_"/>
    <g id="Ebene_x0020_1">
        <g id="g3036">
            <circle cx="95.9051" cy="185.14" r="20.1608" fill="none" stroke="black" stroke-width="0.1" id="center_00"/>
            <polygon points="29.257,221.152 32.446,221.696 35.57,218.74 32.446,221.696 33.4586,222.753 36.3451,225.195 41.7347,229.3 47.6904,231.471 55.0924,232.527 63.0394,231.862 122.875,226.5 131.705,225.265 136.652,223.867 142.438,220.809 170.898,208.817 175.936,207.159 189.947,206.085 188.817,203.177 189.947,206.085 192.135,207.54 206.318,207.89 222.73,201.706 194.811,197 185.681,196.01 187.674,199.881 187.929,200.69 175.254,201.448 171.324,202.273 167.488,203.599 138.442,215.832 133.908,217.983 127.723,219.568 55.6724,225.734 49.3274,225.022 44.4578,222.495 40.2694,219.368 37.717,216.867 39.2139,212.839 5.1207,205.106" fill="none" stroke="black" stroke-width="0.1" id="polygon3025"/>
            <polygon points="67.2896,184.887 101.292,185.188 159.431,184.178 186.153,184.202 207.379,184.429 226.265,186.674 238.728,191.688 243.783,196.392 245.1,200.262 243.518,204.844 241.082,207.098 236.157,207.063 206.487,201.682 186.956,201.192 161.149,202.293 131.844,203.393 106.178,205.553 80.9872,209.913 58.6125,216.802 43.6718,217.058 28.4724,213.937 7.3466,208.452 -11.5312,203.979 -24.4475,201.495 -32.9599,200.679 -35.139,198.902 -35.139,194.95 -34.24,190.966 -27.4846,186.671 -16.4562,184.481 -4.2759,182.987 13.9399,182.564 30.8434,183.074" fill="none" stroke="black" stroke-width="0.1" id="polygon3027"/>
        </g>
        <g id="_129821232">
            <polygon points="94.812,244.045 93.981,243.316 93.114,242.628 92.212,241.98 91.276,241.371 91.003,241.046 90.914,240.655 90.992,240.234 91.319,239.929 94.246,238.298 97.315,237.054 100.489,236.199 103.733,235.732 107.01,235.655 110.285,235.967 113.522,236.669 116.684,237.762 117.025,238.032 117.19,238.406 117.153,238.853 116.95,239.21 116.135,239.965 115.355,240.754 114.615,241.577 113.915,242.434 113.259,243.326 112.649,244.252 112.088,245.213 111.577,246.209 97.755,247.384 97.078,246.484 96.362,245.629 95.606,244.816" fill="none" stroke="black" stroke-width="0.1" id="path159"/>
            <polyline points="110.537,246.298 99.343,247.249 99.387,247.656 99.608,248.18 100.206,248.55 100.702,248.58800000000002 101.491,248.50600000000003 102.606,248.40100000000004 103.92599999999999,248.28200000000004 105.329,248.16000000000003 106.695,248.04300000000003 107.90199999999999,247.94100000000003 108.829,247.86300000000003 109.35499999999999,247.82000000000002 109.81299999999999,247.72700000000003 110.34899999999999,247.31200000000004 110.52799999999999,246.79700000000005 110.52399999999999,246.36500000000007" fill="none" stroke="black" stroke-width="0.1" id="path171_1"/>
            <polygon points="101.353,216.742 102.214,216.603 102.885,216.475 103.387,216.275 103.218,215.873 102.648,215.735 102.252,215.671 101.804,215.606 101.343,215.551 100.907,215.514 100.268,215.532 99.705,215.698 98.984,215.998 98.315,216.319 97.906,216.548 97.589,216.832 98.638,217.077 99.464,216.994 100.403,216.877" fill="none" stroke="black" stroke-width="0.1" id="path1045"/>
            <polygon points="82.529,229.387 81.634,229.571 81.165,229.714 81.913,238.04 82.134,238.405 82.546,238.51 88.597,237.82 89.661,237.113 90.511,236.569 91.381,236.053 92.268,235.565 93.172,235.106 94.09,234.676 95.022,234.277 95.964,233.909 95.886,233.216 95.803,232.486 95.703,231.621 95.596,230.711 95.493,229.847 95.403,229.12 95.335,228.619 95.065,228.096 94.528,227.886 93.82,227.884 93.036,227.985 89.102,228.46 86.129,228.844 83.982,229.149" fill="none" stroke="black" stroke-width="0.1" id="path1073"/>
            <polygon points="123.025,225.185 122.811,224.82 110.7,226.087 110.213,226.094 109.797,226.152 109.172,226.416 108.826,226.87 108.756,227.503 108.82,227.979 108.905,228.671 109.003,229.494 109.103,230.361 109.197,231.186 109.275,231.882 109.329,232.363 110.359,232.679 111.356,232.85 112.34,233.056 113.312,233.295 114.272,233.567 115.22,233.872 116.157,234.208 117.084,234.576 123.493,233.883 123.861,233.688 123.97,233.3" fill="none" stroke="black" stroke-width="0.1" id="path1085"/>
            <polygon points="88.002,219.604 94.453,217.47 94.869,217.301 95.228,217.073 95.519,216.778 95.732,216.409 95.905,215.951 96.008,215.561 96.304,215.267 104.242,214.328 104.652,214.423 104.899,214.782 105.105,215.136 105.357,215.474 105.695,215.734 106.077,215.918 106.49,216.033 113.248,216.635 121.159,216.387 121.607,216.583 122.041,220.133 121.924,220.561 121.536,221.039 120.718,221.374 119.967,221.482 118.855,221.635 117.51,221.809 116.059,221.981 114.63,222.128 113.353,222.227 112.355,222.254 111.763,222.187 111.181,221.846 110.702,221.428 110.144,220.992 109.778,220.787 109.324,220.6 108.836,220.477 108.276,220.43 107.654,220.452 106.982,220.537 106.269,220.675 105.527,220.86 104.766,221.083 103.998,221.337 103.315,221.567 102.783,221.73 102.369,221.84 101.779,221.949 101.299,221.999 100.65,222.078 100.175,222.14 99.582,222.166 99.159,222.152 98.609,222.11 97.898,222.035 97.083,221.958 96.286,221.909 95.519,221.894 94.792,221.919 94.114,221.989 93.497,222.11 92.95,222.289 92.485,222.529 92.099,222.821 91.799,223.106 91.363,223.65 90.988,224.157 90.488,224.62 89.919,224.823 88.935,225.028 87.663,225.226 86.234,225.41 84.777,225.571 83.423,225.702 82.302,225.794 81.542,225.841 81.052,225.83 80.393,225.561 80.068,225.157 79.903,224.29 79.862,223.773 79.83,223.27 79.804,222.805 79.786,222.4 79.766,221.873 80.237,221.16 79.764,221.798 79.866,221.405" fill="none" stroke="black" stroke-width="0.1" id="path1033"/>
        </g>
    </g>
</svg>
