<!DOCTYPE svg PUBLIC "-//W3C//DTD SVG 1.1//EN" "http://www.w3.org/Graphics/SVG/1.1/DTD/svg11.dtd">
<svg xmlns="http://www.w3.org/2000/svg" width="297mm" height="210mm" viewBox="0 0 297 210">
    <defs id="_tag_31_"/>
    <g id="_tag_32_">
        <polygon id="simplify_2" points="247.641,508.737 244.212,507.885 240.724,507.389 237.156,507.33 233.648,507.607 230.22,508.241 226.811,509.292 223.58,510.679 220.508,512.364 217.634,514.385 215.474,516.288 226.038,537.039 226.454,537.752 245.401,558.86 246.591,559.911 247.998,560.743 249.524,561.159 251.129,561.298 252.735,561.1 254.281,560.545 255.608,559.633 256.738,558.504 257.63,557.116 258.125,555.57 258.344,553.965 258.205,552.359 254.697,535.79 248.275,509.351 248.196,509.212 248.196,509.153 248.137,509.014 247.998,508.935 247.918,508.875 247.839,508.796 247.7,508.737" fill="none" stroke="black" stroke-width="0.1"/>
        <polygon class="fil0 str0" id="simplify_3_1" points="297.237,200.662 293.71410000000003,197.8308 287.2479,200.662 286.2938779296875,208.071682421875 285.3471296875,215.49802187500003 284.40603222656256,222.93556914062503 283.4689625,230.37887500000002 282.53429746093747,237.822490234375 281.60041406249996,245.26096562500004 280.6656892578125,252.688851953125 279.7285,260.1007 246.9662,519.5867000000001 246.3722,524.3149000000001 254.8352,535.8499 254.91439999999997,535.8499 255.89999999999998,528.0277000000001 289.7373,260.1007000000001 290.640692578125,252.92270527343754 291.548071875,245.74526718750008 292.45827773437503,238.56822988281257 293.37014999999997,231.39143750000008 294.28252851562496,224.21473417968758 295.19425312500005,217.03796406250007 296.10416367187497,209.86097128906258 297.0111,202.68360000000007 297.237,200.66200000000006" fill="none" stroke="black" stroke-width="0.1"/>
        <polygon class="fil0 str0" id="simplify_4_1" points="298.755,183.816 280.858,183.816 280.858,200.6626 298.755,200.6626 298.755,198.556783203125 298.755,196.450959375 298.755,194.345130859375 298.755,192.23930000000001 298.755,190.13346914062498 298.755,188.027640625 298.755,185.92181679687502 298.755,183.816" fill="none" stroke="black" stroke-width="0.1"/>
        <polygon id="simplify_5" points="73.9627,204.448 73.269,204.448 73.269,204.587 73.269,205.142 73.269,206.113 73.269,206.965 74.3978,206.185" fill="none" stroke="black" stroke-width="0.1"/>
        <g id="_tag_33_"/>
        <g id="_tag_34_"/>
        <polygon class="fil0 str0" id="simplify_6_1" points="73.269,208.709 73.269,210.41345859375002 73.269,212.11793125 73.269,213.82241328125 73.269,215.5269 73.269,217.23138671875 73.269,218.93586875 73.269,220.64034140624997 73.269,222.3448 76.26180000000001,222.3448 76.26180000000001,220.52637890625002 76.26180000000001,218.70794375 76.26180000000001,216.88949921875 76.26180000000001,215.07105 76.26180000000001,213.25260078125 76.26180000000001,211.43415625 76.26180000000001,209.61572109374998 76.26180000000001,207.7973 76.26180000000001,207.1036 76.3837,206.345 76.75720000000001,205.637 77.45090000000002,205.0027 78.36260000000001,204.4478 79.27430000000001,203.873 80.186,203.3181 86.4688,199.4731 87.3805,198.77939999999998 88.1535,197.94699999999997 88.6489,196.95599999999996 88.9859,195.90559999999996 89.1246,194.79569999999995 89.1246,186.25349999999995 86.1319,186.25349999999995 86.1319,194.79569999999995 86.1319,195.27139999999994 85.9139,195.76689999999994 85.7157,196.18309999999994 85.35889999999999,196.61909999999995 84.94269999999999,196.89659999999995 75.92479999999999,202.40639999999996 75.50859999999999,202.68389999999997 75.4640125,202.72106249999993 75.41942499999999,202.75822499999998 75.37483749999998,202.79538749999998 75.33024999999998,202.83254999999997 75.2856625,202.86971249999996 75.24107499999998,202.90687499999996 75.19648749999999,202.9440375 75.15189999999998,202.98119999999997 74.79509999999998,203.31809999999996 73.96269999999997,204.44779999999997 73.40779999999997,205.8352 73.26899999999996,207.1036 73.26899999999996,207.304266796875 73.26899999999996,207.504940625 73.26899999999996,207.705619140625 73.26899999999996,207.9063 73.26899999999996,208.106980859375 73.26899999999996,208.307659375 73.26899999999996,208.508333203125 73.26899999999996,208.709" fill="none" stroke="black" stroke-width="0.1"/>
        <g id="simplify_7_1">
            <polygon class="fil0 str0" id="simplify_7___0" points="361.464,188.85 358.4514,188.85 358.4514,188.01749999999998 358.4514,187.87879999999998 358.392,187.6608 358.3127,187.4428 358.17400000000004,187.304 358.03520000000003,187.2446 357.83700000000005,187.1058 357.6983000000001,187.0266 357.48030000000006,187.0266 339.22650000000004,187.0266 339.0692,187.06380000000001 338.949,187.10580000000002 338.81030000000004,187.16530000000003 338.67160000000007,187.24460000000002 338.57490000000007,187.33990000000003 338.5142000000001,187.47240000000002 338.4535000000001,187.66080000000002 338.4535000000001,187.79950000000002 338.4535000000001,188.0175 338.4535000000001,188.15630000000002 338.4535000000001,188.29500000000002 338.4016000000001,188.5353 338.3001000000001,188.73350000000002 338.0683000000001,188.8872 337.8862000000001,188.959 337.7004000000001,188.9887 336.1545000000001,188.9887 335.7977000000001,188.85 335.6590000000001,188.7112 335.52030000000013,188.4337 335.4608000000001,188.1563 335.4608000000001,186.0554 335.52030000000013,185.6392 335.6590000000001,185.2824 335.7977000000001,184.9257 336.0950000000001,184.6482 336.37250000000006,184.3707 336.7094000000001,184.232 337.0662000000001,184.0933 337.4824000000001,184.0933 339.9995000000001,184.0933 340.07870000000014,184.1726 340.21750000000014,184.232 340.3562000000001,184.3113 340.4950000000001,184.3707 340.6337000000001,184.3707 340.77240000000006,184.3707 340.91120000000006,184.3113 341.04990000000004,184.232 341.1886,184.1726 341.2679,184.0933 343.012,184.0933 343.012,184.1726 343.0715,184.1726 343.2102,184.232 343.349,184.3113 343.48769999999996,184.3707 343.64629999999994,184.3707 343.7849999999999,184.3707 343.8444999999999,184.3113 343.9831999999999,184.232 344.12189999999987,184.1726 344.20119999999986,184.1726 344.20119999999986,184.0933 352.9415999999999,184.0933 352.9415999999999,184.1726 353.0010999999999,184.1726 353.13979999999987,184.232 353.27849999999984,184.3113 353.3577999999998,184.3707 353.4964999999998,184.3707 353.6352999999998,184.3707 353.7739999999998,184.3113 353.9127999999998,184.232 354.05149999999975,184.1726 354.13079999999974,184.1726 354.13079999999974,184.0933 354.34879609374974,184.0933 354.56680624999973,184.0933 354.78482578124976,184.0933 355.00284999999974,184.0933 355.2208742187497,184.0933 355.43889374999975,184.0933 355.65690390624974,184.0933 355.87489999999974,184.0933 355.9342999999997,184.1726 356.0135999999997,184.1726 356.0730999999997,184.232 356.23159999999973,184.3113 356.37039999999973,184.3707 356.5090999999997,184.3707 356.6478999999997,184.3707 356.7865999999997,184.3113 356.92529999999965,184.232 356.98479999999967,184.1726 357.06409999999966,184.1726 357.12349999999964,184.0933 357.4133460937496,184.0933 357.70320624999965,184.0933 357.9930757812496,184.0933 358.28294999999963,184.0933 358.57282421874964,184.0933 358.8626937499996,184.0933 359.15255390624964,184.0933 359.4423999999996,184.0933 359.8585999999996,184.0933 360.21539999999965,184.232 360.55229999999966,184.3707 360.82979999999964,184.6482 361.10719999999964,184.9257 361.32529999999963,185.2824 361.40449999999964,185.6392 361.46399999999966,186.0554 361.46399999999966,188.85" fill="none" stroke="black" stroke-width="0.1"/>
            <polygon class="fil0 str0" id="simplify_7___1" points="361.46399999999966,188.85 358.45139999999964,188.85 358.45139999999964,193.8841 358.45139999999964,194.0228 358.5306999999996,194.24089999999998 358.59019999999964,194.37959999999998 358.74869999999964,194.51829999999998 358.88749999999965,194.65709999999999 359.0261999999996,194.7165 359.1648999999996,194.7165 359.3630999999996,194.79579999999999 360.4927999999996,194.79579999999999 360.6315999999996,194.7165 360.77029999999957,194.7165 360.96849999999955,194.65709999999999 361.1071999999995,194.51829999999998 361.1864999999995,194.4391 361.3252999999995,194.3003 361.40449999999953,194.10209999999998 361.46399999999954,193.94359999999998 361.46399999999954,193.74539999999996 361.46399999999954,188.84999999999997" fill="none" stroke="black" stroke-width="0.1"/>
        </g>
        <line id="simplify_8" x1="358.452" y1="188.85" x2="361.464" y2="188.85" stroke="black" stroke-width="0.1"/>
        <line id="simplify_9" x1="280.858" y1="185.064" x2="298.755" y2="185.064" stroke="black" stroke-width="0.1"/>
        <line id="simplify_10" x1="298.755" y1="184.093" x2="280.858" y2="184.093" stroke="black" stroke-width="0.1"/>
        <polygon id="simplify_11" points="215.474,516.268 215.474,516.288 200.372,486.559 150.03,387.481 95.4272,279.96 93.6831,276.115 92.4147,272.468 91.4435,268.762 90.8886,265.135 90.5318,260.795 90.6111,260.101 91.4435,250.171 96.3389,217.37 97.1119,211.92 97.865,206.965 98.4992,202.625 98.7173,200.94 89.1246,198.225 88.8471,199.969 88.2922,204.012 87.658,208.154 87.0436,212.197 86.4688,215.983 81.4347,250.171 80.6815,260.101 80.6815,261.013 81.0184,266.384 81.7914,270.724 82.9013,275.263 84.4472,279.822 86.5481,284.499 136.89,383.497 191.572,491.038 217.837,542.756 226.375,537.752 226.038,537.039" fill="none" stroke="black" stroke-width="0.1"/>
        <polyline id="simplify_SVG__000007" points="254.697,535.79 254.697,535.711 254.697,535.652 254.637,535.572 254.637,535.513 254.558,535.434" fill="none" stroke="black" stroke-width="0.1"/>
        <polygon id="simplify_13" points="238.623,517.953 238.623,517.616 238.405,517.041 238.266,516.843 238.068,516.625 237.85,516.427 237.295,516.129 235.967,515.654 234.56,515.376 233.094,515.158 231.706,515.099 230.22,515.158 228.832,515.376 227.425,515.654 226.038,516.129 225.542,516.427 225.344,516.625 225.126,516.843 224.987,517.041 224.849,517.318 224.769,517.616 224.769,517.953 224.908,519.499 225.404,521.025 226.177,522.353 227.286,523.482 228.614,524.315 230.081,524.87 231.706,525.009 233.232,524.87 234.778,524.315 236.106,523.482 237.156,522.353 237.989,521.025 238.484,519.499" fill="none" stroke="black" stroke-width="0.1"/>
        <polygon id="simplify_14" points="254.003,553.886 253.785,552.855 253.23,551.943 252.457,551.23 251.407,550.893 250.356,550.893 249.385,551.23 248.553,551.943 247.998,552.855 247.839,553.886 247.998,554.936 248.553,555.848 249.385,556.561 250.356,556.898 251.407,556.898 252.457,556.561 253.23,555.848 253.785,554.936" fill="none" stroke="black" stroke-width="0.1"/>
        <polygon id="simplify_17" points="106.962,183.816 89.1246,183.816 89.1246,200.94 106.962,200.94" fill="none" stroke="black" stroke-width="0.1"/>
        <line id="simplify_18" x1="89.1246" y1="184.173" x2="106.962" y2="184.173" stroke="black" stroke-width="0.1"/>
        <line id="simplify_19" x1="89.1246" y1="185.144" x2="106.962" y2="185.144" stroke="black" stroke-width="0.1"/>
        <polygon id="simplify_20" points="397.199,140.808 398.17,139.836 399.359,139.202 400.687,139.004 402.015,139.063 403.284,139.48 404.393,140.253 405.246,141.303 405.801,142.571 405.999,143.899 405.801,145.366 405.246,146.476 404.889,147.11 404.393,147.943 391.61,169.348 388.875,173.193 386.14,175.987 384.534,177.375 383.206,178.365 382.017,179.138 379.579,180.605 376.071,182.072 371.533,183.32 366.082,183.816 58.226,183.816 55.4315,183.955 53.2711,184.232 51.3685,184.648 49.7631,185.064 48.5145,185.421 45.4424,186.749 42.3506,188.434 40.2695,189.9 37.7525,192.061 34.9381,195.073 32.9958,197.868 31.1724,201.297 30.2012,203.734 29.4283,206.251 28.8535,209.264 26.1382,227.518 25.9995,229.341 25.9995,230.867 26.059,232.473 26.4157,234.712 26.9707,236.734 27.8824,238.914 28.8535,240.658 29.7058,241.986 31.0337,243.591 32.8571,245.336 35.2949,247.159 37.4552,248.348 40.0515,249.319 41.8749,249.815 43.6785,250.092 45.7794,250.171 319.477,250.171 320.279,250.171 322.182,249.894 324.065,249.319 325.809,248.427 327.355,247.298 328.742,245.91 329.793,244.444 333.025,243.135 338.346,246.422 338.315,249.537 337.622,250.588 336.016,252.689 334.133,254.512 332.092,256.177 329.872,257.505 327.494,258.634 324.977,259.388 322.38,259.883 319.863,260.101 319.437,260.101 45.7794,260.101 43.3416,260.022 40.7452,259.685 38.3074,259.189 35.1561,258.139 32.2823,256.87 29.2103,255.067 26.9112,253.323 25.0878,251.698 22.9869,249.399 20.6879,246.327 18.587,242.343 17.2591,238.775 16.3474,234.851 16.0699,231.997 16.0699,228.905 16.3474,226.111 19.0032,207.797 19.6374,204.507 20.6086,201.158 21.7383,198.086 23.6806,194.162 25.7815,190.812 28.576,187.245 31.0931,184.648 33.7489,182.349 36.6228,180.328 39.556,178.564 42.7866,177.037 45.7794,175.908 49.4262,174.857 53.7468,174.164 58.226,173.886 366.082,173.886 368.104,173.748 370.145,173.47 371.81,173.054 373.634,172.42 374.962,171.785 376.646,170.814 378.668,169.407 380.134,168.02 381.68,166.256 383.068,164.234 396.704,141.521" fill="none" stroke="black" stroke-width="0.1"/>
        <polygon id="center_00" cx="250.921" cy="553.895" points="252.07479999999998,553.895 252.0684793628759,554.0156049409183 252.04958670172667,554.1348885088655 252.01832900850135,554.2515438081098 251.97504874902802,554.3642927387808 251.92022011088648,554.4719 251.8544438081098,554.573186624095 251.77844049963582,554.6670428936168 251.69304289361685,554.7524404996358 251.59918662409504,554.8284438081098 251.4979,554.8942201108865 251.39029273878086,554.9490487490281 251.2775438081098,554.9923290085013 251.16088850886553,555.0235867017267 251.0416049409182,555.042479362876 250.921,555.0488 250.80039505908178,555.042479362876 250.68111149113446,555.0235867017267 250.56445619189017,554.9923290085013 250.45170726121913,554.9490487490281 250.3441,554.8942201108865 250.24281337590494,554.8284438081098 250.14895710638314,554.7524404996358 250.06355950036416,554.6670428936168 249.98755619189018,554.573186624095 249.9217798891135,554.4719 249.86695125097197,554.3642927387808 249.82367099149863,554.2515438081098 249.79241329827332,554.1348885088655 249.77352063712408,554.0156049409183 249.7672,553.895 249.77352063712408,553.7743950590817 249.79241329827332,553.6551114911344 249.82367099149863,553.5384561918902 249.86695125097197,553.4257072612191 249.9217798891135,553.3181 249.98755619189018,553.216813375905 250.06355950036416,553.1229571063832 250.14895710638314,553.0375595003642 250.24281337590494,552.9615561918902 250.3441,552.8957798891134 250.45170726121913,552.8409512509719 250.56445619189017,552.7976709914986 250.68111149113446,552.7664132982733 250.80039505908178,552.747520637124 250.921,552.7411999999999 251.0416049409182,552.747520637124 251.16088850886553,552.7664132982733 251.2775438081098,552.7976709914986 251.39029273878086,552.8409512509719 251.4979,552.8957798891134 251.59918662409504,552.9615561918902 251.69304289361685,553.0375595003642 251.77844049963582,553.1229571063832 251.8544438081098,553.216813375905 251.92022011088648,553.3181 251.97504874902802,553.4257072612191 252.01832900850135,553.5384561918902 252.04958670172667,553.6551114911344 252.0684793628759,553.7743950590817" fill="none" stroke="black" stroke-width="0.1"/>
        <polyline id="simplify_SVG__000015" points="339.167,250.092 338.949,249.953 338.533,249.676 338.394,249.617" fill="none" stroke="black" stroke-width="0.1"/>
        <polyline id="simplify_SVG__000016" points="329.793,244.503 330.15,244.721 330.764,245.058 331.616,245.553 332.587,246.188 333.777,246.802 334.906,247.516 336.016,248.209 336.928,248.764 337.701,249.18 338.117,249.478 338.256,249.537" fill="none" stroke="black" stroke-width="0.1"/>
        <line id="simplify_25" x1="335.184" y1="233.741" x2="336.095" y2="234.078" stroke="black" stroke-width="0.1"/>
        <polygon class="fil3 str0" id="simplify_26_1" points="345.391,241.768 345.391,241.768 345.6684,241.2131 345.6684,240.7374 345.5892,240.24190000000002 345.4504,240.02390000000003 344.2613,238.83470000000003 342.3784,237.22940000000003 340.6343,235.9807 340.0001,235.62400000000002 336.98749999999995,234.3753 335.18389999999994,233.74110000000002 334.82719999999995,233.66180000000003 334.60919999999993,233.66180000000003 334.27219999999994,233.74110000000002 333.91549999999995,233.87990000000002 333.57859999999994,234.15730000000002 333.28129999999993,234.5141 328.96059999999994,243.9482 330.21691874999993,244.745755859375 331.48964374999997,245.516740625 332.77336562499994,246.27021757812503 334.06267499999996,247.01525 335.35216249999996,247.76090117187502 336.63641874999996,248.516234375 337.91003437499995,249.29031289062502 339.16759999999994,250.09220000000002 345.39099999999996,241.76800000000003" fill="none" stroke="black" stroke-width="0.1"/>
        <line id="simplify_27" x1="335.105" y1="233.741" x2="345.113" y2="239.687" stroke="black" stroke-width="0.1"/>
        <polyline id="simplify_SVG__000019" points="333.281,234.514 345.252,241.629 345.391,241.768" fill="none" stroke="black" stroke-width="0.1"/>
    </g>
</svg>
