<?xml version="1.0" encoding="UTF-8"?>
<!DOCTYPE svg PUBLIC "-//W3C//DTD SVG 1.1//EN" "http://www.w3.org/Graphics/SVG/1.1/DTD/svg11.dtd">
<svg width="297mm" height="210mm" viewBox="0 0 297 210">
    <defs id="_tag_5_">
        <style type="text/css">
                   
                    .str0 {stroke:#1F1A17;stroke-width:0.0762}
                    .str1 {stroke:black;stroke-width:0.1}
                    .fil1 {fill:none}
                    .fil2 {fill:#727577}
                    .fil0 {fill:#7F7E7C}
                   
                  </style>
    </defs>
    <g id="Ebene_x0020_1">
        <circle cx="51.0786" cy="119.111" r="15" fill="none" stroke="black" stroke-width="0.1" id="center_00"/>
        <g id="_129888504">
            <g id="_tag_25_">
                <polygon points="57.1897,263.091 57.9533,262.829 58.4386,262.652 58.9357,262.457 59.3864,262.26 59.9737,261.78 59.879,260.923 59.8398,260.15 59.9138,259.663 60.0942,259.147 60.4146,258.63 60.9058,258.141 61.4418,257.741 61.939,257.413 62.4092,257.16 62.8661,256.986 63.3242,256.896 63.7956,256.889 64.2947,256.972 64.8344,257.147 65.3709,256.704 65.6085,256.312 65.8836,255.852 66.162,255.378 66.4121,254.942 66.6899,254.263 66.3341,253.633 65.8667,253.021 65.6388,252.597 65.4677,252.111 65.3914,251.572 65.448,250.993 65.5899,250.432 65.7525,249.93 65.9534,249.477 66.2079,249.059 66.5324,248.665 66.9445,248.283 67.4607,247.903 68.0965,247.511 68.495,247.069 68.479,246.573 68.4972,245.752 68.5033,245.312 68.5021,244.902 68.3659,244.186 67.8146,243.77 67.3595,243.664 66.7635,243.418 66.4181,243.195 66.065,242.881 65.7229,242.461 65.4108,241.918 65.1467,241.353 64.9442,240.817 64.8091,240.303 64.7464,239.806 64.7626,239.313 64.863,238.82 65.0524,238.317 65.3378,237.798 65.4796,237.138 65.2393,236.631 64.8172,235.928 64.5668,235.55 64.3113,235.195 63.8468,234.685 62.9948,234.67 62.4036,234.742 61.7011,234.737 60.9605,234.582 59.4559,233.848 60.0685,232.923 55.1566,229.969 52.7009,230.529 51.9514,230.581 51.2464,230.521 50.7383,230.296 50.3767,230.086 49.9893,229.799 49.6115,229.432 49.2778,228.977 49.0231,228.427 48.4114,228.05 47.8878,228.104 47.0787,228.23 46.6567,228.307 45.9552,228.459 45.3898,229.055 45.3402,229.695 45.2042,230.447 44.9508,230.906 44.4352,231.475 44.0499,231.774 43.5878,232.057 43.1419,232.266 42.726,232.412 42.0408,232.559 41.3216,232.581 40.7488,232.514 40.1629,232.365 39.6074,232.128 38.9973,231.915 38.1526,232.267 37.8494,232.532 37.5129,232.832 37.1793,233.141 36.8844,233.428 36.5013,233.926 36.7496,234.916 36.8786,235.949 36.7773,236.879 36.3129,237.692 31.9677,244.416 31.8953,250.533 35.3426,259.295 43.113,265.863 52.3968,265.693 55.4939,262.949" fill="none" stroke="black" stroke-width="0.1" id="_128939664"/>
                <circle cx="49.8464" cy="246.316" r="13.5" fill="none" stroke="black" stroke-width="0.1" id="_154592512"/>
                <polygon points="82.001,182.794 82.3696,183.028 82.7762,183.41 82.9865,183.771 83.066,184.363 82.9857,185.144 82.9128,185.56 82.8198,185.987 82.7048,186.42 82.5675,186.855 82.41,187.287 82.0516,188.208 81.314,189.934 80.2807,192.277 79.0403,195.052 77.6754,198.075 76.2716,201.159 74.9168,204.12 73.6945,206.773 72.6823,208.913 71.8169,210.582 71.0546,211.873 70.3518,212.88 69.6658,213.699 68.953,214.422 68.1708,215.144 67.2759,215.958 65.7874,217.271 63.465,219.253 60.6277,221.643 57.593,224.182 54.679,226.609 52.204,228.665 51.4624,229.28 50.4858,230.09 49.3601,231.029 48.1729,231.889 46.921,232.665 45.6026,233.355 44.2144,233.954 42.754,234.457 41.2188,234.862 39.6063,235.165 38.9823,235.252 38.3467,235.323 37.6998,235.38 37.0412,235.421 36.3706,235.445 35.6883,235.454 34.994,235.447 34.2875,235.424 33.5002,235.345 33.0271,235.277 32.093,235.102 30.9494,234.879 29.7001,234.632 28.4472,234.38 27.2937,234.146 26.3424,233.952 25.6962,233.82 25.0831,233.697 24.6875,233.621 24.2182,233.534 23.724,233.445 23.2534,233.366 22.8553,233.307 22.3418,233.286 21.8103,233.452 21.401,233.784 20.9377,234.257 20.5309,234.756 20.1657,235.302 19.9677,235.775 19.7573,236.649 19.5764,237.368 19.372,238.173 19.1636,238.985 18.9713,239.726 18.8151,240.318 18.6833,240.881 18.8582,241.422 19.1061,241.741 19.4477,241.998 20.2871,242.615 21.4827,243.496 22.8685,244.52 24.2786,245.565 25.5465,246.513 26.5064,247.241 26.9926,247.631 27.3815,248.044 27.7359,248.621 28.0022,249.267 28.1264,249.885 28.1727,250.471 28.3654,251.636 28.7548,253.262 29.3919,255.232 30.3283,257.428 31.6143,259.732 33.301,262.026 35.4392,264.191 37.8259,266.05 40.2849,267.517 42.7384,268.622 45.1071,269.391 47.3125,269.849 49.2756,270.024 50.9182,269.942 52.1609,269.63 53.1281,269.187 53.9987,268.64 54.7711,267.987 55.4447,267.228 56.0187,266.361 56.4923,265.387 56.8644,264.303 57.1746,262.838 57.2281,261.638 57.0148,243.309 56.8942,241.002 57.7013,238.766 58.6639,237.086 59.8688,235.682 60.9606,234.582 61.6581,234.046 63.5525,232.586 66.3456,230.419 69.7407,227.766 73.438,224.845 77.1408,221.878 80.5506,219.08 83.3711,216.673 85.6178,214.605 87.5609,212.629 89.2818,210.676 90.8607,208.673 92.3811,206.551 93.9215,204.237 95.566,201.661 97.3934,198.75 99.1795,195.921 99.5463,196.091 100.001,196.32 100.403,196.558 100.765,196.883 101.063,197.174 101.532,197.272 101.946,197.352 102.364,197.359 102.999,196.814 103.504,196.023 104.153,194.958 104.865,193.753 105.564,192.54 106.171,191.453 106.606,190.623 106.792,190.185 106.885,189.613 106.755,189.177 106.4,188.983 105.937,188.891 105.537,188.439 105.147,187.854 104.783,187.3 104.76,186.835 105.139,186.23 105.714,185.313 106.439,184.158 107.266,182.838 108.15,181.429 109.044,180.004 109.899,178.637 110.651,176.953 111.209,174.68 111.495,171.966 111.428,168.953 110.932,165.789 109.926,162.617 108.333,159.585 106.073,156.836 103.421,154.533 100.716,152.719 97.9738,151.368 95.2108,150.449 92.4439,149.933 89.6876,149.792 86.9602,149.998 84.2758,150.52 72.6886,157.814 72.1315,175.427" fill="none" stroke="black" stroke-width="0.1" id="_tag_1_5_"/>
                <polygon points="99.7707,161.345 96.0889,163.05 88.8914,158.192 90.0441,153.634 91.1041,153.689 91.5418,153.754 91.9798,153.819 93.7244,154.221 95.3575,154.837 97.0653,155.776 98.744,157.108 100.288,158.903 100.485,159.473 100.536,160.234 100.428,160.639 100.186,161.02" fill="none" stroke="black" stroke-width="0.1" id="_tag_1_2_"/>
                <polygon points="85.2685,180.794 84.1099,171.252 88.4502,179.167 88.4581,179.705 88.374,180.122 88.266,180.55 88.114,181.04 87.9147,181.531 87.6684,181.96 87.3725,182.263 86.4484,182.355 86.0126,182.19 85.7,181.925 85.3605,181.285" fill="none" stroke="black" stroke-width="0.1" id="_tag_1_3_"/>
                <polygon points="93.0337,178.41 92.8189,172.186 96.252,168.183 98.7102,167.596 100.182,166.028 100.494,165.76 100.865,165.537 101.473,165.297 101.888,165.235 102.321,165.235 102.757,165.305 103.178,165.458 103.568,165.703 103.909,166.054 104.186,166.518 104.38,167.108 104.502,168.107 104.548,169.738 104.395,171.83 103.92,174.216 102.999,176.726 101.51,179.192 99.3276,181.443 96.3281,183.313 95.8108,183.365 95.1196,183.246 94.7522,183.066 94.407,182.77 94.1119,182.336 93.8444,181.752 93.6167,181.11 93.4291,180.451 93.278,179.817 93.163,179.252 93.0831,178.796" fill="none" stroke="black" stroke-width="0.1" id="_tag_1_4_"/>
                <polygon points="50.2581,253.968 50.5378,254.364 50.691,254.955 50.9709,261.039 50.8909,261.744 50.5105,262.387 49.9635,262.975 49.2463,263.337 48.4907,263.509 48,263.465 46.3929,263.131 44.6668,262.571 42.8788,261.766 41.0868,260.697 39.3475,259.343 37.7893,257.764 36.5603,256.093 35.6232,254.414 34.9407,252.814 34.4764,251.378 34.1927,250.193 34.0522,249.344 34.0185,248.917 34.1366,248.144 34.7429,247.773 35.3566,247.793 42.5075,249.116 42.9387,249.285 43.4023,249.659 44.1178,250.714 44.6764,251.377 45.2969,251.961 45.9769,252.461 46.7147,252.872 47.5081,253.189 48.3554,253.41 49.2546,253.528 49.9225,253.715" fill="none" stroke="black" stroke-width="0.1" id="_tag_1_6_"/>
                <polygon points="87.2907,187.942 86.6579,188.256 86.1063,188.834 85.8481,189.217 85.5983,189.655 85.3495,190.151 85.0989,190.699 84.5167,192.004 83.4466,194.505 82.0557,197.801 80.5091,201.492 78.9739,205.175 77.6144,208.448 76.5981,210.914 76.0911,212.169 75.9317,212.642 75.8444,213.043 75.8625,213.665 76.0918,214.128 76.4874,214.527 76.9716,214.83 77.5552,214.96 78.3096,214.774 78.7725,214.517 79.3045,214.128 79.9477,213.609 80.7583,212.942 81.6792,212.165 82.6478,211.316 83.6054,210.437 84.4921,209.563 85.2501,208.735 85.818,207.991 86.5428,206.763 87.7555,204.608 89.2875,201.839 90.9691,198.767 92.6349,195.706 94.1124,192.969 95.2357,190.868 95.8355,189.717 96.0896,189.178 96.2364,188.708 96.296,188.3 96.2113,187.656 95.9637,187.21 95.6727,186.913 95.2047,186.69 94.5339,186.582 93.6956,186.647 93.2253,186.761 92.6537,186.935 91.9364,187.109 91.1225,187.277 90.2593,187.437 89.3975,187.587 88.5817,187.723 87.864,187.843" fill="none" stroke="black" stroke-width="0.1" id="_130405648"/>
                <polyline points="21.0289,241.092 22.4435,241.31390000000002 24.0016,241.54700000000003 25.9391,241.82240000000002 28.1163,242.1105 30.3925,242.3819 32.6272,242.6073 34.6803,242.7571 36.5869,242.78910000000002 38.5316,242.61470000000003 40.510799999999996,242.22060000000002 42.520799999999994,241.59300000000002 44.5577,240.71890000000002 46.618199999999995,239.58470000000003 48.698299999999996,238.17710000000002 50.7945,236.48250000000002 52.945299999999996,234.6262 55.200399999999995,232.71280000000002 57.4858,230.78680000000003 59.727799999999995,228.89230000000003 61.85249999999999,227.07320000000004 63.785799999999995,225.37440000000004 65.45429999999999,223.83970000000005 66.7837,222.51330000000004 67.8436,221.33860000000004 68.7786,220.18590000000003 69.6278,218.99110000000005 70.42949999999999,217.68950000000004 71.22299999999998,216.21620000000004 72.04739999999998,214.50740000000005 72.94129999999998,212.49780000000004 73.94359999999999,210.12340000000003 75.1509,207.30910000000003 76.52,204.09710000000004 77.9664,200.68450000000004 79.4057,197.26840000000004 80.7533,194.04580000000004 81.9245,191.21360000000004 82.8355,188.96910000000005 83.401,187.50860000000006 83.6854,186.50180000000006 83.8299,185.51130000000006 83.86569999999999,184.57330000000007 83.82449999999999,183.72420000000008 83.73759999999999,183.00040000000007 83.63659999999999,182.43820000000008 83.51809999999999,181.94490000000008" fill="none" stroke="black" stroke-width="0.1" id="_131543200_1_1_1"/>
                <polyline points="82.6934,196.125 83.1752,195.4347 83.553,195.024 84.04169999999999,194.6019 84.642,194.2156 85.3553,193.9127 86.1833,193.7402 87.0004,193.66649999999998 87.69239999999999,193.62359999999998 88.27749999999999,193.60649999999998 88.7734,193.60949999999997 89.1978,193.62749999999997 89.90390000000001,193.68539999999996 90.5715,193.77249999999995 90.9645,193.94679999999994 91.3563,194.23379999999995 91.7035,194.62889999999996 91.962,195.12819999999996 92.0881,195.72769999999997 92.0382,196.42289999999997 91.76820000000001,197.20979999999997" fill="none" stroke="black" stroke-width="0.1" id="_157887240_1_1_1"/>
                <polyline points="77.2915,209.189 77.0867,209.82909999999998 77.05069999999999,210.24749999999997 77.1078,210.71919999999997 77.3044,211.21399999999997 77.6865,211.70219999999998 78.3004,212.1546 79.0762,212.4391 79.8921,212.4322 80.7189,212.2002 81.52770000000001,211.8096 82.28940000000001,211.32639999999998 82.97520000000002,210.81689999999998 83.55560000000001,210.34749999999997 84.0019,209.98429999999996" fill="none" stroke="black" stroke-width="0.1" id="_153836928_1_1_1"/>
                <polyline points="87.8233,187.938 88.3314,188.3823 89.0819,188.60469999999998 89.6148,188.61909999999997 90.2658,188.53179999999998 90.9357,188.3849 91.5715,188.2403 92.1682,188.0992 92.71979999999999,187.964 93.2216,187.8362 93.66799999999999,187.7176 94.05369999999999,187.61 94.60359999999999,187.4565 95.03009999999999,187.2544 95.28479999999999,186.8243" fill="none" stroke="black" stroke-width="0.1" id="_131493216_1_1_1"/>
                <polyline points="51.2273,230.513 52.0129,229.86100000000002 52.7568,229.24360000000001 55.1687,227.23680000000002 58.0069,224.86530000000002 60.9627,222.38330000000002 63.7258,220.04190000000003 65.9852,218.09430000000003 67.4328,216.79460000000003 68.30330000000001,216.00290000000004 69.06750000000001,215.29100000000005 69.76910000000001,214.56970000000004 70.45150000000001,213.74670000000003 71.1586,212.73040000000003 71.93180000000001,211.42940000000004 72.81460000000001,209.75350000000003 73.85170000000001,207.61020000000002 75.04880000000001,204.9797 76.38640000000001,202.03060000000002 77.7792,198.95030000000003 79.1397,195.92790000000002 80.3845,193.15320000000003 81.42830000000001,190.81400000000002 82.18440000000001,189.10010000000003 82.56770000000002,188.20040000000003 82.74420000000002,187.72690000000003 82.88160000000002,187.23080000000002 82.98540000000003,186.7255 83.05980000000002,186.22590000000002 83.10860000000002,185.7435 83.13820000000003,185.2923 83.15200000000003,184.88660000000002" fill="none" stroke="black" stroke-width="0.1" id="_153836904_1_1_1"/>
                <line x1="104.661" y1="187.076" x2="99.2089" y2="195.939" fill="none" stroke="black" stroke-width="0.1" id="_131845312"/>
                <polyline points="100.78,196.685 100.759,196.07750000000001 100.9131,195.5158 101.3657,194.7012 101.8493,194.0596 102.4589,193.3104 103.1344,192.51639999999998 103.8166,191.74039999999997 104.44539999999999,191.04549999999998 104.96159999999999,190.49459999999996 105.3055,190.15069999999997 105.80019999999999,189.76979999999998 106.19779999999999,189.49939999999998 106.55869999999999,189.28499999999997" fill="none" stroke="black" stroke-width="0.1" id="_155017384_1_1_1"/>
                <polyline points="83.0763,185.538 83.0323,186.2701 82.9188,187.04000000000002 82.7172,187.8187 82.16130000000001,189.27800000000002 81.1059,191.85920000000002 79.7142,195.18730000000002 78.14880000000001,198.88720000000004 76.5729,202.58340000000004 75.1489,205.90090000000004 74.0398,208.46460000000005 73.4087,209.89950000000005 73.0435,210.66960000000006 72.61529999999999,211.48830000000007 72.11039999999998,212.35350000000005 71.51549999999999,213.26420000000005 70.81729999999999,214.21820000000005 70.00259999999999,215.21410000000006 69.0576,216.25040000000007 67.9692,217.32480000000007 66.3456,218.75380000000007 64.04520000000001,220.75400000000008 61.343500000000006,223.09060000000008 58.515600000000006,225.52900000000008 55.836800000000004,227.83450000000008 53.582600000000006,229.77190000000007 52.028000000000006,231.10660000000007 51.448800000000006,231.60360000000009 49.226000000000006,233.2596000000001 47.02360000000001,234.66520000000008 44.81720000000001,235.8128000000001 42.58250000000001,236.6950000000001 40.29550000000001,237.30400000000012 37.93190000000001,237.6326000000001 35.467300000000016,237.67300000000012 32.877600000000015,237.4177000000001 27.694700000000015,236.6274000000001 22.032200000000017,235.3174000000001" fill="none" stroke="black" stroke-width="0.1" id="_158856784_1_1_1"/>
                <circle cx="49.8464" cy="246.316" r="4.0784" fill="none" stroke="black" stroke-width="0.1" id="_189337584"/>
                <circle cx="49.8464" cy="246.316" r="2.7466" fill="none" stroke="black" stroke-width="0.1" id="_188088304"/>
            </g>
            <polyline points="36.4936,248.316 37.066988085937496,250.678255078125 38.0350109375,252.857878125 39.3568814453125,254.814080859375 40.991812499999995,256.506075 42.8990169921875,257.893072265625 45.0377078125,258.934284375 47.367097851562505,259.588923046875 49.8464,259.8162 49.8464,259.8162 49.9772791015625,259.8155775390625 50.1078640625,259.81371406249997 50.238151367187506,259.81061542968746 50.3681375,259.80628749999994 50.4978189453125,259.8007361328125 50.62719218750001,259.79396718749996 50.75625371093751,259.7859865234375 50.885000000000005,259.7768" fill="none" stroke="black" stroke-width="0.1" id="_154592512_0"/>
        </g>
        <polygon points="88.2549,147.69 87.6797,147.363 87.0651,147.019 86.3255,146.613 85.5311,146.188 84.7523,145.787 84.0574,145.453 83.5182,145.231 83.1131,145.14 82.5582,145.162 82.1898,145.517 82.0527,146.102 82.0351,146.512 81.3683,146.368 81.3433,145.686 81.289,145.246 81.1894,144.754 81.0319,144.246 80.8027,143.754 80.4896,143.313 80.0259,142.858 79.396,142.327 78.6547,141.754 77.8612,141.176 77.0698,140.629 76.3385,140.149 75.7232,139.77 75.2818,139.529 74.497,139.297 74.0076,139.229 73.4747,139.193 72.9151,139.191 72.3426,139.222 71.7756,139.291 71.2281,139.395 70.4553,139.557 69.2712,139.824 67.8235,140.159 66.2592,140.527 64.7252,140.892 63.3693,141.217 62.3378,141.469 61.7796,141.609 61.0413,141.668 60.5651,141.64 60.0496,141.582 59.5187,141.498 58.9983,141.396 58.5129,141.28 58.0849,141.156 57.2948,140.912 56.8632,140.774 56.4134,140.624 55.9548,140.465 55.4904,140.295 55.0281,140.116 54.5731,139.928 54.06,139.796 53.4712,139.726 52.8416,139.702 52.2047,139.71 51.5963,139.733 51.0501,139.757 50.6005,139.767 50.0462,139.72 49.5705,139.548 49.165,139.318 48.7776,139.061 48.0291,138.642 47.4603,138.312 46.81,137.923 46.1145,137.49 45.4103,137.03 44.7336,136.557 44.0685,136.079 43.3941,135.665 42.7094,135.308 42.0124,135.003 41.3015,134.744 40.5752,134.524 39.8316,134.339 39.0691,134.179 38.2783,134.09 37.4894,134.065 36.7176,134.104 35.9784,134.205 35.287,134.365 34.6584,134.586 34.1082,134.863 33.6515,135.196 33.4794,134.768 33.3815,134.374 33.5329,133.937 33.944,133.806 34.5367,133.617 35.2358,133.393 35.966,133.159 36.6516,132.938 37.2176,132.752 37.8015,132.511 37.9803,132.135 37.8321,131.684 37.7298,131.269 37.4645,130.528 37.2971,130.096 37.1312,129.668 36.9848,129.28 36.8249,128.759 36.8424,128.331 37.1072,127.944 37.4988,127.739 37.9909,127.576 38.4843,127.439 38.9958,127.327 39.5406,127.244 40.228,127.202 40.631,127.231 41.047,127.318 41.455,127.484 41.835,127.747 42.1664,128.126 42.429,128.641 42.681,129.188 42.9244,129.668 43.173,130.079 43.4393,130.419 44.0808,130.863 44.4826,130.961 44.956,130.972 45.4202,130.864 45.835,130.653 46.2016,130.366 46.5209,130.026 46.7942,129.659 47.0215,129.291 47.3435,128.652 47.5842,128.096 48.0997,127.605 48.5372,127.422 49.136,127.298 49.926,127.25 50.9387,127.292 52.13,127.23 53.2891,126.99 54.3991,126.581 55.4418,126.014 56.4008,125.299 57.2576,124.449 57.9955,123.471 58.5966,122.379 59.1269,120.781 59.3169,119.162 59.185,117.566 58.7486,116.038 58.0259,114.621 57.0344,113.359 55.792,112.297 54.3169,111.479 52.9337,110.996 51.5247,110.774 50.1214,110.799 48.755,111.062 47.4573,111.549 46.2596,112.249 45.1934,113.151 44.2899,114.242 43.9186,114.654 43.2459,115.095 42.7771,115.262 42.2177,115.346 41.5667,115.311 40.9327,115.196 40.3769,115.033 39.8974,114.826 39.4923,114.581 39.1594,114.304 38.8971,114 38.5758,113.329 38.4375,112.943 38.2748,112.488 38.0641,111.99 37.782,111.478 37.4048,110.982 36.9088,110.529 36.2699,110.15 35.4648,109.871 34.6036,109.744 33.7881,109.821 33.023,110.06 32.3135,110.422 31.6653,110.864 31.0832,111.344 30.5724,111.822 30.1381,112.257 29.655,112.745 29.0068,113.411 28.2543,114.183 27.4577,114.99 26.6773,115.763 25.9744,116.427 25.4088,116.913 25.0414,117.15 24.5337,117.374 24.0362,117.54 23.5475,117.667 22.8124,117.66 22.3787,117.653 21.9116,117.645 21.4509,117.641 21.0369,117.642 20.476,117.649 19.9868,117.913 19.7913,118.43 19.7186,118.826 19.6566,119.328 19.6514,119.996 19.6686,120.845 19.7018,121.79 19.7441,122.751 19.7886,123.643 19.8288,124.383 19.8577,124.888 19.3927,126.823 18.566,126.793 18.0127,126.777 17.3758,126.762 16.6888,126.752 15.9854,126.749 15.299,126.756 14.6442,126.777 13.9982,126.867 13.383,127.029 12.8213,127.264 12.3351,127.576 11.9466,127.967 11.6777,128.44 11.5515,128.996 11.5371,129.687 11.5597,130.844 11.61,132.312 11.6779,133.935 11.7541,135.558 11.8281,137.027 11.8907,138.187 11.9319,138.881 12.211,139.617 12.4916,139.922 12.8418,140.185 13.2444,140.408 13.6807,140.591 14.1327,140.737 14.5827,140.844 15.1189,140.932 15.7974,141.014 16.552,141.089 17.3172,141.154 18.0273,141.207 18.6158,141.248 19.0173,141.274 19.2667,141.744 19.4292,142.339 19.6489,142.914 19.9583,143.304 20.4291,143.591 20.9042,143.785 21.5832,145.485 21.2042,145.779 20.1789,146.581 18.6748,147.771 16.8602,149.23 14.9022,150.837 12.969,152.472 11.2282,154.017 9.8478,155.349 9.5054,155.132 9.1592,154.866 8.7199,154.739 8.2403,154.746 7.8503,154.843 7.2656,155.008 6.8049,155.166 6.3973,155.388 6.0646,155.731 5.8651,156.257 5.8056,156.913 5.8921,157.646 5.3024,157.944 4.7333,158.241 4.1307,158.567 3.5648,159.041 3.351,159.413 3.2014,159.878 3.1294,160.438 3.1491,161.093 3.2733,161.846 3.516,162.696 3.852,163.453 4.2487,164.02 4.6733,164.423 5.0934,164.691 5.4769,164.85 6.0029,164.958 7.2431,164.926 7.6953,165.414 7.9783,165.712 8.2843,166.027 8.5875,166.329 9.0816,166.774 9.446,167.007 9.8603,167.16 10.7636,166.598 11.8789,166.801 15.6246,165.79 16.8502,162.891 18.3452,162.433 19.1909,160.809 19.5751,160.52 19.9904,160.215 20.4963,159.856 21.0497,159.478 21.6073,159.12 22.1251,158.82 22.5604,158.615 23.1037,158.487 23.9292,158.344 24.9277,158.199 25.9896,158.06 27.006,157.935 27.8673,157.834 28.4642,157.768 28.8938,158.019 29.5687,158.655 30.1079,159.019 30.796,159.363 31.6434,159.653 32.6604,159.851 33.7111,159.895 34.6876,159.801 35.5696,159.609 36.337,159.361 36.9693,159.096 37.4461,158.857 37.852,158.617 38.3355,158.675 38.8533,158.748 39.3172,158.82 39.7342,158.988 40.4989,159.308 41.1204,159.353 41.3375,159.826 41.6932,160.25 42.6142,160.726 43.2258,160.74 43.4303,161.248 43.7288,161.646 44.4566,162.057 44.8126,162.557 45.0565,162.904 45.2985,163.255 45.5334,163.603 45.7559,163.946 46.1423,164.588 46.545,165.433 46.8986,166.183 47.378,167.095 48.0049,168.133 48.8011,169.264 49.7877,170.456 50.9864,171.672 52.4186,172.878 52.7367,173.124 53.1809,173.44 53.7194,173.814 54.3187,174.235 54.9493,174.689 55.5779,175.164 56.1725,175.649 56.6999,176.131 57.1543,176.547 57.5345,176.9 57.8658,177.198 58.4798,177.666 59.1952,178.022 59.6528,178.181 59.9582,178.528 60.5017,178.981 60.8747,179.216 61.3153,179.43 61.8228,179.605 62.3283,179.679 62.78,179.698 63.5033,179.624 63.9617,179.497 64.7133,179.634 65.3655,179.853 66.1755,180.117 67.0856,180.401 68.0367,180.681 68.9693,180.931 69.8249,181.128 70.637,181.239 71.4604,181.247 72.2644,181.149 73.0179,180.942 73.6924,180.623 74.2569,180.19 74.6809,179.638 74.873,179.251 75.138,178.869 75.6845,178.673 76.4862,178.524 76.9524,178.512 77.4482,178.567 78.3126,178.691 79.0159,178.807 79.6638,178.918 80.1339,178.994 80.546,179.05 81.4074,179.24 82.0046,179.374 82.6641,179.523 83.3478,179.678 84.0175,179.831 84.636,179.975 85.2901,180.098 86.0293,180.236 87.5398,180.392 88.2841,180.479 88.7953,180.54 89.2619,180.549 89.9743,180.528 90.949,180.427 91.6288,180.307 92.7962,180.001 93.715,179.664 95.0061,179.029 96.0027,178.391 96.6473,177.857 97.1749,177.432 97.8917,176.702 98.5576,175.892 99.2442,174.865 99.7627,173.89 100.223,172.764 100.545,171.669 100.824,169.947 100.864,168.676 100.804,167.735 100.628,166.59 100.293,165.332 99.7936,164.128 99.3652,162.902 98.5329,161.57 97.6392,160.229 96.7516,158.957 95.9405,157.831 95.2754,156.932 94.8256,156.334 94.106,155.174 93.3449,154.015 92.4446,152.732 91.4733,151.419 90.5001,150.166 89.5938,149.065 88.8218,148.209" fill="none" stroke="black" stroke-width="0.1" id="_tag_1_7_"/>
        <polygon points="11.3803,171.989 8.2981,171.281 5.8513,178.432 6.1116,179.16 6.5238,179.515 7.049,179.781 7.9208,179.918 8.3981,179.809 8.7315,179.569" fill="none" stroke="black" stroke-width="0.1" id="_132565680"/>
        <polygon points="11.856,171.851 11.5685,172.295 11.0209,172.533 10.2996,172.565 9.9011,172.502 9.4918,172.386 9.0992,172.221 8.746,172.023 8.191,171.555 7.8539,170.8 8.0215,170.302 8.4652,169.933 9.1172,169.785 9.8944,169.856 10.3039,169.972 10.694,170.135 11.3368,170.554 11.7544,171.055 11.8998,171.589" fill="none" stroke="black" stroke-width="0.1" id="_129450384"/>
        <polygon points="10.5223,166.6 9.231,170.838 9.7691,171.474 10.6355,171.397 12.228,166.501 11.1661,165.979" fill="none" stroke="black" stroke-width="0.1" id="_132565520"/>
        <polygon points="64.1689,178.58 63.5332,179.114 62.9428,179.208 62.2588,179.151 61.5677,179.001 60.8091,178.606 60.5845,178.274 60.921,177.649 61.4327,177.501 62.1078,177.483 62.8473,177.589 63.4779,177.79 63.9386,178.072 64.1652,178.405" fill="none" stroke="black" stroke-width="0.1" id="_tag_1_9_"/>
        <polyline points="46.7718,163.471 47.2669,164.43030000000002 47.503,164.842 47.7574,165.256 48.030899999999995,165.6726 48.32449999999999,166.0924 48.63849999999999,166.516 48.974,166.9436 50.113,168.3203 51.1123,169.36520000000002 51.989399999999996,170.1174 52.76199999999999,170.616 53.448299999999996,170.89980000000003 54.0654,171.00790000000003 54.6312,170.97930000000002 55.1636,170.85320000000002 55.6255,170.76870000000002 56.0463,170.80080000000004 56.761300000000006,171.11270000000005 57.300200000000004,171.58730000000006 57.6557,172.02240000000006 57.9208,172.50690000000006 58.3236,173.15310000000005 58.6111,173.53100000000006 58.9741,173.94230000000007 59.4266,174.38430000000008 59.9823,174.85490000000007 60.6193,175.29060000000007 61.292300000000004,175.63670000000008 61.9802,175.90280000000007 62.6625,176.09840000000008 63.3176,176.23340000000007 63.9253,176.31710000000007 64.4638,176.35950000000005 64.91290000000001,176.37000000000006 65.39020000000001,176.32370000000006 65.93560000000001,176.22190000000006 66.5266,176.08020000000008 67.1406,175.91460000000006 67.75510000000001,175.74120000000008 68.34750000000001,175.57580000000007 68.89540000000001,175.4341000000001 69.37660000000001,175.3323000000001 69.8653,175.26090000000008 70.4762,175.23700000000008 71.17,175.2732000000001 71.9076,175.3819000000001 72.6499,175.5756000000001 73.3576,175.8668000000001 73.99170000000001,176.2680000000001 74.51310000000001,176.79180000000008 74.8328,177.2894000000001 75.02470000000001,177.73510000000007 75.12970000000001,178.45320000000007 75.03420000000001,178.88420000000008" fill="none" stroke="black" stroke-width="0.1" id="_tag_1_10__1_1"/>
        <polygon points="57.8601,122.131 57.1176,123.453 56.1575,124.562 55.0191,125.444 53.7431,126.082 52.3683,126.461 50.9348,126.567 49.4819,126.383 48.0497,125.895 46.7497,125.165 45.6563,124.213 44.7841,123.081 44.1496,121.807 43.7665,120.431 43.652,118.991 43.82,117.529 44.2859,116.085 45.0372,114.797 46.0038,113.712 47.1453,112.845 48.4227,112.213 49.7963,111.828 51.2262,111.708 52.6728,111.867 54.0963,112.321 55.4181,113.063 56.5275,114.023 57.409,115.16 58.0463,116.438 58.4262,117.812 58.5316,119.245 58.3478,120.699" fill="none" stroke="black" stroke-width="0.1" id="_tag_1_11_"/>
        <polygon points="56.0673,121.276 55.5194,122.229 54.8081,123.034 53.9646,123.678 53.0201,124.149 52.004,124.436 50.9483,124.525 49.8828,124.405 48.8383,124.065 47.8669,123.505 47.0532,122.789 46.4077,121.945 45.9402,121.002 45.661,119.991 45.5799,118.939 45.7068,117.877 46.0507,116.835 46.6069,115.862 47.3162,115.045 48.1527,114.394 49.0876,113.923 50.0951,113.641 51.1475,113.561 52.2181,113.692 53.2794,114.047 54.2444,114.574 55.0582,115.27 55.7072,116.104 56.1807,117.045 56.4653,118.065 56.5496,119.13 56.4206,120.211" fill="none" stroke="black" stroke-width="0.1" id="_tag_1_12_"/>
        <polygon points="53.8392,120.259 53.548,120.805 53.162,121.265 52.699,121.63 52.174,121.894 51.6044,122.051 51.0066,122.09 50.3958,122.01 49.79,121.798 49.2587,121.486 48.8144,121.089 48.4623,120.622 48.2076,120.097 48.0544,119.533 48.0076,118.943 48.0712,118.344 48.251,117.748 48.5639,117.215 48.9647,116.765 49.4377,116.404 49.9657,116.141 50.5315,115.985 51.1207,115.938 51.7156,116.011 52.2998,116.21 52.834,116.522 53.2839,116.924 53.644,117.397 53.9066,117.924 54.0646,118.491 54.1103,119.08 54.0375,119.675" fill="none" stroke="black" stroke-width="0.1" id="_tag_1_17_"/>
        <polyline points="21.6487,145.524 21.9002,146.8042 22.170900000000003,148.15560000000002 22.499100000000002,149.75930000000002 22.8561,151.44930000000002 23.212300000000003,153.05990000000003 23.5389,154.42440000000002 23.806600000000003,155.37720000000002 24.0145,156.02960000000002 24.210800000000003,156.56210000000002 24.3987,156.98710000000003 24.7635,157.56260000000003 25.1351,157.85360000000003 25.568800000000003,157.92400000000004 26.257800000000003,157.58780000000004 26.654400000000003,157.32190000000006 27.049000000000003,157.03840000000005 27.413700000000002,156.77280000000005 27.942700000000002,156.43720000000005" fill="none" stroke="black" stroke-width="0.1" id="_tag_1_18__1_1"/>
        <polyline points="28.7812,157.885 28.5076,157.38479999999998 28.1993,156.64939999999999 28.0713,156.21609999999998 27.9894,155.76409999999998 27.974899999999998,155.3113 28.174599999999998,154.2773 28.525199999999998,153.4729 28.971899999999998,152.87040000000002 29.460099999999997,152.4411 29.935299999999998,152.1566 30.342299999999998,151.9886 30.7334,151.888 31.2871,150.0083 31.6073,149.7013 32.213699999999996,149.4342 32.6483,149.38240000000002 33.1763,149.42960000000002 33.8022,149.60930000000002 34.4918,149.87910000000002 35.2008,150.15810000000002 35.9187,150.4214 36.6349,150.6447 37.3389,150.8029 38.0202,150.8721 38.6683,150.82739999999998 39.272400000000005,150.64399999999998 40.01200000000001,150.3044 41.03710000000001,149.7911 42.24840000000001,149.154 43.54720000000001,148.4436 44.83460000000001,147.7103 46.01160000000001,147.004 46.97910000000001,146.37529999999998 47.63860000000001,145.87419999999997 47.98580000000001,145.47009999999997 48.17570000000001,145.07849999999996 48.17220000000001,144.33469999999997 47.80720000000001,143.64699999999996 47.544900000000005,143.32529999999997 47.2595,143.01919999999998" fill="none" stroke="black" stroke-width="0.1" id="_tag_1_19__1_1"/>
        <polyline points="28.3968,156.872 28.3494,156.22820000000002 28.3685,155.8118 28.44,155.3474 28.5848,154.8662 28.824,154.4004 29.1784,153.98139999999998 29.6287,153.63679999999997 30.107599999999998,153.34799999999996 30.6406,153.11889999999997 31.2529,152.95419999999996 31.9701,152.85819999999995 32.817099999999996,152.83479999999994 33.819799999999994,152.88869999999994 35.003299999999996,153.02369999999993 36.24699999999999,153.21829999999994 37.36419999999999,153.41759999999994 38.35749999999999,153.61789999999993 39.228799999999985,153.81509999999994 39.98059999999999,154.00529999999995 40.61479999999999,154.18479999999994 41.13379999999999,154.34939999999995 41.54009999999999,154.49559999999994 41.989099999999986,154.97749999999994 42.064599999999984,155.66499999999994 41.876299999999986,156.38209999999992 41.532899999999984,156.95309999999992 40.75219999999998,157.46529999999993 40.16429999999998,157.74799999999993 39.53349999999998,158.02259999999993 38.926799999999986,158.26989999999992 38.41079999999999,158.47049999999993 37.917799999999986,158.65409999999994" fill="none" stroke="black" stroke-width="0.1" id="_tag_1_20__1_1"/>
        <polyline points="52.3437,143.041 52.638999999999996,142.7529 53.031699999999994,142.4111 53.430699999999995,142.1445 53.89939999999999,142.0852 54.51899999999999,142.17729999999997 55.30639999999999,142.63219999999998 55.96879999999999,143.1514 56.50849999999999,143.1595 56.98499999999999,143.0112 57.47299999999999,142.9284 58.18979999999999,142.99110000000002 58.84359999999999,143.08650000000003 59.66409999999999,143.29290000000003 60.00509999999999,143.91120000000004 59.64619999999999,144.25040000000004" fill="none" stroke="black" stroke-width="0.1" id="_tag_1_21__1_1"/>
        <polyline points="57.1223,144.207 57.5148,144.581 58.0034,145.05669999999998 58.4392,145.5023 58.736,145.90619999999998 58.4773,146.74309999999997" fill="none" stroke="black" stroke-width="0.1" id="_tag_1_22__1_1"/>
        <polyline points="54.9595,143.841 54.475,143.912 53.9715,143.987 53.3836,144.0781 52.7795,144.17600000000002 52.2263,144.2733 51.7927,144.3597 51.3902,144.4963 50.8659,145.03099999999998 50.92850000000001,145.65419999999997" fill="none" stroke="black" stroke-width="0.1" id="_tag_1_23__1_1"/>
        <polyline points="45.8927,141.267 46.360099999999996,141.2926 46.8822,141.3118 47.540699999999994,141.32420000000002 48.294999999999995,141.3213 49.102399999999996,141.2949 49.922399999999996,141.2363 50.712799999999994,141.1373 51.42209999999999,140.95420000000001 52.046899999999994,140.74050000000003 52.589999999999996,140.51500000000001 53.0537,140.29610000000002 53.4407,140.10350000000003 53.9945,139.87150000000003" fill="none" stroke="black" stroke-width="0.1" id="_tag_1_24__1_1"/>
        <polyline points="49.4601,139.802 49.046299999999995,139.9005 48.596199999999996,140.0143 48.043699999999994,140.1631 47.43359999999999,140.3405 46.81049999999999,140.5403 46.219199999999994,140.7566 45.704699999999995,140.98319999999998" fill="none" stroke="black" stroke-width="0.1" id="_tag_1_25__1_1"/>
        <polyline points="30.7408,156.463 30.9193,156.081 31.311799999999998,155.814 31.856699999999996,155.6837 32.491699999999994,155.71259999999998 33.137699999999995,155.91639999999998 33.63119999999999,156.2139 33.92959999999999,156.5639" fill="none" stroke="black" stroke-width="0.1" id="_tag_1_26__1_1"/>
        <polygon points="33.9792,157.709 33.7626,158.069 33.3506,158.325 32.7992,158.451 32.1637,158.422 31.5401,158.243 30.8475,157.789 30.6535,157.409 30.7224,157.004 31.0191,156.679 31.508,156.485 32.1337,156.447 32.7982,156.572 33.5703,156.969 33.8813,157.326" fill="none" stroke="black" stroke-width="0.1" id="_tag_1_27_"/>
        <polyline points="30.7491,156.907 30.6119,156.4899 30.5281,156.0965 30.744,155.6508 31.201999999999998,155.3554 31.8371,155.2114 32.5874,155.2404 33.3144,155.4419 33.8832,155.7754 34.2353,156.1993 34.312400000000004,156.6714 34.126900000000006,157.0537 33.724900000000005,157.3878" fill="none" stroke="black" stroke-width="0.1" id="_tag_1_28__1_1"/>
        <line x1="33.9792" y1="157.709" x2="33.9909" y2="156.925" fill="none" stroke="black" stroke-width="0.1" id="_tag_1_29_"/>
        <line x1="30.6637" y1="157.208" x2="30.7408" y2="156.463" fill="none" stroke="black" stroke-width="0.1" id="_tag_1_30_"/>
        <polyline points="45.4912,147.012 44.7433,147.0551 44.292699999999996,147.0705 43.823699999999995,147.07520000000002 43.385,147.06260000000003 42.797,146.95830000000004 42.512299999999996,146.35920000000004 42.3146,145.83560000000006 42.1068,145.25400000000005 41.9097,144.68230000000005 41.743700000000004,144.18930000000006 41.5863,143.71280000000007" fill="none" stroke="black" stroke-width="0.1" id="_tag_1_31__1_1"/>
        <polyline points="34.2322,136.936 34.6999,136.8369 35.2399,136.7555 35.9447,136.69050000000001 36.7844,136.67020000000002 37.7296,136.7229 38.7504,136.87650000000002 39.8172,137.15980000000002 40.8576,137.58870000000002 41.8333,138.08880000000002 42.7246,138.62500000000003 43.511300000000006,139.16190000000003 44.17360000000001,139.66450000000003 44.69140000000001,140.09750000000003 45.04500000000001,140.42570000000003 45.30420000000001,140.75640000000004 45.63220000000001,141.12860000000003 45.98700000000001,141.40940000000003 46.34640000000001,141.66240000000002 46.65960000000001,141.94190000000003 46.94400000000001,142.27890000000002" fill="none" stroke="black" stroke-width="0.1" id="_tag_1_32__1_1"/>
        <polyline points="22.5781,148.341 22.6905,148.72570000000002 22.939,149.2056 23.381,149.6354 24.2274,149.8665 24.996299999999998,150.018 25.9077,150.20420000000001 26.874,150.4043 27.807,150.5975 28.6189,150.7635 29.2214,150.88139999999999 29.6597,150.9442 29.9526,150.6477 30.2018,150.02329999999998 30.346799999999998,149.57509999999996 30.490699999999997,149.10039999999995 30.622199999999996,148.64729999999994 30.802799999999994,147.99889999999994 31.495399999999993,148.11499999999992 32.200599999999994,148.3448999999999 33.040299999999995,148.6213999999999 33.93039999999999,148.9182999999999 34.78569999999999,149.2094999999999 35.52129999999999,149.4689999999999 36.05249999999999,149.67049999999992 36.43739999999999,149.80529999999993 37.05029999999999,150.05419999999992 37.492599999999996,150.29159999999993 37.811499999999995,150.53639999999993" fill="none" stroke="black" stroke-width="0.1" id="_tag_1_33__1_1"/>
        <polyline points="27.396,148.827 27.5453,148.2127 27.660600000000002,147.44150000000002 27.720200000000002,146.97340000000003 27.7799,146.46250000000003 27.838700000000003,145.91720000000004 27.944900000000004,145.00090000000003 28.196900000000003,143.48160000000004 28.553000000000004,141.55480000000006 28.972400000000004,139.41610000000006 29.413400000000003,137.26100000000005 29.8347,135.28530000000006 30.1948,133.68440000000007 30.4525,132.65420000000006 30.5857,132.03910000000005 30.7254,131.54860000000005 30.8714,131.16250000000005 31.177100000000003,130.62320000000005 31.496700000000004,130.26080000000005 31.989100000000004,129.80710000000005 32.328500000000005,129.48910000000004 32.673100000000005,129.13680000000002 33.01840000000001,128.74580000000003 33.36000000000001,128.31150000000002 33.693000000000005,127.82910000000003 34.013000000000005,127.29390000000002 34.3156,126.70130000000002 34.746700000000004,125.33030000000002 34.89490000000001,123.94090000000003 34.77490000000001,122.57050000000002 34.40110000000001,121.25640000000003 33.78860000000001,120.03560000000003 32.95150000000001,118.94550000000002 31.90460000000001,118.02350000000003 30.66260000000001,117.30640000000002 29.267900000000008,116.86120000000003 27.857000000000006,116.70000000000003 26.469600000000007,116.80990000000003 25.145000000000007,117.17750000000002 23.92320000000001,117.78920000000002 22.84320000000001,118.63220000000003 21.94510000000001,119.69280000000002 21.26850000000001,120.95800000000003 21.11480000000001,121.37650000000002 20.87820000000001,122.10270000000003 20.58420000000001,123.05360000000003 20.25940000000001,124.14630000000002 19.92970000000001,125.29790000000003 19.62100000000001,126.42550000000003 19.359500000000008,127.44610000000003 19.171100000000006,128.27710000000002 19.009800000000006,128.98010000000002 18.890300000000007,129.65130000000002 18.811000000000007,130.2922 18.770200000000006,130.9035 18.766300000000005,131.48680000000002 18.797500000000003,132.04280000000003 18.8622,132.57290000000003 18.9587,133.07810000000003 19.1264,133.91400000000004 19.4225,135.32320000000004 19.8007,137.09490000000005 20.214399999999998,139.01780000000005 20.617099999999997,140.88070000000005 20.9625,142.47290000000004 21.203699999999998,143.58300000000003 21.2946,143.99990000000003" fill="none" stroke="black" stroke-width="0.1" id="_tag_1_34__1_1"/>
        <polyline points="27.6343,148.26 28.0706,146.9948 28.5183,145.691 29.0319,144.186 29.5466,142.6652 29.997100000000003,141.3134 30.318000000000005,140.3158 30.444400000000005,139.8571 30.746700000000004,138.8841 31.005300000000005,138.03969999999998 31.291100000000004,137.10279999999997 31.571400000000004,136.18299999999996 31.812500000000004,135.39019999999996 31.981500000000004,134.83409999999998" fill="none" stroke="black" stroke-width="0.1" id="_tag_1_35__1_1"/>
        <polyline points="32.9257,130.647 32.4993,130.85739999999998 32.489999999999995,131.3756 32.656299999999995,132.09099999999998 32.76089999999999,132.51889999999997 32.86419999999999,132.94179999999997 33.02009999999999,133.61819999999997 33.26819999999999,133.98629999999997" fill="none" stroke="black" stroke-width="0.1" id="_tag_1_36__1_1"/>
        <polyline points="29.8668,150.951 29.3622,151.2868 28.9846,151.5372 28.5689,151.8522 28.148899999999998,152.2391 27.758999999999997,152.7047 27.432599999999997,153.2568 27.203899999999997,153.9021 27.064899999999998,154.5803 26.956,155.1594 26.8656,155.6562 26.7819,156.08790000000002 26.5871,156.8232 26.2775,157.5002" fill="none" stroke="black" stroke-width="0.1" id="_tag_1_37__1_1"/>
        <polyline points="40.5801,145.157 40.513,144.41830000000002 40.332899999999995,143.78640000000001 40.0588,143.2529 39.7102,142.8102 39.3055,142.4506 38.8635,142.16660000000002 38.403,141.95030000000003 37.9432,141.79440000000002 37.355,141.63280000000003 36.6389,141.46800000000002 35.859,141.3069 35.0783,141.1579 34.360299999999995,141.02890000000002 33.76879999999999,140.9276 33.36729999999999,140.8606 32.62129999999999,140.9219 32.14999999999999,141.14939999999999 31.809699999999992,141.6077 31.712999999999994,142.1081 31.907999999999994,142.4879 32.331799999999994,142.7857 32.9218,143.0383 33.3201,143.1786 33.8396,143.3502 34.4432,143.5438 35.094699999999996,143.74880000000002 35.757299999999994,143.9567 36.394099999999995,144.1567 36.96849999999999,144.3404 37.44429999999999,144.4963 37.93929999999999,144.6909 38.42709999999999,144.9633 38.95909999999999,145.3775 39.44789999999999,145.9526 39.80679999999999,146.7069 39.94849999999999,147.66029999999998 39.78589999999999,148.831 39.27219999999999,150.6443" fill="none" stroke="black" stroke-width="0.1" id="_tag_1_38__1_1"/>
        <polyline points="31.2144,138.365 31.8355,138.54160000000002 32.623,138.7501 33.0145,138.8439 33.6029,138.9475 33.9788,138.77349999999998 34.3121,138.344 34.5587,137.8648" fill="none" stroke="black" stroke-width="0.1" id="_tag_1_39__1_1"/>
        <line x1="32.8474" y1="134.909" x2="33.6025" y2="138.948" fill="none" stroke="black" stroke-width="0.1" id="_tag_1_40_"/>
        <polyline points="33.7169,135.234 33.9861,137.05780000000001 34.7221,137.3057 35.265499999999996,137.407 35.8512,137.51870000000002 36.5617,137.66070000000002 37.3354,137.82170000000002 38.1098,137.99240000000003 38.8214,138.16500000000002 39.4077,138.33020000000002 39.8784,138.467 40.3443,138.67370000000003 40.7883,138.95430000000002 41.1934,139.31300000000002 41.542699999999996,139.75480000000002 41.819199999999995,140.28400000000002 42.004799999999996,140.90640000000002 42.0834,141.6252 42.0588,142.0712 41.9946,142.4865 41.7855,143.21290000000002 41.6136,143.75080000000003 41.4338,144.30840000000003 41.2236,144.95460000000003 41.0059,145.61380000000003" fill="none" stroke="black" stroke-width="0.1" id="_tag_1_41__1_1"/>
        <polygon points="52.6939,121.182 50.1497,121.478 48.3696,119.223 49.4242,116.93 52.1002,116.71 53.6831,118.85" fill="none" stroke="black" stroke-width="0.1" id="_tag_1_42_"/>
        <polygon points="32.8742,113.918 32.744,113.152 32.7839,112.743 32.8971,112.35 33.1193,111.99 33.4007,111.684 33.7298,111.439 34.0954,111.26 34.4854,111.152 34.8886,111.122 35.2936,111.176 35.6885,111.318 36.0831,111.544 36.412,111.855 36.6664,112.238 36.8377,112.681 38.3766,116.73 38.5046,117.112 38.5314,117.512 38.4756,117.913 38.353,118.3 38.1417,118.692 37.8713,119.016 37.5518,119.272 37.1942,119.456 36.8087,119.567 36.4064,119.602 35.9969,119.559 35.5916,119.436 35.2232,119.191 34.9132,118.914 34.4976,118.28" fill="none" stroke="black" stroke-width="0.1" id="_tag_1_47_"/>
        <polyline points="37.2523,127.862 37.7703,127.6884 38.4584,127.4859 39.2733,127.2675 40.171,127.0461 41.1081,126.83529999999999 42.0409,126.64779999999999 42.926,126.49659999999999 43.7198,126.39499999999998 44.4455,126.38099999999999 45.228300000000004,126.44689999999999 46.060500000000005,126.56999999999998 46.93450000000001,126.72759999999998 47.84320000000001,126.89669999999998 48.77900000000001,127.05439999999999 49.73430000000001,127.17799999999998 50.70200000000001,127.24469999999998" fill="none" stroke="black" stroke-width="0.1" id="_tag_1_48__1_1"/>
        <polyline points="21.7859,147.272 21.0423,147.8636 20.2649,148.4834 19.3523,149.213 18.406,149.9727 17.5274,150.6826 16.8179,151.2631 16.379,151.6344 15.9174,152.2094 15.7416,152.57799999999997 15.6177,152.97659999999996 15.5572,153.38699999999997 15.5716,153.79089999999997 15.8702,154.50619999999998 16.4728,154.87869999999998 17.1343,154.84839999999997 17.8731,154.48329999999996 18.2773,154.19649999999996 18.7079,153.85169999999997 19.1998,153.45409999999995 19.784299999999998,152.97959999999995 20.412699999999997,152.46859999999995 21.0358,151.96069999999995 21.6054,151.49609999999996 22.072599999999998,151.11469999999994 22.388599999999997,150.85659999999993" fill="none" stroke="black" stroke-width="0.1" id="_tag_1_49__1_1"/>
        <polyline points="22.1143,148.69 21.4983,149.1832 20.8584,149.697 20.1131,150.2976 19.3492,150.91619999999998 18.6534,151.4842 18.1126,151.93329999999997 17.683500000000002,152.33589999999998 17.4751,152.7138 17.388,153.153 17.4844,153.5742 17.7578,153.8948 18.2564,153.9655 18.6666,153.76139999999998 19.1438,153.3988 19.7071,152.8988 20.045,152.613 20.383200000000002,152.3315 20.6945,152.0757 21.125300000000003,151.72570000000002" fill="none" stroke="black" stroke-width="0.1" id="_tag_1_50__1_1"/>
        <polyline points="46.541,146.561 45.9171,146.2672 45.2388,145.9067 44.832499999999996,145.5958 45.389399999999995,145.3979 45.79939999999999,145.35039999999998 46.25899999999999,145.31149999999997 46.73239999999999,145.28469999999996 47.18379999999999,145.27289999999996 47.87699999999999,145.30669999999998" fill="none" stroke="black" stroke-width="0.1" id="_tag_1_51__1_1"/>
        <polyline points="32.1,142.478 32.913000000000004,142.3262 33.509600000000006,142.317 34.2107,142.3624 34.999300000000005,142.47050000000002 35.858700000000006,142.6491 36.7717,142.9057 37.7222,143.24859999999998 38.6077,143.69109999999998 39.4505,144.2368 40.2273,144.86839999999998 40.9154,145.5682 41.4916,146.3193 41.933099999999996,147.1039 42.2168,147.90480000000002 42.3199,148.70470000000003" fill="none" stroke="black" stroke-width="0.1" id="_tag_1_52__1_1"/>
        <polyline points="39.9011,147.342 40.353699999999996,147.8342 40.63099999999999,148.3846 40.78549999999999,148.9186 40.82149999999999,149.4295" fill="none" stroke="black" stroke-width="0.1" id="_tag_1_53__1_1"/>
        <polyline points="60.0061,143.93 60.3019,143.62030000000001 61.017500000000005,143.73520000000002 61.64170000000001,143.86460000000002 62.41460000000001,144.04110000000003 63.296200000000006,144.26310000000004 64.24780000000001,144.53210000000004 65.23330000000001,144.84840000000005 66.21150000000002,145.21350000000007 66.24810000000002,145.76170000000008 65.90680000000002,146.35550000000006" fill="none" stroke="black" stroke-width="0.1" id="_tag_1_54__1_1"/>
        <polyline points="63.8871,145.283 63.683099999999996,145.72629999999998 63.4766,146.11749999999998 63.1705,146.67399999999998 62.7508,147.39819999999997 62.3779,147.75589999999997" fill="none" stroke="black" stroke-width="0.1" id="_tag_1_55__1_1"/>
        <polyline points="39.6701,153.772 40.2581,153.7188 40.852,153.628 41.3112,153.5418 41.9916,153.3053 43.3226,152.77839999999998 45.251400000000004,152.0245 47.5418,151.1456 49.9566,150.24360000000001 52.2592,149.4204 54.2131,148.7774 55.5815,148.417 56.6151,148.2451 57.6999,148.1686 58.8434,148.2161 60.0525,148.41660000000002 61.3341,148.7991 62.6957,149.3921 64.1442,150.2246 65.6867,151.3254 67.3077,152.6199 68.9456,153.9726 70.5382,155.3217 72.023,156.60559999999998 73.33749999999999,157.7627 74.41929999999999,158.7314 75.20609999999999,159.4503 75.63539999999999,159.8574 76.047,160.14430000000002 76.67909999999999,160.5618 77.4335,161.1074 78.2117,161.77800000000002 78.91579999999999,162.5706 79.4472,163.48250000000002 79.70779999999999,164.5107 79.5992,165.6518" fill="none" stroke="black" stroke-width="0.1" id="_tag_1_56__1_1"/>
        <polyline points="42.256,155.084 42.7147,154.9129 43.9485,154.4571 45.745200000000004,153.8036 47.8918,153.0394 50.1758,152.2511 52.3847,151.5257 54.305600000000005,150.9501 55.7259,150.6112 56.829800000000006,150.4436 57.88060000000001,150.36090000000002 58.90260000000001,150.3854 59.92020000000001,150.5391 60.958000000000006,150.84459999999999 62.040000000000006,151.32369999999997 63.1908,151.99889999999996 64.4345,152.89249999999996 65.6753,153.88659999999996 66.88029999999999,154.88179999999997 68.01939999999999,155.84129999999996 69.06259999999999,156.72809999999996 69.9793,157.50489999999996 70.7393,158.13519999999997 71.3126,158.58199999999997 71.6688,158.80819999999997 72.4852,159.07449999999997 73.0554,159.22849999999997 73.6825,159.39479999999998 74.3281,159.57169999999996 74.95400000000001,159.75789999999998 75.52180000000001,159.9518 75.99320000000002,160.1522" fill="none" stroke="black" stroke-width="0.1" id="_tag_1_57__1_1"/>
        <polyline points="45.8927,141.267 46.360099999999996,141.2926 46.8822,141.3118 47.540699999999994,141.32420000000002 48.294999999999995,141.3213 49.102399999999996,141.2949 49.922399999999996,141.2363 50.712799999999994,141.1373 51.42209999999999,140.95420000000001 52.046899999999994,140.74050000000003 52.589999999999996,140.51500000000001 53.0537,140.29610000000002 53.4407,140.10350000000003 53.9945,139.87150000000003" fill="none" stroke="black" stroke-width="0.1" id="_tag_1_58__1_1"/>
        <polyline points="66.0256,144.315 66.4945,144.244 66.9706,144.154 67.5094,144.0259 67.9196,143.8691 68.577,143.6401 69.4102,143.3637 70.3471,143.0647 71.3159,142.7677 72.2449,142.4971 73.0621,142.27749999999997 73.6959,142.13389999999998 74.1689,142.04999999999998 74.60589999999999,142.0219 75.01249999999999,142.04639999999998 75.75829999999999,142.242 76.4523,142.6143 76.79459999999999,142.8593 77.1762,143.1821 77.6133,143.5965 78.0731,144.06119999999999 78.5227,144.53449999999998 78.9295,144.97509999999997 79.2608,145.34099999999998 79.5651,145.6837" fill="none" stroke="black" stroke-width="0.1" id="_tag_1_59__1_1"/>
        <polygon points="63.1053,166.367 63.8623,165.189 64.4605,164.012 64.8922,162.867 65.154,161.788 65.241,160.806 65.1485,159.953 64.8692,159.26 64.4001,158.762 63.786,158.53 63.0866,158.446 63.1924,159.077 63.1947,159.79 63.0924,160.567 62.8865,161.396 62.5777,162.26 62.1664,163.145 61.6532,164.035 61.0395,164.916 60.3628,165.785 59.6525,166.569 58.9191,167.26 58.1757,167.85 57.4337,168.33 56.7052,168.691 56.002,168.924 55.3387,169.022 55.6517,169.641 56.1292,170.091 56.7872,170.368 57.5611,170.397 58.423,170.198 59.347,169.787 60.3037,169.182 61.2677,168.397 62.2107,167.454" fill="none" stroke="black" stroke-width="0.1" id="_tag_1_60_"/>
        <polygon points="61.0395,164.916 61.818,163.75 62.4314,162.584 62.8741,161.449 63.1411,160.378 63.2278,159.406 63.1311,158.566 62.8447,157.891 62.3635,157.413 61.7492,157.182 61.0493,157.1 61.1643,157.71 61.1638,158.408 61.0534,159.181 60.8373,160.009 60.5201,160.879 60.1057,161.772 59.598,162.674 59.0005,163.568 58.3264,164.435 57.6209,165.212 56.8942,165.893 56.1569,166.47 55.4216,166.938 54.7,167.288 54.0015,167.513 53.3381,167.607 53.6331,168.26 54.0902,168.744 54.7589,169.001 55.5383,169.021 56.4003,168.816 57.3199,168.403 58.2695,167.792 59.2237,166.997 60.156,166.034" fill="none" stroke="black" stroke-width="0.1" id="_tag_1_61_"/>
        <line x1="65.974" y1="163.973" x2="64.6079" y2="173.382" fill="none" stroke="black" stroke-width="0.1" id="_tag_1_62_"/>
        <line x1="62.3645" y1="167.346" x2="61.6128" y2="172.629" fill="none" stroke="black" stroke-width="0.1" id="_tag_1_63_"/>
        <polyline points="61.3024,168.363 61.658,168.6818 62.1255,169.02530000000002" fill="none" stroke="black" stroke-width="0.1" id="_tag_1_64__1_1"/>
        <polyline points="65.1509,169.802 65.9536,169.5793 66.4609,169.2851 66.8397,168.9027 67.1086,168.4806 67.2859,168.0676 67.4727,167.1572 67.3285,166.17049999999998 67.0039,165.3292 66.5725,164.6359 66.10860000000001,164.0926 65.68560000000001,163.70170000000002 65.1731,162.471 65.253,161.7121 65.9162,161.4784 66.3743,161.7129 66.8572,162.0334 67.42970000000001,162.5134 68.03190000000001,163.1711 68.60390000000001,164.0249 69.08590000000001,165.0925 69.41820000000001,166.3923 69.44620000000002,167.524 69.18990000000002,168.5766 68.70450000000002,169.52630000000002 68.04460000000003,170.34900000000002 67.26580000000003,171.0207 66.42260000000003,171.5174 65.57040000000003,171.8153 64.76410000000004,171.8903" fill="none" stroke="black" stroke-width="0.1" id="_tag_1_65__1_1"/>
        <polyline points="59.7404,169.618 60.1131,169.96179999999998 60.6843,170.41799999999998 61.034,170.65819999999997 61.411699999999996,170.88149999999996 61.806799999999996,171.06939999999997" fill="none" stroke="black" stroke-width="0.1" id="_tag_1_66__1_1"/>
        <polyline points="46.7718,163.471 46.0144,163.2225 45.537600000000005,162.7719 45.2246,162.1513 44.627700000000004,162.1208" fill="none" stroke="black" stroke-width="0.1" id="_tag_1_67__1_1"/>
        <polygon points="63.1053,166.367 63.8623,165.189 64.4605,164.012 64.8922,162.867 65.154,161.788 65.241,160.806 65.1485,159.953 64.8692,159.26 64.4001,158.762 63.786,158.53 63.0866,158.446 63.1924,159.077 63.1947,159.79 63.0924,160.567 62.8865,161.396 62.5777,162.26 62.1664,163.145 61.6532,164.035 61.0395,164.916 60.3628,165.785 59.6525,166.569 58.9191,167.26 58.1757,167.85 57.4337,168.33 56.7052,168.691 56.002,168.924 55.3387,169.022 55.6517,169.641 56.1292,170.091 56.7872,170.368 57.5611,170.397 58.423,170.198 59.347,169.787 60.3037,169.182 61.2677,168.397 62.2107,167.454" fill="none" stroke="black" stroke-width="0.1" id="_tag_1_68_"/>
        <polygon points="61.0395,164.916 61.818,163.75 62.4314,162.584 62.8741,161.449 63.1411,160.378 63.2278,159.406 63.1311,158.566 62.8447,157.891 62.3635,157.413 61.7492,157.182 61.0493,157.1 61.1643,157.71 61.1638,158.408 61.0534,159.181 60.8373,160.009 60.5201,160.879 60.1057,161.772 59.598,162.674 59.0005,163.568 58.3264,164.435 57.6209,165.212 56.8942,165.893 56.1569,166.47 55.4216,166.938 54.7,167.288 54.0015,167.513 53.3381,167.607 53.6331,168.26 54.0902,168.744 54.7589,169.001 55.5383,169.021 56.4003,168.816 57.3199,168.403 58.2695,167.792 59.2237,166.997 60.156,166.034" fill="none" stroke="black" stroke-width="0.1" id="_tag_1_69_"/>
        <polygon points="59.0005,163.568 59.7909,162.383 60.4087,161.207 60.849,160.068 61.1093,159.001 61.186,158.031 61.0716,157.193 60.7632,156.515 60.2585,156.028 59.8622,155.809 59.191,155.731 59.127,156.36 59.1301,157.052 59.0256,157.816 58.8123,158.637 58.4992,159.502 58.0826,160.397 57.5707,161.307 56.9615,162.221 56.2884,163.087 55.5819,163.865 54.8552,164.545 54.1187,165.123 53.3838,165.59 52.661,165.94 51.9627,166.165 51.3001,166.26 51.6141,166.88 52.0923,167.331 52.7494,167.607 53.5226,167.636 54.3825,167.436 55.3012,167.022 56.2507,166.412 57.2018,165.621 58.1287,164.667" fill="none" stroke="black" stroke-width="0.1" id="_tag_1_70_"/>
        <polygon points="56.9615,162.221 57.7636,161.017 58.3866,159.831 58.831,158.689 59.0903,157.621 59.1663,156.65 59.0538,155.808 58.7527,155.12 58.2575,154.615 57.8361,154.442 57.1799,154.34 57.1248,154.948 57.125,155.648 57.0147,156.42 56.7995,157.249 56.4823,158.118 56.0671,159.011 55.559,159.914 54.9619,160.807 54.2835,161.674 53.5681,162.455 52.8281,163.139 52.0799,163.718 51.3381,164.189 50.6174,164.538 49.9339,164.761 49.3004,164.848 49.5811,165.525 50.0534,165.983 50.7221,166.241 51.5002,166.261 52.3616,166.06 53.2774,165.649 54.2232,165.046 55.169,164.265 56.0914,163.317" fill="none" stroke="black" stroke-width="0.1" id="_tag_1_71_"/>
        <polygon points="54.9619,160.807 55.7531,159.623 56.3697,158.447 56.8122,157.308 57.0724,156.24 57.1472,155.271 57.0329,154.432 56.7253,153.754 56.2217,153.267 55.8246,153.047 55.1534,152.97 55.0894,153.598 55.0923,154.291 54.9878,155.056 54.7755,155.877 54.4614,156.742 54.0467,157.637 53.5326,158.548 52.9257,159.461 52.2479,160.325 51.5353,161.098 50.8003,161.774 50.0565,162.347 49.3169,162.812 48.5961,163.162 47.9066,163.394 47.2631,163.499 47.5761,164.119 48.0534,164.569 48.6923,164.835 49.4556,164.86 50.3158,164.658 51.2379,164.247 52.1948,163.641 53.1542,162.854 54.0872,161.905" fill="none" stroke="black" stroke-width="0.1" id="_tag_1_72_"/>
        <polyline points="52.9684,153.421 52.749100000000006,154.4853 52.3222,155.6529 51.707300000000004,156.8612 50.924600000000005,158.0457 50.245900000000006,158.9139 49.528600000000004,159.6954 48.7877,160.3814 48.036500000000004,160.9669 47.290000000000006,161.4444 46.56300000000001,161.8051 45.86970000000001,162.04330000000002 45.22410000000001,162.1519" fill="none" stroke="black" stroke-width="0.1" id="_tag_1_73__1_1"/>
        <polyline points="46.7718,163.471 47.4338,163.4849 48.293499999999995,163.28230000000002 49.214299999999994,162.87510000000003 50.1671,162.27630000000002 51.1222,161.49890000000002 52.0512,160.55530000000002 52.925200000000004,159.46020000000001 53.5204,158.56930000000003 54.0253,157.67500000000004 54.4382,156.79010000000005 54.755700000000004,155.93090000000007 54.9767,155.11100000000008 55.0991,154.34400000000008 55.1208,153.6448000000001 55.039300000000004,153.02800000000008" fill="none" stroke="black" stroke-width="0.1" id="_tag_1_74__1_1"/>
        <polyline points="50.4441,153.989 50.103899999999996,154.66660000000002 49.729099999999995,155.34740000000002 49.32189999999999,156.0268 48.88709999999999,156.69740000000002 48.20989999999999,157.56310000000002 47.49719999999999,158.3367 46.76239999999999,159.01250000000002 46.01849999999999,159.586 45.27939999999999,160.05040000000002 44.557999999999986,160.40160000000003 43.86889999999998,160.63180000000003 43.224499999999985,160.73770000000002" fill="none" stroke="black" stroke-width="0.1" id="_tag_1_75__1_1"/>
        <polyline points="41.1199,159.353 42.170300000000005,159.1425 43.1022,158.7346 44.0643,158.1307 45.032000000000004,157.3455 45.981300000000005,156.3918 46.8866,155.2847" fill="none" stroke="black" stroke-width="0.1" id="_tag_1_76__1_1"/>
        <polyline points="65.9514,172.574 66.35570000000001,172.0815 66.86730000000001,171.69150000000002 67.59090000000002,171.40630000000002 68.03660000000002,171.2844 68.50480000000002,171.1466 68.97900000000001,170.9874 69.44280000000002,170.8017 69.87980000000002,170.5839 70.27340000000002,170.3287 70.60710000000002,170.0308 70.86450000000002,169.6847 71.06080000000001,169.2668 71.28820000000002,168.7638 71.52940000000002,168.2194 71.76640000000002,167.6766 71.98170000000002,167.1789 72.15740000000002,166.7698 72.31920000000002,166.3903" fill="none" stroke="black" stroke-width="0.1" id="_tag_1_77__1_1"/>
        <polygon points="77.0394,165.059 76.4929,165.647 75.9329,165.76 75.2606,165.709 74.6292,165.563 74.1412,165.285 73.837,164.915 73.7604,164.495 74.3608,163.928 74.9197,163.788 75.5772,163.78 76.1953,163.969 76.8678,164.459 77.0503,164.857" fill="none" stroke="black" stroke-width="0.1" id="_tag_1_78_"/>
        <polyline points="73.8346,164.977 73.6565,164.5642 73.64829999999999,163.9838 73.9951,163.6206 74.54929999999999,163.3977 75.24929999999999,163.3371 76.02519999999998,163.4375 76.68829999999998,163.6977 77.15679999999999,164.0806 77.38699999999999,164.5199 77.28459999999998,165.0149 76.95219999999998,165.3998" fill="none" stroke="black" stroke-width="0.1" id="_tag_1_79__1_1"/>
        <polyline points="67.5222,171.983 68.3242,171.7294 68.9163,171.5725 69.60270000000001,171.42059999999998 70.35810000000001,171.29179999999997 71.15750000000001,171.20509999999996 71.9758,171.17859999999996 72.78800000000001,171.23099999999997 73.75610000000002,171.37629999999996 74.96180000000001,171.53259999999995 76.2921,171.69059999999993 77.63380000000001,171.84079999999994 78.87410000000001,171.97429999999994 79.90010000000001,172.08099999999993 80.59850000000002,172.15219999999994" fill="none" stroke="black" stroke-width="0.1" id="_tag_1_80__1_1"/>
        <polyline points="78.2611,178.684 77.6987,178.5649 77.13940000000001,178.4535 76.605,178.3527 76.1179,178.2645 75.70030000000001,178.1916 75.16280000000002,178.1015 74.94690000000001,177.3415 74.85950000000001,176.8601 74.76580000000001,176.32559999999998 74.674,175.7755 74.5922,175.2476 74.52850000000001,174.7795 74.4346,173.9967 74.3146,173.5925 74.12089999999999,173.1946 73.83519999999999,172.8136 73.43869999999998,172.46040000000002 72.91289999999998,172.14640000000003 72.23909999999998,171.88220000000004 71.55369999999998,171.69640000000004 70.87959999999998,171.59730000000005 70.21679999999998,171.57520000000005 69.56629999999998,171.61960000000005 68.92849999999999,171.72090000000006 68.30399999999999,171.86900000000006 67.6933,172.05400000000006 67.097,172.26610000000005 66.54299999999999,172.49780000000004 66.04889999999999,172.73860000000005 65.59939999999999,172.96990000000005 65.17909999999999,173.17400000000006 64.7726,173.33240000000006 64.3648,173.42700000000008 63.940200000000004,173.4401000000001 63.48350000000001,173.3530000000001 62.924200000000006,173.1593000000001 62.231700000000004,172.8805000000001 61.4483,172.5413000000001 60.616600000000005,172.1662000000001 59.7792,171.7795000000001 58.9788,171.40580000000008 58.2578,171.0697000000001 57.6589,170.7954000000001 57.128600000000006,170.60500000000008 56.641200000000005,170.51770000000008 56.2051,170.50930000000008 55.522,170.63400000000007 55.1475,170.78810000000007" fill="none" stroke="black" stroke-width="0.1" id="_tag_1_81__1_1"/>
        <polyline points="81.2455,171.96 80.7325,171.61440000000002 80.45360000000001,171.20260000000002 80.31370000000001,170.43470000000002 80.3555,169.67780000000002 80.4538,168.7504 80.5859,167.75830000000002 80.7277,166.8052 80.8577,165.9951 80.9519,165.43210000000002 80.9459,164.7263" fill="none" stroke="black" stroke-width="0.1" id="_tag_1_82__1_1"/>
        <polyline points="81.1027,172.056 81.1609,172.535 81.1917,173.53 81.3006,174.053 81.5034,174.648 81.754,175.512 82.2533,176.364 83.0001,177.464 83.8662,178.287 84.6628,178.896 85.8725,179.667 86.7234,180.004 87.7809,180.187" fill="none" stroke="black" stroke-width="0.1" id="_tag_1_83__1"/>
        <polyline points="76.1153,156.882 76.7351,157.0919 77.2232,157.25820000000002 77.7594,157.443 78.2911,157.62980000000002 78.7645,157.79950000000002 79.4122,158.1314 79.6295,158.61620000000002 79.84589999999999,159.22500000000002 79.98949999999999,159.66740000000001 80.14529999999999,160.14690000000002 80.7862,160.41850000000002 81.86959999999999,160.79100000000003 83.3654,161.31520000000003 85.0715,161.92100000000002 86.7835,162.53850000000003 88.29740000000001,163.09730000000002 89.40890000000002,163.52750000000003 90.31580000000001,163.95440000000002 90.82880000000002,164.2538 91.31110000000001,164.7491 91.62,165.5322 91.7433,166.2687 91.83380000000001,167.0623 91.85150000000002,167.8823 91.75580000000002,168.6969 91.50740000000002,169.478 91.06570000000002,170.1942 90.39040000000003,170.8153 89.44010000000003,171.31050000000002 88.33800000000002,171.7187 87.25170000000003,172.0954 86.21470000000002,172.43460000000002 85.26250000000002,172.73270000000002 84.42730000000002,172.98160000000001 83.74520000000001,173.17890000000003 83.248,173.31750000000002 82.58,173.41800000000003 82.1417,173.26750000000004 81.7359,173.00430000000003 81.4412,172.68830000000003" fill="none" stroke="black" stroke-width="0.1" id="_tag_1_84__1_1"/>
        <polyline points="90.5362,164.821 89.8343,164.8661 88.6846,165.0049 87.2536,165.2065 85.70830000000001,165.44060000000002 84.2158,165.67600000000002 82.9431,165.8821 82.0569,166.0284 81.6518,166.09300000000002 81.2645,166.30130000000003" fill="none" stroke="black" stroke-width="0.1" id="_tag_1_85__1_1"/>
        <polyline points="72.6348,153.915 72.8215,153.423 73.1091,152.9849 73.4862,152.6062 73.9408,152.293 74.4619,152.0506 75.0378,151.8851 75.65690000000001,151.8024 76.30760000000001,151.80790000000002 76.9128,151.9122 77.4751,152.096 77.9863,152.3513 78.4376,152.6699 78.82000000000001,153.04350000000002 79.12480000000001,153.46450000000002 79.3435,153.9241 79.4668,154.4147" fill="none" stroke="black" stroke-width="0.1" id="_tag_1_86__1_1"/>
        <polyline points="79.6638,155.143 79.87379999999999,155.69050000000001 80.43759999999999,156.4633 81.55489999999999,157.3409 82.37859999999999,157.7579 83.56819999999999,158.2168 85.2169,158.8463 87.1918,159.60440000000003 89.3563,160.45190000000002 91.57600000000001,161.3462 93.7145,162.2492 95.6378,163.1171 97.21039999999999,163.9128 98.14349999999999,164.4307 98.99419999999999,164.861 99.35969999999999,165.0238 100.07079999999999,165.2053" fill="none" stroke="black" stroke-width="0.1" id="_tag_1_87__1_1"/>
        <polyline points="91.6519,164.408 93.0543,165.03439999999998 94.9391,165.91419999999997 96.2927,166.58739999999997 97.5509,167.2599 98.4525,167.7945 99.2876,168.4245 100.0706,169.3418 100.4765,170.273 100.5758,171.1916" fill="none" stroke="black" stroke-width="0.1" id="_tag_1_88__1_1"/>
        <polyline points="71.9144,150.543 72.0963,150.064 72.3656,149.6397 72.6443,149.3074 73.1173,148.9299 73.6707,148.6356 74.288,148.4345 74.9549,148.33800000000002 75.6557,148.35680000000002 76.3539,148.4687 76.9893,148.6875 77.5509,148.9987 78.0272,149.39020000000002 78.40629999999999,149.85030000000003 78.67729999999999,150.36610000000005 78.8299,150.92320000000004 78.85079999999999,151.51090000000005 78.66239999999999,152.10960000000006 78.65239999999999,152.65870000000007" fill="none" stroke="black" stroke-width="0.1" id="_tag_1_89__1_1"/>
        <polyline points="72.1153,145.905 71.6782,146.6192 71.5083,147.3982 71.48580000000001,147.917 71.52050000000001,148.45250000000001 71.68530000000001,150.2786 71.80180000000001,151.0089 71.96080000000002,151.549 72.16800000000002,151.9771 72.40720000000002,152.36960000000002 72.70950000000002,152.94940000000003 72.72710000000002,153.55470000000003" fill="none" stroke="black" stroke-width="0.1" id="_tag_1_90__1_1"/>
        <polyline points="76.8681,145.057 76.0077,144.85639999999998 75.5577,144.77419999999998 74.98179999999999,144.74069999999998 74.30869999999999,144.8002 73.57,144.9996 72.7949,145.3868 72.0152,146.0066" fill="none" stroke="black" stroke-width="0.1" id="_tag_1_91__1_1"/>
        <polyline points="76.8792,146.686 77.493,146.85080000000002 78.2059,147.05480000000003 79.1409,147.33820000000003 80.2619,147.69970000000004 81.5325,148.13810000000004 82.91629999999999,148.65160000000003 84.37719999999999,149.23930000000004 85.86429999999999,149.83910000000003 87.34949999999999,150.47280000000003 88.797,151.14670000000004 90.1716,151.86700000000005 91.43769999999999,152.64030000000005 92.5594,153.47280000000006 93.5012,154.37110000000007 94.2277,155.34140000000008" fill="none" stroke="black" stroke-width="0.1" id="_tag_1_92__1_1"/>
        <polyline points="78.7723,152.874 78.997,152.38739999999999 79.337,152.0852 79.8806,152.0159 80.4154,152.1444 81.214,152.405 82.1733,152.7519 83.19,153.1389 84.1606,153.52 84.9819,153.84900000000002 85.5505,154.08030000000002 86.4735,153.94450000000003 87.297,153.78880000000004 88.3749,153.71360000000004 89.6642,153.80110000000005 91.1216,154.13360000000006 92.7037,154.79310000000007 94.3678,155.86220000000006" fill="none" stroke="black" stroke-width="0.1" id="_tag_1_93__1_1"/>
        <polyline points="78.7723,152.874 78.997,152.38739999999999 79.337,152.0852 79.8806,152.0159 80.4154,152.1444 81.214,152.405 82.1733,152.7519 83.19,153.1389 84.1606,153.52 84.9819,153.84900000000002 85.5505,154.08030000000002 86.4735,153.94450000000003 87.297,153.78880000000004 88.3749,153.71360000000004 89.6642,153.80110000000005 91.1216,154.13360000000006 92.7037,154.79310000000007 94.3678,155.86220000000006" fill="none" stroke="black" stroke-width="0.1" id="_tag_1_94__1_1"/>
        <polyline points="85.5547,154.223 84.8952,154.604 84.4548,154.93120000000002 83.95020000000001,155.3778 83.40840000000001,155.9553 82.85680000000002,156.6755 82.32280000000002,157.5498" fill="none" stroke="black" stroke-width="0.1" id="_tag_1_95__1_1"/>
        <polyline points="84.2479,158.476 85.5193,157.957 86.5344,157.662 87.9649,157.411 89.7105,157.348 91.5251,157.56 93.6863,158.213 95.4966,159.104 97.0398,160.256 98.1811,161.394 98.9805,162.459 99.498,163.389 99.7936,164.128 99.927,164.614" fill="none" stroke="black" stroke-width="0.1" id="_tag_1_96__1"/>
        <polyline points="5.8541,157.711 6.3587,157.54000000000002 6.8233,157.37890000000002 7.281899999999999,157.2141 7.904999999999999,157.2263 8.329799999999999,157.3718 8.793899999999999,157.62220000000002 9.2709,157.98700000000002 9.7333,158.47500000000002 10.1543,159.09610000000004 10.507,159.85880000000003 10.7739,160.76830000000004 10.904399999999999,161.58570000000003 10.916099999999998,162.30830000000003 10.827799999999998,162.93280000000004 10.657099999999998,163.45700000000005 10.422499999999998,163.87710000000004 10.141899999999998,164.19070000000005 9.504299999999997,164.52940000000004 8.817399999999997,164.72470000000004 8.215199999999998,164.83700000000005 7.790799999999997,164.88950000000006" fill="none" stroke="black" stroke-width="0.1" id="_tag_1_98__1_1"/>
        <polygon points="6.0696,161.615 6.1782,162.12 6.232,162.612 6.2342,163.075 6.1868,163.496 5.9562,164.158 5.5622,164.487 5.0051,164.42 4.4605,163.975 4.209,163.631 3.9796,163.219 3.7777,162.748 3.6112,162.224 3.4919,161.687 3.4275,161.178 3.4187,160.705 3.4634,160.281 3.709,159.622 4.1564,159.286 4.6922,159.39 5.2253,159.855 5.4743,160.203 5.7021,160.619 5.903,161.092" fill="none" stroke="black" stroke-width="0.1" id="_tag_1_99_"/>
        <polygon points="6.0696,161.615 6.1941,162.368 6.1552,163.016 5.9657,163.496 5.6394,163.742 5.2394,163.683 4.8474,163.34 4.4996,162.777 4.2351,162.055 4.1098,161.304 4.1425,160.65 4.3125,160.158 5.0057,159.942 5.4144,160.271 5.7829,160.843" fill="none" stroke="black" stroke-width="0.1" id="_tag_1_100_"/>
        <polyline points="5.8938,156.416 6.1808,155.9552 6.5443,155.71519999999998 7.1065,155.53199999999998 7.848599999999999,155.45659999999998 8.6245,155.62349999999998 9.0038,155.80329999999998 9.3662,156.05089999999998 9.7029,156.36819999999997 10.0055,156.75749999999996 10.283999999999999,157.19299999999996 10.5505,157.63869999999994 10.796999999999999,158.08329999999995 11.015999999999998,158.51479999999995 11.199599999999998,158.92209999999994 11.430499999999999,159.61669999999995 11.4607,160.09929999999994 11.395499999999998,160.57959999999994 11.314199999999998,161.03809999999993 11.334499999999998,161.47829999999993 11.609799999999998,161.87809999999993 11.728999999999997,162.31999999999994 11.573899999999998,163.00789999999995 11.404499999999999,163.60719999999995 11.2053,164.28189999999995 10.9993,164.96089999999995 10.81,165.57339999999996 10.6608,166.04819999999995 10.5292,166.44429999999994 10.357,166.84379999999993" fill="none" stroke="black" stroke-width="0.1" id="_tag_1_101__1_1"/>
        <polyline points="6.1213,156.021 6.523899999999999,155.70569999999998 7.071699999999999,155.4637 7.721799999999999,155.2225 8.4025,155.06459999999998 9.1535,155.1367 9.5369,155.25959999999998 9.913499999999999,155.44439999999997 10.274299999999998,155.69449999999998 10.610599999999998,156.01269999999997 10.913099999999998,156.40209999999996 11.194799999999999,156.83879999999996 11.468799999999998,157.28879999999995 11.726199999999999,157.73929999999996 11.957499999999998,158.17819999999995 12.153299999999998,158.59269999999995 12.304399999999998,158.96999999999994 12.435899999999998,159.56329999999994 12.407799999999998,160.01799999999994 12.317699999999999,160.49469999999994 12.238399999999999,160.89519999999993 12.3891,161.30169999999993 12.621099999999998,161.66659999999993 12.665499999999998,162.23409999999993 12.553699999999997,162.67959999999994 12.390299999999998,163.26839999999993 12.197999999999999,163.93129999999994 11.9988,164.59829999999994 11.8157,165.20019999999994 11.6708,165.66759999999994 11.5239,166.03979999999993" fill="none" stroke="black" stroke-width="0.1" id="_tag_1_102__1_1"/>
        <polyline points="12.7035,162.001 13.0353,161.5766 13.773,161.21020000000001 12.4754,158.883" fill="none" stroke="black" stroke-width="0.1" id="_tag_1_103__1_1"/>
        <polyline points="12.4942,166.188 12.643099999999999,165.731 12.7952,165.2532 12.9697,164.6923 13.1436,164.11079999999998 13.294799999999999,163.57059999999998 13.4005,163.1343 13.7714,162.4383 14.8211,161.9876 15.0305,161.6232" fill="none" stroke="black" stroke-width="0.1" id="_tag_1_104__1_1"/>
        <polyline points="9.9133,155.387 10.5612,155.3313 11.189499999999999,155.4906 11.859099999999998,155.9786 12.243499999999997,156.4653 12.717399999999998,157.1655 13.237799999999998,157.9931 13.760799999999998,158.8627 14.243199999999998,159.6882 14.641699999999998,160.38389999999998 14.912599999999998,160.8644" fill="none" stroke="black" stroke-width="0.1" id="_tag_1_105__1_1"/>
        <polygon points="13.8011,161.314 14.2623,159.855 14.738,158.113 15.2889,155.764 15.8482,152.864 16.3485,149.466 16.7229,145.625 16.9174,141.12 15.4579,140.973 15.2366,145.56 15.1338,146.567 14.8452,149.394 14.3333,152.785 13.7663,155.68 13.2109,158.025 12.7329,159.767 12.3978,160.851 12.6031,161.632 13.3378,161.604" fill="none" stroke="black" stroke-width="0.1" id="_tag_1_106_"/>
        <polygon points="32.7858,125.998 32.2265,126.97 31.5099,127.784 30.6646,128.432 29.7193,128.904 28.7035,129.19 27.6454,129.284 26.5748,129.173 25.5198,128.851 24.5483,128.292 23.7351,127.576 23.0914,126.729 22.6268,125.782 22.3523,124.763 22.278,123.699 22.4139,122.622 22.7703,121.558 23.2965,120.592 23.9919,119.778 24.8254,119.129 25.7671,118.656 26.7861,118.37 27.8515,118.286 28.9323,118.415 29.9977,118.769 30.951,119.317 31.7555,120.028 32.3996,120.872 32.8712,121.817 33.1576,122.833 33.2471,123.888 33.1274,124.953" fill="none" stroke="black" stroke-width="0.1" id="_tag_1_13_"/>
        <polygon points="32.3514,125.837 31.8525,126.718 31.2004,127.461 30.4237,128.055 29.552,128.489 28.6135,128.751 27.6362,128.835 26.6494,128.726 25.6816,128.416 24.7992,127.917 24.0563,127.265 23.4627,126.489 23.0292,125.617 22.7658,124.679 22.6831,123.702 22.791,122.716 23.1004,121.748 23.6108,120.846 24.2682,120.094 25.0452,119.499 25.914,119.07 26.8484,118.814 27.821,118.738 28.8037,118.853 29.77,119.165 30.671,119.677 31.4238,120.334 32.0182,121.111 32.4481,121.98 32.7041,122.915 32.7786,123.887 32.6639,124.87" fill="none" stroke="black" stroke-width="0.1" id="_tag_1_14_"/>
        <polygon points="30.1895,124.857 29.9124,125.342 29.5607,125.747 29.1483,126.069 28.6892,126.301 28.1968,126.44 27.685,126.483 27.1684,126.423 26.6602,126.256 26.1752,125.979 25.7696,125.627 25.4489,125.214 25.2169,124.755 25.0773,124.263 25.035,123.752 25.095,123.235 25.2615,122.726 25.5388,122.241 25.8906,121.835 26.3032,121.514 26.7622,121.282 27.2547,121.142 27.7661,121.101 28.2824,121.162 28.7903,121.328 29.276,121.605 29.6817,121.957 30.0032,122.369 30.2353,122.828 30.3747,123.32 30.4165,123.832 30.3561,124.349" fill="none" stroke="black" stroke-width="0.1" id="_tag_1_15_"/>
        <polygon points="29.6235,124.619 29.403,124.976 29.1264,125.276 28.4522,125.682 27.6922,125.807 26.9366,125.622 26.5666,125.424 26.2588,125.163 25.8413,124.51 25.7113,123.757 25.8949,123.003 26.0937,122.632 26.3537,122.324 27.008,121.907 27.7609,121.777 28.515,121.96 28.8854,122.159 29.1947,122.419 29.6196,123.078 29.7689,123.843" fill="none" stroke="black" stroke-width="0.1" id="_tag_1_16_"/>
        <polyline points="11.5411,129.166 11.5972,129.7321 11.9488,130.4436 12.2738,130.79590000000002 12.7189,131.11540000000002 13.299199999999999,131.37890000000002 14.0301,131.56310000000002 14.857999999999999,131.65580000000003 15.671499999999998,131.71440000000004 16.441399999999998,131.74580000000003 17.1374,131.75630000000004 17.7305,131.75300000000004 18.1908,131.74230000000003 18.5946,131.72560000000004" fill="none" stroke="black" stroke-width="0.1" id="_tag_1_43__1_1"/>
        <polyline points="12.595,127.485 12.2218,127.8884 12.0096,128.5988 12.043600000000001,129.0069 12.213400000000002,129.4167 12.551000000000002,129.80339999999998 13.088100000000003,130.14209999999997 13.757200000000003,130.38449999999997 14.593100000000003,130.54449999999997 15.516700000000004,130.63749999999996 16.449700000000004,130.67889999999997 17.312300000000004,130.68459999999996 18.026300000000003,130.66929999999996 18.512400000000003,130.64879999999997" fill="none" stroke="black" stroke-width="0.1" id="_tag_1_44__1_1"/>
        <polygon points="18.7347,128.731 18.5783,129.254 18.0319,129.666 17.6406,129.823 17.1857,129.941 16.6792,130.017 16.1321,130.046 15.5692,130.048 15.0439,129.995 14.568,129.892 14.1523,129.744 13.5525,129.33 13.3616,128.518 13.7241,128.047 14.4316,127.7 14.8866,127.581 15.3932,127.505 15.9402,127.476 16.491,127.495 17.0074,127.564 17.4778,127.677 17.8913,127.828 18.4989,128.228" fill="none" stroke="black" stroke-width="0.1" id="_tag_1_45_"/>
        <polygon points="17.8912,129.126 17.4087,129.813 16.8426,130.004 16.1321,130.046 15.4278,130.003 14.6063,129.705 14.2965,129.395 14.5138,128.698 14.9922,128.465 15.6332,128.328 16.3611,128.302 17.0288,128.423 17.731,128.802" fill="none" stroke="black" stroke-width="0.1" id="_tag_1_46_"/>
        <polyline points="67.2219,67.1481 63.4354,69.989 59.4771,72.9379 55.4334,75.9251 51.390499999999996,78.8806 47.4344,81.7343 43.6513,84.4162 40.1275,86.8567 36.948899999999995,88.985 31.875099999999996,92.8783 27.740799999999997,96.685 23.782299999999996,101.1388 20.648899999999998,106.14500000000001 18.944699999999997,109.55220000000001 16.543699999999998,115.21700000000001 14.968699999999998,121.46580000000002 14.255499999999998,128.26450000000003 14.336699999999999,128.98920000000004 14.628999999999998,129.48950000000005 15.137499999999998,129.78460000000004 15.867999999999997,129.89420000000004 16.289899999999996,129.88620000000003 16.703099999999996,129.83630000000002 17.093499999999995,129.7401 17.748799999999996,129.39350000000002 18.142099999999996,128.81390000000002 18.844399999999997,122.18640000000002 20.243599999999997,116.50390000000002 22.378299999999996,111.39440000000002 24.097399999999997,107.94910000000002 26.905899999999995,103.48570000000001 30.472799999999996,99.52040000000001 34.5445,95.8177 39.1615,92.3039 42.9451,89.7644 47.1836,86.81439999999999 51.738099999999996,83.5662 56.4693,80.1322 61.2375,76.62519999999999 65.9036,73.1574 70.32849999999999,69.84129999999999 74.37209999999999,66.7896" fill="none" stroke="black" stroke-width="0.1" id="_tag_1_97__1_1"/>
        <polyline points="38.4113,158.41 38.8795,158.3239 39.373400000000004,158.2272 39.9602,158.1031 40.5781,157.96120000000002 41.1669,157.80710000000002 41.665,157.6494 42.4901,157.23680000000002 43.3626,156.80280000000002 44.5481,156.24320000000003 45.9634,155.61160000000004 47.5278,154.95720000000003 49.1579,154.33360000000002 50.7723,153.79100000000003 52.2886,153.38120000000004 53.707,153.10200000000003 55.0469,152.90570000000002 56.330600000000004,152.81430000000003 57.580000000000005,152.85200000000003 58.815200000000004,153.04300000000003 60.057500000000005,153.41000000000003 61.3299,153.97760000000002 62.6525,154.76900000000003 63.8935,155.58980000000003 64.9432,156.32010000000002 65.8294,156.97950000000003 66.58070000000001,157.58680000000004 67.22290000000001,158.16130000000004 67.7844,158.71940000000004 68.2924,159.28250000000003 68.773,159.86900000000003 69.2302,160.48830000000004 69.6245,161.16470000000004 69.9581,161.86650000000003 70.2383,162.55690000000004 70.4705,163.20250000000004 70.65820000000001,163.77070000000003 70.8088,164.22520000000003 71.0425,164.81180000000003 71.48100000000001,165.49760000000003 71.8251,165.87420000000003 72.26620000000001,166.25460000000004 72.81560000000002,166.62110000000004 73.48490000000002,166.95970000000005 74.28390000000003,167.25530000000006 75.08970000000004,167.43480000000005 75.80470000000004,167.51930000000004 76.44300000000004,167.52060000000003 77.01990000000004,167.44400000000002 77.54920000000004,167.29970000000003 78.04630000000004,167.09520000000003 78.52580000000005,166.83900000000003 79.00150000000005,166.53920000000002 79.40260000000005,166.15040000000002 79.70720000000004,165.66680000000002 79.93060000000004,165.11360000000002 80.08720000000004,164.51620000000003 80.19230000000003,163.90180000000004 80.26030000000003,163.29610000000002 80.30690000000003,162.72540000000004 80.34550000000003,162.21480000000003 80.36480000000003,161.52100000000002 80.31650000000003,160.8888 80.20070000000004,160.3159 80.02030000000003,159.797 79.77780000000003,159.32999999999998 79.47610000000003,158.9097 79.11690000000003,158.5313 78.70110000000003,158.1931 78.33030000000002,157.94529999999997 77.91790000000002,157.7256 77.47910000000002,157.5298 77.03100000000002,157.3542 76.58880000000002,157.1945 76.17130000000002,157.0479 75.79320000000001,156.909 75.08300000000001,156.495 74.5417,156.028 73.8969,155.43019999999999 73.1967,154.75429999999997 72.48970000000001,154.05369999999996 71.82500000000002,153.38199999999998 71.25090000000002,152.79369999999997 70.81400000000002,152.34169999999997 70.40980000000002,151.90519999999998 69.92500000000001,151.35199999999998 69.40660000000001,150.72289999999998 68.90020000000001,150.05469999999997 68.45090000000002,149.38579999999996 68.10530000000001,148.75689999999997 67.90800000000002,148.2051 67.90690000000002,147.7696 68.27280000000002,147.1713 68.93350000000002,146.6341 69.39550000000003,146.3681 69.95850000000003,146.0931 70.62950000000004,145.8006 71.41950000000004,145.4819 72.21400000000004,145.1312 72.91510000000004,144.8283 73.52260000000004,144.57430000000002 74.03530000000003,144.37070000000003 74.45210000000003,144.21930000000003 75.11800000000002,144.09230000000002 75.95170000000002,144.41590000000002 76.73620000000001,144.69850000000002 77.6658,145.02980000000002 78.6682,145.38690000000003 79.6679,145.74480000000003 80.5932,146.07940000000002 81.36829999999999,146.36820000000003" fill="none" stroke="black" stroke-width="0.1" id="_tag_1_8__1_1"/>
    </g>
</svg>
