<?xml version="1.0" encoding="UTF-8"?>
<!DOCTYPE svg PUBLIC "-//W3C//DTD SVG 1.1//EN" "http://www.w3.org/Graphics/SVG/1.1/DTD/svg11.dtd">
<!-- Creator: CorelDRAW -->
<svg xmlns="http://www.w3.org/2000/svg" xml:space="preserve" width="210mm" height="297mm" style="shape-rendering:geometricPrecision; text-rendering:geometricPrecision; image-rendering:optimizeQuality; fill-rule:evenodd; clip-rule:evenodd"
viewBox="0 0 210 297">
 <defs>
  <style type="text/css">
   <![CDATA[
    .str1 {stroke:#1F1A17;stroke-width:0.0762}
    .str0 {stroke:#004990;stroke-width:0.0762}
    .fil1 {fill:none}
    .fil0 {fill:#FFF500}
   ]]>
  </style>
 </defs>
 <g id="Ebene_x0020_1">
  <metadata id="CorelCorpID_0Corel-Layer"/>
  <polygon class="fil0 str0" points="
  -20.2619,-17 -16.6918,-17.4561 -13.8908,-19.1945 -11.3044,-21.7874 -10.0644,-24.1389 -9.7316,-24.4732 -9.8958,-23.3099 -10.3089,-21.9026 -11.1479,-19.9125 -12.0719,-17.777 -15.3406,-11.3784 -16.1873,-10.0012 -17.4384,-9.0427 -18.8336,-8.3572 -17.4384,-9.0427 -16.1873,-10.0012 -15.3406,-11.3784 -12.0719,-17.777 -11.1479,-19.9125 -10.3089,-21.9026 -9.8958,-23.3099 -9.7316,-24.4732 -9.4316,-24.7774 -8.6838,-24.9999 -0.8,-24.9999 -0.8,-15.8802 0.8,-15.8802 0.8,-24.9998 5.6669,-24.9998 6.3699,-24.8858 6.9818,-24.5172 7.4284,-24.07 13.0499,-18.7437 13.049,-23.6727 12.6125,-24.0796 12.5936,-20.4963 12.6125,-24.0796 7.4284,-24.07 13.2207,-18.5818 15.8552,-15.7422 17.8482,-13.2995 19.8206,-9.913 20.8437,-7.292 21.5329,-4.4455 21.8005,-2.0944 21.9,0.0001 21.8005,2.0946 21.5329,4.4457 20.8437,7.2922 19.8206,9.9132 17.8482,13.2997 15.8552,15.7424 13.2207,18.582 7.4284,24.0702 12.6125,24.0798 12.5936,20.4965 12.6125,24.0798 13.049,23.6729 13.0499,18.7439 7.4284,24.0702 6.9818,24.5174 6.3699,24.886 5.6669,25 0.8,25 0.8,15.8804 4.18,15.3448 7.4163,14.0676 10.1772,12.2159 12.523,9.7973 14.299,6.9605 15.506,3.5323 15.9,0.0001 15.506,-3.5321 14.299,-6.9603 12.523,-9.7971 10.1772,-12.2157 7.4163,-14.0674 4.18,-15.3446 0.8,-15.8802 -0.8,-15.8802 -3.4694,-15.544 -6.2265,-14.634 -9.2433,-12.9378 -11.6453,-10.8246 -13.5388,-8.3403 -14.8801,-5.6139 -15.6719,-2.6977 -15.9,0.0001 -15.6719,2.6979 -14.8801,5.6141 -13.5388,8.3405 -11.6453,10.8248 -9.2433,12.938 -6.2265,14.6342 -3.4694,15.5442 -0.8,15.8804 0.8,15.8804 -0.8,15.8804 -0.8,25.0001 -8.6838,25.0001 -9.3776,24.6754 -9.7467,23.9553 -9.8958,23.3101 -10.3089,21.9028 -11.1479,19.9127 -12.0719,17.7772 -15.3406,11.3786 -16.1873,10.0014 -17.4384,9.0429 -18.8336,8.3574 -17.4384,9.0429 -16.1873,10.0014 -15.3406,11.3786 -12.0719,17.7772 -11.1479,19.9127 -10.3089,21.9028 -9.8958,23.3101 -9.7467,23.9553 -11.1307,22.117 -13.8952,19.3455 -16.8889,17.4875 -20.7048,17 "/>
  <circle class="fil1 str1" r="4.4352"/>
 </g>
 <circle class="fil1 str1" cx="-28.1388" cy="0.0001" r="5"/>
</svg>
