<?xml version="1.0" encoding="UTF-8"?>
<!DOCTYPE svg PUBLIC "-//W3C//DTD SVG 1.1//EN" "http://www.w3.org/Graphics/SVG/1.1/DTD/svg11.dtd">
<!-- Creator: CorelDRAW -->
<svg xmlns="http://www.w3.org/2000/svg" xml:space="preserve" width="297mm" height="210mm" style="shape-rendering:geometricPrecision; text-rendering:geometricPrecision; image-rendering:optimizeQuality; fill-rule:evenodd; clip-rule:evenodd"
viewBox="0 0 297 210">
 <defs>
  <style type="text/css">
   <![CDATA[
    .str0 {stroke:#1F1A17;stroke-width:0.0762}
    .str1 {stroke:#DA251D;stroke-width:0.0762}
    .fil0 {fill:none}
    .fil1 {fill:#969594}
    .fil2 {fill:#AAA9A9}
    .fil3 {fill:#C2C1C1}
   ]]>
  </style>
 </defs>
 <g id="Ebene_x0020_1">
  <metadata id="CorelCorpID_0Corel-Layer"/>
  <polygon class="fil0 str0" points="42.205,76.8944 43.6432,78.1315 44.8135,78.8642 46.0299,79.3945 47.4435,79.7521 48.5898,79.8733 49.705,79.8944 50.8352,79.8725 52.2414,79.7022 53.5589,79.3303 54.7558,78.7779 56.1428,77.8458 57.205,76.894 57.8183,73.8337 58.2107,72.3198 58.6702,70.9658 59.3319,69.6275 59.8788,68.907 60.4733,68.3963 61.273,68.0216 62.205,67.894 97.205,67.8944 98.269,68.027 99.462,68.5503 100.147,69.123 100.833,69.6957 102.035,71.0159 103.412,72.4916 104.521,73.4739 105.939,74.4275 107.376,75.0972 109.19,75.6139 110.777,75.8363 112.958,75.8621 115.419,75.5721 117.082,75.0789 118.651,74.3237 119.687,73.6301 120.921,72.5667 122.874,70.4602 124.512,68.854 125.814,68.1275 127.205,67.8944 127.205,104.895 127.205,141.896 125.814,141.662 124.512,140.936 122.874,139.33 120.921,137.223 119.687,136.16 118.651,135.466 117.082,134.711 115.419,134.218 112.958,133.928 110.777,133.954 109.19,134.176 107.376,134.693 105.939,135.363 104.521,136.316 103.412,137.298 102.035,138.774 100.833,140.094 100.147,140.667 99.462,141.24 98.269,141.763 97.205,141.896 62.205,141.896 61.273,141.768 60.4733,141.394 59.8788,140.883 59.3319,140.162 58.6702,138.824 58.2107,137.47 57.8183,135.956 57.205,132.896 56.1428,131.944 54.7558,131.012 53.5589,130.46 52.2414,130.088 50.8352,129.917 49.705,129.896 48.5898,129.917 47.4435,130.038 46.0299,130.396 44.8135,130.926 43.6432,131.659 42.205,132.896 42.205,104.895 "/>
  <line class="fil0 str0" x1="42.205" y1="76.8944" x2="42.205" y2= "132.895" />
  <line class="fil0 str0" x1="57.205" y1="76.8944" x2="57.205" y2= "132.895" />
  <line class="fil0 str0" x1="62.205" y1="67.894" x2="62.205" y2= "141.896" />
  <line class="fil0 str0" x1="97.205" y1="67.894" x2="97.205" y2= "141.897" />
  <polygon class="fil1 str1" points="251.194,140.999 250.569,141.466 249.697,141.809 248.954,141.895 137.205,141.895 137.205,104.895 137.205,67.8948 248.954,67.895 249.697,67.9805 250.569,68.324 251.194,68.7905 251.686,69.3835 252.048,70.1469 252.205,71.1462 252.205,104.895 252.205,138.644 252.048,139.643 251.686,140.406 "/>
  <polygon class="fil1 str1" points="144.703,142.395 127.205,142.395 127.205,104.895 127.205,104.895 127.205,104.895 127.205,67.3947 144.703,67.3947 144.703,104.895 144.703,104.895 144.703,104.895 "/>
  <polygon class="fil2 str1" points="42.205,104.895 42.201,104.893 42.205,104.895 42.205,76.8944 42.0258,76.6679 41.6299,76.3319 41.1971,76.0949 40.6525,75.934 40.2202,75.8945 23.6418,75.8945 22.8776,75.9902 22.2519,76.3186 21.7476,76.7653 21.4109,77.2675 21.2055,77.8337 19.205,86.8944 19.205,104.895 19.2087,104.893 19.205,104.895 19.205,122.895 21.2055,131.956 21.4109,132.522 21.7476,133.025 22.2519,133.471 22.8776,133.8 23.6418,133.895 40.2202,133.895 40.6525,133.856 41.1971,133.695 41.6299,133.458 42.0258,133.122 42.205,132.895 "/>
  <polygon class="fil3 str1" points="170.812,154.895 170.812,156.189 169.827,156.386 169.07,156.503 168.123,156.62 167.209,156.689 166.205,156.71 165.201,156.689 164.287,156.62 163.341,156.503 162.583,156.386 161.599,156.189 161.599,154.895 "/>
  <circle id="center_00" class="fil0 str1" cx="230.205" cy="156.189" r="2.5925"/>
  <polygon class="fil3 str1" points="234.812,154.895 234.812,156.189 233.827,156.386 233.07,156.503 232.123,156.62 231.209,156.689 230.205,156.71 229.201,156.689 228.287,156.62 227.341,156.503 226.583,156.386 225.599,156.189 225.599,154.895 "/>
  <rect class="fil2 str1" x="34.2858" y="75.8945" width="5.9344" height="58.0006"/>
  <line class="fil0 str1" x1="62.205" y1="67.8944" x2="62.205" y2= "141.895" />
  <rect class="fil2 str1" x="157.205" y="146.895" width="18" height="8.0005"/>
  <rect class="fil2 str1" x="221.205" y="146.895" width="18" height="8.0005"/>
  <polygon class="fil2 str1" points="167.166,65.2956 164.857,89.2746 164.768,90.8314 164.776,91.0498 164.812,91.2728 164.908,91.5418 165.095,91.8328 165.294,92.0298 165.554,92.1968 165.839,92.3018 166.115,92.3418 166.991,92.3318 252.686,84.1765 253.525,84.1616 254.598,84.3297 255.427,84.6206 255.977,84.9074 256.579,85.3317 257.154,85.8927 257.397,86.1993 257.689,86.6849 257.702,86.6842 257.741,86.7698 257.782,86.838 257.777,86.8506 257.967,87.2769 258.144,87.9483 258.205,88.6525 258.205,90.8571 258.205,143.895 258.154,143.895 258.171,144.35 257.957,145.091 257.638,145.65 257.006,146.295 256.448,146.626 255.61,146.868 255.205,146.895 122.821,146.895 122.168,146.868 121.635,146.808 120.963,146.63 120.429,146.378 109.636,141.582 109.044,141.233 108.492,140.69 108.063,139.943 107.854,138.84 107.951,138.081 108.197,137.447 108.689,136.764 109.592,136.118 110.462,135.866 111.302,135.874 112.072,136.099 122.865,140.895 122.866,140.895 251.281,140.895 251.623,140.795 251.852,140.649 252.016,140.472 252.093,140.346 252.148,140.22 252.205,139.843 252.205,93.4398 252.205,91.8808 252.14,91.4798 251.961,91.0998 251.746,90.8395 251.452,90.6185 251.016,90.4516 250.609,90.4079 165.431,98.5066 163.986,98.6446 163.874,98.6116 163.884,98.6506 162.93,98.6416 162.226,98.5166 161.428,98.2406 160.626,97.7926 159.888,97.1726 159.383,96.5716 158.963,95.8686 158.696,95.2096 158.476,94.1426 158.453,93.1788 158.563,92.0378 161.214,64.5021 161.621,63.3423 162.258,62.5986 163.023,62.13 164.189,61.8951 165.499,62.1955 166.43,62.9008 167.024,63.9119 "/>
  <polygon class="fil2 str1" points="2.8005,95.6986 3.214,95.4766 3.705,95.3946 4.2565,95.4996 4.6483,95.7286 4.9051,95.9946 5.1244,96.4076 5.205,96.8946 5.205,104.895 5.205,112.895 5.1244,113.382 4.9051,113.795 4.6483,114.061 4.2565,114.29 3.705,114.395 3.214,114.313 2.8005,114.092 2.5012,113.79 2.3014,113.425 2.205,112.895 2.205,104.895 2.205,96.8946 2.3014,96.3646 2.5012,95.9996 "/>
  <polygon class="fil2 str1" points="17.205,86.8944 19.205,86.8944 19.205,104.895 19.204,104.893 19.205,104.895 19.205,122.895 17.205,122.895 15.505,113.395 15.505,104.895 15.505,96.3946 "/>
  <polygon class="fil2 str1" points="5.205,113.395 15.505,113.395 15.505,104.895 15.505,96.3946 5.205,96.3946 5.205,104.895 "/>
  <rect class="fil2 str1" x="33.3275" y="75.8945" width="0.9585" height="58.0006"/>
 </g>
</svg>
