<?xml version="1.0" encoding="UTF-8"?>
<!DOCTYPE svg PUBLIC "-//W3C//DTD SVG 1.1//EN" "http://www.w3.org/Graphics/SVG/1.1/DTD/svg11.dtd">
<!-- Creator: CorelDRAW -->
<svg xmlns="http://www.w3.org/2000/svg" xml:space="preserve" width="297mm" height="210mm" style="shape-rendering:geometricPrecision; text-rendering:geometricPrecision; image-rendering:optimizeQuality; fill-rule:evenodd; clip-rule:evenodd"
viewBox="0 0 297 210">
 <defs>
  <style type="text/css">
   <![CDATA[
    .str0 {stroke:#1F1A17;stroke-width:0.0762}
    .str1 {stroke:#DA251D;stroke-width:0.0762}
    .fil0 {fill:none}
    .fil1 {fill:#969594}
    .fil2 {fill:#AAA9A9}
    .fil3 {fill:#C2C1C1}
   ]]>
  </style>
 </defs>
 <g id="Ebene_x0020_1">
   <polygon id="_173178984" class="fil0 str0" points="245.47,80.3469 244.031,81.584 242.861,82.3167 241.645,82.847 240.231,83.2046 239.085,83.3258 237.97,83.3469 236.839,83.325 235.433,83.1547 234.116,82.7828 232.919,82.2304 231.532,81.2983 230.47,80.3465 229.856,77.2862 229.464,75.7723 229.005,74.4183 228.343,73.08 227.796,72.3595 227.201,71.8488 226.402,71.4741 225.47,71.3465 190.47,71.3469 189.406,71.4795 188.213,72.0028 187.528,72.5755 186.842,73.1482 185.64,74.4684 184.263,75.9441 183.154,76.9264 181.736,77.88 180.299,78.5497 178.485,79.0664 176.898,79.2888 174.717,79.3146 172.256,79.0246 170.593,78.5314 169.024,77.7762 167.988,77.0826 166.754,76.0192 164.801,73.9127 163.163,72.3065 161.861,71.58 160.47,71.3469 160.47,108.347 160.47,145.348 161.861,145.114 163.163,144.388 164.801,142.782 166.754,140.675 167.988,139.612 169.024,138.918 170.593,138.163 172.256,137.67 174.717,137.38 176.898,137.406 178.485,137.628 180.299,138.145 181.736,138.815 183.154,139.768 184.263,140.75 185.64,142.226 186.842,143.546 187.528,144.119 188.213,144.692 189.406,145.215 190.47,145.348 225.47,145.348 226.402,145.22 227.201,144.846 227.796,144.335 228.343,143.614 229.005,142.276 229.464,140.922 229.856,139.408 230.47,136.348 231.532,135.396 232.919,134.464 234.116,133.912 235.433,133.54 236.839,133.369 237.97,133.348 239.085,133.369 240.231,133.49 241.645,133.848 242.861,134.378 244.031,135.111 245.47,136.348 245.47,108.347 "/>
   <line id="_173187088" class="fil0 str0" x1="245.47" y1="80.3469" x2="245.47" y2= "136.347" />
   <line id="_173193784" class="fil0 str0" x1="230.47" y1="80.3469" x2="230.47" y2= "136.347" />
   <line id="_173195712" class="fil0 str0" x1="225.47" y1="71.3465" x2="225.47" y2= "145.348" />
   <line id="_173197632" class="fil0 str0" x1="190.47" y1="71.3465" x2="190.47" y2= "145.349" />
   <polygon id="_173197072" class="fil1 str1" points="36.4807,144.451 37.1057,144.918 37.9777,145.261 38.7207,145.347 150.47,145.347 150.47,108.347 150.47,71.3473 38.7207,71.3475 37.9777,71.433 37.1057,71.7765 36.4807,72.243 35.9887,72.836 35.6267,73.5994 35.4697,74.5987 35.4697,108.347 35.4697,142.096 35.6267,143.095 35.9887,143.858 "/>
   <polygon id="_173198168" class="fil1 str1" points="142.972,145.847 160.47,145.847 160.47,108.347 160.47,108.347 160.47,108.347 160.47,70.8472 142.972,70.8472 142.972,108.347 142.972,108.347 142.972,108.347 "/>
   <polygon id="_173191320" class="fil2 str1" points="245.47,108.347 245.474,108.345 245.47,108.347 245.47,80.3469 245.649,80.1204 246.045,79.7844 246.478,79.5474 247.022,79.3865 247.455,79.347 264.033,79.347 264.797,79.4427 265.423,79.7711 265.927,80.2178 266.264,80.72 266.469,81.2862 268.47,90.3469 268.47,108.347 268.466,108.345 268.47,108.347 268.47,126.347 266.469,135.408 266.264,135.974 265.927,136.477 265.423,136.923 264.797,137.252 264.033,137.347 247.455,137.347 247.022,137.308 246.478,137.147 246.045,136.91 245.649,136.574 245.47,136.347 "/>
   <line id="_173206392" class="fil0 str1" x1="150.887" y1="154.347" x2="132.053" y2= "154.347" />
   <circle id="_173206808" class="fil0 str1" cx="141.47" cy="154.347" r="2.5925"/>
   <line id="_173206344" class="fil0 str1" x1="132.053" y1="153.641" x2="141.47" y2= "153.646" />
   <polygon id="_173205784" class="fil3 str1" points="141.463,158.8 141.477,158.8 141.576,158.782 141.694,158.734 141.787,158.647 141.829,158.546 141.834,158.497 141.84,158.444 141.86,158.368 141.888,158.29 141.931,158.183 141.987,158.066 142.066,157.921 142.422,157.396 143.059,156.714 143.849,156.096 144.746,155.574 145.712,155.157 146.86,154.803 148.209,154.534 149.529,154.393 150.887,154.347 150.887,153.641 132.053,153.641 132.053,154.347 133.411,154.393 134.731,154.534 136.08,154.803 137.228,155.157 138.194,155.574 139.091,156.096 139.881,156.714 140.518,157.396 140.874,157.921 140.953,158.066 141.009,158.183 141.052,158.29 141.08,158.368 141.1,158.444 141.106,158.497 141.111,158.546 141.153,158.647 141.246,158.734 141.364,158.782 "/>
   <polygon id="_173211792" class="fil3 str1" points="136.863,152.347 136.863,153.641 137.848,153.838 138.605,153.955 139.552,154.072 140.466,154.141 141.47,154.162 142.474,154.141 143.388,154.072 144.334,153.955 145.092,153.838 146.076,153.641 146.076,152.347 "/>
   <line id="_173217416" class="fil0 str1" x1="86.8867" y1="154.347" x2="68.0527" y2= "154.347" />
   <circle id="center_00" class="fil0 str1" cx="77.4697" cy="154.347" r="2.5925"/>
   <line id="_173229288" class="fil0 str1" x1="68.0527" y1="153.641" x2="77.4697" y2= "153.646" />
   <polygon id="_173226616" class="fil3 str1" points="77.4627,158.8 77.4767,158.8 77.5757,158.782 77.6937,158.734 77.7857,158.647 77.8287,158.546 77.8337,158.497 77.8397,158.444 77.8597,158.368 77.8877,158.29 77.9307,158.183 77.9867,158.066 78.0657,157.921 78.4217,157.396 79.0587,156.714 79.8477,156.096 80.7457,155.574 81.7117,155.157 82.8597,154.803 84.2087,154.534 85.5287,154.393 86.8867,154.347 86.8867,153.641 68.0527,153.641 68.0527,154.347 69.4107,154.393 70.7307,154.534 72.0797,154.803 73.2277,155.157 74.1937,155.574 75.0907,156.096 75.8807,156.714 76.5177,157.396 76.8737,157.921 76.9527,158.066 77.0087,158.183 77.0517,158.29 77.0797,158.368 77.0997,158.444 77.1057,158.497 77.1107,158.546 77.1527,158.647 77.2457,158.734 77.3637,158.782 "/>
   <polygon id="_173224688" class="fil3 str1" points="72.8627,152.347 72.8627,153.641 73.8477,153.838 74.6047,153.955 75.5517,154.072 76.4657,154.141 77.4697,154.162 78.4737,154.141 79.3877,154.072 80.3337,153.955 81.0917,153.838 82.0757,153.641 82.0757,152.347 "/>
   <rect id="_143984488" class="fil2 str1" x="247.455" y="79.347" width="5.9344" height="58.0006"/>
   <line id="_173220872" class="fil0 str1" x1="225.47" y1="71.3469" x2="225.47" y2= "145.347" />
   <rect id="_172769952" class="fil2 str1" x="132.47" y="150.347" width="18" height="2.0001"/>
   <rect id="_172772688" class="fil2 str1" x="68.4697" y="150.347" width="18" height="2.0001"/>
   <polygon id="_172772792" class="fil2 str1" points="120.509,68.7481 122.818,92.7271 122.907,94.2839 122.899,94.5023 122.863,94.7253 122.767,94.9943 122.58,95.2853 122.381,95.4823 122.121,95.6493 121.836,95.7543 121.56,95.7943 120.684,95.7843 34.9887,87.629 34.1497,87.6141 33.0767,87.7822 32.2477,88.0731 31.6977,88.3599 31.0957,88.7842 30.5207,89.3452 30.2777,89.6518 29.9857,90.1374 29.9727,90.1367 29.9337,90.2223 29.8927,90.2905 29.8977,90.3031 29.7077,90.7294 29.5307,91.4008 29.4697,92.105 29.4697,94.3096 29.4697,147.347 29.5207,147.347 29.5037,147.802 29.7177,148.543 30.0367,149.102 30.6687,149.747 31.2267,150.078 32.0647,150.32 32.4697,150.347 164.854,150.347 165.507,150.32 166.04,150.26 166.712,150.082 167.246,149.83 178.039,145.034 178.631,144.685 179.183,144.142 179.612,143.395 179.821,142.292 179.724,141.533 179.478,140.899 178.986,140.216 178.083,139.57 177.213,139.318 176.373,139.326 175.603,139.551 164.81,144.347 164.809,144.347 36.3937,144.347 36.0517,144.247 35.8227,144.101 35.6587,143.924 35.5817,143.798 35.5267,143.672 35.4697,143.295 35.4697,96.8923 35.4697,95.3333 35.5347,94.9323 35.7137,94.5523 35.9287,94.292 36.2227,94.071 36.6587,93.9041 37.0657,93.8604 122.244,101.959 123.689,102.097 123.801,102.064 123.791,102.103 124.745,102.094 125.449,101.969 126.247,101.693 127.049,101.245 127.787,100.625 128.292,100.024 128.712,99.3211 128.979,98.6621 129.199,97.5951 129.222,96.6313 129.112,95.4903 126.461,67.9546 126.054,66.7948 125.417,66.0511 124.652,65.5825 123.486,65.3476 122.176,65.648 121.245,66.3533 120.651,67.3644 "/>
   <polygon id="_172780408" class="fil2 str1" points="284.874,99.1511 284.461,98.9291 283.97,98.8471 283.418,98.9521 283.026,99.1811 282.77,99.4471 282.55,99.8601 282.47,100.347 282.47,108.347 282.47,116.347 282.55,116.834 282.77,117.247 283.026,117.513 283.418,117.742 283.97,117.847 284.461,117.765 284.874,117.544 285.173,117.242 285.373,116.877 285.47,116.347 285.47,108.347 285.47,100.347 285.373,99.8171 285.173,99.4521 "/>
   <polygon id="_172781120" class="fil2 str1" points="270.47,90.3469 268.47,90.3469 268.47,108.347 268.471,108.345 268.47,108.347 268.47,126.347 270.47,126.347 272.17,116.847 272.17,108.347 272.17,99.8471 "/>
   <polygon id="_172795104" class="fil2 str1" points="282.47,116.847 272.17,116.847 272.17,108.347 272.17,99.8471 282.47,99.8471 282.47,108.347 "/>
   <rect id="_172797920" class="fil2 str1" x="253.389" y="79.347" width="0.9585" height="58.0006"/>
 </g>
</svg>
