<?xml version="1.0" encoding="UTF-8"?>
<!DOCTYPE svg PUBLIC "-//W3C//DTD SVG 1.1//EN" "http://www.w3.org/Graphics/SVG/1.1/DTD/svg11.dtd">
<!-- Creator: CorelDRAW -->
<svg xmlns="http://www.w3.org/2000/svg" xml:space="preserve" width="210mm" height="297mm" style="shape-rendering:geometricPrecision; text-rendering:geometricPrecision; image-rendering:optimizeQuality; fill-rule:evenodd; clip-rule:evenodd"
viewBox="0 0 210 297">
 <defs>
  <style type="text/css">
   <![CDATA[
    .str1 {stroke:#DA251D;stroke-width:0.0762}
    .str0 {stroke:#DA2725;stroke-width:0.0762}
    .fil1 {fill:none}
    .fil3 {fill:#72706F}
    .fil5 {fill:#969594}
    .fil0 {fill:#AAA9A9}
    .fil2 {fill:#C2C1C1}
    .fil4 {fill:#DEDEDD}
    .fil6 {fill:white}
   ]]>
  </style>
 </defs>
 <g id="Ebene_x0020_1">
  <metadata id="CorelCorpID_0Corel-Layer"/>
  <polygon class="fil0 str0" points="60.036,240.124 67.5912,238.464 74.6289,237.394 80.1521,236.57 78.1012,242.986 73.4603,239.81 59.6722,241.722 73.4603,239.81 79.5118,243.951 81.5677,236.447 86.5249,235.805 88.0661,238.497 106.15,236.945 108.422,237.526 106.15,236.945 88.0661,238.497 87.207,235.716 96.9606,234.754 108.391,234.209 110.188,234.703 111.052,236.188 111.032,236.817 110.855,242.354 110.06,243.616 108.66,244.161 102.025,244.677 100.356,245.554 99.4701,246.833 98.5898,248.744 96.4347,248.373 91.1087,249.297 96.4347,248.373 98.5898,248.744 98.0501,250.479 97.3483,253.687 95.689,255.12 90.9059,256.019 89.2296,255.676 87.7547,254.983 77.7582,248.885 75.5556,248.385 73.0701,248.417 63.2769,249.385 61.4351,249.03 60.1815,247.543 58.5993,243.128 58.6608,241.443 "/>
  <polyline class="fil1 str1" points="85.8628,69.1689 87.1261,99.8669 87.4506,132.669 87.4526,139.534 91.0249,139.644 91.0173,133.006 90.6449,99.6681 89.5975,72.2232 "/>
  <polygon class="fil2 str1" points="92.8748,158.099 92.8913,154.854 82.8947,154.854 95.3941,154.854 95.3906,150.496 91.4212,148.801 86.7346,148.838 91.4212,148.801 94.0754,144.953 84.6301,144.947 94.0754,144.953 92.4906,138.229 85.7881,138.225 84.217,144.914 86.7346,148.838 82.8945,150.496 82.8947,154.854 85.6009,154.854 85.5501,158.122 "/>
  <polygon class="fil3 str1" points="96.0842,150.905 82.3859,150.905 81.1695,151.814 81.1852,153.213 82.3222,154.041 96.1306,154.041 97.3793,152.948 97.3691,151.805 "/>
  <polygon class="fil0 str1" points="84.2768,156.633 94.6717,156.933 96.3779,176.917 96.2964,202.944 88.7246,202.921 88.7966,198.517 89.0434,182.509 88.0765,167.637 86.7438,164.857 84.1641,161.298 84.2498,157.754 86.7241,161.021 88.006,165.943 86.6846,160.869 84.2498,157.754 "/>
  <polygon class="fil2 str1" points="97.5121,189.844 100.534,189.854 100.489,204.102 100.534,189.854 103.124,190.959 105.987,190.968 108.854,189.88 108.809,204.128 108.854,189.88 111.762,189.889 111.72,202.993 111.734,190.987 115.019,190.997 114.981,203.003 111.72,202.993 111.717,204.137 108.809,204.128 105.795,202.974 102.86,202.965 100.489,204.102 99.4349,204.099 99.4413,194.534 98.9525,193.866 98.0974,193.783 97.4979,194.438 97.4469,210.668 97.4814,199.535 96.9257,198.873 95.964,198.859 95.4824,199.512 95.5169,211.816 99.4301,211.913 99.4413,194.534 98.9525,193.866 97.5001,193.731 97.5088,190.942 96.3341,190.938 96.3092,198.864 96.9255,198.873 97.4814,199.535 97.5001,193.731 97.5088,190.942 "/>
  <polygon class="fil0 str1" points="78.2303,191.779 80.9696,190.575 84.2203,189.802 88.0318,189.814 87.9068,191.234 92.8736,191.471 92.7053,195.302 94.6542,202.825 99.3652,211.941 102.932,216.418 103.312,219.403 102.128,222.324 98.2313,224.688 96.8757,226.892 90.6966,252.294 89.5141,254.326 86.9769,255.308 81.1201,255.227 78.4283,253.947 76.2881,249.521 75.9746,246.638 79.63,232.272 80.6704,230.904 85.534,227.591 86.4658,225.614 86.9516,222.861 84.7213,216.785 80.902,208.288 76.4762,200.636 76.5493,192.958 "/>
  <polygon class="fil4 str1" points="85.6364,233.378 88.2628,233.838 89.2993,235.48 83.2993,236.197 89.2993,235.48 89.4275,235.683 86.2957,250.069 84.5924,251.337 81.3546,250.666 81.034,249.983 81.0342,249.983 82.9736,251.001 81.0342,249.983 80.531,248.913 83.6174,234.735 "/>
  <polyline class="fil1 str1" points="87.882,209.905 89.476,217.85 87.8821,209.905 87.3491,207.248 86.0857,202.912 84.5911,199.535 82.4876,196.568 84.5912,199.535 86.0493,202.787 87.349,207.248 87.882,209.905 "/>
  <polygon class="fil5 str1" points="75.6198,194.963 76.5493,192.958 76.525,200.72 75.608,198.673 "/>
  <polygon class="fil1 str1" points="79.6311,201.227 82.2345,200.934 84.5843,201.949 81.7465,198.604 81.3651,195.205 81.7465,198.604 84.5843,201.949 82.2345,200.934 "/>
  <circle class="fil3 str1" cx="97.8725" cy="218.36" r="1.6194"/>
  <circle class="fil0 str1" cx="85" cy="242" r="6.5"/>
  <circle class="fil0 str1" cx="85" cy="242" r="4"/>
  <circle class="fil6 str1" cx="85.0215" cy="242" r="1.49996"/>
  <circle class="fil1 str1" cx="115.002" cy="197" r="15" id="center_00"/>
 </g>
</svg>
