<?xml version="1.0" encoding="UTF-8"?>
<!DOCTYPE svg PUBLIC "-//W3C//DTD SVG 1.1//EN" "http://www.w3.org/Graphics/SVG/1.1/DTD/svg11.dtd">
<!-- Creator: CorelDRAW -->
<svg xmlns="http://www.w3.org/2000/svg" xml:space="preserve" width="210mm" height="297mm" style="shape-rendering:geometricPrecision; text-rendering:geometricPrecision; image-rendering:optimizeQuality; fill-rule:evenodd; clip-rule:evenodd"
viewBox="0 0 210 297">
 <defs>
  <style type="text/css">
   <![CDATA[
    .str1 {stroke:#1F1A17;stroke-width:0.0762}
    .str0 {stroke:#1F1A17;stroke-width:0.0762}
    .fil0 {fill:none}
   ]]>
  </style>
 </defs>
 <g id="Ebene_x0020_1">
   <metadata id="CorelCorpID_0Corel-Layer"/>
   <polygon id="_131315704" class="fil0 str0" points="122.836,238.735 120.421,219.068 119.713,215.95 118.716,212.433 117.021,209.335 115.12,206.548 113.478,203.248 115.12,206.548 117.021,209.335 118.716,212.433 119.608,212.324 118.024,199.42 117.223,199.519 116.224,201.653 115.893,204.033 115.786,205.812 116.051,207.912 115.786,205.812 115.893,204.033 116.224,201.653 117.223,199.519 117.223,197 101.171,197 115.521,197 115.521,189.602 84.8543,189.602 84.8543,197 98.8273,197 83.4968,197 83.4968,226.046 83.4968,220.573 84.4144,216.258 86.006,211.261 87.4036,207.418 88.004,204.318 87.4036,207.418 86.006,211.261 84.4144,216.258 83.4968,220.573 83.4968,226.046 85.5688,242.572 88.7229,242.786 91.0567,243.049 93.7348,243.759 96.4425,245.409 98.9285,247.298 100.947,249.135 102.92,251.658 104.317,254.231 105.636,257.415 106.372,258.269 107.32,258.153 107.821,257.251 108.096,253.732 109.195,250.099 111.163,246.466 113.907,243.118 116.372,241.127 120.046,239.225 "/>
   <polygon id="_131328184" class="fil0 str0" points="103.989,248.409 101.784,245.89 99.2516,244.01 96.2432,242.509 95.2767,241.836 94.8873,241.157 94.8318,239.833 95.2957,239.018 96.4866,238.406 104.082,237.336 111.885,236.538 113.335,236.601 114.054,237.337 114.252,238.207 114.039,239.258 113.208,240.314 110.537,242.752 108.449,245.404 107.058,248.185 106.5,249.201 106.028,249.524 105.243,249.602 104.508,249.116 "/>
   <circle id="center_00" class="fil0 str0" cx="100" cy="197" r="8.3016"/>
  </g>
</svg>
