<!DOCTYPE svg PUBLIC "-//W3C//DTD SVG 1.1//EN" "http://www.w3.org/Graphics/SVG/1.1/DTD/svg11.dtd">
<svg xmlns="http://www.w3.org/2000/svg" width="297mm" height="210mm" viewBox="0 0 297 210">
    <defs id="_tag_10_"/>
    <g id="_tag_11_">
        <g id="_tag_12_">
            <polygon id="_190333512_1" class="fil0 str0" points="227.612,479.457 228.18909570312502,480.0986705078125 228.832484375,480.6738828125 229.53628085937498,481.1767505859375 230.2946,481.6013875 231.101556640625,481.94190722656253 231.95126562500002,482.1924234375 232.837841796875,482.3470498046875 233.7554,482.3999 233.7554,482.3999 235.344137890625,482.239687109375 236.823996875,481.78020312499996 238.163244921875,481.053180078125 239.33015,480.09035 240.29298007812503,478.923444921875 241.020003125,477.584196875 241.47948710937501,476.104337890625 241.6397,474.5156 241.6397,474.5156 241.639251171875,474.430987109375 241.63790937500002,474.34657812499995 241.63568164062502,474.26238007812503 241.63257500000003,474.1784 241.628596484375,474.094644921875 241.623753125,474.011121875 241.61805195312502,473.927837890625 241.6115,473.8448 240.78130000000002,461.9438 239.53140000000002,444.03110000000004 207.82210000000003,456.52130000000005 227.61180000000004,479.45700000000005" fill="none" stroke="black" stroke-width="0.1"/>
            <g id="_224007272_1">
                <polyline id="_224007272___0" class="fil0 str0" points="229.476,478.274 225.9373,474.8073 222.1011,470.9923" fill="none" stroke="black" stroke-width="0.1"/>
                <polygon id="_224007272___1" class="fil0 str0" points="229.476,478.274" fill="none" stroke="black" stroke-width="0.1"/>
            </g>
            <g id="_224007920_1">
                <polyline id="_224007920___0" class="fil0 str0" points="239.676,463.987 239.53,469.36600000000004 239.4675,474.74500000000006" fill="none" stroke="black" stroke-width="0.1"/>
                <polygon id="_224007920___1" class="fil0 str0" points="239.676,463.9870000000001" fill="none" stroke="black" stroke-width="0.1"/>
            </g>
            <g id="_224010224_1">
                <polyline id="_224010224___0" class="fil0 str0" points="239.676,463.987 239.7594,464.154 239.9678,464.154 240.1972,463.924 240.4265,463.48699999999997 240.7184,462.52799999999996 240.7809,461.94399999999996" fill="none" stroke="black" stroke-width="0.1"/>
                <polygon id="_224010224___1" class="fil0 str0" points="239.67600000000002,463.98699999999997" fill="none" stroke="black" stroke-width="0.1"/>
            </g>
            <g id="_224011160_1">
                <polyline id="_224011160___0" class="fil0 str0" points="219.682,470.179 220.32829999999998,470.7 221.2874,471.20099999999996 221.6626,471.284 221.9545,471.347 222.1004,471.20099999999996 222.1004,470.99199999999996" fill="none" stroke="black" stroke-width="0.1"/>
                <polygon id="_224011160___1" class="fil0 str0" points="219.68200000000002,470.179" fill="none" stroke="black" stroke-width="0.1"/>
            </g>
            <line id="_224011688" x1="239.468" y1="474.745" x2="241.611" y2="473.845" stroke="black" stroke-width="0.1"/>
            <line id="_224011448" x1="227.626" y1="479.436" x2="229.787" y2="478.579" stroke="black" stroke-width="0.1"/>
            <polygon id="_190332168" points="233.16869504,453.27100096 233.29689939598978,453.6888115666529 233.34880581290747,454.13287531521615 233.32384559318717,454.59832695033435 233.22229220621944,455.08006688649095 233.04525829216328,455.57281708013494 232.79468347162785,456.0711788570302 232.47331309478304,456.56969206126 232.0846681627287,457.06289487783835 231.63300675066952,457.54538367349744 231.12327735555232,458.01187220002475 230.5610646792977,458.4572495115047 229.95252844163727,458.87663596091147 229.30433589293523,459.2654366625431 228.6235887663982,459.6193918345507 227.91774547,459.93462346999996 227.19453937060317,460.20767782512644 226.4618940655733,460.435563259275 225.7278365701882,460.615783011941 225.0004093719787,460.746362557801 224.2875823155523,460.82587124002475 223.5971652833079,460.8534379448518 222.9367226287298,460.82876064569524 222.31349029974805,460.7521097122087 221.73429656017876,460.6243249480597 221.20548717783672,460.446806389865 220.73285589897532,460.2214989680962 220.32158097079025,459.95087119801497 219.9761684074595,459.63788813410264 219.70040262130917,459.28597888430346 219.49730496,458.89899904 219.3691006040102,458.4811884333471 219.31719418709253,458.0371246847838 219.34215440681282,457.5716730496656 219.44370779378056,457.089933113509 219.62074170783671,456.597182919865 219.87131652837215,456.09882114296977 220.19268690521696,455.60030793873995 220.5813318372713,455.1071051221616 221.03299324933047,454.6246163265025 221.54272264444768,454.1581277999752 222.1049353207023,453.71275048849526 222.71347155836273,453.2933640390885 223.36166410706477,452.90456333745686 224.0424112336018,452.55060816544926 224.74825453,452.23537653 225.47146062939683,451.9623221748735 226.2041059344267,451.73443674072496 226.9381634298118,451.55421698805895 227.6655906280213,451.423637442199 228.37841768444767,451.3441287599752 229.0688347166921,451.31656205514815 229.7292773712702,451.3412393543047 230.35250970025191,451.41789028779124 230.93170343982123,451.54567505194024 231.46051282216328,451.72319361013496 231.93314410102468,451.94850103190373 232.34441902920975,452.219128801985 232.6898315925405,452.5321118658973 232.96559737869083,452.8840211156965" fill="none" stroke="black" stroke-width="0.1"/>
            <polygon id="_190332720" cx="233.755" cy="474.516" points="239.4343,474.516 239.40318820036504,475.109648501436 239.3101936688475,475.69679286566134 239.15633527299505,476.27100021615365 238.9432987175896,476.8259794170204 238.67341807571296,477.35565 238.34965021615363,477.8542087833447 237.97554240733376,478.3161934526939 237.55519345269386,478.7365424073338 237.09320878334464,479.11065021615366 236.59465,479.434418075713 236.0649794170204,479.70429871758967 235.51000021615363,479.9173352729951 234.93579286566128,480.0711936688475 234.34864850143597,480.16418820036506 233.755,480.19530000000003 233.16135149856402,480.16418820036506 232.5742071343387,480.0711936688475 231.99999978384636,479.9173352729951 231.4450205829796,479.70429871758967 230.91535,479.434418075713 230.41679121665535,479.11065021615366 229.95480654730613,478.7365424073338 229.53445759266623,478.3161934526939 229.16034978384636,477.8542087833447 228.83658192428703,477.35565 228.56670128241038,476.8259794170204 228.35366472700494,476.27100021615365 228.1998063311525,475.69679286566134 228.10681179963495,475.109648501436 228.07569999999998,474.516 228.10681179963495,473.922351498564 228.1998063311525,473.3352071343387 228.35366472700494,472.7609997838464 228.56670128241038,472.20602058297965 228.83658192428703,471.67635 229.16034978384636,471.17779121665535 229.53445759266623,470.71580654730616 229.95480654730613,470.29545759266625 230.41679121665535,469.9213497838464 230.91535,469.59758192428706 231.4450205829796,469.3277012824104 231.99999978384636,469.11466472700494 232.57420713433868,468.9608063311525 233.16135149856402,468.867811799635 233.755,468.8367 234.34864850143597,468.867811799635 234.93579286566128,468.9608063311525 235.51000021615363,469.11466472700494 236.0649794170204,469.3277012824104 236.59465,469.59758192428706 237.09320878334464,469.9213497838464 237.55519345269386,470.29545759266625 237.97554240733376,470.71580654730616 238.34965021615363,471.17779121665535 238.67341807571296,471.67635 238.9432987175896,472.20602058297965 239.15633527299505,472.7609997838464 239.3101936688475,473.3352071343387 239.40318820036504,473.922351498564" fill="none" stroke="black" stroke-width="0.1"/>
            <line id="_190332696" x1="208.346" y1="457.216" x2="239.592" y2="444.908" stroke="black" stroke-width="0.1"/>
            <polygon id="_190332600" cx="233.755" cy="474.516" points="236.9754,474.516 236.95775831184397,474.8526234631072 236.90502653340315,475.1855588091095 236.8177824050769,475.5111583286851 236.69698179179224,475.8258546853613 236.5439482103474,476.12620000000004 236.36035832868507,476.4089036264827 236.1482235959674,476.6708682047181 235.90986820471807,476.90922359596743 235.64790362648267,477.1213583286851 235.3652,477.30494821034745 235.0648546853613,477.45798179179224 234.75015832868507,477.57878240507694 234.4245588091095,477.66602653340317 234.09162346310714,477.718758311844 233.755,477.7364 233.41837653689285,477.718758311844 233.0854411908905,477.66602653340317 232.75984167131492,477.57878240507694 232.4451453146387,477.45798179179224 232.1448,477.30494821034745 231.86209637351732,477.1213583286851 231.60013179528192,476.90922359596743 231.36177640403258,476.6708682047181 231.14964167131492,476.4089036264827 230.9660517896526,476.12620000000004 230.81301820820775,475.8258546853613 230.69221759492308,475.5111583286851 230.60497346659685,475.1855588091095 230.55224168815602,474.8526234631072 230.53459999999998,474.516 230.55224168815602,474.17937653689285 230.60497346659685,473.8464411908905 230.69221759492308,473.52084167131494 230.81301820820775,473.2061453146387 230.9660517896526,472.9058 231.14964167131492,472.62309637351734 231.36177640403258,472.36113179528195 231.60013179528192,472.1227764040326 231.86209637351732,471.9106416713149 232.1448,471.7270517896526 232.4451453146387,471.5740182082078 232.75984167131492,471.4532175949231 233.0854411908905,471.36597346659687 233.41837653689285,471.31324168815604 233.755,471.29560000000004 234.09162346310714,471.31324168815604 234.4245588091095,471.36597346659687 234.75015832868507,471.4532175949231 235.0648546853613,471.5740182082078 235.3652,471.7270517896526 235.64790362648267,471.9106416713149 235.90986820471807,472.1227764040326 236.1482235959674,472.36113179528195 236.36035832868507,472.62309637351734 236.5439482103474,472.9058 236.69698179179224,473.2061453146387 236.8177824050769,473.52084167131494 236.90502653340315,473.8464411908905 236.95775831184397,474.17937653689285" fill="none" stroke="black" stroke-width="0.1"/>
            <line id="_190332384" x1="222.101" y1="470.992" x2="220.742" y2="469.347" stroke="black" stroke-width="0.1"/>
            <line id="_190332432" x1="239.676" y1="463.987" x2="239.429" y2="462.227" stroke="black" stroke-width="0.1"/>
        </g>
        <polyline id="simplify_SVG__000009" points="248.562,455.253 248.562,455.253 245.557,424.255" fill="none" stroke="black" stroke-width="0.1"/>
        <polygon id="center_00" cx="233.755" cy="474.516" points="235.15109999999999,474.516 235.14345201812364,474.66193218756797 235.12059186538445,474.8062655115507 235.08277000239966,474.94741862584686 235.03040081341484,475.0838450273981 234.96405806622346,475.21405000000004 234.88446862584686,475.33660699072556 234.79250449084898,475.4501732395376 234.6891732395376,475.55350449084904 234.5756069907255,475.6454686258469 234.45305,475.7250580662235 234.32284502739813,475.79140081341484 234.18641862584687,475.8437700023997 234.04526551155067,475.8815918653845 233.90093218756797,475.90445201812366 233.755,475.9121 233.60906781243202,475.90445201812366 233.46473448844932,475.8815918653845 233.32358137415312,475.8437700023997 233.18715497260186,475.79140081341484 233.05695,475.7250580662235 232.9343930092745,475.6454686258469 232.82082676046238,475.55350449084904 232.717495509151,475.4501732395376 232.62553137415313,475.33660699072556 232.54594193377653,475.21405000000004 232.47959918658515,475.0838450273981 232.42722999760034,474.94741862584686 232.38940813461554,474.8062655115507 232.36654798187635,474.66193218756797 232.3589,474.516 232.36654798187635,474.37006781243207 232.38940813461554,474.22573448844935 232.42722999760034,474.0845813741532 232.47959918658515,473.9481549726019 232.54594193377653,473.81795 232.62553137415313,473.6953930092745 232.717495509151,473.58182676046243 232.82082676046238,473.478495509151 232.9343930092745,473.38653137415315 233.05695,473.30694193377656 233.18715497260186,473.2405991865852 233.32358137415312,473.18822999760033 233.46473448844932,473.15040813461553 233.60906781243202,473.1275479818764 233.755,473.11990000000003 233.90093218756797,473.1275479818764 234.04526551155067,473.15040813461553 234.18641862584687,473.18822999760033 234.32284502739813,473.2405991865852 234.45305,473.30694193377656 234.5756069907255,473.38653137415315 234.6891732395376,473.478495509151 234.79250449084898,473.58182676046243 234.88446862584686,473.6953930092745 234.96405806622346,473.81795 235.03040081341484,473.9481549726019 235.08277000239966,474.0845813741532 235.12059186538445,474.22573448844935 235.14345201812364,474.37006781243207" fill="none" stroke="black" stroke-width="0.1"/>
        <polygon class="fil2 str0" id="simplify_5_1" points="234.974,384.005 309.77279999999996,114.85000000000002 316.16939999999994,112.09560000000002 320.67069999999995,114.85000000000002 245.09129999999993,386.814 245.08269999999993,386.8176 245.09159999999994,386.8201 244.65635058593745,388.4950787109375 244.27568593749993,390.19132343750005 243.95066894531246,391.9078720703125 243.68236249999995,393.64376250000004 243.47182949218745,395.39803261718754 243.32013281249993,397.1697203125 243.22833535156244,398.9578634765625 243.19749999999993,400.7615 243.19749999999993,400.7615 243.20007050781243,401.27400175781247 243.20773281249993,401.7852765625 243.22041308593742,402.2953162109375 243.23803749999996,402.8041125 243.26053222656245,403.3116572265625 243.28782343749992,403.8179421875 243.3198373046874,404.3229591796875 243.35649999999993,404.8267 249.67819999999992,461.1519 239.42929999999993,462.2274 232.90309999999994,405.8299 232.85570683593744,405.20209218750006 232.81431718749994,404.57260625 232.77902832031245,403.94146093750004 232.74993749999993,403.308675 232.72714199218743,402.67426718750005 232.71073906249995,402.03825625 232.70082597656244,401.4006609375 232.69749999999993,400.7615 232.69749999999993,400.7615 232.73455781249993,398.593691796875 232.84488124999996,396.444490625 233.0271953124999,394.315056640625 233.28022499999994,392.20655 233.60269531249995,390.120130859375 233.99333124999993,388.056959375 234.45085781249992,386.018195703125 234.97399999999993,384.005" fill="none" stroke="black" stroke-width="0.1"/>
        <g id="simplify_6_1">
            <polygon class="fil3 str0" id="simplify_6___0" points="391.979,104.349 393.03691601562497,104.455681640625 394.022328125,104.761640625 394.914107421875,105.245748046875 395.691125,105.886875 396.332251953125,106.663892578125 396.816359375,107.555671875 397.122318359375,108.541083984375 397.229,109.599 397.229,109.599 397.122318359375,110.65691171875001 396.816359375,111.6423125 396.332251953125,112.53407578125001 395.691125,113.311075 394.914107421875,113.95218359375001 394.022328125,114.43627500000001 393.03691601562497,114.74222265625 391.979,114.8489 391.979,114.849 107.726,114.8491 101.3785369140625,115.4891896484375 95.4660890625,117.3249421875 90.11543105468749,120.22958300781251 85.4533375,124.07633750000002 81.6065830078125,128.7384310546875 78.70194218750001,134.08908906250002 76.8661896484375,140.0015369140625 76.2261,146.34900000000002 76.2261,146.34900000000002 76.2623947265625,147.86542285156253 76.36977656250001,149.3575140625 76.5459919921875,150.8257951171875 76.78878750000001,152.2707875 77.09590957031251,153.69301269531252 77.4651046875,155.0929921875 77.8941193359375,156.47124746093752 78.3807,157.8283 170.8886,399.5283 171.51283261718748,401.08194003906254 172.18499843749998,402.61045156250003 172.9041869140625,404.1128841796875 173.6694875,405.58828750000004 174.47998964843748,407.03571113281254 175.3347828125,408.4542046875 176.2329564453125,409.84281777343745 177.1736,411.2006 177.17319999999998,411.2024 220.74229999999997,469.3471 212.33959999999996,475.6434 170.09839999999997,419.2711 169.92897011718748,419.0521330078125 169.76050468749997,418.8324078124999 169.59300253906247,418.61192558593746 169.42646249999996,418.3906875 169.2608833984375,418.1686947265625 169.09626406249998,417.94594843749996 168.93260332031247,417.7224498046875 168.76989999999998,417.4982 168.76739999999998,417.4949 168.76749999999998,417.4949 167.61511113281247,415.84354101562496 166.5151390625,414.153953125 165.4687380859375,412.427319921875 164.4770625,410.66482499999995 163.54126660156248,408.86765195312495 162.6625046875,407.036984375 161.8419310546875,405.1740058593749 161.08069999999998,403.2799 68.57449999999997,161.5799 67.92417109374998,159.78997988281253 67.35369374999996,157.9633390625 66.86518203124997,156.1020693359375 66.46074999999996,154.2082625 66.14251171874997,152.28401035156253 65.91258124999996,150.3314046875 65.77307265624998,148.35253730468753 65.72609999999997,146.3495 65.72609999999997,146.3495 66.57955371093747,137.8862048828125 69.02722968749998,130.0029328125 72.90010019531248,122.8687162109375 78.02913749999998,116.65258750000001 84.24531386718748,111.5235791015625 91.37960156249997,107.6507234375 99.26297285156247,105.20305292968752 107.72639999999998,104.34960000000001 391.97839999999997,104.3494 391.97839999999997,104.3495" fill="none" stroke="black" stroke-width="0.1"/>
            <polyline class="fil3 str0" id="simplify_6___1" points="391.97839999999997,114.8495 391.97839999999997,114.8494" fill="none" stroke="black" stroke-width="0.1"/>
        </g>
        <polygon class="fil0 str0" id="simplify_7_1" points="21.1043,214.739 72.1317,346.589 72.1347,346.5907 73.8264921875,350.48111816406254 75.81868749999998,354.1988828125001 78.0958640625,357.72863417968756 80.6426,361.0550125000001 83.44347343749999,364.1626580078125 86.48306249999999,367.0362109375001 89.7459453125,369.66031152343754 93.2167,372.0196 128.8535,398.0803 132.149927734375,400.27589277343753 135.61632187499998,402.22088593750004 139.239798828125,403.9022892578125 143.007475,405.3071125 146.906466796875,406.4223654296875 150.923890625,407.23505781250003 155.046862890625,407.7321994140625 159.2625,407.9008 254.8329,407.9008 254.8329,418.4008 159.2625,418.4008 154.14607890624998,418.1941291015625 149.14341875,417.5848453125 144.27046171875,416.5890419921875 139.54315,415.2228125 134.97742578125,413.5022501953125 130.58923124999998,411.4434484375 126.39450859375,409.06250058593747 122.4092,406.3755 122.8315,406.4332 87.67790000000001,380.94010000000003 83.50633535156251,378.10443125 79.5846015625,374.95048125000005 75.9312388671875,371.496709375 72.56478750000001,367.76157500000005 69.50378769531251,363.76353750000004 66.7667796875,359.52105625000013 64.3723037109375,355.0525906250001 62.33890000000001,350.37660000000005 11.310300000000012,218.52360000000004 11.311400000000011,218.52320000000003 10.780859375000013,217.06936523437506 10.315400000000011,215.58554687500003 9.916765625000012,214.07344882812504 9.586700000000011,212.53477500000002 9.326946875000012,210.971229296875 9.139250000000011,209.38451562500003 9.025353125000013,207.77633789062503 8.987000000000013,206.14840000000004 8.987000000000013,206.14840000000004 9.677893750000013,199.29715625000003 11.65935000000001,192.91545000000002 14.794531250000011,187.14011875000003 18.94660000000001,182.10800000000003 23.978718750000013,177.95593125000005 29.754050000000007,174.82075000000003 36.13575625000001,172.83929375000002 42.98700000000001,172.14840000000004 316.607,172.23190000000002 316.607,182.73190000000002 42.98700000000002,182.64840000000004 38.25158828125002,183.12593046875003 33.84070625000002,184.49546875000004 29.848933593750022,186.66243515625004 26.370850000000026,189.53225000000003 23.501035156250026,193.01033359375003 21.33406875000002,197.00210625000003 19.964530468750024,201.41298828125002 19.487000000000023,206.14840000000004 19.487000000000023,206.14840000000004 19.513726757812524,207.27831035156254 19.593095312500022,208.39444531250004 19.723888085937524,209.49561074218752 19.904887500000022,210.58061250000003 20.134875976562522,211.64825644531254 20.412635937500024,212.69734843750004 20.736949804687523,213.72669433593754 21.10660000000002,214.73510000000005 21.10430000000002,214.73840000000004" fill="none" stroke="black" stroke-width="0.1"/>
        <g id="_tag_13_">
            <polygon id="_223992488" points="336.871,129.84 337.563,127.257 339.727,119.186 340.186,117.643 340.541,116.163 340.916,114.85 323.924,114.85 323.632,115.871 323.34,117.039 322.965,118.29 322.673,118.957 322.236,119.478 321.841,119.699 321.714,119.77 320.985,119.832 318.191,119.832 317.962,123.439 317.232,127.129 316.273,130.653 314.355,137.575 320.866,137.575 326.801,137.575 328.49,137.491 330.179,137.053 331.722,136.386 333.202,135.427 334.432,134.322 335.474,132.925 336.287,131.466" fill="none" stroke="black" stroke-width="0.1"/>
            <polygon id="_190331016" cx="327.521" cy="127.932" points="330.99240000000003,127.932 330.97338330758146,128.29486010738734 330.91654158118735,128.65374464350478 330.822497590667,129.0047215942732 330.69228170166053,129.34394558277333 330.52732058669733,129.6677 330.3294215942732,129.9724377248081 330.1007529471622,130.25481998691413 329.8438199869141,130.51175294716222 329.5614377248081,130.7404215942732 329.2567,130.9383205866973 328.93294558277336,131.10328170166053 328.59372159427323,131.23349759066699 328.2427446435048,131.32754158118735 327.88386010738736,131.38438330758143 327.521,131.4034 327.15813989261267,131.38438330758143 326.7992553564952,131.32754158118735 326.4482784057268,131.23349759066699 326.1090544172267,131.10328170166053 325.7853,130.9383205866973 325.4805622751919,130.7404215942732 325.1981800130859,130.51175294716222 324.9412470528378,130.25481998691416 324.71257840572684,129.9724377248081 324.5146794133027,129.6677 324.3497182983395,129.34394558277333 324.219502409333,129.0047215942732 324.1254584188127,128.65374464350478 324.0686166924186,128.29486010738734 324.0496,127.932 324.0686166924186,127.56913989261267 324.1254584188127,127.21025535649524 324.219502409333,126.85927840572681 324.3497182983395,126.52005441722667 324.5146794133027,126.19630000000001 324.71257840572684,125.89156227519192 324.9412470528378,125.60918001308586 325.19818001308585,125.35224705283778 325.4805622751919,125.1235784057268 325.7853,124.9256794133027 326.1090544172267,124.76071829833948 326.4482784057268,124.630502409333 326.7992553564952,124.53645841881267 327.15813989261267,124.47961669241857 327.521,124.4606 327.88386010738736,124.47961669241857 328.2427446435048,124.53645841881267 328.59372159427323,124.630502409333 328.93294558277336,124.76071829833948 329.2567,124.9256794133027 329.5614377248081,125.1235784057268 329.8438199869141,125.35224705283777 330.1007529471622,125.60918001308586 330.3294215942732,125.89156227519192 330.52732058669733,126.1963 330.69228170166053,126.52005441722666 330.822497590667,126.85927840572681 330.91654158118735,127.21025535649522 330.97338330758146,127.56913989261267" fill="none" stroke="black" stroke-width="0.1"/>
        </g>
    </g>
</svg>
