<!DOCTYPE svg PUBLIC "-//W3C//DTD SVG 1.1//EN" "http://www.w3.org/Graphics/SVG/1.1/DTD/svg11.dtd">
<svg xmlns="http://www.w3.org/2000/svg" width="297mm" height="210mm" viewBox="0 0 297 210">
    <defs id="_tag_7_"/>
    <g id="Ebene_x0020_1">
        <g id="_129884824">
            <polygon points="35.6345,91.8975 37.47640703125,90.20296445312499 39.29075625000001,88.45256562499999 41.04796484375,86.635590234375 42.718450000000004,84.74132499999999 44.272628906250006,82.75905664062499 45.680918750000004,80.678071875 46.91373671875,78.48765742187499 47.941500000000005,76.1771 52.29840000000001,64.8768 53.87617617187501,64.50149707031251 55.43483437500001,64.3841390625 56.95626914062501,64.5175646484375 58.422375,64.89461250000001 59.81504648437501,65.5081212890625 61.11617812500001,66.35092968750001 62.307664453125014,67.41587636718751 63.37140000000001,68.6958 57.02720000000001,85.6893 56.46649921875001,87.9547228515625 56.4785875,90.0352578125 56.97742578125001,91.8947419921875 57.87697500000001,93.4970125 59.091196093750014,94.8059064453125 60.53405000000001,95.7852609375 62.11949765625001,96.39891308593751 63.761500000000005,96.61070000000001 84.1294,96.59580000000001 83.95100000000001,110.5027 52.07340000000001,110.52590000000001 49.47670000000001,100.90990000000001 49.47630000000001,100.91000000000001 49.241679296875006,100.17188144531251 48.899459375000006,99.48540156250002 48.45874101562501,98.8616615234375 47.92862500000001,98.31176250000001 47.31821210937501,97.84680566406252 46.63660312500001,97.4778921875 45.89289882812501,97.2161232421875 45.09620000000001,97.07260000000001 45.09620000000001,97.07260000000001 44.08355058593751,97.0751037109375 43.12104218750001,97.2732296875 42.23067207031251,97.64892519531251 41.43443750000001,98.18413750000002 40.75433574218751,98.8608138671875 40.21236406250001,99.66090156250002 39.83051972656251,100.56634785156251 39.63080000000001,101.55910000000002 39.63080000000001,101.55910000000002 39.61402675781251,101.778026953125 39.606789062500006,101.99546562500001 39.6089099609375,102.21120273437501 39.62021250000001,102.425025 39.64051972656251,102.63671914062502 39.669654687500014,102.84607187500002 39.70744042968751,103.05286992187501 39.75370000000001,103.25690000000002 39.75500000000001,103.26230000000001 39.76470000000001,103.30140000000002 43.45610000000001,118.27540000000002 43.449900000000014,130.5671 43.46492285156251,130.74252421875002 43.475751562500015,130.91895625 43.48232636718751,131.09633515625 43.48458750000002,131.27460000000002 43.48247519531252,131.45368984375 43.47592968750001,131.63354375 43.464891210937516,131.81410078125003 43.449300000000015,131.99530000000001 43.448400000000014,132.0036 43.15004980468751,133.99976992187501 42.58443593750001,135.875271875 41.766463476562514,137.60939414062503 40.71103750000001,139.181425 39.433063085937505,140.57065273437502 37.947445312500015,141.756365625 36.26908925781251,142.717851953125 34.412900000000015,143.4344 34.412900000000015,143.4344 34.092827734375014,143.43976347656252 33.82043437500001,143.4021578125 33.59571757812501,143.3215888671875 33.418675000000015,143.1980625 33.28930429687502,143.0315845703125 33.20760312500001,142.82216093750003 33.17356914062502,142.5697974609375 33.18720000000001,142.27450000000002 33.61140000000001,140.3693 33.67878457031251,139.98755996093752 33.70628906250001,139.61229218750003 33.68843964843751,139.2467626953125 33.61976250000001,138.8942375 33.49478378906251,138.55798261718752 33.30802968750001,138.24126406250002 33.05402636718751,137.9473478515625 32.727300000000014,137.67950000000002 32.727300000000014,137.67950000000002 32.675835742187516,137.65116113281252 32.624642187500015,137.62240156250002 32.57371816406251,137.5932318359375 32.523062500000016,137.56366250000002 32.47267402343751,137.53370410156253 32.42255156250001,137.50336718750003 32.372693945312506,137.47266230468753 32.32310000000001,137.44160000000002 32.31650000000001,137.43820000000002 32.317200000000014,137.4379 31.515298046875014,136.84995195312501 30.803984375000013,136.162040625 30.192584765625014,135.38550273437502 29.690425000000015,134.531675 29.306830859375015,133.61189414062503 29.051128125000012,132.637496875 28.932642578125012,131.61981992187498 28.960700000000013,130.5702 28.960700000000013,130.5702 29.069000976562513,129.8430841796875 29.24576406250001,129.14366093750002 29.48714199218751,128.4750791015625 29.789287500000015,127.84048750000001 30.148353320312513,127.2430349609375 30.56049218750001,126.6858703125 31.021856835937513,126.1721423828125 31.52860000000001,125.705 31.52860000000001,125.705 32.30551328125001,124.84302402343751 32.99612500000001,123.71158593749999 33.574292968750015,122.3559330078125 34.01387500000001,120.8213125 34.288728906250014,119.15297167968751 34.37271250000001,117.39615781250001 34.23968359375001,115.59611816406249 33.86350000000001,113.7981 31.679500000000008,106.11500000000001 31.65120605468751,106.02409082031251 31.623548437500006,105.93293906250001 31.596525976562507,105.84154589843752 31.57013750000001,105.74991250000001 31.544381835937507,105.6580400390625 31.51925781250001,105.56592968750002 31.49476425781251,105.4735826171875 31.470900000000007,105.38100000000001 31.468600000000006,105.37310000000001 31.468800000000005,105.373 31.3399998046875,104.8145037109375 31.234654687500004,104.24828593750001 31.153260351562505,103.67494082031251 31.096312500000003,103.09506250000001 31.064306835937504,102.5092451171875 31.057739062500005,101.91808281250002 31.077104882812502,101.3221697265625 31.122900000000005,100.72210000000001 31.122900000000005,100.72210000000001 31.315363281250004,99.4145580078125 31.626856250000003,98.15487656250001 32.05093359375,96.94833496093752 32.58115000000001,95.8002125 33.21106015625,94.71578847656251 33.93421875000001,93.70034218750001 34.74418046875,92.75915292968752 35.6345,91.89750000000001" fill="none" stroke="black" stroke-width="0.1" id="_130588456"/>
            <polygon points="45.6004,91.9464 47.615930078125004,92.3519078125 49.454209375,93.1271375 51.078583984375,94.2274359375 52.4524,95.60815 53.539003515625,97.22462656249999 54.301740625,99.0322125 54.703957421875,100.9862546875 54.709,103.0421 54.709,103.0421 54.5786849609375,103.94991328125 54.3716484375,104.82724375000001 54.091728320312505,105.67096484375 53.7427625,106.47795 53.328588867187506,107.24507265625 52.8530453125,107.96920625000001 52.319969726562505,108.64722421875001 51.733200000000004,109.27600000000001 51.733200000000004,109.27720000000001 51.733000000000004,109.2763 49.53960000000001,101.2283 49.51709648437501,101.10252812500002 49.491459375000005,100.97776875000001 49.46272382812501,100.85406875000001 49.430925,100.73147500000002 49.396098046875004,100.610034375 49.358278125000005,100.48979375 49.317500390625014,100.3708 49.27380000000001,100.2531 49.27300000000001,100.25 49.27270000000001,100.25 48.98373339843751,99.6315908203125 48.61541093750001,99.06082656250001 48.174111132812506,98.54548964843751 47.6662125,98.09336250000001 47.0980935546875,97.7122275390625 46.47613281250001,97.4098671875 45.80670878906251,97.1940638671875 45.09620000000001,97.0726 45.09620000000001,97.0726 44.08355058593751,97.0751037109375 43.12104218750001,97.27322968749999 42.23067207031251,97.6489251953125 41.43443750000001,98.18413749999999 40.75433574218751,98.86081386718749 40.21236406250001,99.66090156249999 39.83051972656251,100.5663478515625 39.63080000000001,101.5591 39.63080000000001,101.5591 39.61617011718751,101.7413259765625 39.608204687500006,101.92252656250001 39.60679003906251,102.1025857421875 39.61181250000001,102.2813875 39.62315839843751,102.45881582031251 39.64071406250001,102.6347546875 39.66436582031251,102.8090880859375 39.69400000000001,102.9817 39.69340000000001,102.9818 39.696500000000015,102.99430000000001 39.70903925781251,103.05733105468751 39.72235781250001,103.12011718750001 39.73645683593752,103.1826478515625 39.75133750000002,103.24491250000001 39.767000976562514,103.30690058593751 39.78344843750001,103.3686015625 39.800681054687516,103.43000488281251 39.818700000000014,103.4911 41.869000000000014,111.8244 43.45610000000001,118.27539999999999 43.449900000000014,130.56709999999998 43.46492285156251,130.74252421874996 43.475751562500015,130.91895624999998 43.48232636718751,131.09633515625 43.48458750000002,131.27459999999996 43.48247519531252,131.45368984374997 43.47592968750001,131.63354374999997 43.464891210937516,131.81410078125 43.449300000000015,131.9953 43.448400000000014,132.00359999999998 43.15004980468751,133.999769921875 42.58443593750001,135.87527187499998 41.766463476562514,137.609394140625 40.71103750000001,139.181425 39.433063085937505,140.570652734375 37.947445312500015,141.756365625 36.26908925781251,142.71785195312498 34.412900000000015,143.43439999999998 34.412900000000015,143.43439999999998 34.092827734375014,143.4397634765625 33.82043437500001,143.40215781249998 33.59571757812501,143.32158886718747 33.418675000000015,143.1980625 33.28930429687502,143.03158457031248 33.20760312500001,142.82216093749997 33.17356914062502,142.56979746093748 33.18720000000001,142.2745 33.61140000000001,140.36929999999998 33.67877890625001,139.9876677734375 33.70633750000001,139.6124984375 33.68859609375001,139.24705800781248 33.620075000000014,138.8946125 33.49529453125001,138.5584279296875 33.308775000000004,138.24177031249997 33.05503671875001,137.9479056640625 32.72860000000001,137.68009999999998 32.72860000000001,137.68009999999998 32.677182031250005,137.65183164062498 32.62605,137.623134375 32.57519921875,137.59401992187497 32.524625,137.56449999999998 32.47432265625001,137.534586328125 32.424287500000005,137.50429062499995 32.374514843750006,137.47362460937495 32.32500000000001,137.44259999999997 32.31650000000001,137.43819999999997 32.31740000000001,137.43779999999995 31.515518164062517,136.84982343749994 30.804195312500013,136.16189999999995 30.192765429687512,135.38536406249995 29.690562500000013,134.53154999999995 29.306920507812514,133.61179218749996 29.051173437500015,132.63742499999995 28.93265527343751,131.61978281249995 28.960700000000013,130.57019999999994 28.960700000000013,130.57019999999994 29.088763867187513,129.74778066406245 29.304210937500013,128.96148906249994 29.601424414062514,128.21592480468743 29.974787500000012,127.51568749999996 30.418683398437512,126.86537675781244 30.92749531250001,126.26959218749995 31.49560644531251,125.73293339843744 32.11740000000001,125.25999999999995 32.11710000000001,125.25989999999994 32.13250000000001,125.24959999999994 32.17520000000001,125.22109999999995 33.548443359375014,124.09815546874995 34.71528437500001,122.71257499999996 35.66538945312501,121.12458828124994 36.38842500000001,119.39442499999996 36.874057421875015,117.58231484374996 37.111953125000014,115.74848749999995 37.09177851562501,113.95317265624995 36.80320000000001,112.25659999999995 34.949900000000014,105.18109999999994 34.905802148437516,105.04190781249994 34.86366718750001,104.90191874999995 34.823508007812514,104.76115156249995 34.78533750000002,104.61962499999994 34.749168554687515,104.47735781249995 34.71501406250001,104.33436874999994 34.682886914062514,104.19067656249995 34.65280000000001,104.04629999999995 34.649000000000015,104.03199999999994 34.64970000000002,104.03079999999994 34.584690039062515,103.67023925781244 34.53261406250002,103.30588281249995 34.49370292968752,102.93799433593745 34.46818750000002,102.56683749999993 34.45629863281251,102.19267597656246 34.45826718750001,101.81577343749996 34.47432402343752,101.43639355468744 34.504700000000014,101.05479999999994 34.504700000000014,101.05479999999994 34.91020781250001,99.03933593749994 35.68543750000002,97.20110624999995 36.785735937500014,95.57676718749994 38.16645000000001,94.20297499999994 39.782926562500016,93.11638593749994 41.59051250000002,92.35365624999994 43.54455468750002,91.95144218749995 45.600400000000015,91.94639999999994" fill="none" stroke="black" stroke-width="0.1" id="_130677584"/>
            <circle cx="36.2049" cy="131.283" r="5.0" fill="none" stroke="black" stroke-width="0.1"/>
            <circle cx="44.6068" cy="102.049" r="5.0" fill="none" stroke="black" stroke-width="0.1"/>
            <circle cx="44.6068" cy="102.049" r="3.0" fill="none" stroke="black" stroke-width="0.1" id="center_00"/>
        </g>
    </g>
</svg>
