<!DOCTYPE svg PUBLIC "-//W3C//DTD SVG 1.1//EN" "http://www.w3.org/Graphics/SVG/1.1/DTD/svg11.dtd">
<svg xmlns="http://www.w3.org/2000/svg" width="297mm" height="210mm" viewBox="0 0 297 210">
    <defs id="_tag_5_"/>
    <g id="Ebene_x0020_1">
        <g id="_132823752">
            <polygon points="66.6727,252.506 68.7984,252.969 69.791,253.149 70.7482,253.262 71.6771,253.292 72.5848,253.22 73.4784,253.028 74.3651,252.698 75.2519,252.212 76.146,251.552 69.0897,261.465 66.9546,260.391 68.4564,253.222 66.9546,260.391 65.1587,260.065" fill="none" stroke="black" stroke-width="0.1" id="_135977944"/>
            <g id="_tag_403_">
                <polygon points="114.154,257.957 113.523,258.425 112.991,259.01 112.767,259.343 112.576,259.7 112.419,260.08 112.299,260.482 112.193,261.155 112.199,261.819 112.311,262.462 112.521,263.074 112.824,263.642 113.212,264.156 113.679,264.605 114.218,264.978 113.645,267.4 112.868,267.526 112.123,267.797 111.771,267.988 111.435,268.215 111.12,268.479 110.827,268.779 110.419,269.326 110.115,269.916 109.915,270.537 109.816,271.176 109.82,271.82 109.924,272.456 110.128,273.07 110.431,273.651 108.795,275.531 108.047,275.281 107.261,275.175 106.86,275.18 106.457,275.225 106.055,275.311 105.656,275.439 105.041,275.734 104.497,276.115 104.03,276.571 103.646,277.091 103.349,277.662 103.145,278.274 103.039,278.913 103.037,279.568 100.718,280.467 100.175,279.897 99.53,279.438 99.1731,279.255 98.7959,279.107 98.4,278.996 97.987,278.925 97.3054,278.899 96.6468,278.983 96.0214,279.169 95.4392,279.451 94.9106,279.818 94.4457,280.264 94.0549,280.781 93.748,281.36 91.2787,281.077 91.0647,280.321 90.7078,279.614 90.4769,279.286 90.2118,278.98 89.913,278.697 89.581,278.442 88.9892,278.102 88.3667,277.87 87.7261,277.744 87.0801,277.722 86.4413,277.802 85.8224,277.981 85.2362,278.256 84.6952,278.626 82.6389,277.226 82.8001,276.455 82.8125,275.663 82.7605,275.265 82.6683,274.871 82.5351,274.482 82.36,274.101 81.9948,273.525 81.5519,273.03 81.0434,272.621 80.4818,272.301 79.8793,272.074 79.2482,271.944 78.6009,271.915 77.9497,271.99 76.7851,269.802 77.288,269.199 77.6681,268.506 77.807,268.13 77.9089,267.738 77.9719,267.332 77.9938,266.913 77.9382,266.233 77.7757,265.589 77.5154,264.991 77.1667,264.446 76.7386,263.965 76.2401,263.557 75.6806,263.231 75.0691,262.995 75.0545,260.52 75.7795,260.222 76.438,259.785 76.7352,259.517 77.0074,259.218 77.2517,258.887 77.4653,258.527 77.7317,257.899 77.8869,257.253 77.9345,256.602 77.8783,255.958 77.7224,255.333 77.4705,254.74 77.1265,254.191 76.6941,253.699 77.8312,251.497 78.6126,251.569 79.399,251.488 79.7868,251.388 80.1671,251.249 80.5369,251.07 80.8936,250.85 81.4213,250.417 81.8585,249.918 82.203,249.363 82.4525,248.767 82.6044,248.141 82.6568,247.499 82.6072,246.853 82.4532,246.216 84.4868,244.792 85.1475,245.218 85.8828,245.51 86.2725,245.603 86.6741,245.656 87.085,245.669 87.5031,245.64 88.1714,245.503 88.7909,245.263 89.3538,244.933 89.8518,244.521 90.2774,244.037 90.6222,243.493 90.8783,242.898 91.0378,242.262 93.4956,241.948 93.8806,242.632 94.3944,243.232 94.6964,243.495 95.027,243.729 95.3847,243.932 95.7684,244.1 96.4241,244.289 97.0837,244.364 97.7357,244.333 98.3682,244.199 98.9694,243.969 99.5275,243.647 100.031,243.239 100.468,242.75 102.793,243.615 102.818,244.4 102.994,245.171 103.14,245.544 103.324,245.904 103.546,246.25 103.808,246.577 104.301,247.049 104.85,247.423 105.442,247.698 106.064,247.874 106.703,247.949 107.347,247.924 107.982,247.797 108.596,247.567 110.253,249.412 109.91,250.119 109.708,250.883 109.664,251.281 109.659,251.686 109.696,252.096 109.775,252.507 109.992,253.154 110.304,253.74 110.701,254.259 111.17,254.704 111.701,255.068 112.283,255.344 112.904,255.527 113.555,255.608" fill="none" stroke="black" stroke-width="0.1" id="_135977560"/>
                <polyline points="108.229,256.022 105.3923,257.0294" fill="none" stroke="black" stroke-width="0.1" id="_135976992_1_1"/>
                <polyline points="106.923,253.577 104.4828,255.3355" fill="none" stroke="black" stroke-width="0.1" id="_135976992_2_1"/>
                <polyline points="106.923,253.577 108.2293,256.0215" fill="none" stroke="black" stroke-width="0.1" id="_135976992_3_1"/>
                <polyline points="104.483,255.336 105.39280000000001,257.0296" fill="none" stroke="black" stroke-width="0.1" id="_135976992_1"/>
                <polyline points="103.148,255.608 101.5994,253.9032" fill="none" stroke="black" stroke-width="0.1" id="_135976424_1_1"/>
                <polyline points="108.052,251.813 103.1481,255.6086" fill="none" stroke="black" stroke-width="0.1" id="_135976424_2_1"/>
                <polyline points="105.968,249.492 108.0522,251.81279999999998" fill="none" stroke="black" stroke-width="0.1" id="_135976424_3_1"/>
                <polyline points="105.984,249.476 101.5997,253.9036" fill="none" stroke="black" stroke-width="0.1" id="_135976424_1"/>
                <polyline points="104.072,250.407 102.02850000000001,252.6173" fill="none" stroke="black" stroke-width="0.1" id="_135975856_1_1"/>
                <polyline points="101.78,248.85 100.4366,251.5411" fill="none" stroke="black" stroke-width="0.1" id="_135975856_2_1"/>
                <polyline points="101.78,248.85 104.0727,250.4074" fill="none" stroke="black" stroke-width="0.1" id="_135975856_3_1"/>
                <polyline points="100.436,251.541 102.0287,252.6178" fill="none" stroke="black" stroke-width="0.1" id="_135975856_1"/>
                <polyline points="99.3801,252.404 97.2166,251.61419999999998" fill="none" stroke="black" stroke-width="0.1" id="_135975288_1_1"/>
                <polyline points="101.958,246.764 99.3798,252.40380000000002" fill="none" stroke="black" stroke-width="0.1" id="_135975288_2_1"/>
                <polyline points="99.0345,245.678 101.9583,246.7642" fill="none" stroke="black" stroke-width="0.1" id="_135975288_3_1"/>
                <polyline points="99.0411,245.656 97.2166,251.6139" fill="none" stroke="black" stroke-width="0.1" id="_135975288_1"/>
                <polyline points="97.7826,247.368 97.0002,250.2748" fill="none" stroke="black" stroke-width="0.1" id="_135974720_1_1"/>
                <polyline points="95.0286,247.055 95.0896,250.06220000000002" fill="none" stroke="black" stroke-width="0.1" id="_135974720_2_1"/>
                <polyline points="95.0286,247.055 97.7825,247.3685" fill="none" stroke="black" stroke-width="0.1" id="_135974720_3_1"/>
                <polyline points="95.0896,250.062 97.0002,250.27530000000002" fill="none" stroke="black" stroke-width="0.1" id="_135974720_1"/>
                <polyline points="94.556,251.316 92.2731,251.6222" fill="none" stroke="black" stroke-width="0.1" id="_135974168_1_1"/>
                <polyline points="94.2178,245.124 94.556,251.3158" fill="none" stroke="black" stroke-width="0.1" id="_135974168_2_1"/>
                <polyline points="91.1241,245.521 94.2178,245.1241" fill="none" stroke="black" stroke-width="0.1" id="_135974168_3_1"/>
                <polyline points="91.1199,245.499 92.2731,251.6224" fill="none" stroke="black" stroke-width="0.1" id="_135974168_1"/>
                <polyline points="90.8043,247.599 91.4617,250.5366" fill="none" stroke="black" stroke-width="0.1" id="_136867096_1_1"/>
                <polyline points="88.2198,248.601 89.67060000000001,251.2358" fill="none" stroke="black" stroke-width="0.1" id="_136867096_2_1"/>
                <polyline points="88.2198,248.6 90.80420000000001,247.5987" fill="none" stroke="black" stroke-width="0.1" id="_136867096_3_1"/>
                <polyline points="89.6706,251.235 91.4617,250.53640000000001" fill="none" stroke="black" stroke-width="0.1" id="_136867096_1"/>
                <polyline points="89.7803,252.595 87.901,253.9264" fill="none" stroke="black" stroke-width="0.1" id="_136866784_1_1"/>
                <polyline points="86.6049,247.268 89.7803,252.5945" fill="none" stroke="black" stroke-width="0.1" id="_136866784_2_1"/>
                <polyline points="84.0495,249.057 86.6049,247.2685" fill="none" stroke="black" stroke-width="0.1" id="_136866784_3_1"/>
                <polyline points="84.0355,249.039 87.901,253.9261" fill="none" stroke="black" stroke-width="0.1" id="_136866784_1"/>
                <polyline points="84.7274,251.049 86.6751,253.3443" fill="none" stroke="black" stroke-width="0.1" id="_136866080_1_1"/>
                <polyline points="82.9047,253.137 85.41420000000001,254.7953" fill="none" stroke="black" stroke-width="0.1" id="_136866080_2_1"/>
                <polyline points="82.9048,253.137 84.7273,251.0488" fill="none" stroke="black" stroke-width="0.1" id="_136866080_3_1"/>
                <polyline points="85.4142,254.795 86.6751,253.3438" fill="none" stroke="black" stroke-width="0.1" id="_136866080_1"/>
                <polyline points="86.1426,255.948 85.0976,258.0005" fill="none" stroke="black" stroke-width="0.1" id="_136865512_1_1"/>
                <polyline points="80.8549,252.708 86.1426,255.9476" fill="none" stroke="black" stroke-width="0.1" id="_136865512_2_1"/>
                <polyline points="79.4239,255.48 80.8549,252.7085" fill="none" stroke="black" stroke-width="0.1" id="_136865512_3_1"/>
                <polyline points="79.4033,255.471 85.0976,258.0008" fill="none" stroke="black" stroke-width="0.1" id="_136865512_1"/>
                <polyline points="80.3376,263.874 83.33319999999999,263.57730000000004" fill="none" stroke="black" stroke-width="0.1" id="_136864944_1_1"/>
                <polyline points="81.0185,266.561 83.8096,265.4401" fill="none" stroke="black" stroke-width="0.1" id="_136864944_2_1"/>
                <polyline points="81.0185,266.561 80.3375,263.8743" fill="none" stroke="black" stroke-width="0.1" id="_136864944_3_1"/>
                <polyline points="83.8096,265.44 83.3332,263.5774" fill="none" stroke="black" stroke-width="0.1" id="_136864944_1"/>
                <polyline points="85.1721,265.495 86.2661,267.5219" fill="none" stroke="black" stroke-width="0.1" id="_136864376_1_1"/>
                <polyline points="79.5002,268.002 85.1721,265.4953" fill="none" stroke="black" stroke-width="0.1" id="_136864376_2_1"/>
                <polyline points="80.966,270.755 79.50019999999999,268.0016" fill="none" stroke="black" stroke-width="0.1" id="_136864376_3_1"/>
                <polyline points="80.9467,270.767 86.26610000000001,267.5222" fill="none" stroke="black" stroke-width="0.1" id="_136864376_1"/>
                <polyline points="80.9533,256.923 83.74419999999999,258.051" fill="none" stroke="black" stroke-width="0.1" id="_136863808_1_1"/>
                <polyline points="80.309,259.619 83.3015,259.922" fill="none" stroke="black" stroke-width="0.1" id="_136863808_2_1"/>
                <polyline points="80.309,259.618 80.9532,256.9223" fill="none" stroke="black" stroke-width="0.1" id="_136863808_3_1"/>
                <polyline points="83.3015,259.922 83.7442,258.05120000000005" fill="none" stroke="black" stroke-width="0.1" id="_136863808_1"/>
                <polyline points="84.4818,260.604 84.5096,262.9072" fill="none" stroke="black" stroke-width="0.1" id="_136863240_1_1"/>
                <polyline points="78.2944,260.191 84.48179999999999,260.604" fill="none" stroke="black" stroke-width="0.1" id="_136863240_2_1"/>
                <polyline points="78.3143,263.31 78.2944,260.1909" fill="none" stroke="black" stroke-width="0.1" id="_136863240_3_1"/>
                <polyline points="78.2918,263.311 84.50959999999999,262.90659999999997" fill="none" stroke="black" stroke-width="0.1" id="_136863240_1"/>
                <polyline points="83.0238,270.321 85.53869999999999,268.66650000000004" fill="none" stroke="black" stroke-width="0.1" id="_136862688_1_1"/>
                <polyline points="84.8751,272.384 86.8259,270.0946" fill="none" stroke="black" stroke-width="0.1" id="_136862688_2_1"/>
                <polyline points="84.875,272.384 83.0238,270.3213" fill="none" stroke="black" stroke-width="0.1" id="_136862688_3_1"/>
                <polyline points="86.8259,270.095 85.5387,268.66700000000003" fill="none" stroke="black" stroke-width="0.1" id="_136862688_1"/>
                <polyline points="88.0579,269.511 89.96820000000001,270.7977" fill="none" stroke="black" stroke-width="0.1" id="_137451936_1_1"/>
                <polyline points="84.2,274.366 88.0579,269.51099999999997" fill="none" stroke="black" stroke-width="0.1" id="_137451936_2_1"/>
                <polyline points="86.7772,276.123 84.19999999999999,274.3659" fill="none" stroke="black" stroke-width="0.1" id="_137451936_3_1"/>
                <polyline points="86.7655,276.142 89.9682,270.7972" fill="none" stroke="black" stroke-width="0.1" id="_137451936_1"/>
                <polyline points="88.4085,274.788 89.8645,272.1532" fill="none" stroke="black" stroke-width="0.1" id="_137451624_1_1"/>
                <polyline points="91.0071,275.752 91.6685,272.81780000000003" fill="none" stroke="black" stroke-width="0.1" id="_137451624_2_1"/>
                <polyline points="91.0071,275.752 88.40859999999999,274.7878" fill="none" stroke="black" stroke-width="0.1" id="_137451624_3_1"/>
                <polyline points="91.6685,272.818 89.86449999999999,272.1531" fill="none" stroke="black" stroke-width="0.1" id="_137451624_1"/>
                <polyline points="92.4873,271.728 94.77690000000001,271.9778" fill="none" stroke="black" stroke-width="0.1" id="_137451056_1_1"/>
                <polyline points="91.332,277.82 92.48729999999999,271.7274" fill="none" stroke="black" stroke-width="0.1" id="_137451056_2_1"/>
                <polyline points="94.4307,278.176 91.33200000000001,277.82009999999997" fill="none" stroke="black" stroke-width="0.1" id="_137451056_3_1"/>
                <polyline points="94.4294,278.199 94.7769,271.9777" fill="none" stroke="black" stroke-width="0.1" id="_137451056_1"/>
                <polyline points="95.2491,276.234 95.3125,273.2244" fill="none" stroke="black" stroke-width="0.1" id="_137450352_1_1"/>
                <polyline points="97.9981,275.879 97.2187,272.9739" fill="none" stroke="black" stroke-width="0.1" id="_137450352_2_1"/>
                <polyline points="97.9981,275.879 95.24919999999999,276.23400000000004" fill="none" stroke="black" stroke-width="0.1" id="_137450352_3_1"/>
                <polyline points="97.2187,272.974 95.3125,273.2245" fill="none" stroke="black" stroke-width="0.1" id="_137450352_1"/>
                <polyline points="97.437,271.629 99.5801,270.7851" fill="none" stroke="black" stroke-width="0.1" id="_137449784_1_1"/>
                <polyline points="99.2481,277.56 97.437,271.6292" fill="none" stroke="black" stroke-width="0.1" id="_137449784_2_1"/>
                <polyline points="102.157,276.434 99.2483,277.56030000000004" fill="none" stroke="black" stroke-width="0.1" id="_137449784_3_1"/>
                <polyline points="102.166,276.454 99.58,270.785" fill="none" stroke="black" stroke-width="0.1" id="_137449784_1"/>
                <polyline points="101.981,274.333 100.63669999999999,271.63960000000003" fill="none" stroke="black" stroke-width="0.1" id="_137449216_1_1"/>
                <polyline points="104.249,272.74 102.20739999999999,270.53110000000004" fill="none" stroke="black" stroke-width="0.1" id="_137449216_2_1"/>
                <polyline points="104.249,272.74 101.9812,274.3333" fill="none" stroke="black" stroke-width="0.1" id="_137449216_3_1"/>
                <polyline points="102.207,270.531 100.63629999999999,271.6398" fill="none" stroke="black" stroke-width="0.1" id="_137449216_1"/>
                <polyline points="101.774,269.238 103.2782,267.4938" fill="none" stroke="black" stroke-width="0.1" id="_137448648_1_1"/>
                <polyline points="106.137,273.645 101.77420000000001,269.2381" fill="none" stroke="black" stroke-width="0.1" id="_137448648_2_1"/>
                <polyline points="108.187,271.294 106.1365,273.64439999999996" fill="none" stroke="black" stroke-width="0.1" id="_137448648_3_1"/>
                <polyline points="108.205,271.308 103.2781,267.4935" fill="none" stroke="black" stroke-width="0.1" id="_137448648_1"/>
                <polyline points="107.058,269.511 104.6139,267.75370000000004" fill="none" stroke="black" stroke-width="0.1" id="_137448080_1_1"/>
                <polyline points="108.323,267.045 105.4875,266.04130000000004" fill="none" stroke="black" stroke-width="0.1" id="_137448080_2_1"/>
                <polyline points="108.323,267.045 107.0582,269.51120000000003" fill="none" stroke="black" stroke-width="0.1" id="_137448080_3_1"/>
                <polyline points="105.487,266.041 104.61349999999999,267.7536" fill="none" stroke="black" stroke-width="0.1" id="_137448080_1"/>
                <polyline points="104.502,265.098 105.0208,262.854" fill="none" stroke="black" stroke-width="0.1" id="_137447512_1_1"/>
                <polyline points="110.415,266.966 104.5019,265.0982" fill="none" stroke="black" stroke-width="0.1" id="_137447512_2_1"/>
                <polyline points="111.135,263.931 110.415,266.966" fill="none" stroke="black" stroke-width="0.1" id="_137447512_3_1"/>
                <polyline points="111.157,263.935 105.0205,262.8541" fill="none" stroke="black" stroke-width="0.1" id="_137447512_1"/>
                <polyline points="109.305,262.884 106.32390000000001,262.4663" fill="none" stroke="black" stroke-width="0.1" id="_136064512_1_1"/>
                <polyline points="109.276,260.112 106.2992,260.5436" fill="none" stroke="black" stroke-width="0.1" id="_136064512_2_1"/>
                <polyline points="109.276,260.112 109.3047,262.8835" fill="none" stroke="black" stroke-width="0.1" id="_136064512_3_1"/>
                <polyline points="106.299,260.544 106.32310000000001,262.46639999999996" fill="none" stroke="black" stroke-width="0.1" id="_136064512_1"/>
                <polyline points="104.989,260.168 104.4037,257.9404" fill="none" stroke="black" stroke-width="0.1" id="_136064064_1_1"/>
                <polyline points="111.092,259.069 104.989,260.16830000000004" fill="none" stroke="black" stroke-width="0.1" id="_136064064_2_1"/>
                <polyline points="110.316,256.048 111.0916,259.0692" fill="none" stroke="black" stroke-width="0.1" id="_136064064_3_1"/>
                <polyline points="110.338,256.041 104.40369999999999,257.9407" fill="none" stroke="black" stroke-width="0.1" id="_136064064_1"/>
                <polygon points="91.2832,254.342 92.806,253.816 94.3558,253.61 95.8901,253.709 97.3665,254.096 98.7424,254.757 99.9753,255.675 101.023,256.836 101.842,258.223 102.369,259.746 102.575,261.296 102.476,262.83 102.088,264.306 101.428,265.682 100.509,266.915 99.3485,267.963 97.9614,268.782 96.4386,269.308 94.8888,269.514 93.3545,269.416 91.8781,269.028 90.5022,268.368 89.2693,267.449 88.2218,266.288 87.4022,264.901 86.8761,263.379 86.6701,261.829 86.7687,260.294 87.1562,258.818 87.817,257.442 88.7355,256.209 89.8961,255.162" fill="none" stroke="black" stroke-width="0.1" id="_136066288"/>
            </g>
            <polygon points="69.7629,258.478 70.2233,257.717 70.6157,257.141 71.1009,256.476 71.6679,255.755 72.3052,255.007 73.0014,254.266 73.7455,253.562 77.485,250.435 80.7881,247.683 83.7541,245.195 86.4822,242.865 89.0718,240.583 91.6223,238.241 94.2328,235.731 97.0028,232.945 98.6998,230.872 99.7798,228.863 100.349,226.952 100.512,225.171 100.375,223.552 100.045,222.129 99.6256,220.933 99.2241,219.997 93.5685,207.42 92.7475,205.542 92.052,203.757 91.5229,202.035 91.2016,200.345 91.1291,198.658 91.3466,196.943 91.8953,195.17 92.8163,193.31 95.8368,189.565 99.8014,186.803 104.457,185.106 109.55,184.556 114.827,185.235 120.034,187.225 124.919,190.608 129.228,195.466 130.547,198.148 131.702,201.035 132.579,204.051 133.068,207.118 133.056,210.159 132.433,213.097 131.086,215.855 128.903,218.356 125.736,221.254 122.555,224.355 119.395,227.666 116.293,231.196 113.283,234.955 110.403,238.95 107.688,243.191 105.174,247.686 104.399,249.145 103.709,250.62 103.104,252.111 102.585,253.618 102.151,255.141 101.802,256.68 101.539,258.235 101.36,259.806 101.806,277.998 101.809,278.789 101.771,279.529 101.68,280.222 101.526,280.87 101.296,281.476 100.98,282.042 100.565,282.572 100.041,283.069 99.4438,283.503 98.8152,283.851 98.1552,284.118 97.4636,284.311 96.74,284.437 95.9842,284.503 95.1957,284.515 94.3743,284.481 90.3161,283.945 86.3928,282.857 82.6673,281.194 79.2028,278.933 76.0622,276.052 73.3084,272.528 71.0045,268.336 69.2135,263.456 69.1264,263.018 69.0792,262.463 69.0744,261.822 69.1139,261.129 69.2004,260.415 69.3358,259.714 69.5225,259.057" fill="none" stroke="black" stroke-width="0.1" id="_136239424_1"/>
            <polygon points="87.5235,249.334 89.0468,248.535 90.5993,248.521 92.0322,249.126 93.1973,250.186 93.9463,251.536 94.1307,253.01 93.602,254.446 92.212,255.677 91.0645,256.471 90.1669,257.363 89.4981,258.323 89.037,259.32 88.7627,260.324 88.6542,261.305 88.6903,262.231 88.8501,263.074 89.1166,263.836 89.4814,264.541 89.9362,265.187 90.4729,265.774 91.0835,266.298 91.7596,266.76 92.493,267.156 93.2757,267.486 93.9489,267.776 94.61,268.154 95.2351,268.618 95.8007,269.171 96.2833,269.813 96.6591,270.543 96.9045,271.364 96.996,272.274 97.0186,275.539 96.9327,276.26 96.6801,276.997 96.283,277.713 95.7636,278.368 95.1441,278.924 94.4468,279.343 93.6936,279.587 92.907,279.618 89.7326,279.043 86.8119,278.069 84.1508,276.72 81.7551,275.021 79.6305,272.996 77.7829,270.668 76.218,268.063 74.9416,265.203 74.6682,264.324 74.5259,263.45 74.5265,262.58 74.6819,261.713 75.0042,260.847 75.5052,259.98 76.1968,259.11 77.0911,258.236" fill="none" stroke="black" stroke-width="0.1" id="_136239424_2"/>
            <polygon points="98.262,201.36 98.0267,200.826 97.8358,200.263 97.7059,199.677 97.6541,199.072 97.6969,198.451 97.8515,197.819 98.1344,197.18 98.5627,196.539 100.587,194.444 102.818,192.954 105.202,192.046 107.683,191.695 110.206,191.878 112.715,192.571 115.155,193.75 117.471,195.392 118.068,196.02 118.521,196.756 118.827,197.551 118.983,198.355 118.987,199.119 118.835,199.793 118.525,200.328 118.054,200.674 117.382,200.979 116.792,201.283 116.275,201.588 115.824,201.893 115.429,202.2 115.084,202.508 114.78,202.818 114.508,203.131 114.135,203.495 113.722,203.751 113.293,203.909 112.868,203.98 112.125,203.903 111.669,203.601 111.375,203.215 110.997,202.833 110.539,202.47 110.008,202.143 109.41,201.867 108.749,201.657 108.032,201.531 107.263,201.502 106.503,201.572 105.804,201.723 105.162,201.946 104.574,202.231 104.036,202.57 103.545,202.952 103.096,203.369 102.687,203.812 102.301,204.213 101.867,204.5 101.401,204.664 100.924,204.7 100.453,204.601 100.007,204.359 99.6045,203.969 99.2638,203.424" fill="none" stroke="black" stroke-width="0.1" id="_136239424_3"/>
            <polygon points="102.49,242.319 103.334,240.928 104.281,239.464 105.31,237.953 106.394,236.422 107.51,234.895 108.634,233.399 109.741,231.96 110.808,230.603 111.208,229.983 111.456,229.259 111.403,228.531 110.899,227.897 110.515,227.691 109.802,227.638 109.194,227.896 108.73,228.263 98.1273,238.906 97.7167,239.43 97.4695,239.987 97.3665,240.557 97.3885,241.119 97.5162,241.652 97.7306,242.137 98.0124,242.552 98.3426,242.877 98.7394,243.144 99.2183,243.378 99.7555,243.548 100.328,243.622 100.911,243.568 101.481,243.353 102.016,242.948" fill="none" stroke="black" stroke-width="0.1" id="_136239424_4"/>
            <polygon points="93.3447,258.267 94.0493,258.024 94.7665,257.928 95.4765,257.974 96.1596,258.153 96.7963,258.459 97.3668,258.884 97.8516,259.421 98.2308,260.063 98.4743,260.768 98.5696,261.485 98.524,262.195 98.3446,262.878 98.0388,263.515 97.6138,264.085 97.0768,264.57 96.4349,264.949 95.7303,265.193 95.0132,265.288 94.3032,265.242 93.6201,265.063 92.9834,264.757 92.4129,264.332 91.9281,263.795 91.5489,263.153 91.3054,262.449 91.2101,261.731 91.2557,261.022 91.4351,260.338 91.7408,259.702 92.1659,259.131 92.7029,258.646" fill="none" stroke="black" stroke-width="0.1" id="_136239424"/>
            <polygon points="98.2623,201.36 98.0908,200.981 97.9156,200.519 97.7555,199.939 97.6606,199.246 97.6862,198.531 97.8585,197.8 98.0281,197.388 98.2258,197.023 98.4521,196.685 98.7712,196.281 99.1968,195.788 99.634,195.324 100.082,194.889 100.412,194.594 100.729,194.327 101.233,193.938 101.614,193.669 102,193.419 102.392,193.186 102.788,192.97 103.188,192.772 103.593,192.59 104.002,192.426 104.42,192.278 105.122,192.068 105.832,191.905 106.548,191.788 106.99,191.738 107.54,191.701 108.091,191.69 108.644,191.704 109.198,191.743 109.753,191.808 110.307,191.897 110.86,192.01 111.412,192.148 111.838,192.271 112.522,192.5 113.202,192.766 113.875,193.067 114.283,193.269 114.695,193.488 115.104,193.72 115.509,193.966 115.91,194.225 116.307,194.497 116.7,194.782 117.088,195.08 117.471,195.392 117.804,195.707 118.194,196.194 118.405,196.535 118.734,197.26 118.934,198.007 119.005,198.739 118.983,199.156 118.899,199.596 118.705,200.072 118.426,200.43 118.055,200.673 117.637,200.859 117.25,201.044 116.706,201.331 116.279,201.585 115.898,201.84 115.557,202.096 114.98,202.61 114.508,203.131 113.537,202.297 112.66,201.345 111.648,200.552 110.523,199.931 109.308,199.498 108.027,199.266 106.703,199.249 105.359,199.461 104.416,199.755 103.537,200.154 102.725,200.647 101.986,201.228 101.326,201.887 100.749,202.615 100.261,203.404 99.8677,204.245 99.5433,203.888 99.329,203.55 98.6077,202.071" fill="none" stroke="black" stroke-width="0.1" id="_new_359_1"/>
            <polyline points="118.868,199.699 117.1197,200.95880000000002" fill="none" stroke="black" stroke-width="0.1" id="_new_359_2_1"/>
            <polyline points="117.12,200.959 117.1834,201.0772" fill="none" stroke="black" stroke-width="0.1" id="_new_359_3_1"/>
            <polyline points="115.785,201.232 114.2363,199.5272" fill="none" stroke="black" stroke-width="0.1" id="_new_359_4_1"/>
            <polyline points="119.005,198.739 115.7849,201.2314" fill="none" stroke="black" stroke-width="0.1" id="_new_359_5_1"/>
            <polyline points="117.906,195.82 114.23570000000001,199.5265" fill="none" stroke="black" stroke-width="0.1" id="_new_359_6_1"/>
            <polyline points="116.71,196.031 114.6665,198.2414" fill="none" stroke="black" stroke-width="0.1" id="_new_359_7_1"/>
            <polyline points="114.417,194.473 113.0736,197.16420000000002" fill="none" stroke="black" stroke-width="0.1" id="_new_359_8_1"/>
            <polyline points="114.417,194.473 116.7097,196.03040000000001" fill="none" stroke="black" stroke-width="0.1" id="_new_359_9_1"/>
            <polyline points="113.073,197.164 114.66569999999999,198.24079999999998" fill="none" stroke="black" stroke-width="0.1" id="_new_359_10_1"/>
            <polyline points="112.018,198.027 109.8545,197.23719999999997" fill="none" stroke="black" stroke-width="0.1" id="_new_359_11_1"/>
            <polyline points="114.21,193.232 112.018,198.027" fill="none" stroke="black" stroke-width="0.1" id="_new_359_12_1"/>
            <polyline points="111.412,192.148 109.8536,197.23669999999998" fill="none" stroke="black" stroke-width="0.1" id="_new_359_13_1"/>
            <polyline points="110.42,192.992 109.6378,195.8989" fill="none" stroke="black" stroke-width="0.1" id="_new_359_14_1"/>
            <polyline points="107.666,192.678 107.7271,195.68529999999998" fill="none" stroke="black" stroke-width="0.1" id="_new_359_15_1"/>
            <polyline points="107.666,192.678 110.4198,192.9917" fill="none" stroke="black" stroke-width="0.1" id="_new_359_16_1"/>
            <polyline points="107.727,195.685 109.6376,195.8983" fill="none" stroke="black" stroke-width="0.1" id="_new_359_17_1"/>
            <polyline points="107.193,196.939 104.9102,197.245" fill="none" stroke="black" stroke-width="0.1" id="_new_359_18_1"/>
            <polyline points="106.909,191.747 107.19250000000001,196.93980000000002" fill="none" stroke="black" stroke-width="0.1" id="_new_359_19_1"/>
            <polyline points="104.002,192.426 104.9096,197.24519999999998" fill="none" stroke="black" stroke-width="0.1" id="_new_359_20_1"/>
            <polyline points="103.442,193.222 104.0993,196.1596" fill="none" stroke="black" stroke-width="0.1" id="_new_359_21_1"/>
            <polyline points="100.857,194.224 102.3076,196.8586" fill="none" stroke="black" stroke-width="0.1" id="_new_359_22_1"/>
            <polyline points="100.858,194.223 103.4415,193.222" fill="none" stroke="black" stroke-width="0.1" id="_new_359_23_1"/>
            <polyline points="102.308,196.859 104.0991,196.1604" fill="none" stroke="black" stroke-width="0.1" id="_new_359_24_1"/>
            <polyline points="102.418,198.217 100.53850000000001,199.54850000000002" fill="none" stroke="black" stroke-width="0.1" id="_new_359_25_1"/>
            <polyline points="100.31,194.683 102.4173,198.21769999999998" fill="none" stroke="black" stroke-width="0.1" id="_new_359_26_1"/>
            <polyline points="98.3675,196.804 100.5381,199.5485" fill="none" stroke="black" stroke-width="0.1" id="_new_359_27_1"/>
            <polyline points="98.0077,197.431 99.3121,198.96820000000002" fill="none" stroke="black" stroke-width="0.1" id="_new_359_28_1"/>
            <polyline points="97.8414,200.281 98.05109999999999,200.4195" fill="none" stroke="black" stroke-width="0.1" id="_new_359_29_1"/>
            <polyline points="98.0511,200.419 99.3121,198.9678" fill="none" stroke="black" stroke-width="0.1" id="_new_359_30_1"/>
            <polyline points="98.7798,201.571 98.56739999999999,201.9882" fill="none" stroke="black" stroke-width="0.1" id="_new_359_31_1"/>
            <polyline points="98.1923,201.211 98.77980000000001,201.57090000000002" fill="none" stroke="black" stroke-width="0.1" id="_new_359_32_1"/>
            <polygon points="90.4116,279.204 90.1297,278.896 89.8123,278.614 89.197,278.207 88.7975,278.018 88.3865,277.876 87.9676,277.779 87.5442,277.728 87.1202,277.721 86.6988,277.758 86.2838,277.838 85.8251,277.624 85.3737,277.4 84.9299,277.166 84.4936,276.921 84.0647,276.666 83.6435,276.402 83.2298,276.127 82.8237,275.843 82.7831,275.401 82.6933,274.96 82.5527,274.526 82.3604,274.101 82.0535,273.604 81.6886,273.166 81.2732,272.789 80.8151,272.476 80.3219,272.23 79.8014,272.052 79.261,271.946 78.7086,271.913 78.2671,271.341 77.8421,270.751 77.4339,270.146 77.0423,269.524 77.441,268.959 77.74,268.327 77.9282,267.642 77.9942,266.914 77.9386,266.234 77.7761,265.59 77.5158,264.991 77.1671,264.447 76.739,263.966 76.2405,263.558 75.681,263.231 75.0695,262.996 75.0562,260.742 75.5455,260.337 76.1975,259.967 76.7765,259.477 77.263,258.871 77.5217,258.416 77.7096,257.966 80.0145,255.742 82.4352,253.676 82.9959,253.198 85.0576,251.438 85.5809,250.992 87.524,249.334 87.8441,249.088 88.1896,248.872 88.726,248.632 89.3949,248.471 90.0631,248.448 90.7188,248.549 91.1037,248.665 91.5278,248.843 92.1631,249.215 92.4882,249.463 92.7919,249.737 93.0715,250.034 93.3246,250.353 93.5485,250.689 93.7409,251.041 93.9068,251.425 94.0668,251.97 94.1413,252.524 94.1223,253.081 94.0022,253.631 93.5231,253.684 93.0426,253.766 91.2041,254.378 89.865,255.185 88.7281,256.22 87.8169,257.444 87.1548,258.82 86.7653,260.307 86.6718,261.868 86.8976,263.463 87.4095,264.921 88.1681,266.216 89.1395,267.327 90.2893,268.233 91.5836,268.914 92.9881,269.349 94.4689,269.517 95.9916,269.398 96.4004,270.007 96.7158,270.688 96.9204,271.444 96.9756,271.85 96.9965,272.274 97.0016,273.003 97.0191,275.539 96.9907,275.951 96.7994,276.704 96.4922,277.371 96.0738,278.004 95.5611,278.572 94.9713,279.047 94.3211,279.399 93.6275,279.599 92.9075,279.618 92.2692,279.538 91.6406,279.442 91.0214,279.331" fill="none" stroke="black" stroke-width="0.1" id="_new_360_1"/>
            <polyline points="93.899,251.404 92.273,251.6221" fill="none" stroke="black" stroke-width="0.1" id="_new_360_2_1"/>
            <polyline points="91.7736,248.971 92.273,251.6227" fill="none" stroke="black" stroke-width="0.1" id="_new_360_3_1"/>
            <polyline points="91.0384,248.642 91.4624,250.53629999999998" fill="none" stroke="black" stroke-width="0.1" id="_new_360_4_1"/>
            <polyline points="88.3296,248.799 89.6713,251.2357" fill="none" stroke="black" stroke-width="0.1" id="_new_360_5_1"/>
            <polyline points="89.6713,251.235 91.4624,250.53640000000001" fill="none" stroke="black" stroke-width="0.1" id="_new_360_6_1"/>
            <polyline points="89.7808,252.594 87.9014,253.9253" fill="none" stroke="black" stroke-width="0.1" id="_new_360_7_1"/>
            <polyline points="87.7363,249.165 89.7808,252.59449999999998" fill="none" stroke="black" stroke-width="0.1" id="_new_360_8_1"/>
            <polyline points="85.5809,250.992 87.9014,253.92569999999998" fill="none" stroke="black" stroke-width="0.1" id="_new_360_9_1"/>
            <polyline points="85.0576,251.438 86.6753,253.34429999999998" fill="none" stroke="black" stroke-width="0.1" id="_new_360_10_1"/>
            <polyline points="82.9959,253.198 85.4144,254.7962" fill="none" stroke="black" stroke-width="0.1" id="_new_360_11_1"/>
            <polyline points="85.4144,254.796 86.67530000000001,253.3447" fill="none" stroke="black" stroke-width="0.1" id="_new_360_12_1"/>
            <polyline points="86.143,255.948 85.098,258.0005" fill="none" stroke="black" stroke-width="0.1" id="_new_360_13_1"/>
            <polyline points="82.4352,253.676 86.143,255.9477" fill="none" stroke="black" stroke-width="0.1" id="_new_360_14_1"/>
            <polyline points="80.0145,255.742 85.098,258.0005" fill="none" stroke="black" stroke-width="0.1" id="_new_360_15_1"/>
            <polyline points="80.3383,263.874 83.3338,263.57730000000004" fill="none" stroke="black" stroke-width="0.1" id="_new_360_16_1"/>
            <polyline points="81.0191,266.561 83.8102,265.44" fill="none" stroke="black" stroke-width="0.1" id="_new_360_17_1"/>
            <polyline points="81.0191,266.561 80.3381,263.8743" fill="none" stroke="black" stroke-width="0.1" id="_new_360_18_1"/>
            <polyline points="83.8102,265.44 83.3338,263.5774" fill="none" stroke="black" stroke-width="0.1" id="_new_360_19_1"/>
            <polyline points="85.1722,265.496 86.2662,267.5229" fill="none" stroke="black" stroke-width="0.1" id="_new_360_20_1"/>
            <polyline points="79.5003,268.002 85.17219999999999,265.4952" fill="none" stroke="black" stroke-width="0.1" id="_new_360_21_1"/>
            <polyline points="80.9661,270.756 79.5003,268.00269999999995" fill="none" stroke="black" stroke-width="0.1" id="_new_360_22_1"/>
            <polyline points="80.9468,270.767 86.2662,267.5221" fill="none" stroke="black" stroke-width="0.1" id="_new_360_23_1"/>
            <polyline points="80.9533,256.923 83.74419999999999,258.051" fill="none" stroke="black" stroke-width="0.1" id="_new_360_24_1"/>
            <polyline points="80.3089,259.619 83.30149999999999,259.922" fill="none" stroke="black" stroke-width="0.1" id="_new_360_25_1"/>
            <polyline points="80.309,259.619 80.9532,256.92330000000004" fill="none" stroke="black" stroke-width="0.1" id="_new_360_26_1"/>
            <polyline points="83.3015,259.922 83.7442,258.05120000000005" fill="none" stroke="black" stroke-width="0.1" id="_new_360_27_1"/>
            <polyline points="84.4819,260.603 84.5098,262.9062" fill="none" stroke="black" stroke-width="0.1" id="_new_360_28_1"/>
            <polyline points="78.2945,260.19 84.4819,260.6029" fill="none" stroke="black" stroke-width="0.1" id="_new_360_29_1"/>
            <polyline points="78.3144,263.31 78.2945,260.1909" fill="none" stroke="black" stroke-width="0.1" id="_new_360_30_1"/>
            <polyline points="78.292,263.311 84.5098,262.90659999999997" fill="none" stroke="black" stroke-width="0.1" id="_new_360_31_1"/>
            <polyline points="83.0239,270.321 85.5388,268.66650000000004" fill="none" stroke="black" stroke-width="0.1" id="_new_360_32_1"/>
            <polyline points="84.8752,272.384 86.82600000000001,270.0946" fill="none" stroke="black" stroke-width="0.1" id="_new_360_33_1"/>
            <polyline points="84.8751,272.383 83.0239,270.3203" fill="none" stroke="black" stroke-width="0.1" id="_new_360_34_1"/>
            <polyline points="86.826,270.094 85.5388,268.666" fill="none" stroke="black" stroke-width="0.1" id="_new_360_35_1"/>
            <polyline points="88.058,269.511 89.96830000000001,270.79760000000005" fill="none" stroke="black" stroke-width="0.1" id="_new_360_36_1"/>
            <polyline points="84.2001,274.366 88.058,269.5111" fill="none" stroke="black" stroke-width="0.1" id="_new_360_37_1"/>
            <polyline points="86.7772,276.123 84.20009999999999,274.3658" fill="none" stroke="black" stroke-width="0.1" id="_new_360_38_1"/>
            <polyline points="86.7655,276.142 89.9683,270.7972" fill="none" stroke="black" stroke-width="0.1" id="_new_360_39_1"/>
            <polyline points="88.4087,274.787 89.8647,272.1522" fill="none" stroke="black" stroke-width="0.1" id="_new_360_40_1"/>
            <polyline points="91.0073,275.751 91.6687,272.81669999999997" fill="none" stroke="black" stroke-width="0.1" id="_new_360_41_1"/>
            <polyline points="91.0072,275.751 88.4088,274.7867" fill="none" stroke="black" stroke-width="0.1" id="_new_360_42_1"/>
            <polyline points="91.6687,272.817 89.8647,272.1521" fill="none" stroke="black" stroke-width="0.1" id="_new_360_43_1"/>
            <polyline points="92.4876,271.728 94.7772,271.9778" fill="none" stroke="black" stroke-width="0.1" id="_new_360_44_1"/>
            <polyline points="91.3323,277.82 92.4876,271.7274" fill="none" stroke="black" stroke-width="0.1" id="_new_360_45_1"/>
            <polyline points="94.431,278.176 91.3323,277.82009999999997" fill="none" stroke="black" stroke-width="0.1" id="_new_360_46_1"/>
            <polyline points="94.4297,278.198 94.7772,271.97679999999997" fill="none" stroke="black" stroke-width="0.1" id="_new_360_47_1"/>
            <polyline points="95.2495,276.235 95.3129,273.22540000000004" fill="none" stroke="black" stroke-width="0.1" id="_new_360_48_1"/>
            <polyline points="96.9818,276.011 95.2496,276.23470000000003" fill="none" stroke="black" stroke-width="0.1" id="_new_360_49_1"/>
            <polyline points="97.0016,273.003 95.3129,273.2249" fill="none" stroke="black" stroke-width="0.1" id="_new_360_50_1"/>
            <polygon points="99.6877,243.531 100.189,243.614 100.704,243.603 101.215,243.476 101.706,243.211 100.467,242.751 100.198,243.07 99.9006,243.358" fill="none" stroke="black" stroke-width="0.1" id="_new_361_1"/>
        </g>
        <g id="_tag_410_">
            <g id="_tag_411_">
                <polygon points="112.984,201.022 125.041,208.652 126.185,209.639 127.1,210.93 127.769,212.454 128.177,214.141 128.306,215.922 128.142,217.727 127.667,219.487 126.865,221.131 125.734,222.59 124.328,223.822 122.716,224.8 120.966,225.497 119.147,225.885 117.327,225.938 115.576,225.627 113.962,224.926 111.708,223.586 111.017,223.34 110.242,223.322 109.494,223.521 108.889,223.927 106.555,226.31 105.962,226.777 105.212,227.152 104.348,227.425 103.413,227.582 102.451,227.615 101.506,227.51 100.622,227.257 99.8418,226.845 96.2652,224.362 93.5965,222.603 89.5771,220.739 94.7572,205.065 107.274,195.91 108.138,195.706 109.014,195.662 109.877,195.769 110.7,196.019 111.456,196.404 112.121,196.914 112.666,197.543 113.067,198.28 113.219,198.821 113.288,199.507 113.225,200.266" fill="none" stroke="black" stroke-width="0.1" id="_136396736"/>
                <polyline points="109.829,220.282 108.42169999999999,220.7082 107.42049999999999,221.1775 106.75189999999999,221.69330000000002 106.342,222.25910000000002 106.1171,222.87810000000002 106.00319999999999,223.55400000000003 105.9267,224.29010000000002 105.8137,225.08990000000003" fill="none" stroke="black" stroke-width="0.1" id="_136396424_1"/>
                <polyline points="104.895,214.468 111.02329999999999,205.95669999999998 111.6052,205.12669999999997 112.0439,204.45469999999997 112.36359999999999,203.91169999999997 112.5881,203.46879999999996 112.7414,203.09729999999996 112.8474,202.76819999999995 112.9302,202.45269999999996 113.0136,202.12209999999996" fill="none" stroke="black" stroke-width="0.1" id="_136395920_1"/>
                <polyline points="110.964,208.5 110.8434,208.8592 110.76050000000001,209.1633 110.71260000000001,209.43099999999998 110.6975,209.68159999999997 110.7127,209.93399999999997 110.7557,210.20719999999997 110.824,210.52029999999996 110.9153,210.89239999999995 108.9086,213.65949999999995 108.63770000000001,214.07609999999994 108.45020000000001,214.46339999999995 108.346,214.82209999999995 108.3246,215.15249999999995 108.38600000000001,215.45499999999996 108.52950000000001,215.72989999999996 108.75520000000002,215.97779999999995 109.06260000000002,216.19919999999993 109.06260000000002,216.19919999999993 109.56230000000002,216.31109999999993 110.32710000000002,216.26549999999992 111.24140000000001,216.0795999999999 112.18980000000002,215.77079999999992 113.05640000000002,215.35639999999992 113.72580000000002,214.85369999999992 114.08230000000002,214.28009999999992 114.01030000000002,213.65269999999992" fill="none" stroke="black" stroke-width="0.1" id="_136395472_1"/>
            </g>
            <polygon points="94.411,220.156 94.9135,220.524 95.2607,220.933 95.422,221.334 95.2536,221.809 94.6658,221.959 94.1383,221.861 93.5697,221.608 93.0673,221.241 92.72,220.832 92.5588,220.43 92.7272,219.955 93.3149,219.805 93.8424,219.903" fill="none" stroke="black" stroke-width="0.1" id="_136394768"/>
        </g>
        <polyline points="16.9121,118.463 13.4401,124.41239999999999 10.846799999999998,130.8439 9.156699999999999,137.6658 8.393799999999999,144.78699999999998 8.582799999999999,152.11589999999998 9.748,159.56109999999998 11.913699999999999,167.03119999999998 15.104299999999999,174.4347 15.104299999999999,174.4347 15.897099999999998,175.95409999999998 16.7353,177.46609999999998 17.6194,178.9699 18.5495,180.4648 19.525799999999997,181.9498 20.548599999999997,183.4241 21.6181,184.8869 22.734399999999997,186.3376 22.734399999999997,186.3376 23.9014,187.7794 25.115399999999998,189.2067 26.376799999999996,190.61890000000002 27.685799999999997,192.0149 29.042599999999997,193.394 30.4473,194.7555 31.900399999999998,196.0984 33.4017,197.422 33.4085,197.42329999999998 33.4103,197.42489999999998 35.2307,198.90709999999999 31.9591,200.84539999999998 31.110799999999998,200.0913 31.1086,200.0939 31.1067,200.0923 31.109,200.0897 31.0974,200.0798 31.0859,200.06980000000001 31.074299999999997,200.05990000000003 31.062799999999996,200.05000000000004 31.051299999999994,200.04000000000005 31.039799999999993,200.03010000000006 31.02829999999999,200.02010000000007 31.01669999999999,200.01020000000008 31.01669999999999,200.01020000000008 29.46329999999999,198.6371000000001 27.95999999999999,197.24460000000008 26.50649999999999,195.8332000000001 25.10249999999999,194.40410000000008 23.748099999999987,192.95780000000008 22.442699999999988,191.49540000000007 21.18639999999999,190.01760000000007 19.97869999999999,188.52540000000008 19.97869999999999,188.52540000000008 18.80729999999999,187.00310000000007 17.684699999999992,185.46720000000008 16.61069999999999,183.91850000000008 15.58509999999999,182.35780000000008 14.60749999999999,180.7862000000001 13.677899999999989,179.20450000000008 12.795999999999989,177.61340000000007 11.961699999999988,176.01390000000006 11.961699999999988,176.01390000000006 8.828599999999987,168.84080000000006 6.608899999999988,161.59640000000005 5.282499999999988,154.35510000000005 4.829499999999988,147.19100000000006 5.229999999999988,140.17840000000007 6.463899999999988,133.39160000000007 8.511399999999988,126.90460000000007 11.352299999999987,120.79180000000008" fill="none" stroke="black" stroke-width="0.1" id="_new_356_1_1"/>
        <g id="_152261968">
            <circle cx="89.0355" cy="172.426" r="19.0898" fill="none" stroke="black" stroke-width="0.1" id="center_00"/>
            <g id="_tag_405_">
                <polygon points="49.7817,212.782 51.9578,211.025 47.9358,206.574 45.2795,204.47 44.4614,205.452 40.3047,202.146 41.0705,201.062 40.6949,200.513 40.3714,199.809 40.2307,199.394 40.1052,198.935 39.9953,198.429 39.9017,197.875 37.7444,196.284 37.1145,196.489 36.4165,196.593 35.6435,196.586 35.2267,196.537 34.7884,196.456 30.6205,201.706 30.7983,202.114 30.9402,202.509 31.1226,203.26 31.1796,203.964 31.1228,204.624 33.1614,206.364 33.7226,206.33 34.2401,206.322 34.7159,206.34 35.1516,206.383 35.5492,206.45 36.2368,206.649 37.413,205.788 41.5745,209.088 40.8038,210.107 43.455,212.217 48.7023,215.125" fill="none" stroke="black" stroke-width="0.1" id="_136238328"/>
                <line x1="40.3047" y1="202.146" x2="37.413" y2="205.788" fill="none" stroke="black" stroke-width="0.1" id="_136237848"/>
                <line x1="44.4615" y1="205.451" x2="41.5746" y2="209.087" fill="none" stroke="black" stroke-width="0.1" id="_136237400"/>
                <polyline points="37.7445,196.283 37.375600000000006,196.5133 36.718300000000006,196.87949999999998 35.903600000000004,197.35019999999997 35.06270000000001,197.89409999999998 34.32650000000001,198.47979999999998 33.82600000000001,199.0758 33.69250000000001,199.65079999999998 34.05680000000001,200.17349999999996 36.01940000000001,201.78559999999996 38.28050000000001,203.53659999999996" fill="none" stroke="black" stroke-width="0.1" id="_136237088_1"/>
                <polyline points="42.788,203.23 42.40989999999999,203.6807 42.028999999999996,204.1853 41.6446,204.74530000000001 41.2559,205.3624 40.862199999999994,206.0384 40.46269999999999,206.7748 40.05689999999999,207.5734 39.64379999999999,208.43599999999998" fill="none" stroke="black" stroke-width="0.1" id="_136220824_1"/>
                <polygon points="43.6517,203.894 44.0292,203.754 44.3597,203.994 44.2933,204.463 43.928,204.899 43.5591,205.388 43.1858,205.932 42.8077,206.533 42.419,207.2 42.2227,207.556 42.0249,207.927 41.8256,208.313 41.6246,208.714 41.422,209.132 41.2175,209.565 40.8968,209.808 40.5112,209.673 40.4394,209.205 40.6497,208.759 40.8583,208.33 41.0649,207.917 41.2697,207.52 41.4729,207.139 41.6745,206.774 41.8745,206.424 42.2732,205.765 42.6706,205.161 43.0647,204.613 43.4566,204.12" fill="none" stroke="black" stroke-width="0.1" id="_136220440"/>
                <polygon points="42.4589,202.956 42.8364,202.816 43.1668,203.056 43.1005,203.525 42.7353,203.961 42.3664,204.45 41.9931,204.994 41.6148,205.595 41.2263,206.262 41.03,206.618 40.8321,206.989 40.6328,207.375 40.4319,207.776 40.2291,208.194 40.0246,208.627 39.7039,208.87 39.3185,208.735 39.2466,208.267 39.457,207.821 39.6654,207.392 39.8721,206.979 40.0769,206.582 40.2801,206.201 40.4816,205.836 40.6817,205.486 41.0805,204.827 41.4777,204.223 41.8719,203.675 42.2637,203.182" fill="none" stroke="black" stroke-width="0.1" id="_136219656"/>
                <polygon points="41.2661,202.018 41.6435,201.878 41.974,202.118 41.9077,202.588 41.5424,203.023 41.1735,203.512 40.8002,204.057 40.422,204.657 40.0334,205.324 39.8371,205.68 39.6393,206.051 39.44,206.437 39.239,206.839 39.0364,207.256 38.8319,207.689 38.5112,207.932 38.1257,207.797 38.0537,207.329 38.2641,206.883 38.4727,206.454 38.6792,206.041 38.8841,205.644 39.0872,205.263 39.2889,204.898 39.4889,204.548 39.8876,203.89 40.285,203.285 40.6791,202.737 41.0709,202.245" fill="none" stroke="black" stroke-width="0.1" id="_136219272"/>
                <polygon points="39.9717,202.565 40.9411,201.25 41.0198,201.682 40.7562,202.024 40.3873,202.461 40.0138,202.944 39.6363,203.491 39.2432,204.117 38.7926,204.793 38.5551,205.15 38.3158,205.523 38.0802,205.912 37.8529,206.321 37.6391,206.75 37.3184,206.994 36.8927,206.807" fill="none" stroke="black" stroke-width="0.1" id="_136218888"/>
                <polyline points="37.6,204.343 35.3309,202.76299999999998 33.0257,200.7599 32.6813,200.777 32.3923,201.0325 32.1515,201.4642 31.9511,202.0098 31.784,202.6074 31.642699999999998,203.19490000000002 31.519799999999996,203.71020000000001 31.407899999999998,204.091" fill="none" stroke="black" stroke-width="0.1" id="_136218576_1"/>
            </g>
            <g id="_tag_406_">
                <polygon points="64.2861,204.886 68.3712,204.598 71.9006,211.455 63.5198,208.829" fill="none" stroke="black" stroke-width="0.1" id="_136217800"/>
                <line x1="64.3359" y1="205.867" x2="69.7171" y2="208.648" fill="none" stroke="black" stroke-width="0.1" id="_136217504"/>
            </g>
            <g id="_tag_407_">
                <g id="_tag_408_">
                    <g id="_tag_409_">
                        <polygon points="70.7858,175.373 68.8064,177.936 64.7314,183.63 60.3853,190.138 55.6797,196.533 51.9842,200.318 48.9727,203.933 48.1127,204.986 46.9835,206.95 44.245,210.991 43.0824,212.209 42.634,213.01 42.79,213.904 43.8185,215.259 45.4208,216.564 47.151,217.625 47.8885,217.462 49.3372,215.856 52.4146,211.186 52.779,210.291 53.4196,209.466 54.3337,209.262 55.1687,209.603 62.3097,213.453 63.7054,214.04 65.006,214.171 66.0766,213.949 66.7956,213.451 67.4459,212.782 67.9044,211.937 67.8994,211.155 67.4976,210.421 65.5449,208.147 63.8609,205.871 91.3675,187.523 92.828,187.223 94.2422,186.785 95.6011,186.215 96.8955,185.519 98.1165,184.704 99.2549,183.775 100.302,182.739 101.248,181.601 101.478,181.09 101.443,180.542 100.264,179.654 100.739,179.832 101.223,179.846 101.679,179.707 102.07,179.429 102.361,179.023 102.516,178.502 102.497,177.879 102.27,177.167 101.92,176.361 101.586,175.524 101.267,174.664 100.958,173.791 100.658,172.913 100.362,172.039 100.068,171.177 99.7722,170.337 99.3287,169.226 98.7643,168.112 98.0442,167.021 97.1335,165.983 95.9972,165.025 94.6003,164.175 92.9079,163.462 90.8849,162.914 89.8744,162.762 88.8733,162.722 87.8879,162.788 86.9249,162.955 85.9907,163.218 85.0919,163.571 84.2351,164.008 83.4265,164.526 82.8989,164.899 82.1671,165.42 81.2681,166.067 80.2389,166.818 79.1164,167.652 77.9376,168.548 76.7394,169.485 75.559,170.441 74.753,171.129 74.1057,171.723 73.5677,172.261 73.0893,172.778 72.6214,173.312 72.1146,173.898 71.5191,174.573" fill="none" stroke="black" stroke-width="0.1" id="_136255864"/>
                        <polyline points="68.1509,180.15 68.1206,180.1171 68.2614,179.84359999999998 68.54929999999999,179.3867 68.95939999999999,178.8039 69.46739999999998,178.15279999999998 70.04869999999998,177.49059999999997 70.67899999999999,176.87459999999996 71.33339999999998,176.36249999999995 71.33339999999998,176.36249999999995 71.79339999999998,176.17159999999996 72.33439999999997,176.13289999999995 72.94039999999997,176.21559999999994 73.59519999999996,176.38849999999994 74.28229999999996,176.62069999999994 74.98569999999997,176.88119999999995 75.68899999999996,177.13889999999995 76.37599999999996,177.36299999999994 76.37599999999996,177.36299999999994 76.84559999999996,177.49529999999993 77.26989999999996,177.60679999999994 77.66169999999997,177.70469999999995 78.03389999999997,177.79639999999995 78.39939999999997,177.88929999999993 78.77099999999997,177.99039999999994 79.16169999999997,178.10729999999992 79.58439999999997,178.24709999999993" fill="none" stroke="black" stroke-width="0.1" id="_136254304_1"/>
                        <polyline points="78.7888,174.42 78.55499999999999,173.9836 78.2696,173.4775 77.9326,172.9594 77.54369999999999,172.48639999999997 77.10279999999999,172.11589999999998 76.60969999999999,171.90509999999998 76.06439999999999,171.9114 75.4665,172.19209999999998 75.4665,172.19209999999998 75.4048,172.23069999999998 75.28309999999999,172.30479999999997 75.10569999999998,172.41509999999997 74.87689999999998,172.56229999999996 74.60099999999998,172.74709999999996 74.28229999999998,172.97029999999995 73.92499999999998,173.23259999999996 73.53349999999999,173.53489999999996" fill="none" stroke="black" stroke-width="0.1" id="_136253992_1"/>
                        <polyline points="95.6528,165.347 96.4797,166.22400000000002 97.1904,167.19400000000002 97.7765,168.24470000000002 98.2298,169.36370000000002 98.5418,170.53870000000003 98.70429999999999,171.75710000000004 98.70879999999998,173.00680000000003 98.54709999999999,174.27530000000002 98.54709999999999,174.27530000000002 97.98129999999999,176.1545 97.0799,177.83210000000003 95.8887,179.27740000000003 94.4535,180.45940000000002 92.8199,181.34740000000002 91.0336,181.9105 89.1405,182.1177 87.1862,181.9385 87.1862,181.9385 86.2233,181.7003 85.30709999999999,181.3725 84.44109999999999,180.9609 83.62939999999999,180.471 82.87579999999998,179.9088 82.18419999999999,179.27980000000002 81.55839999999999,178.58990000000003 81.00229999999999,177.84470000000002 81.00229999999999,177.84470000000002 80.6613,177.34310000000002 80.3498,176.88920000000002 80.06230000000001,176.46980000000002 79.7929,176.0714 79.5365,175.6806 79.2873,175.2841 79.0399,174.8686 78.7887,174.42049999999998" fill="none" stroke="black" stroke-width="0.1" id="_136253400_1"/>
                        <polyline points="99.5656,179.456 99.4471,179.63029999999998 99.3258,179.80229999999997 99.2018,179.97209999999998 99.075,180.13959999999997 98.9457,180.30479999999997 98.8138,180.46759999999998 98.6794,180.628 98.5425,180.78609999999998" fill="none" stroke="black" stroke-width="0.1" id="_136253088_1"/>
                        <polyline points="98.5422,180.785 97.66539999999999,181.6857 96.707,182.4931 95.67479999999999,183.2017 94.57719999999999,183.80579999999998 93.42229999999999,184.3002 92.21839999999999,184.67909999999998 90.97359999999999,184.9371 89.69609999999999,185.06879999999998" fill="none" stroke="black" stroke-width="0.1" id="_136252776_1"/>
                        <polyline points="98.2359,178.609 97.2424,179.8754 96.08460000000001,180.97750000000002 94.7844,181.90040000000002 93.364,182.62900000000002 91.8454,183.14870000000002 90.2508,183.4446 88.602,183.5016 86.9212,183.305 86.9212,183.305 86.8601,183.2929 86.7991,183.2805 86.7383,183.2678 86.6775,183.2549 86.61699999999999,183.2415 86.55659999999999,183.2278 86.49619999999999,183.2138 86.43609999999998,183.1996 86.43609999999998,183.1996 85.55279999999998,182.9561 84.69929999999998,182.6911 83.86819999999997,182.4532 83.05259999999997,182.29090000000002 82.24519999999997,182.25250000000003 81.43869999999997,182.38680000000002 80.62619999999997,182.74210000000002 79.80019999999998,183.36700000000002" fill="none" stroke="black" stroke-width="0.1" id="_136904520_1"/>
                        <polygon points="59.7068,209.085 60.2093,209.452 60.5565,209.861 60.7177,210.263 60.5495,210.738 59.9617,210.888 59.4342,210.79 58.8656,210.537 58.363,210.169 58.0159,209.76 57.8547,209.359 58.023,208.883 58.6107,208.734 59.1382,208.832" fill="none" stroke="black" stroke-width="0.1" id="_136904208"/>
                    </g>
                    <polyline points="98.9621,175.643 98.2072,177.1187 97.9916,177.8909 98.0087,178.1968 98.1012,178.4042 100.2091,179.6234 100.9076,180.06980000000001 100.0545,179.92190000000002 99.7149,179.97240000000002 98.7929,181.0697 98.7796,181.46450000000002 99.2016,182.61440000000002 98.7796,181.46450000000002 97.5767,182.60790000000003 96.24470000000001,183.59070000000003 94.8007,184.40120000000002 93.262,185.02810000000002 91.6452,185.46000000000004 89.968,185.68520000000004 88.2472,185.69240000000005 86.49990000000001,185.46990000000005 86.49990000000001,185.46990000000005 85.70870000000001,185.29120000000006 84.93910000000001,185.06820000000005 84.19230000000002,184.80230000000006 83.46950000000001,184.49530000000007 82.77180000000001,184.14880000000008 82.10020000000002,183.76440000000008 81.45590000000001,183.34380000000007 80.84000000000002,182.88860000000008" fill="none" stroke="black" stroke-width="0.1" id="_136903200_1"/>
                </g>
                <polyline points="62.9297,206.293 62.380599999999994,207.4059 62.18299999999999,207.8786 62.32849999999999,208.57850000000002 62.67629999999999,209.049 62.99989999999999,209.4977 63.30589999999999,209.9293 63.601899999999986,210.3479 63.894699999999986,210.7579 64.19159999999998,211.1636 64.49949999999998,211.5694 64.82559999999998,211.9796 65.39079999999998,212.3042 65.85649999999998,212.5795 66.47849999999998,212.5853" fill="none" stroke="black" stroke-width="0.1" id="_136902496_1"/>
                <polyline points="58.219,200.629 58.5098,201.6173 58.7864,202.5435 59.0648,203.4073 59.3611,204.2085 59.6913,204.9467 60.0716,205.62179999999998 60.517999999999994,206.2334 61.04659999999999,206.78119999999998 61.49629999999999,206.9973 61.94239999999999,206.9658" fill="none" stroke="black" stroke-width="0.1" id="_136901992_1"/>
                <polyline points="63.6885,212.279 60.1181,208.0643 58.340399999999995,206.7541 56.6076,205.7164 55.916999999999994,205.5352 55.353699999999996,205.67430000000002 53.5177,207.69410000000002 49.5685,213.8334 48.1983,216.19330000000002 47.743900000000004,217.0055" fill="none" stroke="black" stroke-width="0.1" id="_136901680_1"/>
                <polyline points="46.5014,210.385 47.9023,210.48 49.602999999999994,209.61669999999998 52.0346,206.9262 53.326499999999996,205.42" fill="none" stroke="black" stroke-width="0.1" id="_136901368_1"/>
            </g>
            <polygon points="52.0885,213.658 55.6045,215.634 59.3617,217.509 63.329,219.301 67.4715,221.024 71.754,222.692 76.1416,224.319 80.5991,225.918 85.0917,227.503 86.5076,228.001 87.923,228.5 89.3378,229 90.7514,229.503 92.1635,230.008 93.5738,230.517 94.9818,231.03 96.3871,231.548 96.0221,232.539 94.6438,232.031 93.2528,231.524 91.8509,231.018 90.44,230.514 89.0218,230.01 87.5982,229.506 86.171,229.003 84.742,228.5 80.2313,226.909 75.755,225.303 71.3475,223.668 67.0434,221.991 62.8769,220.256 58.8827,218.45 55.095,216.558 51.5483,214.566" fill="none" stroke="black" stroke-width="0.1" id="_new_355_1"/>
            <g id="_tag_412_">
                <polyline points="109.829,220.282 108.42169999999999,220.7082 107.42049999999999,221.1775 106.75189999999999,221.69330000000002 106.342,222.25910000000002 106.1171,222.87810000000002 106.00319999999999,223.55400000000003 105.9267,224.29010000000002 105.8137,225.08990000000003" fill="none" stroke="black" stroke-width="0.1" id="_136393992_1"/>
                <polyline points="104.895,214.468 111.02329999999999,205.95669999999998 111.6052,205.12669999999997 112.0439,204.45469999999997 112.36359999999999,203.91169999999997 112.5881,203.46879999999996 112.7414,203.09729999999996 112.8474,202.76819999999995 112.9302,202.45269999999996 113.0136,202.12209999999996" fill="none" stroke="black" stroke-width="0.1" id="_136393416_1"/>
                <polygon points="72.0101,181.59 108.083,192.32 110.262,193.257 111.528,194.048 112.859,195.097 113.992,196.459 114.609,197.726 114.669,198.809 114.359,199.808 113.776,200.884 113.427,201.181 112.984,201.022 113.038,200.44 113.037,199.934 112.987,199.489 112.89,199.092 112.573,198.379 112.36,198.034 112.116,197.677 111.458,197.653 109.055,199.901 107.819,201.396 106.828,202.738 106.044,203.968 105.43,205.126 104.948,206.252 104.56,207.385 104.228,208.566 103.914,209.834 103.755,210.615 103.667,211.138 103.586,211.7 103.523,212.263 103.489,212.79 103.493,213.245 103.636,213.909 103.749,214.378 103.852,214.951 103.914,215.583 103.901,216.228 103.78,216.841 103.519,217.377 103.086,217.791 102.574,218.05 101.99,218.231 101.346,218.335 100.659,218.366 99.9428,218.327 99.2118,218.22 98.4811,218.047 97.7653,217.812 95.8368,217.002 95.0921,216.757 94.095,216.941 93.2806,217.337 90.9008,219.016 90.5087,219.582 90.3914,220.285 90.5687,220.959 92.0321,225.428 90.9664,226.836 78.5767,222.536 69.9357,210.253 68.7285,208.102 68.2488,206.35 67.3157,205.981 66.2481,205.765 64.488,206.259 63.3525,206.111 61.93,205.688 60.8121,205.045 59.7566,204.18 59.1937,203.537 58.7376,202.609 58.444,201.218 58.3169,199.764 58.3248,198.45 58.4763,197.39 59.1992,196.118 69.5037,182.988 70.8511,181.827" fill="none" stroke="black" stroke-width="0.1" id="_137273264"/>
                <polygon points="99.2247,213.95 99.8527,214.36 100.399,214.808 100.855,215.281 101.211,215.764 101.458,216.243 101.587,216.703 101.59,217.13 101.457,217.51 101.194,217.814 100.822,218.023 100.358,218.14 99.8203,218.163 99.2244,218.094 98.5874,217.935 97.9265,217.684 97.2585,217.343 96.6305,216.933 96.0842,216.484 95.6287,216.011 95.2728,215.528 95.0255,215.049 94.8961,214.589 94.8931,214.162 95.0259,213.783 95.2893,213.479 95.6613,213.269 96.1248,213.153 96.663,213.129 97.2589,213.197 97.8959,213.358 98.5568,213.608" fill="none" stroke="black" stroke-width="0.1" id="_137273000"/>
                <polygon points="98.6718,214.776 99.0501,215.023 99.3792,215.293 99.868,215.869 100.095,216.435 100.017,216.921 99.634,217.23 99.0305,217.315 98.2879,217.177 97.8897,217.026 97.4873,216.82 97.109,216.573 96.7799,216.303 96.2911,215.727 96.0641,215.162 96.1424,214.676 96.5251,214.366 97.1285,214.282 97.8713,214.42 98.2694,214.571" fill="none" stroke="black" stroke-width="0.1" id="_137272616"/>
                <polygon points="63.3431,201.661 63.9711,202.071 64.5175,202.52 64.973,202.993 65.3289,203.476 65.5761,203.954 65.7057,204.414 65.7086,204.841 65.5758,205.221 65.3123,205.525 64.9405,205.735 64.477,205.851 63.9388,205.875 63.3427,205.806 62.7059,205.646 62.045,205.395 61.377,205.054 60.749,204.644 60.2026,204.196 59.7471,203.723 59.3912,203.24 59.144,202.761 59.0145,202.301 59.0115,201.874 59.1443,201.494 59.4078,201.19 59.7798,200.981 60.2433,200.864 60.7815,200.841 61.3774,200.909 62.0144,201.069 62.6752,201.32" fill="none" stroke="black" stroke-width="0.1" id="_137271952"/>
                <polygon points="62.7902,202.488 63.1686,202.735 63.4976,203.005 63.9864,203.581 64.2134,204.147 64.1353,204.632 63.7525,204.942 63.149,205.026 62.4063,204.888 62.0082,204.737 61.6058,204.532 61.2275,204.285 60.8984,204.015 60.4096,203.439 60.1826,202.873 60.2609,202.387 60.6436,202.078 61.247,201.994 61.9898,202.131 62.3878,202.283" fill="none" stroke="black" stroke-width="0.1" id="_137271568"/>
                <polyline points="74.4673,183.87 77.50319999999999,185.0941 81.17689999999999,186.3572 85.29059999999998,187.62640000000002 89.64649999999999,188.8683 94.04719999999999,190.05010000000001 98.29499999999999,191.13870000000003 102.19229999999999,192.10120000000003 105.54129999999999,192.90440000000004 105.54129999999999,192.90440000000004 106.478,193.13040000000004 107.38759999999999,193.37280000000004 108.20679999999999,193.63750000000005 108.87239999999998,193.93080000000003 109.32119999999999,194.25870000000003 109.48989999999999,194.62730000000002 109.3154,195.04280000000003 108.7345,195.51120000000003 108.7345,195.51120000000003 108.149,195.94330000000002 107.4949,196.5466 106.8075,197.28130000000002 106.1216,198.1074 105.47240000000001,198.9848 104.89470000000001,199.87380000000002 104.42380000000001,200.73430000000002 104.09440000000001,201.52630000000002" fill="none" stroke="black" stroke-width="0.1" id="_137270904_1"/>
                <polyline points="94.5294,209.086 94.6807,209.12310000000002 94.833,209.16080000000002 94.9861,209.19910000000002 95.13999999999999,209.23790000000002 95.29459999999999,209.27730000000003 95.44999999999999,209.31740000000002 95.60609999999998,209.35800000000003 95.76289999999999,209.39930000000004 95.76289999999999,209.39930000000004 96.09449999999998,209.48590000000004 96.51879999999998,209.59510000000003 97.00479999999999,209.72030000000004 97.52159999999999,209.85420000000005 98.03859999999999,209.99030000000005 98.52469999999998,210.12140000000005 98.94899999999998,210.24080000000006 99.28069999999998,210.34150000000005 99.28069999999998,210.34150000000005 99.68399999999998,210.53610000000006 100.09379999999999,210.85070000000007 100.50419999999998,211.26930000000007 100.90939999999998,211.77500000000006 101.30339999999998,212.35140000000007 101.68039999999998,212.98200000000006 102.03439999999998,213.65040000000005 102.35949999999998,214.33970000000005" fill="none" stroke="black" stroke-width="0.1" id="_137270104_1"/>
                <polyline points="72.8897,211.943 75.84060000000001,212.96880000000002 78.5891,214.04960000000003 81.10900000000001,215.04420000000002 83.3743,215.81160000000003 85.3588,216.21070000000003 87.0366,216.10050000000004 88.38130000000001,215.33960000000005 89.367,213.78720000000004" fill="none" stroke="black" stroke-width="0.1" id="_137269528_1"/>
                <polyline points="62.0165,199.037 63.0483,199.2541 64.0288,199.642 64.9384,200.1812 65.7568,200.852 66.4644,201.63490000000002 67.0412,202.51020000000003 67.46730000000001,203.45810000000003 67.7227,204.45920000000004" fill="none" stroke="black" stroke-width="0.1" id="_136134416_1"/>
                <polyline points="69.5101,201.553 71.0783,201.8589 73.2862,202.4224 75.9417,203.1818 78.8528,204.0762 81.82770000000001,205.0441 84.6743,206.0245 87.2007,206.956 89.2149,207.7774" fill="none" stroke="black" stroke-width="0.1" id="_136134032_1"/>
                <polyline points="74.5578,214.456 75.3585,215.0813 76.12920000000001,215.7192 76.91310000000001,216.3605 77.75300000000001,216.9958 78.69200000000001,217.6162 79.7732,218.2122 81.0395,218.775 82.53410000000001,219.29510000000002 82.53410000000001,219.29510000000002 83.5018,219.52910000000003 84.30120000000001,219.61090000000002 84.9688,219.58610000000002 85.5418,219.50000000000003 86.05659999999999,219.39790000000002 86.5503,219.32520000000002 87.05969999999999,219.32750000000001 87.6215,219.4499 87.6215,219.4499 88.1476,219.7373 88.4367,220.14770000000001 88.5667,220.6665 88.6154,221.27890000000002 88.66059999999999,221.96980000000002 88.78009999999999,222.7246 89.0516,223.5284 89.553,224.3664" fill="none" stroke="black" stroke-width="0.1" id="_136133648_1"/>
            </g>
            <g id="_tag_413_">
                <polygon points="76.3014,219.301 76.9558,220.232 76.9835,220.891 81.0646,221.593 82.7502,222.061 84.2997,222.517 85.7785,223.363 86.9125,224.064 88.0134,224.92 88.8622,225.789 90.454,225.938 91.2905,225.162 92.3035,223.828 92.8087,223.425 93.5309,223.41 93.978,223.688 94.3962,224.031 94.5542,224.513 94.63,224.936 94.4775,225.458 94.2918,226.125 93.4868,227.175 92.7349,228.014 91.8867,228.63 91.1321,228.969 90.2888,229.267 89.6354,229.311 88.8956,229.459 88.8091,230.291 88.1947,230.701 87.0821,230.696 80.9292,228.615 76.0467,222.613 75.8279,221.831" fill="none" stroke="black" stroke-width="0.1" id="_136132920"/>
                <polyline points="76.6514,222.699 80.2345,223.3476 82.04209999999999,223.7387 83.92599999999999,224.3922 85.92169999999999,225.5187 87.07139999999998,226.3544 88.04179999999998,227.4415 89.16779999999999,227.41389999999998 90.27679999999998,227.25859999999997 91.48009999999998,226.74889999999996 92.37829999999998,225.76519999999996 93.02079999999998,224.84989999999996 93.37389999999998,224.25439999999998 93.66959999999997,223.9594 94.18699999999997,223.8603" fill="none" stroke="black" stroke-width="0.1" id="_136132640_1"/>
                <g id="_tag_414_">
                    <polygon points="84.45,233.992 83.6862,234.276 83.1664,234.266 82.5789,234.159 81.9422,233.962 81.2742,233.677 80.5934,233.31 79.9179,232.865 79.3798,232.442 78.913,232.01 78.5205,231.574 78.206,231.146 77.9729,230.732 77.8245,230.342 77.7956,229.667 77.9731,229.036 78.1892,228.346 78.4434,227.626 78.7352,226.9 79.0641,226.197 79.4297,225.542 79.8314,224.963 80.2686,224.486 80.6645,224.252 81.1855,224.144 81.8096,224.157 82.5149,224.285 83.2794,224.523 84.0814,224.864 84.8988,225.305 85.7098,225.839 86.4443,226.433 87.0469,227.047 87.5171,227.664 87.8546,228.269 88.059,228.846 88.1301,229.38 88.0674,229.854 87.8708,230.252 87.5994,230.611 87.3091,230.979 86.9871,231.367 86.6204,231.785 86.1963,232.246 85.7017,232.76 85.1239,233.338" fill="none" stroke="black" stroke-width="0.1" id="_136132288"/>
                    <polyline points="77.8095,229.613 77.8365,229.5508 77.8728,229.4906 77.9164,229.4331 77.9657,229.379 78.0184,229.32909999999998 78.0728,229.2841 78.127,229.2448 78.1792,229.212 78.1792,229.212 78.5388,229.0821 78.98079999999999,229.0412 79.49069999999999,229.0857 80.05349999999999,229.2118 80.65479999999998,229.4161 81.27969999999998,229.6947 81.91359999999997,230.044 82.54179999999998,230.46040000000002 82.54179999999998,230.46040000000002 82.95519999999998,230.77810000000002 83.33019999999998,231.10340000000002 83.66459999999998,231.4327 83.95649999999998,231.7619 84.20369999999998,232.0873 84.40409999999999,232.405 84.55559999999998,232.7112 84.65609999999998,233.00189999999998 84.65609999999998,233.00189999999998 84.65969999999999,233.0219 84.66579999999999,233.06519999999998 84.6732,233.12689999999998 84.68029999999999,233.2026 84.68569999999998,233.2875 84.68789999999998,233.3769 84.68579999999999,233.4665 84.67779999999999,233.5513 84.67779999999999,233.5513 84.663,233.6277 84.6433,233.69490000000002 84.6207,233.7527 84.5974,233.8014 84.5757,233.8406 84.5579,233.8706 84.546,233.8913 84.5425,233.9026" fill="none" stroke="black" stroke-width="0.1" id="_136131632_1"/>
                </g>
            </g>
            <polygon points="52.3117,211.341 51.6995,211.958 51.1884,212.596 50.6289,213.335 50.0875,214.085 49.6303,214.756 49.3237,215.261 50.5529,216.46 53.6399,212.528" fill="none" stroke="black" stroke-width="0.1" id="_138190640"/>
            <polygon points="89.0355,164.102 90.7127,164.272 92.275,164.757 93.6888,165.524 94.9207,166.541 95.9372,167.773 96.7047,169.186 97.1898,170.749 97.3589,172.426 97.1898,174.103 96.7047,175.665 95.9372,177.079 94.9207,178.311 93.6888,179.328 92.275,180.095 90.7127,180.58 89.0355,180.749 87.3583,180.58 85.796,180.095 84.3822,179.328 83.1503,178.311 82.1339,177.079 81.3664,175.665 80.8813,174.103 80.7122,172.426 80.8813,170.749 81.3664,169.186 82.1339,167.773 83.1503,166.541 84.3822,165.524 85.796,164.757 87.3583,164.272" fill="none" stroke="black" stroke-width="0.1" id="_new_372_1"/>
            <polygon points="89.0355,166.007 90.3289,166.138 91.5336,166.512 92.6239,167.104 93.5739,167.888 94.3577,168.838 94.9495,169.928 95.3236,171.133 95.454,172.426 95.3236,173.719 94.9495,174.924 94.3577,176.014 93.5739,176.964 92.6239,177.748 91.5336,178.34 90.3289,178.714 89.0355,178.845 87.7421,178.714 86.5374,178.34 85.4472,177.748 84.4972,176.964 83.7134,176.014 83.1216,174.924 82.7475,173.719 82.6171,172.426 82.7475,171.133 83.1216,169.928 83.7134,168.838 84.4972,167.888 85.4472,167.104 86.5374,166.512 87.7421,166.138" fill="none" stroke="black" stroke-width="0.1" id="_new_373_1"/>
            <polygon points="89.0355,168 89.9275,168.089 90.7584,168.347 91.5103,168.756 92.1655,169.296 92.7061,169.951 93.1143,170.703 93.3722,171.534 93.4622,172.426 93.3722,173.318 93.1143,174.149 92.7061,174.901 92.1655,175.556 91.5103,176.097 90.7584,176.505 89.9275,176.763 89.0355,176.853 88.1435,176.763 87.3126,176.505 86.5607,176.097 85.9055,175.556 85.3649,174.901 84.9567,174.149 84.6988,173.318 84.6088,172.426 84.6988,171.534 84.9567,170.703 85.3649,169.951 85.9055,169.296 86.5607,168.756 87.3126,168.347 88.1435,168.089" fill="none" stroke="black" stroke-width="0.1" id="_new_374_1"/>
            <polygon points="89.0355,168.906 89.7448,168.978 90.4055,169.183 91.0034,169.508 91.5243,169.937 91.9542,170.458 92.2787,171.056 92.4839,171.717 92.5554,172.426 92.4839,173.136 92.2787,173.796 91.9542,174.394 91.5243,174.915 91.0034,175.345 90.4055,175.669 89.7448,175.875 89.0355,175.946 88.3262,175.875 87.6656,175.669 87.0677,175.345 86.5467,174.915 86.1168,174.394 85.7923,173.796 85.5871,173.136 85.5156,172.426 85.5871,171.717 85.7923,171.056 86.1168,170.458 86.5467,169.937 87.0677,169.508 87.6656,169.183 88.3262,168.978" fill="none" stroke="black" stroke-width="0.1" id="_new_375_1"/>
        </g>
    </g>
</svg>
