<!DOCTYPE svg PUBLIC "-//W3C//DTD SVG 1.1//EN" "http://www.w3.org/Graphics/SVG/1.1/DTD/svg11.dtd">
<svg xmlns="http://www.w3.org/2000/svg" width="297mm" height="210mm" viewBox="0 0 297 210">
    <defs id="_tag_22_"/>
    <g id="_tag_23_">
        <polygon id="_130029648" cx="85.453" cy="122.607" points="101.3471,122.607 101.26003045717287,124.2683858480224 100.99977578082319,125.91156920502655 100.5691873756468,127.51854701029485 99.97298285831727,129.07171287871108 99.21769437029025,130.55405 98.31159701029486,131.9493175784618 97.26461817062025,133.24222877052833 96.08822877052833,134.41861817062025 94.7953175784618,135.46559701029486 93.40005000000001,136.37169437029024 91.91771287871109,137.12698285831726 90.36454701029486,137.7231873756468 88.75756920502656,138.15377578082317 87.11438584802242,138.41403045717288 85.453,138.5011 83.7916141519776,138.41403045717288 82.14843079497346,138.15377578082317 80.54145298970515,137.7231873756468 78.98828712128893,137.12698285831726 77.50595000000001,136.37169437029024 76.1106824215382,135.46559701029486 74.81777122947167,134.41861817062025 73.64138182937975,133.24222877052833 72.59440298970515,131.9493175784618 71.68830562970976,130.55405000000002 70.93301714168274,129.07171287871108 70.3368126243532,127.51854701029485 69.90622421917682,125.91156920502655 69.64596954282713,124.26838584802242 69.55890000000001,122.607 69.64596954282713,120.9456141519776 69.90622421917682,119.30243079497346 70.3368126243532,117.69545298970515 70.93301714168274,116.14228712128893 71.68830562970976,114.65995000000001 72.59440298970515,113.2646824215382 73.64138182937975,111.97177122947167 74.81777122947167,110.79538182937975 76.1106824215382,109.74840298970514 77.50595,108.84230562970976 78.98828712128892,108.08701714168274 80.54145298970515,107.4908126243532 82.14843079497345,107.06022421917682 83.79161415197758,106.79996954282713 85.453,106.7129 87.11438584802241,106.79996954282713 88.75756920502654,107.06022421917682 90.36454701029486,107.4908126243532 91.91771287871107,108.08701714168274 93.40005,108.84230562970974 94.79531757846179,109.74840298970514 96.08822877052833,110.79538182937975 97.26461817062025,111.97177122947166 98.31159701029486,113.2646824215382 99.21769437029025,114.65995 99.97298285831727,116.14228712128892 100.5691873756468,117.69545298970515 100.99977578082319,119.30243079497345 101.26003045717287,120.94561415197758" fill="none" stroke="black" stroke-width="0.1"/>
        <polygon id="_129596160" points="85.453,107.95 134.53,108.043 151.81,109.834 164.458,113.91 192.875,142.651 198.215,156.933 199.549,169.474 198.543,185.531 191.807,208.125 183.089,222.228 176.89,233.476 170.203,247.144 155.004,266.138 138.972,280.595 122.276,289.739 61.7674,306.795 54.6577,279.033 113.532,262.123 129.585,252.232 140.825,241.49 149.024,227.133 157.029,210.505 165.786,197.012 169.68,182.894 170.786,172.188 167.812,160.668 164.26,154.499 146.783,138.646 140.749,137.375 85.453,137.375 81.3111,136.702 76.0566,133.896 73.1515,130.635 71.6193,127.554 70.7812,123.301 71.4015,118.318 73.9832,113.432 79.199,109.314" fill="none" stroke="black" stroke-width="0.1"/>
        <polygon id="center_00" cx="85.453" cy="122.607" points="100.141,122.607 100.06053759916921,124.14231406847529 99.82003195957815,125.66080691473125 99.42211811134322,127.14584161337923 98.87115568185453,128.58114781349735 98.17318113078584,129.951 97.33584161337923,131.24038978567185 96.36831119661197,132.4351903461989 95.28119034619891,133.52231119661195 94.08638978567186,134.48984161337924 92.79700000000001,135.32718113078585 91.42714781349736,136.02515568185453 89.99184161337924,136.57611811134322 88.50680691473126,136.97403195957813 86.9883140684753,137.2145375991692 85.453,137.295 83.91768593152472,137.2145375991692 82.39919308526876,136.97403195957813 80.91415838662077,136.57611811134322 79.47885218650265,136.02515568185453 78.10900000000001,135.32718113078585 76.81961021432816,134.48984161337924 75.6248096538011,133.52231119661198 74.53768880338804,132.4351903461989 73.57015838662078,131.24038978567185 72.73281886921417,129.951 72.03484431814549,128.58114781349735 71.48388188865678,127.14584161337923 71.08596804042186,125.66080691473125 70.8454624008308,124.1423140684753 70.765,122.607 70.8454624008308,121.07168593152471 71.08596804042186,119.55319308526876 71.48388188865678,118.06815838662078 72.03484431814547,116.63285218650265 72.73281886921417,115.263 73.57015838662078,113.97361021432816 74.53768880338804,112.77880965380109 75.6248096538011,111.69168880338803 76.81961021432815,110.72415838662077 78.109,109.88681886921417 79.47885218650264,109.18884431814548 80.91415838662077,108.63788188865678 82.39919308526875,108.23996804042186 83.9176859315247,107.9994624008308 85.453,107.919 86.98831406847529,107.9994624008308 88.50680691473124,108.23996804042186 89.99184161337922,108.63788188865678 91.42714781349736,109.18884431814547 92.797,109.88681886921415 94.08638978567184,110.72415838662077 95.28119034619891,111.69168880338803 96.36831119661196,112.77880965380108 97.33584161337923,113.97361021432815 98.17318113078584,115.26299999999999 98.87115568185452,116.63285218650263 99.42211811134322,118.06815838662077 99.82003195957815,119.55319308526875 100.06053759916921,121.0716859315247" fill="none" stroke="black" stroke-width="0.1"/>
        <polygon id="simplify_10" points="241.39,170.566 243.885,166.462 246.403,163.867 249.711,161.569 250.511,160.406 253.257,158.917 255.582,156.988 257.397,154.932 258.216,151.878 258.52,148.536 258.411,144.608 257.86,140.242 256.82,135.356 255.802,132.642 254.431,129.704 253.305,128.357 251.651,126.79 250.149,125.368 248.721,123.91 231.685,116.223 246.666,113.847 255.94,120.623 265.899,136.105 268.176,152.529 264.188,163.305 264.119,172.905 263.958,182.397 263.918,188.823 263.325,191.163 261.608,193.162 260.024,194.522 256.185,196.344 253.941,197.271 250.875,198.507 248.615,199.301 246.451,199.372 245.036,199.15 243.695,198.62 242.695,197.864 241.444,195.953 240.354,191.717 240.046,187.913 239.911,183.368 240.182,178.208 240.817,173.433" fill="none" stroke="black" stroke-width="0.1"/>
        <polygon id="simplify_11" points="253.049,71.37 242.161,116.222 250.159,117.951 252.906,119.707 256.783,123.452 258.652,126.375 260.293,130.244 261.286,132.525 262.389,136.482 263.496,141.171 264.375,145.611 265.251,152.508 265.713,159.184 266.515,163.693 266.354,168.695 266.322,174.118 266.693,179.731 266.931,185.204 267.443,190.727 267.952,195.961 268.626,201.582 269.077,205.164 269.8,208.366 270.475,211.343 271.648,214.81 273.402,218.367 275.861,221.638 278.216,224.03 280.871,226.309 283.533,228.325 286.17,229.987 288.871,231.106 290.138,231.137 291.151,230.703 291.912,230.011 292.742,228.237 292.443,226.65 290.744,224.488 288.431,222.286 285.401,219.122 283.126,216.446 281.493,213.418 279.856,209.367 279.074,206.287 277.922,201.468 277.453,194.057 276.627,185.013 276.155,174.154 275.223,164.809 274.48,155.891 273.58,148.245 272.462,140.723 270.812,134.463 269.12,127.339 268.028,123.141 266.546,119.186 264.376,115.388 263.284,113.075 262.018,110.749 261.287,107.729 260.885,103.86 260.636,97.4965 260.138,87.6272 259.861,78.917 259.51,77.1822 258.665,75.7345 257.303,74.8589" fill="none" stroke="black" stroke-width="0.1"/>
        <polygon id="simplify_12" points="140.435,105.79 139.544,107.87 141.929,115.837 148.57,123.846 159.094,132.825 172.169,142.665 186.163,150.887 191.851,153.454 198.381,156.29 200.159,153.98 201.127,151.07 203.799,151.206 206.89,149.593 216.462,142.246 224.774,136.622 229.27,134.078 231.848,132.803 232.385,130.444 230.578,127.549 229.731,124.59 230.314,122.661 239.187,104.396 249.455,71.0799 249.468,61.4967 245.006,57.4479 242.113,56.3521 239.348,55.689 236.344,55.8344 233.907,56.489 231.073,57.4359 228.024,59.4848 225.268,62.165 223.068,65.6174 220.265,73.7007 216.18,84.3315 213.806,88.8608 210.592,91.7916 207.443,94.7335 200.895,97.95 186.706,100.212 170.697,101.934 149.642,103.844 143.642,104.327" fill="none" stroke="black" stroke-width="0.1"/>
        <polygon id="simplify_13" points="252.914,105.35 252.488,109.444 252.127,110.801 251.214,112.74 249.981,114.617 248.121,116.109 245.479,117.622 230.314,122.661 249.437,61.5899 254.51,70.6052" fill="none" stroke="black" stroke-width="0.1"/>
        <polygon id="simplify_14" points="247.283386799,107.56032950890001 247.32711929560418,107.95320474569999 247.32954557625754,108.34849906151047 247.29063905812149,108.74188152908677 247.21082600915048,109.12904216779353 247.09098087781098,109.50573916465453 246.9324167124411,109.86784534854324 246.7368707752184,110.21139340833338 246.50648550835163,110.53261935958984 246.24378506103585,110.82800378356981 245.95164763434545,111.09431038671099 245.63327394706093,111.32862145814111 245.29215216792414,111.52836983672887 244.93201969853166,111.69136703743841 244.55682222558067,111.8158272288294 244.1706704911,111.900386799 243.7777952543,111.9441192956042 243.38250093848953,111.94654557625755 242.98911847091324,111.90763905812152 242.60195783220647,111.8278260091505 242.22526083534547,111.70798087781098 241.86315465145674,111.54941671244113 241.51960659166662,111.35387077521841 241.19838064041014,111.12348550835166 240.90299621643018,110.86078506103588 240.636689613289,110.56864763434548 240.40237854185887,110.25027394706095 240.20263016327112,109.90915216792418 240.03963296256157,109.54901969853168 239.91517277117057,109.1738222255807 239.83061320099998,108.7876704911 239.7868807043958,108.39479525430002 239.78445442374243,107.99950093848955 239.8233609418785,107.60611847091324 239.9031739908495,107.21895783220648 240.023019122189,106.84226083534548 240.18158328755888,106.48015465145677 240.37712922478158,106.13660659166663 240.60751449164835,105.81538064041017 240.87021493896412,105.5199962164302 241.16235236565453,105.25368961328903 241.48072605293905,105.0193785418589 241.82184783207583,104.81963016327114 242.18198030146831,104.6566329625616 242.5571777744193,104.53217277117061 242.94332950889998,104.44761320100001 243.33620474569997,104.40388070439583 243.73149906151045,104.40145442374246 244.12488152908674,104.4403609418785 244.5120421677935,104.52017399084951 244.8887391646545,104.64001912218903 245.25084534854324,104.79858328755888 245.59439340833336,104.9941292247816 245.9156193595898,105.22451449164835 246.2110037835698,105.48721493896413 246.47731038671097,105.77935236565453 246.7116214581411,106.09772605293905 246.91136983672885,106.43884783207584 247.0743670374384,106.79898030146833 247.1988272288294,107.1741777744193" fill="none" stroke="black" stroke-width="0.1"/>
        <polyline id="simplify_SVG__000021" points="147.82,103.991 148.736,106.165 152.323,110.116 161.244,118.163 170.688,124.977 175.411,126.82 178.656,126.257 214.443,106.87 215.833,104.944 216.205,102.618 216.271,95.5201 215.467,91.7581 214.41,87.7087" fill="none" stroke="black" stroke-width="0.1"/>
        <polyline id="simplify_SVG__000022" points="206.89,149.593 202.863,146.69 227.974,129.848 229.27,134.078" fill="none" stroke="black" stroke-width="0.1"/>
        <polygon id="simplify_17" points="245.87592476799998,107.7921131841 245.903139497496,108.03659884246733 245.90464943169616,108.2825898966696 245.88043802744545,108.52739121724008 245.8307705499554,108.76832070968261 245.75619116650293,109.00273870006025 245.6575169844199,109.22807685581532 245.53582909869417,109.4418663249583 245.3924607472665,109.64176478532696 245.22898270379696,109.82558210755803 245.04718606793975,109.99130435060295 244.8490626416807,110.13711582688725 244.63678310673788,110.2614189953638 244.4126732421185,110.36285196450662 244.17918844239736,110.4403034134796 243.9388868159,110.49292476800001 243.69440115753267,110.520139497496 243.4484101033304,110.52164943169619 243.20360878275991,110.49743802744547 242.96267929031737,110.44777054995541 242.72826129993973,110.37319116650295 242.50292314418468,110.27451698441995 242.2891336750417,110.1528290986942 242.08923521467304,110.00946074726654 241.90541789244196,109.84598270379699 241.73969564939705,109.66418606793975 241.59388417311274,109.4660626416807 241.4695810046362,109.2537831067379 241.36814803549336,109.02967324211852 241.2906965865204,108.79618844239737 241.238075232,108.55588681590001 241.21086050250398,108.31140115753269 241.20935056830382,108.06541010333041 241.23356197255453,107.82060878275993 241.2832294500446,107.5796792903174 241.35780883349705,107.34526129993976 241.45648301558006,107.1199231441847 241.5781709013058,106.90613367504172 241.72153925273344,106.70623521467306 241.88501729620302,106.52241789244198 242.06681393206023,106.35669564939707 242.2649373583193,106.21088417311276 242.4772168932621,106.08658100463622 242.70132675788147,105.9851480354934 242.93481155760261,105.90769658652042 243.17511318409998,105.855075232 243.4195988424673,105.82786050250401 243.6655898966696,105.82635056830384 243.91039121724006,105.85056197255454 244.1513207096826,105.9002294500446 244.38573870006024,105.97480883349706 244.6110768558153,106.07348301558007 244.82486632495826,106.19517090130581 245.02476478532694,106.33853925273347 245.20858210755802,106.50201729620302 245.37430435060293,106.68381393206026 245.52011582688723,106.88193735831932 245.64441899536376,107.09421689326211 245.7458519645066,107.3183267578815 245.82330341347958,107.55181155760265" fill="none" stroke="black" stroke-width="0.1"/>
        <g id="simplify_19_1">
            <polygon class="fil1 str2" id="simplify_19___0" points="184.027,122.952 184.0242642578125,122.9511521484375 184.02142656249998,122.9501296875 184.01855371093748,122.9489642578125 184.0157125,122.9476875 184.01296972656252,122.94633105468749 184.0103921875,122.9449265625 184.00804667968748,122.94350566406249 184.006,122.9421 184.006,122.9421 183.4073267578125,123.2626171875 182.80860781250001,123.583275 182.2098443359375,123.90404531249999 181.6110375,124.22489999999999 181.0121884765625,124.54581093750001 180.4132984375,124.86675 179.8143685546875,125.1876890625 179.2154,125.5086 179.2154,125.5086 179.21307617187497,125.50337753906251 179.210571875,125.4983390625 179.207950390625,125.4934529296875 179.20527499999997,125.4886875 179.202608984375,125.48401113281251 179.200015625,125.4793921875 179.19755820312497,125.4747990234375 179.19529999999997,125.4702 179.19529999999997,125.4702 179.18923906249995,125.42950878906251 179.16846875,125.3295640625 179.13754531249998,125.1888216796875 179.10102499999996,125.0257375 179.0634640625,124.85876738281252 179.02941874999996,124.7063671875 179.0034453125,124.58699277343752 178.99009999999998,124.51910000000001 178.99009999999998,124.51910000000001 179.46199589843746,124.26505917968751 179.93386718749997,124.01107343750002 180.4056892578125,123.7571603515625 180.87743749999998,123.5033375 181.3490873046875,123.2496224609375 181.8206140625,122.9960328125 182.2919931640625,122.7425861328125 182.76319999999998,122.48930000000001 182.76319999999998,122.48930000000001 182.68942636718748,122.17385253906251 182.6337734375,121.9364390625 182.59341816406248,121.76551542968751 182.56553749999998,121.64953750000001 182.54730839843748,121.57696113281251 182.5359078125,121.53624218750002 182.52851269531246,121.5158365234375 182.52229999999997,121.50420000000001 182.52229999999997,121.50420000000001 182.050424609375,121.75467714843751 181.57860312499997,122.0050546875 181.10684257812497,122.25536425781252 180.63514999999995,122.5056375 180.16353242187498,122.75590605468751 179.69199687499997,123.00620156250001 179.220550390625,123.2565556640625 178.74919999999997,123.507 178.74919999999997,123.507 178.68466210937498,123.243940234375 178.61693437499997,122.98012812500001 178.550233203125,122.71543945312501 178.48877499999998,122.44975000000001 178.43677617187498,122.18293554687502 178.398453125,121.91487187500002 178.37802226562496,121.64543476562501 178.37969999999999,121.37450000000001 178.37969999999999,121.37450000000001 178.3920048828125,121.34571640625 178.3996703125,121.31534375000001 178.4044974609375,121.28409921875001 178.40828749999997,121.2527 178.41284160156246,121.22186328125001 178.41996093749998,121.19230625 178.4314466796875,121.16474609375001 178.4491,121.13990000000001 178.4491,121.13990000000001 178.45665371093747,121.115823828125 178.46229843749995,121.097440625 178.46627207031247,121.08361835937501 178.46881249999998,121.07322500000001 178.4701576171875,121.06512851562502 178.47054531249998,121.05819687500002 178.4702134765625,121.05129804687502 178.46939999999998,121.04330000000002 178.46939999999998,121.04330000000002 178.4806404296875,121.02825019531252 178.4964734375,121.00275781250002 178.51504160156247,120.97032089843752 178.53448749999995,120.9344375 178.5529537109375,120.8986056640625 178.56858281249998,120.86632343750001 178.5795173828125,120.84108886718752 178.58389999999997,120.82640000000002 178.58389999999997,120.82640000000002 178.58597499999996,120.82596425781253 178.58806875,120.82550156250002 178.59017187499998,120.82504121093753 178.59227499999997,120.82461250000003 178.59436874999997,120.82424472656253 178.59644375,120.82396718750002 178.59849062499998,120.82380917968752 178.60049999999998,120.82380000000002 178.60049999999998,120.82380000000002 178.668298828125,120.73147910156251 178.73884687499998,120.64645781250002 178.812446484375,120.56752324218752 178.88939999999997,120.49346250000002 178.97000976562498,120.42306269531252 179.05457812499998,120.35511093750003 179.143407421875,120.28839433593753 179.2368,120.22170000000003 179.2368,120.22170000000003 179.23758710937497,120.22288632812503 179.23837187499998,120.22417812500002 179.239151953125,120.22554960937502 179.239925,120.22697500000002 179.240688671875,120.22842851562503 179.241440625,120.22988437500004 179.242178515625,120.23131679687502 179.2429,120.23270000000002 179.2429,120.23270000000002 179.5700556640625,120.05776347656251 179.8971703125,119.88277656250001 180.2242779296875,119.70777324218753 180.55141249999997,119.53278750000003 180.8786080078125,119.35785332031251 181.2058984375,119.18300468750003 181.5333177734375,119.00827558593753 181.8609,118.83370000000002 181.8609,118.83370000000002 181.86027578124998,118.83245429687503 181.8596,118.83112187500001 181.85886796875,118.82970976562503 181.85807499999999,118.82822500000002 181.85721640625,118.82667460937502 181.85628749999998,118.82506562500002 181.85528359375,118.82340507812502 181.8542,118.82170000000002 181.8542,118.82170000000002 182.141783203125,118.66845253906251 182.429284375,118.51510781250002 182.716705859375,118.36169980468752 183.00404999999998,118.20826250000002 183.29131914062498,118.05482988281251 183.57851562499997,117.90143593750003 183.86564179687497,117.74811464843752 184.15269999999998,117.59490000000002 184.15269999999998,117.59490000000002 184.1562009765625,117.60247128906254 184.1596515625,117.61003906250002 184.16304824218747,117.61760917968752 184.16638749999998,117.62518750000002 184.16966582031247,117.63277988281253 184.17287968749997,117.64039218750003 184.17602558593748,117.64803027343753 184.17909999999998,117.65570000000002 184.17909999999998,117.65570000000002 184.20499296875,117.77270800781253 184.230975,117.88967031250002 184.25701328124998,118.00660683593753 184.283075,118.12353750000003 184.30912734375,118.24048222656253 184.33513749999997,118.35746093750004 184.36107265624997,118.47449355468753 184.38689999999997,118.59160000000003 184.38689999999997,118.59160000000003 183.92780878906248,118.83837187500004 183.46863906249996,119.08531250000003 183.00943417968745,119.33238437500002 182.55023749999998,119.57955000000003 182.0910923828125,119.82677187500003 181.63204218749996,120.07401250000004 181.17313027343747,120.32123437500003 180.71439999999996,120.56840000000003 180.71439999999996,120.56840000000003 180.73909960937496,120.67400781250002 180.76383437499996,120.77975625000003 180.78858320312497,120.88560781250003 180.81332499999996,120.99152500000004 180.83803867187495,121.09747031250002 180.86270312499994,121.20340625000003 180.88729726562494,121.30929531250001 180.91179999999994,121.41510000000002 180.91179999999994,121.41510000000002 181.37059238281242,121.17144687500003 181.82948906249993,120.92777500000003 182.28848183593743,120.68410312500004 182.74756249999996,120.44045000000003 183.20672285156243,120.19683437500002 183.66595468749995,119.95327500000003 184.12524980468746,119.70979062500002 184.58459999999994,119.46640000000002 184.58459999999994,119.46640000000002 184.58728535156246,119.46989550781252 184.59001406249993,119.47347656250003 184.59278261718745,119.47713496093752 184.59558749999997,119.48086250000003 184.59842519531244,119.48465097656253 184.60129218749995,119.48849218750003 184.60418496093743,119.49237792968752 184.60709999999995,119.49630000000002 184.60709999999995,119.49630000000002 184.62035957031244,119.56356914062502 184.63397656249992,119.62979062500003 184.65190839843743,119.71231054687502 184.67811249999994,119.82847500000003 184.71654628906245,119.99563007812502 184.77116718749994,120.23112187500003 184.84593261718746,120.552296484375 184.94479999999996,120.97650000000002 184.94479999999996,120.97650000000002 184.95159257812495,121.03525644531251 184.95839687499995,121.09393906250003 184.96521523437497,121.15256777343753 184.97204999999997,121.21116250000003 184.97890351562495,121.26974316406252 184.98577812499997,121.32832968750002 184.99267617187496,121.3869419921875 184.99959999999996,121.44560000000001 184.99959999999996,121.44560000000001 184.99439023437495,121.46665351562503 184.98782812499996,121.51472812500002 184.98057695312497,121.58080742187501 184.97329999999997,121.65587500000002 184.96666054687495,121.73091445312502 184.96132187499995,121.79690937500001 184.95794726562497,121.84484335937502 184.95719999999997,121.86570000000002 184.95719999999997,121.86570000000002 184.94717011718748,121.87836132812502 184.93778593749997,121.89545937500003 184.92928066406247,121.91570273437502 184.92188749999997,121.93780000000001 184.91583964843747,121.96045976562502 184.91137031249997,121.98239062500002 184.9087126953125,122.00230117187502 184.90809999999996,122.01890000000002 184.90809999999996,122.01890000000002 184.90561093749994,122.01907226562501 184.90335624999994,122.01922812500001 184.90127968749997,122.01938867187502 184.89932499999998,122.01957500000002 184.89743593749995,122.01980820312501 184.89555624999997,122.02010937500003 184.89362968749995,122.02049960937502 184.89159999999995,122.02100000000002 184.89159999999995,122.02100000000002 184.88895664062497,122.03747148437502 184.88650312499996,122.05200937500001 184.88379179687496,122.065061328125 184.88037499999996,122.07707500000001 184.87580507812496,122.08849804687502 184.86963437499995,122.09977812500001 184.861415234375,122.11136289062502 184.85069999999996,122.12370000000001 184.85069999999996,122.12370000000001 184.85032695312495,122.14495234375 184.84411562499997,122.16389375000001 184.83387773437497,122.18125078125 184.82142499999998,122.19775000000001 184.80856914062497,122.21411796875 184.79712187499996,122.23108125 184.78889492187494,122.24936640625002 184.78569999999996,122.26970000000001 184.78569999999996,122.26970000000001 184.78352695312498,122.26970000000001 184.78136562499995,122.26983125000001 184.77922773437498,122.27006562500002 184.77712499999996,122.270375 184.77506914062496,122.27073125000001 184.77307187499997,122.27110625 184.77114492187494,122.27147187500002 184.76929999999996,122.27180000000001 184.76929999999996,122.27180000000001 184.70757695312494,122.3624767578125 184.63975312499997,122.44935781250001 184.56634648437495,122.53214433593752 184.48787499999995,122.61053750000002 184.40485664062496,122.68423847656251 184.31780937499997,122.75294843750001 184.22725117187494,122.81636855468751 184.13369999999995,122.87420000000002 184.13369999999995,122.87420000000002 184.13448437499994,122.87611113281251 184.13545624999995,122.87803281250001 184.13656874999995,122.87998496093752 184.13777499999995,122.88198750000001 184.13902812499995,122.88406035156251 184.14028124999996,122.88622343750002 184.14148749999995,122.8884966796875 184.14259999999996,122.89090000000002 184.14259999999996,122.89090000000002 184.12778496093745,122.89868925781252 184.11310468749994,122.90650781250002 184.09854394531246,122.91431933593752 184.08408749999995,122.92208750000003 184.06972011718744,122.92977597656251 184.05542656249995,122.93734843750002 184.04119160156247,122.94476855468751 184.02699999999996,122.95200000000001" fill="none" stroke="black" stroke-width="0.1"/>
            <polygon class="fil1 str2" id="simplify_19___1" points="186.82679999999996,121.45600000000002 186.82542597656246,121.45410488281252 186.82415156249996,121.45216406250003 186.82297324218746,121.45016933593752 186.82188749999997,121.44811250000001 186.82089082031248,121.44598535156251 186.81997968749997,121.44377968750001 186.81915058593745,121.44148730468751 186.81839999999997,121.43910000000001 186.81839999999997,121.43910000000001 186.73805878906245,121.4814154296875 186.65777031249996,121.52374843750002 186.57754980468746,121.56607910156251 186.49741249999997,121.60838750000002 186.41737363281246,121.6506537109375 186.33744843749997,121.69285781250001 186.25765214843747,121.73497988281252 186.17799999999997,121.77700000000002 186.17799999999997,121.77700000000002 186.17472617187497,121.77099765625002 186.17162812499998,121.76505625000001 186.16866601562498,121.75916171875002 186.1658,121.75330000000001 186.16299023437497,121.74745703125001 186.16019687499994,121.74161875000001 186.15738007812496,121.73577109375002 186.15449999999996,121.72990000000001 186.15449999999996,121.72990000000001 186.04707363281247,121.27978339843752 185.93770781249998,120.82921093750002 185.82784746093745,120.37818613281252 185.71893749999998,119.92671250000001 185.61242285156246,119.47479355468751 185.50974843749995,119.02243281250001 185.41235917968746,118.56963378906251 185.32169999999996,118.11640000000001 185.32169999999996,118.11640000000001 185.31810937499995,118.06797851562501 185.31359999999995,118.00943437500003 185.30946562499997,117.94439804687502 185.30699999999996,117.87650000000002 185.30749687499994,117.80937070312501 185.31224999999995,117.74664062500001 185.32255312499996,117.69194023437501 185.33969999999997,117.64890000000001 185.33969999999997,117.64890000000001 185.34041757812497,117.62914492187501 185.34371562499996,117.60669687500001 185.34894960937498,117.58176914062501 185.35547499999996,117.55457500000001 185.362647265625,117.52532773437501 185.36982187499996,117.49424062500002 185.37635429687495,117.461526953125 185.38159999999996,117.4274 185.38159999999996,117.4274 185.38385234375,117.42639453125001 185.38611874999995,117.42533750000001 185.38841328124997,117.42424296875001 185.39074999999997,117.423125 185.39314296874997,117.42199765625001 185.39560625,117.420875 185.39815390624997,117.41977109375 185.40079999999998,117.4187 185.40079999999998,117.4187 185.40429960937496,117.4029013671875 185.407834375,117.3872234375 185.41142070312497,117.3716556640625 185.41507499999997,117.3561875 185.41881367187497,117.3408083984375 185.42265312499995,117.3255078125 185.426609765625,117.3102751953125 185.43069999999997,117.2951 185.43069999999997,117.2951 185.43247207031249,117.29496757812501 185.4343390625,117.294809375 185.43630214843745,117.29464648437501 185.43836249999998,117.29450000000001 185.4405212890625,117.29439101562501 185.44277968749998,117.294340625 185.4451388671875,117.294369921875 185.44759999999997,117.2945 185.44759999999997,117.2945 185.44834726562496,117.2874681640625 185.44922812499996,117.2804140625 185.45022617187496,117.2733623046875 185.45132499999997,117.2663375 185.45250820312498,117.2593642578125 185.45375937499998,117.25246718750002 185.45506210937498,117.24567089843751 185.45639999999997,117.239 185.45639999999997,117.239 185.458361328125,117.23849179687501 185.46040937499998,117.238084375 185.462527734375,117.237766015625 185.46469999999997,117.237525 185.466909765625,117.237349609375 185.46914062499997,117.237228125 185.47137617187497,117.237148828125 185.47359999999998,117.2371 185.47359999999998,117.2371 185.48947460937498,117.20497558593749 185.50139062499997,117.1805796875 185.50989882812496,117.1625283203125 185.51554999999996,117.14943749999999 185.518894921875,117.1399232421875 185.52048437499997,117.13260156249999 185.52086914062497,117.1260884765625 185.52059999999997,117.119 185.52059999999997,117.119 185.52255390624995,117.118783984375 185.52464374999997,117.11858437499998 185.52683671875,117.118398828125 185.52909999999997,117.118225 185.53140078124997,117.118060546875 185.53370624999997,117.117903125 185.53598359375,117.11775039062499 185.53819999999996,117.1176 185.53819999999996,117.1176 185.57537636718746,117.06001230468749 185.60357968749997,117.0165984375 185.62438378906248,116.9851822265625 185.63936249999998,116.96358749999999 185.65008964843747,116.9496380859375 185.65813906249997,116.9411578125 185.66508457031247,116.9359705078125 185.67249999999996,116.9319 185.67249999999996,116.9319 185.67220097656246,116.9295365234375 185.67188906249996,116.9271296875 185.67154199218746,116.9247298828125 185.67113749999996,116.9223875 185.67065332031245,116.9201529296875 185.67006718749997,116.91807656249999 185.6693568359375,116.9162087890625 185.66849999999997,116.9146 185.66849999999997,116.9146 185.67218652343746,116.911734375 185.67582968749997,116.90911249999999 185.67944238281245,116.906696875 185.68303749999995,116.90445 185.68662792968746,116.90233437499998 185.69022656249996,116.9003125 185.69384628906246,116.89834687499999 185.69749999999996,116.8964 185.69749999999996,116.8964 185.73461367187497,116.848815234375 185.77810937499996,116.802353125 185.82623164062494,116.757226953125 185.87722499999995,116.71365 185.92933398437498,116.671835546875 185.98080312499997,116.631996875 186.02987695312498,116.594347265625 186.07479999999995,116.5591 186.07479999999995,116.5591 186.58570449218746,116.28637480468751 187.0965609375,116.01368593749999 187.60739628906248,115.74105097656249 188.11823749999996,115.4684875 188.62911152343744,115.1960130859375 189.14004531249995,114.92364531249999 189.65106582031245,114.65140175781251 190.16219999999996,114.3793 190.16219999999996,114.3793 190.18671874999995,114.3730669921875 190.22126874999995,114.3662609375 190.26212812499995,114.35883378906249 190.30557499999998,114.3507375 190.34788749999996,114.3419240234375 190.38534374999995,114.3323453125 190.41422187499995,114.32195332031249 190.43079999999995,114.3107 190.43079999999995,114.3107 190.43253085937494,114.312615234375 190.43414687499995,114.314471875 190.43568320312497,114.316286328125 190.43717499999997,114.318075 190.43865742187495,114.31985429687501 190.44016562499996,114.32164062499999 190.44173476562494,114.323450390625 190.44339999999994,114.3253 190.44339999999994,114.3253 190.46009257812494,114.32131699218749 190.47381562499993,114.3183921875 190.48628710937496,114.31644941406249 190.49922499999997,114.31541250000001 190.51434726562493,114.3152052734375 190.53337187499994,114.3157515625 190.55801679687494,114.3169751953125 190.58999999999995,114.3188 190.58999999999995,114.3188 190.59076621093746,114.3170859375 190.59170468749994,114.31545625 190.59280019531244,114.3138921875 190.59403749999996,114.312375 190.59540136718743,114.31088593749999 190.59687656249994,114.30940625 190.59844785156244,114.3079171875 190.60009999999994,114.3064 190.60009999999994,114.3064 190.61439980468745,114.3133818359375 190.62768593749996,114.31684218749999 190.64031347656245,114.3178908203125 190.65263749999994,114.31763749999999 190.66501308593746,114.31719199218749 190.67779531249994,114.3176640625 190.69133925781244,114.3201634765625 190.70599999999993,114.3258 190.70599999999993,114.3258 190.75615468749996,114.3328275390625 190.81171874999995,114.34092031249999 190.87040468749993,114.35084355468749 190.92992499999994,114.3633625 190.98799218749994,114.3792423828125 191.04231874999994,114.3992484375 191.09061718749993,114.4241458984375 191.13059999999993,114.4547 191.13059999999993,114.4547 191.16292382812495,114.46070390625 191.20257187499993,114.4814125 191.24680898437492,114.51277109375 191.29289999999995,114.550725 191.33810976562492,114.59121953125 191.37970312499993,114.63019999999999 191.41494492187493,114.66361171874999 191.44109999999992,114.6874 191.44109999999992,114.6874 191.4720128906249,114.73007265625 191.5014468749999,114.773575 191.52961992187494,114.81780859374999 191.5567499999999,114.862675 191.58305507812491,114.90807578125 191.6087531249999,114.9539125 191.63406210937492,115.00008671875 191.6591999999999,115.0465 191.6591999999999,115.0465 191.67651054687494,115.1045078125 191.69394062499993,115.16633125 191.71632539062492,115.25143281249998 191.74849999999992,115.37927499999999 191.79529960937492,115.5693203125 191.86155937499993,115.84103124999999 191.95211445312492,116.21387031249998 192.0717999999999,116.70729999999999 192.0717999999999,116.70729999999999 191.89597968749993,116.80033398437499 191.72013124999992,116.89336562499997 191.54427343749992,116.98640195312498 191.36842499999992,117.07944999999998 191.1926046874999,117.17251679687499 191.01683124999994,117.26560937499998 190.84112343749993,117.35873476562499 190.66549999999992,117.4519 190.66549999999992,117.4519 190.66948242187493,117.45924804687499 190.67260937499992,117.46469062499999 190.67515039062494,117.46841289062499 190.67737499999993,117.47059999999999 190.6795527343749,117.47143710937499 190.68195312499992,117.471109375 190.68484570312492,117.469801953125 190.68849999999992,117.4677 190.68849999999992,117.4677 190.7481927734374,117.48424453125 190.8070359374999,117.50544375 190.86535175781242,117.52970859375 190.9234624999999,117.55545 190.9816904296874,117.58107890624999 191.0403578124999,117.60500625 191.0997869140624,117.62564296874999 191.16029999999992,117.64139999999999 191.16029999999992,117.64139999999999 191.20055761718743,117.664844140625 191.2435421874999,117.68395937499999 191.28833378906242,117.70021992187499 191.33401249999991,117.71509999999998 191.3796583984374,117.73007382812499 191.42435156249994,117.74661562499999 191.46717207031242,117.766199609375 191.50719999999993,117.79029999999999 191.50719999999993,117.79029999999999 191.57860664062494,117.80998749999999 191.6480656249999,117.83535624999999 191.7162355468749,117.864465625 191.78377499999993,117.89537499999999 191.85134257812493,117.92614374999998 191.9195968749999,117.95483124999998 191.98919648437493,117.97949687499998 192.06079999999992,117.99819999999998 192.06079999999992,117.99819999999998 192.0858656249999,118.01675292968748 192.1137249999999,118.03009218749999 192.1433468749999,118.03998847656248 192.1736999999999,118.04821249999998 192.2037531249999,118.0565349609375 192.23247499999994,118.06672656249998 192.2588343749999,118.08055800781248 192.28179999999992,118.09979999999999 192.28179999999992,118.09979999999999 192.33842695312492,118.11461406249998 192.39450312499991,118.13303749999999 192.45009648437494,118.15417968749998 192.50527499999993,118.17714999999998 192.56010664062492,118.20105781249998 192.61465937499992,118.22501249999999 192.6690011718749,118.24812343749998 192.7231999999999,118.2695 192.7231999999999,118.2695 192.7235552734374,118.27093828125 192.7240171874999,118.27234375 192.7245798828124,118.27373984375 192.7252374999999,118.27515 192.7259841796874,118.27659765624999 192.7268140624999,118.27810625 192.72772128906243,118.27969921874998 192.72869999999992,118.28139999999999 192.72869999999992,118.28139999999999 192.46588515624993,118.421640625 192.20324374999993,118.56186249999999 191.94074296874993,118.70206562499999 191.6783499999999,118.84224999999999 191.41603203124993,118.98241562499999 191.1537562499999,119.12256249999999 190.89148984374992,119.26269062499999 190.6291999999999,119.40279999999998 190.6291999999999,119.40279999999998 190.63017304687492,119.404783984375 190.6312656249999,119.40682187499999 190.6324378906249,119.40889257812499 190.6336499999999,119.410975 190.6348621093749,119.41304804687499 190.63603437499992,119.41509062499999 190.63712695312492,119.41708164062499 190.63809999999992,119.41899999999998 190.63809999999992,119.41899999999998 190.63648613281242,119.41981953124998 190.63499531249994,119.42062499999997 190.63359121093742,119.42141171874998 190.63223749999992,119.42217499999998 190.63089785156242,119.42291015624998 190.62953593749992,119.42361249999998 190.62811542968743,119.42427734374998 190.6265999999999,119.42489999999998 190.6265999999999,119.42489999999998 190.62611152343743,119.42300703124997 190.6253546874999,119.42096874999997 190.6243798828124,119.41884609374998 190.6232374999999,119.41669999999999 190.6219779296874,119.41459140624998 190.62065156249992,119.41258124999999 190.61930878906242,119.41073046874997 190.6179999999999,119.40909999999998 190.6179999999999,119.40909999999998 190.5885128906249,119.42052617187498 190.5518468749999,119.43282187499997 190.5104324218749,119.44597539062498 190.46669999999992,119.45997499999999 190.4230800781249,119.47480898437499 190.3820031249999,119.49046562499998 190.3458996093749,119.50693320312497 190.3171999999999,119.52419999999998 190.3171999999999,119.52419999999998 190.3062470703124,119.51905917968747 190.2887515624999,119.5163734375 190.2667208984374,119.51556035156248 190.2421624999999,119.51603749999998 190.2170837890624,119.51722246093748 190.19349218749988,119.51853281249997 190.1733951171874,119.51938613281249 190.1587999999999,119.51919999999998 190.1587999999999,119.51919999999998 190.0831945312499,119.4974119140625 189.9991374999999,119.47453281249999 189.9097179687499,119.44994042968749 189.8180249999999,119.42301249999998 189.7271476562499,119.39312675781248 189.6401749999999,119.35966093749998 189.5601960937499,119.32199277343749 189.4902999999999,119.27949999999998 189.4902999999999,119.27949999999998 189.4463001953124,119.26832460937499 189.4034078124999,119.25296562499999 189.36129589843742,119.23491132812498 189.31963749999989,119.21564999999998 189.2781056640624,119.19666992187499 189.23637343749988,119.17945937499998 189.1941138671874,119.16550664062498 189.1509999999999,119.15629999999999 189.1509999999999,119.15629999999999 189.1034800781249,119.126509375 189.0522781249999,119.10198749999999 188.99853085937488,119.08112187499998 188.9433749999999,119.0623 188.8879472656249,119.04390937499998 188.8333843749999,119.02433749999999 188.7808230468749,119.001971875 188.7313999999999,118.97519999999999 188.7313999999999,118.97519999999999 188.66978632812487,118.96083671874999 188.60878437499989,118.93919374999999 188.54819023437489,118.91262890624999 188.48779999999988,118.8835 188.4274097656249,118.85416484374998 188.3668156249999,118.82698124999999 188.3058136718749,118.80430703124998 188.2441999999999,118.78849999999998 188.2441999999999,118.78849999999998 188.2169677734374,118.77127734374999 188.18807968749988,118.75673124999997 188.1579986328124,118.74406953124998 188.12718749999988,118.73249999999999 188.0961091796874,118.72123046874998 188.0652265624999,118.70946874999998 188.0350025390624,118.69642265624998 188.00589999999988,118.68129999999998 188.00589999999988,118.68129999999998 188.0598197265624,118.91634218749998 188.1165203124999,119.15165624999997 188.1747888671874,119.38722343749998 188.2334124999999,119.62302499999998 188.29117832031238,119.85904218749997 188.34687343749988,120.09525624999998 188.3992849609374,120.33164843749998 188.4471999999999,120.56819999999998 188.4471999999999,120.56819999999998 188.2448271484374,120.67651933593748 188.0424859374999,120.78480468749997 187.84017988281238,120.89305957031247 187.63791249999989,121.00128749999998 187.4356873046874,121.10949199218747 187.23350781249988,121.21767656249997 187.0313775390624,121.32584472656248 186.8292999999999,121.43399999999997 186.8292999999999,121.43399999999997 186.83019453124987,121.43565019531246 186.8311499999999,121.43748906249996 186.83216171874992,121.43946152343747 186.83322499999989,121.44151249999997 186.8343351562499,121.44358691406246 186.83548749999989,121.44562968749997 186.8366773437499,121.44758574218747 186.8378999999999,121.44939999999997 186.8378999999999,121.44939999999997 186.83647968749992,121.45034394531247 186.8350124999999,121.45128906249997 186.83352656249988,121.45221777343747 186.8320499999999,121.45311249999997 186.83061093749993,121.45395566406248 186.82923749999992,121.45472968749996 186.8279578124999,121.45541699218748 186.8267999999999,121.45599999999997" fill="none" stroke="black" stroke-width="0.1"/>
            <polygon class="fil1 str2" id="simplify_19___2" points="197.49329999999992,115.75629999999998 197.44540507812494,115.55836249999999 197.3976906249999,115.36038749999997 197.35011210937492,115.16235624999999 197.30262499999992,114.96424999999998 197.25518476562493,114.76604999999998 197.20774687499994,114.56773749999999 197.16026679687494,114.36929374999998 197.11269999999993,114.17069999999998 197.11269999999993,114.17069999999998 196.88796093749994,114.29080351562499 196.66317499999994,114.41075937499997 196.43838906249994,114.53059804687499 196.21364999999992,114.65034999999997 195.98900468749994,114.77004570312498 195.76449999999994,114.88971562499998 195.54018281249992,115.00939023437498 195.31609999999992,115.12909999999998 195.31609999999992,115.12909999999998 195.3151294921874,115.13859570312498 195.31534843749992,115.14917187499998 195.31762753906244,115.16444960937498 195.3228374999999,115.18804999999998 195.33184902343743,115.22359414062498 195.34553281249993,115.27470312499999 195.3647595703124,115.34499804687499 195.39039999999991,115.43809999999998 195.39039999999991,115.43809999999998 195.40340781249992,115.50220078124998 195.41648124999992,115.56651249999997 195.42962031249994,115.63097421874997 195.4428249999999,115.69552499999998 195.4560953124999,115.76010390624998 195.4694312499999,115.82464999999998 195.4828328124999,115.88910234374997 195.4962999999999,115.95339999999997 195.4962999999999,115.95339999999997 195.5048779296874,116.00544199218747 195.5185734374999,116.08451093749997 195.5336166015624,116.18110878906248 195.5462374999999,116.28573749999997 195.55266621093742,116.38889902343747 195.54913281249992,116.48109531249997 195.5318673828124,116.55282832031247 195.4970999999999,116.59459999999997 195.4970999999999,116.59459999999997 195.48838613281242,116.61371992187497 195.48183906249992,116.62834687499998 195.4771505859374,116.63940664062497 195.4740124999999,116.64782499999998 195.47211660156242,116.65452773437497 195.4711546874999,116.66044062499996 195.4708185546874,116.66648945312497 195.4707999999999,116.67359999999996 195.4707999999999,116.67359999999996 195.46885722656242,116.67372949218748 195.4668078124999,116.67388593749996 195.46469511718743,116.67405878906247 195.46256249999993,116.67423749999998 195.46045332031244,116.67441152343747 195.45841093749993,116.67457031249997 195.4564787109374,116.67470332031247 195.45469999999992,116.67479999999996 195.45469999999992,116.67479999999996 195.45467304687492,116.67746113281245 195.45467187499992,116.68017031249997 195.4547035156249,116.68289121093747 195.4547749999999,116.68558749999995 195.45489335937492,116.68822285156246 195.45506562499992,116.69076093749996 195.4552988281249,116.69316542968745 195.45559999999992,116.69539999999996 195.45559999999992,116.69539999999996 195.45344960937493,116.69560527343747 195.4513531249999,116.69589843749996 195.44931757812492,116.69624550781246 195.44734999999991,116.69661249999996 195.44545742187495,116.69696542968745 195.44364687499993,116.69727031249997 195.44192539062493,116.69749316406246 195.44029999999992,116.69759999999997 195.44029999999992,116.69759999999997 195.43993007812492,116.70024140624997 195.43964687499994,116.70284999999996 195.43945273437492,116.70543984374997 195.43934999999993,116.70802499999996 195.4393410156249,116.71061953124996 195.4394281249999,116.71323749999996 195.4396136718749,116.71589296874996 195.4398999999999,116.71859999999997 195.4398999999999,116.71859999999997 195.4373566406249,116.71884160156246 195.43496562499988,116.71905156249997 195.43271054687492,116.71924511718747 195.43057499999992,116.71943749999997 195.4285425781249,116.71964394531247 195.42659687499992,116.71987968749997 195.4247214843749,116.72015996093748 195.4228999999999,116.72049999999997 195.4228999999999,116.72049999999997 195.3864021484374,116.77238945312497 195.3350296874999,116.82519062499998 195.27316425781243,116.87760273437496 195.2051874999999,116.92832499999997 195.13548105468743,116.97605664062498 195.0684265624999,117.01949687499997 195.00840566406242,117.05734492187497 194.95979999999992,117.08829999999998 194.95979999999992,117.08829999999998 194.76491074218742,117.19253183593749 194.5700296874999,117.29672968749998 194.37517441406243,117.40089707031248 194.18036249999992,117.50503749999999 193.98561152343743,117.60915449218747 193.79093906249992,117.71325156249998 193.59636269531242,117.81733222656248 193.40189999999993,117.92139999999998 193.40189999999993,117.92139999999998 193.30458007812496,117.51117832031247 193.20725312499994,117.10101406249998 193.1099308593749,116.69090839843747 193.0126249999999,116.28086249999998 192.91534726562492,115.87087753906248 192.8181093749999,115.46095468749998 192.72092304687493,115.05109511718747 192.62379999999993,114.64129999999997 192.62379999999993,114.64129999999997 192.61439550781242,114.57876367187498 192.60507656249993,114.51632812499997 192.59583496093742,114.45399101562498 192.58666249999993,114.39174999999997 192.57755097656243,114.32960273437496 192.56849218749994,114.26754687499997 192.55947792968743,114.20558007812497 192.55049999999994,114.14369999999997 192.55049999999994,114.14369999999997 192.56617617187493,114.10586601562495 192.57087187499997,114.05010937499996 192.56858789062494,113.98216054687497 192.56332499999996,113.90774999999996 192.55908398437495,113.83260820312496 192.55986562499993,113.76246562499998 192.56967070312496,113.70305273437498 192.59249999999994,113.66009999999997 192.59249999999994,113.66009999999997 192.60605996093744,113.60349355468746 192.61947343749995,113.55387968749997 192.63245332031244,113.51032910156248 192.64471249999994,113.47191249999997 192.65596386718747,113.43770058593746 192.66592031249996,113.40676406249997 192.67429472656244,113.37817363281248 192.68079999999995,113.35099999999997 192.68079999999995,113.35099999999997 192.68260214843747,113.35062285156248 192.68454843749996,113.35025156249998 192.68662363281246,113.34990136718747 192.68881249999995,113.34958749999997 192.69109980468744,113.34932519531246 192.69347031249993,113.34912968749997 192.69590878906246,113.34901621093748 192.69839999999994,113.34899999999998 192.69839999999994,113.34899999999998 192.69908593749994,113.34183749999997 192.69993124999993,113.33480624999999 192.70091718749993,113.32787812499997 192.70202499999994,113.32102499999996 192.70323593749993,113.31421874999998 192.70453124999992,113.30743124999998 192.70589218749996,113.30063437499997 192.70729999999995,113.29379999999998 192.70729999999995,113.29379999999998 192.70926679687494,113.29321269531248 192.71127812499992,113.29266406249998 192.71335039062495,113.29217402343748 192.71549999999996,113.29176249999998 192.71774335937496,113.29144941406247 192.72009687499997,113.29125468749999 192.72257695312496,113.29119824218748 192.72519999999994,113.29129999999998 192.72519999999994,113.29129999999998 192.72537402343744,113.28630722656247 192.72559843749997,113.28137656249999 192.72587675781244,113.27650449218747 192.72621249999995,113.27168749999997 192.72660917968744,113.26692207031248 192.72707031249993,113.26220468749997 192.7275994140624,113.25753183593747 192.72819999999993,113.25289999999998 192.72819999999993,113.25289999999998 192.73038574218742,113.25274375 192.73252343749994,113.25258749999998 192.73462128906246,113.25244999999998 192.73668749999993,113.25234999999998 192.73873027343743,113.25230624999998 192.74075781249994,113.25233749999998 192.74277832031242,113.25246249999998 192.74479999999994,113.25269999999998 192.74479999999994,113.25269999999998 192.74512070312494,113.24746347656247 192.74554687499995,113.24232656249998 192.74606210937495,113.23728574218748 192.74664999999993,113.23233749999997 192.74729414062494,113.22747832031249 192.74797812499995,113.22270468749997 192.74868554687498,113.21801308593747 192.74939999999995,113.21339999999998 192.74939999999995,113.21339999999998 192.75155898437492,113.21322050781248 192.75375312499995,113.21299531249997 192.75597070312494,113.21274433593749 192.75819999999993,113.21248749999998 192.76042929687495,113.21224472656249 192.76264687499997,113.21203593749999 192.76484101562494,113.21188105468748 192.76699999999994,113.21179999999998 192.76699999999994,113.21179999999998 192.79892832031246,113.16183671874998 192.82318906249992,113.12414999999999 192.84117089843744,113.09683203124997 192.85426249999995,113.07797499999998 192.86385253906244,113.06567109374997 192.87132968749992,113.05801249999998 192.87808261718746,113.05309140624998 192.88549999999995,113.04899999999998 192.88549999999995,113.04899999999998 192.88481093749996,113.04644511718747 192.88416874999996,113.04395468749998 192.88357343749996,113.04152753906247 192.88302499999995,113.03916249999999 192.88252343749994,113.03685839843749 192.88206874999997,113.03461406249998 192.88166093749996,113.03242832031248 192.88129999999995,113.03029999999998 192.88129999999995,113.03029999999998 192.93237753906243,112.98707832031249 192.98253281249993,112.94455156249998 193.03228730468746,112.9025896484375 193.08216249999995,112.86106249999997 193.13267988281245,112.81984003906248 193.18436093749995,112.77879218749999 193.23772714843747,112.73778886718748 193.29329999999996,112.69669999999998 193.29329999999996,112.69669999999998 193.96517656249995,112.33887402343748 194.63704374999995,111.98119218749997 195.30892031249996,111.62364863281248 195.98082499999995,111.26623749999997 196.65277656249995,110.90895292968747 197.32479374999997,110.55178906249998 197.99689531249996,110.19474003906247 198.66909999999996,109.83779999999997 198.66909999999996,109.83779999999997 198.67621992187495,109.86067949218747 198.68454687499994,109.89252968749997 198.69410664062497,109.93216816406247 198.70492499999995,109.97841249999999 198.71702773437497,110.03008027343748 198.73044062499994,110.08598906249998 198.74518945312496,110.14495644531247 198.76129999999995,110.20579999999997 198.76129999999995,110.20579999999997 198.88496640624996,110.74753007812497 199.00899374999995,111.28959062499997 199.13361171874993,111.83178710937497 199.25904999999997,112.37392499999997 199.38553828124995,112.91580976562497 199.51330624999997,113.45724687499997 199.64258359374998,113.99804179687497 199.77359999999996,114.53799999999997 199.77359999999996,114.53799999999997 199.48875937499997,114.68997988281247 199.20380624999996,114.84213906249997 198.91876874999994,114.99443183593748 198.63367499999998,115.14681249999997 198.34855312499997,115.29923535156246 198.06343124999995,115.45165468749997 197.77833749999996,115.60402480468747 197.49329999999995,115.75629999999997" fill="none" stroke="black" stroke-width="0.1"/>
            <polygon class="fil1 str2" id="simplify_19___3" points="200.79969999999994,113.97479999999997 200.66084374999994,113.38766894531247 200.52200624999995,112.80055781249997 200.38319687499995,112.21347714843748 200.24442499999995,111.62643749999997 200.10569999999996,111.03944941406247 199.96703124999993,110.45252343749996 199.82842812499993,109.86567011718748 199.68989999999994,109.27889999999998 199.68989999999994,109.27889999999998 199.80992246093746,109.21150019531248 199.93011718749992,109.14415781249997 200.05045019531244,109.07688339843747 200.17088749999994,109.00968749999998 200.29139511718742,108.94258066406248 200.41193906249995,108.87557343749998 200.53248535156243,108.80867636718747 200.65299999999993,108.74189999999997 200.65299999999993,108.74189999999997 200.85437128906244,108.63127656249996 201.05587031249993,108.52077499999997 201.25747480468743,108.41034843749998 201.45916249999993,108.29994999999997 201.66091113281243,108.18953281249996 201.86269843749994,108.07904999999998 202.06450214843744,107.96845468749997 202.26629999999994,107.85769999999997 202.26629999999994,107.85769999999997 202.26945039062497,107.85636542968746 202.27247187499995,107.85499218749996 202.27539492187492,107.85358847656246 202.27824999999996,107.85216249999996 202.28106757812495,107.85072246093746 202.28387812499994,107.84927656249997 202.28671210937495,107.84783300781245 202.28959999999995,107.84639999999996 202.28959999999995,107.84639999999996 202.90995117187495,107.51613437499995 203.53047812499995,107.18599999999996 204.15114101562494,106.85597812499996 204.77189999999996,106.52604999999997 205.39271523437495,106.19619687499996 206.01354687499992,105.86639999999997 206.63435507812494,105.53664062499998 207.25509999999994,105.20689999999996 207.25509999999994,105.20689999999996 207.33601757812494,105.16482480468747 207.41692812499994,105.12269218749996 207.49784335937494,105.08052910156246 207.57877499999992,105.03836249999996 207.65973476562493,104.99621933593747 207.74073437499993,104.95412656249997 207.82178554687493,104.91211113281246 207.90289999999993,104.87019999999997 207.90289999999993,104.87019999999997 207.93083007812493,104.86146796874996 207.97101562499995,104.84920624999997 208.01913710937492,104.83530390624996 208.07087499999994,104.82164999999996 208.12190976562493,104.81013359374997 208.16792187499993,104.80264374999996 208.20459179687495,104.80106953124998 208.22759999999994,104.80729999999997 208.22759999999994,104.80729999999997 208.22862578124995,104.80579960937496 208.22980624999994,104.80424062499998 208.23110859374992,104.80264882812496 208.23249999999993,104.80104999999998 208.23394765624994,104.79946992187496 208.23541874999995,104.79793437499997 208.23688046874997,104.79646914062496 208.23829999999995,104.79509999999996 208.23829999999995,104.79509999999996 208.23968222656245,104.79683027343746 208.24112656249997,104.79857343749997 208.24262949218743,104.80033300781245 208.24418749999995,104.80211249999996 208.24579707031248,104.80391542968745 208.24745468749995,104.80574531249997 208.24915683593744,104.80760566406246 208.25089999999994,104.80949999999996 208.25089999999994,104.80949999999996 208.2784740234374,104.80602499999996 208.30711093749994,104.80226874999995 208.33634550781244,104.79900937499997 208.36571249999994,104.79702499999996 208.39474667968744,104.79709374999996 208.42298281249995,104.79999374999997 208.44995566406246,104.80650312499996 208.47519999999994,104.81739999999996 208.47519999999994,104.81739999999996 208.47614609374995,104.81579726562495 208.47723749999994,104.81421562499996 208.47844140624994,104.81265742187496 208.47972499999995,104.81112499999998 208.48105546874993,104.80962070312498 208.48239999999993,104.80814687499996 208.48372578124994,104.80670585937496 208.48499999999996,104.80529999999996 208.48499999999996,104.80529999999996 208.49376054687497,104.80856015624995 208.50243437499995,104.81188124999997 208.51104726562497,104.81524921874995 208.51962499999996,104.81864999999996 208.52819335937497,104.82206953124997 208.53677812499996,104.82549374999996 208.54540507812493,104.82890859374996 208.55409999999995,104.83229999999996 208.55409999999995,104.83229999999996 208.6002896484374,104.82145976562495 208.65108593749994,104.83124687499995 208.70465488281243,104.85559804687496 208.75916249999995,104.88844999999995 208.81277480468745,104.92373945312497 208.86365781249995,104.95540312499996 208.90997753906245,104.97737773437497 208.94989999999996,104.98359999999997 208.94989999999996,104.98359999999997 209.03274589843747,105.05780683593747 209.10846093749996,105.13147343749996 209.17768613281245,105.20616894531247 209.24106249999994,105.28346249999996 209.29923105468745,105.36492324218747 209.35283281249997,105.45212031249996 209.40250878906247,105.54662285156246 209.44889999999995,105.64999999999996 209.44889999999995,105.64999999999996 209.55501249999995,106.05518925781244 209.66116249999996,106.46044531249996 209.76733124999996,106.86575058593746 209.87349999999995,107.27108749999996 209.97964999999994,107.67643847656245 210.08576249999993,108.08178593749996 210.19181874999992,108.48711230468747 210.29779999999994,108.89239999999997 210.29779999999994,108.89239999999997 210.01382382812494,109.04411992187497 209.72993437499994,109.19588437499996 209.44611523437496,109.34766289062497 209.16234999999995,109.49942499999997 208.87862226562493,109.65114023437496 208.59491562499994,109.80277812499996 208.31121367187492,109.95430820312497 208.02749999999995,110.10569999999997 208.02749999999995,110.10569999999997 207.75218710937494,108.95465722656247 207.54512187499995,108.08950156249998 207.39636445312493,107.46920449218747 207.29597499999994,107.05273749999998 207.23401367187495,106.79907207031248 207.20054062499995,106.66717968749998 207.18561601562496,106.61603183593748 207.17929999999996,106.60459999999998 207.17929999999996,106.60459999999998 207.18031347656245,106.59741445312497 207.17972031249997,106.58904062499997 207.17803261718748,106.57990273437497 207.17576249999996,106.57042499999997 207.17342207031245,106.56103164062499 207.17152343749999,106.55214687499998 207.17057871093746,106.54419492187499 207.17109999999997,106.53759999999998 207.17109999999997,106.53759999999998 207.00072617187496,106.62785859374998 206.83047187499994,106.71818749999998 206.66032539062496,106.80859140624999 206.49027499999997,106.89907499999998 206.32030898437495,106.98964296874998 206.150415625,107.08029999999998 205.98058320312498,107.17105078124999 205.81079999999997,107.26189999999998 205.81079999999997,107.26189999999998 205.91670117187496,107.70830351562498 206.02309687499996,108.15478437499998 206.12982539062497,108.60133554687498 206.23672499999998,109.04794999999999 206.34363398437497,109.49462070312498 206.45039062499998,109.94134062499998 206.55683320312497,110.38810273437498 206.66279999999998,110.83489999999998 206.66279999999998,110.83489999999998 206.3867857421875,110.98247402343748 206.11068593749997,111.13000468749998 205.83452753906246,111.27750488281248 205.5583375,111.42498749999999 205.28214277343747,111.57246542968747 205.00597031249998,111.71995156249997 204.72984707031247,111.86745878906247 204.45379999999997,112.01499999999997 204.45379999999997,112.01499999999997 204.17396425781246,110.84250449218747 203.96349531249996,109.96124218749998 203.81228808593747,109.32943691406247 203.71023749999998,108.90531249999998 203.64723847656248,108.64709277343748 203.61318593749996,108.51300156249998 203.59797480468745,108.46126269531248 203.59149999999997,108.45009999999998 203.59149999999997,108.45009999999998 203.42125820312498,108.54031640624999 203.25104687499996,108.63070624999997 203.08088710937497,108.72121796874998 202.91079999999994,108.81179999999998 202.74080664062495,108.90240078124998 202.57092812499997,108.99296874999997 202.40118554687496,109.08345234374998 202.23159999999996,109.17379999999997 202.23159999999996,109.17379999999997 202.33735175781246,109.62084199218747 202.44305781249997,110.06789218749998 202.54875683593747,110.51494941406247 202.65448749999996,110.96201249999996 202.76028847656247,111.40908027343747 202.86619843749997,111.85615156249996 202.97225605468745,112.30322519531248 203.07849999999996,112.75029999999997 203.07849999999996,112.75029999999997 202.79362128906246,112.90344453124996 202.50870156249997,113.05651874999997 202.22376542968746,113.20954609374996 201.93883749999998,113.36254999999997 201.65394238281246,113.51555390624998 201.36910468749997,113.66858124999997 201.08434902343748,113.82165546874998 200.79969999999997,113.97479999999997" fill="none" stroke="black" stroke-width="0.1"/>
            <polygon class="fil1 str2" id="simplify_19___4" points="195.09829999999997,114.13119999999998 195.065011328125,113.99410859374998 195.03194062499998,113.85703124999998 194.99904335937498,113.71996328124997 194.96627499999997,113.58289999999998 194.93359101562498,113.44583671874999 194.90094687499996,113.30876874999998 194.86829804687497,113.17169140624998 194.83559999999997,113.03459999999998 194.83559999999997,113.03459999999998 195.05071210937496,112.9186693359375 195.26591562499996,112.80272343749998 195.48119882812497,112.68679394531247 195.69655,112.57091249999999 195.91195742187494,112.45511074218747 196.12740937499996,112.33942031249998 196.342894140625,112.22387285156249 196.55839999999998,112.10849999999998 196.55839999999998,112.10849999999998 196.55766953124996,112.11568417968746 196.55844374999998,112.12393593749998 196.56022109374996,112.13287910156248 196.56249999999997,112.14213749999998 196.56477890624998,112.15133496093748 196.56655624999996,112.16009531249998 196.56733046875,112.16804238281247 196.56659999999997,112.17479999999998 196.56659999999997,112.17479999999998 196.57135214843746,112.18149453124997 196.57801093749998,112.19927499999997 196.58969238281247,112.24054921874998 196.60951249999997,112.31772499999997 196.64058730468744,112.44321015624998 196.68603281249995,112.62941249999999 196.74896503906245,112.88873984374997 196.83249999999995,113.23359999999998 196.83249999999995,113.23359999999998 196.61715683593746,113.34892910156248 196.40177968749995,113.46415156249998 196.18637207031247,113.57928261718749 195.97093749999993,113.69433749999997 195.75547949218748,113.80933144531248 195.54000156249998,113.92427968749999 195.32450722656245,114.03919746093749 195.10899999999995,114.15409999999999 195.10899999999995,114.15409999999999 195.10749433593747,114.1512375 195.10604843749996,114.14841249999999 195.10465644531246,114.14560624999999 195.10331249999996,114.1428 195.10201074218747,114.13997499999999 195.10074531249992,114.13711249999999 195.09951035156246,114.13419374999998 195.09829999999994,114.13119999999998" fill="none" stroke="black" stroke-width="0.1"/>
            <polygon class="fil1 str2" id="simplify_19___5" points="187.85739999999993,118.01539999999997 187.80008320312493,117.76948027343747 187.75609062499993,117.58006718749998 187.7225089843749,117.43402988281247 187.69642499999992,117.31823749999998 187.67492539062494,117.21955917968747 187.6550968749999,117.12486406249997 187.6340261718749,117.02102128906246 187.60879999999992,116.89489999999996 187.60879999999992,116.89489999999996 187.82210605468742,116.77929511718747 188.0356171874999,116.66384843749998 188.2492853515624,116.54854941406246 188.46306249999992,116.43338749999997 188.67690058593743,116.31835214843747 188.89075156249993,116.20343281249995 189.1045673828124,116.08861894531245 189.3182999999999,115.97389999999996 189.3182999999999,115.97389999999996 189.3796433593749,116.22533222656246 189.4266593749999,116.41868281249995 189.4624019531249,116.56708261718747 189.48992499999991,116.68366249999997 189.51228242187491,116.78155332031247 189.5325281249999,116.87388593749996 189.5537160156249,116.97379121093746 189.57889999999992,117.09439999999996 189.57889999999992,117.09439999999996 189.36378222656242,117.20943066406247 189.14863281249993,117.32455156249998 188.9334576171874,117.43973105468747 188.71826249999992,117.55493749999997 188.5030533203124,117.67013925781248 188.28783593749992,117.78530468749997 188.0726162109374,117.90040214843746 187.85739999999993,118.01539999999997" fill="none" stroke="black" stroke-width="0.1"/>
        </g>
    </g>
</svg>
