<?xml version="1.0" encoding="UTF-8" standalone="no"?>
<!-- Creator: CorelDRAW -->
<svg
   xmlns:dc="http://purl.org/dc/elements/1.1/"
   xmlns:cc="http://creativecommons.org/ns#"
   xmlns:rdf="http://www.w3.org/1999/02/22-rdf-syntax-ns#"
   xmlns:svg="http://www.w3.org/2000/svg"
   xmlns="http://www.w3.org/2000/svg"
   xmlns:sodipodi="http://sodipodi.sourceforge.net/DTD/sodipodi-0.dtd"
   xmlns:inkscape="http://www.inkscape.org/namespaces/inkscape"
   xml:space="preserve"
   width="297mm"
   height="210mm"
   style="shape-rendering:geometricPrecision; text-rendering:geometricPrecision; image-rendering:optimizeQuality; fill-rule:evenodd; clip-rule:evenodd"
   viewBox="0 0 297 210"
   id="svg2"
   sodipodi:version="0.32"
   inkscape:version="0.46"
   sodipodi:docname="left__bottleCage.svg"
   inkscape:output_extension="org.inkscape.output.svg.inkscape"><metadata
   id="metadata42"><rdf:RDF><cc:Work
       rdf:about=""><dc:format>image/svg+xml</dc:format><dc:type
         rdf:resource="http://purl.org/dc/dcmitype/StillImage" /></cc:Work></rdf:RDF></metadata><sodipodi:namedview
   inkscape:window-height="480"
   inkscape:window-width="640"
   inkscape:pageshadow="2"
   inkscape:pageopacity="0.0"
   guidetolerance="10.0"
   gridtolerance="10.0"
   objecttolerance="10.0"
   borderopacity="1.0"
   bordercolor="#666666"
   pagecolor="#ffffff"
   id="base"
   showgrid="false"
   inkscape:zoom="0.6189124"
   inkscape:cx="574.1355"
   inkscape:cy="255.75041"
   inkscape:current-layer="svg2" />
 <defs
   id="defs4"><inkscape:perspective
   sodipodi:type="inkscape:persp3d"
   inkscape:vp_x="0 : 372.04724 : 1"
   inkscape:vp_y="0 : 1000 : 0"
   inkscape:vp_z="1052.3622 : 372.04724 : 1"
   inkscape:persp3d-origin="526.18109 : 248.03149 : 1"
   id="perspective44" />
  <style
   type="text/css"
   id="style6">
   
    .str1 {stroke:#1F1A17;stroke-width:0.0762}
    .str0 {stroke:#DA251D;stroke-width:0.0762}
    .fil1 {fill:none}
    .fil0 {fill:#DEDEDD}
   
  </style>
 
  <metadata
   id="CorelCorpID_0Corel-Layer" />
  
  
  
  
  
  
  
  
  
  
  
  
  
  
  
  
 </defs>
 <polygon
   style="fill:#dededd;stroke:#da251d;stroke-width:0.0762"
   id="polygon16"
   points="190.812,154.895 190.812,156.189 189.827,156.386 189.07,156.503 188.123,156.62 187.209,156.689 186.205,156.71 185.201,156.689 184.287,156.62 183.341,156.503 182.583,156.386 181.599,156.189 181.599,154.895 190.812,154.895 "
   class="fil0 str0" /><circle
   style="fill:#dededd;stroke:#da251d;stroke-width:0.0762"
   sodipodi:ry="2.5925"
   sodipodi:rx="2.5925"
   sodipodi:cy="156.189"
   sodipodi:cx="250.205"
   r="2.5925"
   cy="156.189"
   cx="250.205"
   class="fil0 str0"
   id="center_00" /><polygon
   style="fill:#dededd;stroke:#da251d;stroke-width:0.0762"
   id="polygon19"
   points="254.812,154.895 254.812,156.189 253.827,156.386 253.07,156.503 252.123,156.62 251.209,156.689 250.205,156.71 249.201,156.689 248.287,156.62 247.341,156.503 246.583,156.386 245.599,156.189 245.599,154.895 254.812,154.895 "
   class="fil0 str0" /><rect
   style="fill:#dededd;stroke:#da251d;stroke-width:0.0762"
   id="rect23"
   height="8.0004997"
   width="18"
   y="146.895"
   x="177.205"
   class="fil0 str0" /><rect
   style="fill:#dededd;stroke:#da251d;stroke-width:0.0762"
   id="rect25"
   height="8.0004997"
   width="18"
   y="146.895"
   x="241.205"
   class="fil0 str0" /><polygon
   style="fill:#dededd;stroke:#da251d;stroke-width:0.0762"
   id="polygon27"
   points="187.166,65.2956 184.857,89.2746 184.768,90.8314 184.776,91.0498 184.812,91.2728 184.908,91.5418 185.095,91.8328 185.294,92.0298 185.554,92.1968 185.839,92.3018 186.115,92.3418 186.991,92.3318 272.686,84.1765 273.525,84.1616 274.598,84.3297 275.427,84.6206 275.977,84.9074 276.579,85.3317 277.154,85.8927 277.397,86.1993 277.689,86.6849 277.702,86.6842 277.741,86.7698 277.782,86.838 277.777,86.8506 277.967,87.2769 278.144,87.9483 278.205,88.6525 278.205,90.8571 278.205,143.895 278.154,143.895 278.171,144.35 277.957,145.091 277.638,145.65 277.006,146.295 276.448,146.626 275.61,146.868 275.205,146.895 142.821,146.895 142.168,146.868 141.635,146.808 140.963,146.63 140.429,146.378 129.636,141.582 129.044,141.233 128.492,140.69 128.063,139.943 127.854,138.84 127.951,138.081 128.197,137.447 128.689,136.764 129.592,136.118 130.462,135.866 131.302,135.874 132.072,136.099 142.865,140.895 142.866,140.895 271.281,140.895 271.623,140.795 271.852,140.649 272.016,140.472 272.093,140.346 272.148,140.22 272.205,139.843 272.205,93.4398 272.205,91.8808 272.14,91.4798 271.961,91.0998 271.746,90.8395 271.452,90.6185 271.016,90.4516 270.609,90.4079 185.431,98.5066 183.986,98.6446 183.874,98.6116 183.884,98.6506 182.93,98.6416 182.226,98.5166 181.428,98.2406 180.626,97.7926 179.888,97.1726 179.383,96.5716 178.963,95.8686 178.696,95.2096 178.476,94.1426 178.453,93.1788 178.563,92.0378 181.214,64.5021 181.621,63.3423 182.258,62.5986 183.023,62.13 184.189,61.8951 185.499,62.1955 186.43,62.9008 187.024,63.9119 187.166,65.2956 "
   class="fil0 str0" />
</svg>