<!DOCTYPE svg PUBLIC "-//W3C//DTD SVG 1.1//EN" "http://www.w3.org/Graphics/SVG/1.1/DTD/svg11.dtd">
<svg xmlns="http://www.w3.org/2000/svg" width="297mm" height="210mm" viewBox="0 0 297 210">
    <defs id="_tag_89_"/>
    <g id="_tag_90_">
        <polygon id="simplify_69" points="417.747,213.98 443.344,213.98 447.149,213.98 449.176,213.558 450.641,212.959 451.979,212.057 452.838,211.232 453.558,210.332 454.202,209.303 454.771,208.146 455.263,206.862" fill="none" stroke="black" stroke-width="0.1"/>
        <polygon class="fil2 str2" id="simplify_70_1" points="420.138,209.38 421.53799999999995,208.78 453.06499999999994,208.78 451.2036999999999,211.98 418.8379999999999,211.98 418.8379999999999,211.78 419.7379999999999,210.98 420.1380999999999,210.98 420.0174291015624,210.9677744140625 419.9049203124999,210.9327265625 419.8030169921874,210.8772998046875 419.71416249999993,210.8039375 419.6408001953124,210.7150830078125 419.5853734374999,210.6131796875 419.55032558593734,210.5006708984375 419.5380999999999,210.38 419.5380999999999,210.38 419.55032558593734,210.25932910156249 419.58537343749987,210.14682031249998 419.6408001953124,210.0449169921875 419.7141624999999,209.9560625 419.80301699218734,209.88270019531248 419.9049203124999,209.8272734375 420.0174291015624,209.7922255859375 420.1380999999999,209.78 420.1379999999999,209.38" fill="none" stroke="black" stroke-width="0.1"/>
        <line id="simplify_71" x1="453.201" y1="209.38" x2="420.138" y2="209.38" stroke="black" stroke-width="0.1"/>
        <line id="simplify_72" x1="452.9" y1="209.78" x2="420.138" y2="209.78" stroke="black" stroke-width="0.1"/>
        <line id="simplify_73" x1="453.528" y1="210.98" x2="420.138" y2="210.98" stroke="black" stroke-width="0.1"/>
        <polyline id="simplify_SVG__000034" points="452.847,211.78 418.948,211.78 418.838,211.78" fill="none" stroke="black" stroke-width="0.1"/>
        <polygon class="fil2 str0" id="simplify_75_1" points="455.139,254.015 455.13960000000003,468.979 419.13960000000003,468.979 419.139,239.868 419.1303423828125,239.6454376953125 419.11233906250004,239.4195015625 419.08546933593755,239.1921052734375 419.05021250000004,238.9651625 419.0070478515625,238.74058691406248 418.9564546875,238.5202921875 418.89891230468754,238.3061919921875 418.8349,238.1002 416.3935,230.7098 416.3377427734375,230.52973007812503 416.2879234375,230.34234062500002 416.2444955078125,230.14946210937498 416.2079125,229.95292500000002 416.17862792968754,229.754559765625 416.1570953125,229.556196875 416.1437681640626,229.359666796875 416.13910000000004,229.1668 416.13910000000004,213.9679 416.18001875000004,213.5656828125 416.29696875,213.1906625 416.48180312500006,212.85098593749998 416.7263750000001,212.5548 417.02253750000006,212.31025156249999 417.36214375000003,212.1254875 417.73704687500003,212.00865468749998 418.13910000000004,211.9679 446.61560000000003,211.96779999999998 447.09360000000004,211.9091 447.7216,211.8318 448.8236,211.5348 449.2566,211.3698 449.6846,211.1778 450.1026,210.9598 450.5116,210.7148 450.9086,210.4428 451.57959999999997,209.8958 452.14,209.3098 452.14,187.22719999999998 452.89391503906245,185.153375390625 453.6479203125,183.07955312499996 454.40199355468746,181.00573554687497 455.15611249999995,178.93192499999998 455.91025488281247,176.858123828125 456.6643984374999,174.78433437500001 457.41852089843746,172.71055898437498 458.1726,170.6368 459.2476,167.6808 460.2856,164.8268 461.2826,162.0838 462.2356,159.46179999999998 462.7406,157.77179999999998 463.0406,156.05479999999997 463.1396,154.33579999999998 463.1396,152.9328 463.13959570312494,151.68880820312498 463.13958437499997,150.444809375 463.139568359375,149.20080585937498 463.13955,147.9568 463.13953164062497,146.712794140625 463.139515625,145.46879062499997 463.13950429687503,144.224791796875 463.1395,142.9808 463.1395,142.9808 463.15991328125,142.77903124999997 463.218375,142.591025 463.31083046875,142.42083124999996 463.433225,142.27249999999998 463.58150390624996,142.15008124999997 463.75161249999996,142.05762499999997 463.93949609375,141.99918124999996 464.1411,141.97879999999998 476.0866,141.97879999999998 476.6026,142.0228 477.01959999999997,142.1268 477.5136,142.3388 477.9606,142.6358 478.2536,142.8708 478.6796,143.2108 479.1066,143.55180000000001 479.6146,143.95880000000002 479.7986,144.11280000000002 479.99060000000003,144.29080000000002 480.18660000000006,144.49480000000003 480.38460000000003,144.72580000000002 480.58060000000006,144.9858 480.89560000000006,145.4958 481.08560000000006,145.8898 481.13460000000003,146.0088 481.1716,146.1048 481.1986,146.17880000000002 481.21659999999997,146.2298 481.40459999999996,146.9358 481.48659999999995,147.6608 481.46359999999993,148.39079999999998 481.33359999999993,149.10979999999998 480.9115999999999,150.74679999999998 478.1652066406249,161.42985996093748 475.4173718749999,172.1125671875 472.6684261718749,182.79500019531247 469.9186999999999,193.4772375 467.16852382812493,204.15935761718748 464.4182281249999,214.8414390625 461.6681433593749,225.52356035156248 458.9185999999999,236.20579999999998 455.92259999999993,247.84779999999998 455.48659999999995,249.89079999999998 455.22559999999993,251.9468 455.1395999999999,254.0148 455.1389999999999,254.0144" fill="none" stroke="black" stroke-width="0.1"/>
        <polyline id="simplify_SVG__000035" points="463.339,146.498 463.602,146.883 464.01,147.104 464.302,147.181 464.759,147.301 465.371,147.462 466.128,147.661 466.756,147.872 467.429,148.209 468.097,148.69 468.64,149.229 469.118,149.883 469.23,150.074 469.347,150.3 469.465,150.56 469.579,150.858 469.683,151.193 469.756,151.506 469.818,151.883 469.853,152.323 469.844,152.84 469.789,153.309 469.762,153.446 469.715,153.675 469.642,153.94 469.585,154.129 469.12,155.674 456.622,197.115 454.413,204.437 453.816,206.41 453.358,207.542 452.867,208.394 452.345,209.096 452.14,209.311" fill="none" stroke="black" stroke-width="0.1"/>
        <g id="simplify_77_1">
            <polyline class="fil1 str1" id="simplify_77___0" points="416.971,229.974 447.537,229.974" fill="none" stroke="black" stroke-width="0.1"/>
            <polyline class="fil1 str1" id="simplify_77___1" points="447.537,229.974 447.90299999999996,229.94989999999999 448.272,229.87769999999998 448.647,229.75809999999998 449.025,229.5895 449.26399999999995,229.45819999999998 449.53799999999995,229.2788 449.98799999999994,228.97199999999998 450.24739999999997,228.79229999999998" fill="none" stroke="black" stroke-width="0.1"/>
            <polyline class="fil1 str1" id="simplify_77___2" points="458.89399999999995,221.8809 455.34799999999996,224.9227 453.02099999999996,226.77679999999998 450.614,228.53849999999997 450.24739999999997,228.79229999999998" fill="none" stroke="black" stroke-width="0.1"/>
        </g>
        <polyline id="simplify_SVG__000036" points="419.874,239.062 449.866,239.062 450.275,239.165 450.673,239.472 451.058,239.983 451.431,240.7 451.601,241.106 451.801,241.641 452.029,242.303 452.265,243.018 452.448,243.574 452.583,243.971 452.988,245.203 453.361,246.413 453.731,247.707 454.072,248.963 454.349,250.03 454.51,250.673 454.653,251.265 454.778,251.804 454.885,252.293 454.973,252.73 455.112,253.6 455.112,253.6 455.139,254.016" fill="none" stroke="black" stroke-width="0.1"/>
        <polygon class="fil2 str3" id="simplify_79_1" points="458.407,450.139 458.405,450.1372 458.405,450.1372 458.4049,450.13710000000003 458.4048,450.1369 458.404,450.13620000000003 458.401,450.1335 458.389,450.1222 458.341,450.07710000000003 458.3084,450.0461 458.2761,450.0151 458.14779999999996,449.8901 457.8982,449.63530000000003 457.42589999999996,449.10760000000005 456.58889999999997,447.98280000000005 455.8868,446.75350000000003 455.3476,445.47700000000003 455.3476,445.47700000000003 455.1289,444.7266 455.1229,445.0478 455.0167,447.2527 454.8937,448.0299 454.7298,448.72339999999997 454.41,449.6067 454.41,449.6067 454.0051,450.3015 454.0051,467.1257 453.2653,467.0304 452.32910000000004,467.1627 451.27330000000006,467.5587 450.68820000000005,467.8797 450.09130000000005,468.2824 449.26110000000006,468.9798 419.13890000000004,468.9798 422.13890000000004,480.9798 432.18190000000004,480.9798 433.7748,481.0646 435.3496,481.31809999999996 436.8886,481.7374 438.3743,482.3177 439.7901,483.0525 441.1198,483.9335 441.8229,484.45509999999996 442.5751,485.0132 452.66150000000005,492.4794 453.31008261718756,492.9382427734375 454.00528593750005,493.37847968750003 454.7377806640626,493.79562363281246 455.4982375000001,494.1851875 456.27732714843756,494.5426841796875 457.06572031250005,494.8636265625 457.8540876953126,495.14352753906246 458.63310000000007,495.3779 458.6389000000001,494.87330000000003 458.6389000000001,494.21250000000003 458.6389000000001,478.47970000000004 458.73063515625006,477.57474003906253 458.9935437500001,476.73095781250004 459.4092929687501,475.9666873046875 459.95955000000004,475.30026250000003 460.6259820312501,474.75001738281253 461.39025625000005,474.3342859375 462.23403984375005,474.0714021484375 463.13900000000007,473.97970000000004 463.13900000000007,473.97970000000004 464.04395976562506,474.0714021484375 464.8877406250001,474.3342859375 465.65200742187506,474.75001738281253 466.3184250000001,475.30026250000003 466.86865820312505,475.9666873046875 467.2843718750001,476.73095781250004 467.5472308593751,477.57474003906253 467.6389000000001,478.47970000000004 467.6389000000001,478.47970000000004 467.6389000000001,480.59050429687505 467.6389000000001,482.701315625 467.6389000000001,484.81213164062507 467.6389000000001,486.92295 467.6389000000001,489.0337683593751 467.6389000000001,491.1445843750001 467.6389000000001,493.25539570312503 467.6389000000001,495.36620000000005 467.6389000000001,495.36620000000005 470.3766294921876,494.3892849609375 472.8721546875001,492.9939296875001 475.0876181640626,491.22736894531255 476.9851625000001,489.13683750000007 478.5269302734376,486.7695701171875 479.67506406250004,484.17280156250007 480.3917064453126,481.3937666015625 480.63900000000007,478.47970000000004 480.63900000000007,478.47970000000004 480.54404316406254,476.68831015625005 480.2638703125001,474.91526250000004 479.80552792968757,473.17888984375 479.17606250000006,471.49752500000005 478.38252050781256,469.88950078125004 477.43194843750007,468.37315000000007 476.3313927734375,466.96680546875007 475.08790000000005,465.6888 460.54550000000006,452.1332 459.90670000000006,451.5376 459.12410000000006,450.8078 458.40700000000004,450.139" fill="none" stroke="black" stroke-width="0.1"/>
        <g id="simplify_80_1">
            <polyline class="fil1 str2" id="simplify_80___0" points="422.139,480.98 422.2444,480.98 422.55899999999997,480.98 423.0784,480.98 423.7951,480.98 424.6993,480.98 425.77819999999997,480.98 427.01649999999995,480.98 428.39699999999993,480.98 429.90029999999996,480.98 431.5053,480.98 433.1893,480.98 434.9289,480.98 436.6994,480.98 438.47610000000003,480.98 440.2341,480.98 441.9486,480.98 442.1544748046875,480.98 442.36034843749997,480.98 442.5662197265625,480.98 442.7720875,480.98 442.9779505859375,480.98 443.1838078125,480.98 443.38965800781256,480.98 443.5955,480.98 445.15180000000004,480.98 446.59560000000005,480.98 446.62046269531254,480.9802669921875 446.64532656250003,480.9805421875 446.6701927734375,480.98082441406257 446.69506250000006,480.9811125 446.71993691406254,480.98140527343753 446.7448171875001,480.9817015625 446.76970449218754,480.98200019531254 446.79460000000006,480.9823 446.94840000000005,480.9871 447.51980000000003,481.1138 448.08320000000003,481.3976 448.63300000000004,481.8356 449.163,482.4231 449.6678,483.154 450.1421,484.02049999999997 450.5808,485.0134" fill="none" stroke="black" stroke-width="0.1"/>
            <polyline class="fil1 str2" id="simplify_80___1" points="453.29540000000003,491.51959999999997 453.887790234375,491.944330859375 454.51089062500006,492.352578125 455.15945820312504,492.73984882812493 455.82825,493.10164999999995 456.512023046875,493.433488671875 457.20553437500007,493.73087187499993 457.9035410156251,493.989306640625 458.60080000000005,494.2043" fill="none" stroke="black" stroke-width="0.1"/>
            <polyline class="fil1 str2" id="simplify_80___2" points="450.58080000000007,485.0134 453.13900000000007,491.4363" fill="none" stroke="black" stroke-width="0.1"/>
        </g>
        <g id="simplify_82_1">
            <polyline class="fil1 str2" id="simplify_82___0" points="473.459,490.588 473.2807,491.06480000000005 473.139,491.4329000000001" fill="none" stroke="black" stroke-width="0.1"/>
            <polyline class="fil1 str2" id="simplify_82___1" points="473.4854,490.5821000000001 474.72546210937503,489.3949158203126 475.825496875,488.08208906250013 476.777701953125,486.6599333984376 477.57427500000006,485.14476250000007 478.20741367187503,483.55289003906256 478.66931562499997,481.9006296875001 478.952178515625,480.2042951171876 479.0482,478.4802000000001 479.0482,478.4802000000001 478.961878125,476.8516861328126 478.70718125,475.2398328125001 478.29051250000003,473.66130996093756 477.718275,472.13278750000006 476.99687187499995,470.67093535156255 476.13270625,469.2924234375001 475.13218125000003,468.01392167968754 474.0017,466.85210000000006 473.139,466.05260000000004 471.4599,464.52970000000005 469.7922,463.1032000000001 468.14709999999997,461.78260000000006 466.5358,460.5769000000001 464.9693,459.4942000000001 463.4581,458.5419000000001 462.0125,457.7264000000001 460.6423,457.05330000000015 459.12899999999996,456.26170000000013 457.75539999999995,455.3129000000001 456.53229999999996,454.20710000000014 455.52169999999995,453.01280000000014 454.67429999999996,451.69660000000016 454.00519999999995,450.30200000000013" fill="none" stroke="black" stroke-width="0.1"/>
        </g>
        <polyline class="fil1 str2" id="simplify_83_1" points="467.358,494.268 468.0847171875,494.05291054687495 468.821175,493.793615625 469.55913281249997,493.493862890625 470.29035,493.15739999999994 471.0065859375,492.78797460937494 471.69960000000003,492.389334375 472.3611515625,491.965226953125 472.983,491.51939999999996" fill="none" stroke="black" stroke-width="0.1"/>
        <polyline class="fil1 str2" id="simplify_84_1" points="446.949,480.987 446.6003,478.47990000000004 446.4922,476.80600000000004 446.6179,475.03960000000006 446.98240000000004,473.31590000000006 447.61560000000003,471.5887000000001 448.21380000000005,470.4446000000001 448.94710000000003,469.3667000000001 449.26180000000005,468.9799000000001 450.09200000000004,468.2825000000001 450.68890000000005,467.8798000000001 451.27400000000006,467.5588000000001 452.32980000000003,467.16280000000006 453.266,467.0305000000001 454.0058,467.1258000000001 454.74690000000004,467.2525000000001 455.64930000000004,467.2683000000001 456.69860000000006,467.2120000000001 457.97390000000007,467.1209000000001 459.40060000000005,467.0564000000001 460.95670000000007,467.0766000000001 462.2218000000001,467.1855000000001 463.5411000000001,467.4011000000001 464.88700000000006,467.7438000000001 466.2517000000001,468.2417000000001 467.5950000000001,468.9021000000001 468.8699000000001,469.72390000000007 470.3543000000001,471.01810000000006 471.6094000000001,472.55160000000006 472.5204000000001,474.17460000000005 473.1384000000001,475.95520000000005 473.1981433593751,476.25777304687506 473.25610312500015,476.570084375 473.31037382812514,476.889122265625 473.35905000000014,477.2118750000001 473.4002261718751,477.53533085937505 473.4319968750001,477.8564781250001 473.4524566406251,478.1723050781251 473.4597000000001,478.47980000000007 473.45960000000014,490.58760000000007" fill="none" stroke="black" stroke-width="0.1"/>
        <polyline class="fil1 str2" id="simplify_85_1" points="473.139,491.433 473.139,478.4804 472.9352513671875,476.4693384765625 472.3510921875,474.5942390625 471.4272650390625,472.89584199218746 470.2045125,471.41488749999996 468.72357714843747,470.1921158203125 467.0252015625,469.2682671875 465.1501283203125,468.6840818359375 463.1391,468.4803 463.1391,468.4803 461.128071484375,468.6840818359375 459.252996875,469.2682671875 457.554617578125,470.1921158203125 456.073675,471.41488749999996 454.85091054687496,472.8958419921875 453.927065625,474.59423906250004 453.342881640625,476.4693384765625 453.1391,478.4804 453.139,491.4367" fill="none" stroke="black" stroke-width="0.1"/>
        <polygon id="center_00" cx="463.139" cy="478.48" points="473.139,478.48 473.08421895368275,479.5252846326766 472.92047600733804,480.5591169081776 472.64956516295155,481.5701699437495 472.274454576426,482.547366430758 471.7992540378444,483.48 471.22916994374947,484.35785252292476 470.57044825477396,485.1713060635886 469.8303060635886,485.911448254774 469.01685252292475,486.5701699437495 468.139,487.1402540378444 467.206366430758,487.61545457642603 466.22916994374947,487.99056516295155 465.2181169081776,488.26147600733805 464.18428463267657,488.42521895368276 463.139,488.48 462.09371536732345,488.42521895368276 461.0598830918224,488.26147600733805 460.04883005625055,487.99056516295155 459.071633569242,487.61545457642603 458.139,487.1402540378444 457.26114747707527,486.5701699437495 456.44769393641144,485.911448254774 455.70755174522606,485.1713060635886 455.04883005625055,484.35785252292476 454.47874596215564,483.48 454.003545423574,482.547366430758 453.6284348370485,481.5701699437495 453.357523992662,480.5591169081776 453.19378104631727,479.5252846326766 453.139,478.48 453.19378104631727,477.43471536732346 453.357523992662,476.40088309182244 453.6284348370485,475.38983005625056 454.003545423574,474.412633569242 454.47874596215564,473.48 455.04883005625055,472.6021474770753 455.70755174522606,471.78869393641145 456.44769393641144,471.04855174522606 457.26114747707527,470.38983005625056 458.139,469.81974596215565 459.071633569242,469.344545423574 460.04883005625055,468.9694348370485 461.0598830918224,468.698523992662 462.09371536732345,468.5347810463173 463.139,468.48 464.18428463267657,468.5347810463173 465.2181169081776,468.69852399266193 466.22916994374947,468.9694348370485 467.206366430758,469.344545423574 468.139,469.81974596215565 469.01685252292475,470.38983005625056 469.8303060635886,471.04855174522606 470.57044825477396,471.78869393641145 471.22916994374947,472.6021474770753 471.7992540378444,473.48 472.274454576426,474.412633569242 472.64956516295155,475.38983005625056 472.92047600733804,476.40088309182244 473.08421895368275,477.43471536732346" fill="none" stroke="black" stroke-width="0.1"/>
    </g>
</svg>
