<!DOCTYPE svg PUBLIC "-//W3C//DTD SVG 1.1//EN" "http://www.w3.org/Graphics/SVG/1.1/DTD/svg11.dtd">
<svg xmlns="http://www.w3.org/2000/svg" width="297mm" height="210mm" viewBox="0 0 297 210">
    <defs id="_tag_115_"/>
    <g id="_tag_116_">
        <polygon class="fil1 str1" id="simplify_95_1" points="518.137,183.38 519.5369999999999,182.78 551.064,182.78 549.2026999999999,185.98 516.837,185.98 516.837,185.78 517.737,184.98 518.1370999999999,184.98 518.0164291015624,184.9677744140625 517.9039203124998,184.9327265625 517.8020169921874,184.8772998046875 517.7131625,184.8039375 517.6398001953123,184.7150830078125 517.5843734374998,184.6131796875 517.5493255859374,184.5006708984375 517.5370999999999,184.38 517.5370999999999,184.38 517.5493255859374,184.25932910156249 517.5843734374998,184.14682031249998 517.6398001953123,184.0449169921875 517.7131625,183.9560625 517.8020169921874,183.88270019531248 517.9039203124998,183.8272734375 518.0164291015624,183.7922255859375 518.1370999999999,183.78 518.137,183.38" fill="none" stroke="black" stroke-width="0.1"/>
        <line id="simplify_96" x1="551.2" y1="183.38" x2="518.137" y2="183.38" stroke="black" stroke-width="0.1"/>
        <line id="simplify_97" x1="550.899" y1="183.78" x2="518.137" y2="183.78" stroke="black" stroke-width="0.1"/>
        <line id="simplify_98" x1="551.527" y1="184.98" x2="518.137" y2="184.98" stroke="black" stroke-width="0.1"/>
        <polyline id="simplify_SVG__000042" points="550.846,185.78 516.947,185.78 516.837,185.78" fill="none" stroke="black" stroke-width="0.1"/>
        <polygon class="fil1 str0" id="simplify_100_1" points="553.139,228.006 553.1396,468.98 517.1396,468.98 517.139,213.95300000000003 517.1386,213.95280000000002 517.1331978515625,213.72134589843753 517.1173578124999,213.4854984375 517.0916294921875,213.24745488281255 517.0565624999999,213.00941250000002 517.0127064453125,212.77356855468753 516.9606109375,212.54212031250006 516.9008255859375,212.31726503906253 516.8339,212.10120000000003 514.3924999999999,204.71080000000003 514.3367427734373,204.53073007812506 514.2869234374999,204.34334062500005 514.2434955078124,204.150462109375 514.2069124999999,203.95392500000005 514.1776279296874,203.75555976562504 514.1560953124999,203.55719687500005 514.1427681640623,203.36066679687502 514.1380999999999,203.16780000000003 514.1380999999999,187.96890000000002 514.1790187499998,187.56668281250003 514.2959687499999,187.19166250000004 514.480803125,186.85198593750002 514.725375,186.55580000000003 515.0215374999999,186.31125156250002 515.3611437499999,186.12648750000002 515.7360468749999,186.00965468750002 516.1380999999999,185.96890000000002 544.6145999999999,185.96880000000002 545.0925999999998,185.91010000000003 545.7205999999999,185.83280000000002 546.8225999999999,185.53580000000002 547.2555999999998,185.37080000000003 547.6835999999998,185.17880000000002 548.1015999999998,184.96080000000003 548.5105999999998,184.71580000000003 548.9075999999999,184.44380000000004 549.5785999999999,183.89680000000004 550.1389999999999,183.31080000000003 550.1389999999999,161.22820000000002 550.8929150390624,159.15437539062503 551.6469203124999,157.080553125 552.4009935546874,155.006735546875 553.1551124999999,152.932925 553.9092548828123,150.85912382812504 554.6633984374998,148.78533437500005 555.4175208984375,146.71155898437502 556.1715999999999,144.63780000000003 557.2466,141.68180000000004 558.2846,138.82780000000002 559.2815999999999,136.08480000000003 560.2345999999999,133.46280000000002 560.7395999999999,131.77280000000002 561.0395999999998,130.0558 561.1385999999999,128.3368 561.1385999999999,126.9338 561.1385957031249,125.68980820312501 561.1385843749999,124.44580937500001 561.1385683593749,123.201805859375 561.1385499999999,121.9578 561.1385316406249,120.71379414062501 561.1385156249999,119.469790625 561.1385042968749,118.225791796875 561.1384999999999,116.9818 561.1384999999999,116.9818 561.15891328125,116.78003125000001 561.217375,116.592025 561.3098304687499,116.42183125000001 561.4322249999999,116.27350000000001 561.5805039062499,116.15108125 561.7506125,116.058625 561.9384960937499,116.00018125000001 562.1401,115.97980000000001 574.0856,115.97980000000001 574.6016,116.02380000000001 575.0186,116.12780000000001 575.5126,116.33980000000001 575.9596,116.63680000000001 576.2526,116.87180000000001 576.6786000000001,117.21180000000001 577.1056000000001,117.5528 577.6136000000001,117.9598 577.7976000000001,118.1138 577.9896000000001,118.2918 578.1856000000001,118.49579999999999 578.3836000000001,118.72679999999998 578.5796000000001,118.98679999999999 578.8946000000002,119.4968 579.0846000000003,119.8908 579.1336000000002,120.0098 579.1706000000003,120.1058 579.1976000000003,120.1798 579.2156000000003,120.2308 579.4036000000003,120.9368 579.4856000000003,121.6618 579.4626000000003,122.3918 579.3326000000003,123.1108 578.9106000000003,124.7478 576.1642066406253,135.4308599609375 573.4163718750002,146.11356718750002 570.6674261718753,156.7960001953125 567.9177000000003,167.47823749999998 565.1675238281252,178.1603576171875 562.4172281250003,188.84243906249998 559.6671433593752,199.5245603515625 556.9176000000002,210.2068 553.9216000000002,221.84879999999998 553.4856000000002,223.8918 553.2246000000002,225.9478 553.1390000000002,228.0058" fill="none" stroke="black" stroke-width="0.1"/>
        <g id="simplify_101_1">
            <polyline class="fil1 str2" id="simplify_101___0" points="556.405,448.272 556.405,448.2719" fill="none" stroke="black" stroke-width="0.1"/>
            <polyline class="fil1 str2" id="simplify_101___1" points="556.405,448.2719 556.405,448.2719" fill="none" stroke="black" stroke-width="0.1"/>
            <polyline class="fil1 str2" id="simplify_101___2" points="556.405,448.2719 556.4048,448.2717" fill="none" stroke="black" stroke-width="0.1"/>
            <polyline class="fil1 str2" id="simplify_101___3" points="556.4048,448.2717 556.404,448.271" fill="none" stroke="black" stroke-width="0.1"/>
            <polyline class="fil1 str2" id="simplify_101___4" points="556.404,448.271 556.401,448.26820000000004" fill="none" stroke="black" stroke-width="0.1"/>
            <polygon class="fil1 str2" id="simplify_101___5" points="556.4070999999999,448.27380000000005 556.401,448.26820000000004 556.3690097656249,448.2381810546875 556.337153125,448.20799218750005 556.3054136718749,448.17766035156257 556.2737749999999,448.1472125 556.242220703125,448.1166755859375 556.2107343749999,448.0860765625 556.1792996093749,448.05544238281254 556.1478999999999,448.0248 555.8982,447.7701 555.4259,447.2423 554.5889,446.1176 553.8868,444.8882 553.3475999999999,443.61179999999996 553.3475999999999,443.61179999999996 553.1306999999999,442.86749999999995 553.1297999999999,443.19559999999996 553.0615999999999,444.97749999999996 552.9475999999999,445.86519999999996 552.7844999999999,446.65369999999996 552.5734999999999,447.34299999999996 552.1704999999998,448.19089999999994 552.1704999999998,448.19089999999994 551.6685999999999,448.81569999999994 551.6685999999999,467.25299999999993 550.9589999999998,467.15009999999995 550.0987999999999,467.25759999999997 549.1550999999998,467.6002 548.1195999999999,468.2217 547.2214999999999,468.9796 543.5152914062498,468.9796 539.8090687499998,468.9796 536.1028367187498,468.9796 532.3965999999998,468.9796 528.6903632812499,468.9796 524.9841312499998,468.9796 521.2779085937498,468.9796 517.5716999999999,468.9796 517.2474999999998,468.9796 517.1388999999998,468.9796 520.1388999999998,480.9796 530.6388999999998,480.9796 532.3836999999999,481.0815 534.1047999999998,481.3855 535.7787999999998,481.8877 537.3830999999998,482.5813 538.8957999999998,483.4567 539.7117999999998,483.9947 540.5981999999998,484.5792 553.4335999999998,493.02950000000004 554.0301556640622,493.396270703125 554.6478578124998,493.74816562500007 555.2837591796873,494.08215898437504 555.9349124999999,494.39522500000004 556.5983705078123,494.68433789062505 557.2711859374997,494.94647187500004 557.9504115234372,495.1786011718751 558.6330999999998,495.37770000000006 558.6388999999998,478.4795000000001 558.7306351562498,477.5745400390626 558.9935437499998,476.7307578125001 559.4092929687498,475.9664873046876 559.9595499999998,475.3000625000001 560.6259820312498,474.7498173828126 561.3902562499998,474.33408593750005 562.2340398437498,474.0712021484376 563.1389999999998,473.9795000000001 563.1389999999998,473.9795000000001 564.0439597656248,474.0712021484376 564.8877406249999,474.33408593750005 565.6520074218748,474.7498173828126 566.3184249999997,475.3000625000001 566.8686582031248,475.9664873046876 567.2843718749998,476.7307578125001 567.5472308593748,477.5745400390626 567.6388999999998,478.4795000000001 567.6385999999998,495.3656000000001 570.3757681640623,494.38823867187506 572.8710578124998,492.9925906250001 575.0865341796873,491.2258847656251 576.9842624999998,489.1353500000001 578.5263080078123,486.7682152343751 579.6747359374998,484.1717093750001 580.3916115234373,481.3930613281251 580.6389999999998,478.4795000000001 580.6389999999998,478.4795000000001 580.5440431640623,476.6881101562501 580.2638703124999,474.9150625000001 579.8055279296873,473.1786898437501 579.1760624999997,471.4973250000001 578.3825205078123,469.8893007812501 577.4319484374998,468.3729500000001 576.3313927734373,466.9666054687501 575.0878999999998,465.68860000000006 558.5453999999997,450.26790000000005 557.9063999999997,449.6720000000001 557.1239999999997,448.9424000000001 556.4070999999997,448.27380000000005" fill="none" stroke="black" stroke-width="0.1"/>
        </g>
        <polygon id="center_00" cx="563.139" cy="478.48" points="573.139,478.48 573.0842189536827,479.5252846326766 572.920476007338,480.5591169081776 572.6495651629515,481.5701699437495 572.274454576426,482.547366430758 571.7992540378444,483.48 571.2291699437495,484.35785252292476 570.570448254774,485.1713060635886 569.8303060635886,485.911448254774 569.0168525229248,486.5701699437495 568.139,487.1402540378444 567.2063664307581,487.61545457642603 566.2291699437495,487.99056516295155 565.2181169081776,488.26147600733805 564.1842846326765,488.42521895368276 563.139,488.48 562.0937153673235,488.42521895368276 561.0598830918224,488.26147600733805 560.0488300562505,487.99056516295155 559.071633569242,487.61545457642603 558.139,487.1402540378444 557.2611474770753,486.5701699437495 556.4476939364114,485.911448254774 555.707551745226,485.1713060635886 555.0488300562505,484.35785252292476 554.4787459621556,483.48 554.003545423574,482.547366430758 553.6284348370485,481.5701699437495 553.357523992662,480.5591169081776 553.1937810463173,479.5252846326766 553.139,478.48 553.1937810463173,477.43471536732346 553.357523992662,476.40088309182244 553.6284348370484,475.38983005625056 554.003545423574,474.412633569242 554.4787459621556,473.48 555.0488300562505,472.6021474770753 555.707551745226,471.78869393641145 556.4476939364114,471.04855174522606 557.2611474770753,470.38983005625056 558.139,469.81974596215565 559.071633569242,469.344545423574 560.0488300562505,468.9694348370485 561.0598830918224,468.698523992662 562.0937153673235,468.5347810463173 563.139,468.48 564.1842846326765,468.5347810463173 565.2181169081776,468.69852399266193 566.2291699437495,468.9694348370485 567.206366430758,469.344545423574 568.139,469.81974596215565 569.0168525229248,470.38983005625056 569.8303060635886,471.04855174522606 570.570448254774,471.78869393641145 571.2291699437495,472.6021474770753 571.7992540378444,473.48 572.274454576426,474.412633569242 572.6495651629515,475.38983005625056 572.920476007338,476.40088309182244 573.0842189536827,477.43471536732346" fill="none" stroke="black" stroke-width="0.1"/>
        <line id="simplify_103" x1="545.136" y1="478.48" x2="545.664" y2="480.981" stroke="black" stroke-width="0.1"/>
        <polyline class="fil2 str1" id="simplify_104_1" points="521.749,480.98 522.5391294921875,480.98 523.3292671875001,480.98 524.1194119140625,480.98 524.9095625,480.98 525.6997177734374,480.98 526.4898765625001,480.98 527.2800376953124,480.98 528.0702,480.98 545.5464,480.98 545.5546544921875,480.9800087890625 545.5629171875,480.98003281250004 545.5711869140624,480.9800685546875 545.5794624999999,480.9801125 545.5877427734374,480.98016113281255 545.5960265624999,480.98021093750003 545.6043126953124,480.9802583984375 545.6125999999999,480.9803 545.6641999999999,480.9809 546.3988999999999,481.1009 547.1227999999999,481.4211 547.8261999999999,481.93730000000005 548.4994999999999,482.64250000000004 549.1336999999999,483.52720000000005 549.7202999999998,484.5796 550.1476169921873,485.4430044921875 550.5749421874998,486.3064171875 551.0022744140624,487.16983691406256 551.4296124999998,488.0332625 551.8569552734373,488.8966927734375 552.2843015624998,489.76012656250003 552.7116501953124,490.6235626953125 553.1389999999998,491.487 553.9931999999998,492.03880000000004 554.5081679687498,492.4353931640626 555.0545187499997,492.79795156250003 555.6252726562498,493.12550605468755 556.2134499999997,493.4170875000001 556.8120710937499,493.6717267578125 557.4141562499998,493.88845468750003 558.0127257812499,494.06630214843756 558.6007999999998,494.20430000000005" fill="none" stroke="black" stroke-width="0.1"/>
        <polyline id="simplify_SVG__000045" points="573.539,490.519 573.317,491.035 573.139,491.433" fill="none" stroke="black" stroke-width="0.1"/>
        <polyline class="fil2 str1" id="simplify_106_1" points="567.358,494.268 568.0842689453125,494.05304589843746 568.8202890625,493.79392968749994 569.5578302734374,493.4943955078125 570.2886624999999,493.15818749999994 571.0045556640624,492.78904980468747 571.6972796874999,492.39072656249994 572.3586044921874,491.96696191406244 572.9802999999999,491.52149999999995 572.9802999999999,491.52149999999995 572.9873205078125,491.51752792968745 573.0053390625,491.50742343749994 573.0306912109374,491.4932291015624 573.0597124999999,491.47698749999995 573.0887384765624,491.4607412109375 573.1141046875,491.4465328125 573.1321466796875,491.4364048828125 573.1392,491.4324" fill="none" stroke="black" stroke-width="0.1"/>
        <g id="simplify_107_1">
            <polyline class="fil2 str1" id="simplify_107___0" points="551.669,448.816 552.4045,450.2475 553.3045999999999,451.5847 554.361,452.7944 555.6132,453.8996 557.0088,454.8415 557.200425,454.93881250000004 557.3920499999999,455.0361250000001 557.5836749999999,455.13343749999996 557.7753,455.23075 557.966925,455.32806250000004 558.15855,455.4253749999999 558.3501749999998,455.52268749999996 558.5418,455.62 559.9498,456.2857 561.4318,457.0878 562.9794999999999,458.02160000000003 564.5841999999999,459.0821 566.2368999999999,460.26320000000004 567.9282999999999,461.55830000000003 569.6489999999999,462.96020000000004 571.3891999999998,464.46090000000004 573.1392999999998,466.0522 574.0019999999998,466.85170000000005 575.1324812499998,468.0135216796875 576.1330062499999,469.29202343750006 576.9971718749998,470.67053535156253 577.7185749999999,472.13238750000005 578.2908124999998,473.66090996093754 578.7074812499998,475.23943281250007 578.9621781249998,476.85128613281256 579.0484999999999,478.47980000000007 579.0484999999999,478.47980000000007 578.9531720703123,480.19766660156256 578.6723328124999,481.8880328125001 578.2136990234374,483.5347607421876 577.5849874999999,485.12171250000006 576.7939150390623,486.63275019531255 575.8481984374998,488.0517359375001 574.7555544921873,489.3625318359376 573.5236999999998,490.5490000000001" fill="none" stroke="black" stroke-width="0.1"/>
            <polyline class="fil2 str1" id="simplify_107___1" points="573.5392999999998,478.4799000000001 573.5392999999998,490.5190000000001" fill="none" stroke="black" stroke-width="0.1"/>
            <polyline class="fil2 str1" id="simplify_107___2" points="573.5393999999998,478.4798000000001 573.5319873046873,478.1428218750001 573.5105671874998,477.8024312500001 573.4763666015623,477.4590312500001 573.4306124999998,477.1130250000001 573.3745318359373,476.7648156250001 573.3093515624997,476.41480625000014 573.2362986328122,476.0634000000001 573.1565999999998,475.7110000000001 572.5429999999998,474.03300000000013 571.7073999999998,472.5543000000001 570.8591999999998,471.44710000000015 569.8840999999998,470.4463000000001 568.8104999999997,469.5700000000001 567.4596999999997,468.7150000000001 566.0315999999997,468.0324000000001 564.5744999999997,467.5234000000001 563.1300999999997,467.1804000000001 561.7049999999997,466.97510000000005 560.3271999999997,466.8869000000001 558.2635999999998,466.9312000000001 556.3740999999998,467.10750000000013 554.6915999999998,467.3075000000001 553.5417999999997,467.40660000000014 552.5287999999997,467.40290000000016 551.6689999999998,467.25330000000014 550.9593999999997,467.15040000000016 550.0991999999998,467.2579000000002 549.1554999999997,467.6005000000002 548.1199999999998,468.2220000000002 547.2218999999998,468.9799000000002 546.9084999999998,469.4166000000002 546.2477999999998,470.5361000000002 545.7292999999997,471.7061000000002 545.2150999999998,473.4373000000002 544.9595999999998,475.14240000000024 544.9365999999998,476.86970000000025 545.1357999999998,478.47990000000027" fill="none" stroke="black" stroke-width="0.1"/>
        </g>
        <polyline class="fil2 str1" id="simplify_108_1" points="573.139,491.433 573.139,478.4804 572.9352513671874,476.4693384765625 572.3510921875,474.5942390625 571.4272650390625,472.89584199218746 570.2045125,471.41488749999996 568.7235771484375,470.1921158203125 567.0252015625,469.2682671875 565.1501283203124,468.6840818359375 563.1391,468.4803 563.1391,468.4803 561.128071484375,468.6840818359375 559.252996875,469.2682671875 557.554617578125,470.1921158203125 556.073675,471.41488749999996 554.850910546875,472.8958419921875 553.9270656250001,474.59423906250004 553.342881640625,476.4693384765625 553.1391,478.4804 553.139,491.4874" fill="none" stroke="black" stroke-width="0.1"/>
        <polyline id="simplify_SVG__000046" points="561.338,120.498 561.601,120.883 562.009,121.104 562.301,121.181 562.758,121.301 563.37,121.462 564.127,121.661 564.755,121.872 565.428,122.209 566.096,122.69 566.639,123.229 567.117,123.883 567.229,124.074 567.346,124.3 567.464,124.56 567.578,124.858 567.682,125.193 567.755,125.506 567.817,125.883 567.852,126.323 567.843,126.84 567.788,127.309 567.76,127.446 567.714,127.675 567.641,127.94 567.584,128.129 567.119,129.674 554.621,171.115 552.412,178.437 551.815,180.41 551.357,181.542 550.866,182.394 550.344,183.096 550.139,183.311" fill="none" stroke="black" stroke-width="0.1"/>
        <g id="simplify_110_1">
            <polyline class="fil2 str3" id="simplify_110___0" points="514.97,203.974 545.5360000000001,203.974" fill="none" stroke="black" stroke-width="0.1"/>
            <polyline class="fil2 str3" id="simplify_110___1" points="545.5360000000001,203.974 545.902,203.94989999999999 546.2710000000001,203.87769999999998 546.6460000000001,203.75809999999998 547.0240000000001,203.5895 547.2630000000001,203.45819999999998 547.5370000000001,203.2788 547.9870000000002,202.97199999999998 548.2464000000002,202.79229999999998" fill="none" stroke="black" stroke-width="0.1"/>
            <polyline class="fil2 str3" id="simplify_110___2" points="556.8930000000003,195.8809 553.3470000000002,198.9227 551.0200000000002,200.77679999999998 548.6130000000002,202.53849999999997 548.2464000000002,202.79229999999998" fill="none" stroke="black" stroke-width="0.1"/>
        </g>
        <polyline id="simplify_SVG__000047" points="517.873,213.062 547.865,213.062 548.274,213.165 548.672,213.472 549.057,213.983 549.43,214.7 549.6,215.106 549.8,215.641 550.028,216.303 550.264,217.018 550.447,217.574 550.582,217.971 550.987,219.203 551.36,220.413 551.73,221.707 552.071,222.963 552.348,224.03 552.509,224.673 552.652,225.265 552.777,225.804 552.884,226.293 552.972,226.73 553.111,227.6 553.111,227.6 553.138,228.016" fill="none" stroke="black" stroke-width="0.1"/>
        <polyline id="simplify_112" points="515.746,187.98 541.343,187.98 545.148,187.98 547.175,187.558 548.64,186.959 549.978,186.057 550.837,185.232 551.557,184.332 552.201,183.303 552.77,182.146 553.262,180.862" fill="none" stroke="black" stroke-width="0.1"/>
    </g>
</svg>
