<!DOCTYPE svg PUBLIC "-//W3C//DTD SVG 1.1//EN" "http://www.w3.org/Graphics/SVG/1.1/DTD/svg11.dtd">
<svg xmlns="http://www.w3.org/2000/svg" width="297mm" height="210mm" viewBox="0 0 297 210">
    <defs id="_tag_169_"/>
    <g id="_tag_170_">
        <polygon class="fil1 str1" id="simplify_148_1" points="714.138,151.88 715.538,151.28 747.065,151.28 745.2037,154.48 712.8380000000001,154.48 712.8380000000001,154.28 713.738,153.48 714.1381,153.48 714.0174291015625,153.4677744140625 713.9049203125,153.4327265625 713.8030169921875,153.3772998046875 713.7141624999999,153.3039375 713.6408001953125,153.2150830078125 713.5853734375,153.1131796875 713.5503255859376,153.0006708984375 713.5381,152.88 713.5381,152.88 713.5503255859376,152.75932910156249 713.5853734375,152.64682031249998 713.6408001953125,152.5449169921875 713.7141624999999,152.4560625 713.8030169921875,152.38270019531248 713.9049203125,152.3272734375 714.0174291015625,152.2922255859375 714.1381,152.28 714.138,151.88" fill="none" stroke="black" stroke-width="0.1"/>
        <line id="simplify_149" x1="747.201" y1="151.88" x2="714.138" y2="151.88" stroke="black" stroke-width="0.1"/>
        <line id="simplify_150" x1="746.9" y1="152.28" x2="714.138" y2="152.28" stroke="black" stroke-width="0.1"/>
        <line id="simplify_151" x1="747.528" y1="153.48" x2="714.138" y2="153.48" stroke="black" stroke-width="0.1"/>
        <polyline id="simplify_SVG__000063" points="746.847,154.28 712.948,154.28 712.838,154.28" fill="none" stroke="black" stroke-width="0.1"/>
        <polygon class="fil1 str0" id="simplify_154_1" points="749.139,196.515 749.1396,468.979 713.1396,468.979 713.139,182.368 713.1303751953125,182.1453958984375 713.1123953125,181.91941093749998 713.0855396484375,181.69196113281248 713.0502875000001,181.46496249999998 713.0071181640626,181.24033105468752 712.9565109375001,181.0199828125 712.8989451171876,180.8058337890625 712.8349000000001,180.5998 710.3935,173.2094 710.3377427734375,173.029330078125 710.2879234375,172.841940625 710.2444955078125,172.64906210937497 710.2079125,172.452525 710.1786279296875,172.254159765625 710.1570953125,172.055796875 710.1437681640625,171.85926679687498 710.1391,171.66639999999998 710.1391,156.46749999999997 710.1800187499999,156.0652828125 710.29696875,155.6902625 710.4818031249999,155.35058593749997 710.726375,155.0544 711.0225375,154.80985156249997 711.3621437500001,154.62508749999998 711.737046875,154.50825468749997 712.1391,154.46749999999997 740.6156,154.46739999999997 741.0935999999999,154.40869999999998 741.7216,154.33139999999997 742.8235999999999,154.03439999999998 743.2565999999999,153.86939999999998 743.6845999999999,153.67739999999998 744.1025999999999,153.4594 744.5115999999999,153.21439999999998 744.9086,152.9424 745.5796,152.3954 746.14,151.80939999999998 746.14,129.72679999999997 746.8939150390624,127.65297539062499 747.6479203125,125.57915312499996 748.4019935546875,123.50533554687497 749.1561125000001,121.43152499999997 749.9102548828125,119.35772382812497 750.6643984374999,117.28393437499997 751.4185208984376,115.21015898437497 752.1726,113.13639999999997 753.2476,110.18039999999996 754.2856,107.32639999999996 755.2826,104.58339999999997 756.2356,101.96139999999997 756.7406,100.27139999999997 757.0405999999999,98.55439999999997 757.1396,96.83539999999998 757.1396,95.43239999999997 757.139595703125,94.18840820312496 757.1395843749999,92.94440937499998 757.1395683593751,91.70040585937497 757.13955,90.45639999999997 757.1395316406249,89.21239414062498 757.1395156250001,87.96839062499997 757.139504296875,86.72439179687498 757.1395,85.48039999999997 757.1395,85.48039999999997 757.15991328125,85.27863124999996 757.2183749999999,85.09062499999997 757.31083046875,84.92043124999998 757.433225,84.77209999999997 757.58150390625,84.64968124999999 757.7516125,84.55722499999997 757.93949609375,84.49878124999998 758.1411,84.47839999999998 770.0866000000001,84.47839999999998 770.6026,84.52239999999998 771.0196000000001,84.62639999999998 771.5136000000001,84.83839999999998 771.9606000000001,85.13539999999998 772.2536000000001,85.37039999999998 772.6796000000002,85.71039999999998 773.1066000000002,86.05139999999997 773.6146000000002,86.45839999999997 773.7986000000002,86.61239999999997 773.9906000000002,86.79039999999996 774.1866000000002,86.99439999999996 774.3846000000002,87.22539999999995 774.5806000000002,87.48539999999996 774.8956000000003,87.99539999999996 775.0856000000003,88.38939999999997 775.1346000000003,88.50839999999997 775.1716000000004,88.60439999999997 775.1986000000004,88.67839999999997 775.2166000000004,88.72939999999997 775.4046000000004,89.43539999999997 775.4866000000004,90.16039999999997 775.4636000000004,90.89039999999997 775.3336000000004,91.60939999999997 774.9116000000004,93.24639999999997 772.1652066406253,103.92945996093746 769.4173718750004,114.61216718749996 766.6684261718754,125.29460019531248 763.9187000000004,135.9768375 761.1685238281254,146.65895761718747 758.4182281250004,157.3410390625 755.6681433593753,168.02316035156247 752.9186000000003,178.70539999999997 749.9226000000003,190.34739999999996 749.4866000000003,192.39039999999997 749.2256000000003,194.44639999999998 749.1396000000003,196.5144 749.1390000000004,196.51399999999998" fill="none" stroke="black" stroke-width="0.1"/>
        <polyline id="simplify_SVG__000065" points="757.339,88.9978 757.602,89.3828 758.01,89.6038 758.302,89.6808 758.759,89.8008 759.371,89.9618 760.128,90.1608 760.756,90.3718 761.429,90.7088 762.097,91.1898 762.64,91.7288 763.118,92.3828 763.23,92.5738 763.347,92.7998 763.465,93.0598 763.579,93.3578 763.683,93.6928 763.756,94.0058 763.818,94.3828 763.853,94.8228 763.844,95.3398 763.789,95.8088 763.762,95.9463 763.715,96.1748 763.642,96.4398 763.585,96.6288 763.12,98.1738 750.622,139.615 748.413,146.937 747.816,148.91 747.358,150.042 746.867,150.894 746.345,151.596 746.14,151.811" fill="none" stroke="black" stroke-width="0.1"/>
        <g id="simplify_156_1">
            <polyline class="fil2 str2" id="simplify_156___0" points="710.971,172.474 741.537,172.474" fill="none" stroke="black" stroke-width="0.1"/>
            <polyline class="fil2 str2" id="simplify_156___1" points="741.537,172.474 741.903,172.44989999999999 742.272,172.37769999999998 742.647,172.25809999999998 743.0250000000001,172.0895 743.2640000000001,171.95819999999998 743.5380000000001,171.7788 743.9880000000002,171.47199999999998 744.2474000000002,171.29229999999998" fill="none" stroke="black" stroke-width="0.1"/>
            <polyline class="fil2 str2" id="simplify_156___2" points="752.8940000000002,164.3809 749.3480000000002,167.4227 747.0210000000002,169.27679999999998 744.6140000000001,171.03849999999997 744.2474000000002,171.29229999999998" fill="none" stroke="black" stroke-width="0.1"/>
        </g>
        <polyline id="simplify_SVG__000066" points="713.874,181.562 743.866,181.562 744.275,181.665 744.673,181.972 745.058,182.483 745.431,183.2 745.601,183.606 745.801,184.141 746.029,184.803 746.265,185.518 746.448,186.074 746.583,186.471 746.988,187.703 747.361,188.913 747.731,190.207 748.072,191.463 748.349,192.53 748.51,193.173 748.653,193.765 748.778,194.304 748.885,194.793 748.973,195.23 749.112,196.1 749.112,196.1 749.139,196.516" fill="none" stroke="black" stroke-width="0.1"/>
        <g id="simplify_158_1">
            <polygon class="fil3 str3" id="simplify_158___0" points="716.139,480.98 713.139,468.98 743.5235,468.98 744.0087,468.608 744.8285,468.1468 745.5976999999999,467.902 746.3272,467.85159999999996 746.9615,467.98089999999996 746.9615,445.53669999999994 747.6657,445.08869999999996 747.6657,445.08869999999996 748.2402,444.34439999999995 748.5436,443.6944 748.7872,442.9147 748.9686,442.0053 749.1206000000001,439.45 749.1390000000001,439.1636 749.3477000000001,439.8821 749.3477000000001,439.8821 749.8869000000002,441.1586 750.5890000000002,442.388 751.4260000000002,443.5127 751.8983000000002,444.0404 752.1480000000001,444.29519999999997 752.2762000000001,444.42019999999997 752.3085000000001,444.4512 752.3411000000001,444.4822 752.3891000000001,444.52729999999997 752.4011,444.53849999999994 752.4069000000001,444.54389999999995 753.1249,445.21349999999995 753.9084,445.94409999999993 754.5455000000001,446.53829999999994 775.0879000000001,465.68899999999996 776.3313927734376,466.96700546875 777.4319484375001,468.37334999999996 778.3825205078126,469.88970078125 779.1760625000002,471.49772499999995 779.8055279296876,473.17908984375 780.2638703125001,474.9154625 780.5440431640627,476.68851015625 780.6390000000001,478.4799 780.6390000000001,478.4799 780.3916164062501,481.39342832031247 779.6747562500001,484.1720515625 778.5263554687501,486.76853964843747 776.9843500000001,489.13566249999997 775.08667578125,491.2261900390625 772.8712687500001,492.9928921875 770.3760648437501,494.3885388671875 767.6390000000001,495.3659 767.6390000000001,495.3659 767.6390000000001,493.25516640625005 767.6390000000001,491.14441875 767.6390000000001,489.03366171875 767.6390000000001,486.9229 767.6390000000001,484.81213828125 767.6390000000001,482.70138124999994 767.6390000000001,480.59063359375 767.6390000000001,478.4799 767.6390000000001,478.4799 767.5472978515626,477.5749400390625 767.2844140625002,476.7311578125 766.8686826171877,475.9668873046875 766.3184375000002,475.3004625 765.6520126953127,474.7502173828125 764.8877421875002,474.33448593749995 764.0439599609376,474.0716021484375 763.1390000000001,473.9799 763.1390000000001,473.9799 762.2340400390626,474.0716021484375 761.3902578125001,474.33448593749995 760.6259873046876,474.7502173828125 759.9595625000001,475.3004625 759.4093173828126,475.9668873046875 758.9935859375,476.7311578125 758.7307021484377,477.5749400390625 758.6390000000001,478.4799 758.6390000000001,494.2127 758.6390000000001,494.8735 758.6331000000001,495.37809999999996 758.13568984375,495.23327109375 757.6265562500001,495.0674375 757.11266953125,494.88397890625 756.6010000000001,494.68627499999997 756.0985179687502,494.47770546874995 755.6121937500002,494.2616499999999 755.1489976562501,494.04148828125 754.7159000000001,493.82059999999996 736.6616000000001,483.98749999999995 735.5161000000002,483.36369999999994 734.4934000000002,482.80679999999995 732.7997000000001,482.01699999999994 731.0209000000001,481.4438999999999 729.1846,481.0963999999999 727.3194000000001,480.9799999999999 726.8320000000001,480.9799999999999 716.1390000000001,480.9799999999999" fill="none" stroke="black" stroke-width="0.1"/>
            <polyline class="fil3 str3" id="simplify_158___1" points="713.1390000000001,468.9799999999999 716.1390000000001,480.9799999999999" fill="none" stroke="black" stroke-width="0.1"/>
        </g>
        <polygon id="center_00" cx="763.139" cy="478.48" points="773.139,478.48 773.0842189536827,479.5252846326766 772.920476007338,480.5591169081776 772.6495651629515,481.5701699437495 772.274454576426,482.547366430758 771.7992540378444,483.48 771.2291699437495,484.35785252292476 770.570448254774,485.1713060635886 769.8303060635886,485.911448254774 769.0168525229248,486.5701699437495 768.139,487.1402540378444 767.2063664307581,487.61545457642603 766.2291699437495,487.99056516295155 765.2181169081776,488.26147600733805 764.1842846326765,488.42521895368276 763.139,488.48 762.0937153673235,488.42521895368276 761.0598830918224,488.26147600733805 760.0488300562505,487.99056516295155 759.071633569242,487.61545457642603 758.139,487.1402540378444 757.2611474770753,486.5701699437495 756.4476939364114,485.911448254774 755.707551745226,485.1713060635886 755.0488300562505,484.35785252292476 754.4787459621556,483.48 754.003545423574,482.547366430758 753.6284348370485,481.5701699437495 753.357523992662,480.5591169081776 753.1937810463173,479.5252846326766 753.139,478.48 753.1937810463173,477.43471536732346 753.357523992662,476.40088309182244 753.6284348370484,475.38983005625056 754.003545423574,474.412633569242 754.4787459621556,473.48 755.0488300562505,472.6021474770753 755.707551745226,471.78869393641145 756.4476939364114,471.04855174522606 757.2611474770753,470.38983005625056 758.139,469.81974596215565 759.071633569242,469.344545423574 760.0488300562505,468.9694348370485 761.0598830918224,468.698523992662 762.0937153673235,468.5347810463173 763.139,468.48 764.1842846326765,468.5347810463173 765.2181169081776,468.69852399266193 766.2291699437495,468.9694348370485 767.206366430758,469.344545423574 768.139,469.81974596215565 769.0168525229248,470.38983005625056 769.8303060635886,471.04855174522606 770.570448254774,471.78869393641145 771.2291699437495,472.6021474770753 771.7992540378444,473.48 772.274454576426,474.412633569242 772.6495651629515,475.38983005625056 772.920476007338,476.40088309182244 773.0842189536827,477.43471536732346" fill="none" stroke="black" stroke-width="0.1"/>
        <polyline id="simplify_SVG__000068" points="742.972,480.98 741.804,480.98 720.979,480.98" fill="none" stroke="black" stroke-width="0.1"/>
        <polyline id="simplify_SVG__000069" points="742.972,480.98 744.385,481.083 745.491,481.388 746.21,481.836 746.794,482.579" fill="none" stroke="black" stroke-width="0.1"/>
        <line id="simplify_162" x1="773.699" y1="490.379" x2="773.139" y2="491.433" stroke="black" stroke-width="0.1"/>
        <polyline class="fil2 str1" id="simplify_163_1" points="767.358,494.268 768.0847458984374,494.05291054687495 768.8212171875,493.793615625 769.5591767578125,493.493862890625 770.2903875,493.15739999999994 771.0066123046875,492.78797460937494 771.6996140624999,492.389334375 772.3611556640625,491.965226953125 772.983,491.51939999999996" fill="none" stroke="black" stroke-width="0.1"/>
        <g id="simplify_164_1">
            <polyline class="fil2 str1" id="simplify_164___0" points="773.699,478.48 773.699,490.379" fill="none" stroke="black" stroke-width="0.1"/>
            <polyline class="fil2 str1" id="simplify_164___1" points="773.699,478.47990000000004 773.6894720703125,478.07242734375006 773.6614390625,477.65643750000004 773.6157271484375,477.23501015625004 773.5531625,476.81122500000004 773.4745712890624,476.38816171875 773.3807796875,475.9689000000001 773.2726138671875,475.55651953125005 773.1509,475.1541 772.4529,473.49620000000004 771.5307,472.02970000000005 770.5267,470.84740000000005 769.3789,469.79830000000004 768.124,468.9014 766.5653,468.0598 764.928,467.4196 763.2644,466.9772 761.6202000000001,466.7204 759.9968000000001,466.61809999999997 758.4207000000001,466.6468 756.3057000000001,466.8649 754.3117000000001,467.2181 752.4518,467.6192 750.7391,467.9813 749.3496,468.1859 748.0811,468.2062 746.9615,467.9809" fill="none" stroke="black" stroke-width="0.1"/>
            <polyline class="fil2 str1" id="simplify_164___2" points="746.9615,467.9809 746.3272,467.8516 745.5976999999999,467.90200000000004 744.8285,468.14680000000004 744.0087,468.60800000000006 743.5235,468.9800000000001" fill="none" stroke="black" stroke-width="0.1"/>
            <polyline class="fil2 str1" id="simplify_164___3" points="742.8954,478.4800000000001 742.4573,477.5313000000001 742.1460000000001,476.3839000000001 741.9929000000001,475.1839000000001 741.9881,473.8958000000001 742.1594,472.48340000000013 742.5359,471.03680000000014 742.9590999999999,469.98760000000016 743.5234999999999,468.98000000000013" fill="none" stroke="black" stroke-width="0.1"/>
            <polyline class="fil2 str1" id="simplify_164___4" points="742.8953999999999,478.48000000000013 743.2206999999999,478.9767000000001 743.5724999999999,479.3886000000001 744.42721875,480.0848560546876 745.1407499999998,480.7278046875001 745.7506687499998,481.3438166015626 746.2945499999998,481.95926250000014 746.8099687499999,482.6005130859376 747.3344999999999,483.2939390625001 747.9057187499999,484.06591113281263 748.5611999999999,484.9428000000001 753.1389999999999,491.6670000000001 755.2629,492.8244000000001 755.6383998046874,493.0281783203126 756.0329859375,493.22663281250004 756.4430759765625,493.4179552734376 756.8650875,493.6003375000001 757.2954380859375,493.77197128906255 757.7305453124999,493.9310484375001 758.1668267578125,494.07576074218764 758.6007,494.2043000000001" fill="none" stroke="black" stroke-width="0.1"/>
        </g>
        <polyline class="fil2 str1" id="simplify_165_1" points="773.713,490.356 774.900569140625,489.17605292968744 775.954790625,487.8810734375 776.867960546875,486.4850666015625 777.632375,485.0020375 778.240330078125,483.44599121093745 778.684121875,481.8309328125 778.956046484375,480.1708673828125 779.0484,478.4798 779.0484,478.4798 778.9620783203125,476.85131484375006 778.7073828125001,475.23947499999997 778.2907177734376,473.66095390625 777.7184875,472.132425 776.9970962890625,470.67056171875 776.1329484375,469.2920375 775.1324482421876,468.01352578125 774.0020000000001,466.8517 773.1393,466.05219999999997 771.0997000000001,464.1937 769.0697000000001,462.4308 767.0588000000001,460.77189999999996 765.0765000000001,459.2247 763.1320000000002,457.7965 761.2345000000001,456.49399999999997 759.3929000000002,455.32329999999996 757.6159000000001,454.2899 755.9118000000001,453.3986 754.2886000000001,452.6537 752.7074000000001,451.8663 751.2602000000002,450.9028 749.9471000000002,449.7631 748.8045000000002,448.4894 747.8070000000002,447.0705 746.9618000000003,445.53659999999996" fill="none" stroke="black" stroke-width="0.1"/>
        <polyline class="fil2 str1" id="simplify_166_1" points="773.139,491.433 773.139,478.4804 772.935218359375,476.4693384765625 772.3510343749999,474.5942390625 771.427189453125,472.89584199218746 770.204425,471.41488749999996 768.723482421875,470.1921158203125 767.025103125,469.2682671875 765.150028515625,468.6840818359375 763.139,468.4803 763.139,468.4803 761.127971484375,468.6840818359375 759.252896875,469.2682671875 757.554517578125,470.1921158203125 756.073575,471.41488749999996 754.850810546875,472.8958419921875 753.9269656250001,474.59423906250004 753.342781640625,476.4693384765625 753.139,478.4804 753.139,491.6674" fill="none" stroke="black" stroke-width="0.1"/>
        <polyline id="simplify_153" points="711.747,156.48 737.344,156.48 741.149,156.48 743.176,156.058 744.641,155.459 745.979,154.557 746.838,153.732 747.558,152.832 748.202,151.803 748.771,150.646 749.263,149.362" fill="none" stroke="black" stroke-width="0.1"/>
    </g>
</svg>
