<!DOCTYPE svg PUBLIC "-//W3C//DTD SVG 1.1//EN" "http://www.w3.org/Graphics/SVG/1.1/DTD/svg11.dtd">
<svg xmlns="http://www.w3.org/2000/svg" width="297mm" height="210mm" viewBox="0 0 297 210">
    <defs id="_tag_33_"/>
    <g id="_tag_34_">
        <polyline id="_203361264___0___0" class="fil0 str0" points="52.6223,-3.5115 53.4613,-3.4084999999999996 54.3113,-3.1024999999999996 54.5893,-2.9604999999999997 54.8673,-2.8034999999999997 55.1573,-2.6264999999999996 55.4353,-2.4464999999999995 55.7133,-2.2564999999999995 55.9893,-2.0554999999999994 57.0703,-1.1294999999999993 57.9733,-0.10149999999999926 58.6993,1.0305000000000006 59.2473,2.264500000000001" fill="none" stroke="black" stroke-width="0.1"/>
        <polygon id="_203361576_1" points="24.0123,-32.9785 25.4123,-33.5785 56.9393,-33.5785 53.5766,-29.1368 51.5638,-30.3785 22.7123,-30.3785 22.7123,-30.5785 23.6123,-31.3785 24.0124,-31.3785 23.8917,-31.3907 23.7792,-31.4258 23.6773,-31.4812 23.5885,-31.5546 23.5151,-31.6434 23.4597,-31.7453 23.4246,-31.8578 23.4124,-31.9785 23.4124,-31.9785 23.4246,-32.0992 23.4597,-32.2117 23.5151,-32.3136 23.5885,-32.4024 23.6773,-32.4758 23.7792,-32.5312 23.8917,-32.5663 24.0124,-32.5785" fill="none" stroke="black" stroke-width="0.1"/>
        <polyline id="_203361240_1___0" class="fil1 str0" points="52.9033,-32.9785 49.2886,-32.9785 45.676700000000004,-32.9785 42.066700000000004,-32.9785 38.4577,-32.9785 34.848800000000004,-32.9785 31.238800000000005,-32.9785 27.626900000000006,-32.9785 24.012200000000007,-32.9785" fill="none" stroke="black" stroke-width="0.1"/>
        <polyline id="_203342024_1___0" class="fil1 str0" points="52.4373,-32.5785 48.8792,-32.5785 45.325399999999995,-32.5785 41.77439999999999,-32.5785 38.224799999999995,-32.5785 34.6752,-32.5785 31.124199999999995,-32.5785 27.570399999999996,-32.5785 24.012299999999996,-32.5785" fill="none" stroke="black" stroke-width="0.1"/>
        <polyline id="_203342216_1___0" class="fil1 str0" points="50.5053,-31.3785 47.190999999999995,-31.3785 43.879,-31.3785 40.5684,-31.3785 37.2587,-31.3785 33.949,-31.3785 30.638399999999997,-31.3785 27.326399999999996,-31.3785 24.012099999999997,-31.3785" fill="none" stroke="black" stroke-width="0.1"/>
        <polyline id="_203341856_1___0" class="fil1 str0" points="48.1423,-30.5785 44.98,-30.5785 41.8154,-30.5785 38.64919999999999,-30.5785 35.48219999999999,-30.5785 32.31519999999999,-30.5785 29.14899999999999,-30.5785 25.98439999999999,-30.5785 22.82219999999999,-30.5785 22.71279999999999,-30.5785" fill="none" stroke="black" stroke-width="0.1"/>
        <polygon id="_203342120___0_1" class="fil1 str0" points="20.0122,-29.379 20.0122,-12.703600000000002 20.0142,-12.626400000000002 20.0196,-12.547600000000003 20.0283,-12.467800000000002 20.040200000000002,-12.387800000000002 20.054900000000004,-12.308300000000003 20.072200000000002,-12.229700000000003 20.092100000000002,-12.152900000000002 20.114300000000004,-12.078400000000002 22.910300000000003,-3.6788000000000025 22.932700000000004,-3.6045000000000025 22.952700000000004,-3.5278000000000023 22.970100000000002,-3.4494000000000025 22.984800000000003,-3.3699000000000026 22.996500000000005,-3.2900000000000027 23.005000000000006,-3.2104000000000026 23.010300000000004,-3.1317000000000026 23.012000000000004,-3.0545000000000027 23.012600000000003,285.12149999999997 59.012600000000006,285.12149999999997 59.01200000000001,11.819499999999948 59.01200000000001,11.819199999999949 59.12500000000001,10.303899999999949 59.37530000000001,9.12209999999995 84.56620000000001,-82.75010000000006 84.80220000000001,-83.61160000000007 84.84650000000002,-83.78470000000007 84.88690000000003,-83.96720000000008 84.92270000000002,-84.15700000000008 84.95330000000003,-84.35190000000009 84.97820000000003,-84.54950000000008 84.99670000000003,-84.74770000000008 85.00840000000004,-84.94420000000008 85.01250000000003,-85.13670000000008 85.01260000000003,-85.38580000000007 85.01240000000003,-85.51390000000008 85.01240000000003,-85.51390000000008 85.01280000000003,-85.52000000000008 84.98310000000002,-86.11240000000008 84.90220000000002,-86.69300000000008 84.78810000000003,-87.18730000000008 84.63730000000002,-87.66980000000008 84.48730000000002,-88.05290000000008 84.32030000000002,-88.41540000000008 84.17690000000002,-88.69240000000008 84.02080000000002,-88.96170000000008 83.80400000000002,-89.29430000000008 83.56310000000002,-89.62410000000008 83.21760000000002,-90.03500000000008 82.83840000000002,-90.42090000000009 82.33360000000002,-90.85420000000009 81.79010000000002,-91.2383000000001 81.12420000000003,-91.6134000000001 80.41410000000003,-91.9179000000001 73.67090000000003,-94.1593000000001 73.65890000000003,-94.1631000000001 73.64680000000003,-94.1664000000001 73.63460000000002,-94.16930000000009 73.62230000000002,-94.1720000000001 73.61000000000003,-94.17440000000009 73.59760000000003,-94.1766000000001 73.58510000000003,-94.17870000000009 73.57270000000003,-94.18080000000009 73.57270000000003,-94.18080000000009 73.56600000000003,-94.18190000000008 73.55880000000003,-94.18270000000008 73.55130000000004,-94.18340000000008 73.54350000000004,-94.18400000000008 73.53550000000004,-94.18440000000008 73.52760000000004,-94.18470000000008 73.51980000000003,-94.18490000000008 73.51220000000004,-94.18510000000009 73.51220000000004,-94.18510000000009 73.41170000000004,-94.1749000000001 73.31800000000004,-94.14560000000009 73.23310000000004,-94.09940000000009 73.15900000000003,-94.03830000000009 73.09790000000004,-93.96420000000009 73.05180000000004,-93.87930000000009 73.02260000000004,-93.78560000000009 73.01260000000003,-93.68510000000009 73.01240000000003,-93.5889000000001 73.01230000000002,-85.1869000000001 73.01130000000002,-85.14400000000009 73.00820000000002,-85.10040000000009 73.00310000000002,-85.0564000000001 72.99630000000002,-85.0123000000001 72.98780000000002,-84.9686000000001 72.97780000000002,-84.92570000000009 72.96640000000002,-84.8838000000001 72.95380000000002,-84.84340000000009 72.91010000000001,-84.75170000000008 72.84470000000002,-84.63870000000009 72.76400000000002,-84.53340000000009 72.66980000000002,-84.43850000000009 72.56610000000002,-84.3586000000001 72.45370000000003,-84.29300000000009 72.34030000000003,-84.2443000000001 72.22240000000002,-84.20950000000009 66.40700000000002,-82.96330000000009 66.32810000000002,-82.9399000000001 66.25490000000002,-82.90380000000009 66.18430000000002,-82.85410000000009 66.12310000000002,-82.79100000000008 66.07440000000003,-82.71910000000008 66.03810000000003,-82.63990000000008 66.01770000000003,-82.56150000000008 66.01000000000003,-82.47890000000008 65.99120000000003,-81.79090000000008 65.92080000000003,-80.93420000000008 65.79750000000003,-80.06340000000007 65.58140000000003,-79.02160000000008 65.22460000000002,-77.79430000000008 65.22460000000002,-77.79430000000008 64.69630000000002,-76.44730000000008 63.94450000000002,-74.77260000000008 63.12030000000002,-72.93670000000009 62.22920000000002,-70.95260000000009 61.27710000000002,-68.83190000000009 60.26960000000002,-66.58790000000009 59.21370000000002,-64.2357000000001 56.012400000000014,-57.105400000000095 56.01270000000002,-38.02850000000009 55.50230000000002,-36.72770000000009 55.12390000000002,-35.88070000000009 54.79380000000002,-35.29320000000009 54.22720000000002,-34.42460000000009 53.284300000000016,-33.32810000000009 52.61550000000002,-32.71400000000009 51.860500000000016,-32.14050000000009 51.021400000000014,-31.621200000000087 49.87580000000001,-31.081200000000088 48.73860000000001,-30.708300000000087 47.88560000000001,-30.523300000000088 47.03470000000001,-30.413600000000088 46.19250000000001,-30.378500000000088 43.03510000000001,-30.378700000000087 39.877700000000004,-30.378800000000087 36.7203,-30.378800000000087 33.5628,-30.378800000000087 30.405400000000004,-30.378800000000087 27.247900000000005,-30.378800000000087 24.090500000000006,-30.378800000000087 21.012200000000007,-30.379000000000087 20.810689453125008,-30.358680078125087 20.622990625000007,-30.300403125000088 20.453127734375006,-30.208193359375088 20.305125000000007,-30.086075000000086 20.183006640625006,-29.938072265625088 20.09079687500001,-29.768209375000087 20.032519921875007,-29.580510546875086 20.012200000000007,-29.379000000000087" fill="none" stroke="black" stroke-width="0.1"/>
        <polyline id="_203342120___1" points="59.0994,-45.9013 56.0429,-38.106" fill="none" stroke="black" stroke-width="0.1"/>
        <polyline id="_203342240_1___0" class="fil0 str0" points="22.9573,-12.0705 51.4614,-12.0705 51.8414,-12.0903 52.2185,-12.1466 52.591699999999996,-12.2347 52.9603,-12.3499 53.3232,-12.4875 53.6797,-12.642800000000001 54.0288,-12.811100000000001 54.369699999999995,-12.987800000000002 56.32449999999999,-14.029300000000003 58.32939999999999,-14.858700000000002 60.94039999999999,-15.662900000000002 63.60199999999999,-16.2526" fill="none" stroke="black" stroke-width="0.1"/>
        <line id="_203342000" x1="25.0013" y1="-3.5115" x2="52.6223" y2="-3.5115" stroke="black" stroke-width="0.1"/>
        <line id="_203341688" x1="59.099" y1="-45.9015" x2="71.839" y2="-78.387" stroke="black" stroke-width="0.1"/>
        <g id="_tag_38_">
            <polyline id="_203341400___0___0" class="fil0 str0" points="71.839,-78.387 72.40299999999999,-80.084 72.76599999999999,-81.71000000000001" fill="none" stroke="black" stroke-width="0.1"/>
            <polyline id="_203341664___0___0" class="fil0 str0" points="72.766,-81.709 72.95200000000001,-83.169 73.01200000000001,-84.59219999999999" fill="none" stroke="black" stroke-width="0.1"/>
        </g>
        <polygon id="simplify_38_1" points="62.28,262.551 62.2782,262.549 62.2782,262.549 62.2781,262.549 62.278,262.549 62.2772,262.548 62.2742,262.546 62.2622,262.534 62.2142,262.489 62.1816,262.458 62.1493,262.427 62.021,262.302 61.7714,262.047 61.2991,261.52 60.4621,260.395 59.76,259.166 59.2208,257.889 59.2208,257.889 59.0121,257.171 58.9969,257.473 58.891,259.656 58.65,260.962 58.287,262.011 57.7975,262.818 57.7975,262.818 57.1919,263.363 57.1919,283.682 56.5196,283.569 55.7297,283.648 54.882,283.939 53.9669,284.472 53.1753,285.122 49.4049,285.122 45.6345,285.122 41.8641,285.122 38.0937,285.122 34.3233,285.122 30.5529,285.122 26.7825,285.122 23.0121,285.122 26.0121,297.122 36.929,297.122 38.4918,297.209 40.0818,297.467 41.6349,297.894 43.1331,298.486 44.5594,299.235 45.4815,299.784 46.4986,300.39 62.0227,309.625 62.5166,309.898 63.0445,310.175 63.5991,310.447 64.1726,310.709 64.7576,310.954 65.3466,311.175 65.932,311.366 66.5062,311.52 66.5121,311.015 66.5121,310.355 66.5121,294.622 66.6038,293.717 66.8667,292.873 67.2824,292.109 67.8327,291.443 68.4991,290.892 69.2634,290.476 70.1071,290.214 71.0121,290.122 71.0121,290.122 71.9171,290.214 72.7608,290.476 73.5251,290.892 74.1915,291.443 74.7418,292.109 75.1575,292.873 75.4204,293.717 75.5121,294.622 75.5121,294.622 75.5121,296.733 75.5121,298.843 75.5121,300.954 75.5121,303.065 75.5121,305.176 75.5121,307.286 75.5121,309.397 75.5121,311.508 75.5121,311.508 78.2494,310.531 80.7447,309.135 82.9601,307.369 84.8577,305.278 86.3997,302.911 87.548,300.314 88.2647,297.536 88.5121,294.622 88.5121,294.622 88.4171,292.831 88.137,291.058 87.6786,289.321 87.0492,287.64 86.2556,286.032 85.305,284.515 84.2045,283.109 82.961,281.831 64.4187,264.545 63.7816,263.951 62.9981,263.221" fill="none" stroke="black" stroke-width="0.1"/>
        <g id="simplify_41_1_1">
            <polyline id="simplify_41_1___0" class="fil0 str0" points="52.6073,297.135 52.125600000000006,295.9257 51.70290000000001,294.622 51.392500000000005,293.2056 51.27440000000001,291.6399 51.364900000000006,290.0674 51.677600000000005,288.44120000000004 52.063100000000006,287.2479 52.1296,287.1017 52.196000000000005,286.9555 52.2625,286.80929999999995 52.328900000000004,286.66309999999993 52.3954,286.5168999999999 52.461800000000004,286.3706999999999 52.5283,286.22449999999986 52.5948,286.07829999999984 53.1761,285.12199999999984 53.9677,284.47179999999986 54.8828,283.9390999999999 55.730500000000006,283.64819999999986 56.52040000000001,283.56869999999986 57.19270000000001,283.68219999999985 58.17840000000001,283.86269999999985 59.31330000000001,283.85369999999983 60.57670000000001,283.7058999999998 62.05270000000001,283.46239999999983 63.66530000000001,283.2004999999998 65.40020000000001,282.9848999999998 67.2425,282.8802999999998 68.7275,282.9142999999998 70.2596,283.0730999999998 71.8112,283.37889999999976 73.3784,283.86189999999976 74.9169,284.5320999999998 76.3758,285.3903999999998 77.5378,286.28329999999977 78.596,287.31409999999977 79.5181,288.46429999999975 80.3811,289.91829999999976 81.0278,291.5191999999998 81.1343,291.89019999999977 81.2276,292.2709999999998 81.3074,292.6590999999998 81.3734,293.0519999999998 81.4252,293.4472999999998 81.46260000000001,293.8423999999998 81.48530000000001,294.23479999999984 81.4929,294.62199999999984 81.4929,306.5914999999998" fill="none" stroke="black" stroke-width="0.1"/>
        </g>
        <g id="_tag_39_">
            <polyline id="simplify_42___0___0" class="fil0 str0" points="56.7,300.39 61.0125,307.7122 62.6068,308.6506 63.0391,308.901 63.494299999999996,309.1455 63.968199999999996,309.38180000000006 64.4566,309.607 64.95559999999999,309.81870000000004 65.4609,310.0142 65.96849999999999,310.1909 66.4742,310.3463" fill="none" stroke="black" stroke-width="0.1"/>
            <polyline id="simplify_42___1___0" class="fil0 str0" points="56.7,300.39 56.0977,299.4735 55.453700000000005,298.6968 54.7749,298.0686 54.069,297.5956 53.3436,297.2833 52.6069,297.135 52.430800000000005,297.1261 52.401900000000005,297.1256 52.373000000000005,297.12510000000003 52.344100000000005,297.1245 52.315200000000004,297.124 52.286300000000004,297.12350000000004 52.25750000000001,297.12300000000005 52.22860000000001,297.12250000000006 52.19970000000001,297.12200000000007 50.916000000000004,297.12200000000007 49.488400000000006,297.12200000000007 47.9376,297.12200000000007 46.2862,297.12200000000007 44.5581,297.12200000000007 42.7785,297.12200000000007 40.9732,297.12200000000007 39.1685,297.12200000000007 37.3906,297.12200000000007 35.6653,297.12200000000007 34.0178,297.12200000000007 32.4718,297.12200000000007 31.0501,297.12200000000007 29.7731,297.12200000000007 28.659399999999998,297.12200000000007 27.725299999999997,297.12200000000007 26.984199999999998,297.12200000000007 26.4471,297.12200000000007 26.121599999999997,297.12200000000007 26.012499999999996,297.12200000000007" fill="none" stroke="black" stroke-width="0.1"/>
        </g>
        <line id="simplify_43" x1="81.492" y1="306.591" x2="81.012" y2="307.575" stroke="black" stroke-width="0.1"/>
        <g id="simplify_44_1_1">
            <polyline id="simplify_44_1___0" class="fil0 str0" points="75.231,310.409 75.95769999999999,310.1939 76.6942,309.9346 77.4322,309.6349 78.1634,309.2984 78.8796,308.92900000000003 79.5726,308.5303 80.23419999999999,308.1062 80.85599999999998,307.6604" fill="none" stroke="black" stroke-width="0.1"/>
            <polyline id="simplify_45_1___0" class="fil0 str0" points="57.192,263.363 57.9928,264.8554 58.938,266.21889999999996 60.0382,267.45369999999997 61.3203,268.57059999999996 62.740300000000005,269.518 64.29570000000001,270.29569999999995 65.90180000000001,271.0429 67.5947,271.9489 69.3649,273.0086 71.20200000000001,274.2157 73.09550000000002,275.5634 75.03440000000002,277.0439 77.00790000000002,278.6487 79.00430000000001,280.3686 81.01220000000002,282.1938 81.87490000000003,282.99330000000003 83.00530000000002,284.15510000000006 84.00580000000002,285.43360000000007 84.87000000000002,286.81210000000004 85.59140000000002,288.27400000000006 86.16360000000002,289.80250000000007 86.58030000000002,291.3810000000001 86.83500000000002,292.9929000000001 86.92130000000002,294.62140000000005 86.92130000000002,294.62140000000005 86.82800000000002,296.32140000000004 86.55320000000002,297.99010000000004 86.10480000000001,299.61300000000006 85.49060000000001,301.1761000000001 84.71840000000002,302.66510000000005 83.79610000000001,304.0658 82.73140000000001,305.3639 81.5323,306.5452 81.5323,306.5452 81.52730000000001,306.5496 81.5224,306.554 81.51740000000001,306.55839999999995 81.51240000000001,306.56269999999995 81.50740000000002,306.5670999999999 81.50240000000002,306.5714999999999 81.49740000000003,306.5758999999999 81.49240000000003,306.58029999999985" fill="none" stroke="black" stroke-width="0.1"/>
            <polyline id="simplify_46_1___0" class="fil0 str0" points="81.012,307.575 81.012,294.62239999999997 80.8082,292.61129999999997 80.224,290.7362 79.3002,289.0378 78.0774,287.5569 76.59649999999999,286.3341 74.89809999999999,285.4103 73.02299999999998,284.8261 71.01199999999999,284.6223 71.01199999999999,284.6223 69.00099999999999,284.8261 67.12589999999999,285.4103 65.42749999999998,286.33410000000003 63.94659999999998,287.55690000000004 62.72379999999998,289.03780000000006 61.79999999999998,290.73620000000005 61.21579999999998,292.6113 61.01199999999998,294.6224 61.01199999999998,307.7126" fill="none" stroke="black" stroke-width="0.1"/>
            <polyline id="_203303024___0___0" class="fil0 str0" points="55.667,-34.8621 54.863,-33.6061 53.889,-32.476099999999995 52.765,-31.495099999999994 51.512,-30.684099999999994 50.308,-30.127099999999995 49.051,-29.722099999999994 47.699000000000005,-29.465099999999993 46.319,-29.379099999999994 20.854900000000004,-29.379099999999994" fill="none" stroke="black" stroke-width="0.1"/>
        </g>
        <polygon id="center_00" cx="71.012" cy="294.622" points="74.1368,294.622 74.11968201864678,294.9486305420188 74.06851562277299,295.27168245146737 73.98386140211909,295.58761630402284 73.8666468460416,295.8929706622833 73.71815618174561,296.18440000000004 73.54001630402284,296.45871135636355 73.33417895065176,296.71289931875015 73.10289931875016,296.9441789506518 72.84871135636352,297.15001630402287 72.5744,297.3281561817456 72.28297066228326,297.4766468460416 71.97761630402283,297.5938614021191 71.66168245146733,297.67851562277303 71.33863054201876,297.72968201864677 71.012,297.7468 70.68536945798124,297.72968201864677 70.36231754853267,297.67851562277303 70.04638369597717,297.5938614021191 69.74102933771674,297.4766468460416 69.4496,297.3281561817456 69.17528864363648,297.15001630402287 68.92110068124984,296.9441789506518 68.68982104934824,296.71289931875015 68.48398369597716,296.45871135636355 68.30584381825439,296.18440000000004 68.1573531539584,295.8929706622833 68.04013859788091,295.58761630402284 67.95548437722701,295.27168245146737 67.90431798135322,294.9486305420188 67.8872,294.622 67.90431798135322,294.2953694579812 67.95548437722701,293.97231754853266 68.0401385978809,293.6563836959772 68.1573531539584,293.35102933771674 68.30584381825439,293.0596 68.48398369597716,292.7852886436365 68.68982104934824,292.5311006812499 68.92110068124984,292.2998210493482 69.17528864363648,292.09398369597716 69.4496,291.9158438182544 69.74102933771674,291.7673531539584 70.04638369597717,291.6501385978809 70.36231754853266,291.565484377227 70.68536945798124,291.51431798135326 71.012,291.4972 71.33863054201876,291.51431798135326 71.66168245146733,291.565484377227 71.97761630402283,291.6501385978809 72.28297066228326,291.7673531539584 72.5744,291.9158438182544 72.84871135636352,292.09398369597716 73.10289931875016,292.2998210493482 73.33417895065176,292.5311006812498 73.54001630402284,292.7852886436365 73.71815618174561,293.0596 73.8666468460416,293.35102933771674 73.98386140211909,293.6563836959772 74.06851562277299,293.97231754853266 74.11968201864678,294.2953694579812" fill="none" stroke="black" stroke-width="0.1"/>
    </g>
</svg>
