<!DOCTYPE svg PUBLIC "-//W3C//DTD SVG 1.1//EN" "http://www.w3.org/Graphics/SVG/1.1/DTD/svg11.dtd">
<svg xmlns="http://www.w3.org/2000/svg" width="297mm" height="210mm" viewBox="0 0 297 210">
    <defs id="_tag_72_"/>
    <g id="_tag_73_">
        <polygon id="_203310864_1" points="37.2382,52.797 38.6382,52.197 70.1652,52.197 66.8025,56.6387 64.7897,55.397 35.9382,55.397 35.9382,55.197 36.8382,54.397 37.2383,54.397 37.1176,54.3848 37.0051,54.3497 36.9032,54.2943 36.8144,54.2209 36.741,54.1321 36.6856,54.0302 36.6505,53.9177 36.6383,53.797 36.6383,53.797 36.6505,53.6763 36.6856,53.5638 36.741,53.4619 36.8144,53.3731 36.9032,53.2997 37.0051,53.2443 37.1176,53.2092 37.2383,53.197" fill="none" stroke="black" stroke-width="0.1"/>
        <g id="_203303168___0_1">
            <polygon id="_203303168___0___0" class="fil1 str0" points="33.2372,56.3975 33.2372,73.0729 33.239200000000004,73.15010000000001 33.244600000000005,73.22890000000001 33.2533,73.30870000000002 33.265100000000004,73.38860000000001 33.279900000000005,73.46820000000001 33.297200000000004,73.5468 33.3171,73.62360000000001 33.3393,73.69810000000001 36.1353,82.0977 36.1577,82.172 36.1777,82.2487 36.195100000000004,82.3271 36.2098,82.4066 36.2215,82.48649999999999 36.23,82.56609999999999 36.235299999999995,82.64479999999999 36.236999999999995,82.722 36.236999999999995,280.897 72.237,280.897 72.237,97.595 72.237,97.5957 72.35,96.0804 72.60029999999999,94.8986 97.79119999999999,3.0263999999999953 98.0272,2.1648999999999954 98.0715,1.9917999999999954 98.1119,1.8092999999999955 98.1477,1.6194999999999955 98.17830000000001,1.4245999999999954 98.20320000000001,1.2269999999999954 98.22170000000001,1.0287999999999955 98.23340000000002,0.8322999999999955 98.23750000000001,0.6397999999999955 98.23760000000001,0.3906999999999955 98.23740000000001,0.2625999999999955 98.23740000000001,0.2625999999999955 98.23780000000001,0.2564999999999955 98.2081,-0.33590000000000453 98.1272,-0.9165000000000045 98.01310000000001,-1.4108000000000045 97.8623,-1.8933000000000044 97.7123,-2.276400000000004 97.5453,-2.638900000000004 97.4019,-2.915900000000004 97.2458,-3.185200000000004 97.029,-3.517800000000004 96.7881,-3.847600000000004 96.4426,-4.258500000000004 96.0634,-4.6444000000000045 95.5586,-5.0777000000000045 95.0151,-5.461800000000005 94.34920000000001,-5.836900000000004 93.63910000000001,-6.141400000000004 86.89590000000001,-8.382800000000005 86.88390000000001,-8.386600000000005 86.87180000000001,-8.389900000000004 86.8596,-8.392800000000005 86.8473,-8.395500000000006 86.83500000000001,-8.397900000000005 86.82260000000001,-8.400100000000005 86.8101,-8.402200000000006 86.7977,-8.404300000000006 86.7977,-8.404300000000006 86.79100000000001,-8.405400000000006 86.78380000000001,-8.406200000000005 86.77630000000002,-8.406900000000006 86.76850000000002,-8.407500000000006 86.76050000000002,-8.407900000000007 86.75260000000002,-8.408200000000006 86.74480000000001,-8.408400000000006 86.73720000000002,-8.408600000000005 86.73720000000002,-8.408600000000005 86.63670000000002,-8.398400000000006 86.54300000000002,-8.369100000000007 86.45810000000002,-8.322900000000006 86.38400000000001,-8.261800000000006 86.32290000000002,-8.187700000000007 86.27680000000002,-8.102800000000007 86.24760000000002,-8.009100000000007 86.23760000000001,-7.908600000000007 86.23740000000001,-7.812400000000007 86.2373,0.5895999999999919 86.2363,0.632499999999992 86.2332,0.6760999999999919 86.2281,0.720099999999992 86.2213,0.764199999999992 86.2128,0.807899999999992 86.2028,0.850799999999992 86.1914,0.892699999999992 86.1788,0.933099999999992 86.1351,1.024799999999992 86.0697,1.137799999999992 85.989,1.2430999999999919 85.8948,1.3379999999999919 85.7911,1.417899999999992 85.6787,1.483499999999992 85.56530000000001,1.532199999999992 85.4474,1.566999999999992 79.632,2.813199999999992 79.5531,2.8365999999999922 79.4799,2.872699999999992 79.4093,2.922399999999992 79.3481,2.985499999999992 79.2994,3.057399999999992 79.26310000000001,3.136599999999992 79.24270000000001,3.214999999999992 79.23500000000001,3.297599999999992 79.21620000000001,3.985599999999992 79.14580000000001,4.842299999999992 79.02250000000001,5.713099999999992 78.80640000000001,6.754899999999992 78.4496,7.982199999999992 78.4496,7.982199999999992 77.9213,9.329199999999991 77.1695,11.003899999999991 76.3453,12.839799999999991 75.4542,14.823899999999991 74.5021,16.94459999999999 73.4946,19.18859999999999 72.43870000000001,21.54079999999999 69.23740000000001,28.67109999999999 69.2377,47.74799999999999 68.7273,49.04879999999999 68.3489,49.895799999999994 68.0188,50.48329999999999 67.4522,51.35189999999999 66.50930000000001,52.44839999999999 65.8405,53.06249999999999 65.08550000000001,53.635999999999996 64.24640000000001,54.1553 63.10080000000001,54.695299999999996 61.96360000000001,55.0682 61.110600000000005,55.2532 60.2597,55.362899999999996 59.417500000000004,55.397999999999996 34.19760000000001,55.3976 34.00916054687501,55.4178869140625 33.83128437500001,55.476139062499996 33.66845976562501,55.56833105468749 33.52517500000001,55.690437499999994 33.40591835937501,55.8384330078125 33.31517812500001,56.00829218749999 33.25744257812501,56.1959896484375 33.23720000000001,56.397499999999994" fill="none" stroke="black" stroke-width="0.1"/>
            <polyline id="_203303168___0___1" class="fil1 str0" points="72.32440000000001,39.874199999999995 69.26790000000001,47.66949999999999" fill="none" stroke="black" stroke-width="0.1"/>
            <polyline id="_203311128___0___0" class="fil2 str0" points="65.847,82.265 66.68599999999999,82.367 67.53699999999999,82.673 67.815,82.815 68.093,82.973 68.382,83.149 68.661,83.32900000000001 68.938,83.52000000000001 69.215,83.721 70.296,84.646 71.19900000000001,85.674 71.92500000000001,86.80600000000001 72.47300000000001,88.04100000000001" fill="none" stroke="black" stroke-width="0.1"/>
        </g>
        <g id="_203310480_1_1">
            <polyline id="_203310480_1___0" class="fil0 str0" points="66.129,52.797 62.514300000000006,52.797 58.90240000000001,52.797 55.29240000000001,52.797 51.683400000000006,52.797 48.07450000000001,52.797 44.46450000000001,52.797 40.85260000000001,52.797 37.23790000000001,52.797" fill="none" stroke="black" stroke-width="0.1"/>
            <polyline id="_203310408_1___0" class="fil0 str0" points="65.663,53.197 62.104899999999994,53.197 58.55109999999999,53.197 55.00009999999999,53.197 51.45049999999999,53.197 47.90089999999999,53.197 44.34989999999999,53.197 40.79609999999999,53.197 37.237999999999985,53.197" fill="none" stroke="black" stroke-width="0.1"/>
            <polyline id="_203311080_1___0" class="fil0 str0" points="63.731,54.397 60.4167,54.397 57.1047,54.397 53.7941,54.397 50.4844,54.397 47.1747,54.397 43.8641,54.397 40.5521,54.397 37.2378,54.397" fill="none" stroke="black" stroke-width="0.1"/>
            <polyline id="_203303000_1___0" class="fil0 str0" points="61.367,55.197 58.204699999999995,55.197 55.040099999999995,55.197 51.87389999999999,55.197 48.70689999999999,55.197 45.53989999999999,55.197 42.373699999999985,55.197 39.209099999999985,55.197 36.04689999999999,55.197 35.937499999999986,55.197" fill="none" stroke="black" stroke-width="0.1"/>
            <polyline id="_203303120_1___0" class="fil2 str0" points="36.1822,73.705 64.6863,73.705 65.0663,73.6852 65.4434,73.6289 65.8166,73.5408 66.1852,73.4256 66.54809999999999,73.288 66.90459999999999,73.1327 67.2537,72.9644 67.5946,72.7877 69.5494,71.7462 71.55430000000001,70.9168 74.16530000000002,70.1126 76.82690000000002,69.5229" fill="none" stroke="black" stroke-width="0.1"/>
        </g>
        <line id="_203302856" x1="38.2272" y1="82.265" x2="65.847" y2="82.265" stroke="black" stroke-width="0.1"/>
        <line id="_203302592" x1="72.325" y1="39.875" x2="85.064" y2="7.39" stroke="black" stroke-width="0.1"/>
        <g id="_tag_75_">
            <polyline id="_203302568___0___0" class="fil2 str0" points="85.064,7.39 85.62899999999999,5.692 85.99099999999999,4.066000000000001" fill="none" stroke="black" stroke-width="0.1"/>
            <polyline id="_203302352___0___0" class="fil2 str0" points="85.991,4.066 86.178,2.606 86.238,1.1829999999999998" fill="none" stroke="black" stroke-width="0.1"/>
        </g>
        <polygon id="simplify_2_1" points="59.642,297.52 58.4475,296.498 57.0386,295.43 55.5138,294.536 53.8943,293.826 52.2026,293.313 50.4622,293.001 48.7319,292.897 39.2374,292.897 36.2374,280.897 40.0242,280.897 43.8111,280.897 47.5979,280.897 51.3848,280.897 55.1717,280.897 58.9585,280.897 62.7454,280.897 66.5322,280.897 66.9376,280.589 67.594,280.09 68.6839,279.493 69.6516,279.149 70.1859,279.039 70.6639,278.997 71.4188,279.085 71.4188,263.574 71.7293,262.828 71.7293,262.828 71.9689,261.928 72.1343,260.874 72.2,259.327 72.2205,258.485 72.4461,259.259 72.4461,259.259 72.9853,260.536 73.6874,261.765 74.5244,262.89 74.9967,263.418 75.2464,263.673 75.3746,263.798 75.5025,263.919 76.2228,264.59 77.0057,265.32 77.644,265.916 90.1864,277.606 91.4299,278.884 92.5304,280.291 93.481,281.807 94.2746,283.415 94.904,285.096 95.3624,286.833 95.6425,288.606 95.7375,290.397 95.7375,290.397 95.4903,293.312 94.774,296.091 93.6262,298.688 92.0847,301.055 90.1873,303.145 87.9718,304.912 85.4759,306.307 82.7374,307.283 82.7374,307.283 82.7374,305.172 82.7374,303.062 82.7374,300.951 82.7374,298.84 82.7374,296.729 82.7374,294.619 82.7374,292.508 82.7374,290.397 82.7374,290.397 82.6457,289.492 82.3829,288.648 81.9672,287.884 81.4169,287.218 80.7505,286.667 79.9862,286.252 79.1425,285.989 78.2375,285.897 78.2375,285.897 77.3325,285.989 76.4888,286.252 75.7245,286.667 75.058,287.218 74.5078,287.884 74.092,288.648 73.8291,289.492 73.7374,290.397 73.7374,290.397 73.7374,292.511 73.7373,294.625 73.7371,296.738 73.7367,298.851 73.736,300.964 73.735,303.075 73.7335,305.186 73.7316,307.295 73.7316,307.295 72.8021,307.023 71.8706,306.683 70.9471,306.282 70.0419,305.829 69.1652,305.331 68.3271,304.795 67.5379,304.23 66.8077,303.643" fill="none" stroke="black" stroke-width="0.1"/>
        <g id="_tag_76_">
            <line id="_234162000" x1="63.255" y1="290.397" x2="63.487" y2="292.946" stroke="black" stroke-width="0.1"/>
            <polyline id="_234170928_1___0" class="fil2 str0" points="73.699,306.121 72.9892,305.9078 72.2743,305.6476 71.5607,305.3451 70.8547,305.005 70.1627,304.6321 69.4911,304.2312 68.8463,303.807 68.2346,303.3643 68.1109,302.9448 68.091,302.8794 68.07109999999999,302.8139 68.05129999999998,302.7485 68.03139999999998,302.683 68.01149999999997,302.6176 67.99159999999996,302.55219999999997 67.97179999999996,302.4867 67.95189999999995,302.4213 66.48769999999995,297.5195 66.13439999999994,296.4536 65.74869999999994,295.5107 65.33449999999995,294.70099999999996 64.89639999999994,294.03329999999994 64.43919999999994,293.51469999999995 63.96759999999994,293.1507 63.48679999999994,292.9453 62.51509999999994,292.89669999999995 48.47479999999994,292.89669999999995" fill="none" stroke="black" stroke-width="0.1"/>
            <polyline id="_237067424___0___0" class="fil2 str0" points="88.477,302.572 88.343,303.01 88.23700000000001,303.34999999999997" fill="none" stroke="black" stroke-width="0.1"/>
            <polyline id="_202096952_1___0" class="fil2 str0" points="82.456,306.185 83.1793,305.971 83.9123,305.71320000000003 84.6468,305.4153 85.3748,305.081 86.0881,304.7139 86.7786,304.3179 87.43809999999999,303.8964 88.0586,303.45340000000004 88.0586,303.45340000000004 88.0681,303.4476 88.0886,303.4356 88.1164,303.4195 88.14789999999999,303.4014 88.17939999999999,303.3833 88.20719999999999,303.3672 88.22769999999998,303.3552 88.23719999999999,303.3494" fill="none" stroke="black" stroke-width="0.1"/>
            <polyline id="_237066680_1___0" class="fil2 str0" points="63.255,290.397 63.2199,288.73 63.421,286.9898 63.8577,285.3073 64.5597,283.639 65.21010000000001,282.5264 65.98780000000001,281.4904 66.5323,280.89700000000005 67.59410000000001,280.09020000000004 68.68400000000001,279.4931 69.6517,279.14840000000004 70.186,279.0384 70.664,278.997 71.41890000000001,279.0852 72.0485,279.1914 72.8525,279.2174 73.81700000000001,279.1991 74.9728,279.17719999999997 76.2806,279.20439999999996 77.71340000000001,279.3323 79.3957,279.6493 81.1422,280.2049 82.3127,280.7369 83.4551,281.404 84.5322,282.2007 85.827,283.4656 86.9099,284.9295 87.71,286.5056 88.2376,288.235 88.2824,288.49580000000003 88.3257,288.76480000000004 88.3663,289.03940000000006 88.40259999999999,289.3167000000001 88.43329999999999,289.5938000000001 88.457,289.8681000000001 88.47219999999999,290.1367000000001 88.47759999999998,290.3969000000001 88.47749999999998,302.57250000000005" fill="none" stroke="black" stroke-width="0.1"/>
            <polyline id="_234161160_1___0" class="fil2 str0" points="71.419,263.573 72.0303,264.98179999999996 72.8106,266.27099999999996 73.75529999999999,267.4405 74.6395,268.3025 75.61659999999999,269.0787 76.67949999999999,269.76910000000004 77.82069999999999,270.37370000000004 79.14559999999999,271.06100000000004 80.54469999999999,271.89400000000006 82.00659999999999,272.86590000000007 83.51929999999999,273.9689000000001 85.07049999999998,275.19380000000007 86.64759999999998,276.53080000000006 88.23759999999999,277.9689000000001 89.10029999999999,278.7684000000001 90.23079999999999,279.9302000000001 91.23129999999999,281.20870000000014 92.09549999999999,282.5872000000001 92.81689999999999,284.0491000000001 93.38909999999998,285.57760000000013 93.80579999999999,287.15610000000015 94.06049999999999,288.76800000000014 94.14679999999998,290.3965000000001 94.14679999999998,290.3965000000001 94.04909999999998,292.1357000000001 93.76129999999998,293.8465000000001 93.29149999999997,295.5122000000001 92.64759999999997,297.1159000000001 91.83759999999997,298.64100000000013 90.86959999999996,300.07070000000016 89.75159999999997,301.38820000000015 88.49159999999996,302.57690000000014" fill="none" stroke="black" stroke-width="0.1"/>
            <polyline id="_234172248_1___0" class="fil2 str0" points="88.237,290.397 88.0332,288.38599999999997 87.449,286.5109 86.5252,284.8125 85.30239999999999,283.3316 83.82149999999999,282.1088 82.12309999999998,281.18499999999995 80.24799999999998,280.60079999999994 78.23699999999998,280.39699999999993 78.23699999999998,280.39699999999993 76.22599999999998,280.60079999999994 74.35089999999998,281.18499999999995 72.65249999999997,282.1088 71.17159999999997,283.3316 69.94879999999996,284.8125 69.02499999999996,286.5109 68.44079999999997,288.38599999999997 68.23699999999997,290.397 68.23689999999996,303.3497" fill="none" stroke="black" stroke-width="0.1"/>
            <line id="_234168024" x1="88.237" y1="303.35" x2="88.237" y2="290.397" stroke="black" stroke-width="0.1"/>
            <polyline id="_203303024___0___0" class="fil2 str0" points="68.892,50.9144 68.088,52.1704 67.11399999999999,53.3004 65.99,54.281400000000005 64.737,55.092400000000005 63.532999999999994,55.64940000000001 62.275999999999996,56.05440000000001 60.924,56.311400000000006 59.544,56.397400000000005 34.079899999999995,56.397400000000005" fill="none" stroke="black" stroke-width="0.1"/>
        </g>
        <polygon id="center_00" cx="78.237" cy="290.397" points="81.36179999999999,290.397 81.34468201864678,290.7236305420188 81.29351562277299,291.04668245146735 81.20886140211908,291.3626163040228 81.0916468460416,291.66797066228327 80.94315618174561,291.9594 80.76501630402284,292.23371135636353 80.55917895065176,292.4878993187501 80.32789931875016,292.7191789506518 80.07371135636352,292.92501630402285 79.79939999999999,293.1031561817456 79.50797066228326,293.2516468460416 79.20261630402283,293.3688614021191 78.88668245146732,293.453515622773 78.56363054201876,293.50468201864675 78.237,293.5218 77.91036945798123,293.50468201864675 77.58731754853267,293.453515622773 77.27138369597716,293.3688614021191 76.96602933771673,293.2516468460416 76.6746,293.1031561817456 76.40028864363647,292.92501630402285 76.14610068124983,292.7191789506518 75.91482104934823,292.4878993187501 75.70898369597715,292.23371135636353 75.53084381825438,291.9594 75.38235315395839,291.66797066228327 75.2651385978809,291.3626163040228 75.180484377227,291.04668245146735 75.12931798135321,290.7236305420188 75.1122,290.397 75.12931798135321,290.0703694579812 75.180484377227,289.74731754853264 75.26513859788089,289.43138369597716 75.38235315395839,289.1260293377167 75.53084381825438,288.83459999999997 75.70898369597715,288.56028864363645 75.91482104934823,288.30610068124986 76.14610068124983,288.0748210493482 76.40028864363647,287.86898369597714 76.6746,287.6908438182544 76.96602933771673,287.5423531539584 77.27138369597716,287.4251385978809 77.58731754853265,287.34048437722697 77.91036945798123,287.28931798135324 78.237,287.2722 78.56363054201876,287.28931798135324 78.88668245146732,287.34048437722697 79.20261630402283,287.4251385978809 79.50797066228326,287.5423531539584 79.79939999999999,287.6908438182544 80.07371135636352,287.86898369597714 80.32789931875016,288.0748210493482 80.55917895065176,288.3061006812498 80.76501630402284,288.56028864363645 80.94315618174561,288.83459999999997 81.0916468460416,289.1260293377167 81.20886140211908,289.43138369597716 81.29351562277299,289.74731754853264 81.34468201864678,290.0703694579812" fill="none" stroke="black" stroke-width="0.1"/>
    </g>
</svg>
