<!DOCTYPE svg PUBLIC "-//W3C//DTD SVG 1.1//EN" "http://www.w3.org/Graphics/SVG/1.1/DTD/svg11.dtd">
<svg xmlns="http://www.w3.org/2000/svg" width="297mm" height="210mm" viewBox="0 0 297 210">
    <defs id="_tag_47_"/>
    <g id="_tag_48_">
        <g id="_tag_49_">
            <polygon id="_203341808_1" points="30.8413,-11.9177 32.2413,-12.5177 63.7683,-12.5177 60.4056,-8.076 58.3928,-9.3177 29.5413,-9.3177 29.5413,-9.5177 30.4413,-10.3177 30.8414,-10.3177 30.7207,-10.3299 30.6082,-10.365 30.5063,-10.4204 30.4175,-10.4938 30.3441,-10.5826 30.2887,-10.6845 30.2536,-10.797 30.2414,-10.9177 30.2414,-10.9177 30.2536,-11.0384 30.2887,-11.1509 30.3441,-11.2528 30.4175,-11.3416 30.5063,-11.415 30.6082,-11.4704 30.7207,-11.5055 30.8414,-11.5177" fill="none" stroke="black" stroke-width="0.1"/>
            <polyline id="_203340704_1___0" class="fil1 str0" points="59.732,-11.9177 56.1173,-11.9177 52.5054,-11.9177 48.8954,-11.9177 45.2864,-11.9177 41.6775,-11.9177 38.0675,-11.9177 34.455600000000004,-11.9177 30.840900000000005,-11.9177" fill="none" stroke="black" stroke-width="0.1"/>
            <polyline id="_203340560_1___0" class="fil1 str0" points="59.266,-11.5177 55.707899999999995,-11.5177 52.15409999999999,-11.5177 48.60309999999999,-11.5177 45.05349999999999,-11.5177 41.503899999999994,-11.5177 37.95289999999999,-11.5177 34.39909999999999,-11.5177 30.84099999999999,-11.5177" fill="none" stroke="black" stroke-width="0.1"/>
            <polyline id="_203340536_1___0" class="fil1 str0" points="57.334,-10.3177 54.0197,-10.3177 50.7077,-10.3177 47.3971,-10.3177 44.0874,-10.3177 40.7777,-10.3177 37.4671,-10.3177 34.155100000000004,-10.3177 30.840800000000005,-10.3177" fill="none" stroke="black" stroke-width="0.1"/>
            <polyline id="_203340416_1___0" class="fil1 str0" points="54.9713,-9.5177 51.809,-9.5177 48.6444,-9.5177 45.4782,-9.5177 42.3112,-9.5177 39.1442,-9.5177 35.977999999999994,-9.5177 32.813399999999994,-9.5177 29.651199999999996,-9.5177 29.541799999999995,-9.5177" fill="none" stroke="black" stroke-width="0.1"/>
        </g>
        <polygon class="fil2 str1" id="simplify_43_1" points="26.8415,-8.3183 26.861819921875,-8.519810546875002 26.920096875,-8.707509375 27.012306640625,-8.877372265625 27.134425,-9.025375 27.282427734375,-9.147493359375 27.452290625,-9.239703125 27.639989453125,-9.297980078125 27.8415,-9.3183 53.0215,-9.3177 53.8637,-9.3528 54.714600000000004,-9.4625 55.567600000000006,-9.6475 56.704800000000006,-10.0204 57.85040000000001,-10.560400000000001 58.68950000000001,-11.0797 59.44450000000001,-11.6532 60.11330000000001,-12.2673 61.05620000000001,-13.363800000000001 61.62280000000001,-14.232400000000002 61.952900000000014,-14.819900000000002 62.33130000000001,-15.666900000000002 62.84170000000001,-16.9677 62.84140000000001,-36.0446 66.04270000000001,-43.1749 67.0986,-45.527100000000004 68.1061,-47.771100000000004 69.0582,-49.8918 69.9493,-51.8759 70.7735,-53.711800000000004 71.5253,-55.386500000000005 72.0536,-56.73350000000001 72.0536,-56.73350000000001 72.41040000000001,-57.960800000000006 72.62650000000001,-59.00260000000001 72.74980000000001,-59.87340000000001 72.82020000000001,-60.73010000000001 72.83900000000001,-61.41810000000001 72.84670000000001,-61.50070000000001 72.86710000000001,-61.57910000000001 72.9034,-61.65830000000001 72.9521,-61.73020000000001 73.0133,-61.79330000000001 73.0839,-61.84300000000001 73.1571,-61.87910000000001 73.236,-61.90250000000001 79.0514,-63.14870000000001 79.1693,-63.18350000000001 79.2827,-63.232200000000006 79.3951,-63.29780000000001 79.4988,-63.37770000000001 79.593,-63.472600000000014 79.6737,-63.577900000000014 79.7391,-63.69090000000001 79.7828,-63.782600000000016 79.7954,-63.823000000000015 79.8068,-63.86490000000001 79.8168,-63.907800000000016 79.8253,-63.95150000000002 79.8321,-63.99560000000002 79.8372,-64.03960000000002 79.8403,-64.08320000000002 79.8413,-64.12610000000002 79.84140000000001,-72.52810000000002 79.84160000000001,-72.62430000000002 79.85160000000002,-72.72480000000002 79.88080000000002,-72.81850000000001 79.92690000000002,-72.90340000000002 79.98800000000001,-72.97750000000002 80.06210000000002,-73.03860000000002 80.14700000000002,-73.08480000000002 80.24070000000002,-73.11410000000002 80.34120000000001,-73.12430000000002 80.34120000000001,-73.12430000000002 80.34880000000001,-73.12410000000001 80.35660000000001,-73.1239 80.36450000000002,-73.12360000000001 80.37250000000002,-73.12320000000001 80.38030000000002,-73.1226 80.38780000000001,-73.12190000000001 80.39500000000001,-73.12110000000001 80.4017,-73.12000000000002 80.4017,-73.12000000000002 80.4141,-73.11790000000002 80.42660000000001,-73.11580000000002 80.43900000000001,-73.11360000000002 80.4513,-73.11120000000003 80.4636,-73.10850000000002 80.4758,-73.10560000000002 80.48790000000001,-73.10230000000003 80.49990000000001,-73.09850000000003 87.24310000000001,-70.85710000000003 87.95320000000001,-70.55260000000003 88.6191,-70.17750000000002 89.1626,-69.79340000000002 89.6674,-69.36010000000002 90.0466,-68.97420000000001 90.3921,-68.56330000000001 90.633,-68.2335 90.8498,-67.90090000000001 91.0059,-67.6316 91.1493,-67.3546 91.3163,-66.99210000000001 91.4663,-66.60900000000001 91.61710000000001,-66.12650000000001 91.7312,-65.63220000000001 91.8121,-65.05160000000001 91.8418,-64.45920000000001 91.84140000000001,-64.4531 91.84140000000001,-64.4531 91.84160000000001,-64.325 91.84150000000001,-64.0759 91.83740000000002,-63.8834 91.82570000000001,-63.6869 91.80720000000001,-63.4887 91.7823,-63.2911 91.7517,-63.0962 91.7159,-62.906400000000005 91.6755,-62.72390000000001 91.63119999999999,-62.55080000000001 91.39519999999999,-61.68930000000001 66.20429999999999,30.182899999999997 65.954,31.364699999999996 65.841,32.879999999999995 65.841,32.8803 65.8416,286.1823 29.8416,286.1823 29.841,18.00630000000001 29.8393,17.92910000000001 29.834000000000003,17.850400000000008 29.8255,17.77080000000001 29.8138,17.69090000000001 29.7991,17.61140000000001 29.7817,17.533000000000012 29.7617,17.456300000000013 29.7393,17.382000000000012 26.9433,8.982400000000013 26.9211,8.907900000000012 26.9012,8.831100000000012 26.8839,8.752500000000012 26.8691,8.672900000000013 26.8573,8.593000000000012 26.848599999999998,8.513200000000012 26.843199999999996,8.434400000000013 26.841199999999997,8.357200000000013 26.841499999999996,-8.318299999999986" fill="none" stroke="black" stroke-width="0.1"/>
        <polyline id="_203341616___0___0" class="fil1 str0" points="59.451,17.5493 60.29,17.6523 61.14,17.9583 61.418,18.1003 61.696,18.2573 61.986,18.4343 62.263999999999996,18.6143 62.541999999999994,18.8043 62.818,19.005300000000002 63.899,19.9313 64.802,20.9593 65.528,22.0913 66.07600000000001,23.3253" fill="none" stroke="black" stroke-width="0.1"/>
        <polyline id="_203340872___1" points="65.9284,-24.8405 62.8719,-17.0452" fill="none" stroke="black" stroke-width="0.1"/>
        <g id="_203340608_1_1">
            <polyline id="_203340608_1___0" class="fil1 str0" points="29.7863,8.9903 58.290400000000005,8.9903 58.67040000000001,8.9705 59.04750000000001,8.9142 59.420700000000004,8.826099999999999 59.789300000000004,8.710899999999999 60.15220000000001,8.573299999999998 60.508700000000005,8.417999999999997 60.857800000000005,8.249699999999997 61.1987,8.072999999999997 63.1535,7.031499999999997 65.1584,6.202099999999997 67.7694,5.397899999999997 70.43100000000001,4.808199999999998" fill="none" stroke="black" stroke-width="0.1"/>
        </g>
        <line id="_203340944" x1="31.8303" y1="17.5493" x2="59.451" y2="17.5493" stroke="black" stroke-width="0.1"/>
        <line id="_203340752" x1="65.928" y1="-24.8407" x2="78.668" y2="-57.326" stroke="black" stroke-width="0.1"/>
        <polyline id="_203340296___0___0" class="fil1 str0" points="78.668,-57.326 79.232,-59.023 79.595,-60.649" fill="none" stroke="black" stroke-width="0.1"/>
        <g id="_203309688___0_1">
            <polyline id="_203309688___0___0" class="fil1 str0" points="79.595,-60.649 79.781,-62.109 79.84100000000001,-63.532000000000004" fill="none" stroke="black" stroke-width="0.1"/>
            <polyline id="simplify_26___2___0" class="fil1 str0" points="69.107,265.474 69.10679999999999,265.4738" fill="none" stroke="black" stroke-width="0.1"/>
            <polyline id="simplify_26___3___0" class="fil1 str0" points="69.1068,265.474 69.10600000000001,265.4733" fill="none" stroke="black" stroke-width="0.1"/>
            <polygon id="simplify_26___5" points="69.1091,265.476 69.103,265.47 69.071,265.44 69.0392,265.41 69.0074,265.38 68.9758,265.349 68.9442,265.319 68.9127,265.288 68.8813,265.257 68.8499,265.227 68.6002,264.972 68.1279,264.444 67.2909,263.32 66.5888,262.09 66.0496,260.814 66.0496,260.814 65.8327,260.07 65.8318,260.398 65.7636,262.18 65.6496,263.067 65.4865,263.856 65.2755,264.545 64.8725,265.393 64.8725,265.393 64.3706,266.018 64.3706,284.455 63.661,284.352 62.8008,284.46 61.8571,284.802 60.8216,285.424 59.9235,286.182 56.2173,286.182 52.5111,286.182 48.8048,286.182 45.0986,286.182 41.3924,286.182 37.6861,286.182 33.9799,286.182 30.2737,286.182 29.9495,286.182 29.8409,286.182 32.8409,298.182 43.3409,298.182 45.0857,298.284 46.8068,298.587 48.4808,299.09 50.0851,299.783 51.5978,300.659 52.4138,301.197 53.3002,301.781 66.1356,310.231 66.7322,310.598 67.3499,310.95 67.9858,311.284 68.6369,311.597 69.3004,311.886 69.9732,312.149 70.6524,312.381 71.3351,312.58 71.3409,295.682 71.4326,294.777 71.6955,293.933 72.1113,293.168 72.6615,292.502 73.328,291.952 74.0923,291.536 74.936,291.273 75.841,291.182 75.841,291.182 76.746,291.273 77.5897,291.536 78.354,291.952 79.0204,292.502 79.5707,293.168 79.9864,293.933 80.2492,294.777 80.3409,295.682 80.3406,312.568 83.0778,311.59 85.5731,310.195 87.7885,308.428 89.6863,306.337 91.2283,303.97 92.3767,301.374 93.0936,298.595 93.341,295.682 93.341,295.682 93.246,293.89 92.9659,292.117 92.5075,290.381 91.8781,288.699 91.0845,287.091 90.1339,285.575 89.0334,284.169 87.7899,282.891 71.2474,267.47 70.6084,266.874 69.826,266.144" fill="none" stroke="black" stroke-width="0.1"/>
        </g>
        <g id="_tag_51_">
            <line id="_234167904" x1="57.838" y1="295.682" x2="58.366" y2="298.183" stroke="black" stroke-width="0.1"/>
            <polyline id="_234172656_1___0" class="fil1 str0" points="34.4513,298.182 35.241400000000006,298.182 36.031600000000005,298.182 36.82170000000001,298.182 37.611900000000006,298.182 38.40200000000001,298.182 39.19220000000001,298.182 39.98230000000001,298.182 40.77250000000001,298.182 58.24870000000001,298.182 58.257000000000005,298.182 58.26520000000001,298.182 58.273500000000006,298.1821 58.281800000000004,298.1821 58.290000000000006,298.18219999999997 58.298300000000005,298.18219999999997 58.3066,298.18229999999994 58.3149,298.18229999999994 58.3665,298.18289999999996 59.1012,298.30289999999997 59.8251,298.62309999999997 60.5285,299.1393 61.2018,299.8445 61.836,300.7292 62.422599999999996,301.78159999999997 62.8499,302.645 63.2772,303.5084 63.7046,304.3718 64.1319,305.2353 64.55930000000001,306.0987 64.98660000000001,306.9621 65.41400000000002,307.8256 65.84130000000002,308.689 66.69550000000002,309.24080000000004 67.21050000000002,309.6374 67.75680000000003,310.0 68.32760000000003,310.3275 68.91580000000003,310.6191 69.51440000000004,310.8737 70.11650000000003,311.09049999999996 70.71500000000003,311.26829999999995 71.30310000000003,311.40629999999993" fill="none" stroke="black" stroke-width="0.1"/>
            <polygon id="_234172656_1___1" class="fil1 str0" points="34.45130000000003,298.1819999999999" fill="none" stroke="black" stroke-width="0.1"/>
            <polyline id="_234167784___0___0" class="fil1 str0" points="86.241,307.721 86.019,308.237 85.84100000000001,308.63500000000005" fill="none" stroke="black" stroke-width="0.1"/>
            <polyline id="_234170376_1___0" class="fil1 str0" points="80.06,311.47 80.7863,311.25500000000005 81.5223,310.99590000000006 82.2598,310.69640000000004 82.9907,310.3602 83.70660000000001,309.99100000000004 84.39930000000001,309.59270000000004 85.06060000000001,309.16900000000004 85.68230000000001,308.72350000000006 85.68230000000001,308.72350000000006 85.68930000000002,308.71950000000004 85.70730000000002,308.7094 85.73270000000002,308.6952 85.76170000000002,308.679 85.79070000000002,308.6627 85.81610000000002,308.64849999999996 85.83410000000002,308.63839999999993 85.84120000000001,308.6343999999999" fill="none" stroke="black" stroke-width="0.1"/>
            <polyline id="_237068312___0___0" class="fil1 str0" points="64.371,266.018 65.1065,267.4495 66.00659999999999,268.7867 67.06299999999999,269.9964 68.31519999999999,271.1016 69.71079999999999,272.0435 69.90239999999999,272.1408 70.09399999999998,272.23810000000003 70.28569999999998,272.33540000000005 70.47729999999997,272.43280000000004 70.66889999999997,272.53010000000006 70.86049999999996,272.6274000000001 71.05219999999996,272.7247000000001 71.24379999999995,272.8220000000001 72.65179999999995,273.48770000000013 74.13379999999995,274.2898000000001 75.68149999999996,275.22360000000015 77.28619999999995,276.28410000000014 78.93889999999995,277.46520000000015 80.63029999999995,278.76030000000014 82.35099999999994,280.16220000000015 84.09119999999994,281.66290000000015 85.84129999999995,283.25420000000014 86.70399999999995,284.05370000000016 87.83449999999995,285.2155000000002 88.83499999999995,286.4940000000002 89.69919999999995,287.8725000000002 90.42059999999995,289.3344000000002 90.99279999999995,290.8629000000002 91.40949999999995,292.4414000000002 91.66419999999995,294.0533000000002 91.75049999999995,295.6818000000002 91.75049999999995,295.6818000000002 91.65519999999995,297.39970000000017 91.37429999999995,299.09000000000015 90.91569999999994,300.73680000000013 90.28699999999995,302.32370000000014 89.49589999999995,303.83480000000014 88.55019999999995,305.25370000000015 87.45759999999994,306.5645000000001 86.22569999999995,307.75100000000015" fill="none" stroke="black" stroke-width="0.1"/>
            <polyline id="_237068312___1___0" class="fil1 str0" points="86.2413,295.682 86.2413,307.72110000000004" fill="none" stroke="black" stroke-width="0.1"/>
            <polyline id="_237068312___2___0" class="fil1 str0" points="86.2414,295.682 86.234,295.345 86.2126,295.00460000000004 86.1784,294.66120000000006 86.1326,294.31520000000006 86.0765,293.96700000000004 86.0114,293.617 85.9383,293.2656 85.8586,292.9132 85.24499999999999,291.2352 84.40939999999999,289.7565 83.56119999999999,288.64930000000004 82.58609999999999,287.6485 81.51249999999999,286.7722 80.16169999999998,285.9172 78.73359999999998,285.2346 77.27649999999998,284.7256 75.83209999999998,284.38259999999997 74.40699999999998,284.17729999999995 73.02919999999999,284.0891 70.9656,284.1334 69.0761,284.3097 67.39359999999999,284.5097 66.2438,284.60880000000003 65.23079999999999,284.60510000000005 64.37099999999998,284.45550000000003 63.66139999999998,284.35260000000005 62.80119999999998,284.46010000000007 61.85749999999998,284.8027000000001 60.82199999999998,285.4242000000001 59.92389999999998,286.1821000000001 59.61049999999998,286.6188000000001 58.94979999999998,287.7383000000001 58.43129999999998,288.9083000000001 57.91709999999998,290.6395000000001 57.66159999999998,292.3446000000001 57.638599999999975,294.07190000000014 57.83779999999997,295.68210000000016" fill="none" stroke="black" stroke-width="0.1"/>
            <polyline id="_202963504_1___0" class="fil1 str0" points="85.841,308.635 85.841,295.6824 85.6373,293.6713 85.0531,291.7962 84.1293,290.0978 82.9065,288.6169 81.42559999999999,287.3941 79.72719999999998,286.47029999999995 77.85209999999998,285.88609999999994 75.84109999999998,285.68229999999994 75.84109999999998,285.68229999999994 73.83009999999999,285.88609999999994 71.95499999999998,286.47029999999995 70.25659999999998,287.3941 68.77569999999997,288.6169 67.55289999999997,290.0978 66.62909999999997,291.7962 66.04489999999997,293.6713 65.84109999999997,295.6824 65.84099999999997,308.6894" fill="none" stroke="black" stroke-width="0.1"/>
        </g>
        <g id="_203303024___0_1">
            <polyline id="_203303024___0___0" class="fil1 str0" points="62.4963,-13.8014 61.692299999999996,-12.545399999999999 60.7183,-11.415399999999998 59.5943,-10.434399999999998 58.3413,-9.623399999999998 57.137299999999996,-9.066399999999998 55.8803,-8.661399999999999 54.5283,-8.404399999999999 53.1483,-8.318399999999999 27.6842,-8.318399999999999" fill="none" stroke="black" stroke-width="0.1"/>
        </g>
        <polygon id="center_00" cx="75.841" cy="295.682" points="78.96579999999999,295.682 78.94868201864678,296.0086305420188 78.89751562277299,296.3316824514674 78.8128614021191,296.64761630402285 78.6956468460416,296.9529706622833 78.5471561817456,297.24440000000004 78.36901630402284,297.51871135636355 78.16317895065175,297.77289931875015 77.93189931875015,298.0041789506518 77.67771135636352,298.2100163040229 77.40339999999999,298.3881561817456 77.11197066228326,298.5366468460416 76.80661630402282,298.6538614021191 76.49068245146732,298.73851562277304 76.16763054201876,298.7896820186468 75.841,298.8068 75.51436945798123,298.7896820186468 75.19131754853267,298.73851562277304 74.87538369597716,298.6538614021191 74.57002933771673,298.5366468460416 74.2786,298.3881561817456 74.00428864363647,298.2100163040229 73.75010068124983,298.0041789506518 73.51882104934823,297.7728993187502 73.31298369597715,297.51871135636355 73.13484381825438,297.24440000000004 72.98635315395839,296.9529706622833 72.86913859788089,296.64761630402285 72.784484377227,296.3316824514674 72.73331798135321,296.0086305420188 72.7162,295.682 72.73331798135321,295.3553694579812 72.784484377227,295.03231754853266 72.86913859788089,294.7163836959772 72.98635315395839,294.41102933771674 73.13484381825438,294.1196 73.31298369597715,293.8452886436365 73.51882104934823,293.5911006812499 73.75010068124983,293.3598210493483 74.00428864363647,293.15398369597716 74.2786,292.9758438182544 74.57002933771673,292.8273531539584 74.87538369597716,292.7101385978809 75.19131754853265,292.625484377227 75.51436945798123,292.57431798135326 75.841,292.5572 76.16763054201876,292.57431798135326 76.49068245146732,292.625484377227 76.80661630402282,292.7101385978809 77.11197066228326,292.8273531539584 77.40339999999999,292.9758438182544 77.67771135636352,293.15398369597716 77.93189931875015,293.3598210493482 78.16317895065175,293.5911006812498 78.36901630402284,293.8452886436365 78.5471561817456,294.1196 78.6956468460416,294.41102933771674 78.8128614021191,294.7163836959772 78.89751562277299,295.03231754853266 78.94868201864678,295.3553694579812" fill="none" stroke="black" stroke-width="0.1"/>
    </g>
</svg>
