<!DOCTYPE svg PUBLIC "-//W3C//DTD SVG 1.1//EN" "http://www.w3.org/Graphics/SVG/1.1/DTD/svg11.dtd">
<svg xmlns="http://www.w3.org/2000/svg" width="297mm" height="210mm" viewBox="0 0 297 210">
    <defs id="_tag_130_"/>
    <g id="_tag_131_">
        <g id="_tag_132_">
            <g id="_tag_133_">
                <polygon id="_352338800" points="743.081,372.915 752.903,375.287 754.898,390.732 747.678,416.078 727.0,443.946 727.0,416.742 739.038,383.933 740.374,377.914 741.289,372.356" fill="none" stroke="black" stroke-width="0.1"/>
                <polygon id="_352338416" points="689.391,432.259 689.428,432.079 689.53,431.905 689.684,431.79 689.871,431.759 726.292,431.759 728.493,431.112 730.452,430.127 732.03,429.039 733.587,427.53 735.104,425.801 736.246,423.59 736.976,421.633 749.212,388.774 749.462,386.434 749.165,384.215 748.267,382.272 746.96,380.82 743.203,376.872 742.259,376.054 741.4,373.983 741.289,372.356 741.908,369.281 742.209,368.634 742.669,368.278 743.27,368.156 753.734,368.156 754.331,368.382 754.722,368.762 761.966,378.407 762.5,379.619 762.793,381.232 762.793,387.331 762.793,388.72 762.28,390.459 730.0,477.04 730.0,477.04 730.0,788.798 725.138,788.798 694.0,786.706 694.0,458.746 689.391,449.602" fill="none" stroke="black" stroke-width="0.1"/>
                <line id="_352338296" x1="689.391" y1="449.602" x2="724.606" y2="449.602" stroke="black" stroke-width="0.1"/>
                <line id="_352338608" x1="694.0" y1="458.746" x2="721.938" y2="458.746" stroke="black" stroke-width="0.1"/>
                <polyline id="simplify_SVG__000104" points="724.937,432.048 723.018,432.259 689.703,432.259" fill="none" stroke="black" stroke-width="0.1"/>
                <polyline id="simplify_SVG__000105" points="744.623,374.506 750.27,380.597 751.625,383.16 751.975,385.491 751.785,388.567 748.219,398.326 739.618,421.798 737.493,425.875 734.389,429.422 730.592,431.936" fill="none" stroke="black" stroke-width="0.1"/>
                <polygon id="_201730848_1" class="fil3 str0" points="693.04,428.439 732.6485,428.439 732.0299,429.0384 730.4087,430.14840000000004 693.04,430.14840000000004 692.8666515625,430.13095605468754 692.7049187499999,430.0809609375001 692.5583453124999,430.00191972656256 692.4304749999999,429.89733750000005 692.3248515624999,429.7707193359376 692.24501875,429.62557031250003 692.1945203124999,429.46539550781256 692.1768999999999,429.29370000000006 692.1768999999999,429.29370000000006 692.1945162109374,429.12200449218756 692.2450046874999,428.9618296875001 692.3248251953124,428.8166806640625 692.4304374999999,428.69006250000007 692.5583013671875,428.58548027343755 692.7048765625,428.5064390625 692.8666228515624,428.45644394531257 693.04,428.4390000000001" fill="none" stroke="black" stroke-width="0.1"/>
                <polygon id="_201216616" points="693.432,428.439 712.0,428.439 730.568,428.439 730.568,428.033 727.369,426.796 712.0,426.796 696.631,426.796 693.432,428.033" fill="none" stroke="black" stroke-width="0.1"/>
                <polygon id="_201588784" points="712.0,430.149 730.409,430.149 728.493,431.112 726.292,431.759 712.0,431.759 690.515,431.759 690.515,431.557 691.988,430.149" fill="none" stroke="black" stroke-width="0.1"/>
            </g>
            <g id="_tag_134_">
                <polygon id="_352338776_1" class="fil6 str0" points="750.268,788.054 750.3709343749999,788.0510501953125 750.4723312499999,788.0423078125 750.57203125,788.0279333984374 750.669875,788.0080875 750.765703125,787.9829306640625 750.85935625,787.9526234374999 750.950675,787.9173263671875 751.0395,787.8772 751.0395,787.8772 753.2274748046875,786.710304296875 755.2149734375,785.253953125 756.9738697265624,783.5362503906251 758.4760375,781.5853000000001 759.6933505859375,779.429205859375 760.5976828124999,777.096071875 761.1609080078124,774.614001953125 761.3548999999999,772.0111 761.3548999999999,772.0111 761.312258984375,770.7854533203125 761.1862343749999,769.5827765625 760.9796738281249,768.4059021484375 760.6954249999999,767.2576625 760.3363355468749,766.1408900390625 759.905253125,765.0584171875 759.4050253906249,764.0130763671876 758.8385,763.0077000000001 733.9485,720.8040000000001 729.9996,714.1081 728.1161,714.5405000000001 728.1074,733.6635000000001 727.2551,740.2736000000001 725.1374,746.9976000000001 725.1374,788.7756000000002 726.6954115234374,788.7927404296877 728.2747734374999,788.8007859375001 729.8671267578125,788.8018353515627 731.4641124999999,788.7979875000001 733.0573716796874,788.7913412109377 734.6385453124999,788.7839953125001 736.1992744140624,788.7780486328127 737.7312,788.7756000000002 737.7312,788.7756000000002 738.0875482421874,788.7396658203127 738.4194734375,788.6366078125002 738.7198587890625,788.4735427734377 738.9815875,788.2575875000001 739.1975427734374,787.9958587890626 739.3606078125,787.6954734375001 739.4636658203124,787.3635482421876 739.4996,787.0072000000001 739.4996,772.0289000000001 739.4994,772.0111000000002 739.5908439453126,771.1042982421876 739.8531015625001,770.2596421875002 740.2680615234375,769.4952431640627 740.8176125000001,768.8292125000002 741.4836431640625,768.2796615234377 742.2480421875,767.8647015625002 743.0926982421875,767.6024439453128 743.9995,767.5110000000002 743.9995,767.5110000000002 744.9063017578126,767.6024439453128 745.7509578125,767.8647015625002 746.5153568359375,768.2796615234378 747.1813875,768.8292125000002 747.7309384765625,769.4952431640627 748.1458984375,770.2596421875002 748.4081560546874,771.1042982421877 748.4996,772.0111000000002 748.4996,786.2856000000002 748.5355341796876,786.6419482421876 748.6385921875,786.9738734375002 748.8016572265626,787.2742587890627 749.0176124999999,787.5359875000003 749.2793412109374,787.7519427734376 749.5797265625,787.9150078125002 749.9116517578126,788.0180658203126 750.268,788.0540000000002" fill="none" stroke="black" stroke-width="0.1"/>
                <polyline id="_352345880_1" class="fil2 str1" points="739.5,782.351 739.2949970703125,782.259216015625 739.0921515625,782.163515625 738.8915208984375,782.0639386718749 738.6931625,781.960525 738.4971337890624,781.853314453125 738.3034921875,781.742346875 738.1122951171875,781.627662109375 737.9236,781.5093 737.9236,781.5093 736.80267421875,780.6892748046876 735.7925,779.7404546875 734.9050070312499,778.6747728515625 734.152125,777.5041625 733.5457835937499,776.2405568359375 733.0979124999999,774.8958890625 732.8204414062499,773.4820923828125 732.7253,772.0111 732.7253,772.0111 732.9544046875,769.7391833984376 733.61146875,767.6229609375 734.6511171875,765.7078111328126 736.027975,764.0391125 737.6966671874999,762.6622435546875 739.6118187499999,761.6225828125 741.7280546874999,760.9655087890625 744.0,760.7364 744.0,760.7364 746.2719453125001,760.9655046875 748.3881812500001,761.62256875 750.3033328125001,762.6622171875 751.972025,764.039075 753.3488828125,765.7077671874999 754.38853125,767.62291875 755.0455953125,769.7391546875 755.2747,772.0111 755.2747,772.0111 755.1471166015625,773.7122539062501 754.7767828125001,775.33381875 754.1823232421875,776.85719921875 753.3823625,778.2638000000001 752.3955251953125,779.53502578125 751.2404359375,780.6522812500001 749.9357193359376,781.59697109375 748.5,782.3505" fill="none" stroke="black" stroke-width="0.1"/>
                <polygon id="center_00" cx="744" cy="772.011" points="746.8888,772.011 746.8729748513399,772.3129618246876 746.8256727889998,772.6116152924343 746.7474120642735,772.9036882933503 746.639050118038,773.1859808145174 746.5017741864525,773.4553999999999 746.3370882933503,773.7089940368224 746.1467967718391,773.9439844956495 745.9329844956495,774.1577967718391 745.6979940368225,774.3480882933503 745.4444,774.5127741864525 745.1749808145174,774.6500501180379 744.8926882933504,774.7584120642734 744.6006152924343,774.8366727889997 744.3019618246876,774.8839748513399 744.0,774.8997999999999 743.6980381753124,774.8839748513399 743.3993847075657,774.8366727889997 743.1073117066496,774.7584120642734 742.8250191854826,774.6500501180379 742.5556,774.5127741864525 742.3020059631775,774.3480882933503 742.0670155043505,774.1577967718391 741.8532032281609,773.9439844956495 741.6629117066497,773.7089940368224 741.4982258135475,773.4553999999999 741.360949881962,773.1859808145174 741.2525879357265,772.9036882933503 741.1743272110002,772.6116152924343 741.1270251486601,772.3129618246876 741.1112,772.011 741.1270251486601,771.7090381753123 741.1743272110002,771.4103847075656 741.2525879357265,771.1183117066496 741.360949881962,770.8360191854825 741.4982258135475,770.5666 741.6629117066497,770.3130059631775 741.8532032281609,770.0780155043504 742.0670155043505,769.8642032281608 742.3020059631775,769.6739117066496 742.5556,769.5092258135475 742.8250191854826,769.371949881962 743.1073117066496,769.2635879357265 743.3993847075657,769.1853272110002 743.6980381753124,769.1380251486601 744.0,769.1222 744.3019618246876,769.1380251486601 744.6006152924343,769.1853272110002 744.8926882933504,769.2635879357265 745.1749808145174,769.371949881962 745.4444,769.5092258135475 745.6979940368225,769.6739117066496 745.9329844956495,769.8642032281608 746.1467967718391,770.0780155043504 746.3370882933503,770.3130059631775 746.5017741864525,770.5666 746.639050118038,770.8360191854825 746.7474120642735,771.1183117066496 746.8256727889998,771.4103847075656 746.8729748513399,771.7090381753123" fill="none" stroke="black" stroke-width="0.1"/>
                <polyline id="_200469968_1" class="fil2 str0" points="729.613,747.99 730.6712828125001,748.7580142578125 731.82251875,749.4997703125001 733.0662015625,750.2165630859375 734.4018250000001,750.9096875 735.8288828125001,751.5804384765624 737.3468687500001,752.2301109375 738.9552765625001,752.8599998046875 740.6536000000001,753.4714 740.6536000000001,753.4714 741.7943910156251,753.910317578125 743.1582531250001,754.5087718750001 744.6712949218752,755.2311777343749 746.2596250000001,756.04195 747.849351953125,756.905503515625 749.3665843750001,757.786253125 750.7374308593751,758.648613671875 751.8880000000001,759.457" fill="none" stroke="black" stroke-width="0.1"/>
                <polyline id="_201214264_1" class="fil2 str0" points="739.5,785.267 739.3757,784.7075000000001 739.1773000000001,784.3037 738.7961,784.0423000000001 738.5590169921875,783.9361494140626 738.3244359375001,783.8254765625001 738.0924212890625,783.7103248046875 737.8630375,783.5907375000002 737.6363490234376,783.4667580078126 737.4124203125,783.3384296875 737.1913158203126,783.2057958984376 736.9731,783.0689000000001 736.9731,783.0689000000001 735.6768068359374,782.1206126953126 734.5085984375,781.0233765625002 733.4822689453125,779.7909927734377 732.6116125000001,778.4372625000001 731.9104232421876,776.9759869140626 731.3924953125,775.4209671875001 731.0716228515627,773.7860044921875 730.9616000000001,772.0849000000001 730.9616000000001,772.0849000000001 731.2265435546876,769.45758359375 731.9863921875001,767.01031875 733.1886728515626,764.7955820312501 734.7809125000001,762.86585 736.7106380859376,761.2735992187501 738.9253765625001,760.07130625 741.3726548828125,759.31144765625 744.0000000000001,759.0465 744.0000000000001,759.0465 746.6273451171877,759.3114435546876 749.0746234375001,760.0712921875 751.2893619140626,761.2735728515626 753.2190875000001,762.8658125 754.8113271484376,764.7955380859376 756.0136078125001,767.0102765625 756.7734564453126,769.4575548828126 757.0384000000001,772.0849000000001 757.0384000000001,772.0849000000001 756.8908597656251,774.0521804687501 756.4625968750001,775.9274125000001 755.7751480468751,777.6890945312501 754.8500500000002,779.3157250000002 753.7088394531252,780.78580234375 752.3730531250001,782.0778250000001 750.8642277343752,783.1702914062502 749.2039000000001,784.0417000000001 748.8227,784.3031000000001 748.6243000000001,784.7069000000001 748.5000000000001,785.2664000000001" fill="none" stroke="black" stroke-width="0.1"/>
            </g>
        </g>
    </g>
</svg>
