<!DOCTYPE svg PUBLIC "-//W3C//DTD SVG 1.1//EN" "http://www.w3.org/Graphics/SVG/1.1/DTD/svg11.dtd">
<svg xmlns="http://www.w3.org/2000/svg" width="297mm" height="210mm" viewBox="0 0 297 210">
    <defs id="_tag_34_"/>
    <g id="_tag_35_">
        <polygon id="path31___0" points="98.905805,161.3451 101.70403,161.43121 104.65059,161.48894 107.61534,161.52395 110.46818,161.54193 113.07897,161.54855 115.3176,161.5495 115.3176,161.5495 117.48026,161.5495 119.89406,161.5495 122.4753,161.5495 125.14025,161.5495 127.8052,161.5495 130.38644,161.5495 132.80024,161.5495 134.9629,161.5495 134.9629,161.5495 136.07004,161.34027 136.93644,161.13981 137.59078,160.94569 138.06179,160.7555 138.37816,160.56681 138.5686,160.37719 138.66181,160.18423 138.6865,159.9855 138.6865,159.9855 138.6865,159.97937 138.6865,159.97297 138.6865,159.96638 138.6865,159.9597 138.6865,159.95302 138.6865,159.94643 138.6865,159.94003 138.6865,159.9339 138.0162,147.1694 137.98971,146.98023 137.92939,146.80371 137.83874,146.64335 137.72126,146.50265 137.58046,146.38513 137.41985,146.29429 137.24293,146.23364 137.0532,146.2067 137.0532,146.2067 132.22878,145.563 127.75045,144.04374 123.70679,141.74146 120.18641,138.74867 117.27791,135.1579 115.06987,131.06167 113.6509,126.55249 113.1096,121.7229 113.1096,121.7229 113.17683,119.86977 113.37395,118.03714 113.69414,116.23642 114.13055,114.47899 114.67635,112.77625 115.3247,111.13959 116.06876,109.58041 116.9017,108.1101 116.9017,108.1101 116.97749,107.99201 117.03805,107.88993 117.08497,107.80152 117.11983,107.72445 117.14419,107.6564 117.15963,107.59505 117.16775,107.53806 117.1701,107.4831 117.1701,107.4831 117.16941,107.45284 117.1674,107.42244 117.16413,107.39205 117.15968,107.3618 117.1541,107.33183 117.14749,107.30228 117.1399,107.27329 117.1314,107.245 117.1314,107.245 116.54801,105.84947 115.76133,104.5868 114.79491,103.47339 113.67231,102.52565 112.4171,101.75997 111.05284,101.19275 109.60309,100.8404 108.0914,100.7193 108.0914,100.7193 107.94554,100.72097 107.78966,100.72569 107.62767,100.73303 107.46351,100.74255 107.3011,100.75381 107.14436,100.76638 106.99722,100.77982 106.8636,100.7937 106.8636,100.7937 106.7703,100.81161 106.68235,100.83821 106.60009,100.87297 106.52387,100.91537 106.45407,100.9649 106.39102,101.02101 106.33508,101.08318 106.2866,101.1509 89.3342,128.2789 88.042502,130.31983 86.652078,132.34198 85.173046,134.33605 83.615525,136.29279 81.989632,138.2029 80.305484,140.05713 78.573201,141.84619 76.8029,143.5608 76.8029,143.5608 75.510499,144.82957 74.397194,146.13461 73.460054,147.47145 72.69615,148.83565 72.102552,150.22276 71.676331,151.62834 71.414557,153.04794 71.3143,154.4771 71.3143,154.4771 71.326985,155.12428 71.364614,155.75611 71.426545,156.37259 71.512137,156.97371 71.62075,157.55948 71.751742,158.1299 71.904472,158.68498 72.0783,159.2247 72.0783,159.2247 72.274561,159.87925 72.514403,160.65261 72.781907,161.50359 73.06115,162.39096 73.336212,163.27352 73.591172,164.11005 73.810108,164.85935 73.9771,165.4802 73.9771,165.4802 74.201704,166.32729 74.388566,167.12757 74.540089,167.88475 74.658675,168.60251 74.746727,169.28456 74.806647,169.9346 74.840837,170.55631 74.8517,171.1534 74.8517,171.1534 74.813619,172.33095 74.700541,173.51372 74.514211,174.69301 74.256375,175.86009 73.92878,177.00623 73.533172,178.12273 73.071296,179.20086 72.5449,180.2319 72.5449,180.2319 72.306231,180.69383 72.099395,181.15657 71.92439,181.61963 71.781212,182.0825 71.669858,182.5447 71.590323,183.00573 71.542605,183.46509 71.5267,183.9223 71.5267,183.9223 71.633899,185.17015 71.94423,186.35504 72.440792,187.45642 73.106687,188.45375 73.925015,189.32649 74.878877,190.05408 75.951371,190.616 77.1256,190.9917 76.2183,195.3823 76.214914,195.40031 76.211648,195.41929 76.208606,195.43897 76.205887,195.45911 76.203596,195.47944 76.201833,195.49971 76.2007,195.51965 76.2003,195.539 76.2003,195.539 76.215828,195.69518 76.260342,195.84027 76.330738,195.97127 76.423912,196.08518 76.53676,196.17899 76.666177,196.24972 76.809058,196.29435 76.9623,196.3099 76.9623,196.3099 76.990446,196.30935 77.018944,196.30772 77.047582,196.30504 77.07615,196.30135 77.104437,196.29669 77.132231,196.29108 77.159323,196.28458 77.1855,196.2772 77.1855,196.2772 79.058112,195.51627 80.75865,194.47545 82.263195,193.18741 83.547825,191.68484 84.588621,190.0004 85.361662,188.16678 85.843029,186.21665 86.0088,184.1827 86.0088,184.1827 86.0088,184.10616 86.0088,184.02613 86.0088,183.94377 86.0088,183.86025 86.0088,183.77673 86.0088,183.69437 86.0088,183.61434 86.0088,183.5378 86.0088,183.5378 85.737955,180.56545 85.376787,177.50047 84.92757,174.37735 84.392575,171.23059 83.774077,168.09468 83.07435,165.00411 82.295666,161.99339 81.4403,159.097 80.4528,156.2652 80.40497,156.08987 80.359381,155.90866 80.317308,155.72295 80.280025,155.5341 80.248808,155.34349 80.224931,155.15249 80.20967,154.96247 80.2043,154.7748 80.2043,154.7748 80.30782,153.72698 80.604581,152.75474 81.07389,151.87785 81.69505,151.11608 82.447366,150.48918 83.310144,150.01692 84.262687,149.71907 85.2843,149.6154 85.2843,149.6154 86.091341,149.68168 86.866525,149.87399 87.596597,150.18257 88.2683,150.59766 88.868378,151.10949 89.383575,151.70828 89.800634,152.38427 90.1063,153.1277 91.7419,158.1312 91.916465,158.58475 92.137641,159.02131 92.401646,159.43653 92.7047,159.82601 93.043023,160.18539 93.412834,160.51028 93.810354,160.79631 94.2318,161.0391 94.2748,161.065 94.2748,161.065 96.386019,161.22492" fill="none" stroke="black" stroke-width="0.1"/>
        <polygon id="path29___1" points="138.01312,147.22623 138.00878,147.22626 138.00567,147.22628 138.00359,147.22629 138.00232,147.22629 138.00167,147.2263 138.00143,147.2263 138.0014,147.2263 138.0014,147.2263 132.79444,146.69867 127.9395,145.1861 123.54206,142.79408 119.7076,139.6281 116.54162,135.79364 114.1496,131.3962 112.63703,126.54126 112.1094,121.3343 112.1094,121.3343 112.18901,119.35969 112.42389,117.38982 112.8081,115.4389 113.33574,113.52117 114.00086,111.65086 114.79755,109.84217 115.71987,108.10934 116.7619,106.4666 116.7619,106.4666 116.13712,105.23194 115.33848,104.1173 114.38733,103.13641 113.30503,102.30302 112.11291,101.6309 110.83233,101.13379 109.48465,100.82544 108.0912,100.7196 108.0912,100.7196 108.0617,100.7196 108.02959,100.7196 107.99573,100.7196 107.961,100.7196 107.92627,100.7196 107.89241,100.7196 107.8603,100.7196 107.8308,100.7196 90.182,128.8091 88.87337,130.87681 87.464713,132.92549 85.96628,134.94574 84.388325,136.92816 82.741098,138.86336 81.03485,140.74193 79.279834,142.55448 77.4863,144.2916 77.4863,144.2916 76.261168,145.49152 75.208584,146.71964 74.324934,147.97262 73.6066,149.2471 73.049966,150.53973 72.651416,151.84716 72.407332,153.16603 72.3141,154.493 72.3141,154.493 72.325875,155.09386 72.360803,155.68047 72.418293,156.25283 72.49775,156.81094 72.598582,157.35479 72.720197,157.88438 72.862,158.39972 73.0234,158.9008 73.0234,158.9008 73.221458,159.56075 73.463647,160.34121 73.733862,161.20046 74.016,162.0968 74.293957,162.98851 74.551628,163.83387 74.772911,164.59117 74.9417,165.2187 74.9417,165.2187 75.174534,166.069 75.368538,166.87299 75.526109,167.63414 75.64965,168.35591 75.741559,169.04179 75.804238,169.69523 75.840084,170.31971 75.8515,170.9187 75.8515,170.9187 75.837426,171.59361 75.797652,172.26485 75.735848,172.92875 75.655688,173.58164 75.560841,174.21984 75.45498,174.83968 75.341776,175.43749 75.2249,176.0096 75.2249,176.0096 75.72875,174.97309 76.178097,173.89087 76.569032,172.76949 76.89765,171.61546 77.160043,170.43532 77.352303,169.2356 77.470525,168.02281 77.5108,166.8035 77.5108,166.8035 77.492661,166.02651 77.440103,165.24578 77.355919,164.46505 77.2429,163.68804 77.103837,162.91846 76.941522,162.16005 76.758746,161.41652 76.5583,160.6916 76.5583,160.6916 76.530293,160.63463 76.478728,160.46974 76.412018,160.23255 76.338575,159.95865 76.26681,159.68364 76.205134,159.44313 76.161961,159.27272 76.1457,159.208 76.1457,159.208 75.865455,158.42677 75.638788,157.73291 75.460702,157.11447 75.3262,156.5595 75.230286,156.05606 75.167963,155.59219 75.134233,155.15596 75.1241,154.7354 75.1241,154.7354 75.331143,152.6791 75.924677,150.76419 76.863306,149.0316 78.105638,147.52225 79.610277,146.27707 81.33583,145.33698 83.240902,144.74292 85.2841,144.5358 85.2841,144.5358 87.327298,144.74284 89.23237,145.33636 90.957923,146.27497 92.462563,147.51729 93.704894,149.02191 94.643523,150.74745 95.237057,152.65251 95.4441,154.6957 95.4441,154.6957 95.418444,155.38146 95.343025,156.06676 95.220169,156.74742 95.0522,157.41924 94.841444,158.07804 94.590225,158.71964 94.300869,159.33986 93.9757,159.9345 93.9757,159.9345 96.634676,160.1376 99.297147,160.29022 101.96261,160.39958 104.63057,160.47289 107.30053,160.51735 109.97199,160.54019 112.64445,160.5486 115.3174,160.5498 115.3174,160.5498 117.39876,160.5498 119.60541,160.5498 121.8956,160.5498 124.22755,160.5498 126.5595,160.5498 128.84969,160.5498 131.05634,160.5498 133.1377,160.5498 133.1377,160.5498 134.96917,160.35018 136.34548,160.19949 137.33166,160.09078 137.99273,160.01711 138.3937,159.97156 138.5996,159.94718 138.67546,159.93704 138.6863,159.9342 138.6848,159.9327 138.6848,159.9327 138.0189,147.2262" fill="none" stroke="black" stroke-width="0.1"/>
        <polygon id="path29___0" points="102.06095,121.40718 102.49723,121.10574 102.96334,120.85211 103.45403,120.64941 103.96403,120.50076 104.48807,120.40929 105.0209,120.3781 105.0209,120.3781 105.84464,120.45017 106.62941,120.65876 107.3609,120.99242 108.02479,121.43969 108.60677,121.98912 109.09254,122.62927 109.46779,123.34868 109.7182,124.1359 109.7182,124.1359 110.39038,126.74048 111.26658,129.32882 112.33403,131.87662 113.57996,134.3596 114.99162,136.75346 116.55622,139.03391 118.261,141.17665 120.0932,143.1574 120.0932,143.1574 120.50402,143.6112 120.86689,144.09638 121.18007,144.60877 121.44184,145.14421 121.65044,145.69854 121.80414,146.26759 121.90121,146.8472 121.9399,147.4332 121.9399,147.4332 121.83813,148.57318 121.54431,149.64637 121.07572,150.63273 120.44959,151.51221 119.68319,152.26478 118.79377,152.8704 117.79859,153.30902 116.7149,153.5606 116.7149,153.5606 115.89151,153.6629 115.01615,153.75617 114.10438,153.83897 113.17175,153.9099 112.23381,153.96754 111.30613,154.01046 110.40424,154.03725 109.5437,154.0465 109.5437,154.0465 108.31265,154.02792 107.05552,153.97378 105.78417,153.88644 104.51045,153.76827 103.24622,153.62166 102.00333,153.44896 100.79364,153.25255 99.629,153.0348 99.629,153.0348 99.207116,152.95105 98.794853,152.82384 98.39587,152.65612 98.013825,152.45081 97.652377,152.21086 97.315184,151.9392 97.005906,151.63877 96.7282,151.3125 91.8277,144.9357 91.482566,144.44735 91.179025,143.93052 90.91844,143.38928 90.702175,142.82771 90.531595,142.24987 90.408063,141.65983 90.332943,141.06165 90.3076,140.4594 90.3076,140.4594 90.322291,140.00506 90.365916,139.54871 90.437801,139.09372 90.537275,138.64344 90.663664,138.20123 90.816297,137.77047 90.9945,137.3545 91.1976,136.9567 91.1976,136.9567 92.173327,135.29681 93.205369,133.57855 94.285683,131.82636 95.406225,130.06467 96.558952,128.31794 97.735819,126.61061 98.928783,124.96711 100.1298,123.4119 101.299,122.141 101.299,122.141 101.65979,121.75331" fill="none" stroke="black" stroke-width="0.1"/>
        <polygon id="path31___2" points="98.510813,151.59171 98.808299,151.76035 99.118311,151.90207 99.438071,152.01517 99.7648,152.0979 99.7648,152.0979 100.92537,152.29696 102.12555,152.47869 103.35436,152.64026 104.60084,152.77883 105.854,152.89154 107.10288,152.97557 108.3365,153.02807 109.5439,153.0462 109.5439,153.0462 110.38764,153.03729 111.27092,153.0121 112.17744,152.97296 113.09095,152.92219 113.99516,152.86211 114.87378,152.79506 115.71056,152.72335 116.4892,152.6493 116.4892,152.6493 117.41709,152.41245 118.26706,152.02692 119.025,151.50943 119.67679,150.8767 120.20831,150.14546 120.60545,149.33243 120.85408,148.45434 120.9401,147.5279 120.9401,147.5279 120.91533,147.03835 120.84243,146.55463 120.72348,146.08066 120.56058,145.62043 120.35581,145.17786 120.11128,144.75691 119.82908,144.36154 119.5113,143.9957 119.5113,143.9957 117.63475,141.9715 115.8753,139.78022 114.24984,137.44783 112.77521,135.00029 111.46829,132.46357 110.34594,129.86363 109.42502,127.22645 108.7224,124.578 108.7224,124.578 108.53046,123.88063 108.23805,123.25531 107.85673,122.7085 107.39806,122.24665 106.8736,121.8762 106.29492,121.60361 105.67356,121.43533 105.0211,121.3778 105.0211,121.3778 104.59906,121.40187 104.184,121.47268 103.78009,121.58814 103.39153,121.74615 103.02249,121.94463 102.67716,122.18147 102.35974,122.45459 102.0744,122.7619 102.0744,122.7619 100.87861,124.31152 99.661647,125.91502 98.442489,127.5594 97.2401,129.23164 96.073449,130.91872 94.961503,132.60763 93.923231,134.28536 92.9776,135.9389 92.9776,135.9389 92.519028,136.75834 92.148302,137.47353 91.85719,138.09937 91.637463,138.65075 91.48089,139.14256 91.379242,139.58969 91.324289,140.00704 91.3078,140.4095 91.3078,140.4095 91.32965,140.93796 91.39423,141.46061 91.500085,141.97394 91.645763,142.47449 91.829807,142.95875 92.050764,143.42325 92.30718,143.86449 92.5976,144.279 97.5017,150.6827 97.5017,150.6827 97.721296,150.94167 97.964533,151.18065 98.228631,151.3979" fill="none" stroke="black" stroke-width="0.1"/>
        <polygon id="path95___0" points="72.682094,179.96934 72.653357,180.02187 72.62275,180.07978 72.593437,180.13639 72.568581,180.18507 72.551348,180.21916 72.5449,180.232 72.5449,180.232 72.306231,180.69393 72.099395,181.15667 71.92439,181.61973 71.781212,182.0826 71.669858,182.5448 71.590323,183.00583 71.542605,183.46519 71.5267,183.9224 71.5267,183.9224 71.633899,185.17025 71.94423,186.35514 72.440792,187.45652 73.106687,188.45385 73.925015,189.32659 74.878877,190.05418 75.951371,190.6161 77.1256,190.9918 76.2183,195.3824 76.214914,195.40041 76.211648,195.41939 76.208606,195.43907 76.205887,195.45921 76.203596,195.47954 76.201833,195.49981 76.2007,195.51975 76.2003,195.5391 76.2003,195.5391 76.215828,195.69528 76.260342,195.84037 76.330738,195.97137 76.423913,196.08528 76.53676,196.17909 76.666177,196.24982 76.809058,196.29445 76.9623,196.31 76.9623,196.31 76.990446,196.30945 77.018944,196.30782 77.047582,196.30514 77.07615,196.30145 77.104437,196.29679 77.132231,196.29118 77.159323,196.28468 77.1855,196.2773 77.1855,196.2773 79.058112,195.51637 80.75865,194.47555 82.263195,193.18751 83.547825,191.68494 84.588621,190.0005 85.361663,188.16688 85.843029,186.21675 86.0088,184.1828 86.0088,184.1828 86.0088,184.10626 86.0088,184.02623 86.0088,183.94387 86.0088,183.86035 86.0088,183.77683 86.0088,183.69447 86.0088,183.61444 86.0088,183.5379 86.0088,183.5379 85.737955,180.56555 85.376788,177.50057 84.92757,174.37745 84.392575,171.23069 83.774077,168.09478 83.07435,165.00421 82.295666,161.99349 81.4403,159.0971 80.4528,156.2653 80.40497,156.08997 80.359381,155.90876 80.317308,155.72305 80.280025,155.5342 80.248808,155.34359 80.224931,155.15259 80.20967,154.96257 80.2043,154.7749 80.2043,154.7749 80.30782,153.72708 80.604581,152.75484 81.07389,151.87795 81.69505,151.11618 82.447366,150.48928 83.310144,150.01702 84.262687,149.71917 85.2843,149.6155 85.2843,149.6155 86.091341,149.68178 86.866525,149.87409 87.596597,150.18267 88.2683,150.59776 88.868378,151.10959 89.383575,151.70838 89.800634,152.38437 90.1063,153.1278 91.7419,158.1313 91.876572,158.48541 92.038167,158.83008 92.225195,159.16301 92.436163,159.48189 92.669579,159.78439 92.923952,160.0682 93.197789,160.33101 93.4896,160.5705 93.4896,160.5705 93.929693,159.94029 94.318273,159.27437 94.653133,158.57783 94.932063,157.85579 95.152853,157.11334 95.313295,156.35559 95.411181,155.58764 95.4443,154.8146 95.4443,154.8146 95.237257,152.73209 94.643723,150.79749 93.705094,149.05079 92.462762,147.53198 90.958123,146.28106 89.23257,145.33802 87.327498,144.74287 85.2843,144.5356 85.2843,144.5356 83.241102,144.74264 81.33603,145.33616 79.610477,146.27477 78.105838,147.51709 76.863506,149.02171 75.924877,150.74725 75.331343,152.65231 75.1243,154.6955 75.1243,154.6955 75.133523,155.11378 75.160881,155.53392 75.205912,155.95406 75.26815,156.37233 75.347132,156.78687 75.442394,157.19584 75.553471,157.59737 75.6799,157.9896 75.6799,157.9896 75.725534,158.08334 75.790344,158.27586 75.866545,158.53285 75.94635,158.82003 76.021974,159.10308 76.085631,159.34773 76.129535,159.51967 76.1459,159.5846 76.1459,159.5846 76.482536,160.67485 76.767656,161.69292 77.003305,162.64805 77.191525,163.54949 77.334361,164.40649 77.433856,165.22829 77.492055,166.02414 77.511,166.8033 77.511,166.8033 77.433639,168.5573 77.204658,170.29828 76.828707,172.01322 76.310438,173.68909 75.654501,175.31287 74.865548,176.87153 73.948231,178.35205 72.9072,179.7414 72.7213,179.907 72.7213,179.907 72.705796,179.92883" fill="none" stroke="black" stroke-width="0.1"/>
        <polygon id="path95___1" points="74.670869,185.67807 75.081555,186.43299 75.6251,187.09128 76.283395,187.6348 77.038331,188.04545 77.871802,188.30512 78.7657,188.3957 78.7657,188.3957 79.659597,188.30512 80.493066,188.04545 81.247995,187.6348 81.906275,187.09128 82.449796,186.43299 82.860447,185.67807 83.120118,184.8446 83.2107,183.9507 83.2107,183.9507 83.120118,183.0568 82.860447,182.22333 82.449796,181.46841 81.906275,180.81013 81.247995,180.2666 80.493066,179.85595 79.659597,179.59628 78.7657,179.5057 78.7657,179.5057 77.871803,179.59628 77.038334,179.85595 76.283405,180.2666 75.625125,180.81013 75.081604,181.46841 74.670953,182.22333 74.411282,183.0568 74.3207,183.9507 74.3205,183.9507 74.3205,183.9507 74.411148,184.8446" fill="none" stroke="black" stroke-width="0.1"/>
        <circle id="center_00" cx="85.2767" cy="154.681" r="5"/>
    </g>
</svg>
