<?xml version="1.0" encoding="UTF-8"?>
<!DOCTYPE svg PUBLIC "-//W3C//DTD SVG 1.1//EN" "http://www.w3.org/Graphics/SVG/1.1/DTD/svg11.dtd">
<!-- Creator: CorelDRAW -->
<svg xmlns="http://www.w3.org/2000/svg" xml:space="preserve" width="297mm" height="210mm" style="shape-rendering:geometricPrecision; text-rendering:geometricPrecision; image-rendering:optimizeQuality; fill-rule:evenodd; clip-rule:evenodd"
viewBox="0 0 297 210">
 <defs>
  <style type="text/css">
   <![CDATA[
    .str0 {stroke:#1F1A17;stroke-width:0.0762}
    .fil0 {fill:none}
    .fil1 {fill:#838290}
    .fil2 {fill:#838280}
    .fil3 {fill:#838270}
   ]]>
  </style>
 </defs>
 <g id="Ebene_x0020_1">
  <metadata id="CorelCorpID_0Corel-Layer"/>
   <metadata id="CorelCorpID_0Corel-Layer"/>
  <polygon class="fil1 str0" points="153.656,129.523 160.089,122.239 162.703,121.054 165.024,118.48 165.654,114.248 164.097,108.778 161.317,101.743 157.909,95.3046 154.608,90.3181 150.886,85.6381 145.816,80.4073 139.984,75.5896 135.263,72.4183 131.044,71.7104 127.879,73.1217 125.944,75.242 111.193,70.4494 110.874,67.5965 109.143,64.5944 105.314,62.6872 99.63,62.4777 92.0801,62.9474 84.9039,64.1992 79.1414,65.7974 73.5401,67.8915 66.9986,71.0969 60.6145,75.1547 56.1396,78.6648 54.1624,82.4588 54.5266,85.9049 55.945,88.4007 46.829,100.948 44.0171,100.37 40.6271,101.089 37.6298,104.141 35.6743,109.482 33.7879,116.808 32.7609,124.019 32.5001,129.994 32.7609,135.968 33.7879,143.18 35.6743,150.505 37.6298,155.846 40.6271,158.899 44.0171,159.617 46.829,159.039 55.9451,171.587 54.5266,174.082 54.1624,177.528 56.1395,181.322 60.6145,184.833 66.9986,188.89 73.5401,192.096 79.1414,194.19 84.9039,195.788 92.0801,197.04 99.6301,197.509 105.314,197.3 109.143,195.393 110.874,192.391 111.194,189.538 125.944,184.745 127.879,186.866 131.044,188.277 135.263,187.569 139.984,184.398 145.816,179.58 150.886,174.349 154.609,169.669 157.909,164.682 161.317,158.244 164.097,151.209 165.654,145.739 165.024,141.507 162.703,138.934 160.089,137.748 153.656,130.464 175.173,130.654 175.624,131.894 176.735,133.106 178.255,133.736 180.915,134.994 180.669,138.038 177.842,138.853 176.241,139.23 174.949,140.249 174.305,141.401 174.093,142.703 174.34,144 175.242,145.375 176.641,146.24 179.065,147.909 178.334,150.874 175.413,151.225 173.772,151.341 172.334,152.139 171.513,153.172 171.095,154.424 171.13,155.744 171.8,157.246 173.043,158.324 175.167,160.359 173.97,163.169 171.03,163.047 169.392,162.898 167.845,163.455 166.869,164.344 166.255,165.512 166.079,166.82 166.499,168.41 167.552,169.674 169.323,172.024 167.69,174.605 164.809,174.013 163.215,173.603 161.598,173.905 160.493,174.625 159.7,175.68 159.315,176.943 159.475,178.58 160.312,179.996 161.683,182.6 159.658,184.886 156.908,183.839 155.401,183.179 153.757,183.218 152.55,183.751 151.598,184.665 151.016,185.85 150.911,187.492 151.51,189.024 152.446,191.813 150.08,193.745 147.534,192.27 146.152,191.377 144.523,191.152 143.246,191.485 142.16,192.234 141.396,193.31 141.029,194.914 141.374,196.522 141.85,199.426 139.205,200.953 136.928,199.089 135.708,197.986 134.136,197.502 132.822,197.625 131.63,198.191 130.703,199.13 130.084,200.654 130.166,202.297 130.17,205.24 127.315,206.323 125.366,204.118 124.339,202.833 122.865,202.103 121.548,202.015 120.281,202.382 119.215,203.16 118.359,204.565 118.177,206.2 117.709,209.105 114.717,209.716 113.148,207.227 112.34,205.794 111.002,204.837 109.716,204.539 108.406,204.697 107.229,205.295 106.159,206.545 105.718,208.129 104.79,210.921 101.738,211.044 100.588,208.336 100.02,206.792 98.8534,205.633 97.6324,205.132 96.3138,205.079 95.0565,205.48 93.7999,206.541 93.1098,208.034 91.7459,210.641 88.7139,210.273 88.0137,207.416 87.7009,205.801 86.7349,204.469 85.6101,203.779 84.317,203.515 83.0117,203.709 81.6011,204.555 80.6804,205.918 78.916,208.273 75.9823,207.423 75.7495,204.49 75.6998,202.846 74.9599,201.377 73.9604,200.515 72.7265,200.047 71.4069,200.029 69.8788,200.638 68.7513,201.836 66.6321,203.877 63.8727,202.568 64.1135,199.636 64.3282,198.005 63.8335,196.436 62.9852,195.425 61.8423,194.765 60.5426,194.536 58.9367,194.892 57.6317,195.893 55.2125,197.568 52.6989,195.833 53.4068,192.977 53.8804,191.402 53.6438,189.774 52.9686,188.64 51.9464,187.805 50.7003,187.371 49.058,187.464 47.6093,188.243 44.9528,189.508 42.75,187.393 43.907,184.687 44.6271,183.208 44.6547,181.564 44.1702,180.336 43.295,179.348 42.1348,178.719 40.4987,178.548 38.9438,179.085 36.1188,179.908 34.284,177.466 35.8599,174.981 36.8079,173.637 37.0989,172.018 36.8176,170.728 36.1123,169.613 35.068,168.806 33.4805,168.375 31.8596,168.655 28.9393,169.014 27.5199,166.309 29.4739,164.11 30.6253,162.935 31.1723,161.384 31.1015,160.066 30.5842,158.852 29.6829,157.888 28.1851,157.208 26.5403,157.224 23.6003,157.11 22.6331,154.213 24.9146,152.355 26.2396,151.38 27.0283,149.936 27.1698,148.624 26.854,147.343 26.1189,146.247 24.7497,145.335 23.1235,145.088 20.2399,144.503 19.75,141.488 22.3,140.021 23.7641,139.271 24.7742,137.973 25.1244,136.7 25.0182,135.385 24.4685,134.185 23.2632,133.065 21.6977,132.56 18.9453,131.521 18.9453,128.467 21.6977,127.427 23.2632,126.922 24.4685,125.802 25.0182,124.603 25.1244,123.287 24.7742,122.015 23.7641,120.716 22.3,119.967 19.75,118.499 20.2399,115.484 23.1235,114.9 24.7497,114.652 26.1189,113.74 26.854,112.644 27.1698,111.363 27.0283,110.051 26.2396,108.607 24.9146,107.632 22.6331,105.775 23.6003,102.878 26.5403,102.763 28.1851,102.78 29.6829,102.1 30.5842,101.136 31.1015,99.9214 31.1723,98.6036 30.6253,97.0523 29.4739,95.8775 27.5199,93.6778 28.9393,90.9734 31.8596,91.332 33.4805,91.6122 35.068,91.1811 36.1123,90.3742 36.8176,89.2588 37.0989,87.9694 36.8079,86.3504 35.8599,85.0061 34.284,82.5215 36.1188,80.0797 38.9438,80.9021 40.4987,81.4387 42.1348,81.2679 43.295,80.6389 44.1702,79.6511 44.6547,78.4235 44.6271,76.7788 43.907,75.2999 42.75,72.5946 44.9528,70.4789 47.6093,71.7437 49.058,72.5228 50.7003,72.6166 51.9464,72.1819 52.9686,71.3473 53.6438,70.2133 53.8804,68.5855 53.4068,67.0102 52.6989,64.1544 55.2125,62.4194 57.6317,64.094 58.9367,65.0954 60.5426,65.4514 61.8423,65.2222 62.9852,64.5624 63.8335,63.5514 64.3282,61.9826 64.1135,60.3517 63.8727,57.4194 66.6321,56.11 68.7513,58.151 69.8788,59.3488 71.4069,59.9578 72.7265,59.9401 73.9604,59.4721 74.9599,58.6103 75.6998,57.1412 75.7495,55.497 75.9823,52.564 78.916,51.7142 80.6804,54.0687 81.6011,55.4318 83.0117,56.2781 84.317,56.4723 85.6101,56.2083 86.7349,55.518 87.7009,54.1866 88.0137,52.5716 88.7139,49.7139 91.7459,49.3458 93.1098,51.9529 93.7999,53.446 95.0565,54.5076 96.3138,54.9086 97.6324,54.8555 98.8534,54.3546 100.02,53.1953 100.588,51.6515 101.738,48.9431 104.79,49.0661 105.718,51.8582 106.159,53.4427 107.229,54.6921 108.406,55.2897 109.716,55.4487 111.002,55.1501 112.34,54.1931 113.148,52.7603 114.717,50.2715 117.709,50.8824 118.177,53.7872 118.359,55.4221 119.215,56.8269 120.281,57.6055 121.548,57.9726 122.865,57.8841 124.339,57.1541 125.366,55.8695 127.315,53.6646 130.17,54.7477 130.166,57.6899 130.084,59.3328 130.703,60.8567 131.63,61.7961 132.822,62.3619 134.136,62.4857 135.708,62.0016 136.928,60.8985 139.205,59.0346 141.85,60.5617 141.374,63.4652 141.029,65.0735 141.396,66.6771 142.16,67.753 143.246,68.5027 144.523,68.8357 146.152,68.6101 147.534,67.7169 150.08,66.2424 152.446,68.1741 151.51,70.9636 150.911,72.4957 151.016,74.1373 151.598,75.3219 152.55,76.2361 153.757,76.7697 155.401,76.8083 156.908,76.1483 159.658,75.1013 161.683,77.3875 160.312,79.9908 159.475,81.4071 159.315,83.0442 159.7,84.3068 160.493,85.3618 161.598,86.0821 163.215,86.384 164.809,85.9743 167.69,85.3819 169.323,87.9634 167.552,90.3131 166.499,91.5768 166.079,93.1671 166.255,94.4749 166.869,95.6435 167.845,96.5318 169.392,97.0892 171.03,96.9404 173.97,96.8179 175.167,99.6278 173.043,101.663 171.8,102.741 171.13,104.244 171.095,105.563 171.513,106.815 172.334,107.848 173.772,108.647 175.413,108.763 178.334,109.113 179.065,112.079 176.641,113.747 175.242,114.612 174.34,115.987 174.093,117.284 174.305,118.586 174.949,119.738 176.241,120.757 177.842,121.134 180.669,121.949 180.915,124.994 178.255,126.251 176.735,126.881 175.624,128.094 175.173,129.334 "/>
  <polygon class="fil2 str0" points="163.194,131.099 203.448,130.654 203.899,131.894 205.01,133.106 206.53,133.736 209.19,134.994 209.015,137.943 206.225,138.877 204.642,139.323 203.394,140.395 202.8,141.574 202.644,142.884 202.945,144.169 203.905,145.504 205.34,146.309 207.832,147.873 207.31,150.781 204.429,151.379 202.804,151.633 201.439,152.551 200.709,153.651 200.399,154.933 200.546,156.245 201.341,157.685 202.671,158.654 204.961,160.501 204.098,163.327 201.166,163.58 199.523,163.64 198.059,164.39 197.204,165.396 196.744,166.633 196.735,167.952 197.355,169.476 198.56,170.596 200.616,172.701 199.425,175.405 196.484,175.309 194.845,175.175 193.302,175.747 192.334,176.644 191.732,177.818 191.567,179.127 192.002,180.714 193.066,181.968 194.858,184.301 193.356,186.845 190.447,186.402 188.835,186.076 187.236,186.461 186.169,187.237 185.432,188.332 185.113,189.612 185.357,191.239 186.266,192.61 187.769,195.139 185.977,197.488 183.141,196.704 181.579,196.189 179.945,196.382 178.794,197.027 177.932,198.026 177.464,199.261 177.514,200.905 178.255,202.374 179.449,205.063 177.391,207.183 174.667,206.069 173.177,205.373 171.532,205.371 170.312,205.875 169.339,206.766 168.728,207.936 168.584,209.575 169.145,211.121 170.012,213.933 167.718,215.794 165.145,214.366 163.748,213.499 162.115,213.303 160.844,213.659 159.772,214.428 159.027,215.518 158.69,217.128 159.064,218.73 159.593,221.624 157.095,223.201 154.709,221.479 153.424,220.452 151.826,220.064 150.522,220.268 149.366,220.905 148.498,221.899 147.972,223.458 148.155,225.093 148.337,228.029 145.67,229.3 143.505,227.308 142.35,226.136 140.809,225.562 139.49,225.61 138.267,226.106 137.287,226.99 136.581,228.476 136.569,230.12 136.403,233.058 133.604,234.004 131.69,231.77 130.682,230.47 129.219,229.718 127.904,229.609 126.631,229.957 125.554,230.719 124.677,232.111 124.47,233.743 123.958,236.64 121.067,237.249 119.43,234.804 118.583,233.394 117.22,232.473 115.926,232.21 114.621,232.405 113.461,233.035 112.426,234.313 112.028,235.909 111.176,238.725 108.233,238.987 106.898,236.366 106.223,234.866 104.978,233.791 103.725,233.376 102.406,233.415 101.18,233.903 100,235.05 99.4162,236.588 98.2379,239.284 95.2846,239.196 94.2681,236.435 93.776,234.866 92.6667,233.651 91.4715,233.091 90.157,232.974 88.8817,233.314 87.575,234.313 86.8131,235.771 85.3241,238.308 82.402,237.872 81.7191,235.01 81.4161,233.393 80.4583,232.056 79.3377,231.359 78.0463,231.087 76.7398,231.273 75.3241,232.111 74.3951,233.469 72.6164,235.812 69.7664,235.034 69.4268,232.111 69.3172,230.47 68.5242,229.028 67.4939,228.204 66.2437,227.781 64.9243,227.811 63.4195,228.476 62.3365,229.714 60.2931,231.831 57.5552,230.72 57.5636,227.778 57.6489,226.135 57.0319,224.611 56.1065,223.67 54.915,223.102 53.6013,222.976 52.0285,223.458 50.8066,224.559 48.5272,226.42 45.9398,224.993 46.2962,222.073 46.5752,220.452 46.1429,218.865 45.3352,217.821 44.2192,217.116 42.9296,216.836 41.3109,217.128 39.9673,218.077 37.4839,219.655 35.0834,217.933 35.7826,215.075 36.2514,213.498 36.0099,211.871 35.3313,210.739 34.3065,209.907 33.0591,209.476 31.4171,209.575 29.9707,210.359 27.3181,211.632 25.1382,209.637 26.1706,206.882 26.8225,205.372 26.7751,203.728 26.2352,202.524 25.3159,201.577 24.1282,201.001 22.4861,200.905 20.9572,201.512 18.1727,202.462 16.2439,200.224 17.5949,197.611 18.4209,196.188 18.5683,194.55 18.1746,193.29 17.3737,192.241 16.2625,191.529 14.6432,191.24 13.0533,191.661 10.1759,192.276 8.5253,189.825 10.176,187.39 11.1644,186.075 11.5046,184.466 11.2626,183.168 10.5915,182.032 9.5722,181.194 7.9986,180.714 6.3699,180.945 3.44,181.215 2.0909,178.586 4.0181,176.363 5.1551,175.174 5.6832,173.617 5.5963,172.3 5.0643,171.092 4.1513,170.139 2.6454,169.477 1.0009,169.514 -1.9403,169.435 -2.9691,166.665 -0.7925,164.685 0.4771,163.64 1.1857,162.155 1.2553,160.837 0.8698,159.575 0.0759,158.521 -1.3411,157.685 -2.9784,157.527 -5.8897,157.101 -6.5836,154.229 -4.1882,152.521 -2.8038,151.633 -1.9245,150.242 -1.6996,148.942 -1.9331,147.643 -2.5967,146.502 -3.905,145.505 -5.5121,145.154 -8.3525,144.387 -8.702,141.453 -6.1213,140.04 -4.6415,139.322 -3.604,138.045 -3.2269,136.781 -3.3051,135.463 -3.8291,134.252 -5.0103,133.107 -6.5647,132.569 -9.2944,131.471 -9.2944,128.516 -6.5647,127.418 -5.0103,126.88 -3.8291,125.735 -3.3051,124.524 -3.2269,123.207 -3.604,121.942 -4.6415,120.665 -6.1213,119.947 -8.702,118.534 -8.3525,115.6 -5.5121,114.833 -3.905,114.482 -2.5967,113.485 -1.9331,112.344 -1.6996,111.045 -1.9245,109.745 -2.8038,108.355 -4.1882,107.466 -6.5836,105.758 -5.8897,102.886 -2.9784,102.46 -1.3411,102.302 0.0759,101.466 0.8698,100.412 1.2553,99.1499 1.1857,97.832 0.4771,96.3475 -0.7925,95.3017 -2.9691,93.3219 -1.9403,90.5523 1.0009,90.4735 2.6454,90.5101 4.1513,89.8482 5.0643,88.8953 5.5963,87.6875 5.6832,86.3707 5.1551,84.8128 4.0181,83.6241 2.0909,81.4008 3.44,78.7723 6.3699,79.042 7.9986,79.2728 9.5722,78.7937 10.5915,77.9554 11.2626,76.8191 11.5046,75.5217 11.1644,73.9123 10.176,72.5975 8.5253,70.1619 10.1759,67.7114 13.0533,68.3257 14.6432,68.7475 16.2625,68.4579 17.3737,67.746 18.1746,66.697 18.5683,65.4374 18.4209,63.7991 17.5949,62.3766 16.2439,59.7628 18.1727,57.5248 20.9572,58.4751 22.4861,59.082 24.1282,58.9859 25.3159,58.4105 26.2352,57.4636 26.7751,56.2593 26.8225,54.6151 26.1706,53.1049 25.1382,50.3497 27.3181,48.3554 29.9707,49.6284 31.4171,50.4119 33.0591,50.5107 34.3065,50.0798 35.3313,49.2482 36.0099,48.1163 36.2514,46.4892 35.7826,44.9125 35.0834,42.0546 37.4839,40.3321 39.9673,41.9099 41.3109,42.8589 42.9296,43.1512 44.2192,42.8709 45.3352,42.1664 46.1429,41.1227 46.5752,39.5356 46.2962,37.9145 45.9398,34.9939 48.5272,33.5675 50.8066,35.4279 52.0285,36.5292 53.6013,37.0109 54.915,36.885 56.1065,36.3175 57.0319,35.3766 57.6489,33.8518 57.5636,32.209 57.5552,29.2668 60.2931,28.1564 62.3365,30.2734 63.4195,31.5114 64.9243,32.1758 66.2437,32.2062 67.4939,31.7836 68.5242,30.9588 69.3172,29.5176 69.4268,27.8763 69.7664,24.9537 72.6164,24.175 74.3951,26.5187 75.3241,27.8762 76.7398,28.7139 78.0463,28.9001 79.3377,28.6283 80.4583,27.9311 81.4161,26.5939 81.7191,24.9771 82.402,22.1152 85.3241,21.6789 86.8131,24.2166 87.575,25.6744 88.8817,26.6737 90.157,27.0131 91.4715,26.896 92.6667,26.3363 93.776,25.1216 94.2681,23.552 95.2846,20.791 98.2379,20.7034 99.4162,23.3994 100,24.9371 101.18,26.0839 102.406,26.5718 103.725,26.6109 104.978,26.1965 106.223,25.1216 106.898,23.6212 108.233,20.9998 111.176,21.2621 112.028,24.0785 112.426,25.6745 113.461,26.9527 114.621,27.5823 115.926,27.7771 117.22,27.5138 118.583,26.5937 119.43,25.1836 121.067,22.7386 123.958,23.3472 124.47,26.2445 124.677,27.8764 125.554,29.2681 126.631,30.0304 127.904,30.3782 129.219,30.2697 130.682,29.5174 131.69,28.2173 133.604,25.983 136.403,26.9293 136.569,29.8668 136.581,31.5117 137.287,32.9974 138.267,33.8817 139.49,34.3777 140.809,34.4255 142.35,33.8515 143.505,32.6797 145.67,30.6875 148.337,31.9582 148.155,34.8947 147.972,36.5295 148.498,38.0883 149.366,39.0823 150.522,39.7194 151.826,39.9229 153.424,39.5352 154.709,38.5082 157.095,36.7861 159.593,38.3633 159.064,41.2576 158.69,42.8594 159.027,44.4693 159.772,45.559 160.844,46.3284 162.115,46.6846 163.748,46.4887 165.145,45.621 167.718,44.1931 170.012,46.0547 169.145,48.8662 168.584,50.4124 168.728,52.051 169.339,53.2211 170.312,54.1119 171.532,54.6159 173.177,54.6145 174.667,53.9181 177.391,52.8045 179.449,54.9244 178.255,57.6136 177.514,59.0825 177.464,60.7267 177.932,61.9608 178.794,62.9605 179.945,63.6053 181.579,63.7985 183.141,63.2832 185.977,62.4995 187.769,64.848 186.266,67.3771 185.357,68.7481 185.113,70.3749 185.432,71.6556 186.169,72.7502 187.236,73.5266 188.835,73.9117 190.447,73.5848 193.356,73.142 194.858,75.686 193.066,78.0195 192.002,79.2735 191.567,80.8599 191.732,82.1693 192.334,83.3434 193.302,84.2406 194.845,84.8121 196.484,84.6782 199.425,84.5826 200.616,87.2864 198.56,89.3916 197.355,90.5108 196.735,92.0347 196.744,93.3544 197.204,94.5915 198.059,95.5969 199.523,96.3468 201.166,96.4077 204.098,96.6606 204.961,99.4863 202.671,101.334 201.341,102.302 200.546,103.742 200.399,105.054 200.709,106.337 201.439,107.436 202.804,108.354 204.429,108.609 207.31,109.207 207.832,112.115 205.34,113.678 203.905,114.483 202.945,115.819 202.644,117.103 202.8,118.414 203.394,119.592 204.642,120.665 206.225,121.11 209.015,122.044 209.19,124.994 206.53,126.251 205.01,126.881 203.899,128.094 203.448,129.334 163.193,128.888 160.089,122.239 167.52,121.356 171.21,120.13 175.871,116.864 179.428,113.454 181.858,109.81 184.1,103.56 184.456,100.471 184.255,97.0082 183.899,93.477 182.315,88.5608 180.085,84.4106 176.801,79.0833 174.543,75.8347 172.151,72.6838 168.099,67.9145 164.842,64.5112 160.656,61.4849 157.407,60.0555 154.176,58.794 151.129,58.1779 144.491,58.3786 140.275,59.5645 135.932,61.8929 131.386,65.3166 129.08,68.4471 125.944,75.242 111.193,70.4494 112.65,63.1088 112.625,59.2208 110.959,53.7785 108.814,49.3423 106.1,45.9047 100.848,41.8408 98.0208,40.5481 94.6652,39.6694 91.197,38.9164 86.0317,38.9043 81.3956,39.7427 75.3143,41.2196 71.527,42.3627 67.7912,43.664 62.0032,46.0436 57.7597,48.0905 53.588,51.1362 51.2247,53.784 49.0266,56.4673 47.4988,59.175 45.6386,65.5499 45.4635,69.9261 46.3362,74.7757 48.1872,80.1578 50.4519,83.3182 55.945,88.4007 46.829,100.948 40.2979,97.2941 36.5923,96.1168 30.9016,96.0195 26.0197,96.6882 21.9118,98.207 16.4238,101.946 14.3207,104.236 12.448,107.156 10.6601,110.221 9.0525,115.13 8.4172,119.798 7.9426,126.039 7.8594,129.994 7.9426,133.949 8.4172,140.189 9.0525,144.857 10.6601,149.766 12.448,152.832 14.3207,155.751 16.4238,158.041 21.9118,161.78 26.0197,163.299 30.9016,163.968 36.5923,163.87 40.2979,162.693 46.829,159.039 55.9451,171.587 50.452,176.669 48.1872,179.829 46.3361,185.212 45.4635,190.061 45.6386,194.437 47.4989,200.812 49.0265,203.52 51.2247,206.203 53.588,208.851 57.7596,211.897 62.0031,213.944 67.7912,216.323 71.527,217.625 75.3142,218.768 81.3956,220.245 86.0317,221.083 91.1969,221.071 94.6652,220.318 98.0208,219.439 100.848,218.146 106.1,214.083 108.814,210.645 110.959,206.209 112.625,200.766 112.65,196.878 111.194,189.538 125.944,184.745 129.08,191.54 131.386,194.671 135.932,198.094 140.275,200.423 144.491,201.609 151.129,201.809 154.176,201.193 157.407,199.932 160.656,198.502 164.842,195.476 168.099,192.073 172.151,187.303 174.543,184.153 176.801,180.904 180.085,175.577 182.315,171.426 183.899,166.51 184.255,162.979 184.456,159.516 184.1,156.428 181.858,150.177 179.428,146.534 175.871,143.123 171.21,139.857 167.52,138.631 160.089,137.748 "/>
  <polyline class="fil0 str0" points="201.309,133.429 200.066,147.638 195.482,164.746 187.996,180.799 177.837,195.307 165.313,207.831 150.805,217.99 134.752,225.476 117.644,230.06 99.9998,231.603 82.3555,230.06 65.2473,225.475 49.195,217.99 34.6864,207.831 22.1624,195.307 12.0034,180.798 4.5181,164.746 -0.066,147.638 -1.6096,129.993 -0.0659,112.349 4.5183,95.2409 12.0036,79.1886 22.1627,64.6801 34.6868,52.156 49.1954,41.997 65.2477,34.5117 82.3559,29.9276 100,28.384 117.644,29.9277 134.753,34.5119 150.805,41.9972 165.314,52.1563 177.838,64.6804 187.997,79.189 195.482,95.2413 200.066,112.35 201.291,126.348  "/>
  <polygon class="fil3 str0" points="118.545,187.068 111.194,189.538 107.462,177.472 103.329,167.621 98.3326,157.418 95.184,154.428 92.451,153.228 89.5343,152.593 85.2297,153.161 75.1901,158.478 66.0562,164.018 55.9453,171.587 51.4494,165.268 46.829,159.039 57.1512,151.762 65.2425,144.787 73.4025,136.882 75.2729,132.964 75.57,129.994 75.2729,127.023 73.4025,123.105 65.2425,115.2 57.1512,108.225 46.829,100.948 51.4492,94.7194 55.9449,88.4004 66.0558,95.9686 75.1897,101.509 85.2294,106.826 89.534,107.394 92.4506,106.759 95.1836,105.559 98.3322,102.569 103.329,92.3655 107.462,82.5149 111.193,70.4491 118.545,72.9185 125.944,75.2415 121.87,87.1962 119.424,97.595 119.424,97.595 121.028,105.19 126.443,108.498 140.961,111.468 163.418,113.697 217.969,115.109 248.855,114.573 260.104,114.082 270.668,113.165 275,112.972 277.512,113.139 280.272,113.804 283.129,115.036 286.135,117.12 288.798,120.025 290.001,121.944 291.524,125.891 292.022,129.994 291.524,134.097 290.001,138.043 288.798,139.962 286.135,142.867 283.129,144.952 280.272,146.183 277.512,146.848 275,147.015 270.668,146.822 260.104,145.906 248.855,145.414 217.969,144.878 163.418,146.29 140.961,148.519 126.443,151.489 121.028,154.797 119.424,162.392 121.87,172.79 125.944,184.745 "/>
  <circle class="fil2 str0" cx="120.859" cy="194.19" r="6.2896"/>
  <circle class="fil2 str0" cx="120.859" cy="194.19" r="2.6207"/>
  <circle class="fil2 str0" cx="45.3915" cy="169.669" r="6.2896"/>
  <circle class="fil2 str0" cx="45.3915" cy="169.669" r="2.6207"/>
  <circle class="fil2 str0" cx="275" cy="129.994" r="7.5"/>
  <circle class="fil2 str0" cx="120.858" cy="65.7969" r="6.2896"/>
  <circle class="fil2 str0" cx="120.858" cy="65.7969" r="2.6207"/>
  <circle class="fil2 str0" cx="45.3912" cy="90.318" r="6.2896"/>
  <circle class="fil2 str0" cx="45.3912" cy="90.318" r="2.6207"/>
  <circle class="fil4 str1" cx="100" cy="130" r="10"/>
  <circle id="center_00" class="fil4 str1" cx="100" cy="130" r="10"/>
  </g>
</svg>
