<?xml version="1.0" encoding="UTF-8" standalone="no"?>
<!-- Creator: CorelDRAW -->
<svg
   xmlns:dc="http://purl.org/dc/elements/1.1/"
   xmlns:cc="http://creativecommons.org/ns#"
   xmlns:rdf="http://www.w3.org/1999/02/22-rdf-syntax-ns#"
   xmlns:svg="http://www.w3.org/2000/svg"
   xmlns="http://www.w3.org/2000/svg"
   xmlns:sodipodi="http://sodipodi.sourceforge.net/DTD/sodipodi-0.dtd"
   xmlns:inkscape="http://www.inkscape.org/namespaces/inkscape"
   xml:space="preserve"
   width="297mm"
   height="210mm"
   style="shape-rendering:geometricPrecision; text-rendering:geometricPrecision; image-rendering:optimizeQuality; fill-rule:evenodd; clip-rule:evenodd"
   viewBox="0 0 297 210"
   id="svg2"
   sodipodi:version="0.32"
   inkscape:version="0.46"
   sodipodi:docname="right_bottleCage.svg"
   inkscape:output_extension="org.inkscape.output.svg.inkscape"><metadata
   id="metadata24"><rdf:RDF><cc:Work
       rdf:about=""><dc:format>image/svg+xml</dc:format><dc:type
         rdf:resource="http://purl.org/dc/dcmitype/StillImage" /></cc:Work></rdf:RDF></metadata><sodipodi:namedview
   inkscape:window-height="480"
   inkscape:window-width="640"
   inkscape:pageshadow="2"
   inkscape:pageopacity="0.0"
   guidetolerance="10.0"
   gridtolerance="10.0"
   objecttolerance="10.0"
   borderopacity="1.0"
   bordercolor="#666666"
   pagecolor="#ffffff"
   id="base"
   showgrid="false"
   inkscape:zoom="0.57774786"
   inkscape:cx="646.73116"
   inkscape:cy="537.05416"
   inkscape:current-layer="svg2" />
 <defs
   id="defs4"><inkscape:perspective
   sodipodi:type="inkscape:persp3d"
   inkscape:vp_x="0 : 372.04724 : 1"
   inkscape:vp_y="0 : 1000 : 0"
   inkscape:vp_z="1052.3622 : 372.04724 : 1"
   inkscape:persp3d-origin="526.18109 : 248.03149 : 1"
   id="perspective26" />
  <style
   type="text/css"
   id="style6">
   
    .str0 {stroke:#DA251D;stroke-width:0.0762}
    .fil0 {fill:none}
    .fil1 {fill:#DEDEDD}
   
  </style>
 
  <metadata
   id="CorelCorpID_0Corel-Layer" />
  
  
  
  
  
  
  
 </defs>
 <g>
 <polygon
   style="fill:#dededd;stroke:#da251d;stroke-width:0.0762"
   id="polygon12"
   points="106.165,154.895 106.165,156.189 107.149,156.386 107.906,156.503 108.854,156.62 109.768,156.689 110.772,156.71 111.775,156.689 112.69,156.62 113.636,156.503 114.393,156.386 115.378,156.189 115.378,154.895 106.165,154.895 "
   class="fil1 str0" /><circle
   style="fill:#dededd;stroke:#da251d;stroke-width:0.0762"
   sodipodi:ry="2.5925"
   sodipodi:rx="2.5925"
   sodipodi:cy="156.189"
   sodipodi:cx="46.7715"
   r="2.5925"
   cy="156.189"
   cx="46.7715"
   class="fil1 str0"
   id="center_00" /><polygon
   style="fill:#dededd;stroke:#da251d;stroke-width:0.0762"
   id="polygon15"
   points="42.1645,154.895 42.1645,156.189 43.1495,156.386 43.9065,156.503 44.8535,156.62 45.7675,156.689 46.7715,156.71 47.7755,156.689 48.6895,156.62 49.6355,156.503 50.3935,156.386 51.3775,156.189 51.3775,154.895 42.1645,154.895 "
   class="fil1 str0" /><rect
   style="fill:#dededd;stroke:#da251d;stroke-width:0.0762"
   id="rect17"
   height="8.0004997"
   width="18"
   y="146.895"
   x="101.772"
   class="fil1 str0" /><rect
   style="fill:#dededd;stroke:#da251d;stroke-width:0.0762"
   id="rect19"
   height="8.0004997"
   width="18"
   y="146.895"
   x="37.7715"
   class="fil1 str0" /><polygon
   style="fill:#dededd;stroke:#da251d;stroke-width:0.0762"
   id="polygon21"
   points="109.81,65.2956 112.119,89.2746 112.209,90.8314 112.201,91.0498 112.165,91.2728 112.069,91.5418 111.881,91.8328 111.683,92.0298 111.423,92.1968 111.137,92.3018 110.862,92.3418 109.986,92.3318 24.2905,84.1765 23.4515,84.1616 22.3785,84.3297 21.5495,84.6206 20.9995,84.9074 20.3975,85.3317 19.8225,85.8927 19.5795,86.1993 19.2875,86.6849 19.2745,86.6842 19.2355,86.7698 19.1945,86.838 19.1995,86.8506 19.0095,87.2769 18.8325,87.9483 18.7715,88.6525 18.7715,90.8571 18.7715,143.895 18.8225,143.895 18.8055,144.35 19.0195,145.091 19.3385,145.65 19.9705,146.295 20.5285,146.626 21.3665,146.868 21.7715,146.895 154.155,146.895 154.809,146.868 155.342,146.808 156.013,146.63 156.548,146.378 167.34,141.582 167.933,141.233 168.485,140.69 168.914,139.943 169.123,138.84 169.025,138.081 168.78,137.447 168.287,136.764 167.385,136.118 166.515,135.866 165.674,135.874 164.905,136.099 154.112,140.895 154.111,140.895 25.6955,140.895 25.3535,140.795 25.1245,140.649 24.9605,140.472 24.8835,140.346 24.8285,140.22 24.7715,139.843 24.7715,93.4398 24.7715,91.8808 24.8365,91.4798 25.0155,91.0998 25.2305,90.8395 25.5245,90.6185 25.9605,90.4516 26.3675,90.4079 111.546,98.5066 112.991,98.6446 113.102,98.6116 113.093,98.6506 114.047,98.6416 114.75,98.5166 115.548,98.2406 116.351,97.7926 117.089,97.1726 117.594,96.5716 118.013,95.8686 118.281,95.2096 118.501,94.1426 118.524,93.1788 118.414,92.0378 115.762,64.5021 115.356,63.3423 114.719,62.5986 113.953,62.13 112.787,61.8951 111.477,62.1955 110.546,62.9008 109.953,63.9119 109.81,65.2956 "
   class="fil1 str0" />
   </g>
</svg>