<svg version="1.0" xmlns="http://www.w3.org/2000/svg">
    <polygon points="55.2756,118.076 55.1665,116.93119999999999 55.1746,115.66919999999999 55.3559,114.9532 56.053599999999996,114.72909999999999 86.66969999999999,114.72909999999999 87.67725273437499,114.62750039062499 88.61574687499999,114.33611562499999 89.46506132812499,113.87506679687499 90.205075,113.26447499999998 90.81566679687499,112.52446132812499 91.276715625,111.67514687499998 91.56810039062498,110.73665273437499 91.66969999999999,109.72909999999999 91.66969999999999,109.72909999999999 91.56810039062498,108.72154726562499 91.276715625,107.783053125 90.81566679687499,106.93373867187499 90.205075,106.193725 89.46506132812499,105.58313320312499 88.61574687499999,105.12208437499999 87.67725273437499,104.83069960937499 86.66969999999999,104.72909999999999 56.0333,104.72909999999999 55.352199999999996,104.2811 55.095,103.4692 55.1019,102.2668 55.4957,101.0076 56.0516,99.8656 57.8855,97.3556 59.826100000000004,94.9879 61.691100000000006,93.0663 63.237500000000004,91.5855 64.897,90.1238 66.91260000000001,88.70920000000001 68.61440000000002,87.1911 70.27420000000002,85.24600000000001 71.40610000000002,83.31540000000001 72.14690000000002,81.64000000000001 77.92690000000002,63.88770000000001 78.30680000000002,63.39330000000001 78.88360000000003,63.01170000000001 79.53270000000003,62.880800000000015 80.20180000000003,63.00740000000002 93.44000000000004,67.30300000000003 94.08750000000003,67.73770000000003 94.44570000000003,68.32950000000004 94.61510000000003,69.06630000000004 94.61140000000003,69.90820000000004 91.40570000000002,85.09150000000004 91.33490000000002,86.37930000000004 91.60940000000002,87.31450000000004 92.18970000000002,88.03190000000004 92.79790000000001,88.60300000000004 93.30830000000002,88.89970000000004 95.77350000000001,89.91310000000004 98.67440000000002,91.43140000000004 102.14940000000001,93.73900000000003 104.92870000000002,96.10060000000003 107.24900000000002,98.25740000000003 109.17500000000003,100.00710000000004 110.80660000000003,101.00380000000004 112.32510000000003,101.66460000000004 115.36160000000004,102.52080000000004 117.99310000000004,102.90880000000004 125.21140000000004,103.30590000000004 126.78560000000004,103.48860000000003 127.82690000000005,104.18480000000004 128.29940000000005,105.20680000000004 128.39750000000004,106.34070000000004 128.28560000000004,121.75830000000005 128.29310000000004,123.04370000000004 127.75680000000004,124.05540000000005 126.84890000000004,124.56530000000005 125.61970000000004,124.58470000000005 109.73810000000003,124.58410000000005 108.66000000000003,124.62490000000005 107.74880000000003,124.90500000000006 106.43700000000003,125.60480000000005 105.53820000000003,125.93060000000006 104.46930000000003,126.08640000000005 66.28570000000003,126.08640000000005 64.15260000000004,125.66910000000006 61.88070000000003,124.88960000000006 59.160500000000035,123.51410000000006 57.37810000000003,121.77190000000006 56.15950000000003,120.03750000000007 55.27560000000003,118.07600000000006" fill="none" stroke="black" stroke-width="0.1"/>
    <circle cx="71.1863" cy="109.729" r="5" fill="none" stroke="black" stroke-width="0.1"/>
    <line x1="71.1863" y1="121.278" x2="71.1863" y2="98.1797" fill="none" stroke="black" stroke-width="0.1"/>
    <line x1="113.207" y1="109.729" x2="45.9052" y2="109.729" fill="none" stroke="black" stroke-width="0.1"/>
    <circle id="center_00" cx="71.1863" cy="109.729" r="5" fill="none" stroke="black" stroke-width="0.1"/>
</svg>
