<!DOCTYPE svg PUBLIC "-//W3C//DTD SVG 1.1//EN" "http://www.w3.org/Graphics/SVG/1.1/DTD/svg11.dtd">
<svg xmlns="http://www.w3.org/2000/svg" width="297mm" height="210mm" viewBox="0 0 297 210">
    <defs id="_tag_231_"/>
    <g id="_tag_232_">
        <polygon class="fil0 str0" id="simplify_217_1" points="217.7,98.8872 221.25184492187498,101.73037265625001 224.57552812499998,104.8303875 227.65608476562497,108.17235234375 230.47854999999998,111.741375 233.02795898437498,115.52256328125002 235.28934687499998,119.50102500000003 237.247748828125,123.66186796875002 238.88819999999998,127.99020000000002 239.14479999999998,130.26430000000002 238.70089999999996,132.21540000000002 237.89609999999996,134.01080000000002 235.51349999999996,136.2048 232.71649999999997,137.6574 228.74389999999997,138.4955 225.94539999999998,143.7245 253.22519999999997,143.7245 254.35209999999998,143.2577 257.012,142.0 256.743,138.9251 253.9051,138.14829999999998 252.2992,137.79229999999998 250.9941,136.7909 250.3343,135.648 250.10510000000002,134.3483 250.3343,133.0487 251.21810000000002,131.66129999999998 252.60540000000003,130.77749999999997 255.00650000000005,129.07699999999997 254.20760000000004,126.09549999999997 251.27800000000005,125.82329999999997 249.63460000000003,125.75159999999997 248.17550000000003,124.99199999999996 247.32720000000003,123.98109999999996 246.87580000000003,122.74089999999995 246.87580000000003,121.42119999999996 247.50530000000003,119.90149999999996 248.71810000000002,118.79019999999996 250.78740000000002,116.69859999999996 249.48290000000003,113.90109999999996 246.55050000000003,114.14179999999996 244.91970000000003,114.35649999999995 243.35080000000002,113.86189999999995 242.33990000000003,113.01359999999995 241.68000000000004,111.87059999999995 241.45080000000004,110.57099999999996 241.80690000000004,108.96499999999996 242.80830000000003,107.65999999999995 244.48290000000003,105.24079999999995 242.71250000000003,102.71239999999995 239.86640000000003,103.45859999999995 238.29760000000002,103.95329999999994 236.66680000000002,103.73859999999995 235.52380000000002,103.07869999999996 234.67550000000003,102.06769999999996 234.22420000000002,100.82759999999996 234.29590000000002,99.18419999999996 235.05550000000002,97.72509999999996 236.2846,95.05189999999996 234.102,92.86929999999997 231.4288,94.09839999999997 229.9697,94.85799999999998 228.32629999999997,94.92969999999998 227.08619999999996,94.47839999999998 226.07519999999997,93.63009999999998 225.41529999999997,92.48709999999998 225.20059999999998,90.85629999999999 225.69529999999997,89.2875 226.44149999999996,86.44139999999999 223.91309999999996,84.67099999999999 221.49389999999997,86.34559999999999 220.18889999999996,87.347 218.58289999999997,87.70309999999999 217.28329999999997,87.47389999999999 216.14029999999997,86.814 215.29199999999997,85.80309999999999 214.79739999999998,84.23419999999999 215.01209999999998,82.6034 215.25279999999998,79.67099999999999 212.45529999999997,78.36649999999999 210.36369999999997,80.43579999999999 209.25239999999997,81.64859999999999 207.73269999999997,82.27809999999998 206.41299999999995,82.27809999999998 205.17279999999997,81.82669999999997 204.16189999999997,80.97839999999998 203.40229999999997,79.51929999999997 203.33059999999998,77.87589999999997 203.05839999999998,74.94629999999998 200.07689999999997,74.14739999999998 198.37639999999996,76.54849999999998 197.49259999999995,77.93579999999997 196.10519999999994,78.81959999999997 194.80559999999994,79.04879999999997 193.50589999999994,78.81959999999997 192.36299999999994,78.15979999999996 191.36159999999995,76.85469999999997 191.00559999999996,75.24879999999996 190.22879999999995,72.41089999999996 187.15389999999994,72.14189999999995 185.89619999999994,74.80179999999994 185.26669999999993,76.32149999999994 184.05389999999994,77.43279999999994 182.81379999999993,77.88419999999995 181.49399999999994,77.88419999999995 180.25389999999993,77.43279999999994 179.04109999999994,76.32149999999994 178.41159999999994,74.80179999999994 177.15389999999994,72.14189999999995 174.07899999999992,72.41089999999996 173.3021999999999,75.24879999999996 172.94619999999992,76.85469999999997 171.94479999999993,78.15979999999996 170.80189999999993,78.81959999999997 169.50219999999993,79.04879999999997 168.20259999999993,78.81959999999997 166.81519999999992,77.93579999999997 165.9313999999999,76.54849999999998 164.2308999999999,74.14739999999998 161.2493999999999,74.94629999999998 160.9771999999999,77.87589999999997 160.9054999999999,79.51929999999997 160.1458999999999,80.97839999999998 159.1349999999999,81.82669999999997 157.89479999999992,82.27809999999998 156.5750999999999,82.27809999999998 155.0553999999999,81.64859999999999 153.9440999999999,80.43579999999999 151.8524999999999,78.36649999999999 149.0549999999999,79.67099999999999 149.2956999999999,82.6034 149.5103999999999,84.23419999999999 149.0157999999999,85.80309999999999 148.1674999999999,86.814 147.0244999999999,87.47389999999999 145.7248999999999,87.70309999999999 144.1188999999999,87.347 142.8138999999999,86.34559999999999 140.39469999999992,84.67099999999999 137.8662999999999,86.44139999999999 138.6124999999999,89.2875 139.1071999999999,90.85629999999999 138.8924999999999,92.48709999999998 138.2325999999999,93.63009999999998 137.2215999999999,94.47839999999998 135.9814999999999,94.92969999999998 134.33809999999988,94.85799999999998 132.87899999999988,94.09839999999997 130.20579999999987,92.86929999999997 128.02319999999986,95.05189999999996 129.25229999999985,97.72509999999996 130.01189999999986,99.18419999999996 130.08359999999985,100.82759999999996 129.63229999999984,102.06769999999996 128.78399999999985,103.07869999999996 127.64099999999985,103.73859999999995 126.01019999999986,103.95329999999994 124.44139999999986,103.45859999999995 121.59529999999987,102.71239999999995 119.82489999999987,105.24079999999995 121.49949999999987,107.65999999999995 122.50089999999987,108.96499999999996 122.85699999999987,110.57099999999996 122.62779999999987,111.87059999999995 121.96789999999987,113.01359999999995 120.95699999999987,113.86189999999995 119.38809999999987,114.35649999999995 117.75729999999987,114.14179999999996 114.82489999999987,113.90109999999996 113.52039999999987,116.69859999999996 115.58969999999987,118.79019999999996 116.80249999999987,119.90149999999996 117.43199999999986,121.42119999999996 117.43199999999986,122.74089999999995 116.98059999999985,123.98109999999996 116.13229999999986,124.99199999999996 114.67319999999985,125.75159999999997 113.02979999999985,125.82329999999997 110.10019999999986,126.09549999999997 109.30129999999986,129.07699999999997 111.70239999999986,130.77749999999997 113.08969999999985,131.66129999999998 113.97349999999985,133.0487 114.20269999999985,134.3483 113.97349999999985,135.648 113.31369999999984,136.7909 112.00859999999984,137.79229999999998 110.40269999999984,138.14829999999998 107.56479999999983,138.9251 107.29579999999983,142.0 109.95569999999982,143.2577 111.47539999999982,143.8872 112.58669999999982,145.1 113.03809999999983,146.3401 113.03809999999983,147.6599 112.58669999999982,148.9 111.47539999999982,150.1128 109.95569999999982,150.7423 107.29579999999983,152.0 107.56479999999983,155.0749 110.40269999999984,155.85170000000002 112.00859999999984,156.20770000000002 113.31369999999984,157.2091 113.97349999999985,158.352 114.20269999999985,159.6517 113.97349999999985,160.9513 113.08969999999985,162.33870000000002 111.70239999999986,163.22250000000003 109.30129999999986,164.92300000000003 110.10019999999986,167.90450000000004 113.02979999999985,168.17670000000004 114.67319999999985,168.24840000000003 116.13229999999986,169.00800000000004 116.98059999999985,170.01890000000003 117.43199999999986,171.25910000000002 117.43199999999986,172.57880000000003 116.80249999999987,174.09850000000003 115.58969999999987,175.20980000000003 113.52039999999987,177.30140000000003 114.82489999999987,180.09890000000004 117.75729999999987,179.85820000000004 119.38809999999987,179.64350000000005 120.95699999999987,180.13810000000004 121.96789999999987,180.98640000000003 122.62779999999987,182.12940000000003 122.85699999999987,183.42900000000003 122.50089999999987,185.03500000000003 121.49949999999987,186.34000000000003 119.82489999999987,188.75920000000002 121.59529999999987,191.28760000000003 124.44139999999987,190.54140000000004 126.01019999999987,190.04670000000004 127.64099999999986,190.26140000000004 128.78399999999985,190.92130000000003 129.63229999999984,191.93230000000003 130.08359999999985,193.17240000000004 130.01189999999986,194.81580000000005 129.25229999999985,196.27490000000006 128.02319999999986,198.94810000000007 130.20579999999987,201.13070000000008 132.87899999999988,199.9016000000001 134.33809999999988,199.14200000000008 135.9814999999999,199.0703000000001 137.2215999999999,199.5216000000001 138.2325999999999,200.3699000000001 138.8924999999999,201.5129000000001 139.1071999999999,203.14370000000008 138.6124999999999,204.7125000000001 137.8662999999999,207.5586000000001 140.39469999999992,209.3290000000001 142.8138999999999,207.6544000000001 144.1188999999999,206.6530000000001 145.7248999999999,206.2969000000001 147.0244999999999,206.5261000000001 148.1674999999999,207.1860000000001 149.0157999999999,208.19690000000008 149.5103999999999,209.7658000000001 149.2956999999999,211.3966000000001 149.0549999999999,214.3290000000001 151.8524999999999,215.63350000000008 153.9440999999999,213.56420000000008 155.0553999999999,212.3514000000001 156.5750999999999,211.7219000000001 157.89479999999992,211.7219000000001 159.1349999999999,212.1733000000001 160.1458999999999,213.0216000000001 160.9054999999999,214.4807000000001 160.9771999999999,216.1241000000001 161.2493999999999,219.0537000000001 164.2308999999999,219.8526000000001 165.9313999999999,217.4515000000001 166.81519999999992,216.06420000000008 168.20259999999993,215.18040000000008 169.50219999999993,214.95120000000009 170.80189999999993,215.18040000000008 171.94479999999993,215.84020000000007 172.94619999999992,217.14530000000008 173.3021999999999,218.75120000000007 174.07899999999992,221.58910000000006 177.15389999999994,221.85810000000006 178.41159999999994,219.19820000000007 179.04109999999994,217.67850000000007 180.25389999999993,216.56720000000007 181.49399999999994,216.11580000000006 182.81379999999993,216.11580000000006 184.05389999999994,216.56720000000007 185.26669999999993,217.67850000000007 185.89619999999994,219.19820000000007 187.15389999999994,221.85810000000006 190.22879999999995,221.58910000000006 191.00559999999996,218.75120000000007 191.36159999999995,217.14530000000008 192.36299999999994,215.84020000000007 193.50589999999994,215.18040000000008 194.80559999999994,214.95120000000009 196.10519999999994,215.18040000000008 197.49259999999995,216.06420000000008 198.37639999999996,217.4515000000001 200.07689999999997,219.8526000000001 203.05839999999998,219.0537000000001 203.33059999999998,216.1241000000001 203.40229999999997,214.4807000000001 204.16189999999997,213.0216000000001 205.17279999999997,212.1733000000001 206.41299999999995,211.7219000000001 207.73269999999997,211.7219000000001 209.25239999999997,212.3514000000001 210.36369999999997,213.56420000000008 212.45529999999997,215.63350000000008 215.25279999999998,214.3290000000001 215.01209999999998,211.3966000000001 214.79739999999998,209.7658000000001 215.29199999999997,208.19690000000008 216.14029999999997,207.1860000000001 217.28329999999997,206.5261000000001 218.58289999999997,206.2969000000001 220.18889999999996,206.6530000000001 221.49389999999997,207.6544000000001 223.91309999999996,209.3290000000001 226.44149999999996,207.5586000000001 225.69529999999997,204.7125000000001 225.20059999999998,203.14370000000008 225.41529999999997,201.5129000000001 226.07519999999997,200.3699000000001 227.08619999999996,199.5216000000001 228.32629999999997,199.0703000000001 229.9697,199.14200000000008 231.4288,199.9016000000001 234.102,201.13070000000008 236.2846,198.94810000000007 235.05550000000002,196.27490000000006 234.29590000000002,194.81580000000005 234.22420000000002,193.17240000000004 234.67550000000003,191.93230000000003 235.52380000000002,190.92130000000003 236.66680000000002,190.26140000000004 238.29760000000002,190.04670000000004 239.86640000000003,190.54140000000004 242.71250000000003,191.28760000000003 244.48290000000003,188.75920000000002 242.80830000000003,186.34000000000003 241.80690000000004,185.03500000000003 241.45080000000004,183.42900000000003 241.68000000000004,182.12940000000003 242.33990000000003,180.98640000000003 243.35080000000002,180.13810000000004 244.91970000000003,179.64350000000005 246.55050000000003,179.85820000000004 249.48290000000003,180.09890000000004 250.78740000000002,177.30140000000003 248.71810000000002,175.20980000000003 247.50530000000003,174.09850000000003 246.87580000000003,172.57880000000003 246.87580000000003,171.25910000000002 247.32720000000003,170.01890000000003 248.17550000000003,169.00800000000004 249.63460000000003,168.24840000000003 251.27800000000005,168.17670000000004 254.20760000000004,167.90450000000004 255.00650000000005,164.92300000000003 252.60540000000003,163.22250000000003 251.21810000000002,162.33870000000002 250.3343,160.9513 250.10510000000002,159.6517 250.3343,158.352 250.9941,157.2091 252.2992,156.20770000000002 253.9051,155.85170000000002 256.743,155.0749 257.012,152.0 254.3521,150.7423 253.2247,150.2753 225.9481,150.2753 228.7439,155.50449999999998 232.7165,156.34259999999998 235.5135,157.79519999999997 237.8961,159.98919999999995 238.7009,161.78459999999995 239.1448,163.73569999999995 238.88830000000002,166.00879999999995 237.247726171875,170.33745976562494 235.28917812500003,174.49860937499994 233.02761601562503,178.47735429687495 230.478,182.25879999999995 227.655290234375,185.82805195312494 224.574446875,189.1702156249999 221.25043007812502,192.27039648437494 217.6982,195.11369999999994 215.6817,196.02999999999994 213.68890000000002,196.21069999999995 211.73270000000002,196.00009999999995 208.90980000000002,194.41209999999995 206.6639,192.20089999999996 204.63930000000002,188.68169999999995 195.1492,186.98189999999994 188.4627,193.93779999999992 188.8933,197.97489999999993 188.3761,201.08389999999994 187.0257,204.02789999999993 185.5669,205.34809999999993 183.8485,206.37319999999994 181.67,206.81879999999995 176.92429609375,206.59510410156247 172.28205,206.00942656249993 167.75727265625,205.07580761718745 163.36397499999998,203.80828749999995 159.11616796875,202.22090644531247 155.02786249999997,200.32770468749996 151.11306953124998,198.14272246093745 147.3858,195.67999999999995 145.8843,194.03789999999995 145.0966,192.19849999999994 144.6924,190.27289999999994 145.3303,187.09749999999994 146.7393,184.27829999999994 149.4606,181.26519999999994 148.1446,171.71439999999993 139.463,167.50459999999993 135.7565,169.16159999999994 132.63979999999998,169.63049999999993 129.4227,169.25599999999991 127.71619999999999,168.2764999999999 126.21029999999999,166.95889999999991 125.08189999999999,164.9696999999999 124.451271484375,162.8256861328124 123.89925937499999,160.64924531249991 123.42754882812498,158.44199121093743 123.037825,156.2055374999999 122.73177304687499,153.94149785156242 122.511078125,151.6514859374999 122.37742539062499,149.3371154296874 122.3325,146.99999999999991 122.3325,146.99999999999991 122.37747871093751,144.66235664062492 122.5112796875,142.34745937499991 122.7322001953125,140.0569324218749 123.03853749999999,137.79239999999993 123.4285888671875,135.5554863281249 123.9006515625,133.3478156249999 124.45302285156251,131.17101210937489 125.084,129.02669999999992 126.2103,127.04109999999991 127.7162,125.72349999999992 129.4227,124.74399999999991 132.63979999999998,124.36949999999992 135.7565,124.83839999999992 139.463,126.49539999999992 148.1397,122.29239999999992 149.4606,112.73479999999992 146.7393,109.72169999999993 145.3303,106.90249999999993 144.6924,103.72709999999994 145.0966,101.80149999999993 145.8843,99.96209999999994 147.38049999999998,98.32569999999994 151.10996074218747,95.86156601562494 155.02711718749998,93.67544062499995 159.1179431640625,91.78138867187494 163.36841249999998,90.19347499999994 167.76449902343748,88.92576445312496 172.2921765625,87.99232187499994 176.9374189453125,87.40721210937494 181.68619999999999,87.18449999999994 183.84849999999997,87.62679999999995 185.56689999999998,88.65189999999994 187.02569999999997,89.97209999999994 188.37609999999998,92.91609999999994 188.89329999999998,96.02509999999994 188.46269999999998,100.06219999999993 195.14119999999997,107.01549999999993 204.63929999999996,105.31829999999994 206.66389999999996,101.79909999999994 208.90979999999996,99.58789999999993 211.73269999999997,97.99989999999994 213.68889999999996,97.78929999999994 215.68169999999995,97.96999999999994 217.69999999999996,98.88719999999994" fill="none" stroke="black" stroke-width="0.1"/>
        <g id="_tag_233_">
            <g id="_130839272_1">
                <polygon id="_130839272___0" class="fil1 str0" points="287.41,152.335 287.2481,154.95950000000002 284.45390000000003,155.88080000000002 282.86830000000003,156.3188 281.61640000000006,157.38580000000002 281.0160000000001,158.5611 280.85390000000007,159.8708 281.14940000000007,161.157 282.10330000000005,162.49720000000002 283.5341,163.3086 286.01930000000004,164.8837 285.47440000000006,167.79840000000002 282.58810000000005,168.3694 280.96070000000003,168.60920000000002 279.58720000000005,169.51430000000002 278.84690000000006,170.60680000000002 278.52500000000003,171.88670000000002 278.6603,173.19950000000003 279.4422,174.64670000000004 280.7625,175.62790000000004 283.0353,177.49640000000005 282.1364,180.32210000000006 279.2018,180.53400000000008 277.5573,180.5720000000001 276.0829,181.3014000000001 275.214,182.2948000000001 274.7373,183.5254000000001 274.7102,184.8448000000001 275.3083,186.3772000000001 276.498,187.5131000000001 278.52389999999997,189.6468000000001 277.28459999999995,192.3406000000001 274.34619999999995,192.19030000000012 272.70949999999993,192.02590000000012 271.15669999999994,192.56860000000012 270.17229999999995,193.4477000000001 269.54789999999997,194.6103000000001 269.35889999999995,195.9165000000001 269.76419999999996,197.5107000000001 270.80529999999993,198.7843000000001 272.55369999999994,201.15070000000009 270.99269999999996,203.67180000000008 268.09499999999997,203.16150000000007 266.49089999999995,202.79730000000006 264.88319999999993,203.14500000000007 263.79819999999995,203.89640000000006 263.03569999999996,204.97360000000006 262.6876,206.24660000000006 262.89399999999995,207.87850000000006 263.77059999999994,209.27040000000005 265.21489999999994,211.83370000000005 263.35599999999994,214.14390000000006 260.54299999999995,213.28140000000005 258.9958,212.72280000000003 257.35749999999996,212.87030000000004 256.1885,213.48270000000005 255.29939999999996,214.45800000000006 254.79749999999996,215.67860000000005 254.80169999999995,217.32350000000005 255.50069999999997,218.81250000000006 256.61899999999997,221.53400000000005 254.49029999999996,223.59810000000004 251.80459999999997,222.39650000000003 250.33779999999996,221.65200000000004 248.69379999999995,221.59710000000004 247.45829999999995,222.06120000000004 246.45609999999996,222.91980000000004 245.80799999999996,224.06950000000003 245.61009999999996,225.70250000000004 246.12079999999997,227.26610000000005 246.89619999999996,230.10430000000005 244.52989999999997,231.89130000000006 242.01229999999998,230.36870000000005 240.64809999999997,229.44960000000006 239.02319999999997,229.19310000000007 237.74009999999998,229.50180000000006 236.64,230.23080000000007 235.85559999999998,231.29210000000006 235.45839999999998,232.88840000000008 235.77309999999997,234.50290000000007 236.19389999999999,237.41490000000007 233.62599999999998,238.89750000000006 231.31449999999998,237.07710000000006 230.07359999999997,235.99730000000005 228.49259999999998,235.54310000000007 227.1813,235.69180000000006 225.9999,236.28010000000006 225.091,237.23690000000005 224.5007,238.77230000000006 224.6146,240.41330000000005 224.6743,243.35490000000004 221.94359999999998,244.51070000000004 219.87339999999998,242.42010000000005 218.77459999999996,241.19590000000005 217.26139999999995,240.55090000000004 215.94169999999994,240.53730000000004 214.69699999999995,240.97590000000005 213.67739999999995,241.81380000000004 212.90289999999996,243.26500000000004 212.81429999999995,244.90760000000003 212.51209999999995,247.83420000000004 209.66009999999994,248.64570000000003 207.86239999999995,246.31650000000002 206.92239999999995,244.96660000000003 205.49999999999994,244.14050000000003 204.19199999999995,243.96490000000003 202.90279999999996,244.24720000000002 201.78789999999995,244.95350000000002 200.84099999999995,246.29850000000002 200.55119999999994,247.91770000000002 199.89159999999993,250.78500000000003 196.96149999999992,251.23990000000003 195.4636999999999,248.70740000000004 194.6966999999999,247.25230000000005 193.3864999999999,246.25760000000005 192.1099999999999,245.92260000000005 190.7958999999999,246.04430000000005 189.6026999999999,246.60820000000004 188.49769999999992,247.82670000000005 188.0110999999999,249.39800000000005 187.0040999999999,252.16260000000005 184.04029999999992,252.25390000000004 182.86509999999993,249.55660000000003 182.28269999999992,248.01820000000004 181.10479999999993,246.87000000000003 179.8791999999999,246.38070000000005 178.56009999999992,246.34000000000006 177.30659999999992,246.75300000000007 176.06019999999992,247.82640000000006 175.38419999999994,249.32610000000005 174.04519999999994,251.94590000000005 171.09259999999995,251.67230000000006 170.25779999999995,248.85100000000006 169.86879999999994,247.25270000000006 168.84089999999995,245.96850000000006 167.68469999999994,245.33230000000006 166.38049999999993,245.12980000000007 165.08589999999992,245.38570000000007 163.71699999999993,246.29780000000008 162.86179999999993,247.7030000000001 161.21099999999993,250.13840000000008 158.31439999999992,249.50410000000008 157.83259999999993,246.60150000000007 157.64299999999992,244.96760000000006 156.7806999999999,243.56680000000006 155.7113999999999,242.79330000000004 154.44199999999992,242.43210000000005 153.1256999999999,242.52690000000004 151.65509999999992,243.26390000000004 150.63379999999992,244.55330000000004 148.69609999999992,246.76740000000004 145.8994999999999,245.78190000000004 145.7779999999999,242.84220000000005 145.7906999999999,241.19730000000004 145.1069999999999,239.70120000000003 144.1408999999999,238.80210000000002 142.92549999999991,238.28770000000003 141.6075999999999,238.22000000000003 140.05749999999992,238.77070000000003 138.88549999999992,239.92480000000003 136.69039999999993,241.88410000000005 134.03609999999992,240.56240000000005 134.27679999999992,237.63000000000005 134.49149999999992,235.99910000000006 133.99689999999993,234.43030000000005 133.14859999999993,233.41930000000005 132.00559999999993,232.75950000000006 130.70599999999993,232.53030000000007 129.09999999999994,232.88630000000006 127.79499999999993,233.88770000000005 125.37579999999993,235.56240000000005 122.90399999999993,233.92450000000005 123.50329999999992,231.04390000000006 123.91679999999992,229.45180000000008 123.61869999999992,227.83410000000006 122.90099999999993,226.72650000000007 121.84779999999992,225.93120000000008 120.58619999999992,225.54410000000007 118.94869999999992,225.70010000000008 117.53049999999992,226.5335000000001 114.92389999999992,227.89810000000008 112.67209999999992,225.96890000000008 113.62069999999991,223.18380000000008 114.22679999999991,221.65460000000007 114.12969999999991,220.01250000000007 113.55359999999992,218.82520000000008 112.60619999999992,217.90650000000008 111.40159999999992,217.36720000000008 109.75739999999992,217.32080000000008 108.24749999999992,217.9736000000001 105.49289999999992,219.00760000000008 103.49529999999992,216.81630000000007 104.77899999999991,214.16890000000006 105.56839999999991,212.72570000000007 105.67389999999992,211.08410000000006 105.24799999999992,209.83500000000006 104.42069999999993,208.80680000000007 103.29159999999993,208.12360000000007 101.66539999999993,207.87550000000007 100.08679999999994,208.33780000000007 97.22609999999995,209.02550000000008 95.51279999999994,206.60530000000008 97.11219999999994,204.1357000000001 98.07289999999995,202.8004000000001 98.37929999999994,201.18430000000012 98.11019999999995,199.89230000000012 97.41549999999995,198.77020000000013 96.37889999999996,197.95350000000013 94.79559999999996,197.50740000000013 93.17209999999997,197.77220000000014 90.24849999999998,198.10310000000015 88.84569999999998,195.49070000000015 90.73639999999997,193.23640000000015 91.85389999999998,192.02930000000015 92.35659999999999,190.46310000000014 92.24829999999999,189.14780000000013 91.69669999999999,187.94890000000012 90.7684,187.01090000000013 89.2519,186.37360000000012 87.60820000000001,186.43690000000012 84.66610000000001,186.40610000000012 83.59490000000001,183.64110000000014 85.74830000000001,181.63620000000014 87.00570000000002,180.57560000000015 87.69710000000002,179.08300000000014 87.75130000000001,177.76440000000014 87.35120000000002,176.50680000000014 86.54510000000002,175.46180000000015 85.11840000000002,174.64300000000014 83.47940000000003,174.50390000000013 80.56340000000003,174.11170000000013 79.84010000000004,171.23600000000013 82.22360000000003,169.51090000000013 83.60180000000004,168.61290000000014 84.47130000000004,167.21660000000014 84.68710000000004,165.91460000000015 84.44460000000004,164.61740000000015 83.77310000000004,163.48130000000015 82.45790000000004,162.49340000000015 80.84830000000004,162.15380000000016 78.00270000000003,161.40630000000016 77.63830000000003,158.46350000000015 80.21570000000003,157.04440000000017 81.69370000000002,156.32260000000016 82.72830000000002,155.04370000000017 83.10250000000002,153.77810000000017 83.02120000000002,152.46090000000015 82.49440000000003,151.25090000000014 81.31050000000003,150.10880000000014 79.75490000000003,149.57410000000016 77.02270000000003,148.48250000000016 77.02270000000003,145.51740000000015 79.75490000000003,144.42580000000015 81.31050000000003,143.89110000000016 82.49440000000003,142.74900000000017 83.02120000000002,141.53900000000016 83.10250000000002,140.22180000000014 82.72830000000002,138.95620000000014 81.69370000000002,137.67730000000014 80.21570000000003,136.95550000000014 77.63830000000003,135.53640000000016 78.00270000000003,132.59360000000015 80.84830000000004,131.84610000000015 82.45790000000004,131.50650000000016 83.77310000000004,130.51860000000016 84.44460000000004,129.38250000000016 84.68710000000004,128.08530000000016 84.47130000000004,126.78330000000015 83.60180000000004,125.38700000000016 82.22360000000003,124.48900000000016 79.84010000000004,122.76390000000016 80.56340000000003,119.88820000000017 83.47940000000003,119.49600000000017 85.11840000000002,119.35690000000017 86.54510000000002,118.53810000000017 87.35120000000002,117.49310000000017 87.75130000000001,116.23550000000017 87.69710000000002,114.91690000000017 87.00570000000002,113.42430000000017 85.74830000000001,112.36370000000018 83.59490000000001,110.35880000000017 84.66610000000001,107.59380000000017 87.60820000000001,107.56300000000017 89.2519,107.62630000000017 90.7684,106.98900000000017 91.69669999999999,106.05100000000017 92.24829999999999,104.85210000000018 92.35659999999999,103.53680000000018 91.85389999999998,101.97060000000019 90.73639999999997,100.76350000000019 88.84569999999998,98.50920000000019 90.24849999999998,95.8968000000002 93.17209999999997,96.2277000000002 94.79559999999998,96.49250000000019 96.37889999999997,96.04640000000019 97.41549999999998,95.2297000000002 98.11019999999998,94.10760000000019 98.37929999999997,92.81560000000019 98.07289999999998,91.19950000000019 97.11219999999997,89.86420000000018 95.51279999999997,87.39460000000018 97.22609999999997,84.97440000000019 100.08679999999997,85.6621000000002 101.66539999999996,86.1244000000002 103.29159999999996,85.8763000000002 104.42069999999995,85.1931000000002 105.24799999999995,84.1649000000002 105.67389999999995,82.9158000000002 105.56839999999994,81.2742000000002 104.77899999999994,79.8310000000002 103.49529999999994,77.1836000000002 105.49289999999995,74.9923000000002 108.24749999999995,76.0263000000002 109.75739999999995,76.6791000000002 111.40159999999995,76.6327000000002 112.60619999999994,76.0934000000002 113.55359999999995,75.1747000000002 114.12969999999994,73.9874000000002 114.22679999999994,72.34530000000021 113.62069999999994,70.8161000000002 112.67209999999994,68.0310000000002 114.92389999999995,66.10180000000021 117.53049999999995,67.4664000000002 118.94869999999995,68.2998000000002 120.58619999999995,68.45580000000021 121.84779999999995,68.0687000000002 122.90099999999995,67.27340000000021 123.61869999999995,66.1658000000002 123.91679999999995,64.5481000000002 123.50329999999995,62.9560000000002 122.90399999999995,60.0754000000002 125.37579999999996,58.4375000000002 127.79499999999996,60.1122000000002 129.09999999999997,61.1136000000002 130.70599999999996,61.4696000000002 132.00559999999996,61.2404000000002 133.14859999999996,60.5806000000002 133.99689999999995,59.5696000000002 134.49149999999995,58.0008000000002 134.27679999999995,56.3699000000002 134.03609999999995,53.4375000000002 136.69039999999995,52.1158000000002 138.88549999999995,54.0751000000002 140.05749999999995,55.2292000000002 141.60759999999993,55.7799000000002 142.92549999999994,55.712200000000195 144.14089999999993,55.19780000000019 145.10699999999994,54.298700000000196 145.79069999999993,52.8026000000002 145.77799999999993,51.1577000000002 145.89949999999993,48.218000000000195 148.69609999999994,47.23250000000019 150.63379999999995,49.446600000000196 151.65509999999995,50.736000000000196 153.12569999999994,51.4730000000002 154.44199999999995,51.5678000000002 155.71139999999994,51.2066000000002 156.78069999999994,50.4331000000002 157.64299999999994,49.032300000000205 157.83259999999996,47.39840000000021 158.31439999999995,44.49580000000021 161.21099999999996,43.861500000000206 162.86179999999996,46.29690000000021 163.71699999999996,47.70210000000021 165.08589999999995,48.61420000000021 166.38049999999996,48.87010000000021 167.68469999999996,48.667600000000206 168.84089999999998,48.031400000000204 169.86879999999996,46.747200000000205 170.25779999999997,45.148900000000204 171.09259999999998,42.3276000000002 174.04519999999997,42.0540000000002 175.38419999999996,44.6738000000002 176.06019999999995,46.173500000000196 177.30659999999995,47.246900000000196 178.56009999999995,47.65990000000019 179.87919999999994,47.61920000000019 181.10479999999995,47.12990000000019 182.28269999999995,45.98170000000019 182.86509999999996,44.443300000000185 184.04029999999995,41.74600000000019 187.00409999999994,41.837300000000184 188.01109999999994,44.601900000000185 188.49769999999995,46.173200000000186 189.60269999999994,47.391700000000185 190.79589999999993,47.95560000000018 192.10999999999993,48.07730000000018 193.38649999999993,47.74230000000018 194.69669999999994,46.747600000000176 195.46369999999993,45.292500000000175 196.96149999999994,42.760000000000176 199.89159999999995,43.21490000000018 200.55119999999997,46.08220000000018 200.84099999999998,47.70140000000018 201.78789999999998,49.046400000000176 202.90279999999998,49.752700000000175 204.19199999999998,50.035000000000174 205.49999999999997,49.85940000000017 206.92239999999998,49.033300000000175 207.86239999999998,47.68340000000018 209.66009999999997,45.354200000000176 212.51209999999998,46.16570000000018 212.81429999999997,49.09230000000018 212.9029,50.73490000000018 213.67739999999998,52.18610000000018 214.69699999999997,53.02400000000018 215.94169999999997,53.46260000000018 217.26139999999998,53.44900000000018 218.7746,52.80400000000018 219.8734,51.579800000000176 221.9436,49.489200000000174 224.67430000000002,50.645000000000174 224.61460000000002,53.586600000000175 224.50070000000002,55.22760000000017 225.09100000000004,56.763000000000176 225.99990000000003,57.71980000000018 227.18130000000002,58.308100000000174 228.4926,58.45680000000017 230.0736,58.00260000000017 231.3145,56.92280000000017 233.626,55.10240000000017 236.1939,56.58500000000017 235.7731,59.49700000000017 235.4584,61.11150000000017 235.8556,62.70780000000017 236.64000000000001,63.76910000000017 237.7401,64.49810000000018 239.0232,64.80680000000018 240.6481,64.55030000000018 242.0123,63.63120000000018 244.5299,62.10860000000018 246.8962,63.89560000000018 246.1208,66.73380000000017 245.6101,68.29740000000017 245.808,69.93040000000016 246.4561,71.08010000000016 247.45829999999998,71.93870000000015 248.69379999999998,72.40280000000016 250.3378,72.34790000000015 251.8046,71.60340000000015 254.4903,70.40180000000015 256.61899999999997,72.46590000000015 255.50069999999997,75.18740000000015 254.80169999999995,76.67640000000016 254.79749999999996,78.32130000000016 255.29939999999996,79.54190000000017 256.1885,80.51720000000017 257.35749999999996,81.12960000000017 258.9958,81.27710000000016 260.54299999999995,80.71850000000016 263.35599999999994,79.85600000000017 265.21489999999994,82.16620000000016 263.77059999999994,84.72950000000016 262.89399999999995,86.12140000000016 262.6876,87.75330000000017 263.03569999999996,89.02630000000016 263.79819999999995,90.10350000000017 264.88319999999993,90.85490000000017 266.49089999999995,91.20260000000017 268.09499999999997,90.83840000000018 270.99269999999996,90.32810000000018 272.55369999999994,92.84920000000018 270.80529999999993,95.21560000000018 269.76419999999996,96.48920000000018 269.35889999999995,98.08340000000018 269.54789999999997,99.38960000000019 270.17229999999995,100.55220000000018 271.15669999999994,101.43130000000018 272.70949999999993,101.97400000000017 274.34619999999995,101.80960000000017 277.28459999999995,101.65930000000017 278.52389999999997,104.35310000000017 276.498,106.48680000000017 275.3083,107.62270000000018 274.7102,109.15510000000017 274.7373,110.47450000000018 275.214,111.70510000000017 276.0829,112.69850000000017 277.5573,113.42790000000016 279.2018,113.46590000000016 282.1364,113.67780000000016 283.0353,116.50350000000016 280.7625,118.37200000000016 279.4422,119.35320000000016 278.6603,120.80040000000015 278.52500000000003,122.11320000000015 278.84690000000006,123.39310000000015 279.58720000000005,124.48560000000015 280.96070000000003,125.39070000000015 282.58810000000005,125.63050000000015 285.47440000000006,126.20150000000015 286.01930000000004,129.11620000000016 283.5341,130.69130000000015 282.10330000000005,131.50270000000015 281.14940000000007,132.84290000000016 280.85390000000007,134.12910000000016 281.0160000000001,135.43880000000016 281.61640000000006,136.61410000000015 282.86830000000003,137.68110000000016 284.45390000000003,138.11910000000015 287.2481,139.04040000000015 287.41,141.66500000000013 271.0566,141.66500000000013 270.8881271484375,139.3414498046876 270.66037968750004,137.03479218750013 270.3741767578125,134.74576660156262 270.0303375,132.47511250000014 269.6296810546875,130.22356933593764 269.1730265625,127.99187656250012 268.6611931640625,125.78077363281264 268.095,123.59100000000014 268.095,123.59090000000013 267.5522,122.99470000000014 266.1202,122.67730000000013 264.9989,123.02270000000013 264.3488,123.66570000000013 263.8512,124.64680000000013 263.1335,126.74250000000012 262.2167,128.66530000000012 260.1767,132.42250000000013 257.7066,135.43720000000013 254.7985,137.83300000000014 251.9082,140.19950000000014 250.5779,141.66500000000013 227.9889,141.66500000000013 228.8604,138.74810000000014 228.9312,138.51120000000014 238.54309999999998,137.50570000000013 244.0495,135.87710000000013 247.3358,134.25800000000012 247.3358,134.25790000000012 250.02360000000002,132.80060000000012 250.02360000000002,132.8005000000001 253.18820000000002,130.19700000000012 256.13460000000003,127.70670000000011 258.1458,125.26420000000012 259.8368,122.33140000000012 261.1635,119.74860000000011 261.6422,118.0614000000001 262.0665,116.21270000000011 262.41360000000003,113.7155000000001 262.28770000000003,111.1743000000001 261.81620000000004,108.3330000000001 260.86640000000006,105.38160000000009 260.67820000000006,104.97710000000009 259.26608281250003,102.44677558593759 257.77470000000005,99.9680921875001 256.20580468750006,97.54272207031259 254.56115000000005,95.1723375000001 252.84248906250005,92.85861074218761 251.05157500000004,90.60321406250009 249.19016093750005,88.4078197265626 247.26000000000005,86.27410000000009 246.08860000000004,85.18370000000009 243.57520000000005,83.3684000000001 241.01860000000005,82.0419000000001 238.64070000000004,81.1369000000001 236.15850000000003,80.69540000000009 234.26910000000004,80.52760000000009 232.51660000000004,80.46150000000009 229.65020000000004,80.92510000000009 226.33840000000004,81.62710000000008 223.39400000000003,82.78510000000009 220.11510000000004,84.81770000000009 216.66110000000003,87.02290000000009 214.44430000000003,89.1288000000001 211.88900000000004,91.7539000000001 208.63850000000005,96.48740000000011 204.71200000000005,105.31830000000011 204.70860000000005,105.3182000000001 202.86410800781255,104.37303281250011 200.97395156250005,103.5074125000001 199.04033496093754,102.7234859375001 197.06546250000005,102.0234000000001 195.05153847656257,101.4093015625001 193.00076718750006,100.8833375000001 190.91535292968757,100.4476546875001 188.79750000000004,100.1044000000001 188.58590000000004,99.9582000000001 190.59980000000004,90.50590000000011 190.75250000000005,84.76590000000012 190.22820000000004,81.14010000000012 189.67260000000005,78.13340000000012 188.17440000000005,74.31920000000012 186.71650000000005,70.74750000000012 185.01500000000004,68.07990000000012 182.74830000000003,65.56540000000012 180.70190000000002,63.505500000000126 179.2452,62.52890000000013 177.6181,61.55400000000013 175.3504,60.45230000000013 172.8946,59.78670000000013 170.0467,59.35710000000013 166.94629999999998,59.34840000000013 166.4296,59.411400000000135 163.6066072265625,59.96559726562514 160.8163390625,60.608184375000135 158.0602732421875,61.337579296875134 155.33988749999997,62.152200000000136 152.6566595703125,63.05046445312514 150.01206718749998,64.03079062500014 147.40758808593748,65.09159648437513 144.8447,66.23130000000013 143.1704,67.16140000000013 140.6671,68.99090000000012 138.6156,71.01240000000013 137.0201,72.99430000000012 135.8331,75.21860000000012 135.0897,76.96360000000013 134.4853,78.61000000000013 134.0405,81.47920000000013 133.68460000000002,84.84590000000013 133.8761,88.00410000000012 134.79600000000002,91.75060000000012 135.82590000000002,95.71710000000012 137.14360000000002,98.47600000000011 138.85070000000002,101.71750000000011 142.34810000000002,106.27160000000012 149.53340000000003,112.73480000000012 149.52550000000002,112.75730000000011 148.0423849609375,114.23806972656261 146.6256296875,115.78291406250011 145.27754394531252,117.38948574218762 144.0004375,119.05543750000011 142.79662011718753,120.77842207031262 141.66840156250004,122.55609218750011 140.61809160156253,124.38610058593761 139.64800000000002,126.26610000000011 139.4524,126.4154000000001 131.085,121.57910000000011 125.67320000000001,119.66010000000011 122.0627,119.03830000000012 119.03160000000001,118.63760000000012 114.9411,118.88380000000012 111.09360000000001,119.16670000000012 108.03080000000001,119.96050000000012 104.93890000000002,121.33920000000012 102.34760000000001,122.64900000000011 100.96850000000002,123.73260000000012 99.53860000000002,124.97880000000012 97.79000000000002,126.79510000000012 96.39810000000001,128.92490000000012 95.10950000000001,131.5007000000001 94.14320000000001,134.4467000000001 94.07910000000001,134.7748000000001 93.88491093750001,136.2775367187501 93.71551875,137.7878812500001 93.5712609375,139.3056601562501 93.452475,140.83070000000012 93.35949843750001,142.3628273437501 93.29266875000002,143.90186875000012 93.25232343750001,145.4476507812501 93.23880000000001,147.0000000000001 93.23880000000001,147.0000000000001 93.249206640625,148.35814785156262 93.280240625,149.7112953125001 93.33162304687501,151.0593357421876 93.40307500000002,152.40216250000012 93.494317578125,153.73966894531262 93.60507187500001,155.0717484375001 93.73505898437502,156.3982943359376 93.88400000000001,157.71920000000011 94.22660000000002,159.4733000000001 95.19300000000001,162.4194000000001 96.48160000000001,164.99510000000012 97.87340000000002,167.12510000000012 99.62210000000002,168.94130000000013 101.05200000000002,170.1875000000001 102.43100000000003,171.2711000000001 105.02250000000002,172.5808000000001 108.11430000000003,173.9596000000001 111.17710000000002,174.75350000000012 115.02460000000002,175.03630000000013 119.11500000000002,175.28240000000014 122.14620000000002,174.88170000000014 125.75660000000002,174.26000000000013 131.16850000000002,172.34100000000012 139.53490000000002,167.50530000000012 140.49499667968752,169.39048867187512 141.53575468750006,171.22582812500013 142.65480097656254,173.00902851562512 143.84976250000003,174.7378000000001 145.11826621093752,176.40985273437514 146.45793906250003,178.02289687500013 147.8664080078125,179.57464257812515 149.34130000000002,181.06280000000012 149.43160000000003,181.31980000000013 142.24630000000002,187.78310000000013 138.74890000000002,192.33710000000013 137.04190000000003,195.57870000000014 135.72410000000002,198.33760000000015 134.69420000000002,202.30400000000014 133.7743,206.05060000000014 133.58290000000002,209.20880000000014 133.93860000000004,212.57540000000014 134.38350000000003,215.44470000000015 134.98790000000002,217.09110000000015 135.73120000000003,218.83610000000016 136.91830000000002,221.06040000000016 138.5138,223.04230000000015 140.5653,225.06380000000016 143.0685,226.89330000000015 143.5558,227.16400000000016 146.100571875,228.34491132812516 148.68820624999998,229.44674687500014 151.31711875,230.46812148437516 153.985725,231.40765000000016 156.69244062500002,232.26394726562515 159.43568125000002,233.03562812500013 162.21386249999998,233.72130742187517 165.0254,234.31960000000015 166.896,234.54750000000016 169.9964,234.53880000000015 172.84449999999998,234.10920000000016 175.3002,233.44370000000015 177.56779999999998,232.34190000000015 179.19499999999996,231.36710000000016 180.65169999999998,230.39040000000017 182.69809999999998,228.33060000000017 184.96479999999997,225.81600000000017 186.66619999999998,223.14850000000018 188.12419999999997,219.5768000000002 189.62229999999997,215.7625000000002 190.17799999999997,212.7558000000002 190.70219999999998,209.1301000000002 190.54969999999997,203.39000000000019 188.53559999999996,193.93770000000018 188.54539999999997,193.93090000000018 190.66533652343745,193.59869570312517 192.75311093749997,193.17389687500017 194.80653300781248,192.65866210937517 196.82341249999996,192.0551500000002 198.80155917968747,191.36551914062517 200.73878281249995,190.59192812500018 202.63289316406247,189.73653554687516 204.48169999999996,188.80150000000017 204.73249999999996,188.79550000000017 208.65909999999997,197.62630000000019 211.90949999999998,202.35980000000018 214.46479999999997,204.98490000000018 216.68159999999997,207.09080000000017 220.13559999999998,209.29600000000016 223.41449999999998,211.32860000000016 226.35899999999998,212.48660000000015 229.67079999999999,213.18860000000015 232.53709999999998,213.65220000000016 234.28969999999998,213.58610000000016 236.17899999999997,213.41840000000016 238.66119999999998,212.97680000000017 241.0392,212.07180000000017 243.5957,210.74540000000016 246.10909999999998,208.93000000000015 246.171,208.87240000000014 248.14986542968748,206.76046777343765 250.0599171875,204.58496718750015 251.8994384765625,202.34765488281263 253.6667125,200.05028750000014 255.3600224609375,197.69462167968766 256.9776515625,195.28241406250012 258.51788300781254,192.81542128906264 259.979,190.29540000000014 260.7519,188.63400000000016 261.70169999999996,185.68260000000015 262.17319999999995,182.84130000000016 262.29909999999995,180.30010000000016 261.95199999999994,177.80290000000016 261.5276999999999,175.95420000000016 261.0489999999999,174.26700000000017 259.7222999999999,171.68420000000017 258.03129999999993,168.7514000000002 256.02009999999996,166.3089000000002 253.07369999999995,163.8186000000002 249.90909999999994,161.2151000000002 247.22129999999993,159.7577000000002 247.22129999999993,159.7576000000002 243.93499999999992,158.1385000000002 241.18179999999992,157.3242000000002 238.42869999999994,156.5100000000002 228.81669999999994,155.5044000000002 227.86979999999994,152.3350000000002 250.44929999999994,152.3350000000002 251.79369999999994,153.8161000000002 254.68399999999994,156.1826000000002 257.59209999999996,158.57840000000022 260.06219999999996,161.59310000000022 262.1022,165.35030000000023 263.019,167.27310000000023 263.7367,169.36880000000022 264.23429999999996,170.34990000000022 264.88439999999997,170.99290000000022 266.0057,171.33830000000023 267.4377,171.02090000000024 267.4378,171.02090000000024 268.13759999999996,170.25200000000024 268.695215625,168.08060449218775 269.19933749999996,165.88825468750025 269.64917812499993,163.67568066406272 270.04394999999994,161.44361250000026 270.38286562499997,159.19278027343773 270.66513749999996,156.92391406250024 270.8899781249999,154.63774394531274 271.05659999999995,152.33500000000024 287.40999999999997,152.33500000000024" fill="none" stroke="black" stroke-width="0.1"/>
                <polygon id="_130839272___1" class="fil1 str0" points="99.05599999999995,178.68800000000024 99.17069999999995,177.65240000000026 100.14259999999996,176.55390000000025 101.25269999999996,176.17430000000024 102.15659999999995,176.31240000000025 103.13579999999996,176.81370000000024 104.94829999999996,178.08720000000025 106.82019999999996,179.10390000000024 110.67899999999996,180.94450000000023 114.44939999999995,181.93160000000023 118.21029999999996,182.16050000000024 121.93969999999996,182.37610000000024 124.55849999999995,182.92170000000024 126.69069999999995,184.35430000000025 128.24029999999996,186.19230000000024 128.16569999999996,186.28380000000024 129.43739999999997,188.32970000000023 130.14089999999996,190.80020000000022 129.85059999999996,193.45950000000022 128.90329999999994,197.07290000000023 127.95889999999994,200.72040000000024 127.73239999999994,204.61130000000023 128.29049999999995,208.85000000000022 128.67899999999995,210.94450000000023 129.33019999999993,213.06180000000023 129.50429999999994,214.14810000000023 129.35629999999995,215.05030000000022 128.65219999999994,215.98880000000023 127.30709999999993,216.57370000000023 126.56419999999993,216.42010000000022 122.10249101562493,212.5894634765627 117.90388437499993,208.47666406250022 113.98299804687493,204.09622949218772 110.35444999999993,199.46268750000024 107.03285820312493,194.59056582031272 104.03284062499992,189.49439218750024 101.36901523437493,184.18869433593773 99.05599999999993,178.68800000000022" fill="none" stroke="black" stroke-width="0.1"/>
                <polygon id="_130839272___2" class="fil1 str0" points="186.46619999999993,58.11500000000022 192.5430949218749,58.60784277343772 198.49812187499992,59.501123437500226 204.3176191406249,60.781195507812726 209.9879249999999,62.43441250000022 215.49537773437493,64.44712792968772 220.82631562499995,66.80569531250022 225.96707695312494,69.49646816406272 230.90399999999994,72.50580000000022 231.40379999999993,73.38230000000021 231.26309999999992,74.84230000000021 230.5880999999999,75.8020000000002 229.77569999999992,76.22160000000021 228.6888999999999,76.39160000000021 226.4739999999999,76.4266000000002 224.3619999999999,76.7043000000002 220.1582999999999,77.4835000000002 216.5277999999999,78.9011000000002 213.3505999999999,80.9265000000002 210.2067999999999,82.9440000000002 207.7672999999999,84.0419000000002 205.20029999999988,84.1362000000002 202.86629999999988,83.56020000000021 202.87289999999987,83.44220000000021 200.64159999999987,82.53460000000021 198.62019999999987,80.94950000000021 197.29199999999986,78.62740000000021 195.93449999999987,75.1473000000002 194.55459999999988,71.6411000000002 192.45069999999987,68.3603000000002 189.50779999999986,65.25920000000019 187.96239999999986,63.79300000000019 186.19109999999986,62.46290000000019 185.41179999999986,61.68640000000019 185.00109999999987,60.869500000000194 185.01919999999987,59.69630000000019 185.76349999999988,58.43250000000019 186.46619999999987,58.11500000000019" fill="none" stroke="black" stroke-width="0.1"/>
                <polygon id="_130839272___3" class="fil1 str0" points="231.04079999999988,221.40400000000017 226.10907402343736,224.42248593750017 220.97309843749986,227.12296250000014 215.64652675781238,229.49169531250016 210.14301249999988,231.51495000000017 204.4762091796874,233.17899218750017 198.6597703124999,234.47008750000018 192.7073494140624,235.37450156250017 186.63259999999988,235.87850000000017 185.7132999999999,235.46320000000017 184.96899999999988,234.19940000000017 184.95089999999988,233.02620000000016 185.36159999999987,232.20920000000015 186.14089999999987,231.43290000000016 187.91219999999987,230.10270000000017 189.45759999999987,228.63660000000016 192.40049999999988,225.53540000000015 194.5043999999999,222.25450000000015 195.88429999999988,218.74850000000015 197.24179999999987,215.26840000000016 198.57009999999988,212.94630000000015 200.59139999999988,211.36110000000016 202.81819999999988,210.45520000000016 202.88219999999987,210.55460000000016 205.22079999999988,209.97730000000016 207.7878999999999,210.07150000000016 210.2272999999999,211.16950000000017 213.3710999999999,213.18700000000018 216.5483999999999,215.21250000000018 220.1788999999999,216.63010000000017 224.3824999999999,217.40910000000017 226.4945999999999,217.68690000000018 228.7093999999999,217.72190000000018 229.79629999999992,217.89200000000017 230.6086999999999,218.31150000000017 231.28369999999993,219.27130000000017 231.42429999999993,220.73120000000017 231.04079999999993,221.40400000000017" fill="none" stroke="black" stroke-width="0.1"/>
                <polygon id="_130839272___4" class="fil1 str0" points="98.99779999999993,115.46400000000017 101.30132910156243,109.95883574218766 103.95567656249993,104.64796718750017 106.94634511718743,99.54601816406267 110.25883749999991,94.66761250000017 113.87865644531243,90.02737402343767 117.79130468749993,85.63992656250016 121.98228496093743,81.51989394531267 126.43709999999993,77.68190000000017 127.40829999999993,77.48100000000017 128.7533999999999,78.06600000000016 129.4575999999999,79.00440000000016 129.6055999999999,79.90670000000016 129.4314999999999,80.99300000000015 128.7802999999999,83.11030000000015 128.3917999999999,85.20470000000014 127.83369999999991,89.44340000000014 128.0601999999999,93.33430000000014 129.0045999999999,96.98190000000014 129.9518999999999,100.59530000000014 130.2421999999999,103.25460000000014 129.53869999999992,105.72510000000014 128.2694999999999,107.76690000000013 128.1594999999999,107.72420000000014 126.60669999999989,109.56590000000014 124.4745999999999,110.99830000000014 121.8555999999999,111.54410000000014 118.1262999999999,111.75970000000014 114.3653999999999,111.98860000000013 110.59509999999989,112.97570000000013 106.73629999999989,114.81620000000014 104.86439999999989,115.83300000000014 103.05189999999989,117.10660000000014 102.07269999999988,117.60780000000014 101.16879999999989,117.74590000000013 100.05869999999989,117.36620000000013 99.08659999999989,116.26780000000014 98.99779999999988,115.46400000000014" fill="none" stroke="black" stroke-width="0.1"/>
            </g>
            <polyline id="_130637784_1" class="fil2 str1" points="280.102,141.665 277.24720527343743,122.85422421874999 270.9994421875,105.39445624999999 261.7152548828125,89.64233515624998 249.75118749999996,75.95449999999998 235.46378417968748,64.68758984374999 219.2095890625,56.19824374999999 201.34514628906248,50.843100781249994 182.22699999999998,48.97879999999999 182.22699999999998,48.97879999999999 162.47489726562497,50.970612109375 144.07652812499998,56.68305937499999 127.42637617187498,65.721658203125 112.91892499999997,77.691925 100.94865820312498,92.19937617187499 91.91005937499999,108.84952812499998 86.19761210937497,127.24789726562499 84.20579999999998,147.0 84.20579999999998,147.0 86.19761210937497,166.752102734375 91.91005937499999,185.150471875 100.94865820312498,201.800623828125 112.91892499999997,216.308075 127.42637617187498,228.278341796875 144.07652812499998,237.31694062499997 162.47489726562497,243.029387890625 182.22699999999998,245.0212 182.22699999999998,245.0212 201.34017011718748,243.15786113281249 219.20037968749998,237.8054203125 235.4513775390625,229.3202412109375 249.73691249999996,218.05868749999996 261.7007333984375,204.3771228515625 270.98658906249995,188.63191093749998 277.23822832031243,171.17941542968748 280.09939999999995,152.37599999999998" fill="none" stroke="black" stroke-width="0.1"/>
        </g>
        <polygon class="fil0 str0" id="simplify_218_1" points="198.916,123.467 199.1801,124.8397 199.99960000000002,126.2858 201.85520000000002,127.1374 207.0809,128.5874 214.60920000000002,129.895 221.79450000000003,130.6267 227.90170000000003,131.0073 272.46310000000005,132.35649999999998 313.0613000000001,133.17719999999997 324.3545000000001,133.20029999999997 335.6165000000001,132.74859999999998 342.6651000000001,132.00689999999997 348.1175000000001,131.08119999999997 354.4163000000001,130.23319999999995 357.1536000000001,130.01359999999994 359.3940000000001,130.16019999999995 361.7908000000001,130.65469999999993 364.5790000000001,131.71899999999994 367.10520000000014,133.23359999999994 368.9465000000001,134.77579999999995 370.63620000000014,136.66789999999995 371.74890000000016,138.30689999999996 372.6553000000002,140.04659999999996 372.75542480468766,140.31772050781245 372.8555484375002,140.58883281249996 372.9556697265627,140.85993808593747 373.0557875000002,141.13103749999996 373.1559005859377,141.40213222656246 373.2560078125002,141.67322343749996 373.35610800781274,141.94431230468746 373.4562000000002,142.21539999999996 373.97080000000017,144.59629999999996 374.13960000000014,146.99959999999996 373.97080000000017,149.40289999999996 373.4562000000002,151.78379999999996 373.35610800781274,152.05488769531246 373.2560078125002,152.32597656249996 373.1559005859377,152.59706777343746 373.0557875000002,152.86816249999995 372.9556697265627,153.13926191406244 372.8555484375002,153.41036718749996 372.75542480468766,153.68147949218746 372.6553000000002,153.95259999999996 371.74890000000016,155.69229999999996 370.63620000000014,157.33129999999997 368.9465000000001,159.22339999999997 367.10520000000014,160.76559999999998 364.5790000000001,162.28019999999998 361.7908000000001,163.34449999999998 359.3940000000001,163.83899999999997 357.1536000000001,163.98559999999998 354.4163000000001,163.76599999999996 348.11750000000006,162.91799999999995 342.66510000000005,161.99229999999994 335.61650000000003,161.25059999999993 324.35450000000003,160.79889999999995 313.0613,160.82199999999995 272.4631,161.64269999999993 227.9017,162.99189999999993 221.7945,163.37249999999992 214.6092,164.1041999999999 207.08089999999999,165.41179999999991 201.8552,166.8617999999999 199.9996,167.7133999999999 199.18009999999998,169.1594999999999 198.91599999999997,170.5321999999999 199.69819999999996,174.9446999999999 201.35009999999997,180.8146999999999 201.60439999999997,181.5972999999999 203.06149999999997,185.42809999999992 204.57069999999996,188.6574999999999 204.47669999999997,188.7546999999999 202.62179902343746,189.69450585937489 200.7273296875,190.5526718749999 198.79615488281246,191.3277332031249 196.83113749999998,192.01822499999992 194.83514042968744,192.62268242187488 192.81102656249996,193.13964062499988 190.76165878906247,193.56763476562492 188.68989999999997,193.9051999999999 188.48539999999997,193.86889999999988 187.81389999999996,190.36809999999988 186.73839999999996,186.3759999999999 186.49929999999995,185.6399999999999 184.38539999999995,179.9200999999999 182.23389999999995,175.4986999999999 180.03959999999995,172.0464999999999 178.75179999999995,170.2693999999999 177.57989999999995,169.2351999999999 176.31999999999996,168.3894999999999 175.34129999999996,167.96579999999992 174.30039999999997,167.73329999999993 172.78409999999997,167.67699999999994 171.22799999999998,167.82479999999993 169.14159999999998,168.50559999999993 165.33729999999997,170.00859999999992 160.99779999999998,172.3209999999999 155.92559999999997,175.7059999999999 155.2599,176.1896999999999 152.0668,178.7592999999999 149.4618,181.1923999999999 149.34040000000002,181.1331999999999 147.87336679687502,179.65948105468738 146.47175937500003,178.1229109374999 145.13785351562504,176.5257572265624 143.873925,174.8702874999999 142.68224960937502,173.1587693359374 141.56510312500004,171.39347031249991 140.52476132812498,169.57665800781243 139.5635,167.7105999999999 139.5349,167.5048999999999 142.6568,165.7844999999999 146.1205,163.5284999999999 146.7473,163.0730999999999 151.534,159.2951999999999 155.0742,155.88269999999991 157.67929999999998,152.72899999999993 158.9715,150.95509999999993 159.5929,149.52089999999993 160.00789999999998,148.06139999999994 160.1084,146.99959999999993 160.00789999999998,145.93779999999992 159.5929,144.47839999999994 158.9715,143.04399999999993 157.67919999999998,141.27019999999993 155.0743,138.11659999999992 151.534,134.70389999999992 146.7473,130.9260999999999 146.0796,130.44099999999992 142.651,128.19959999999992 139.532,126.47399999999992 139.5508,126.34019999999992 140.4990451171875,124.48961230468743 141.5272859375,122.68181093749993 142.6340681640625,120.91966347656243 143.81793750000003,119.20603749999992 145.07743964843752,117.54380058593742 146.4111203125,115.93582031249993 147.81752519531253,114.38496425781243 149.29520000000002,112.89409999999992 149.48200000000003,112.80329999999992 152.08300000000003,115.24079999999992 155.29940000000002,117.83809999999993 155.9257,118.29319999999993 160.9978,121.67819999999993 165.33720000000002,123.99059999999993 169.14170000000001,125.49359999999993 171.228,126.17439999999993 172.7841,126.32219999999994 174.3004,126.26589999999995 175.3413,126.03339999999994 176.32,125.60959999999994 176.3201,125.60959999999994 177.5798,124.76389999999995 178.7519,123.72979999999995 180.0396,121.95259999999996 182.2339,118.50059999999996 184.3854,114.07909999999997 186.4993,108.35919999999997 186.7536,107.57669999999997 187.8265,103.62089999999998 188.5038,100.12129999999998 188.63680000000002,100.09789999999998 190.68989238281253,100.42783554687499 192.72700156250002,100.84708437499998 194.74495058593754,101.35514726562498 196.7405625,101.95152499999998 198.71066035156252,102.63571835937499 200.6520671875,103.40722812499999 202.5616060546875,104.26555507812499 204.4361,105.21019999999999 204.58010000000002,105.35979999999999 203.06570000000002,108.5867 201.58980000000003,112.4473 201.35020000000003,113.1845 199.69820000000004,119.0545 198.91600000000005,123.467" fill="none" stroke="black" stroke-width="0.1"/>
        <polygon id="simplify_219" cx="137.657" cy="179.329" points="143.49960000000002,179.329 143.4675936258787,179.9397179994876 143.37192517204736,180.54374484477185 143.21364280210608,181.13446269133507 142.99448069082268,181.70539951083467 142.71684002415097,182.2503 142.38376269133508,182.763194115044 141.99889795733424,183.2384624807123 141.5664624807123,183.67089795733423 141.091194115044,184.05576269133508 140.5783,184.38884002415097 140.03339951083467,184.66648069082268 139.46246269133508,184.88564280210608 138.87174484477185,185.04392517204735 138.26771799948762,185.1395936258787 137.657,185.1716 137.0462820005124,185.1395936258787 136.44225515522817,185.04392517204735 135.85153730866494,184.88564280210608 135.28060048916535,184.66648069082268 134.7357,184.38884002415097 134.22280588495602,184.05576269133508 133.74753751928776,183.67089795733423 133.31510204266579,183.2384624807123 132.93023730866494,182.763194115044 132.59715997584905,182.2503 132.31951930917734,181.70539951083467 132.10035719789394,181.13446269133507 131.94207482795267,180.54374484477185 131.84640637412133,179.9397179994876 131.8144,179.329 131.84640637412133,178.71828200051243 131.94207482795267,178.11425515522816 132.10035719789394,177.52353730866494 132.31951930917734,176.95260048916535 132.59715997584905,176.4077 132.93023730866494,175.894805884956 133.31510204266579,175.41953751928776 133.74753751928773,174.98710204266578 134.22280588495602,174.60223730866494 134.7357,174.26915997584905 135.28060048916532,173.99151930917736 135.85153730866494,173.77235719789394 136.44225515522817,173.61407482795266 137.0462820005124,173.51840637412133 137.657,173.4864 138.2677179994876,173.51840637412133 138.87174484477185,173.61407482795266 139.46246269133508,173.77235719789394 140.03339951083467,173.99151930917733 140.5783,174.26915997584905 141.091194115044,174.60223730866494 141.56646248071226,174.98710204266578 141.99889795733424,175.41953751928773 142.38376269133508,175.894805884956 142.71684002415097,176.4077 142.99448069082266,176.95260048916532 143.21364280210608,177.52353730866494 143.37192517204736,178.11425515522816 143.4675936258787,178.7182820005124" fill="none" stroke="black" stroke-width="0.1"/>
        <polygon id="simplify_220" cx="137.657" cy="179.329" points="143.49960000000002,179.329 143.4675936258787,179.9397179994876 143.37192517204736,180.54374484477185 143.21364280210608,181.13446269133507 142.99448069082268,181.70539951083467 142.71684002415097,182.2503 142.38376269133508,182.763194115044 141.99889795733424,183.2384624807123 141.5664624807123,183.67089795733423 141.091194115044,184.05576269133508 140.5783,184.38884002415097 140.03339951083467,184.66648069082268 139.46246269133508,184.88564280210608 138.87174484477185,185.04392517204735 138.26771799948762,185.1395936258787 137.657,185.1716 137.0462820005124,185.1395936258787 136.44225515522817,185.04392517204735 135.85153730866494,184.88564280210608 135.28060048916535,184.66648069082268 134.7357,184.38884002415097 134.22280588495602,184.05576269133508 133.74753751928776,183.67089795733423 133.31510204266579,183.2384624807123 132.93023730866494,182.763194115044 132.59715997584905,182.2503 132.31951930917734,181.70539951083467 132.10035719789394,181.13446269133507 131.94207482795267,180.54374484477185 131.84640637412133,179.9397179994876 131.8144,179.329 131.84640637412133,178.71828200051243 131.94207482795267,178.11425515522816 132.10035719789394,177.52353730866494 132.31951930917734,176.95260048916535 132.59715997584905,176.4077 132.93023730866494,175.894805884956 133.31510204266579,175.41953751928776 133.74753751928773,174.98710204266578 134.22280588495602,174.60223730866494 134.7357,174.26915997584905 135.28060048916532,173.99151930917736 135.85153730866494,173.77235719789394 136.44225515522817,173.61407482795266 137.0462820005124,173.51840637412133 137.657,173.4864 138.2677179994876,173.51840637412133 138.87174484477185,173.61407482795266 139.46246269133508,173.77235719789394 140.03339951083467,173.99151930917733 140.5783,174.26915997584905 141.091194115044,174.60223730866494 141.56646248071226,174.98710204266578 141.99889795733424,175.41953751928773 142.38376269133508,175.894805884956 142.71684002415097,176.4077 142.99448069082266,176.95260048916532 143.21364280210608,177.52353730866494 143.37192517204736,178.11425515522816 143.4675936258787,178.7182820005124" fill="none" stroke="black" stroke-width="0.1"/>
        <g id="_tag_234_">
            <polygon id="_130186344" points="137.657,176.221 140.348,177.775 140.348,180.883 137.657,182.437 134.966,180.883 134.966,177.775" fill="none" stroke="black" stroke-width="0.1"/>
            <polygon id="_130600448" cx="137.657" cy="179.329" points="143.49960000000002,179.329 143.4675936258787,179.9397179994876 143.37192517204736,180.54374484477185 143.21364280210608,181.13446269133507 142.99448069082268,181.70539951083467 142.71684002415097,182.2503 142.38376269133508,182.763194115044 141.99889795733424,183.2384624807123 141.5664624807123,183.67089795733423 141.091194115044,184.05576269133508 140.5783,184.38884002415097 140.03339951083467,184.66648069082268 139.46246269133508,184.88564280210608 138.87174484477185,185.04392517204735 138.26771799948762,185.1395936258787 137.657,185.1716 137.0462820005124,185.1395936258787 136.44225515522817,185.04392517204735 135.85153730866494,184.88564280210608 135.28060048916535,184.66648069082268 134.7357,184.38884002415097 134.22280588495602,184.05576269133508 133.74753751928776,183.67089795733423 133.31510204266579,183.2384624807123 132.93023730866494,182.763194115044 132.59715997584905,182.2503 132.31951930917734,181.70539951083467 132.10035719789394,181.13446269133507 131.94207482795267,180.54374484477185 131.84640637412133,179.9397179994876 131.8144,179.329 131.84640637412133,178.71828200051243 131.94207482795267,178.11425515522816 132.10035719789394,177.52353730866494 132.31951930917734,176.95260048916535 132.59715997584905,176.4077 132.93023730866494,175.894805884956 133.31510204266579,175.41953751928776 133.74753751928773,174.98710204266578 134.22280588495602,174.60223730866494 134.7357,174.26915997584905 135.28060048916532,173.99151930917736 135.85153730866494,173.77235719789394 136.44225515522817,173.61407482795266 137.0462820005124,173.51840637412133 137.657,173.4864 138.2677179994876,173.51840637412133 138.87174484477185,173.61407482795266 139.46246269133508,173.77235719789394 140.03339951083467,173.99151930917733 140.5783,174.26915997584905 141.091194115044,174.60223730866494 141.56646248071226,174.98710204266578 141.99889795733424,175.41953751928773 142.38376269133508,175.894805884956 142.71684002415097,176.4077 142.99448069082266,176.95260048916532 143.21364280210608,177.52353730866494 143.37192517204736,178.11425515522816 143.4675936258787,178.7182820005124" fill="none" stroke="black" stroke-width="0.1"/>
        </g>
        <polygon id="simplify_221" cx="137.657" cy="179.329" points="143.49960000000002,179.329 143.4675936258787,179.9397179994876 143.37192517204736,180.54374484477185 143.21364280210608,181.13446269133507 142.99448069082268,181.70539951083467 142.71684002415097,182.2503 142.38376269133508,182.763194115044 141.99889795733424,183.2384624807123 141.5664624807123,183.67089795733423 141.091194115044,184.05576269133508 140.5783,184.38884002415097 140.03339951083467,184.66648069082268 139.46246269133508,184.88564280210608 138.87174484477185,185.04392517204735 138.26771799948762,185.1395936258787 137.657,185.1716 137.0462820005124,185.1395936258787 136.44225515522817,185.04392517204735 135.85153730866494,184.88564280210608 135.28060048916535,184.66648069082268 134.7357,184.38884002415097 134.22280588495602,184.05576269133508 133.74753751928776,183.67089795733423 133.31510204266579,183.2384624807123 132.93023730866494,182.763194115044 132.59715997584905,182.2503 132.31951930917734,181.70539951083467 132.10035719789394,181.13446269133507 131.94207482795267,180.54374484477185 131.84640637412133,179.9397179994876 131.8144,179.329 131.84640637412133,178.71828200051243 131.94207482795267,178.11425515522816 132.10035719789394,177.52353730866494 132.31951930917734,176.95260048916535 132.59715997584905,176.4077 132.93023730866494,175.894805884956 133.31510204266579,175.41953751928776 133.74753751928773,174.98710204266578 134.22280588495602,174.60223730866494 134.7357,174.26915997584905 135.28060048916532,173.99151930917736 135.85153730866494,173.77235719789394 136.44225515522817,173.61407482795266 137.0462820005124,173.51840637412133 137.657,173.4864 138.2677179994876,173.51840637412133 138.87174484477185,173.61407482795266 139.46246269133508,173.77235719789394 140.03339951083467,173.99151930917733 140.5783,174.26915997584905 141.091194115044,174.60223730866494 141.56646248071226,174.98710204266578 141.99889795733424,175.41953751928773 142.38376269133508,175.894805884956 142.71684002415097,176.4077 142.99448069082266,176.95260048916532 143.21364280210608,177.52353730866494 143.37192517204736,178.11425515522816 143.4675936258787,178.7182820005124" fill="none" stroke="black" stroke-width="0.1"/>
        <g id="_tag_235_">
            <polygon id="_130620664" points="137.657,176.221 140.348,177.775 140.348,180.883 137.657,182.437 134.966,180.883 134.966,177.775" fill="none" stroke="black" stroke-width="0.1"/>
            <polygon id="_130864128" cx="137.657" cy="179.329" points="143.49960000000002,179.329 143.4675936258787,179.9397179994876 143.37192517204736,180.54374484477185 143.21364280210608,181.13446269133507 142.99448069082268,181.70539951083467 142.71684002415097,182.2503 142.38376269133508,182.763194115044 141.99889795733424,183.2384624807123 141.5664624807123,183.67089795733423 141.091194115044,184.05576269133508 140.5783,184.38884002415097 140.03339951083467,184.66648069082268 139.46246269133508,184.88564280210608 138.87174484477185,185.04392517204735 138.26771799948762,185.1395936258787 137.657,185.1716 137.0462820005124,185.1395936258787 136.44225515522817,185.04392517204735 135.85153730866494,184.88564280210608 135.28060048916535,184.66648069082268 134.7357,184.38884002415097 134.22280588495602,184.05576269133508 133.74753751928776,183.67089795733423 133.31510204266579,183.2384624807123 132.93023730866494,182.763194115044 132.59715997584905,182.2503 132.31951930917734,181.70539951083467 132.10035719789394,181.13446269133507 131.94207482795267,180.54374484477185 131.84640637412133,179.9397179994876 131.8144,179.329 131.84640637412133,178.71828200051243 131.94207482795267,178.11425515522816 132.10035719789394,177.52353730866494 132.31951930917734,176.95260048916535 132.59715997584905,176.4077 132.93023730866494,175.894805884956 133.31510204266579,175.41953751928776 133.74753751928773,174.98710204266578 134.22280588495602,174.60223730866494 134.7357,174.26915997584905 135.28060048916532,173.99151930917736 135.85153730866494,173.77235719789394 136.44225515522817,173.61407482795266 137.0462820005124,173.51840637412133 137.657,173.4864 138.2677179994876,173.51840637412133 138.87174484477185,173.61407482795266 139.46246269133508,173.77235719789394 140.03339951083467,173.99151930917733 140.5783,174.26915997584905 141.091194115044,174.60223730866494 141.56646248071226,174.98710204266578 141.99889795733424,175.41953751928773 142.38376269133508,175.894805884956 142.71684002415097,176.4077 142.99448069082266,176.95260048916532 143.21364280210608,177.52353730866494 143.37192517204736,178.11425515522816 143.4675936258787,178.7182820005124" fill="none" stroke="black" stroke-width="0.1"/>
        </g>
        <g id="_tag_236_">
            <polygon id="_130602352" cx="137.657" cy="179.329" points="143.49960000000002,179.329 143.4675936258787,179.9397179994876 143.37192517204736,180.54374484477185 143.21364280210608,181.13446269133507 142.99448069082268,181.70539951083467 142.71684002415097,182.2503 142.38376269133508,182.763194115044 141.99889795733424,183.2384624807123 141.5664624807123,183.67089795733423 141.091194115044,184.05576269133508 140.5783,184.38884002415097 140.03339951083467,184.66648069082268 139.46246269133508,184.88564280210608 138.87174484477185,185.04392517204735 138.26771799948762,185.1395936258787 137.657,185.1716 137.0462820005124,185.1395936258787 136.44225515522817,185.04392517204735 135.85153730866494,184.88564280210608 135.28060048916535,184.66648069082268 134.7357,184.38884002415097 134.22280588495602,184.05576269133508 133.74753751928776,183.67089795733423 133.31510204266579,183.2384624807123 132.93023730866494,182.763194115044 132.59715997584905,182.2503 132.31951930917734,181.70539951083467 132.10035719789394,181.13446269133507 131.94207482795267,180.54374484477185 131.84640637412133,179.9397179994876 131.8144,179.329 131.84640637412133,178.71828200051243 131.94207482795267,178.11425515522816 132.10035719789394,177.52353730866494 132.31951930917734,176.95260048916535 132.59715997584905,176.4077 132.93023730866494,175.894805884956 133.31510204266579,175.41953751928776 133.74753751928773,174.98710204266578 134.22280588495602,174.60223730866494 134.7357,174.26915997584905 135.28060048916532,173.99151930917736 135.85153730866494,173.77235719789394 136.44225515522817,173.61407482795266 137.0462820005124,173.51840637412133 137.657,173.4864 138.2677179994876,173.51840637412133 138.87174484477185,173.61407482795266 139.46246269133508,173.77235719789394 140.03339951083467,173.99151930917733 140.5783,174.26915997584905 141.091194115044,174.60223730866494 141.56646248071226,174.98710204266578 141.99889795733424,175.41953751928773 142.38376269133508,175.894805884956 142.71684002415097,176.4077 142.99448069082266,176.95260048916532 143.21364280210608,177.52353730866494 143.37192517204736,178.11425515522816 143.4675936258787,178.7182820005124" fill="none" stroke="black" stroke-width="0.1"/>
            <polygon id="_130820648" points="137.657,176.221 140.348,177.775 140.348,180.883 137.657,182.437 134.966,180.883 134.966,177.775" fill="none" stroke="black" stroke-width="0.1"/>
        </g>
        <g id="_tag_237_">
            <polygon id="_130599096" points="200.9554627242,193.7523543718 201.52639983892684,193.97151650200036 202.07130061972472,194.24915721834503 202.58419501961146,194.5822346310457 203.05946366021183,194.96709947426785 203.49189939884306,195.39953508825107 203.8767643790597,195.8748036179155 204.20984193960032,196.38769792179383 204.48748281301067,196.93259862256278 204.7066451077816,197.50353567411688 204.86492763594896,198.09425377064306 204.96059622101134,198.69828088106004 204.9926026979309,199.30899915794535 204.96059639704868,199.91971744405637 204.86492798609495,200.5237445820495 204.7066456282,201.1144627242 204.48748349799965,201.68539983892683 204.20984278165497,202.23030061972472 203.8767653689543,202.74319501961145 203.49190052573215,203.21846366021182 203.05946491174896,203.65089939884305 202.5841963820845,204.03576437905969 202.07130207820617,204.36884193960032 201.52640137743722,204.64648281301066 200.95546432588313,204.8656451077816 200.36474622935694,205.02392763594895 199.76071911893996,205.1195962210113 199.15000084205465,205.15160269793088 198.53928255594363,205.11959639704867 197.93525541795051,205.02392798609495 197.3445372758,204.86564562819999 196.77360016107318,204.64648349799964 196.2286993802753,204.36884278165496 195.71580498038855,204.0357653689543 195.24053633978818,203.65090052573214 194.80810060115695,203.21846491174895 194.42323562094032,202.7431963820845 194.0901580603997,202.23030207820617 193.81251718698934,201.68540137743722 193.5933548922184,201.11446432588312 193.43507236405105,200.52374622935693 193.3394037789887,199.91971911893995 193.30739730206912,199.30900084205464 193.33940360295134,198.69828255594362 193.43507201390506,198.09425541795054 193.59335437180002,197.5035372758 193.81251650200036,196.93260016107317 194.09015721834504,196.38769938027528 194.42323463104572,195.87480498038855 194.80809947426786,195.39953633978817 195.24053508825105,194.96710060115694 195.7158036179155,194.5822356209403 196.22869792179384,194.24915806039968 196.7735986225628,193.97151718698933 197.34453567411688,193.7523548922184 197.93525377064307,193.59407236405104 198.53928088106005,193.4984037789887 199.14999915794536,193.4663973020691 199.76071744405638,193.49840360295133 200.36474458204947,193.59407201390505" fill="none" stroke="black" stroke-width="0.1"/>
            <polygon id="_129694680" points="196.195,198.349 198.504,196.27 201.46,197.23 202.106,200.27 199.796,202.349 196.841,201.389" fill="none" stroke="black" stroke-width="0.1"/>
        </g>
        <g id="_tag_238_">
            <polygon id="_130602280" points="139.4624627242,120.22764562820001 138.8717445820495,120.38592798609496 138.2677174440564,120.48159639704869 137.65699915794536,120.51360269793088 137.04628088106006,120.48159622101133 136.44225377064308,120.38592763594895 135.8515356741169,120.22764510778161 135.2805986225628,120.00848281301069 134.73569792179387,119.73084193960032 134.2228036179155,119.3977643790597 133.74753508825108,119.01289939884306 133.31509947426787,118.58046366021185 132.93023463104572,118.10519501961147 132.59715721834505,117.59230061972472 132.31951650200037,117.04739983892682 132.10035437180002,116.4764627242 131.94207201390506,115.88574458204948 131.84640360295134,115.28171744405638 131.81439730206912,114.67099915794536 131.84640377898867,114.06028088106007 131.94207236405106,113.45625377064306 132.1003548922184,112.86553567411688 132.31951718698934,112.29459862256279 132.5971580603997,111.74969792179385 132.93023562094032,111.2368036179155 133.31510060115696,110.76153508825107 133.74753633978818,110.32909947426788 134.22280498038853,109.9442346310457 134.7356993802753,109.61115721834504 135.28060016107318,109.33351650200036 135.8515372758,109.1143543718 136.44225541795052,108.95607201390506 137.04628255594363,108.86040360295132 137.65700084205466,108.82839730206913 138.26771911893997,108.86040377898868 138.87174622935694,108.95607236405107 139.46246432588313,109.1143548922184 140.03340137743723,109.33351718698933 140.57830207820615,109.61115806039969 141.09119638208452,109.94423562094032 141.56646491174894,110.32910060115695 141.99890052573213,110.76153633978817 142.3837653689543,111.23680498038854 142.71684278165498,111.74969938027527 142.99448349799965,112.29460016107318 143.2136456282,112.86553727580001 143.37192798609496,113.45625541795053 143.46759639704868,114.06028255594363 143.4996026979309,114.67100084205465 143.46759622101135,115.28171911893995 143.37192763594896,115.88574622935694 143.21364510778162,116.47646432588311 142.99448281301068,117.04740137743721 142.71684193960033,117.59230207820616 142.3837643790597,118.10519638208451 141.99889939884307,118.58046491174895 141.56646366021184,119.01290052573214 141.0911950196115,119.39776536895431 140.57830061972473,119.73084278165497 140.03339983892684,120.00848349799963" fill="none" stroke="black" stroke-width="0.1"/>
            <polygon id="_130623704" points="140.613,113.711 139.967,116.751 137.011,117.711 134.702,115.631 135.348,112.592 138.303,111.631" fill="none" stroke="black" stroke-width="0.1"/>
        </g>
        <g id="_tag_239_">
            <polygon id="_129199336" points="194.4232372758,98.124892641 194.0901600972437,97.61199853059566 193.81251958350157,97.06709806216907 193.59335762214218,96.4961612792801 193.43507539747677,95.90544348479827 193.33940708268148,95.30141670649559 193.30740083983304,94.69069878815584 193.3394073360259,94.07998088309331 193.43507590138992,93.4759541444768 193.59335837110308,92.88523641565533 193.81252056930444,92.31429972368147 194.09016130908788,91.76939937042869 194.42323870040826,91.25650539819495 194.80810347766538,90.78123718067 195.24053898182146,90.34880185590134 195.715807359,89.9639372758 196.22870146940437,89.63086009724371 196.77360193783093,89.35321958350157 197.34453872071992,89.13405762214218 197.93525651520173,88.97577539747678 198.53928329350444,88.88010708268146 199.15000121184417,88.84810083983305 199.7607191169067,88.88010733602589 200.3647458555232,88.97577590138991 200.9554635843447,89.13405837110307 201.52640027631855,89.35322056930443 202.0713006295713,89.63086130908788 202.58419460180505,89.96393870040828 203.05946281933,90.34880347766538 203.49189814409868,90.78123898182146 203.8767627242,91.25650735900001 204.2098399027563,91.76940146940436 204.48748041649844,92.31430193783095 204.70664237785783,92.88523872071991 204.86492460252325,93.47595651520174 204.96059291731854,94.07998329350443 204.99259916016698,94.69070121184417 204.96059266397413,95.3014191169067 204.8649240986101,95.90544585552321 204.70664162889693,96.49616358434469 204.48747943069557,97.06710027631854 204.20983869091214,97.61200062957133 203.87676129959175,98.12489460180507 203.49189652233463,98.60016281933001 203.05946101817855,99.03259814409867 202.58419264100002,99.4174627242 202.07129853059564,99.7505399027563 201.52639806216908,100.02818041649844 200.9554612792801,100.24734237785783 200.36474348479828,100.40562460252323 199.76071670649557,100.50129291731855 199.14999878815584,100.53329916016696 198.5392808830933,100.50129266397413 197.9352541444768,100.4056240986101 197.3445364156553,100.24734162889695 196.77359972368146,100.02817943069559 196.2286993704287,99.75053869091214 195.71580539819496,99.41746129959174 195.24053718067,99.03259652233463 194.80810185590133,98.60016101817855" fill="none" stroke="black" stroke-width="0.1"/>
            <polygon id="_129199312" points="200.977,97.2049 197.886,97.5297 196.06,95.0155 197.324,92.1765 200.414,91.8517 202.241,94.3659" fill="none" stroke="black" stroke-width="0.1"/>
        </g>
        <polygon id="simplify_222" cx="357.154" cy="147" points="364.1184,147.0 364.0802482881028,147.72797802958124 363.9662111505505,148.4479801795312 363.777538002086,149.15211795562487 363.5162959852061,149.8326766770371 363.18534732211634,150.4822 362.7883179556249,151.0935716110657 362.32955782255476,151.66009319492562 361.81409319492565,152.17555782255477 361.2475716110657,152.63431795562488 360.6362,153.03134732211635 359.9866766770371,153.36229598520612 359.30611795562487,153.62353800208598 358.6019801795312,153.81221115055052 357.88197802958126,153.9262482881028 357.154,153.9644 356.42602197041873,153.9262482881028 355.7060198204688,153.81221115055052 355.0018820443751,153.62353800208598 354.3213233229629,153.36229598520612 353.6718,153.03134732211635 353.06042838893427,152.63431795562488 352.49390680507435,152.17555782255477 351.97844217744523,151.66009319492562 351.5196820443751,151.0935716110657 351.12265267788365,150.4822 350.7917040147939,149.8326766770371 350.530461997914,149.15211795562487 350.3417888494495,148.4479801795312 350.2277517118972,147.72797802958124 350.1896,147.0 350.2277517118972,146.27202197041876 350.3417888494495,145.5520198204688 350.530461997914,144.84788204437513 350.7917040147939,144.1673233229629 351.12265267788365,143.5178 351.5196820443751,142.9064283889343 351.97844217744523,142.33990680507438 352.49390680507435,141.82444217744523 353.06042838893427,141.36568204437512 353.6718,140.96865267788365 354.3213233229629,140.63770401479388 355.0018820443751,140.37646199791402 355.7060198204688,140.18778884944948 356.42602197041873,140.0737517118972 357.154,140.0356 357.88197802958126,140.0737517118972 358.6019801795312,140.18778884944948 359.30611795562487,140.37646199791402 359.9866766770371,140.63770401479388 360.6362,140.96865267788365 361.2475716110657,141.36568204437512 361.81409319492565,141.82444217744523 362.32955782255476,142.33990680507435 362.7883179556249,142.9064283889343 363.18534732211634,143.5178 363.5162959852061,144.1673233229629 363.777538002086,144.84788204437513 363.9662111505505,145.5520198204688 364.0802482881028,146.27202197041873" fill="none" stroke="black" stroke-width="0.1"/>
        <g id="simplify_223_1">
            <polyline class="fil2 str0" id="simplify_223___0" points="195.234,136.386 210.0,141.1559 221.9121,143.4753 227.424,143.8162" fill="none" stroke="black" stroke-width="0.1"/>
            <polyline class="fil2 str0" id="simplify_223___1" points="318.4818,140.0864 330.9078,138.3263 341.7122,135.6894" fill="none" stroke="black" stroke-width="0.1"/>
            <polyline class="fil2 str0" id="simplify_223___2" points="341.7122,158.3112 330.9078,155.67430000000002 318.4818,153.91420000000002" fill="none" stroke="black" stroke-width="0.1"/>
            <polyline class="fil2 str0" id="simplify_223___3" points="227.42400000000004,150.1844 221.91210000000004,150.52530000000002 210.00000000000003,152.84470000000002 195.23400000000004,157.61440000000002" fill="none" stroke="black" stroke-width="0.1"/>
        </g>
        <polyline class="fil2 str0" id="simplify_224_1" points="188.5,158.375 187.7826330078125,158.74741640624998 187.0401703125,159.07585 186.2743193359375,159.35855234374998 185.4867875,159.593775 184.6792822265625,159.77976953125 183.8535109375,159.91478750000002 183.0111810546875,159.99708046875 182.154,160.0249 182.154,160.0249 179.529392578125,159.760233203125 177.084665625,159.00117812500002 174.872237109375,157.80015273437502 172.944525,156.209575 171.35394726562498,154.281862890625 170.152921875,152.069434375 169.393866796875,149.624707421875 169.1292,147.0001 169.1292,147.0001 169.393866796875,144.375492578125 170.152921875,141.93076562500002 171.353947265625,139.718337109375 172.944525,137.790625 174.872237109375,136.200047265625 177.084665625,134.99902187499998 179.529392578125,134.239966796875 182.154,133.9753 182.154,133.9753 183.0111810546875,134.003098046875 183.8535109375,134.085334375 184.6792822265625,134.220272265625 185.4867875,134.40617500000002 186.2743193359375,134.64130585937502 187.04017031249998,134.923928125 187.7826330078125,135.252305078125 188.5,135.62470000000002" fill="none" stroke="black" stroke-width="0.1"/>
        <polygon id="simplify_225" cx="182.154" cy="147" points="192.4223,147.0 192.36604917821003,148.07332961937124 192.19791300861493,149.134899614824 191.9197336262735,150.17307920334028 191.53455882271152,151.17649387209525 191.04660865367975,152.13415 190.46122920334028,153.03555530611482 189.78483401144953,153.87083380527466 189.02483380527465,154.63083401144954 188.1895553061148,155.30722920334028 187.28815,155.89260865367976 186.33049387209525,156.38055882271152 185.32707920334028,156.76573362627352 184.288899614824,157.04391300861494 183.22732961937123,157.21204917821004 182.154,157.2683 181.08067038062876,157.21204917821004 180.019100385176,157.04391300861494 178.98092079665972,156.76573362627352 177.97750612790475,156.38055882271152 177.01985,155.89260865367976 176.1184446938852,155.30722920334028 175.28316619472534,154.63083401144954 174.52316598855046,153.87083380527466 173.8467707966597,153.03555530611482 173.26139134632024,152.13415 172.77344117728848,151.17649387209525 172.38826637372648,150.17307920334028 172.11008699138506,149.134899614824 171.94195082178996,148.07332961937124 171.88569999999999,147.0 171.94195082178996,145.92667038062876 172.11008699138506,144.865100385176 172.38826637372648,143.82692079665972 172.77344117728848,142.82350612790478 173.26139134632024,141.86585 173.8467707966597,140.9644446938852 174.52316598855046,140.12916619472534 175.28316619472534,139.36916598855046 176.11844469388518,138.69277079665972 177.01985,138.10739134632024 177.97750612790475,137.61944117728848 178.98092079665972,137.23426637372648 180.019100385176,136.95608699138506 181.08067038062873,136.78795082178996 182.154,136.7317 183.22732961937123,136.78795082178996 184.28889961482398,136.95608699138506 185.32707920334028,137.23426637372648 186.33049387209522,137.61944117728848 187.28815,138.10739134632024 188.18955530611478,138.69277079665972 189.02483380527465,139.36916598855046 189.7848340114495,140.12916619472534 190.46122920334028,140.96444469388518 191.04660865367975,141.86585 191.53455882271152,142.82350612790475 191.9197336262735,143.82692079665972 192.19791300861493,144.865100385176 192.36604917821003,145.92667038062874" fill="none" stroke="black" stroke-width="0.1"/>
        <polygon id="simplify_226" cx="182.154" cy="147" points="188.50379999999998,147.0 188.46901513120946,147.66373483605693 188.3650416351395,148.32019765435462 188.19301866717097,148.96219611088205 187.95483094693898,149.58269633620273 187.6530881089504,150.1749 187.29109611088205,150.73231879500673 186.87282101281636,151.2488455242575 186.4028455242575,151.71882101281636 185.88631879500673,152.13709611088206 185.3289,152.49908810895042 184.73669633620273,152.800830946939 184.11619611088204,153.03901866717098 183.4741976543546,153.2110416351395 182.81773483605696,153.31501513120946 182.154,153.3498 181.49026516394306,153.31501513120946 180.83380234564538,153.2110416351395 180.19180388911795,153.03901866717098 179.5713036637973,152.800830946939 178.9791,152.49908810895042 178.42168120499326,152.13709611088206 177.9051544757425,151.71882101281636 177.43517898718363,151.2488455242575 177.01690388911794,150.73231879500673 176.65491189104958,150.1749 176.353169053061,149.58269633620273 176.11498133282902,148.96219611088205 175.9429583648605,148.32019765435462 175.83898486879053,147.66373483605696 175.8042,147.0 175.83898486879053,146.33626516394307 175.9429583648605,145.67980234564538 176.11498133282902,145.03780388911795 176.353169053061,144.4173036637973 176.65491189104958,143.8251 177.01690388911794,143.26768120499327 177.43517898718363,142.7511544757425 177.9051544757425,142.28117898718364 178.42168120499326,141.86290388911794 178.9791,141.50091189104958 179.57130366379727,141.199169053061 180.19180388911795,140.96098133282902 180.83380234564538,140.7889583648605 181.49026516394304,140.68498486879054 182.154,140.6502 182.81773483605693,140.68498486879054 183.4741976543546,140.7889583648605 184.11619611088204,140.96098133282902 184.7366963362027,141.199169053061 185.3289,141.50091189104955 185.88631879500673,141.86290388911794 186.40284552425746,142.28117898718364 186.87282101281636,142.7511544757425 187.29109611088205,143.26768120499327 187.6530881089504,143.8251 187.95483094693898,144.41730366379727 188.19301866717097,145.03780388911795 188.3650416351395,145.67980234564538 188.46901513120946,146.33626516394304" fill="none" stroke="black" stroke-width="0.1"/>
        <polygon id="simplify_227" points="182.227,142.647 185.997,144.824 185.997,149.176 182.227,151.353 178.458,149.176 178.458,144.824" fill="none" stroke="black" stroke-width="0.1"/>
        <g id="simplify_228_1">
            <polygon class="fil0 str0" id="simplify_228___0" points="215.249,79.7164 215.2527,79.67099999999999 212.4552,78.36649999999999 210.3636,80.43579999999999 209.2523,81.64859999999999 207.7326,82.27809999999998 206.41289999999998,82.27809999999998 205.1727,81.82669999999997 204.1618,80.97839999999998 203.4022,79.51929999999997 203.3305,77.87589999999997 203.0583,74.94629999999998 200.0768,74.14739999999998 198.3763,76.54849999999998 197.49249999999998,77.93579999999997 197.11579999999998,78.17579999999997 197.29199999999997,78.62749999999997 198.62019999999998,80.94959999999998 200.64159999999998,82.53469999999997 202.8729,83.44229999999997 202.8663,83.56029999999997 205.2003,84.13629999999996 207.7673,84.04199999999996 210.20680000000002,82.94409999999996 213.35060000000001,80.92659999999997 215.24900000000002,79.71639999999996" fill="none" stroke="black" stroke-width="0.1"/>
            <polygon class="fil0 str0" id="simplify_228___1" points="128.4062,94.66879999999996 128.0231,95.05189999999996 129.1307,97.46079999999996 129.0051,96.98179999999996 128.4062,94.66879999999996" fill="none" stroke="black" stroke-width="0.1"/>
            <polygon class="fil0 str0" id="simplify_228___2" points="130.00220000000002,101.05109999999996 129.6322,102.06769999999996 128.78390000000002,103.07869999999996 127.64090000000002,103.73859999999995 126.01010000000002,103.95329999999994 124.44130000000003,103.45859999999995 121.59520000000003,102.71239999999995 119.82480000000004,105.24079999999995 121.49940000000004,107.65999999999995 122.50080000000004,108.96499999999996 122.85690000000004,110.57099999999996 122.71690000000004,111.36459999999995 124.47510000000004,110.99819999999995 126.60720000000003,109.56579999999995 128.16000000000003,107.72409999999995 128.27000000000004,107.76679999999995 129.53920000000005,105.72499999999995 130.24270000000004,103.25449999999995 130.00220000000004,101.05109999999995" fill="none" stroke="black" stroke-width="0.1"/>
            <polygon class="fil0 str0" id="simplify_228___3" points="122.69910000000004,182.53429999999994 122.85690000000004,183.42899999999995 122.50080000000004,185.03499999999994 121.49940000000004,186.33999999999995 119.82480000000004,188.75919999999994 121.59520000000003,191.28759999999994 124.44130000000004,190.54139999999995 126.01010000000004,190.04669999999996 127.64090000000003,190.26139999999995 128.78390000000002,190.92129999999995 129.6322,191.93229999999994 129.9285,192.74629999999993 130.14090000000002,190.80019999999993 129.43740000000003,188.32969999999995 128.16570000000002,186.28379999999996 128.24030000000002,186.19229999999996 126.69070000000002,184.35429999999997 124.55850000000002,182.92169999999996 122.69910000000003,182.53429999999994" fill="none" stroke="black" stroke-width="0.1"/>
            <polygon class="fil0 str0" id="simplify_228___4" points="128.92720000000003,196.98179999999994 128.02310000000003,198.94809999999993 128.33660000000003,199.26159999999993 128.90330000000003,197.07289999999992 128.92720000000003,196.9817999999999" fill="none" stroke="black" stroke-width="0.1"/>
            <polygon class="fil0 str0" id="simplify_228___5" points="197.04310000000004,215.7778999999999 197.49250000000004,216.06419999999991 198.37630000000004,217.45149999999992 200.07680000000005,219.85259999999994 203.05830000000006,219.05369999999994 203.33050000000006,216.12409999999994 203.40220000000005,214.48069999999993 204.16180000000006,213.02159999999992 205.17270000000005,212.17329999999993 206.41290000000004,211.72189999999992 207.73260000000005,211.72189999999992 209.25230000000005,212.35139999999993 210.36360000000005,213.56419999999991 212.45520000000005,215.6334999999999 215.20050000000003,214.3532999999999 213.37110000000004,213.1870999999999 210.22730000000004,211.1695999999999 207.78790000000004,210.07159999999988 205.22080000000003,209.97739999999988 202.8822,210.55469999999988 202.81820000000002,210.45529999999988 200.59140000000002,211.36119999999988 198.57010000000002,212.94639999999987 197.2418,215.26849999999988 197.0431,215.77789999999987" fill="none" stroke="black" stroke-width="0.1"/>
        </g>
    </g>
    <polygon id="center_00" cx="182.154" cy="147" points="188.50379999999998,147.0 188.46901513120946,147.66373483605693 188.3650416351395,148.32019765435462 188.19301866717097,148.96219611088205 187.95483094693898,149.58269633620273 187.6530881089504,150.1749 187.29109611088205,150.73231879500673 186.87282101281636,151.2488455242575 186.4028455242575,151.71882101281636 185.88631879500673,152.13709611088206 185.3289,152.49908810895042 184.73669633620273,152.800830946939 184.11619611088204,153.03901866717098 183.4741976543546,153.2110416351395 182.81773483605696,153.31501513120946 182.154,153.3498 181.49026516394306,153.31501513120946 180.83380234564538,153.2110416351395 180.19180388911795,153.03901866717098 179.5713036637973,152.800830946939 178.9791,152.49908810895042 178.42168120499326,152.13709611088206 177.9051544757425,151.71882101281636 177.43517898718363,151.2488455242575 177.01690388911794,150.73231879500673 176.65491189104958,150.1749 176.353169053061,149.58269633620273 176.11498133282902,148.96219611088205 175.9429583648605,148.32019765435462 175.83898486879053,147.66373483605696 175.8042,147.0 175.83898486879053,146.33626516394307 175.9429583648605,145.67980234564538 176.11498133282902,145.03780388911795 176.353169053061,144.4173036637973 176.65491189104958,143.8251 177.01690388911794,143.26768120499327 177.43517898718363,142.7511544757425 177.9051544757425,142.28117898718364 178.42168120499326,141.86290388911794 178.9791,141.50091189104958 179.57130366379727,141.199169053061 180.19180388911795,140.96098133282902 180.83380234564538,140.7889583648605 181.49026516394304,140.68498486879054 182.154,140.6502 182.81773483605693,140.68498486879054 183.4741976543546,140.7889583648605 184.11619611088204,140.96098133282902 184.7366963362027,141.199169053061 185.3289,141.50091189104955 185.88631879500673,141.86290388911794 186.40284552425746,142.28117898718364 186.87282101281636,142.7511544757425 187.29109611088205,143.26768120499327 187.6530881089504,143.8251 187.95483094693898,144.41730366379727 188.19301866717097,145.03780388911795 188.3650416351395,145.67980234564538 188.46901513120946,146.33626516394304" fill="none" stroke="black" stroke-width="0.1"/>
</svg>
