<!DOCTYPE svg PUBLIC "-//W3C//DTD SVG 1.1//EN" "http://www.w3.org/Graphics/SVG/1.1/DTD/svg11.dtd">
<svg xmlns="http://www.w3.org/2000/svg" width="297mm" height="210mm" viewBox="0 0 297 210">
    <defs id="_tag_48_"/>
    <g id="_12">
        <polygon points="73.8511,161.614 73.8511,161.6141 72.05241171875001,161.54935390625002 70.26991875,161.35634375 68.51025390625,161.03702421875002 66.78004999999999,160.59335000000002 65.08593984375,160.02727578125 63.43455625,159.34075625000003 61.83253203125,158.53574609375002 60.286500000000004,157.6142 57.827000000000005,149.9284 57.248411523437504,149.35612421875 56.602748437500004,148.88252500000002 55.902239257812504,148.51101953125 55.159112500000006,148.245025 54.38559667968751,148.08795859375002 53.5939203125,148.0432375 52.79631191406251,148.11427890625004 52.005,148.30450000000002 52.005,148.30450000000002 51.25031953125,148.60904160156252 50.55969375,149.0142578125 49.941096093750005,149.5102732421875 49.4025,150.08721250000002 48.95187890625,150.73520019531253 48.597206250000006,151.44436093750002 48.34645546875,152.20481933593751 48.2076,153.00670000000002 51.8649,164.43580000000003 54.2476,175.86690000000004 42.5287,174.88770000000005 43.23648828125,174.15109960937502 43.821075,173.33293437500004 44.278405468749995,172.44818320312507 44.604425000000006,171.51182500000004 44.79507890625,170.53883867187506 44.846312499999996,169.54420312500008 44.75407109375,168.54289726562504 44.5143,167.54990000000006 41.1628,157.07640000000006 41.1628,157.07650000000007 40.7205853515625,155.2504615234376 40.547082812499994,153.40862968750005 40.63511699218749,151.57809238281257 40.977512499999996,149.78593750000007 41.5670939453125,148.05925292968757 42.396685937499996,146.42512656250005 43.4591130859375,144.91064628906256 44.7472,143.54290000000006 44.7472,143.54290000000006 47.2076236328125,141.14807792968756 49.5215265625,138.62279218750004 51.6841943359375,135.97395097656255 53.690912499999996,133.20846250000005 55.5369666015625,130.33323496093757 57.2176421875,127.35517656250006 58.7282248046875,124.28119550781255 60.064,121.11820000000006 63.9712,111.91310000000006 75.93780000000001,116.99250000000006 72.45210000000002,124.19320000000006 71.65346601562501,125.93688496093758 70.93077187500002,127.71057343750006 70.28474179687501,129.51176582031258 69.71610000000001,131.33796250000006 69.22557070312502,133.18666386718758 68.81387812500002,135.05537031250006 68.48174648437501,136.94158222656256 68.22990000000001,138.84280000000007 68.22990000000001,138.84280000000007 68.18729941406252,139.58377421875008 68.22280781250001,140.31895000000006 68.33456542968752,141.04251953125006 68.5207125,141.74867500000005 68.77938925781251,142.43160859375007 69.10873593750001,143.08551250000005 69.50689277343751,143.70457890625008 69.97200000000001,144.28300000000007 69.97200000000001,144.28300000000007 70.49569785156251,144.8089964843751 71.0671578125,145.27292812500008 71.68081699218752,145.67230820312508 72.33111250000002,146.00465000000008 73.0124814453125,146.26746679687508 73.7193609375,146.4582718750001 74.44618808593751,146.5745785156251 75.18740000000001,146.6139000000001 93.54410000000001,146.61380000000008 93.54420000000002,161.61380000000008 73.85110000000002,161.6140000000001" fill="none" stroke="black" stroke-width="0.1" id="_new_37_1"/>
        <polygon points="43.4962,156.33 43.4962,156.3297 43.1586345703125,154.970473828125 43.0050265625,153.596709375 43.031608398437506,152.22575273437502 43.2346125,150.87495 43.6102712890625,149.561647265625 44.1548171875,148.303190625 44.864482617187505,147.116926171875 45.7355,146.0202 45.7355,146.0202 46.7438599609375,145.0482439453125 47.856792187500005,144.22833281249999 49.05738769531251,143.5658771484375 50.3287375,143.0662875 51.65393261718751,142.7349744140625 53.01606406250001,142.5773484375 54.3982228515625,142.5988201171875 55.783500000000004,142.8048 55.783500000000004,142.8048 57.1293923828125,143.1920703125 58.3959078125,143.745925 59.5699037109375,144.4544296875 60.6382375,145.30565 61.58776660156251,146.2876515625 62.40534843750001,147.3885 63.0778404296875,148.5962609375 63.5921,149.899 67.0384,160.6681 66.1476873046875,160.39781445312502 65.2685609375,160.094896875 64.4019009765625,159.759743359375 63.5485875,159.39275000000004 62.7095005859375,158.99431289062503 61.88552031249999,158.56482812500002 61.0775267578125,158.104691796875 60.28639999999999,157.61430000000001 57.82699999999999,149.92870000000002 57.24841152343749,149.35642421875002 56.60274843749999,148.88282500000003 55.90223925781249,148.51131953125002 55.15911249999999,148.24532500000004 54.385596679687495,148.08825859375003 53.59392031249999,148.0435375 52.79631191406249,148.11457890625002 52.00499999999999,148.30480000000003 52.00499999999999,148.30480000000003 51.250319531249986,148.60934160156253 50.55969374999999,149.01455781250002 49.94109609374999,149.51057324218755 49.40249999999999,150.08751250000003 48.95187890624999,150.73550019531254 48.59720624999999,151.44466093750003 48.34645546874999,152.20511933593752 48.207599999999985,153.00700000000003 51.864899999999984,164.43610000000004 54.88669999999998,178.93400000000003 55.001530664062486,179.66245371093754 55.04418906249998,180.39336718750005 55.01563730468748,181.12160644531252 54.916837499999986,181.8420375 54.748751757812485,182.54952636718753 54.51234218749998,183.23893906250004 54.208570898437486,183.90514160156255 53.838399999999986,184.54300000000003 53.838399999999986,184.54300000000003 52.76619335937499,185.97227675781255 51.52667812499999,187.22445156250004 50.14161132812499,188.28890371093755 48.63274999999999,189.15501250000005 47.021851171874985,189.81215722656253 45.33067187499998,190.24971718750004 43.58096914062499,190.45707167968752 41.794499999999985,190.42360000000002 43.794499999999985,186.95940000000002 42.97874296874999,186.41450937500002 42.24990624999998,185.77648750000003 41.614116406249984,185.055759375 41.077499999999986,184.26275 40.64618359374998,183.407884375 40.326293749999984,182.50158750000003 40.12395703124998,181.554284375 40.04529999999998,180.5764 40.04529999999998,180.5764 40.09471835937499,179.59659980468751 40.268653124999986,178.64366718750003 40.56129882812499,177.7282041015625 40.96684999999999,176.8608125 41.47950117187498,176.0520943359375 42.093446874999984,175.31265156250004 42.80288164062498,174.65308613281252 43.60199999999998,174.084 43.60199999999998,174.084 44.03712734374998,173.79226894531251 44.44459374999998,173.47288281250002 44.82370078124998,173.1277271484375 45.173749999999984,172.7586875 45.49404296874998,172.36764941406253 45.783881249999986,171.9564984375 46.04256640624999,171.5271201171875 46.26939999999998,171.0814 46.26939999999998,171.0814 46.39810136718748,170.787117578125 46.513179687499985,170.48735312500003 46.614446289062485,170.18260585937503 46.701712499999985,169.873375 46.77478964843748,169.56015976562503 46.83348906249998,169.243459375 46.87762207031248,168.923773046875 46.90699999999998,168.6016 46.90699999999998,168.6016 46.921444531249975,168.2775154296875 46.92078124999998,167.9519484375 46.90482734374998,167.6254041015625 46.87339999999998,167.2983875 46.82631640624998,166.9714037109375 46.76339374999998,166.6449578125 46.68444921874998,166.3195548828125 46.58929999999998,165.9957 46.58929999999998,165.9957 43.49619999999998,156.33" fill="none" stroke="black" stroke-width="0.1" id="_new_38_1"/>
        <polyline points="43.49619999999998,156.33 43.49619999999998,156.33" fill="none" stroke="black" stroke-width="0.1" id="_new_38_2"/>
        <circle cx="53.538" cy="153.114" r="5.0" fill="none" stroke="black" stroke-width="0.1" id="_tag_49_"/>
        <circle cx="53.538" cy="153.114" r="3.3925" fill="none" stroke="black" stroke-width="0.1" id="center_00"/>
        <circle cx="47.5445" cy="180.464" r="4.5" fill="none" stroke="black" stroke-width="0.1" id="_tag_50_"/>
    </g>
</svg>
