<!DOCTYPE svg PUBLIC "-//W3C//DTD SVG 1.1//EN" "http://www.w3.org/Graphics/SVG/1.1/DTD/svg11.dtd">
<svg xmlns="http://www.w3.org/2000/svg" width="297mm" height="210mm" viewBox="0 0 297 210">
    <defs id="_tag_88_"/>
    <g id="Ebene_x0020_1">
        <circle cx="89.2002" cy="149.386" r="15" fill="none" stroke="black" stroke-width="0.1" id="center_00"/>
        <circle cx="89.2002" cy="149.386" r="5" fill="none" stroke="black" stroke-width="0.1" id="_tag_89_"/>
        <polygon points="119.605,157.461 113.20450000000001,156.77820000000003 112.79460000000002,159.54590000000002 101.97890000000001,159.31400000000002 100.7435572265625,159.15134316406252 99.5732640625,158.7520765625 98.49117324218751,158.15869355468752 97.52043750000001,157.4136875 96.68420957031252,156.55955175781253 96.00564218750002,155.6387796875 95.50788808593751,154.6938646484375 95.21410000000002,153.76730000000003 94.09640000000002,148.37160000000003 93.79255019531251,147.40559765625002 93.31685781250002,146.54570625000002 92.69310839843752,145.80754921875004 91.94508750000001,145.20675000000003 91.09658066406251,144.75893203125003 90.17137343750002,144.47971875000002 89.19325136718753,144.38473359375004 88.18600000000002,144.48960000000002 88.18600000000002,144.48960000000002 87.21999785156254,144.79348261718752 86.36010781250002,145.26919843750005 85.62195449218753,145.89296191406254 85.02116250000003,146.64098750000002 84.57335644531253,147.4894896484375 84.29416093750002,148.41468281250002 84.19920058593752,149.39278144531252 84.30410000000002,150.40000000000003 89.98500000000001,177.15510000000003 90.20421601562501,179.26048144531254 90.00568437500002,181.30500156250002 89.42206054687502,183.23893652343753 88.48600000000002,185.0125625 87.23015820312501,186.57615566406253 85.68719062500001,187.87999218750002 83.88975273437502,188.87434824218752 81.87050000000002,189.50950000000003 81.87050000000002,189.50950000000003 80.82156386718752,189.67253515625004 79.78142968750002,189.72870000000003 78.75617128906252,189.68198359375003 77.75186250000003,189.53637500000002 76.77457714843753,189.29586328125004 75.83038906250002,188.96443750000003 74.92537207031252,188.54608671875005 74.06560000000002,188.04480000000004 75.86860000000001,184.93020000000004 75.39951679687502,184.49547363281255 74.96542812500002,184.02297656250005 74.56908789062501,183.51451933593754 74.21325000000002,182.97191250000003 73.90066835937502,182.39696660156255 73.63409687500001,181.79149218750004 73.416289453125,181.15729980468754 73.25000000000001,180.49620000000004 73.25000000000001,180.49620000000004 73.17177617187502,180.05829824218753 73.11834687500001,179.62177343750005 73.08921289062502,179.18738378906255 73.08387500000002,178.75588750000003 73.10183398437502,178.32804277343752 73.14259062500003,177.90460781250005 73.20564570312501,177.48634082031256 73.29050000000001,177.07400000000004 73.29050000000001,177.07400000000004 73.88263925781251,174.11538964843757 74.32220156250001,171.11162343750004 74.60516621093751,168.06924863281253 74.7275125,164.99481250000002 74.68521972656251,161.89486230468754 74.4742671875,158.77594531250003 74.09063417968751,155.64460878906254 73.53030000000001,152.50740000000005 73.53030000000001,152.50740000000005 73.19107656250003,150.97303027343753 72.813275,149.45719843750004 72.39752343750001,147.96032050781255 71.94445000000002,146.48281250000002 71.45468281250001,145.02509042968754 70.92885000000001,143.58757031250005 70.36757968750001,142.17066816406256 69.77150000000002,140.77480000000006 69.77150000000002,140.77480000000006 69.52034804687503,140.21576679687504 69.27831562500002,139.65104062500006 69.04551289062502,139.08069414062504 68.82205000000002,138.50480000000005 68.60803710937502,137.92343085937506 68.40358437500001,137.336659375 68.20880195312502,136.74455820312505 68.02380000000002,136.14720000000005 68.02090000000003,136.14700000000005 67.90788554687504,135.87305195312504 67.74942812500002,135.63055937500005 67.55180664062503,135.42364960937505 67.32130000000002,135.25645000000006 67.06418710937503,135.13308789062503 66.78674687500003,135.05769062500005 66.49525820312503,135.03438554687503 66.19600000000003,135.06730000000005 66.19600000000003,135.06730000000005 66.17380429687503,135.07206640625006 66.15176562500002,135.07713750000005 66.12988164062503,135.08250859375005 66.10815000000004,135.08817500000004 66.08656835937502,135.09413203125007 66.06513437500003,135.10037500000004 66.04384570312503,135.10689921875004 66.02270000000003,135.11370000000005 66.02100000000003,135.11020000000005 65.96199492187503,135.12886953125005 65.90258437500003,135.14677500000005 65.84277539062502,135.16391171875006 65.78257500000004,135.18027500000005 65.72199023437503,135.19586015625006 65.66102812500003,135.21066250000007 65.59969570312502,135.22467734375005 65.53800000000003,135.23790000000005 65.53800000000003,135.23790000000005 64.61996660156252,135.33347910156255 63.72847031250002,135.24690781250004 62.88519199218753,134.99242324218756 62.11181250000003,134.58426250000005 61.43001269531253,134.03666269531254 60.861473437500024,133.36386093750005 60.42787558593752,132.58009433593756 60.15090000000002,131.69960000000006 60.15090000000002,131.69960000000006 60.05529218750002,130.78153359375005 60.14185000000002,129.89001250000007 60.39633281250002,129.04671640625006 60.80450000000002,128.27332500000006 61.35211093750002,127.59151796875005 62.024925000000025,127.02297500000005 62.80870156250002,126.58937578125004 63.68920000000002,126.31240000000005 63.68920000000002,126.31240000000005 63.83695371093752,126.28430292968756 63.98450468750002,126.26117343750006 64.13176269531252,126.24295410156256 64.27863750000003,126.22958750000006 64.42503886718752,126.22101621093756 64.57087656250002,126.21718281250006 64.71606035156252,126.21802988281256 64.86050000000002,126.22350000000006 64.86210000000001,126.21140000000005 64.91210214843751,126.21330449218755 64.96234218750001,126.21360468750005 65.01279550781251,126.21228066406256 65.06343750000002,126.20931250000007 65.11424355468752,126.20468027343756 65.1651890625,126.19836406250006 65.21624941406252,126.19034394531255 65.26740000000001,126.18060000000006 65.26740000000001,126.18060000000006 65.53106445312503,126.10170292968755 65.770515625,125.98196718750006 65.982615234375,125.82616347656256 66.16422500000002,125.63906250000005 66.312206640625,125.42543496093755 66.42342187500002,125.19005156250006 66.494732421875,124.93768300781255 66.52300000000001,124.67310000000006 66.52300000000001,124.67310000000006 66.5384458984375,124.27114765625006 66.55844218750002,123.86998750000006 66.58296425781252,123.46965234375006 66.6119875,123.07017500000006 66.6454873046875,122.67158828125007 66.68343906250001,122.27392500000006 66.72581816406252,121.87721796875007 66.77260000000001,121.48150000000007 66.76440000000001,121.47750000000006 66.77293691406251,121.41017773437507 66.77856406250001,121.34221562500005 66.78123105468751,121.27369570312506 66.7808875,121.20470000000006 66.7774830078125,121.13531054687505 66.77096718750002,121.06560937500007 66.76128964843751,120.99567851562506 66.7484,120.92560000000006 66.7484,120.92560000000006 66.67550703125,120.67730859375007 66.5663375,120.45023750000006 66.42484296875,120.24697890625006 66.254975,120.07012500000005 66.06068515625,119.92226796875006 65.84592500000001,119.80600000000007 65.61464609375,119.72391328125006 65.3708,119.67860000000006 65.3705,119.67780000000006 64.68457578125,119.53242070312506 64.03510625000001,119.28608437500006 63.43282109375001,118.94584335937506 62.888450000000006,118.51875000000007 62.412722656250004,118.01185664062507 62.016368750000005,117.43221562500005 61.710117968750005,116.78687929687507 61.50470000000001,116.08290000000007 61.50470000000001,116.08290000000007 61.40912089843751,115.16483359375006 61.495692187500005,114.27331250000007 61.750176757812504,113.43001640625006 62.1583375,112.65662500000008 62.7059373046875,111.97481796875007 63.37873906250001,111.40627500000006 64.16250566406251,110.97267578125006 65.043,110.69570000000007 65.043,110.69570000000007 65.42527128906251,110.63307968750007 65.80515781250001,110.60316875000007 66.1811185546875,110.60495468750007 66.5516125,110.63742500000006 66.9150986328125,110.69956718750008 67.2700359375,110.79036875000008 67.61488339843751,110.90881718750008 67.94810000000001,111.05390000000007 67.96640000000001,111.03860000000007 68.08116601562502,111.08822070312507 68.19989062500001,111.12870312500007 68.32205117187502,111.15970273437507 68.447125,111.18087500000007 68.57458945312501,111.19187539062506 68.703921875,111.19235937500008 68.834599609375,111.18198242187508 68.96610000000001,111.16040000000007 68.96610000000001,111.16040000000007 69.1528734375,111.10973300781257 69.32825625000001,111.03839531250007 69.4911796875,110.94801933593756 69.64057500000001,110.84023750000007 69.77537343750002,110.71668222656257 69.89450625,110.57898593750008 69.9969046875,110.42878105468756 70.0815,110.26770000000006 70.1059,110.26840000000006 70.5591099609375,109.37141953125007 71.03703593750001,108.48796250000005 71.5393345703125,107.61856796875006 72.0656625,106.76377500000007 72.61567636718752,105.92412265625006 73.18903281250002,105.10015000000007 73.7853884765625,104.29239609375006 74.40440000000001,103.50140000000006 77.0652,104.74140000000006 78.2014,102.42330000000005 85.08590000000001,105.63160000000005 83.93520000000001,107.97590000000005 85.5339,108.68800000000006 86.6302,106.35130000000007 87.9203,106.95250000000007 87.945401171875,107.80198359375007 87.976078125,108.53958125000007 88.015928515625,109.20368828125008 88.06855,109.83270000000007 88.137540234375,110.46501171875008 88.226496875,111.13901875000008 88.339017578125,111.89311640625006 88.4787,112.76570000000007 88.4787,112.76570000000007 88.51416953125,112.93512890625006 88.5503,113.10426250000008 88.58708671875,113.27309609375007 88.624525,113.44162500000007 88.66261015625001,113.60984453125008 88.70133750000001,113.77775000000008 88.74070234375002,113.94533671875007 88.78070000000001,114.11260000000007 88.78070000000001,114.11260000000007 89.09757265625002,115.34333808593757 89.449325,116.55643593750007 89.83529609375,117.75145644531257 90.25482500000001,118.92796250000006 90.70725078125001,120.08551699218758 91.1919125,121.22368281250007 91.70814921875001,122.34202285156258 92.2553,123.44010000000007 92.2553,123.44010000000007 94.40154121093751,127.11336894531257 96.88950468750001,130.51542031250005 99.6910876953125,133.62779589843757 102.77818750000002,136.43203750000006 106.12270136718752,138.90968691406258 109.6965265625,141.04228593750008 113.4715603515625,142.8113763671876 117.4197,144.19850000000008 118.49730000000001,144.45770000000007 118.0472,149.42240000000007 120.1688,149.68250000000006 119.605,157.46100000000007" fill="none" stroke="black" stroke-width="0.1" id="_new_73_1"/>
        <polygon points="88.4556,137.162 88.239183984375,137.1773609375 88.02240937500001,137.19661250000001 87.80531132812501,137.2197828125 87.58792500000001,137.2469 87.370285546875,137.2779921875 87.152428125,137.3130875 86.934387890625,137.3522140625 86.7162,137.3954 86.7162,137.3954 85.81037109375,137.618765234375 84.9370125,137.905128125 84.09807890625001,138.251514453125 83.295525,138.65494999999999 82.53130546875,139.11246054687498 81.807375,139.62107187499998 81.12568828125002,140.177809765625 80.4882,140.7797 80.4654,140.7609 80.3284884765625,140.89105234374998 80.1819640625,141.01145 80.0262544921875,141.12144140625 79.8617875,141.220375 79.68899082031251,141.30759921875 79.5082921875,141.38246249999997 79.32011933593749,141.44431328124998 79.1249,141.49249999999998 79.1249,141.49249999999998 78.71254765625,141.54465703125 78.30779375,141.53211249999998 77.91653046875,141.45874296875 77.54464999999999,141.32842499999998 77.19804453124999,141.14503515624997 76.88260625,140.91244999999998 76.60422734375,140.63454609374995 76.3688,140.31519999999998 76.3688,140.31519999999998 75.60747968749999,139.19068417968748 74.90136874999999,138.02304218749998 74.2527171875,136.81374472656245 73.66377499999999,135.56426249999998 73.13679218749999,134.27606621093747 72.67401874999999,132.9506265625 72.27770468749999,131.58941425781248 71.95009999999999,130.19389999999999 71.95009999999999,130.19389999999999 71.66602128906248,128.58063945312497 71.4820078125,126.97530312499998 71.3958810546875,125.380583984375 71.4054625,123.79917499999999 71.5085736328125,122.23376914062499 71.70303593749999,120.68705937499999 71.9866708984375,119.16173867187499 72.3573,117.66049999999998 72.3575,117.66049999999998 72.4748154296875,117.3239376953125 72.6357046875,117.00775781249999 72.83730722656252,116.71632089843749 73.0767625,116.45398749999998 73.3512099609375,116.2251181640625 73.6577890625,116.03407343749998 73.9936392578125,115.88521386718749 74.3559,115.78289999999998 74.3559,115.78289999999998 74.53274785156252,115.75245019531248 74.7088328125,115.73424531249998 74.88369199218751,115.72797714843747 75.05686250000001,115.73333749999998 75.2278814453125,115.75001816406248 75.3962859375,115.77771093749999 75.56161308593751,115.81610761718747 75.72340000000001,115.86489999999998 75.72340000000001,115.86469999999997 75.72810000000001,115.86649999999997 75.75757929687501,115.87671445312496 75.786915625,115.88725937499997 75.81610664062501,115.89813710937497 75.84515000000002,115.90934999999996 75.87404335937501,115.92090039062498 75.90278437500001,115.93279062499997 75.93137070312501,115.94502304687498 75.95980000000002,115.95759999999997 83.17580000000001,118.79269999999997 83.18217031250002,118.79510937499997 83.18853125000001,118.79753749999996 83.19488281250001,118.79998437499998 83.20122500000002,118.80244999999996 83.20755781250001,118.80493437499997 83.21388125000001,118.80743749999996 83.22019531250001,118.80995937499998 83.22650000000002,118.81249999999997 83.24010000000001,118.81789999999997 83.24030000000002,118.81809999999997 83.51011875000002,118.94745742187497 83.76313750000003,119.10624062499997 83.99675,119.29274101562497 84.20835000000002,119.50524999999996 84.39533125000001,119.74205898437496 84.55508750000001,120.00145937499997 84.68501250000001,120.28174257812496 84.78250000000001,120.58119999999997 84.78250000000001,120.58119999999997 84.78661562500002,120.59723144531246 84.79063750000002,120.61330156249996 84.79456562500002,120.62941152343747 84.79840000000002,120.64556249999997 84.80214062500002,120.66175566406247 84.80578750000001,120.67799218749998 84.809340625,120.69427324218748 84.81280000000001,120.71059999999997 84.81280000000001,120.71059999999997 85.3184376953125,122.37636542968747 85.88381406250002,124.00978593749997 86.5074490234375,125.60988535156247 87.18786250000001,127.17568749999998 87.9235744140625,128.70621621093747 88.71310468749999,130.20049531249998 89.55497324218751,131.65754863281248 90.44770000000001,133.07639999999998 90.44660000000002,133.07859999999997 90.50880527343752,133.17958105468745 90.56661718750001,133.2837859375 90.61987988281251,133.39111972656247 90.66843750000002,133.5014875 90.71213417968752,133.6147943359375 90.75081406250001,133.73094531249995 90.78432128906252,133.84984550781246 90.81250000000001,133.97139999999996 90.81250000000001,133.97139999999996 90.86752382812502,134.49974414062495 90.81770937500002,135.01280937499996 90.671252734375,135.49811992187497 90.43635000000002,135.94319999999996 90.12119726562503,136.33557382812495 89.73399062500002,136.66276562499996 89.282926171875,136.91229960937497 88.77620000000002,137.07169999999996 88.77620000000002,137.07169999999996 88.73885546875002,137.07914433593746 88.70152500000003,137.08602968749997 88.66421328125003,137.09235957031245 88.62692500000001,137.09813749999995 88.58966484375001,137.10336699218746 88.55243750000001,137.10805156249998 88.51524765625003,137.11219472656245 88.47810000000001,137.11579999999995 88.45560000000002,137.16199999999995" fill="none" stroke="black" stroke-width="0.1" id="_new_74_1"/>
        <polygon points="64.2345,128.946 64.6108783203125,128.90682890625 64.97636406250001,128.942325 65.32207089843749,129.04665234375 65.63911250000001,129.213975 65.9186025390625,129.43845703125 66.1516546875,129.71426250000002 66.32938261718749,130.03555546875 66.4429,130.3965 66.4429,130.3965 66.4821041015625,130.7728455078125 66.44663281249998,131.13830781250002 66.34232324218749,131.48400058593748 66.1750125,131.8010375 65.95053769531248,132.08053222656253 65.67473593749999,132.3135984375 65.3534443359375,132.4913498046875 64.99249999999999,132.60490000000001 64.99249999999999,132.60490000000001 64.6161216796875,132.64409980468753 64.2506359375,132.60861718750004 63.90492910156249,132.5042916015625 63.587887499999994,132.33696250000003 63.30839746093749,132.11246933593753 63.07534531249999,131.83665156249998 62.8976173828125,131.5153486328125 62.784099999999995,131.1544 62.784099999999995,131.1544 62.7448958984375,130.77805449218752 62.7803671875,130.4125921875 62.88467675781249,130.06689941406253 63.051987499999996,129.7498625 63.2764623046875,129.4703677734375 63.552264062499994,129.23730156250002 63.87355566406249,129.0595501953125 64.2345,128.946" fill="none" stroke="black" stroke-width="0.1" id="_new_75_1"/>
        <polygon points="65.5884,113.329 65.9647455078125,113.2898001953125 66.33020781249999,113.32528281249999 66.67590058593748,113.4296083984375 66.99293749999998,113.59693749999998 67.27243222656249,113.82143066406249 67.5054984375,114.0972484375 67.68324980468749,114.41855136718749 67.79679999999999,114.7795 67.79679999999999,114.7795 67.83597109374999,115.1558455078125 67.80047499999999,115.5213078125 67.69614765624999,115.86700058593749 67.528825,116.18403749999999 67.30434296874999,116.46353222656249 67.02853749999998,116.6965984375 66.70724453125,116.8743498046875 66.34629999999999,116.9879 66.34629999999999,116.9879 65.9699544921875,117.02707109375 65.60449218749999,116.991575 65.2587994140625,116.88724765625 64.94176249999998,116.719925 64.66226777343749,116.49544296875 64.42920156249998,116.21963749999999 64.25145019531249,115.89834453125 64.13789999999999,115.53739999999999 64.13789999999999,115.53739999999999 64.09870019531249,115.1610544921875 64.13418281249999,114.79559218749999 64.23850839843749,114.4498994140625 64.40583749999998,114.13286249999999 64.63033066406248,113.8533677734375 64.9061484375,113.62030156249999 65.22745136718748,113.44255019531249 65.5884,113.329" fill="none" stroke="black" stroke-width="0.1" id="_new_76_1"/>
        <polygon points="80.1239,174.418 81.04196621093752,174.3223921875 81.9334859375,174.40895 82.7767783203125,174.6634328125 83.5501625,175.0716 84.2319576171875,175.61921093750001 84.80048281250001,176.292025 85.23405722656251,177.07580156249998 85.51100000000001,177.9563 85.51100000000001,177.9563 85.60661191406251,178.87436621093752 85.52006406250001,179.7658859375 85.2655935546875,180.6091783203125 84.85743750000002,181.3825625 84.30983300781251,182.06435761718748 83.6370171875,182.6328828125 82.8532271484375,183.06645722656253 81.9727,183.3434 81.9727,183.3434 81.054637890625,183.4390078125 80.16312812500001,183.35245 79.31984804687501,183.0979671875 78.54647500000002,182.6898 77.864686328125,182.1421890625 77.296159375,181.46937499999999 76.862571484375,180.6855984375 76.5856,179.8051 76.5856,179.8051 76.48999218750001,178.887037890625 76.57655,177.99552812500002 76.83103281250001,177.152248046875 77.2392,176.378875 77.78681093750001,175.697086328125 78.459625,175.128559375 79.2434015625,174.69497148437503 80.1239,174.418" fill="none" stroke="black" stroke-width="0.1" id="_new_77_1"/>
    </g>
</svg>
