<!DOCTYPE svg PUBLIC "-//W3C//DTD SVG 1.1//EN" "http://www.w3.org/Graphics/SVG/1.1/DTD/svg11.dtd">
<svg xmlns="http://www.w3.org/2000/svg" width="297mm" height="210mm" viewBox="0 0 297 210">
    <defs id="_tag_19_"/>
    <g id="Ebene_x0020_1">
        <polygon points="38.0208,235.563 39.592505078125,235.506429296875 41.050709375000004,235.26692187499998 42.414371484375,234.834509765625 43.702450000000006,234.19922499999998 44.933903515625,233.35109960937498 46.127690625,232.280165625 47.302769921875004,230.97645507812499 48.4781,229.42999999999998 48.500499999999995,229.39899999999997 48.8273732421875,228.909358984375 49.114560937499995,228.39324062499998 49.3599525390625,227.85290195312498 49.5614375,227.29059999999998 49.71690527343749,226.70859179687497 49.82424531249999,226.10913437499997 49.88134707031249,225.49448476562497 49.88609999999999,224.8669 49.88609999999999,224.8669 49.87086699218749,224.5849591796875 49.8451046875,224.30611093749997 49.80901816406249,224.03054160156248 49.762812499999995,223.75843749999999 49.706692773437496,223.48998496093748 49.640864062499986,223.2253703125 49.565531445312494,222.96477988281248 49.48089999999999,222.70839999999998 49.481199999999994,222.7085 47.636599999999994,216.80319999999998 43.57749999999999,202.17469999999997 43.56929160156249,202.14717988281245 43.56123906249999,202.1195953125 43.55333886718749,202.0919474609375 43.545587499999996,202.0642375 43.5379814453125,202.03646660156247 43.530517187499996,202.00863593749997 43.5231912109375,201.98074667968746 43.51599999999999,201.95279999999997 43.51519999999999,201.94999999999996 43.515299999999996,201.94999999999996 43.484774609374995,201.82222109374996 43.457509375,201.69316249999994 43.433558203124996,201.56286640624995 43.41297499999999,201.43137499999995 43.39581367187499,201.29873046874997 43.382128124999994,201.16497499999997 43.371972265625,201.03015078124997 43.365399999999994,200.89429999999996 43.365399999999994,200.89429999999996 43.4317978515625,199.88385312499997 43.690276562499996,198.93578749999995 44.12142636718749,198.07091562499997 44.705837499999994,197.31005 45.42410019531249,196.67400312499996 46.256804687499994,196.18358749999996 47.18454121093749,195.85961562499998 48.18789999999999,195.72289999999995 48.18789999999999,195.72289999999995 49.015001367187494,195.76191347656246 49.80326093749999,195.93075781249996 50.54143691406249,196.21893886718746 51.21828749999999,196.61596249999997 51.8225708984375,197.11133457031244 52.343045312499996,197.69456093749994 52.76846894531249,198.35514746093745 53.087599999999995,199.08259999999996 53.0881,199.08249999999995 53.0909,199.09219999999996 53.115010937499996,199.16408066406245 53.13806249999999,199.23646406249998 53.160045312499996,199.30933730468746 53.180949999999996,199.38268749999997 53.2007671875,199.45650175781245 53.2194875,199.53076718749998 53.2371015625,199.60547089843746 53.2536,199.68059999999997 54.285399999999996,203.41009999999997 54.62806191406249,204.26414707031248 55.141589062499996,205.03265781249996 55.796231054687496,205.70763652343746 56.562237499999995,206.28108749999998 57.409858007812495,206.74501503906245 58.30934218749999,207.09142343749997 59.2309396484375,207.31231699218748 60.14489999999999,207.39969999999997 73.9352,207.54639999999998 74.54605585937499,205.53697011718748 75.159271875,203.51477968749998 75.82232070312499,201.5469525390625 76.582675,199.70061249999998 77.48780742187499,198.04288339843748 78.585190625,196.64088906249998 79.92229726562499,195.56175332031248 81.5466,194.87259999999998 81.5466,194.87259999999998 82.0069134765625,194.76953222656246 82.51270156249998,194.68850156249997 83.0605107421875,194.62560449218748 83.64688749999999,194.57693749999999 84.2683783203125,194.53859707031248 84.9215296875,194.5066796875 85.6028880859375,194.4772818359375 86.309,194.4465 86.3045,193.8464 69.1093,193.86409999999998 67.50151113281251,193.6742205078125 66.0016203125,193.1283078125 64.6699287109375,192.2669005859375 63.5667375,191.13053749999997 62.752347851562504,189.75975722656247 62.2870609375,188.19509843749995 62.231177929687505,186.47709980468747 62.645,184.64629999999997 64.2206,180.23249999999996 63.0789189453125,179.34108378906245 61.6648015625,178.01278906249996 60.1479365234375,176.25549667968747 58.698012500000004,174.07708749999995 57.4847181640625,171.48544238281247 56.6777421875,168.48844218749997 56.446773242187504,165.09396777343747 56.9615,161.30989999999997 56.3583,161.18649999999997 48.911,181.95629999999997 48.438827148437504,183.03143496093747 47.7687796875,184.21050468749996 46.932464257812505,185.45858144531246 45.961487500000004,186.74073749999997 44.887456054687505,188.02204511718745 43.74197656250001,189.26757656249995 42.556655664062504,190.44240410156246 41.3631,191.51159999999996 41.3631,191.51159999999996 41.28249003906251,191.57355859374994 41.202439062500005,191.63620624999996 41.1229529296875,191.69953828124997 41.0440375,191.76354999999995 40.965698632812504,191.82823671874996 40.8879421875,191.89359374999995 40.8107740234375,191.95961640624998 40.7342,192.02629999999996 40.729,192.03049999999996 40.7294,192.03049999999996 39.8339646484375,192.90796757812495 39.037954687500005,193.87679687499994 38.3494642578125,194.92832773437496 37.7765875,196.05389999999994 37.3274185546875,197.24485351562495 37.010051562499996,198.49252812499995 36.8325806640625,199.78826367187497 36.8031,201.12339999999995 36.8031,201.12339999999995 36.81975898437501,201.46080468749994 36.845940625,201.79546249999993 36.881501953125,202.12725156249996 36.9263,202.45604999999995 36.980191796875,202.78173593749995 37.043034375,203.10418749999994 37.114684765625,203.42328281249996 37.195,203.73889999999994 37.1947,203.73899999999995 38.728699999999996,210.44789999999995 38.961620312499996,211.84514453124996 39.038231249999995,213.26058124999997 38.9712078125,214.66638984374993 38.773225,216.03474999999995 38.456957812499994,217.33784140624994 38.03508125,218.5478437499999 37.520270312499996,219.63693671874995 36.9252,220.57729999999995 36.9252,220.57729999999995 36.9035154296875,220.60458085937495 36.8819609375,220.63197187499995 36.8605353515625,220.65947070312492 36.839237499999996,220.68707499999994 36.818066210937495,220.71478242187496 36.797020312499995,220.74259062499996 36.77609863281249,220.77049726562495 36.7553,220.79849999999996 36.7419,220.81529999999995 36.7429,220.81499999999994 36.4113798828125,221.30675449218745 36.1200328125,221.82544218749996 35.8710162109375,222.36877441406247 35.6664875,222.93446249999994 35.5086041015625,223.52021777343742 35.3995234375,224.12375156249993 35.3414029296875,224.74277519531242 35.3364,225.37499999999994 35.3364,225.37499999999994 35.42051113281249,226.25754414062493 35.6058640625,227.10500937499995 35.8860380859375,227.91140742187494 36.2546125,228.67074999999994 36.705166601562496,229.37704882812494 37.2312796875,230.02431562499996 37.8265310546875,230.60656210937492 38.4845,231.11779999999993 38.4845,231.11779999999993 38.6512322265625,231.28469589843743 38.7869953125,231.43797343749992 38.88975136718749,231.58290488281241 38.95746249999999,231.7247624999999 38.98809082031249,231.86881855468744 38.979598437499995,232.02034531249993 38.9299474609375,232.18461503906244 38.8371,232.36689999999993 37.4549,234.68389999999994 37.361148437500006,234.8612089843749 37.317225,235.02527812499994 37.32171406250001,235.17309570312494 37.3732,235.30164999999994 37.4702671875,235.40792929687493 37.61150000000001,235.48892187499993 37.795482812500005,235.54161601562492 38.0208,235.56299999999993" fill="none" stroke="black" stroke-width="0.1" id="_new_2_1"/>
        <polyline points="49.0206,183.231 50.096430859375005,181.90511132812497 51.768584375,181.227290625 53.821076953125,181.172218359375 56.037925,181.714575 58.20314492187501,182.829041015625 60.10075312500001,184.490296875 61.51476601562501,186.673023046875 62.229200000000006,189.3519" fill="none" stroke="black" stroke-width="0.1" id="_new_3_1"/>
        <polyline points="65.6267,193.3646 67.00209218750001,194.39699550781248 68.03114375,195.8878765625 68.7162171875,197.7043349609375 69.059675,199.7134625 69.0638796875,201.7823509765625 68.73119374999999,203.7780921875 68.0639796875,205.56777792968748 67.0646,207.0185" fill="none" stroke="black" stroke-width="0.1" id="_new_3_2"/>
        <circle cx="42.6112" cy="225.121" r="4.5" fill="none" stroke="black" stroke-width="0.1" id="_tag_20_"/>
        <polyline points="36.3344,221.433 36.8376984375,220.6874908203125 37.427293750000004,220.0107765625 38.0956859375,219.41090214843751 38.835375,218.8959125 39.638860937500006,218.47385253906248 40.49864375,218.1527671875 41.4072234375,217.9407013671875 42.3571,217.8457 42.3571,217.8457 43.61486777343751,217.90968281249997 44.81002343750001,218.179475 45.923858007812505,218.6376296875 46.9376625,219.2667 47.8327279296875,220.0492390625 48.590345312500006,220.96779999999998 49.1918056640625,222.00493593750002 49.6184,223.1432" fill="none" stroke="black" stroke-width="0.1" id="_new_5_1"/>
        <polyline points="49.0892,228.443 48.598813867187495,229.26038046875004 48.0085171875,230.00442500000003 47.3271775390625,230.66561328125002 46.5636625,231.23442500000002 45.726839648437505,231.70133984375002 44.8255765625,232.0568375 43.8687408203125,232.29139765625 42.8652,232.3955 42.8652,232.3955 42.1662751953125,232.3867974609375 41.4837578125,232.3133546875 40.8207708984375,232.1780814453125 40.1804375,231.98388749999998 39.565880664062504,231.73368261718747 38.9802234375,231.4303765625 38.426588867187505,231.0768791015625 37.908100000000005,230.6761" fill="none" stroke="black" stroke-width="0.1" id="_new_5_2"/>
        <polygon points="48.0081,190.575 49.4813666015625,190.6293734375 50.89638281249999,190.88760624999998 52.237873242187504,191.33542968749998 53.4905625,191.958575 54.6391751953125,192.74277343749998 55.6684359375,193.67375625 56.5630693359375,194.73725468749998 57.3078,195.91899999999998 57.308,195.91899999999998 57.3196,195.9407 57.327765429687496,195.9560138671875 57.3359109375,195.9713546875 57.3440353515625,195.9867212890625 57.3521375,196.0021125 57.3602162109375,196.01752714843747 57.3682703125,196.03296406249999 57.3762986328125,196.04842207031248 57.3843,196.0639 57.438100000000006,196.1693 57.495200000000004,196.285 57.5011,196.2971 57.531800000000004,196.361 57.5358,196.36939999999998 57.5439607421875,196.38665488281248 57.55209218750001,196.4039203125 57.560193164062504,196.42119746093746 57.5682625,196.43848749999998 57.5762990234375,196.45579160156245 57.5843015625,196.4731109375 57.592268945312505,196.4904466796875 57.6002,196.50779999999997 57.649,196.61629999999997 57.6933,196.71779999999995 57.7426,196.83509999999995 57.7864,196.94189999999995 57.79384375,196.96051367187496 57.80125,196.97915312499993 57.80861875,196.99781601562495 57.81595,197.01649999999995 57.82324375,197.03520273437496 57.8305,197.05392187499996 57.83771875,197.07265507812494 57.8449,197.09139999999994 57.8767,197.17579999999992 57.88340234375,197.19380917968743 57.89008125,197.21183593749993 57.89673203125,197.22987910156243 57.903349999999996,197.24793749999992 57.90993046875,197.26600996093742 57.91646875000001,197.28409531249994 57.92296015625,197.30219238281242 57.9294,197.32029999999992 57.9585,197.40349999999992 57.96537675781249,197.42345937499994 57.9722078125,197.44343749999993 57.9789943359375,197.4634343749999 57.9857375,197.4834499999999 57.9924384765625,197.5034843749999 57.999098437499995,197.52353749999992 58.005718554687505,197.5436093749999 58.0123,197.56369999999993 58.034800000000004,197.63319999999993 58.04224296875001,197.65661816406242 58.04964375000001,197.68007031249994 58.056997656250005,197.70355292968745 58.0643,197.72706249999993 58.07154609375,197.75059550781242 58.078731250000004,197.77414843749992 58.08585078125,197.79771777343743 58.09290000000001,197.82129999999992 58.106500000000004,197.86779999999993 58.113596679687504,197.89218867187495 58.1206359375,197.91660312499994 58.12761660156251,197.94104101562493 58.1345375,197.9654999999999 58.1413974609375,197.98997773437495 58.14819531250001,198.0144718749999 58.15492988281251,198.03898007812492 58.16160000000001,198.06349999999992 58.173100000000005,198.10669999999993 58.17945097656251,198.13077597656243 58.1857515625,198.15485781249993 58.1919982421875,198.17895136718744 58.1981875,198.20306249999993 58.20431582031251,198.22719707031243 58.21037968750001,198.25136093749992 58.216375585937506,198.27555996093744 58.222300000000004,198.29979999999992 58.2357,198.35499999999993 58.241667578125,198.38025566406242 58.247571875,198.40554531249992 58.253415234375005,198.43086542968743 58.2592,198.45621249999994 58.264928515625,198.48158300781242 58.270603125,198.50697343749994 58.27622617187501,198.53238027343744 58.281800000000004,198.55779999999993 58.28810000000001,198.58679999999993 58.29416191406251,198.61527207031241 58.300126562500004,198.6437640624999 58.30599980468751,198.67227714843742 58.31178750000001,198.70081249999993 58.31749550781251,198.7293712890624 58.323129687500014,198.7579546874999 58.32869589843751,198.78656386718743 58.33420000000001,198.81519999999992 58.33800000000001,198.83509999999993 58.34347050781251,198.86448105468742 58.34885781250001,198.89389843749993 58.35416308593751,198.92335097656243 58.35938750000001,198.95283749999993 58.36453222656251,198.98235683593742 58.3695984375,199.0119078124999 58.37458730468751,199.04148925781243 58.37950000000001,199.07109999999992 58.38110000000001,199.0810999999999 58.385853515625016,199.11062636718742 58.39051562500001,199.1401796874999 58.39508867187501,199.1697587890624 58.39957500000001,199.1993624999999 58.40397695312501,199.22898964843742 58.40829687500001,199.2586390624999 58.41253710937501,199.2883095703124 58.41670000000001,199.3179999999999 58.42050000000001,199.3456999999999 58.42432070312501,199.37428496093742 58.42805937500001,199.4028921874999 58.43171835937501,199.43152519531242 58.43530000000001,199.4601874999999 58.43880664062501,199.48888261718741 58.44224062500001,199.51761406249992 58.44560429687501,199.5463853515624 58.44890000000001,199.5751999999999 58.45110000000001,199.59519999999992 58.45428730468751,199.62456777343743 58.45739843750001,199.65394843749993 58.46043222656251,199.68334550781242 58.46338750000001,199.71276249999994 58.46626308593751,199.7422029296874 58.46905781250001,199.7716703124999 58.47177050781251,199.80116816406243 58.47440000000001,199.83069999999992 58.47680000000001,199.8593999999999 58.47919550781251,199.8883306640624 58.48150781250001,199.9172953124999 58.48373808593751,199.94629042968742 58.48588750000001,199.97531249999992 58.487957226562514,200.0043580078124 58.489948437500004,200.0334234374999 58.49186230468751,200.0625052734374 58.49370000000001,200.09159999999991 58.49540000000001,200.1185999999999 58.497194921875014,200.14936367187488 58.498903125000005,200.1801531249999 58.50052226562501,200.2109660156249 58.50205000000001,200.2417999999999 58.50348398437501,200.2726527343749 58.50482187500001,200.3035218749999 58.50606132812501,200.3344050781249 58.50720000000001,200.3652999999999 58.50720000000001,200.3652999999999 58.50870507812501,200.4115759765624 58.50999687500001,200.45778281249991 58.511077734375014,200.5039263671874 58.51195000000001,200.55001249999992 58.512616015625014,200.5960470703124 58.51307812500001,200.64203593749988 58.51333867187502,200.6879849609374 58.51340000000001,200.7338999999999 58.51340000000001,200.7422999999999 58.51270000000001,200.8324999999999 58.51280000000001,200.8341999999999 58.511600000000016,200.9117999999999 58.511400000000016,200.9254999999999 58.51100000000002,200.9400999999999 58.50910000000002,201.0181999999999 58.50760000000002,201.0667999999999 58.507500000000014,201.0676999999999 58.50500000000002,201.1389999999999 58.504100000000015,201.1605999999999 58.50120000000002,201.2212999999999 58.49740000000002,201.2951999999999 58.49730000000002,201.2983999999999 58.49607226562502,201.31999082031243 58.494790625000014,201.3415640624999 58.49345742187502,201.36312089843742 58.492075000000014,201.3846624999999 58.49064570312502,201.4061900390624 58.48917187500001,201.42770468749993 58.48765585937502,201.4492076171874 58.486100000000015,201.4706999999999 58.484600000000015,201.4908999999999 58.482077539062516,201.5237400390624 58.479457812500016,201.5565578124999 58.47673730468751,201.58934980468743 58.47391250000001,201.6221124999999 58.470979882812514,201.6548423828124 58.467935937500016,201.68753593749992 58.46477714843751,201.72018964843738 58.461500000000015,201.7527999999999 58.461100000000016,201.7574999999999 58.458700000000015,201.7793999999999 58.44730000000001,201.8844999999999 58.44001640625001,201.9466517578124 58.432343750000015,202.00868281249987 58.42428671875001,202.0705943359374 58.415850000000006,202.13238749999988 58.40703828125001,202.1940634765624 58.39785625000002,202.25562343749988 58.38830859375002,202.3170685546874 58.37840000000001,202.37839999999989 58.376100000000015,202.39189999999988 58.372747851562515,202.41202851562485 58.36936406250001,202.43214062499987 58.365945117187515,202.45223867187488 58.362487500000015,202.4723249999999 58.358987695312514,202.49240195312487 58.35544218750002,202.51247187499987 58.35184746093751,202.53253710937489 58.34820000000001,202.55259999999987 58.34500000000001,202.56959999999987 58.33072695312501,202.64554687499987 58.31588437500001,202.72128749999987 58.300474609375016,202.79682187499986 58.28450000000001,202.87214999999986 58.267962890625014,202.94727187499987 58.250865625,203.02218749999986 58.233210546875014,203.09689687499986 58.21500000000001,203.17139999999986 58.213600000000014,203.17659999999987 58.196700000000014,203.24399999999986 58.195400000000014,203.24919999999986 58.18740000000001,203.27959999999985 58.12479531250001,203.50930253906233 58.056950000000015,203.73688281249986 57.98392968750001,203.96226230468733 57.90580000000001,204.18536249999983 57.82262656250001,204.40610488281234 57.73447500000001,204.62441093749985 57.641410937500005,204.84020214843733 57.54350000000001,205.05339999999984 57.54350000000001,205.05339999999984 57.494622265625004,205.15523085937485 57.44460312500001,205.25642187499986 57.39346367187501,205.35697070312483 57.34122500000001,205.45687499999985 57.287908203125006,205.55613242187485 57.23353437500001,205.65474062499985 57.178124609375004,205.75269726562482 57.12170000000001,205.84999999999985 57.120300000000015,205.85239999999985 57.11290000000002,205.86509999999984 57.07176679687502,205.93429667968732 57.030115625000015,206.00313593749985 56.98794414062502,206.07161660156237 56.945250000000016,206.13973749999982 56.90203085937502,206.20749746093733 56.85828437500001,206.27489531249984 56.81400820312502,206.34192988281234 56.76920000000002,206.40859999999984 56.76920000000002,206.40859999999984 56.390598242187515,206.16743203124983 56.03109218750002,205.90286874999984 55.69368066406252,205.61572109374984 55.381362500000016,205.30679999999984 55.09713652343752,204.97691640624984 54.844001562500026,204.62688124999985 54.62495644531253,204.25750546874986 54.44300000000002,203.86959999999985 54.18260000000002,202.94269999999986 54.146100000000025,202.90639999999985 53.14730000000002,199.25849999999986 53.144800000000025,199.25919999999985 53.14320000000002,199.25409999999985 53.14300000000002,199.25369999999984 53.139200000000024,199.24149999999983 53.13910000000002,199.24109999999982 53.13840000000002,199.23869999999982 53.13740000000002,199.23599999999982 53.13670000000002,199.23359999999983 53.13580000000002,199.23089999999982 53.13520000000002,199.22849999999983 53.13420000000002,199.22589999999983 53.13350000000002,199.22349999999983 53.12940000000002,199.21069999999983 53.128700000000016,199.20829999999984 53.127800000000015,199.20569999999984 53.12710000000001,199.20329999999984 53.126300000000015,199.20059999999984 53.124600000000015,199.19569999999985 53.124600000000015,199.19559999999984 53.12390000000001,199.19319999999985 53.122900000000016,199.19049999999984 53.122200000000014,199.18809999999985 53.12060000000001,199.18309999999985 53.11990000000001,199.18039999999985 53.11820000000001,199.17539999999985 53.11750000000001,199.17299999999986 53.11650000000001,199.17029999999986 53.11580000000001,199.16799999999986 53.107600000000005,199.14289999999986 53.107400000000005,199.14269999999985 53.10660000000001,199.14009999999985 53.10490000000001,199.13499999999985 53.10410000000001,199.13259999999985 53.10310000000001,199.12999999999985 53.10300000000001,199.12979999999985 52.78794863281251,198.39305527343734 52.3643640625,197.72365468749985 51.84375058593751,197.13233613281233 51.237612500000004,196.62983749999984 50.55745410156251,196.22689667968737 49.814779687500014,195.93425156249984 49.02109355468751,195.76264003906235 48.187900000000006,195.72279999999984 48.187900000000006,195.72279999999984 47.1845412109375,195.85951562499983 46.25680468750001,196.18348749999984 45.424100195312505,196.67390312499984 44.70583750000001,197.30994999999984 44.1214263671875,198.07081562499985 43.69027656250001,198.93568749999986 43.431797851562514,199.88375312499986 43.36540000000001,200.89419999999984 43.36540000000001,200.89419999999984 43.37197656250001,201.03005078124983 43.38214375000001,201.16487499999982 43.39584531250001,201.29863046874985 43.413025000000005,201.43127499999983 43.43362656250001,201.56276640624984 43.45759375,201.69306249999985 43.48487031250001,201.82212109374984 43.51540000000001,201.94989999999984 43.51520000000001,201.94989999999984 43.51740000000001,201.95779999999985 43.52510175781251,201.98771660156234 43.53298281250001,202.01754531249983 43.54104433593751,202.04729199218735 43.549287500000005,202.07696249999987 43.557713476562505,202.10656269531236 43.5663234375,202.13609843749987 43.575118554687506,202.16557558593735 43.58410000000001,202.19499999999985 45.940000000000005,210.57929999999985 44.379977929687506,210.05846562499985 42.941717187500004,209.30209374999984 41.6493009765625,208.33261874999982 40.526812500000005,207.17247499999985 39.59833496093751,205.84409687499985 38.88795156250001,204.36991874999984 38.4197455078125,202.77237499999984 38.217800000000004,201.07389999999984 38.217800000000004,201.07389999999984 38.35255703125,199.02246874999986 38.8772625,197.09769374999985 39.752517968750006,195.34182812499984 40.938925000000005,193.79712499999982 42.39708515625,192.50583749999984 44.08760000000001,191.51021874999984 45.97107109375,190.85252187499987 48.008100000000006,190.57499999999985" fill="none" stroke="black" stroke-width="0.1" id="_new_6_1"/>
        <circle cx="48.3624" cy="200.719" r="5.0" fill="none" stroke="black" stroke-width="0.1" id="_tag_21_"/>
        <circle cx="48.3624" cy="200.719" r="5.0" fill="none" stroke="black" stroke-width="0.1" id="center_00"/>
    </g>
</svg>
