<!DOCTYPE svg PUBLIC "-//W3C//DTD SVG 1.1//EN" "http://www.w3.org/Graphics/SVG/1.1/DTD/svg11.dtd">
<svg xmlns="http://www.w3.org/2000/svg" width="297mm" height="210mm" viewBox="0 0 297 210">
    <defs id="_tag_16_"/>
    <g id="_tag_17_">
        <g id="_tag_18_">
            <polygon id="_263971600" points="134.522,107.274 184.6109,107.274 184.6109,110.1977 134.522,110.1977" fill="none" stroke="black" stroke-width="0.1"/>
            <polygon id="_263970832_1" class="fil0 str0" points="133.011,112.578 132.628919140625,112.4992833984375 132.273015625,112.2735234375 131.950923046875,111.91630488281251 131.670275,111.4432125 131.438705078125,110.86983105468751 131.263846875,110.2117453125 131.15333398437502,109.4845400390625 131.1148,108.7038 131.1148,108.7038 131.15333398437502,107.9231259765625 131.263846875,107.1959703125 131.438705078125,106.5379201171875 131.670275,105.9645625 131.950923046875,105.4914845703125 132.273015625,105.1342734375 132.628919140625,104.9085162109375 133.011,104.8298 134.0953,104.8298 134.1934,104.8298 134.259433203125,104.836508203125 134.321034375,104.855734375 134.376855859375,104.88613085937502 134.42555,104.92635000000001 134.465769140625,104.97504414062502 134.496165625,105.03086562500002 134.515391796875,105.09246679687502 134.5221,105.1585 134.5221,112.2493 134.515391796875,112.315333203125 134.496165625,112.376934375 134.465769140625,112.432755859375 134.42555,112.48145 134.376855859375,112.521669140625 134.321034375,112.55206562500001 134.259433203125,112.571291796875 134.1934,112.578 134.0953,112.578 134.08700000000002,112.578 133.01100000000002,112.578" fill="none" stroke="black" stroke-width="0.1"/>
            <g id="_tag_19_">
                <polygon id="_263970856" points="164.785,101.681 164.785,115.751 162.748,115.751 157.489,111.074 157.489,106.397 162.748,101.681" fill="none" stroke="black" stroke-width="0.1"/>
                <line id="_263971144" x1="162.748" y1="101.681" x2="162.748" y2="115.751" stroke="black" stroke-width="0.1"/>
            </g>
            <g id="_tag_20_">
                <polygon id="_263971432_1" class="fil0 str0" points="191.908,101.722 192.0348767578125,101.8649724609375 192.1530453125,102.2750046875 192.2599755859375,102.9237689453125 192.35313749999997,103.7829375 192.4300009765625,104.8241826171875 192.4880359375,106.01917656250001 192.52471230468748,107.33959160156249 192.5375,108.7571 192.5375,108.7571 192.52471230468748,110.17480644531248 192.4880359375,111.4953703125 192.4300009765625,112.6904708984375 192.35313749999997,113.7317875 192.2599755859375,114.5909994140625 192.1530453125,115.2397859375 192.0348767578125,115.6498263671875 191.908,115.7928 189.87089999999998,115.7928 184.61159999999998,111.1157 184.61159999999998,106.43870000000001 189.87089999999998,101.72200000000001 191.908,101.72200000000001" fill="none" stroke="black" stroke-width="0.1"/>
                <g id="_263970976_1">
                    <polyline id="_263970976___0" class="fil1 str0" points="189.87,101.722 189.87,115.7928" fill="none" stroke="black" stroke-width="0.1"/>
                    <polyline id="_263970976___1" class="fil1 str0" points="191.9071,115.7928 191.9071,101.722" fill="none" stroke="black" stroke-width="0.1"/>
                </g>
            </g>
        </g>
        <polygon class="fil2 str1" id="simplify_4_1" points="107.642,120.715 106.9921728515625,120.59578984375 106.39110156249998,120.36137500000001 105.8504638671875,120.02377890625002 105.38193749999999,119.595025 104.9972001953125,119.08713671875 104.7079296875,118.51213750000001 104.5258037109375,117.88205078125 104.46249999999999,117.2089 104.46249999999999,117.2089 104.53344296875,116.4996328125 104.73690624999999,115.838975 105.05884140625,115.24109218749999 105.48519999999999,114.72014999999999 106.00193359375,114.2903140625 106.59499375,113.96574999999999 107.25033203125,113.76062343749999 107.95389999999999,113.6891 107.95389999999999,113.6891 112.0930166015625,113.6891 116.21417656249999,113.6891 120.3231326171875,113.6891 124.42563749999998,113.6891 128.52744394531248,113.6891 132.6343046875,113.6891 136.75197246093748,113.6891 140.88619999999997,113.6891 140.88619999999997,113.6891 141.89375273437497,113.587500390625 142.83224687499995,113.296115625 143.68156132812499,112.835066796875 144.42157499999996,112.22447499999998 145.03216679687498,111.484461328125 145.49321562499998,110.63514687499999 145.78460039062497,109.696652734375 145.88619999999997,108.6891 145.88619999999997,108.6891 145.78460039062497,107.681547265625 145.49321562499998,106.743053125 145.03216679687498,105.893738671875 144.42157499999996,105.15372500000001 143.68156132812499,104.543133203125 142.83224687499995,104.082084375 141.89375273437497,103.790699609375 140.88619999999997,103.6891 140.88619999999997,103.6891 136.75197246093748,103.6891 132.6343046875,103.6891 128.52744394531248,103.6891 124.42563749999997,103.6891 120.32313261718747,103.6891 116.21417656249997,103.6891 112.09301660156248,103.6891 107.95389999999998,103.6891 107.95389999999998,103.6891 107.25033203124997,103.6175765625 106.59499374999997,103.41245 106.00193359374998,103.08788593749999 105.48519999999998,102.65805 105.05884140624998,102.1371078125 104.73690624999998,101.53922499999999 104.53344296874998,100.8785671875 104.46249999999998,100.16929999999999 104.46249999999998,100.16929999999999 104.52580371093748,99.49614921874999 104.70792968749998,98.86606249999998 104.99720019531247,98.29106328124999 105.38193749999998,97.78317499999999 105.85046386718747,97.35442109374998 106.39110156249998,97.01682499999998 106.99217285156247,96.78241015625 107.64199999999998,96.66319999999999 118.53719999999998,95.97059999999999 123.09399999999998,95.45179999999999 127.45569999999998,94.7854 131.3978,93.79769999999999 134.8335,92.5632 138.76299999999998,90.91369999999999 141.96649999999997,89.2665 144.96709999999996,87.3389 147.94459999999995,85.02239999999999 153.74649999999994,79.67609999999999 153.76189843749992,79.66157363281249 153.77734374999994,79.6470953125 153.79283593749994,79.63266621093749 153.80837499999996,79.61828749999998 153.82396093749995,79.60396035156249 153.83959374999995,79.58968593749998 153.85527343749996,79.57546542968748 153.87099999999995,79.56129999999999 153.88539999999995,79.54809999999999 153.88579999999996,79.5483 154.31842304687495,79.1953240234375 154.78174687499995,78.8812484375 155.27326601562496,78.6085892578125 155.79047499999996,78.3798625 156.33086835937496,78.1975841796875 156.89194062499996,78.06427031250001 157.47118632812496,77.98243691406249 158.06609999999995,77.9546 158.06609999999995,77.9546 159.33195039062497,78.0822505859375 160.51104687499995,78.4483484375 161.57810742187493,79.0276126953125 162.50784999999993,79.7947625 163.27499257812497,80.7245169921875 163.85425312499993,81.7915953125 164.22034960937498,82.9707166015625 164.34799999999996,84.2366 164.34799999999996,84.2366 164.32910488281246,84.72702695312499 164.27335781249997,85.207153125 164.18216621093748,85.675583984375 164.05693749999995,86.13092499999999 163.89907910156245,86.57178164062499 163.70999843749996,86.996759375 163.4911029296875,87.40446367187499 163.24379999999996,87.7935 163.26319999999996,87.8372 157.33719999999997,96.2817 156.68539999999996,97.3928 156.12239999999997,98.60759999999999 155.78169999999997,100.31129999999999 155.79649999999998,102.11869999999999 156.22609999999997,103.67429999999999 156.90759999999997,105.68909999999998 157.1768,106.47969999999998 157.3336,107.43179999999998 157.45579999999998,108.92069999999998 157.4261,110.24459999999998 157.278,112.20759999999997 157.35209999999998,113.54089999999997 157.67799999999997,114.80019999999996 157.94459999999998,115.54829999999995 158.58899999999997,116.65939999999995 159.35209999999998,117.61499999999995 160.26309999999998,118.45199999999996 161.0854,118.97799999999995 161.9965,119.42239999999995 163.0854,119.76319999999996 163.39919999999998,119.86939999999996 164.37278085937496,120.19413652343746 165.26625937499998,120.66967343749995 166.06431445312498,121.28071425781246 166.751625,122.01196249999995 167.31286992187498,122.84812167968745 167.732728125,123.77389531249995 167.99587851562498,124.77398691406246 168.087,125.83309999999996 168.087,125.83309999999996 167.96230800781248,127.06964355468747 167.60469531249998,128.22143593749996 167.03885683593748,129.26378222656245 166.2894875,130.17198749999994 165.3812822265625,130.92135683593747 164.33893593749997,131.48719531249998 163.18714355468748,131.84480800781245 161.95059999999998,131.96949999999995 154.9372,132.01499999999996 153.94459999999998,131.86689999999996 153.0133,131.54549999999995 152.1224,131.12609999999995 144.7446,127.42239999999995 140.7585,125.84729999999995 136.4928,124.45939999999995 132.33929999999998,123.22189999999995 127.93719999999998,122.42979999999994 123.68309999999998,121.87449999999994 119.19649999999999,121.39279999999994 107.64199999999998,120.71499999999993" fill="none" stroke="black" stroke-width="0.1"/>
        <polyline id="simplify_SVG__000004" points="151.272,110.459 150.263,106.933 149.255,110.459" fill="none" stroke="black" stroke-width="0.1"/>
        <polyline id="simplify_SVG__000005" points="154.715,106.933 154.715,110.459 156.685,110.459" fill="none" stroke="black" stroke-width="0.1"/>
        <polyline class="fil1 str1" id="simplify_7_1" points="151.974,106.904 151.974,109.4151 151.974,109.4151 151.99470976562498,109.61896914062498 152.054065625,109.809153125 152.14790742187498,109.98149179687499 152.27207499999997,110.13182499999999 152.422408203125,110.25599257812499 152.594746875,110.34983437499999 152.784930859375,110.40919023437499 152.9888,110.42989999999999 152.9888,110.42989999999999 153.192669140625,110.40919023437499 153.382853125,110.34983437499999 153.555191796875,110.25599257812499 153.70552500000002,110.13182499999999 153.82969257812502,109.98149179687499 153.923534375,109.809153125 153.98289023437502,109.61896914062498 154.0036,109.4151 154.0036,109.4151 154.0036,106.904" fill="none" stroke="black" stroke-width="0.1"/>
        <g id="simplify_8_1">
            <polyline class="fil1 str1" id="simplify_8___0" points="157.263,112.267 154.13490000000002,112.267 153.3222,112.341 152.3889,112.53359999999999 151.4342,112.86989999999999 150.5963,113.31879999999998 150.0481,113.68919999999999 149.21110000000002,114.51139999999998 148.50390000000002,115.29259999999998 147.9444,115.86699999999998 147.08520000000001,116.63729999999998 145.8556,117.45209999999999 144.8333,117.94099999999999 143.8556,118.28179999999999 142.746,118.55599999999998 142.1089,118.67879999999998 141.263,118.75579999999998 136.76939453125,118.75579999999998 132.22261874999998,118.75579999999998 127.64039609375001,118.75579999999998 123.04045,118.75579999999998 118.44050390625,118.75579999999998 113.85828125,118.75579999999998 109.31150546875,118.75579999999998 104.81790000000001,118.75579999999998" fill="none" stroke="black" stroke-width="0.1"/>
            <polyline class="fil1 str1" id="simplify_8___1" points="156.7169,105.12609999999998 154.1497,105.12609999999998 153.337,105.05209999999998 152.4037,104.85949999999998 151.44899999999998,104.52319999999999 150.6111,104.0743 150.06289999999998,103.70389999999999 149.2259,102.8817 148.5187,102.1005 147.95919999999998,101.5261 147.1,100.7558 145.8704,99.94099999999999 144.8481,99.45209999999999 143.8704,99.11129999999999 142.7608,98.83709999999999 142.12369999999999,98.7143 141.27779999999998,98.6373 136.74359277343746,98.6373 132.18967343749998,98.6373 127.62238300781249,98.6373 123.04806249999999,98.6373 118.47305292968748,98.6373 113.90369531249998,98.6373 109.34633066406248,98.6373 104.80729999999998,98.6373" fill="none" stroke="black" stroke-width="0.1"/>
        </g>
        <line id="simplify_9" x1="146.641" y1="110.459" x2="146.641" y2="106.933" stroke="black" stroke-width="0.1"/>
        <polygon class="fil1 str1" id="simplify_10_1" points="146.641,106.933 147.65869999999998,106.933 147.65879999999999,106.933 147.83487753906246,106.95088847656251 147.99913906249998,107.0021578125 148.1479904296875,107.08321386718751 148.27783749999998,107.1904625 148.3850861328125,107.3203095703125 148.46614218749997,107.4691609375 148.5174115234375,107.6334224609375 148.53529999999998,107.8095 148.53529999999998,107.8096 148.5174115234375,107.98567753906251 148.46614218749997,108.1499390625 148.3850861328125,108.2987904296875 148.27783749999998,108.42863750000001 148.1479904296875,108.53588613281251 147.99913906249998,108.6169421875 147.83487753906246,108.66821152343749 147.65879999999999,108.6861 147.65869999999998,108.6861 146.641,108.6861 146.641,106.93299999999999" fill="none" stroke="black" stroke-width="0.1"/>
        <line id="simplify_11" x1="149.695" y1="108.915" x2="150.83" y2="108.915" stroke="black" stroke-width="0.1"/>
        <polygon id="simplify_12" cx="126.035" cy="108.696" points="131.035,108.696 131.00760947684137,109.21864231633826 130.92573800366904,109.73555845408879 130.79028258147576,110.24108497187474 130.602727288213,110.729683215379 130.36512701892218,111.196 130.08008497187473,111.63492626146237 129.75072412738697,112.04165303179428 129.38065303179428,112.41172412738698 128.97392626146237,112.74108497187474 128.535,113.0261270189222 128.068683215379,113.263727288213 127.58008497187474,113.45128258147577 127.07455845408879,113.58673800366903 126.55764231633826,113.66860947684137 126.035,113.696 125.51235768366173,113.66860947684137 124.9954415459112,113.58673800366903 124.48991502812525,113.45128258147577 124.001316784621,113.263727288213 123.535,113.0261270189222 123.09607373853763,112.74108497187474 122.68934696820571,112.41172412738698 122.31927587261302,112.04165303179428 121.98991502812527,111.63492626146237 121.7048729810778,111.196 121.46727271178699,110.729683215379 121.27971741852423,110.24108497187474 121.14426199633097,109.7355584540888 121.06239052315863,109.21864231633826 121.035,108.696 121.06239052315863,108.17335768366173 121.14426199633097,107.6564415459112 121.27971741852423,107.15091502812527 121.46727271178699,106.662316784621 121.7048729810778,106.196 121.98991502812525,105.75707373853763 122.31927587261302,105.35034696820571 122.68934696820571,104.98027587261302 123.09607373853763,104.65091502812527 123.535,104.3658729810778 124.001316784621,104.12827271178699 124.48991502812525,103.94071741852423 124.99544154591119,103.80526199633097 125.51235768366172,103.72339052315863 126.035,103.696 126.55764231633826,103.72339052315863 127.07455845408879,103.80526199633097 127.58008497187473,103.94071741852423 128.068683215379,104.12827271178699 128.535,104.3658729810778 128.97392626146237,104.65091502812525 129.38065303179428,104.98027587261302 129.75072412738697,105.3503469682057 130.08008497187473,105.75707373853763 130.36512701892218,106.196 130.602727288213,106.662316784621 130.79028258147576,107.15091502812525 130.925738003669,107.65644154591119 131.00760947684137,108.17335768366172" fill="none" stroke="black" stroke-width="0.1"/>
        <g id="simplify_13_1">
            <polyline class="fil1 str0" id="simplify_13___0" points="116.628,108.696 135.4432,108.696" fill="none" stroke="black" stroke-width="0.1"/>
            <polyline class="fil1 str0" id="simplify_13___1" points="126.03559999999999,99.2884 126.03559999999999,118.1036" fill="none" stroke="black" stroke-width="0.1"/>
        </g>
        <center id="center_00" cx="126.03559999999999" cy="108.696" r="5"/>
    </g>
</svg>
