<!DOCTYPE svg PUBLIC "-//W3C//DTD SVG 1.1//EN" "http://www.w3.org/Graphics/SVG/1.1/DTD/svg11.dtd">
<svg xmlns="http://www.w3.org/2000/svg" width="297mm" height="210mm" viewBox="0 0 297 210">
    <defs id="_tag_14_"/>
    <polygon points="85.1421,140.472 87.1486,140.941 89.0531,141.248 91.2093,141.254 123.732,136.516 154.681,132.007 156.849,131.39 158.713,130.513 201.064,103.559 198.379,99.3404 156.106,126.245 155.099,126.698 153.897,127.07 123.014,131.569 90.7439,136.27 89.1753,136.221 87.7518,135.977 86.6824,135.707 85.5083,135.253 58.498,119.618 51.3933,115.506 48.886,119.831 83.0592,139.612" fill="none" stroke="black" stroke-width="0.1" id="polygon10"/>
    <g id="_129821232">
        <polygon points="116.059,151.777 115.192,151.089 114.29,150.441 113.354,149.832 113.081,149.507 112.992,149.116 113.07,148.695 113.397,148.39 116.324,146.759 119.393,145.515 122.567,144.66 125.811,144.193 129.088,144.116 132.363,144.428 135.6,145.13 138.762,146.223 139.103,146.493 139.268,146.867 139.231,147.314 139.028,147.671 138.213,148.426 137.433,149.215 136.693,150.038 135.993,150.895 135.337,151.787 134.727,152.713 134.166,153.674 133.655,154.67 119.833,155.845 119.156,154.945 118.44,154.09 117.684,153.277 116.89,152.506" fill="none" stroke="black" stroke-width="0.1" id="path159"/>
        <polyline points="132.615,154.759 121.421,155.70999999999998 121.465,156.117 121.686,156.641 122.284,157.011 122.78,157.049 123.569,156.967 124.684,156.86200000000002 126.00399999999999,156.74300000000002 127.407,156.621 128.773,156.50400000000002 129.98,156.40200000000002 130.90699999999998,156.324 131.433,156.281 131.891,156.18800000000002 132.427,155.77300000000002 132.606,155.25800000000004 132.602,154.82600000000005" fill="none" stroke="black" stroke-width="0.1" id="path171_1_1"/>
        <polygon points="124.292,125.064 124.963,124.936 125.465,124.736 125.296,124.334 124.726,124.196 124.33,124.132 123.882,124.067 123.421,124.012 122.985,123.975 122.346,123.993 121.783,124.159 121.062,124.459 120.393,124.78 119.984,125.009 119.667,125.293 120.716,125.538 121.542,125.455 122.481,125.338 123.431,125.203" fill="none" stroke="black" stroke-width="0.1" id="path1045"/>
        <polygon points="103.712,138.032 103.243,138.175 103.991,146.501 104.212,146.866 104.624,146.971 110.675,146.281 111.739,145.574 112.589,145.03 113.459,144.514 114.346,144.026 115.25,143.567 116.168,143.137 117.1,142.738 118.042,142.37 117.964,141.677 117.881,140.947 117.781,140.082 117.674,139.172 117.571,138.308 117.481,137.581 117.413,137.08 117.143,136.557 116.606,136.347 115.898,136.345 115.114,136.446 111.18,136.921 108.207,137.305 106.06,137.61 104.607,137.848" fill="none" stroke="black" stroke-width="0.1" id="path1073"/>
        <polygon points="144.889,133.281 132.778,134.548 132.291,134.555 131.875,134.613 131.25,134.877 130.904,135.331 130.834,135.964 130.898,136.44 130.983,137.132 131.081,137.955 131.181,138.822 131.275,139.647 131.353,140.343 131.407,140.824 132.437,141.14 133.434,141.311 134.418,141.517 135.39,141.756 136.35,142.028 137.298,142.333 138.235,142.669 139.162,143.037 145.571,142.344 145.939,142.149 146.048,141.761 145.103,133.646" fill="none" stroke="black" stroke-width="0.1" id="path1085"/>
        <polygon points="116.531,125.931 116.947,125.762 117.306,125.534 117.597,125.239 117.81,124.87 117.983,124.412 118.086,124.022 118.382,123.728 126.32,122.789 126.73,122.884 126.977,123.243 127.183,123.597 127.435,123.935 127.773,124.195 128.155,124.379 128.568,124.494 135.326,125.096 143.237,124.848 143.685,125.044 144.119,128.594 144.002,129.022 143.614,129.5 142.796,129.835 142.045,129.943 140.933,130.096 139.588,130.27 138.137,130.442 136.708,130.589 135.431,130.688 134.433,130.715 133.841,130.648 133.259,130.307 132.78,129.889 132.222,129.453 131.856,129.248 131.402,129.061 130.914,128.938 130.354,128.891 129.732,128.913 129.06,128.998 128.347,129.136 127.605,129.321 126.844,129.544 126.076,129.798 125.393,130.028 124.861,130.191 124.447,130.301 123.857,130.41 123.377,130.46 122.728,130.539 122.253,130.601 121.66,130.627 121.237,130.613 120.687,130.571 119.976,130.496 119.161,130.419 118.364,130.37 117.597,130.355 116.87,130.38 116.192,130.45 115.575,130.571 115.028,130.75 114.563,130.99 114.177,131.282 113.877,131.567 113.441,132.111 113.066,132.618 112.566,133.081 111.997,133.284 111.013,133.489 109.741,133.687 108.312,133.871 106.855,134.032 105.501,134.163 104.38,134.255 103.62,134.302 103.13,134.291 102.471,134.022 102.146,133.618 101.981,132.751 101.94,132.234 101.908,131.731 101.882,131.266 101.864,130.861 101.844,130.334 102.315,129.621 101.842,130.259 101.944,129.866 110.08,128.065" fill="none" stroke="black" stroke-width="0.1" id="path1033"/>
    </g>
    <g id="_130768296">
        <polygon points="18.3005,99.101 18.450785546875,100.868483984375 18.666403125,102.380928125 18.943356640624998,103.684183203125 19.277649999999998,104.82409999999999 19.665287109375,105.846529296875 20.102271875,106.79732187500001 20.584608203124997,107.72232851562501 21.1083,108.6674 21.1083,108.6674 21.739206250000002,109.6449580078125 22.54619375,110.64125781249999 23.529778125,111.6629005859375 24.690475,112.7164875 26.0288,113.8086197265625 27.545268749999998,114.94589843749999 29.240396875000002,116.1349248046875 31.1147,117.3823 31.1147,117.3823 33.158359765625,118.66118437499999 35.365071875000005,119.94408125 37.740623046875,121.23660625 40.2908,122.544375 43.021389453124996,123.873003125 45.93817812499999,125.22810625 49.046952734375,126.6153 52.3535,128.0402 52.3535,128.0402 55.67913671875,129.396674609375 58.81933125,130.579634375 61.74109765624999,131.596258203125 64.41145,132.453725 66.79740234375,133.15921367187502 68.86596875000001,133.719903125 70.58416328125,134.142972265625 71.919,134.4356 71.919,134.4356 73.78751464843748,134.77714453125 75.9551984375,135.11044375 78.3112236328125,135.42269609375 80.7447625,135.70110000000003 83.14498730468749,135.93285390625 85.4010703125,136.10515625 87.40218378906249,136.20520546875 89.0375,136.2202 89.0375,136.2202 88.55146249999999,133.6446251953125 88.06542499999998,131.0690515625 87.5793875,128.4934802734375 87.09334999999999,125.9179125 86.60731249999999,123.3423494140625 86.121275,120.7667921875 85.6352375,118.1912419921875 85.1492,115.6157 37.192,97.3665 18.3005,99.101" fill="none" stroke="black" stroke-width="0.1" id="_129541080"/>
        <polygon points="18.7922,101.376 18.287990625,98.9991359375 18.1679125,96.1219375 18.453603125,92.9633203125 19.166700000000002,89.7422 20.328840625,86.67749218750001 21.961662500000003,83.9881125 24.086803125000003,81.89297656250001 26.725900000000003,80.611 26.725900000000003,80.611 29.892765039062503,79.9640431640625 33.522189062500004,79.59951406249999 37.5221154296875,79.4731873046875 41.8004875,79.54083750000001 46.26524863281251,79.75823925781252 50.8243421875,80.08116718750001 55.38571152343751,80.46539589843752 59.8573,80.86670000000001 59.8573,80.86670000000001 69.12056191406249,81.70417675781252 78.2989578125,82.5204953125 87.37349042968751,83.27911308593751 96.3251625,83.94348750000002 105.1349767578125,84.47707597656252 113.7839359375,84.84333593750002 122.2530427734375,85.00572480468752 130.5233,84.92770000000002 130.5233,84.92770000000002 141.781969140625,84.56851035156252 153.041746875,84.10050156250001 164.03495117187504,83.57435136718752 174.4939,83.0407375 184.150911328125,82.55033769531252 192.73830312500002,82.15382968750002 199.98839335937504,81.90189121093752 205.63350000000003,81.84520000000002 205.63350000000003,81.84520000000002 210.54814589843755,82.09721035156252 215.6689796875,82.70611406250002 220.82150800781253,83.62469511718751 225.83123750000004,84.80573750000002 230.52367480468752,86.20202519531252 234.72432656250004,87.76634218750002 238.25869941406253,89.45147246093752 240.95230000000004,91.21020000000001 240.95230000000004,91.21020000000001 243.04187441406253,92.95364941406251 244.87702656250002,94.66087031250001 246.45254980468752,96.38653417968752 247.76323750000003,98.18531250000002 248.80388300781254,100.11187675781251 249.56927968750003,102.22089843750001 250.05422089843753,104.5670490234375 250.25350000000003,107.20500000000001 250.25350000000003,107.20500000000001 249.44316132812506,108.82026093750002 247.45385312500002,109.93096875000002 244.54111210937504,110.6250984375 240.96047500000003,110.99062500000002 236.96747851562503,111.11552343750003 232.81765937500006,111.08776875000001 228.76655429687503,110.99533593750002 225.06970000000004,110.92620000000001 225.06970000000004,110.92620000000001 223.08505859375003,110.8328658203125 221.16397500000002,110.61501406250001 219.18463515625004,110.31535839843751 217.02522500000003,109.9766125 214.56393046875004,109.6414900390625 211.67893750000005,109.35270468750002 208.24843203125008,109.1529701171875 204.15060000000005,109.08500000000001 204.15060000000005,109.08500000000001 181.24426054687507,110.313609765625 162.49045312500007,113.43649687500002 147.02965664062506,117.81557304687502 134.00235000000004,122.81275000000001 122.54901210937506,127.78993945312503 111.81012187500005,132.109053125 100.92615820312506,135.13200273437502 89.03760000000005,136.22070000000002 84.54053984375004,133.120339453125 79.90534375000003,130.782196875 75.04997578125001,128.959355859375 69.89240000000001,127.4049 64.35058046875001,125.871912890625 58.342481250000006,124.113478125 51.78606640625,121.88267929687498 44.5993,118.9326 44.5993,118.9326 39.447310742187504,116.57562773437499 34.795579687499995,114.339740625 30.669136914062502,112.187595703125 27.0930125,110.08184999999999 24.0922365234375,107.98516054687501 21.6918390625,105.86018437499999 19.9168501953125,103.669578515625 18.7923,101.376" fill="none" stroke="black" stroke-width="0.1" id="_131538080"/>
    </g>
    <circle cx="116.59" cy="84.920601" r="20.160801" fill="none" stroke="black" stroke-width="0.1" id="center_00"/>
</svg>
