<?xml version="1.0" encoding="UTF-8"?>
<!DOCTYPE svg PUBLIC "-//W3C//DTD SVG 1.1//EN" "http://www.w3.org/Graphics/SVG/1.1/DTD/svg11.dtd">
<!-- Creator: CorelDRAW -->
<svg xmlns="http://www.w3.org/2000/svg" xml:space="preserve" width="297mm" height="210mm" style="shape-rendering:geometricPrecision; text-rendering:geometricPrecision; image-rendering:optimizeQuality; fill-rule:evenodd; clip-rule:evenodd"
viewBox="0 0 297 210">
 <defs>
  <style type="text/css">
   <![CDATA[
    .str1 {stroke:#1F1A17;stroke-width:0.0762}
    .str0 {stroke:#DA2725;stroke-width:0.0762}
    .fil0 {fill:none}
   ]]>
  </style>
 </defs>
 <g id="Ebene_x0020_1">
   <polygon id="_143658512" class="fil0 str0" points="98.5877,72.9427 100.333,73.8844 102.452,73.394 103.711,73.0491 105.084,72.4875 106.275,71.8198 107.175,71.1818 108.394,70.0816 109.49,68.7634 110.32,67.4155 110.962,65.9619 111.304,64.8396 111.556,63.5108 111.653,62.0001 111.599,60.8752 111.421,59.6766 111.276,58.5321 110.244,53.8433 109.969,51.8146 109.969,49.2747 110.5,42 89.5,42.0001 90,49.2746 90,51.8146 89.7295,53.8958 88.9797,57.6398 88.6508,59.3476 88.4105,60.78 88.3475,62 88.4354,63.4384 88.6475,64.6387 89.1618,66.2875 89.5932,67.266 90.9321,68.2104 96.16,59.6538 96.743,58.8936 97.4363,58.3004 98.3119,57.8285 99.2419,57.5645 100.437,57.5204 101.491,57.7532 102.346,58.16 103.139,58.7739 103.695,59.429 104.204,60.3943 104.457,61.3816 104.495,62.2238 104.397,62.9635 104.164,63.7088 103.84,64.3462 "/>
   <line id="_142474968" class="fil0 str1" x1="109.969" y1="49.2746" x2="90" y2= "49.2746" />
   <polyline id="_140862664" class="fil0 str1" points="90,48.3085 90.0754,47.6631 90.3203,46.9898 90.768,46.294 91.4778,45.5694 92.4827,44.8575 93.6456,44.2679 94.9616,43.7876 96.5321,43.3994 98.2849,43.1535 99.9884,43.0777 101.693,43.1535 103.579,43.426 105.64,43.9952 107.6,44.9215 108.931,45.9764 109.586,46.8557 109.887,47.6035 109.977,48.3085 "/>
   <polyline id="_141244456" class="fil0 str0" points="88.6508,59.3476 89.0847,57.9127 89.628,56.6848 90.2192,55.6644 90.8275,54.8133 91.6985,53.8235 92.7775,52.8558 93.9127,52.0624 95.1721,51.3919 96.8304,50.7838 98.2828,50.4731 100,50.3474 101.088,50.3975 102.114,50.5388 103.129,50.7724 104.27,51.1547 105.572,51.7637 106.471,52.308 107.663,53.2221 108.534,54.0659 109.29,54.965 109.808,55.7063 110.572,57.0926 111.102,58.4495 111.421,59.6766 "/>
   <circle id="center_00" cx="100" cy="62" r="4.5"/>
 </g>
</svg>
