<?xml version="1.0" encoding="UTF-8"?>
<!DOCTYPE svg PUBLIC "-//W3C//DTD SVG 1.1//EN" "http://www.w3.org/Graphics/SVG/1.1/DTD/svg11.dtd">
<!-- Creator: CorelDRAW -->
<svg xmlns="http://www.w3.org/2000/svg" xml:space="preserve" width="210mm" height="297mm" style="shape-rendering:geometricPrecision; text-rendering:geometricPrecision; image-rendering:optimizeQuality; fill-rule:evenodd; clip-rule:evenodd"
viewBox="0 0 210 297">
 <defs>
  <style type="text/css">
   <![CDATA[
    .str0 {stroke:#1F1A17;stroke-width:0.0762}
    .str1 {stroke:black;stroke-width:0.1411}
    .fil0 {fill:none}
    .fil1 {fill:#84C225}
    .fil3 {fill:red}
    .fil2 {fill:#FFF500}
   ]]>
  </style>
 </defs>
 <g id="Ebene_x0020_1">
  <metadata id="CorelCorpID_0Corel-Layer"/>
  <circle id="center_00" class="fil0 str0" cx="92.2825" cy="153.348" r="20.1608"/>
  <polygon class="fil1 str0" points="36.6468,187.576 34.0944,185.075 35.5913,181.047 1.4981,173.314 25.6344,189.36 28.8234,189.904 31.9474,186.948 28.8234,189.904 29.836,190.961 32.7225,193.403 38.1121,197.508 44.0678,199.679 51.4698,200.735 59.4168,200.07 119.252,194.708 128.082,193.473 133.029,192.075 138.815,189.017 167.275,177.025 172.313,175.367 186.324,174.293 185.194,171.385 186.324,174.293 188.512,175.748 202.695,176.098 219.107,169.914 191.188,165.208 182.058,164.218 184.051,168.089 184.306,168.898 171.631,169.656 167.701,170.481 163.865,171.807 134.819,184.04 130.285,186.191 124.1,187.776 52.0498,193.942 45.7048,193.23 40.8352,190.703 "/>
  <polygon class="fil2 str0" points="-20.0788,152.689 -7.8985,151.195 10.3173,150.772 27.2208,151.282 63.667,153.095 97.669,153.396 155.808,152.386 182.53,152.41 203.756,152.637 222.642,154.882 235.105,159.896 240.16,164.6 241.477,168.47 239.895,173.052 237.459,175.306 232.534,175.271 202.864,169.89 183.333,169.4 157.526,170.501 128.221,171.601 102.555,173.761 77.3646,178.121 54.9899,185.01 40.0492,185.266 24.8498,182.145 3.724,176.66 -15.1538,172.187 -28.0701,169.703 -36.5825,168.887 -38.7616,167.11 -38.7616,163.158 -37.8626,159.174 -31.1072,154.879 "/>
  <polygon id="path2391" class="fil3 str1" points="72.9183,189.857 80.7288,186.445 83.8968,183.135 97.1695,181.866 100.608,184.353 109.573,185.906 111.289,190.554 103.359,191.214 102.636,189.859 81.1411,191.843 80.4379,193.771 72.445,194.478 "/>
  <polygon id="path2395" class="fil3 str1" points="72.5738,196.653 80.5609,195.973 81.5065,197.281 102.426,195.58 103.357,193.852 111.427,193.157 111.112,197.486 103.357,203.022 81.3497,204.762 73.8981,201.321 " sodipodi:nodetypes="ccccccccccccc"/>
 </g>
</svg>
