<svg version="1.0" xmlns="http://www.w3.org/2000/svg">
    <polygon points="7.2576,216.031 7.1428,216.035 7.0525,216.042 6.8918,216.06 6.6081,216.112 6.1177,216.267 5.5995,216.538 5.1398,216.898 4.7537,217.336 4.4545,217.836 4.2521,218.384 4.1535,218.958 3.6027,225.915 3.6195,226.58 3.7747,227.228 4.0602,227.828 4.4663,228.356 4.9743,228.789 5.5591,229.105 6.2001,229.294 6.8644,229.346 16.95,229.27 27.0318,229.559 33.0233,229.911 36.0151,230.133 39.0044,230.386 49.9427,231.575 57.5063,232.662 65.0375,233.954 65.7022,234.007 66.3652,233.922 66.9926,233.701 67.5621,233.354 68.0463,232.895 68.4223,232.349 68.6774,231.733 68.7984,231.079 69.3491,224.122 69.3499,224.111 69.3506,224.102 69.3517,224.086 69.3535,224.058 69.3561,224.008 69.3587,223.918 69.3572,223.757 69.3341,223.469 69.2283,222.967 69.0115,222.425 68.6991,221.932 68.3016,221.504 67.8324,221.156 67.3072,220.899 66.7439,220.742 58.9403,219.422 51.1037,218.314 40.1652,217.125 37.1759,216.872 34.1841,216.65 28.1926,216.297 17.7274,215.977" fill="none" stroke="black" stroke-width="0.1"/>
    <polygon points="64.4798,233.543 61.7634,233.065 57.2395,232.314 49.969,231.274 39.0296,230.085 36.0409,229.832 33.0497,229.61 27.0576,229.258 17.2665,228.971 7.4716,229.027 6.8507,228.975 6.252,228.795 5.7045,228.5 5.2285,228.097 4.8519,227.601 4.5864,227.039 4.4397,226.433 4.4217,225.811 4.8496,220.406 4.8592,220.045 5.0539,218.989 5.2757,218.492 5.5875,218.031 5.9916,217.631 6.4831,217.313 7.0426,217.103 7.6397,217.021 17.8748,216.979 28.1054,217.295 34.0975,217.647 37.0888,217.869 40.0776,218.121 51.0162,219.311 58.6262,220.385 66.2052,221.66 66.7869,221.837 67.3029,222.131 67.7377,222.523 68.0741,222.984 68.3077,223.487 68.4487,224.016 68.5025,224.548 68.473,225.084 68.4255,225.442 67.9977,230.847 67.882,231.458 67.6418,232.034 67.291,232.548 66.8411,232.977 66.3078,233.3 65.7206,233.506 65.1012,233.588" fill="none" stroke="black" stroke-width="0.1"/>
    <line x1="42.4318" y1="225.64" x2="42.4473" y2="225.463" fill="none" stroke="black" stroke-width="0.1"/>
    <polygon points="55.3959,223.249 55.1722,223.217 54.4431,223.314 53.8186,223.701 53.4088,224.31 53.3238,224.588 53.2853,224.903 53.3728,225.503 53.6606,226.037 54.1141,226.441 54.6788,226.665 55.2862,226.684 55.8633,226.495 56.3405,226.119 56.6601,225.604 56.7836,225.012 56.7831,224.891 56.697,224.413 56.4104,223.88 55.9587,223.475" fill="none" stroke="black" stroke-width="0.1"/>
    <polyline points="56.7831,224.891 56.7465,225.0313 56.6982,225.1686 56.330799999999996,225.7357 55.7754,226.1208 55.114799999999995,226.2668 54.4479,226.1522 53.8743,225.79389999999998 53.4801,225.24439999999998 53.3238,224.58829999999998" fill="none" stroke="black" stroke-width="0.1"/>
    <polygon points="56.7831,224.89099999999996" fill="none" stroke="black" stroke-width="0.1"/>
    <polyline points="55.1722,223.217 55.2846,223.2288 55.3959,223.2486" fill="none" stroke="black" stroke-width="0.1"/>
    <polygon points="55.1722,223.217" fill="none" stroke="black" stroke-width="0.1"/>
    <line x1="4.1534" y1="218.958" x2="4.1743" y2="218.956" fill="none" stroke="black" stroke-width="0.1"/>
    <polygon points="18.0619,220.292 18.2878,220.295 18.916,220.466 19.4382,220.855 19.7821,221.406 19.8999,222.045 19.7756,222.682 19.4561,223.197 18.9788,223.573 18.4018,223.762 17.7943,223.745 17.2297,223.519 16.7761,223.115 16.4883,222.581 16.4009,221.981 16.4394,221.666 16.5244,221.388 16.8811,220.833 17.4192,220.449" fill="none" stroke="black" stroke-width="0.1"/>
    <polyline points="16.4394,221.666 16.595499999999998,222.3231 16.9899,222.8716 17.563399999999998,223.22990000000001 18.2303,223.3445 18.8909,223.19850000000002 19.446399999999997,222.81340000000003 19.813699999999997,222.24630000000002 19.862,222.109 19.898699999999998,221.9686" fill="none" stroke="black" stroke-width="0.1"/>
    <polygon points="16.4394,221.666" fill="none" stroke="black" stroke-width="0.1"/>
    <polyline points="18.0619,220.292 18.1749,220.2898 18.2878,220.2957" fill="none" stroke="black" stroke-width="0.1"/>
    <polygon points="18.0619,220.292" fill="none" stroke="black" stroke-width="0.1"/>
    <polyline points="4.8496,220.406 11.454899999999999,220.2742 18.287799999999997,220.2958 23.052899999999998,220.40650000000002 27.8157,220.5963 33.807900000000004,220.9479 36.7991,221.1695 39.787800000000004,221.4229 50.7272,222.6119 52.9513,222.9058 55.395900000000005,223.2492 61.923300000000005,224.272 68.4255,225.44219999999999" fill="none" stroke="black" stroke-width="0.1"/>
    <polygon points="4.849600000000002,220.40599999999998" fill="none" stroke="black" stroke-width="0.1"/>
    <polyline points="39.2709,227.476 39.266799999999996,227.5058 39.259299999999996,227.5352" fill="none" stroke="black" stroke-width="0.1"/>
    <polygon points="39.2709,227.476" fill="none" stroke="black" stroke-width="0.1"/>
    <polygon points="50.7689,151.048 50.764822070312505,151.0882044921875 50.753132812500006,151.12569843749998 50.7346490234375,151.1596650390625 50.7101875,151.1892875 50.6805650390625,151.2137490234375 50.6465984375,151.2322328125 50.6091044921875,151.2439220703125 50.5689,151.248 48.7689,151.248 48.7689,151.141 48.7689,139.17419999999998 50.5689,139.17419999999998 50.609075781250006,139.17827792968748 50.64655625,139.18996718749997 50.68052109375,139.2084509765625 50.71015,139.23291249999997 50.734622656250004,139.26253496093747 50.75311875,139.2965015625 50.76481796875,139.3339955078125 50.7689,139.37419999999997 50.7689,151.04799999999997" fill="none" stroke="black" stroke-width="0.1"/>
    <polygon points="46.453,104.968 47.7677,87.0162 54.7491,87.5274 53.4343,105.479" fill="none" stroke="black" stroke-width="0.1"/>
    <polygon points="51.9383,105.37 47.9491,105.078 45.4116,139.725 49.397,140" fill="none" stroke="black" stroke-width="0.1"/>
    <polygon points="43.7793,139.987 43.227,140.26659999999998 42.662499999999994,140.6375 42.662499999999994,140.6375 42.363899999999994,140.9398 42.1583,140.9749 42.0119,141.00879999999998 41.9218,141.04149999999998 41.8681,141.0983 41.8681,149.2797 52.146,149.2797 52.1441,141.0736 52.1148,141.04149999999998 52.0247,141.00879999999998 51.8783,140.9749 51.672700000000006,140.9398 51.374100000000006,140.6375 51.374100000000006,140.6375 50.8096,140.26659999999998 50.2573,139.987 49.98392636718749,139.87592382812497 49.7102609375,139.768365625 49.4355244140625,139.665893359375 49.15893749999999,139.570075 48.879720898437505,139.482478515625 48.597095312499995,139.404671875 48.3102814453125,139.338223046875 48.0185,139.2847 48.0185,141.98739999999998 46.018100000000004,141.98739999999998 46.018100000000004,139.2847 45.726343164062506,139.33822714843748 45.439532812500005,139.4046859375 45.156896679687506,139.48250488281246 44.87766250000001,139.5701125 44.6010580078125,139.66593730468747 44.32631093750001,139.7684078125 44.0526490234375,139.8759525390625 43.779300000000006,139.987" fill="none" stroke="black" stroke-width="0.1"/>
    <polygon points="40.8228,150.075 41.6681,150.14309999999998 41.708333203125,150.13902617187497 41.745840625,150.12734687499997 41.77980898437501,150.10887539062497 41.809425000000005,150.08442499999995 41.833875390625,150.05480898437497 41.85234687500001,150.02084062499998 41.864026171875004,149.98333320312497 41.868100000000005,149.9431 41.868100000000005,140.3431 41.864026171875004,140.30286679687498 41.85234687500001,140.265359375 41.83387539062501,140.231391015625 41.809425000000005,140.201775 41.77980898437501,140.17732460937498 41.745840625,140.158853125 41.70833320312501,140.147173828125 41.6681,140.1431 40.9765,140.1431 40.9509361328125,140.14475546875002 40.926039062499996,140.1496125 40.902100585937504,140.15750703125 40.8794125,140.168275 40.8582666015625,140.18175234375 40.8389546875,140.197775 40.821768554687495,140.21617890625 40.807,140.23680000000002 40.7519,140.31760000000003 40.5941662109375,140.57822246093752 40.4414234375,140.8525734375 40.2953345703125,141.13774082031253 40.1575625,141.43081250000003 40.029770117187496,141.72887636718752 39.913620312499994,142.02902031250002 39.810775976562496,142.3283322265625 39.722899999999996,142.62390000000002 39.722899999999996,142.62390000000002 39.64652910156249,142.92279160156252 39.577645312499996,143.2320765625 39.5170794921875,143.5488451171875 39.46566249999999,143.87018750000001 39.4242251953125,144.19319394531252 39.393598437499996,144.51495468750002 39.3746130859375,144.83255996093752 39.3681,145.14310000000003 39.3681,145.14310000000003 39.3927697265625,145.79452050781254 39.465670312499995,146.44261406250004 39.585138867187496,147.08405371093752 39.749512499999994,147.71551250000005 39.9571283203125,148.33366347656255 40.2063234375,148.93517968750004 40.4954349609375,149.51673417968755 40.8228,150.07500000000005" fill="none" stroke="black" stroke-width="0.1"/>
    <polygon points="40.8085,150.05170000000004 40.9765,150.14310000000003 40.9514640625,150.14147773437503 40.9269625,150.13672187500003 40.903304687500004,150.12899882812502 40.88080000000001,150.11847500000005 40.8597578125,150.10531679687503 40.8404875,150.08969062500006 40.8232984375,150.07176289062502 40.8085,150.05170000000004" fill="none" stroke="black" stroke-width="0.1"/>
    <polyline points="41.6681,150.14310000000003 40.9765,150.14310000000003" fill="none" stroke="black" stroke-width="0.1"/>
    <polygon points="41.6681,150.14310000000003 41.6681,150.14310000000003 41.6681,150.14310000000003" fill="none" stroke="black" stroke-width="0.1"/>
    <polyline points="40.9765,142.549 40.9765,142.24827460937502 40.9765,141.94752812500002 40.9765,141.646767578125 40.9765,141.346 40.9765,141.04523242187503 40.9765,140.74447187500002 40.9765,140.44372539062502 40.9765,140.143" fill="none" stroke="black" stroke-width="0.1"/>
    <polyline points="40.9765,150.143 40.9765,149.84051640625 40.9765,149.53801875 40.9765,149.23551171875 40.9765,148.933 40.9765,148.63048828125 40.9765,148.32798125 40.9765,148.02548359374998 40.9765,147.723" fill="none" stroke="black" stroke-width="0.1"/>
    <polygon points="54.4992,139.96 54.4552,139.956 51.5836,139.955 51.5392,139.96 50.8222,140.148 50.7934,140.163 50.7689,140.191 50.7689,150.094 55.0314,150.172 61.0195,148.62 61.0195,141.666" fill="none" stroke="black" stroke-width="0.1"/>
    <polygon points="54.6061,144.788 54.629118749999996,144.7412701171875 54.652081249999995,144.6945109375 54.674921874999995,144.64769316406253 54.697575,144.60078750000002 54.71997499999999,144.5537646484375 54.74205625,144.50659531250002 54.763753124999994,144.45925019531253 54.785,144.41170000000002 54.795399999999994,144.38670000000002 55.151999999999994,143.31410000000002 55.24679999999999,142.19930000000002 55.04379999999999,141.08900000000003 54.60609999999999,140.03850000000003 54.57689999999999,140.00320000000002 54.54059999999999,139.97680000000003 54.49919999999999,139.96070000000003 54.45519999999999,139.95580000000004 51.58359999999999,139.95560000000003 51.53919999999999,139.96070000000003 51.497799999999984,139.97680000000003 51.46149999999999,140.00320000000002 51.432299999999984,140.03850000000003 50.994599999999984,141.08900000000003 50.79159999999998,142.19930000000002 50.88639999999998,143.31410000000002 51.24299999999998,144.38670000000002 51.25339999999998,144.41170000000002 51.27464687499997,144.45925019531253 51.29634374999998,144.50659531250005 51.318424999999976,144.5537646484375 51.34082499999998,144.60078750000002 51.36347812499997,144.64769316406256 51.38631874999997,144.6945109375 51.40928124999998,144.7412701171875 51.43229999999998,144.788 51.16419999999998,145.4126 50.96629999999998,146.0212 50.78649999999998,147.3292 50.83119999999998,147.97449999999998 50.96489999999998,148.62369999999999 51.43229999999998,149.8508 51.461599999999976,149.8875 51.497999999999976,149.9157 51.539299999999976,149.9338 51.583399999999976,149.9407 51.241499999999974,149.97889999999998 50.99589999999997,150.0151 50.82579999999997,150.0549 50.768899999999974,150.0939 50.825199999999974,150.1325 50.994299999999974,150.1721 51.583599999999976,150.2467 54.45519999999998,150.2467 54.78979999999998,150.20850000000002 55.03139999999998,150.17210000000003 55.25189999999998,150.09390000000002 55.19649999999998,150.05490000000003 55.030099999999976,150.01510000000002 54.77759999999998,149.9773 54.45519999999998,149.94070000000002 54.49909999999998,149.93380000000002 54.54039999999998,149.91570000000002 54.57679999999998,149.88750000000002 54.60609999999998,149.85080000000002 55.073499999999974,148.6237 55.20719999999997,147.9745 55.25189999999997,147.32920000000001 55.07209999999997,146.02120000000002 54.87419999999997,145.41260000000003 54.60609999999998,144.78800000000004" fill="none" stroke="black" stroke-width="0.1"/>
    <line x1="51.5836" y1="150.247" x2="54.4552" y2="150.247" fill="none" stroke="black" stroke-width="0.1"/>
    <polyline points="54.4553,150.247 54.4582921875,150.2469640625 54.4613875,150.24686250000002 54.4645390625,150.2467046875 54.46770000000001,150.24650000000003 54.4708234375,150.24625781250003 54.4738625,150.2459875 54.4767703125,150.24569843750004 54.4795,150.24540000000002" fill="none" stroke="black" stroke-width="0.1"/>
    <line x1="54.6061" y1="144.769" x2="51.4323" y2="144.769" fill="none" stroke="black" stroke-width="0.1"/>
    <polyline points="51.5287,150.237 51.5396,150.242 51.5396,150.242 51.5836,150.24599999999998" fill="none" stroke="black" stroke-width="0.1"/>
    <polygon points="51.52869999999999,150.237" fill="none" stroke="black" stroke-width="0.1"/>
    <line x1="54.4552" y1="149.94" x2="51.5836" y2="149.94" fill="none" stroke="black" stroke-width="0.1"/>
    <polyline points="54.4552,150.246 54.4552,150.247 54.4552,150.247" fill="none" stroke="black" stroke-width="0.1"/>
    <polygon points="54.4552,150.246" fill="none" stroke="black" stroke-width="0.1"/>
    <polyline points="54.4552,150.246 54.4991,150.24200000000002 54.5102,150.23700000000002" fill="none" stroke="black" stroke-width="0.1"/>
    <polygon points="54.4552,150.246" fill="none" stroke="black" stroke-width="0.1"/>
    <polyline points="56.908,149.272 56.908100000000005,149.279 56.908100000000005,149.278" fill="none" stroke="black" stroke-width="0.1"/>
    <polygon points="56.908,149.272" fill="none" stroke="black" stroke-width="0.1"/>
    <polygon points="50.5194,265.472 50.5194,257.966310546875 50.5194,247.734621875 50.5194,235.68560351562496 50.5194,222.72792499999997 50.5194,209.77025585937497 50.5194,197.721265625 50.5194,187.489623828125 50.5194,179.98399999999998 46.500299999999996,179.8815 46.813399999999994,228.89659999999998 40.796899999999994,241.0485 36.51939999999999,241.0485 35.01939999999999,241.0485 35.01939999999999,265.472 50.51939999999999,265.472" fill="none" stroke="black" stroke-width="0.1"/>
    <polyline points="41.9401,245.855 41.3919,245.8252" fill="none" stroke="black" stroke-width="0.1"/>
    <polyline points="41.3919,245.8252 41.1031,245.92669999999998 40.9708,246.20229999999998" fill="none" stroke="black" stroke-width="0.1"/>
    <polyline points="40.9708,246.20229999999998 40.9708,246.28519999999997" fill="none" stroke="black" stroke-width="0.1"/>
    <polygon points="42.5078,201.452 42.519400000000005,151.2373 42.5495,151.0503 42.5937,150.9339 42.6466,150.846 42.711999999999996,150.76850000000002 42.769499999999994,150.71720000000002 42.83069999999999,150.6742 42.87779999999999,150.6474 42.92629999999999,150.6252 42.99989999999999,150.5969 43.06879999999999,150.5609 43.19689999999999,150.4605 43.30479999999999,150.3344 43.395199999999996,150.1884 43.46189999999999,150.0319 43.50379999999999,149.864 43.51939999999999,149.6874 43.51940019531249,148.5524802734375 43.51940156249999,147.4174984375 43.51940527343749,146.2824205078125 43.51941249999999,145.1472125 43.51942441406249,144.0118404296875 43.51944218749999,142.8762703125 43.519466992187496,141.74046816406252 43.519499999999994,140.6044 43.519499999999994,140.6044 43.53987734374999,140.40216914062498 43.598293749999996,140.213815625 43.69067578124999,140.043373046875 43.81294999999999,139.894875 43.96104296874999,139.772355078125 44.130881249999995,139.679846875 44.318391406249994,139.62138398437497 44.519499999999994,139.601 50.019499999999994,139.601 50.12005429687499,139.61119609374998 50.21380937499999,139.64045625 50.298728515624994,139.68678828125002 50.37277499999999,139.7482 50.433912109374994,139.82269921875002 50.48010312499999,139.90829375 50.509311328124994,140.00299140625 50.519499999999994,140.1048 50.51939999999999,140.20270000000002 50.51939999999999,142.871804296875 50.51939999999999,145.54091562500003 50.51939999999999,148.21003164062503 50.51939999999999,150.87915000000004 50.51939999999999,153.54826835937502 50.51939999999999,156.21738437500002 50.51939999999999,158.88649570312504 50.51939999999999,161.55560000000003 50.51939999999999,167.67930000000004 50.51939999999999,173.82950000000005 50.51939999999999,180.19670000000005 50.48339999999999,180.33680000000004 50.44039999999999,180.44960000000003 50.18479999999999,180.89840000000004 50.125199999999985,181.13840000000005 50.07609999999998,181.37710000000004 50.035499999999985,181.60890000000003 49.841799999999985,182.33120000000002 49.712499999999984,183.10270000000003 49.62299999999998,183.92180000000002 49.561599999999984,184.87030000000001 49.518999999999984,186.1175 49.51939999999998,243.1866 44.73899999999998,241.0485 35.01939999999998,241.0485 35.01939999999998,243.1866 32.51939999999998,243.1866 31.461199999999984,243.0735 30.450899999999983,242.7393 29.534299999999984,242.1992 28.752999999999982,241.4777 28.14229999999998,240.6074 27.729999999999983,239.6278 27.572299999999984,238.9187 27.519399999999983,238.1942 27.519399999999983,211.2354 27.519399999999983,210.9869 27.572299999999984,210.26239999999999 27.729999999999983,209.55329999999998 28.14229999999998,208.57369999999997 28.752999999999982,207.7034 29.534299999999984,206.9819 30.450899999999983,206.4418 31.461199999999984,206.1076 32.51939999999998,205.9945 37.51939999999998,205.9945 38.59569999999999,205.8775 39.62139999999999,205.5319 40.554599999999986,204.9763 40.727299999999985,204.8385 40.89279999999999,204.69490000000002 41.05119999999999,204.54540000000003 41.201599999999985,204.39110000000002 41.34549999999999,204.23030000000003 41.479199999999985,204.06860000000003 41.696499999999986,203.77160000000003 41.934899999999985,203.38190000000003 42.132899999999985,202.97990000000004 42.308799999999984,202.50670000000005 42.42559999999998,202.05270000000004 42.45229999999998,201.91060000000004 42.46579999999998,201.82710000000006 42.46579999999998,201.82700000000006 42.46579999999998,201.82700000000006 42.46579999999998,201.82700000000006 42.46589999999998,201.82700000000006 42.46589999999998,201.82690000000005 42.46589999999998,201.82670000000005 42.46599999999999,201.82630000000003 42.46609999999999,201.82550000000003 42.46629999999999,201.82400000000004 42.46679999999999,201.82090000000005 42.467699999999994,201.81470000000004 42.46959999999999,201.80230000000003 42.473099999999995,201.77780000000004 42.4798,201.72910000000005 42.491299999999995,201.63400000000004 42.507799999999996,201.45200000000006" fill="none" stroke="black" stroke-width="0.1"/>
    <polygon points="29.5194,234.478 29.5194,213.26 29.6448,212.149 30.0146,211.094 30.6103,210.147 31.402,209.357 32.35,208.762 33.4068,208.393 34.5194,208.268 37.5194,208.268 38.6629,208.275 39.7458,208.297 40.7106,208.331 41.5063,208.377 42.0907,208.432 42.4111,208.487 42.5194,208.544 42.5191,209.013 42.6665,209.023 43.0193,209.031 43.0194,239.415 34.5607,239.415 33.7484,239.383 33.4068,239.345 32.35,238.976 31.402,238.381 30.6103,237.59 30.0146,236.644 29.6448,235.588" fill="none" stroke="black" stroke-width="0.1"/>
    <polygon points="39.5194,233.106 39.5194,214.32829999999998 39.417199999999994,213.553 39.3797375,213.46269999999998 39.342275,213.37239999999997 39.3048125,213.28209999999999 39.26734999999999,213.1918 39.22988749999999,213.10150000000002 39.192424999999986,213.01120000000003 39.15496249999999,212.92090000000002 39.11749999999999,212.8306 38.640699999999995,212.21020000000001 38.0194,211.73420000000002 37.295899999999996,211.435 36.5194,211.3329 35.742999999999995,211.435 35.0194,211.73420000000002 34.3981,212.21020000000001 33.9213,212.8306 33.6216,213.553 33.5194,214.32829999999998 33.5194,233.106 33.5194,233.2993 33.640499999999996,234.14159999999998 33.99379999999999,234.9159 34.550999999999995,235.5598 35.266999999999996,236.0212 36.0841,236.263 36.9363,236.2657 37.754900000000006,236.02890000000002 38.47370000000001,235.57190000000003 39.03490000000001,234.93160000000003 39.393100000000004,234.15940000000003 39.487700000000004,233.73400000000004 39.519400000000005,233.10600000000005" fill="none" stroke="black" stroke-width="0.1"/>
    <polygon points="36.5194,240.106 36.5194,241.049 36.5194,252.578 48.5194,252.578 48.7009,252.54 48.861,252.446 49.1507,252.118 49.3489,251.735 49.5192,250.924 49.5194,241.207 49.3854,240.738 49.0194,240.394 48.5194,240.269 43.0194,240.269 43.0194,240.473 43.0194,239.415 38.0194,239.415 38.0194,240.051 38.0048,240.053 37.8937,240.074 37.8937,240.074 37.5011,240.094 37.0628,240.103" fill="none" stroke="black" stroke-width="0.1"/>
    <line x1="48.5194" y1="249.24" x2="36.5194" y2="249.24" fill="none" stroke="black" stroke-width="0.1"/>
    <polygon points="37.4486,246.954 37.4477,246.952 37.1301,246.149 37.0194,245.258 37.0564,244.715 37.1668,244.219 37.5362,243.394 38.1049,242.692 38.8347,242.159 39.677,241.83 40.5756,241.728 41.4704,241.859 42.3017,242.214 43.014,242.771 43.5598,243.491 43.9025,244.327 44.0067,245.125 44.0194,245.222 44.0191,245.326 43.8737,246.27 43.8586,246.32 43.85,246.352 43.7939,246.521 43.7236,246.684 43.6978,246.737 43.6708,246.79 43.6196,246.897 43.5642,247.002 43.473,247.154 43.3732,247.302 43.2664,247.444 43.1528,247.581 43.0323,247.712 42.9052,247.836 42.7719,247.954 42.6329,248.065 42.4884,248.168 42.3388,248.265 42.1845,248.353 42.0259,248.434 41.8634,248.506 41.6974,248.57 41.5284,248.626 41.3568,248.673 41.183,248.712 41.0075,248.74 40.92,248.75 40.8318,248.757 40.7439,248.765 40.7001,248.767 40.6124,248.771 40.5685,248.772 40.4807,248.772 40.4368,248.771 40.383,248.769 40.3293,248.767 40.2416,248.761 40.1542,248.753 40.1106,248.748 40.0235,248.737 39.9801,248.73 39.9368,248.723 39.8327,248.704 39.7349,248.685 39.638,248.662 39.4671,248.613 39.2988,248.555 39.1337,248.488 38.9722,248.414 38.8147,248.332 38.6616,248.241 38.5133,248.143 38.3702,248.037 38.2327,247.925 38.101,247.805 37.9754,247.679 37.8567,247.547 37.7454,247.409 37.6399,247.265 37.5402,247.118 37.4529,246.963 37.4507,246.959" fill="none" stroke="black" stroke-width="0.1"/>
    <polygon points="40.9145,247.318 40.4175,247.35 39.9159,247.264 39.3312,246.967 38.8744,246.496 38.5947,245.903 38.5224,245.252 38.6651,244.612 39.0075,244.053 39.5127,243.635 40.1264,243.402 40.6281,243.382 41.1249,243.457 41.7089,243.755 42.1651,244.225 42.4442,244.818 42.5165,245.469 42.3739,246.108 42.032,246.667 41.5274,247.085" fill="none" stroke="black" stroke-width="0.1"/>
    <polygon points="41.2077,241.851 41.2079,241.8511 41.071200000000005,244.3611 41.0686,244.4072 41.0686,244.49009999999998 41.1702,244.77839999999998 41.446200000000005,244.9106 41.994400000000006,244.94029999999998 41.94010000000001,245.9373 41.39190000000001,245.9076 41.103100000000005,246.00900000000001 40.974700000000006,246.27650000000003 40.970800000000004,246.28470000000002 40.8316,248.75740000000002 40.743900000000004,248.7648 40.700100000000006,248.7674 40.61240000000001,248.7708 40.56850000000001,248.7717 40.480700000000006,248.7718 40.436800000000005,248.77100000000002 40.383,248.76940000000002 40.3293,248.76680000000002 40.241600000000005,248.76100000000002 40.1542,248.7529 40.110600000000005,248.74810000000002 40.023500000000006,248.7367 39.98010000000001,248.73020000000002 39.936800000000005,248.72320000000002 39.8327,248.70430000000002 39.834500000000006,248.69100000000003 39.834500000000006,248.69100000000003 39.854206445312506,248.38362187500005 39.87269531250001,248.07613125 39.890220898437505,247.76855625000002 39.90703750000001,247.46092500000003 39.92339941406251,247.15326562500005 39.939560937500005,246.84560625000006 39.95577636718751,246.53797500000002 39.972300000000004,246.23040000000003 39.8706,245.94210000000004 39.5946,245.80990000000003 39.0467,245.78010000000003 39.0987,244.78300000000004 39.6489,244.81290000000004 39.9006,244.74090000000004 40.053799999999995,244.52880000000005 40.06999999999999,244.43580000000006 40.08783183593749,244.11174453125008 40.105873437499994,243.78765625000005 40.12393144531249,243.46353984375006 40.14181249999999,243.13940000000005 40.1593232421875,242.81524140625004 40.176270312499994,242.49106875000007 40.192460351562495,242.16688671875005 40.207699999999996,241.84270000000006 40.209399999999995,241.79640000000006 40.296899999999994,241.78970000000007 40.38459999999999,241.78530000000006 40.42849999999999,241.78380000000007 40.516299999999994,241.78270000000006 40.560199999999995,241.78290000000007 40.604099999999995,241.78370000000007 40.709599999999995,241.78790000000006 40.75339999999999,241.79050000000007 40.79719999999999,241.79370000000006 40.88459999999999,241.80180000000007 40.92819999999999,241.80660000000006 41.01529999999999,241.81800000000007 41.05869999999999,241.82450000000006 41.13339999999999,241.83690000000007 41.20769999999999,241.85100000000008" fill="none" stroke="black" stroke-width="0.1"/>
    <polyline points="41.9401,245.855 41.3919,245.8252" fill="none" stroke="black" stroke-width="0.1"/>
    <polyline points="41.3919,245.8252 41.1031,245.92669999999998 40.9708,246.20229999999998" fill="none" stroke="black" stroke-width="0.1"/>
    <polyline points="40.9708,246.20229999999998 40.9708,246.28519999999997" fill="none" stroke="black" stroke-width="0.1"/>
    <polyline points="39.9728,246.126 39.8633,245.8513 39.5946,245.7272" fill="none" stroke="black" stroke-width="0.1"/>
    <polyline points="39.0489,245.69750000000002 39.5946,245.7272" fill="none" stroke="black" stroke-width="0.1"/>
    <polyline points="39.9728,246.2088 39.9728,246.126" fill="none" stroke="black" stroke-width="0.1"/>
    <polyline points="42.5194,208.544 42.507799999999996,201.4523" fill="none" stroke="black" stroke-width="0.1"/>
    <polyline points="43.0194,180.723 43.0194,195.7898 43.019299999999994,209.031" fill="none" stroke="black" stroke-width="0.1"/>
    <polyline points="50.0194,141.426 50.0194,147.78 50.0194,154.236 50.0194,160.768 50.0194,167.352 50.0194,173.963 50.0194,180.576 49.714499999999994,180.874 49.5012,181.185 49.3388,181.49 49.1911,181.83200000000002 48.9704,182.497 48.8062,183.181" fill="none" stroke="black" stroke-width="0.1"/>
    <polygon points="50.0194,141.42600000000002" fill="none" stroke="black" stroke-width="0.1"/>
    <polyline points="43.0194,151.421 43.608799999999995,151.1533 44.0911,150.7023 44.407799999999995,150.1108 44.5194,149.43910000000002 44.5194,148.43750390625002 44.5194,147.43589375000005 44.5194,146.43427421875003 44.5194,145.43265000000002 44.5194,144.43102578125 44.5194,143.42940625 44.5194,142.42779609375003 44.5194,141.42620000000002" fill="none" stroke="black" stroke-width="0.1"/>
    <polygon points="29.0195,243.648 29.0194,243.8459 29.0194,244.4321 29.0194,245.38389999999998 29.0194,246.66479999999999 29.0194,248.2256 29.0194,250.00639999999999 29.0194,251.93859999999998 29.0194,253.94799999999998 29.0194,255.95739999999998 29.0194,257.8896 29.0194,259.6704 29.0194,261.23119999999994 29.0194,262.5120999999999 29.0194,263.46399999999994 29.0194,264.05009999999993 29.0195,264.2478999999999 29.0398771484375,264.4490085937499 29.0982921875,264.6365187499999 29.190670507812502,264.80635703124995 29.312937500000004,264.9544499999999 29.461018554687502,265.0767242187499 29.6308390625,265.1691062499999 29.8183244140625,265.2275226562499 30.0194,265.2478999999999 35.019400000000005,265.2479999999999 35.019400000000005,242.64799999999988 30.019400000000005,242.64799999999988 29.818324414062502,242.6683445312499 29.630839062500005,242.7267374999999 29.461018554687506,242.81910546874988 29.312937500000004,242.94137499999988 29.190670507812502,243.08947265624985 29.098292187500007,243.25932499999988 29.039877148437505,243.44685859374988 29.019500000000004,243.64799999999988" fill="none" stroke="black" stroke-width="0.1"/>
    <polyline points="30.0194,246.61 30.0194,246.114733203125 30.0194,245.61945937500002 30.0194,245.124180859375 30.0194,244.62890000000002 30.0194,244.13361914062503 30.0194,243.638340625 30.0194,243.14306679687502 30.0194,242.64780000000002" fill="none" stroke="black" stroke-width="0.1"/>
    <polyline points="30.0194,265.248 30.0194,265.134 30.0194,264.797 30.0194,264.24100000000004 30.0194,263.47900000000004 30.0194,262.52500000000003 30.0194,261.39900000000006" fill="none" stroke="black" stroke-width="0.1"/>
    <polygon points="30.0194,265.24800000000005" fill="none" stroke="black" stroke-width="0.1"/>
    <polygon points="54.0194,263.419 54.0176560546875,263.42102226562497 54.015854687499996,263.423121875 54.014079101562494,263.425198046875 54.012412499999996,263.42715 54.0109380859375,263.428876953125 54.0097390625,263.430278125 54.0088986328125,263.431252734375 54.0085,263.4317 54.0085,263.4317 53.64665,263.80365859374996 53.259843749999995,264.14431874999997 52.849946875,264.45241953125 52.418825,264.7267 51.968343749999995,264.96589921874994 51.50036875,265.16875624999994 51.016765625,265.33401015625003 50.5194,265.4604 50.5194,265.4604 50.5194,262.583049609375 50.5194,259.70567812499996 50.5194,256.82829257812494 50.5194,253.9509 50.5194,251.07350742187498 50.5194,248.196121875 50.5194,245.31875039062498 50.5194,242.4414 50.5194,242.4414 51.0179166015625,242.57792558593746 51.5040265625,242.75379218749998 51.9750076171875,242.9671845703125 52.4281375,243.2162875 52.8606939453125,243.49928574218748 53.2699546875,243.81436406249998 53.6531974609375,244.1597072265625 54.0077,244.53349999999998 54.0077,244.53349999999998 54.00832578125,244.53421191406247 54.009668749999996,244.53578281249997 54.01148984375,244.53792792968747 54.01355,244.54036249999996 54.015610156250006,244.54280175781247 54.01743125,244.54496093749998 54.018774218749996,244.54655527343746 54.0194,244.54729999999998 54.0194,244.54729999999998 54.0194,246.90624609374998 54.0194,249.26520624999998 54.0194,251.62417578125 54.0194,253.98314999999997 54.0194,256.34212421875 54.0194,258.70109375 54.0194,261.06005390625 54.0194,263.419" fill="none" stroke="black" stroke-width="0.1"/>
    <polygon points="54.0194,248.024 54.023873046874996,248.0248640625 54.032965624999996,248.0267125 54.04513789062499,248.0292171875 54.05884999999999,248.03205 54.072562109375,248.0348828125 54.084734375,248.0373875 54.093826953124996,248.0392359375 54.098299999999995,248.0401 54.098299999999995,248.0401 54.69319570312499,248.17556445312496 55.26834062499999,248.375278125 55.818646484374995,248.635446484375 56.33902499999999,248.952275 56.824387890625,249.321969140625 57.26964687499999,249.740734375 57.669713671874995,250.20477617187498 58.019499999999994,250.7103 58.019499999999994,250.7103 58.01949570312499,251.525344140625 58.01948437499999,252.337596875 58.01946835937499,253.147988671875 58.01944999999999,253.95745 58.019431640624994,254.766911328125 58.01941562499999,255.577303125 58.019404296874995,256.389555859375 58.01939999999999,257.20459999999997 58.01939999999999,257.20459999999997 58.01754238281249,257.2074728515625 58.01436406249999,257.2122828125 58.010306835937484,257.21837949218747 58.00581249999999,257.2251125 58.00132285156249,257.2318314453125 57.99727968749999,257.2378859374999 57.994124804687495,257.2426255859375 57.99229999999999,257.24539999999996 57.99229999999999,257.24539999999996 57.63631386718749,257.74693847656243 57.23085468749999,258.2069140625 56.78057128906249,258.6214419921875 56.29011249999999,258.9866375 55.76412714843749,259.2986158203124 55.207264062499995,259.55349218749996 54.62417207031249,259.74738183593746 54.019499999999994,259.87639999999993 54.01939999999999,248.02399999999994" fill="none" stroke="black" stroke-width="0.1"/>
    <polygon points="42.5175,225.272 42.5037,224.127 42.2727,223.005 41.8328,221.948 41.2,220.993 40.3973,220.175 39.4538,219.524 38.4037,219.064 37.2853,218.81 36.1391,218.774 34.9598,218.967 33.8421,219.389 32.8299,220.023 31.9631,220.844 31.2759,221.821 30.7954,222.913 30.5405,224.079 30.5213,225.272 30.5871,226.017 41.8059,226.102" fill="none" stroke="black" stroke-width="0.1"/>
    <polygon points="42.2651,226.845 41.9498,227.666 41.5173,228.432 41.0595,229.034 40.1197,229.908 39.0148,230.563 37.7953,230.968 36.9617,231.068 36.1795,231.102 35.3334,230.987 34.1142,230.603 33.0042,229.971 32.0538,229.118 31.5433,228.465 30.9289,227.294 30.5871,226.017 30.5213,225.272 30.5345,224.697 30.7737,223.397 31.1892,222.374 31.7861,221.444 32.5442,220.639 33.4377,219.987 34.4361,219.509 35.5055,219.223 36.6094,219.138 37.7103,219.256 38.7706,219.574 39.7542,220.081 40.6277,220.76 41.3612,221.587 41.9299,222.535 42.3143,223.57 42.5014,224.659 42.5175,225.272 42.4848,225.763" fill="none" stroke="black" stroke-width="0.1"/>
    <polygon points="40.0434,227.015 39.7191,227.771 39.2345,228.435 38.6136,228.976 37.8878,229.365 37.0933,229.583 36.2701,229.62 35.4593,229.473 34.7017,229.149 34.0353,228.666 33.4934,228.047 33.1033,227.323 32.8845,226.53 32.8479,225.709 32.9954,224.901 33.3197,224.145 33.8044,223.481 34.4252,222.94 35.151,222.551 35.9455,222.333 36.7688,222.296 37.5795,222.443 38.3371,222.767 39.0035,223.25 39.5454,223.869 39.9355,224.593 40.1543,225.386 40.1909,226.207" fill="none" stroke="black" stroke-width="0.1"/>
    <polygon points="36.3913,222.562 33.6048,224.197 33.5322,224.271 33.5062,224.37 33.5328,227.595 33.5605,227.694 33.6343,227.767 36.4475,229.356 36.5477,229.382 36.6475,229.354 39.4341,227.719 39.49,227.67 39.5242,227.605 39.5326,227.546 39.506,224.321 39.4784,224.222 39.4046,224.149 36.5913,222.56 36.4911,222.534" fill="none" stroke="black" stroke-width="0.1"/>
    <line x1="42.5194" y1="225.121" x2="42.5194" y2="224.943" fill="none" stroke="black" stroke-width="0.1"/>
    <line x1="33.5328" y1="227.275" x2="33.5328" y2="227.595" fill="none" stroke="black" stroke-width="0.1"/>
    <line x1="36.4475" y1="228.505" x2="36.4475" y2="229.356" fill="none" stroke="black" stroke-width="0.1"/>
    <polyline points="39.5242,226.755 39.512100000000004,226.7858 39.47860000000001,226.8339 39.47301699218751,226.83821250000003 39.467442187500005,226.84252500000002 39.461874414062514,226.8468375 39.45631250000001,226.85115000000002 39.45075527343751,226.85546250000002 39.44520156250001,226.859775 39.4396501953125,226.86408749999998 39.43410000000001,226.8684 38.85680000000001,227.1953 38.251200000000004,227.54590000000002 37.5722,227.94570000000002 37.229800000000004,228.15 36.889700000000005,228.3554 36.64750000000001,228.5036 36.61350000000001,228.5203 36.55940000000001,228.53209999999999 36.50060000000001,228.527 36.44750000000001,228.50529999999998 35.86470000000001,228.16419999999997 35.25330000000001,227.81399999999996 34.56780000000001,227.42809999999997 34.22210000000001,227.23629999999997 33.87880000000001,227.04819999999998 33.63430000000001,226.91609999999997 33.60350000000001,226.89539999999997 33.56670000000001,226.85489999999996 33.54140000000001,226.80139999999994 33.53280000000001,226.74409999999995" fill="none" stroke="black" stroke-width="0.1"/>
    <polyline points="39.5306,227.226 39.5291,227.256 39.5242,227.286" fill="none" stroke="black" stroke-width="0.1"/>
    <polygon points="39.5306,227.226" fill="none" stroke="black" stroke-width="0.1"/>
    <polygon points="41.8939,140.851 41.8939,149.351 43.3939,149.351 43.3939,140.851" fill="none" stroke="black" stroke-width="0.1"/>
    <polygon points="50.645,149.351 52.145,149.351 52.145,140.851 50.645,140.851" fill="none" stroke="black" stroke-width="0.1"/>
    <polygon points="43.5194,149.304 43.5194,145.083 43.5194,140.898 43.3939,140.898 43.3939,145.083 43.3939,149.304" fill="none" stroke="black" stroke-width="0.1"/>
    <polyline points="52.145,147.601 52.945,147.601" fill="none" stroke="black" stroke-width="0.1"/>
    <polygon points="52.945,147.601 52.145,147.601 52.145,146.97601640624998 52.145,146.35101874999998 52.145,145.72601171875 52.145,145.101 52.145,144.47598828125 52.145,143.85098125000002 52.145,143.22598359375002 52.145,142.601 52.945,142.601 52.945,147.601" fill="none" stroke="black" stroke-width="0.1"/>
    <polygon points="50.645,149.303 50.645,148.485 50.645,147.449 50.645,146.086 50.645,144.475 50.645,142.712 50.645,140.898 50.5194,140.898 50.5194,141.127 50.5194,141.613 50.5194,142.384 50.5194,143.41 50.5194,144.66 50.5194,146.112 50.5194,147.647 50.5194,149.303" fill="none" stroke="black" stroke-width="0.1"/>
    <polygon points="41.145,146.642 41.145,146.2267 41.145,145.6523 41.145,145.0 41.145,144.362 41.145,143.8285 41.145,143.4749 41.145100000000006,143.35119999999998 41.14591425781251,143.31613867187497 41.14833281250001,143.28147812499998 41.152319335937506,143.24725351562498 41.15783750000001,143.21349999999998 41.164850976562505,143.180252734375 41.1733234375,143.147546875 41.18321855468751,143.11541757812498 41.194500000000005,143.08389999999997 41.194500000000005,143.08389999999997 41.21568925781251,143.03413085937498 41.24030156250001,142.986253125 41.268178710937505,142.94042382812498 41.29916250000001,142.89679999999998 41.33309472656251,142.85553867187497 41.369817187500004,142.81679687499997 41.40917167968751,142.780731640625 41.45100000000001,142.74749999999997 41.45100000000001,142.74749999999997 41.47067011718751,142.73347343749998 41.49081718750001,142.72005625 41.511421289062504,142.70726718749998 41.53246250000001,142.695125 41.55392089843751,142.68364843749998 41.57577656250001,142.67285624999997 41.59800957031251,142.66276718749995 41.62060000000001,142.65339999999998 41.62060000000001,142.65339999999998 41.65285761718751,142.64154316406248 41.68577968750001,142.6311265625 41.719327539062505,142.62219355468747 41.75346250000001,142.61478749999998 41.78814589843751,142.6089517578125 41.82333906250001,142.60472968749997 41.85900332031251,142.60216464843748 41.89510000000001,142.60129999999998 41.89510000000001,142.60129999999998 41.89510000000001,143.2262546875 41.89510000000001,143.8512375 41.89510000000001,144.47623906249999 41.89510000000001,145.10125 41.89510000000001,145.72626093749997 41.89510000000001,146.3512625 41.89510000000001,146.9762453125 41.89510000000001,147.60119999999998 41.89510000000001,147.60119999999998 41.87099902343751,147.60081328125 41.84707968750001,147.59966249999997 41.82335488281251,147.59776171874998 41.79983750000001,147.59512499999997 41.776540429687515,147.59176640624997 41.75347656250001,147.58769999999998 41.73065878906252,147.58293984374998 41.708100000000016,147.5775 41.708100000000016,147.5775 41.679931835937516,147.56963906250002 41.65221718750002,147.5607 41.624978320312515,147.55071093749999 41.59823750000002,147.53969999999998 41.57201699218752,147.5276953125 41.54633906250002,147.514725 41.52122597656251,147.5008171875 41.49670000000002,147.486 41.49670000000002,147.486 41.469940039062514,147.46830097656246 41.44398281250002,147.4495015625 41.41886230468752,147.4296357421875 41.394612500000015,147.4087375 41.37126738281252,147.3868408203125 41.348860937500014,147.36397968749998 41.327427148437515,147.34018808593748 41.307000000000016,147.3155 41.307000000000016,147.3155 41.290756250000015,147.29423203124998 41.27526250000002,147.27236874999997 41.26053750000001,147.24993359374997 41.246600000000015,147.22695 41.233468750000014,147.20344140624996 41.22116250000001,147.17943125 41.20970000000002,147.15494296875 41.199100000000016,147.13 41.199100000000016,147.13 41.18678828125002,147.0972787109375 41.17598125000002,147.06386718750002 41.16672109375001,147.0298064453125 41.15905000000002,146.9951375 41.15301015625002,146.9599013671875 41.14864375000001,146.92413906250002 41.145992968750015,146.8878916015625 41.14510000000001,146.8512 41.14500000000001,146.7981 41.14500000000001,146.642" fill="none" stroke="black" stroke-width="0.1"/>
    <line x1="50.5149" y1="140.065" x2="50.5149" y2="140.059" fill="none" stroke="black" stroke-width="0.1"/>
    <rect x="26.0194" y="246.448" width="2" height="15" fill="none" stroke="black" stroke-width="0.1"/>
    <polygon points="26.0194,246.448 9.9232,244.439 9.9232,263.457 26.0194,261.448" fill="none" stroke="black" stroke-width="0.1"/>
    <rect x="28.0194" y="249.948" width="1" height="8" fill="none" stroke="black" stroke-width="0.1"/>
    <polyline points="53.8155,87.4591 54.208884375,82.0808712890625 54.55404375,76.9996765625 54.835425,72.2004279296875 55.037475,67.66803750000001 55.144640625,63.3874173828125 55.14136875,59.34347968750001 55.01210625,55.521136523437505 54.7413,51.905300000000004" fill="none" stroke="black" stroke-width="0.1"/>
    <polyline points="48.7415,87.0876 49.028425000000006,83.19134082031249 49.292699999999996,79.45070781249999 49.528549999999996,75.8601052734375 49.730199999999996,72.4139375 49.891875,69.10660878906249 50.0078,65.9325234375 50.0722,62.8860857421875 50.0793,59.96169999999999" fill="none" stroke="black" stroke-width="0.1"/>
    <polyline points="33.5278,218.762 34.3032,218.347 34.3032,218.347 35.229,218.05 36.2375,217.91000000000003 37.106399999999994,217.93400000000003 37.98349999999999,218.09400000000002 39.520799999999994,218.74800000000002" fill="none" stroke="black" stroke-width="0.1"/>
    <polygon points="33.52779999999999,218.76200000000003" fill="none" stroke="black" stroke-width="0.1"/>
    <polyline points="39.5536,217.1 36.5643,216.8465 33.5724,216.6249" fill="none" stroke="black" stroke-width="0.1"/>
    <polygon points="39.5536,217.1" fill="none" stroke="black" stroke-width="0.1"/>
    <polyline points="39.4659,218.096 36.477199999999996,217.8436 33.485899999999994,217.622" fill="none" stroke="black" stroke-width="0.1"/>
    <polygon points="39.46589999999999,218.096" fill="none" stroke="black" stroke-width="0.1"/>
    <polyline points="39.5194,219.37 38.3732,218.862 37.146499999999996,218.603 35.892599999999995,218.603 34.66589999999999,218.862 33.51969999999999,219.37" fill="none" stroke="black" stroke-width="0.1"/>
    <polygon points="39.51939999999999,219.37" fill="none" stroke="black" stroke-width="0.1"/>
    <circle id="center_00" cx="36.5001" cy="223.5" r="12.5" fill="none" stroke="black" stroke-width="0.1"/>
</svg>

