<!DOCTYPE svg PUBLIC "-//W3C//DTD SVG 1.1//EN" "http://www.w3.org/Graphics/SVG/1.1/DTD/svg11.dtd">
<svg xmlns="http://www.w3.org/2000/svg" width="297mm" height="210mm" viewBox="0 0 297 210">
    <defs id="_tag_197_"/>
    <g id="_tag_198_">
        <g id="_tag_199_">
            <polygon id="_79948800" points="-11.3923,152.857 -11.5071,152.861 -11.5974,152.868 -11.7581,152.886 -12.0418,152.938 -12.5322,153.093 -13.0504,153.364 -13.5101,153.724 -13.8962,154.162 -14.1954,154.662 -14.3978,155.21 -14.4964,155.784 -15.0472,162.741 -15.0304,163.406 -14.8752,164.054 -14.5897,164.654 -14.1836,165.182 -13.6756,165.615 -13.0908,165.931 -12.4498,166.12 -11.7855,166.172 -1.6999,166.096 8.3819,166.385 14.3734,166.737 17.3652,166.959 20.3545,167.212 31.2928,168.401 38.8564,169.488 46.3876,170.78 47.0523,170.833 47.7153,170.748 48.3427,170.527 48.9122,170.18 49.3964,169.721 49.7724,169.175 50.0275,168.559 50.1485,167.905 50.6992,160.948 50.7,160.937 50.7007,160.928 50.7018,160.912 50.7036,160.884 50.7062,160.834 50.7088,160.744 50.7073,160.583 50.6842,160.295 50.5784,159.793 50.3616,159.251 50.0492,158.758 49.6517,158.33 49.1825,157.982 48.6573,157.725 48.094,157.568 40.2904,156.248 32.4538,155.14 21.5153,153.951 18.526,153.698 15.5342,153.476 9.5427,153.123 -0.9225,152.803" fill="none" stroke="black" stroke-width="0.1"/>
            <polygon id="_79950096" points="45.8299,170.369 43.1135,169.891 38.5896,169.14 31.3191,168.1 20.3797,166.911 17.391,166.658 14.3998,166.436 8.4077,166.084 -1.3834,165.797 -11.1783,165.853 -11.7992,165.801 -12.3979,165.621 -12.9454,165.326 -13.4214,164.923 -13.798,164.427 -14.0635,163.865 -14.2102,163.259 -14.2282,162.637 -13.8003,157.232 -13.7907,156.871 -13.596,155.815 -13.3742,155.318 -13.0624,154.857 -12.6583,154.457 -12.1668,154.139 -11.6073,153.929 -11.0102,153.847 -0.7751,153.805 9.4555,154.121 15.4476,154.473 18.4389,154.695 21.4277,154.947 32.3663,156.137 39.9763,157.211 47.5553,158.486 48.137,158.663 48.653,158.957 49.0878,159.349 49.4242,159.81 49.6578,160.313 49.7988,160.842 49.8526,161.374 49.8231,161.91 49.7756,162.268 49.3478,167.673 49.2321,168.284 48.9919,168.86 48.6411,169.374 48.1912,169.803 47.6579,170.126 47.0707,170.332 46.4513,170.414" fill="none" stroke="black" stroke-width="0.1"/>
            <polygon id="_79927056" points="36.746,160.075 36.5223,160.043 35.7932,160.14 35.1687,160.527 34.7589,161.136 34.6739,161.414 34.6354,161.729 34.7229,162.329 35.0107,162.863 35.4642,163.267 36.0289,163.491 36.6363,163.51 37.2134,163.321 37.6906,162.945 38.0102,162.43 38.1337,161.838 38.1332,161.717 38.0471,161.239 37.7605,160.706 37.3088,160.301" fill="none" stroke="black" stroke-width="0.1"/>
            <g id="_79930608_1">
                <polyline id="_79930608___0" class="fil0 str0" points="38.1332,161.717 38.0966,161.8573 38.048300000000005,161.99460000000002 37.6809,162.56170000000003 37.1255,162.94680000000002 36.4649,163.0928 35.798,162.97820000000002 35.2244,162.6199 34.830200000000005,162.0704 34.6739,161.4143" fill="none" stroke="black" stroke-width="0.1"/>
                <polygon id="_79930608___1" class="fil0 str0" points="38.1332,161.71699999999998" fill="none" stroke="black" stroke-width="0.1"/>
            </g>
            <g id="_79946664_1">
                <polyline id="_79946664___0" class="fil0 str0" points="36.5223,160.043 36.6347,160.0548 36.746,160.0746" fill="none" stroke="black" stroke-width="0.1"/>
                <polygon id="_79946664___1" class="fil0 str0" points="36.5223,160.043" fill="none" stroke="black" stroke-width="0.1"/>
            </g>
            <polygon id="_80142008" points="-0.588,157.118 -0.3621,157.121 0.2661,157.292 0.7883,157.681 1.1322,158.232 1.25,158.871 1.1257,159.508 0.8062,160.023 0.3289,160.399 -0.2481,160.588 -0.8556,160.571 -1.4202,160.345 -1.8738,159.941 -2.1616,159.407 -2.249,158.807 -2.2105,158.492 -2.1255,158.214 -1.7688,157.659 -1.2307,157.275" fill="none" stroke="black" stroke-width="0.1"/>
            <g id="_80142776_1">
                <polyline id="_80142776___0" class="fil0 str0" points="-2.2105,158.492 -2.0544000000000002,159.1491 -1.6600000000000001,159.6976 -1.0865,160.0559 -0.4196,160.1705 0.241,160.02450000000002 0.7965,159.63940000000002 1.1638,159.0723 1.2121,158.935 1.2488,158.7946" fill="none" stroke="black" stroke-width="0.1"/>
                <polygon id="_80142776___1" class="fil0 str0" points="-2.2104999999999997,158.492" fill="none" stroke="black" stroke-width="0.1"/>
            </g>
            <g id="_80142752_1">
                <polyline id="_80142752___0" class="fil0 str0" points="-0.588,157.118 -0.475,157.1158 -0.3621,157.1217" fill="none" stroke="black" stroke-width="0.1"/>
                <polygon id="_80142752___1" class="fil0 str0" points="-0.588,157.118" fill="none" stroke="black" stroke-width="0.1"/>
            </g>
            <g id="_80142968_1">
                <polyline id="_80142968___0" class="fil0 str0" points="-13.8003,157.232 -7.195,157.1002 -0.36209999999999987,157.1218 4.4030000000000005,157.23250000000002 9.1658,157.4223 15.158000000000001,157.7739 18.1492,157.9955 21.137900000000002,158.2489 32.0773,159.43789999999998 34.3014,159.7318 36.746,160.0752 43.2734,161.09799999999998 49.775600000000004,162.26819999999998" fill="none" stroke="black" stroke-width="0.1"/>
                <polygon id="_80142968___1" class="fil0 str0" points="-13.800299999999993,157.23199999999997" fill="none" stroke="black" stroke-width="0.1"/>
            </g>
            <g id="_80144456_1">
                <polyline id="_80144456___0" class="fil0 str0" points="20.621,164.302 20.616899999999998,164.3318 20.609399999999997,164.3612" fill="none" stroke="black" stroke-width="0.1"/>
                <polygon id="_80144456___1" class="fil0 str0" points="20.621,164.302" fill="none" stroke="black" stroke-width="0.1"/>
            </g>
            <polygon id="_80144960" points="32.119,87.8742 32.1149,87.9144 32.1032,87.9519 32.0847,87.9859 32.0603,88.0155 32.0307,88.0399 31.9967,88.0584 31.9592,88.0701 31.919,88.0742 30.119,88.0742 30.119,87.9672 30.119,76.0004 31.919,76.0004 31.9592,76.0045 31.9967,76.0162 32.0306,76.0347 32.0602,76.0591 32.0847,76.0887 32.1032,76.1227 32.1149,76.1602 32.119,76.2004" fill="none" stroke="black" stroke-width="0.1"/>
            <polygon id="_80145584" points="27.8031,41.7942 29.1178,23.8424 36.0992,24.3536 34.7844,42.3052" fill="none" stroke="black" stroke-width="0.1"/>
            <polygon id="_80145944" points="33.2884,42.1962 29.2992,41.9042 26.7617,76.5512 30.7471,76.8262" fill="none" stroke="black" stroke-width="0.1"/>
            <polygon id="_80146544" points="25.1294,76.8132 24.5771,77.0928 24.0126,77.4637 24.0126,77.4637 23.714,77.766 23.5084,77.8011 23.362,77.835 23.2719,77.8677 23.2182,77.9245 23.2182,86.1059 33.4961,86.1059 33.4942,77.8998 33.4649,77.8677 33.3748,77.835 33.2284,77.8011 33.0228,77.766 32.7242,77.4637 32.7242,77.4637 32.1597,77.0928 31.6074,76.8132 31.334,76.7021 31.0604,76.5946 30.7856,76.4921 30.509,76.3963 30.2298,76.3087 29.9472,76.2309 29.6604,76.1644 29.3686,76.1109 29.3686,78.8136 27.3682,78.8136 27.3682,76.1109 27.0764,76.1644 26.7896,76.2309 26.507,76.3087 26.2278,76.3963 25.9512,76.4921 25.6764,76.5946 25.4027,76.7022" fill="none" stroke="black" stroke-width="0.1"/>
            <polygon id="_80146688" points="22.1729,86.9012 23.0182,86.9693 23.0584,86.9652 23.0959,86.9535 23.1299,86.9351 23.1595,86.9106 23.184,86.881 23.2024,86.847 23.2141,86.8095 23.2182,86.7693 23.2182,77.1693 23.2141,77.1291 23.2024,77.0916 23.184,77.0576 23.1595,77.028 23.1299,77.0035 23.0959,76.9851 23.0584,76.9734 23.0182,76.9693 22.3266,76.9693 22.301,76.971 22.2761,76.9758 22.2522,76.9837 22.2295,76.9945 22.2084,77.008 22.1891,77.024 22.1719,77.0424 22.1571,77.063 22.102,77.1438 21.9443,77.4044 21.7915,77.6788 21.6454,77.9639 21.5077,78.257 21.3799,78.5551 21.2637,78.8552 21.1609,79.1545 21.073,79.4501 21.073,79.4501 20.9966,79.749 20.9277,80.0583 20.8672,80.375 20.8158,80.6964 20.7743,81.0194 20.7437,81.3412 20.7247,81.6588 20.7182,81.9693 20.7182,81.9693 20.7429,82.6207 20.8158,83.2688 20.9352,83.9103 21.0996,84.5417 21.3072,85.1599 21.5564,85.7614 21.8455,86.3429" fill="none" stroke="black" stroke-width="0.1"/>
            <polygon id="_80146904" points="22.1586,86.8779 22.3266,86.9693 22.3016,86.9677 22.2771,86.9629 22.2534,86.9552 22.2309,86.9447 22.2099,86.9315 22.1906,86.9159 22.1734,86.898" fill="none" stroke="black" stroke-width="0.1"/>
            <g id="_80147048_1">
                <polyline id="_80147048___0" class="fil0 str0" points="23.0182,86.9693 22.3266,86.9693" fill="none" stroke="black" stroke-width="0.1"/>
                <polygon id="_80147048___1" class="fil0 str0" points="23.0182,86.9693" fill="none" stroke="black" stroke-width="0.1"/>
            </g>
            <polygon id="_80146832" points="23.0182,86.9693 23.0182,86.9693" fill="none" stroke="black" stroke-width="0.1"/>
            <g id="_80147984_1">
                <polyline id="_80147984___0" class="fil0 str0" points="22.3266,79.3752 22.3266,79.0745 22.3266,78.7737 22.3266,78.473 22.3266,78.1722 22.3266,77.87140000000001 22.3266,77.5707 22.3266,77.2699 22.3266,76.9692" fill="none" stroke="black" stroke-width="0.1"/>
                <polygon id="_80147984___1" class="fil0 str0" points="22.3266,79.3752" fill="none" stroke="black" stroke-width="0.1"/>
            </g>
            <g id="_80148848_1">
                <polyline id="_80148848___0" class="fil0 str0" points="22.3266,86.9692 22.3266,86.6667 22.3266,86.36420000000001 22.3266,86.06170000000002 22.3266,85.75920000000002 22.3266,85.45670000000003 22.3266,85.15420000000003 22.3266,84.85170000000004 22.3266,84.54920000000004" fill="none" stroke="black" stroke-width="0.1"/>
                <polygon id="_80148848___1" class="fil0 str0" points="22.3266,86.96920000000004" fill="none" stroke="black" stroke-width="0.1"/>
            </g>
            <polygon id="_80148584" points="35.8493,76.7862 35.8053,76.7822 32.9337,76.7812 32.8893,76.7862 32.1723,76.9742 32.1435,76.9892 32.119,77.0172 32.119,86.9202 36.3815,86.9982 42.3696,85.4462 42.3696,78.4922" fill="none" stroke="black" stroke-width="0.1"/>
            <polygon id="_80148896" points="35.9562,81.6142 35.9792,81.5675 36.0022,81.5207 36.025,81.4739 36.0477,81.427 36.0701,81.38 36.0922,81.3328 36.1139,81.2855 36.1351,81.2379 36.1455,81.2129 36.5021,80.1403 36.5969,79.0255 36.3939,77.9152 35.9562,76.8647 35.927,76.8294 35.8907,76.803 35.8493,76.7869 35.8053,76.782 32.9337,76.7818 32.8893,76.7869 32.8479,76.803 32.8116,76.8294 32.7824,76.8647 32.3447,77.9152 32.1417,79.0255 32.2365,80.1403 32.5931,81.2129 32.6035,81.2379 32.6247,81.2855 32.6464,81.3328 32.6685,81.38 32.6909,81.427 32.7136,81.4739 32.7364,81.5207 32.7594,81.5675 32.7824,81.6142 32.5143,82.2388 32.3164,82.8474 32.1366,84.1554 32.1813,84.8007 32.315,85.4499 32.7824,86.677 32.8117,86.7137 32.8481,86.7419 32.8894,86.76 32.9335,86.7669 32.5916,86.8051 32.346,86.8413 32.1759,86.8811 32.119,86.9201 32.1753,86.9587 32.3444,86.9983 32.9337,87.0729 35.8053,87.0729 36.1399,87.0347 36.3815,86.9983 36.602,86.9201 36.5466,86.8811 36.3802,86.8413 36.1277,86.8035 35.8053,86.7669 35.8492,86.76 35.8905,86.7419 35.9269,86.7137 35.9562,86.677 36.4236,85.4499 36.5573,84.8007 36.602,84.1554 36.4222,82.8474 36.2243,82.2388" fill="none" stroke="black" stroke-width="0.1"/>
            <line id="_80149448" x1="32.9337" y1="87.0732" x2="35.8053" y2="87.0732" stroke="black" stroke-width="0.1"/>
            <g id="_80150384_1">
                <polyline id="_80150384___0" class="fil0 str0" points="35.8054,87.0732 35.8084,87.0732 35.8115,87.0731 35.814600000000006,87.07289999999999 35.817800000000005,87.07269999999998 35.82090000000001,87.07249999999998 35.82400000000001,87.07219999999998 35.82690000000001,87.07189999999999 35.829600000000006,87.07159999999999" fill="none" stroke="black" stroke-width="0.1"/>
                <polygon id="_80150384___1" class="fil0 str0" points="35.805400000000006,87.07319999999999" fill="none" stroke="black" stroke-width="0.1"/>
            </g>
            <line id="_80150288" x1="35.9562" y1="81.5952" x2="32.7824" y2="81.5952" stroke="black" stroke-width="0.1"/>
            <g id="_80149904_1">
                <polyline id="_80149904___0" class="fil0 str0" points="32.8788,87.0632 32.8897,87.06819999999999 32.8897,87.06819999999999 32.933699999999995,87.0722" fill="none" stroke="black" stroke-width="0.1"/>
                <polygon id="_80149904___1" class="fil0 str0" points="32.87879999999999,87.0632" fill="none" stroke="black" stroke-width="0.1"/>
            </g>
            <line id="_80151872" x1="35.8053" y1="86.7662" x2="32.9337" y2="86.7662" stroke="black" stroke-width="0.1"/>
            <g id="_80152040_1">
                <polyline id="_80152040___0" class="fil0 str0" points="35.8053,87.0722 35.8053,87.0732 35.8053,87.0732" fill="none" stroke="black" stroke-width="0.1"/>
                <polygon id="_80152040___1" class="fil0 str0" points="35.8053,87.0722" fill="none" stroke="black" stroke-width="0.1"/>
            </g>
            <g id="_80152856_1">
                <polyline id="_80152856___0" class="fil0 str0" points="35.8053,87.0722 35.8492,87.06819999999999 35.8603,87.0632" fill="none" stroke="black" stroke-width="0.1"/>
                <polygon id="_80152856___1" class="fil0 str0" points="35.8053,87.0722" fill="none" stroke="black" stroke-width="0.1"/>
            </g>
            <g id="_80153528_1">
                <polyline id="_80153528___0" class="fil0 str0" points="38.2581,86.0982 38.2582,86.10520000000001 38.2582,86.1042" fill="none" stroke="black" stroke-width="0.1"/>
                <polygon id="_80153528___1" class="fil0 str0" points="38.2581,86.0982" fill="none" stroke="black" stroke-width="0.1"/>
            </g>
            <polygon id="_80154392" points="31.8695,202.298 31.8695,194.792 31.8695,184.561 31.8695,172.512 31.8695,159.554 31.8695,146.596 31.8695,134.547 31.8695,124.316 31.8695,116.81 27.8504,116.708 28.1635,165.723 22.147,177.875 17.8695,177.875 16.3695,177.875 16.3695,202.298" fill="none" stroke="black" stroke-width="0.1"/>
            <g id="_80154128_1">
                <polyline id="_80154128___0" class="fil0 str0" points="23.2902,182.681 22.741999999999997,182.65120000000002" fill="none" stroke="black" stroke-width="0.1"/>
                <polygon id="_80154128___1" class="fil0 str0" points="23.2902,182.681" fill="none" stroke="black" stroke-width="0.1"/>
            </g>
            <g id="_80155232_1">
                <polyline id="_80155232___0" class="fil0 str0" points="22.742,182.651 22.453200000000002,182.7525 22.3209,183.0281" fill="none" stroke="black" stroke-width="0.1"/>
                <polygon id="_80155232___1" class="fil0 str0" points="22.742,182.65099999999998" fill="none" stroke="black" stroke-width="0.1"/>
            </g>
            <g id="_80155040_1">
                <polyline id="_80155040___0" class="fil0 str0" points="22.3209,183.028 22.3209,183.1109" fill="none" stroke="black" stroke-width="0.1"/>
                <polygon id="_80155040___1" class="fil0 str0" points="22.3209,183.028" fill="none" stroke="black" stroke-width="0.1"/>
            </g>
            <polygon id="_80155640" points="23.8579,138.278 23.8695,88.0635 23.8996,87.8765 23.9438,87.7601 23.9967,87.6722 24.0621,87.5947 24.1196,87.5434 24.1808,87.5004 24.2279,87.4736 24.2764,87.4514 24.35,87.4231 24.4189,87.3871 24.547,87.2867 24.6549,87.1606 24.7453,87.0146 24.812,86.8581 24.8539,86.6902 24.8695,86.5136 24.8695,85.3787 24.8695,84.2437 24.8695,83.1086 24.8695,81.9734 24.8695,80.838 24.8695,79.7025 24.8696,78.5667 24.8696,77.4306 24.8696,77.4306 24.89,77.2284 24.9484,77.04 25.0408,76.8696 25.163,76.7211 25.3111,76.5986 25.481,76.506 25.6685,76.4476 25.8696,76.4272 31.3696,76.4272 31.4702,76.4374 31.5639,76.4667 31.6488,76.513 31.7229,76.5744 31.784,76.6489 31.8302,76.7345 31.8594,76.8292 31.8696,76.931 31.8695,77.0289 31.8695,79.698 31.8695,82.3671 31.8695,85.0362 31.8695,87.7054 31.8695,90.3745 31.8695,93.0436 31.8695,95.7126 31.8695,98.3817 31.8695,104.505 31.8695,110.656 31.8695,117.023 31.8335,117.163 31.7905,117.276 31.5349,117.725 31.4753,117.965 31.4262,118.203 31.3856,118.435 31.1919,119.157 31.0626,119.929 30.9731,120.748 30.9117,121.696 30.8691,122.944 30.8695,180.013 26.0891,177.875 16.3695,177.875 16.3695,180.013 13.8695,180.013 12.8113,179.9 11.801,179.565 10.8844,179.025 10.1031,178.304 9.4924,177.434 9.0801,176.454 8.9224,175.745 8.8695,175.02 8.8695,148.062 8.8695,147.813 8.9224,147.089 9.0801,146.379 9.4924,145.4 10.1031,144.53 10.8844,143.808 11.801,143.268 12.8113,142.934 13.8695,142.821 18.8695,142.821 19.9458,142.704 20.9715,142.358 21.9047,141.802 22.0774,141.665 22.2429,141.521 22.4013,141.372 22.5517,141.217 22.6956,141.056 22.8293,140.895 23.0466,140.598 23.285,140.208 23.483,139.806 23.6589,139.333 23.7757,138.879 23.8024,138.737 23.8159,138.653 23.8159,138.653 23.8159,138.653 23.8159,138.653 23.816,138.653 23.816,138.653 23.816,138.653 23.8161,138.652 23.8162,138.652 23.8164,138.65 23.8169,138.647 23.8178,138.641 23.8197,138.628 23.8232,138.604 23.8299,138.555 23.8414,138.46" fill="none" stroke="black" stroke-width="0.1"/>
            <polygon id="_80155880" points="10.8695,171.304 10.8695,150.086 10.9949,148.975 11.3647,147.92 11.9604,146.973 12.7521,146.183 13.7001,145.588 14.7569,145.219 15.8695,145.094 18.8695,145.094 20.013,145.101 21.0959,145.123 22.0607,145.157 22.8564,145.203 23.4408,145.258 23.7612,145.313 23.8695,145.37 23.8692,145.839 24.0166,145.849 24.3694,145.857 24.3695,176.241 15.9108,176.241 15.0985,176.209 14.7569,176.171 13.7001,175.802 12.7521,175.207 11.9604,174.416 11.3647,173.47 10.9949,172.414" fill="none" stroke="black" stroke-width="0.1"/>
            <polygon id="_80156528" points="20.8695,169.932 20.8695,151.154 20.7673,150.379 20.7298,150.289 20.6924,150.199 20.6549,150.108 20.6174,150.018 20.58,149.928 20.5425,149.837 20.5051,149.747 20.4676,149.657 19.9908,149.036 19.3695,148.56 18.646,148.261 17.8695,148.159 17.0931,148.261 16.3695,148.56 15.7482,149.036 15.2714,149.657 14.9717,150.379 14.8695,151.154 14.8695,169.932 14.8695,170.125 14.9906,170.968 15.3439,171.742 15.9011,172.386 16.6171,172.847 17.4342,173.089 18.2864,173.092 19.105,172.855 19.8238,172.398 20.385,171.758 20.7432,170.986 20.8378,170.56" fill="none" stroke="black" stroke-width="0.1"/>
            <polygon id="_80156048" points="17.8695,176.932 17.8695,177.875 17.8695,189.404 29.8695,189.404 30.051,189.366 30.2111,189.272 30.5008,188.944 30.699,188.561 30.8693,187.75 30.8695,178.033 30.7355,177.564 30.3695,177.22 29.8695,177.095 24.3695,177.095 24.3695,177.299 24.3695,176.241 19.3695,176.241 19.3695,176.877 19.3549,176.879 19.2438,176.9 19.2438,176.9 18.8512,176.92 18.4129,176.929" fill="none" stroke="black" stroke-width="0.1"/>
            <line id="_80157272" x1="29.8695" y1="186.066" x2="17.8695" y2="186.066" stroke="black" stroke-width="0.1"/>
            <polygon id="_80157296" points="18.7987,183.78 18.7978,183.778 18.4802,182.975 18.3695,182.084 18.4065,181.541 18.5169,181.045 18.8863,180.22 19.455,179.518 20.1848,178.985 21.0271,178.656 21.9257,178.554 22.8205,178.685 23.6518,179.04 24.3641,179.597 24.9099,180.317 25.2526,181.153 25.3568,181.951 25.3695,182.048 25.3692,182.152 25.2238,183.096 25.2087,183.146 25.2001,183.178 25.144,183.347 25.0737,183.51 25.0479,183.563 25.0209,183.616 24.9697,183.723 24.9143,183.828 24.8231,183.98 24.7233,184.128 24.6165,184.27 24.5029,184.407 24.3824,184.538 24.2553,184.662 24.122,184.78 23.983,184.891 23.8385,184.994 23.6889,185.091 23.5346,185.179 23.376,185.26 23.2135,185.332 23.0475,185.396 22.8785,185.452 22.7069,185.499 22.5331,185.538 22.3576,185.566 22.2701,185.576 22.1819,185.583 22.094,185.591 22.0502,185.593 21.9625,185.597 21.9186,185.598 21.8308,185.598 21.7869,185.597 21.7331,185.595 21.6794,185.593 21.5917,185.587 21.5043,185.579 21.4607,185.574 21.3736,185.563 21.3302,185.556 21.2869,185.549 21.1828,185.53 21.085,185.511 20.9881,185.488 20.8172,185.439 20.6489,185.381 20.4838,185.314 20.3223,185.24 20.1648,185.158 20.0117,185.067 19.8634,184.969 19.7203,184.863 19.5828,184.751 19.4511,184.631 19.3255,184.505 19.2068,184.373 19.0955,184.235 18.99,184.091 18.8903,183.944 18.803,183.789 18.8008,183.785" fill="none" stroke="black" stroke-width="0.1"/>
            <polygon id="_80158232" points="22.2646,184.144 21.7676,184.176 21.266,184.09 20.6813,183.793 20.2245,183.322 19.9448,182.729 19.8725,182.078 20.0152,181.438 20.3576,180.879 20.8628,180.461 21.4765,180.228 21.9782,180.208 22.475,180.283 23.059,180.581 23.5152,181.051 23.7943,181.644 23.8666,182.295 23.724,182.934 23.3821,183.493 22.8775,183.911" fill="none" stroke="black" stroke-width="0.1"/>
            <polygon id="_80157560" points="22.5578,178.677 22.558,178.677 22.4213,181.187 22.4187,181.233 22.4187,181.316 22.5203,181.605 22.7963,181.737 23.3445,181.766 23.2902,182.763 22.742,182.734 22.4532,182.835 22.3248,183.103 22.3209,183.111 22.1817,185.584 22.094,185.591 22.0502,185.594 21.9625,185.597 21.9186,185.598 21.8308,185.598 21.7869,185.597 21.7331,185.596 21.6794,185.593 21.5917,185.587 21.5043,185.579 21.4607,185.574 21.3736,185.563 21.3302,185.556 21.2869,185.549 21.1828,185.53 21.1846,185.517 21.1846,185.517 21.2043,185.21 21.2228,184.902 21.2403,184.595 21.2571,184.287 21.2735,183.979 21.2897,183.672 21.3059,183.364 21.3224,183.057 21.2207,182.768 20.9447,182.636 20.3968,182.606 20.4488,181.609 20.999,181.639 21.2507,181.567 21.4039,181.355 21.4201,181.262 21.4379,180.938 21.456,180.614 21.474,180.29 21.4919,179.965 21.5094,179.641 21.5264,179.317 21.5426,178.993 21.5578,178.669 21.5595,178.623 21.647,178.616 21.7347,178.611 21.7786,178.61 21.8664,178.609 21.9103,178.609 21.9542,178.61 22.0597,178.614 22.1035,178.617 22.1473,178.62 22.2347,178.628 22.2783,178.633 22.3654,178.644 22.4088,178.651 22.4835,178.663" fill="none" stroke="black" stroke-width="0.1"/>
            <g id="_80158688_1">
                <polyline id="_80158688___0" class="fil0 str0" points="23.2902,182.681 22.741999999999997,182.65120000000002" fill="none" stroke="black" stroke-width="0.1"/>
                <polygon id="_80158688___1" class="fil0 str0" points="23.2902,182.681" fill="none" stroke="black" stroke-width="0.1"/>
            </g>
            <g id="_80125904_1">
                <polyline id="_80125904___0" class="fil0 str0" points="22.742,182.651 22.453200000000002,182.7525 22.3209,183.0281" fill="none" stroke="black" stroke-width="0.1"/>
                <polygon id="_80125904___1" class="fil0 str0" points="22.742,182.65099999999998" fill="none" stroke="black" stroke-width="0.1"/>
            </g>
            <g id="_80125736_1">
                <polyline id="_80125736___0" class="fil0 str0" points="22.3209,183.028 22.3209,183.1109" fill="none" stroke="black" stroke-width="0.1"/>
                <polygon id="_80125736___1" class="fil0 str0" points="22.3209,183.028" fill="none" stroke="black" stroke-width="0.1"/>
            </g>
            <g id="_80126576_1">
                <polyline id="_80126576___0" class="fil0 str0" points="21.3229,182.952 21.2134,182.6773 20.9447,182.5532" fill="none" stroke="black" stroke-width="0.1"/>
                <polygon id="_80126576___1" class="fil0 str0" points="21.3229,182.952" fill="none" stroke="black" stroke-width="0.1"/>
            </g>
            <g id="_80126504_1">
                <polyline id="_80126504___0" class="fil0 str0" points="20.399,182.524 20.9447,182.5537" fill="none" stroke="black" stroke-width="0.1"/>
                <polygon id="_80126504___1" class="fil0 str0" points="20.399,182.524" fill="none" stroke="black" stroke-width="0.1"/>
            </g>
            <g id="_80127536_1">
                <polyline id="_80127536___0" class="fil0 str0" points="21.3229,183.035 21.3229,182.9522" fill="none" stroke="black" stroke-width="0.1"/>
                <polygon id="_80127536___1" class="fil0 str0" points="21.3229,183.035" fill="none" stroke="black" stroke-width="0.1"/>
            </g>
            <g id="_80126840_1">
                <polyline id="_80126840___0" class="fil0 str0" points="23.8695,145.37 23.857899999999997,138.2783" fill="none" stroke="black" stroke-width="0.1"/>
                <polygon id="_80126840___1" class="fil0 str0" points="23.8695,145.37" fill="none" stroke="black" stroke-width="0.1"/>
            </g>
            <g id="_80127872_1">
                <polyline id="_80127872___0" class="fil0 str0" points="24.3695,117.549 24.3695,132.6158 24.3694,145.857" fill="none" stroke="black" stroke-width="0.1"/>
                <polygon id="_80127872___1" class="fil0 str0" points="24.3695,117.549" fill="none" stroke="black" stroke-width="0.1"/>
            </g>
            <g id="_80128256_1">
                <polyline id="_80128256___0" class="fil0 str0" points="31.3695,78.2522 31.3695,84.6062 31.3695,91.0622 31.3695,97.5941 31.3695,104.1781 31.3695,110.7891 31.3695,117.4021 31.0646,117.7001 30.8513,118.01110000000001 30.688899999999997,118.31610000000002 30.541199999999996,118.65810000000002 30.320499999999996,119.32310000000003 30.156299999999995,120.00710000000002" fill="none" stroke="black" stroke-width="0.1"/>
                <polygon id="_80128256___1" class="fil0 str0" points="31.369499999999995,78.25220000000002" fill="none" stroke="black" stroke-width="0.1"/>
            </g>
            <g id="_80129096_1">
                <polyline id="_80129096___0" class="fil0 str0" points="24.3695,88.2472 24.9589,87.9795 25.4412,87.52850000000001 25.7579,86.93700000000001 25.8695,86.26530000000001 25.8695,85.26370000000001 25.8695,84.26210000000002 25.8695,83.26050000000002 25.8695,82.25890000000003 25.8695,81.25720000000003 25.8695,80.25560000000003 25.8695,79.25400000000003 25.8695,78.25240000000004" fill="none" stroke="black" stroke-width="0.1"/>
                <polygon id="_80129096___1" class="fil0 str0" points="24.3695,88.24720000000003" fill="none" stroke="black" stroke-width="0.1"/>
            </g>
            <polygon id="_80128880" points="10.3696,180.474 10.3695,180.672 10.3695,181.258 10.3695,182.21 10.3695,183.491 10.3695,185.052 10.3695,186.833 10.3695,188.765 10.3695,190.774 10.3695,192.784 10.3695,194.716 10.3695,196.497 10.3695,198.057 10.3695,199.338 10.3695,200.29 10.3695,200.876 10.3696,201.074 10.39,201.275 10.4484,201.463 10.5408,201.632 10.663,201.781 10.8111,201.903 10.9809,201.995 11.1684,202.054 11.3695,202.074 16.3695,202.074 16.3695,179.474 11.3695,179.474 11.1684,179.494 10.9809,179.553 10.8111,179.645 10.663,179.768 10.5408,179.916 10.4484,180.085 10.39,180.273" fill="none" stroke="black" stroke-width="0.1"/>
            <g id="_80129384_1">
                <polyline id="_80129384___0" class="fil0 str0" points="11.3695,183.436 11.3695,182.94070000000002 11.3695,182.4455 11.3695,181.95020000000002 11.3695,181.45490000000004 11.3695,180.95960000000005 11.3695,180.46430000000007 11.3695,179.96910000000005 11.3695,179.47380000000007" fill="none" stroke="black" stroke-width="0.1"/>
                <polygon id="_80129384___1" class="fil0 str0" points="11.3695,183.43600000000006" fill="none" stroke="black" stroke-width="0.1"/>
            </g>
            <g id="_80129720_1">
                <polyline id="_80129720___0" class="fil0 str0" points="11.3695,202.074 11.3695,201.96 11.3695,201.62300000000002 11.3695,201.067 11.3695,200.305 11.3695,199.351 11.3695,198.225" fill="none" stroke="black" stroke-width="0.1"/>
                <polygon id="_80129720___1" class="fil0 str0" points="11.3695,202.07399999999998" fill="none" stroke="black" stroke-width="0.1"/>
            </g>
            <polygon id="_80130224" points="35.3695,200.245 35.3678,200.247 35.366,200.249 35.3642,200.251 35.3625,200.253 35.361,200.255 35.3598,200.256 35.359,200.257 35.3586,200.258 35.3586,200.258 34.9967,200.63 34.6099,200.97 34.2,201.279 33.7689,201.553 33.3184,201.792 32.8505,201.995 32.3669,202.16 31.8695,202.286 31.8695,202.286 31.8695,199.409 31.8695,196.532 31.8695,193.654 31.8695,190.777 31.8695,187.9 31.8695,185.022 31.8695,182.145 31.8695,179.268 31.8695,179.268 32.368,179.404 32.8541,179.58 33.3251,179.793 33.7782,180.042 34.2108,180.325 34.6201,180.641 35.0033,180.986 35.3578,181.36 35.3578,181.36 35.3584,181.36 35.3598,181.362 35.3616,181.364 35.3636,181.367 35.3657,181.369 35.3675,181.371 35.3689,181.373 35.3695,181.373 35.3695,181.373 35.3695,183.732 35.3695,186.091 35.3695,188.45 35.3695,190.809 35.3695,193.168 35.3695,195.527 35.3695,197.886" fill="none" stroke="black" stroke-width="0.1"/>
            <polygon id="_80130704" points="35.3695,184.85 35.374,184.851 35.3831,184.853 35.3952,184.855 35.4089,184.858 35.4227,184.861 35.4348,184.863 35.4439,184.865 35.4484,184.866 35.4484,184.866 36.0433,185.002 36.6184,185.201 37.1687,185.462 37.6891,185.778 38.1745,186.148 38.6197,186.567 39.0198,187.031 39.3696,187.536 39.3696,187.536 39.3696,188.351 39.3696,189.164 39.3696,189.974 39.3695,190.784 39.3695,191.593 39.3695,192.403 39.3695,193.216 39.3695,194.031 39.3695,194.031 39.3676,194.034 39.3645,194.038 39.3604,194.045 39.3559,194.051 39.3514,194.058 39.3474,194.064 39.3442,194.069 39.3424,194.072 39.3424,194.072 38.9864,194.573 38.581,195.033 38.1307,195.447 37.6402,195.813 37.1142,196.125 36.5574,196.38 35.9743,196.574 35.3696,196.702" fill="none" stroke="black" stroke-width="0.1"/>
            <polygon id="_80130944" points="23.8676,162.098 23.8538,160.953 23.6228,159.831 23.1829,158.774 22.5501,157.819 21.7474,157.001 20.8039,156.35 19.7538,155.89 18.6354,155.636 17.4892,155.6 16.3099,155.793 15.1922,156.215 14.18,156.849 13.3132,157.67 12.626,158.647 12.1455,159.739 11.8906,160.905 11.8714,162.098 11.9372,162.843 23.156,162.928" fill="none" stroke="black" stroke-width="0.1"/>
            <polygon id="_80131784" points="23.6152,163.671 23.2999,164.492 22.8674,165.258 22.4096,165.86 21.4698,166.734 20.3649,167.389 19.1454,167.794 18.3118,167.894 17.5296,167.928 16.6835,167.813 15.4643,167.429 14.3543,166.797 13.4039,165.944 12.8934,165.291 12.279,164.12 11.9372,162.843 11.8714,162.098 11.8846,161.523 12.1238,160.223 12.5393,159.2 13.1362,158.27 13.8943,157.465 14.7878,156.813 15.7862,156.335 16.8556,156.049 17.9595,155.964 19.0604,156.082 20.1207,156.4 21.1043,156.907 21.9778,157.586 22.7113,158.413 23.28,159.361 23.6644,160.396 23.8515,161.485 23.8676,162.098 23.8349,162.589" fill="none" stroke="black" stroke-width="0.1"/>
            <polygon id="_80131952" points="21.3935,163.841 21.0692,164.597 20.5846,165.261 19.9637,165.802 19.2379,166.191 18.4434,166.409 17.6202,166.446 16.8094,166.299 16.0518,165.975 15.3854,165.492 14.8435,164.873 14.4534,164.149 14.2346,163.356 14.198,162.535 14.3455,161.727 14.6698,160.971 15.1545,160.307 15.7753,159.766 16.5011,159.377 17.2956,159.159 18.1189,159.122 18.9296,159.269 19.6872,159.593 20.3536,160.076 20.8955,160.695 21.2856,161.419 21.5044,162.212 21.541,163.033" fill="none" stroke="black" stroke-width="0.1"/>
            <polygon id="_80132768" points="17.7414,159.388 14.9549,161.023 14.8823,161.097 14.8563,161.196 14.8829,164.421 14.9106,164.52 14.9844,164.593 17.7976,166.182 17.8978,166.208 17.9976,166.18 20.7842,164.545 20.8401,164.496 20.8743,164.431 20.8827,164.372 20.8561,161.147 20.8285,161.048 20.7547,160.975 17.9414,159.386 17.8412,159.36" fill="none" stroke="black" stroke-width="0.1"/>
            <line id="_80133056" x1="17.7976" y1="165.331" x2="17.7976" y2="166.182" stroke="black" stroke-width="0.1"/>
            <g id="_80133896_1">
                <polyline id="_80133896___0" class="fil0 str0" points="20.8743,163.581 20.8622,163.6118 20.8287,163.6599 20.8231,163.6642 20.8175,163.6685 20.811999999999998,163.6728 20.806399999999996,163.6772 20.800899999999995,163.6815 20.795299999999994,163.6858 20.789799999999993,163.6901 20.78419999999999,163.6944 20.20689999999999,164.0213 19.60129999999999,164.37189999999998 18.922299999999993,164.77169999999998 18.57989999999999,164.97599999999997 18.239799999999992,165.18139999999997 17.99759999999999,165.32959999999997 17.963599999999992,165.34629999999996 17.909499999999994,165.35809999999995 17.850699999999993,165.35299999999995 17.797599999999992,165.33129999999994 17.214799999999993,164.99019999999993 16.603399999999993,164.63999999999993 15.917899999999994,164.25409999999994 15.572199999999993,164.06229999999994 15.228899999999994,163.87419999999995 14.984399999999994,163.74209999999994 14.953599999999994,163.72139999999993 14.916799999999995,163.68089999999992 14.891499999999995,163.6273999999999 14.882899999999996,163.5700999999999" fill="none" stroke="black" stroke-width="0.1"/>
                <polygon id="_80133896___1" class="fil0 str0" points="20.874299999999995,163.5809999999999" fill="none" stroke="black" stroke-width="0.1"/>
            </g>
            <g id="_80134952_1">
                <polyline id="_80134952___0" class="fil0 str0" points="20.8807,164.052 20.8792,164.082 20.8743,164.112" fill="none" stroke="black" stroke-width="0.1"/>
                <polygon id="_80134952___1" class="fil0 str0" points="20.8807,164.052" fill="none" stroke="black" stroke-width="0.1"/>
            </g>
            <polygon id="_80134832" points="23.244,77.6772 23.244,86.1772 24.744,86.1772 24.744,77.6772" fill="none" stroke="black" stroke-width="0.1"/>
            <polygon id="_80135288" points="31.9951,86.1772 33.4951,86.1772 33.4951,77.6772 31.9951,77.6772" fill="none" stroke="black" stroke-width="0.1"/>
            <polygon id="_80136032" points="24.8695,86.1302 24.8695,81.9092 24.8695,77.7242 24.744,77.7242 24.744,81.9092 24.744,86.1302" fill="none" stroke="black" stroke-width="0.1"/>
            <g id="_80136224_1">
                <polyline id="_80136224___0" class="fil0 str0" points="33.4951,84.4272 34.2951,84.4272" fill="none" stroke="black" stroke-width="0.1"/>
                <polygon id="_80136224___1" class="fil0 str0" points="33.4951,84.4272" fill="none" stroke="black" stroke-width="0.1"/>
            </g>
            <polygon id="_80136536" points="34.2951,84.4272 33.4951,84.4272 33.4951,83.8022 33.4951,83.1772 33.4951,82.5522 33.4951,81.9272 33.4951,81.3022 33.4951,80.6772 33.4951,80.0522 33.4951,79.4272 34.2951,79.4272" fill="none" stroke="black" stroke-width="0.1"/>
            <polygon id="_80136920" points="31.9951,86.1292 31.9951,85.3112 31.9951,84.2752 31.9951,82.9122 31.9951,81.3012 31.9951,79.5382 31.9951,77.7242 31.8695,77.7242 31.8695,77.9532 31.8695,78.4392 31.8695,79.2102 31.8695,80.2362 31.8695,81.4862 31.8695,82.9382 31.8695,84.4732 31.8695,86.1292" fill="none" stroke="black" stroke-width="0.1"/>
            <polygon id="_80137112" points="22.4951,83.4682 22.4951,83.0529 22.4951,82.4785 22.4951,81.8262 22.4951,81.1882 22.4951,80.6547 22.4951,80.3011 22.4952,80.1774 22.496,80.1423 22.4984,80.1077 22.5024,80.0735 22.5079,80.0397 22.515,80.0065 22.5234,79.9737 22.5333,79.9416 22.5446,79.9101 22.5446,79.9101 22.5658,79.8603 22.5904,79.8125 22.6183,79.7666 22.6493,79.723 22.6832,79.6817 22.7199,79.643 22.7593,79.6069 22.8011,79.5737 22.8011,79.5737 22.8208,79.5597 22.8409,79.5463 22.8615,79.5335 22.8826,79.5213 22.904,79.5098 22.9259,79.4991 22.9481,79.489 22.9707,79.4796 22.9707,79.4796 23.003,79.4677 23.0359,79.4573 23.0694,79.4484 23.1036,79.441 23.1382,79.4352 23.1734,79.4309 23.2091,79.4284 23.2452,79.4275 23.2452,79.4275 23.2452,80.0525 23.2452,80.6774 23.2452,81.3024 23.2452,81.9275 23.2452,82.5525 23.2452,83.1775 23.2452,83.8024 23.2452,84.4274 23.2452,84.4274 23.2211,84.427 23.1972,84.4259 23.1735,84.424 23.1499,84.4213 23.1266,84.418 23.1036,84.4139 23.0808,84.4091 23.0582,84.4037 23.0582,84.4037 23.03,84.3958 23.0023,84.3869 22.9751,84.3769 22.9483,84.3659 22.9221,84.3539 22.8964,84.3409 22.8713,84.327 22.8468,84.3122 22.8468,84.3122 22.82,84.2945 22.7941,84.2757 22.769,84.2558 22.7447,84.2349 22.7214,84.213 22.699,84.1902 22.6775,84.1664 22.6571,84.1417 22.6571,84.1417 22.6409,84.1204 22.6254,84.0986 22.6106,84.0761 22.5967,84.0531 22.5836,84.0296 22.5713,84.0056 22.5598,83.9811 22.5492,83.9562 22.5492,83.9562 22.5369,83.9235 22.5261,83.8901 22.5168,83.856 22.5092,83.8213 22.5031,83.7861 22.4987,83.7503 22.4961,83.7141 22.4952,83.6774 22.4951,83.6243" fill="none" stroke="black" stroke-width="0.1"/>
            <polygon id="_80138456" points="7.36949,183.274 9.369489999999999,183.274 9.369489999999999,198.274 7.36949,198.274" fill="none" stroke="black" stroke-width="0.1"/>
            <polygon id="_80138768" points="7.3695,183.274 -19.7382,181.265 -19.7382,200.283 7.3695,198.274" fill="none" stroke="black" stroke-width="0.1"/>
            <polygon id="_80139608" points="9.36949,186.774 10.36949,186.774 10.36949,194.774 9.36949,194.774" fill="none" stroke="black" stroke-width="0.1"/>
            <g id="_80139368_1">
                <polyline id="_80139368___0" class="fil0 str0" points="35.1656,24.2853 35.559,18.9071 35.9041,13.8259 36.1855,9.026600000000002 36.3876,4.494200000000002 36.4947,0.21360000000000223 36.4915,-3.8302999999999976 36.3622,-7.652699999999998 36.0914,-11.268499999999998" fill="none" stroke="black" stroke-width="0.1"/>
                <polygon id="_80139368___1" class="fil0 str0" points="35.1656,24.285300000000007" fill="none" stroke="black" stroke-width="0.1"/>
            </g>
            <g id="_80139656_1">
                <polyline id="_80139656___0" class="fil0 str0" points="30.0916,23.9138 30.3785,20.0175 30.642799999999998,16.276899999999998 30.8786,12.686299999999997 31.080299999999998,9.240099999999998 31.241999999999997,5.9327999999999985 31.357899999999997,2.7586999999999984 31.422299999999996,-0.28770000000000184 31.429399999999998,-3.2121000000000017" fill="none" stroke="black" stroke-width="0.1"/>
                <polygon id="_80139656___1" class="fil0 str0" points="30.091599999999996,23.9138" fill="none" stroke="black" stroke-width="0.1"/>
            </g>
            <g id="_80140256_1">
                <polyline id="_80140256___0" class="fil0 str0" points="14.8779,155.588 15.6533,155.173 15.6533,155.173 16.5791,154.876 17.587600000000002,154.73600000000002 18.456500000000002,154.76000000000002 19.3336,154.92000000000002 20.8709,155.574" fill="none" stroke="black" stroke-width="0.1"/>
                <polygon id="_80140256___1" class="fil0 str0" points="14.877899999999999,155.58800000000002" fill="none" stroke="black" stroke-width="0.1"/>
            </g>
            <g id="_80564320_1">
                <polyline id="_80564320___0" class="fil0 str0" points="20.9037,153.926 17.9144,153.67249999999999 14.922500000000001,153.4509" fill="none" stroke="black" stroke-width="0.1"/>
                <polygon id="_80564320___1" class="fil0 str0" points="20.9037,153.926" fill="none" stroke="black" stroke-width="0.1"/>
            </g>
            <g id="_80564824_1">
                <polyline id="_80564824___0" class="fil0 str0" points="20.816,154.922 17.827299999999997,154.6696 14.835999999999999,154.448" fill="none" stroke="black" stroke-width="0.1"/>
                <polygon id="_80564824___1" class="fil0 str0" points="20.816,154.922" fill="none" stroke="black" stroke-width="0.1"/>
            </g>
            <g id="_80565640_1">
                <polyline id="_80565640___0" class="fil0 str0" points="20.8695,156.196 19.7233,155.688 18.496599999999997,155.429 17.242699999999996,155.429 16.015999999999995,155.688 14.869799999999994,156.196" fill="none" stroke="black" stroke-width="0.1"/>
                <polygon id="_80565640___1" class="fil0 str0" points="20.869499999999995,156.196" fill="none" stroke="black" stroke-width="0.1"/>
            </g>
            <polygon id="center_00" cx="17.8502" cy="160.326" points="30.3502,160.326 30.28172369210342,161.63260579084567 30.077045009172572,162.92489613522199 29.73840645368942,164.18871242968683 29.26951822053251,165.4102080384475 28.675517547305486,166.576 27.962912429686845,167.67331565365592 27.13951031846743,168.69013257948572 26.214332579485728,169.6153103184674 25.197515653655916,170.43871242968683 24.1002,171.15131754730547 22.934408038447508,171.7453182205325 21.712912429686845,172.2142064536894 20.449096135221993,172.55284500917256 19.156805790845674,172.7575236921034 17.8502,172.826 16.543594209154335,172.7575236921034 15.251303864778013,172.55284500917256 13.98748757031316,172.21420645368943 12.7659919615525,171.7453182205325 11.600200000000005,171.15131754730547 10.50288434634409,170.43871242968683 9.486067420514278,169.61531031846744 8.560889681532574,168.69013257948572 7.73748757031316,167.67331565365592 7.02488245269452,166.576 6.430881779467491,165.4102080384475 5.961993546310582,164.18871242968683 5.623354990827432,162.92489613522199 5.418676307896584,161.63260579084567 5.350200000000001,160.326 5.418676307896584,159.01939420915434 5.62335499082743,157.727103864778 5.96199354631058,156.46328757031316 6.430881779467487,155.2417919615525 7.024882452694516,154.076 7.737487570313158,152.97868434634407 8.56088968153257,151.96186742051427 9.48606742051427,151.03668968153258 10.502884346344086,150.21328757031316 11.600199999999996,149.50068245269452 12.76599196155249,148.90668177946748 13.987487570313156,148.4377935463106 15.251303864778004,148.09915499082743 16.543594209154325,147.89447630789658 17.850199999999997,147.826 19.156805790845663,147.89447630789658 20.449096135221982,148.09915499082743 21.712912429686842,148.43779354631056 22.934408038447497,148.90668177946748 24.100199999999994,149.5006824526945 25.197515653655913,150.21328757031316 26.214332579485724,151.03668968153255 27.139510318467423,151.96186742051427 27.962912429686842,152.97868434634407 28.675517547305482,154.076 29.269518220532508,155.24179196155248 29.73840645368942,156.46328757031316 30.077045009172572,157.727103864778 30.28172369210342,159.0193942091543" fill="none" stroke="black" stroke-width="0.1"/>
        </g>
    </g>
</svg>
