<!DOCTYPE svg PUBLIC "-//W3C//DTD SVG 1.1//EN" "http://www.w3.org/Graphics/SVG/1.1/DTD/svg11.dtd">
<svg xmlns="http://www.w3.org/2000/svg" width="297mm" height="210mm" viewBox="0 0 297 210">
    <defs id="_tag_13_"/>
    <g id="_tag_14_">
        <polygon id="simplify_2" points="108.359,79.3842 96.9709,72.1178 96.9708,72.1178 81.1368,62.0149 69.7485,54.7485 65.9832,60.6495 77.3716,67.9159 93.2061,78.0191 93.2058,78.0197 116.05,92.5953 120.281,94.6576 125.519,95.7372 130.107,95.8527 130.108,95.8533 130.562,95.8109 165.215,92.5793 178.665,91.3249 178.665,91.3248 200.633,89.2761 205.168,88.546 209.955,87.2498 213.635,85.4111 230.361,76.193 230.361,76.1935 243.75,68.8144 249.202,66.7111 256.155,65.4821 261.983,65.2727 249.743,59.9629 239.839,62.9764 226.982,70.0627 226.982,70.0628 210.38,79.2129 207.977,80.458 203.471,81.7737 200.09,82.2957 178.326,84.3254 164.875,85.5798 164.875,85.5799 151.766,86.8025 142.908,87.6286 132.723,88.5784 129.734,88.8571 129.457,88.883 129.457,88.8831 125.745,88.9832 122.161,88.0603 119.524,86.5079" fill="none" stroke="black" stroke-width="0.1"/>
        <g id="_tag_15_">
            <polygon id="_137614664" points="177.643,80.8706 167.168,81.878 164.952,81.2027 163.015,79.7567 161.821,79.3031 155.304,79.8801 154.336,80.7101 153.512,81.841 152.078,82.77 150.135,83.6662 140.345,84.4585 139.366,85.1291 139.395,88.5857 140.28,89.8112 141.471,90.2393 149.083,89.5508 150.154,88.757 151.283,87.8382 152.935,87.3632 166.42,86.021 167.873,86.231 169.483,87.5006 170.829,87.584 178.086,86.9629 179.035,86.4866 179.138,85.5187 178.645,81.4217" fill="none" stroke="black" stroke-width="0.1"/>
            <polygon id="_137808888" points="177.922,89.5589 169.907,90.1448 169.037,90.4541 168.206,91.806 168.174,93.2453 168.414,94.8729 168.939,96.4774 170.286,97.555 173.134,98.5559 177.426,98.4098 178.895,97.9046 179.648,96.6892 179.583,91.9421 178.829,90.3364" fill="none" stroke="black" stroke-width="0.1"/>
            <polygon id="_137255408" points="141.438,93.0412 149.616,92.377 150.868,93.0198 151.379,93.9774 151.626,95.3956 151.633,97.0408 151.355,98.7059 150.185,99.9736 147.52,101.391 143.254,101.891 141.726,101.612 140.799,100.524 140.151,95.8204 140.655,94.1197" fill="none" stroke="black" stroke-width="0.1"/>
            <polygon id="_137147952" points="165.446,101.939 156.305,102.769 156.873,109.029 157.405,109.5 165.459,108.769 166.002,108.067" fill="none" stroke="black" stroke-width="0.1"/>
            <polygon id="_136856320" points="167.521,99.0332 164.768,98.7051 161.769,98.7608 159.05,99.0131 156.441,99.4596 153.792,100.347 151.553,101.561 151.7,103.187 169.728,101.552 169.561,99.7096" fill="none" stroke="black" stroke-width="0.1"/>
        </g>
        <polygon id="simplify_3" points="309.237,69.468 308.289,68.1231 301.703,62.9808 243.842,59.316 259.664,65.8105 271.127,70.4523 273.367,70.9908 283.033,70.0 294.263,68.5374 302.492,69.5244 306.794,70.0" fill="none" stroke="black" stroke-width="0.1"/>
        <polygon id="simplify_4" points="283.314,48.2807 270.408,47.4137 249.679,46.452 228.528,46.3718 208.647,46.5409 187.071,47.1057 166.931,47.1224 154.425,46.7325 146.21,46.2467 132.749,44.9382 119.233,42.2552 102.729,41.0299 88.4328,40.4262 75.5697,39.9451 63.1388,40.0167 53.4857,40.2846 44.5525,41.9357 38.6602,44.0737 34.196,47.9174 32.3862,50.7798 31.5344,55.5891 32.3246,60.1312 34.0621,63.5604 37.0698,64.2621 43.2467,64.717 50.5963,65.8457 62.558,70.4343 78.2402,77.8988 84.78,80.6581 91.7287,84.5156 96.42,86.5472 101.646,87.4808 106.484,87.4898 116.121,86.4524 123.381,85.3489 134.356,82.2873 142.504,79.0482 158.493,73.4187 169.129,70.4418 178.352,67.9721 196.956,64.74 214.325,62.9873 232.638,62.2068 249.424,61.8667 269.64,62.4902 283.426,63.3155 295.795,65.1917 303.93,67.3406 308.289,68.1231 310.858,67.9129 313.321,65.8963 314.023,64.0535 313.003,59.7211 310.882,56.4661 308.251,53.7743 304.715,51.6628 298.245,50.2257 289.947,49.0951" fill="none" stroke="black" stroke-width="0.1"/>
        <polygon id="center_00" cx="164.023" cy="47.0318" points="209.023,47.0318 208.7764852915723,51.7355808470444 208.03964203302127,56.387826086799166 206.8205432332819,60.93756474687263 205.13254559391703,65.334948938411 202.99414317029974,69.53179999999999 200.42876474687262,73.48213635316128 197.46451714648273,77.14267728614861 194.13387728614862,80.47331714648274 190.4733363531613,83.43756474687262 186.523,86.00294317029974 182.32614893841102,88.14134559391704 177.92876474687262,89.8293432332819 173.37902608679917,91.04844203302125 168.7267808470444,91.7852852915723 164.023,92.0318 159.31921915295558,91.78528529157231 154.66697391320085,91.04844203302125 150.11723525312738,89.82934323328192 145.719851061589,88.14134559391704 141.523,86.00294317029974 137.57266364683872,83.43756474687262 133.91212271385137,80.47331714648274 130.58148285351726,77.14267728614863 127.61723525312738,73.4821363531613 125.05185682970026,69.5318 122.91345440608296,65.33494893841102 121.22545676671808,60.93756474687264 120.00635796697875,56.38782608679919 119.26951470842769,51.73558084704442 119.023,47.031800000000004 119.26951470842769,42.32801915295561 120.00635796697874,37.67577391320084 121.22545676671808,33.12603525312737 122.91345440608295,28.728651061589005 125.05185682970026,24.53180000000001 127.61723525312735,20.58146364683871 130.58148285351723,16.92092271385139 133.91212271385137,13.590282853517266 137.5726636468387,10.62603525312737 141.52299999999997,8.060656829700271 145.71985106158897,5.9222544060829705 150.11723525312735,4.23425676671809 154.66697391320082,3.015157966978748 159.31921915295555,2.2783147084277005 164.023,2.031799999999997 168.72678084704438,2.2783147084276933 173.37902608679914,3.015157966978734 177.92876474687262,4.234256766718083 182.326148938411,5.922254406082949 186.52299999999997,8.060656829700243 190.47333635316127,10.626035253127355 194.1338772861486,13.590282853517238 197.4645171464827,16.92092271385135 200.42876474687262,20.581463646838696 202.9941431702997,24.531799999999976 205.13254559391703,28.728651061588955 206.8205432332819,33.126035253127355 208.03964203302124,37.6757739132008 208.7764852915723,42.328019152955555" fill="none" stroke="black" stroke-width="0.1"/>
    </g>
</svg>
