<!DOCTYPE svg PUBLIC "-//W3C//DTD SVG 1.1//EN" "http://www.w3.org/Graphics/SVG/1.1/DTD/svg11.dtd">
<svg xmlns="http://www.w3.org/2000/svg" width="297mm" height="210mm" viewBox="0 0 297 210">
    <defs id="_tag_11_"/>
    <g id="_tag_12_">
        <polygon id="center_00" cx="147.867" cy="105" points="159.7882,105.0 159.72289441906426,106.24610471630635 159.52769317786783,107.47855684857667 159.20473494205777,108.68385339334262 158.75755810964895,109.84878886943523 158.19106204359505,110.9606 157.5114533933426,112.00710554962903 156.7261780934811,112.97683978452523 155.84383978452522,113.8591780934811 154.874105549629,114.64445339334263 153.8276,115.32406204359505 152.71578886943522,115.89055810964898 151.5508533933426,116.33773494205778 150.34555684857668,116.66069317786784 149.11310471630634,116.85589441906426 147.867,116.9212 146.62089528369364,116.85589441906426 145.38844315142333,116.66069317786784 144.18314660665737,116.33773494205778 143.01821113056477,115.89055810964898 141.9064,115.32406204359505 140.85989445037097,114.64445339334263 139.89016021547476,113.85917809348112 139.00782190651887,112.97683978452523 138.22254660665737,112.00710554962903 137.54293795640496,110.9606 136.97644189035103,109.84878886943523 136.5292650579422,108.68385339334263 136.20630682213215,107.47855684857667 136.01110558093572,106.24610471630635 135.9458,105.0 136.01110558093572,103.75389528369365 136.20630682213215,102.52144315142333 136.5292650579422,101.31614660665738 136.97644189035103,100.15121113056477 137.54293795640493,99.0394 138.22254660665737,97.99289445037097 139.00782190651887,97.02316021547479 139.89016021547476,96.1408219065189 140.85989445037094,95.35554660665738 141.9064,94.67593795640495 143.01821113056477,94.10944189035104 144.18314660665737,93.66226505794222 145.3884431514233,93.33930682213216 146.62089528369364,93.14410558093574 147.867,93.0788 149.11310471630634,93.14410558093574 150.34555684857665,93.33930682213216 151.5508533933426,93.66226505794222 152.71578886943522,94.10944189035102 153.8276,94.67593795640494 154.874105549629,95.35554660665737 155.84383978452522,96.14082190651888 156.7261780934811,97.02316021547477 157.5114533933426,97.99289445037097 158.19106204359502,99.0394 158.75755810964895,100.15121113056476 159.20473494205777,101.31614660665737 159.52769317786783,102.52144315142333 159.72289441906426,103.75389528369364" fill="none" stroke="black" stroke-width="0.1"/>
        <g id="_tag_13_">
            <polygon id="_156110960" cx="111.688" cy="97.5281" points="113.50565,97.5281 113.49569272311615,97.71809616125844 113.46592998647381,97.9060106848149 113.4166878768439,98.08978473982562 113.34850590108408,98.26740485928673 113.26213107518879,98.43692499999999 113.15850973982563,98.59648786382941 113.03877719202899,98.74434524664818 112.90424524664819,98.87887719202898 112.75638786382942,98.99860973982562 112.596825,99.10223107518878 112.42730485928674,99.18860590108407 112.24968473982563,99.25678787684389 112.06591068481491,99.3060299864738 111.87799616125845,99.33579272311614 111.688,99.34575 111.49800383874155,99.33579272311614 111.31008931518511,99.3060299864738 111.12631526017438,99.25678787684389 110.94869514071327,99.18860590108407 110.77917500000001,99.10223107518878 110.61961213617059,98.99860973982562 110.47175475335183,98.87887719202898 110.33722280797102,98.74434524664818 110.21749026017437,98.59648786382941 110.11386892481121,98.436925 110.02749409891592,98.26740485928673 109.95931212315611,98.08978473982562 109.9100700135262,97.9060106848149 109.88030727688385,97.71809616125844 109.87035,97.5281 109.88030727688385,97.33810383874155 109.9100700135262,97.1501893151851 109.95931212315611,96.96641526017437 110.02749409891592,96.78879514071326 110.11386892481121,96.619275 110.21749026017437,96.45971213617058 110.33722280797102,96.31185475335181 110.47175475335182,96.17732280797101 110.61961213617059,96.05759026017436 110.779175,95.9539689248112 110.94869514071327,95.86759409891592 111.12631526017438,95.7994121231561 111.3100893151851,95.75017001352619 111.49800383874155,95.72040727688385 111.688,95.71045 111.87799616125845,95.72040727688385 112.0659106848149,95.75017001352619 112.24968473982563,95.7994121231561 112.42730485928674,95.86759409891592 112.596825,95.9539689248112 112.75638786382942,96.05759026017436 112.90424524664817,96.17732280797101 113.03877719202899,96.31185475335181 113.15850973982563,96.45971213617058 113.26213107518879,96.61927499999999 113.34850590108408,96.78879514071326 113.4166878768439,96.96641526017437 113.46592998647381,97.15018931518509 113.49569272311615,97.33810383874155" fill="none" stroke="black" stroke-width="0.1"/>
            <polygon id="polygon12" points="162.179,101.325 162.179,113.281 164.602,113.281 164.602,104.79" fill="none" stroke="black" stroke-width="0.1"/>
            <polygon id="polygon12_0_1" class="fil1 str1" points="144.002,113.281 144.002,110.8572 142.53476523437502,110.8572 140.70160312500002,110.8572 138.62448945312502,110.8572 136.42540000000002,110.8572 134.226310546875,110.8572 132.149196875,110.8572 130.31603476562498,110.8572 128.8488,110.8572 124.20070000000001,106.20930000000001 126.90090000000001,103.50090000000002 129.05700000000002,101.33830000000002 129.05700000000002,99.95150000000002 127.01820000000002,99.95280000000002 127.01820000000002,99.95280000000002 121.75430000000003,105.23210000000003 118.15110000000003,108.84180000000003 118.15110000000003,96.31620000000004 115.72760000000002,96.31620000000004 115.72760000000002,110.85740000000004 115.72730000000003,110.85750000000004 112.90010000000002,110.85750000000004 112.90010000000002,106.61650000000004 112.90010000000002,106.61640000000004 112.90010000000002,100.35550000000003 110.47660000000002,100.35550000000003 110.47660000000002,106.61640000000004 110.47650000000002,106.61640000000004 110.47650000000002,106.61650000000004 110.38082226562501,107.45606738281255 110.10912187500001,108.23945156250005 109.68439804687502,108.95050058593755 109.12965000000001,109.57306250000005 108.46787695312501,110.09098535156255 107.72207812500002,110.48811718750005 106.91525273437502,110.74830605468755 106.07040000000002,110.85540000000005 105.72310000000002,110.85530000000004 106.06147773437502,110.40844062500004 106.36201562500003,109.93336250000004 106.62247070312502,109.43231562500003 106.84060000000002,108.90755000000003 107.01416054687502,108.36131562500005 107.14090937500002,107.79586250000004 107.21860351562502,107.21344062500005 107.24500000000002,106.61630000000004 107.24500000000002,106.61630000000004 107.10957617187502,105.27333925781252 106.72118437500002,104.02241406250003 106.10664414062502,102.89034746093755 105.29277500000002,101.90396250000005 104.30639648437503,101.09008222656254 103.17432812500003,100.47552968750004 101.92338945312503,100.08712792968755 100.58040000000003,99.95170000000005 100.58040000000003,99.95170000000005 99.98289843750003,99.97813710937504 99.40014375000003,100.05594687500005 98.83438593750003,100.18287695312505 98.28787500000003,100.35667500000005 97.76286093750001,100.57508867187505 97.26159375000002,100.83586562500004 96.78632343750003,101.13675351562503 96.33930000000002,101.47550000000004 96.33470000000003,96.31640000000004 93.91120000000002,96.31640000000004 93.91580000000002,106.61630000000004 93.91580000000002,108.43390000000004 96.33930000000002,108.43390000000004 96.33930000000002,106.61630000000004 96.42548027343751,105.76168378906254 96.67264218750003,104.96563906250003 97.06371738281251,104.24523417968754 97.58163750000003,103.61753750000004 98.20933417968752,103.09961738281254 98.92973906250002,102.70854218750004 99.72578378906252,102.46138027343753 100.58040000000003,102.37520000000004 100.58040000000003,102.37520000000004 101.43501621093752,102.46138027343753 102.23106093750002,102.70854218750004 102.95146582031254,103.09961738281254 103.57916250000002,103.61753750000003 104.09708261718752,104.24523417968753 104.48815781250002,104.96563906250003 104.73531972656254,105.76168378906254 104.82150000000003,106.61630000000004 104.82150000000003,106.61630000000004 104.73843613281254,107.45555175781254 104.50000156250002,108.23867656250003 104.12233183593753,108.94954121093754 103.62156250000002,109.57201250000004 103.01382910156252,110.08995722656255 102.31526718750003,110.48724218750004 101.54201230468752,110.74773417968754 100.71020000000003,110.85530000000004 98.75830000000003,110.85530000000004 98.75830000000003,110.85740000000004 90.28050000000003,110.85740000000004 90.27590000000004,113.27900000000004 92.23437480468755,113.27926640625004 94.19284843750003,113.27942500000003 96.15131972656252,113.27952734375003 98.10978750000004,113.27962500000004 100.06825058593755,113.27976953125004 102.02670781250004,113.28001250000004 103.98515800781253,113.28040546875005 105.94360000000003,113.28100000000003 105.94360000000003,113.28100000000003 106.55367695312503,113.25454101562504 107.16952187500003,113.17667187500004 107.78204335937502,113.04965429687503 108.38215000000002,112.87575000000004 108.96075039062502,112.65722070312503 109.50875312500003,112.39632812500003 110.01706679687504,112.09533398437503 110.47660000000003,111.75650000000003 110.47660000000003,113.28100000000003 115.72360000000003,113.28100000000003 115.72760000000004,113.28100000000003 117.03000000000004,113.28110000000004 117.03000000000004,113.28100000000003 117.14360000000005,113.28100000000003 122.48960000000005,107.92560000000003 122.48960000000005,107.92560000000003 127.84530000000005,113.28100000000003 144.00200000000007,113.28100000000003" fill="none" stroke="black" stroke-width="0.1"/>
            <polygon id="polygon12_1_1" class="fil2 str1" points="154.706,113.281 154.70649999999998,113.281 155.80519296875,113.1685994140625 156.82867499999998,112.8469453125 157.75497578124998,112.3393591796875 158.56212499999998,111.6691625 159.22815234375,110.85967675781251 159.7310875,109.93422343750001 160.04896015625,108.9161240234375 160.1598,107.82870000000001 160.1598,107.82870000000001 160.0327775390625,106.74665136718752 159.67733906249998,105.74142968750002 159.1319279296875,104.83193378906252 158.4349875,104.03706250000002 157.6249611328125,103.37571464843752 156.7402921875,102.8667890625 155.8194240234375,102.52918457031252 154.9008,102.38180000000001 154.9033,102.37590000000002 151.0779,102.37590000000002 151.0779,102.37130000000002 150.7330505859375,102.31500742187502 150.41327343749998,102.19709062500002 150.1250126953125,102.02401601562501 149.8747125,101.80225000000002 149.6688169921875,101.53825898437502 149.51377031250001,101.23850937500002 149.4160166015625,100.90946757812502 149.382,100.55760000000002 149.382,100.55760000000002 149.4160166015625,100.20582285156252 149.51377031250001,99.87683281250003 149.66881699218752,99.57710449218752 149.8747125,99.31311250000002 150.1250126953125,99.09133144531252 150.4132734375,98.91823593750001 150.73305058593752,98.80030058593752 151.0779,98.74400000000003 151.0779,98.74060000000003 151.1991,98.74060000000003 163.3292,98.74060000000003 164.60199999999998,100.56120000000003 164.60199999999998,100.55080000000002 165.12955781249997,101.30613261718752 165.65779999999998,102.06169843750003 166.18637968749997,102.81726191406253 166.71495,103.57258750000003 167.24316406249997,104.32743964843752 167.77067499999998,105.08158281250002 168.29713593749997,105.83478144531253 168.82219999999998,106.58680000000003 168.85389999999998,106.63190000000003 169.36739863281247,105.89661328125004 169.88085156249997,105.16127500000003 170.39426933593748,104.42588046875002 170.9076625,103.69042500000003 171.4210416015625,102.95490390625004 171.9344171875,102.21931250000003 172.4477998046875,101.48364609375002 172.9612,100.74790000000003 173.09869999999998,100.55080000000002 173.09869999999998,113.28100000000002 175.52209999999997,113.28170000000001 175.52209999999997,113.28100000000002 181.56659999999997,113.28170000000001 181.56663007812497,111.56821796875002 181.56670937499996,110.02509375000001 181.56682148437494,108.59554765625 181.56694999999996,107.2228 181.56707851562498,105.85007109375002 181.56719062499997,104.42058125000003 181.56726992187495,102.87755078125001 181.56729999999996,101.16420000000002 181.56729999999996,101.16420000000002 179.14379999999997,101.16420000000002 179.14379999999997,110.85750000000002 175.52249999999998,110.85750000000002 175.5239892578125,109.03987949218752 175.5255640625,107.22226718750002 175.52670996093747,105.40466191406252 175.52691249999998,103.58706250000003 175.5256572265625,101.76946777343751 175.5224296875,99.95187656250002 175.5167154296875,98.13428769531251 175.50799999999998,96.31670000000001 173.09869999999998,96.31670000000001 168.8438,102.37590000000002 168.489135546875,101.8689689453125 168.134496875,101.36202031250002 167.779891015625,100.85504589843752 167.425325,100.34803750000002 167.07080585937499,99.84098691406251 166.716340625,99.33388593750001 166.36193632812498,98.82672636718752 166.0076,98.31950000000002 166.00549999999998,98.32130000000002 164.60199999999998,96.31670000000003 163.39139999999998,96.31670000000003 163.39139999999998,96.31670000000003 151.07789999999997,96.31620000000002 151.07789999999997,96.31670000000003 151.07049999999998,96.31670000000003 150.21608183593747,96.40288398437502 149.42018593749998,96.65005312500003 148.6998876953125,97.04113320312503 148.0722625,97.55905000000001 147.5543857421875,98.18672929687501 147.1633328125,98.90709687500002 146.91617910156248,99.70307851562502 146.82999999999998,100.55760000000002 146.82999999999998,100.55760000000002 146.91617910156248,101.41235683593753 147.1633328125,102.20852343750002 147.5543857421875,102.92903144531252 148.0722625,103.5568125 148.6998876953125,104.07479824218751 149.42018593749998,104.46592031250002 150.21608183593747,104.7131103515625 151.07049999999998,104.79930000000002 154.7378,104.79930000000002 154.7378,104.79940000000002 155.342749609375,104.86643398437502 155.905828125,105.04637812500002 156.41508007812502,105.32729570312503 156.85855,105.69725000000003 157.224282421875,106.14430429687502 157.500321875,106.65652187500002 157.67471289062502,107.22196601562501 157.7355,107.82870000000003 157.7355,107.82870000000003 157.67471289062502,108.43543300781253 157.500321875,109.00087031250004 157.224282421875,109.51306933593753 156.85855,109.96008750000003 156.41508007812502,110.32998222656254 155.905828125,110.61081093750003 155.342749609375,110.79063105468752 154.7378,110.85750000000003 154.7378,110.85760000000003 154.72,110.85760000000003 154.7065,110.85760000000003 154.70600000000002,110.85760000000003 154.6936,110.85760000000003 136.9336,110.85750000000003 136.07902539062502,110.77133652343753 135.28302812500002,110.52421718750003 134.562673046875,110.13319863281254 133.935025,109.61533750000004 133.417148828125,108.98769042968753 133.026109375,108.26731406250003 132.778971484375,107.47126503906253 132.6928,106.61660000000003 132.6928,106.61660000000003 132.778971484375,105.76200097656253 133.026109375,104.96600156250003 133.417148828125,104.24566074218752 133.935025,103.61803750000003 134.562673046875,103.10019082031253 135.28302812500002,102.70917968750003 136.07902539062502,102.46206308593753 136.9336,102.37590000000003 136.9336,102.37590000000003 137.63633496093752,102.43389335937503 138.3019859375,102.60164687500003 138.92120957031253,102.86982070312503 139.4846625,103.22907500000002 139.9830013671875,103.67006992187503 140.40688281250004,104.18346562500003 140.7469634765625,104.75992226562504 140.99390000000002,105.39010000000003 135.13930000000002,105.39010000000003 135.13930000000002,107.80950000000003 143.59770000000003,107.80950000000003 143.59770000000003,106.61660000000003 143.46230175781253,105.27378710937504 143.07397656250004,104.02294062500003 142.45952871093755,102.89089882812503 141.64576250000005,101.90450000000004 140.65948222656252,101.09058242187503 139.52749218750003,100.47598437500002 138.27659667968754,100.08754414062504 136.93360000000004,99.95210000000003 136.93360000000004,99.95210000000003 135.59062636718755,100.08754414062504 134.33966718750003,100.47598437500002 133.20755253906256,101.09058242187503 132.22111250000006,101.90450000000003 131.40717714843754,102.89089882812502 130.79257656250005,104.02294062500003 130.40414082031256,105.27378710937502 130.26870000000005,106.61660000000003 130.26870000000005,106.61660000000003 130.40414082031256,107.95960957031252 130.79257656250007,109.21053906250003 131.40717714843754,110.34257714843754 132.22111250000006,111.32891250000003 133.20755253906256,112.14273378906253 134.33966718750005,112.75722968750003 135.59062636718755,113.14558886718754 136.93360000000004,113.28100000000003 136.93360000000004,113.28100000000003 154.70600000000005,113.28100000000003" fill="none" stroke="black" stroke-width="0.1"/>
            <polygon id="polygon12_17_1" class="fil1 str1" points="204.981,96.3165 202.57139999999998,96.3165 202.57139999999998,102.37530000000001 194.89669999999998,102.37540000000001 194.896699609375,101.61805000000003 194.89669687499998,100.86070000000002 194.896689453125,100.10335 194.89667499999996,99.34600000000002 194.896651171875,98.58865000000002 194.89661562499998,97.8313 194.89656601562496,97.07395 194.89649999999997,96.31660000000001 192.47339999999997,96.3165 192.47339999999997,96.31660000000001 177.93209999999996,96.3165 177.93209999999996,98.7399 185.20269999999996,98.74010000000001 185.20269999999996,100.557725 185.20269999999996,102.37535 185.20269999999996,104.192975 185.20269999999996,106.01060000000001 185.20269999999996,107.82822500000002 185.20269999999996,109.64585000000002 185.20269999999996,111.46347500000002 185.20269999999996,113.28110000000001 187.62609999999995,113.28130000000002 187.62611210937496,111.46363750000003 187.62614062499995,109.645975 187.62617382812496,107.82831250000001 187.62619999999998,106.01065000000003 187.62620742187494,104.19298750000002 187.62618437499995,102.37532500000002 187.62611914062498,100.55766249999999 187.62599999999995,98.74000000000001 192.47339999999994,98.74010000000001 192.47339999999994,113.28110000000001 194.89669999999995,113.28130000000002 194.89669999999995,104.79880000000001 202.57139999999995,104.79870000000001 202.57139999999995,113.28110000000001 204.99479999999994,113.28130000000002 204.99552773437495,111.1607287109375 204.99717187499994,109.04012343750001 204.99892382812493,106.91949707031252 204.99997499999995,104.79886250000001 204.99951679687496,102.67823261718752 204.99674062499994,100.55762031250002 204.99083789062496,98.43703847656252 204.98099999999994,96.31650000000002" fill="none" stroke="black" stroke-width="0.1"/>
        </g>
    </g>
</svg>
