<!DOCTYPE svg PUBLIC "-//W3C//DTD SVG 1.1//EN" "http://www.w3.org/Graphics/SVG/1.1/DTD/svg11.dtd">
<svg xmlns="http://www.w3.org/2000/svg" width="297mm" height="210mm" viewBox="0 0 297 210">
    <defs id="_tag_37_"/>
    <g id="_tag_38_">
        <circle id="simplify_34" cx="13" cy="197" r="5.0"/>
        <circle id="center_00" cx="13" cy="197" r="4.5"/>
        <polygon id="path6848___35_1" class="fil0 str0" points="21.6458,203.652 21.312900000000003,203.52339999999998 21.2203,203.46609999999998 21.208745507812502,203.45893730468748 21.197182812500003,203.45177343749998 21.1856130859375,203.44460722656248 21.1740375,203.4374375 21.162457226562502,203.4302630859375 21.150873437500003,203.4230828125 21.139287304687503,203.41589550781248 21.1277,203.40869999999998 21.0351,203.35139999999998 20.9425,203.2941 20.849899999999998,203.2368 20.757299999999997,203.1794 20.004799999999996,199.7582 21.329899999999995,198.45909999999998 19.632099999999994,193.17019999999997 17.117799999999995,190.86979999999997 13.104399999999995,189.48219999999998 8.148399999999995,191.20319999999998 5.837399999999995,194.79389999999998 5.5510999999999955,199.4834 7.814399999999996,208.0589 7.215399999999995,212.9829 5.964799999999995,216.0263 -1.3266000000000053,221.8414 -0.23480000000000523,219.7946 0.42859999999999476,218.1797 0.9428999999999947,216.5151 1.3052999999999948,214.81289999999998 1.5128999999999948,213.0852 1.5627999999999949,211.34429999999998 1.4521999999999948,209.60229999999999 1.1780999999999948,207.8714 0.9958999999999948,206.96689999999998 0.8001999999999948,206.06579999999997 0.5920999999999947,205.16759999999996 0.3729999999999948,204.27209999999997 0.14439999999999478,203.37889999999996 -0.09250000000000522,202.48779999999996 -0.5858000000000052,200.70999999999995 -1.0006000000000053,198.69449999999995 -1.1131000000000053,196.66089999999994 -0.9334000000000053,194.64339999999993 -0.4713000000000053,192.67639999999992 0.2631999999999947,190.79409999999993 1.2598999999999947,189.03099999999992 2.508999999999995,187.4211999999999 4.0003999999999955,185.99919999999992 6.001899999999996,184.30089999999993 7.946899999999996,182.53649999999993 9.831999999999995,180.70739999999992 11.654199999999996,178.81549999999993 13.410499999999995,176.86239999999992 15.097699999999996,174.84989999999993 16.712799999999994,172.77959999999993 18.252599999999994,170.65329999999994 18.252599999999994,170.65329999999994 22.578499999999995,164.47529999999995 31.230399999999996,152.11929999999995 35.55629999999999,145.94119999999995 39.882299999999994,139.76319999999996 44.20819999999999,133.58519999999996 48.53409999999999,127.40719999999996 52.78539999999999,121.33599999999996 52.86009999999999,121.22919999999995 52.91499999999999,121.16419999999995 52.97529999999999,121.10699999999996 53.04059999999999,121.05739999999996 53.11039999999999,121.01499999999996 53.184099999999994,120.97959999999996 53.26129999999999,120.95069999999997 53.34159999999999,120.92819999999998 53.424499999999995,120.91169999999998 54.30649999999999,120.91169999999998 55.721399999999996,121.04659999999998 57.0787,121.38749999999999 58.3602,121.9198 59.5473,122.62899999999999 60.6217,123.50059999999999 61.565,124.52 62.358799999999995,125.67269999999999 62.85869999999999,126.71419999999999 63.23169999999999,127.68499999999999 63.24359999999999,128.21499999999997 63.16119999999999,128.4611 60.64029999999999,132.17659999999998 58.23469999999999,135.96819999999997 55.94509999999999,139.83159999999998 53.77229999999999,143.76219999999998 51.71689999999999,147.75579999999997 51.47476249999999,148.26231249999995 51.232624999999985,148.76882499999994 50.99048749999999,149.27533749999995 50.74834999999999,149.78184999999996 50.50621249999998,150.28836249999998 50.26407499999999,150.794875 50.021937499999986,151.30138749999998 49.77979999999999,151.80789999999996 47.96159999999999,155.91409999999996 46.26309999999999,160.06999999999996 45.15289999999999,163.72999999999996 44.71049999999999,167.50979999999996 44.90769999999999,171.30989999999994 45.71629999999999,175.03109999999995 47.10829999999999,178.57399999999996 49.05539999999999,181.83909999999995 51.529399999999995,184.72719999999995 54.502199999999995,187.13889999999995 54.502199999999995,187.13889999999995 55.839999999999996,188.02169999999995 57.2375,188.79439999999994 58.686899999999994,189.45879999999994 60.180499999999995,190.01669999999993 61.71059999999999,190.46989999999994 63.26939999999999,190.82039999999995 64.84909999999999,191.06989999999996 66.442,191.22029999999995 66.58359999999999,191.24799999999996 66.71499999999999,191.30229999999997 66.83359999999999,191.37979999999996 66.9369,191.47709999999995 67.0225,191.59079999999994 67.08779999999999,191.71749999999994 67.13029999999999,191.85389999999995 67.1476,191.99639999999997 67.1476,192.24329999999998 67.139,205.25709999999998 67.0957,205.39309999999998 67.023,205.52209999999997 66.9263,205.63829999999996 66.81099999999999,205.73599999999996 66.6823,205.80939999999995 66.5458,205.85279999999995 66.4067,205.86059999999995 64.3732,205.84469999999996 60.7846,205.81639999999996 55.1628,205.71049999999997 49.5424,205.54039999999998 43.9245,205.30339999999998 38.310100000000006,204.9973 32.70020000000001,204.6193 27.095900000000007,204.1671 21.64580000000001,203.65200000000002" fill="none" stroke="black" stroke-width="0.1"/>
        <polygon id="path6848___13_1" class="fil2 str0" points="7.9161,198.135 7.7315000000000005,196.7363 7.9709,195.3928 8.5673,194.1684 9.4534,193.12699999999998 10.562000000000001,192.3327 11.8261,191.84939999999997 13.1784,191.74109999999996 14.5517,192.07169999999996 14.5517,192.07169999999996 15.1228,192.30639999999997 15.6517,192.61169999999996 16.1351,192.98029999999994 16.5699,193.40509999999995 16.9528,193.87909999999994 17.2807,194.39509999999993 17.5504,194.94589999999994 17.9262,196.15949999999995 18.0938,196.79449999999994 18.261400000000002,197.42949999999993 18.428900000000002,198.06449999999992 18.596500000000002,198.69949999999992 18.764100000000003,199.3344999999999 18.931700000000003,199.9694999999999 19.099200000000003,200.6044999999999 19.221600000000002,200.9752999999999 19.369500000000002,201.3342999999999 19.5424,201.6802999999999 19.7395,202.0123999999999 19.9602,202.3293999999999 20.2038,202.6303999999999 20.4697,202.9140999999999 20.7572,203.1796999999999 21.9584,201.34339999999992 22.685100000000002,199.30909999999992 22.9536,197.16889999999992 22.7802,195.01499999999993 22.1813,192.93969999999993 21.1731,191.03499999999994 19.771900000000002,189.39329999999995 17.994200000000003,188.10679999999996 17.994200000000003,188.10679999999996 15.894100000000003,187.11709999999997 13.653100000000004,186.69909999999996 11.376600000000003,186.81179999999995 9.169900000000004,187.41399999999996 7.138300000000004,188.46479999999997 5.387300000000003,189.92319999999998 4.022000000000004,191.748 3.1480000000000037,193.89839999999998 3.1480000000000037,193.89839999999998 2.952800000000004,194.60199999999998 2.816500000000004,195.31699999999998 2.736300000000004,196.04 2.709600000000004,196.76749999999998 2.733600000000004,197.49589999999998 2.805600000000004,198.22169999999997 2.8202955078125043,198.31169980468746 2.834982812500004,198.4016984375 2.849663085937504,198.49169472656249 2.864337500000004,198.58168749999996 2.879007226562504,198.67167558593746 2.8936734375000044,198.76165781249995 2.9083373046875036,198.85163300781247 2.923000000000004,198.94159999999997 3.083100000000004,199.65199999999996 3.500400000000004,201.15999999999997 3.824000000000004,202.33309999999997 4.3011000000000035,204.85269999999997 4.451300000000003,207.40479999999997 4.283000000000003,209.95269999999996 3.804500000000003,212.45979999999997 3.024200000000003,214.88949999999997 1.950300000000003,217.20509999999996 0.591400000000003,219.37009999999995 -1.326599999999997,221.84169999999995 -2.0749999999999966,223.39939999999996 -2.4038999999999966,225.04209999999995 -2.3411999999999966,226.69819999999996 -1.9146999999999967,228.29589999999996 -1.1522999999999968,229.76379999999995 -0.08189999999999675,231.03019999999995 1.2686000000000033,232.02339999999995 2.871400000000003,232.67199999999994 2.721500000000003,233.20989999999995 2.5716000000000028,233.74789999999996 2.421600000000003,234.28589999999997 2.2717000000000027,234.82389999999998 2.1218000000000026,235.3619 1.9718000000000027,235.8999 1.8219000000000027,236.4379 1.6720000000000028,236.97590000000002 1.6299000000000028,237.18400000000003 1.6507000000000027,237.38230000000001 1.7255000000000027,237.5629 1.8451000000000026,237.71810000000002 2.0004000000000026,237.84000000000003 2.1822000000000026,237.92090000000005 2.3815000000000026,237.95290000000006 2.5892000000000026,237.92840000000007 4.439200000000003,237.27470000000008 6.145100000000003,236.34980000000007 7.682200000000003,235.18290000000007 9.025800000000002,233.80340000000007 10.151300000000003,232.24060000000006 11.034200000000002,230.52380000000005 11.649600000000001,228.68220000000005 12.043600000000001,226.14560000000006 11.967800000000002,222.91140000000007 11.787400000000002,219.68200000000007 11.503900000000002,216.46030000000007 11.118700000000002,213.2492000000001 10.632900000000003,210.0516000000001 10.048100000000003,206.8704000000001 9.365500000000003,203.7087000000001 8.586400000000003,200.5692000000001 7.916100000000003,198.1350000000001" fill="none" stroke="black" stroke-width="0.1"/>
        <polygon id="path6848___15" points="47.4273,189.774 48.0713,190.68 48.4059,191.682 48.4522,192.717 48.2313,193.724 47.7643,194.641 47.0726,195.405 46.177,195.956 45.099,196.23 42.6752,196.426 40.2446,196.506 37.8127,196.47 35.3853,196.317 32.9684,196.048 30.5675,195.662 28.1886,195.158 25.8373,194.537 25.5186,194.441 25.2143,194.315 24.925,194.161 24.651,193.982 24.3931,193.779 24.1516,193.556 23.9273,193.314 23.7206,193.055 23.2708,192.398 22.821,191.741 22.3712,191.084 21.9214,190.427 21.4716,189.77 21.0218,189.113 20.572,188.456 20.1222,187.798 19.6615,186.997 19.3232,186.143 19.1088,185.254 19.0197,184.346 19.0574,183.435 19.2234,182.538 19.519,181.67 19.9459,180.849 21.1678,178.924 22.4313,177.03 23.7358,175.164 25.0804,173.328 26.4645,171.521 27.8874,169.744 29.3484,167.997 30.8467,166.279 31.7416,165.539 32.7558,165.136 33.8203,165.047 34.866,165.247 35.8239,165.712 36.6247,166.42 37.1994,167.346 37.479,168.466 37.9133,171.431 38.5959,174.345 39.518,177.192 40.6714,179.952 42.0475,182.609 43.6378,185.144 45.4339,187.538" fill="none" stroke="black" stroke-width="0.1"/>
        <polygon id="path6848___25" points="9.3127,225.668 9.288,226.139 9.2144,226.604 9.0925,227.059 8.9237,227.499 8.7098,227.918 8.4533,228.313 8.1569,228.679 7.8238,229.012 7.4577,229.309 7.0627,229.565 6.643,229.779 6.2033,229.948 5.7483,230.07 5.2831,230.144 4.8127,230.168 4.3423,230.144 3.8771,230.07 3.4221,229.948 2.9824,229.779 2.5627,229.565 2.1677,229.309 1.8016,229.012 1.4685,228.679 1.1721,228.313 0.9156,227.918 0.7017,227.499 0.5329,227.059 0.411,226.604 0.3374,226.139 0.3127,225.668 0.3374,225.198 0.411,224.733 0.5329,224.278 0.7017,223.838 0.9156,223.418 1.1721,223.023 1.4685,222.657 1.8016,222.324 2.1677,222.028 2.5627,221.771 2.9824,221.557 3.4221,221.388 3.8771,221.267 4.3423,221.193 4.8127,221.168 5.2831,221.193 5.7483,221.267 6.2033,221.388 6.643,221.557 7.0627,221.771 7.4577,222.028 7.8238,222.324 8.1569,222.657 8.4533,223.023 8.7098,223.418 8.9237,223.838 9.0925,224.278 9.2144,224.733 9.288,225.198" fill="none" stroke="black" stroke-width="0.1"/>
    </g>
</svg>
