<!DOCTYPE svg PUBLIC "-//W3C//DTD SVG 1.1//EN" "http://www.w3.org/Graphics/SVG/1.1/DTD/svg11.dtd">
<svg xmlns="http://www.w3.org/2000/svg" width="297mm" height="210mm" viewBox="0 0 297 210">
    <defs id="_tag_9_"/>
    <g id="Ebene_x0020_1">
        <polygon points="33.1581,156.166 32.7658,155.2274 32.5736,154.2599 32.573299999999996,153.2907 32.7568,152.3473 33.116099999999996,151.45669999999998 33.643299999999996,150.64649999999997 34.329899999999995,149.94379999999998 35.168099999999995,149.37599999999998 35.168099999999995,149.37599999999998 36.1063,148.98379999999997 37.0728,148.79149999999998 38.0407,148.79129999999998 38.9831,148.9748 39.873,149.33409999999998 40.6834,149.86119999999997 41.3874,150.54779999999997 41.9581,151.38599999999997 41.9581,151.38599999999997 42.3781,152.47599999999997 43.346000000000004,154.26589999999996 44.532000000000004,155.88269999999997 44.704645898437505,156.06126210937498 44.877285937500005,156.23980312499998 45.04992363281251,156.41833007812497 45.2225625,156.59684999999996 45.3952060546875,156.77536992187498 45.5678578125,156.95389687499997 45.7405212890625,157.13243789062497 45.9132,157.31099999999998 47.466800000000006,158.5348 49.17000000000001,159.53889999999998 50.99980000000001,160.30739999999997 52.93350000000001,160.82499999999996 54.938100000000006,161.06599999999997 82.41810000000001,161.06599999999997 82.41810000000001,158.76599999999996 87.41810000000001,158.76599999999996 87.41810000000001,148.76599999999996 82.41810000000001,148.76599999999996 82.41810000000001,146.46599999999995 87.41810000000001,146.46599999999995 87.41810000000001,144.46599999999995 75.9081,144.46609999999995 73.87060000000001,144.20359999999997 71.97680000000001,143.54959999999997 70.27620000000002,142.55599999999998 68.80810000000001,141.26479999999998 67.61180000000002,139.7181 66.72680000000001,137.9581 66.19250000000001,136.0266 66.0481,133.966 66.0481,133.966 66.1024,133.20430000000002 66.21220000000001,132.4515 66.3768,131.7106 66.5956,130.9847 66.8678,130.2772 67.1928,129.5912 67.5698,128.9297 67.9981,128.30599999999998 75.32809999999999,119.57109999999999 73.78809999999999,118.28599999999999 77.14809999999999,114.29099999999998 69.56809999999999,107.92599999999999 66.21809999999999,111.92599999999999 64.67809999999999,110.63599999999998 62.54479999999999,113.00759999999998 60.61159999999999,115.15679999999998 56.43089999999999,119.56759999999997 52.13819999999998,123.86639999999997 47.735599999999984,128.05109999999996 43.22519999999999,132.11949999999996 38.608899999999984,136.06939999999997 37.14349999999998,137.25839999999997 33.889299999999984,139.89899999999997 29.652899999999985,143.14389999999997 29.346419140624985,143.3813767578125 29.047178124999988,143.6271703125 28.755329296874983,143.88107558593748 28.471024999999983,144.14288749999997 28.194417578124984,144.41240097656248 27.92565937499998,144.68941093749999 27.664902734374984,144.97371230468747 27.412299999999984,145.26509999999996 27.412299999999984,145.26509999999996 27.412146093749985,145.26522089843746 27.41198749999998,145.26535468749998 27.411828906249983,145.26549550781246 27.41167499999998,145.26563749999997 27.411530468749984,145.26577480468745 27.411399999999983,145.26590156249995 27.411288281249984,145.2660119140625 27.411199999999983,145.26609999999997 27.411199999999983,145.26609999999997 26.722309179687482,146.19627988281246 26.127354687499984,147.19102656249999 25.631950976562482,148.24315058593746 25.241712499999984,149.34546249999997 24.962253710937485,150.49077285156247 24.79918906249998,151.67189218749996 24.758133007812482,152.8816310546875 24.844699999999982,154.11279999999996 25.144899999999982,155.83019999999996 25.499899999999982,157.35289999999995 25.618099999999984,157.72599999999994 26.212999999999983,159.83659999999995 26.603499999999983,161.98889999999994 26.790299999999984,164.15839999999994 26.774299999999986,166.33099999999993 26.556299999999986,168.49239999999992 26.136899999999986,170.6281999999999 25.517299999999988,172.7241999999999 25.41489179687499,172.9793962890624 25.312490624999988,173.23460781249992 25.21009414062499,173.48983105468741 25.107699999999987,173.7450624999999 25.00530585937499,174.00029863281242 24.90290937499999,174.2555359374999 24.80050820312499,174.5107708984374 24.69809999999999,174.7659999999999 24.20919999999999,176.1914999999999 23.99429999999999,177.65409999999991 24.051399999999987,179.1082999999999 24.368099999999988,180.5184999999999 24.932299999999987,181.8489999999999 25.731799999999986,183.0640999999999 26.754499999999986,184.1282999999999 27.988099999999985,184.9860999999999 27.928799999999985,188.5699999999999 29.832299999999986,188.3885999999999 31.670899999999985,187.93509999999992 33.41679999999999,187.22359999999992 35.04229999999999,186.26719999999992 36.51939999999999,185.07989999999992 37.82069999999999,183.67479999999992 39.169099999999986,181.59369999999993 39.51639999999998,180.77439999999993 39.76929999999998,179.92669999999993 39.92679999999998,179.05849999999992 39.98839999999998,178.17809999999992 39.95289999999998,177.29379999999992 39.81979999999998,176.41369999999992 39.58799999999998,175.55599999999993 33.158099999999976,156.15599999999992" fill="none" stroke="black" stroke-width="0.1" id="_new_2_1"/>
        <polygon points="36.4881,178.066 36.3969,178.975 36.1351,179.821 35.7208,180.587 35.1718,181.255 34.5062,181.806 33.7417,182.222 32.8964,182.485 31.9881,182.576 31.0823,182.485 30.2372,182.222 29.4713,181.806 28.8031,181.255 28.2512,180.587 27.834,179.821 27.5702,178.975 27.4781,178.066 27.5702,177.158 27.834,176.313 28.2512,175.548 28.8031,174.882 29.4713,174.334 30.2372,173.919 31.0823,173.657 31.9881,173.566 32.8964,173.657 33.7417,173.919 34.5062,174.334 35.1718,174.882 35.7208,175.548 36.1351,176.313 36.3969,177.158" fill="none" stroke="black" stroke-width="0.1" id="path514"/>
        <polygon points="68.2381,147.266 65.863,145.534 63.9414,143.428 62.4934,141.028 61.5392,138.414 61.0995,135.666 61.1942,132.863 61.8436,130.087 63.0681,127.416 63.3086,127.024 63.5575,126.637 64.0881,125.616 64.1481,124.776 63.8881,123.976 63.3581,123.316 62.6281,122.906 61.7881,122.786 60.9581,122.976 60.2681,123.456 59.3232,124.451 58.3636,125.44 57.399,126.424 56.4293,127.402 55.4546,128.376 54.4745,129.344 53.4891,130.308 52.5031,131.261 51.2883,132.204 50.1986,133.277 49.247,134.46 48.4406,135.741 47.787,137.107 47.2937,138.543 46.9683,140.038 46.8181,141.576 46.976,144.24 47.641,146.742 48.7623,149.026 50.2893,151.039 52.1711,152.724 54.357,154.027 56.7962,154.893 59.4181,155.256 66.2681,155.256 67.3881,154.936 68.3781,154.336 69.188,153.496 69.7581,152.476 70.0381,151.346 70.0081,150.176 69.668,149.066 69.0681,148.066 68.2381,147.266" fill="none" stroke="black" stroke-width="0.1" id="path754"/>
        <circle cx="37.5581" cy="153.771" r="5.0" fill="none" stroke="black" stroke-width="0.1"/>
        <circle cx="37.5581" cy="153.771" r="4.5" fill="none" stroke="black" stroke-width="0.1" id="center_00"/>
    </g>
</svg>
