<!DOCTYPE svg PUBLIC "-//W3C//DTD SVG 1.1//EN" "http://www.w3.org/Graphics/SVG/1.1/DTD/svg11.dtd">
<svg xmlns="http://www.w3.org/2000/svg" width="297mm" height="300mm" viewBox="0 0 297 300">
    <defs id="_tag_732_"/>
    <g id="Ebene_x0020_1">
        <circle cx="74.4111" cy="207.746" r="5" fill="none" stroke="black" stroke-width="0.1" id="_tag_733_"/>
        <polygon points="84.1919,211.876 78.3657,204.675 77.6413466796875,203.9396896484375 76.8103234375,203.38298593750002 75.9018603515625,203.0072173828125 74.9451875,202.8147125 73.96953496093751,202.80779980468753 73.0041328125,202.9888078125 72.0782111328125,203.3600650390625 71.221,203.9239 71.221,203.9239 70.49382929687499,204.6467703125 69.940853125,205.47444375 69.56542539062501,206.3783265625 69.3709,207.329825 69.36063085937501,208.3003453125 69.537971875,209.26129375 69.906276953125,210.1840765625 70.4689,211.0401 76.35520000000001,218.3247 76.59787832031252,218.6867029296875 76.7741453125,219.0654296875 76.89751152343752,219.4640947265625 76.9814875,219.88591250000002 77.0395837890625,220.3340974609375 77.0853109375,220.81186406249998 77.1321794921875,221.32242675781254 77.1937,221.869 78.55730000000001,230.6266 79.13515195312502,231.19252597656254 79.64896562500002,231.8146328125 80.09421523437501,232.4880513671875 80.466375,233.2079125 80.760919140625,233.96934707031252 80.97332187500001,234.7674859375 81.09905742187502,235.5974599609375 81.13360000000002,236.4544 81.13360000000002,236.4544 81.11210722656251,236.81579785156248 81.06795156250001,237.17095781249998 81.00551699218751,237.52072949218748 80.92918750000001,237.8659625 80.8433470703125,238.2075064453125 80.75237968750002,238.5462109375 80.66066933593751,238.8829255859375 80.57260000000001,239.2185 80.57260000000001,239.2185 79.0541029296875,242.9181005859375 77.07714843750001,245.3566171875 74.8222416015625,246.76225957031252 72.4698875,247.36323750000003 70.2005912109375,247.3877607421875 68.1948578125,247.0640390625 66.63319238281251,246.62028222656252 65.6961,246.28470000000002 65.6961,246.28470000000002 65.2115505859375,246.02875878906252 64.8781109375,245.7062328125 64.6810564453125,245.3367310546875 64.60566250000001,244.9398625 64.63720449218751,244.5352361328125 64.7609578125,244.1424609375 64.96219785156251,243.78114589843753 65.2262,243.47090000000003 67.6927,241.24060000000003 67.28882558593749,240.7112021484375 66.9299359375,240.1460609375 66.6194939453125,239.54840488281252 66.3609625,238.92146250000002 66.1578044921875,238.26846230468752 66.0134828125,237.59263281250003 65.93146035156249,236.8972025390625 65.9152,236.18540000000002 65.9152,236.18540000000002 65.94022265625,235.65518710937502 66.0072125,235.136915625 66.11215234375001,234.630723828125 66.251025,234.13675 66.41981328125,233.655132421875 66.6145,233.18600937500003 66.83106796875,232.72951914062503 67.0655,232.28580000000002 67.0655,232.28580000000002 67.79419843750001,230.16319472656252 67.80905625,227.91843906250003 67.2744546875,225.6345732421875 66.35477499999999,223.39463750000004 65.2143984375,221.28167207031254 64.01770625,219.3787171875 62.92907968749999,217.7688130859375 62.112899999999996,216.53500000000003 62.112899999999996,216.53500000000003 61.531042578124996,215.53160429687503 60.995940624999996,214.49508437500003 60.515312109374996,213.425841015625 60.096875,212.324275 59.74834726562499,211.190787109375 59.477446875,210.02577812500002 59.29189179687499,208.82964882812502 59.1994,207.60280000000003 59.1994,207.60280000000003 59.443712890624994,204.49377714843752 60.302446875,201.63399218750004 61.594507421875,199.05657050781252 63.1388,196.79463750000002 64.75423007812499,194.88131855468754 66.259703125,193.34973906250002 67.474124609375,192.23302441406253 68.2164,191.56430000000003 68.2164,191.56430000000003 70.769566796875,189.00151621093752 73.12522812499999,186.46271718750006 75.26101289062498,183.99793144531253 77.15455,181.65718750000005 78.783468359375,179.49051386718753 80.12539687499999,177.54793906250003 81.15796445312499,175.87949160156253 81.85879999999999,174.53520000000003 81.85879999999999,174.53520000000003 82.40970937499999,173.28108085937504 83.11196874999999,171.650478125 83.9120375,169.76988632812504 84.75637499999999,167.76580000000004 85.59144062499999,165.76471367187503 86.36369374999998,163.89312187500002 87.01959374999998,162.277519140625 87.50559999999999,161.04440000000002 87.50559999999999,161.04440000000002 87.8520001953125,160.28762402343753 88.18328906249998,159.8178109375 88.4986990234375,159.56497050781252 88.7974625,159.45911250000003 89.07881191406248,159.4302466796875 89.34197968749999,159.4083828125 89.58619824218749,159.3235306640625 89.81069999999998,159.1057 89.81069999999998,159.1057 89.96282382812498,158.8805517578125 90.10916562499999,158.6338328125 90.24525585937498,158.38144433593752 90.36662499999998,158.13928750000002 90.46880351562498,157.9232634765625 90.54732187499998,157.7492734375 90.59771054687498,157.63321855468752 90.61549999999998,157.591 92.90419999999999,151.9077 93.11938710937498,151.4167162109375 93.33787187499999,151.01037343750002 93.57075195312498,150.6899595703125 93.829125,150.45676250000002 94.12408867187499,150.3120701171875 94.46674062499999,150.25717031250002 94.86817851562498,150.29335097656246 95.33949999999999,150.4219 97.77389999999998,151.36599999999999 98.04369824218749,151.4857421875 98.33246093749997,151.63999374999997 98.61040253906248,151.84889218749998 98.8477375,152.13257499999997 99.01468027343749,152.5111796875 99.08144531249998,153.00484374999996 99.01824707031248,153.63370468749997 98.79529999999998,154.41789999999997 96.98399999999998,159.8558 96.78930136718748,160.462884375 96.66709843749999,160.94918124999998 96.60890566406248,161.33073124999999 96.60623749999999,161.623575 96.65060839843748,161.84375312499998 96.73353281249999,162.00730624999997 96.84652519531248,162.13027499999998 96.98109999999998,162.22869999999998 96.98109999999998,162.22869999999998 97.17904785156247,162.41696210937496 97.29907656249998,162.64780312499997 97.35518886718748,162.90968007812498 97.36138749999998,163.19105 97.33167519531249,163.48036992187497 97.28005468749998,163.766096875 97.22052871093749,164.03668789062496 97.16709999999999,164.28059999999996 97.16709999999999,164.28059999999996 95.36283984375,175.61162832031246 96.26033749999999,184.10750781249996 99.25749765625,190.17889277343747 103.75222499999998,194.23643749999997 109.14242421875,196.69079628906246 114.826,197.95262343749997 120.20085703125,198.4325732421875 124.66489999999999,198.54129999999998 124.66489999999999,198.54129999999998 125.27323496093749,198.56561992187497 125.7909359375,198.603821875 126.22095957031249,198.66384414062497 126.5662625,198.753625 126.82980136718749,198.881102734375 127.0145328125,199.05421562499998 127.12341347656249,199.28090195312498 127.15939999999999,199.5691 127.15939999999999,199.5691 127.167614453125,199.79177636718748 127.224553125,199.9514421875 127.34130898437499,200.05876503906248 127.52897499999999,200.12441249999998 127.79864414062499,200.1590521484375 128.161409375,200.1733515625 128.62836367187498,200.17797832031246 129.2106,200.18359999999998 133.3273,200.1828 133.8343998046875,200.24677558593748 134.22764843750002,200.40819843749998 134.5208072265625,200.6582126953125 134.72763750000001,200.98796249999998 134.8619005859375,201.3885919921875 134.9373578125,201.8512453125 134.9677705078125,202.3670666015625 134.9669,202.9272 135.0474,206.8696 135.010228515625,207.23621757812498 134.91485937500002,207.615259375 134.75828554687502,207.98773398437498 134.5375,208.33464999999998 134.249495703125,208.637016015625 133.891265625,208.87584062499997 133.459802734375,209.032132421875 132.9521,209.08689999999999 128.608,209.12419999999997 128.2771552734375,209.142910546875 127.97274218750002,209.160690625 127.70015488281251,209.188075390625 127.46478750000001,209.23559999999998 127.27203417968751,209.31379960937497 127.12728906250001,209.433209375 127.0359462890625,209.60436445312502 127.0034,209.8378 127.0034,209.8378 126.9798099609375,210.101003515625 126.9245921875,210.331471875 126.8259751953125,210.52794179687498 126.6721875,210.68914999999998 126.4514576171875,210.81383320312497 126.1520140625,210.900728125 125.76208535156249,210.94857148437498 125.26989999999999,210.9561 125.26989999999999,210.9561 122.72117578125,210.9778658203125 118.92816874999998,211.0953515625 114.32822734375,211.2839021484375 109.3587,211.5188625 104.45693515624998,211.7755775390625 100.06028124999999,212.02939218749998 96.60608671874999,212.2556513671875 94.5317,212.4297 94.5317,212.4297 92.8244708984375,212.63879902343749 91.1961921875,212.8253734375 89.6666392578125,212.9609267578125 88.25558750000002,213.0169625 86.9828123046875,212.96498417968752 85.86808906249999,212.7764953125 84.9311931640625,212.42299941406247 84.1919,211.876" fill="none" stroke="black" stroke-width="0.1" id="_new_694_1"/>
        <polygon points="84.1919,211.876 78.3657,204.675 77.6413466796875,203.9396896484375 76.8103234375,203.38298593750002 75.9018603515625,203.0072173828125 74.9451875,202.8147125 73.96953496093751,202.80779980468753 73.0041328125,202.9888078125 72.0782111328125,203.3600650390625 71.221,203.9239 71.221,203.9239 70.49382929687499,204.6467703125 69.940853125,205.47444375 69.56542539062501,206.3783265625 69.3709,207.329825 69.36063085937501,208.3003453125 69.537971875,209.26129375 69.906276953125,210.1840765625 70.4689,211.0401 76.35520000000001,218.3247 76.59787832031252,218.6867029296875 76.7741453125,219.0654296875 76.89751152343752,219.4640947265625 76.9814875,219.88591250000002 77.0395837890625,220.3340974609375 77.0853109375,220.81186406249998 77.1321794921875,221.32242675781254 77.1937,221.869 78.55730000000001,230.6266 79.13515195312502,231.19252597656254 79.64896562500002,231.8146328125 80.09421523437501,232.4880513671875 80.466375,233.2079125 80.760919140625,233.96934707031252 80.97332187500001,234.7674859375 81.09905742187502,235.5974599609375 81.13360000000002,236.4544 81.13360000000002,236.4544 81.11210722656251,236.81579785156248 81.06795156250001,237.17095781249998 81.00551699218751,237.52072949218748 80.92918750000001,237.8659625 80.8433470703125,238.2075064453125 80.75237968750002,238.5462109375 80.66066933593751,238.8829255859375 80.57260000000001,239.2185 80.57260000000001,239.2185 79.0541029296875,242.9181005859375 77.07714843750001,245.3566171875 74.8222416015625,246.76225957031252 72.4698875,247.36323750000003 70.2005912109375,247.3877607421875 68.1948578125,247.0640390625 66.63319238281251,246.62028222656252 65.6961,246.28470000000002 65.6961,246.28470000000002 65.2115505859375,246.02875878906252 64.8781109375,245.7062328125 64.6810564453125,245.3367310546875 64.60566250000001,244.9398625 64.63720449218751,244.5352361328125 64.7609578125,244.1424609375 64.96219785156251,243.78114589843753 65.2262,243.47090000000003 67.6927,241.24060000000003 67.28882558593749,240.7112021484375 66.9299359375,240.1460609375 66.6194939453125,239.54840488281252 66.3609625,238.92146250000002 66.1578044921875,238.26846230468752 66.0134828125,237.59263281250003 65.93146035156249,236.8972025390625 65.9152,236.18540000000002 65.9152,236.18540000000002 65.94022265625,235.65518710937502 66.0072125,235.136915625 66.11215234375001,234.630723828125 66.251025,234.13675 66.41981328125,233.655132421875 66.6145,233.18600937500003 66.83106796875,232.72951914062503 67.0655,232.28580000000002 67.0655,232.28580000000002 67.79419843750001,230.16319472656252 67.80905625,227.91843906250003 67.2744546875,225.6345732421875 66.35477499999999,223.39463750000004 65.2143984375,221.28167207031254 64.01770625,219.3787171875 62.92907968749999,217.7688130859375 62.112899999999996,216.53500000000003 62.112899999999996,216.53500000000003 61.531042578124996,215.53160429687503 60.995940624999996,214.49508437500003 60.515312109374996,213.425841015625 60.096875,212.324275 59.74834726562499,211.190787109375 59.477446875,210.02577812500002 59.29189179687499,208.82964882812502 59.1994,207.60280000000003 59.1994,207.60280000000003 59.443712890624994,204.49377714843752 60.302446875,201.63399218750004 61.594507421875,199.05657050781252 63.1388,196.79463750000002 64.75423007812499,194.88131855468754 66.259703125,193.34973906250002 67.474124609375,192.23302441406253 68.2164,191.56430000000003 68.2164,191.56430000000003 70.769566796875,189.00151621093752 73.12522812499999,186.46271718750006 75.26101289062498,183.99793144531253 77.15455,181.65718750000005 78.783468359375,179.49051386718753 80.12539687499999,177.54793906250003 81.15796445312499,175.87949160156253 81.85879999999999,174.53520000000003 81.85879999999999,174.53520000000003 82.40970937499999,173.28108085937504 83.11196874999999,171.650478125 83.9120375,169.76988632812504 84.75637499999999,167.76580000000004 85.59144062499999,165.76471367187503 86.36369374999998,163.89312187500002 87.01959374999998,162.277519140625 87.50559999999999,161.04440000000002 87.50559999999999,161.04440000000002 87.8520001953125,160.28762402343753 88.18328906249998,159.8178109375 88.4986990234375,159.56497050781252 88.7974625,159.45911250000003 89.07881191406248,159.4302466796875 89.34197968749999,159.4083828125 89.58619824218749,159.3235306640625 89.81069999999998,159.1057 89.81069999999998,159.1057 89.96282382812498,158.8805517578125 90.10916562499999,158.6338328125 90.24525585937498,158.38144433593752 90.36662499999998,158.13928750000002 90.46880351562498,157.9232634765625 90.54732187499998,157.7492734375 90.59771054687498,157.63321855468752 90.61549999999998,157.591 92.90419999999999,151.9077 93.11938710937498,151.4167162109375 93.33787187499999,151.01037343750002 93.57075195312498,150.6899595703125 93.829125,150.45676250000002 94.12408867187499,150.3120701171875 94.46674062499999,150.25717031250002 94.86817851562498,150.29335097656246 95.33949999999999,150.4219 97.77389999999998,151.36599999999999 98.04369824218749,151.4857421875 98.33246093749997,151.63999374999997 98.61040253906248,151.84889218749998 98.8477375,152.13257499999997 99.01468027343749,152.5111796875 99.08144531249998,153.00484374999996 99.01824707031248,153.63370468749997 98.79529999999998,154.41789999999997 96.98399999999998,159.8558 96.78930136718748,160.462884375 96.66709843749999,160.94918124999998 96.60890566406248,161.33073124999999 96.60623749999999,161.623575 96.65060839843748,161.84375312499998 96.73353281249999,162.00730624999997 96.84652519531248,162.13027499999998 96.98109999999998,162.22869999999998 96.98109999999998,162.22869999999998 97.17904785156247,162.41696210937496 97.29907656249998,162.64780312499997 97.35518886718748,162.90968007812498 97.36138749999998,163.19105 97.33167519531249,163.48036992187497 97.28005468749998,163.766096875 97.22052871093749,164.03668789062496 97.16709999999999,164.28059999999996 97.16709999999999,164.28059999999996 95.36283984375,175.61162832031246 96.26033749999999,184.10750781249996 99.25749765625,190.17889277343747 103.75222499999998,194.23643749999997 109.14242421875,196.69079628906246 114.826,197.95262343749997 120.20085703125,198.4325732421875 124.66489999999999,198.54129999999998 124.66489999999999,198.54129999999998 125.27323496093749,198.56561992187497 125.7909359375,198.603821875 126.22095957031249,198.66384414062497 126.5662625,198.753625 126.82980136718749,198.881102734375 127.0145328125,199.05421562499998 127.12341347656249,199.28090195312498 127.15939999999999,199.5691 127.15939999999999,199.5691 127.167614453125,199.79177636718748 127.224553125,199.9514421875 127.34130898437499,200.05876503906248 127.52897499999999,200.12441249999998 127.79864414062499,200.1590521484375 128.161409375,200.1733515625 128.62836367187498,200.17797832031246 129.2106,200.18359999999998 133.3273,200.1828 133.8343998046875,200.24677558593748 134.22764843750002,200.40819843749998 134.5208072265625,200.6582126953125 134.72763750000001,200.98796249999998 134.8619005859375,201.3885919921875 134.9373578125,201.8512453125 134.9677705078125,202.3670666015625 134.9669,202.9272 135.0474,206.8696 135.010228515625,207.23621757812498 134.91485937500002,207.615259375 134.75828554687502,207.98773398437498 134.5375,208.33464999999998 134.249495703125,208.637016015625 133.891265625,208.87584062499997 133.459802734375,209.032132421875 132.9521,209.08689999999999 128.608,209.12419999999997 128.2771552734375,209.142910546875 127.97274218750002,209.160690625 127.70015488281251,209.188075390625 127.46478750000001,209.23559999999998 127.27203417968751,209.31379960937497 127.12728906250001,209.433209375 127.0359462890625,209.60436445312502 127.0034,209.8378 127.0034,209.8378 126.9798099609375,210.101003515625 126.9245921875,210.331471875 126.8259751953125,210.52794179687498 126.6721875,210.68914999999998 126.4514576171875,210.81383320312497 126.1520140625,210.900728125 125.76208535156249,210.94857148437498 125.26989999999999,210.9561 125.26989999999999,210.9561 122.72117578125,210.9778658203125 118.92816874999998,211.0953515625 114.32822734375,211.2839021484375 109.3587,211.5188625 104.45693515624998,211.7755775390625 100.06028124999999,212.02939218749998 96.60608671874999,212.2556513671875 94.5317,212.4297 94.5317,212.4297 92.8244708984375,212.63879902343749 91.1961921875,212.8253734375 89.6666392578125,212.9609267578125 88.25558750000002,213.0169625 86.9828123046875,212.96498417968752 85.86808906249999,212.7764953125 84.9311931640625,212.42299941406247 84.1919,211.876" fill="none" stroke="black" stroke-width="0.1" id="_new_695_1"/>
        <polygon points="85.5378,207.026 85.56134550781252,208.55254628906252 85.3911390625,209.6442953125 85.0758662109375,210.3618623046875 84.6642125,210.76586250000003 84.2048634765625,210.91691113281252 83.7465046875,210.87562343750005 83.33782167968751,210.70261464843753 83.0275,210.45850000000002 78.36670000000001,204.70350000000002 77.6423466796875,203.96818964843752 76.81132343750001,203.41148593750003 75.90286035156251,203.03571738281252 74.94618750000001,202.84321250000002 73.97053496093751,202.83629980468754 73.00513281250001,203.0173078125 72.0792111328125,203.3885650390625 71.22200000000001,203.9524 71.22200000000001,203.9524 70.494829296875,204.6752375 69.94185312500001,205.50288750000004 69.56642539062501,206.40675625000003 69.37190000000001,207.35825 69.36163085937501,208.328775 69.538971875,209.2897375 69.907276953125,210.21254375 70.46990000000001,211.0686 74.4145,215.9624 74.7762462890625,216.547060546875 74.92390156249999,217.131484375 74.8619529296875,217.68100976562502 74.5948875,218.160975 74.12719238281251,218.536718359375 73.4633546875,218.773578125 72.60786152343749,218.836892578125 71.5652,218.692 71.5652,218.692 69.7973572265625,218.1055412109375 68.1861390625,217.2264921875 66.75751074218749,216.08845644531252 65.5374375,214.72503749999998 64.5518845703125,213.1698388671875 63.826817187500005,211.4564640625 63.388200585937504,209.6185166015625 63.262,207.6896 63.262,207.6896 63.5255583984375,205.4482619140625 64.21077968750001,203.36640781250003 65.27164550781251,201.4885279296875 66.6621375,199.8591125 68.3362373046875,198.5226517578125 70.2479265625,197.52363593750002 72.35118691406251,196.9065552734375 74.6,196.7159 74.6,196.7159 76.7198330078125,196.9582513671875 78.6989953125,197.5760421875 80.5003068359375,198.5310400390625 82.08658749999998,199.7850125 83.4206572265625,201.2997271484375 84.4653359375,203.0369515625 85.18344355468749,204.95845332031251 85.53779999999999,207.026" fill="none" stroke="black" stroke-width="0.1" id="_new_696_1"/>
        <polygon points="85.5378,207.026 85.56134550781252,208.55254628906252 85.3911390625,209.6442953125 85.0758662109375,210.3618623046875 84.6642125,210.76586250000003 84.2048634765625,210.91691113281252 83.7465046875,210.87562343750005 83.33782167968751,210.70261464843753 83.0275,210.45850000000002 78.36670000000001,204.70350000000002 77.6423466796875,203.96818964843752 76.81132343750001,203.41148593750003 75.90286035156251,203.03571738281252 74.94618750000001,202.84321250000002 73.97053496093751,202.83629980468754 73.00513281250001,203.0173078125 72.0792111328125,203.3885650390625 71.22200000000001,203.9524 71.22200000000001,203.9524 70.494829296875,204.6752375 69.94185312500001,205.50288750000004 69.56642539062501,206.40675625000003 69.37190000000001,207.35825 69.36163085937501,208.328775 69.538971875,209.2897375 69.907276953125,210.21254375 70.46990000000001,211.0686 74.4145,215.9624 74.7762462890625,216.547060546875 74.92390156249999,217.131484375 74.8619529296875,217.68100976562502 74.5948875,218.160975 74.12719238281251,218.536718359375 73.4633546875,218.773578125 72.60786152343749,218.836892578125 71.5652,218.692 71.5652,218.692 69.7973572265625,218.1055412109375 68.1861390625,217.2264921875 66.75751074218749,216.08845644531252 65.5374375,214.72503749999998 64.5518845703125,213.1698388671875 63.826817187500005,211.4564640625 63.388200585937504,209.6185166015625 63.262,207.6896 63.262,207.6896 63.5255583984375,205.4482619140625 64.21077968750001,203.36640781250003 65.27164550781251,201.4885279296875 66.6621375,199.8591125 68.3362373046875,198.5226517578125 70.2479265625,197.52363593750002 72.35118691406251,196.9065552734375 74.6,196.7159 74.6,196.7159 76.7198330078125,196.9582513671875 78.6989953125,197.5760421875 80.5003068359375,198.5310400390625 82.08658749999998,199.7850125 83.4206572265625,201.2997271484375 84.4653359375,203.0369515625 85.18344355468749,204.95845332031251 85.53779999999999,207.026" fill="none" stroke="black" stroke-width="0.1" id="_new_697_1"/>
        <polygon points="81.1336,236.455 80.94986035156249,237.98694746093753 80.48050781250001,239.4085921875 79.7563169921875,240.6897126953125 78.8080625,241.80008750000002 77.6665189453125,242.70949511718752 76.3624609375,243.38771406250004 74.9266630859375,243.80452285156252 73.3899,243.92970000000003 73.3899,243.92970000000003 71.85823964843749,243.75414296875002 70.43672968749999,243.28863125 69.15562675781248,242.56494140625003 68.0451875,241.61485000000002 67.1356685546875,240.47013359375 66.45732656249999,239.16256875000005 66.0404181640625,237.72393203125006 65.9152,236.18600000000004 65.9152,236.18600000000004 66.09108515625,234.66372402343754 66.55683124999999,233.2489171875 67.28066171875,231.97183613281254 68.2308,230.86273750000004 69.37546953125,229.95187792968756 70.68289375,229.26951406250004 72.12129609375,228.84590253906254 73.6589,228.71130000000002 73.6589,228.71130000000002 75.19084746093749,228.89506835937502 76.61249218750001,229.364434375 77.8936126953125,230.08862695312502 79.0039875,231.036875 79.91339511718749,232.17840742187502 80.5916140625,233.482453125 81.0084228515625,234.918241015625 81.1336,236.455" fill="none" stroke="black" stroke-width="0.1" id="_new_698_1"/>
        <polygon points="81.1336,236.455 80.94986035156249,237.98694746093753 80.48050781250001,239.4085921875 79.7563169921875,240.6897126953125 78.8080625,241.80008750000002 77.6665189453125,242.70949511718752 76.3624609375,243.38771406250004 74.9266630859375,243.80452285156252 73.3899,243.92970000000003 73.3899,243.92970000000003 71.85823964843749,243.75414296875002 70.43672968749999,243.28863125 69.15562675781248,242.56494140625003 68.0451875,241.61485000000002 67.1356685546875,240.47013359375 66.45732656249999,239.16256875000005 66.0404181640625,237.72393203125006 65.9152,236.18600000000004 65.9152,236.18600000000004 66.09108515625,234.66372402343754 66.55683124999999,233.2489171875 67.28066171875,231.97183613281254 68.2308,230.86273750000004 69.37546953125,229.95187792968756 70.68289375,229.26951406250004 72.12129609375,228.84590253906254 73.6589,228.71130000000002 73.6589,228.71130000000002 75.19084746093749,228.89506835937502 76.61249218750001,229.364434375 77.8936126953125,230.08862695312502 79.0039875,231.036875 79.91339511718749,232.17840742187502 80.5916140625,233.482453125 81.0084228515625,234.918241015625 81.1336,236.455" fill="none" stroke="black" stroke-width="0.1" id="_new_699_1"/>
        <polygon points="81.1243,236.72 80.8871826171875,238.2445775390625 80.3684859375,239.6489640625 79.6000181640625,240.9040279296875 78.61358750000001,241.9806375 77.4410021484375,242.8496611328125 76.11407031250002,243.4819671875 74.6646001953125,243.8484240234375 73.12440000000001,243.9199 73.12440000000001,243.9199 71.59982656250001,243.69099804687502 70.19545000000001,243.176165625 68.94039843750001,242.408212890625 67.8638,241.41995000000003 66.9947828125,240.24418710937502 66.36247500000002,238.91373437500002 65.9960046875,237.46140195312503 65.92450000000001,235.92000000000002 65.92450000000001,235.92000000000002 66.15340605468751,234.4048068359375 66.66824843750001,233.0071234375 67.4362134765625,231.75608144531253 68.42448750000001,230.6808125 69.6002568359375,229.8104482421875 70.9307078125,229.1741203125 72.3830267578125,228.8009603515625 73.9244,228.7201 73.9244,228.7201 75.44897753906251,228.9572173828125 76.85336406250002,229.4759140625 78.10842792968751,230.24438183593753 79.18503749999999,231.2308125 80.0540611328125,232.4033978515625 80.6863671875,233.73032968750002 81.0528240234375,235.1797998046875 81.1243,236.72" fill="none" stroke="black" stroke-width="0.1" id="_new_700_1"/>
        <polygon points="77.844,236.398 77.7354765625,237.27161582031252 77.46584375,238.0791578125 77.0526328125,238.8046052734375 76.513375,239.4319375 75.86560156249999,239.9451337890625 75.12684374999998,240.3281734375 74.3146328125,240.5650357421875 73.4465,240.6397 73.4465,240.6397 72.58142363281249,240.540241015625 71.7779703125,240.27715312499998 71.0531662109375,239.867932421875 70.4240375,239.330075 69.9076103515625,238.681076953125 69.5209109375,237.938434375 69.28096542968751,237.119643359375 69.2048,236.2422 69.2048,236.2422 69.30426093750002,235.3771794921875 69.5673625,234.5741171875 69.9766203125,233.8503744140625 70.51455000000001,233.2233125 71.16366718750001,232.71029277343752 71.9064875,232.3286765625 72.7255265625,232.0958251953125 73.6033,232.0291 73.6033,232.0291 74.46837441406251,232.1284990234375 75.2718140625,232.39118593749998 75.99658105468751,232.79933300781252 76.62563750000001,233.3351125 77.14194550781251,233.9806966796875 77.52846718750001,234.71825781249998 77.7681646484375,235.5299681640625 77.84400000000001,236.398" fill="none" stroke="black" stroke-width="0.1" id="_new_701_1"/>
        <polygon points="77.844,236.398 77.7354765625,237.27161582031252 77.46584375,238.0791578125 77.0526328125,238.8046052734375 76.513375,239.4319375 75.86560156249999,239.9451337890625 75.12684374999998,240.3281734375 74.3146328125,240.5650357421875 73.4465,240.6397 73.4465,240.6397 72.58142363281249,240.540241015625 71.7779703125,240.27715312499998 71.0531662109375,239.867932421875 70.4240375,239.330075 69.9076103515625,238.681076953125 69.5209109375,237.938434375 69.28096542968751,237.119643359375 69.2048,236.2422 69.2048,236.2422 69.30426093750002,235.3771794921875 69.5673625,234.5741171875 69.9766203125,233.8503744140625 70.51455000000001,233.2233125 71.16366718750001,232.71029277343752 71.9064875,232.3286765625 72.7255265625,232.0958251953125 73.6033,232.0291 73.6033,232.0291 74.46837441406251,232.1284990234375 75.2718140625,232.39118593749998 75.99658105468751,232.79933300781252 76.62563750000001,233.3351125 77.14194550781251,233.9806966796875 77.52846718750001,234.71825781249998 77.7681646484375,235.5299681640625 77.84400000000001,236.398" fill="none" stroke="black" stroke-width="0.1" id="_new_702_1"/>
        <polygon points="77.8391,236.549 77.70016679687501,237.4183037109375 77.40252187500002,238.2159484375 76.964247265625,238.92653457031253 76.403425,239.53466250000002 75.738137109375,240.02493261718752 74.986465625,240.38194531250002 74.166492578125,240.5903009765625 73.2963,240.6346 73.2963,240.6346 72.43520761718752,240.50505136718752 71.6414171875,240.2141109375 70.9313337890625,239.7798619140625 70.32136249999999,239.22038750000002 69.8279083984375,238.5537708984375 69.4673765625,237.7980953125 69.25617207031252,236.9714439453125 69.2107,236.0919 69.2107,236.0919 69.3402775390625,235.2308591796875 69.6312328125,234.43744843750002 70.06548730468751,233.72841035156253 70.6249625,233.12048750000002 71.2915798828125,232.63042246093752 72.0472609375,232.27495781250002 72.8739271484375,232.0708361328125 73.7535,232.03480000000002 73.7535,232.03480000000002 74.61459238281249,232.16432167968753 75.40838281250001,232.45488593750002 76.1184662109375,232.88807910156248 76.72843750000001,233.4454875 77.2218916015625,234.10869746093752 77.58242343750001,234.85929531250002 77.79362792968749,235.6788673828125 77.8391,236.549" fill="none" stroke="black" stroke-width="0.1" id="_new_703_1"/>
        <polygon points="78.9363,192.362 79.488755078125,192.96278535156247 80.122090625,193.4431453125 80.81766210937501,193.8255107421875 81.556825,194.1323125 82.32093476562501,194.38598144531252 83.09134687500001,194.60894843750003 83.849416796875,194.8236443359375 84.57650000000001,195.0525 84.57650000000001,195.0525 85.30883437500002,195.28706328125003 86.11804375,195.48778750000002 86.97421250000002,195.63259921875002 87.84742500000002,195.69942500000002 88.70776562500001,195.66619140625002 89.52531875000001,195.510825 90.27016875,195.21125234375003 90.9124,194.74540000000002 90.9124,194.74540000000002 91.441554296875,194.19223535156252 91.868565625,193.63995781250003 92.195494140625,193.08045449218753 92.4244,192.5056125 92.557343359375,191.9073189453125 92.59638437500001,191.27746093750002 92.54358320312501,190.60792558593752 92.40100000000001,189.8906 92.40100000000001,189.8906 92.22052988281251,189.1301486328125 92.0541890625,188.3517828125 91.90410683593751,187.5782099609375 91.7724125,186.8321375 91.66123535156251,186.1362728515625 91.5727046875,185.5133234375 91.50894980468752,184.9859966796875 91.47210000000001,184.577 91.47210000000001,184.577 91.39216308593751,183.792509375 91.23006718750001,182.92913749999997 90.96187207031252,182.039984375 90.56363750000001,181.17815 90.0114232421875,180.396734375 89.28128906250002,179.7488375 88.34929472656252,179.287559375 87.19150000000002,179.066 87.19150000000002,179.066 86.65239003906252,179.08494101562502 86.09462031250003,179.212409375 85.52791855468752,179.44873554687499 84.96201250000001,179.79425 84.40662988281251,180.249283203125 83.87149843750001,180.81416562500002 83.36634589843753,181.489227734375 82.90090000000002,182.2748 82.90090000000002,182.2748 82.55968906250003,182.915937109375 82.16780625000001,183.640921875 81.73766406250002,184.421514453125 81.28167500000004,185.229475 80.81225156250002,186.03656367187497 80.34180625000002,186.81454062499998 79.88275156250002,187.53516601562498 79.44750000000002,188.1702 79.44750000000002,188.1702 79.14247324218752,188.60528183593752 78.85764843750002,189.0721484375 78.61737128906252,189.56760644531252 78.44598750000002,190.0884625 78.36784277343752,190.6315232421875 78.40728281250001,191.1935953125 78.58865332031252,191.7714853515625 78.93630000000002,192.362" fill="none" stroke="black" stroke-width="0.1" id="_new_704_1"/>
        <polygon points="78.9363,192.362 79.488755078125,192.96278535156247 80.122090625,193.4431453125 80.81766210937501,193.8255107421875 81.556825,194.1323125 82.32093476562501,194.38598144531252 83.09134687500001,194.60894843750003 83.849416796875,194.8236443359375 84.57650000000001,195.0525 84.57650000000001,195.0525 85.30883437500002,195.28706328125003 86.11804375,195.48778750000002 86.97421250000002,195.63259921875002 87.84742500000002,195.69942500000002 88.70776562500001,195.66619140625002 89.52531875000001,195.510825 90.27016875,195.21125234375003 90.9124,194.74540000000002 90.9124,194.74540000000002 91.441554296875,194.19223535156252 91.868565625,193.63995781250003 92.195494140625,193.08045449218753 92.4244,192.5056125 92.557343359375,191.9073189453125 92.59638437500001,191.27746093750002 92.54358320312501,190.60792558593752 92.40100000000001,189.8906 92.40100000000001,189.8906 92.22052988281251,189.1301486328125 92.0541890625,188.3517828125 91.90410683593751,187.5782099609375 91.7724125,186.8321375 91.66123535156251,186.1362728515625 91.5727046875,185.5133234375 91.50894980468752,184.9859966796875 91.47210000000001,184.577 91.47210000000001,184.577 91.39216308593751,183.792509375 91.23006718750001,182.92913749999997 90.96187207031252,182.039984375 90.56363750000001,181.17815 90.0114232421875,180.396734375 89.28128906250002,179.7488375 88.34929472656252,179.287559375 87.19150000000002,179.066 87.19150000000002,179.066 86.65239003906252,179.08494101562502 86.09462031250003,179.212409375 85.52791855468752,179.44873554687499 84.96201250000001,179.79425 84.40662988281251,180.249283203125 83.87149843750001,180.81416562500002 83.36634589843753,181.489227734375 82.90090000000002,182.2748 82.90090000000002,182.2748 82.55968906250003,182.915937109375 82.16780625000001,183.640921875 81.73766406250002,184.421514453125 81.28167500000004,185.229475 80.81225156250002,186.03656367187497 80.34180625000002,186.81454062499998 79.88275156250002,187.53516601562498 79.44750000000002,188.1702 79.44750000000002,188.1702 79.14247324218752,188.60528183593752 78.85764843750002,189.0721484375 78.61737128906252,189.56760644531252 78.44598750000002,190.0884625 78.36784277343752,190.6315232421875 78.40728281250001,191.1935953125 78.58865332031252,191.7714853515625 78.93630000000002,192.362" fill="none" stroke="black" stroke-width="0.1" id="_new_705_1"/>
        <polygon points="78.9363,192.362 79.488755078125,192.96278535156247 80.122090625,193.4431453125 80.81766210937501,193.8255107421875 81.556825,194.1323125 82.32093476562501,194.38598144531252 83.09134687500001,194.60894843750003 83.849416796875,194.8236443359375 84.57650000000001,195.0525 84.57650000000001,195.0525 85.30883437500002,195.28706328125003 86.11804375,195.48778750000002 86.97421250000002,195.63259921875002 87.84742500000002,195.69942500000002 88.70776562500001,195.66619140625002 89.52531875000001,195.510825 90.27016875,195.21125234375003 90.9124,194.74540000000002 90.9124,194.74540000000002 91.441554296875,194.19223535156252 91.868565625,193.63995781250003 92.195494140625,193.08045449218753 92.4244,192.5056125 92.557343359375,191.9073189453125 92.59638437500001,191.27746093750002 92.54358320312501,190.60792558593752 92.40100000000001,189.8906 92.40100000000001,189.8906 92.22052988281251,189.1301486328125 92.0541890625,188.3517828125 91.90410683593751,187.5782099609375 91.7724125,186.8321375 91.66123535156251,186.1362728515625 91.5727046875,185.5133234375 91.50894980468752,184.9859966796875 91.47210000000001,184.577 91.47210000000001,184.577 91.39216308593751,183.792509375 91.23006718750001,182.92913749999997 90.96187207031252,182.039984375 90.56363750000001,181.17815 90.0114232421875,180.396734375 89.28128906250002,179.7488375 88.34929472656252,179.287559375 87.19150000000002,179.066 87.19150000000002,179.066 86.65239003906252,179.08494101562502 86.09462031250003,179.212409375 85.52791855468752,179.44873554687499 84.96201250000001,179.79425 84.40662988281251,180.249283203125 83.87149843750001,180.81416562500002 83.36634589843753,181.489227734375 82.90090000000002,182.2748 82.90090000000002,182.2748 82.55968906250003,182.915937109375 82.16780625000001,183.640921875 81.73766406250002,184.421514453125 81.28167500000004,185.229475 80.81225156250002,186.03656367187497 80.34180625000002,186.81454062499998 79.88275156250002,187.53516601562498 79.44750000000002,188.1702 79.44750000000002,188.1702 79.14247324218752,188.60528183593752 78.85764843750002,189.0721484375 78.61737128906252,189.56760644531252 78.44598750000002,190.0884625 78.36784277343752,190.6315232421875 78.40728281250001,191.1935953125 78.58865332031252,191.7714853515625 78.93630000000002,192.362" fill="none" stroke="black" stroke-width="0.1" id="_new_706_1"/>
        <polygon points="107.2,203.525 107.185905859375,203.9212544921875 107.111959375,204.3303234375 106.938876953125,204.7401775390625 106.627375,205.13878749999998 106.138169921875,205.5141240234375 105.431978125,205.8541578125 104.469516015625,206.14685957031247 103.2115,206.3802 103.2115,206.3802 101.76179140625001,206.5665421875 100.257225,206.71695 98.74015234375,206.8162078125 97.252925,206.8491 95.83789453125,206.80041093749998 94.5374125,206.654925 93.39383046875,206.3974265625 92.4495,206.0127 92.4495,206.0127 91.73757890625,205.5302228515625 91.23928125,205.0248765625 90.91780546875,204.5173763671875 90.73635,204.0284375 90.65811328125,203.5787751953125 90.64629375000001,203.1891046875 90.66408984374999,202.8801412109375 90.6747,202.6726 90.6747,202.6726 90.71906660156249,202.32811640625 90.8712515625,201.67499374999997 91.1763076171875,200.83293671874998 91.6792875,199.92164999999997 92.4252439453125,199.06083828125 93.4592296875,198.37020625 94.82629746093751,197.96945859374998 96.5715,197.9783 96.5715,197.9783 98.2310421875,198.277830078125 100.01445625,198.766671875 101.81252343749999,199.406427734375 103.516025,200.1587 105.0157421875,200.985091015625 106.20245625,201.84720312499996 106.96694843750001,202.70663867187497 107.2,203.52499999999998" fill="none" stroke="black" stroke-width="0.1" id="_new_707_1"/>
        <polygon points="107.2,203.525 107.185905859375,203.9212544921875 107.111959375,204.3303234375 106.938876953125,204.7401775390625 106.627375,205.13878749999998 106.138169921875,205.5141240234375 105.431978125,205.8541578125 104.469516015625,206.14685957031247 103.2115,206.3802 103.2115,206.3802 101.76179140625001,206.5665421875 100.257225,206.71695 98.74015234375,206.8162078125 97.252925,206.8491 95.83789453125,206.80041093749998 94.5374125,206.654925 93.39383046875,206.3974265625 92.4495,206.0127 92.4495,206.0127 91.73757890625,205.5302228515625 91.23928125,205.0248765625 90.91780546875,204.5173763671875 90.73635,204.0284375 90.65811328125,203.5787751953125 90.64629375000001,203.1891046875 90.66408984374999,202.8801412109375 90.6747,202.6726 90.6747,202.6726 90.71906660156249,202.32811640625 90.8712515625,201.67499374999997 91.1763076171875,200.83293671874998 91.6792875,199.92164999999997 92.4252439453125,199.06083828125 93.4592296875,198.37020625 94.82629746093751,197.96945859374998 96.5715,197.9783 96.5715,197.9783 98.2310421875,198.277830078125 100.01445625,198.766671875 101.81252343749999,199.406427734375 103.516025,200.1587 105.0157421875,200.985091015625 106.20245625,201.84720312499996 106.96694843750001,202.70663867187497 107.2,203.52499999999998" fill="none" stroke="black" stroke-width="0.1" id="_new_708_1"/>
        <polygon points="107.2,203.525 107.185905859375,203.9212544921875 107.111959375,204.3303234375 106.938876953125,204.7401775390625 106.627375,205.13878749999998 106.138169921875,205.5141240234375 105.431978125,205.8541578125 104.469516015625,206.14685957031247 103.2115,206.3802 103.2115,206.3802 101.76179140625001,206.5665421875 100.257225,206.71695 98.74015234375,206.8162078125 97.252925,206.8491 95.83789453125,206.80041093749998 94.5374125,206.654925 93.39383046875,206.3974265625 92.4495,206.0127 92.4495,206.0127 91.73757890625,205.5302228515625 91.23928125,205.0248765625 90.91780546875,204.5173763671875 90.73635,204.0284375 90.65811328125,203.5787751953125 90.64629375000001,203.1891046875 90.66408984374999,202.8801412109375 90.6747,202.6726 90.6747,202.6726 90.71906660156249,202.32811640625 90.8712515625,201.67499374999997 91.1763076171875,200.83293671874998 91.6792875,199.92164999999997 92.4252439453125,199.06083828125 93.4592296875,198.37020625 94.82629746093751,197.96945859374998 96.5715,197.9783 96.5715,197.9783 98.2310421875,198.277830078125 100.01445625,198.766671875 101.81252343749999,199.406427734375 103.516025,200.1587 105.0157421875,200.985091015625 106.20245625,201.84720312499996 106.96694843750001,202.70663867187497 107.2,203.52499999999998" fill="none" stroke="black" stroke-width="0.1" id="_new_709_1"/>
        <polygon points="61.9255,211.095 61.5602,211.1929 61.3074,210.24960000000002 62.1708,210.0183 62.213372656249994,210.0458541015625 62.25596875,210.07752031250004 62.29859296875,210.1133044921875 62.34125,210.1532125 62.38394453125,210.1972501953125 62.42668125000001,210.2454234375 62.46946484375,210.29773808593754 62.5123,210.35420000000002 62.5123,210.35420000000002 62.553436523437504,210.41322031250002 62.591492187499995,210.47328125000004 62.6264611328125,210.53438281250004 62.6583375,210.59652500000004 62.6871154296875,210.65970781250002 62.71278906250001,210.72393125000002 62.7353525390625,210.78919531250003 62.7548,210.8555 62.7548,210.8555 62.775008007812495,210.9397154296875 62.7900328125,211.02241093749998 62.79987558593751,211.10358535156251 62.8045375,211.18323750000002 62.8040197265625,211.26136621093752 62.7983234375,211.33797031250003 62.787449804687505,211.41304863281252 62.7714,211.4866 62.7714,211.4866 62.75015,211.55793046875 62.72404375000001,211.62635 62.693071875,211.69186328125 62.657225000000004,211.754475 62.616493750000004,211.81418984375 62.57086875,211.8710125 62.520340625,211.92494765625003 62.4649,211.976 62.4649,211.976 62.405756640625,212.02380859374998 62.344121875,212.06801249999998 62.279988671875,212.10861640624998 62.21335,212.145625 62.144198828125,212.17904296875 62.072528125,212.20887499999998 61.998330859375,212.23512578125 61.9216,212.2578 61.9216,212.2578 61.837596874999996,212.277948046875 61.754718749999995,212.293021875 61.672975,212.303028515625 61.59237499999999,212.307975 61.512928124999995,212.307868359375 61.43464374999999,212.30271562500002 61.357531249999994,212.29252382812498 61.2816,212.2773 61.2816,212.2773 61.207730664062495,212.256765234375 61.1365765625,212.23114687499998 61.068143554687495,212.200423828125 61.0024375,212.164575 60.939464257812496,212.123579296875 60.8792296875,212.07741562500001 60.82173964843749,212.02606289062498 60.766999999999996,211.9695 60.766999999999996,211.9695 60.727249218749996,211.92263046875001 60.69004375,211.87165 60.65537890625,211.81656328125 60.62325,211.75737500000002 60.593652343749994,211.69408984375002 60.56658125,211.6267125 60.542032031249995,211.55524765625 60.519999999999996,211.4797 60.519999999999996,211.4797 60.4963466796875,211.38086171875 60.479460937499994,211.28610625 60.46934160156249,211.19544765625 60.4659875,211.1089 60.46939746093749,211.02647734375 60.47957031249999,210.94819375 60.49650488281249,210.87406328125002 60.520199999999996,210.8041 60.520199999999996,210.8041 60.550045703125,210.73792578125 60.58528437499999,210.67575 60.625918359375,210.61756796875 60.671949999999995,210.563375 60.72338164062499,210.51316640625 60.780215625,210.4669375 60.842454296875,210.42468359375 60.91009999999999,210.3864 61.10779999999999,210.7991 61.07238242187499,210.82231249999998 61.03970937499999,210.84747500000003 61.009787890624985,210.87458750000002 60.982624999999985,210.90365000000003 60.958227734374994,210.9346625 60.93660312499999,210.967625 60.91775820312499,211.00253750000002 60.90169999999999,211.0394 60.90169999999999,211.0394 60.888809960937486,211.07772070312498 60.879317187499986,211.117234375 60.87322519531249,211.157943359375 60.87053749999999,211.19984999999997 60.87125761718749,211.24295664062498 60.87538906249999,211.287265625 60.88293535156249,211.332779296875 60.89389999999999,211.3795 60.89389999999999,211.3795 60.91548144531248,211.44859921875 60.94175156249999,211.5125 60.97271152343749,211.57120703125 61.00836249999999,211.624725 61.04870566406249,211.67305859375 61.093742187499984,211.7162125 61.14347324218749,211.75419140625002 61.19789999999999,211.787 61.19789999999999,211.787 61.25687089843749,211.81375703125002 61.319867187499995,211.83373125 61.38690175781249,211.84692734375 61.45798749999999,211.85335 61.533137304687486,211.85300390625 61.61236406249999,211.84589375000002 61.695680664062486,211.83202421875004 61.78309999999999,211.81140000000002 61.78309999999999,211.81140000000002 61.87573691406249,211.7837203125 61.9609640625,211.75228125000004 62.03876855468749,211.71708281250002 62.10913749999999,211.67812500000002 62.17205800781249,211.63540781250003 62.227517187499984,211.58893125000003 62.27550214843749,211.53869531250004 62.31599999999999,211.48470000000003 62.31599999999999,211.48470000000003 62.34931503906249,211.42814160156254 62.37568906249999,211.36984531250005 62.39512792968749,211.30981699218754 62.40763749999999,211.2480625 62.41322363281249,211.18458769531253 62.41189218749999,211.11939843750005 62.40364902343748,211.05250058593754 62.388499999999986,210.98390000000003 62.388499999999986,210.98390000000003 62.37839394531249,210.9496701171875 62.36660156249999,210.91589843750003 62.35312402343749,210.88257441406253 62.33796249999999,210.84968750000002 62.32111816406249,210.81722714843755 62.30259218749998,210.78518281250004 62.282385742187486,210.75354394531252 62.260499999999986,210.72230000000005 62.260499999999986,210.72230000000005 62.23762773437499,210.69216464843757 62.21432187499999,210.66341093750006 62.19059882812499,210.63604238281255 62.16647499999999,210.61006250000005 62.14196679687499,210.58547480468755 62.11709062499998,210.56228281250003 62.09186289062498,210.54049003906255 62.066299999999984,210.52010000000004 61.79119999999998,210.59390000000005 61.925499999999985,211.09500000000006" fill="none" stroke="black" stroke-width="0.1" id="_new_710_1"/>
        <polygon points="62.46819999999998,209.52200000000005 62.04049999999998,209.56690000000006 61.99559999999998,209.13930000000005 62.42319999999998,209.09440000000004 62.46819999999998,209.52200000000005" fill="none" stroke="black" stroke-width="0.1" id="_new_710_2"/>
        <polygon points="62.39289999999998,208.67420000000004 60.14879999999998,208.67420000000004 60.14879999999998,207.94750000000005 60.14934238281248,207.84871191406256 60.15096406249998,207.75890156250006 60.15365683593748,207.67807480468755 60.15741249999998,207.60623750000005 60.162222851562476,207.54339550781256 60.16807968749998,207.48955468750006 60.17497480468748,207.44472089843754 60.18289999999998,207.40890000000005 60.18289999999998,207.40890000000005 60.197257226562485,207.36160468750006 60.21535156249998,207.31625000000005 60.23717949218748,207.27284531250004 60.262737499999986,207.23140000000006 60.29202207031248,207.19192343750004 60.32502968749998,207.15442500000006 60.361756835937484,207.11891406250007 60.40219999999998,207.08540000000005 60.40219999999998,207.08540000000005 60.44607441406249,207.05488886718754 60.49302031249998,207.02845468750004 60.54303417968748,207.00609628906255 60.596112499999975,206.98781250000005 60.65225175781248,206.97360214843755 60.71144843749998,206.96346406250004 60.77369902343748,206.95739707031257 60.83899999999998,206.95540000000005 60.83899999999998,206.95540000000005 60.889689062499976,206.95656796875005 60.93832499999998,206.96007500000005 60.98489843749998,206.96592578125006 61.02939999999998,206.97412500000007 61.07182031249997,206.98467734375004 61.11214999999998,206.99758750000007 61.15037968749998,207.01286015625007 61.186499999999974,207.03050000000005 61.186499999999974,207.03050000000005 61.22082402343747,207.04993671875005 61.253229687499974,207.07060625000005 61.28372988281247,207.09252265625003 61.31233749999998,207.11570000000006 61.33906542968747,207.14015234375003 61.36392656249998,207.16589375000004 61.386933789062475,207.19293828125006 61.408099999999976,207.22130000000004 61.408099999999976,207.22130000000004 61.42721914062498,207.25017363281256 61.444671874999976,207.27918906250005 61.46045117187498,207.30833808593752 61.47454999999998,207.33761250000003 61.48696132812498,207.36700410156254 61.49767812499998,207.39650468750006 61.50669335937497,207.42610605468752 61.513999999999974,207.45580000000004 61.513999999999974,207.45580000000004 61.52154042968748,207.49862421875002 61.528104687499976,207.54601875000006 61.533682226562476,207.59797890625003 61.53826249999997,207.65450000000004 61.54183496093748,207.71557734375006 61.544389062499974,207.78120625000005 61.54591425781247,207.85138203125004 61.54639999999998,207.92610000000005 61.54639999999998,208.22130000000004 62.392899999999976,208.22120000000004 62.392899999999976,208.67420000000004" fill="none" stroke="black" stroke-width="0.1" id="_new_710_3"/>
        <polygon points="60.528599999999976,208.22130000000004 61.16499999999998,208.22130000000004 61.16509999999998,207.97360000000003 61.164526953124984,207.90935429687505 61.16287812499998,207.85064687500005 61.16014648437498,207.79748476562503 61.15632499999998,207.74987500000003 61.151406640624984,207.70782460937505 61.145384374999985,207.67134062500003 61.138251171874984,207.64043007812504 61.12999999999998,207.61510000000004 61.12999999999998,207.61510000000004 61.12057675781248,207.59320859375003 61.10992656249998,207.57253125000005 61.09804121093748,207.55306328125002 61.08491249999999,207.53480000000002 61.070532226562484,207.51773671875006 61.05489218749998,207.50186875000003 61.037984179687484,207.48719140625005 61.01979999999998,207.47370000000004 61.01979999999998,207.47370000000004 61.00061249999998,207.46170527343753 60.980693749999986,207.45129843750004 60.960034374999985,207.44248300781254 60.93862499999999,207.43526250000002 60.91645624999998,207.42964042968754 60.893518749999984,207.42562031250006 60.869803124999976,207.42320566406255 60.84529999999998,207.42240000000004 60.84529999999998,207.42240000000004 60.81537382812498,207.42352929687505 60.78679062499998,207.42691562500005 60.75954335937498,207.43255664062502 60.733624999999975,207.44045000000006 60.70902851562498,207.45059335937503 60.68574687499998,207.46298437500005 60.66377304687498,207.47762070312504 60.64309999999998,207.49450000000004 60.64309999999998,207.49450000000004 60.624243945312486,207.51294707031252 60.607207812499986,207.53265156250004 60.59200214843748,207.55359589843755 60.578637499999985,207.57576250000005 60.567124414062484,207.59913378906253 60.557473437499986,207.62369218750007 60.549695117187476,207.64942011718753 60.54379999999998,207.67630000000005 60.54379999999998,207.67630000000005 60.540132421874986,207.69921640625006 60.53699687499998,207.72723750000006 60.534381640624986,207.76035859375006 60.532274999999984,207.79857500000003 60.53066523437498,207.84188203125007 60.52954062499999,207.89027500000003 60.52888945312499,207.94374921875004 60.528699999999986,208.00230000000005 60.52859999999998,208.22130000000004" fill="none" stroke="black" stroke-width="0.1" id="_new_710_4"/>
        <polygon points="62.41409999999998,206.98480000000004 61.986499999999985,206.93980000000005 62.03149999999999,206.51220000000004 62.459099999999985,206.55720000000002 62.41409999999998,206.98480000000004" fill="none" stroke="black" stroke-width="0.1" id="_new_710_5"/>
        <polygon points="62.54799999999998,205.79940000000005 60.24119999999998,205.77610000000004 60.353299999999976,205.32640000000004 61.93069999999997,205.37080000000003 60.53439999999998,204.60010000000003 60.664699999999975,204.07730000000004 62.28079999999998,204.07480000000004 60.843199999999975,203.36150000000004 60.95349999999998,202.91900000000004 62.99909999999998,203.99060000000003 62.882799999999975,204.45700000000002 61.146899999999974,204.48460000000003 62.66689999999998,205.32290000000003 62.54799999999997,205.79940000000002" fill="none" stroke="black" stroke-width="0.1" id="_new_710_6"/>
        <polygon points="63.331899999999976,203.2853 61.31489999999997,202.3016 61.51349999999997,201.8945 63.53039999999997,202.8782 63.33189999999997,203.2853" fill="none" stroke="black" stroke-width="0.1" id="_new_710_7"/>
        <polygon points="63.70349999999997,202.4758 61.79569999999997,201.3295 62.02909999999997,200.9411 63.61249999999997,201.89260000000002 64.19279999999996,200.92710000000002 64.51699999999997,201.1219 63.70349999999997,202.47580000000002" fill="none" stroke="black" stroke-width="0.1" id="_new_710_8"/>
        <polygon points="64.06139999999996,200.44490000000002 64.32419999999996,200.08820000000003 64.37160996093746,200.11591796875 64.41799218749995,200.13922500000004 64.46335019531246,200.15812578125002 64.50768749999996,200.17262500000004 64.55100761718747,200.18272734375003 64.59331406249996,200.18843750000005 64.63461035156247,200.18976015625006 64.67489999999997,200.18670000000003 64.67489999999997,200.18670000000003 64.71416152343747,200.1793951171875 64.75281718749997,200.16797343750002 64.79086113281247,200.15242441406255 64.82828749999996,200.13273750000005 64.86509042968747,200.10890214843752 64.90126406249996,200.08090781250002 64.93680253906247,200.04874394531254 64.97169999999997,200.01240000000004 64.97169999999997,200.01240000000004 65.00610468749998,199.97202714843752 65.03611249999997,199.93221093750003 65.06171406249996,199.89295488281252 65.08289999999997,199.85426250000003 65.09966093749996,199.81613730468754 65.11198749999997,199.77858281250002 65.11987031249997,199.7416025390625 65.12329999999997,199.70520000000005 65.12329999999997,199.70520000000005 65.12319707031247,199.67001132812504 65.12003906249998,199.63674687500003 65.11382714843748,199.60540898437506 65.10456249999996,199.57600000000005 65.09224628906247,199.54852226562505 65.07687968749997,199.52297812500007 65.05846386718747,199.49936992187503 65.03699999999998,199.47770000000006 65.03699999999998,199.47770000000006 65.02194765624998,199.46515156250007 65.00648749999998,199.45420625000006 64.99061484374998,199.44486406250005 64.97432499999998,199.43712500000004 64.95761328124999,199.4309890625001 64.94047499999998,199.42645625000006 64.92290546874999,199.42352656250006 64.90489999999998,199.42220000000006 64.90489999999998,199.42220000000006 64.88612187499999,199.4223179687501 64.86623749999998,199.42440000000005 64.84524687499999,199.42845078125006 64.82315,199.43447500000008 64.79994687499999,199.44247734375008 64.77563749999999,199.45246250000005 64.750221875,199.46443515625006 64.72369999999998,199.47840000000005 64.72369999999998,199.47840000000005 64.70259199218748,199.49033125000005 64.67624218749998,199.50616250000007 64.64464941406247,199.52587500000004 64.60781249999998,199.54945000000004 64.56573027343748,199.57686875000005 64.51840156249997,199.60811250000003 64.46582519531248,199.64316250000002 64.40799999999997,199.68200000000004 64.40799999999997,199.68200000000004 64.33208671874998,199.73167421875004 64.25974999999997,199.77540000000005 64.19099453124997,199.81318203125005 64.12582499999998,199.84502500000002 64.06424609374997,199.87093359375004 64.00626249999998,199.89091250000004 63.95187890624997,199.90496640625003 63.90109999999997,199.91310000000004 63.90109999999997,199.91310000000004 63.833323242187475,199.91737148437502 63.76799218749997,199.91511562500003 63.70510566406247,199.90633945312504 63.64466249999997,199.89105000000004 63.58666152343747,199.86925429687503 63.53110156249997,199.84095937500004 63.47798144531247,199.80617226562504 63.427299999999974,199.76490000000004 63.427299999999974,199.76490000000004 63.39667929687498,199.73528828125004 63.36863437499998,199.70390000000003 63.34315351562498,199.67073046875004 63.32022499999998,199.63577500000002 63.29983710937497,199.59902890625003 63.28197812499998,199.56048750000005 63.266636328124974,199.52014609375004 63.25379999999998,199.47800000000004 63.25379999999998,199.47800000000004 63.244086718749976,199.4347673828125 63.23781874999998,199.39102031250005 63.234991406249975,199.34675996093753 63.23559999999998,199.30198750000002 63.23963984374998,199.25670410156255 63.24710624999998,199.21091093750005 63.25799453124998,199.16460917968755 63.27229999999998,199.11780000000005 63.27229999999998,199.11780000000005 63.290208203124976,199.07071816406255 63.31146562499998,199.0235203125 63.33608398437498,198.97620292968753 63.36407499999998,198.92876250000003 63.39545039062498,198.88119550781255 63.43022187499998,198.83349843750005 63.46840117187497,198.78566777343755 63.50999999999998,198.73770000000005 63.50999999999998,198.73770000000005 63.58069921874997,198.66341953125004 63.651281249999975,198.59791875000008 63.72176015624998,198.54118359375005 63.79214999999998,198.49320000000006 63.862464843749976,198.45395390625006 63.932718749999985,198.42343125000008 64.00292578124998,198.40161796875006 64.07309999999998,198.38850000000005 64.07309999999998,198.38850000000005 64.14254570312498,198.38360800781254 64.21063437499998,198.38596406250008 64.27736835937499,198.39557871093754 64.34274999999998,198.41246250000006 64.40678164062498,198.43662597656257 64.46946562499997,198.46807968750005 64.53080429687498,198.50683417968756 64.59079999999999,198.55290000000005 64.30239999999999,198.90280000000004 64.26583964843749,198.88104121093755 64.23011718749999,198.86286718750006 64.19524550781249,198.84828144531255 64.1612375,198.83728750000006 64.12810605468749,198.82988886718755 64.0958640625,198.82608906250005 64.06452441406249,198.82589160156255 64.0341,198.82930000000005 64.0341,198.82930000000005 64.0038748046875,198.83624121093754 63.973423437499996,198.84701093750004 63.942744726562495,198.86160332031255 63.9118375,198.88001250000002 63.8807005859375,198.90223261718754 63.849332812499995,198.92825781250002 63.81773300781249,198.95808222656254 63.7859,198.99170000000004 63.7859,198.99170000000004 63.754675195312494,199.02825839843752 63.7270890625,199.06451093750005 63.7031615234375,199.10046113281254 63.6829125,199.13611250000002 63.666361914062506,199.17146855468755 63.6535296875,199.20653281250003 63.6444357421875,199.24130878906254 63.6391,199.27580000000003 63.6391,199.27580000000003 63.637833593749995,199.29738554687503 63.63890625,199.31804062500004 63.64231328125,199.33776289062504 63.64805,199.35655000000003 63.65611171875,199.37439960937502 63.66649375,199.39130937500002 63.67919140625,199.40727695312503 63.6942,199.42230000000004 63.6942,199.42230000000004 63.709419531250006,199.43466054687502 63.725525000000005,199.44496562500004 63.74251171875,199.45321289062503 63.760374999999996,199.45940000000004 63.77911015625,199.463524609375 63.7987125,199.46558437500005 63.81917734375,199.46557695312504 63.8405,199.46350000000004 63.8405,199.46350000000004 63.8708505859375,199.45691464843756 63.9064734375,199.44473593750004 63.9473626953125,199.42696738281253 63.993512499999994,199.40361250000004 64.0449169921875,199.37467480468752 64.1015703125,199.34015781250002 64.16346660156249,199.30006503906256 64.2306,199.25440000000003 64.2306,199.25440000000003 64.29874726562501,199.20808691406256 64.363390625,199.16589531250003 64.424532421875,199.12782167968754 64.48217500000001,199.09386250000006 64.536320703125,199.06401425781254 64.586971875,199.03827343750004 64.63413085937499,199.01663652343754 64.67779999999999,198.99910000000003 64.67779999999999,198.99910000000003 64.71984453124999,198.985084375 64.7618375,198.97393750000003 64.80379296874999,198.96565937500003 64.84572499999999,198.96025000000003 64.88764765625,198.95770937500004 64.92957499999999,198.95803750000005 64.97152109375,198.96123437500003 65.0135,198.96730000000002 65.0135,198.96730000000002 65.055237109375,198.97672656250003 65.096671875,198.98963125 65.13780195312499,199.00601406250001 65.178625,199.02587500000004 65.21913867187499,199.04921406250003 65.259340625,199.07603125000003 65.299228515625,199.10632656250002 65.33879999999999,199.14010000000002 65.33879999999999,199.14010000000002 65.37325585937499,199.17334277343753 65.40491562499999,199.20856718750002 65.433767578125,199.24576738281252 65.4598,199.2849375 65.48300117187499,199.32607167968752 65.503359375,199.36916406250003 65.520862890625,199.4142087890625 65.5355,199.46120000000002 65.5355,199.46120000000002 65.54692695312501,199.5094630859375 65.554503125,199.55795468750003 65.558221484375,199.6066783203125 65.558075,199.6556375 65.55405664062499,199.70483574218753 65.546159375,199.7542765625 65.534376171875,199.80396347656253 65.5187,199.8539 65.5187,199.8539 65.49924374999999,199.9043 65.47583124999998,199.95522499999998 65.448471875,200.006675 65.417175,200.05865 65.38195,200.11115 65.34280625,200.164175 65.299753125,200.21772500000003 65.2528,200.2718 65.2528,200.2718 65.18140917968749,200.34651289062504 65.1095859375,200.412546875 65.03732910156249,200.46989492187504 64.9646375,200.51855 64.8915099609375,200.55850507812502 64.8179453125,200.58975312500002 64.7439423828125,200.612287109375 64.6695,200.6261 64.6695,200.6261 64.594594921875,200.6315416015625 64.51935937500001,200.62896406250002 64.443800390625,200.6183638671875 64.36792500000001,200.5997375 64.29174023437501,200.57308144531254 64.215253125,200.5383921875 64.13847070312501,200.49566621093751 64.0614,200.44490000000002" fill="none" stroke="black" stroke-width="0.1" id="_new_710_9"/>
        <polygon points="65.34700000000001,198.43400000000003 65.29767851562501,198.36591289062503 65.25299062500001,198.29867187500003 65.21293867187501,198.232269921875 65.177525,198.16670000000002 65.146751953125,198.10195507812503 65.12062187500001,198.038028125 65.09913710937501,197.974912109375 65.0823,197.91260000000003 65.0823,197.91260000000003 65.07294140625,197.8668185546875 65.065575,197.8208296875 65.06021484375,197.77464160156254 65.056875,197.72826250000003 65.05556953125,197.6817005859375 65.0563125,197.63496406250002 65.05911796875,197.58806113281253 65.06400000000001,197.54100000000003 65.06400000000001,197.54100000000003 65.07102792968752,197.49463671875003 65.0799671875,197.44952500000002 65.0908259765625,197.40566953125 65.10361250000001,197.36307500000004 65.11833496093752,197.32174609375002 65.13500156250001,197.28168750000003 65.1536205078125,197.24290390625 65.17420000000001,197.20540000000003 65.17420000000001,197.20540000000003 65.20433632812501,197.15651601562504 65.23774687500001,197.10870312500003 65.27443398437501,197.06194492187504 65.3144,197.01622500000002 65.357647265625,196.97152695312502 65.404178125,196.92783437500003 65.45399492187501,196.885130859375 65.50710000000001,196.84340000000003 65.50710000000001,196.84340000000003 65.60654667968751,196.77447558593752 65.70681718750001,196.71695468750002 65.8079197265625,196.67084082031252 65.9098625,196.63613750000002 66.01265371093751,196.61284824218754 66.11630156250001,196.60097656250005 66.22081425781252,196.60052597656255 66.32620000000001,196.61150000000004 66.32620000000001,196.61150000000004 66.43042617187501,196.63384902343756 66.53175312500002,196.66781718750002 66.63017851562502,196.71339863281253 66.72570000000002,196.77058750000003 66.81831523437502,196.83937792968752 66.908021875,196.91976406250004 66.99481757812502,197.01174003906254 67.07870000000001,197.11530000000005 67.07870000000001,197.11530000000005 67.15461699218751,197.22371347656255 67.21865468750002,197.33175781250006 67.27083066406252,197.43943886718753 67.31116250000001,197.54676250000006 67.33966777343751,197.65373457031254 67.3563640625,197.76036093750005 67.36126894531252,197.86664746093757 67.35440000000001,197.97260000000006 67.35440000000001,197.97260000000006 67.33614667968752,198.07626230468756 67.30718593750001,198.17604218750006 67.26751660156252,198.27192910156256 67.2171375,198.36391250000005 67.1560474609375,198.45198183593754 67.08424531250002,198.53612656250004 67.00172988281251,198.61633613281253 66.90850000000002,198.69260000000006 66.90850000000002,198.69260000000006 66.80818300781252,198.76222460937507 66.70725781250002,198.82035312500005 66.6057255859375,198.86699257812506 66.50358750000002,198.90215000000006 66.40084472656251,198.92583242187507 66.29749843750002,198.93804687500005 66.1935498046875,198.93880039062506 66.08900000000001,198.92810000000006 66.08900000000001,198.92810000000006 65.98556542968751,198.90589296875007 65.88518593750001,198.87235625000005 65.78786035156251,198.82750390625006 65.6935875,198.77135000000004 65.6023662109375,198.70390859375004 65.51419531250001,198.62519375000005 65.4290736328125,198.53521953125005 65.34700000000001,198.43400000000005" fill="none" stroke="black" stroke-width="0.1" id="_new_710_10"/>
        <polygon points="65.71050000000001,198.14110000000005 65.7682849609375,198.21319843750004 65.82702968750002,198.27739375000007 65.88671894531251,198.33368593750006 65.9473375,198.38207500000004 66.00887011718751,198.42256093750007 66.0713015625,198.45514375000005 66.13461660156251,198.47982343750007 66.1988,198.49660000000006 66.1988,198.49660000000006 66.2629501953125,198.50602773437507 66.32573281250001,198.50874062500003 66.3871583984375,198.50474570312505 66.44723750000001,198.49405000000004 66.5059806640625,198.47666054687505 66.56339843750001,198.45258437500004 66.6195013671875,198.42182851562507 66.6743,198.38440000000006 66.6743,198.38440000000006 66.7252744140625,198.34218789062504 66.77018906250001,198.29692187500007 66.80903105468751,198.24859492187505 66.84178750000001,198.19720000000007 66.8684455078125,198.14273007812506 66.88899218750001,198.08517812500006 66.90341464843749,198.02453710937505 66.9117,197.96080000000006 66.9117,197.96080000000006 66.912964453125,197.8949687500001 66.906253125,197.82752500000007 66.891558984375,197.75846875000008 66.868875,197.68780000000007 66.83819414062499,197.61551875000006 66.79950937499999,197.54162500000007 66.752813671875,197.46611875000008 66.6981,197.38900000000007 66.6981,197.38900000000007 66.63981621093748,197.31605117187507 66.58099218749999,197.25117187500007 66.5216314453125,197.1943503906251 66.46173749999998,197.14557500000006 66.4013138671875,197.10483398437506 66.34036406249999,197.07211562500007 66.2788916015625,197.0474082031251 66.2169,197.03070000000005 66.2169,197.03070000000005 66.1549365234375,197.02170800781255 66.09377343749999,197.01955156250006 66.0334142578125,197.02422246093755 65.9738625,197.03571250000005 65.91512167968749,197.05401347656257 65.8571953125,197.07911718750006 65.80008691406249,197.11101542968754 65.7438,197.14970000000005 65.7438,197.14970000000005 65.6909564453125,197.19326523437508 65.64447031249999,197.23958437500005 65.60433339843749,197.28865507812506 65.57053749999999,197.34047500000003 65.54307441406249,197.39504179687503 65.52193593749999,197.45235312500006 65.50711386718748,197.51240664062504 65.4986,197.57520000000005 65.4986,197.57520000000005 65.4973568359375,197.64008457031258 65.5039921875,197.70663906250005 65.5185283203125,197.77486464843756 65.5409875,197.84476250000006 65.5713919921875,197.91633378906255 65.60976406249999,197.98957968750005 65.65612597656249,198.06450136718757 65.7105,198.14110000000005" fill="none" stroke="black" stroke-width="0.1" id="_new_710_11"/>
        <polygon points="68.0295,197.75800000000004 67.0458,195.74110000000005 67.4422,195.54790000000006 68.9246,196.49190000000004 68.2677,195.14520000000005 68.64620000000001,194.96060000000006 69.63000000000001,196.97750000000005 69.22090000000001,197.17700000000005 67.76650000000001,196.25820000000004 68.408,197.57350000000005 68.0295,197.75800000000007" fill="none" stroke="black" stroke-width="0.1" id="_new_710_12"/>
    </g>
    <circle cx="74.4111" cy="207.746" r="4" fill="none" stroke="black" stroke-width="0.1" id="center_00"/>
</svg>
