<?xml version="1.0" encoding="UTF-8"?>
<!DOCTYPE svg PUBLIC "-//W3C//DTD SVG 1.1//EN" "http://www.w3.org/Graphics/SVG/1.1/DTD/svg11.dtd">
<!-- Creator: CorelDRAW -->
<svg xmlns="http://www.w3.org/2000/svg" xml:space="preserve" width="297mm" height="210mm" style="shape-rendering:geometricPrecision; text-rendering:geometricPrecision; image-rendering:optimizeQuality; fill-rule:evenodd; clip-rule:evenodd"
viewBox="0 0 297 210">
 <defs>
  <style type="text/css">
   <![CDATA[
    .fil1 {fill:#DA251D}
    .fil0 {fill:white}
   ]]>
  </style>
 </defs>
 <g id="Ebene_x0020_1">
  <metadata id="CorelCorpID_0Corel-Layer"/>
  <g id="_130495856">
   <path id="_153806536" class="fil0" d="M186.096 73.3784l0 -8.1936c0,-5.2786 4.2807,-9.5593 9.5592,-9.5593l13.6561 0 0 -5.4624 -13.6561 0c-8.2948,0 -15.0216,6.7268 -15.0216,15.0217l0 8.1936c0,8.2948 6.7268,15.0216 15.0216,15.0216l21.8497 0 0 -5.4624 -21.8497 0c-5.2785,0 -9.5592,-4.2807 -9.5592,-9.5592z"/>
   <path id="_153073168" class="fil0" d="M280.062 73.3784l0 -8.1936c0,-5.2786 -4.4846,-9.5593 -10.0145,-9.5593l-8.8439 0 0 21.8497 -5.4624 0 0 -27.3121 14.3063 0c8.6899,0 15.737,6.7268 15.737,15.0217l0 8.1936c0,8.2948 -7.0471,15.0216 -15.737,15.0216l-25.2312 0 0 -5.4624 25.2312 0c5.5299,0 10.0145,-4.2807 10.0145,-9.5592z"/>
   <path id="_153075216" class="fil0" d="M222.967 77.4752l0 -13.656c0,-5.2786 4.2807,-9.5593 9.5593,-9.5593 5.2785,0 9.5592,4.2807 9.5592,9.5593l0 8.1936 0 5.4624 0 10.9248 5.4624 0 0 -24.5808c0,-8.2949 -6.7268,-15.0217 -15.0216,-15.0217 -8.2949,0 -15.0217,6.7268 -15.0217,15.0217l0 24.5808 5.4624 0 0 -5.4624 13.6561 0 0 -5.4624 -13.6561 0z"/>
   <g>
    <path id="_152100832" class="fil0" d="M67.2881 88.4l-2.7312 0 -50.5274 0 0 -15.0216c0,-8.2948 6.7268,-15.0217 15.0216,-15.0217 8.2949,0 15.0217,6.7269 15.0217,15.0217l-5.4624 0c0,-5.2785 -4.2807,-9.5592 -9.5593,-9.5592 -5.2785,0 -9.5592,4.2807 -9.5592,9.5592l0 9.5592 72.3771 0 0 -19.1184 -6.8281 0 0 -5.4625 6.8281 0 0 -8.1936 5.5143 0 0 8.1936 10.8729 0 0 -8.1936 5.4624 0 0 8.1936 10.9249 0 0 -5.4624 5.4624 0 0 12.2905 0 8.1936c0,5.2785 4.2807,9.5592 9.5592,9.5592l6.1657 0c-2.1454,-2.5974 -3.4345,-5.9281 -3.4345,-9.5592 0,-8.2948 6.7269,-15.0217 15.0217,-15.0217 8.2948,0 15.0216,6.7269 15.0216,15.0217l0.068 2.714 -2.7312 0 -1.3656 0 -15.0217 0 0 -5.4624 13.1861 0c-1.181,-3.9392 -4.834,-6.8108 -9.1572,-6.8108 -5.2785,0 -9.5592,4.2807 -9.5592,9.5592 0,5.2785 4.2807,9.5592 9.5592,9.5592l15.0216 0 0 5.4624 -9.5592 0 -5.4624 0 -17.7529 0c-8.2948,0 -15.0216,-6.7268 -15.0216,-15.0216l0 -9.5592 -10.9249 0 0 24.5808 -5.4624 0 0 -24.5808 -10.8729 0 0 24.5148 -2.7571 0 -27.3486 0.06 0.0105 0.006z"/>
    <path id="_130496056" class="fil1" d="M79.5785 82.9376l0.0131 5.4294 -15.0347 0.033c-8.2948,0 -15.0217,-6.7268 -15.0217,-15.0216 0,-8.2948 6.7269,-15.0217 15.0217,-15.0217 3.6311,0 6.9618,1.2893 9.5592,3.4347l0 -3.4347 5.4624 0 0 15.0217 0 1.3656 0 2.7312 -5.4624 0 0 -2.7312 0 -1.3656c0,-5.2785 -4.2807,-9.5592 -9.5592,-9.5592 -5.2786,0 -9.5593,4.2807 -9.5593,9.5592 0,5.2785 4.2807,9.5592 9.5593,9.5592l15.0216 0z"/>
    <polygon id="_130495936" class="fil1" points="64.5569,82.9376 91.869,82.9376 91.869,88.4 64.5569,88.4 "/>
   </g>
  </g>
 </g>
</svg>
