<!DOCTYPE svg PUBLIC "-//W3C//DTD SVG 1.1//EN" "http://www.w3.org/Graphics/SVG/1.1/DTD/svg11.dtd">
<svg xmlns="http://www.w3.org/2000/svg" width="297mm" height="210mm" viewBox="0 0 297 210">
    <defs id="_tag_17_"/>
    <g id="_tag_18_">
        <g id="_tag_19_">
            <polyline id="_203360568___0___0" class="fil0 str0" points="65.116,-28.7622 65.955,-28.6592 66.80499999999999,-28.353199999999998 67.083,-28.211199999999998 67.361,-28.054199999999998 67.65100000000001,-27.8772 67.92900000000002,-27.6972 68.20700000000002,-27.507199999999997 68.48300000000002,-27.306199999999997 69.56400000000002,-26.3802 70.46700000000003,-25.3522 71.19300000000003,-24.2202 71.74100000000003,-22.986199999999997" fill="none" stroke="black" stroke-width="0.1"/>
        </g>
        <line id="_203360592" x1="35.5061" y1="-28.3052" x2="35.5061" y2="169.87" stroke="black" stroke-width="0.1"/>
        <polygon id="_203360616_1" points="36.5061,-58.229 37.9061,-58.829 69.4331,-58.829 66.0704,-54.3873 64.0576,-55.629 35.2061,-55.629 35.2061,-55.829 36.1061,-56.629 36.5062,-56.629 36.3855,-56.6412 36.273,-56.6763 36.1711,-56.7317 36.0823,-56.8051 36.0089,-56.8939 35.9535,-56.9958 35.9184,-57.1083 35.9062,-57.229 35.9062,-57.229 35.9184,-57.3497 35.9535,-57.4622 36.0089,-57.5641 36.0823,-57.6529 36.1711,-57.7263 36.273,-57.7817 36.3855,-57.8168 36.5062,-57.829" fill="none" stroke="black" stroke-width="0.1"/>
        <g id="_203361048_1_1">
            <polyline id="_203361048_1___0" class="fil1 str0" points="65.397,-58.229 61.782300000000006,-58.229 58.17040000000001,-58.229 54.56040000000001,-58.229 50.95140000000001,-58.229 47.34250000000001,-58.229 43.73250000000001,-58.229 40.12060000000001,-58.229 36.50590000000001,-58.229" fill="none" stroke="black" stroke-width="0.1"/>
            <polyline id="_203360376_1___0" class="fil1 str0" points="64.931,-57.829 61.372899999999994,-57.829 57.81909999999999,-57.829 54.26809999999999,-57.829 50.71849999999999,-57.829 47.168899999999994,-57.829 43.61789999999999,-57.829 40.06409999999999,-57.829 36.505999999999986,-57.829" fill="none" stroke="black" stroke-width="0.1"/>
            <polyline id="_203362296_1___0" class="fil1 str0" points="62.999,-56.629 59.6847,-56.629 56.3727,-56.629 53.0621,-56.629 49.7524,-56.629 46.4427,-56.629 43.1321,-56.629 39.820100000000004,-56.629 36.5058,-56.629" fill="none" stroke="black" stroke-width="0.1"/>
            <polyline id="_203361960_1___0" class="fil1 str0" points="60.636,-55.8292 57.4737,-55.8292 54.3091,-55.8292 51.1429,-55.8292 47.975899999999996,-55.8292 44.808899999999994,-55.8292 41.64269999999999,-55.8292 38.47809999999999,-55.8292 35.31589999999999,-55.8292 35.20649999999999,-55.8292" fill="none" stroke="black" stroke-width="0.1"/>
        </g>
        <polygon id="_203362200___0_1" class="fil2 str0" points="32.5062,-54.6297 32.5062,-37.9543 32.5082,-37.877100000000006 32.513600000000004,-37.798300000000005 32.5223,-37.718500000000006 32.5342,-37.63850000000001 32.548899999999996,-37.559000000000005 32.566199999999995,-37.4804 32.586099999999995,-37.403600000000004 32.60829999999999,-37.329100000000004 35.40429999999999,-28.929500000000004 35.42669999999999,-28.855200000000004 35.44669999999999,-28.778500000000005 35.464099999999995,-28.700100000000006 35.47879999999999,-28.620600000000007 35.49049999999999,-28.540700000000008 35.49899999999999,-28.46110000000001 35.504299999999986,-28.382400000000008 35.505999999999986,-28.305200000000006 35.506599999999985,279.8708 71.50659999999999,279.8708 71.50599999999999,-13.431200000000047 71.50599999999999,-13.431500000000046 71.61899999999999,-14.946800000000046 71.86929999999998,-16.128600000000045 97.06019999999998,-108.00080000000005 97.29619999999998,-108.86230000000006 97.34049999999999,-109.03540000000007 97.3809,-109.21790000000007 97.41669999999999,-109.40770000000008 97.4473,-109.60260000000008 97.4722,-109.80020000000007 97.4907,-109.99840000000007 97.50240000000001,-110.19490000000008 97.5065,-110.38740000000007 97.5066,-110.63650000000007 97.5064,-110.76460000000007 97.5064,-110.76460000000007 97.5068,-110.77070000000008 97.4771,-111.36310000000007 97.3962,-111.94370000000008 97.2821,-112.43800000000007 97.1313,-112.92050000000008 96.98129999999999,-113.30360000000007 96.81429999999999,-113.66610000000007 96.67089999999999,-113.94310000000007 96.5148,-114.21240000000007 96.29799999999999,-114.54500000000007 96.05709999999999,-114.87480000000008 95.71159999999999,-115.28570000000008 95.33239999999999,-115.67160000000008 94.82759999999999,-116.10490000000009 94.2841,-116.48900000000009 93.6182,-116.8641000000001 92.9081,-117.1686000000001 86.1649,-119.4100000000001 86.1529,-119.4138000000001 86.1408,-119.41710000000009 86.12859999999999,-119.42000000000009 86.1163,-119.42270000000009 86.104,-119.42510000000009 86.0916,-119.42730000000009 86.0791,-119.42940000000009 86.0667,-119.43150000000009 86.0667,-119.43150000000009 86.06,-119.43260000000008 86.0528,-119.43340000000008 86.04530000000001,-119.43410000000007 86.03750000000001,-119.43470000000008 86.02950000000001,-119.43510000000008 86.0216,-119.43540000000007 86.0138,-119.43560000000008 86.0062,-119.43580000000009 86.0062,-119.43580000000009 85.90570000000001,-119.42560000000009 85.81200000000001,-119.39630000000008 85.72710000000001,-119.35010000000008 85.653,-119.28900000000009 85.59190000000001,-119.21490000000009 85.54580000000001,-119.13000000000008 85.51660000000001,-119.03630000000008 85.5066,-118.93580000000009 85.5064,-118.83960000000009 85.5063,-110.43760000000009 85.50529999999999,-110.39470000000009 85.50219999999999,-110.35110000000009 85.49709999999999,-110.30710000000009 85.49029999999999,-110.26300000000009 85.48179999999999,-110.21930000000009 85.47179999999999,-110.17640000000009 85.46039999999999,-110.13450000000009 85.44779999999999,-110.09410000000008 85.40409999999999,-110.00240000000008 85.33869999999999,-109.88940000000008 85.258,-109.78410000000008 85.1638,-109.68920000000008 85.06009999999999,-109.60930000000009 84.9477,-109.54370000000009 84.8343,-109.49500000000009 84.7164,-109.46020000000009 78.901,-108.21400000000008 78.82209999999999,-108.19060000000009 78.74889999999999,-108.15450000000008 78.6783,-108.10480000000008 78.6171,-108.04170000000008 78.5684,-107.96980000000008 78.5321,-107.89060000000008 78.5117,-107.81220000000008 78.504,-107.72960000000008 78.4852,-107.04160000000007 78.4148,-106.18490000000007 78.2915,-105.31410000000007 78.0754,-104.27230000000007 77.7186,-103.04500000000007 77.7186,-103.04500000000007 77.1903,-101.69800000000008 76.43849999999999,-100.02330000000008 75.61429999999999,-98.18740000000008 74.72319999999999,-96.20330000000008 73.77109999999999,-94.08260000000008 72.7636,-91.83860000000008 71.7077,-89.48640000000009 68.5064,-82.35610000000008 68.5067,-63.27920000000009 67.99629999999999,-61.978400000000086 67.61789999999999,-61.131400000000085 67.28779999999999,-60.543900000000086 66.7212,-59.675300000000085 65.7783,-58.578800000000086 65.1095,-57.964700000000086 64.3545,-57.39120000000008 63.5154,-56.87190000000008 62.3698,-56.33190000000008 61.2326,-55.95900000000008 60.379599999999996,-55.77400000000008 59.52869999999999,-55.66430000000008 58.686499999999995,-55.62920000000008 55.52909999999999,-55.62940000000008 52.37169999999999,-55.629500000000085 49.21429999999999,-55.629500000000085 46.05679999999999,-55.629500000000085 42.899399999999986,-55.629500000000085 39.74189999999999,-55.629500000000085 36.584499999999984,-55.629500000000085 33.506199999999986,-55.629700000000085 33.30468945312498,-55.609380078125085 33.116990624999985,-55.55110312500008 32.94712773437499,-55.45889335937508 32.79912499999999,-55.33677500000009 32.67700664062499,-55.18877226562508 32.58479687499999,-55.018909375000085 32.526519921874986,-54.831210546875084 32.506199999999986,-54.629700000000085" fill="none" stroke="black" stroke-width="0.1"/>
        <polyline id="_203362200___1" points="71.5934,-71.152 68.5369,-63.3567" fill="none" stroke="black" stroke-width="0.1"/>
        <polyline id="_203361912_1___0" class="fil0 str0" points="35.4511,-37.3212 63.9552,-37.3212 64.3352,-37.340999999999994 64.7123,-37.397299999999994 65.0855,-37.48539999999999 65.4541,-37.60059999999999 65.817,-37.73819999999999 66.17349999999999,-37.89349999999999 66.5226,-38.06179999999999 66.8635,-38.23849999999999 68.81830000000001,-39.27999999999999 70.82320000000001,-40.10939999999999 73.43420000000002,-40.91359999999999 76.09580000000003,-41.50329999999999" fill="none" stroke="black" stroke-width="0.1"/>
        <line id="_203361984" x1="37.4951" y1="-28.7622" x2="65.116" y2="-28.7622" stroke="black" stroke-width="0.1"/>
        <line id="_203361144" x1="71.593" y1="-71.152" x2="84.333" y2="-103.637" stroke="black" stroke-width="0.1"/>
        <g id="_tag_20_">
            <polyline id="_203361720___0___0" class="fil0 str0" points="84.333,-103.637 84.89699999999999,-105.3343 85.25999999999999,-106.9602" fill="none" stroke="black" stroke-width="0.1"/>
            <polyline id="_203361120___0___0" class="fil0 str0" points="85.26,-106.96 85.44600000000001,-108.4203 85.50600000000001,-109.8432" fill="none" stroke="black" stroke-width="0.1"/>
        </g>
        <g id="_tag_21_">
            <polygon id="simplify_55___0" points="38.5061,291.871 35.5061,279.871 65.8906,279.871 66.3758,279.499 67.1956,279.038 67.9648,278.793 68.6943,278.743 69.3286,278.872 69.3286,256.428 70.0328,255.98 70.0328,255.98 70.6073,255.235 70.9107,254.585 71.1543,253.806 71.3357,252.896 71.4877,250.341 71.5061,250.055 71.7148,250.773 71.7148,250.773 72.254,252.05 72.9561,253.279 73.7931,254.404 74.2654,254.931 74.5151,255.186 74.6433,255.311 74.6756,255.342 74.7082,255.373 74.7562,255.418 74.7682,255.43 74.774,255.435 75.492,256.105 76.2755,256.835 76.9126,257.429 97.455,276.58 98.6985,277.858 99.799,279.264 100.75,280.781 101.543,282.389 102.173,284.07 102.631,285.807 102.911,287.58 103.006,289.371 103.006,289.371 102.759,292.284 102.042,295.063 100.894,297.659 99.3515,300.027 97.4538,302.117 95.2384,303.884 92.7432,305.279 90.0061,306.257 90.0061,306.257 90.0061,304.146 90.0061,302.035 90.0061,299.925 90.0061,297.814 90.0061,295.703 90.0061,293.592 90.0061,291.482 90.0061,289.371 90.0061,289.371 89.9144,288.466 89.6515,287.622 89.2358,286.858 88.6855,286.192 88.0191,285.641 87.2548,285.226 86.4111,284.963 85.5061,284.871 85.5061,284.871 84.6011,284.963 83.7574,285.226 82.9931,285.641 82.3267,286.192 81.7764,286.858 81.3607,287.622 81.0978,288.466 81.0061,289.371 81.0061,305.104 81.0061,305.765 81.0002,306.269 80.5028,306.124 79.9937,305.958 79.4798,305.775 78.9681,305.577 78.4656,305.369 77.9793,305.153 77.5161,304.933 77.083,304.712 59.0287,294.879 57.8832,294.255 56.8605,293.698 55.1668,292.908 53.388,292.335 51.5517,291.987 49.6865,291.871 49.1991,291.871" fill="none" stroke="black" stroke-width="0.1"/>
            <polyline id="simplify_55___1___0" class="fil3 str0" points="35.5061,279.871 38.5061,291.871" fill="none" stroke="black" stroke-width="0.1"/>
            <polygon id="simplify_55___2" points="35.5061,279.871 35.5061,279.871" fill="none" stroke="black" stroke-width="0.1"/>
        </g>
        <g id="_tag_22_">
            <polyline id="_234171264___0___0" class="fil0 str0" points="65.339,291.871 64.17099999999999,291.871 43.34599999999999,291.871" fill="none" stroke="black" stroke-width="0.1"/>
            <polyline id="_234172224___0___0" class="fil0 str0" points="65.339,291.871 66.752,291.974 67.85799999999999,292.279 68.57699999999998,292.727 69.16099999999999,293.46999999999997" fill="none" stroke="black" stroke-width="0.1"/>
            <line id="_234171792" x1="96.066" y1="301.27" x2="95.506" y2="302.324" stroke="black" stroke-width="0.1"/>
            <polyline id="_234171816_1___0" class="fil0 str0" points="89.725,305.159 90.45169999999999,304.9439 91.1882,304.6846 91.9262,304.3849 92.6574,304.0484 93.3736,303.67900000000003 94.0666,303.2803 94.72819999999999,302.8562 95.34999999999998,302.4104" fill="none" stroke="black" stroke-width="0.1"/>
            <polyline id="_234172152___0___0" class="fil0 str0" points="96.066,289.371 96.066,301.27" fill="none" stroke="black" stroke-width="0.1"/>
            <polyline id="_234172152___1___0" class="fil0 str0" points="96.066,289.371 96.0565,288.96349999999995 96.0284,288.54749999999996 95.98270000000001,288.12609999999995 95.92020000000001,287.7022999999999 95.84160000000001,287.2792999999999 95.74780000000001,286.8599999999999 95.63960000000002,286.4475999999999 95.51790000000001,286.0451999999999 94.81990000000002,284.3872999999999 93.89770000000001,282.92079999999993 92.89370000000001,281.73849999999993 91.7459,280.6893999999999 90.491,279.7924999999999 88.9323,278.9508999999999 87.295,278.3106999999999 85.6314,277.86829999999986 83.9872,277.61149999999986 82.3638,277.50919999999985 80.7877,277.53789999999987 78.6727,277.75599999999986 76.6787,278.1091999999999 74.81880000000001,278.51029999999986 73.10610000000001,278.87239999999986 71.71660000000001,279.0769999999999 70.44810000000001,279.0972999999999 69.3285,278.8719999999999" fill="none" stroke="black" stroke-width="0.1"/>
            <polyline id="_234172152___2___0" class="fil0 str0" points="69.3285,278.872 68.69420000000001,278.7427 67.96470000000001,278.79310000000004 67.19550000000001,279.03790000000004 66.37570000000001,279.49910000000006 65.8905,279.87110000000007" fill="none" stroke="black" stroke-width="0.1"/>
            <polyline id="_234172152___3___0" class="fil0 str0" points="65.2624,289.371 64.8243,288.4223 64.51299999999999,287.2749 64.3599,286.0749 64.3551,284.7868 64.5264,283.37440000000004 64.90289999999999,281.92780000000005 65.32609999999998,280.87860000000006 65.89049999999999,279.87100000000004" fill="none" stroke="black" stroke-width="0.1"/>
            <polyline id="_234172152___4___0" class="fil0 str0" points="65.2624,289.371 65.5877,289.86769999999996 65.9395,290.27959999999996 66.79419999999999,290.97589999999997 67.50769999999999,291.61879999999996 68.11769999999999,292.23479999999995 68.66149999999999,292.85029999999995 69.17699999999999,293.4915 69.7015,294.18489999999997 70.2727,294.95689999999996 70.9282,295.83379999999994 75.506,302.55799999999994 77.6299,303.71539999999993 78.00540000000001,303.91919999999993 78.4,304.1175999999999 78.8101,304.3089999999999 79.2321,304.4912999999999 79.6624,304.6629999999999 80.09750000000001,304.8219999999999 80.53380000000001,304.96679999999986 80.96770000000001,305.09529999999984" fill="none" stroke="black" stroke-width="0.1"/>
            <polyline id="_234171864_1___0" class="fil0 str0" points="96.08,301.247 97.2676,300.06710000000004 98.3218,298.7721 99.235,297.3761 99.9994,295.89300000000003 100.6073,294.33700000000005 101.05109999999999,292.72190000000006 101.323,291.06190000000004 101.41539999999999,289.37080000000003 101.41539999999999,289.37080000000003 101.3291,287.74230000000006 101.0744,286.13050000000004 100.65769999999999,284.552 100.0855,283.02340000000004 99.3641,281.56160000000006 98.4999,280.18300000000005 97.4994,278.90450000000004 96.369,277.7427 95.5063,276.9432 93.4667,275.0847 91.4367,273.3218 89.4258,271.6629 87.4435,270.1157 85.499,268.6875 83.6015,267.385 81.7599,266.2143 79.9829,265.1809 78.2788,264.2896 76.6556,263.54470000000003 75.07440000000001,262.75730000000004 73.62720000000002,261.79380000000003 72.31410000000001,260.6541 71.17150000000001,259.3804 70.174,257.9615 69.3288,256.4276" fill="none" stroke="black" stroke-width="0.1"/>
            <polyline id="_234172272_1___0" class="fil0 str0" points="95.506,302.324 95.506,289.3714 95.3022,287.3603 94.718,285.4852 93.7942,283.7868 92.5714,282.3059 91.09049999999999,281.0831 89.39209999999999,280.15930000000003 87.51699999999998,279.5751 85.50599999999999,279.3713 85.50599999999999,279.3713 83.49499999999999,279.5751 81.61989999999999,280.15930000000003 79.92149999999998,281.08310000000006 78.44059999999998,282.30590000000007 77.21779999999997,283.7868000000001 76.29399999999997,285.4852000000001 75.70979999999997,287.36030000000005 75.50599999999997,289.37140000000005 75.50599999999997,302.55840000000006" fill="none" stroke="black" stroke-width="0.1"/>
        </g>
        <g id="_203303024___0_1">
            <polyline id="_203303024___0___0" class="fil0 str0" points="68.161,-60.1128 67.357,-58.8568 66.383,-57.7268 65.259,-56.745799999999996 64.006,-55.934799999999996 62.802,-55.37779999999999 61.545,-54.97279999999999 60.193000000000005,-54.715799999999994 58.813,-54.629799999999996 33.3489,-54.629799999999996" fill="none" stroke="black" stroke-width="0.1"/>
        </g>
        <polygon id="center_00" cx="85.506" cy="289.371" points="88.6308,289.371 88.61368201864678,289.69763054201877 88.56251562277299,290.02068245146734 88.47786140211909,290.3366163040228 88.3606468460416,290.64197066228326 88.21215618174561,290.9334 88.03401630402284,291.2077113563635 87.82817895065176,291.4618993187501 87.59689931875016,291.69317895065177 87.34271135636352,291.89901630402284 87.0684,292.0771561817456 86.77697066228326,292.22564684604157 86.47161630402283,292.34286140211907 86.15568245146733,292.427515622773 85.83263054201876,292.47868201864674 85.506,292.4958 85.17936945798124,292.47868201864674 84.85631754853267,292.427515622773 84.54038369597717,292.34286140211907 84.23502933771674,292.22564684604157 83.9436,292.0771561817456 83.66928864363648,291.89901630402284 83.41510068124984,291.69317895065177 83.18382104934824,291.46189931875017 82.97798369597716,291.2077113563635 82.79984381825439,290.9334 82.6513531539584,290.64197066228326 82.53413859788091,290.3366163040228 82.44948437722701,290.02068245146734 82.39831798135322,289.69763054201877 82.3812,289.371 82.39831798135322,289.0443694579812 82.44948437722701,288.7213175485326 82.5341385978809,288.40538369597715 82.6513531539584,288.1000293377167 82.79984381825439,287.80859999999996 82.97798369597716,287.53428864363644 83.18382104934824,287.28010068124985 83.41510068124984,287.04882104934825 83.66928864363648,286.8429836959771 83.9436,286.6648438182544 84.23502933771674,286.5163531539584 84.54038369597717,286.3991385978809 84.85631754853266,286.31448437722696 85.17936945798124,286.2633179813532 85.506,286.2462 85.83263054201876,286.2633179813532 86.15568245146733,286.31448437722696 86.47161630402283,286.3991385978809 86.77697066228326,286.5163531539584 87.0684,286.6648438182544 87.34271135636352,286.8429836959771 87.59689931875016,287.0488210493482 87.82817895065176,287.2801006812498 88.03401630402284,287.53428864363644 88.21215618174561,287.80859999999996 88.3606468460416,288.1000293377167 88.47786140211909,288.40538369597715 88.56251562277299,288.7213175485326 88.61368201864678,289.0443694579812" fill="none" stroke="black" stroke-width="0.1"/>
    </g>
</svg>
