<!DOCTYPE svg PUBLIC "-//W3C//DTD SVG 1.1//EN" "http://www.w3.org/Graphics/SVG/1.1/DTD/svg11.dtd">
<svg xmlns="http://www.w3.org/2000/svg" width="297mm" height="210mm" viewBox="0 0 297 210">
    <defs id="_tag_60_"/>
    <g id="_tag_61_">
        <g id="_tag_62_">
            <polygon id="_203309736_1" points="31.7075,-1.2447 33.1075,-1.8447 64.6345,-1.8447 61.2718,2.597 59.259,1.3553 30.4075,1.3553 30.4075,1.1553 31.3075,0.3553 31.7076,0.3553 31.5869,0.3431 31.4744,0.308 31.3725,0.2526 31.2837,0.1792 31.2103,0.0904 31.1549,-0.0115 31.1198,-0.124 31.1076,-0.2447 31.1076,-0.2447 31.1198,-0.3654 31.1549,-0.4779 31.2103,-0.5798 31.2837,-0.6686 31.3725,-0.742 31.4744,-0.7974 31.5869,-0.8325 31.7076,-0.8447" fill="none" stroke="black" stroke-width="0.1"/>
            <polyline id="_203310216_1___0" class="fil0 str0" points="60.599,-1.2447 56.9843,-1.2447 53.3724,-1.2447 49.7624,-1.2447 46.1534,-1.2447 42.5445,-1.2447 38.9345,-1.2447 35.3226,-1.2447 31.707900000000002,-1.2447" fill="none" stroke="black" stroke-width="0.1"/>
            <polyline id="_203309832_1___0" class="fil0 str0" points="60.132,-0.8447 56.573899999999995,-0.8447 53.02009999999999,-0.8447 49.46909999999999,-0.8447 45.91949999999999,-0.8447 42.369899999999994,-0.8447 38.81889999999999,-0.8447 35.26509999999999,-0.8447 31.70699999999999,-0.8447" fill="none" stroke="black" stroke-width="0.1"/>
            <polyline id="_203309784_1___0" class="fil0 str0" points="58.201,0.3553 54.8867,0.3553 51.5747,0.3553 48.2641,0.3553 44.9544,0.3553 41.6447,0.3553 38.3341,0.3553 35.0221,0.3553 31.707800000000002,0.3553" fill="none" stroke="black" stroke-width="0.1"/>
            <polygon id="_203309784_1___1" class="fil0 str0" points="58.20100000000001,0.3553" fill="none" stroke="black" stroke-width="0.1"/>
            <polyline id="_203309808_1___0" class="fil0 str0" points="55.8375,1.1553 52.6752,1.1553 49.5106,1.1553 46.34439999999999,1.1553 43.17739999999999,1.1553 40.01039999999999,1.1553 36.84419999999999,1.1553 33.679599999999986,1.1553 30.517399999999988,1.1553 30.407999999999987,1.1553" fill="none" stroke="black" stroke-width="0.1"/>
        </g>
        <polygon id="_203311248___0_1" class="fil1 str0" points="27.7082,2.3547 27.7082,19.0302 27.7102,19.107400000000002 27.715600000000002,19.186200000000003 27.724300000000003,19.266000000000002 27.736200000000004,19.346 27.750900000000005,19.4255 27.768200000000004,19.5041 27.788100000000004,19.5809 27.810300000000005,19.6554 30.606300000000005,28.055 30.628700000000006,28.1293 30.648700000000005,28.206 30.666100000000004,28.284399999999998 30.680800000000005,28.363899999999997 30.692500000000006,28.443799999999996 30.701000000000008,28.523399999999995 30.706300000000006,28.602099999999997 30.708000000000006,28.679299999999998 30.708600000000004,276.8553 66.7086,276.8553 66.708,43.55330000000001 66.708,43.553000000000004 66.821,42.0377 67.0713,40.8559 92.26219999999999,-51.01630000000001 92.4982,-51.87780000000001 92.5425,-52.05080000000001 92.58290000000001,-52.23340000000001 92.6187,-52.42320000000001 92.64930000000001,-52.618100000000005 92.67420000000001,-52.81570000000001 92.69270000000002,-53.01390000000001 92.70440000000002,-53.21040000000001 92.70850000000002,-53.40290000000001 92.70860000000002,-53.65200000000001 92.70840000000001,-53.78010000000001 92.70840000000001,-53.78010000000001 92.70880000000001,-53.786200000000015 92.6791,-54.37860000000001 92.5982,-54.95920000000001 92.48410000000001,-55.45350000000001 92.33330000000001,-55.936000000000014 92.1833,-56.31910000000001 92.0163,-56.68160000000001 91.8729,-56.95860000000001 91.7168,-57.22790000000001 91.5,-57.56050000000001 91.2591,-57.89030000000001 90.9136,-58.30120000000001 90.5344,-58.68710000000001 90.0296,-59.12040000000001 89.48610000000001,-59.50450000000001 88.82020000000001,-59.87960000000001 88.11010000000002,-60.18410000000001 81.36690000000002,-62.42550000000001 81.35490000000001,-62.429300000000005 81.34280000000001,-62.43260000000001 81.3306,-62.435500000000005 81.31830000000001,-62.4382 81.30600000000001,-62.4406 81.29360000000001,-62.442800000000005 81.28110000000001,-62.444900000000004 81.26870000000001,-62.447 81.26870000000001,-62.447 81.26200000000001,-62.448100000000004 81.25480000000002,-62.4489 81.24730000000002,-62.449600000000004 81.23950000000002,-62.4502 81.23150000000003,-62.4506 81.22360000000002,-62.450900000000004 81.21580000000002,-62.451100000000004 81.20820000000002,-62.4513 81.20820000000002,-62.4513 81.10770000000002,-62.441100000000006 81.01400000000002,-62.41180000000001 80.92910000000002,-62.36560000000001 80.85500000000002,-62.304500000000004 80.79390000000002,-62.2304 80.74780000000003,-62.145500000000006 80.71860000000002,-62.05180000000001 80.70860000000002,-61.95130000000001 80.70840000000001,-61.85510000000001 80.70830000000001,-53.453100000000006 80.7073,-53.4102 80.7042,-53.366600000000005 80.6991,-53.32260000000001 80.6923,-53.27850000000001 80.6838,-53.23480000000001 80.6738,-53.191900000000004 80.6624,-53.150000000000006 80.6498,-53.10960000000001 80.6061,-53.017900000000004 80.5407,-52.904900000000005 80.46000000000001,-52.799600000000005 80.36580000000001,-52.7047 80.2621,-52.6248 80.14970000000001,-52.5592 80.03630000000001,-52.5105 79.9184,-52.4757 74.10300000000001,-51.2295 74.0241,-51.2061 73.9509,-51.17 73.8803,-51.1203 73.8191,-51.0572 73.77040000000001,-50.9853 73.73410000000001,-50.9061 73.71370000000002,-50.8277 73.70600000000002,-50.7451 73.68720000000002,-50.0571 73.61680000000001,-49.2004 73.49350000000001,-48.3296 73.27740000000001,-47.2878 72.92060000000001,-46.0605 72.92060000000001,-46.0605 72.3923,-44.713499999999996 71.6405,-43.038799999999995 70.8163,-41.20289999999999 69.9252,-39.218799999999995 68.9731,-37.098099999999995 67.96560000000001,-34.854099999999995 66.90970000000002,-32.50189999999999 63.70840000000001,-25.371599999999994 63.708700000000015,-6.294699999999995 63.19830000000002,-4.993899999999996 62.81990000000002,-4.146899999999995 62.48980000000002,-3.5593999999999952 61.923200000000016,-2.690799999999995 60.980300000000014,-1.594299999999995 60.31150000000002,-0.980199999999995 59.556500000000014,-0.40669999999999495 58.71740000000001,0.11260000000000503 57.57180000000001,0.6526000000000051 56.43460000000001,1.025500000000005 55.58160000000001,1.210500000000005 54.730700000000006,1.320200000000005 53.88850000000001,1.3553000000000048 50.731100000000005,1.3551000000000049 47.5737,1.3550000000000049 44.4163,1.3550000000000049 41.2588,1.3550000000000049 38.1014,1.3550000000000049 34.9439,1.3550000000000049 28.708199999999998,1.354700000000005 28.506689453125,1.375019921875005 28.318990624999998,1.433296875000005 28.149127734374996,1.525506640625005 28.001125,1.6476250000000048 27.879006640624997,1.795627734375005 27.786796875,1.965490625000005 27.728519921874998,2.153189453125005 27.708199999999998,2.3547000000000047" fill="none" stroke="black" stroke-width="0.1"/>
        <polyline id="_203309952___0___0" class="fil2 str0" points="60.318,28.2223 61.157,28.325300000000002 62.007,28.631300000000003 62.285,28.773300000000003 62.562999999999995,28.930300000000003 62.852999999999994,29.107300000000002 63.13099999999999,29.287300000000002 63.40899999999999,29.477300000000003 63.684999999999995,29.678300000000004 64.76599999999999,30.604300000000002 65.669,31.6323 66.395,32.7643 66.943,33.9983" fill="none" stroke="black" stroke-width="0.1"/>
        <polyline id="_203311248___1" points="66.7954,-14.1675 63.7389,-6.3722" fill="none" stroke="black" stroke-width="0.1"/>
        <g id="_203311416_1_1">
            <polyline id="_203311416_1___0" class="fil2 str0" points="30.6525,19.6633 59.1566,19.6633 59.5366,19.6435 59.9137,19.5872 60.286899999999996,19.4991 60.655499999999996,19.383899999999997 61.0184,19.246299999999998 61.3749,19.090999999999998 61.724,18.9227 62.064899999999994,18.746 64.0197,17.7045 66.0246,16.8751 68.63560000000001,16.070899999999998 71.2972,15.481199999999998" fill="none" stroke="black" stroke-width="0.1"/>
        </g>
        <line id="_203311560" x1="32.6965" y1="28.2223" x2="60.318" y2="28.2223" stroke="black" stroke-width="0.1"/>
        <line id="_203311320" x1="66.795" y1="-14.1677" x2="79.535" y2="-46.6527" stroke="black" stroke-width="0.1"/>
        <g id="_tag_64_">
            <polyline id="_203311464___0___0" class="fil2 str0" points="79.535,-46.6527 80.09899999999999,-48.349700000000006 80.46199999999999,-49.9757" fill="none" stroke="black" stroke-width="0.1"/>
            <polyline id="_203310960___0___0" class="fil2 str0" points="80.462,-49.9757 80.64800000000001,-51.435700000000004 80.70800000000001,-52.858700000000006" fill="none" stroke="black" stroke-width="0.1"/>
        </g>
        <polygon id="simplify_14_1" points="69.976,258.014 69.974,258.012 69.974,258.012 69.9739,258.012 69.9738,258.012 69.973,258.011 69.97,258.009 69.958,257.997 69.91,257.952 69.8774,257.921 69.8451,257.89 69.7168,257.765 69.4672,257.51 68.9949,256.983 68.1579,255.858 67.4558,254.629 66.9166,253.352 66.9166,253.352 66.6979,252.602 66.6919,252.923 66.5857,255.128 66.4627,255.905 66.2988,256.598 65.979,257.482 65.979,257.482 65.5741,258.177 65.5741,275.001 64.8343,274.905 63.8981,275.038 62.8423,275.434 62.2572,275.755 61.6603,276.157 60.8301,276.855 30.7079,276.855 33.7079,288.855 43.7509,288.855 45.3438,288.94 46.9186,289.193 48.4576,289.612 49.9433,290.193 51.3591,290.928 52.6888,291.808 53.3919,292.33 54.1441,292.888 64.2305,300.354 64.8791,300.813 65.5743,301.254 66.3068,301.671 67.0672,302.06 67.8463,302.418 68.6347,302.739 69.4231,303.019 70.2021,303.253 70.2079,302.748 70.2079,302.087 70.2079,286.355 70.2996,285.45 70.5625,284.606 70.9783,283.842 71.5285,283.175 72.195,282.625 72.9593,282.209 73.803,281.946 74.708,281.855 74.708,281.855 75.613,281.946 76.4567,282.209 77.221,282.625 77.8874,283.175 78.4377,283.842 78.8534,284.606 79.1162,285.45 79.2079,286.355 79.2079,286.355 79.2079,288.466 79.2079,290.576 79.2079,292.687 79.2079,294.798 79.2079,296.909 79.2079,299.02 79.2079,301.13 79.2079,303.241 79.2079,303.241 81.9456,302.264 84.4412,300.869 86.6566,299.102 88.5542,297.012 90.0959,294.645 91.2441,292.048 91.9607,289.269 92.208,286.355 92.208,286.355 92.113,284.563 91.8329,282.79 91.3745,281.054 90.7451,279.373 89.9515,277.765 89.0009,276.248 87.9004,274.842 86.6569,273.564 72.1145,260.008 71.4757,259.413 70.6931,258.683" fill="none" stroke="black" stroke-width="0.1"/>
        <g id="_tag_65_">
            <polyline id="_237068360___0___0" class="fil2 str0" points="33.7075,288.855 33.812900000000006,288.855 34.127500000000005,288.855 34.6469,288.855 35.363600000000005,288.855 36.26780000000001,288.855 37.346700000000006,288.855 38.58500000000001,288.855 39.965500000000006,288.855 41.46880000000001,288.855 43.073800000000006,288.855 44.7578,288.855 46.497400000000006,288.855 48.267900000000004,288.855 50.0446,288.855 51.802600000000005,288.855 53.517100000000006,288.855 53.723000000000006,288.855 53.92880000000001,288.855 54.13470000000001,288.855 54.34060000000001,288.855 54.54650000000001,288.855 54.75230000000001,288.855 54.95820000000001,288.855 55.164000000000016,288.855 56.720300000000016,288.855 58.16410000000002,288.855 58.18900000000002,288.8553 58.21380000000002,288.8555 58.23870000000002,288.8558 58.263600000000025,288.85609999999997 58.288400000000024,288.85639999999995 58.31330000000003,288.85669999999993 58.33820000000003,288.8569999999999 58.36310000000003,288.8572999999999 58.51690000000003,288.8620999999999 59.088300000000025,288.9887999999999 59.65170000000003,289.2725999999999 60.201500000000024,289.7105999999999 60.731500000000025,290.29809999999986 61.23630000000003,291.0289999999999 61.71060000000003,291.89549999999986 62.149300000000025,292.8883999999999" fill="none" stroke="black" stroke-width="0.1"/>
            <polyline id="_237068360___1___0" class="fil2 str0" points="64.8639,299.395 65.4563,299.81969999999995 66.07939999999999,300.22799999999995 66.728,300.61519999999996 67.3967,300.977 68.0805,301.3089 68.774,301.6063 69.472,301.86469999999997 70.16929999999999,302.07969999999995" fill="none" stroke="black" stroke-width="0.1"/>
            <polyline id="_237068360___2___0" class="fil2 str0" points="62.1493,292.888 64.7075,299.3109" fill="none" stroke="black" stroke-width="0.1"/>
            <polyline id="_237067784___0___0" class="fil2 str0" points="85.028,298.463 84.84970000000001,298.93980000000005 84.70800000000001,299.3079000000001" fill="none" stroke="black" stroke-width="0.1"/>
            <polyline id="_237067784___1___0" class="fil2 str0" points="85.0544,298.457 86.2945,297.2698 87.3945,295.957 88.3467,294.5348 89.1433,293.0197 89.7764,291.4278 90.2383,289.77549999999997 90.5212,288.07919999999996 90.6172,286.35509999999994 90.6172,286.35509999999994 90.5309,284.72659999999996 90.2762,283.11469999999997 89.8595,281.53619999999995 89.2873,280.00769999999994 88.5659,278.54579999999993 87.7017,277.16729999999995 86.7012,275.88879999999995 85.5707,274.7269999999999 84.708,273.9274999999999 83.0289,272.4045999999999 81.3612,270.9780999999999 79.7161,269.6574999999999 78.1048,268.45179999999993 76.53829999999999,267.36909999999995 75.02709999999999,266.41679999999997 73.58149999999999,265.6013 72.2113,264.9282 70.698,264.1366 69.3244,263.1878 68.1013,262.082 67.0907,260.8877 66.2433,259.5715 65.5742,258.1769" fill="none" stroke="black" stroke-width="0.1"/>
            <polyline id="_237068264_1___0" class="fil2 str0" points="78.927,302.143 79.6537,301.92789999999997 80.39020000000001,301.66859999999997 81.1281,301.3689 81.8593,301.0324 82.57560000000001,300.663 83.2686,300.2643 83.93020000000001,299.8402 84.552,299.39439999999996" fill="none" stroke="black" stroke-width="0.1"/>
            <polyline id="_234161520_1___0" class="fil2 str0" points="58.518,288.862 58.1693,286.35490000000004 58.0612,284.68100000000004 58.1869,282.91460000000006 58.5514,281.19090000000006 59.1846,279.4637000000001 59.7828,278.3196000000001 60.5161,277.2417000000001 60.8308,276.8549000000001 61.661,276.1575000000001 62.2579,275.7548000000001 62.842999999999996,275.4338000000001 63.898799999999994,275.03780000000006 64.835,274.9055000000001 65.5748,275.0008000000001 66.3159,275.1275000000001 67.2183,275.1433000000001 68.2676,275.0870000000001 69.5429,274.9959000000001 70.9696,274.9314000000001 72.5257,274.9516000000001 73.7908,275.0605000000001 75.1101,275.2761000000001 76.456,275.6188000000001 77.8207,276.1167000000001 79.164,276.7771000000001 80.4389,277.59890000000007 81.9233,278.89310000000006 83.1784,280.42660000000006 84.0894,282.04960000000005 84.70739999999999,283.83020000000005 84.7671,284.13280000000003 84.8251,284.4451 84.8794,284.76410000000004 84.9281,285.0869 84.9692,285.4103 85.001,285.7315 85.0215,286.0473 85.0287,286.3548 85.0286,298.4626" fill="none" stroke="black" stroke-width="0.1"/>
            <polyline id="_237067832_1___0" class="fil2 str0" points="84.708,299.308 84.708,286.3554 84.5043,284.3443 83.9201,282.4692 82.9963,280.7708 81.7735,279.2899 80.2926,278.0671 78.59419999999999,277.14329999999995 76.71909999999998,276.55909999999994 74.70809999999999,276.35529999999994 74.70809999999999,276.35529999999994 72.69709999999999,276.55909999999994 70.82199999999999,277.14329999999995 69.12359999999998,278.0671 67.64269999999998,279.2899 66.41989999999997,280.7708 65.49609999999997,282.4692 64.91189999999997,284.3443 64.70809999999997,286.3554 64.70799999999997,299.3117" fill="none" stroke="black" stroke-width="0.1"/>
            <polyline id="_203303024___0___0" class="fil2 str0" points="63.363,-3.1284 62.559,-1.8724 61.585,-0.7424000000000002 60.461,0.2385999999999998 59.208,1.0495999999999999 58.004,1.6065999999999998 56.747,2.0115999999999996 55.395,2.2685999999999997 54.015,2.3545999999999996 28.550900000000002,2.3545999999999996" fill="none" stroke="black" stroke-width="0.1"/>
        </g>
        <polygon id="center_00" cx="74.708" cy="286.355" points="77.83279999999999,286.355 77.81568201864678,286.6816305420188 77.76451562277299,287.0046824514674 77.67986140211909,287.32061630402285 77.5626468460416,287.6259706622833 77.41415618174561,287.91740000000004 77.23601630402284,288.19171135636356 77.03017895065176,288.44589931875015 76.79889931875016,288.6771789506518 76.54471135636352,288.8830163040229 76.2704,289.0611561817456 75.97897066228326,289.2096468460416 75.67361630402283,289.3268614021191 75.35768245146733,289.41151562277304 75.03463054201876,289.4626820186468 74.708,289.4798 74.38136945798124,289.4626820186468 74.05831754853267,289.41151562277304 73.74238369597717,289.3268614021191 73.43702933771674,289.2096468460416 73.1456,289.0611561817456 72.87128864363648,288.8830163040229 72.61710068124984,288.6771789506518 72.38582104934824,288.4458993187502 72.17998369597716,288.19171135636356 72.00184381825439,287.91740000000004 71.8533531539584,287.6259706622833 71.73613859788091,287.32061630402285 71.651484377227,287.0046824514674 71.60031798135321,286.6816305420188 71.5832,286.355 71.60031798135321,286.0283694579812 71.651484377227,285.70531754853266 71.7361385978809,285.3893836959772 71.8533531539584,285.08402933771674 72.00184381825439,284.7926 72.17998369597716,284.5182886436365 72.38582104934824,284.2641006812499 72.61710068124984,284.0328210493483 72.87128864363648,283.82698369597716 73.1456,283.6488438182544 73.43702933771674,283.50035315395843 73.74238369597717,283.38313859788093 74.05831754853266,283.298484377227 74.38136945798124,283.24731798135326 74.708,283.2302 75.03463054201876,283.24731798135326 75.35768245146733,283.298484377227 75.67361630402283,283.38313859788093 75.97897066228326,283.50035315395843 76.2704,283.6488438182544 76.54471135636352,283.82698369597716 76.79889931875016,284.03282104934823 77.03017895065176,284.26410068124983 77.23601630402284,284.5182886436365 77.41415618174561,284.7926 77.5626468460416,285.08402933771674 77.67986140211909,285.3893836959772 77.76451562277299,285.70531754853266 77.81568201864678,286.0283694579812" fill="none" stroke="black" stroke-width="0.1"/>
    </g>
</svg>
