<svg version="1.0" xmlns="http://www.w3.org/2000/svg">
    <polygon points="112.963,137.44 112.516,137.44 112.516,123.272 112.963,123.272 112.963,137.44" fill="none" stroke="black" stroke-width="0.1"/>
    <polygon points="112.952,124.895 113.201,124.895 113.278,124.779 113.449,124.517 113.449,122.097 112.953,122.576 112.947,132.587 112.943,138.158 113.46,138.667 113.45,136.25 112.963,135.544 112.973,126.91 114.397,126.925 114.832,126.832 115.189,126.522 115.378,126.135 115.375,125.687 115.192,125.265 114.818,124.972 114.381,124.873 112.952,124.895" fill="none" stroke="black" stroke-width="0.1"/>
    <polygon points="113.452,124.513 113.449,122.097 116.781,122.097 116.781,138.68 113.449,138.68 113.458,136.256 115.904,136.263 115.905,124.515 113.452,124.513" fill="none" stroke="black" stroke-width="0.1"/>
    <polygon points="120.245,123.559 121.258,123.559 122.541,123.376 123.738,122.86 124.721,122.097 124.721,138.68 123.727,137.852 122.538,137.343 121.258,137.191 120.245,137.191 118.964,137.343 117.776,137.852 116.781,138.68 116.781,122.097 117.764,122.86 118.961,123.376 120.245,123.559" fill="none" stroke="black" stroke-width="0.1"/>
    <line x1="129.422" y1="130.35001" x2="133.817" y2="130.33501" fill="none" stroke="black" stroke-width="0.1"/>
    <rect x="124.721" y="122.097" width="2.7742" height="16.5828" fill="none" stroke="black" stroke-width="0.1"/>
    <polygon points="99.8264,94.6658 99.9757,94.0747 100.382,93.5459 101.11,93.1427 102.608,92.8299 104.068,92.5045 108.056,92.5 109.835,92.8328 111.114,93.195 111.964,93.7271 112.115,94.1171 112.318,94.6735 112.489,124.003 103.632,125.338 103.668,116.067 103.686,110.642 103.71,107.91 103.574,106.885 103.143,105.85 102.251,104.92 101.16,103.979 100.455,103.164 100.22,101.691 100.004,98.6465 99.8264,94.6658" fill="none" stroke="black" stroke-width="0.1"/>
    <polygon points="104.585,121.818 111.677,121.713 112.179,121.94 112.529,122.502 112.499,140.133 110.748,141.253 103.632,133.563 103.627,122.339 104.086,121.976 104.585,121.818" fill="none" stroke="black" stroke-width="0.1"/>
    <polygon points="113.75,125.252 113.151,125.907 113.1,142.137 113.134,131.004 112.578,130.342 111.617,130.328 111.135,130.981 111.17,145.434 115.083,145.53 115.094,126.003 114.605,125.335 113.75,125.252" fill="none" stroke="black" stroke-width="0.1"/>
    <polygon points="95.2521,142.602 95.9504,142.583 98.7452,143.053 98.0454,149.614 95.8674,149.24 95.5333,149.153 95.2748,148.898 95.2559,148.632 95.2521,142.602" fill="none" stroke="black" stroke-width="0.1"/>
    <polygon points="77.5321,171.544 81.0863,170.901 84.591,170.398 88.4091,169.856 91.9753,169.37 96.2364,168.818 97.9574,168.539 99.3773,168.067 100.624,167.912 102.466,167.979 103.631,168.161 104.922,168.234 109.836,167.909 114.59,167.65 120.918,167.426 123.217,167.684 124.703,168.154 125.85,169.094 126.488,170.12 126.796,171.26 126.782,172.207 126.719,172.697 126.581,173.52 126.136,175.964 125.593,177.567 124.877,178.327 123.926,179.21 123.094,179.645 121.888,179.906 117.639,180.216 112.88,180.611 111.844,180.844 110.578,181.61 110.136,181.917 109.514,182.432 106.386,185.02 104.509,186.644 103.3,187.75 101.976,188.947 100.619,190.12 99.4,190.994 98.0488,191.6 96.7535,191.847 95.3698,192.014 93.8606,192.102 92.7155,192.034 91.4659,191.518 90.7201,190.888 90.252,190.008 89.9155,189.047 89.4985,187.78 88.9419,186.29 88.4473,184.993 87.9956,184.212 87.5541,183.661 86.8976,183.061 86.2754,182.801 83.1378,182.981 79.2698,183.314 76.9139,183.479 75.4906,183.312 74.5494,182.816 73.7778,182.118 73.3903,181.544 73.13,180.861 72.9826,180.159 72.8855,178.722 72.7793,177.403 72.8246,176.465 73.0422,175.6 73.6596,174.321 74.3457,173.418 74.75,173.06 75.5993,172.408 76.5315,171.902 77.5321,171.544" fill="none" stroke="black" stroke-width="0.1"/>
    <polyline points="77.0685,175.971 78.3117,174.62 80.0196,173.855 92.702,172.296" fill="none" stroke="black" stroke-width="0.1"/>
    <polyline points="122.766,170.822 113.318,171.179 111.17,171.667 109.035,172.84 107.062,174.547" fill="none" stroke="black" stroke-width="0.1"/>
    <polygon points="93.9309,123.9 96.623,122.8987 99.3628,122.2749 101.4323,122.0731 102.3956,122.2583 102.3899,123.1946 105.8144,123.2198 106.4458,123.6385 107.0429,124.557 108.0213,126.7298 109.6929,130.7058 111.1215,134.7411 112.2299,137.9905 113.4139,141.1842 114.3402,143.1106 115.4637,145.0001 116.5462,146.5246 117.7271,148.3687 118.2264,149.9167 118.2812,151.2565 118.1051,152.5211 117.7535,153.5371 116.8984,154.89 115.2484,156.3262 113.9109,157.5547 112.8292,159.5058 111.8204,162.6109 111.1413,165.137 106.6715,181.7808 106.0143,184.1879 105.3392,185.642 104.3232,186.9322 103.1678,187.6654 101.307,188.3402 99.2234,188.3881 96.4257,188.1722 94.2076,187.3554 93.1893,186.6833 92.3044,185.8628 91.5662,184.9194 90.9683,183.8721 90.5365,182.7406 90.2901,181.5625 90.2236,180.3575 90.4599,178.5475 93.491,167.3155 93.9558,166.0165 94.5532,165.2938 95.8003,164.0467 97.953,162.1131 99.2724,161.0707 100.4034,159.6899 100.7347,158.5397 100.6882,157.5013 100.2884,155.5163 98.9123,151.6152 96.8106,146.764 94.0814,141.1867 91.1762,136.0531 91.1707,135.3479 91.6316,132.6874 91.9249,124.9198 92.561,124.5419 93.9309,123.9 93.9309,123.9" fill="none" stroke="black" stroke-width="0.1"/>
    <polygon points="101.924,181.305 101.6093,182.0763 101.1275,182.7722 100.478,183.3282 99.6987,183.6931 98.8927,183.8788 98.0463,183.8596 97.2374,183.6604 96.4779,183.2434 95.8582,182.6584 95.4042,181.9568 95.129,181.1642 95.0201,180.319 95.1419,179.4849 98.171,168.1943 98.4857,167.423 98.993,166.7139 99.617,166.1707 100.3831,165.7806 101.2023,165.6204 102.0484,165.6396 102.8575,165.8385 103.6171,166.2559 104.2368,166.8409 104.7163,167.5293 104.9914,168.3221 105.0748,169.1803 104.953,170.0143 101.924,181.305 101.924,181.305" fill="none" stroke="black" stroke-width="0.1"/>
    <polyline points="94.9199,124.994 95.0785,126.5428 95.5273,127.753 96.1091,128.4206" fill="none" stroke="black" stroke-width="0.1"/>
    <polyline points="95.9187,126.9346 97.1286,128.4383 97.9519,129.8309 100.9044,137.8712 102.4203,142.3929 102.6654,143.2159 103.8865,146.957" fill="none" stroke="black" stroke-width="0.1"/>
    <polyline points="105.3128,151.3258 103.828,149.4957 103.0139,147.9156 102.8229,146.4047 102.8372,144.9798" fill="none" stroke="black" stroke-width="0.1"/>
    <polyline points="112.205,160.049 112.373,159.287 112.215,158.804 111.589,158.54 110.833,158.463 109.148,158.726 106.771,159.11 104.693,159.612 103.179,160.184 101.423,161.075 99.7585,162.02 97.8965,163.207 96.4903,164.152 95.0708,165.11 94.2885,165.991 93.69,167.423" fill="none" stroke="black" stroke-width="0.1"/>
    <polyline points="94.2638,129.609 94.9783,131.559 95.9186,132.217 96.6175,132.417 97.2759,132.509 97.4429,132.775 97.4885,133.126 96.9323,133.587 94.2772,134.441 92.7964,135.063 92.3651,135.314 91.9925,135.601 91.9038,135.743 91.9436,135.916 92.0206,136.006 94.0824,139.471" fill="none" stroke="black" stroke-width="0.1"/>
    <circle cx="99.932098" cy="175.33501" r="6.49999" fill="none" stroke="black" stroke-width="0.1"/>
    <circle cx="99.932098" cy="175.33501" r="3.9" fill="none" stroke="black" stroke-width="0.1"/>
    <polygon points="89.4856,127.935 90.2192,126.596 91.1337,125.422 91.1337,125.422 91.4654,125.188 91.9249,124.92 91.6316,132.687 91.1707,135.348 90.2251,134.124 89.4971,132.821 89.4856,127.935" fill="none" stroke="black" stroke-width="0.1"/>
    <rect x="127.495" y="123.484" width="1.92659" height="13.733" fill="none" stroke="black" stroke-width="0.1"/>
    <rect x="127.495" y="123.484" width="1.92659" height="0.142662" fill="none" stroke="black" stroke-width="0.1"/>
    <rect x="127.495" y="124.198" width="1.92659" height="0.97063202" fill="none" stroke="black" stroke-width="0.1"/>
    <rect x="127.495" y="126.416" width="1.92659" height="0.97063202" fill="none" stroke="black" stroke-width="0.1"/>
    <rect x="127.495" y="127.995" width="1.92697" height="0.97063202" fill="none" stroke="black" stroke-width="0.1"/>
    <rect x="127.495" y="129.679" width="1.92697" height="1.59918" fill="none" stroke="black" stroke-width="0.1"/>
    <rect x="127.495" y="135.789" width="1.92659" height="0.97063202" fill="none" stroke="black" stroke-width="0.1"/>
    <rect x="127.495" y="133.57001" width="1.92659" height="0.97063202" fill="none" stroke="black" stroke-width="0.1"/>
    <rect x="127.495" y="131.992" width="1.92697" height="0.97063202" fill="none" stroke="black" stroke-width="0.1"/>
    <polyline points="105.101,106.962 104.935,102.745 104.298,100.295 103.57,98.9927 102.843,97.7542 102.18,96.6435 101.739,95.9671 101.388,95.4055 101.954,94.9173 104.474,95.5336 107.561,95.4983 109.992,94.8867" fill="none" stroke="black" stroke-width="0.1"/>
    <polygon points="109.292,93.1378 108.864,93.3361 107.995,93.4659 106.072,93.5206 104.232,93.4693 103.607,93.3327 103.048,93.1975 103.065,89.9525 109.292,89.9329 109.292,93.1378" fill="none" stroke="black" stroke-width="0.1"/>
    <polyline points="108.253,84.1225 108.134,84.0758 107.551,83.9975 107.124,83.966 106.128,83.939 105.457,83.9509 104.968,83.9764 104.478,84.0215 104.026,84.0964 103.762,84.2379" fill="none" stroke="black" stroke-width="0.1"/>
    <polygon points="99.922,90.2539 99.922,85.8959 103.762,84.2379 101.245,80.3139 102.816,73.6239 102.988,73.4979 103.418,73.393 104.287,73.2905 104.286,73.6391 105.01,73.802 106.115,73.866 107.075,73.7651 107.859,73.6326 107.859,73.2802 108.173,73.3017 108.848,73.3864 109.396,73.5315 109.518,73.6289 111.103,80.3529 108.449,84.1999 112.418,85.8959 112.422,90.2539 112.119,90.4118 111.644,90.5452 111.194,90.6308 110.618,90.7133 109.289,90.7905 108.575,90.8427 107.767,90.8811 106.225,90.9048 104.437,90.8757 103.589,90.8347 103.048,90.8001 101.785,90.7198 100.808,90.5669 100.244,90.4161 99.922,90.2539" fill="none" stroke="black" stroke-width="0.1"/>
    <polygon points="99.2226,89.4434 99.4648,89.588 99.762,89.6825 100.304,89.8017 101.005,89.9104 101.312,89.9482 101.765,89.9964 102.456,90.0558 103.265,90.1078 103.961,90.1402 104.809,90.1662 106.304,90.1765 107.621,90.1581 109.388,90.0749 110.746,89.9545 112.032,89.7578 112.668,89.5798 112.921,89.4434 114.138,88.5344 114.122,87.1364 112.985,86.3084 112.734,86.2421 112.418,86.1585 112.417,86.3084 112.28,86.5382 111.931,86.6947 111.199,86.8603 110.539,86.9563 109.896,87.0421 109.109,87.0886 108.024,87.1492 107.112,87.1739 106.214,87.1832 104.869,87.1704 103.711,87.1322 102.384,87.0314 101.291,86.9038 100.381,86.7226 99.999,86.578 99.922,86.1583 99.5662,86.1993 99.1766,86.3084 97.9276,87.4004 97.9376,88.5434 99.2226,89.4434" fill="none" stroke="black" stroke-width="0.1"/>
    <polyline points="97.9762,87.2365 98.1406470703125,87.43716542968751 98.6122765625,87.6240671875 99.3585208984375,87.7932009765625 100.34681250000001,87.9405625 101.5445837890625,88.06214746093751 102.9192671875,88.1539515625 104.4382951171875,88.21197050781251 106.0691,88.2322 107.699871875,88.21197050781251 109.218875,88.1539515625 110.593540625,88.06214746093751 111.79129999999999,87.9405625 112.779584375,87.7932009765625 113.525825,87.6240671875 113.997453125,87.43716542968751 114.1619,87.2365" fill="none" stroke="black" stroke-width="0.1"/>
    <polyline points="97.9518,88.5344 98.11624707031251,88.73506542968751 98.58787656250001,88.9219671875 99.3341208984375,89.0911009765625 100.3224125,89.2384625 101.52018378906251,89.36004746093751 102.8948671875,89.4518515625 104.41389511718751,89.50987050781251 106.0447,89.5301 107.675471875,89.50987050781251 109.19447500000001,89.4518515625 110.569140625,89.36004746093751 111.7669,89.2384625 112.755184375,89.0911009765625 113.501425,88.9219671875 113.973053125,88.73506542968751 114.1375,88.5344" fill="none" stroke="black" stroke-width="0.1"/>
    <polyline points="112.418,85.8959 111.666,86.1545 110.398,86.3461 109.081,86.4575 107.847,86.5162 106.105,86.5429 104.257,86.5054 102.618,86.4058 101.354,86.2636 100.355,86.0587 99.9863,85.8989" fill="none" stroke="black" stroke-width="0.1"/>
    <polyline points="108.348,84.1465 108.075,84.2836 107.614,84.3853 107.135,84.4444 106.686,84.4755 106.052,84.4897 105.38,84.4698 104.784,84.417 104.324,84.3416 103.961,84.2329 103.827,84.1481" fill="none" stroke="black" stroke-width="0.1"/>
    <polyline points="110.993,80.2639 110.411,80.5669 109.431,80.7915 108.413,80.9221 107.459,80.9909 106.112,81.0221 104.683,80.9781 103.416,80.8614 102.438,80.6948 101.666,80.4547 101.381,80.2674" fill="none" stroke="black" stroke-width="0.1"/>
    <polyline points="109.254,73.8579 108.878,73.9872 108.244,74.083 107.585,74.1387 106.969,74.168 106.098,74.1813 105.173,74.1626 104.354,74.1128 103.722,74.0417 103.223,73.9393 103.039,73.8594" fill="none" stroke="black" stroke-width="0.1"/>
    <polyline points="99.1972,86.5049 99.336644140625,86.67505761718749 99.736565625,86.8335421875 100.369348046875,86.97695878906251 101.207375,87.1019125 102.22303007812499,87.20500839843749 103.388696875,87.2828515625 104.676758984375,87.3320470703125 106.0596,87.3492 107.4424037109375,87.3320470703125 108.7304296875,87.2828515625 109.89606269531251,87.20500839843749 110.9116875,87.1019125 111.7496888671875,86.97695878906251 112.38245156250001,86.8335421875 112.7823603515625,86.67505761718749 112.9218,86.5049" fill="none" stroke="black" stroke-width="0.1"/>
    <polyline points="109.449,3.2674 108.185,33.9654 107.861,66.7676 107.859,73.6326 107.0753,73.7651 106.1148,73.866 105.0096,73.802 104.2862,73.6391 104.294,67.1046 104.666,33.7666 105.714,6.3217" fill="none" stroke="black" stroke-width="0.1"/>
    <polygon points="96.547,173.381 99.9318,171.426 103.317,173.381 103.317,177.29 99.9324,179.244 96.5473,177.289 96.547,173.381" fill="none" stroke="black" stroke-width="0.1"/>
    <circle cx="112.3" cy="150.86492" r="1.7" fill="none" stroke="black" stroke-width="0.1"/>
    <circle id="center_00" cx="99.93210099999999" cy="175.335011" r="15" fill="none" stroke="black" stroke-width="0.1"/>
</svg>

