<?xml version="1.0" encoding="UTF-8"?>
<!DOCTYPE svg PUBLIC "-//W3C//DTD SVG 1.1//EN" "http://www.w3.org/Graphics/SVG/1.1/DTD/svg11.dtd">
<svg xmlns="http://www.w3.org/2000/svg" xml:space="preserve" width="210mm" height="297mm" style="shape-rendering:geometricPrecision; text-rendering:geometricPrecision; image-rendering:optimizeQuality; fill-rule:evenodd; clip-rule:evenodd"
viewBox="0 0 210 297">

 <g id="Ebene_x0020_1">
  <metadata id="CorelCorpID_0Corel-Layer"/>
  <g id="_210647616">
   <circle id="_130805656" class="fil0 str0" cx="-15.0959" cy="132.084" r="15.8941"/>
   <polygon id="_130813008" class="fil0 str0" points="-15.0959,117.427 33.9811,117.521 51.2616,119.312 99.0001,178.951 100.379,197.393 99.604,212.834 94.1929,226.162 85.8372,241.449 76.4074,255.687 55.3851,277.848 38.8892,290.604 20.9337,302.286 -0.5838,309.565 -23.0156,316.469 -32.8843,287.591 2.8391,275.887 18.3898,266.624 36.3689,252.071 48.1366,239.887 63.5645,219.429 68.862,204.924 70.0293,191.753 68.0071,181.006 65.8415,173.825 50.8348,154.154 40.2,146.853 -15.0959,146.853 -19.2378,146.18 -24.4923,143.373 -27.3974,140.112 -28.9296,137.031 -29.7677,132.778 -29.1474,127.795 -26.5657,122.909 -21.3499,118.791 "/>
   <polygon id="_130813392" class="fil0 str1" points="140.311,121.77 138.225,102.018 151.068,96.0281 153.769,91.5904 155.99,99.9278 157.072,107.842 157.288,116.852 156.994,125.948 156.846,133.788 156.842,141.007 158.417,148.268 160.168,154.201 161.101,160.507 160.923,169.902 159.668,179.691 156.995,188.777 155.398,195.562 154.363,202.341 154.543,207.618 155.714,216.231 157.754,223.036 160.52,228.523 163.453,234.679 165.939,238.298 169.196,242.461 170.373,244.378 170.439,246.359 169.417,248.16 167.055,249.056 165.738,248.994 164.642,247.746 160.647,241.827 158.319,238.263 154.152,231.698 148.931,219.914 147.571,212.959 147.055,202.277 147.047,193.596 147.842,187.685 148.387,184.117 149.52,175.304 150.31,164.77 149.974,157.641 147.879,151.801 145.176,145.105 143.816,142.536 "/>
   <polygon id="_130856312" class="fil0 str1" points="131.488,147.523 123.189,146.204 133.823,138.707 134.417,141.946 141.223,143.309 143.321,145.981 145.577,150.682 147.555,157.893 147.982,166.137 146.744,175.239 145.066,184.146 143.171,191.875 142.704,199.94 142.581,206.545 143.494,211.324 143.914,215.845 143.299,219.979 140.611,221.111 137.786,220.628 134.189,216.563 131.207,212.801 128.197,204.933 128.054,197.987 129.954,191.388 135.073,186.911 138.457,182.82 140.207,178.751 141.221,172.351 142.055,164.108 141.768,156.232 138.418,151.284 135.849,149.206 "/>
   <polygon id="_130864928" class="fil0 str1" points="119.086,150.912 120.625,141.61 150.548,83.0663 151.056,84.2628 153.769,91.5904 151.068,96.0281 152.948,101.479 153.372,105.967 152.045,106.029 146.478,106.397 145.274,107.022 144.325,107.741 143.056,109.506 142.836,112.144 143.177,114.831 145.22,117.085 152.337,120.991 154.069,122.419 154.938,125.028 154.93,128.128 153.458,130.955 150.537,132.734 147.518,135.163 133.839,144.04 128.954,147.059 127.357,148.002 126.324,149.166 125.04,151.42 121.202,153.435 "/>
   <polygon id="_130869488" class="fil0 str1" points="49.4819,117.17 58.627,116.734 68.8148,116.724 79.1889,118.112 91.1529,118.828 101.1,118.091 109.742,116.17 116.151,110.917 120.541,104.096 126.642,87.7785 128.367,80.9891 132.309,77.8583 138.411,76.9999 145.64,77 149.3,80.1281 151.056,84.2628 122.071,142.185 120.678,147.905 121.202,153.434 112,159.351 101.324,166.47 99.0001,170.168 99.616,177.081 99.0001,178.951 94.1114,177.582 89.7938,173.204 82.5,160.739 70.2135,143.393 59.6043,130.555 49.3377,123.641 47.186,119.359 "/>
   <circle id="_130902912" class="fil0 str1" cx="148.669" cy="112.143" r="2.9841"/>
   <circle id="_130901200" class="fil0 str1" cx="149.852" cy="126.941" r="3.2277"/>
   <circle id="center_00" class="fil0 str0" cx="-15.0959" cy="132.084" r="14.688"/>
  </g>
 </g>
</svg>
