<?xml version="1.0" encoding="UTF-8"?>
<!DOCTYPE svg PUBLIC "-//W3C//DTD SVG 1.1//EN" "http://www.w3.org/Graphics/SVG/1.1/DTD/svg11.dtd">
<!-- Creator: CorelDRAW -->
<svg xmlns="http://www.w3.org/2000/svg" xml:space="preserve" width="210mm" height="297mm" style="shape-rendering:geometricPrecision; text-rendering:geometricPrecision; image-rendering:optimizeQuality; fill-rule:evenodd; clip-rule:evenodd"
viewBox="0 0 210 297">
 <defs>
  <style type="text/css">
   <![CDATA[
    .str0 {stroke:#1F1A17;stroke-width:0.0762}
    .str1 {stroke:black;stroke-width:0.1411}
    .fil0 {fill:none}
    .fil1 {fill:#84C225}
    .fil3 {fill:red}
    .fil2 {fill:#FFF500}
   ]]>
  </style>
 </defs>
 <g id="Ebene_x0020_1">
  <metadata id="CorelCorpID_0Corel-Layer"/>
  <circle id="center_00" class="fil0 str0" cx="99.851" cy="153.401" r="20.1608"/>
  <polygon class="fil1 str0" points="48.0768,190.116 45.5244,187.615 47.0213,183.587 24.7061,183.555 37.0644,191.9 40.2534,192.444 43.3774,189.488 40.2534,192.444 41.266,193.501 44.1525,195.943 49.5421,200.048 55.4978,202.219 62.8998,203.275 70.8468,202.61 119.252,197.248 128.082,196.013 133.029,194.615 138.815,191.557 167.275,177.025 172.313,175.367 186.324,174.293 185.194,171.385 186.324,174.293 188.512,175.748 202.695,176.098 219.107,169.914 191.188,165.208 182.058,164.218 184.051,168.089 184.306,168.898 171.631,169.656 167.701,170.481 163.865,171.807 134.819,186.58 130.285,188.731 124.1,190.316 63.4798,196.482 57.1348,195.77 52.2652,193.243 "/>
  <polygon class="fil2 str0" points="-20.0788,152.689 -7.8985,151.195 10.3173,150.772 27.2208,151.282 63.667,153.095 97.669,153.396 155.808,152.386 183.87,152.549 202.736,153.405 217.278,154.829 229.663,158.324 237.019,162.678 241.5,167.702 241.5,172.067 239.454,174.148 233.935,175.98 222.414,176.966 213.418,175.578 202.117,172.324 187.033,170.513 157.526,170.501 128.221,171.601 92.377,174.618 67.187,178.978 44.8123,185.867 29.8716,186.123 14.6722,183.002 1.6855,179.151 -14.8922,173.822 -28.0047,170.88 -36.3209,170.522 -38.5,168.745 -38.5,164.793 -37.601,160.809 -30.8456,156.514 "/>
  <polygon id="path2391" class="fil3 str1" points="79.2683,192.397 87.0788,188.985 90.2468,185.675 103.519,184.406 106.958,186.893 115.923,188.446 117.639,193.094 109.709,193.754 108.986,192.399 87.4911,194.383 86.7879,196.311 78.795,197.018 "/>
  <polygon id="path2395" class="fil3 str1" points="78.9238,199.193 86.9109,198.513 87.8565,199.821 108.775,198.12 109.707,196.392 117.777,195.697 117.462,200.026 109.707,205.562 87.6997,207.302 80.2481,203.861 " sodipodi:nodetypes="ccccccccccccc"/>
 </g>
</svg>
