<svg version="1.0" xmlns="http://www.w3.org/2000/svg">
    <rect x="113.885" y="70.2076" width="3.76163" height="21.3918" fill="none" stroke="black" stroke-width="0.1"/>
    <polygon points="106.865,68.6452 106.865,68.6456 106.935,68.8902 107.059,69.1036 107.062,68.9244 107.73,69.4647 108.688,69.7668 109.821,69.7552 110.811,69.4332 111.455,68.8834 111.625,68.2514 111.637,69.3843 111.6,69.6906 111.452,69.957 110.738,70.4958 109.984,70.6555 109.017,70.6961 107.823,70.4849 107.15,70.0753 106.931,69.7477 106.853,69.3648" fill="none" stroke="black" stroke-width="0.1"/>
    <polygon points="109.293,67.1734 109.272,67.1682 109.251,67.1625 109.23,67.1569 109.209,67.1512 109.188,67.1452 109.167,67.1396 109.146,67.134 109.125,67.1283 108.891,67.1565 108.689,67.2377 108.616,67.3842 108.745,67.704 107.903,67.9756 107.35,68.1883 106.869,68.4656 107.049,67.7911 107.694,67.2414 108.672,66.9619 109.805,66.9498 110.805,67.2632 111.432,67.7926 110.926,67.657 110.409,67.5634 109.551,67.5593 109.519,67.5108 109.487,67.4627 109.454,67.4143 109.422,67.3662 109.39,67.3181 109.358,67.27 109.326,67.2219" fill="none" stroke="black" stroke-width="0.1"/>
    <polyline points="107.062,68.9244 107.5429,68.64630000000001 107.6136,68.61480000000002 107.6846,68.58280000000002 107.7552,68.55090000000003 107.8259,68.51900000000003 107.8965,68.48740000000004 107.9672,68.45550000000004 108.0378,68.42350000000005 108.1084,68.39160000000005 108.9381,68.16280000000005 109.17030000000001,68.81210000000004 109.24280000000002,68.87710000000004 109.29840000000002,68.90070000000004 109.36940000000001,68.91090000000004 109.60800000000002,68.86240000000004 109.84740000000002,68.81360000000004 109.90080000000002,68.78270000000003 109.91240000000002,68.74030000000003 109.92370000000003,68.69820000000003 109.77560000000003,68.07110000000003 110.60230000000003,68.02190000000003 111.11890000000002,68.11540000000004 111.62510000000003,68.25140000000003" fill="none" stroke="black" stroke-width="0.1"/>
    <polygon points="107.06200000000003,68.92440000000003" fill="none" stroke="black" stroke-width="0.1"/>
    <line x1="111.429" y1="67.9726" x2="110.824" y2="68.0365" fill="none" stroke="black" stroke-width="0.1"/>
    <line x1="107.852" y1="68.5036" x2="106.865" y2="68.6456" fill="none" stroke="black" stroke-width="0.1"/>
    <polyline points="109.792,68.8252 109.7439,68.6952" fill="none" stroke="black" stroke-width="0.1"/>
    <polyline points="109.7627,68.2037 109.5508,68.2368 109.32639999999999,67.72500000000001 109.25349999999999,67.66000000000001 109.11559999999999,67.66830000000002 108.85369999999999,67.73370000000001 108.74399999999999,67.78440000000002" fill="none" stroke="black" stroke-width="0.1"/>
    <line x1="108.736" y1="68.218" x2="108.745" y2="67.704" fill="none" stroke="black" stroke-width="0.1"/>
    <line x1="109.552" y1="67.5593" x2="109.551" y2="68.2368" fill="none" stroke="black" stroke-width="0.1"/>
    <line x1="109.775" y1="68.0711" x2="109.744" y2="68.6952" fill="none" stroke="black" stroke-width="0.1"/>
    <line x1="106.865" y1="68.6456" x2="106.868" y2="68.4656" fill="none" stroke="black" stroke-width="0.1"/>
    <polyline points="111.429,67.9726 111.5327,68.091 111.583,68.24019999999999" fill="none" stroke="black" stroke-width="0.1"/>
    <polygon points="111.429,67.97259999999999" fill="none" stroke="black" stroke-width="0.1"/>
    <line x1="111.432" y1="67.793" x2="111.429" y2="67.9726" fill="none" stroke="black" stroke-width="0.1"/>
    <polygon points="107.137,81.0972 107.148,81.0551 107.163,80.8334 107.22,80.6226 107.257,80.5756 108.011,81.3771 108.238,81.6548 108.691,81.8212 109.177,81.8618 109.644,81.8062 110.06,81.6014 110.468,81.3132 110.535,81.1919 110.601,80.8601 110.995,80.0579 111.313,80.1852 111.35,80.718 111.309,81.0423 111.275,81.152 110.884,81.7269 110.473,82.1222 109.572,82.3586 108.805,82.371 108.268,82.2267 107.503,81.8716 107.207,81.3196" fill="none" stroke="black" stroke-width="0.1"/>
    <polygon points="110.677,79.8963 110.564,80.301 110.557,80.3363 110.235,80.6639 109.819,80.8683 109.341,80.9657 108.886,80.9792 108.434,80.8127 108.066,80.6162 107.967,80.4832 107.921,80.2356 107.519,79.5833 107.224,79.7651 107.21,79.8185 107.19,79.8918 107.144,80.0605 107.141,80.2397 107.17,80.4291 107.231,80.5801 107.309,80.7879 107.405,80.9431 107.55,81.0728 107.739,81.2137 107.927,81.3542 108.168,81.4643 108.421,81.5323 108.674,81.6003 108.98,81.6371 109.256,81.6206 109.531,81.6044 109.818,81.5454 110.074,81.4338 110.33,81.3219 110.555,81.1562 110.78,80.9908 110.963,80.8139 111.116,80.5839 111.225,80.3423 111.282,80.1315 111.35,79.8786 111.353,79.699 111.325,79.4653 111.299,79.3405 111.279,79.3011" fill="none" stroke="black" stroke-width="0.1"/>
    <polygon points="107.232,78.9524 107.138,79.1008 107.135,79.1591 107.126,79.2872 107.165,79.4784 107.216,79.6276 107.266,79.7764 107.358,79.9369 107.493,80.1086 107.639,80.2382 107.827,80.3787 108.015,80.5197 108.31,80.5989 108.563,80.6669 108.816,80.7346 109.091,80.7184 109.367,80.7019 109.653,80.6433 109.941,80.5847 110.143,80.5035 110.41,80.3494 110.624,80.2262 110.796,80.0913 110.937,79.9034 111.077,79.7152 111.165,79.5581 111.263,79.3586 111.309,79.1899 111.34,79.073 111.345,79.0046" fill="none" stroke="black" stroke-width="0.1"/>
    <polygon points="105.917,77.0105 106.796,76.9846 107.187,76.3669 107.843,75.7747 108.58,75.3854 109.46,75.3058 110.345,75.5429 111.182,76.129 111.802,77.0184 112.117,78.3677 111.977,79.731 111.525,80.7395 110.79,81.6262 110.053,82.0155 109.235,82.2026 108.496,82.0944 107.741,81.7108 107.033,80.9792 106.473,79.6994 106.407,79.2748 105.92,79.2346 105.908,81.8062 105.897,83.0229 105.81,83.2164 105.814,84.0363 105.917,86.8281 106.187,88.8113 107.146,89.1983 107.467,89.2727 107.641,89.3197 111.64,89.399 111.725,89.4219 111.809,89.4444 111.882,89.5091 111.912,89.5628 111.929,91.6903 112.01,91.8925 111.999,91.9349 112.016,93.3853 112.013,93.5653 112.021,93.7032 112.09,93.7971 112.252,93.855 113.702,93.8381 115.11,93.8092 117.591,93.7163 117.631,93.6728 117.638,93.6468 117.649,93.2711 117.653,92.4136 117.646,91.5986 117.351,91.5193 117.014,91.4288 116.438,91.0485 116.046,90.4913 115.921,89.78 115.918,72.792 115.873,72.3918 115.795,71.9007 115.756,71.7095 115.605,71.2627 115.37,70.7926 115.07,70.3962 114.662,70.061 114.275,69.8213 113.834,69.6128 113.359,69.5301 113.033,69.5031 112.915,69.5016 111.608,69.5523 111.592,69.553 111.591,69.5966 112.139,69.6996 111.926,69.8232 111.489,69.9318 110.863,70.0798 110.12,70.1516 109.252,70.1896 108.341,70.2162 107.411,70.1475 106.672,70.0393 106.588,70.0167 106.585,69.9062 106.923,69.7056 106.385,69.7259 106.238,69.7766 106.13,69.8394 105.948,70.0156 105.914,70.1426 105.913,73.5401" fill="none" stroke="black" stroke-width="0.1"/>
    <polyline points="117.68,68.7474 117.35230000000001,68.794 116.9788,69.0101 116.1153,69.86489999999999 115.6765,70.20719999999999 114.8404,70.20719999999999 115.3699,70.7926 115.60510000000001,71.2627 115.7757,71.80529999999999 115.9173,72.79199999999999 116.05109999999999,73.64119999999998 116.41779999999999,74.46259999999998 116.96749999999999,75.10699999999999 117.31289999999998,75.33509999999998 117.48159999999999,75.38049999999998 117.66159999999999,75.38349999999998" fill="none" stroke="black" stroke-width="0.1"/>
    <polygon points="117.67999999999999,68.74739999999998" fill="none" stroke="black" stroke-width="0.1"/>
    <rect x="84.0942" y="103.826" width="1.95728" height="3.95551" fill="none" stroke="black" stroke-width="0.1"/>
    <rect x="83.4611" y="104.334" width="0.627501" height="5.72679" fill="none" stroke="black" stroke-width="0.1"/>
    <rect x="82.95" y="105.733" width="0.462923" height="3.82889" fill="none" stroke="black" stroke-width="0.1"/>
    <polygon points="82.4657,106.19 82.95,105.733 82.95,109.562 82.4657,109.034" fill="none" stroke="black" stroke-width="0.1"/>
    <polygon points="86.3183,105.463 87.2836,106.597 94.3672,104.031 95.7398,102.548 94.5769,97.354 93.8167,97.4006 91.2458,97.8868 90.267,98.1652 89.3938,98.5609 88.5987,99.1613 87.9096,99.882 87.3771,100.685 87.0314,101.634 86.8736,102.224 86.7879,102.878 86.6376,103.107 86.5595,103.222 86.3679,103.483 86.3239,103.644 86.3201,103.764" fill="none" stroke="black" stroke-width="0.1"/>
    <polygon points="84.0807,111.955 84.1077,105.456 86.3186,105.41 88.3988,105.208 90.7344,104.841 92.8383,103.735 94.0177,102.875 94.4514,102.589 94.8275,102.55 94.9522,101.914 99.8573,102.699 100.561,101.16 100.476,112.51 85.3338,112.243" fill="none" stroke="black" stroke-width="0.1"/>
    <polygon points="128.444,111.122 127.55,110.746 125.121,109.688 124.604,109.483 119.506,114.441 116.675,116.86 107.233,116.961 101.763,115.924 89.2773,117.122 71.2327,122.494 60.0305,130.377 49.7883,137.526 46.9221,138.763 44.739,139.47 43.7834,147.13 48.0801,146.43 49.3126,146.218 49.8856,146.102 52.9652,145.574 56.8058,144.391 58.7289,143.46 60.6245,142.297 66.1616,138.994 71.9143,136.068 77.8752,133.557 81.8468,132.228 85.9079,131.24 89.995,130.485 94.2372,129.998 113.998,128.073 116.134,127.696 118.168,127.022 120.1,126.051 121.877,124.813 123.492,123.348 124.872,121.73 126.091,119.887 127.056,117.979 129.087,113.104 129.21,112.82 129.288,112.524 129.38,112.005 129.386,111.646 129.264,111.432" fill="none" stroke="black" stroke-width="0.1"/>
    <polyline points="56.4781,143.761 60.0545,141.3791 65.5934,138.0767 71.4036,135.11499999999998 77.3732,132.56069999999997 80.0162,131.64839999999998 83.4633,130.58239999999998 87.0198,129.77819999999997 90.5793,129.15069999999997 94.23,128.68439999999998 100.90780000000001,128.0374 104.25800000000001,127.67259999999999 107.5605,127.15969999999999 109.1093,126.94099999999999 110.6461,126.76589999999999 112.2675,126.6137 113.9851,126.44269999999999 115.9164,126.14849999999998 117.8624,125.63039999999998 119.1813,125.07989999999998 120.413,124.37269999999998 122.6464,122.62319999999998 124.4407,120.48479999999998 125.8388,117.96839999999997 126.22510000000001,117.03399999999998 127.62810000000002,113.72619999999998" fill="none" stroke="black" stroke-width="0.1"/>
    <polygon points="56.47810000000001,143.76099999999997" fill="none" stroke="black" stroke-width="0.1"/>
    <polyline points="118.865,118.537 118.667,118.933 118.47,119.334 118.03,120.118 117.629,120.779 117.195,121.386 116.524,122.198 115.652,123.092 114.7,123.786 113.609,124.308 111.931,124.672 110.542,124.796 108.976,124.825 107.307,124.699 105.917,124.692 103.811,124.796 102.146,124.936 100.43,125.109 98.9754,125.304 97.4795,125.49 95.9547,125.62 93.9088,125.662 92.2074,125.611" fill="none" stroke="black" stroke-width="0.1"/>
    <polyline points="93.3861,120.109 94.2778,120.25 96.297,120.4746 97.7114,120.58319999999999 97.88483691406249,120.59039921874998 98.05827031249999,120.59759374999999 98.2316966796875,120.60477890624999 98.4051125,120.61195 98.5785142578125,120.61910234374999 98.7518984375,120.62623124999998 98.9252615234375,120.63333203124999 99.0986,120.64039999999999 104.18780000000001,120.69669999999998 109.4877,120.31189999999998 110.4632,120.21159999999998 111.377,120.00419999999997 112.1638,119.76369999999997 112.7706,119.52019999999997 113.403,119.01299999999998 113.58040000000001,118.69919999999998" fill="none" stroke="black" stroke-width="0.1"/>
    <polygon points="79.7671,123.311 78.591,123.99 76.1742,125.417 75.9258,125.668 75.7642,125.941 75.6496,126.289 75.6135,126.669 75.7413,127.201 75.9776,127.669 76.3297,128.038 76.802,128.298 77.3619,128.403 77.8797,128.316 83.9341,126.642 90.1024,125.542 90.5372,125.433 90.9227,125.176 91.2766,124.866 91.4743,124.467 91.5464,124.033 91.5352,123.579 91.3717,123.174 91.1117,122.79 90.6623,122.443 90.0724,122.283 88.0234,122.003 85.9771,121.725 84.5921,121.67 83.1488,121.824 81.5635,122.348 80.729,122.756" fill="none" stroke="black" stroke-width="0.1"/>
    <polygon points="59.9245,138.497 59.2211,138.757 58.4715,138.694 57.8312,138.387 57.2897,137.878 56.9745,137.206 56.9535,136.433 57.2195,135.783 57.6937,135.189 58.4234,134.661 65.0467,131.196 65.9076,131.022 66.3393,131.092 66.7504,131.246 67.2095,131.551 67.5492,132.14 67.7371,132.779 67.6537,133.431 67.3997,134.042 67.0667,134.448 66.4949,134.886" fill="none" stroke="black" stroke-width="0.1"/>
    <polygon points="46.4791,141.62 47.5755,144.443 47.636,145.229 47.5958,145.314 47.5556,145.399 47.5158,145.484 47.4759,145.569 47.4361,145.654 47.3959,145.74 47.3561,145.825 47.3162,145.91 46.6226,146.31 43.7834,147.13 42.0539,147.343 41.9468,147.32 41.8397,147.296 41.733,147.273 41.6263,147.249 41.5192,147.226 41.4125,147.203 41.3057,147.18 41.199,147.156 40.4209,146.86 39.2699,146.099 39.1328,146 38.9953,145.901 38.8581,145.802 38.721,145.702 38.5838,145.604 38.4463,145.505 38.3091,145.406 38.172,145.307 37.1259,144.67 36.6957,144.415 36.4131,144.294 38.1029,141.541 43.7425,138.756 45.1745,139.783 45.7535,140.295" fill="none" stroke="black" stroke-width="0.1"/>
    <circle cx="42.4894" cy="143.091" r="3.74547" fill="none" stroke="black" stroke-width="0.1"/>
    <polygon points="41.9182,143.466 40.2694,143.209 40.2909,142.805 40.3908,142.424 41.9998,142.495 42.2928,140.901 42.6506,140.91 43.0417,140.967 42.9605,142.616 44.6071,142.878 44.5898,143.28 44.4876,143.659 42.8801,143.589 42.5878,145.182 42.2282,145.175 41.8378,145.116" fill="none" stroke="black" stroke-width="0.1"/>
    <polyline points="47.6356,145.228 47.9073,146.0678 48.0809,146.4308" fill="none" stroke="black" stroke-width="0.1"/>
    <polygon points="47.6356,145.228" fill="none" stroke="black" stroke-width="0.1"/>
    <polygon points="120.858,106.838 121.225,105.141 119.179,104.246 118.12,105.571 117.747,105.766 117.338,105.717 116.139,105.29 114.995,104.846 113.817,104.35 112.768,103.709 111.89,103.096 111.362,102.382 111.014,101.836 110.552,100.853 110.321,100.204 110.02,99.8061 109.427,99.3312 108.858,99.0884 108.438,98.9746 95.8747,98.9734 95.8781,99.9857 95.9044,100.897 95.96,101.363 96.0889,101.716 96.8148,102.721 96.8389,102.964 96.9426,104.384 96.763,105.275 95.821,106.928 95.4328,107.367 94.6682,108.021 93.6653,108.563 92.0755,109.265 90.2448,109.859 88.2124,110.536 83.6241,112.148 79.9177,113.503 73.6604,115.934 67.1577,118.615 61.4707,121.292 56.7892,123.921 51.7914,127.051 47.778,129.721 45.8159,131.139 43.0906,133.156 38.624,136.638 35.4388,139.372 32.6782,142.093 32.4422,142.584 32.7514,142.948 36.1647,144.203 39.601,142.677 45.2417,138.617 46.2484,137.942 47.9178,136.947 49.9593,135.73 51.7655,134.725 54.7027,133.028 57.4923,131.564 61.4763,129.515 64.7112,127.937 68.1658,126.437 70.8607,125.347 73.6773,124.297 77.2762,123.002 80.7234,121.941 84.7206,120.847 88.0471,120.067 90.3655,119.667 93.7803,119.077 98.3618,118.499 98.3618,118.499 99.6979,118.405 102.781,118.194 105.028,118.074 109.198,118.018 111.401,118.068 113.589,118.158 115.725,118.278 115.93,118.272 116.136,118.264 116.341,118.258 116.545,118.251 116.751,118.244 116.956,118.237 117.161,118.23 117.366,118.224 118.781,117.836 118.91,117.767 119.085,117.678 119.291,117.576 119.513,117.468 119.735,117.36 119.941,117.259 120.117,117.17 120.245,117.1 121.571,115.941 124.637,112.178 124.952,111.676 124.967,111.601 124.981,111.527 124.996,111.451 125.01,111.376 125.025,111.301 125.039,111.226 125.054,111.151 125.068,111.076 125.004,110.47 124.792,109.916 124.382,109.264 124.01,108.62 123.617,108.065 123.344,107.808 122.849,107.545 121.724,107.137" fill="none" stroke="black" stroke-width="0.1"/>
    <polygon points="116.689,111.959 116.66,111.905 116.776,112.658 116.697,113.45 116.331,114.48 115.726,115.219 114.913,115.728 113.938,115.827 108.184,115.547 107.455,115.397 106.785,115.037 106.254,114.488 105.937,113.814 105.857,113.49 105.781,113.051 105.808,109.581 105.883,108.967 106.084,108.388 106.452,107.854 106.926,107.44 107.48,107.229 108.013,107.1 108.591,107.12 109.172,107.319 115.033,109.976 115.497,110.26 116.264,111.029" fill="none" stroke="black" stroke-width="0.1"/>
    <polygon points="110.308,109.009 110.06750000000001,108.9 109.65760000000002,108.7445 109.16950000000001,108.7046 108.41650000000001,108.8189 107.82690000000001,109.157 107.3862,109.6245 107.1314,110.2366 107.1229759765625,110.2681412109375 107.1145765625,110.2996859375 107.1061982421875,110.33122832031249 107.0978375,110.3627625 107.08949082031249,110.3942826171875 107.08115468749999,110.4257828125 107.0728255859375,110.45725722656249 107.0645,110.4887 107.0386,110.7528 106.9721,112.67819999999999 107.0085,113.22829999999999 107.1878,113.72949999999999 107.47749999999999,114.16879999999999 107.79839999999999,114.4806 108.42849999999999,114.8308 109.03009999999999,114.9451 113.41989999999998,115.0864 114.46829999999999,115.0533 114.76509999999999,114.94959999999999 115.09839999999998,114.72259999999999 115.45309999999998,114.41259999999998 115.68309999999998,114.06539999999998 115.87919999999998,113.66899999999998 115.95059999999998,113.23649999999998 115.90969999999999,112.54669999999997 115.63459999999999,111.88569999999997 115.1484,111.34689999999998 114.832,111.17329999999998 110.30799999999999,109.00899999999999" fill="none" stroke="black" stroke-width="0.1"/>
    <polyline points="109.657,100.658 109.923,101.1811 110.4412,102.4496 110.98559999999999,103.6091 112.0452,104.5523 113.2499,105.282 114.5,105.8437 115.7723,106.3198" fill="none" stroke="black" stroke-width="0.1"/>
    <polyline points="115.7723,106.3198 117.64280000000001,107.0935 118.6513,107.5447 119.67070000000001,107.9543 121.34200000000001,108.6284 122.61470000000001,109.1056" fill="none" stroke="black" stroke-width="0.1"/>
    <polygon points="95.5978,106.916 96.5529,106.898 97.206,105.81 97.605,104.154 97.5141,103.138 95.5767,103.296 95.6677,104.132 95.3607,105.45 94.611,106.558" fill="none" stroke="black" stroke-width="0.1"/>
    <polyline points="86.9149,111 87.8107,111.015 91.3604,110.9275 93.2704,110.71669999999999 95.113,109.90239999999999 96.73479999999999,108.57339999999999 97.39649999999999,107.6227 98.0161,106.411 98.4174,105.0053 98.5579,103.64320000000001 98.5395,102.6877 98.44290000000001,102.2116 98.3178,101.997 98.17240000000001,101.8685 95.92690000000002,100.81269999999999" fill="none" stroke="black" stroke-width="0.1"/>
    <polygon points="86.91490000000002,111.0" fill="none" stroke="black" stroke-width="0.1"/>
    <polygon points="96.7216,102.562 96.3913,102.112 96.0889,101.716 95.96,101.363 95.9044,100.897 95.8784,99.9865 95.8807,93.7524 95.8796,90.7269 93.9422,90.7006 93.9599,100.735 93.9614,101.233 94.088,101.766 94.3657,102.247 94.8275,102.55" fill="none" stroke="black" stroke-width="0.1"/>
    <rect x="93.3763" y="90.9531" width="0.576024" height="5.49646" fill="none" stroke="black" stroke-width="0.1"/>
    <rect x="92.8679" y="92.355" width="0.471565" height="3.78643" fill="none" stroke="black" stroke-width="0.1"/>
    <polygon points="92.381,92.8157 92.8676,92.355 92.8401,96.1437 92.3859,95.6601" fill="none" stroke="black" stroke-width="0.1"/>
    <polygon points="109.427,99.3312 110.02,99.8061 110.21,100.057 110.453,100.057 110.453,90.7321 108.526,90.7321 108.526,98.9986 108.858,99.0884" fill="none" stroke="black" stroke-width="0.1"/>
    <rect x="110.443" y="91.3367" width="0.481711" height="5.77677" fill="none" stroke="black" stroke-width="0.1"/>
    <polygon points="94.9402,63.5929 95.2412,63.3122 95.4144,63.1766 95.6026,63.1375 95.7526,63.0871 95.9656,63.0541 98.2088,63.0233 98.7495,63.0338 99.1095,63.0405 99.4037,63.1191 99.6979,63.1961 99.9835,63.3194 100.412,63.5715 100.778,63.8931 101.35,64.4537 101.94,65.1109 102.49,65.7546 103.029,66.4415 103.473,67.1479 103.915,67.8554 104.273,68.5381 104.647,69.3381 104.96,69.8521 105.353,70.1584 105.352,78.3151 105.356,80.6636 104.857,80.8496 104.394,79.1538 103.932,77.4659 103.772,76.8659 103.658,76.0524 103.679,75.7191 103.84,74.0229 103.679,75.7191 103.658,76.0524 103.772,76.8659 103.93,77.4577 104.857,80.8496 104.974,81.4218 105.271,82.4946 105.584,83.5271 106.024,84.9125 106.466,86.2915 106.836,87.4319 107.209,88.5716 107.52,89.6019 107.78,90.5522 107.978,90.5863 108.17,90.6003 108.232,90.6536 108.224,97.924 105.648,98.0788 103.361,98.1866 101.255,98.1682 98.6646,98.0209 95.8841,97.7744 95.8863,94.5693 95.8796,90.7269 96.0152,90.7171 96.0393,90.7036 96.0629,90.6901 96.087,90.6765 96.1107,90.6634 96.134,90.6499 96.1573,90.6363 96.1802,90.6228 96.2027,90.6089 96.2268,89.5996 96.2335,88.5618 96.2993,87.1328 96.3673,85.7069 96.4308,84.456 96.4526,83.2006 96.4834,82.0775 96.4718,80.9465 96.4248,79.9376 95.9006,79.7073 95.9002,71.2909 95.6049,71.2916 95.2254,69.8025" fill="none" stroke="black" stroke-width="0.1"/>
    <line x1="106.838" y1="94.841" x2="97.2311" y2="94.7579" fill="none" stroke="black" stroke-width="0.1"/>
    <polyline points="97.079,92.0567 97.04209999999999,90.8238 97.10679999999999,87.66680000000001 97.21839999999999,84.21780000000001 97.23639999999999,80.78940000000001 96.99709999999999,77.47120000000001 96.42889999999998,74.20110000000001" fill="none" stroke="black" stroke-width="0.1"/>
    <polygon points="97.07899999999998,92.0567" fill="none" stroke="black" stroke-width="0.1"/>
    <polyline points="104.784,70.9546 103.8168,70.8107 100.2423,70.8069 97.6583,70.8854 96.4157,71.07520000000001 97.142,70.74830000000001 97.07809999999999,69.67480000000002 96.9827,67.34170000000002 96.4927,65.11580000000002 96.0493,63.78300000000002 95.7859,63.41290000000002" fill="none" stroke="black" stroke-width="0.1"/>
    <polygon points="104.78399999999999,70.95460000000003" fill="none" stroke="black" stroke-width="0.1"/>
    <polygon points="92.9686,64.6382 92.7943,65.7681 92.8289,69.2224 93.0167,72.367 93.4124,73.2297 93.6893,73.4958 93.9475,73.6419 94.9124,73.5063 95.337,73.0505 95.5748,72.4993 95.7398,71.4363 95.8352,70.7855 95.8875,69.9908 95.9401,68.785 95.8303,67.1742 95.6864,65.69 95.4215,64.4891 95.0852,63.7214 94.7399,63.4933 93.9185,63.4794 93.6608,63.4745 93.5541,63.5362 93.3771,63.7007 93.1719,64.0408" fill="none" stroke="black" stroke-width="0.1"/>
    <polyline points="93.6608,63.4745 93.8603,63.573 94.1913,64.0231 94.4622,64.8641 94.6546,66.0003 94.7899,67.347 94.8493,68.80829999999999 94.8451,69.66539999999999 94.7989,70.51159999999999" fill="none" stroke="black" stroke-width="0.1"/>
    <polygon points="93.66080000000001,63.474499999999985" fill="none" stroke="black" stroke-width="0.1"/>
    <polygon points="94.0268,72.0792 93.8843,72.6454 93.5837,72.9464 93.2535,73.0569 92.2821,73.067 92.0345,73.0674 91.1042,72.9987 90.1967,72.8453 89.6373,72.7401 89.0785,72.6353 88.9102,72.5902 88.7832,72.5564 88.5953,72.4155 88.4495,72.2859 88.3033,72.1562 88.2109,71.9962 88.0877,71.7824 88.0065,71.5798 87.9058,71.2819 87.8051,70.9835 87.7578,70.6544 87.6683,70.3143 87.6214,69.9855 87.5853,69.6143 87.5492,69.2434 87.5669,68.8414 87.5308,68.4701 87.5481,68.0688 87.5657,67.6664 87.5718,67.3068 87.6319,66.9164 87.6803,66.5677 87.7284,66.2194 87.8074,65.9244 87.8415,65.7978 87.8866,65.6291 87.9855,65.4296 88.0843,65.2308 88.2139,65.0846 88.3011,64.9272 88.4194,64.8231 88.5908,64.689 88.7937,64.6078 88.9849,64.5687 89.1341,64.5184 89.3363,64.4372 90.1967,64.2617 91.0456,64.1276 91.9368,64.0058 92.8477,63.9792 93.0697,63.9934 93.3993,64.1464 93.7964,64.8208 94.0256,65.6505 94.1864,66.733 94.2913,68.026 94.3119,69.2964 94.2248,70.6036" fill="none" stroke="black" stroke-width="0.1"/>
    <polygon points="87.5842,68.4393 87.645,67.3714 87.7871,66.5061 87.9877,65.9274 88.2015,65.8042 88.451,66.0518 88.672,66.7436 88.7828,67.6769 88.8486,68.779 88.7877,69.8469 88.646,70.7122 88.4454,71.2909 88.2316,71.4141 87.9817,71.1665 87.8028,70.486 87.6499,69.5414" fill="none" stroke="black" stroke-width="0.1"/>
    <polyline points="93.4609,64.2734 93.68929999999999,64.8825 93.93469999999999,65.9875 94.12369999999999,67.3034 94.17179999999999,68.80749999999999" fill="none" stroke="black" stroke-width="0.1"/>
    <polyline points="94.11019999999999,70.5525 94.15639999999999,69.7067 94.17219999999999,68.8072" fill="none" stroke="black" stroke-width="0.1"/>
    <polygon points="88.8486,68.779 88.8136,67.7303 88.672,66.7436 88.4931,66.0631 88.2774,65.6888 88.0328,65.7587 87.8355,66.1574 87.674,66.9273 87.5936,67.8997 87.5751,68.9793 87.6634,69.9968 87.8389,70.8573 88.0516,71.4111 88.2819,71.5633 88.5295,71.3138 88.6881,70.7235 88.8301,69.8581" fill="none" stroke="black" stroke-width="0.1"/>
    <polygon points="87.5842,68.4393 87.645,67.3714 87.7871,66.5061 87.9877,65.9274 88.2015,65.8042 88.451,66.0518 88.672,66.7436 88.7828,67.6769 88.8486,68.779 88.7877,69.8469 88.646,70.7122 88.4454,71.2909 88.2316,71.4141 87.9817,71.1665 87.8028,70.486 87.6499,69.5414" fill="none" stroke="black" stroke-width="0.1"/>
    <line x1="87.677" y1="68.5998" x2="88.8516" y2="68.599" fill="none" stroke="black" stroke-width="0.1"/>
    <rect x="95.3351" y="71.1237" width="0.564751" height="8.57234" fill="none" stroke="black" stroke-width="0.1"/>
    <polygon points="95.4467,83.2453 95.5786,83.5963 95.9427,83.9198 96.3421,84.1182 96.4361,84.1716 96.3339,86.4309 96.0716,86.3043 95.83,86.1938 95.4114,85.9011 95.0353,85.6197 93.6908,84.4 92.771,83.1142 92.4655,82.3999 92.245,81.7078 92.1649,80.8281 92.1679,72.0649 92.1938,71.8004 92.3039,71.5588 92.4565,71.3288 92.6508,71.1094 93.1005,70.7791 93.3681,70.6243 93.6236,70.5123 94.4814,70.4736 95.2055,70.4661 95.3295,70.5747 95.3351,70.8257 95.3321,81.317 95.4012,81.5612 95.4324,81.615 95.4058,82.5566" fill="none" stroke="black" stroke-width="0.1"/>
    <polyline points="88.51,66.2359 87.9505,66.2337 88.1763,67.2429 88.0148,68.0132 87.677,68.5998 87.9347,68.9857 88.2056,69.8262 88.129,70.6187 88.0268,70.9978 88.5536,70.979" fill="none" stroke="black" stroke-width="0.1"/>
    <polygon points="107.1,76.5239 106.874,77.3671 106.838,78.1708 107.121,78.9697 107.755,79.6366 108.744,79.9925 109.781,80 110.741,79.625 111.407,78.9907 111.622,78.19 111.615,77.375 111.355,76.4916 110.668,75.8555 109.625,75.5308 108.524,75.5962 107.542,76.0554 107.55,76.1936 107.367,76.3703 107.192,76.5393" fill="none" stroke="black" stroke-width="0.1"/>
    <polyline points="109.845,76.8997 109.836,77.4393 110.538,77.8541 111.397,78.3553 111.389,78.2178 110.963,77.7868 110.513,77.4404 109.845,76.8997 110.33,76.4424 110.341,76.3999 110.331,76.3477 110.279,76.2932 110.08,76.1944 109.88,76.096 109.776,76.0775 109.7,76.0929 109.132,76.5277 108.438,76.2511 107.975,76.1268 107.7,76.0817 107.542,76.0554 107.55,76.1936 108.409,76.6949 109.165,77.0785 109.424,76.7866 109.683,76.4946 109.778,76.4751 109.905,76.5093 110.127,76.634" fill="none" stroke="black" stroke-width="0.1"/>
    <polyline points="111.397,78.3553 111.191,78.6165 110.955,78.8239 110.947,78.6864" fill="none" stroke="black" stroke-width="0.1"/>
    <line x1="109.165" y1="77.0785" x2="109.132" y2="76.5277" fill="none" stroke="black" stroke-width="0.1"/>
    <polygon points="108.219,77.9089 108.158,77.8545 108.157,77.8022 108.169,77.7598 108.18,77.7177 108.667,77.0804 107.985,76.7618 107.532,76.5953 107.192,76.5393 107.1,76.5239 106.874,77.3671 106.949,77.6008 107.145,78.2077 107.863,78.8975 108.863,79.2113 109.965,79.1459 110.947,78.6864 110.509,78.2978 110.071,77.9089 109.339,77.4415 108.809,78.0671 108.768,78.1081 108.702,78.1288 108.618,78.1066 108.418,78.0078" fill="none" stroke="black" stroke-width="0.1"/>
    <polyline points="108.667,77.0804 108.66890000000001,77.5779 108.48620000000001,77.7549 108.3435,77.9709" fill="none" stroke="black" stroke-width="0.1"/>
    <polygon points="108.667,77.0804" fill="none" stroke="black" stroke-width="0.1"/>
    <polygon points="105.917,77.0105 105.92,79.2346 106.407,79.2748 106.431,78.5131 105.919,78.5372 106.431,78.5131 106.76,77.7883 105.918,77.7632 106.76,77.7883 106.796,76.9846" fill="none" stroke="black" stroke-width="0.1"/>
    <polyline points="105.917,77.1717 105.9122,71.1267 105.3523,71.1267 105.35379999999999,79.7122 105.9189,79.7084 105.9189,79.0753 105.9185,78.7856 105.9182,78.61500000000001" fill="none" stroke="black" stroke-width="0.1"/>
    <polyline points="105.9182,78.61500000000001 105.917,77.17170000000002" fill="none" stroke="black" stroke-width="0.1"/>
    <polygon points="117.638,93.6465 120.932,93.6465 121.99,93.4202 122.238,92.405 122.238,70.0558 121.866,69.1491 121.004,68.8256 117.638,68.7508" fill="none" stroke="black" stroke-width="0.1"/>
    <polygon points="109.769,109.747 109.43,109.588 109.123,109.55 108.705,109.638 108.325,109.833 108.041,110.182 107.892,110.689 107.801,113.127 107.902,113.424 108.025,113.638 108.316,113.896 108.631,114.073 109.023,114.13 113.719,114.307 114.144,114.239 114.549,114.079 114.742,113.861 114.884,113.674 114.993,113.43 115.073,113.136 115.047,112.902 115.015,112.67 114.905,112.414 114.723,112.162 114.322,111.895" fill="none" stroke="black" stroke-width="0.1"/>
    <rect x="125.363" y="76.551" width="0.739099" height="8.99018" fill="none" stroke="black" stroke-width="0.1"/>
    <polygon points="126.142,76.4405 128.374,76.5412 130.443,76.9162 131.102,77.3201 131.392,78.2561 131.366,83.8292 131.082,84.6319 130.428,85.0456 128.39,85.4018 126.142,85.6546" fill="none" stroke="black" stroke-width="0.1"/>
    <polygon points="66.5538,132.143 66.7823,132.474 66.9003,132.868 66.8849,133.273 66.6978,133.627 66.62,133.743 66.5452,133.857 66.3209,134.024 65.4751,134.503 64.6285,134.981 63.7804,135.457 62.9316,135.931 62.0813,136.402 61.2302,136.872 60.3773,137.339 59.5236,137.803 59.1305,137.922 58.6879,137.892 58.2757,137.737 57.9954,137.435 57.8331,137.029 57.8192,136.576 57.9327,136.152 58.1852,135.817 58.4775,135.601 58.9197,135.335 65.0306,132.096 65.4232,131.923 65.6802,131.855 66.0387,131.868 66.3239,131.947" fill="none" stroke="black" stroke-width="0.1"/>
    <polygon points="81.1521,123.366 82.2534,122.802 83.4227,122.486 84.642,122.315 85.8482,122.368 89.9874,122.938 90.2741,123.057 90.533,123.264 90.6867,123.529 90.7457,123.816 90.6969,124.166 90.533,124.44 90.2557,124.637 89.969,124.695 83.7342,125.867 77.6415,127.529 77.3127,127.576 76.9745,127.487 76.7134,127.28 76.5499,127.053 76.459,126.715 76.4965,126.407 76.6596,126.136 76.8967,125.93" fill="none" stroke="black" stroke-width="0.1"/>
    <polygon points="121.087,66.2358 121.941,66.1629 122.88,66.1629 123.635,66.5074 123.878,67.302 123.878,70.5629 123.631,70.7724 123.374,71.5849 123.378,72.1934 123.378,80.933 123.378,89.6726 123.374,90.2811 123.631,91.0936 123.878,91.3031 123.878,94.564 123.635,95.3586 122.88,95.7031 121.941,95.7031 121.087,95.6302 118.178,94.1776 118.178,80.933 118.178,67.6884" fill="none" stroke="black" stroke-width="0.1"/>
    <polyline points="121.859,67.6589 120.568,68.6978 119.892,69.9884 119.646,71.3405 119.646,80.933 119.646,90.5255 119.892,91.8776 120.568,93.1682 121.859,94.2071" fill="none" stroke="black" stroke-width="0.1"/>
    <polygon points="125.363,73.7896 123.878,73.7896 121.99,77.2694 121.978,84.719 123.878,88.0763 125.363,88.0763" fill="none" stroke="black" stroke-width="0.1"/>
    <polyline points="125.364,76.1407 124.30850000000001,77.21159999999999 123.87,78.17869999999999 123.67200000000001,78.88959999999999 123.71480000000001,82.78989999999999 123.85650000000001,83.77659999999999 124.33030000000001,84.7164 125.01230000000001,85.5359 125.33510000000001,85.8429" fill="none" stroke="black" stroke-width="0.1"/>
    <polygon points="125.364,76.1407" fill="none" stroke="black" stroke-width="0.1"/>
    <polyline points="121.99,77.2694 122.952,77.8879 123.5223,78.388 123.67190000000001,78.8896 123.71470000000001,82.7899 123.534,83.4663 122.9606,84.081 121.97879999999999,84.71900000000001" fill="none" stroke="black" stroke-width="0.1"/>
    <polygon points="121.99,77.2694" fill="none" stroke="black" stroke-width="0.1"/>
    <circle id="center_00" cx="122.238" cy="81.2304" r="9.99978" fill="none" stroke="black" stroke-width="0.1"/>
</svg>

