<!DOCTYPE svg PUBLIC "-//W3C//DTD SVG 1.1//EN" "http://www.w3.org/Graphics/SVG/1.1/DTD/svg11.dtd">
<svg xmlns="http://www.w3.org/2000/svg" width="297mm" height="210mm" viewBox="0 0 297 210">
    <defs id="_tag_45_"/>
    <g id="Ebene_x0020_1">
        <circle cx="123.101" cy="147.624" r="11.9212" fill="none" stroke="black" stroke-width="0.1" id="center_00"/>
        <polygon points="101.837,142.748 89.0778,142.748 89.0773,142.748 89.0773,142.7406 88.92425781249999,142.74834375 88.7756125,142.77106874999998 88.63212343749998,142.808015625 88.49454999999998,142.858425 88.3636515625,142.9215375 88.24018749999999,142.99659375 88.12491718749999,143.082834375 88.01859999999999,143.1795 88.01859999999999,143.18679999999998 87.92040312499999,143.29459199218746 87.83279999999999,143.41090468749996 87.756559375,143.53496816406246 87.69245,143.66601249999997 87.641240625,143.80326777343748 87.60369999999999,143.94596406249997 87.580596875,144.09333144531246 87.5727,144.24459999999996 87.58,144.24459999999996 87.58,144.24569999999997 87.58,144.24619999999996 87.5727,144.24619999999996 87.580439453125,144.39920917968746 87.60315312499999,144.54782968749996 87.64008398437501,144.69130097656247 87.69047499999999,144.82886249999996 87.75356914062499,144.95975371093746 87.82860937499998,145.08321406249996 87.914838671875,145.19848300781246 88.0115,145.30479999999997 88.0189,145.30479999999997 88.1266591796875,145.40302558593748 88.2429484375,145.49064218749996 88.3669978515625,145.56688457031245 88.49803750000001,145.63098749999997 88.6352974609375,145.68218574218747 88.7780078125,145.71971406249997 88.9253986328125,145.7428072265625 89.0767,145.75069999999997 89.0767,145.74339999999998 89.0778,145.74339999999998 96.5664,145.74339999999998 96.5669,145.74339999999998 96.5669,145.75069999999997 97.1019982421875,145.77776855468744 97.6217109375,145.8570734375 98.12340253906251,145.98598847656248 98.6044375,146.16188749999998 99.0621802734375,146.38214433593748 99.4939953125,146.64413281249998 99.8972470703125,146.94522675781246 100.2693,147.28279999999998 100.273,147.27919999999997 100.6095564453125,147.64981035156248 100.9097765625,148.05211406249998 101.1710365234375,148.4834826171875 101.3907125,148.9412875 101.5661806640625,149.42290019531245 101.6948171875,149.92569218749998 101.7739982421875,150.4470349609375 101.80109999999999,150.98429999999996 101.80839999999999,150.98429999999996 101.80839999999999,150.98539999999997 101.80839999999999,150.98599999999996 101.80109999999999,150.98599999999996 101.7740837890625,151.52338574218746 101.69493906249998,152.04486093749995 101.56629667968748,152.54779003906248 101.39078749999999,153.02953749999995 101.17104238281249,153.48746777343746 100.90969218749999,153.91894531249994 100.60936777343748,154.32133457031244 100.27269999999999,154.69199999999995 100.27269999999999,154.69199999999995 99.90205253906248,155.02858945312494 99.49971406249998,155.32883437499996 99.06831542968749,155.59011210937496 98.61048749999999,155.80979999999994 98.12886113281249,155.98527539062496 97.62606718749998,156.11391562499995 97.10473652343748,156.19309804687498 96.56749999999998,156.22019999999995 96.56749999999998,156.22749999999994 96.56639999999999,156.22749999999994 72.22939999999998,156.22749999999994 72.22829999999999,156.22749999999994 72.22779999999999,156.22749999999994 45.26929999999999,156.22749999999994 43.39709999999999,156.22749999999994 43.39709999999999,154.35529999999994 43.39709999999999,147.61549999999994 43.39709999999999,147.61499999999995 43.40439999999999,147.61499999999995 43.44881132812499,146.73309257812494 43.57901562499999,145.87705312499997 43.79069335937499,145.051205859375 44.07952499999999,144.25987499999997 44.44119101562499,143.50738476562495 44.87137187499998,142.79805937499995 45.36574804687499,142.13622304687496 45.91999999999999,141.52619999999996 45.91999999999999,141.52619999999996 46.53000488281249,140.97211699218747 47.19178906249999,140.47787343749997 47.90103183593749,140.04779003906245 48.65341249999999,139.68618749999996 49.44461035156249,139.39738652343746 50.27030468749999,139.18570781249997 51.12617480468749,139.05547207031245 52.007899999999985,139.01099999999997 52.007899999999985,139.00369999999998 52.00909999999998,139.00369999999998 52.009599999999985,139.00369999999998 52.009599999999985,139.01099999999997 52.89144570312499,139.05537851562497 53.74744687499998,139.18555937499997 54.573274609374984,139.39722304687496 55.36459999999998,139.68604999999997 56.117094140624985,140.04772070312498 56.826428124999985,140.47791562499995 57.48827304687498,140.97231523437497 58.09829999999999,141.52659999999997 58.09829999999999,141.52659999999997 58.65244472656249,142.13657187499996 59.146726562499985,142.79833124999993 59.576829492187485,143.50755624999996 59.938437499999985,144.25992499999998 60.22723457031248,145.051115625 60.438904687499985,145.87680624999996 60.56913183593749,146.73267499999997 60.61359999999999,147.61439999999996 60.62089999999999,147.61439999999996 60.62089999999999,147.61549999999997 56.87659999999999,147.61549999999997 56.87659999999999,147.61439999999996 56.883999999999986,147.61439999999996 56.85866699218749,147.11860605468746 56.784460937499986,146.63666718749994 56.663846289062484,146.17104785156246 56.49928749999998,145.72421249999996 56.29324902343748,145.29862558593746 56.04819531249998,144.89675156249996 55.76659082031249,144.52105488281245 55.45089999999998,144.17399999999995 55.45089999999998,144.17399999999995 55.10376132812498,143.85820605468746 54.72796562499998,143.57651718749995 54.32598085937498,143.33139785156243 53.90027499999998,143.12531249999995 53.453316015624985,142.96072558593744 52.98757187499998,142.84010156249994 52.50551054687499,142.76590488281244 52.009599999999985,142.74059999999994 52.009599999999985,142.74799999999993 52.00909999999998,142.74799999999993 52.007899999999985,142.74799999999993 52.007899999999985,142.74059999999994 51.51213457031249,142.76592871093743 51.03020781249998,142.84012343749995 50.564586523437484,142.96072207031244 50.11773749999999,143.12526249999996 49.69212753906248,143.33128261718744 49.29022343749999,143.57632031249994 48.914491992187486,143.85791347656246 48.567399999999985,144.17359999999994 48.567399999999985,144.17359999999994 48.25161035156249,144.52073886718742 47.96993281249999,144.89653593749995 47.72482949218749,145.29852441406246 47.51876249999999,145.72423749999996 47.35419394531248,146.17120839843741 47.23358593749998,146.6369703124999 47.15940058593748,147.11905644531242 47.13409999999998,147.61499999999992 47.14139999999998,147.61499999999992 47.14139999999998,147.6154999999999 47.14139999999998,152.48319999999993 65.12509999999997,152.48319999999993 64.78882128906248,151.95141855468742 64.49120156249998,151.3939859374999 64.23414042968747,150.8127947265624 64.01953749999998,150.2097374999999 63.84929238281247,149.58670683593743 63.72530468749998,148.94559531249993 63.64947402343748,148.28829550781242 63.62369999999998,147.61669999999992 63.61639999999998,147.61669999999992 63.61639999999998,147.6154999999999 63.61639999999998,147.61499999999992 63.62369999999998,147.61499999999992 63.66811132812498,146.7330925781249 63.79831562499998,145.87705312499992 64.00999335937497,145.05120585937493 64.29882499999998,144.2598749999999 64.66049101562497,143.50738476562495 65.09067187499997,142.79805937499992 65.58504804687499,142.13622304687493 66.13929999999998,141.52619999999993 66.13929999999998,141.52619999999993 66.74927617187498,140.9721169921874 67.41104687499998,140.47787343749994 68.12028789062498,140.04779003906242 68.87267499999999,139.68618749999993 69.66388398437499,139.39738652343743 70.48959062499999,139.1857078124999 71.34547070312499,139.05547207031242 72.22719999999998,139.01099999999994 72.22719999999998,139.00369999999995 72.22829999999998,139.00369999999995 72.22879999999998,139.00369999999995 72.22879999999998,139.01099999999994 73.11070761718749,139.05537851562494 73.96674843749999,139.18555937499994 74.79259941406248,139.39722304687493 75.58393749999998,139.68604999999997 76.33643964843748,140.04772070312495 77.04578281249997,140.47791562499995 77.70764394531247,140.97231523437495 78.31769999999997,141.52659999999995 78.31769999999997,141.52659999999995 78.87178300781247,142.13657187499993 79.36602656249997,142.79833124999993 79.79610996093747,143.50755624999994 80.15771249999997,144.25992499999995 80.44651347656247,145.05111562499994 80.65819218749996,145.87680624999996 80.78842792968746,146.73267499999997 80.83289999999997,147.61439999999993 80.84029999999997,147.61439999999993 80.84029999999997,147.61549999999994 80.84029999999997,147.61609999999993 80.83289999999997,147.61609999999993 80.80720878906247,148.2877992187499 80.73147031249997,148.94518749999992 80.60757480468746,149.58637578124993 80.43741249999997,150.20947499999994 80.22287363281247,150.81259609374993 79.96584843749997,151.39384999999993 79.66822714843747,151.95134765624994 79.33189999999996,152.48319999999993 96.56639999999996,152.48319999999993 96.56749999999995,152.48319999999993 96.56749999999995,152.4904999999999 96.71876855468746,152.4826031249999 96.86613593749995,152.45949999999993 97.00883222656246,152.42195937499991 97.14608749999996,152.3707499999999 97.27713183593745,152.30664062499991 97.40119531249995,152.23039999999992 97.51750800781245,152.1427968749999 97.62529999999995,152.04459999999992 97.62529999999995,152.04459999999992 97.72356699218746,151.93679003906243 97.81122968749995,151.82042656249993 97.88751816406244,151.6962841796874 97.95166249999994,151.56513749999993 98.00289277343745,151.42776113281244 98.04043906249996,151.28492968749993 98.06353144531245,151.13741777343742 98.07139999999995,150.9859999999999 98.06409999999995,150.9859999999999 98.06409999999995,150.9853999999999 98.06409999999995,150.9842999999999 98.07139999999995,150.9842999999999 98.06353613281246,150.83303144531243 98.04045781249995,150.68566406249988 98.00293496093745,150.54296777343743 97.95173749999995,150.4057124999999 97.88763535156245,150.2746681640624 97.81139843749995,150.1506046874999 97.72379667968745,150.0342919921874 97.62559999999995,149.92649999999992 97.62559999999995,149.91919999999993 97.51924999999996,149.82253867187495 97.40395624999994,149.73630937499993 97.28047812499995,149.66126914062494 97.14957499999994,149.59817499999997 97.01200624999996,149.54778398437495 96.86853124999996,149.51085312499995 96.71990937499996,149.48813945312494 96.56689999999995,149.48039999999995 96.56689999999995,149.48769999999993 96.56639999999994,149.48769999999993 89.07779999999994,149.48769999999993 89.07669999999995,149.48769999999993 89.07669999999995,149.48039999999995 88.53943476562495,149.45329804687498 88.01809062499994,149.37411562499994 87.51529492187495,149.24547539062496 87.03367499999995,149.06999999999994 86.57585820312495,148.85031210937495 86.14447187499994,148.58903437499995 85.74214335937495,148.28878945312493 85.37149999999994,147.95219999999995 85.37519999999994,147.94859999999994 85.03762675781243,147.57655117187494 84.73653281249993,147.17330937499992 84.47454433593744,146.74150664062495 84.25428749999995,146.28377499999993 84.07838847656245,145.80274648437492 83.94947343749993,145.30105312499992 83.87016855468742,144.78132695312493 83.84309999999994,144.24619999999993 83.83569999999993,144.24619999999993 83.83569999999993,144.24569999999994 83.83569999999993,144.24459999999993 83.84309999999994,144.24459999999993 83.87016894531244,143.70733476562492 83.94932656249993,143.18599062499993 84.07794902343744,142.68319492187493 84.25341249999994,142.20157499999993 84.47309316406243,141.74375820312494 84.73436718749994,141.31237187499994 85.03461074218744,140.91004335937495 85.37119999999993,140.53939999999994 85.37489999999993,140.54309999999995 85.74688320312492,140.20555546874994 86.15007812499992,139.90447499999993 86.58185273437492,139.64248828124994 87.03957499999993,139.42222499999994 87.52061289062493,139.24631484374993 88.02233437499993,139.11738749999995 88.54210742187493,139.03807265624994 89.07729999999992,139.01099999999994 89.07729999999992,139.00369999999995 89.07779999999993,139.00369999999995 101.83699999999993,139.00369999999995 101.83699999999993,142.74799999999996" fill="none" stroke="black" stroke-width="0.1" id="_new_32_1"/>
        <polygon points="71.95949999999993,152.48319999999995 72.22779999999993,152.48319999999995 72.22829999999993,152.48319999999995 72.22939999999993,152.48319999999995 72.49779999999993,152.48319999999995 72.95404355468743,152.43627871093744 73.39721718749993,152.34784843749995 73.82532285156243,152.21990957031247 74.23636249999993,152.05446249999994 74.62833808593743,151.85350761718743 74.99925156249992,151.61904531249996 75.34710488281243,151.35307597656245 75.66989999999993,151.05759999999995 75.66989999999993,151.05759999999995 75.98569394531243,150.71042812499996 76.26738281249993,150.33460624999995 76.51250214843742,149.93259999999995 76.71858749999993,149.50687499999995 76.88317441406242,149.05989687499996 77.00379843749992,148.59413124999995 77.07799511718744,148.11204374999997 77.10329999999993,147.61609999999996 77.09589999999993,147.61609999999996 77.09589999999993,147.61549999999997 77.09589999999993,147.61439999999996 77.10329999999993,147.61439999999996 77.07796718749994,147.11860605468746 77.00376249999994,146.63666718749994 76.88315156249993,146.17104785156246 76.71859999999992,145.72421249999996 76.51257343749992,145.29862558593746 76.26753749999993,144.89675156249996 75.98595781249992,144.52105488281245 75.67029999999993,144.17399999999995 75.67029999999993,144.17399999999995 75.32315683593743,143.85820605468746 74.94734843749993,143.57651718749995 74.54534394531242,143.33139785156243 74.11961249999992,143.12531249999995 73.67262324218741,142.96072558593744 73.20684531249992,142.84010156249994 72.72474785156243,142.76590488281244 72.22879999999992,142.74059999999994 72.22879999999992,142.74799999999993 72.22829999999992,142.74799999999993 72.22719999999993,142.74799999999993 72.22719999999993,142.74059999999994 71.73140175781243,142.76593281249993 71.24945156249993,142.84013749999994 70.78381621093743,142.96074843749994 70.33696249999991,143.12529999999995 69.91135722656242,143.33132656249995 69.50946718749992,143.57636249999993 69.13375917968742,143.85794218749993 68.78669999999993,144.17359999999994 68.78669999999993,144.17359999999994 68.47091035156242,144.52073886718742 68.18923281249992,144.89653593749995 67.94412949218743,145.29852441406246 67.73806249999993,145.72423749999996 67.57349394531244,146.17120839843741 67.45288593749993,146.6369703124999 67.37870058593742,147.11905644531242 67.35339999999992,147.61499999999992 67.36069999999992,147.61499999999992 67.36069999999992,147.6154999999999 67.36069999999992,147.61669999999992 67.35339999999992,147.61669999999992 67.37869999999992,148.1124654296874 67.45288124999993,148.59439218749992 67.57347812499992,149.06001347656243 67.73802499999992,149.50686249999993 67.94405624999992,149.93247246093742 68.18910624999992,150.33437656249993 68.47070937499993,150.71010800781244 68.78639999999993,151.0571999999999 68.78639999999993,151.0571999999999 69.10925449218743,151.35278339843742 69.45720468749992,151.6188484374999 69.82824316406243,151.85339238281242 70.22036249999994,152.0544124999999 70.63155527343743,152.2199060546874 71.05981406249994,152.3478703124999 71.50313144531242,152.43630253906238 71.95949999999993,152.4831999999999" fill="none" stroke="black" stroke-width="0.1" id="_new_32_2"/>
        <polygon points="111.177,145.8 117.17370000000001,145.76440000000002 117.07522832031252,145.5429103515625 116.96618281250002,145.32723906250004 116.84689277343752,145.11772011718753 116.71768750000001,144.9146875 116.5788962890625,144.71847519531252 116.43084843750002,144.52941718750003 116.27387324218752,144.34784746093752 116.10830000000001,144.1741 116.10830000000001,144.1741 115.76124082031252,143.858413671875 115.38553281250003,143.576821875 114.98364277343751,143.33178789062504 114.55803750000001,143.12577500000003 114.11118378906252,142.961246484375 113.6455484375,142.84066562500004 113.1635982421875,142.766495703125 112.66780000000001,142.74120000000002 112.66780000000001,142.7485 112.66670000000002,142.7485 112.66620000000002,142.7485 112.66620000000002,142.74120000000002 112.17025644531252,142.766471875 111.68817031250002,142.84064375000003 111.22240839843752,142.96125 110.77543750000001,143.12582500000002 110.3497244140625,143.33190312500003 109.94773593750003,143.57701875000004 109.57193886718751,143.85870625 109.22480000000002,144.17450000000002 109.22480000000002,144.17450000000002 108.90911347656251,144.52158769531252 108.62752031250002,144.8973078125 108.38248261718752,145.29919589843755 108.17646250000001,145.72478750000002 108.01192207031252,146.1716181640625 107.8913234375,146.63722343750004 107.81712871093752,147.11913886718756 107.79180000000001,147.61490000000003 107.79920000000001,147.61490000000003 107.79920000000001,147.61610000000005 107.79920000000001,147.61660000000003 107.79180000000001,147.61660000000003 107.8171046875,148.11254765625003 107.89130000000002,148.59464375000005 108.01192031250001,149.06041796875002 108.1765,149.50740000000002 108.38257343750001,149.93311953125001 108.62767500000001,150.33510625000002 108.90933906250001,150.71088984375 109.22510000000001,151.05800000000002 109.22510000000001,151.05800000000002 109.57215507812501,151.37369062500002 109.94785312500002,151.65529375000003 110.34973085937501,151.90034375000002 110.77532500000001,152.106375 111.22217226562502,152.270921875 111.687809375,152.39151875000002 112.16977304687501,152.4657 112.66560000000001,152.491 112.66560000000001,152.48370000000003 112.6667,152.48370000000003 124.2741,152.48370000000003 124.2741,147.61610000000002 124.2741,147.61550000000003 124.2814,147.61550000000003 124.32375898437499,146.7400298828125 124.44824062500001,145.88935781250004 124.651064453125,145.06781621093754 124.92845,144.27973750000004 125.276616796875,143.52945410156252 125.69178437500001,142.82129843750005 126.170172265625,142.15960292968754 126.708,141.54870000000003 126.708,141.54870000000003 127.30521015625,140.98973828125003 127.95468125,140.49115625000002 128.65261171875,140.05730859375 129.3952,139.69255000000004 130.17864453125,139.40123515625 130.99914375000003,139.18771875000002 131.85289609375,139.05635546875 132.7361,139.0115 132.7361,139.00420000000003 132.7372,139.00420000000003 132.7377,139.00420000000003 132.7377,139.0115 133.61504238281248,139.05565312500002 134.47075781249998,139.1851 135.2999912109375,139.395546875 136.09788749999998,139.6827 136.8595916015625,140.04226562500003 137.5802484375,140.46995000000004 138.25500292968746,140.961459375 138.879,141.51250000000002 138.879,141.51250000000002 139.45112539062498,142.122996875 139.96282187499997,142.78565625000002 140.40920742187498,143.49615625 140.78539999999998,144.250175 141.086517578125,145.04339062500003 141.307678125,145.87148125000002 141.443999609375,146.73012500000002 141.4906,147.615 141.498,147.615 141.498,147.61610000000002 141.498,152.48370000000003 153.1053,152.48370000000003 153.1058,152.48370000000003 153.1058,152.491 153.60177656249996,152.4657240234375 154.08388749999997,152.3915421875 154.54966718749998,152.2709236328125 154.99665,152.1063375 155.42237031249996,151.9002529296875 155.82436249999998,151.6551390625 156.2001609375,151.3734650390625 156.54729999999998,151.0577 156.54729999999998,151.0577 156.86298652343746,150.710612109375 157.14457968749997,150.334890625 157.38961738281247,149.932998828125 157.59563749999995,149.50740000000002 157.76017792968747,149.06055742187502 157.88077656249996,148.594934375 157.95497128906248,148.11299414062503 157.98029999999997,147.61720000000003 157.97299999999998,147.61720000000003 157.97299999999998,147.61610000000002 157.97299999999998,147.61550000000003 157.98029999999997,147.61550000000003 157.95499531249996,147.11958925781252 157.88079999999997,146.63752656250003 157.76017968749997,146.17177871093753 157.59559999999996,145.72481250000004 157.38952656249998,145.29909472656252 157.14442499999996,144.89709218750002 156.86276093749996,144.52127167968752 156.54699999999997,144.17410000000004 156.54699999999997,144.17410000000004 156.1999078125,143.85841367187504 155.82417499999997,143.57682187500006 155.42226718749995,143.33178789062507 154.99665,143.12577500000003 154.54978906249997,142.96124648437504 154.08414999999997,142.84066562500004 153.60219843749996,142.76649570312503 153.10639999999998,142.74120000000005 153.10639999999998,142.74850000000004 153.10529999999997,142.74850000000004 153.10479999999998,142.74850000000004 153.10479999999998,142.74120000000005 152.60888515624998,142.76647187500004 152.1268125,142.84064375000005 151.66105234375,142.96125000000004 151.21407499999998,143.12582500000005 150.78835078125,143.33190312500003 150.38635,143.57701875000004 150.01054296875,143.85870625000007 149.6634,144.17450000000005 149.6634,144.17450000000005 149.3678869140625,144.49730371093753 149.10188281249998,144.84517968750004 148.86739042968748,145.21612519531257 148.66641249999998,145.60813750000005 148.50095175781252,146.01921386718755 148.3730109375,146.44735156250005 148.28459277343748,146.8905478515626 148.2377,147.34680000000006 148.2377,147.61490000000006 148.2377,147.61610000000007 148.2377,149.86270000000007 144.49339999999998,149.86270000000007 144.49339999999998,147.61610000000007 144.49339999999998,147.61490000000006 144.49339999999998,136.38330000000008 148.2377,136.38330000000008 148.2377,140.51280000000008 148.7695318359375,140.1764927734376 149.32703593749997,139.8788609375001 149.90831269531247,139.6218017578126 150.51146249999996,139.40721250000007 151.13458574218748,139.23699042968758 151.77578281249998,139.11303281250008 152.43315410156248,139.0372369140626 153.10479999999998,139.0115000000001 153.10479999999998,139.0042000000001 153.10529999999997,139.0042000000001 153.10639999999998,139.0042000000001 153.10639999999998,139.0115000000001 153.98815820312498,139.0559720703126 154.844053125,139.1862078125001 155.66976523437498,139.3978865234376 156.460975,139.6866875000001 157.21336289062498,140.0482900390626 157.92260937499998,140.4783734375001 158.58439492187497,140.97261699218762 159.19439999999997,141.5267000000001 159.19439999999997,141.5267000000001 159.7486517578125,142.13675585937509 160.24302656249995,142.79861562500008 160.67320371093749,143.50795507812506 161.03486249999997,144.2604500000001 161.32368222656248,145.0517761718751 161.53534218749996,145.87760937500008 161.66552167968746,146.7336253906251 161.70989999999998,147.61550000000008 161.71729999999997,147.61550000000008 161.71729999999997,147.61610000000007 161.71729999999997,147.61720000000008 161.70989999999998,147.61720000000008 161.66546074218746,148.4989251953126 161.53524843749997,149.35479531250007 161.32358378906247,150.18048964843757 161.03478749999996,150.9716875000001 160.67318027343748,151.72406816406257 160.24308281249998,152.43331093750007 159.74881582031247,153.09509511718758 159.19469999999998,153.70510000000007 159.19469999999998,153.70510000000007 158.58464394531248,154.25932324218755 157.92278281249997,154.75368593750008 157.2134396484375,155.1838650390626 156.4609375,155.54553750000008 155.66959941406247,155.83438027343755 154.84374843749998,156.0460703125001 153.98770761718748,156.1762845703126 153.1058,156.22070000000008 153.1058,156.22800000000007 153.1053,156.22800000000007 139.6258,156.22800000000007 137.7536,156.22800000000007 137.7536,154.35590000000008 137.7536,147.61610000000007 137.7536,147.61500000000007 137.761,147.61500000000007 137.73448593749998,147.12231875000006 137.65694374999998,146.64311875000007 137.5311484375,146.17986562500005 137.359875,145.73502500000006 137.1458984375,145.31106250000005 136.89199374999998,144.91044375000007 136.6009359375,144.53563437500006 136.2755,144.18910000000005 136.2755,144.18910000000005 135.9145146484375,143.87009492187508 135.5247046875,143.58554062500005 135.1088767578125,143.33792851562507 134.6698375,143.12975000000006 134.2103935546875,142.96349648437504 133.7333515625,142.84165937500006 133.24151816406248,142.76673007812505 132.7377,142.74120000000005 132.7377,142.74850000000004 132.7372,142.74850000000004 132.7361,142.74850000000004 132.7361,142.74120000000005 132.24515136718747,142.76611250000005 131.77054218749998,142.83915625000006 131.3143900390625,142.95790312500006 130.8788125,143.11992500000005 130.46592714843752,143.32279375000005 130.0778515625,143.56408125000004 129.7167033203125,143.84135937500005 129.3846,144.15220000000005 129.3846,144.15220000000005 129.08018984375,144.49845468750004 128.8094125,144.87438125000003 128.57441015625,145.27752343750004 128.377325,145.70542500000005 128.22029921875,146.15562968750004 128.10547499999998,146.62568125000007 128.03499453125,147.11312343750004 128.011,147.61550000000005 128.01839999999999,147.61550000000005 128.01839999999999,147.61610000000005 128.01839999999999,154.35590000000005 128.01839999999999,156.22800000000004 126.14619999999998,156.22800000000004 112.66669999999998,156.22800000000004 112.66559999999998,156.22800000000004 112.66559999999998,156.22070000000005 111.78384199218749,156.17623183593753 110.92794843749999,156.04600468750004 110.10224003906248,155.83433457031256 109.31103749999998,155.54553750000005 108.55866152343748,155.18392949218753 107.84943281249998,154.75382656250002 107.18767207031247,154.25954472656255 106.57769999999998,153.70540000000005 106.57769999999998,153.70540000000005 106.02347695312498,153.09536875000006 105.52911562499997,152.43351250000006 105.098940234375,151.72416250000006 104.73727499999998,150.97165000000007 104.44844414062499,150.18030625000006 104.23677187499999,149.35446250000007 104.10658242187498,148.49845000000005 104.06219999999998,147.61660000000006 104.05479999999997,147.61660000000006 104.05479999999997,147.61610000000007 104.05479999999997,147.61490000000006 104.06219999999998,147.61490000000006 104.10664335937497,146.73317910156254 104.23686562499998,145.87732031250005 104.44854257812497,145.05164199218754 104.73734999999996,144.26046250000007 105.09896367187497,143.50810019531258 105.52905937499997,142.79887343750005 106.02331289062498,142.13710058593756 106.57739999999998,141.52710000000008 106.57739999999998,141.52710000000008 107.18742304687498,140.97284804687507 107.84925937499997,140.47847187500008 108.55858476562499,140.04829101562507 109.31107499999999,139.68662500000008 110.10240585937498,139.39779335937507 110.92825312499998,139.18611562500007 111.78429257812499,139.05591132812506 112.66619999999999,139.01150000000007 112.66619999999999,139.00420000000008 112.66669999999999,139.00420000000008 112.66779999999999,139.00420000000008 112.66779999999999,139.01150000000007 113.5495580078125,139.05597207031258 114.40545156249999,139.18620781250007 115.23115996093749,139.3978865234376 116.02236249999999,139.6866875000001 116.77473847656249,140.04829003906258 117.48396718749999,140.47837343750007 118.14572792968748,140.97261699218757 118.75569999999999,141.52670000000006 118.75569999999999,141.52670000000006 119.30992734374999,142.13672714843756 119.80429999999998,142.79857343750007 120.23449140625,143.50791113281255 120.59617499999999,144.2604125000001 120.88502421874999,145.05174980468757 121.0967125,145.87759531250006 121.22691328124999,146.73362128906257 121.2713,147.61550000000005 121.2787,147.61550000000005 121.2787,147.61610000000005 121.2787,149.46990000000005 119.4138,149.48090000000005 111.1917,149.52960000000004 111.17699999999999,145.80000000000004" fill="none" stroke="black" stroke-width="0.1" id="_new_33_1"/>
        <polygon points="205.152,147.616 205.152,147.61540000000002 205.15929999999997,147.61540000000002 205.20168339843747,146.739958203125 205.32616718749995,145.889296875 205.52897675781247,145.06774960937503 205.80633749999998,144.27965000000003 206.15447480468748,143.529331640625 206.5696140625,142.82112812500003 207.0479806640625,142.159373046875 207.58579999999998,141.54840000000002 207.58579999999998,141.54840000000002 208.1829400390625,140.98939687500004 208.83235156249998,140.49076875000003 209.53023417968745,140.05687500000002 210.2727875,139.69207500000002 211.05621113281245,139.40072812500003 211.87670468749997,139.18719375 212.73046777343748,139.05583125 213.61369999999997,139.01100000000002 213.61369999999997,139.00360000000003 213.61479999999997,139.00360000000003 213.61529999999996,139.00360000000003 213.61529999999996,139.01100000000002 214.49717460937495,139.05537851562502 215.35319062499997,139.18555937500003 216.17902382812494,139.397223046875 216.97034999999994,139.68605000000002 217.72284492187498,140.04772070312504 218.43218437499996,140.477915625 219.09404414062496,140.97231523437503 219.70409999999995,141.52660000000003 219.70409999999995,141.52660000000003 220.25818300781248,142.13657187500002 220.75242656249995,142.79833125 221.18250996093747,143.50755625000002 221.54411249999995,144.25992500000004 221.83291347656245,145.05111562500005 222.04459218749997,145.87680625000002 222.17482792968747,146.73267500000003 222.21929999999995,147.61440000000002 222.22669999999994,147.61440000000002 222.22669999999994,147.61550000000003 222.22669999999994,147.616 222.21929999999995,147.616 222.17492148437495,148.4978787109375 222.04474062499995,149.3539046875 221.83307695312496,150.17975019531252 221.54424999999992,150.9710875 221.18257929687493,151.72358886718752 220.75238437499993,152.4329265625 220.25798476562494,153.0947728515625 219.70369999999994,153.7048 219.70369999999994,153.7048 219.09375683593746,154.258948828125 218.43201093749997,154.75324062500002 217.72278769531243,155.183355859375 216.97041249999995,155.544975 216.17921074218745,155.833778515625 215.35350781249994,156.04544687499998 214.49762910156244,156.175660546875 213.61589999999995,156.2201 213.61589999999995,156.2275 213.61479999999995,156.2275 213.61479999999995,156.2201 193.54459999999995,156.2207 193.54459999999995,152.49099999999999 213.61479999999995,152.4905 213.61479999999995,152.4831 213.61589999999995,152.4831 213.61589999999995,152.4905 214.11169804687498,152.46516718750001 214.59364687499993,152.3909625 215.05927851562495,152.2703515625 215.50612499999994,152.1058 215.93171835937494,151.89977343750002 216.33359062499994,151.6547375 216.70927382812496,151.3731578125 217.05629999999996,151.0575 217.05629999999996,151.0575 217.37209394531249,150.710328125 217.65378281249997,150.33450625 217.89890214843746,149.9325 218.1049875,149.506775 218.26957441406248,149.05979687500002 218.39019843749998,148.59403125000003 218.46439511718748,148.11194375000002 218.48969999999997,147.616 218.48229999999998,147.616 218.48229999999998,147.61550000000003 218.48229999999998,147.61440000000002 218.48969999999997,147.61440000000002 218.46437128906248,147.11860605468752 218.3901765625,146.6366671875 218.26957792968747,146.17104785156252 218.10503749999998,145.72421250000002 217.89901738281247,145.29862558593751 217.65397968749997,144.89675156250001 217.37238652343746,144.5210548828125 217.05669999999998,144.174 217.05669999999998,144.174 216.70952832031247,143.8582060546875 216.33370781249997,143.5765171875 215.93170527343747,143.33139785156249 215.50598749999997,143.1253125 215.0590212890625,142.9607255859375 214.5932734375,142.8401015625 214.1112107421875,142.7659048828125 213.6153,142.7406 213.6153,142.748 213.6148,142.748 213.6137,142.748 213.6137,142.7406 213.1227599609375,142.7655458984375 212.6481734375,142.8386171875 212.19205332031248,142.9573892578125 211.75651249999999,143.1194375 211.3436638671875,143.3223373046875 210.9556203125,143.56366406249998 210.5944947265625,143.84099316406252 210.26239999999999,144.1519 210.26239999999999,144.1519 209.95799843749998,144.49816328125 209.68724375,144.87411250000002 209.45227343749997,145.27728671875002 209.255225,145.70522500000004 209.0982359375,146.15546640625 208.98344375,146.62555 208.91298593749997,147.11301484375 208.88899999999998,147.61540000000002 208.89629999999997,147.61540000000002 208.89629999999997,147.616 205.15199999999996,147.616" fill="none" stroke="black" stroke-width="0.1" id="_new_34_1"/>
        <polygon points="171.836,145.8 177.8324,145.76440000000002 177.733969921875,145.54291445312504 177.624971875,145.32725312500006 177.505731640625,145.11774648437503 177.376575,144.91472500000003 177.237827734375,144.71851914062503 177.089815625,144.52945937500004 176.932864453125,144.34787617187501 176.7673,144.1741 176.7673,144.1741 176.4202408203125,143.8584423828125 176.04453281250002,143.57686406250002 175.6426427734375,143.33183183593752 175.2170375,143.12581250000002 174.77018378906251,142.9612728515625 174.3045484375,142.84067968750003 173.82259824218752,142.76649980468753 173.3268,142.74120000000002 173.3268,142.7485 173.32569999999998,142.7485 173.3252,142.7485 173.3252,142.74120000000002 172.8292564453125,142.766471875 172.3471703125,142.84064375000003 171.8814083984375,142.96125 171.4344375,143.12582500000002 171.00872441406253,143.33190312500003 170.60673593750002,143.57701875000004 170.2309388671875,143.85870625 169.8838,144.17450000000002 169.8838,144.17450000000002 169.5681091796875,144.52158769531252 169.28650468750004,144.8973078125 169.04145097656252,145.29919589843755 168.83541250000002,145.72478750000002 168.6708537109375,146.1716181640625 168.5502390625,146.63722343750004 168.4760330078125,147.11913886718756 168.4507,147.61490000000003 168.4581,147.61490000000003 168.4581,147.61610000000005 168.4581,147.61660000000003 168.4507,147.61660000000003 168.4760048828125,148.11251484375003 168.5502015625,148.59458750000002 168.6708255859375,149.06034765625003 168.83541250000002,149.50732500000004 169.0414978515625,149.93304921875003 169.2866171875,150.33505000000002 169.56830605468753,150.71085703125001 169.88410000000002,151.05800000000002 169.88410000000002,151.05800000000002 170.23115917968752,151.37369062500002 170.6068671875,151.65529375000003 171.00875722656252,151.90034375000002 171.43436250000002,152.106375 171.8812162109375,152.270921875 172.34685156250004,152.39151875000002 172.8288017578125,152.4657 173.32460000000003,152.491 173.32460000000003,152.48370000000003 173.32570000000004,152.48370000000003 184.93310000000005,152.48370000000003 184.93310000000005,147.61610000000002 184.93310000000005,147.61550000000003 184.94040000000004,147.61550000000003 184.98306738281252,146.73862773437503 185.10843281250004,145.88790937500005 185.31265371093755,145.067505078125 185.59188750000004,144.28157500000003 185.94229160156254,143.534279296875 186.36002343750005,142.82977812500002 186.84124042968756,142.172231640625 187.38210000000004,141.56580000000002 187.38210000000004,141.56580000000002 187.98089375000006,141.01279003906254 188.63162500000004,140.51994531250003 189.33043125000003,140.09144355468752 190.07345000000004,139.73146250000002 190.85681875000003,139.44417988281253 191.67667500000005,139.23377343750002 192.52915625000003,139.1044208984375 193.41040000000004,139.0603 193.41040000000004,139.05290000000002 193.41160000000005,139.05290000000002 193.41210000000004,139.05290000000002 193.41210000000004,139.0603 194.29400742187505,139.104678515625 195.15004687500004,139.234859375 195.97589414062503,139.446523046875 196.76722500000005,139.73535000000004 197.519715234375,140.09702070312503 198.22904062500004,140.52721562500003 198.89087695312503,141.02161523437502 199.50090000000003,141.57590000000002 199.50090000000003,141.57590000000002 200.05498300781255,142.1858431640625 200.54922656250002,142.8475890625 200.97930996093754,143.55681230468753 201.34091250000003,144.3091875 201.62971347656253,145.1003892578125 201.84139218750005,145.92609218750002 201.97162792968754,146.78197089843752 202.01610000000002,147.6637 202.0235,147.6637 202.0235,147.6648 198.2791,147.6648 198.2791,147.6637 198.2865,147.6637 198.2611671875,147.16790195312498 198.1869625,146.68595312500003 198.0663515625,146.220321484375 197.90179999999998,145.77347500000002 197.6957734375,145.34788164062502 197.4507375,144.94600937500002 197.1691578125,144.570326171875 196.8535,144.2233 196.8535,144.2233 196.50636113281251,143.90750605468747 196.13056406249999,143.6258171875 195.72857558593748,143.3806978515625 195.3028625,143.17461249999997 194.85589160156252,143.01002558593748 194.3901296875,142.88940156249998 193.9080435546875,142.81520488281248 193.4121,142.7899 193.4121,142.79729999999998 193.41160000000002,142.79729999999998 193.4104,142.79729999999998 193.4104,142.7899 192.91717871093752,142.81445507812498 192.4403484375,142.886421875 191.98205957031252,143.003477734375 191.5444625,143.1633 191.1297076171875,143.363566015625 190.73994531250003,143.601953125 190.3773259765625,143.87613867187497 190.044,144.1838 190.044,144.1838 189.73965878906253,144.52546484375 189.46887656250001,144.89676874999998 189.23381542968752,145.29536328125 189.0366375,145.71889999999996 188.8795048828125,146.16503046875 188.76457968750003,146.63140625 188.69402402343752,147.11567890625 188.67000000000002,147.6155 188.6774,147.6155 188.6774,147.6161 188.6774,154.3559 188.6774,156.22799999999998 186.8052,156.22799999999998 173.3257,156.22799999999998 173.3246,156.22799999999998 173.3246,156.2207 172.44287070312498,156.17623183593747 171.58699062500003,156.0460046875 170.761283984375,155.8343345703125 169.970075,155.5455375 169.217687890625,155.18392949218747 168.508446875,154.75382656249997 167.846676171875,154.2595447265625 167.2367,153.7054 167.2367,153.7054 166.68241523437501,153.09536875 166.18801562500002,152.4335125 165.75782070312502,151.7241625 165.39615000000003,150.97165 165.107323046875,150.18030625 164.895659375,149.3544625 164.765478515625,148.49845 164.7211,147.6166 164.71370000000002,147.6166 164.71370000000002,147.61610000000002 164.71370000000002,147.6149 164.7211,147.6149 164.76556816406253,146.73317910156248 164.8957953125,145.8773203125 165.1074654296875,145.05164199218748 165.3962625,144.26046250000002 165.75787050781253,143.50810019531252 166.18797343750003,142.7988734375 166.6822552734375,142.1371005859375 167.2364,141.52710000000002 167.2364,141.52710000000002 167.84643125,140.97284804687501 168.5082875,140.47847187500003 169.2176375,140.048291015625 169.97015,139.68662500000002 170.76149375,139.39779335937502 171.5873375,139.186115625 172.44335,139.055911328125 173.3252,139.0115 173.3252,139.00420000000003 173.32569999999998,139.00420000000003 173.3268,139.00420000000003 173.3268,139.0115 174.208529296875,139.05597207031252 175.064409375,139.18620781250002 175.89011601562498,139.39788652343753 176.681325,139.68668750000003 177.433712109375,140.04829003906252 178.142953125,140.4783734375 178.804723828125,140.9726169921875 179.41469999999998,141.5267 179.41469999999998,141.5267 179.96895195312499,142.136755859375 180.46332812499998,142.798615625 180.893508984375,143.507955078125 181.25517499999998,144.26045 181.54400664062499,145.051776171875 181.755684375,145.877609375 181.885888671875,146.733625390625 181.9303,147.6155 181.93759999999997,147.6155 181.93759999999997,147.6161 181.93759999999997,149.4699 180.07279999999997,149.4809 171.85069999999996,149.5296 171.83599999999996,145.79999999999998" fill="none" stroke="black" stroke-width="0.1" id="_new_35_1"/>
        <polygon points="232.627,145.751 238.6234,145.71540000000002 238.524969921875,145.4939146484375 238.415971875,145.2782546875 238.29673164062498,145.06875175781252 238.167575,144.86573750000002 238.028827734375,144.66954355468752 237.880815625,144.48050156250002 237.723864453125,144.29894316406254 237.5583,144.1252 237.5583,144.1252 237.2112408203125,143.809509375 236.83553281250002,143.52790625000003 236.4336427734375,143.28285625 236.0080375,143.076825 235.5611837890625,142.912278125 235.09554843749999,142.79168125 234.61359824218752,142.71750000000003 234.1178,142.6922 234.1178,142.6995 234.11669999999998,142.6995 234.1161,142.6995 234.1161,142.6922 233.62018515625,142.71750058593753 233.1381125,142.7916859375 232.67235234375,142.9122939453125 232.22537499999999,143.0768625 231.79965078125,143.28292949218752 231.39765,143.52803281250004 231.02184296875,143.80971035156253 230.6747,144.12550000000002 230.6747,144.12550000000002 230.3590423828125,144.47255917968752 230.0774640625,144.8482671875 229.8324318359375,145.25015722656252 229.62641250000001,145.67576250000002 229.4618728515625,146.1226162109375 229.3412796875,146.58825156250003 229.26709980468752,147.0702017578125 229.2418,147.56600000000003 229.2491,147.56600000000003 229.2491,147.56710000000004 229.2491,147.56760000000003 229.2418,147.56760000000003 229.267071875,148.06354375000004 229.34124375000002,148.54563125 229.46185,149.01139687500003 229.626425,149.45837500000002 229.832503125,149.88410000000002 230.07761875,150.28610625000002 230.35930625000003,150.66192812500003 230.67510000000001,151.00910000000002 230.67510000000001,151.00910000000002 231.022158984375,151.32475781250002 231.397865625,151.60633750000002 231.799751953125,151.8513734375 232.22535,152.0574 232.67219179687504,152.2219515625 233.13780937500002,152.3425625 233.619734765625,152.41676718750003 234.11550000000003,152.4421 234.11550000000003,152.43470000000002 234.11670000000004,152.43470000000002 234.11670000000004,152.4421 245.73940000000005,152.4841 245.73940000000005,147.6158 245.73940000000005,147.61520000000002 245.74680000000004,147.61520000000002 245.78915488281254,146.739730078125 245.91362656250004,145.88905937500004 246.11643808593755,145.06752148437502 246.39381250000002,144.27945 246.74197285156254,143.52917851562503 247.15714218750003,142.82104062500002 247.63554355468756,142.159369921875 248.17340000000004,141.54850000000002 248.17340000000004,141.54850000000002 248.77057714843755,140.98953828125002 249.42002343750005,140.49095625 250.11793613281253,140.05710859375 250.86051250000003,139.69235000000003 251.64394980468757,139.40103515625 252.46444531250003,139.18751875 253.31819628906254,139.05615546875 254.20140000000004,139.0113 254.20140000000004,139.00400000000002 254.20250000000004,139.00400000000002 254.20300000000003,139.00400000000002 254.20300000000003,139.0113 255.08490742187504,139.055678515625 255.940946875,139.185859375 256.76679414062505,139.397523046875 257.558125,139.68635 258.310615234375,140.04802070312502 259.019940625,140.478215625 259.681776953125,140.972615234375 260.2918,141.5269 260.2918,141.5269 260.845948828125,142.136871875 261.34024062500004,142.79863124999997 261.770355859375,143.50785625 262.131975,144.26022500000002 262.42077851562505,145.05141562500003 262.632446875,145.87710625 262.762660546875,146.732975 262.80710000000005,147.6147 262.81450000000007,147.6147 262.81450000000007,147.6158 259.0701000000001,147.6158 259.0701000000001,147.6147 259.0775000000001,147.6147 259.0521671875001,147.1189060546875 258.9779625000001,146.63696718749998 258.8573515625001,146.1713478515625 258.69280000000015,145.7245125 258.48677343750006,145.2989255859375 258.2417375000001,144.8970515625 257.96015781250014,144.5213548828125 257.6445000000001,144.1743 257.6445000000001,144.1743 257.29733222656256,143.8585060546875 256.9215203125001,143.57681718749998 256.5195263671876,143.33169785156247 256.0938125000001,143.1256125 255.6468408203126,142.96102558593748 255.18107343750012,142.84040156249998 254.69897246093763,142.76620488281247 254.20300000000012,142.74089999999998 254.20300000000012,142.74829999999997 254.20250000000013,142.74829999999997 254.20140000000012,142.74829999999997 254.20140000000012,142.74089999999998 253.71048437500014,142.76584140624996 253.2359000000001,142.83889999999997 252.7797656250001,142.95765234375 252.34420000000011,143.11967499999997 251.93132187500012,143.32254453124997 251.5432500000001,143.56383749999998 251.1821031250001,143.84113046875 250.8500000000001,144.152 250.8500000000001,144.152 250.5455611328126,144.49822578124997 250.27477031250012,144.87413749999996 250.0397662109376,145.27727421874997 249.8426875000001,145.70517499999997 249.6856728515626,146.15537890624998 249.57086093750007,146.62542499999998 249.5003904296876,147.11285234374998 249.4764000000001,147.6152 249.4838000000001,147.6152 249.4838000000001,147.61579999999998 249.4838000000001,154.35559999999998 249.4838000000001,156.22729999999999 247.6116000000001,156.2205 234.1167000000001,156.1717 234.1167000000001,156.17899999999997 234.11550000000008,156.17899999999997 234.11550000000008,156.1717 233.2337750000001,156.12722792968748 232.37790625000008,155.99699218749998 231.5522156250001,155.78531347656246 230.76102500000007,155.49651249999997 230.0086562500001,155.13490996093748 229.29943125000005,154.7048265625 228.63767187500008,154.2105830078125 228.0277000000001,153.6565 228.0277000000001,153.6565 227.4734480468751,153.04644394531252 226.9790718750001,152.38458281249999 226.5488910156251,151.6752396484375 226.1872250000001,150.92273749999998 225.8983933593751,150.1313994140625 225.6867156250001,149.3055484375 225.55651132812508,148.4495076171875 225.5121000000001,147.5676 225.5048000000001,147.5676 225.5048000000001,147.5671 225.5048000000001,147.566 225.5121000000001,147.566 225.5565720703126,146.6842419921875 225.6868078125001,145.8283484375 225.8984865234376,145.0026400390625 226.1872875000001,144.2114375 226.5488900390626,143.4590615234375 226.9789734375001,142.74983281250002 227.4732169921876,142.0880720703125 228.02730000000008,141.4781 228.02730000000008,141.4781 228.63735585937508,140.923848046875 229.29921562500007,140.42947187500002 230.00855507812508,139.99929101562503 230.76105000000007,139.637625 231.55237617187507,139.348793359375 232.37820937500007,139.13711562500004 233.23422539062508,139.006911328125 234.11610000000007,138.9625 234.11610000000007,138.95520000000002 234.11670000000007,138.95520000000002 234.11780000000007,138.95520000000002 234.11780000000007,138.9625 234.99955800781257,139.006972265625 235.85545156250006,139.13720937500003 236.68115996093758,139.348891796875 237.4723625000001,139.6377 238.22473847656258,139.999314453125 238.93396718750006,140.42941562500002 239.59572792968757,140.92368398437503 240.20570000000006,141.4778 240.20570000000006,141.4778 240.75995195312507,142.087823046875 241.25432812500006,142.749659375 241.68450898437504,143.458984765625 242.04617500000006,144.211475 242.33500664062507,145.00280585937503 242.54668437500004,145.82865312500002 242.67688867187508,146.68469257812498 242.72130000000007,147.5666 242.72860000000006,147.5666 242.72860000000006,147.56709999999998 242.72860000000006,149.4209 240.86380000000005,149.43189999999998 232.64170000000004,149.48069999999998 232.62700000000004,145.75099999999998" fill="none" stroke="black" stroke-width="0.1" id="_new_36_1"/>
    </g>
</svg>
