<!DOCTYPE svg PUBLIC "-//W3C//DTD SVG 1.1//EN" "http://www.w3.org/Graphics/SVG/1.1/DTD/svg11.dtd">
<svg xmlns="http://www.w3.org/2000/svg" width="297mm" height="210mm" viewBox="0 0 297 210">
    <defs id="_tag_186_"/>
    <g id="_12">
        <polygon points="84.9576,101.118 85.0137865234375,103.23951562499998 85.1235359375,105.37758749999999 85.2948205078125,107.53109062499999 85.53561250000001,109.6989 85.8538841796875,111.87989062499999 86.2576078125,114.0729375 86.75475566406251,116.276915625 87.3533,118.49069999999999 87.3533,118.49069999999999 87.382951171875,118.58799804687499 87.440396875,118.77389687499999 87.51583789062501,119.01709101562498 87.59947500000001,119.28627499999999 87.681508984375,119.550143359375 87.75214062500001,119.77739062499998 87.80157070312501,119.93671132812499 87.82000000000001,119.9968 87.82000000000001,119.9968 87.9277248046875,120.3589775390625 88.03464218750001,120.76675156249999 88.13654160156251,121.20705917968749 88.2292125,121.66683749999999 88.30844433593751,122.1330236328125 88.3700265625,122.59255468749998 88.40974863281251,123.03236777343749 88.4234,123.43939999999999 88.4234,123.43939999999999 88.38016269531249,124.7525478515625 88.2545203125,125.90713281250001 88.04413964843751,126.9284169921875 87.74668750000001,127.84166249999998 87.3598306640625,128.6721314453125 86.88123593750001,129.44508593749998 86.3085701171875,130.18578808593747 85.6395,130.9195 85.6395,130.9195 84.9298400390625,131.60255019531252 84.1904765625,132.2121390625 83.4135591796875,132.74127402343748 82.5912375,133.1829625 81.7156611328125,133.5302119140625 80.7789796875,133.7760296875 79.77334277343749,133.9134232421875 78.6909,133.9354 78.6909,133.9354 78.3378474609375,133.88751035156247 78.0063984375,133.77289531249997 77.70440332031251,133.59846074218748 77.4397125,133.37111249999998 77.2201763671875,133.09775644531248 77.05364531250001,132.7852984375 76.9479697265625,132.44064433593746 76.911,132.0707 76.911,132.0707 76.919737890625,131.889030859375 76.945409375,131.71229062499998 76.987201171875,131.54129257812497 77.0443,131.37685 77.11589257812501,131.219776171875 77.201165625,131.070884375 77.29930585937501,130.93098789062498 77.40950000000001,130.80089999999998 77.40950000000001,130.80079999999998 77.41090000000001,130.7995 77.41360000000002,130.7968 77.55810000000001,130.6574 77.5596,130.6561 80.8199,127.513 80.8198,127.5125 81.1259107421875,127.186920703125 81.39917968750001,126.832515625 81.6371494140625,126.451733984375 81.83736250000001,126.04702499999999 81.99736152343749,125.620837890625 82.1146890625,125.175621875 82.18688769531249,124.713826171875 82.2115,124.2379 82.2115,124.2379 82.11903984375,123.32105859375001 81.85386875,122.46704374999999 81.43430078125,121.69416953125 80.87865,121.02074999999999 80.20523046875,120.46509921875 79.43235625,120.04553125 78.57834140624999,119.78036015625 77.6615,119.6879 77.6615,119.6879 77.2072697265625,119.7103158203125 76.76579531249999,119.7761390625 76.3392013671875,119.8832333984375 75.9296125,120.0294625 75.5391533203125,120.2126900390625 75.16994843750001,120.43077968749999 74.8241224609375,120.68159511718748 74.5038,120.963 74.50319999999999,120.96239999999999 73.39789999999999,122.02819999999998 72.64829999999999,122.75109999999998 71.27699999999999,124.07349999999998 71.14240214843748,124.19946249999998 71.00612968749999,124.31428749999998 70.8621017578125,124.41623124999998 70.70423749999999,124.50354999999998 70.52645605468749,124.57449999999999 70.32267656249999,124.62733749999998 70.08681816406248,124.66031874999999 69.81279999999998,124.67169999999999 69.81279999999998,124.67169999999999 69.00146132812498,124.505133984375 68.43514062499997,124.05553437499998 68.08105585937497,123.39804882812498 67.90642499999998,122.60782499999999 67.87846601562498,121.760010546875 67.96439687499998,120.92975312499999 68.13143554687498,120.19220039062499 68.34679999999999,119.62249999999999 68.34679999999999,119.62249999999999 69.0231732421875,117.9016416015625 69.55527343749999,115.83149531249998 69.95465878906248,113.5021044921875 70.23288749999999,111.0035125 70.40151777343749,108.42576269531249 70.47210781249998,105.85889843749999 70.45621582031248,103.39296308593748 70.3654,101.118 84.9576,101.118" fill="none" stroke="black" stroke-width="0.1" id="_new_173_1"/>
        <circle cx="77.6615" cy="124.238" r="4.550067149999999" fill="none" stroke="black" stroke-width="0.1" id="_tag_188_"/>
        <circle cx="77.6615" cy="124.238" r="4.550067149999999" fill="none" stroke="black" stroke-width="0.1" id="center_00"/>
        <polyline points="68.3367,119.613 69.05878984374999,118.38074140625 69.9377,117.26395 70.95837890624999,116.27767734375 72.105775,115.43697499999999 73.36483671875,114.75689453125 74.7205125,114.2524875 76.15775078125,113.93880546874999 77.66149999999999,113.8309 77.66149999999999,113.8309 79.75850820312499,114.042370703125 81.71180937499999,114.648859375 83.47951835937499,115.608480859375 85.01974999999999,116.87935 86.29061914062498,118.419581640625 87.25024062499999,120.187290625 87.85672929687499,122.140591796875 88.06819999999999,124.2376 88.06819999999999,124.2376 88.0298458984375,125.1370984375 87.91687968749999,126.01534375 87.73244550781249,126.8691859375 87.47968749999998,127.695475 87.16174980468749,128.4910609375 86.78177656249999,129.25279375000002 86.34291191406248,129.97752343750003 85.8483,130.6621" fill="none" stroke="black" stroke-width="0.1" id="_new_176_1"/>
        <polygon points="84.1615,99.2376 83.6018,112.3451 83.42776777343751,111.3862890625 82.9520796875,110.6657625 82.2443486328125,110.1494796875 81.3741875,109.80340000000001 80.41120917968749,109.5934828125 79.4250265625,109.48568750000001 78.4852525390625,109.44597343750002 77.6615,109.44030000000001 77.6615,109.44030000000001 76.8377474609375,109.44597343750002 75.89797343750001,109.48568750000001 74.91179082031252,109.5934828125 73.9488125,109.80340000000001 73.0786513671875,110.1494796875 72.3709203125,110.6657625 71.8952322265625,111.3862890625 71.72120000000001,112.3451 71.1615,99.2376 84.1615,99.2376" fill="none" stroke="black" stroke-width="0.1" id="_new_177_1"/>
    </g>
</svg>
