<!DOCTYPE svg PUBLIC "-//W3C//DTD SVG 1.1//EN" "http://www.w3.org/Graphics/SVG/1.1/DTD/svg11.dtd">
<svg xmlns="http://www.w3.org/2000/svg" width="297mm" height="210mm" viewBox="0 0 297 210">
    <defs id="_tag_36_"/>
    <g id="Ebene_x0020_1">
        <g id="_130926696">
            <polygon points="93.3517,73.8973 106.014,79.5943 115.529,78.843 181.797,71.4597 185.92,70.5709 189.095,68.7083 192.833,66.5237 198.276,63.5747 204.418,60.609 210.065,58.1384 215.586,56.4055 220.756,54.7894 230.269,52.0187 247.004,50.4873 246.818,54.5909 240.112,56.575 231.728,57.6869 225.164,58.8584 217.903,61.1287 209.885,64.1688 201.899,67.858 193.476,72.9286 187.052,77.9138 183.946,80.1048 179.814,81.0012 107.448,88.9145 104.412,88.9843 101.027,88.3065 97.7563,87.4481 94.5596,86.2838 90.7254,82.6743" fill="none" stroke="black" stroke-width="0.1" id="_130435848"/>
            <polygon points="252.989,48.5385 272.562,48.2687 275.129,50.1617 272.11,53.7428 262.359,55.8908 255.772,56.3619 241.137,56.9014 233.6,53.5391 229.28,50.4125" fill="none" stroke="black" stroke-width="0.1" id="_130435744"/>
            <polygon points="115.779,71.0144 114.59,72.4884 112.306,77.0835 109.673,80.6148 107.474,81.8239 105.982,82.5538 100.853,83.9311 98.0775,84.6321 93.6797,85.4556 90.3101,85.1052 88.6505,84.5397 82.6372,81.4927 76.1431,77.7309 56.8774,66.9554 46.3229,61.567 33.4038,56.0465 21.464,52.0787 10.1576,50.5874 11.1346,47.5096 13.4019,44.1012 15.4898,41.908 19.2384,39.8403 25.0415,38.7774 33.9352,38.3972 44.4535,38.7524 55.4251,39.4547 107.209,40.4839 138.96,40.3618 223.469,38.7742 245.468,38.6539 259.619,38.7086 265.374,38.8963 270.601,40.0746 275.878,42.218 280.547,45.1447 283.202,47.9959 285.158,52.1376 284.042,54.055 254.977,53.2943 226.906,53.6157 206.028,54.3796 191.251,55.4349 175.316,56.8744 159.688,59.3778 142.455,62.9405 129.337,65.9108 121.501,68.1716 117.75,69.6972" fill="none" stroke="black" stroke-width="0.1" id="_130927408"/>
            <ellipse cx="138.96" cy="40.3618" rx="17.4175" ry="17.4175" fill="none" stroke="black" stroke-width="0.1" id="center_00"/>
        </g>
        <g id="_129821232">
            <polygon points="141.255,101.547 140.578,100.647 139.862,99.7915 139.106,98.9786 138.312,98.2081 137.481,97.4791 136.614,96.7908 135.712,96.1427 134.776,95.5337 134.503,95.2087 134.414,94.8183 134.492,94.3966 134.819,94.0918 137.746,92.4607 140.815,91.2173 143.989,90.3619 147.233,89.8953 150.51,89.8178 153.785,90.13 157.022,90.8323 160.184,91.9254 160.525,92.1954 160.69,92.5685 160.653,93.016 160.45,93.373 159.635,94.1283 158.855,94.9172 158.115,95.7402 157.415,96.5973 156.759,97.4888 156.149,98.4149 155.588,99.3759 155.077,100.372" fill="none" stroke="black" stroke-width="0.1" id="path159"/>
            <polyline points="154.037,100.461 142.843,101.412 142.887,101.819 143.108,102.343 143.706,102.713 144.202,102.751 144.991,102.669 146.106,102.564 147.426,102.445 148.829,102.323 150.195,102.206 151.402,102.104 152.329,102.026 152.855,101.983 153.313,101.89 153.849,101.475 154.028,100.96 154.024,100.528" fill="none" stroke="black" stroke-width="0.1" id="path171"/>
            <polygon points="141.229,71.2503 142.138,71.2399 142.964,71.1566 143.903,71.0403 144.853,70.9054 145.714,70.7664 146.385,70.6377 146.887,70.4382 146.718,70.0361 146.148,69.8979 145.752,69.8335 145.304,69.769 144.843,69.7135 144.407,69.6765 143.768,69.6952 143.205,69.861 142.484,70.1608 141.815,70.4818 141.406,70.7114 141.089,70.9954" fill="none" stroke="black" stroke-width="0.1" id="path1045"/>
            <polygon points="136.536,82.1479 132.602,82.6234 129.629,83.0073 127.482,83.3119 126.029,83.5499 125.134,83.7339 124.665,83.8767 125.413,92.2031 125.634,92.5679 126.046,92.6733 132.097,91.9826 133.161,91.2756 134.011,90.7322 134.881,90.216 135.768,89.7278 136.672,89.2685 137.59,88.8387 138.522,88.4396 139.464,88.0718 139.386,87.3793 139.303,86.6493 139.203,85.7842 139.096,84.8744 138.993,84.0104 138.903,83.2826 138.835,82.7816 138.565,82.2585 138.028,82.0487 137.32,82.047" fill="none" stroke="black" stroke-width="0.1" id="path1073"/>
            <polygon points="160.584,88.7387 166.993,88.0462 167.361,87.8507 167.47,87.4628 166.525,79.3482 166.311,78.9826 154.2,80.2503 153.713,80.2572 153.297,80.3151 152.672,80.579 152.326,81.0325 152.256,81.666 152.32,82.1418 152.405,82.8344 152.503,83.6573 152.603,84.5243 152.697,85.349 152.775,86.0449 152.829,86.5259 153.859,86.8417 154.856,87.013 155.84,87.2186 156.812,87.458 157.772,87.7303 158.72,88.0351 159.657,88.3714" fill="none" stroke="black" stroke-width="0.1" id="path1085"/>
            <polygon points="123.264,75.961 123.737,75.3233 123.264,75.961 123.366,75.5677 131.502,73.7672 137.953,71.6327 138.369,71.4639 138.728,71.2362 139.019,70.9414 139.232,70.5718 139.405,70.1142 139.508,69.7242 139.804,69.4305 147.742,68.4914 148.152,68.586 148.399,68.9454 148.605,69.2994 148.857,69.6371 149.195,69.8973 149.577,70.0811 149.99,70.1957 156.748,70.7981 164.659,70.5498 165.107,70.7463 165.541,74.2957 165.424,74.724 165.036,75.202 164.218,75.537 163.467,75.645 162.355,75.7975 161.01,75.9715 159.559,76.1436 158.13,76.2906 156.853,76.3896 155.855,76.4171 155.263,76.3501 154.681,76.0094 154.202,75.5908 153.644,75.1551 153.278,74.9498 152.824,74.7631 152.336,74.6396 151.776,74.5929 151.154,74.6155 150.482,74.6998 149.769,74.8379 149.027,75.0225 148.266,75.2459 147.498,75.5004 146.815,75.7302 146.283,75.8934 145.869,76.0028 145.279,76.1123 144.799,76.1621 144.15,76.241 143.675,76.3029 143.082,76.3295 142.659,76.3145 142.109,76.2729 141.398,76.1984 140.583,76.1208 139.786,76.0717 139.019,76.0568 138.292,76.0816 137.614,76.1519 136.997,76.2734 136.45,76.4516 135.985,76.6923 135.599,76.9843 135.299,77.2689 134.863,77.8133 134.488,78.3198 133.988,78.7825 133.419,78.9863 132.435,79.1911 131.163,79.3891 129.734,79.5726 128.277,79.7337 126.923,79.8645 125.802,79.9574 125.042,80.0044 124.552,79.9925 123.893,79.724 123.568,79.3196 123.403,78.4527 123.362,77.9364 123.33,77.4334 123.304,76.9676 123.286,76.5634 123.266,76.036" fill="none" stroke="black" stroke-width="0.1" id="path1033"/>
        </g>
    </g>
</svg>
