<!DOCTYPE svg PUBLIC "-//W3C//DTD SVG 1.1//EN" "http://www.w3.org/Graphics/SVG/1.1/DTD/svg11.dtd">
<svg xmlns="http://www.w3.org/2000/svg" width="297mm" height="210mm" viewBox="0 0 297 210">
    <defs id="_tag_37_"/>
    <g id="Ebene_x0020_1">
        <g id="_132896520">
            <polygon points="170.584,110.107 170.48552109375004,113.2180451171875 170.23268750000003,116.28901093750001 169.83484140625,119.3127431640625 169.301325,122.2820875 168.64148046875002,125.18988964843751 167.86464999999998,128.0289953125 166.98017578124998,130.7922501953125 165.9974,133.4725 165.9974,133.4725 165.4823615234375,134.27861875 164.6939796875,135.176425 163.6134423828125,136.02743125 162.2219375,136.69315 160.50065292968748,137.03509375 158.4307765625,136.914775 155.99349628906248,136.19370625 153.17,134.7334 153.17,134.7334 152.2263552734375,136.5233361328125 151.19864843749997,138.27580156249996 150.0974580078125,139.9855943359375 148.9333625,141.6475125 147.7169404296875,143.2563541015625 146.4587703125,144.8069171875 145.16943066406247,146.29399980468747 143.8595,147.7124 143.8595,147.7124 146.02130390625,149.95179160156252 147.39604375,152.0591890625 148.11306171875,154.0038763671875 148.30169999999998,155.7551375 148.09130078125,157.2822564453125 147.61120625,158.5545171875 146.99075859375,159.5412037109375 146.3593,160.2116 146.3593,160.2116 141.8268939453125,163.749319921875 136.9821703125,166.89880937499998 131.84773339843747,169.632550390625 126.4461875,171.923025 120.80013691406249,173.742715234375 114.93218593749998,175.064103125 108.86493886718749,175.85967070312498 102.62099999999998,176.1019 102.62099999999998,176.1019 102.03535175781246,176.16715625 101.45912656249997,176.20475625 100.89096621093748,176.218646875 100.32951249999998,176.21277500000002 99.77340722656247,176.1910875 99.22129218749998,176.15753125000003 98.67180917968749,176.11605312500004 98.12359999999998,176.0706 98.12359999999998,176.0706 97.16361484374998,175.939987109375 96.04880624999997,175.52759687500003 94.89676953124999,174.78550195312502 93.82509999999999,173.665775 92.95139296874999,172.12048867187502 92.39324374999998,170.101715625 92.26824765624998,167.561528515625 92.69399999999999,164.452 92.69399999999999,164.452 90.72137324218748,164.04180859375 88.76611718749999,163.59360625 86.83486816406248,163.10082578125 84.93426249999999,162.55689999999998 83.0709365234375,161.95526171875 81.2515265625,161.28934375 79.4826689453125,160.55257890624998 77.77099999999999,159.7384 77.77099999999999,159.7384 76.31909277343749,162.4990158203125 74.75002968749999,164.46678906250003 73.13023613281248,165.75684589843752 71.52613749999999,166.48431250000002 70.00415917968749,166.76431503906252 68.6307265625,166.71197968750002 67.47226503906248,166.4424326171875 66.59519999999999,166.07080000000002 66.59519999999999,166.07080000000002 61.244989453124994,162.25925976562502 56.29710937499999,158.003778125 51.78167460937499,153.33223867187502 47.72879999999999,148.272525 44.16860039062499,142.85252070312504 41.13119062499999,137.10010937500002 38.64668554687499,131.04317460937503 36.74519999999999,124.70960000000002 36.74519999999999,124.70960000000002 36.53911132812499,123.76930527343752 36.55587812499999,122.61437343750002 36.87921210937499,121.33499550781252 37.59282499999999,120.02136250000002 38.78042851562499,118.76366542968752 40.52573437499999,117.65209531250002 42.91245429687499,116.77684316406254 46.02429999999999,116.22810000000003 46.02429999999999,116.22810000000003 45.94691718749999,115.21563632812503 45.86956249999999,114.20310937500004 45.79222656249999,113.19054023437504 45.714899999999986,112.17795000000004 45.63757343749999,111.16535976562503 45.560237499999985,110.15279062500002 45.482882812499994,109.14026367187502 45.40549999999999,108.12780000000002 45.40549999999999,108.12780000000002 45.454259765625,107.15832851562503 45.50309687499999,106.18882187500003 45.55198554687499,105.21929179687503 45.60089999999999,104.24975000000002 45.64981445312499,103.28020820312501 45.69870312499999,102.31067812500001 45.74754023437498,101.34117148437501 45.79629999999999,100.37170000000002 45.79629999999999,100.37170000000002 42.76580195312499,99.83647636718753 40.44402812499999,98.93979843750003 38.74592148437499,97.78913066406251 37.586424999999984,96.49193750000002 36.880481640624986,95.15568339843752 36.54303437499998,93.88783281250002 36.48902617187499,92.79585019531251 36.63339999999999,91.98720000000002 36.63339999999999,91.98720000000002 38.478770703124994,85.58220839843752 40.945528124999996,79.44627343750001 43.99252773437499,73.6226173828125 47.57862499999999,68.15446250000002 51.66267539062499,63.08503105468752 56.20353437499999,58.45754531250002 61.16005742187499,54.31522753906252 66.49109999999999,50.70130000000002 66.49109999999999,50.70130000000002 67.26326953124999,50.22926074218751 68.34684374999999,49.88984843750002 69.67385859375,49.791971289062516 71.17634999999999,50.04453750000002 72.78635390624999,50.75645527343752 74.43590624999999,52.03663281250002 76.05704296874998,53.99397832031252 77.58179999999999,56.737400000000015 77.58179999999999,56.737400000000015 79.300354296875,55.93206406250001 81.071265625,55.179856250000014 82.89453164062499,54.48077656250001 84.77014999999999,53.83482500000001 86.69811835937499,53.242001562500015 88.67843437499998,52.702306250000014 90.71109570312498,52.21573906250001 92.79609999999998,51.78230000000001 92.79609999999998,51.78230000000001 92.29196308593748,48.70309609375002 92.34264218749999,46.19178750000002 92.83250957031248,44.20011640625001 93.64593749999997,42.67982500000002 94.66729824218748,41.58265546875001 95.7809640625,40.86035000000001 96.8713072265625,40.464650781250015 97.82269999999998,40.34730000000001 97.82269999999998,40.34730000000001 98.40860976562499,40.28136464843752 98.98649687499997,40.23916093750001 99.55903554687498,40.212779882812505 100.12889999999999,40.19431250000001 100.69876445312498,40.17584980468751 101.27130312499999,40.14948281250001 101.84919023437499,40.10730253906251 102.43509999999998,40.04140000000001 102.43509999999998,40.04140000000001 108.68045390624998,40.35438593750001 114.75220624999997,41.18932500000001 120.62814296874998,42.52102656250001 126.28604999999997,44.32430000000001 131.70371328124997,46.573954687500006 136.85891874999996,49.24480000000001 141.72945234374998,52.31164531250002 146.29309999999998,55.74930000000001 146.29309999999998,55.74930000000001 146.95584492187498,56.52556523437501 147.59830937499999,57.56787187500001 148.086212890625,58.85684882812501 148.28527499999996,60.37312500000001 148.061215234375,62.09732929687501 147.279753125,64.010090625 145.806608203125,66.09203789062501 143.5075,68.3238 143.5075,68.3238 144.93648222656248,69.81627207031251 146.29281406249999,71.3280390625 147.57774824218748,72.8683271484375 148.79253749999998,74.4463625 149.9384345703125,76.07137128906251 151.0166921875,77.7525796875 152.0285630859375,79.4992138671875 152.9753,81.32050000000001 152.9753,81.32050000000001 155.790991796875,79.91713632812501 158.23290937500002,79.20959687500002 160.31244101562498,79.074096484375 162.040975,79.38685000000001 163.429899609375,80.02407226562501 164.490603125,80.86197812500001 165.234473828125,81.77678242187501 165.6729,82.64470000000001 165.6729,82.64470000000001 166.76996718750001,85.44264531250002 167.72776875,88.28595625000001 168.5463046875,91.17463281250001 169.225575,94.10867500000002 169.7655796875,97.08808281250002 170.16631875000002,100.11285625000001 170.42779218750002,103.18299531250001 170.55,106.29850000000002 177.7604,107.54630000000002 178.2118,106.30620000000002 179.3231,105.09340000000002 180.8428,104.46390000000002 182.0766,103.88050000000003 183.5027,103.20620000000002 183.2569,100.16180000000003 180.4297,99.34700000000002 178.8287,98.96950000000002 177.53719999999998,97.95070000000003 176.8928,96.79900000000002 176.6811,95.49640000000002 176.9277,94.19990000000003 177.82999999999998,92.82450000000003 179.2291,91.95940000000003 181.65279999999998,90.29130000000004 180.9218,87.32580000000003 178.0006,86.97510000000003 176.3597,86.85920000000003 174.9216,86.06080000000003 174.10070000000002,85.02740000000003 173.68280000000001,83.77560000000003 173.71820000000002,82.45630000000003 174.38830000000002,80.95400000000002 175.6305,79.87570000000002 177.7552,77.84040000000002 176.558,75.03050000000002 173.6183,75.15300000000002 171.9801,75.30180000000001 170.4325,74.74440000000001 169.4565,73.85610000000001 168.8432,72.68750000000001 168.66649999999998,71.37970000000001 169.08689999999999,69.78940000000001 170.1401,68.52570000000001 171.9107,66.17600000000002 170.2783,63.59450000000002 167.3964,64.18690000000002 165.8033,64.59660000000002 164.18630000000002,64.29470000000002 163.08040000000003,63.57440000000002 162.28760000000003,62.51940000000002 161.90340000000003,61.25680000000002 162.06330000000003,59.61970000000002 162.90010000000004,58.20340000000002 164.27090000000004,55.600100000000026 162.24550000000005,53.313900000000025 159.49590000000006,54.36090000000002 157.98920000000007,55.02090000000002 156.34470000000007,54.982300000000016 155.13760000000008,54.44870000000002 154.18580000000009,53.534500000000016 153.60410000000007,52.34990000000001 153.49930000000006,50.708300000000015 154.09800000000007,49.176200000000016 155.03350000000006,46.38670000000002 152.66760000000005,44.45500000000002 150.12160000000006,45.92950000000002 148.74020000000004,46.82270000000002 147.11080000000004,47.04830000000002 145.83380000000005,46.71530000000002 144.74770000000007,45.96560000000002 143.98350000000008,44.889700000000026 143.61670000000007,43.286100000000026 143.96190000000007,41.677800000000026 144.43780000000007,38.774300000000025 141.79270000000005,37.24720000000003 139.51610000000005,39.11110000000003 138.29590000000005,40.21420000000003 136.72380000000004,40.698300000000025 135.40990000000005,40.57450000000002 134.21760000000006,40.00870000000002 133.29070000000007,39.06930000000002 132.67150000000007,37.54540000000002 132.75420000000005,35.902500000000025 132.75820000000004,32.960300000000025 129.90240000000006,31.877200000000023 127.95430000000006,34.082100000000025 126.92680000000006,35.36670000000002 125.45280000000005,36.09670000000002 124.13600000000005,36.18520000000002 122.86840000000005,35.81810000000002 121.80280000000005,35.039500000000025 120.94710000000005,33.634700000000024 120.76530000000005,31.999800000000022 120.29720000000005,29.09500000000002 117.30460000000005,28.48410000000002 115.73550000000004,30.97290000000002 114.92740000000005,32.40570000000002 113.58950000000004,33.36270000000002 112.30400000000004,33.66130000000002 110.99390000000004,33.50230000000002 109.81720000000004,32.90470000000002 108.74720000000005,31.655300000000018 108.30550000000005,30.07080000000002 107.37760000000006,27.27870000000002 104.32580000000006,27.155700000000017 103.17620000000005,29.86410000000002 102.60840000000005,31.40790000000002 101.44140000000004,32.56720000000002 100.22040000000004,33.06810000000002 98.90180000000004,33.12120000000002 97.64450000000004,32.72020000000002 96.38790000000003,31.65860000000002 95.69780000000003,30.165500000000023 94.33390000000003,27.558400000000024 91.30190000000003,27.926500000000022 90.60170000000004,30.784200000000023 90.28890000000004,32.39920000000002 89.32290000000005,33.730600000000024 88.19810000000005,34.420900000000024 86.90500000000006,34.68490000000003 85.59970000000006,34.490700000000025 84.18910000000005,33.644400000000026 83.26840000000006,32.28130000000002 81.50400000000006,29.92680000000002 78.57030000000006,30.77660000000002 78.33750000000006,33.70960000000002 78.28780000000006,35.35380000000002 77.54790000000006,36.82290000000002 76.54840000000006,37.68470000000002 75.31450000000005,38.152700000000024 73.99490000000006,38.17040000000002 72.46680000000006,37.56140000000002 71.33930000000007,36.36360000000002 69.22010000000006,34.32260000000002 66.46070000000006,35.63200000000002 66.70150000000005,38.56430000000002 66.91620000000005,40.195200000000014 66.42150000000005,41.76400000000002 65.57320000000006,42.77500000000002 64.43030000000006,43.43480000000002 63.13060000000006,43.664000000000016 61.52470000000006,43.308000000000014 60.21970000000006,42.30660000000002 57.800500000000056,40.63200000000002 55.28690000000006,42.36700000000002 55.99480000000006,45.22280000000002 56.46840000000006,46.79810000000002 56.23180000000006,48.42590000000002 55.55660000000006,49.55990000000002 54.53440000000006,50.39450000000002 53.28830000000006,50.82920000000002 51.646000000000065,50.73540000000002 50.19730000000006,49.95630000000002 47.54080000000006,48.69150000000002 45.338000000000065,50.807200000000016 46.49500000000006,53.51250000000002 47.215100000000064,54.99140000000002 47.24270000000006,56.63610000000002 46.758200000000066,57.86370000000002 45.88300000000007,58.85150000000002 44.72280000000006,59.48050000000002 43.086700000000064,59.65130000000002 41.53180000000006,59.11470000000002 38.70680000000006,58.29230000000002 36.87200000000006,60.73410000000002 38.447900000000054,63.21870000000002 39.395900000000054,64.56300000000002 39.68690000000005,66.18200000000002 39.40560000000005,67.47140000000002 38.70030000000005,68.58680000000001 37.65600000000005,69.39370000000001 36.06850000000005,69.82480000000001 34.44760000000005,69.54460000000002 31.52730000000005,69.18600000000002 30.10790000000005,71.89040000000003 32.06190000000005,74.09010000000004 33.213300000000054,75.26490000000004 33.76030000000005,76.81620000000004 33.68950000000005,78.13400000000004 33.17220000000005,79.34820000000005 32.270900000000054,80.31210000000004 30.773100000000053,80.99230000000004 29.128300000000053,80.97570000000005 26.18830000000005,81.09020000000005 25.221100000000053,83.98730000000005 27.502600000000054,85.84510000000004 28.827600000000054,86.81990000000005 29.616300000000052,88.26340000000005 29.757800000000053,89.57560000000005 29.442000000000053,90.85690000000005 28.706900000000054,91.95300000000006 27.337700000000055,92.86460000000005 25.711500000000054,93.11210000000005 22.827900000000053,93.69670000000005 22.338000000000054,96.71150000000004 24.888000000000055,98.17920000000004 26.352100000000053,98.92890000000004 27.362200000000055,100.22720000000004 27.712400000000056,101.49960000000004 27.606200000000054,102.81510000000004 27.056500000000053,104.01480000000004 25.851200000000052,105.13430000000004 24.285700000000052,105.63940000000004 21.53330000000005,106.67910000000003 21.53330000000005,109.73330000000003 24.285700000000052,110.77300000000002 25.851200000000052,111.27800000000002 27.056500000000053,112.39750000000002 27.606200000000054,113.59720000000002 27.712400000000056,114.91270000000002 27.362200000000055,116.18510000000002 26.352100000000053,117.48340000000002 24.888000000000055,118.23310000000002 22.338000000000054,119.70080000000002 22.827900000000053,122.71560000000001 25.711500000000054,123.3002 27.337700000000055,123.5477 28.706900000000054,124.45930000000001 29.442000000000053,125.55540000000002 29.757800000000053,126.83670000000002 29.616300000000052,128.14890000000003 28.827600000000054,129.59240000000003 27.502600000000054,130.5672 25.221100000000053,132.425 26.18830000000005,135.3221 29.128300000000053,135.4366 30.773100000000053,135.42 32.270900000000054,136.1002 33.17220000000005,137.0641 33.68950000000005,138.2783 33.76030000000005,139.5961 33.213300000000054,141.1474 32.06190000000005,142.3222 30.10790000000005,144.52190000000002 31.52730000000005,147.2263 34.44760000000005,146.8677 36.06850000000005,146.5875 37.65600000000005,147.0186 38.70030000000005,147.8255 39.40560000000005,148.9409 39.68690000000005,150.2303 39.395900000000054,151.8493 38.447900000000054,153.1936 36.87200000000006,155.6782 38.70680000000006,158.12 41.53180000000006,157.29760000000002 43.086700000000064,156.76100000000002 44.72280000000006,156.93180000000004 45.88300000000007,157.56080000000003 46.758200000000066,158.54860000000002 47.24270000000006,159.77620000000002 47.215100000000064,161.42090000000002 46.49500000000006,162.89980000000003 45.338000000000065,165.60510000000002 47.54080000000006,167.72080000000003 50.19730000000006,166.45600000000002 51.646000000000065,165.67690000000002 53.28830000000006,165.58310000000003 54.53440000000006,166.01780000000002 55.55660000000006,166.85240000000002 56.23180000000006,167.9864 56.46840000000006,169.6142 55.99480000000006,171.1895 55.28690000000006,174.0453 57.800500000000056,175.7803 60.21970000000006,174.1057 61.52470000000006,173.10430000000002 63.13060000000006,172.74830000000003 64.43030000000006,172.97750000000002 65.57320000000006,173.6373 66.42150000000005,174.6483 66.91620000000005,176.21710000000002 66.70150000000005,177.848 66.46070000000006,180.7803 69.22010000000006,182.08970000000002 71.33930000000007,180.04870000000003 72.46680000000006,178.85090000000002 73.99490000000006,178.24190000000002 75.31450000000005,178.2596 76.54840000000006,178.7276 77.54790000000006,179.58939999999998 78.28780000000006,181.05849999999998 78.33750000000006,182.7027 78.57030000000006,185.63569999999999 81.50400000000006,186.48549999999997 83.26840000000006,184.13099999999997 84.18910000000005,182.76789999999997 85.59970000000006,181.92159999999996 86.90500000000006,181.72739999999996 88.19810000000005,181.99139999999997 89.32290000000005,182.68169999999998 90.28890000000004,184.01309999999998 90.60170000000004,185.6281 91.30190000000003,188.48579999999998 94.33390000000003,188.85389999999998 95.69780000000003,186.24679999999998 96.38790000000003,184.75369999999998 97.64450000000004,183.69209999999998 98.90180000000004,183.29109999999997 100.22040000000004,183.34419999999997 101.44140000000004,183.84509999999997 102.60840000000005,185.00439999999998 103.17620000000005,186.54819999999998 104.32580000000006,189.2566 107.37760000000006,189.1336 108.30550000000005,186.3415 108.74720000000005,184.757 109.81720000000004,183.5076 110.99390000000004,182.91 112.30400000000004,182.751 113.58950000000004,183.0496 114.92740000000005,184.0066 115.73550000000004,185.43939999999998 117.30460000000005,187.92819999999998 120.29720000000005,187.3173 120.76530000000005,184.4125 120.94710000000005,182.7776 121.80280000000005,181.3728 122.86840000000005,180.5942 124.13600000000005,180.2271 125.45280000000005,180.31560000000002 126.92680000000006,181.0456 127.95430000000006,182.33020000000002 129.90240000000006,184.53510000000003 132.75820000000004,183.45200000000003 132.75420000000005,180.5098 132.67150000000007,178.86690000000002 133.29070000000007,177.34300000000002 134.21760000000006,176.4036 135.40990000000005,175.83780000000002 136.72380000000004,175.71400000000003 138.29590000000005,176.19810000000004 139.51610000000005,177.30120000000005 141.79270000000005,179.16510000000005 144.43780000000007,177.63800000000006 143.96190000000007,174.73450000000005 143.61670000000007,173.12620000000004 143.98350000000008,171.52260000000004 144.74770000000007,170.44670000000005 145.83380000000005,169.69700000000006 147.11080000000004,169.36400000000006 148.74020000000004,169.58960000000005 150.12160000000006,170.48280000000005 152.66760000000005,171.95730000000006 155.03350000000006,170.02560000000005 154.09800000000007,167.23610000000005 153.49930000000006,165.70400000000004 153.60410000000007,164.06240000000003 154.18580000000009,162.87780000000004 155.13760000000008,161.96360000000004 156.34470000000007,161.43000000000004 157.98920000000007,161.39140000000003 159.49590000000006,162.05140000000003 162.24550000000005,163.09840000000003 164.27090000000004,160.81220000000002 162.90010000000004,158.20890000000003 162.06330000000003,156.79260000000002 161.90340000000003,155.15550000000002 162.28760000000003,153.89290000000003 163.08040000000003,152.83790000000002 164.18630000000002,152.1176 165.8033,151.81570000000002 167.3964,152.2254 170.2783,152.8178 171.9107,150.2363 170.1401,147.8866 169.08689999999999,146.6229 168.66649999999998,145.03259999999997 168.8432,143.7248 169.4565,142.5562 170.4325,141.6679 171.9801,141.1105 173.6183,141.2593 176.558,141.3818 177.7552,138.5719 175.6305,136.5366 174.38830000000002,135.45829999999998 173.71820000000002,133.956 173.68280000000001,132.6367 174.10070000000002,131.3849 174.9216,130.3515 176.3597,129.5531 178.0006,129.4372 180.9218,129.0865 181.65279999999998,126.121 179.2291,124.4529 177.82999999999998,123.5878 176.9277,122.2124 176.6811,120.91590000000001 176.8928,119.61330000000001 177.53719999999998,118.4616 178.8287,117.4428 180.4297,117.06530000000001 183.2569,116.2505 183.5027,113.2061 180.8428,111.9484 179.3231,111.31890000000001 178.2118,110.10620000000002 177.7604,108.86610000000002 170.584,110.10700000000001" fill="none" stroke="black" stroke-width="0.1" id="path21309"/>
            <g id="_tag_38_">
                <circle cx="102.587" cy="108.206" r="4.5" fill="none" stroke="black" stroke-width="0.1" id="center_00"/>
            </g>
            <polyline points="175.375,106.637 173.63361992187498,92.2276044921875 169.22378437499998,78.8246234375 162.427462890625,66.7100275390625 153.526625,56.1657875 142.80324023437498,47.4738740234375 130.53927812499998,40.91625781250001 117.01670820312499,36.7749095703125 102.5175,35.3318 102.5175,35.3318 87.83279492187499,36.812623828125 74.15450312499999,41.059571874999996 61.775909765624995,47.779358984375 50.990300000000005,56.6787 42.090958984375,67.46430976562499 35.371171875,79.84290312499999 31.124223828124997,93.52119492187501 29.6434,108.2059 29.6434,108.2059 31.124223828124997,122.890605078125 35.371171875,136.568896875 42.090958984375,148.947490234375 50.990300000000005,159.73309999999998 61.775909765624995,168.63244101562498 74.154503125,175.35222812499998 87.832794921875,179.59917617187497 102.5175,181.07999999999998 102.5175,181.07999999999998 117.00375488281249,179.639498828125 130.5154328125,175.505459375 142.7713412109375,168.959077734375 153.49028750000002,160.28154999999998 162.39107910156247,149.75407226562498 169.19252343749997,137.65784062499998 173.61342792968748,124.27405117187499 175.37259999999998,109.88389999999998" fill="none" stroke="black" stroke-width="0.1" id="_178426088"/>
        </g>
        <polygon points="206.053,108.74 206.5044,109.9801 207.6157,111.1929 209.1354,111.82239999999999 211.7953,113.08009999999999 211.6202,116.02939999999998 208.83030000000002,116.96369999999997 207.24680000000004,117.40909999999998 205.99980000000002,118.48189999999998 205.40490000000003,119.65999999999998 205.24880000000002,120.97039999999998 205.55040000000002,122.25519999999999 206.51040000000003,123.59089999999999 207.94510000000002,124.3958 210.43750000000003,125.9592 209.91490000000002,128.8672 207.03400000000002,129.465 205.40890000000002,129.7199 204.0438,130.6377 203.31380000000001,131.7371 203.0038,133.0199 203.15130000000002,134.3314 203.94660000000002,135.7713 205.276,136.74009999999998 207.566,138.58739999999997 206.7031,141.4131 203.7718,141.666 202.12800000000001,141.7269 200.6639,142.4768 199.80900000000003,143.4822 199.34940000000003,144.7193 199.34070000000003,146.03900000000002 199.96020000000001,147.5629 201.1656,148.68210000000002 203.2211,150.78730000000002 202.0301,153.49110000000002 199.0894,153.39550000000003 197.4499,153.26160000000002 195.90740000000002,153.8331 194.9396,154.7303 194.33700000000002,155.9044 194.1722,157.21380000000002 194.6071,158.80020000000002 195.67170000000002,160.0542 197.46380000000002,162.3877 195.96130000000002,164.9317 193.0526,164.4889 191.4404,164.162 189.84120000000001,164.5471 188.774,165.3235 188.0368,166.4181 187.7183,167.6988 187.9625,169.3256 188.8714,170.69660000000002 190.3748,173.22570000000002 188.582,175.57420000000002 185.74609999999998,174.7905 184.1839,174.2752 182.5504,174.4684 181.3989,175.1132 180.5373,176.1129 180.06959999999998,177.347 180.11969999999997,178.99120000000002 180.85999999999996,180.4601 182.05379999999997,183.1493 179.99579999999997,185.2692 177.27249999999998,184.15560000000002 175.7822,183.4592 174.13729999999998,183.45780000000002 172.9176,183.9618 171.94389999999999,184.85260000000002 171.3335,186.02270000000001 171.1888,187.6613 171.75009999999997,189.2075 172.61749999999998,192.019 170.32319999999999,193.88060000000002 167.7507,192.45270000000002 166.3533,191.585 164.72,191.3891 163.4493,191.74530000000001 162.37699999999998,192.5147 161.63259999999997,193.6044 161.29509999999996,195.2143 161.66959999999997,196.8161 162.19839999999996,199.7104 159.69999999999996,201.2876 157.31439999999995,199.5655 156.02949999999996,198.5385 154.43079999999995,198.1508 153.12689999999995,198.3543 151.97119999999995,198.9914 151.10309999999996,199.9854 150.57749999999996,201.5442 150.75999999999996,203.179 150.94269999999997,206.1155 148.2753,207.3862 146.1102,205.394 144.95569999999998,204.22220000000002 143.4141,203.6482 142.09529999999998,203.696 140.87229999999997,204.192 139.89269999999996,205.0763 139.18649999999997,206.562 139.17429999999996,208.20690000000002 139.00839999999997,211.14440000000002 136.20949999999996,212.09070000000003 134.29519999999997,209.85640000000004 133.28739999999996,208.55630000000005 131.82459999999998,207.80400000000006 130.50929999999997,207.69550000000007 129.23629999999997,208.04330000000007 128.15889999999996,208.80560000000008 127.28199999999995,210.19730000000007 127.07529999999996,211.82920000000007 126.56319999999995,214.72650000000007 123.67199999999995,215.33510000000007 122.03539999999995,212.89010000000007 121.18839999999996,211.48000000000008 119.82479999999995,210.55990000000008 118.53159999999995,210.2966000000001 117.22639999999996,210.49140000000008 116.06649999999996,211.1210000000001 115.03109999999997,212.3992000000001 114.63279999999996,213.9952000000001 113.78159999999995,216.81160000000008 110.83879999999995,217.0739000000001 109.50279999999995,214.4525000000001 108.82849999999995,212.9521000000001 107.58329999999995,211.87720000000007 106.33039999999995,211.46280000000007 105.01119999999996,211.50190000000006 103.78499999999995,211.98980000000006 102.60569999999996,213.13660000000007 102.02149999999996,214.67430000000007 100.84319999999997,217.37030000000007 97.88989999999997,217.28270000000006 96.87339999999998,214.52170000000007 96.38129999999998,212.95210000000006 95.27199999999998,211.73740000000006 94.07679999999998,211.17770000000007 92.76229999999998,211.06060000000008 91.48699999999998,211.4000000000001 90.18029999999997,212.3993000000001 89.41839999999998,213.8571000000001 87.92939999999997,216.3948000000001 85.00729999999997,215.9585000000001 84.32439999999997,213.0966000000001 84.02139999999997,211.4798000000001 83.06359999999997,210.1426000000001 81.94299999999997,209.4454000000001 80.65159999999997,209.17360000000008 79.34509999999997,209.3598000000001 77.92939999999997,210.1975000000001 77.00039999999997,211.5550000000001 75.22169999999997,213.8987000000001 72.37169999999998,213.12000000000012 72.03209999999997,210.19740000000013 71.92249999999997,208.55610000000013 71.12949999999996,207.11490000000012 70.09919999999997,206.2901000000001 68.84899999999996,205.86750000000012 67.52959999999996,205.8979000000001 66.02479999999996,206.5623000000001 64.94179999999996,207.8003000000001 62.89839999999996,209.9173000000001 60.160499999999956,208.8069000000001 60.16889999999996,205.86470000000008 60.254199999999955,204.2219000000001 59.63719999999996,202.6971000000001 58.711799999999954,201.7562000000001 57.520299999999956,201.1887000000001 56.20659999999996,201.0628000000001 54.63379999999996,201.54450000000008 53.41189999999996,202.6458000000001 51.13249999999996,204.5062000000001 48.545099999999955,203.0798000000001 48.901499999999956,200.15920000000008 49.18049999999996,198.53810000000007 48.74819999999996,196.95100000000008 47.940499999999965,195.90730000000008 46.824499999999965,195.20280000000008 45.534899999999965,194.92250000000007 43.91619999999997,195.21480000000008 42.572599999999966,196.1638000000001 40.08919999999996,197.7416000000001 37.68869999999996,196.0191000000001 38.38789999999996,193.1612000000001 38.85669999999996,191.5845000000001 38.61519999999996,189.9574000000001 37.936599999999956,188.8255000000001 36.91179999999996,187.99390000000008 35.66439999999996,187.56300000000007 34.022399999999955,187.66180000000008 32.57599999999996,188.4453000000001 29.92339999999996,189.71830000000008 27.74349999999996,187.72400000000007 28.775899999999957,184.96880000000007 29.42779999999996,183.45860000000008 29.38039999999996,181.81440000000006 28.84049999999996,180.61010000000007 27.92119999999996,179.66320000000007 26.73349999999996,179.08780000000007 25.09139999999996,178.99170000000007 23.56249999999996,179.59860000000006 20.77799999999996,180.54890000000006 18.84919999999996,178.31090000000006 20.20019999999996,175.69710000000006 21.02619999999996,174.27460000000005 21.17359999999996,172.63630000000006 20.779899999999962,171.37670000000006 19.978999999999964,170.32770000000005 18.867799999999963,169.61580000000004 17.248499999999964,169.32620000000003 15.658599999999964,169.74800000000002 12.781199999999965,170.3623 11.130599999999964,167.9118 12.781299999999964,165.4762 13.769699999999965,164.16140000000001 14.109899999999964,162.55200000000002 13.867899999999963,161.2546 13.196799999999964,160.1183 12.177499999999965,159.28 10.603899999999964,158.8009 8.975199999999964,159.0317 6.045299999999964,159.3014 4.696199999999964,156.6729 6.623399999999964,154.4496 7.760399999999963,153.2609 8.288499999999964,151.703 8.201599999999964,150.3862 7.669599999999964,149.1784 6.756599999999963,148.2255 5.250699999999963,147.5636 3.606199999999963,147.6002 0.6649999999999632,147.5214 -0.36380000000003676,144.7518 1.8127999999999633,142.772 3.0823999999999634,141.72619999999998 3.7909999999999635,140.24169999999998 3.8605999999999634,138.92379999999997 3.4750999999999634,137.66159999999996 2.681199999999963,136.60739999999996 1.2641999999999631,135.77199999999996 -0.37310000000003685,135.61379999999997 -3.284400000000037,135.18779999999998 -3.9783000000000373,132.31589999999997 -1.5829000000000373,130.60749999999996 -0.1985000000000372,129.71909999999997 0.6807999999999628,128.32889999999998 0.9056999999999628,127.02839999999998 0.6721999999999627,125.72949999999997 0.008599999999962749,124.58879999999998 -1.2997000000000374,123.59169999999997 -2.9068000000000374,123.24099999999997 -5.747200000000037,122.47359999999998 -6.096700000000037,119.53979999999997 -3.5160000000000364,118.12669999999997 -2.0362000000000364,117.40829999999997 -0.9987000000000363,116.13179999999997 -0.6216000000000363,114.86709999999997 -0.6998000000000364,113.54969999999996 -1.2238000000000364,112.33849999999995 -2.4050000000000367,111.19369999999995 -3.959400000000037,110.65529999999995 -6.689100000000037,109.55739999999996 -6.689100000000037,106.60279999999996 -3.9594000000000373,105.50489999999996 -2.4050000000000376,104.96649999999997 -1.2238000000000375,103.82169999999996 -0.6998000000000375,102.61049999999996 -0.6216000000000375,101.29309999999995 -0.9987000000000374,100.02839999999995 -2.0362000000000373,98.75189999999995 -3.5160000000000373,98.03349999999995 -6.0967000000000375,96.62039999999995 -5.747200000000038,93.68659999999994 -2.906800000000038,92.91919999999995 -1.2997000000000378,92.56849999999994 0.008599999999962193,91.57139999999994 0.6721999999999622,90.43069999999994 0.9056999999999622,89.13179999999994 0.6807999999999622,87.83129999999994 -0.19850000000003776,86.44109999999995 -1.5829000000000377,85.55269999999994 -3.9783000000000377,83.84429999999995 -3.284400000000038,80.97239999999995 -0.37310000000003773,80.54639999999995 1.2641999999999622,80.38819999999996 2.6811999999999623,79.55279999999995 3.475099999999962,78.49859999999995 3.860599999999962,77.23639999999995 3.790999999999962,75.91849999999995 3.082399999999962,74.43399999999995 1.812799999999962,73.38819999999996 -0.3638000000000381,71.40839999999996 0.6649999999999618,68.63879999999996 3.6061999999999617,68.55999999999996 5.250699999999962,68.59659999999997 6.7565999999999615,67.93469999999996 7.669599999999962,66.98179999999996 8.201599999999962,65.77399999999996 8.288499999999962,64.45719999999996 7.7603999999999616,62.899299999999954 6.623399999999961,61.71059999999996 4.696199999999961,59.487299999999955 6.045299999999961,56.85879999999995 8.975199999999962,57.12849999999995 10.603899999999962,57.359299999999955 12.177499999999963,56.88019999999995 13.196799999999962,56.041899999999956 13.867899999999963,54.90559999999996 14.109899999999964,53.608199999999954 13.769699999999965,51.99879999999995 12.781299999999964,50.683999999999955 11.130599999999964,48.248399999999954 12.781199999999965,45.797899999999956 15.658599999999964,46.412199999999956 17.248499999999964,46.83399999999995 18.867799999999963,46.54439999999995 19.978999999999964,45.83249999999995 20.779899999999962,44.783499999999954 21.17359999999996,43.523899999999955 21.02619999999996,41.885599999999954 20.20019999999996,40.463099999999955 18.84919999999996,37.84929999999996 20.77799999999996,35.61129999999996 23.56249999999996,36.561599999999956 25.09139999999996,37.16849999999996 26.73349999999996,37.07239999999996 27.92119999999996,36.49699999999996 28.84049999999996,35.55009999999996 29.38039999999996,34.345799999999954 29.42779999999996,32.70159999999996 28.775899999999957,31.191399999999955 27.74349999999996,28.436199999999957 29.92339999999996,26.441899999999958 32.57599999999996,27.714899999999957 34.022399999999955,28.498399999999958 35.66439999999996,28.597199999999958 36.91179999999996,28.166299999999957 37.936599999999956,27.334699999999955 38.61519999999996,26.202799999999954 38.85669999999996,24.575699999999955 38.38789999999996,22.998999999999956 37.68869999999996,20.141099999999955 40.08919999999996,18.418599999999955 42.572599999999966,19.996399999999955 43.91619999999997,20.945399999999957 45.534899999999965,21.237699999999958 46.824499999999965,20.957399999999957 47.940499999999965,20.252899999999958 48.74819999999996,19.209199999999957 49.18049999999996,17.622099999999957 48.901499999999956,16.00099999999996 48.545099999999955,13.080399999999958 51.13249999999996,11.653999999999959 53.41189999999996,13.51439999999996 54.63379999999996,14.61569999999996 56.20659999999996,15.09739999999996 57.520299999999956,14.97149999999996 58.711799999999954,14.403999999999959 59.63719999999996,13.46309999999996 60.254199999999955,11.938299999999959 60.16889999999996,10.29549999999996 60.160499999999956,7.35329999999996 62.89839999999995,6.24289999999996 64.94179999999996,8.35989999999996 66.02479999999996,9.59789999999996 67.52959999999996,10.26229999999996 68.84899999999996,10.29269999999996 70.09919999999997,9.870099999999962 71.12949999999996,9.045299999999962 71.92249999999997,7.604099999999962 72.03209999999997,5.9627999999999615 72.37169999999998,3.0401999999999614 75.22169999999997,2.2614999999999617 77.00039999999997,4.605199999999962 77.92939999999997,5.962699999999962 79.34509999999997,6.800399999999962 80.65159999999997,6.986599999999962 81.94299999999997,6.714799999999962 83.06359999999997,6.0175999999999625 84.02139999999997,4.680399999999962 84.32439999999997,3.0635999999999624 85.00729999999997,0.20169999999996246 87.92939999999997,-0.23460000000003756 89.41839999999998,2.3030999999999624 90.18029999999997,3.760899999999962 91.48699999999998,4.760199999999962 92.76229999999998,5.099599999999962 94.07679999999998,4.982499999999963 95.27199999999998,4.422799999999962 96.38129999999998,3.2080999999999626 96.87339999999998,1.6384999999999625 97.88989999999997,-1.1225000000000376 100.84319999999997,-1.2101000000000375 102.02149999999996,1.4858999999999627 102.60569999999996,3.0235999999999628 103.78499999999995,4.170399999999963 105.01119999999996,4.658299999999962 106.33039999999995,4.697399999999963 107.58329999999995,4.282999999999963 108.82849999999995,3.208099999999963 109.50279999999995,1.7076999999999631 110.83879999999995,-0.9137000000000368 113.78159999999995,-0.6514000000000368 114.63279999999996,2.1649999999999627 115.03109999999997,3.760999999999963 116.06649999999996,5.039199999999963 117.22639999999996,5.668799999999963 118.53159999999995,5.863599999999963 119.82479999999995,5.6002999999999625 121.18839999999996,4.680199999999963 122.03539999999995,3.270099999999963 123.67199999999995,0.8250999999999631 126.56319999999995,1.4336999999999631 127.07529999999996,4.330999999999963 127.28199999999995,5.962899999999963 128.15889999999996,7.354599999999963 129.23629999999997,8.116899999999964 130.50929999999997,8.464699999999963 131.82459999999998,8.356199999999964 133.28739999999996,7.603899999999964 134.29519999999997,6.303799999999963 136.20949999999996,4.069499999999963 139.00839999999997,5.015799999999963 139.17429999999996,7.953299999999963 139.18649999999997,9.598199999999963 139.89269999999996,11.083899999999963 140.87229999999997,11.968199999999962 142.09529999999998,12.464199999999963 143.4141,12.511999999999963 144.95569999999998,11.937999999999963 146.1102,10.766199999999964 148.2753,8.773999999999964 150.94269999999997,10.044699999999963 150.75999999999996,12.981199999999964 150.57749999999996,14.615999999999964 151.10309999999996,16.174799999999966 151.97119999999995,17.168799999999965 153.12689999999995,17.805899999999966 154.43079999999995,18.009399999999964 156.02949999999996,17.621699999999965 157.31439999999995,16.594699999999964 159.69999999999996,14.872599999999965 162.19839999999996,16.449799999999964 161.66959999999997,19.344099999999965 161.29509999999996,20.945899999999966 161.63259999999997,22.555799999999966 162.37699999999998,23.645499999999966 163.4493,24.414899999999967 164.72,24.77109999999997 166.3533,24.575199999999967 167.7507,23.707499999999968 170.32319999999999,22.279599999999967 172.61749999999998,24.141199999999966 171.75009999999997,26.952699999999965 171.1888,28.498899999999963 171.3335,30.137499999999964 171.94389999999999,31.307599999999965 172.9176,32.198399999999964 174.13729999999998,32.70239999999996 175.7822,32.700999999999965 177.27249999999998,32.00459999999997 179.99579999999997,30.89099999999997 182.05379999999997,33.01089999999997 180.85999999999996,35.70009999999997 180.11969999999997,37.16899999999997 180.06959999999998,38.813199999999966 180.5373,40.047299999999964 181.3989,41.04699999999996 182.5504,41.69179999999996 184.1839,41.884999999999955 185.74609999999998,41.36969999999995 188.582,40.58599999999995 190.3748,42.93449999999995 188.8714,45.46359999999995 187.9625,46.83459999999995 187.7183,48.461399999999955 188.0368,49.74209999999996 188.774,50.83669999999996 189.84120000000001,51.61309999999996 191.4404,51.99819999999996 193.0526,51.67129999999996 195.96130000000002,51.22849999999996 197.46380000000002,53.77249999999996 195.67170000000002,56.10599999999996 194.6071,57.35999999999996 194.1722,58.946399999999954 194.33700000000002,60.25579999999995 194.9396,61.429899999999954 195.90740000000002,62.32709999999995 197.4499,62.89859999999995 199.0894,62.764699999999955 202.0301,62.66909999999996 203.2211,65.37289999999996 201.1656,67.47809999999996 199.96020000000001,68.59729999999996 199.34070000000003,70.12119999999996 199.34940000000003,71.44089999999996 199.80900000000003,72.67799999999995 200.6639,73.68339999999995 202.12800000000001,74.43329999999995 203.7718,74.49419999999995 206.7031,74.74709999999995 207.566,77.57279999999994 205.276,79.42009999999995 203.94660000000002,80.38889999999995 203.15130000000002,81.82879999999994 203.0038,83.14029999999994 203.31380000000001,84.42309999999993 204.0438,85.52249999999994 205.40890000000002,86.44029999999994 207.03400000000002,86.69519999999994 209.91490000000002,87.29299999999995 210.43750000000003,90.20099999999995 207.94510000000002,91.76439999999995 206.51040000000003,92.56929999999996 205.55040000000002,93.90499999999996 205.24880000000002,95.18979999999996 205.40490000000003,96.50019999999996 205.99980000000002,97.67829999999996 207.24680000000004,98.75109999999997 208.83030000000002,99.19649999999997 211.6202,100.13079999999997 211.7953,103.08009999999996 209.1354,104.33779999999996 207.6157,104.96729999999995 206.5044,106.18009999999995 206.053,107.42019999999995 194.5284,106.68159999999995 194.49901113281248,105.57208945312495 194.4516328125,104.45642187499993 194.38883496093752,103.33548085937494 194.3131875,102.21014999999994 194.2272603515625,101.08131289062494 194.1336234375,99.94985312499995 194.03484667968752,98.81665429687494 193.9335,97.68259999999995 193.9335,97.68259999999995 193.71559609375004,96.23175371093745 193.25037500000002,94.53802343749993 192.46754765625002,92.66550957031245 191.296825,90.67831249999995 189.66791796875,88.64053261718746 187.5105375,86.61627031249995 184.75439453125003,84.66962597656246 181.32920000000001,82.86469999999996 181.32920000000001,82.86469999999996 177.67373769531252,81.21835664062496 173.9633015625,79.90105937499996 170.2397427734375,78.95789492187495 166.5449125,78.43394999999995 162.9206619140625,78.37431132812496 159.4088421875,78.82406562499996 156.0513044921875,79.82829960937495 152.8899,81.43209999999996 152.8899,81.43209999999996 151.943162890625,79.61084257812496 150.93129062500003,77.86422187499997 149.85302929687504,76.18301523437496 148.70712500000002,74.55799999999996 147.49232382812502,72.97995351562496 146.207371875,71.43965312499996 144.851015234375,69.92787617187496 143.42200000000003,68.43539999999996 143.42200000000003,68.43539999999996 146.01766425781253,65.96429003906246 148.06387031250003,63.10330781249996 149.59843808593754,59.90937480468746 150.65918750000003,56.43941249999996 151.28393847656253,52.75034238281246 151.51051093750004,48.89908593749996 151.3767248046875,44.94256464843747 150.92040000000003,40.937699999999964 150.92040000000003,40.937699999999964 150.24767890625003,37.26257675781247 149.24036875000002,34.142539062499964 147.97913671875,31.534659960937464 146.54465000000002,29.396012499999966 145.01757578125003,27.683669726562464 143.47858125000002,26.354704687499964 142.00833359375,25.366190429687467 140.68750000000003,24.675199999999965 140.68750000000003,24.675199999999965 138.23936894531252,23.594478710937466 135.77224531250005,22.582142187499965 133.28874589843753,21.643481445312464 130.79148750000002,20.783787499999967 128.28308691406255,20.008351367187466 125.76616093750003,19.322464062499964 123.2433263671875,18.731416601562465 120.71720000000002,18.240499999999965 120.71720000000002,18.240499999999965 119.24437519531251,17.995258984374964 117.46345156250001,17.917828124999964 115.41474277343751,18.083608203124967 113.1385625,18.567999999999962 110.67522441406251,19.446404296874963 108.06504218750001,20.794221874999966 105.34832949218752,22.686853515624964 102.56540000000001,25.199699999999964 102.56540000000001,25.199699999999964 99.95637675781252,28.282432617187464 97.61138281250001,31.481648437499967 95.59514433593752,34.77539941406246 93.97238750000001,38.14173749999997 92.80783847656251,41.558714648437466 92.16622343750001,45.00438281249997 92.11226855468752,48.45679394531246 92.71070000000002,51.89399999999996 92.71070000000002,51.89399999999996 90.62569570312502,52.32741035156246 88.59303437500002,52.81396406249996 86.61271835937501,53.35365761718746 84.68475000000001,53.94648749999996 82.80913164062503,54.592450195312466 80.98586562500002,55.291542187499964 79.21495429687502,56.043759960937464 77.49640000000002,56.849099999999964 77.49640000000002,56.849099999999964 75.91612207031253,53.76915507812496 73.79057656250002,51.036003124999965 71.18833339843752,48.642193359374964 68.17796250000002,46.580274999999965 64.82803378906252,44.84279726562497 61.207117187500025,43.42230937499996 57.38378261718752,42.311360546874965 53.42660000000002,41.50249999999996 53.42660000000002,41.50249999999996 49.680428515625024,41.00221132812496 46.35114687500002,41.00940312499996 43.42755429687502,41.42782460937496 40.898450000000025,42.16122499999996 38.75263320312502,43.11335351562496 36.97890312500003,44.18795937499996 35.566058984375026,45.28879179687496 34.502900000000025,46.319599999999966 34.502900000000025,46.319599999999966 32.75935039062502,48.27778261718747 31.093146875000023,50.29319843749997 29.497757421875026,52.359199414062466 27.966650000000026,54.46913749999997 26.493292578125025,56.61636464843747 25.071153125000023,58.79423281249997 23.693699609375027,60.99609394531247 22.354400000000027,63.21529999999997 22.354400000000027,63.21529999999997 21.679187890625027,64.56253925781247 21.075509375000024,66.24239531249997 20.627788671875024,68.23962558593747 20.420450000000027,70.53898749999998 20.537917578125025,73.12523847656247 21.064615625000027,75.98313593749997 22.08496835937503,79.09743730468747 23.683400000000027,82.45289999999997 23.683400000000027,82.45289999999997 25.685611718750028,85.96062578124997 27.93584375000003,89.24470624999998 30.417403906250026,92.23783359374997 33.11360000000003,94.87269999999997 36.007739843750024,97.08199765624997 39.08313125000003,98.79841874999997 42.323082031250024,99.95465546874998 45.710900000000024,100.48339999999997 45.710900000000024,100.48339999999997 45.662140234375016,101.45286738281247 45.61330312500002,102.42236406249998 45.564414453125025,103.39188183593748 45.515500000000024,104.36141249999997 45.466585546875024,105.33094785156248 45.417696875000026,106.30047968749997 45.36885976562503,107.26999980468747 45.320100000000025,108.23949999999998 45.320100000000025,108.23949999999998 45.39748281250003,109.25193085937498 45.47483750000002,110.26443437499998 45.552173437500024,111.27698945312498 45.62950000000002,112.28957499999997 45.70682656250003,113.30216992187498 45.78416250000002,114.31475312499998 45.86151718750003,115.32730351562498 45.938900000000025,116.33979999999998 45.938900000000025,116.33979999999998 42.44694746093752,116.86296171874997 39.145610937500024,118.01471249999997 36.04065957031253,119.72656328124998 33.137862500000026,121.93002499999997 30.442988867187527,124.55660859374997 27.961807812500027,127.53782499999998 25.700088476562524,130.80518515624996 23.663600000000024,134.29019999999997 23.663600000000024,134.29019999999997 22.06953847656252,137.72939042968747 21.070345312500024,140.89595468749997 20.573870117187525,143.77608222656247 20.487962500000023,146.35596249999998 20.720472070312525,148.62178496093748 21.17924843750002,150.55973906249997 21.772141210937523,152.15601425781247 22.407000000000025,153.39679999999998 22.407000000000025,153.39679999999998 23.729872265625026,155.76823183593748 25.119234375000023,158.0610109375 26.57766679687502,160.2804376953125 28.107750000000024,162.43181249999998 29.712064453125024,164.5204357421875 31.39319062500002,166.55160781249998 33.15370898437503,168.53062910156245 34.99620000000002,170.4628 34.99620000000002,170.4628 35.975368359375025,171.50269863281247 37.32839062500002,172.60842031249996 39.06118007812502,173.68512871093748 41.179650000000024,174.63798749999995 43.689713671875026,175.37216035156248 46.597284375000015,175.79281093749998 49.908275390625015,175.80510292968748 53.62860000000002,175.3142 53.62860000000002,175.3142 57.62925058593752,174.44423027343748 61.480298437500025,173.2899109375 65.11461269531252,171.8415517578125 68.46506250000002,170.0894625 71.46451699218753,168.0239529296875 74.04584531250003,165.6353328125 76.14191660156251,162.9139119140625 77.68560000000002,159.85 77.68560000000002,159.85 79.39726894531253,160.66418300781248 81.16612656250001,161.4009578125 82.98553652343752,162.0668880859375 84.84886250000002,162.6685375 86.74946816406252,163.21246972656252 88.68071718750002,163.70524843750002 90.63597324218752,164.1534373046875 92.60860000000002,164.5636 92.60860000000002,164.5636 92.08464628906252,167.97426484375 92.20456406250003,171.4460875 92.90670917968752,174.94041015625 94.12943750000002,178.418575 95.81110488281251,181.84192421875002 97.89006718750002,185.1718 100.30468027343753,188.36954453125 102.99330000000002,191.3965 102.99330000000002,191.3965 105.76410097656253,193.960890234375 108.44595781250001,195.856578125 111.00793886718752,197.174264453125 113.41911250000003,198.00465000000003 115.64854707031252,198.438435546875 117.66531093750001,198.566321875 119.43847246093752,198.479009765625 120.93710000000002,198.2672 120.93710000000002,198.2672 123.50709433593752,197.7003986328125 126.0617359375,197.0623015625 128.59575019531252,196.35550683593752 131.10386250000002,195.58261250000004 133.5807982421875,194.74621660156248 136.0212828125,193.8489171875 138.42004160156253,192.8933123046875 140.7718,191.882 140.7718,191.882 142.16647753906253,191.209388671875 143.68042031250002,190.238453125 145.2414935546875,188.922578515625 146.77756250000002,187.21515 148.21649238281253,185.069552734375 149.4861484375,182.439171875 150.5143958984375,179.27739257812502 151.22910000000002,175.5376 151.22910000000002,175.5376 151.62027011718752,171.492225 151.70286093750002,167.4868625 151.4421556640625,163.58453125 150.8034375,159.84825 149.75198964843753,156.3410375 148.2530953125,153.1259125 146.27203769531252,150.26589375000003 143.7741,147.824 143.7741,147.824 145.0840017578125,146.40559980468748 146.37332656249998,144.91851718750002 147.63149121093753,143.3679541015625 148.8479125,141.75911250000001 150.0120072265625,140.0971943359375 151.1131921875,138.3874015625 152.1408841796875,136.6349361328125 153.0845,134.84500000000003 153.0845,134.84500000000003 156.19101679687498,136.51474648437505 159.520646875,137.556196875 163.028209765625,138.02438007812503 166.668525,137.97432500000002 170.39641210937498,137.46106054687505 174.16669062499997,136.53961562500004 177.934180078125,135.26501914062501 181.6537,133.69230000000002 181.6537,133.69230000000002 184.9144912109375,131.762252734375 187.54729218749998,129.75011562500003 189.61896894531247,127.70509570312502 191.1963875,125.67640000000003 192.3464138671875,123.71323554687503 193.13591406249998,121.86480937500002 193.63175410156248,120.180328515625 193.90079999999998,118.70900000000002 193.90079999999998,118.70900000000002 194.04097070312497,117.53669082031251 194.15319687499996,116.37589531250002 194.24192460937496,115.22223652343752 194.31159999999997,114.07133750000003 194.366669140625,112.91882128906252 194.41157812499998,111.76031093750001 194.45077304687499,110.59142949218752 194.48869999999997,109.40780000000002 206.05299999999997,108.74000000000002" fill="none" stroke="black" stroke-width="0.1" id="path21395_6"/>
        <polyline points="203.531,108.206 201.479798046875,87.8650572265625 195.59702187500002,68.9181453125 186.288916015625,51.7715263671875 173.961725,36.8314625 159.021693359375,24.504215820312503 141.87506562500002,15.1960484375 122.928086328125,9.3132224609375 102.587,7.2620000000000005 102.587,7.2620000000000005 82.24602851562501,9.313201953125 63.299103125,15.195978125 46.152482421875,24.504083984375 31.212425000000003,36.831275000000005 18.885189453125,51.77130664062499 9.577034375,68.917934375 3.694218359375,87.864913671875 1.6430000000000007,108.206 1.6430000000000007,108.206 3.6941978515625005,128.546971484375 9.5769640625,147.49389687500002 18.885057617187503,164.640517578125 31.212237499999997,179.580575 46.1522626953125,191.90781054687503 63.2988921875,201.21596562500002 82.2458849609375,207.09878164062502 102.587,209.15 102.587,209.15 122.92794277343751,207.09880214843753 141.8748546875,201.2160359375 159.0214736328125,191.9079423828125 173.96153750000002,179.58076250000002 186.2887841796875,164.64073730468752 195.5969515625,147.4941078125 201.4797775390625,128.5471150390625 203.531,108.206" fill="none" stroke="black" stroke-width="0.1" id="_new_3_1"/>
        <polygon points="13.8924,83.622 14.258265625,82.8029671875 14.738956249999998,82.13765625 15.3131625,81.6627984375 15.959575000000001,81.41512500000002 16.656884375,81.4313671875 17.38378125,81.74825625 18.11895625,82.40252343749998 18.8411,83.4309 26.9479,98.2174 27.590351562499997,99.394719921875 28.110768750000002,100.504040625 28.5233078125,101.594203515625 28.842125,102.71404999999999 29.0813765625,103.91242148437499 29.255218750000004,105.238159375 29.3778078125,106.74010507812501 29.4633,108.4671 29.4633,108.4671 29.396448046875,110.1604283203125 29.295515625,111.6440578125 29.145687890625,112.96136777343752 28.93215,114.1557375 28.640087109375003,115.2705462890625 28.254684375,116.3491734375 27.761126953125,117.4349982421875 27.1446,118.5714 18.721899999999998,133.3555 17.985986132812496,134.44817890625 17.2475515625,135.1481625 16.5326693359375,135.49515859375003 15.867412499999997,135.52887500000003 15.277854101562498,135.28901953125 14.790067187499998,134.81529999999998 14.430124804687498,134.14742421875002 14.224099999999998,133.32510000000002 14.224099999999998,133.32510000000002 13.347462890624998,130.31401484375002 12.610684374999998,127.28023750000001 12.005863671874998,124.22107265625002 11.525099999999998,121.13382500000002 11.160492578124998,118.01579921875002 10.904140624999997,114.86430000000003 10.748143359374998,111.67663203125002 10.684599999999998,108.45010000000002 10.684599999999998,108.45010000000002 10.713009570312497,105.21943906250002 10.839951562499998,102.02238750000002 11.069383398437498,98.86030468750002 11.4052625,95.73455000000003 11.8515462890625,92.64648281250003 12.412192187499999,89.5974625 13.091157617187498,86.58884843750002 13.892399999999999,83.62200000000001" fill="none" stroke="black" stroke-width="0.1" id="path21395_7"/>
        <polygon points="98.8845,200.139 99.80569453125,200.104077734375 100.60282500000001,199.903515625 101.23501171875,199.54099570312502 101.661375,199.02020000000002 101.84103515625,198.34481054687504 101.7331125,197.51850937500004 101.29672734375,196.54497851562502 100.491,195.42790000000002 89.2183,183.31820000000002 88.21092011718748,182.32324082031252 87.2541546875,181.45115156250003 86.3046150390625,180.6871396484375 85.3189125,180.0164125 84.25365839843751,179.42417753906253 83.0654640625,178.89564218750002 81.7109408203125,178.4160138671875 80.1467,177.97050000000002 80.1467,177.97050000000002 78.48776855468749,177.44077167968751 77.01500468750001,177.0493796875 75.6836791015625,176.7854759765625 74.4490625,176.63821250000004 73.2664255859375,176.59674121093752 72.0910390625,176.65021406250003 70.8781736328125,176.7877830078125 69.5831,176.9986 53.031000000000006,180.37040000000002 51.85443613281251,180.70279570312502 51.010207812500006,181.18381562500002 50.47358496093751,181.769783984375 50.21983750000001,182.41702500000002 50.224235351562506,183.08186289062502 50.46204843750001,183.720621875 50.90854667968751,184.28962617187503 51.53900000000001,184.7452 51.53900000000001,184.7452 56.81147441406251,188.0209513671875 62.294620312500015,190.9371046875 67.9753466796875,193.48038378906253 73.8405625,195.6375125 79.8771767578125,197.39521464843753 86.0720984375,198.7402140625 92.4122365234375,199.65923457031252 98.8845,200.139" fill="none" stroke="black" stroke-width="0.1" id="path21395_8"/>
        <polygon points="159.388,35.9356 158.68226035156252,35.502892773437495 157.9397765625,35.2425109375 157.2091263671875,35.1798267578125 156.5388875,35.3402125 155.9776376953125,35.749040429687504 155.57395468750002,36.4316828125 155.3764162109375,37.413511914062504 155.4336,38.7199 157.5662,55.6011 157.70815703125,56.852176367187504 157.9113375,58.0140859375 158.19394296875,59.1238494140625 158.57417500000003,60.2184875 159.07023515625002,61.335020898437506 159.70032500000002,62.5104703125 160.48264609375,63.7818564453125 161.43540000000002,65.1862 161.43540000000002,65.1862 162.54865859375002,66.590709375 163.56986875,67.7745875 164.53174453125,68.770984375 165.467,69.61305 166.40834921875,70.333934375 167.38850625,70.96678750000001 168.44018515625,71.544759375 169.5961,72.101 184.84,79.178 186.07164765625,79.60528984374999 187.08008124999998,79.71875624999998 187.87158671875,79.56455703125 188.45245,79.18885 188.82895703125,78.63779296875 189.00739375,77.95754375 188.99404609375,77.19426015625 188.7952,76.3941 188.7952,76.3941 186.3339490234375,70.39523281249998 183.5098984375,64.66 180.3309267578125,59.19109218749999 176.8049125,53.99119999999999 172.9397341796875,49.06301406249999 168.7432703125,44.409225 164.2233994140625,40.032523437500004 159.388,35.935599999999994" fill="none" stroke="black" stroke-width="0.1" id="path21395_9"/>
        <polygon points="188.919,139.927 189.0918130859375,139.1663048828125 189.08920468750003,138.42941406249997 188.90427832031253,137.7624068359375 188.53013750000002,137.2113625 187.9598857421875,136.8223603515625 187.1866265625,136.6414796875 186.2034634765625,136.7147998046875 185.0035,137.08839999999998 169.7731,144.29219999999998 168.5457966796875,144.832088671875 167.4606171875,145.39395937499998 166.48044472656252,146.009206640625 165.56816250000003,146.70922499999998 164.6866537109375,147.52540898437496 163.7988015625,148.48915312499997 162.8674892578125,149.631851953125 161.8556,150.98489999999998 161.8556,150.98489999999998 160.85055800781254,152.4822103515625 160.0337203125,153.8148265625 159.3810693359375,155.02738886718748 158.86858750000002,156.1645375 158.47225722656253,157.2709126953125 158.16806093750003,158.39115468749998 157.93198105468753,159.56990371093747 157.74,160.85179999999997 155.8261,177.48019999999997 155.74174609374998,178.79501874999997 155.90327499999998,179.80179374999997 156.26972265625,180.517390625 156.80012499999998,180.95867499999997 157.45351796875,181.14251249999995 158.1889375,181.08576874999994 158.96541953125,180.80530937499995 159.742,180.31799999999996 159.742,180.31799999999996 164.45676992187498,176.29575429687497 168.91686562499999,171.93575312499996 173.097103515625,167.26021289062496 176.9723,162.29134999999994 180.517271484375,157.05138085937497 183.70683437499997,151.56252187499993 186.51580507812497,145.84698945312496 188.91899999999998,139.92699999999996" fill="none" stroke="black" stroke-width="0.1" id="path21395_10"/>
        <polygon points="51.4687,31.8181 50.784723242187496,32.44044765625 50.28086718749999,33.11545 49.9903181640625,33.810383593750004 49.9462625,34.492525 50.1818865234375,35.12915078125 50.7303765625,35.6875375 51.6249189453125,36.134961718750006 52.8987,36.4387 69.4052,39.813399999999994 70.69740898437499,39.96785449218749 71.906984375,40.067773437499994 73.077498828125,40.10157753906249 74.25252499999999,40.05768749999999 75.475635546875,39.9245240234375 76.79040312499998,39.6905078125 78.24040039062498,39.344059570312496 79.86919999999999,38.873599999999996 79.86919999999999,38.873599999999996 81.48612929687499,38.32940546875 82.895090625,37.76274375 84.130394140625,37.163297656249995 85.22635,36.52074999999999 86.21726835937498,35.82478359375 87.13745937499998,35.06508124999999 88.02123320312499,34.23132578125 88.90289999999999,33.313199999999995 100.2319,21.022499999999994 100.97881640625,19.99032499999999 101.37700625,19.076931249999994 101.46860546875,18.28787812499999 101.29575,17.628724999999996 100.90057578125,17.105031249999993 100.32521875,16.722356249999994 99.61181484374998,16.486259374999992 98.8025,16.402299999999993 98.8025,16.402299999999993 92.291286328125,16.909301757812493 85.92612812499999,17.840326562499992 79.718924609375,19.186216210937495 73.681575,20.937812499999993 67.825978515625,23.085957226562495 62.164034375,25.621492187499992 56.707641796875,28.535259179687493 51.4687,31.818099999999994" fill="none" stroke="black" stroke-width="0.1" id="path21395_11"/>
        <polygon points="77.4745,56.8658 79.19308730468751,56.060464062499996 80.9640234375,55.30825625 82.78730722656252,54.6091765625 84.6629375,53.963224999999994 86.5909130859375,53.3704015625 88.5712328125,52.83070625 90.6038955078125,52.3441390625 92.6889,51.9107 92.6889,51.9107 93.6976875,55.53881015625 94.89935625000001,59.28559375 96.266653125,63.088917968749996 97.772325,66.88665 99.38911875,70.61665703124999 101.08978124999999,74.21680624999999 102.847059375,77.62496484375 104.6337,80.779 104.6337,80.779 105.569745703125,82.36163359375 106.706334375,83.704525 108.031843359375,84.77728515625 109.53465,85.54952499999999 111.203131640625,85.99085546875001 113.025665625,86.0708875 114.99062929687501,85.75923203124998 117.0864,85.0255 117.0864,85.0255 120.3444326171875,83.4517466796875 123.7331046875,81.66277968749999 127.19155253906249,79.69507597656248 130.65891249999999,77.5851125 134.0743208984375,75.3693662109375 137.3769140625,73.0843140625 140.5058283203125,70.7664330078125 143.40019999999998,68.45219999999999 143.40019999999998,68.45219999999999 144.82921523437497,69.94467207031249 146.185571875,71.4564390625 147.47052382812498,72.99672714843749 148.68532499999998,74.57476249999999 149.831229296875,76.1997712890625 150.909490625,77.8809796875 151.92136289062495,79.62761386718749 152.86809999999997,81.4489 152.86809999999997,81.4489 152.52471874999998,81.6302296875 152.17183124999997,81.8391875 151.81079687499997,82.07182656250001 151.442975,82.3242 151.06972499999995,82.59236093749999 150.69240624999998,82.87236250000001 150.31237812499998,83.1602578125 149.93099999999998,83.4521 149.93099999999998,83.4521 148.54191933593748,84.6572642578125 147.6594859375,85.9647578125 147.2539376953125,87.29399433593751 147.29551249999997,88.56438750000001 147.7544482421875,89.69535097656251 148.60098281249998,90.60629843750002 149.8053541015625,91.21664355468751 151.3378,91.4458 235.08589999999998,94.83460000000001 238.776130078125,94.81691816406251 242.97562187499997,94.71315156250002 247.497290234375,94.51674355468751 252.15404999999996,94.2211375 256.758816015625,93.81977675781252 261.124503125,93.30610468750001 265.06402617187496,92.67356464843752 268.39029999999997,91.91560000000001 268.39029999999997,91.91560000000001 268.86987207031245,91.79803183593751 269.37567656249996,91.69387343750002 269.90244589843746,91.6057064453125 270.44491249999993,91.5361125 270.99780878906245,91.48767324218751 271.5558671875,91.4629703125 272.1138201171875,91.46458535156252 272.66639999999995,91.49510000000001 272.66639999999995,91.49510000000001 275.96167402343747,91.85442539062501 279.0523609375,92.83951562500002 281.86513300781246,94.381354296875 284.3266625,96.410925 286.36362167968747,98.85921132812501 287.90268281249996,101.65719687500001 288.87051816406245,104.73586523437501 289.19379999999995,108.0262 289.19379999999995,108.0262 288.83467656249996,111.3215701171875 287.84974374999996,114.4123296875 286.30802031249993,117.2251650390625 284.27852499999995,119.6867625 281.8302765625,121.7238083984375 279.03229375,123.2629890625 275.95359531249994,124.2309908203125 272.66319999999996,124.5545 272.66319999999996,124.5545 272.11608749999994,124.50798867187501 271.5743187499999,124.45889687500001 271.043171875,124.404625390625 270.527925,124.34257500000001 270.03385625,124.270146484375 269.56624374999996,124.18474062500002 269.13036562499997,124.083758203125 268.7315,123.9646 268.7315,123.9646 265.2853115234375,123.25392773437501 261.2874171875,122.676471875 256.90389863281246,122.222836328125 252.3008375,121.883625 247.64431542968748,121.649441796875 243.1004140625,121.510890625 238.8352150390625,121.45857539062501 235.01479999999998,121.48310000000001 151.5561,124.95620000000001 149.92857089843747,125.126794921875 148.6804046875,125.69534687500001 147.82532050781248,126.58286914062501 147.3770375,127.71037500000001 147.3492748046875,128.99887773437501 147.7557515625,130.369390625 148.6101869140625,131.742926953125 149.9263,133.0405 149.9263,133.0405 150.27656328125,133.30026933593751 150.65188125,133.5641109375 151.04569609375,133.8254001953125 151.45145,134.0775125 151.86258515625002,134.3138232421875 152.27254375,134.5277078125 152.67476796875002,134.71254160156252 153.0627,134.8617 153.0627,134.8617 152.11908417968752,136.65163632812502 151.09139218750002,138.404103125 149.9902072265625,140.113899609375 148.82611250000002,141.775825 147.60969121093754,143.384678515625 146.3515265625,144.93525937500002 145.06220175781252,146.422366796875 143.75230000000002,147.8408 143.75230000000002,147.8408 140.73626210937502,145.56565644531253 137.51335312500004,143.2772390625 134.139980078125,141.01678027343752 130.67255000000003,138.8255125 127.16746992187502,136.7446681640625 123.68114687500002,134.81547968750002 120.26998789062502,133.0791794921875 116.99040000000002,131.577 116.99040000000002,131.577 115.26406503906252,130.9737162109375 113.54777656250002,130.6379796875 111.86375917968752,130.59497519531251 110.23423750000003,130.8698875 108.68143613281252,131.4879013671875 107.22757968750003,132.4742015625 105.89489277343752,133.85397285156247 104.70560000000002,135.6524 104.70560000000002,135.6524 102.94437304687501,138.8608275390625 101.18414687500001,142.3117265625 99.45961601562502,145.94208417968753 97.80547500000002,149.68888750000002 96.25641835937502,153.4891236328125 94.84714062500002,157.2797796875 93.61233632812502,160.99784277343753 92.58670000000002,164.5803 92.58670000000002,164.5803 90.61410625000002,164.1701373046875 88.65887500000002,163.7219484375 86.72764375000003,163.22916972656247 84.82705000000001,162.6852375 82.96373125000002,162.0835880859375 81.14432500000001,161.4176578125 79.37546875000002,160.68088300781247 77.66380000000002,159.86669999999998 77.66380000000002,159.86669999999998 78.85061523437503,156.2314583984375 79.98852812500003,152.4298046875 81.05870195312502,148.5169705078125 82.04230000000001,144.54818749999998 82.92048554687503,140.5786873046875 83.67442187500004,136.66370156249997 84.28527226562503,132.8584619140625 84.73420000000003,129.21819999999997 84.73420000000003,129.21819999999997 84.81945039062502,127.36730859374997 84.62199062500002,125.62255624999997 84.13374179687503,124.00760078124996 83.34662500000003,122.54609999999997 82.25256132812503,121.26171171874996 80.84347187500003,120.17809374999996 79.11127773437502,119.31890390624996 77.04790000000003,118.70779999999996 77.04790000000003,118.70779999999996 73.49142207031252,118.01963300781246 69.69168281250002,117.43780781249997 65.72247402343753,116.96547558593747 61.65758750000003,116.60578749999996 57.57081503906252,116.36189472656247 53.535948437500025,116.23694843749998 49.626779492187524,116.23409980468746 45.917100000000026,116.35649999999997 45.917100000000026,116.35649999999997 45.83971699218753,115.34400351562496 45.76236093750003,114.33145312499997 45.685021289062526,113.31886992187498 45.607687500000026,112.30627499999997 45.53034902343752,111.29368945312497 45.45299531250002,110.28113437499997 45.375615820312525,109.26863085937497 45.29820000000002,108.25619999999996 45.29820000000002,108.25619999999996 45.34699277343753,107.28672851562497 45.39585468750002,106.31722187499997 45.44476113281252,105.34769179687497 45.49368750000003,104.37814999999996 45.542609179687524,103.40860820312496 45.59150156250003,102.43907812499995 45.64034003906252,101.46957148437495 45.689100000000025,100.50009999999996 45.689100000000025,100.50009999999996 49.54069609375002,100.58587792968747 53.54601875000003,100.54364843749995 57.63649453125003,100.38081660156246 61.74355000000003,100.10478749999996 65.79861171875002,99.72296621093747 69.73310625000003,99.24275781249997 73.47846015625004,98.67156738281247 76.96610000000003,98.01679999999996 76.96610000000003,98.01679999999996 78.72792382812503,97.52810644531246 80.35307187500003,96.79467031249996 81.79808398437503,95.81487089843746 83.01950000000002,94.58708749999997 83.97385976562504,93.10969941406248 84.61770312500002,91.38108593749996 84.90756992187502,89.39962636718747 84.80000000000003,87.16369999999996 84.80000000000003,87.16369999999996 84.31588710937501,83.64700976562496 83.67265937500002,79.89992187499996 82.88822070312503,75.99898554687496 81.98047500000003,72.02074999999996 80.96732617187503,68.04176445312497 79.86667812500004,64.13857812499997 78.69643476562501,60.38774023437496 77.47450000000002,56.865799999999965" fill="none" stroke="black" stroke-width="0.1" id="path21395_20_1"/>
        <polygon points="45.689100000000025,100.50009999999997 45.689100000000025,100.50009999999997 45.689100000000025,100.50009999999997" fill="none" stroke="black" stroke-width="0.1" id="path21395_20"/>
        <polyline points="117.496,123.485 118.13915722656249,123.298569140625 118.79660781249999,123.147803125 119.46179511718749,123.026066796875 120.1281625,122.926725 120.7891533203125,122.843142578125 121.43821093749999,122.76868437499999 122.06877871093748,122.69671523437499 122.67429999999999,122.6206 122.67429999999999,122.6206 125.43121210937498,122.30179101562499 128.67213437499998,121.919009375 132.321783203125,121.49943554687499 136.30487499999998,121.07024999999999 140.546126171875,120.65863320312499 144.97025312499997,120.291765625 149.501972265625,119.996827734375 154.06599999999997,119.801 232.7892,118.0951 236.2131265625,118.1722109375 239.92043124999998,118.42524375 243.8058890625,118.8271234375 247.764275,119.350775 251.69036406249998,119.9691234375 255.47893125,120.65509374999999 259.0247515625,121.3816109375 262.2226,122.1216" fill="none" stroke="black" stroke-width="0.1" id="path21452_1"/>
        <polygon points="117.4956,123.485 117.4956,123.485 117.4956,123.485" fill="none" stroke="black" stroke-width="0.1" id="path21452"/>
        <polyline points="117.368,93.0109 118.03730214843749,93.11418593750001 118.6984984375,93.24118125000001 119.35427363281251,93.38399218750001 120.0073125,93.53472500000001 120.6602998046875,93.6854859375 121.3159203125,93.82838125 121.9768587890625,93.9555171875 122.6458,94.05900000000001 122.6458,94.05900000000001 125.36102441406248,94.36791660156251 128.56740156249998,94.73419531250002 132.1873873046875,95.1270169921875 136.1434375,95.5155625 140.3580080078125,95.8690126953125 144.7535546875,96.1565484375 149.25253339843752,96.34735058593753 153.7774,96.41060000000002 232.92860000000002,97.85540000000002 236.31081953125005,97.85688359375001 239.97900000000004,97.66527500000001 243.82753671875003,97.30621015625002 247.75082500000002,96.80532500000001 251.64326015625002,96.18825546875001 255.39923750000003,95.48063750000001 258.91315234375,94.70810703125001 262.0794,93.89630000000001" fill="none" stroke="black" stroke-width="0.1" id="path21458_1"/>
        <polygon points="117.36840000000001,93.0109 117.36840000000001,93.0109 117.36840000000001,93.0109" fill="none" stroke="black" stroke-width="0.1" id="path21458"/>
        <polygon points="150.893,108.539 151.524,107.6653 148.8544,107.6653 148.8544,108.539 150.893,108.539" fill="none" stroke="black" stroke-width="0.1" id="path17730_1"/>
        <polygon points="158.0282,108.10210000000001 158.07588671875,108.596494921875 158.22766875,108.96290937500001 158.49662890625,109.218975390625 158.89585,109.38232500000001 159.43841484375,109.470590234375 160.13740625,109.50140312500001 161.00590703125,109.492395703125 162.057,109.4612 162.057,110.3349 160.828359375,110.3803033203125 159.76353749999998,110.38873281250001 158.862534375,110.3323177734375 158.12534999999997,110.1831875 157.551984375,109.91347128906251 157.1424375,109.49529843750001 156.896709375,108.90079824218752 156.8148,108.10210000000001 156.8148,108.10210000000001 156.896709375,107.3034017578125 157.1424375,106.7089015625 157.551984375,106.2907287109375 158.12534999999997,106.02101250000001 158.862534375,105.87188222656252 159.76353749999998,105.8154671875 160.828359375,105.82389667968751 162.057,105.86930000000001 162.057,106.74300000000001 161.00590703125,106.71183300781252 160.13740625,106.7028390625 159.43841484375,106.73365371093752 158.89585,106.8219125 158.49662890625,106.98525097656251 158.22766875,107.2413046875 158.07588671875,107.6077091796875 158.0282,108.10210000000001" fill="none" stroke="black" stroke-width="0.1" id="path17730_2"/>
        <polygon points="134.6811,110.432 135.36510175781248,110.40393710937501 135.93022031249998,110.316715625 136.3849880859375,110.16578632812501 136.7379375,109.94659999999999 136.9976009765625,109.654607421875 137.17251093750002,109.285259375 137.2711998046875,108.834006640625 137.3022,108.2963 137.3022,105.8208 136.1373,105.8208 136.1373,108.3934 136.12051875000003,108.6803482421875 136.0667625,108.92350468750001 135.97091250000003,109.12457441406251 135.82785,109.2852625 135.63245625000002,109.4072740234375 135.3796125,109.4923140625 135.0642,109.5420876953125 134.68110000000001,109.5583 134.68110000000001,109.5583 134.30008828125003,109.5420876953125 133.99018125000003,109.4923140625 133.74512109375002,109.4072740234375 133.55865,109.2852625 133.42451015625002,109.12457441406251 133.33644375000003,108.92350468750001 133.28819296875002,108.6803482421875 133.2735,108.3934 133.2735,105.8208 132.0601,105.8208 132.0601,108.2963 132.09308515625,108.834006640625 132.19659375,109.285259375 132.37745546875,109.654607421875 132.64249999999998,109.94659999999999 132.99855703125,110.16578632812501 133.45245625,110.316715625 134.01102734375002,110.40393710937501 134.68110000000001,110.432" fill="none" stroke="black" stroke-width="0.1" id="path17730_3"/>
        <polygon points="126.13830000000002,110.38340000000001 126.22096718750001,110.38340000000001 126.44470000000001,110.38340000000001 126.77309531250002,110.38340000000001 127.16975000000002,110.38340000000001 127.59826093750002,110.38340000000001 128.022225,110.38340000000001 128.40523906250002,110.38340000000001 128.7109,110.38340000000001 128.7109,110.38340000000001 129.36141015625,110.36102460937501 129.92888125000002,110.28631562500001 130.41217421875,110.14789882812501 130.81015000000002,109.93440000000001 131.12166953125003,109.63444492187502 131.34559375,109.23665937500002 131.48078359375,108.729669140625 131.5261,108.10210000000001 131.5261,108.10210000000001 131.48078359375,107.488426953125 131.34559375,106.987959375 131.12166953125003,106.591024609375 130.81015000000002,106.28795000000001 130.41217421875,106.069062890625 129.92888125000002,105.92469062500001 129.36141015625,105.84516054687501 128.7109,105.8208 128.7109,105.8208 128.40523906250002,105.8208 128.022225,105.8208 127.59826093750002,105.8208 127.16975000000002,105.8208 126.77309531250002,105.8208 126.44470000000001,105.8208 126.22096718750001,105.8208 126.13830000000002,105.8208 126.13830000000002,106.74300000000001 126.21461601562501,106.74300000000001 126.42119062500001,106.74300000000001 126.72446367187501,106.74300000000001 127.09087500000001,106.74300000000001 127.48686445312501,106.74300000000001 127.87887187500003,106.74300000000001 128.23333710937501,106.74300000000001 128.51670000000001,106.74300000000001 128.51670000000001,106.74300000000001 128.90047597656252,106.7536197265625 129.24784531250003,106.7915453125 129.55425761718752,106.86587636718751 129.8151625,106.9857125 130.0260095703125,107.16015332031252 130.1822484375,107.3982984375 130.2793287109375,107.7092474609375 130.3127,108.10210000000001 130.3127,108.10210000000001 130.2793287109375,108.49498125000001 130.1822484375,108.80594375000001 130.02600957031248,109.044090625 129.81516249999999,109.21852500000001 129.55425761718752,109.33835 129.2478453125,109.41266875000001 128.90047597656252,109.450584375 128.51670000000001,109.4612 128.51670000000001,109.4612 128.3551568359375,109.4612 128.17085468750003,109.4612 127.97744707031251,109.4612 127.78858750000003,109.4612 127.61792949218751,109.4612 127.47912656250001,109.4612 127.38583222656251,109.4612 127.35170000000001,109.4612 127.35170000000001,107.61670000000001 126.13830000000002,107.61670000000001 126.13830000000002,110.38340000000001" fill="none" stroke="black" stroke-width="0.1" id="path17730_4"/>
        <polygon points="150.3591,110.38340000000001 151.71820000000002,110.38340000000001 152.45737890625003,109.26747812500001 153.02648125000002,108.40923750000002 153.46475546875,107.77511562500001 153.81145000000004,107.33155000000001 154.10581328125002,107.044978125 154.38709375000002,106.8818375 154.69453984375002,106.80856562500001 155.06740000000002,106.7916 155.06740000000002,109.4612 153.56260000000003,109.4612 152.98020000000002,110.38340000000001 156.28080000000003,110.38340000000001 156.28080000000003,105.86930000000001 155.23201875,105.83432421875 154.434075,105.8715875 153.80563125000003,106.03057578125001 153.26535,106.36077500000002 152.73189375000004,106.91167109375 152.12392500000004,107.73275 151.36010625000003,108.87349765625001 150.35910000000004,110.38340000000001" fill="none" stroke="black" stroke-width="0.1" id="path17730_5"/>
        <polygon points="143.70930000000004,110.38340000000001 144.44847890625005,109.26747812500001 145.01758125000003,108.40923750000002 145.45585546875003,107.77511562500001 145.80255000000005,107.33155000000001 146.09691328125004,107.044978125 146.37819375000004,106.8818375 146.68563984375004,106.80856562500001 147.05850000000004,106.7916 147.05850000000004,109.4612 145.60230000000004,109.4612 144.97130000000004,110.38340000000001 148.27190000000004,110.38340000000001 148.27190000000004,105.86930000000001 147.27979472656256,105.83290214843751 146.51464531250005,105.86021093750001 145.90762636718753,105.99217988281251 145.38991250000004,106.26976250000001 144.89267832031254,106.73391230468751 144.34709843750005,107.42558281250001 143.68434746093754,108.3857275390625 142.83560000000006,109.65530000000001 142.05890000000005,108.4419 142.28598535156257,108.3598154296875 142.49202031250007,108.2583796875 142.67416074218755,108.1364572265625 142.82956250000007,107.9929125 142.95538144531258,107.8266099609375 143.04877343750005,107.63641406250001 143.10689433593757,107.4211892578125 143.12690000000006,107.1798 143.12690000000006,107.1798 143.08679843750005,106.8427083984375 142.96990625000007,106.5579421875 142.78134218750006,106.3232267578125 142.52622500000007,106.13628750000001 142.20967343750007,105.9948498046875 141.83680625000005,105.89663906250001 141.41274218750004,105.8393806640625 140.94260000000006,105.8208 140.94260000000006,105.8208 140.42516347656257,105.8208 139.90658906250002,105.8208 139.40849199218755,105.8208 138.95248750000007,105.8208 138.56019082031256,105.8208 138.25321718750004,105.8208 138.05318183593755,105.8208 137.98170000000005,105.8208 137.98170000000005,106.6945 138.06086269531255,106.6945 138.27825156250006,106.6945 138.60371777343755,106.6945 139.00711250000006,106.6945 139.45828691406254,106.6945 139.92709218750002,106.6945 140.38337949218757,106.6945 140.79700000000005,106.6945 140.79700000000005,106.6945 141.02613203125006,106.697437109375 141.23762500000007,106.708903125 141.42749921875006,106.732880078125 141.59177500000004,106.77335 141.72647265625005,106.83429492187501 141.82761250000004,106.919696875 141.89121484375005,107.03353789062501 141.91330000000005,107.1798 141.91330000000005,107.1798 141.89121484375005,107.3260994140625 141.82761250000004,107.4399765625 141.72647265625005,107.52541230468749 141.59177500000004,107.5863875 141.42749921875006,107.6268830078125 141.23762500000007,107.6508796875 141.02613203125006,107.6623583984375 140.79700000000005,107.6653 140.79700000000005,107.6653 140.36942597656255,107.6653 139.90658906250007,107.6653 139.43692949218755,107.6653 138.98888750000003,107.6653 138.59090332031255,107.6653 138.27141718750005,107.6653 138.05886933593754,107.6653 137.98170000000005,107.6653 137.93320000000006,110.38340000000001 139.14660000000006,110.38340000000001 139.14660000000006,108.53900000000002 140.69990000000007,108.53900000000002 141.96190000000007,110.38340000000001 143.70930000000007,110.38340000000001" fill="none" stroke="black" stroke-width="0.1" id="path17730_6"/>
        <polygon points="167.88160000000008,105.8208 167.88160000000008,106.74300000000001 162.5908000000001,106.74300000000001 162.5908000000001,105.8208 167.88160000000008,105.8208" fill="none" stroke="black" stroke-width="0.1" id="path17730_7"/>
        <polygon points="162.63940000000008,107.61670000000001 162.63940000000008,108.24780000000001 162.67040019531257,108.78547363281251 162.7690890625001,109.2367015625 162.94399902343758,109.60603183593751 163.20366250000006,109.89801250000001 163.5566119140626,110.11719160156252 164.0113796875001,110.26811718750001 164.5764982421876,110.35533730468751 165.2605000000001,110.38340000000001 167.8816000000001,110.38340000000001 167.8816000000001,109.4612 165.4061000000001,109.4612 165.0306728515626,109.44934941406251 164.7053140625001,109.4119015625 164.43002011718758,109.3460123046875 164.2047875000001,109.24883750000001 164.0296126953126,109.11753300781251 163.9044921875001,108.94925468750002 163.8294224609376,108.7411583984375 163.8044000000001,108.49040000000001 167.8816000000001,108.49040000000001 167.8816000000001,107.61670000000001 162.6394000000001,107.61670000000001" fill="none" stroke="black" stroke-width="0.1" id="path17730"/>
        <polyline points="78.3451,158.972 79.7177736328125,155.57237988281253 81.0716328125,151.8537953125 82.3741099609375,147.9504224609375 83.5926375,143.9964375 84.6946478515625,140.12601660156253 85.6475734375,136.47333593750002 86.4188466796875,133.1725716796875 86.9759,130.3579 86.9759,130.3579 87.09534375,128.159309765625 86.82900624999999,125.917146875 86.169696875,123.717035546875 85.11022499999999,121.6446 83.6434,119.785464453125 81.76203124999999,118.22525312500001 79.458928125,117.049590234375 76.7269,116.3441 76.7269,116.3441 73.85731015625,116.047095703125 70.47615,115.79140937499999 66.71509609375,115.591105859375 62.705825000000004,115.46025 58.580013281250004,115.412906640625 54.4693375,115.463140625 50.505474218749995,115.62501679687499 46.8201,115.9126" fill="none" stroke="black" stroke-width="0.1" id="path21355_1"/>
        <polygon points="78.3451,158.97199999999998 78.3451,158.97199999999998 78.3451,158.97199999999998" fill="none" stroke="black" stroke-width="0.1" id="path21355"/>
        <polyline points="143.309,146.939 140.4130056640625,144.547580859375 137.2473453125,142.095090625 133.92091542968748,139.64946757812498 130.5426125,137.27865 127.22133300781249,135.050576171875 124.06597343749999,133.03318437500002 121.18543027343749,131.294412890625 118.6886,129.9022" fill="none" stroke="black" stroke-width="0.1" id="path21367_1"/>
        <polygon points="143.309,146.939 143.309,146.939 143.309,146.939" fill="none" stroke="black" stroke-width="0.1" id="path21367"/>
        <polyline points="143.056,69.4618 140.2475150390625,71.85158046875 137.15269531250001,74.29336875 133.87606855468752,76.72596015625 130.5221625,79.08815 127.19550488281253,81.31873359375 124.00062343750002,83.35650625 121.04204589843752,85.14026328125 118.42430000000002,86.6088" fill="none" stroke="black" stroke-width="0.1" id="path21373_1"/>
        <polygon points="143.056,69.46180000000001 143.056,69.46180000000001 143.056,69.46180000000001" fill="none" stroke="black" stroke-width="0.1" id="path21373"/>
        <polyline points="92.5947,163.456 93.45404960937499,159.89670996093747 94.516515625,156.1161359375 95.72992382812501,152.22857207031248 97.0421,148.3483125 98.400869921875,144.58965136718749 99.754059375,141.06688281249998 101.049494140625,137.8943009765625 102.235,135.18619999999999 102.235,135.18619999999999 102.9705876953125,134.01193105468747 103.8128828125,132.84771093749998 104.7631333984375,131.70274472656249 105.8225875,130.58623749999998 106.9924931640625,129.5073943359375 108.2740984375,128.4754203125 109.66865136718751,127.49952050781249 111.1774,126.58889999999998" fill="none" stroke="black" stroke-width="0.1" id="path21450_1"/>
        <polygon points="92.5947,163.456 92.5947,163.456 92.5947,163.456" fill="none" stroke="black" stroke-width="0.1" id="path21450"/>
        <polyline points="92.3446,52.9203 93.23406250000001,56.569340820312505 94.31708125,60.4253265625 95.54705312499999,64.3667021484375 96.877375,68.2719125 98.26144375,72.0194025390625 99.65265625,75.48761718749999 101.00440937500001,78.55500136718749 102.2701,81.1 102.2701,81.1 103.02303554687501,82.4469361328125 103.94210312499999,83.7713265625 105.01423164062498,85.05990683593748 106.22635,86.2994125 107.565387109375,87.47657910156249 109.018271875,88.57814218749999 110.571933203125,89.59083730468748 112.2133,90.50139999999999" fill="none" stroke="black" stroke-width="0.1" id="path21456_1"/>
        <polygon points="92.3446,52.92029999999999 92.3446,52.92029999999999 92.3446,52.92029999999999" fill="none" stroke="black" stroke-width="0.1" id="path21456"/>
        <circle cx="102.588" cy="108.206" r="11.0778" fill="none" stroke="black" stroke-width="0.1" id="_tag_39_"/>
        <circle cx="102.588" cy="108.206" r="6.40363" fill="none" stroke="black" stroke-width="0.1" id="_tag_40_"/>
        <polyline points="102.078,127.933 98.1910712890625,127.4477005859375 94.5766140625,126.24502968750001 91.3103841796875,124.4007408203125 88.4681375,121.9905875 86.1256298828125,119.09032324218751 84.3586171875,115.7757015625 83.2428552734375,112.1224759765625 82.8541,108.2064 82.8541,108.2064 83.248950390625,104.2602052734375 84.381784375,100.5816609375 86.175026171875,97.2483392578125 88.55109999999999,94.3378125 91.432430078125,91.92765292968751 94.741440625,90.09543281250001 98.400555859375,88.91872441406251 102.3322,88.4751" fill="none" stroke="black" stroke-width="0.1" id="_new_6_1"/>
        <circle cx="272.739" cy="108.206" r="5.00002" fill="none" stroke="black" stroke-width="0.1" id="_tag_41_"/>
        <circle cx="102.605" cy="108.08" r="4.5" fill="none" stroke="black" stroke-width="0.1" id="center_00_21"/>
        <g id="_178114320">
            <g id="_tag_42_">
                <circle cx="33.9306" cy="178.552" r="3.00741" fill="none" stroke="black" stroke-width="0.1" id="_173709816"/>
                <circle cx="33.9306" cy="178.552" r="1.52558" fill="none" stroke="black" stroke-width="0.1" id="_172006040"/>
            </g>
            <g id="_tag_43_">
                <circle cx="9.56903" cy="139.814" r="3.00741" fill="none" stroke="black" stroke-width="0.1" id="_132036080"/>
                <circle cx="9.56903" cy="139.814" r="1.52558" fill="none" stroke="black" stroke-width="0.1" id="_132723800"/>
            </g>
            <g id="_tag_44_">
                <circle cx="185.571" cy="160.597" r="3.00741" fill="none" stroke="black" stroke-width="0.1" id="_133756408"/>
                <circle cx="185.571" cy="160.597" r="1.52558" fill="none" stroke="black" stroke-width="0.1" id="_174445448"/>
            </g>
            <g id="_tag_45_">
                <circle cx="91.1385" cy="10.7835" r="3.00741" fill="none" stroke="black" stroke-width="0.1" id="_131879848"/>
                <circle cx="91.1385" cy="10.7835" r="1.52558" fill="none" stroke="black" stroke-width="0.1" id="_132834368"/>
            </g>
            <g id="_tag_46_">
                <circle cx="136.978" cy="16.272" r="3.00741" fill="none" stroke="black" stroke-width="0.1" id="_174903064"/>
                <circle cx="136.978" cy="16.272" r="1.52558" fill="none" stroke="black" stroke-width="0.1" id="_184206656"/>
            </g>
        </g>
        <g id="_182407672">
            <g id="_tag_47_">
                <circle cx="155.134" cy="69.8775" r="6.07896" fill="none" stroke="black" stroke-width="0.1" id="_131652144"/>
                <circle cx="155.134" cy="69.8775" r="3.08369" fill="none" stroke="black" stroke-width="0.1" id="_180678144"/>
            </g>
            <g id="_tag_48_">
                <circle cx="37.5592" cy="108.08" r="6.07896" fill="none" stroke="black" stroke-width="0.1" id="_173567936"/>
                <circle cx="37.5592" cy="108.08" r="3.08369" fill="none" stroke="black" stroke-width="0.1" id="_182687808"/>
            </g>
            <g id="_tag_49_">
                <circle cx="82.4686" cy="46.2672" r="6.07896" fill="none" stroke="black" stroke-width="0.1" id="_173840792"/>
                <circle cx="82.4686" cy="46.2672" r="3.08369" fill="none" stroke="black" stroke-width="0.1" id="_200327432"/>
            </g>
            <g id="_tag_50_">
                <circle cx="82.4686" cy="169.892" r="6.07896" fill="none" stroke="black" stroke-width="0.1" id="_174397248"/>
                <circle cx="82.4686" cy="169.892" r="3.08369" fill="none" stroke="black" stroke-width="0.1" id="_184082488"/>
            </g>
            <g id="_tag_51_">
                <circle cx="155.133" cy="146.282" r="6.07896" fill="none" stroke="black" stroke-width="0.1" id="_179220672"/>
                <circle cx="155.133" cy="146.282" r="3.08369" fill="none" stroke="black" stroke-width="0.1" id="_176711344"/>
            </g>
        </g>
        <polyline points="46.6988,100.844 50.4172037109375,101.13538593749999 54.4053296875,101.29419999999999 58.531312695312494,101.33271406249999 62.663287499999996,101.2632 66.6693888671875,101.09792968749998 70.4177515625,100.84917499999999 73.7765103515625,100.52920781249999 76.6138,100.15029999999999 76.6138,100.15029999999999 78.7855431640625,99.68616464843748 80.8575140625,98.79172968749998 82.74776230468748,97.5007017578125 84.3743375,95.84678749999998 85.6552892578125,93.86369355468749 86.5086671875,91.5851265625 86.8525208984375,89.04479316406248 86.6049,86.27639999999998 86.6049,86.27639999999998 86.08123164062499,83.45918183593749 85.33817187500001,80.16217343749999 84.405113671875,76.51864394531248 83.31145000000001,72.66186249999998 82.086573828125,68.72509824218747 80.759878125,64.84162031249997 79.36075585937499,61.144697851562476 77.9186,57.76759999999998" fill="none" stroke="black" stroke-width="0.1" id="path21389"/>
        <g id="_183484240">
            <polygon points="157.677,161.399 157.989,161.39170000000001 159.4957,162.0517 162.2453,163.0987 164.27069999999998,160.8125 162.89989999999997,158.2092 162.06309999999996,156.7929 161.90319999999997,155.1558 162.28739999999996,153.8932 163.08019999999996,152.8382 164.18609999999995,152.1179 165.80309999999994,151.816 167.39619999999994,152.2257 170.27809999999994,152.8181 171.91049999999993,150.23659999999998 170.13989999999993,147.88689999999997 169.08669999999992,146.62319999999997 168.66629999999992,145.03289999999996 168.70339999999993,144.75819999999996 167.71424726562495,145.25325527343747 166.81580937499993,145.78471718749995 165.9817542968749,146.37485488281246 165.18574999999993,147.04593749999998 164.40146445312496,147.82023417968745 163.60256562499993,148.72001406249998 162.7627214843749,149.76754628906244 161.85559999999992,150.98509999999996 161.85559999999992,150.98509999999996 160.85055800781242,152.48241035156246 160.03372031249992,153.81502656249995 159.3810693359374,155.02758886718746 158.8685874999999,156.16473749999994 158.47225722656242,157.27111269531247 158.16806093749994,158.39135468749996 157.93198105468744,159.57010371093747 157.73999999999992,160.85199999999995 157.67699999999994,161.39899999999994" fill="none" stroke="black" stroke-width="0.1" id="path21309_33_1"/>
            <polygon points="175.97729999999993,141.35789999999994 176.55779999999993,141.38209999999995 176.71719999999993,141.00789999999995 175.97729999999993,141.35789999999994" fill="none" stroke="black" stroke-width="0.1" id="path21309_33"/>
            <polygon points="176.718,75.4075 176.5574,75.03059999999999 175.9598,75.0555 176.718,75.4075" fill="none" stroke="black" stroke-width="0.1" id="path21309_34_1"/>
            <polygon points="168.7063,71.679 168.6659,71.3798 169.0863,69.7895 170.1395,68.5258 171.9101,66.1761 170.2777,63.59460000000001 167.3958,64.18700000000001 165.80270000000002,64.59670000000001 164.18570000000003,64.29480000000001 163.07980000000003,63.57450000000001 162.28700000000003,62.51950000000001 161.90280000000004,61.25690000000001 162.06270000000004,59.61980000000001 162.89950000000005,58.20350000000001 164.27030000000005,55.600200000000015 162.24490000000006,53.314000000000014 159.49530000000007,54.36100000000001 157.98860000000008,55.02100000000001 157.49110000000007,55.00930000000001 157.56590000000008,55.60110000000001 157.7078570312501,56.85217636718751 157.91103750000008,58.01408593750001 158.19364296875008,59.123849414062505 158.5738750000001,60.218487500000016 159.0699351562501,61.33502089843751 159.7000250000001,62.51047031250001 160.48234609375007,63.78185644531251 161.4351000000001,65.18620000000001 161.4351000000001,65.18620000000001 162.4470230468751,66.46721972656252 163.38102812500009,67.5650015625 164.26135664062508,68.50410449218751 165.11225000000007,69.3090875 165.95794960937508,70.0045095703125 166.82269687500008,70.61492968750002 167.7307332031251,71.1649068359375 168.70630000000008,71.67900000000002" fill="none" stroke="black" stroke-width="0.1" id="path21309_34"/>
            <polygon points="94.1914,27.5757 91.3014,27.9266 90.6012,30.7843 90.4329,31.6533 94.1914,27.5757" fill="none" stroke="black" stroke-width="0.1" id="path21309_35_1"/>
            <polygon points="87.7307,34.5163 86.9045,34.685 85.5992,34.4908 84.1886,33.6445 83.2679,32.2814 81.5035,29.926899999999996 78.5698,30.776699999999995 78.337,33.7097 78.2873,35.353899999999996 77.5474,36.82299999999999 76.5479,37.684799999999996 75.314,38.1528 73.9944,38.1705 72.4663,37.561499999999995 71.3388,36.363699999999994 69.2196,34.3227 66.4602,35.632099999999994 66.701,38.56439999999999 66.7952,39.279799999999994 69.4052,39.813399999999994 70.69740898437499,39.96785449218749 71.906984375,40.067773437499994 73.077498828125,40.10157753906249 74.25252499999999,40.05768749999999 75.475635546875,39.9245240234375 76.79040312499998,39.6905078125 78.24040039062498,39.344059570312496 79.86919999999999,38.873599999999996 79.86919999999999,38.873599999999996 81.23243457031249,38.4212349609375 82.44720781249998,37.9544546875 83.53338652343749,37.467281445312494 84.51083749999998,36.953737499999995 85.3994275390625,36.40784511718749 86.2190234375,35.823626562499996 86.98949199218751,35.19510410156249 87.7307,34.516299999999994" fill="none" stroke="black" stroke-width="0.1" id="path21309_35"/>
            <polygon points="94.3472,188.828 90.3995,184.5871 90.6012,185.6286 91.3014,188.4863 94.3334,188.8544 94.3472,188.828" fill="none" stroke="black" stroke-width="0.1" id="path21395_36_1"/>
            <polygon points="87.7617,181.90290000000002 86.9870986328125,181.22521289062502 86.20911406249999,180.616809375 85.40411308593751,180.06963867187503 84.5484625,179.57565 83.61852910156252,179.12679257812502 82.5906796875,178.71501562500004 81.44128105468751,178.332268359375 80.14670000000001,177.97050000000002 80.14670000000001,177.97050000000002 78.4877685546875,177.44077167968751 77.01500468750001,177.0493796875 75.68367910156252,176.7854759765625 74.44906250000001,176.63821250000004 73.2664255859375,176.59674121093752 72.0910390625,176.65021406250003 70.8781736328125,176.7877830078125 69.58310000000002,176.9986 66.73650000000002,177.57850000000002 66.70100000000002,177.84850000000003 66.46020000000003,180.78080000000003 69.21960000000003,182.09020000000004 71.33880000000003,180.04920000000004 72.46630000000003,178.85140000000004 73.99440000000003,178.24240000000003 75.31400000000002,178.26010000000002 76.54790000000003,178.7281 77.54740000000002,179.5899 78.28730000000003,181.059 78.33700000000003,182.7032 78.56980000000003,185.6362 81.50350000000003,186.486 83.26790000000003,184.1315 84.18860000000002,182.76839999999999 85.59920000000002,181.92209999999997 86.90450000000003,181.72789999999998 87.76170000000003,181.9029" fill="none" stroke="black" stroke-width="0.1" id="path21395_36"/>
            <polygon points="24.3052,93.3972 26.9479,98.2174 27.590351562499997,99.394719921875 28.110768750000002,100.504040625 28.5233078125,101.594203515625 28.842125,102.71404999999999 29.0813765625,103.91242148437499 29.255218750000004,105.238159375 29.3778078125,106.74010507812501 29.4633,108.4671 29.4633,108.4671 29.396448046875,110.1604283203125 29.295515625,111.6440578125 29.145687890625,112.96136777343752 28.93215,114.1557375 28.640087109375003,115.2705462890625 28.254684375,116.3491734375 27.761126953125,117.4349982421875 27.1446,118.5714 24.581,123.07119999999999 22.8274,122.71569999999998 22.337500000000002,119.70089999999999 24.887500000000003,118.2332 26.3516,117.48349999999999 27.361700000000003,116.1852 27.711900000000004,114.91279999999999 27.605700000000002,113.59729999999999 27.056,112.39759999999998 25.8507,111.27809999999998 24.2852,110.77309999999999 21.532799999999998,109.73339999999999 21.532799999999998,106.6792 24.2852,105.6395 25.8507,105.1344 27.056,104.0149 27.605700000000002,102.8152 27.711900000000004,101.4997 27.361700000000003,100.2273 26.3516,98.929 24.887500000000003,98.1793 22.337500000000002,96.7116 22.8274,93.69680000000001 24.3052,93.39720000000001" fill="none" stroke="black" stroke-width="0.1" id="path21395_37"/>
        </g>
    </g>
</svg>
