<?xml version="1.0" encoding="UTF-8"?>
<!DOCTYPE svg PUBLIC "-//W3C//DTD SVG 1.1//EN" "http://www.w3.org/Graphics/SVG/1.1/DTD/svg11.dtd">
<!-- Creator: CorelDRAW -->
<svg xmlns="http://www.w3.org/2000/svg" xml:space="preserve" width="210mm" height="297mm" style="shape-rendering:geometricPrecision; text-rendering:geometricPrecision; image-rendering:optimizeQuality; fill-rule:evenodd; clip-rule:evenodd"
viewBox="0 0 210 297">
 <defs>
  <style type="text/css">
   <![CDATA[
    .str0 {stroke:#1F1A17;stroke-width:0.0762}
    .str1 {stroke:#DA251D;stroke-width:0.1764}
    .fil0 {fill:none}
    .fil1 {fill:#C2C1C1}
   ]]>
  </style>
 </defs>
 <g id="Ebene_x0020_1">
  <metadata id="CorelCorpID_0Corel-Layer"/>
  <circle class="fil0 str0" cx="100" cy="147" r="18.368" id="center_00"/>
  <polygon class="fil1 str1" points="68.9225,184.671 60.8212,179.448 61.3136,178.637 59.7627,177.759 59.3969,178.451 55.0005,175.915 53.6641,177.982 55.376,175.137 54.8144,172.69 51.5835,171.045 49.0179,172.002 47.9083,173.847 53.3705,176.847 47.9083,173.847 45.8854,177.35 46.0334,179.023 50.2716,181.202 46.0334,179.023 46.3287,180.365 49.0607,181.85 51.8664,181.081 53.0621,179.081 52.194,180.533 56.4109,183.28 58.9675,179.097 55.7754,184.32 57.2579,185.223 57.863,184.254 65.9523,189.529 "/>
  <polygon class="fil1 str1" points="91.5699,235.228 92.2585,235.982 93.8817,236.694 96.2319,236.646 97.3499,239.651 95.5977,240.928 94.5251,242.636 94.374,245.454 95.724,247.002 97.4156,248.076 96.6735,251.462 94.3856,251.491 92.862,252.137 91.0956,254.866 91.0281,257.182 91.9402,258.729 89.0315,260.791 87.5946,259.552 85.9264,259.141 82.4635,260.501 81.5875,262.008 81.2161,263.883 77.924,264.043 77.5968,262.473 66.6682,258.404 67.618,255.153 66.1755,253.473 63.4453,253.524 61.7641,248.633 63.3689,246.488 63.2986,243.98 60.9526,241.522 66.2989,234.089 82.2429,228.58 89.9206,228.336 "/>
  <circle class="fil1 str1" cx="78.8064" cy="245.035" r="13.9998"/>
  <circle class="fil1 str1" cx="78.8064" cy="245.035" r="8.5013"/>
  <polygon class="fil1 str1" points="85.7777,244.034 90.2552,236.567 103.868,217.962 119.983,201.69 123.03,200.722 129.099,201.175 134.528,201.061 138.209,199.816 141.918,197.02 143.865,194.346 146.431,187.284 146.471,180.204 145.524,172.046 143.551,165.474 139.589,160.392 131.589,157.331 125.081,157.29 119.047,159.616 114.472,163.699 111.676,169.611 115.29,192.839 109.117,193.762 106.727,199.895 100.555,206.668 87.4063,216.634 68.3764,228.012 63.2916,229.665 60.0501,228.945 56.1973,227.102 55.0059,226.802 54.0625,227.511 53.0858,228.93 51.0327,233.559 52.465,233.979 53.0129,233.132 54.6031,229.393 55.2725,228.405 56.0405,228.1 56.0405,228.1 55.2725,228.405 54.6031,229.393 53.0129,233.132 54.2689,233.988 55.2727,235.811 56.031,234.207 58.2021,232.14 61.6853,230.376 58.2021,232.14 56.031,234.207 55.2727,235.811 55.0377,237.106 55.1147,241.971 57.0494,249.921 60.226,256.072 64.4651,261.099 69.7358,264.12 73.6193,264.434 76.2184,262.373 80.4316,254.028 85.7776,244.034 84.1944,240.122 81.2428,238.504 77.8999,238.171 74.5549,239.369 72.1642,242.696 71.9264,246.31 72.9447,248.75 75.3408,250.825 78.4462,251.603 82.1107,250.89 78.4462,251.603 75.3408,250.825 75.4643,252.097 73.5869,255.781 72.6538,257.753 70.76,258.156 69.0012,257.534 67.5911,256.43 65.9797,254.77 65.3062,253.815 63.4867,251.001 63.1103,249.633 62.0621,245.409 62.2172,241.128 63.787,238.047 66.6376,235.391 70.715,233.386 72.2717,232.896 76.3697,231.607 85.7366,228.909 86.8459,229.619 87.3899,231.887 86.5265,232.981 85.4394,234.358 81.2428,238.504 84.1945,240.122 "/>
  <polygon class="fil1 str1" points="125.269,164.304 123.804,164.883 121.685,165.89 121.215,166.099 119.146,167.435 117.194,169.524 117.136,170.614 117.45,172.365 124.286,179.804 125.92,176.723 128.512,176.775 135.601,171.525 136.421,169.604 135.073,166.93 132.129,165.1 128.604,164.154 127.245,164.215 "/>
  <polygon class="fil1 str1" points="76.1133,176.231 78.0387,180.674 84.6922,183.379 83.1457,179.194 84.9132,183.977 89.4922,186.132 90.9821,188.733 91.7188,193.552 93.136,195.858 93.9678,198.346 98.6165,203.528 101.039,203.901 102.772,202.568 103.403,200.067 100.133,192.697 99.4876,187.89 98.12,185.542 99.4876,187.89 100.133,192.697 103.403,200.067 102.772,202.568 105.22,199.215 105.315,197.118 103.565,193.197 102.757,189.907 102.826,188.31 103.651,183.275 107.925,184.994 103.651,183.275 102.826,188.31 102.757,189.907 110.341,192.848 116.67,185.4 113.418,177.829 82.539,167.137 77.2722,168.971 "/>
  <polygon class="fil1 str1" points="93.0213,138.693 86.0704,144.722 81.9082,149.599 79.472,153.058 67.8121,170.32 66.4746,172.767 61.656,178.072 57.7697,184.479 57.4705,186.349 59.1047,187.965 62.3046,190.142 66.931,182.328 68.6094,180.918 70.8565,181.518 79.3181,185.835 81.4672,186.826 82.4597,186.001 81.8769,185.944 79.1092,183.836 76.1848,180.681 69.9749,177.394 66.6348,180.355 69.9748,177.394 76.1848,180.681 79.1092,183.836 81.9721,186.017 82.4597,186.001 83.5429,184.508 83.2182,183.741 80.2251,181.474 77.845,178.044 77.224,177.248 78.2305,177.007 79.4962,176.407 78.8471,174.114 76.7409,171.992 72.9271,170.103 69.8174,169.372 72.9271,170.103 76.7409,171.992 78.847,174.114 79.4962,176.407 80.5595,173.676 80.5777,172.228 79.2906,170.901 77.9596,169.761 75.5307,168.235 83.0667,156.883 87.1422,158.463 90.8238,155.158 87.1424,158.463 83.0666,156.883 75.5307,168.235 77.9596,169.761 79.2906,170.901 80.5777,172.228 86.9004,159.5 91.2809,155.83 92.8046,155.527 96.7685,157.59 102.014,158.151 106.947,155.758 109.746,152.204 111.121,147.384 110.218,143.05 107.774,139.435 104.555,137.28 100.612,136.177 96.51,136.692 "/>
  <polygon class="fil1 str1" points="84.4116,158.95 87.1422,158.463 90.0693,158.056 91.6585,157.621 96.1689,158.607 101.925,160.525 109.638,163.401 116.482,166.417 116.682,167.015 116.326,168.253 116.426,169.505 120.879,172.179 122.652,173.999 122.935,175.26 116.67,185.4 111.837,182.245 109.126,180.984 103.926,176.268 98.0168,172.952 91.4763,170.713 86.1432,170.154 85.4291,170.998 104.263,177.85 97.1355,184.188 95.7024,184.561 84.8256,180.205 83.4047,178.666 83.5124,176.537 84.4059,170.616 80.7803,169.788 84.4059,170.616 83.6904,175.358 80.3552,174.2 80.5778,172.228 79.2906,170.901 77.9596,169.761 77.043,169.185 79.3137,165.282 82.0401,161.308 83.2466,159.731 "/>
  <polygon class="fil1 str1" points="118.997,167.657 123.208,169.196 127.239,171.494 128.91,173.93 130.792,178.174 129.542,181.349 128.701,183.123 126.7,184.906 128.701,183.123 129.542,181.349 131.179,182.46 135.642,184.319 137.703,186.935 139.104,189.965 138.935,193.222 137.486,196.688 133.922,200.523 129.29,201.722 124.255,200.533 118.952,197.938 120.421,195.012 118.952,197.938 116.934,198.839 112.983,198.974 106.997,196.676 105.419,195.078 106.634,193.083 108.101,192.258 115.844,196.551 108.101,192.258 108.953,191.105 116.888,195.471 108.953,191.105 110.126,189.024 107.643,186.716 108.002,184.523 111.554,185.968 116.114,189.43 111.554,185.968 108.002,184.523 109.097,183.222 109.918,182.247 111.837,182.245 113.525,183.405 117.834,186.139 124.677,174.748 123.356,172.734 120.416,170.813 117.194,169.524 117.629,168.179 "/>
  <polygon class="fil1 str1" points="95.6508,193.44 94.4434,195.318 94.2308,196.412 94.4434,195.318 94.3758,195.666 93.6927,195.87 92.6888,196.887 92.5297,197.399 93.4367,196.848 92.5297,197.399 92.2443,198.117 92.6364,199.275 99.0129,203.178 100.518,203.461 101.423,202.615 100.972,200.766 100.248,199.81 99.4254,199.178 100.248,199.81 100.972,200.766 101.423,202.615 102.556,201.036 102.273,199.398 101.399,198.384 100.8,197.899 99.1879,196.528 97.8937,195.891 98.0803,195.033 97.6543,194.073 97.0931,195.265 96.7042,196.059 97.0923,197.17 96.7042,196.059 97.6543,194.073 "/>
  <polygon class="fil1 str1" points="97.7747,206.217 100.833,202.24 100.655,201.263 99.5748,199.896 97.6416,198.529 95.4061,197.628 93.695,197.53 93.099,197.738 92.6346,198.066 91.0838,202.319 90.9853,203.113 91.5044,203.972 92.7242,205.047 94.3066,205.979 95.9361,206.436 97.431,206.533 "/>
  <polyline class="fil0 str1" points="97.7094,205.907 97.2284,204.68 95.7684,203.196 93.6994,202.063 92.2369,201.94 91.4047,202.241 "/>
  <circle class="fil0 str1" cx="100" cy="147" r="9.4986"/>
  <circle class="fil0 str1" cx="100" cy="147" r="7.9988"/>
  <circle class="fil0 str1" cx="100" cy="147" r="3.4994"/>
  <circle class="fil1 str1" cx="78.8064" cy="245.035" r="3.4999"/>
 </g>
</svg>
