<!DOCTYPE svg PUBLIC "-//W3C//DTD SVG 1.1//EN" "http://www.w3.org/Graphics/SVG/1.1/DTD/svg11.dtd">
<svg xmlns="http://www.w3.org/2000/svg" width="297mm" height="210mm" viewBox="0 0 297 210">
    <defs id="_tag_26_"/>
    <g id="Ebene_x0020_1">
        <circle cx="23.953" cy="79.1065" r="15.8941" fill="none" stroke="black" stroke-width="0.1" id="_130029648"/>
        <polygon points="23.953,64.4495 73.03,64.5435 90.3105,66.3345 102.958,70.4102 136.715,113.433 138.049,125.974 137.043,142.031 130.307,164.625 121.589,178.728 115.39,189.976 108.703,203.644 93.5042,222.638 77.4719,237.095 60.7757,246.239 0.2674,263.295 -6.8423,235.533 52.0316,218.623 68.0852,208.732 79.3245,197.99 87.5238,183.633 95.5291,167.005 107.214,151.382 108.18,139.394 109.286,128.688 104.89,120.848 85.2825,95.1455 79.2489,93.8755 23.953,93.8755 19.8111,93.2025 14.5566,90.3955 11.6515,87.1345 10.1193,84.0535 9.2812,79.8005 9.9015,74.8175 12.4832,69.9315 17.699,65.8135" fill="none" stroke="black" stroke-width="0.1" id="_129596160"/>
        <circle cx="23.953" cy="79.1065" r="14.688" fill="none" stroke="black" stroke-width="0.1" id="center_00"/>
        <g id="_274339552">
            <g id="_tag_27_">
                <polygon points="193.408,153.382 193.5848650390625,153.03271386718748 193.9236703125,152.3244296875 194.3663435546875,151.3665712890625 194.85481249999998,150.2685625 195.3310048828125,149.1398271484375 195.7368484375,148.08978906250002 196.0142708984375,147.2278720703125 196.1052,146.6635 196.1052,146.6635 196.0779966796875,145.23387695312502 196.12901718749998,143.600809375 196.23524472656248,141.863937109375 196.3736625,140.12290000000002 196.5212537109375,138.47733789062502 196.65500156250002,137.02689062500002 196.75188925781248,135.871198046875 196.78889999999998,135.1099 196.78889999999998,135.1099 196.75410195312497,131.80273320312503 196.656934375,128.49891562500002 196.49642460937497,125.20067148437502 196.27159999999998,121.910225 195.98148789062498,118.62980039062501 195.62511562499998,115.36162187500001 195.20151054687497,112.107913671875 194.7097,108.8709 194.7097,108.8709 194.10100117187497,107.0333986328125 193.346715625,105.27403906250001 192.47337226562502,103.57683808593751 191.50750000000002,101.9258125 190.475627734375,100.3049791015625 189.404284375,98.6983546875 188.31999882812502,97.08995605468752 187.2493,95.4638 187.2493,95.4638 187.23004375,95.45832910156251 187.21088125,95.45288281250001 187.191896875,95.4474857421875 187.17317500000001,95.4421625 187.1548,95.43693769531251 187.13685625,95.43183593750001 187.119428125,95.42688183593751 187.1026,95.4221 187.1026,95.4221 186.7822330078125,95.0015779296875 186.4591203125,94.58418593750001 186.1328693359375,94.1699978515625 185.80308749999998,93.75908749999999 185.4693822265625,93.3515287109375 185.13136093749998,92.94739531249999 184.7886310546875,92.54676113281249 184.4408,92.1497 184.4408,92.1497 184.686462109375,92.60636992187499 184.93204687499997,93.063946875 185.176989453125,93.522456640625 185.420725,93.98192499999999 185.662688671875,94.442377734375 185.902315625,94.903840625 186.139041015625,95.366339453125 186.3723,95.8299 186.3723,95.8299 186.36666191406252,95.84002558593748 186.3614328125,95.8499859375 186.35659042968751,95.8598689453125 186.35211249999998,95.8697625 186.3479767578125,95.87975449218749 186.3441609375,95.88993281249998 186.3406427734375,95.90038535156249 186.3374,95.9112 186.3374,95.9112 186.71373515624998,96.7712162109375 187.08351249999998,97.63387968749998 187.44728984375,98.49902519531248 187.805625,99.3664875 188.15907578125,100.23610136718749 188.5082,101.10770156249998 188.85355546875,101.9811228515625 189.1957,102.8562 189.1957,102.8562 189.9801875,105.1269494140625 190.73726249999999,107.52643281249999 191.36138125,109.9998779296875 191.74699999999999,112.4925125 191.788575,114.9495642578125 191.3805625,117.3162609375 190.41741875,119.53783027343749 188.7936,121.5595 188.7936,121.5595 187.5270181640625,122.65054765625001 186.2454140625,123.72455624999999 184.9526373046875,124.78582421875001 183.6525375,125.83865 182.3489642578125,126.88733203125 181.04576718750002,127.93616875000001 179.74679589843748,128.98945859375 178.45589999999999,130.0515 178.45589999999999,130.0515 177.75022109374999,130.8758287109375 177.15720624999997,131.74277968750002 176.67036328125,132.6496751953125 176.28319999999997,133.5938375 175.98922421875,134.5725888671875 175.78194374999998,135.5832515625 175.65486640625,136.62314785156252 175.6015,137.6896 175.6015,137.6896 175.64944765625,137.92724101562501 175.7196375,138.247628125 175.84637734375,138.79455742187503 176.06397499999997,139.711825 176.40673828125,141.143226953125 176.908975,143.232559375 177.60499296875,146.123618359375 178.5291,149.96020000000001 178.5291,149.96020000000001 178.4971314453125,150.2257845703125 178.5277328125,150.5336328125 178.6070396484375,150.8690365234375 178.7211875,151.21728750000003 178.8563119140625,151.56367753906252 178.9985484375,151.8934984375 179.1340326171875,152.19204199218754 179.2489,152.4446 179.2489,152.4446 180.0736388671875,153.420913671875 180.90609218749998,154.426615625 181.75670253906247,155.436822265625 182.6359125,156.42665 183.55416464843748,157.371215234375 184.52190156249998,158.245634375 185.5495658203125,159.025023828125 186.64759999999998,159.6845 186.64759999999998,159.6845 187.44437675781248,159.6419146484375 188.3521828125,159.2281484375 189.31521933593746,158.53483613281253 190.27768749999998,157.6536125 191.18378847656248,156.6761123046875 191.9777234375,155.6939703125 192.60369355468748,154.79882128906252 193.0059,154.0823 193.408,153.382" fill="none" stroke="black" stroke-width="0.1" id="_188203936"/>
                <polyline points="192.64469999999997,119.9463 192.63633242187495,119.93499453125 192.62857187499998,119.9238625 192.621331640625,119.91288046874999 192.61452499999996,119.90202499999998 192.60806523437498,119.89127265625 192.601865625,119.88059999999999 192.59583945312497,119.86998359374999 192.58989999999997,119.8594" fill="none" stroke="black" stroke-width="0.1" id="_184097064"/>
                <polyline points="189.814,124.129 189.82053945312498,124.15318710937501 189.827165625,124.17739062500002 189.83396523437497,124.201636328125 189.841025,124.22595000000001 189.848431640625,124.25035742187501 189.85627187499998,124.27488437500001 189.86463242187497,124.29955664062501 189.87359999999998,124.32440000000001 189.87359999999998,124.32440000000001 190.16933203125,127.47086308593751 190.41179999999997,130.6202734375 190.60557421874998,133.77225019531252 190.755225,136.92641250000003 190.86532265625,140.0823794921875 190.94043749999997,143.2397703125 190.98513984375,146.3982041015625 191.004,149.5573 191.004,149.5573 190.8928095703125,150.5256603515625 190.7027765625,151.6197453125 190.4167833984375,152.7697357421875 190.0177125,153.9058125 189.4884462890625,154.95815644531248 188.8118671875,155.8569484375 187.9708576171875,156.53236933593752 186.9483,156.9146 186.9483,156.9146 186.331157421875,156.7407642578125 185.641684375,156.33573281250003 184.913937890625,155.76464433593753 184.181975,155.0926375 183.479852734375,154.38485097656252 182.841628125,153.7064234375 182.30135820312498,153.1224935546875 181.89309999999998,152.6982 181.89309999999998,152.6982 181.48674492187496,152.27426503906253 181.17362187499998,151.81457031250002 180.93384414062496,151.32565605468753 180.74752499999997,150.8140625 180.594777734375,150.2863298828125 180.45571562499998,149.7489984375 180.31045195312498,149.20860839843752 180.13909999999998,148.67170000000002 180.13909999999998,148.67170000000002 179.76127441406246,147.293783984375 179.4020078125,145.90202812500002 179.06746542968747,144.49878320312502 178.76381249999997,143.08640000000003 178.4972142578125,141.667229296875 178.27383593749997,140.24362187500003 178.09984277343747,138.817928515625 177.98139999999998,137.3925 177.98139999999998,137.3925 178.0625787109375,136.61824277343752 178.21294843749996,135.8745046875 178.42910957031248,135.1593486328125 178.70766249999997,134.47083750000002 179.0452076171875,133.8070341796875 179.4383453125,133.1660015625 179.88367597656247,132.5458025390625 180.37779999999998,131.9445 180.37779999999998,131.9445 180.74003203124997,131.59998515625 181.01594374999996,131.3366625 181.23574609374998,131.12895234375 181.42964999999998,130.951275 181.62786640624998,130.77805078125002 181.86060624999996,130.5837 182.15808046874997,130.34264296875 182.55049999999997,130.0293 186.04019999999997,152.2023" fill="none" stroke="black" stroke-width="0.1" id="_188206040"/>
                <polyline points="189.814,124.129 190.10854707031248,123.57934238281251 190.4234203125,123.0340453125 190.7538302734375,122.4929599609375 191.09498749999997,121.9559375 191.4421025390625,121.4228291015625 191.7903859375,120.8934859375 192.13504824218748,120.3677591796875 192.47129999999999,119.8455 192.47129999999999,119.8455 192.4760154296875,119.8451912109375 192.48112343749997,119.84466093750001 192.4865666015625,119.84394082031251 192.49228749999997,119.8430625 192.49822871093747,119.84205761718749 192.50433281249997,119.8409578125 192.51054238281247,119.8397947265625 192.5168,119.8386" fill="none" stroke="black" stroke-width="0.1" id="_188207024"/>
                <polyline points="192.59,119.859 192.5793072265625,119.855981640625 192.5692203125,119.853134375 192.55965136718748,119.850432421875 192.55051250000002,119.84785 192.5417158203125,119.845361328125 192.5331734375,119.842940625 192.5247974609375,119.840562109375 192.5165,119.8382" fill="none" stroke="black" stroke-width="0.1" id="_188207472"/>
                <polyline points="192.59,119.859 192.586146484375,119.8521609375 192.58251562499998,119.84570624999999 192.579076953125,119.8395796875 192.57580000000002,119.83372499999999 192.572654296875,119.82808593749999 192.569609375,119.82260625 192.56663476562503,119.8172296875 192.5637,119.8119" fill="none" stroke="black" stroke-width="0.1" id="_188209648"/>
                <polyline points="192.517,119.838 192.5223298828125,119.83503242187498 192.52770781249998,119.83203437499999 192.5331912109375,119.828975390625 192.5388375,119.82582499999998 192.54470410156247,119.82255273437498 192.5508484375,119.819128125 192.5573279296875,119.81552070312499 192.5642,119.81169999999999" fill="none" stroke="black" stroke-width="0.1" id="_188210096"/>
                <polyline points="192.564,119.812 192.56602421875,119.7902693359375 192.56866250000002,119.76871093749999 192.57182578125,119.74730019531249 192.575425,119.7260125 192.57937109375,119.7048232421875 192.583575,119.6837078125 192.58794765624998,119.6626416015625 192.5924,119.6416" fill="none" stroke="black" stroke-width="0.1" id="_188210320"/>
            </g>
            <polyline points="187.102,95.4219 187.0101384765625,95.47319492187499 186.9183390625,95.52445937499999 186.82665449218752,95.57566289062498 186.7351375,95.62677499999998 186.6438408203125,95.67776523437499 186.55281718749998,95.72860312499999 186.4621193359375,95.77925820312498 186.3718,95.82969999999999" fill="none" stroke="black" stroke-width="0.1" id="_188211352"/>
            <polygon points="195.882,40.1114 201.7272,55.98310000000001 201.729639453125,56.02067558593751 201.731040625,56.05043593750001 201.731077734375,56.075168945312505 201.729425,56.09766250000001 201.725756640625,56.120704492187514 201.719746875,56.14708281250001 201.711069921875,56.179585351562515 201.6994,56.22100000000001 201.6994,56.22100000000001 199.8872205078125,58.96417460937501 198.4568015625,61.89842812500001 197.3999224609375,64.98128007812501 196.7083625,68.17025000000001 196.37390097656248,71.42285742187501 196.38831718749998,74.696621875 196.7433904296875,77.94906289062502 197.4309,81.13770000000001 197.4309,81.13770000000001 198.5737263671875,84.93086015625 199.5848046875,88.71843750000002 200.4700962890625,92.51006484375002 201.2355625,96.31537500000002 201.8871646484375,100.14400078125001 202.4308640625,104.00557500000002 202.87262207031247,107.90973046875001 203.2184,111.86610000000002 203.2184,111.86610000000002 203.38323535156252,115.59750996093751 203.4898015625,119.3141671875 203.5418638671875,123.0211376953125 203.5431875,126.72348750000002 203.4975376953125,130.42628261718752 203.40867968749998,134.13458906250003 203.2803787109375,137.8534728515625 203.1164,141.58800000000002 203.1164,141.58800000000002 203.25820859375,145.58283554687503 203.64873125,149.59595937500004 204.30693828124998,153.58910976562504 205.2518,157.52402500000005 206.50228671875,161.36244335937502 208.07736875,165.066103125 209.99601640625,168.596742578125 212.2772,171.91610000000003 212.2772,171.91610000000003 213.623923828125,173.30386718750003 215.07575312499998,174.66481250000004 216.544687109375,176.03822656250003 217.942725,177.46340000000004 219.181866015625,178.97962343750004 220.174109375,180.62618750000004 220.83145429687502,182.44238281250003 221.0659,184.46750000000003 221.0659,184.46750000000003 220.3301619140625,185.93403945312505 218.83024531249998,186.41974062500003 216.8019091796875,186.14616523437505 214.48091250000002,185.334875 212.1030142578125,184.20743164062503 209.9039734375,182.98539687500005 208.11954902343751,181.89033242187503 206.9855,181.14380000000003 206.9855,181.14380000000003 205.054125,179.59997382812503 203.16446875,178.01995312500003 201.31434687499998,176.40307460937504 199.501575,174.74867500000002 197.72396875,173.05609101562504 195.97934375,171.324659375 194.26551562499998,169.55371679687505 192.5803,167.74260000000004 192.5803,167.74260000000004 192.183004296875,167.20987714843753 191.817909375,166.65569843750004 191.504241015625,166.08207363281255 191.261225,165.49101250000007 191.108087109375,164.88452480468754 191.06405312500002,164.26462031250003 191.148348828125,163.63330878906254 191.3802,162.99260000000004 191.3802,162.99260000000004 191.77678593750002,161.93512441406256 192.1477125,160.87110156250003 192.4954828125,159.80087480468754 192.82259999999997,158.72478750000005 193.13156718750002,157.64318300781252 193.42488749999998,156.55640468750005 193.7050640625,155.46479589843753 193.9746,154.36870000000005 194.6029,150.45010000000005 194.78405722656248,149.32411621093755 194.91965781250002,148.18840468750005 195.0208076171875,147.04572519531254 195.0986125,145.89883750000004 195.1641783203125,144.75050136718755 195.2286109375,143.60347656250005 195.30301621093753,142.46052285156256 195.3985,141.32440000000005 195.3985,141.32440000000005 195.43865878906252,137.35786816406255 195.4263140625,133.36047031250007 195.3498841796875,129.34454042968756 195.1977875,125.32241250000006 194.9584423828125,121.30642050781256 194.6202671875,117.30889843750006 194.17168027343752,113.34218027343756 193.6011,109.41860000000005 193.6011,109.41860000000005 193.0336654296875,107.55576425781256 192.38822968750003,105.72961406250005 191.6687947265625,103.93798496093756 190.8793625,102.17871250000005 190.02393496093748,100.44963222656256 189.1065140625,98.74857968750004 188.1311017578125,97.07339042968755 187.1017,95.42190000000005 187.1017,95.42190000000005 186.7813330078125,95.00137792968755 186.4582203125,94.58398593750006 186.1319693359375,94.16979785156255 185.80218749999997,93.75888750000004 185.4684822265625,93.35132871093755 185.13046093749998,92.94719531250004 184.7877310546875,92.54656113281254 184.4399,92.14950000000005 184.4399,92.14950000000005 184.3191216796875,91.94143535156255 184.1986046875,91.73373281250005 184.07837597656248,91.52630449218755 183.9584625,91.31906250000004 183.8388912109375,91.11191894531254 183.71968906249998,90.90478593750005 183.6008830078125,90.69757558593756 183.4825,90.49020000000004 183.4825,90.49020000000004 183.34380625,90.25012929687503 183.20520625,90.01008437500005 183.066784375,89.77009101562504 182.92862499999998,89.53017500000004 182.7908125,89.29036210937504 182.65343124999998,89.05067812500003 182.516565625,88.81114882812504 182.38029999999998,88.57180000000004 182.38029999999998,88.57180000000004 182.05399121093748,88.07729316406254 181.72282968749997,87.60897656250003 181.38635019531245,87.16044355468753 181.0440875,86.72528750000004 180.69557636718747,86.29710175781253 180.34035156249996,85.86947968750003 179.97794785156248,85.43601464843753 179.60789999999997,84.99030000000003 171.83049999999997,81.97250000000004 167.52379999999997,52.50680000000004 195.88199999999998,40.11140000000004" fill="none" stroke="black" stroke-width="0.1" id="_188215720"/>
            <polygon points="199.819,46.3394 186.2979,27.0234 186.22514492187503,26.950773046875 186.152996875,26.878303125000002 186.08136914062501,26.805969140625 186.010175,26.73375 185.939327734375,26.661624609374996 185.86874062500002,26.589571874999997 185.798326953125,26.517570703125 185.728,26.4456 185.728,26.4456 185.49118964843748,26.350161328124997 185.17779843750003,26.215509375 184.8139111328125,26.058652734375 184.4256125,25.8966 184.0389873046875,25.746359765624998 183.6801203125,25.624940625 183.37509628906253,25.549351171875 183.15,25.5366 171.309,29.777 165.19729999999998,56.183800000000005 193.4972,42.368100000000005 199.819,46.339400000000005" fill="none" stroke="black" stroke-width="0.1" id="_188216632"/>
            <g id="_tag_28_">
                <polyline points="184.44,92.1495 184.3192216796875,91.9414353515625 184.1987046875,91.73373281250001 184.0784759765625,91.5263044921875 183.9585625,91.3190625 183.8389912109375,91.1119189453125 183.71978906249998,90.90478593750001 183.6009830078125,90.69757558593751 183.4826,90.4902" fill="none" stroke="black" stroke-width="0.1" id="_188217640"/>
                <polyline points="183.483,90.4902 183.34430625000002,90.25013339843751 183.20570625,90.0100984375 183.06728437499999,89.77011738281251 182.929125,89.5302125 182.7913125,89.29040605468751 182.65393125000003,89.0507203125 182.517065625,88.8111775390625 182.3808,88.5718" fill="none" stroke="black" stroke-width="0.1" id="_188218888"/>
                <polyline points="186.324,87.1114 186.414970703125,87.27846250000002 186.505934375,87.445525 186.59689335937503,87.6125875 186.68785000000003,87.77965 186.778806640625,87.9467125 186.869765625,88.113775 186.960729296875,88.28083749999999 187.0517,88.4479 187.0517,88.4479 187.0258625,88.4725607421875 186.96359375,88.5152484375 186.823071875,88.59989628906251 186.562475,88.7504375 186.13998125,88.9908052734375 185.51376875,89.3449328125 184.642015625,89.83675332031251 183.4829,90.4902" fill="none" stroke="black" stroke-width="0.1" id="_188219112"/>
                <polyline points="186.324,87.1114 186.03486171875,87.2635794921875 185.74540000000002,87.4111546875 185.45505703125002,87.55429316406251 185.16327500000003,87.6931625 184.86949609375003,87.8279302734375 184.57316250000002,87.9587640625 184.27371640625,88.0858314453125 183.97060000000002,88.2093" fill="none" stroke="black" stroke-width="0.1" id="_188220024"/>
                <polyline points="186.324,87.1114 185.9471345703125,86.4365546875 185.57030781250003,85.76175625 185.19354902343753,85.08706093750001 184.8168875,84.412525 184.44035253906253,83.7382046875 184.0639734375,83.06415625000001 183.68777949218753,82.3904359375 183.3118,81.7171" fill="none" stroke="black" stroke-width="0.1" id="_188222368"/>
                <polyline points="184.05,88.3506 184.04013750000001,88.3329375 184.03027500000002,88.315275 184.02041250000002,88.2976125 184.01055000000002,88.27995 184.0006875,88.2622875 183.990825,88.244625 183.9809625,88.2269625 183.9711,88.2093" fill="none" stroke="black" stroke-width="0.1" id="_188298104"/>
                <polyline points="183.971,88.2093 183.9671462890625,88.202428125 183.9635140625,88.19595000000001 183.9600716796875,88.18980937500001 183.95678750000002,88.18395 183.9536298828125,88.17831562499998 183.9505671875,88.17285 183.94756777343753,88.167496875 183.9446,88.1622" fill="none" stroke="black" stroke-width="0.1" id="_213864432"/>
                <polyline points="184.545,89.8911 184.4256734375,89.688456640625 184.32898749999998,89.495903125 184.25133281249998,89.308529296875 184.1891,89.12142499999999 184.1386796875,88.92968007812499 184.09646249999997,88.72838437499999 184.0588390625,88.51262773437499 184.0222,88.27749999999999 184.0222,88.27749999999999 183.6719197265625,87.52694238281249 183.2841828125,86.78398906249998 182.8607201171875,86.06801933593748 182.4032625,85.39841249999998 181.9135408203125,84.79454785156248 181.3932859375,84.2758046875 180.8442287109375,83.86156230468748 180.2681,83.57119999999999" fill="none" stroke="black" stroke-width="0.1" id="_278675440"/>
                <polyline points="183.312,81.7171 183.18525878906252,81.4732013671875 183.0644390625,81.22107968750001 182.94197167968753,80.96988378906251 182.81028750000002,80.72876250000002 182.66181738281253,80.5068646484375 182.4889921875,80.3133390625 182.28424277343754,80.15733457031249 182.04000000000002,80.048" fill="none" stroke="black" stroke-width="0.1" id="_187076360"/>
                <polyline points="177.122,67.3126 177.1939197265625,67.33298183593752 177.26644531250003,67.3535359375 177.3394888671875,67.3742376953125 177.4129625,67.3950625 177.4867783203125,67.4159857421875 177.5608484375,67.4369828125 177.63508496093752,67.4580291015625 177.70940000000002,67.4791 177.70940000000002,67.4791 178.5501169921875,68.9888169921875 179.39084218750003,70.4985421875 180.23157441406252,72.00827441406248 181.0723125,73.5180125 181.91305527343752,75.0277552734375 182.75380156250003,76.5375015625 183.59455019531254,78.0472501953125 184.4353,79.557 184.4353,79.557 184.543826953125,79.9424755859375 184.564034375,80.28079843750001 184.504512109375,80.57905019531249 184.37385,80.8443125 184.180637890625,81.08366699218752 183.933465625,81.30419531250001 183.640923046875,81.51297910156251 183.3116,81.7171" fill="none" stroke="black" stroke-width="0.1" id="_188300392"/>
                <polyline points="184.44,92.1495 184.3192216796875,91.9414353515625 184.1987046875,91.73373281250001 184.0784759765625,91.5263044921875 183.9585625,91.3190625 183.8389912109375,91.1119189453125 183.71978906249998,90.90478593750001 183.6009830078125,90.69757558593751 183.4826,90.4902" fill="none" stroke="black" stroke-width="0.1" id="_188260672"/>
            </g>
            <polygon points="186.298,27.0234 186.166274609375,27.1037205078125 185.964159375,27.2278515625 185.701008203125,27.3899724609375 185.386175,27.5842625 185.029013671875,27.8049009765625 184.63887812500002,28.046067187499997 184.225122265625,28.301940429687498 183.7971,28.566699999999997 183.7971,28.566699999999997 183.3064541015625,28.870219921874998 182.82308906249997,29.169209374999998 182.36061386718748,29.455200390625 181.9326375,29.719724999999997 181.55276894531252,29.954315234375 181.2346171875,30.150503125 180.9917912109375,30.299820703125 180.8379,30.3938 180.8379,30.3938 180.62778320312498,30.6736423828125 180.512215625,30.904407812499997 180.47947148437498,31.097366210937498 180.51782500000002,31.2637875 180.615550390625,31.4149416015625 180.76092187499998,31.562098437499998 180.94221367187498,31.716527929687498 181.1477,31.889499999999998 181.1477,31.889499999999998 182.4449271484375,33.0057427734375 183.7533046875,34.1109734375 185.0692267578125,35.2087580078125 186.3890875,36.3026625 187.7092810546875,37.3962529296875 189.02620156249998,38.493095312499996 190.3362431640625,39.5967556640625 191.6358,40.7108 191.6358,40.7108 191.836380859375,40.89843945312499 192.105734375,41.139584375 192.420364453125,41.416312109375 192.756775,41.7107 193.091469921875,42.004825390625 193.400953125,42.280765625 193.66172851562496,42.520598046874994 193.85029999999998,42.7064 193.85029999999998,42.7064 194.01535644531248,42.88197910156251 194.17683281249998,43.057395312500006 194.33380214843746,43.233741992187504 194.48533749999999,43.412112500000006 194.63051191406248,43.593600195312504 194.76839843749997,43.77929843750001 194.89807011718747,43.9703005859375 195.01859999999996,44.1677 195.01859999999996,44.1677 195.85638652343746,45.6326203125 196.68717343749995,47.10158125 197.5126142578125,48.57372031250001 198.33436249999997,50.048175 199.15407167968746,51.5240828125 199.97339531249997,53.00058125 200.7939869140625,54.4768078125 201.61749999999995,55.9519 201.61749999999995,55.9519 201.6312625,55.9557671875 201.64502499999995,55.95964375 201.6587874999999,55.9635296875 201.67254999999994,55.967425000000006 201.68631249999999,55.9713296875 201.70007499999994,55.975243750000004 201.7138374999999,55.9791671875 201.72759999999994,55.9831 201.72759999999994,55.9831 201.80207871093742,55.924957617187495 201.86142968749994,55.8778671875 201.91152519531244,55.8365212890625 201.95823749999994,55.7956125 202.00743886718743,55.749833398437495 202.06500156249996,55.6938765625 202.13679785156242,55.6224345703125 202.22869999999995,55.5302 202.22869999999995,55.5302 203.44838222656244,54.0424 204.67088281249994,52.555350000000004 205.89369511718743,51.06755 207.11431249999993,49.5775 208.33022832031244,48.0837 209.53893593749996,46.584649999999996 210.73792871093747,45.07885 211.92469999999994,43.5648 211.92469999999994,43.5648 211.92687734374994,43.44685527343749 211.89370624999995,43.308673437500005 211.83279453124993,43.15817050781249 211.75174999999993,43.0032625 211.65818046874995,42.85186542968749 211.55969374999995,42.7118953125 211.46389765624994,42.5912681640625 211.37839999999994,42.4979 211.37839999999994,42.4979 211.14433613281244,42.1542150390625 210.82122031249995,41.718126562500004 210.43564121093743,41.2237091796875 210.01418749999993,40.7050375 209.58344785156243,40.1961861328125 209.17001093749994,39.7312296875 208.80046542968745,39.3442427734375 208.50139999999993,39.0693 208.50139999999993,39.0693 207.85479257812494,38.444390039062505 207.15699062499993,37.839539062499995 206.42354960937493,37.256177929687496 205.67002499999995,36.6957375 204.91197226562494,36.1596486328125 204.16494687499994,35.6493421875 203.44450429687495,35.1662490234375 202.76619999999994,34.7118 202.76619999999994,34.7118 200.86395742187491,33.588604101562495 198.93080312499993,32.507451562499995 196.96992226562494,31.468732617187502 194.98449999999994,30.472837499999997 192.97772148437494,29.520156445312494 190.95277187499994,28.6110796875 188.91283632812494,27.745997460937495 186.86109999999994,26.925299999999996 186.86109999999994,26.925299999999996 186.78942871093744,26.937500976562497 186.71817343749996,26.949557812499997 186.64730957031242,26.961551367187496 186.57681249999993,26.973562499999996 186.50665761718744,26.985672070312496 186.43682031249992,26.997960937499997 186.36727597656247,27.010509960937497 186.29799999999994,27.023399999999995" fill="none" stroke="black" stroke-width="0.1" id="_216499072"/>
            <polyline points="182.422,29.4349 182.47039999999998,29.5141453125 182.50766249999998,29.574481249999998 182.53635624999998,29.6194703125 182.55904999999998,29.652675 182.57831249999998,29.677657812499994 182.5967125,29.697981249999998 182.61681875,29.717207812499996 182.6412,29.738899999999997 182.6412,29.738899999999997 186.059859375,30.8495580078125 189.4490625,32.0361265625 192.808471875,33.297997460937495 196.13774999999998,34.634562499999994 199.436559375,36.045213476562495 202.7045625,37.5293421875 205.94142187499997,39.086340429687496 209.14679999999998,40.715599999999995 209.4793,40.591699999999996 209.5574,40.166399999999996" fill="none" stroke="black" stroke-width="0.1" id="_180889152"/>
            <polyline points="209.558,40.1664 209.41680312499997,40.000308984375 209.2754,39.843178124999994 209.132609375,39.69203320312501 208.98725000000002,39.54390000000001 208.838140625,39.395804296875 208.6841,39.244771875 208.52394687499998,39.087828515625006 208.35649999999998,38.922000000000004" fill="none" stroke="black" stroke-width="0.1" id="_188281488"/>
            <polyline points="211.685,43.2473 211.6513732421875,43.2360912109375 211.5714984375,43.2017109375 211.4609087890625,43.1519158203125 211.33513750000003,43.0944625 211.20971777343752,43.0371076171875 211.1001828125,42.9876078125 211.0220658203125,42.953719726562504 210.9909,42.943200000000004 210.9909,42.943200000000004 208.9185677734375,42.343392578125005 206.81193593749998,41.86644687500001 204.6807767578125,41.52429023437501 202.53486250000003,41.32885000000001 200.38396542968752,41.29205351562501 198.23785781249998,41.42582812500001 196.1063119140625,41.74210117187501 193.9991,42.25280000000001 193.4977,42.368100000000005" fill="none" stroke="black" stroke-width="0.1" id="_198687072"/>
            <g id="_tag_29_">
                <polygon points="168.122,89.9645 169.59815000000003,89.52946328125 171.03539375000003,89.04075 172.44050937500003,88.50233046875 173.820275,87.91817499999999 175.18146875000002,87.29225390625001 176.53086875,86.6285375 177.87525312500003,85.93099609375 179.22140000000002,85.2036 179.22140000000002,85.2036 179.2697462890625,85.17701132812499 179.31810781250002,85.150415625 179.3664810546875,85.12380585937498 179.4148625,85.097175 179.4632486328125,85.070516015625 179.51163593750002,85.04382187499999 179.56002089843753,85.017085546875 179.60840000000002,84.99029999999999 179.60840000000002,84.99029999999999 179.62783906250002,84.9614203125 179.64723125,84.93253125 179.6665765625,84.90363281249999 179.685875,84.874725 179.7051265625,84.8458078125 179.72433125000003,84.81688125 179.74348906250003,84.78794531249999 179.76260000000002,84.75899999999999 179.76260000000002,84.75899999999999 180.13858789062505,84.17099882812498 180.490915625,83.58276562499998 180.818366796875,82.99429335937499 181.11972500000002,82.40557499999998 181.39377382812503,81.81660351562498 181.639296875,81.227371875 181.85507773437502,80.63787304687499 182.03990000000002,80.04809999999999 182.0823,79.017 181.77233359374998,77.45093515625 181.2297875,75.97403125 180.52561640625004,74.55811171875 179.73077500000002,73.17500000000001 178.91621796875,71.79651953125 178.15290000000002,70.39449374999998 177.51177578125004,68.94074609375 177.06380000000001,67.4071 177.06380000000001,67.4071 177.070562890625,67.39433203125 177.077553125,67.38194375 177.084735546875,67.36988359375 177.092075,67.35810000000001 177.099536328125,67.34654140625 177.107084375,67.33515625000001 177.11468398437503,67.32389296875 177.12230000000002,67.3127 177.12230000000002,67.3127 176.76410332031253,65.873923046875 176.7056640625,64.332290625 176.90273339843753,62.733587890625 177.3110625,61.1236 177.8864025390625,59.548112109375005 178.58450468750004,58.052909375000006 179.36112011718754,56.683776953125005 180.17200000000003,55.48650000000001 180.17200000000003,55.48650000000001 181.51603593750002,53.969750390625 182.9130125,52.50072187500001 184.3540328125,51.07243242187501 185.8302,49.67790000000001 187.33261718750003,48.31014257812501 188.85238750000002,46.96217812500001 190.38061406250003,45.627024609375006 191.90840000000003,44.297700000000006 191.90840000000003,44.297700000000006 192.17530781250002,44.060765625 192.41801875000004,43.83369375000001 192.63887656250003,43.610943750000004 192.84022500000003,43.38697500000001 193.02440781250004,43.156246875 193.19376875000003,42.91321875 193.35065156250005,42.652350000000006 193.49740000000003,42.368100000000005 193.49740000000003,42.368100000000005 192.63848554687505,42.73980742187501 190.35054687500002,43.743190625000004 187.04204101562502,45.203666015625004 183.12142500000004,46.946650000000005 178.99715585937503,48.79755898437501 175.07769062500003,50.581809375000006 171.77148632812504,52.124817578125004 169.48700000000002,53.25200000000001 169.48700000000002,53.25200000000001 169.0990205078125,53.35260273437501 168.5360390625,53.62137187500001 167.8556287109375,54.00964882812501 167.11536250000003,54.46877500000001 166.37281347656253,54.95009179687501 165.68555468750003,55.40494062500001 165.11115917968755,55.784662890625015 164.70720000000003,56.04060000000001 163.21060000000003,87.93180000000001 163.80251601562503,88.18585468750001 164.408965625,88.4579 165.02582617187502,88.73894531250001 165.64897500000004,89.02000000000001 166.27428945312502,89.29207343750001 166.89764687500002,89.546175 167.51492460937502,89.77331406250002 168.122,89.96450000000002" fill="none" stroke="black" stroke-width="0.1" id="_188280688"/>
                <polyline points="166.773,66.8189 167.7470109375,66.13085507812501 168.6860625,65.403803125 169.5924328125,64.64053085937499 170.4684,63.84382500000001 171.3162421875,63.016472265625005 172.13823749999997,62.161259375 172.9366640625,61.280973046875 173.7138,60.3784 173.7138,60.3784 173.7666296875,60.251927734374995 173.84125625,60.135615625 173.92416093749998,60.027558203125 174.001825,59.92585 174.06072968750001,59.828585546875 174.08735625,59.733859374999994 174.0681859375,59.639766015625 173.9897,59.544399999999996 173.9897,59.544399999999996 173.8572962890625,59.47414140624999 173.7088765625,59.46505 173.5488529296875,59.50330234375 173.3816375,59.575075 173.2116423828125,59.66654453125 173.0432796875,59.763887499999996 172.8809615234375,59.85328046874999 172.7291,59.920899999999996 172.7291,59.920899999999996 172.07149296875,60.15382578124999 171.412325,60.38204999999999 170.75197578125,60.60669296875 170.090825,60.828875 169.42925234375,61.04971640625 168.76763749999998,61.2703375 168.10636015625,61.491858593749996 167.4458,61.715399999999995" fill="none" stroke="black" stroke-width="0.1" id="_188278200"/>
                <circle cx="175.66" cy="78.0606" r="2.80459" fill="none" stroke="black" stroke-width="0.1" id="_174042872"/>
                <circle cx="175.639" cy="78.0999" r="1.65767" fill="none" stroke="black" stroke-width="0.1" id="_188268160"/>
            </g>
            <polygon points="168.034,89.9395 167.8858212890625,89.9948140625 167.68275781249997,90.06455625 167.4294935546875,90.14842656249999 167.1307125,90.246125 166.7910986328125,90.3573515625 166.4153359375,90.48180625 166.00810839843749,90.6191890625 165.5741,90.7692 165.5741,90.7692 164.07847910156246,91.44227109375 162.61293906249998,92.17790625 161.1802138671875,92.97516328124999 159.78303749999998,93.8331 158.42414394531247,94.75077421875 157.10626718749998,95.72724375000001 155.83214121093746,96.76156640625 154.60449999999997,97.8528 154.60449999999997,97.8528 152.8470755859375,99.6803248046875 151.09460468749995,101.51386718750001 149.34626582031248,103.3522166015625 147.60123749999997,105.1941625 145.85869824218747,107.0384943359375 144.1178265625,108.8840015625 142.37780097656247,110.7294736328125 140.63779999999997,112.5737 140.63779999999997,112.5737 139.84228710937498,113.38999160156251 139.11136562499996,114.1337828125 138.40283632812495,114.7840982421875 137.67449999999997,115.3199625 136.884157421875,115.7204001953125 135.989609375,115.9644359375 134.94865664062496,116.0310943359375 133.71909999999997,115.8994 133.71909999999997,115.8994 132.54448749999997,115.57131914062501 131.44444374999998,115.19689062500001 130.41415937499997,114.76192304687501 129.44882499999994,114.25222500000001 128.54363124999998,113.653605078125 127.69376874999996,112.95187187500001 126.89442812499996,112.132833984375 126.14079999999997,111.1823 126.14079999999997,111.1823 125.72607285156248,110.5106388671875 125.31476406249996,109.8420046875 124.90360761718748,109.1767712890625 124.48933749999998,108.5153125 124.06868769531248,107.85800214843749 123.63839218749997,107.2052140625 123.19518496093747,106.5573220703125 122.73579999999997,105.9147 122.73579999999997,105.9147 120.67831738281247,103.31507402343749 118.54693281249997,100.7448421875 116.33386621093747,98.2283361328125 114.03133749999998,95.78988749999999 111.63156660156247,93.45382792968749 109.12677343749996,91.2444890625 106.50917792968748,89.1862025390625 103.77099999999997,87.3033 103.77099999999997,87.3033 102.68290429687497,86.36637011718749 101.72057187499998,85.2836109375 100.86923476562497,84.0849931640625 100.11412499999997,82.8004875 99.44047460937497,81.4600646484375 98.83351562499996,80.09369531249999 98.27848007812497,78.73135019531249 97.76059999999997,77.40299999999999 97.76059999999997,77.40299999999999 97.36234960937496,76.3183607421875 96.93389062499996,75.1549984375 96.55962382812497,73.9584837890625 96.32394999999997,72.77438749999999 96.31126992187497,71.64828027343749 96.60598437499996,70.62573281249999 97.29249414062497,69.7523158203125 98.45519999999996,69.0736 98.45519999999996,69.0736 98.63984160156247,69.03775546874999 98.82707656249995,69.00554375 99.01620761718746,68.97778515625001 99.20653749999997,68.95530000000001 99.39736894531246,68.93890859375 99.58800468749997,68.92943125000001 99.77774746093746,68.92768828125 99.96589999999996,68.9345 99.96589999999996,68.9345 105.89438261718746,67.9632205078125 111.78235468749997,66.7435515625 117.61451503906247,65.2714349609375 123.37556249999997,63.5428125 129.05019589843747,61.5536259765625 134.62311406249995,59.2998171875 140.07901582031243,56.7773279296875 145.40259999999995,53.9821 145.40259999999995,53.9821 147.91718730468745,52.266710742187506 150.07949843749998,50.354698437500005 151.90104472656245,48.249558789062505 153.39333749999994,45.954787499999995 154.56788808593745,43.4738802734375 155.43620781249996,40.8103328125 156.00980800781247,37.9676408203125 156.30019999999996,34.9493 156.30019999999996,34.9493 156.30063046874997,32.7263068359375 156.33422499999995,30.4534984375 156.50310078124994,28.2221814453125 156.90937499999995,26.123662500000002 157.65516484374996,24.2492482421875 158.84258749999998,22.6902453125 160.57376015624996,21.5379603515625 162.95079999999996,20.8837 162.95079999999996,20.8837 165.51273046874996,20.949787109375002 168.07716874999994,21.221540625000003 170.63559765624996,21.668011328125 173.17949999999996,22.25825 175.70035859374997,22.961307421875002 178.18965624999996,23.746234375 180.63887578124994,24.582081640625 183.03949999999995,25.4379 183.03949999999995,25.4379 183.05281679687496,25.449281835937498 183.06634687499997,25.4610421875 183.08005976562495,25.473128320312497 183.09392499999996,25.485487499999998 183.10791210937495,25.4980669921875 183.12199062499994,25.510814062499996 183.13613007812495,25.523675976562497 183.15029999999996,25.5366 183.15029999999996,25.5366 183.13618027343747,25.5818763671875 183.12233593749994,25.6274984375 183.10878925781245,25.673380664062503 183.09556249999994,25.719437499999998 183.08267792968746,25.7655833984375 183.07015781249996,25.811732812499997 183.05802441406246,25.857800195312503 183.04629999999995,25.9037 183.04629999999995,25.9037 181.86931894531247,26.604578320312502 180.72078281249995,27.3243390625 179.61457714843743,28.0807208984375 178.56458749999996,28.891462500000003 177.58469941406244,29.7743025390625 176.68879843749994,30.7469796875 175.89077011718743,31.827232617187505 175.20449999999994,33.0328 175.20449999999994,33.0328 174.32762031249993,35.494420898437504 173.49019999999993,37.9657296875 172.69117968749995,40.4471705078125 171.92949999999996,42.9391875 171.20410156249994,45.4422248046875 170.51392499999994,47.95672656250001 169.85791093749992,50.4831369140625 169.23499999999993,53.0219 169.23499999999993,53.0219 169.15061503906242,53.4022224609375 168.94103281249994,54.3939859375 168.64809980468743,55.7934095703125 168.31366249999994,57.3967125 167.97956738281243,59.0001138671875 167.6876609374999,60.3998328125 167.47978964843742,61.3920884765625 167.39779999999993,61.7731 167.39779999999993,61.7731 167.10246191406245,63.332105664062496 166.82716406249995,64.8953453125 166.57065605468742,66.4621404296875 166.33168749999993,68.0318125 166.10900800781243,69.6036830078125 165.90136718749994,71.17707343750001 165.70751464843744,72.7513052734375 165.52619999999993,74.3257 165.52619999999993,74.3257 165.37506816406244,76.5107412109375 165.31743906249991,78.5110984375 165.3753498046874,80.3772595703125 165.57083749999993,82.1597125 165.92593925781244,83.9089451171875 166.46269218749993,85.6754453125 167.20313339843744,87.5097009765625 168.16929999999994,89.4622 168.16929999999994,89.4622 168.15124726562493,89.52123496093748 168.13347812499993,89.5806109375 168.11601367187495,89.64024707031248 168.09887499999996,89.70006249999999 168.08208320312494,89.7599763671875 168.06565937499994,89.81990781249999 168.04962460937492,89.8797759765625 168.03399999999993,89.9395" fill="none" stroke="black" stroke-width="0.1" id="_269514624"/>
        </g>
    </g>
</svg>
