<!DOCTYPE svg PUBLIC "-//W3C//DTD SVG 1.1//EN" "http://www.w3.org/Graphics/SVG/1.1/DTD/svg11.dtd">
<svg xmlns="http://www.w3.org/2000/svg" width="297mm" height="210mm" viewBox="0 0 297 210">
    <defs id="_tag_15_"/>
    <g id="Ebene_x0020_1">
        <polygon points="22.1833,70.3561 22.406494140625,68.844252734375 22.759834375,67.54990312499999 23.240669921875,66.429389453125 23.84635,65.43905000000001 24.574223828125,64.53522304687499 25.421640625000002,63.674246874999994 26.385949609375,62.81245976562499 27.4645,61.9062 27.4645,61.9062 29.213766015625,60.58411484375 31.310509375000002,59.16754375 33.772385546875,57.53845078124999 36.617050000000006,55.578799999999994 39.862158203125,53.170555468749995 43.525365625,50.19568124999999 47.624327734374994,46.536141406249996 52.1767,42.073899999999995 55.7538,41.647099999999995 63.7677,35.0502 69.51729999999999,39.1838 65.24189999999999,48.4683 66.55069999999999,52.4081 64.3099845703125,57.091194335937494 63.17197656249999,61.40825468749999 63.16493339843749,65.3503970703125 64.3171125,68.90873749999999 66.65677128906249,72.0743919921875 70.21216718749999,74.83847656249999 75.01155761718749,77.19210722656248 81.08319999999999,79.12639999999999 82.66879999999999,82.3607 91.54539999999999,87.74119999999999 89.54569999999998,94.5342 79.17019999999998,94.2493 76.08439999999997,96.1093 46.52419999999998,88.489 48.85829999999998,77.2462 33.20869999999998,69.34570000000001 22.18329999999998,70.35610000000001" fill="none" stroke="black" stroke-width="0.1" id="_new_6_1"/>
        <polygon points="42.7136,63.1998 41.472251953124996,64.0296560546875 40.156571875,64.77869843750001 38.77494335937501,65.4379259765625 37.335750000000004,65.9983375 35.847375390625004,66.45093183593751 34.318203125000004,66.7867078125 32.756616796875,66.9966642578125 31.171,67.0718 31.171,67.0718 30.6495099609375,67.0664265625 30.1314921875,67.04737499999999 29.6172501953125,67.0148609375 29.1070875,66.9691 28.601307617187498,66.9103078125 28.1002140625,66.83869999999999 27.6041103515625,66.75449218749999 27.1133,66.6579 27.1133,66.6579 27.009531445312497,66.63692421875 26.903907812499995,66.61845625000001 26.796589648437497,66.60258515625 26.687737499999997,66.58939999999998 26.577511914062498,66.57898984375 26.466073437499997,66.57144374999999 26.3535826171875,66.56685078125 26.240199999999998,66.5653 26.240199999999998,66.5653 25.453635742187497,66.64135585937498 24.718079687499998,66.859909375 24.0479494140625,67.20653945312499 23.457662499999998,67.66682499999999 22.961636523437498,68.226344921875 22.5742890625,68.870678125 22.3100376953125,69.585403515625 22.1833,70.3561 20.348399999999998,99.3325 19.7254462890625,99.8951353515625 19.1671015625,100.5219015625 18.679052929687497,101.20711386718749 18.2669875,101.9450875 17.936592382812496,102.7301376953125 17.693554687499997,103.55657968749999 17.543561523437496,104.41872871093749 17.492299999999997,105.31089999999999 17.492299999999997,105.31089999999999 17.530403906249997,106.0808669921875 17.642293749999997,106.82916718749999 17.824336718749997,107.5521619140625 18.072899999999997,108.2462125 18.384350781249996,108.90768027343749 18.75505625,109.5329265625 19.181383593749995,110.1183126953125 19.659699999999997,110.66019999999999 19.659699999999997,110.66019999999999 19.7174349609375,110.74163203124998 19.750910937499995,110.83456249999998 19.7627095703125,110.93683046874999 19.7554125,111.04627499999998 19.7316013671875,111.16073515625 19.6938578125,111.27805 19.6447634765625,111.39605859375 19.586899999999996,111.51259999999999 17.876499999999997,114.71959999999999 18.236599999999996,114.96929999999999 18.515567187499993,115.13598281249998 18.816068749999996,115.29159374999999 19.141142187499998,115.4328140625 19.493824999999994,115.55632499999999 19.877154687499992,115.65880781249999 20.294168749999994,115.73694374999998 20.747904687499993,115.78741406249999 21.241399999999995,115.80689999999998 21.241399999999995,115.80689999999998 24.055374804687492,115.535569921875 26.676504687499992,114.72758437499999 29.04858535156249,113.44066289062499 31.11541249999999,111.73252499999998 32.82078183593749,109.66089023437499 34.10848906249999,107.28347812499999 34.92232988281249,104.658008203125 35.20609999999999,101.84219999999999 35.20609999999999,101.84219999999999 35.20545957031249,101.7074173828125 35.2035453125,101.5733390625 35.20036777343749,101.44036933593748 35.19593749999999,101.30891249999999 35.190265039062496,101.1793728515625 35.1833609375,101.05215468749999 35.175235742187496,100.92766230468749 35.16589999999999,100.8063 35.16589999999999,100.8063 34.98113730468749,98.1849388671875 34.79637343749999,95.56077343749999 34.6116072265625,92.9342056640625 34.42683749999999,90.30563749999999 34.242063085937495,87.67547089843748 34.05728281249999,85.04410781249999 33.872495507812495,82.4119501953125 33.68769999999999,79.7794 33.687999999999995,79.7794 33.68516171875,79.73599023437501 33.682656249999994,79.69246562499998 33.68049765625,79.648833203125 33.67869999999999,79.6051 33.67727734375,79.561273046875 33.67624375,79.517359375 33.67561328125,79.473366015625 33.675399999999996,79.4293 33.675399999999996,79.4293 33.776999609375,78.421747265625 34.068384374999994,77.483253125 34.529433203124995,76.633938671875 35.140024999999994,75.893925 35.880038671875,75.283333203125 36.729353124999996,74.822284375 37.667847265625,74.53089960937501 38.675399999999996,74.4293 38.675399999999996,74.4293 39.642143749999995,74.52274121093751 40.546225,74.7912546875 41.36994375,75.21712519531249 42.09559999999999,75.78263749999999 42.705493749999995,76.4700763671875 43.18192499999999,77.26172656249999 43.50719374999999,78.1398728515625 43.663599999999995,79.0868 44.00039999999999,83.8825 44.11733359374999,84.6641251953125 44.33213749999999,85.4092265625 44.63791640624999,86.1109052734375 45.02777499999999,86.76226249999999 45.49481796874999,87.3563994140625 46.032149999999994,87.88641718749997 46.63287578124999,88.34541699218748 47.290099999999995,88.72649999999999 55.14919999999999,74.68739999999998 55.41082714843749,74.19931464843748 55.64160468749999,73.69333593749998 55.84028925781249,73.17070488281249 56.00563749999999,72.63266249999998 56.1364060546875,72.08044980468748 56.23135156249999,71.51530781249997 56.289230664062494,70.93847753906248 56.30879999999999,70.35119999999998 56.30879999999999,70.35119999999998 56.13244687499999,68.60247187499996 55.62667499999999,66.97357499999997 54.82641562499999,65.49944062499998 53.76659999999999,64.21499999999997 52.48215937499999,63.155184374999976 51.00802499999999,62.35492499999998 49.37912812499999,61.84915312499998 47.630399999999995,61.67279999999998 47.630399999999995,61.67279999999998 46.951549023437494,61.697664257812484 46.28568593749999,61.77168281249998 45.63549550781249,61.89399433593748 45.00366249999999,62.06373749999998 44.39287167968749,62.28005097656248 43.80580781249999,62.54207343749998 43.245155664062494,62.84894355468749 42.71359999999999,63.19979999999998" fill="none" stroke="black" stroke-width="0.1" id="_new_2_1"/>
        <circle cx="47.6304" cy="70.3512" r="6.048" fill="none" stroke="black" stroke-width="0.1" id="_tag_18_"/>
        <circle cx="47.6304" cy="70.3512" r="3.672" fill="none" stroke="black" stroke-width="0.1" id="_tag_17_"/>
        <circle cx="25.1782" cy="105.311" r="4.5" fill="none" stroke="black" stroke-width="0.1" id="_tag_16_"/>
        <circle cx="38.6754" cy="79.4293" r="5" fill="none" stroke="black" stroke-width="0.1" id="center_00"/>
    </g>
</svg>
