<?xml version="1.0" encoding="UTF-8" standalone="no"?>
<svg
   xmlns:dc="http://purl.org/dc/elements/1.1/"
   xmlns:cc="http://creativecommons.org/ns#"
   xmlns:rdf="http://www.w3.org/1999/02/22-rdf-syntax-ns#"
   xmlns:svg="http://www.w3.org/2000/svg"
   xmlns="http://www.w3.org/2000/svg"
   xmlns:sodipodi="http://sodipodi.sourceforge.net/DTD/sodipodi-0.dtd"
   xmlns:inkscape="http://www.inkscape.org/namespaces/inkscape"
   xml:space="preserve"
   width="210mm"
   height="297mm"
   style="shape-rendering:geometricPrecision; text-rendering:geometricPrecision; image-rendering:optimizeQuality; fill-rule:evenodd; clip-rule:evenodd"
   viewBox="0 0 210 297"
   id="svg2"
   sodipodi:version="0.32"
   inkscape:version="0.46"
   sodipodi:docname="flatbar_sti_5.svg"
   inkscape:output_extension="org.inkscape.output.svg.inkscape"><metadata
   id="metadata34"><rdf:RDF><cc:Work
       rdf:about=""><dc:format>image/svg+xml</dc:format><dc:type
         rdf:resource="http://purl.org/dc/dcmitype/StillImage" /></cc:Work></rdf:RDF></metadata><sodipodi:namedview
   inkscape:window-height="1011"
   inkscape:window-width="1272"
   inkscape:pageshadow="2"
   inkscape:pageopacity="0.0"
   guidetolerance="10.0"
   gridtolerance="10.0"
   objecttolerance="10.0"
   borderopacity="1.0"
   bordercolor="#666666"
   pagecolor="#ffffff"
   id="base"
   showgrid="false"
   showguides="true"
   inkscape:guide-bbox="true"
   inkscape:snap-guide="true"
   inkscape:zoom="1.5218363"
   inkscape:cx="179.36703"
   inkscape:cy="504.90861"
   inkscape:window-x="132"
   inkscape:window-y="132"
   inkscape:current-layer="svg2"><sodipodi:guide
     orientation="1,0"
     position="474.40326,289.17357"
     id="guide2409" /><sodipodi:guide
     orientation="0,1"
     position="110.45807,575.79811"
     id="guide2413" /><sodipodi:guide
     orientation="1,0"
     position="200.5936,508.30029"
     id="guide2522" /><sodipodi:guide
     orientation="0,1"
     position="200.67085,508.49914"
     id="guide2524" /><sodipodi:guide
     orientation="1,0"
     position="-123.53497,581.53431"
     id="guide2540" /></sodipodi:namedview>
 <defs
   id="defs4"><inkscape:perspective
   sodipodi:type="inkscape:persp3d"
   inkscape:vp_x="0 : 526.18109 : 1"
   inkscape:vp_y="0 : 1000 : 0"
   inkscape:vp_z="744.09448 : 526.18109 : 1"
   inkscape:persp3d-origin="372.04724 : 350.78739 : 1"
   id="perspective36" />
  <style
   type="text/css"
   id="style6">
   
    .str0 {stroke:#1F1A17;stroke-width:0.0762}
    .str1 {stroke:black;stroke-width:0.3528}
    .fil1 {fill:none}
    .fil0 {fill:#EF9BA0}
   
  </style>
 
  <metadata
   id="CorelCorpID_0Corel-Layer" />
  
  
  
  
  
  
  
  
  
  
  
  
 </defs>
 <circle
   style="fill:#ef9ba0;stroke:#1f1a17;stroke-width:0.0762"
   sodipodi:ry="14.3"
   sodipodi:rx="14.3"
   sodipodi:cy="153.5"
   sodipodi:cx="56.5"
   id="circle10"
   r="14.3"
   cy="153.5"
   cx="56.5"
   class="fil0 str0" />
<circle
   style="fill:#ef9ba0;stroke:#000000;stroke-width:0.35280001"
   sodipodi:ry="4.5"
   sodipodi:rx="4.5"
   sodipodi:cy="153.5"
   sodipodi:cx="56.5"
   r="4.5"
   cy="153.5"
   cx="56.5"
   class="fil0 str1"
   id="center_00" /><polygon
   style="fill:#ef9ba0;stroke:#000000;stroke-width:0.35280001"
   id="polygon13"
   points="12.9834,178.589 9.9834,188.589 13.9834,197.589 18.9834,204.589 31.9834,210.589 37.9834,210.589 44.9834,209.589 49.9834,210.589 61.9834,219.589 66.9834,213.589 51.9834,201.589 42.9834,197.589 35.9834,186.589 26.9834,177.589 17.9834,176.589 12.9834,178.589 "
   class="fil0 str1"
   transform="matrix(0.8,0,0,0.8,11.419273,30.754844)" /><polygon
   style="fill:#ef9ba0;stroke:#000000;stroke-width:0.35280001"
   id="polygon15"
   points="89.9834,211.589 86.9834,202.589 76.9834,195.589 71.9834,186.589 45.9834,166.589 36.9834,170.589 48.9834,181.589 41.9834,192.589 81.4053,223.141 89.9834,211.589 "
   class="fil0 str1"
   transform="matrix(0.8,0,0,0.8,11.419273,30.754844)" /><polygon
   style="fill:#ef9ba0;stroke:#000000;stroke-width:0.35280001"
   id="polygon17"
   points="68.9834,180.589 75.9834,188.589 97.9834,204.589 100.983,204.589 111.983,189.589 110.983,186.589 87.9834,169.589 79.9834,164.589 66.9834,154.589 60.9834,146.589 55.9834,142.589 47.9834,138.589 38.9834,139.589 41.9834,150.589 39.9834,162.589 33.9834,169.589 43.9834,170.589 54.9834,170.589 68.9834,180.589 "
   class="fil0 str1"
   transform="matrix(0.8,0,0,0.8,11.419273,30.754844)" /><polygon
   style="fill:#ef9ba0;stroke:#000000;stroke-width:0.35280001"
   id="polygon19"
   points="59.9834,168.589 65.9834,160.589 79.9834,169.589 87.9834,173.589 108.983,191.589 113.983,195.589 123.983,203.589 133.983,208.589 133.983,215.589 128.983,222.589 122.983,222.589 116.983,213.589 106.983,204.589 101.983,200.589 78.9834,185.589 73.9834,180.589 59.9834,168.589 "
   class="fil0 str1"
   transform="matrix(0.8,0,0,0.8,11.419273,30.754844)" /><polygon
   style="fill:#ef9ba0;stroke:#000000;stroke-width:0.35280001"
   id="polygon21"
   points="53.9834,161.589 55.9834,156.589 55.9834,149.589 53.9834,143.589 50.9834,139.589 45.9834,136.589 36.9834,134.589 30.9834,134.589 25.9834,136.589 20.9834,140.589 17.9834,145.589 16.9834,150.589 16.9834,155.589 17.9834,160.589 20.9834,165.589 25.9834,169.589 31.9834,171.589 36.9834,171.589 45.9834,169.589 50.9834,166.589 53.9834,161.589 "
   class="fil0 str1"
   transform="matrix(0.8,0,0,0.8,11.419273,30.754844)" /><line
   style="fill:none;stroke:#1f1a17;stroke-width:0.06096"
   id="line23"
   y2="198.42604"
   x2="50.605991"
   y1="179.22604"
   x1="29.005993"
   class="fil1 str0" /><polyline
   style="fill:#ef9ba0;stroke:#000000;stroke-width:0.35280001"
   id="polyline25"
   points="33.9834,134.589 39.9834,135.589 45.9834,138.589 50.9834,145.589 51.9834,150.589 51.9834,155.589 50.9834,160.589 45.9834,167.589 40.6858,170.26 33.9834,171.589 "
   class="fil0 str1"
   transform="matrix(0.8,0,0,0.8,11.419273,30.754844)" /><polyline
   style="fill:#ef9ba0;stroke:#000000;stroke-width:0.35280001"
   id="polyline27"
   points="43.9834,170.589 67.8812,190.099 72.4809,205.488 86.6901,216.024 "
   class="fil0 str1"
   transform="matrix(0.8,0,0,0.8,11.419273,30.754844)" /><polygon
   style="fill:#ef9ba0;stroke:#000000;stroke-width:0.35280001"
   id="polygon29"
   points="67.9834,175.589 60.9834,179.589 53.9834,181.589 50.9834,182.589 45.9834,193.589 49.9834,196.589 52.9834,195.589 57.9834,196.589 64.9834,196.589 69.9834,191.589 73.9834,187.589 74.9834,182.589 72.9834,176.589 67.9834,175.589 "
   class="fil0 str1"
   transform="matrix(0.8,0,0,0.8,11.419273,30.754844)" /><polyline
   style="fill:none;stroke:#1f1a17;stroke-width:0.0762"
   id="polyline31"
   points="48.9834,193.589 52.9834,190.589 60.9834,191.589 65.9834,185.589 69.9834,178.589 "
   class="fil1 str0"
   transform="matrix(0.8,0,0,0.8,11.419273,30.754844)" /></svg>