<!DOCTYPE svg PUBLIC "-//W3C//DTD SVG 1.1//EN" "http://www.w3.org/Graphics/SVG/1.1/DTD/svg11.dtd">
<svg xmlns="http://www.w3.org/2000/svg" width="297mm" height="210mm" viewBox="0 0 297 210">
    <defs id="_tag_141_"/>
    <g id="_tag_142_">
        <polygon class="fil1 str1" id="simplify_121_1" points="616.137,170.88 617.5369999999999,170.28 649.064,170.28 647.2026999999999,173.48 614.837,173.48 614.837,173.28 615.737,172.48 616.1370999999999,172.48 616.0164291015624,172.4677744140625 615.9039203124998,172.4327265625 615.8020169921874,172.3772998046875 615.7131625,172.3039375 615.6398001953123,172.2150830078125 615.5843734374998,172.1131796875 615.5493255859374,172.0006708984375 615.5370999999999,171.88 615.5370999999999,171.88 615.5493255859374,171.75932910156249 615.5843734374998,171.64682031249998 615.6398001953123,171.5449169921875 615.7131625,171.4560625 615.8020169921874,171.38270019531248 615.9039203124998,171.3272734375 616.0164291015624,171.2922255859375 616.1370999999999,171.28 616.137,170.88" fill="none" stroke="black" stroke-width="0.1"/>
        <line id="simplify_122" x1="649.2" y1="170.88" x2="616.137" y2="170.88" stroke="black" stroke-width="0.1"/>
        <line id="simplify_123" x1="648.899" y1="171.28" x2="616.137" y2="171.28" stroke="black" stroke-width="0.1"/>
        <line id="simplify_124" x1="649.527" y1="172.48" x2="616.137" y2="172.48" stroke="black" stroke-width="0.1"/>
        <polyline id="simplify_SVG__000053" points="648.846,173.28 614.947,173.28 614.837,173.28" fill="none" stroke="black" stroke-width="0.1"/>
        <polygon class="fil1 str0" id="simplify_126_1" points="651.139,215.506 651.1396,468.98 615.1396,468.98 615.139,201.45300000000003 615.1386,201.45280000000002 615.1331978515625,201.22134589843753 615.1173578124999,200.9854984375 615.0916294921875,200.74745488281255 615.0565624999999,200.50941250000002 615.0127064453125,200.27356855468753 614.9606109375,200.04212031250006 614.9008255859375,199.81726503906253 614.8339,199.60120000000003 612.3924999999999,192.21080000000003 612.3367427734373,192.03073007812506 612.2869234374999,191.84334062500005 612.2434955078124,191.650462109375 612.2069124999999,191.45392500000005 612.1776279296874,191.25555976562504 612.1560953124999,191.05719687500005 612.1427681640623,190.86066679687502 612.1380999999999,190.66780000000003 612.1380999999999,175.46890000000002 612.1790187499998,175.06668281250003 612.2959687499999,174.69166250000004 612.480803125,174.35198593750002 612.725375,174.05580000000003 613.0215374999999,173.81125156250002 613.3611437499999,173.62648750000002 613.7360468749999,173.50965468750002 614.1380999999999,173.46890000000002 642.6145999999999,173.46880000000002 643.0925999999998,173.41010000000003 643.7205999999999,173.33280000000002 644.8225999999999,173.03580000000002 645.2555999999998,172.87080000000003 645.6835999999998,172.67880000000002 646.1015999999998,172.46080000000003 646.5105999999998,172.21580000000003 646.9075999999999,171.94380000000004 647.5785999999999,171.39680000000004 648.1389999999999,170.81080000000003 648.1389999999999,148.72820000000002 648.8929150390624,146.65437539062503 649.6469203124999,144.580553125 650.4009935546874,142.506735546875 651.1551124999999,140.432925 651.9092548828123,138.35912382812504 652.6633984374998,136.28533437500005 653.4175208984375,134.21155898437502 654.1715999999999,132.13780000000003 655.2466,129.18180000000004 656.2846,126.32780000000004 657.2815999999999,123.58480000000004 658.2345999999999,120.96280000000004 658.7395999999999,119.27280000000005 659.0395999999998,117.55580000000005 659.1385999999999,115.83680000000005 659.1385999999999,114.43380000000005 659.1385957031249,113.18980820312504 659.1385843749999,111.94580937500005 659.1385683593749,110.70180585937504 659.1385499999999,109.45780000000005 659.1385316406249,108.21379414062505 659.1385156249999,106.96979062500004 659.1385042968749,105.72579179687506 659.1384999999999,104.48180000000005 659.1384999999999,104.48180000000005 659.15891328125,104.28003125000004 659.217375,104.09202500000005 659.3098304687499,103.92183125000005 659.4322249999999,103.77350000000004 659.5805039062499,103.65108125000006 659.7506125,103.55862500000005 659.9384960937499,103.50018125000005 660.1401,103.47980000000005 672.0856,103.47980000000005 672.6016,103.52380000000005 673.0186,103.62780000000005 673.5126,103.83980000000005 673.9596,104.13680000000005 674.2526,104.37180000000005 674.6786000000001,104.71180000000005 675.1056000000001,105.05280000000005 675.6136000000001,105.45980000000004 675.7976000000001,105.61380000000004 675.9896000000001,105.79180000000004 676.1856000000001,105.99580000000003 676.3836000000001,106.22680000000003 676.5796000000001,106.48680000000003 676.8946000000002,106.99680000000004 677.0846000000003,107.39080000000004 677.1336000000002,107.50980000000004 677.1706000000003,107.60580000000004 677.1976000000003,107.67980000000004 677.2156000000003,107.73080000000004 677.4036000000003,108.43680000000005 677.4856000000003,109.16180000000004 677.4626000000003,109.89180000000005 677.3326000000003,110.61080000000004 676.9106000000003,112.24780000000004 674.1642066406253,122.93085996093754 671.4163718750002,133.61356718750005 668.6674261718753,144.29600019531253 665.9177000000003,154.97823750000003 663.1675238281252,165.66035761718754 660.4172281250003,176.34243906250003 657.6671433593752,187.0245603515625 654.9176000000002,197.70680000000004 651.9216000000002,209.34880000000004 651.4856000000002,211.39180000000005 651.2246000000002,213.44780000000006 651.1390000000002,215.50570000000005" fill="none" stroke="black" stroke-width="0.1"/>
        <polygon class="fil3 str2" id="simplify_127_1" points="654.407,446.409 654.4052,446.40729999999996 654.4052,446.40729999999996 654.4051000000001,446.40729999999996 654.4050000000001,446.40709999999996 654.4042000000001,446.40639999999996 654.4012,446.4036 654.3892000000001,446.3924 654.3412000000001,446.3472 654.3086000000001,446.3162 654.2763000000001,446.2853 654.1480000000001,446.16020000000003 653.8984000000002,445.90540000000004 653.4261000000001,445.37770000000006 652.5891000000001,444.25300000000004 651.8870000000002,443.02360000000004 651.3478000000001,441.74710000000005 651.3478000000001,441.74710000000005 651.1391000000001,441.02860000000004 651.1239,441.33070000000004 651.018,443.5135 650.777,444.81980000000004 650.414,445.86910000000006 649.9245,446.67580000000004 649.9245,446.67580000000004 649.3189,447.22150000000005 649.3189,467.5402 648.6466,467.42670000000004 647.8567,467.50620000000004 647.009,467.79710000000006 646.0939,468.32980000000003 645.3023,468.98 641.531924609375,468.98 637.7615281249999,468.98 633.9911175781249,468.98 630.2207,468.98 626.450282421875,468.98 622.679871875,468.98 618.909475390625,468.98 615.1391,468.98 618.1391,480.98 629.056,480.98 630.6188000000001,481.0665 632.2088000000001,481.32500000000005 633.7619000000001,481.75250000000005 635.2601000000001,482.3441000000001 636.6864,483.0929000000001 637.6085,483.6422000000001 638.6256000000001,484.2480000000001 654.1497,493.4828000000001 654.6435650390625,493.7563312500001 655.1715328125,494.0326562500001 655.7260623046875,494.3051468750001 656.2996125000001,494.56717500000013 656.8846423828126,494.8121125000001 657.4736109375001,495.0333312500001 658.0589771484376,495.22420312500014 658.6332000000001,495.37810000000013 658.6391000000001,494.87350000000015 658.6391000000001,494.21270000000015 658.6391000000001,478.47990000000016 658.7308021484376,477.57494003906265 658.9936859375,476.73115781250016 659.4094173828125,475.96688730468765 659.9596625,475.3004625000002 660.6260873046875,474.75021738281265 661.3903578125,474.3344859375002 662.2341400390626,474.07160214843765 663.1391000000001,473.97990000000016 663.1391000000001,473.97990000000016 664.0440599609376,474.07160214843765 664.8878421875002,474.3344859375002 665.6521126953127,474.75021738281265 666.3185375000002,475.3004625000002 666.8687826171877,475.96688730468765 667.2845140625002,476.73115781250016 667.5473978515626,477.57494003906265 667.6391000000001,478.47990000000016 667.6391000000001,478.47990000000016 667.6391000000001,480.5906335937501 667.6391000000001,482.70138125000017 667.6391000000001,484.81213828125016 667.6391000000001,486.92290000000014 667.6391000000001,489.0336617187502 667.6391000000001,491.1444187500002 667.6391000000001,493.25516640625017 667.6391000000001,495.3659000000002 667.6391000000001,495.3659000000002 670.3763945312501,494.38870292968767 672.8717062500001,492.9931734375002 675.0871273437501,491.22654160156264 676.9847500000001,489.13603750000016 678.5266664062501,486.7688912109376 679.6749687500001,484.17233281250014 680.3917492187501,481.3935923828127 680.6391000000001,478.47990000000016 680.6391000000001,478.47990000000016 680.5441431640627,476.6885101562502 680.2639703125001,474.91546250000016 679.8056279296876,473.17908984375015 679.1761625000001,471.4977250000002 678.3826205078126,469.8897007812502 677.4320484375,468.3733500000002 676.3314927734376,466.9670054687502 675.0880000000001,465.68900000000014 656.5457000000001,448.4033000000001 655.9086000000001,447.8093000000001 655.1251000000001,447.0786000000001 654.407,446.4090000000001" fill="none" stroke="black" stroke-width="0.1"/>
        <polygon id="center_00" cx="663.139" cy="478.48" points="673.139,478.48 673.0842189536827,479.5252846326766 672.920476007338,480.5591169081776 672.6495651629515,481.5701699437495 672.274454576426,482.547366430758 671.7992540378444,483.48 671.2291699437495,484.35785252292476 670.570448254774,485.1713060635886 669.8303060635886,485.911448254774 669.0168525229248,486.5701699437495 668.139,487.1402540378444 667.2063664307581,487.61545457642603 666.2291699437495,487.99056516295155 665.2181169081776,488.26147600733805 664.1842846326765,488.42521895368276 663.139,488.48 662.0937153673235,488.42521895368276 661.0598830918224,488.26147600733805 660.0488300562505,487.99056516295155 659.071633569242,487.61545457642603 658.139,487.1402540378444 657.2611474770753,486.5701699437495 656.4476939364114,485.911448254774 655.707551745226,485.1713060635886 655.0488300562505,484.35785252292476 654.4787459621556,483.48 654.003545423574,482.547366430758 653.6284348370485,481.5701699437495 653.357523992662,480.5591169081776 653.1937810463173,479.5252846326766 653.139,478.48 653.1937810463173,477.43471536732346 653.357523992662,476.40088309182244 653.6284348370484,475.38983005625056 654.003545423574,474.412633569242 654.4787459621556,473.48 655.0488300562505,472.6021474770753 655.707551745226,471.78869393641145 656.4476939364114,471.04855174522606 657.2611474770753,470.38983005625056 658.139,469.81974596215565 659.071633569242,469.344545423574 660.0488300562505,468.9694348370485 661.0598830918224,468.698523992662 662.0937153673235,468.5347810463173 663.139,468.48 664.1842846326765,468.5347810463173 665.2181169081776,468.69852399266193 666.2291699437495,468.9694348370485 667.206366430758,469.344545423574 668.139,469.81974596215565 669.0168525229248,470.38983005625056 669.8303060635886,471.04855174522606 670.570448254774,471.78869393641145 671.2291699437495,472.6021474770753 671.7992540378444,473.48 672.274454576426,474.412633569242 672.6495651629515,475.38983005625056 672.920476007338,476.40088309182244 673.0842189536827,477.43471536732346" fill="none" stroke="black" stroke-width="0.1"/>
        <polyline class="fil2 str1" id="simplify_129_1" points="644.734,480.993 644.2523,479.7837 643.8296,478.48 643.5192000000001,477.0636 643.4011,475.4979 643.4916000000001,473.9254 643.8043,472.29920000000004 644.1898,471.1059 644.2562501953125,470.9597205078125 644.3227015625,470.81353281250006 644.3891552734375,470.66733808593756 644.4556124999999,470.5211375 644.5220744140624,470.3749322265625 644.5885421875,470.22872343750004 644.6550169921875,470.08251230468755 644.7215,469.9363 645.3028,468.98 646.0944000000001,468.32980000000003 647.0095000000001,467.79710000000006 647.8572000000001,467.50620000000004 648.6471000000001,467.42670000000004 649.3194000000001,467.5402 650.3051,467.7207 651.44,467.7117 652.7034000000001,467.5639 654.1794000000001,467.3204 655.7920000000001,467.0585 657.5269000000002,466.8429 659.3692000000002,466.7383 660.8542000000002,466.7723 662.3863000000002,466.93109999999996 663.9379000000002,467.23689999999993 665.5051000000002,467.71989999999994 667.0436000000002,468.39009999999996 668.5025000000002,469.24839999999995 669.6645000000002,470.14129999999994 670.7227000000003,471.17209999999994 671.6448000000003,472.3222999999999 672.5078000000003,473.77629999999994 673.1545000000003,475.37719999999996 673.2610195312503,475.74818847656246 673.3543250000002,476.12898906249995 673.4341117187503,476.51710449218746 673.5000750000004,476.91003749999993 673.5519101562503,477.30529082031245 673.5893125000003,477.7003671875 673.6119773437504,478.0927693359375 673.6196000000003,478.47999999999996 673.6196000000003,490.44949999999994" fill="none" stroke="black" stroke-width="0.1"/>
        <g id="simplify_130_1">
            <polyline class="fil2 str1" id="simplify_130___0" points="648.827,484.248 653.1395,491.5702 654.7338,492.5086 655.1661359375,492.7589572265625 655.6213,493.0035453125 656.0951765624999,493.23976386718755 656.5836499999999,493.46501250000006 657.0826046875,493.6766908203125 657.5879249999999,493.8721984375 658.0954953124999,494.04893496093746 658.6012,494.2043" fill="none" stroke="black" stroke-width="0.1"/>
            <polyline class="fil2 str1" id="simplify_130___1" points="648.827,484.248 648.2247,483.3315 647.5807,482.5548 646.9019,481.9266 646.1959999999999,481.4536 645.4705999999999,481.1413 644.7338999999998,480.993 644.5577999999998,480.9841 644.5288919921873,480.9835751953125 644.4999921874997,480.9830515625 644.4710994140625,480.98253027343753 644.4422124999999,480.9820125 644.4133302734373,480.9814994140625 644.3844515625,480.9809921875001 644.3555751953124,480.9804919921875 644.3266999999998,480.98 643.0429999999999,480.98 641.6153999999999,480.98 640.0645999999999,480.98 638.4132,480.98 636.6850999999999,480.98 634.9055,480.98 633.1002,480.98 631.2955,480.98 629.5175999999999,480.98 627.7923,480.98 626.1447999999999,480.98 624.5987999999999,480.98 623.1770999999999,480.98 621.9000999999998,480.98 620.7863999999998,480.98 619.8522999999999,480.98 619.1111999999999,480.98 618.5740999999999,480.98 618.2485999999999,480.98 618.1394999999999,480.98" fill="none" stroke="black" stroke-width="0.1"/>
        </g>
        <line id="simplify_131" x1="673.619" y1="490.449" x2="673.139" y2="491.433" stroke="black" stroke-width="0.1"/>
        <polyline class="fil2 str1" id="simplify_132_1" points="667.358,494.268 668.0847458984374,494.05291054687495 668.8212171875,493.793615625 669.5591767578125,493.493862890625 670.2903875,493.15739999999994 671.0066123046875,492.78797460937494 671.6996140624999,492.389334375 672.3611556640625,491.965226953125 672.983,491.51939999999996" fill="none" stroke="black" stroke-width="0.1"/>
        <polyline class="fil2 str1" id="simplify_133_1" points="649.319,447.221 650.1197999999999,448.7134 651.0649999999999,450.07689999999997 652.1651999999999,451.3117 653.4472999999999,452.42859999999996 654.8672999999999,453.376 656.4226999999998,454.15369999999996 658.0287999999998,454.9009 659.7216999999998,455.8069 661.4918999999999,456.8666 663.3289999999998,458.07370000000003 665.2224999999999,459.4214 667.1613999999998,460.9019 669.1348999999998,462.5067 671.1312999999998,464.2266 673.1391999999997,466.0518 674.0018999999998,466.85130000000004 675.1323482421873,468.0131216796875 676.1328484374997,469.29162343750005 676.9969962890622,470.6701353515625 677.7183874999997,472.13198750000004 678.2906177734372,473.66050996093753 678.7072828124997,475.23903281250006 678.9619783203121,476.85088613281255 679.0482999999997,478.47940000000006 679.0482999999997,478.47940000000006 678.9549681640622,480.17944433593755 678.6801890624997,481.8480671875001 678.2317873046871,483.47104082031257 677.6175874999997,485.03413750000004 676.8454142578122,486.5231294921876 675.9230921874997,487.9237890625001 674.8584458984373,489.2218884765626 673.6592999999997,490.4032000000001 673.6592999999997,490.4032000000001 673.6543412109372,490.4075875000001 673.6493671874997,490.4119750000001 673.6443814453122,490.4163625000001 673.6393874999997,490.4207500000001 673.6343888671872,490.42513750000006 673.6293890624997,490.42952500000007 673.6243916015621,490.4339125000001 673.6193999999997,490.4383000000001" fill="none" stroke="black" stroke-width="0.1"/>
        <polyline class="fil2 str1" id="simplify_134_1" points="673.139,491.433 673.139,478.4804 672.935218359375,476.4693384765625 672.3510343749999,474.5942390625 671.427189453125,472.89584199218746 670.204425,471.41488749999996 668.723482421875,470.1921158203125 667.025103125,469.2682671875 665.150028515625,468.6840818359375 663.139,468.4803 663.139,468.4803 661.127971484375,468.6840818359375 659.252896875,469.2682671875 657.554517578125,470.1921158203125 656.073575,471.41488749999996 654.850810546875,472.8958419921875 653.9269656250001,474.59423906250004 653.342781640625,476.4693384765625 653.139,478.4804 653.139,491.57059999999996" fill="none" stroke="black" stroke-width="0.1"/>
        <polyline id="simplify_SVG__000056" points="659.338,107.998 659.601,108.383 660.009,108.604 660.301,108.681 660.758,108.801 661.37,108.962 662.127,109.161 662.755,109.372 663.428,109.709 664.096,110.19 664.639,110.729 665.117,111.383 665.229,111.574 665.346,111.8 665.464,112.06 665.578,112.358 665.682,112.693 665.755,113.006 665.817,113.383 665.852,113.823 665.843,114.34 665.788,114.809 665.76,114.946 665.714,115.175 665.641,115.44 665.584,115.629 665.119,117.174 652.621,158.615 650.412,165.937 649.815,167.91 649.357,169.042 648.866,169.894 648.344,170.596 648.139,170.811" fill="none" stroke="black" stroke-width="0.1"/>
        <g id="simplify_136_1">
            <polyline class="fil2 str3" id="simplify_136___0" points="612.97,191.474 643.5360000000001,191.474" fill="none" stroke="black" stroke-width="0.1"/>
            <polyline class="fil2 str3" id="simplify_136___1" points="643.5360000000001,191.474 643.902,191.44989999999999 644.2710000000001,191.37769999999998 644.6460000000001,191.25809999999998 645.0240000000001,191.0895 645.2630000000001,190.95819999999998 645.5370000000001,190.7788 645.9870000000002,190.47199999999998 646.2464000000002,190.29229999999998" fill="none" stroke="black" stroke-width="0.1"/>
            <polyline class="fil2 str3" id="simplify_136___2" points="654.8930000000003,183.3809 651.3470000000002,186.4227 649.0200000000002,188.27679999999998 646.6130000000002,190.03849999999997 646.2464000000002,190.29229999999998" fill="none" stroke="black" stroke-width="0.1"/>
        </g>
        <polyline id="simplify_137" points="613.746,175.48 639.343,175.48 643.148,175.48 645.175,175.058 646.64,174.459 647.978,173.557 648.837,172.732 649.557,171.832 650.201,170.803 650.77,169.646 651.262,168.362" fill="none" stroke="black" stroke-width="0.1"/>
        <polyline id="simplify_SVG__000058" points="615.873,200.562 645.865,200.562 646.274,200.665 646.672,200.972 647.057,201.483 647.43,202.2 647.6,202.606 647.8,203.141 648.028,203.803 648.264,204.518 648.447,205.074 648.582,205.471 648.987,206.703 649.36,207.913 649.73,209.207 650.071,210.463 650.348,211.53 650.509,212.173 650.652,212.765 650.777,213.304 650.884,213.793 650.972,214.23 651.111,215.1 651.111,215.1 651.138,215.516" fill="none" stroke="black" stroke-width="0.1"/>
    </g>
</svg>
