<!DOCTYPE svg PUBLIC "-//W3C//DTD SVG 1.1//EN" "http://www.w3.org/Graphics/SVG/1.1/DTD/svg11.dtd">
<svg xmlns="http://www.w3.org/2000/svg" width="297mm" height="210mm" viewBox="0 0 297 210">
    <defs id="_tag_59_"/>
    <g id="_tag_60_">
        <polygon class="fil1 str1" id="simplify_34_1" points="322.138,259.88 323.53799999999995,259.28 355.06499999999994,259.28 353.2036999999999,262.47999999999996 320.8379999999999,262.47999999999996 320.8379999999999,262.28 321.7379999999999,261.47999999999996 322.1380999999999,261.47999999999996 322.0174291015624,261.4677744140625 321.9049203124999,261.43272656249997 321.8030169921874,261.3772998046874 321.71416249999993,261.30393749999996 321.6408001953124,261.2150830078125 321.5853734374999,261.11317968749995 321.55032558593734,261.0006708984374 321.5380999999999,260.87999999999994 321.5380999999999,260.87999999999994 321.55032558593734,260.75932910156246 321.58537343749987,260.6468203124999 321.6408001953124,260.54491699218744 321.7141624999999,260.4560624999999 321.80301699218734,260.38270019531245 321.9049203124999,260.3272734374999 322.0174291015624,260.2922255859374 322.1380999999999,260.2799999999999 322.1379999999999,259.87999999999994" fill="none" stroke="black" stroke-width="0.1"/>
        <line id="simplify_35" x1="355.201" y1="259.88" x2="322.138" y2="259.88" stroke="black" stroke-width="0.1"/>
        <line id="simplify_36" x1="354.9" y1="260.28" x2="322.138" y2="260.28" stroke="black" stroke-width="0.1"/>
        <line id="simplify_37" x1="355.528" y1="261.48" x2="322.138" y2="261.48" stroke="black" stroke-width="0.1"/>
        <polyline id="simplify_SVG__000019" points="354.847,262.28 320.948,262.28 320.838,262.28" fill="none" stroke="black" stroke-width="0.1"/>
        <polygon class="fil1 str2" id="simplify_39_1" points="364.235,209.963 363.28200000000004,212.58499999999998 362.285,215.32799999999997 361.247,218.182 360.172,221.13799999999998 359.4179208984375,223.21175898437497 358.66379843749996,225.285534375 357.9096548828125,227.35932382812499 357.1555125,229.43312499999996 356.4013935546875,231.50693554687498 355.6473203125,233.58075312499997 354.89331503906254,235.65457539062498 354.1394,237.72839999999997 354.1394,259.811 353.579,260.397 352.908,260.944 352.511,261.216 352.10200000000003,261.461 351.684,261.67900000000003 351.25600000000003,261.87100000000004 350.82300000000004,262.03600000000006 349.72100000000006,262.3330000000001 349.0930000000001,262.41030000000006 348.61500000000007,262.46900000000005 320.1385000000001,262.4691 319.73644687500007,262.5098546875 319.36154375000007,262.6266875 319.0219375000001,262.8114515625 318.7257750000001,263.05600000000004 318.4812031250001,263.35218593750005 318.29636875000006,263.6918625 318.1794187500001,264.0668828125 318.1385000000001,264.4691 318.1385000000001,279.668 318.1431681640626,279.860866796875 318.15649531250006,280.057396875 318.1780279296876,280.255759765625 318.20731250000006,280.454125 318.24389550781257,280.65066210937505 318.28732343750005,280.843540625 318.33714277343756,281.030930078125 318.39290000000005,281.211 320.83430000000004,288.6014 320.89772910156256,288.8053689453125 320.95480781250006,289.0172703125 321.00507324218756,289.2352583984375 321.0480625,289.4574875 321.08331269531254,289.6821119140625 321.11036093750005,289.90728593750003 321.1287443359376,290.1311638671875 321.13800000000003,290.3519 321.139,468.9799 357.139,468.9799 357.139,304.5159 357.225,302.4479 357.48600000000005,300.3919 357.922,298.3489 360.918,286.7069 363.66754335937503,276.02466035156255 366.41762812499996,265.3425390625 369.167923828125,254.66045761718752 371.91810000000004,243.9783375 374.667826171875,233.2961001953125 377.416771875,222.6136671875 380.16460664062504,211.9309599609375 382.911,201.24790000000002 383.333,199.61090000000002 383.463,198.89190000000002 383.48600000000005,198.16190000000003 383.40400000000005,197.43690000000004 383.21600000000007,196.73090000000005 383.1980000000001,196.67990000000006 383.1710000000001,196.60590000000005 383.1340000000001,196.50990000000004 383.08500000000015,196.39090000000004 382.89500000000015,195.99690000000004 382.58000000000015,195.48690000000005 382.3840000000001,195.22690000000006 382.18600000000015,194.99590000000006 381.9900000000001,194.79190000000006 381.7980000000001,194.61390000000006 381.6140000000001,194.45990000000006 381.1060000000001,194.05290000000005 380.6790000000001,193.71190000000004 380.2530000000001,193.37190000000004 379.9600000000001,193.13690000000003 379.5130000000001,192.83990000000003 379.01900000000006,192.62790000000004 378.6020000000001,192.52390000000003 378.08600000000007,192.47990000000001 366.1405000000001,192.47990000000001 365.93889609375015,192.50028125000003 365.75101250000006,192.558725 365.58090390625006,192.65118125000004 365.4326250000001,192.7736 365.3102304687501,192.92193125 365.2177750000001,193.092125 365.15931328125004,193.28013125 365.1389000000001,193.48190000000002 365.1389000000001,193.48190000000002 365.1389042968751,194.72589179687503 365.1389156250001,195.96989062500003 365.13893164062506,197.21389414062503 365.1389500000001,198.45790000000002 365.1389683593751,199.70190585937502 365.13898437500006,200.945909375 365.13899570312503,202.18990820312501 365.13900000000007,203.43390000000002 365.13900000000007,204.8369 365.0400000000001,206.5559 364.74000000000007,208.27290000000002 364.23500000000007,209.96290000000002" fill="none" stroke="black" stroke-width="0.1"/>
        <polyline id="simplify_SVG__000020" points="365.339,196.998 365.602,197.383 366.01,197.604 366.302,197.681 366.759,197.801 367.371,197.962 368.128,198.161 368.756,198.372 369.429,198.709 370.097,199.19 370.64,199.729 371.118,200.383 371.23,200.574 371.347,200.8 371.465,201.06 371.579,201.358 371.683,201.693 371.756,202.006 371.818,202.383 371.853,202.823 371.844,203.34 371.789,203.809 371.761,203.946 371.715,204.175 371.642,204.44 371.585,204.629 371.12,206.174 358.622,247.615 356.413,254.937 355.816,256.91 355.358,258.042 354.867,258.894 354.345,259.596 354.14,259.811" fill="none" stroke="black" stroke-width="0.1"/>
        <g id="simplify_41_1">
            <polyline class="fil2 str2" id="simplify_41___0" points="318.97,280.474 349.536,280.474" fill="none" stroke="black" stroke-width="0.1"/>
            <polyline class="fil2 str2" id="simplify_41___1" points="349.536,280.474 349.902,280.4499 350.271,280.3777 350.646,280.2581 351.024,280.0895 351.263,279.9582 351.537,279.7788 351.98699999999997,279.472 352.2464,279.29229999999995" fill="none" stroke="black" stroke-width="0.1"/>
            <polyline class="fil2 str2" id="simplify_41___2" points="360.893,272.38089999999994 357.347,275.42269999999996 355.02,277.2768 352.613,279.0385 352.2464,279.2923" fill="none" stroke="black" stroke-width="0.1"/>
        </g>
        <polyline id="simplify_42" points="319.747,264.48 345.344,264.48 349.149,264.48 351.176,264.058 352.641,263.459 353.979,262.557 354.838,261.732 355.558,260.832 356.202,259.803 356.771,258.646 357.263,257.362" fill="none" stroke="black" stroke-width="0.1"/>
        <polyline id="simplify_SVG__000022" points="321.874,289.562 351.866,289.562 352.275,289.665 352.673,289.972 353.058,290.483 353.431,291.2 353.601,291.606 353.801,292.141 354.029,292.803 354.265,293.518 354.448,294.074 354.583,294.471 354.988,295.703 355.361,296.913 355.731,298.207 356.072,299.463 356.349,300.53 356.51,301.173 356.653,301.765 356.778,302.304 356.885,302.793 356.973,303.23 357.112,304.1 357.112,304.1 357.139,304.516" fill="none" stroke="black" stroke-width="0.1"/>
        <polygon class="fil3 str3" id="simplify_47_1" points="344.544,485.603 343.3495,484.5813 341.94059999999996,483.5133 340.41579999999993,482.61850000000004 338.7962999999999,481.90930000000003 337.1045999999999,481.3955 335.36419999999987,481.0844 333.63389999999987,480.9802 324.13939999999985,480.9802 321.13939999999985,468.9802 324.9262335937499,468.9802 328.7130812499999,468.9802 332.49993828124985,468.9802 336.28679999999986,468.9802 340.07366171874986,468.9802 343.8605187499998,468.9802 347.64736640624983,468.9802 351.43419999999986,468.9802 351.83959999999985,468.67220000000003 352.49599999999987,468.1734 353.58589999999987,467.5763 354.55359999999985,467.2316 355.0878999999998,467.1216 355.56589999999983,467.0802 356.32079999999985,467.16839999999996 356.32079999999985,451.65659999999997 356.63129999999984,450.91099999999994 356.63129999999984,450.91099999999994 356.87089999999984,450.01099999999997 357.0362999999998,448.95689999999996 357.1019999999998,447.40989999999994 357.12249999999983,446.5682999999999 357.3480999999998,447.3423999999999 357.3480999999998,447.3423999999999 357.8872999999998,448.6188999999999 358.5893999999998,449.8482999999999 359.4263999999998,450.9729999999999 359.8986999999998,451.5006999999999 360.1483999999998,451.75549999999987 360.2765999999998,451.88049999999987 360.4044999999998,452.00169999999986 361.1247999999998,452.67339999999984 361.9076999999998,453.40339999999986 362.5459999999998,453.99859999999984 375.0883999999998,465.68919999999986 376.3318927734373,466.9672054687499 377.4324484374998,468.37354999999985 378.3830205078123,469.8899007812498 379.1765624999998,471.49792499999984 379.80602792968733,473.17928984374987 380.26437031249986,474.9156624999999 380.5445431640623,476.68871015624984 380.6394999999998,478.4800999999999 380.6394999999998,478.4800999999999 380.39232128906235,481.39469843749987 379.6759578124998,484.1740624999999 378.52816855468734,486.7709703124999 376.98671249999984,489.13819999999987 375.08934863281235,491.2285296874999 372.87383593749985,492.99473749999987 370.3779333984374,494.38960156249993 367.63939999999985,495.3658999999999 367.63939999999985,495.3658999999999 367.63939999999985,493.2552037109374 367.63939999999985,491.1444921874999 367.63939999999985,489.03376894531243 367.63939999999985,486.92303749999985 367.63939999999985,484.8123013671874 367.63939999999985,482.70156406249987 367.63939999999985,480.5908291015624 367.63939999999985,478.4800999999999 367.63939999999985,478.4800999999999 367.54773085937484,477.5751400390624 367.28487187499985,476.7313578124999 366.8691582031248,475.96708730468737 366.31892499999987,475.30066249999993 365.6525074218748,474.7504173828124 364.88824062499987,474.3346859374999 364.0444597656248,474.07180214843737 363.1394999999998,473.9800999999999 363.1394999999998,473.9800999999999 362.2345398437498,474.07180214843737 361.3907562499998,474.3346859374999 360.62648203124985,474.7504173828124 359.9600499999998,475.30066249999993 359.40979296874985,475.96708730468737 358.99404374999983,476.7313578124999 358.7311351562498,477.5751400390624 358.63939999999985,478.4800999999999 358.63939999999985,478.4800999999999 358.6393886718748,480.59403203124987 358.63930937499987,482.7078187499999 358.6390941406248,484.8212960937499 358.6386749999998,486.9342999999999 358.63798398437484,489.04666640624987 358.6369531249999,491.15823124999986 358.6355144531248,493.26883046874985 358.63359999999983,495.37829999999985 358.63359999999983,495.37829999999985 357.7041158203123,495.10599687499985 356.77255156249987,494.76572499999986 355.8490896484373,494.36515312499984 354.9439124999998,493.9119499999998 354.06720253906235,493.41378437499986 353.22914218749986,492.87832499999985 352.43991386718733,492.3132406249998 351.7096999999998,491.72619999999984 344.5439999999998,485.60299999999984" fill="none" stroke="black" stroke-width="0.1"/>
        <polygon id="center_00" cx="363.139" cy="478.48" points="373.139,478.48 373.08421895368275,479.5252846326766 372.92047600733804,480.5591169081776 372.64956516295155,481.5701699437495 372.274454576426,482.547366430758 371.7992540378444,483.48 371.22916994374947,484.35785252292476 370.57044825477396,485.1713060635886 369.8303060635886,485.911448254774 369.01685252292475,486.5701699437495 368.139,487.1402540378444 367.206366430758,487.61545457642603 366.22916994374947,487.99056516295155 365.2181169081776,488.26147600733805 364.18428463267657,488.42521895368276 363.139,488.48 362.09371536732345,488.42521895368276 361.0598830918224,488.26147600733805 360.04883005625055,487.99056516295155 359.071633569242,487.61545457642603 358.139,487.1402540378444 357.26114747707527,486.5701699437495 356.44769393641144,485.911448254774 355.70755174522606,485.1713060635886 355.04883005625055,484.35785252292476 354.47874596215564,483.48 354.003545423574,482.547366430758 353.6284348370485,481.5701699437495 353.357523992662,480.5591169081776 353.19378104631727,479.5252846326766 353.139,478.48 353.19378104631727,477.43471536732346 353.357523992662,476.40088309182244 353.6284348370485,475.38983005625056 354.003545423574,474.412633569242 354.47874596215564,473.48 355.04883005625055,472.6021474770753 355.70755174522606,471.78869393641145 356.44769393641144,471.04855174522606 357.26114747707527,470.38983005625056 358.139,469.81974596215565 359.071633569242,469.344545423574 360.04883005625055,468.9694348370485 361.0598830918224,468.698523992662 362.09371536732345,468.5347810463173 363.139,468.48 364.18428463267657,468.5347810463173 365.2181169081776,468.69852399266193 366.22916994374947,468.9694348370485 367.206366430758,469.344545423574 368.139,469.81974596215565 369.01685252292475,470.38983005625056 369.8303060635886,471.04855174522606 370.57044825477396,471.78869393641145 371.22916994374947,472.6021474770753 371.7992540378444,473.48 372.274454576426,474.412633569242 372.64956516295155,475.38983005625056 372.92047600733804,476.40088309182244 373.08421895368275,477.43471536732346" fill="none" stroke="black" stroke-width="0.1"/>
        <line id="simplify_49" x1="348.157" y1="478.48" x2="348.389" y2="481.029" stroke="black" stroke-width="0.1"/>
        <polyline class="fil2 str1" id="simplify_50_1" points="358.601,494.204 357.891232421875,493.9908470703125 357.176334375,493.7306140625 356.462687890625,493.4280646484375 355.756675,493.0879625 355.06467773437504,492.7150712890625 354.393078125,492.31415468750004 353.74825820312503,491.8899763671875 353.1366,491.4473 353.0129,491.02779999999996 352.99302500000005,490.9623624999999 352.97315000000003,490.8969249999999 352.95327499999996,490.8314874999999 352.9334,490.76604999999995 352.91352500000005,490.7006125 352.89365,490.635175 352.87377499999997,490.5697375 352.8539,490.50429999999994 351.3897,485.60249999999996 351.0364,484.53659999999996 350.65070000000003,483.59369999999996 350.23650000000004,482.78399999999993 349.7984,482.1162999999999 349.3412,481.5976999999999 348.8696,481.23369999999994 348.3888,481.02829999999994 347.4171,480.9796999999999 333.3768,480.9796999999999" fill="none" stroke="black" stroke-width="0.1"/>
        <polyline id="simplify_SVG__000027" points="373.379,490.655 373.245,491.093 373.139,491.433" fill="none" stroke="black" stroke-width="0.1"/>
        <polyline class="fil2 str1" id="simplify_52_1" points="367.358,494.268 368.08128144531247,494.05402246093746 368.8142578125,493.79622968749993 369.54880214843746,493.49831894531246 370.2767875,493.16398749999996 370.9900869140625,492.79693261718745 371.6805734375,492.40085156249995 372.3401201171875,491.9794416015624 372.9606,491.53639999999996 372.9606,491.53639999999996 372.9700953125,491.5305531249999 372.99058749999995,491.51857499999994 373.0184109375,491.50250937499993 373.0499,491.48439999999994 373.0813890625,491.46629062499994 373.1092125,491.45022499999993 373.1297046875,491.43824687499995 373.1392,491.4324" fill="none" stroke="black" stroke-width="0.1"/>
        <polyline class="fil2 str1" id="simplify_53_1" points="348.157,478.48 348.1219,476.81300000000005 348.323,475.07280000000003 348.75969999999995,473.3903 349.46169999999995,471.72200000000004 350.11209999999994,470.60940000000005 350.8897999999999,469.57340000000005 351.43429999999995,468.9800000000001 352.49609999999996,468.17320000000007 353.58599999999996,467.57610000000005 354.55369999999994,467.23140000000006 355.0879999999999,467.12140000000005 355.5659999999999,467.08000000000004 356.32089999999994,467.1682 356.9504999999999,467.2744 357.7544999999999,467.3004 358.7189999999999,467.2821 359.8747999999999,467.2602 361.18259999999987,467.2874 362.61539999999985,467.4153 364.29769999999985,467.7323 366.0441999999999,468.28790000000004 367.2146999999999,468.8199 368.3570999999999,469.487 369.43419999999986,470.2837 370.72899999999987,471.5486 371.81189999999987,473.01250000000005 372.61199999999985,474.58860000000004 373.13959999999986,476.31800000000004 373.1843656249998,476.57878339843757 373.22772499999985,476.84784843750003 373.26827187499987,477.12240488281253 373.3045999999999,477.3996625 373.3353031249998,477.6768310546875 373.3589749999999,477.95112031250005 373.3742093749999,478.2197400390626 373.37959999999987,478.47990000000004 373.3794999999999,490.6555" fill="none" stroke="black" stroke-width="0.1"/>
        <polyline class="fil2 str1" id="simplify_54_1" points="356.321,451.656 356.93230000000005,453.0648 357.71260000000007,454.354 358.6573000000001,455.5235 359.5415000000001,456.38550000000004 360.5186000000001,457.16170000000005 361.5815000000001,457.85210000000006 362.72270000000015,458.45670000000007 364.04760000000016,459.14400000000006 365.44670000000013,459.9770000000001 366.90860000000015,460.9489000000001 368.42130000000014,462.0519000000001 369.97250000000014,463.2768000000001 371.5496000000001,464.6138000000001 373.1396000000001,466.0519000000001 374.0023000000001,466.8514000000001 375.1327812500001,468.0132216796876 376.1333062500001,469.29172343750014 376.9974718750001,470.6702353515626 377.7188750000001,472.1320875000001 378.2911125000001,473.6606099609376 378.7077812500001,475.23913281250015 378.9624781250001,476.85098613281264 379.0488000000001,478.47950000000014 379.0488000000001,478.47950000000014 378.9510927734376,480.21871503906266 378.66331093750006,481.92952031250013 378.1934642578126,483.5951685546877 377.5495625000001,485.1989125000002 376.7396154296876,486.72400488281266 375.7716328125001,488.15369843750017 374.6536244140626,489.47124589843764 373.3936000000001,490.65990000000016" fill="none" stroke="black" stroke-width="0.1"/>
        <polyline class="fil2 str1" id="simplify_55_1" points="373.139,478.48 372.93521835937497,476.46897148437506 372.351034375,474.59389687500004 371.42718945312504,472.895517578125 370.204425,471.414575 368.723482421875,470.191810546875 367.025103125,469.26796562500004 365.15002851562497,468.68378164062506 363.139,468.48 363.139,468.48 361.12797148437505,468.68378164062506 359.25289687500003,469.26796562500004 357.554517578125,470.191810546875 356.073575,471.414575 354.850810546875,472.895517578125 353.92696562500004,474.59389687500004 353.34278164062505,476.46897148437506 353.139,478.48 353.13890000000004,491.4327" fill="none" stroke="black" stroke-width="0.1"/>
        <line id="simplify_56" x1="373.139" y1="491.433" x2="373.139" y2="478.48" stroke="black" stroke-width="0.1"/>
    </g>
</svg>
