<!DOCTYPE svg PUBLIC "-//W3C//DTD SVG 1.1//EN" "http://www.w3.org/Graphics/SVG/1.1/DTD/svg11.dtd">
<svg xmlns="http://www.w3.org/2000/svg" width="297mm" height="210mm" viewBox="0 0 297 210">
    <defs id="_tag_95_"/>
    <g id="Ebene_x0020_1">
        <polygon points="81.227,131.836 87.661,124.552 90.274,123.367 92.595,120.793 93.226,116.561 91.668,111.091 88.888,104.056 85.481,97.6178 82.179,92.6308 78.458,87.9508 73.387,82.7198 67.555,77.9028 62.834,74.7308 58.616,74.0228 55.451,75.4348 53.516,77.5548 38.765,72.7618 38.445,69.9088 36.714,66.9068 32.885,64.9998 27.202,64.7908 19.652,65.2598 12.476,66.5118 6.712,68.1098 1.111,70.2048 -5.4295,73.4098 -11.8145,77.4678 -16.2885,80.9778 -18.2665,84.7718 -17.9015,88.2178 -16.4835,90.7138 -25.5995,103.261 -28.4115,102.683 -31.8015,103.402 -34.7987,106.454 -36.7542,111.795 -38.6406,119.121 -39.6676,126.332 -39.9284,132.307 -39.6676,138.281 -38.6406,145.493 -36.7542,152.818 -34.7987,158.159 -31.8015,161.212 -28.4115,161.93 -25.5995,161.352 -16.4835,173.9 -17.9015,176.395 -18.2665,179.841 -16.2885,183.635 -11.8145,187.146 -5.4295,191.203 1.111,194.409 6.712,196.503 12.476,198.101 19.652,199.353 27.202,199.822 32.885,199.613 36.714,197.706 38.445,194.704 38.766,191.851 53.516,187.058 55.451,189.179 58.616,190.59 62.834,189.882 67.555,186.711 73.387,181.893 78.458,176.662 82.18,171.982 85.481,166.995 88.888,160.557 91.668,153.522 93.226,148.052 92.595,143.82 90.274,141.247 87.661,140.061 81.227,132.777 102.744,132.967 103.196,134.207 104.307,135.419 105.827,136.049 108.487,137.307 108.241,140.351 105.414,141.166 103.813,141.543 102.521,142.562 101.876,143.714 101.665,145.016 101.911,146.313 102.814,147.688 104.213,148.553 106.637,150.222 105.905,153.187 102.985,153.538 101.344,153.654 99.905,154.452 99.084,155.485 98.667,156.737 98.702,158.057 99.372,159.559 100.614,160.637 102.738,162.672 101.542,165.482 98.601,165.36 96.964,165.211 95.416,165.768 94.44,166.657 93.827,167.825 93.65,169.133 94.071,170.723 95.124,171.987 96.894,174.337 95.262,176.918 92.381,176.326 90.786,175.916 89.17,176.218 88.065,176.938 87.272,177.993 86.887,179.256 87.047,180.893 87.884,182.309 89.255,184.913 87.23,187.199 84.48,186.152 82.973,185.492 81.328,185.531 80.122,186.064 79.17,186.978 78.588,188.163 78.482,189.805 79.082,191.337 80.017,194.126 77.652,196.058 75.106,194.583 73.724,193.69 72.094,193.465 70.818,193.798 69.731,194.547 68.968,195.623 68.601,197.227 68.945,198.835 69.422,201.739 66.777,203.266 64.5,201.402 63.279,200.299 61.707,199.815 60.393,199.938 59.202,200.504 58.274,201.443 57.655,202.967 57.738,204.61 57.742,207.553 54.887,208.636 52.938,206.431 51.911,205.146 50.437,204.416 49.119,204.328 47.852,204.695 46.786,205.473 45.93,206.878 45.749,208.513 45.28,211.418 42.289,212.029 40.719,209.54 39.911,208.107 38.574,207.15 37.287,206.852 35.977,207.01 34.801,207.608 33.731,208.858 33.289,210.442 32.361,213.234 29.31,213.357 28.159,210.649 27.592,209.105 26.424,207.946 25.203,207.445 23.885,207.392 22.629,207.793 21.372,208.854 20.682,210.347 19.318,212.954 16.286,212.586 15.586,209.729 15.272,208.114 14.307,206.782 13.182,206.092 11.888,205.828 10.584,206.022 9.173,206.868 8.251,208.231 6.488,210.586 3.554,209.736 3.322,206.803 3.271,205.159 2.531,203.69 1.531,202.828 0.298,202.36 -1.021,202.342 -2.55,202.951 -3.678,204.149 -5.7965,206.19 -8.5555,204.881 -8.3145,201.949 -8.1005,200.318 -8.5945,198.749 -9.4435,197.738 -10.5865,197.078 -11.8855,196.849 -13.4915,197.205 -14.7965,198.206 -17.2165,199.881 -19.7295,198.146 -19.0215,195.29 -18.5485,193.715 -18.7845,192.087 -19.4595,190.953 -20.4825,190.118 -21.7285,189.684 -23.3705,189.777 -24.8195,190.556 -27.4755,191.821 -29.6785,189.706 -28.5215,187 -27.8015,185.521 -27.7735,183.877 -28.2585,182.649 -29.1335,181.661 -30.2935,181.032 -31.9295,180.861 -33.4845,181.398 -36.3097,182.221 -38.1445,179.779 -36.5686,177.294 -35.6206,175.95 -35.3296,174.331 -35.6109,173.041 -36.3162,171.926 -37.3605,171.119 -38.948,170.688 -40.5689,170.968 -43.4892,171.327 -44.9086,168.622 -42.9546,166.423 -41.8032,165.248 -41.2562,163.697 -41.327,162.379 -41.8443,161.165 -42.7456,160.201 -44.2434,159.521 -45.8882,159.537 -48.8282,159.423 -49.7954,156.526 -47.5139,154.668 -46.1889,153.693 -45.4002,152.249 -45.2587,150.937 -45.5745,149.656 -46.3096,148.56 -47.6788,147.648 -49.305,147.401 -52.1886,146.816 -52.6785,143.801 -50.1285,142.334 -48.6644,141.584 -47.6543,140.286 -47.3041,139.013 -47.4103,137.698 -47.96,136.498 -49.1653,135.378 -50.7308,134.873 -53.4832,133.834 -53.4832,130.78 -50.7308,129.74 -49.1653,129.235 -47.96,128.115 -47.4103,126.916 -47.3041,125.6 -47.6543,124.328 -48.6644,123.029 -50.1285,122.28 -52.6785,120.812 -52.1886,117.797 -49.305,117.213 -47.6788,116.965 -46.3096,116.053 -45.5745,114.957 -45.2587,113.676 -45.4002,112.364 -46.1889,110.92 -47.5139,109.945 -49.7954,108.088 -48.8282,105.191 -45.8882,105.076 -44.2434,105.093 -42.7456,104.413 -41.8443,103.449 -41.327,102.234 -41.2562,100.917 -41.8032,99.3648 -42.9546,98.1908 -44.9086,95.9908 -43.4892,93.2858 -40.5689,93.6448 -38.948,93.9248 -37.3605,93.4938 -36.3162,92.6868 -35.6109,91.5718 -35.3296,90.2818 -35.6206,88.6628 -36.5686,87.3188 -38.1445,84.8348 -36.3097,82.3928 -33.4845,83.2148 -31.9295,83.7518 -30.2935,83.5808 -29.1335,82.9518 -28.2585,81.9638 -27.7735,80.7358 -27.8015,79.0918 -28.5215,77.6128 -29.6785,74.9078 -27.4755,72.7918 -24.8195,74.0568 -23.3705,74.8358 -21.7285,74.9298 -20.4825,74.4948 -19.4595,73.6598 -18.7845,72.5258 -18.5485,70.8988 -19.0215,69.3228 -19.7295,66.4668 -17.2165,64.7318 -14.7965,66.4068 -13.4915,67.4078 -11.8855,67.7638 -10.5865,67.5348 -9.4435,66.8748 -8.5945,65.8638 -8.1005,64.2958 -8.3145,62.6648 -8.5555,59.7318 -5.7965,58.4228 -3.678,60.4638 -2.55,61.6618 -1.021,62.2708 0.298,62.2528 1.531,61.7848 2.531,60.9228 3.271,59.4538 3.322,57.8098 3.554,54.8768 6.488,54.027 8.251,56.3815 9.173,57.7446 10.584,58.5909 11.888,58.7851 13.182,58.5211 14.307,57.8308 15.272,56.4994 15.586,54.8844 16.286,52.0267 19.318,51.6586 20.682,54.2657 21.372,55.7588 22.629,56.8204 23.885,57.2214 25.203,57.1683 26.424,56.6674 27.592,55.5081 28.159,53.9643 29.31,51.2559 32.361,51.3789 33.289,54.171 33.731,55.7555 34.801,57.0049 35.977,57.6025 37.287,57.7615 38.574,57.4629 39.911,56.5059 40.719,55.0731 42.289,52.5843 45.28,53.1952 45.749,56.1 45.93,57.7349 46.786,59.1398 47.852,59.9188 49.119,60.2858 50.437,60.1968 51.911,59.4668 52.938,58.1823 54.887,55.9774 57.742,57.0605 57.738,60.0028 57.655,61.6458 58.274,63.1698 59.202,64.1088 60.393,64.6748 61.707,64.7988 63.279,64.3148 64.5,63.2118 66.777,61.3478 69.422,62.8748 68.945,65.7778 68.601,67.3868 68.968,68.9898 69.731,70.0658 70.818,70.8158 72.094,71.1488 73.724,70.9228 75.106,70.0298 77.652,68.5548 80.017,70.4868 79.082,73.2768 78.482,74.8088 78.588,76.4498 79.17,77.6348 80.122,78.5488 81.328,79.0828 82.973,79.1208 84.48,78.4608 87.23,77.4138 89.255,79.7008 87.884,82.3038 87.047,83.7198 86.887,85.3568 87.272,86.6198 88.065,87.6748 89.17,88.3948 90.786,88.6968 92.381,88.2868 95.262,87.6948 96.894,90.2758 95.124,92.6258 94.071,93.8898 93.65,95.4798 93.827,96.7878 94.44,97.9558 95.416,98.8448 96.964,99.4018 98.601,99.2528 101.542,99.1308 102.738,101.941 100.614,103.976 99.372,105.054 98.702,106.557 98.667,107.876 99.084,109.128 99.905,110.161 101.344,110.96 102.985,111.076 105.905,111.426 106.637,114.392 104.213,116.06 102.814,116.925 101.911,118.3 101.665,119.597 101.876,120.899 102.521,122.051 103.813,123.07 105.414,123.447 108.241,124.262 108.487,127.307 105.827,128.564 104.307,129.194 103.196,130.407 102.744,131.647" fill="none" stroke="black" stroke-width="0.1" id="_131600816"/>
        <polygon points="131.019,132.967 131.471,134.207 132.582,135.419 134.101,136.049 136.762,137.307 136.587,140.256 133.797,141.19 132.214,141.636 130.965,142.708 130.372,143.887 130.215,145.197 130.517,146.482 131.476,147.817 132.911,148.622 135.404,150.186 134.882,153.094 132,153.692 130.375,153.946 129.011,154.864 128.28,155.964 127.971,157.246 128.118,158.558 128.912,159.998 130.243,160.967 132.533,162.814 131.67,165.64 128.738,165.893 127.095,165.953 125.631,166.703 124.775,167.709 124.315,168.946 124.307,170.265 124.927,171.789 126.132,172.909 128.188,175.014 126.997,177.718 124.055,177.622 122.416,177.488 120.874,178.06 119.905,178.957 119.304,180.131 119.138,181.44 119.574,183.027 120.637,184.281 122.429,186.614 120.928,189.158 118.018,188.715 116.406,188.389 114.808,188.774 113.741,189.55 113.004,190.645 112.685,191.925 112.929,193.552 113.838,194.923 115.34,197.452 113.548,199.801 110.713,199.017 109.15,198.502 107.517,198.695 106.366,199.34 105.504,200.339 105.036,201.574 105.086,203.218 105.827,204.687 107.021,207.376 104.963,209.496 102.238,208.382 100.749,207.686 99.104,207.684 97.884,208.188 96.911,209.079 96.299,210.249 96.155,211.888 96.717,213.434 97.583,216.246 95.29,218.107 92.717,216.679 91.32,215.812 89.687,215.616 88.416,215.972 87.344,216.741 86.599,217.831 86.262,219.441 86.636,221.043 87.165,223.937 84.666,225.514 82.28,223.792 80.995,222.765 79.398,222.377 78.094,222.581 76.938,223.218 76.07,224.212 75.543,225.771 75.726,227.406 75.909,230.342 73.242,231.613 71.077,229.621 69.922,228.449 68.38,227.875 67.062,227.923 65.839,228.419 64.858,229.303 64.153,230.789 64.141,232.433 63.975,235.371 61.176,236.317 59.262,234.083 58.254,232.783 56.791,232.031 55.476,231.922 54.202,232.27 53.125,233.032 52.249,234.424 52.041,236.056 51.529,238.953 48.638,239.562 47.001,237.117 46.154,235.707 44.791,234.786 43.498,234.523 42.193,234.718 41.033,235.348 39.998,236.626 39.599,238.222 38.748,241.038 35.804,241.3 34.469,238.679 33.795,237.179 32.549,236.104 31.296,235.689 29.977,235.728 28.751,236.216 27.572,237.363 26.988,238.901 25.809,241.597 22.856,241.509 21.84,238.748 21.348,237.179 20.238,235.964 19.043,235.404 17.729,235.287 16.453,235.627 15.146,236.626 14.385,238.084 12.896,240.621 9.974,240.185 9.291,237.323 8.988,235.706 8.03,234.369 6.909,233.672 5.618,233.4 4.311,233.586 2.896,234.424 1.967,235.782 0.188,238.125 -2.662,237.347 -3.002,234.424 -3.111,232.783 -3.904,231.341 -4.935,230.517 -6.1848,230.094 -7.5042,230.124 -9.009,230.789 -10.092,232.027 -12.1354,234.144 -14.8733,233.033 -14.8649,230.091 -14.7796,228.448 -15.3966,226.924 -16.322,225.983 -17.5135,225.415 -18.8272,225.289 -20.4,225.771 -21.6219,226.872 -23.9013,228.733 -26.4887,227.306 -26.1323,224.386 -25.8533,222.765 -26.2856,221.178 -27.0933,220.134 -28.2093,219.429 -29.4989,219.149 -31.1176,219.441 -32.4612,220.39 -34.9446,221.968 -37.3451,220.246 -36.6459,217.388 -36.1771,215.811 -36.4186,214.184 -37.0972,213.052 -38.122,212.22 -39.3694,211.789 -41.0114,211.888 -42.4578,212.672 -45.1104,213.945 -47.2903,211.95 -46.2579,209.195 -45.606,207.685 -45.6534,206.041 -46.1933,204.837 -47.1126,203.89 -48.3003,203.314 -49.9424,203.218 -51.4713,203.825 -54.2558,204.775 -56.1846,202.537 -54.8336,199.924 -54.0076,198.501 -53.8602,196.863 -54.2539,195.603 -55.0548,194.554 -56.166,193.842 -57.7853,193.553 -59.3752,193.974 -62.2526,194.589 -63.9032,192.138 -62.2525,189.703 -61.2641,188.388 -60.9239,186.779 -61.1659,185.481 -61.837,184.345 -62.8563,183.507 -64.4299,183.027 -66.0586,183.258 -68.9885,183.528 -70.3376,180.899 -68.4104,178.676 -67.2734,177.487 -66.7453,175.93 -66.8322,174.613 -67.3642,173.405 -68.2772,172.452 -69.7831,171.79 -71.4276,171.827 -74.3688,171.748 -75.3976,168.978 -73.221,166.998 -71.9514,165.953 -71.2428,164.468 -71.1732,163.15 -71.5587,161.888 -72.3526,160.834 -73.7696,159.998 -75.4069,159.84 -78.3182,159.414 -79.0121,156.542 -76.6167,154.834 -75.2323,153.946 -74.353,152.555 -74.1281,151.255 -74.3616,149.956 -75.0252,148.815 -76.3335,147.818 -77.9406,147.467 -80.781,146.7 -81.1305,143.766 -78.5498,142.353 -77.07,141.635 -76.0325,140.358 -75.6554,139.094 -75.7336,137.776 -76.2576,136.565 -77.4388,135.42 -78.9932,134.882 -81.7229,133.784 -81.7229,130.829 -78.9932,129.731 -77.4388,129.193 -76.2576,128.048 -75.7336,126.837 -75.6554,125.52 -76.0325,124.255 -77.07,122.978 -78.5498,122.26 -81.1305,120.847 -80.781,117.913 -77.9406,117.146 -76.3335,116.795 -75.0252,115.798 -74.3616,114.657 -74.1281,113.358 -74.353,112.058 -75.2323,110.668 -76.6167,109.779 -79.0121,108.071 -78.3182,105.199 -75.4069,104.773 -73.7696,104.615 -72.3526,103.779 -71.5587,102.725 -71.1732,101.463 -71.2428,100.145 -71.9514,98.6603 -73.221,97.6145 -75.3976,95.6347 -74.3688,92.8651 -71.4276,92.7863 -69.7831,92.8229 -68.2772,92.161 -67.3642,91.2081 -66.8322,90.0003 -66.7453,88.6835 -67.2734,87.1256 -68.4104,85.9369 -70.3376,83.7136 -68.9885,81.0851 -66.0586,81.3548 -64.4299,81.5856 -62.8563,81.1065 -61.837,80.2682 -61.1659,79.1319 -60.9239,77.8345 -61.2641,76.2251 -62.2525,74.9103 -63.9032,72.4747 -62.2526,70.0242 -59.3752,70.6385 -57.7853,71.0603 -56.166,70.7707 -55.0548,70.0588 -54.2539,69.0098 -53.8602,67.7502 -54.0076,66.1119 -54.8336,64.6894 -56.1846,62.0756 -54.2558,59.8376 -51.4713,60.7879 -49.9424,61.3948 -48.3003,61.2987 -47.1126,60.7233 -46.1933,59.7764 -45.6534,58.5721 -45.606,56.9279 -46.2579,55.4177 -47.2903,52.6625 -45.1104,50.6682 -42.4578,51.9412 -41.0114,52.7247 -39.3694,52.8235 -38.122,52.3926 -37.0972,51.561 -36.4186,50.4291 -36.1771,48.802 -36.6459,47.2253 -37.3451,44.3674 -34.9446,42.6449 -32.4612,44.2227 -31.1176,45.1717 -29.4989,45.464 -28.2093,45.1837 -27.0933,44.4792 -26.2856,43.4355 -25.8533,41.8484 -26.1323,40.2273 -26.4887,37.3067 -23.9013,35.8803 -21.6219,37.7407 -20.4,38.842 -18.8272,39.3237 -17.5135,39.1978 -16.322,38.6303 -15.3966,37.6894 -14.7796,36.1646 -14.8649,34.5218 -14.8733,31.5796 -12.1354,30.4692 -10.092,32.5862 -9.009,33.8242 -7.5042,34.4886 -6.1848,34.519 -4.935,34.0964 -3.904,33.2716 -3.111,31.8304 -3.002,30.1891 -2.662,27.2665 0.188,26.4878 1.967,28.8315 2.896,30.189 4.311,31.0267 5.618,31.2129 6.909,30.9411 8.03,30.2439 8.988,28.9067 9.291,27.2899 9.974,24.428 12.896,23.9917 14.385,26.5294 15.146,27.9872 16.453,28.9865 17.729,29.3259 19.043,29.2088 20.238,28.6491 21.348,27.4344 21.84,25.8648 22.856,23.1038 25.809,23.0162 26.988,25.7122 27.572,27.2499 28.751,28.3967 29.977,28.8846 31.296,28.9237 32.549,28.5093 33.795,27.4344 34.469,25.934 35.804,23.3126 38.748,23.5749 39.599,26.3913 39.998,27.9873 41.033,29.2655 42.193,29.8951 43.498,30.0899 44.791,29.8266 46.154,28.9065 47.001,27.4964 48.638,25.0514 51.529,25.66 52.041,28.5573 52.249,30.1892 53.125,31.5809 54.202,32.3432 55.476,32.691 56.791,32.5825 58.254,31.8302 59.262,30.5301 61.176,28.2958 63.975,29.2421 64.141,32.1796 64.153,33.8245 64.858,35.3102 65.839,36.1945 67.062,36.6905 68.38,36.7383 69.922,36.1643 71.077,34.9925 73.242,33.0003 75.909,34.271 75.726,37.2075 75.543,38.8423 76.07,40.4011 76.938,41.3951 78.094,42.0322 79.398,42.2357 80.995,41.848 82.28,40.821 84.666,39.0989 87.165,40.6761 86.636,43.5704 86.262,45.1722 86.599,46.7821 87.344,47.8718 88.416,48.6412 89.687,48.9974 91.32,48.8015 92.717,47.9338 95.29,46.5059 97.583,48.3675 96.717,51.179 96.155,52.7252 96.299,54.3638 96.911,55.5339 97.884,56.4247 99.104,56.9287 100.749,56.9273 102.238,56.2309 104.963,55.1173 107.021,57.2372 105.827,59.9264 105.086,61.3953 105.036,63.0395 105.504,64.2736 106.366,65.2733 107.517,65.9181 109.15,66.1113 110.713,65.596 113.548,64.8123 115.34,67.1608 113.838,69.6899 112.929,71.0609 112.685,72.6877 113.004,73.9684 113.741,75.063 114.808,75.8394 116.406,76.2245 118.018,75.8976 120.928,75.4548 122.429,77.9988 120.637,80.3323 119.574,81.5863 119.138,83.1727 119.304,84.4821 119.905,85.6562 120.874,86.5534 122.416,87.1249 124.055,86.991 126.997,86.8954 128.188,89.5992 126.132,91.7044 124.927,92.8236 124.307,94.3475 124.315,95.6672 124.775,96.9043 125.631,97.9097 127.095,98.6596 128.738,98.7205 131.67,98.9734 132.533,101.799 130.243,103.647 128.912,104.615 128.118,106.055 127.971,107.367 128.28,108.65 129.011,109.749 130.375,110.667 132,110.922 134.882,111.52 135.404,114.428 132.911,115.991 131.476,116.796 130.517,118.132 130.215,119.416 130.372,120.727 130.965,121.905 132.214,122.978 133.797,123.423 136.587,124.357 136.762,127.307 134.101,128.564 132.582,129.194 131.471,130.407 131.019,131.647 87.754,130.908 87.717,124.503 90.71,123.918 93.36,123.13 95.723,122.12 97.859,120.867 99.827,119.355 101.684,117.562 103.49,115.471 105.304,113.061 107.465,109.557 109.009,105.783 109.881,101.752 110.025,97.4747 109.385,92.9615 107.905,88.2236 105.53,83.272 102.204,78.1177 98.324,73.3649 94.343,69.5777 90.288,66.707 86.188,64.7036 82.071,63.5186 77.964,63.1029 73.897,63.4074 69.896,64.3831 67.045,65.3612 64.496,66.4224 62.215,67.6191 60.165,69.004 58.312,70.6297 56.619,72.5486 55.051,74.8135 53.572,77.4768 46.156,75.1561 38.792,72.7711 39.161,69.7432 39.231,66.9801 39,64.42 38.469,62.0014 37.638,59.6627 36.507,57.3421 35.076,54.9782 33.345,52.5093 30.68,49.3709 27.569,46.736 24.004,44.661 19.981,43.2024 15.491,42.4165 10.527,42.3597 5.084,43.0883 -0.846,44.6588 -6.565,46.8803 -11.3971,49.4965 -15.3804,52.4656 -18.5526,55.7458 -20.9519,59.2953 -22.6162,63.0722 -23.5835,67.0348 -23.8919,71.1413 -23.8428,74.1555 -23.6211,76.9073 -23.1879,79.4466 -22.5041,81.8238 -21.5308,84.0889 -20.2289,86.2921 -18.5595,88.4835 -16.4836,90.7132 -20.9821,97.0484 -25.5261,103.315 -28.2917,102.028 -30.8982,101.109 -33.4043,100.537 -35.8685,100.295 -38.3496,100.362 -40.906,100.72 -43.5964,101.351 -46.4794,102.234 -50.2879,103.799 -53.7552,105.944 -56.83,108.693 -59.4606,112.069 -61.5956,116.096 -63.1834,120.799 -64.1725,126.201 -64.5113,132.326 -64.1658,138.452 -63.1709,143.856 -61.578,148.561 -59.4386,152.592 -56.8043,155.971 -53.7265,158.721 -50.2568,160.865 -46.4466,162.428 -43.5647,163.312 -40.8791,163.952 -38.3302,164.324 -35.858,164.409 -33.403,164.183 -30.9054,163.626 -28.3054,162.715 -25.5433,161.43 -16.4834,173.9 -18.5562,176.133 -20.2215,178.331 -21.5186,180.542 -22.4867,182.815 -23.1652,185.2 -23.5934,187.745 -23.8104,190.502 -23.8556,193.518 -23.544,197.623 -22.5755,201.584 -20.9116,205.358 -18.5137,208.903 -15.343,212.178 -11.361,215.141 -6.5291,217.751 -0.809,219.966 5.124,221.53 10.571,222.254 15.539,222.193 20.033,221.404 24.06,219.943 27.627,217.865 30.739,215.228 33.402,212.087 35.128,209.618 36.549,207.256 37.668,204.939 38.485,202.605 39.002,200.192 39.22,197.637 39.141,194.877 38.766,191.851 53.635,187.019 55.116,189.685 56.685,191.961 58.376,193.897 60.227,195.541 62.274,196.945 64.553,198.158 67.1,199.229 69.952,200.209 73.953,201.182 78.018,201.484 82.122,201.068 86.234,199.883 90.329,197.88 94.378,195.008 98.353,191.219 102.227,186.463 105.548,181.305 107.92,176.348 109.397,171.604 110.035,167.086 109.89,162.804 109.017,158.77 107.47,154.996 105.306,151.493 103.494,149.083 101.698,146.987 99.855,145.187 97.904,143.666 95.785,142.405 93.437,141.388 90.798,140.597 87.808,140.013 87.77,133.558" fill="none" stroke="black" stroke-width="0.1" id="_130578768"/>
        <polygon points="-33.8905,87.6108 -31.4757,84.3804 -31.2845,83.9904 -31.1262,83.5476 -30.9983,83.067 -30.8986,82.5639 -30.8248,82.0533 -30.7746,81.5504 -30.7458,81.0701 -30.7359,80.6277 -30.7207,78.748 -30.6829,76.8606 -30.6192,74.9645 -30.5258,73.0587 -30.3993,71.1422 -30.2362,69.214 -30.0328,67.2731 -29.7857,65.3186 -29.7481,64.4052 -29.8947,63.6788 -30.1991,63.1442 -30.6349,62.8059 -31.1756,62.6689 -31.7951,62.7378 -32.4667,63.0174 -33.1643,63.5124 -35.0239,65.2036 -36.8368,66.9445 -38.6018,68.7342 -40.3177,70.5715 -41.9834,72.4552 -43.5977,74.3841 -45.1596,76.3573 -46.6679,78.3735 -48.1096,80.4378 -49.4936,82.5395 -50.8192,84.6773 -52.0858,86.8496 -53.2924,89.055 -54.4386,91.2922 -55.5234,93.5597 -56.5463,95.8561 -56.7976,96.6734 -56.8524,97.3988 -56.7236,98.0085 -56.4239,98.479 -55.9661,98.7868 -55.363,98.9082 -54.6273,98.8197 -53.7718,98.4977 -51.9934,97.6501 -50.2142,96.8484 -48.4343,96.0889 -46.6541,95.3679 -44.8736,94.6818 -43.0931,94.0268 -41.3126,93.3992 -39.5325,92.7953 -39.1153,92.6473 -38.6683,92.4693 -38.2063,92.264 -37.7446,92.0339 -37.2981,91.7815 -36.882,91.5094 -36.5113,91.2202 -36.2011,90.9164" fill="none" stroke="black" stroke-width="0.1" id="_129378032"/>
        <polygon points="-33.8725,177.026 -36.1985,173.731 -36.5104,173.429 -36.8826,173.141 -37.3001,172.871 -37.7478,172.621 -38.2106,172.393 -38.6734,172.19 -39.1213,172.014 -39.539,171.868 -41.322,171.272 -43.1054,170.653 -44.8889,170.007 -46.6726,169.329 -48.4562,168.616 -50.2396,167.865 -52.0226,167.072 -53.8051,166.233 -54.6622,165.915 -55.3983,165.83 -56.0009,165.954 -56.4573,166.264 -56.7547,166.736 -56.8806,167.347 -56.8222,168.072 -56.567,168.888 -55.5333,171.179 -54.4377,173.442 -53.281,175.673 -52.0639,177.873 -50.7872,180.039 -49.4515,182.171 -48.0575,184.266 -46.6061,186.323 -45.0883,188.332 -43.5172,190.298 -41.8937,192.22 -40.2191,194.095 -38.4945,195.924 -36.721,197.706 -34.8997,199.438 -33.0318,201.121 -32.3321,201.612 -31.6592,201.888 -31.0395,201.954 -30.4994,201.815 -30.0652,201.475 -29.7634,200.938 -29.6202,200.211 -29.6621,199.298 -29.9186,197.345 -30.1313,195.405 -30.3036,193.478 -30.4392,191.562 -30.5416,189.656 -30.6143,187.761 -30.661,185.873 -30.6852,183.994 -30.6971,183.551 -30.7281,183.071 -30.7807,182.568 -30.8568,182.058 -30.9589,181.555 -31.0891,181.076 -31.2496,180.634 -31.4427,180.245" fill="none" stroke="black" stroke-width="0.1" id="_129362704"/>
        <polygon points="51.171,204.64 47.319,205.834 46.935,206.037 46.547,206.302 46.161,206.616 45.785,206.964 45.425,207.334 45.089,207.711 44.783,208.083 44.515,208.435 43.398,209.947 42.258,211.452 41.092,212.948 39.896,214.435 38.667,215.911 37.402,217.375 36.096,218.826 34.748,220.262 34.18,220.979 33.872,221.653 33.804,222.264 33.958,222.794 34.315,223.223 34.856,223.531 35.564,223.699 36.419,223.709 38.918,223.434 41.408,223.091 43.888,222.68 46.356,222.203 48.81,221.658 51.25,221.046 53.674,220.368 56.079,219.623 58.459,218.801 60.814,217.914 63.143,216.964 65.444,215.951 67.717,214.876 69.959,213.739 72.17,212.543 74.347,211.286 75.031,210.772 75.501,210.218 75.755,209.649 75.79,209.092 75.6,208.574 75.184,208.121 74.536,207.76 73.655,207.518 71.718,207.159 69.807,206.761 67.921,206.33 66.057,205.866 64.213,205.375 62.388,204.858 60.578,204.32 58.783,203.762 58.359,203.636 57.893,203.518 57.398,203.412 56.889,203.327 56.38,203.269 55.883,203.244 55.413,203.26 54.984,203.324" fill="none" stroke="black" stroke-width="0.1" id="_21553040"/>
        <polygon points="103.714,132.291 103.66,136.324 103.734,136.751 103.866,137.203 104.045,137.667 104.261,138.132 104.501,138.589 104.756,139.025 105.015,139.431 105.267,139.795 106.36,141.324 107.438,142.873 108.501,144.445 109.546,146.041 110.57,147.666 111.572,149.322 112.548,151.012 113.497,152.738 114.003,153.499 114.549,154.001 115.109,154.255 115.661,154.272 116.179,154.065 116.639,153.645 117.018,153.024 117.292,152.214 117.802,149.752 118.245,147.278 118.621,144.793 118.93,142.298 119.17,139.795 119.342,137.286 119.446,134.771 119.481,132.254 119.434,129.736 119.319,127.222 119.134,124.714 118.882,122.212 118.562,119.718 118.174,117.235 117.719,114.762 117.197,112.303 116.92,111.494 116.538,110.875 116.075,110.458 115.556,110.253 115.005,110.274 114.446,110.53 113.903,111.034 113.4,111.797 112.459,113.528 111.491,115.223 110.497,116.883 109.481,118.513 108.444,120.114 107.388,121.691 106.317,123.245 105.232,124.78 104.981,125.145 104.724,125.552 104.471,125.989 104.233,126.447 104.02,126.914 103.843,127.378 103.713,127.83 103.641,128.258" fill="none" stroke="black" stroke-width="0.1" id="_130445224"/>
        <polygon points="51.142,59.9628 54.961,61.2612 55.391,61.3225 55.861,61.3362 56.357,61.3094 56.867,61.2487 57.375,61.1611 57.869,61.0534 58.335,60.9324 58.759,60.8051 60.551,60.2387 62.358,59.6914 64.181,59.1661 66.022,58.6659 67.884,58.194 69.768,57.7533 71.677,57.347 73.612,56.978 74.492,56.7315 75.138,56.3676 75.552,55.913 75.739,55.394 75.703,54.8373 75.446,54.2695 74.972,53.7171 74.286,53.2067 72.103,51.9607 69.887,50.7745 67.639,49.649 65.362,48.5849 63.055,47.5828 60.722,46.6435 58.363,45.7677 55.979,44.9563 53.57,44.2231 51.144,43.5563 48.701,42.9561 46.244,42.4229 43.773,41.9567 41.291,41.558 38.8,41.227 36.3,40.9638 35.445,40.9774 34.738,41.1494 34.198,41.4603 33.843,41.8907 33.692,42.4212 33.763,43.0324 34.074,43.7047 34.645,44.4188 36,45.8483 37.313,47.2927 38.585,48.7507 39.821,50.221 41.024,51.7023 42.197,53.1933 43.344,54.6927 44.468,56.1991 44.738,56.5501 45.045,56.9203 45.383,57.2961 45.745,57.6642 46.123,58.0108 46.51,58.3225 46.9,58.5857 47.285,58.7868" fill="none" stroke="black" stroke-width="0.1" id="_131566488"/>
        <circle cx="48.43" cy="196.503" r="6.2896" fill="none" stroke="black" stroke-width="0.1" id="_131661200"/>
        <circle cx="48.43" cy="196.503" r="2.6207" fill="none" stroke="black" stroke-width="0.1" id="_130858992"/>
        <circle cx="-27.0375" cy="171.982" r="6.2896" fill="none" stroke="black" stroke-width="0.1" id="_131736160"/>
        <circle cx="-27.0375" cy="171.982" r="2.6207" fill="none" stroke="black" stroke-width="0.1" id="_131567160"/>
        <circle cx="48.429" cy="68.1098" r="6.2896" fill="none" stroke="black" stroke-width="0.1" id="_130949192"/>
        <circle cx="48.429" cy="68.1098" r="2.6207" fill="none" stroke="black" stroke-width="0.1" id="_129524456"/>
        <circle cx="-27.0375" cy="92.6308" r="6.2896" fill="none" stroke="black" stroke-width="0.1" id="_130606792"/>
        <circle cx="-27.0375" cy="92.6308" r="2.6207" fill="none" stroke="black" stroke-width="0.1" id="_129093472"/>
        <polyline points="128.881,135.742 127.638,149.951 123.054,167.059 115.568,183.112 105.40899999999999,197.62 92.88499999999999,210.144 78.377,220.303 62.324,227.789 45.215999999999994,232.373 27.571799999999993,233.916 9.927499999999991,232.373 -7.180700000000009,227.78799999999998 -23.233000000000008,220.30299999999997 -37.741600000000005,210.14399999999998 -50.265600000000006,197.61999999999998 -60.424600000000005,183.111 -67.90990000000001,167.059 -72.49400000000001,149.951 -74.03760000000001,132.30599999999998 -72.49390000000001,114.66199999999998 -67.90970000000002,97.55389999999997 -60.42440000000001,81.50159999999997 -50.26530000000001,66.99309999999997 -37.741200000000006,54.468999999999966 -23.232600000000005,44.30999999999997 -7.180300000000006,36.824699999999964 9.927899999999994,32.240599999999965 27.571999999999996,30.696999999999964 45.215999999999994,32.24069999999996 62.324999999999996,36.824899999999964 78.377,44.310199999999966 92.886,54.46929999999997 105.41,66.99339999999997 115.569,81.50199999999997 123.054,97.55429999999997 127.638,114.66299999999997 128.863,128.66099999999997" fill="none" stroke="black" stroke-width="0.1" id="_131660064_1"/>
        <circle cx="27.572" cy="132.313" r="10" fill="none" stroke="black" stroke-width="0.1" id="_128938392"/>
        <polygon points="38.766,191.851 35.034,179.785 30.9,169.934 25.904,159.731 22.756,156.741 20.022,155.541 17.105,154.906 12.801,155.474 2.762,160.791 -6.3725,166.331 -16.4835,173.9 -21.0415,167.626 -25.5995,161.352 -15.2775,154.075 -7.1865,147.1 0.974,139.195 2.845,135.277 3.141,132.307 2.845,129.336 0.974,125.418 -7.1865,117.513 -15.2775,110.538 -25.5265,103.315 -16.4975,90.7328 -6.3725,98.2818 2.762,103.822 12.801,109.139 17.105,109.707 20.022,109.072 22.756,107.872 25.904,104.882 30.9,94.6788 35.034,84.8278 38.765,72.7618 53.572,77.4768 49.441,89.5088 46.995,99.9078 46.9228,102.201 47.5904,105.205 48.6,107.503 50.6897,109.116 54.015,110.811 57.9962,111.934 62.9429,112.91 68.533,113.781 90.989,116.01 145.541,117.422 176.427,116.886 187.676,116.395 198.24,115.478 202.572,115.285 205.084,115.452 207.844,116.117 210.701,117.349 213.707,119.433 216.37,122.338 217.572,124.257 219.096,128.204 219.594,132.307 219.096,136.41 217.572,140.356 216.37,142.275 213.707,145.18 210.701,147.265 207.844,148.496 205.084,149.161 202.572,149.328 198.24,149.135 187.676,148.219 176.427,147.727 145.541,147.191 90.989,148.603 68.533,150.832 62.9429,151.703 57.9962,152.679 54.015,153.802 50.6897,155.497 48.6,157.11 47.5904,159.409 46.9228,162.412 46.995,164.705 49.441,175.103 53.516,187.058" fill="none" stroke="black" stroke-width="0.1" id="_130473968"/>
        <circle cx="202.572" cy="132.307" r="7.5" fill="none" stroke="black" stroke-width="0.1" id="_128938368"/>
        <circle cx="27.572" cy="132.313" r="10" fill="none" stroke="black" stroke-width="0.1" id="_128923920"/>
        <circle cx="27.572" cy="132.313" r="10" fill="none" stroke="black" stroke-width="0.1" id="_131022856"/>
        <circle cx="27.572" cy="132.313" r="6.0323" fill="none" stroke="black" stroke-width="0.1" id="center_00"/>
        <polyline points="-35.4171,89.7949 -35.6206,88.6628 -36.5686,87.3188 -38.1445,84.8348 -36.3097,82.3928 -33.4845,83.2148 -31.9295,83.7518 -31.1708,83.6726" fill="none" stroke="black" stroke-width="0.1" id="_tag_96_"/>
        <polyline points="-44.0657,94.3847 -43.4892,93.2858 -41.6368,93.5136" fill="none" stroke="black" stroke-width="0.1" id="_tag_97_"/>
        <polyline points="-41.7718,171.116 -43.4892,171.327 -44.0159,170.323" fill="none" stroke="black" stroke-width="0.1" id="_tag_98_"/>
        <polyline points="-31.1115,180.947 -31.9295,180.861 -33.4845,181.398 -36.3097,182.221 -38.1445,179.779 -36.5686,177.294 -35.6206,175.95 -35.4199,174.834" fill="none" stroke="black" stroke-width="0.1" id="_tag_99_"/>
        <polyline points="45.9974,206.767 45.749,208.513 45.28,211.418 42.289,212.029 42.074,211.688" fill="none" stroke="black" stroke-width="0.1" id="_tag_100_"/>
        <polyline points="57.6807,203.473 57.738,204.61 57.742,207.553 54.887,208.636 52.938,206.431 51.911,205.146 50.9979,204.694" fill="none" stroke="black" stroke-width="0.1" id="_tag_101_"/>
        <polyline points="50.9982,59.919 51.911,59.4668 52.938,58.1823 54.887,55.9774 57.742,57.0605 57.738,60.0028 57.6829,61.094" fill="none" stroke="black" stroke-width="0.1" id="_tag_102_"/>
        <polyline points="42.0349,52.9872 42.289,52.5843 45.28,53.1952 45.749,56.1 45.93,57.7349" fill="none" stroke="black" stroke-width="0.1" id="_tag_103_"/>
    </g>
</svg>
