<!DOCTYPE svg PUBLIC "-//W3C//DTD SVG 1.1//EN" "http://www.w3.org/Graphics/SVG/1.1/DTD/svg11.dtd">
<svg xmlns="http://www.w3.org/2000/svg" width="297mm" height="210mm" viewBox="0 0 297 210">
    <defs id="_tag_6_"/>
    <g id="Ebene_x0020_1">
        <polygon points="161.742,72.8289 161.742,74.5999 130.958,74.5999 130.958,72.8289" fill="none" stroke="black" stroke-width="0.1" id="polygon10"/>
        <polygon points="163.909,70.8489 130.957,71.2409 131.156,70.8489" fill="none" stroke="black" stroke-width="0.1" id="polygon14"/>
        <polygon points="130.801,71.6399 163.864,71.6399 164.154,72.8289 130.801,72.8289 130.336,72.4139 130.336,71.9939" fill="none" stroke="black" stroke-width="0.1" id="polygon16"/>
        <rect x="130.759" y="74.599899" width="28.4757" height="0.2097" fill="none" stroke="black" stroke-width="0.1" id="rect18"/>
        <rect x="125.019" y="76.791901" width="30.7096" height="0.58609998" fill="none" stroke="black" stroke-width="0.1" id="rect20"/>
        <rect x="131.358" y="75.998901" width="2.5717001" height="0.7895" fill="none" stroke="black" stroke-width="0.1" id="rect22"/>
        <rect x="146.60001" y="75.992897" width="3.7609" height="0.78899997" fill="none" stroke="black" stroke-width="0.1" id="rect24"/>
        <polygon points="126.507,74.8109 126.008,75.2029 126.008,76.7819 166.07,76.7819 166.887,74.8109" fill="none" stroke="black" stroke-width="0.1" id="polygon26"/>
        <polygon points="128.593,109.255 128.591,103.714 128.59,102.524 128.198,100.345 127.406,98.3649 126.807,97.3749 126.016,96.3859 125.625,95.5949 125.325,94.7089 125.125,94.1139 125.025,93.4229 125.019,77.3779 137.69,77.3779 148.481,76.7819 155.112,75.5899 158.672,73.8079 161.841,71.9269 164.415,69.7459 167.184,66.6749 169.558,61.9229 170.945,57.1719 171.833,51.9259 172.609,45.8409 173.132,41.7339 174.001,33.9819 174.717,27.7919 175.513,20.9069 176.906,11.3329 177.171,7.4969 176.985,4.5589 176.005,1.5019 174.889,-0.3611 173.961,-8.6561 174.368,-10.8071 179.256,-8.0571 182.422,-5.8331 184.623,-0.9291 186.229,4.6239 187.593,12.1169 187.839,17.7429 186.385,22.5619 184.881,29.5609 182.622,46.8749 182.497,48.3819 181.569,59.5529 180.199,63.3579 175.904,77.7619 168.785,106.073 168.586,107.658 168.487,109.343 168.388,112.01 168.349,137.827 168.312,201.553 168.253,205.955 167.875,238.189 167.089,250.76 167.864,254.122 159.802,258.202 156.301,257.895 140.959,257.901 137.589,255.722 134.027,254.135 130.466,253.346 128.677,252.357 127.986,251.171 127.886,250.377 130.066,250.576 136.405,250.773 130.066,250.576 127.886,250.377 127.492,176.374 128.56,156.249 128.567,118.979" fill="none" stroke="black" stroke-width="0.1" id="polygon28"/>
        <polyline points="153.133,80.8369 157.39100000000002,84.6959 163.627,84.6969 169.175,83.1059 172.93200000000002,74.9919 169.175,83.1059 169.967,87.85690000000001 169.471,93.99690000000001 166.602,98.7489 166.869,100.01190000000001 168.386,106.06990000000002" fill="none" stroke="black" stroke-width="0.1" id="path30_1"/>
        <polyline points="135.151,103.711 141.066,103.90899999999999 145.222,104.29799999999999 148.592,104.49599999999998" fill="none" stroke="black" stroke-width="0.1" id="path32_1"/>
        <polygon points="173.949,-8.6581 174.832,-0.3591 173.564,-0.0031 174.404,1.4549 175.661,3.6369 176.16,7.8719 175.45,14.4289 174.913,19.3279 173.88,28.0479 172.764,38.1949 171.857,46.4739 170.798,54.7869 169.466,60.5179 167.443,65.3559 164.71,68.8339 164.71,56.8849 167.515,44.8849 170.318,24.2989 172.379,9.6099 173.564,-0.0031 172.693,-5.1571 174.368,-10.8071" fill="none" stroke="black" stroke-width="0.1" id="polygon34"/>
        <polyline points="142.96,251.165 142.96,175.89 140.993,154.077 132.768,154.077" fill="none" stroke="black" stroke-width="0.1" id="path36_1"/>
        <line x1="121.358" y1="191.12399" x2="106.508" y2="192.918" fill="none" stroke="black" stroke-width="0.1" id="line38"/>
        <line x1="124.128" y1="189.54201" x2="106.507" y2="191.729" fill="none" stroke="black" stroke-width="0.1" id="line40"/>
        <polygon points="122.083,184.604 124.919,184.262 126.307,183.471 126.898,182.68 127.496,181.49 127.704,203.663 127.005,202.178 125.915,200.893 123.935,200.103 122.753,199.905 107.902,199.319 107.702,198.521 121.363,198.715 124.433,199.213 126.114,200.302 124.433,199.213 121.363,198.715 107.702,198.521 106.508,187.838 121.358,186.076 124.328,185.452 125.909,184.461 124.328,185.452 121.358,186.044 106.508,187.838 106.315,186.848" fill="none" stroke="black" stroke-width="0.1" id="polygon42"/>
        <polygon points="121.587,260.091 124.453,258.801 127.526,256.129 129.8,247.882 130.495,248.266 134.056,249.055 137.618,250.642 140.988,252.821 156.031,252.821 159.741,250.542 161.314,274.555 155.346,272.55 138.92,271.148 117.232,271.966 115.846,260.884" fill="none" stroke="black" stroke-width="0.1" id="polygon44"/>
        <polygon points="115.447,261.084 117.041,272.956 117.232,271.966 117.233,273.156 136.984,272.528 154.848,273.74 155.941,273.931 157.167,274.309 158.217,275.12 157.427,274.13 155.446,272.55 138.92,271.148 117.232,271.966 115.846,260.884" fill="none" stroke="black" stroke-width="0.1" id="polygon46"/>
        <polygon points="150.445,274.66 148.971,270.8 141.182,258.087 153.613,257.896 156.031,257.901 161.495,254.544 166.187,252.785 167.177,251.798 167.176,250.608 166.603,249.261 165.824,248.209 165.033,246.82 162.303,241.71 162.17,241.034 162.661,240.535 163.36,240.243 167.12,240.242 167.896,239.815 167.882,238.853 167.955,223.581 168.106,229.75 168.481,237.279 169.383,242.816 170.475,246.12 172.272,249.202 174.955,251.782 179.142,256.037 182.014,260.687 184.096,265.344 184.99,268.597 184.684,273.789 183.489,276.754 180.047,279.394 171.226,268.711 170.236,267.921 168.954,267.33 167.465,267.131 166.083,267.331 164.694,268.023 163.605,269.309 162.915,270.495 162.916,272.774 163.807,274.654 172.957,285.494 169.515,288.394 164.866,288.379 162.127,287.721 158.27,285.348 155.99,283.568 154.297,281.735 153.217,280.2" fill="none" stroke="black" stroke-width="0.1" id="polygon48"/>
        <circle cx="167.56599" cy="271.78201" r="4.4998999" fill="none" stroke="black" stroke-width="0.1" id="center_00"/>
        <polyline points="153.017,278.024 154.503,280.595 157.27499999999998,283.663 161.13599999999997,286.233 163.71199999999996,287.717 164.53699999999995,287.139 169.84999999999994,282.772 166.75999999999993,282.77299999999997 163.21499999999995,281.97999999999996 160.74299999999994,280.39599999999996 158.66199999999995,278.22099999999995 157.17599999999996,275.0559999999999 156.57599999999996,271.7869999999999 157.17299999999997,268.3169999999999 158.55699999999996,265.4499999999999 160.93199999999996,262.9739999999999 163.00699999999995,261.7839999999999 166.27199999999993,260.7929999999999 170.04099999999994,260.9899999999999 173.50299999999993,262.3739999999999 176.17499999999993,264.7489999999999 177.76099999999994,268.31299999999993 178.55699999999993,271.67799999999994 178.25899999999993,275.63899999999995 184.49699999999993,270.48699999999997" fill="none" stroke="black" stroke-width="0.1" id="path51_1"/>
        <line x1="164.866" y1="288.379" x2="171.03999" y2="283.16299" fill="none" stroke="black" stroke-width="0.1" id="line53"/>
        <line x1="178.35899" y1="277.22" x2="184.888" y2="271.776" fill="none" stroke="black" stroke-width="0.1" id="line55"/>
        <polyline points="166.469,253.271 173.89499999999998,254.94899999999998 177.14899999999997,256.31 178.59399999999997,258.257 175.66699999999997,257.013 178.55099999999996,258.21599999999995 180.43199999999996,259.9959999999999 182.15899999999996,263.4479999999999 183.30499999999995,266.3349999999999 184.39599999999996,269.79599999999994" fill="none" stroke="black" stroke-width="0.1" id="path57_1"/>
        <rect x="142.17799" y="259.08301" width="12.6647" height="1.783" fill="none" stroke="black" stroke-width="0.1" id="rect59"/>
        <rect x="142.97" y="261.461" width="11.285" height="7.7164998" fill="none" stroke="black" stroke-width="0.1" id="rect61"/>
        <rect x="142.97099" y="264.43201" width="2.5729001" height="4.7498002" fill="none" stroke="black" stroke-width="0.1" id="rect63"/>
        <rect x="146.133" y="264.42999" width="4.9521999" height="4.7488999" fill="none" stroke="black" stroke-width="0.1" id="rect65"/>
        <rect x="151.68201" y="264.42801" width="2.5729001" height="4.7498999" fill="none" stroke="black" stroke-width="0.1" id="rect67"/>
        <polygon points="143.267,269.382 154.255,269.178 153.856,269.378" fill="none" stroke="black" stroke-width="0.1" id="polygon69"/>
        <polygon points="154.843,260.866 154.252,261.457 142.97,261.461 142.178,260.866" fill="none" stroke="black" stroke-width="0.1" id="polygon73"/>
        <polygon points="154.051,258.485 154.052,259.078 143.168,259.078 143.168,258.485" fill="none" stroke="black" stroke-width="0.1" id="polygon75"/>
        <polygon points="155.403,258.087 154.746,258.485 143.168,258.485 142.769,258.092" fill="none" stroke="black" stroke-width="0.1" id="polygon79"/>
    </g>
</svg>
