<?xml version="1.0" encoding="UTF-8"?>
<!DOCTYPE svg PUBLIC "-//W3C//DTD SVG 1.1//EN" "http://www.w3.org/Graphics/SVG/1.1/DTD/svg11.dtd">
<!-- Creator: CorelDRAW -->
<svg xmlns="http://www.w3.org/2000/svg" xml:space="preserve" width="210mm" height="297mm" style="shape-rendering:geometricPrecision; text-rendering:geometricPrecision; image-rendering:optimizeQuality; fill-rule:evenodd; clip-rule:evenodd"
viewBox="0 0 210 297">
 <defs>
  <style type="text/css">
   <![CDATA[
    .str0 {stroke:#1F1A17;stroke-width:0.0762}
    .str1 {stroke:#DA251D;stroke-width:0.1764}
    .fil0 {fill:none}
    .fil1 {fill:#C2C1C1}
   ]]>
  </style>
 </defs>
 <g id="Ebene_x0020_1">
  <metadata id="CorelCorpID_0Corel-Layer"/>
  <circle class="fil0 str0" cx="100" cy="147" r="18.368" id="center_00"/>
  <polygon class="fil1 str1" points="68.9225,184.671 60.8212,179.448 61.3136,178.637 59.7627,177.759 59.3969,178.451 55.0005,175.915 53.6641,177.982 55.376,175.137 54.8144,172.69 51.5835,171.045 49.0179,172.002 47.9083,173.847 53.3705,176.847 47.9083,173.847 45.8854,177.35 46.0334,179.023 50.2716,181.202 46.0334,179.023 46.3287,180.365 49.0607,181.85 51.8664,181.081 53.0621,179.081 52.194,180.533 56.4109,183.28 58.9675,179.097 55.7754,184.32 57.2579,185.223 57.863,184.254 65.9523,189.529 "/>
  <polygon class="fil1 str1" points="104.977,216.556 105.665,217.31 107.288,218.022 109.639,217.974 110.757,220.978 109.004,222.256 107.932,223.963 107.781,226.781 109.131,228.329 110.822,229.404 110.08,232.79 107.792,232.818 106.269,233.464 104.502,236.194 104.435,238.509 105.347,240.056 102.438,242.119 101.001,240.879 99.3331,240.469 95.8702,241.829 94.9942,243.335 94.6228,245.211 91.3307,245.37 91.0035,243.8 80.0749,239.732 81.0247,236.48 79.5822,234.801 76.852,234.852 75.1708,229.961 76.7756,227.816 76.7053,225.307 74.3593,222.849 79.7056,215.416 95.6496,209.907 103.327,209.664 "/>
  <circle class="fil1 str1" cx="92.291" cy="226.363" r="13.9998"/>
  <circle class="fil1 str1" cx="92.2358" cy="226.363" r="8.5013"/>
  <polygon class="fil1 str1" points="99.2603,225.455 103.738,217.988 106.799,214.097 109.035,211.945 111.345,209.644 116.02,205.828 119.067,204.86 126.006,205.037 131.434,204.922 135.116,203.678 138.824,200.881 140.771,198.207 143.338,191.145 143.378,184.065 142.431,175.908 140.458,169.335 136.495,164.254 128.495,161.192 121.987,161.151 115.954,163.478 111.378,167.56 108.582,173.473 112.196,196.701 108.562,199.558 102.55,203.153 81.859,209.433 76.7742,211.086 73.5327,210.366 69.6799,208.523 68.4885,208.223 67.5451,208.932 66.5684,210.351 64.5153,214.98 65.9476,215.4 66.4955,214.553 68.0857,210.814 68.7551,209.826 69.5231,209.521 69.5231,209.521 68.7551,209.826 68.0857,210.814 66.4955,214.553 67.7515,215.409 68.7553,217.232 69.5136,215.628 71.6847,213.561 75.1679,211.797 71.6847,213.561 69.5136,215.628 68.7553,217.232 68.5203,218.527 68.5973,223.392 70.532,231.342 73.7087,237.493 77.9477,242.52 83.2184,245.541 87.1019,245.855 89.701,243.794 93.9143,235.449 99.2602,225.455 97.6771,221.543 94.7254,219.925 91.3825,219.592 88.0375,220.79 85.6468,224.117 85.409,227.731 86.4273,230.171 88.8234,232.246 91.9288,233.024 95.5933,232.311 91.9288,233.024 88.8234,232.246 88.9469,233.518 87.0695,237.202 86.1364,239.174 84.2427,239.577 82.4838,238.955 81.0738,237.851 79.4623,236.191 78.7888,235.236 76.9694,232.422 76.5929,231.054 75.5447,226.83 75.6998,222.548 77.2696,219.468 80.1202,216.812 84.1977,214.807 85.7543,214.317 89.8523,213.028 99.2192,210.33 100.329,211.04 100.873,213.309 100.009,214.402 98.922,215.779 94.7254,219.925 97.6771,221.543 "/>
  <polygon class="fil1 str1" points="124,166.844 122.534,167.423 120.415,168.43 119.945,168.639 117.876,169.975 116.81,171.707 115.866,173.155 116.18,174.905 124.988,176.738 126.285,176.183 130.875,174.229 134.331,174.065 135.151,172.144 133.803,169.47 130.859,167.64 127.334,166.694 125.975,166.755 "/>
  <polygon class="fil1 str1" points="76.1133,176.231 78.0387,180.674 84.6922,183.379 83.1457,179.194 84.9132,183.977 89.4922,186.132 90.9821,188.733 91.7188,193.552 93.136,195.858 93.9678,198.346 98.6165,203.528 101.039,203.901 102.772,202.568 103.403,200.067 100.133,192.697 99.4876,187.89 98.12,185.542 99.4876,187.89 100.133,192.697 103.403,200.067 102.772,202.568 105.22,199.215 105.315,197.118 103.565,193.197 102.757,189.907 102.826,188.31 103.651,183.275 107.925,184.994 103.651,183.275 102.826,188.31 102.757,189.907 110.341,192.848 116.67,185.4 113.418,177.829 82.539,167.137 77.2722,168.971 "/>
  <polygon class="fil1 str1" points="93.0213,138.693 86.0704,144.722 81.9082,149.599 79.472,153.058 67.8121,170.32 66.4746,172.767 61.656,178.072 57.7697,184.479 57.4705,186.349 59.1047,187.965 62.3046,190.142 66.931,182.328 68.6094,180.918 70.8565,181.518 79.3181,185.835 81.4672,186.826 82.4597,186.001 81.8769,185.944 79.1092,183.836 76.1848,180.681 69.9749,177.394 66.6348,180.355 69.9748,177.394 76.1848,180.681 79.1092,183.836 81.9721,186.017 82.4597,186.001 83.5429,184.508 83.2182,183.741 80.2251,181.474 77.845,178.044 77.224,177.248 78.2305,177.007 79.4962,176.407 78.8471,174.114 76.7409,171.992 72.9271,170.103 69.8174,169.372 72.9271,170.103 76.7409,171.992 78.847,174.114 79.4962,176.407 80.5595,173.676 80.5777,172.228 79.2906,170.901 77.9596,169.761 75.5307,168.235 83.0667,156.883 87.1422,158.463 90.8238,155.158 87.1424,158.463 83.0666,156.883 75.5307,168.235 77.9596,169.761 79.2906,170.901 80.5777,172.228 86.9004,159.5 91.2809,155.83 92.8046,155.527 96.7685,157.59 102.014,158.151 106.947,155.758 109.746,152.204 111.121,147.384 110.218,143.05 107.774,139.435 104.555,137.28 100.612,136.177 96.51,136.692 "/>
  <polygon class="fil1 str1" points="84.4116,158.95 87.1422,158.463 90.0693,158.056 91.6585,157.621 96.1689,158.607 101.925,160.525 109.638,163.401 116.482,166.417 116.682,167.015 116.326,168.253 116.426,169.505 120.879,172.179 122.652,173.999 122.935,175.26 116.67,185.4 111.837,182.245 109.126,180.984 103.926,176.268 98.0168,172.952 91.4763,170.713 86.1432,170.154 85.4291,170.998 104.263,177.85 97.1355,184.188 95.7024,184.561 84.8256,180.205 83.4047,178.666 83.5124,176.537 84.4059,170.616 80.7803,169.788 84.4059,170.616 83.6904,175.358 80.3552,174.2 80.5778,172.228 79.2906,170.901 77.9596,169.761 77.043,169.185 79.3137,165.282 82.0401,161.308 83.2466,159.731 "/>
  <polygon class="fil1 str1" points="118.997,167.657 123.208,169.196 127.239,171.494 128.91,173.93 130.792,178.174 129.542,181.349 128.701,183.123 126.7,184.906 128.701,183.123 129.542,181.349 131.179,182.46 135.642,184.319 137.703,186.935 139.104,189.965 138.935,193.222 137.486,196.688 133.922,200.523 129.29,201.722 124.255,200.533 118.952,197.938 120.421,195.012 118.952,197.938 116.934,198.839 112.983,198.974 106.997,196.676 105.419,195.078 106.634,193.083 108.101,192.258 115.844,196.551 108.101,192.258 108.953,191.105 116.888,195.471 108.953,191.105 110.126,189.024 107.643,186.716 108.002,184.523 111.554,185.968 116.114,189.43 111.554,185.968 108.002,184.523 109.097,183.222 109.918,182.247 111.837,182.245 113.525,183.405 117.834,186.139 124.677,174.748 123.356,172.734 120.416,170.813 117.194,169.524 117.629,168.179 "/>
  <polygon class="fil1 str1" points="95.6508,193.44 94.4434,195.318 94.2308,196.412 94.4434,195.318 94.3758,195.666 93.6927,195.87 92.6888,196.887 92.5297,197.399 93.4367,196.848 92.5297,197.399 92.2443,198.117 92.6364,199.275 99.0129,203.178 100.518,203.461 101.423,202.615 100.972,200.766 100.248,199.81 99.4254,199.178 100.248,199.81 100.972,200.766 101.423,202.615 102.556,201.036 102.273,199.398 101.399,198.384 100.8,197.899 99.1879,196.528 97.8937,195.891 98.0803,195.033 97.6543,194.073 97.0931,195.265 96.7042,196.059 97.0923,197.17 96.7042,196.059 97.6543,194.073 "/>
  <polygon class="fil1 str1" points="97.7747,206.217 100.833,202.24 100.655,201.263 99.5748,199.896 97.6416,198.529 95.4061,197.628 93.695,197.53 93.099,197.738 92.6346,198.066 91.0838,202.319 90.9853,203.113 91.5044,203.972 92.7242,205.047 94.3066,205.979 95.9361,206.436 97.431,206.533 "/>
  <polyline class="fil0 str1" points="97.7094,205.907 97.2284,204.68 95.7684,203.196 93.6994,202.063 92.2369,201.94 91.4047,202.241 "/>
  <circle class="fil1 str1" cx="92.291" cy="226.363" r="3.4999"/>
  <circle class="fil0 str1" cx="100" cy="147" r="9.4986"/>
  <circle class="fil0 str1" cx="100" cy="147" r="7.9988"/>
  <circle class="fil0 str1" cx="100" cy="147" r="3.4994"/>
 </g>
</svg>
