<!DOCTYPE svg PUBLIC "-//W3C//DTD SVG 1.1//EN" "http://www.w3.org/Graphics/SVG/1.1/DTD/svg11.dtd">
<svg xmlns="http://www.w3.org/2000/svg" width="297mm" height="210mm" viewBox="0 0 297 210">
    <defs id="_tag_8_"/>
    <g id="_tag_9_">
        <g id="_tag_10_">
            <polygon id="center_00" cx="134.207" cy="117.014" points="154.3678,117.014 154.2573570281407,119.1213774422465 153.9272381488741,121.20566601623868 153.38106021372332,123.24402982019444 152.62480726244092,125.21413611372259 151.66676496061731,127.0944 150.51742982019442,128.8642209144181 149.18939419748463,130.50420832867965 147.69720832867966,131.99639419748465 146.05722091441808,133.32442982019444 144.2874,134.4737649606173 142.4071361137226,135.43180726244094 140.43702982019443,136.18806021372333 138.39866601623868,136.7342381488741 136.3143774422465,137.06435702814068 134.207,137.1748 132.0996225577535,137.06435702814068 130.0153339837613,136.7342381488741 127.97697017980556,136.18806021372333 126.0068638862774,135.43180726244094 124.1266,134.4737649606173 122.3567790855819,133.32442982019444 120.71679167132034,131.99639419748465 119.22460580251536,130.50420832867968 117.89657017980556,128.8642209144181 116.74723503938269,127.09440000000001 115.78919273755905,125.21413611372259 115.03293978627667,123.24402982019444 114.48676185112589,121.20566601623868 114.15664297185931,119.12137744224651 114.0462,117.014 114.15664297185931,114.9066225577535 114.48676185112589,112.82233398376133 115.03293978627666,110.78397017980556 115.78919273755905,108.81386388627742 116.74723503938267,106.9336 117.89657017980555,105.16377908558191 119.22460580251534,103.52379167132034 120.71679167132032,102.03160580251534 122.3567790855819,100.70357017980555 124.12659999999998,99.55423503938269 126.00686388627739,98.59619273755905 127.97697017980555,97.83993978627666 130.0153339837613,97.2937618511259 132.09962255775346,96.96364297185931 134.207,96.8532 136.3143774422465,96.96364297185931 138.39866601623865,97.29376185112588 140.43702982019443,97.83993978627666 142.40713611372257,98.59619273755905 144.2874,99.55423503938268 146.05722091441808,100.70357017980555 147.69720832867966,102.03160580251534 149.18939419748463,103.52379167132031 150.51742982019442,105.1637790855819 151.6667649606173,106.93359999999998 152.62480726244092,108.81386388627739 153.38106021372332,110.78397017980555 153.9272381488741,112.8223339837613 154.2573570281407,114.90662255775347" fill="none" stroke="black" stroke-width="0.1"/>
            <polygon id="polygon3025" points="67.5593,153.026 70.7483,153.57 73.8723,150.614 70.7483,153.57 71.7609,154.627 74.6474,157.069 80.037,161.174 85.9927,163.345 93.3947,164.401 101.342,163.736 161.177,158.374 170.007,157.139 174.954,155.741 180.263,153.458 209.2,140.691 214.238,139.033 228.249,137.959 227.119,135.051 228.249,137.959 230.437,139.414 244.62,139.764 261.032,133.58 233.113,128.874 223.983,127.884 225.976,131.755 226.231,132.564 213.556,133.322 209.626,134.147 205.79,135.473 177.459,147.825 172.21,149.857 166.025,151.442 93.9747,157.608 87.6297,156.896 82.7601,154.369 78.5717,151.242 76.0193,148.741 77.5162,144.713 43.423,136.98" fill="none" stroke="black" stroke-width="0.1"/>
            <polygon id="polygon3027" points="105.592,116.761 139.594,117.062 197.733,116.052 224.455,116.076 245.681,116.303 264.567,118.548 277.03,123.562 282.085,128.266 283.402,132.136 281.82,136.718 279.384,138.972 274.459,138.937 244.789,133.556 225.258,133.066 199.451,134.167 170.146,135.267 144.48,137.427 119.29,141.787 96.9148,148.676 81.9741,148.932 66.7747,145.811 45.6489,140.326 26.7711,135.853 13.8548,133.369 5.3424,132.553 3.1633,130.776 3.1633,126.824 4.0623,122.84 10.8177,118.545 21.8461,116.355 34.0264,114.861 52.2422,114.438 69.1457,114.948" fill="none" stroke="black" stroke-width="0.1"/>
        </g>
        <g id="_tag_11_">
            <polygon id="path159" points="126.939,176.311 126.127,175.561 125.277,174.852 124.392,174.181 123.472,173.549 123.207,173.217 123.128,172.824 123.217,172.405 123.551,172.108 126.518,170.552 129.618,169.386 132.813,168.611 136.067,168.226 139.345,168.232 142.611,168.627 145.829,169.411 148.963,170.583 149.297,170.862 149.452,171.24 149.404,171.686 149.192,172.037 148.358,172.772 147.559,173.541 146.798,174.345 146.077,175.184 145.398,176.059 144.765,176.969 144.18,177.916 143.644,178.898 129.797,179.723 129.142,178.807 128.448,177.934 127.713,177.102" fill="none" stroke="black" stroke-width="0.1"/>
            <g id="path171_1_1">
                <polyline id="path171_1___0" class="fil0 str0" points="142.602,178.961 131.3876,179.6286 131.4213,180.0366 131.62890000000002,180.566 132.21740000000003,180.951 132.71230000000003,181.0016 133.50310000000002,180.9395 134.62040000000002,180.86280000000002 135.943,180.77720000000002 137.3486,180.69070000000002 138.71710000000002,180.6083 139.92630000000003,180.53680000000003 140.85500000000002,180.48230000000004 141.38190000000003,180.45260000000005 141.84210000000002,180.37120000000004 142.38850000000002,179.96990000000005 142.58040000000003,179.45960000000005 142.58730000000003,179.02760000000006" fill="none" stroke="black" stroke-width="0.1"/>
                <polygon id="path171_1___1" class="fil0 str0" points="142.60200000000003,178.96100000000007" fill="none" stroke="black" stroke-width="0.1"/>
            </g>
            <polygon id="path1045" points="134.168,149.182 135.032,149.065 135.706,148.954 136.213,148.767 136.054,148.361 135.488,148.208 135.094,148.134 134.648,148.058 134.188,147.991 133.753,147.943 133.114,147.945 132.547,148.097 131.819,148.379 131.142,148.683 130.727,148.901 130.403,149.177 131.446,149.449 132.273,149.386 133.215,149.293" fill="none" stroke="black" stroke-width="0.1"/>
            <polygon id="path1073" points="115.03,161.347 114.131,161.509 113.659,161.64 114.196,169.982 114.408,170.352 114.817,170.468 120.883,169.931 121.965,169.251 122.828,168.729 123.711,168.235 124.61,167.769 125.525,167.334 126.454,166.927 127.396,166.552 128.347,166.208 128.286,165.513 128.222,164.781 128.144,163.914 128.06,163.001 127.979,162.135 127.907,161.406 127.852,160.903 127.595,160.374 127.064,160.15 126.356,160.13 125.57,160.211 121.625,160.587 118.643,160.895 116.489,161.146" fill="none" stroke="black" stroke-width="0.1"/>
            <polygon id="path1085" points="155.62,158.17 155.415,157.8 143.276,158.761 142.789,158.755 142.372,158.803 141.74,159.051 141.383,159.496 141.297,160.127 141.349,160.604 141.416,161.298 141.493,162.124 141.571,162.993 141.644,163.82 141.705,164.518 141.747,165.0 142.768,165.342 143.761,165.538 144.739,165.769 145.705,166.032 146.658,166.329 147.598,166.657 148.526,167.017 149.443,167.408 155.868,166.878 156.241,166.692 156.359,166.307" fill="none" stroke="black" stroke-width="0.1"/>
            <polygon id="path1033" points="120.749,151.706 127.252,149.736 127.672,149.577 128.037,149.358 128.335,149.071 128.557,148.707 128.742,148.254 128.855,147.867 129.158,147.58 137.117,146.842 137.525,146.947 137.762,147.313 137.959,147.672 138.203,148.016 138.534,148.284 138.911,148.478 139.321,148.603 146.062,149.376 153.977,149.328 154.42,149.535 154.764,153.095 154.636,153.52 154.236,153.988 153.41,154.302 152.656,154.391 151.541,154.516 150.192,154.656 148.737,154.791 147.305,154.902 146.026,154.969 145.027,154.971 144.437,154.889 143.864,154.533 143.396,154.103 142.849,153.653 142.488,153.439 142.039,153.241 141.554,153.105 140.996,153.044 140.373,153.05 139.699,153.118 138.983,153.238 138.237,153.404 137.47,153.608 136.696,153.843 136.007,154.055 135.472,154.205 135.055,154.304 134.462,154.398 133.981,154.436 133.33,154.499 132.854,154.549 132.261,154.56 131.838,154.535 131.289,154.479 130.58,154.386 129.768,154.289 128.972,154.22 128.206,154.185 127.478,154.192 126.799,154.245 126.179,154.35 125.628,154.515 125.157,154.743 124.763,155.025 124.456,155.303 124.007,155.835 123.619,156.333 123.107,156.783 122.534,156.971 121.545,157.152 120.268,157.317 118.835,157.465 117.374,157.589 116.017,157.686 114.894,157.75 114.133,157.777 113.644,157.754 112.992,157.469 112.677,157.056 112.534,156.185 112.506,155.668 112.487,155.164 112.473,154.699 112.465,154.293 112.458,153.766 112.947,153.065 112.458,153.691 112.57,153.301" fill="none" stroke="black" stroke-width="0.1"/>
        </g>
    </g>
</svg>
