<?xml version="1.0" encoding="UTF-8"?>
<!DOCTYPE svg PUBLIC "-//W3C//DTD SVG 1.1//EN" "http://www.w3.org/Graphics/SVG/1.1/DTD/svg11.dtd">
<!-- Creator: CorelDRAW -->
<svg xmlns="http://www.w3.org/2000/svg" xml:space="preserve" width="210mm" height="297mm" style="shape-rendering:geometricPrecision; text-rendering:geometricPrecision; image-rendering:optimizeQuality; fill-rule:evenodd; clip-rule:evenodd"
viewBox="0 0 210 297">
 <defs>
  <style type="text/css">
   <![CDATA[
    .str0 {stroke:#1F1A17;stroke-width:0.0762}
    .str1 {stroke:#DA251D;stroke-width:0.1764}
    .fil0 {fill:none}
    .fil1 {fill:#C2C1C1}
   ]]>
  </style>
 </defs>
 <g id="Ebene_x0020_1">
  <metadata id="CorelCorpID_0Corel-Layer"/>
  <circle class="fil0 str0" cx="100" cy="147" r="18.368" id="center_00"/>
  <polygon class="fil1 str1" points="68.9225,184.671 60.8212,179.448 61.3136,178.637 59.7627,177.759 59.3969,178.451 55.0005,175.915 53.6641,177.982 55.376,175.137 54.8144,172.69 51.5835,171.045 49.0179,172.002 47.9083,173.847 53.3705,176.847 47.9083,173.847 45.8854,177.35 46.0334,179.023 50.2716,181.202 46.0334,179.023 46.3287,180.365 49.0607,181.85 51.8664,181.081 53.0621,179.081 52.194,180.533 56.4109,183.28 58.9675,179.097 55.7754,184.32 57.2579,185.223 57.863,184.254 65.9523,189.529 "/>
  <polygon class="fil1 str1" points="95.7916,229.348 96.4802,230.103 98.1034,230.814 100.454,230.766 101.572,233.771 99.8194,235.049 98.7468,236.756 98.5957,239.574 99.9457,241.122 101.637,242.197 100.895,245.582 98.6073,245.611 97.0837,246.257 95.3173,248.986 95.2498,251.302 96.1619,252.849 93.2532,254.911 91.8163,253.672 90.1481,253.261 86.6852,254.622 85.8092,256.128 85.4378,258.003 82.1457,258.163 81.8185,256.593 70.8899,252.525 71.8397,249.273 70.3972,247.594 67.667,247.645 65.9858,242.753 67.5906,240.608 67.5203,238.1 65.1743,235.642 70.5206,228.209 86.4646,222.7 94.1423,222.456 "/>
  <circle class="fil1 str1" cx="83.0282" cy="239.155" r="13.9998"/>
  <circle class="fil1 str1" cx="83.0282" cy="239.155" r="8.5013"/>
  <polygon class="fil1 str1" points="90.0419,238.388 94.5195,230.92 103.868,217.962 116.02,205.828 119.067,204.86 126.006,205.037 131.434,204.922 135.116,203.678 138.824,200.881 140.771,198.207 143.338,191.145 143.378,184.065 142.431,175.908 140.458,169.335 136.495,164.254 128.495,161.192 121.987,161.151 115.954,163.478 111.378,167.56 108.582,173.473 108.634,195.242 106.99,199.679 101.725,205.392 91.7412,212.941 72.6406,222.366 67.5558,224.019 64.3143,223.299 60.4615,221.455 59.2701,221.156 58.3267,221.865 57.35,223.284 55.2969,227.913 56.7293,228.332 57.2771,227.486 58.8673,223.747 59.5367,222.758 60.3048,222.453 60.3048,222.453 59.5367,222.758 58.8673,223.747 57.2771,227.486 58.5331,228.342 59.5369,230.164 60.2952,228.561 62.4663,226.494 65.9495,224.729 62.4663,226.494 60.2952,228.561 59.5369,230.164 59.3019,231.46 59.3789,236.325 61.3136,244.274 64.4903,250.425 68.7293,255.453 74,258.474 77.8835,258.787 80.4826,256.726 84.6959,248.382 90.0418,238.388 88.4587,234.476 85.507,232.858 82.1642,232.525 78.8191,233.723 76.4284,237.049 76.1906,240.663 77.2089,243.104 79.605,245.179 82.7105,245.957 86.3749,245.243 82.7104,245.957 79.605,245.179 79.7285,246.451 77.8511,250.134 76.918,252.107 75.0243,252.51 73.2654,251.887 71.8554,250.784 70.2439,249.123 69.5704,248.169 67.751,245.355 67.3745,243.986 66.3263,239.763 66.4814,235.481 68.0512,232.4 70.9018,229.745 74.9793,227.739 76.5359,227.25 80.6339,225.961 90.0008,223.262 91.1101,223.973 91.6541,226.241 90.7907,227.335 89.7037,228.712 85.507,232.858 88.4587,234.476 "/>
  <polygon class="fil1 str1" points="124,166.844 122.534,167.423 120.415,168.43 119.945,168.639 117.194,169.524 116.81,171.707 115.866,173.155 116.18,174.905 124.988,176.738 126.285,176.183 130.875,174.229 134.331,174.065 135.151,172.144 133.803,169.47 130.859,167.64 127.334,166.694 125.975,166.755 "/>
  <polygon class="fil1 str1" points="76.1133,176.231 78.0387,180.674 84.6922,183.379 83.1457,179.194 84.9132,183.977 89.4922,186.132 90.9821,188.733 91.7188,193.552 93.136,195.858 93.9678,198.346 98.6165,203.528 101.039,203.901 102.772,202.568 103.403,200.067 100.133,192.697 99.4876,187.89 98.12,185.542 99.4876,187.89 100.133,192.697 103.403,200.067 102.772,202.568 105.22,199.215 105.315,197.118 103.565,193.197 102.757,189.907 102.826,188.31 103.651,183.275 107.925,184.994 103.651,183.275 102.826,188.31 102.757,189.907 110.341,192.848 116.67,185.4 113.418,177.829 82.539,167.137 77.2722,168.971 "/>
  <polygon class="fil1 str1" points="93.0213,138.693 86.0704,144.722 81.9082,149.599 79.472,153.058 67.8121,170.32 66.4746,172.767 61.656,178.072 57.7697,184.479 57.4705,186.349 59.1047,187.965 62.3046,190.142 66.931,182.328 68.6094,180.918 70.8565,181.518 79.3181,185.835 81.4672,186.826 82.4597,186.001 81.8769,185.944 79.1092,183.836 76.1848,180.681 69.9749,177.394 66.6348,180.355 69.9748,177.394 76.1848,180.681 79.1092,183.836 81.9721,186.017 82.4597,186.001 83.5429,184.508 83.2182,183.741 80.2251,181.474 77.845,178.044 77.224,177.248 78.2305,177.007 79.4962,176.407 78.8471,174.114 76.7409,171.992 72.9271,170.103 69.8174,169.372 72.9271,170.103 76.7409,171.992 78.847,174.114 79.4962,176.407 80.5595,173.676 80.5777,172.228 79.2906,170.901 77.9596,169.761 75.5307,168.235 83.0667,156.883 87.1422,158.463 90.8238,155.158 87.1424,158.463 83.0666,156.883 75.5307,168.235 77.9596,169.761 79.2906,170.901 80.5777,172.228 86.9004,159.5 91.2809,155.83 92.8046,155.527 96.7685,157.59 102.014,158.151 106.947,155.758 109.746,152.204 111.121,147.384 110.218,143.05 107.774,139.435 104.555,137.28 100.612,136.177 96.51,136.692 "/>
  <polygon class="fil1 str1" points="84.4116,158.95 87.1422,158.463 90.0693,158.056 91.6585,157.621 96.1689,158.607 101.925,160.525 109.638,163.401 116.482,166.417 116.682,167.015 116.326,168.253 116.426,169.505 120.879,172.179 122.652,173.999 122.935,175.26 116.67,185.4 111.837,182.245 109.126,180.984 103.926,176.268 98.0168,172.952 91.4763,170.713 86.1432,170.154 85.4291,170.998 104.263,177.85 97.1355,184.188 95.7024,184.561 84.8256,180.205 83.4047,178.666 83.5124,176.537 84.4059,170.616 80.7803,169.788 84.4059,170.616 83.6904,175.358 80.3552,174.2 80.5778,172.228 79.2906,170.901 77.9596,169.761 77.043,169.185 79.3137,165.282 82.0401,161.308 83.2466,159.731 "/>
  <polygon class="fil1 str1" points="118.997,167.657 123.208,169.196 127.239,171.494 128.91,173.93 130.792,178.174 129.542,181.349 128.701,183.123 126.7,184.906 128.701,183.123 129.542,181.349 131.179,182.46 135.642,184.319 137.703,186.935 139.104,189.965 138.935,193.222 137.486,196.688 133.922,200.523 129.29,201.722 124.255,200.533 118.952,197.938 120.421,195.012 118.952,197.938 116.934,198.839 112.983,198.974 106.997,196.676 105.419,195.078 106.634,193.083 108.101,192.258 115.844,196.551 108.101,192.258 108.953,191.105 116.888,195.471 108.953,191.105 110.126,189.024 107.643,186.716 108.002,184.523 111.554,185.968 116.114,189.43 111.554,185.968 108.002,184.523 109.097,183.222 109.918,182.247 111.837,182.245 113.525,183.405 117.834,186.139 124.677,174.748 123.356,172.734 120.416,170.813 117.194,169.524 117.629,168.179 "/>
  <polygon class="fil1 str1" points="95.6508,193.44 94.4434,195.318 94.2308,196.412 94.4434,195.318 94.3758,195.666 93.6927,195.87 92.6888,196.887 92.5297,197.399 93.4367,196.848 92.5297,197.399 92.2443,198.117 92.6364,199.275 99.0129,203.178 100.518,203.461 101.423,202.615 100.972,200.766 100.248,199.81 99.4254,199.178 100.248,199.81 100.972,200.766 101.423,202.615 102.556,201.036 102.273,199.398 101.399,198.384 100.8,197.899 99.1879,196.528 97.8937,195.891 98.0803,195.033 97.6543,194.073 97.0931,195.265 96.7042,196.059 97.0923,197.17 96.7042,196.059 97.6543,194.073 "/>
  <polygon class="fil1 str1" points="97.7747,206.217 100.833,202.24 100.655,201.263 99.5748,199.896 97.6416,198.529 95.4061,197.628 93.695,197.53 93.099,197.738 92.6346,198.066 91.0838,202.319 90.9853,203.113 91.5044,203.972 92.7242,205.047 94.3066,205.979 95.9361,206.436 97.431,206.533 "/>
  <polyline class="fil0 str1" points="97.7094,205.907 97.2284,204.68 95.7684,203.196 93.6994,202.063 92.2369,201.94 91.4047,202.241 "/>
  <circle class="fil0 str1" cx="100" cy="147" r="9.4986"/>
  <circle class="fil0 str1" cx="100" cy="147" r="7.9988"/>
  <circle class="fil0 str1" cx="100" cy="147" r="3.4994"/>
  <circle class="fil1 str1" cx="83.0508" cy="239.155" r="3.4999"/>
 </g>
</svg>
