<?xml version="1.0" encoding="UTF-8"?>
<!DOCTYPE svg PUBLIC "-//W3C//DTD SVG 1.1//EN" "http://www.w3.org/Graphics/SVG/1.1/DTD/svg11.dtd">
<!-- Creator: CorelDRAW -->
<svg xmlns="http://www.w3.org/2000/svg" xml:space="preserve" width="210mm" height="297mm" style="shape-rendering:geometricPrecision; text-rendering:geometricPrecision; image-rendering:optimizeQuality; fill-rule:evenodd; clip-rule:evenodd"
viewBox="0 0 210 297">
 <g id="Ebene_x0020_1">
  <metadata id="CorelCorpID_0Corel-Layer"/>
  <polygon class="fil0 str0" points="85.0396,189.684 85.0396,197 114.96,197 114.96,189.684 "/>
  <polygon class="fil0 str0" points="101.973,256.663 100.488,253.251 99.1745,250.61 97.3817,248.02 95.5886,246.136 93.4019,244.199 91.0427,242.508 88.9991,241.07 86.7284,239.631 85.2029,227.904 85.1194,225.476 85.5224,221.713 86.0811,218.644 86.2937,217.476 87.387,212.652 88.1784,208.053 88.1784,208.053 87.387,212.652 86.2937,217.476 86.0811,218.644 84.5068,218.611 83.8457,218.313 83.5602,217.383 83.56,196.918 117.837,196.918 117.809,199.397 117.837,200.131 117.213,201.955 116.732,203.764 116.479,205.601 116.732,203.764 117.213,201.955 117.837,200.131 118.2,200.143 119.808,213.234 117.837,213.501 116.53,211.437 116.093,209.699 116.037,207.197 116.037,207.197 116.093,209.699 116.53,211.437 117.837,213.501 117.837,213.501 117.837,214.85 117.554,215.282 117.039,215.652 114.439,215.652 112.971,212.635 111.481,207.038 112.971,212.635 114.439,215.652 115.259,217.437 117.693,235.972 114.926,237.663 113.238,238.928 111.389,240.743 109.879,242.522 108.396,244.655 107.073,246.904 105.665,249.803 104.968,252.667 104.414,256.035 104.268,257.151 103.384,257.738 102.471,257.486 "/>
  <polygon class="fil0 str0" points="99.9547,246.22 98.2472,244.085 95.94,242.079 93.7603,240.639 92.0222,239.769 91.2513,238.992 91.3152,237.881 92.1054,237.313 92.9048,237.009 94.3655,236.733 100.734,235.988 107.542,235.435 109.204,235.403 110.389,235.73 110.747,236.681 110.583,237.637 109.858,238.423 108.516,239.383 106.4,241.325 104.828,243.469 103.625,245.514 102.945,246.736 102.156,247.406 101.206,247.355 100.59,247.001 "/>
  <circle class="fil0 str0" cx="100" cy="197" r="8.30166" id="center_00"/>
 </g>
</svg>
