<!DOCTYPE svg PUBLIC "-//W3C//DTD SVG 1.1//EN" "http://www.w3.org/Graphics/SVG/1.1/DTD/svg11.dtd">
<svg xmlns="http://www.w3.org/2000/svg" width="297mm" height="210mm" viewBox="0 0 297 210">
    <defs id="_tag_56_"/>
    <g id="Ebene_x0020_1">
        <g id="Ebene_x0020_1-4">
            <polygon points="136.442,152.808 133.016,155.225 128.544,157.861 124.152,158.901 115.906,159.132 55.2666,162.063 49.2006,162.374 44.6694,162.821 40.4962,161.71 37.5477,158.929 34.4999,154.428 31.3149,149.743 27.9899,145.527 22.5317,141.176 8.2479,136.609 4.1813,139.265 16.4658,146.394 24.9315,152.16 28.3736,157.225 31.4574,162.272 35.1317,166.129 38.7509,168.429 43.8703,170.208 49.5816,170.556 57.6866,170.522 120.642,167.174 125.563,166.514 129.013,164.993 131.743,163.239 139.079,158.363 145.993,154.617 154.815,151.663 167.548,148.281 185.721,145.893 180.97,139.821 174.543,139.588 160.702,144.316 145.386,148.633 140.389,150.562" fill="none" stroke="black" stroke-width="0.1" id="_tag_260_"/>
            <polygon points="185.003,151.389 187.896,152.467 190.603,152.416 197.533,151.843 237.023,149.294 237.922,148.553 237.596,147.335 227.194,141.445 171.99,137.955 174.125,142.505 180.371,147.67" fill="none" stroke="black" stroke-width="0.1" id="_tag_261_"/>
            <polygon points="-33.955,132.25 -34.8871,130.57 -31.3806,127.749 -2.2349,134.35 1.1256,141.18 0.7739,142.248 -0.6132,146.461 -25.6518,141.435 -27.9099,139.391" fill="none" stroke="black" stroke-width="0.1" id="_tag_262_"/>
            <polygon points="245.562,136.771 242.584,132.875 236.598,129.225 228.346,126.532 216.388,123.863 200.426,121.455 188.647,120.15 176.635,119.129 160.633,118.179 146.617,117.844 132.134,117.841 109.218,118.137 86.9346,117.966 66.4066,117.444 46.5348,116.652 13.6624,114.719 -19.226,112.254 -21.2021,112.486 -29.0964,116.141 -36.2359,121.427 -37.3196,123.888 -37.3627,127.141 -36.6511,129.044 -35.5588,130.355 -31.4928,131.657 -27.1826,135.636 -23.8239,137.753 -20.0142,139.115 -15.8606,139.837 -6.852,140.743 5.5074,141.754 15.4608,143.578 27.0451,146.478 38.547,150.1 49.6986,153.018 60.7976,153.957 67.3066,152.096 77.0846,147.563 92.7266,140.285 97.2186,138.385 102.593,137.408 108.68,136.891 134.755,137.604 151.573,138.794 171.594,140.482 190.087,142.886 193.726,144.312 198.378,147.957 200.689,149.101 237.596,147.335 242.122,147.096 244.187,145.076 245.422,142.395 246.429,139.437" fill="none" stroke="black" stroke-width="0.1" id="_tag_263_"/>
            <polyline points="-12.8826,115.054 -0.5152000000000001,118.8723 18.3837,125.99239999999999 41.0056,133.7591 47.7216,136.4271 53.793600000000005,140.1071 57.933600000000006,144.2471 60.87760000000001,147.9271 61.88960000000001,150.4111 61.88960000000001,151.9751" fill="none" stroke="black" stroke-width="0.1" id="_tag_264__1"/>
            <polyline points="74.1306,131.365 86.1156,125.8674 94.43860000000001,124.1062 105.7946,123.1179 125.2646,122.04220000000001 139.6676,121.1312 157.6486,121.03620000000001 184.7586,122.24680000000001 190.5066,123.77350000000001" fill="none" stroke="black" stroke-width="0.1" id="_tag_265__1"/>
            <polyline points="17.7319,122.899 28.119799999999998,125.75110000000001 46.6988,128.85060000000001 57.7526,129.2392 64.80760000000001,128.34900000000002 75.1486,125.66480000000001" fill="none" stroke="black" stroke-width="0.1" id="_tag_266__1"/>
            <line x1="60.6446" y1="164.177" x2="60.9556" y2="169.168" fill="none" stroke="black" stroke-width="0.1" id="_tag_267_"/>
            <line x1="70.6286" y1="163.608" x2="70.9396" y2="168.599" fill="none" stroke="black" stroke-width="0.1" id="_tag_268_"/>
            <line x1="80.6126" y1="163.039" x2="80.9236" y2="168.03" fill="none" stroke="black" stroke-width="0.1" id="_tag_269_"/>
            <line x1="90.5966" y1="162.47" x2="90.9076" y2="167.461" fill="none" stroke="black" stroke-width="0.1" id="_tag_270_"/>
            <line x1="100.581" y1="161.901" x2="100.892" y2="166.892" fill="none" stroke="black" stroke-width="0.1" id="_tag_271_"/>
            <polyline points="119.147,134.686 144.31300000000002,134.2815 164.24,134.0854 184.79000000000002,134.72 200.70700000000002,135.9718" fill="none" stroke="black" stroke-width="0.1" id="_tag_272__1"/>
            <circle cx="95.3366" cy="118.031" r="14.855" fill="none" stroke="black" stroke-width="0.1" id="center_00"/>
            <polyline points="208.936,136.779 228.487,138.5281 243.174,140.8571 243.93,139.4801" fill="none" stroke="black" stroke-width="0.1" id="_tag_274__1"/>
        </g>
        <g id="_129821232-9">
            <polygon points="109.277,177.829 109.597,178.124 109.733,178.508 109.662,178.952 109.432,179.292 108.562,179.983 107.725,180.711 106.924,181.475 106.161,182.276 105.439,183.115 104.76,183.992 104.128,184.908 103.543,185.862 89.6712,185.982 89.0646,185.034 88.4157,184.126 87.7238,183.258 86.9907,182.429 86.2175,181.639 85.4054,180.887 84.5553,180.172 83.6684,179.494 83.4209,179.149 83.3618,178.753 83.4717,178.338 83.8209,178.059 86.8635,176.655 90.0182,175.649 93.2481,175.038 96.5182,174.819 99.7916,174.991 103.033,175.552 106.208,176.498" fill="none" stroke="black" stroke-width="0.1" id="path159-4"/>
            <polyline points="102.499,185.872 91.26509999999999,185.9687 91.27799999999999,186.3779 91.45849999999999,186.9172 92.02669999999999,187.3316 92.5183,187.40720000000002 93.3113,187.3855 94.431,187.3656 95.7563,187.3474 97.16449999999999,187.33249999999998 98.5354,187.31969999999998 99.74669999999999,187.3098 100.67689999999999,187.30259999999998 101.20469999999999,187.29969999999997 101.66839999999999,187.24179999999998 102.2345,186.8688 102.4521,186.3689 102.481,185.9378" fill="none" stroke="black" stroke-width="0.1" id="path171-8_1"/>
            <polygon points="91.9499,155.772 92.8571,155.83 93.687,155.81 94.6321,155.766 95.5896,155.703 96.4587,155.63 97.1376,155.553 97.6533,155.392 97.5154,154.978 96.9575,154.797 96.5676,154.703 96.1258,154.604 95.6703,154.514 95.2384,154.444 94.5999,154.414 94.0259,154.536 93.2842,154.781 92.5927,155.05 92.1674,155.248 91.8297,155.507" fill="none" stroke="black" stroke-width="0.1" id="path1045-8"/>
            <polygon points="88.8581,170.979 88.8242,170.109 88.7867,169.194 88.7497,168.325 88.7154,167.592 88.6857,167.087 88.4562,166.545 87.9368,166.295 87.2309,166.239 86.4415,166.28 82.4828,166.455 79.4892,166.612 77.3252,166.752 75.8583,166.879 74.9519,166.995 74.4734,167.101 74.5859,175.46 74.7785,175.841 75.1813,175.977 81.2673,175.749 82.382,175.125 83.2708,174.648 84.1776,174.199 85.0992,173.78 86.0355,173.391 86.9835,173.032 87.9432,172.705 88.9104,172.41 88.8853,171.714" fill="none" stroke="black" stroke-width="0.1" id="path1073-2"/>
            <polygon points="104.338,172.525 105.304,172.805 106.255,173.118 107.191,173.462 108.113,173.838 109.022,174.245 109.918,174.682 116.362,174.479 116.743,174.312 116.882,173.933 116.557,165.77 116.371,165.389 104.199,165.732 103.713,165.702 103.293,165.728 102.65,165.944 102.271,166.37 102.153,166.996 102.18,167.475 102.212,168.172 102.247,169 102.281,169.872 102.312,170.702 102.337,171.402 102.354,171.885 103.357,172.279" fill="none" stroke="black" stroke-width="0.1" id="path1085-4"/>
            <polygon points="100.766,155.386 107.458,156.501 115.365,156.855 115.797,157.085 115.96,160.658 115.811,161.076 115.387,161.523 114.546,161.795 113.789,161.845 112.669,161.912 111.315,161.984 109.855,162.045 108.418,162.083 107.138,162.084 106.141,162.036 105.555,161.924 105.001,161.54 104.555,161.086 104.032,160.609 103.683,160.377 103.244,160.156 102.767,159.996 102.212,159.907 101.59,159.882 100.914,159.915 100.192,159.998 99.4384,160.126 98.6626,160.291 97.8774,160.486 97.1789,160.663 96.6361,160.786 96.2149,160.863 95.6183,160.928 95.1359,160.941 94.4828,160.97 94.0045,160.995 93.4112,160.977 92.9905,160.93 92.4453,160.846 91.742,160.718 90.9353,160.579 90.1443,160.469 89.3807,160.396 88.6539,160.365 87.9725,160.384 87.3481,160.458 86.7891,160.594 86.3071,160.799 85.9,161.061 85.5793,161.322 85.1031,161.831 84.6907,162.308 84.1569,162.731 83.5741,162.891 82.5773,163.02 81.294,163.121 79.8551,163.195 78.3901,163.245 77.0301,163.272 75.9053,163.28 75.1439,163.269 74.6562,163.22 74.0196,162.902 73.7263,162.474 73.6277,161.597 73.6261,161.079 73.6324,160.575 73.6419,160.109 73.6547,159.704 73.6749,159.177 74.1988,158.502 73.6786,159.102 73.8102,158.718 82.0596,157.541 88.6543,155.904 89.082,155.767 89.4572,155.567 89.7698,155.295 90.0103,154.943 90.2176,154.5 90.35,154.119 90.6675,153.849 98.6539,153.516 99.0555,153.642 99.2745,154.019 99.4529,154.387 99.6785,154.743 99.9958,155.028 100.363,155.241" fill="none" stroke="black" stroke-width="0.1" id="path1033-5"/>
        </g>
    </g>
</svg>
