<!DOCTYPE svg PUBLIC "-//W3C//DTD SVG 1.1//EN" "http://www.w3.org/Graphics/SVG/1.1/DTD/svg11.dtd">
<svg xmlns="http://www.w3.org/2000/svg" width="297mm" height="210mm" viewBox="0 0 297 210">
    <defs id="_tag_89_"/>
    <g id="Ebene_x0020_1">
        <g id="_132527576">
            <polygon points="-13.5318,105.749 31.500899999999998,115.9709 33.333,148.3356 29.786872070312498,147.7932044921875 25.6650265625,146.9678609375 21.170320898437495,145.93688378906248 16.505612499999998,144.77758749999998 11.8737587890625,143.56728652343753 7.477617187499998,142.38329531250002 3.5200451171874967,141.3029283203125 0.2038999999999973,140.4035 0.2038999999999973,140.4035 -0.11723398437500271,140.284853125 -0.47159062500000276,140.09720625 -0.8524644531250027,139.85056250000002 -1.2531500000000029,139.55492500000003 -1.6669417968750024,139.22029687500003 -2.087134375000003,138.85668125000004 -2.507022265625003,138.47408125 -2.919900000000003,138.0825 -2.919900000000003,138.0825 -3.162345312500003,137.8481921875 -3.3996625000000025,137.61755 -3.629648437500003,137.3920453125 -3.850100000000003,137.17315000000002 -4.058814062500003,136.9623359375 -4.253587500000003,136.761075 -4.432217187500004,136.57083906250003 -4.592500000000003,136.3931 -7.501100000000003,133.0862 -7.992121289062503,132.49733203124998 -8.441682812500003,131.8975375 -8.850381054687503,131.29069296875 -9.218812500000002,130.68067499999998 -9.547573632812503,130.07136015625 -9.837260937500004,129.466625 -10.088470898437503,128.87034609374996 -10.301800000000004,128.2864 -15.670100000000003,112.38469999999998 -15.846954296875003,111.49299628906248 -15.859846875000002,110.44572031249999 -15.727309765625003,109.32954980468747 -15.467875000000003,108.23116249999998 -15.100074609375003,107.23723613281248 -14.642440625000003,106.43444843749998 -14.113505078125003,105.90947714843749 -13.531800000000004,105.74899999999998" fill="none" stroke="black" stroke-width="0.1" id="_133931640"/>
            <polygon points="0.2548,98.1441 9.408016406249999,100.1188123046875 18.48490625,101.92899218749999 27.524567968750002,103.5457541015625 36.566100000000006,104.9402125 45.648600781249996,106.0834818359375 54.81116874999999,106.94667656249999 64.09290234375001,107.50091113281249 73.5329,107.7173 73.5329,107.7173 89.18263906249999,107.51817480468749 103.88594375,106.8634421875 117.9586578125,105.86045410156248 131.716625,104.61656249999999 145.47568906249998,103.23911933593749 159.55169374999997,101.83547656249998 174.2604828125,100.51298613281249 189.9179,99.37899999999999 189.9179,99.37899999999999 196.38967499999998,99.0795486328125 203.3898625,98.9901265625 210.70784375,99.18574433593749 218.133,99.7414125 225.4547125,100.73214160156249 232.4623625,102.23294218749999 238.94533125,104.31882480468748 244.693,107.06479999999999 244.693,107.06479999999999 247.3544736328125,108.97422343749999 249.69627031250002,111.35038125 251.67159121093752,114.0807921875 253.23363750000001,117.05297499999999 254.3356103515625,120.1544484375 254.9307109375,123.27273124999999 254.97214042968753,126.2953421875 254.41310000000001,129.1098 254.41310000000001,129.1098 253.6091669921875,130.6714220703125 252.45596718750002,131.6908140625 251.01057441406252,132.26281464843748 249.33006250000003,132.4822625 247.47150527343751,132.4439962890625 245.4919765625,132.2428546875 243.44855019531252,131.97367636718752 241.3983,131.7313 241.3983,131.7313 237.98545156250003,131.3298455078125 234.667825,130.8556328125 231.2462859375,130.3776630859375 227.5217,129.9649375 223.2949328125,129.68645722656248 218.36685000000003,129.6112234375 212.5383171875,129.80823730468748 205.61020000000002,130.3465 205.61020000000002,130.3465 200.21039726562503,131.01407792968752 194.91248437500002,131.9553296875 189.71604179687503,133.1643947265625 184.62065,134.6354125 179.625889453125,136.36252246093747 174.73134062500003,138.3398640625 169.936583984375,140.56157675781247 165.24120000000002,143.02179999999998 165.24120000000002,143.02179999999998 155.44038574218754,148.93926894531248 146.73630468750002,154.9178453125 138.84434941406252,160.68005839843747 131.4799125,165.94843749999998 124.35838652343753,170.44551191406248 117.19516406250003,173.89381093749998 109.7056376953125,176.01586386718748 101.60520000000002,176.5342 101.60520000000002,176.5342 87.82015585937502,175.3227369140625 74.32415937500002,172.9558390625 61.148389453125034,169.4874935546875 48.32402500000003,164.9716875 35.88224492187502,159.46240800781248 23.854228125000024,153.0136421875 12.271153515625027,145.67937714843748 1.1642000000000223,137.5136 1.1642000000000223,137.5136 -1.5002406249999776,135.1280291015625 -4.087412499999978,132.2713515625 -6.534315624999978,129.04828261718748 -8.77794999999998,125.5635375 -10.755315624999977,121.92183144531249 -12.403412499999977,118.2278796875 -13.659240624999978,114.58639746093749 -14.459799999999978,111.1021 -14.459799999999978,111.1021 -14.604092187499978,108.70105976562499 -14.266706249999979,106.152834375 -13.405098437499978,103.642629296875 -11.976724999999977,101.35565 -9.939042187499979,99.47710195312499 -7.249506249999978,98.192190625 -3.865573437499979,97.686121484375 0.2553000000000214,98.1441" fill="none" stroke="black" stroke-width="0.1" id="_133846280"/>
        </g>
        <circle cx="101.477" cy="107" r="13.6" fill="none" stroke="black" stroke-width="0.1" id="center_00"/>
    </g>
</svg>
