<?xml version="1.0" encoding="UTF-8"?>
<!DOCTYPE svg PUBLIC "-//W3C//DTD SVG 1.1//EN" "http://www.w3.org/Graphics/SVG/1.1/DTD/svg11.dtd">
<!-- Creator: CorelDRAW -->
<svg xmlns="http://www.w3.org/2000/svg" xml:space="preserve" width="210mm" height="297mm" style="shape-rendering:geometricPrecision; text-rendering:geometricPrecision; image-rendering:optimizeQuality; fill-rule:evenodd; clip-rule:evenodd"
viewBox="0 0 210 297">
 <defs>
  <style type="text/css">
   <![CDATA[
    .str1 {stroke:black;stroke-width:0.0265}
    .str0 {stroke:#1F1A17;stroke-width:0.0762}
    .str2 {stroke:#DA2625;stroke-width:0.0762}
    .fil0 {fill:none}
    .fil2 {fill:#969594}
    .fil3 {fill:#AAA9A9}
    .fil1 {fill:#C2C1C1}
   ]]>
  </style>
 </defs>
 <g id="Ebene_x0020_1">
  <metadata id="CorelCorpID_0Corel-Layer"/>
  <rect class="fil0 str0" x="101.475" y="76.7622" width="31.8912" height="196.692"/>
  <polygon class="fil1 str0" points="118.006,32.2866 122.67,32.2866 123.464,32.4828 121.284,32.4828 120.491,33.276 120.491,34.2655 120.491,33.276 121.284,32.4828 123.464,32.4828 123.856,32.6833 124.453,35.2591 123.067,35.2591 124.453,35.2591 124.85,35.6516 125.246,35.8519 123.562,35.8519 125.97,35.8519 129.601,35.8519 129.997,36.2486 125.046,36.2486 129.997,36.2486 130.394,38.2273 128.611,38.2273 130.394,38.2273 130.79,40.9995 130.394,41.3961 129.404,41.3961 117.447,37.2611 118.098,34.0692 "/>
  <polygon class="fil2 str0" points="75.132,25.749 75.3323,25.3524 75.7248,24.9599 76.0539,24.7383 76.518,24.5633 116.926,24.5633 117.519,24.7596 117.915,25.1561 118.116,25.5528 118.312,26.3458 118.703,31.4484 118.905,34.0692 97.6455,63.1781 97.3168,61.2053 96.0288,57.7383 94.5427,53.9747 93.5739,51.7662 92.5618,50.113 91.2759,48.7269 90.504,47.9314 89.723,47.4094 90.504,47.9314 91.2759,48.7269 76.6674,48.7269 76.0431,48.484 75.4676,48.0706 75.132,47.5372 74.3388,37.2379 74.3388,35.8519 "/>
  <polyline class="fil0 str0" points="91.789,39.2741 92.5822,41.6496 93.5716,42.9734 95.1539,44.2254 95.5505,44.2254 "/>
  <polyline class="fil0 str0" points="83.6485,26.3458 85.463,26.4515 86.7899,26.6713 87.4746,26.9681 88.4035,27.8301 88.9964,28.9177 89.1967,29.9112 "/>
  <polyline class="fil0 str0" points="116.826,26.5421 116.333,27.3353 116.333,28.6233 116.725,31.4955 117.122,34.0692 "/>
  <polygon class="fil3 str1" points="136.731,78.8314 137.306,64.7062 137.328,63.3847 136.731,49.1236 136.709,48.8363 136.535,48.1301 136.138,47.5372 135.791,47.3565 135.459,47.2553 134.752,47.1406 100.089,47.1406 99.382,47.2553 98.7028,47.5372 98.3063,48.1301 98.1317,48.8363 98.11,49.1236 97.5131,63.3847 97.5131,64.1737 98.11,78.8314 98.1317,79.1186 98.3063,79.8248 98.7028,80.4178 99.382,80.6996 100.089,80.8143 134.752,80.8143 135.459,80.6996 135.791,80.5984 136.138,80.4178 136.535,79.8248 136.709,79.1186 "/>
  <line class="fil0 str1" x1="99.9845" y1="49.1236" x2="134.824" y2= "49.1236" />
  <line class="fil0 str1" x1="134.872" y1="78.8314" x2="100.082" y2= "78.8314" />
  <rect class="fil3 str0" x="104.447" y="41.9931" width="25.9464" height="3.16864"/>
  <rect class="fil3 str0" x="118.093" y="41.9931" width="11.6853" height="3.16864"/>
  <polygon class="fil3 str0" points="117.323,41.9931 129.404,41.9931 129.404,39.8137 129.108,39.0205 128.415,38.0311 127.622,37.4343 126.436,36.8414 124.056,35.8519 121.877,34.8624 118.909,34.0692 115.736,34.0692 112.768,34.8624 110.588,35.8519 108.209,36.8414 107.023,37.4343 106.23,38.0311 105.537,39.0205 105.241,39.8137 105.241,41.9931 "/>
  <polygon class="fil0 str0" points="106.23,41.3961 113.953,41.3961 114.943,41.1999 115.54,40.8032 115.936,40.2104 115.836,37.4343 115.523,36.3965 114.943,35.4554 113.557,35.2591 111.378,35.95 107.518,37.6346 106.23,38.8243 105.637,39.8137 105.637,40.9995 "/>
  <polygon class="fil0 str0" points="128.415,41.3961 120.691,41.3961 119.702,41.1999 119.105,40.8032 118.709,40.2104 118.809,37.4343 119.122,36.3965 119.702,35.4554 121.088,35.2591 123.267,35.95 127.127,37.6346 128.415,38.8243 129.008,39.8137 129.008,40.9995 "/>
  <polygon class="fil1 str0" points="101.84,45.165 132.969,45.1617 133.366,45.5582 133.366,46.7441 132.969,47.1406 101.84,47.1406 101.475,46.744 101.475,45.5582 "/>
  <rect class="fil1 str0" x="101.475" y="45.5582" width="31.8912" height="1.18571"/>
  <rect class="fil3 str0" x="105.063" y="41.9931" width="11.6853" height="3.16864"/>
  <circle id="center_00" class="fil0 str2" cx="96.6288" cy="24.5633" r="4.12967"/>
  <polygon class="fil0 str0" points="82.4608,-23.3716 111.179,-23.3716 111.179,11.488 82.4608,11.488 "/>
  <polygon class="fil0 str0" points="82.2605,14.6566 111.38,14.6566 111.179,11.4879 82.4608,11.4879 "/>
  <polygon class="fil0 str0" points="81.6676,18.0256 111.776,18.0256 111.776,24.5633 81.6676,24.5633 "/>
  <polygon class="fil0 str0" points="81.6676,18.0256 111.776,18.0256 111.38,14.6566 82.2605,14.6566 "/>
 </g>
</svg>
